<?xml version="1.0" encoding="UTF-8" standalone="no"?>
<!DOCTYPE svg PUBLIC "-//W3C//DTD SVG 1.1//EN"
 "http://www.w3.org/Graphics/SVG/1.1/DTD/svg11.dtd">
<!-- Generated by graphviz version 2.26.3 (20100126.1600)
 -->
<!-- Title: _anonymous_0 Pages: 1 -->
<svg width="434pt" height="116pt"
 viewBox="0.00 0.00 434.00 116.00" xmlns="http://www.w3.org/2000/svg" xmlns:xlink="http://www.w3.org/1999/xlink">
<g id="graph1" class="graph" transform="scale(1 1) rotate(0) translate(4 112)">
<title>_anonymous_0</title>
<!-- ADSORPTION -->
<g id="node1" class="node"><title>ADSORPTION</title>
<a xlink:href="ADSORPTION.html" xlink:title="Statistical mechanics of adsorption" target="_top">
<polyline fill="none" stroke="blue" stroke-width="2" points="318,-36 86,-36 "/>
<path fill="none" stroke="blue" stroke-width="2" d="M86,-36C80,-36 74,-30 74,-24"/>
<polyline fill="none" stroke="blue" stroke-width="2" points="74,-24 74,-12 "/>
<path fill="none" stroke="blue" stroke-width="2" d="M74,-12C74,-6 80,-1.74305e-14 86,-1.70974e-14"/>
<polyline fill="none" stroke="blue" stroke-width="2" points="86,-1.70974e-14 318,-4.21885e-15 "/>
<path fill="none" stroke="blue" stroke-width="2" d="M318,-4.21885e-15C324,-3.88578e-15 330,-6 330,-12"/>
<polyline fill="none" stroke="blue" stroke-width="2" points="330,-12 330,-24 "/>
<path fill="none" stroke="blue" stroke-width="2" d="M330,-24C330,-30 324,-36 318,-36"/>
<text text-anchor="start" x="82.5" y="-15.2333" font-family="Times Roman,serif" font-size="14.00">Statistical mechanics of adsorption</text>
</a>
</g>
<!-- CANONICAL_ENSEMBLE -->
<g id="node2" class="node"><title>CANONICAL_ENSEMBLE</title>
<a xlink:href="CANONICAL_ENSEMBLE.html" xlink:title="The canonical ensemble" target="_top">
<polyline fill="none" stroke="black" points="170,-108 12,-108 "/>
<path fill="none" stroke="black" d="M12,-108C6,-108 5.92119e-14,-102 4.73695e-14,-96"/>
<polyline fill="none" stroke="black" points="4.73695e-14,-96 2.36848e-14,-84 "/>
<path fill="none" stroke="black" d="M2.36848e-14,-84C1.18424e-14,-78 6,-72 12,-72"/>
<polyline fill="none" stroke="black" points="12,-72 170,-72 "/>
<path fill="none" stroke="black" d="M170,-72C176,-72 182,-78 182,-84"/>
<polyline fill="none" stroke="black" points="182,-84 182,-96 "/>
<path fill="none" stroke="black" d="M182,-96C182,-102 176,-108 170,-108"/>
<text text-anchor="start" x="8.5" y="-87.2333" font-family="Times Roman,serif" font-size="14.00">The canonical ensemble</text>
</a>
</g>
<!-- CANONICAL_ENSEMBLE&#45;&gt;ADSORPTION -->
<g id="edge2" class="edge"><title>CANONICAL_ENSEMBLE&#45;&gt;ADSORPTION</title>
<path fill="none" stroke="black" d="M119.01,-71.8314C133.076,-62.7074 150.294,-51.539 165.393,-41.7449"/>
<polygon fill="black" stroke="black" points="167.514,-44.5412 173.999,-36.1628 163.705,-38.6684 167.514,-44.5412"/>
</g>
<!-- GRAND_CANONICAL_ENSEMBLE -->
<g id="node4" class="node"><title>GRAND_CANONICAL_ENSEMBLE</title>
<a xlink:href="GRAND_CANONICAL_ENSEMBLE.html" xlink:title="The grand canonical ensemble" target="_top">
<polyline fill="none" stroke="black" points="414,-108 212,-108 "/>
<path fill="none" stroke="black" d="M212,-108C206,-108 200,-102 200,-96"/>
<polyline fill="none" stroke="black" points="200,-96 200,-84 "/>
<path fill="none" stroke="black" d="M200,-84C200,-78 206,-72 212,-72"/>
<polyline fill="none" stroke="black" points="212,-72 414,-72 "/>
<path fill="none" stroke="black" d="M414,-72C420,-72 426,-78 426,-84"/>
<polyline fill="none" stroke="black" points="426,-84 426,-96 "/>
<path fill="none" stroke="black" d="M426,-96C426,-102 420,-108 414,-108"/>
<text text-anchor="start" x="208.5" y="-87.2333" font-family="Times Roman,serif" font-size="14.00">The grand canonical ensemble</text>
</a>
</g>
<!-- GRAND_CANONICAL_ENSEMBLE&#45;&gt;ADSORPTION -->
<g id="edge4" class="edge"><title>GRAND_CANONICAL_ENSEMBLE&#45;&gt;ADSORPTION</title>
<path fill="none" stroke="black" d="M284.99,-71.8314C270.924,-62.7074 253.706,-51.539 238.607,-41.7449"/>
<polygon fill="black" stroke="black" points="240.295,-38.6684 230.001,-36.1628 236.486,-44.5412 240.295,-38.6684"/>
</g>
</g>
</svg>
