<?xml version="1.0" encoding="UTF-8" standalone="no"?>
<!DOCTYPE svg PUBLIC "-//W3C//DTD SVG 1.1//EN"
 "http://www.w3.org/Graphics/SVG/1.1/DTD/svg11.dtd">
<!-- Generated by graphviz version 2.26.3 (20100126.1600)
 -->
<!-- Title: _anonymous_0 Pages: 1 -->
<svg width="434pt" height="116pt"
 viewBox="0.00 0.00 434.00 116.00" xmlns="http://www.w3.org/2000/svg" xmlns:xlink="http://www.w3.org/1999/xlink">
<g id="graph1" class="graph" transform="scale(1 1) rotate(0) translate(4 112)">
<title>_anonymous_0</title>
<!-- ADSORPTION -->
<g id="node1" class="node"><title>ADSORPTION</title>
<a xlink:href="ADSORPTION.html" xlink:title="Statistical mechanics of adsorption" target="_top">
<polyline fill="none" stroke="blue" stroke-width="2" points="340,-36 108,-36 "/>
<path fill="none" stroke="blue" stroke-width="2" d="M108,-36C102,-36 96,-30 96,-24"/>
<polyline fill="none" stroke="blue" stroke-width="2" points="96,-24 96,-12 "/>
<path fill="none" stroke="blue" stroke-width="2" d="M96,-12C96,-6 102,-1.74305e-14 108,-1.70974e-14"/>
<polyline fill="none" stroke="blue" stroke-width="2" points="108,-1.70974e-14 340,-4.21885e-15 "/>
<path fill="none" stroke="blue" stroke-width="2" d="M340,-4.21885e-15C346,-3.88578e-15 352,-6 352,-12"/>
<polyline fill="none" stroke="blue" stroke-width="2" points="352,-12 352,-24 "/>
<path fill="none" stroke="blue" stroke-width="2" d="M352,-24C352,-30 346,-36 340,-36"/>
<text text-anchor="start" x="104.5" y="-15.2333" font-family="Times Roman,serif" font-size="14.00">Statistical mechanics of adsorption</text>
</a>
</g>
<!-- GRAND_CANONICAL_ENSEMBLE -->
<g id="node2" class="node"><title>GRAND_CANONICAL_ENSEMBLE</title>
<a xlink:href="GRAND_CANONICAL_ENSEMBLE.html" xlink:title="The grand canonical ensemble" target="_top">
<polyline fill="none" stroke="black" points="214,-108 12,-108 "/>
<path fill="none" stroke="black" d="M12,-108C6,-108 7.10543e-14,-102 5.68434e-14,-96"/>
<polyline fill="none" stroke="black" points="5.68434e-14,-96 2.84217e-14,-84 "/>
<path fill="none" stroke="black" d="M2.84217e-14,-84C1.42109e-14,-78 6,-72 12,-72"/>
<polyline fill="none" stroke="black" points="12,-72 214,-72 "/>
<path fill="none" stroke="black" d="M214,-72C220,-72 226,-78 226,-84"/>
<polyline fill="none" stroke="black" points="226,-84 226,-96 "/>
<path fill="none" stroke="black" d="M226,-96C226,-102 220,-108 214,-108"/>
<text text-anchor="start" x="8.5" y="-87.2333" font-family="Times Roman,serif" font-size="14.00">The grand canonical ensemble</text>
</a>
</g>
<!-- GRAND_CANONICAL_ENSEMBLE&#45;&gt;ADSORPTION -->
<g id="edge2" class="edge"><title>GRAND_CANONICAL_ENSEMBLE&#45;&gt;ADSORPTION</title>
<path fill="none" stroke="black" d="M141.01,-71.8314C155.076,-62.7074 172.294,-51.539 187.393,-41.7449"/>
<polygon fill="black" stroke="black" points="189.514,-44.5412 195.999,-36.1628 185.705,-38.6684 189.514,-44.5412"/>
</g>
<!-- CANONICAL_ENSEMBLE -->
<g id="node4" class="node"><title>CANONICAL_ENSEMBLE</title>
<a xlink:href="CANONICAL_ENSEMBLE.html" xlink:title="The canonical ensemble" target="_top">
<polyline fill="none" stroke="black" points="414,-108 256,-108 "/>
<path fill="none" stroke="black" d="M256,-108C250,-108 244,-102 244,-96"/>
<polyline fill="none" stroke="black" points="244,-96 244,-84 "/>
<path fill="none" stroke="black" d="M244,-84C244,-78 250,-72 256,-72"/>
<polyline fill="none" stroke="black" points="256,-72 414,-72 "/>
<path fill="none" stroke="black" d="M414,-72C420,-72 426,-78 426,-84"/>
<polyline fill="none" stroke="black" points="426,-84 426,-96 "/>
<path fill="none" stroke="black" d="M426,-96C426,-102 420,-108 414,-108"/>
<text text-anchor="start" x="252.5" y="-87.2333" font-family="Times Roman,serif" font-size="14.00">The canonical ensemble</text>
</a>
</g>
<!-- CANONICAL_ENSEMBLE&#45;&gt;ADSORPTION -->
<g id="edge4" class="edge"><title>CANONICAL_ENSEMBLE&#45;&gt;ADSORPTION</title>
<path fill="none" stroke="black" d="M306.99,-71.8314C292.924,-62.7074 275.706,-51.539 260.607,-41.7449"/>
<polygon fill="black" stroke="black" points="262.295,-38.6684 252.001,-36.1628 258.486,-44.5412 262.295,-38.6684"/>
</g>
</g>
</svg>
