<?xml version="1.0" encoding="UTF-8" standalone="no"?>
<!DOCTYPE svg PUBLIC "-//W3C//DTD SVG 1.1//EN"
 "http://www.w3.org/Graphics/SVG/1.1/DTD/svg11.dtd">
<!-- Generated by graphviz version 2.36.0 (20140111.2315)
 -->
<!-- Title: %3 Pages: 1 -->
<svg width="336pt" height="188pt"
 viewBox="0.00 0.00 336.00 188.00" xmlns="http://www.w3.org/2000/svg" xmlns:xlink="http://www.w3.org/1999/xlink">
<g id="graph0" class="graph" transform="scale(1 1) rotate(0) translate(4 184)">
<title>%3</title>
<!-- ADSORPTION -->
<g id="node1" class="node"><title>ADSORPTION</title>
<g id="a_node1"><a xlink:href="ADSORPTION.html" xlink:title=" Statistical mechanics of adsorption " target="_top">
<path fill="none" stroke="blue" stroke-width="2" d="M221.25,-36C221.25,-36 30.75,-36 30.75,-36 24.75,-36 18.75,-30 18.75,-24 18.75,-24 18.75,-12 18.75,-12 18.75,-6 24.75,-0 30.75,-0 30.75,-0 221.25,-0 221.25,-0 227.25,-0 233.25,-6 233.25,-12 233.25,-12 233.25,-24 233.25,-24 233.25,-30 227.25,-36 221.25,-36"/>
<text text-anchor="start" x="26.5" y="-14.3" font-family="Times,serif" font-size="14.00"> Statistical mechanics of adsorption </text>
</a>
</g>
</g>
<!-- BASIC_COMBINATORICS -->
<g id="node2" class="node"><title>BASIC_COMBINATORICS</title>
<g id="a_node2"><a xlink:href="BASIC_COMBINATORICS.html" xlink:title=" Combinatorics " target="_top">
<path fill="none" stroke="black" d="M92,-180C92,-180 12,-180 12,-180 6,-180 0,-174 0,-168 0,-168 0,-156 0,-156 0,-150 6,-144 12,-144 12,-144 92,-144 92,-144 98,-144 104,-150 104,-156 104,-156 104,-168 104,-168 104,-174 98,-180 92,-180"/>
<text text-anchor="start" x="8" y="-158.3" font-family="Times,serif" font-size="14.00"> Combinatorics </text>
</a>
</g>
</g>
<!-- BASIC_COMBINATORICS&#45;&gt;ADSORPTION -->
<g id="edge1" class="edge"><title>BASIC_COMBINATORICS&#45;&gt;ADSORPTION</title>
<path fill="none" stroke="black" d="M37.6698,-143.973C23.8186,-125.318 6.85048,-94.992 21,-72 29.2964,-58.519 42.1962,-48.3425 56.1507,-40.7055"/>
<polygon fill="black" stroke="black" points="58.0687,-43.659 65.4354,-36.0444 54.9281,-37.4031 58.0687,-43.659"/>
</g>
<!-- GRAND_CANONICAL_ENSEMBLE -->
<g id="node4" class="node"><title>GRAND_CANONICAL_ENSEMBLE</title>
<g id="a_node4"><a xlink:href="GRAND_CANONICAL_ENSEMBLE.html" xlink:title=" The grand canonical ensemble " target="_top">
<path fill="none" stroke="black" d="M209.25,-108C209.25,-108 42.75,-108 42.75,-108 36.75,-108 30.75,-102 30.75,-96 30.75,-96 30.75,-84 30.75,-84 30.75,-78 36.75,-72 42.75,-72 42.75,-72 209.25,-72 209.25,-72 215.25,-72 221.25,-78 221.25,-84 221.25,-84 221.25,-96 221.25,-96 221.25,-102 215.25,-108 209.25,-108"/>
<text text-anchor="start" x="38.5" y="-86.3" font-family="Times,serif" font-size="14.00"> The grand canonical ensemble </text>
</a>
</g>
</g>
<!-- BASIC_COMBINATORICS&#45;&gt;GRAND_CANONICAL_ENSEMBLE -->
<!-- CANONICAL_ENSEMBLE -->
<g id="node3" class="node"><title>CANONICAL_ENSEMBLE</title>
<g id="a_node3"><a xlink:href="CANONICAL_ENSEMBLE.html" xlink:title=" The canonical ensemble " target="_top">
<path fill="none" stroke="black" d="M316,-180C316,-180 184,-180 184,-180 178,-180 172,-174 172,-168 172,-168 172,-156 172,-156 172,-150 178,-144 184,-144 184,-144 316,-144 316,-144 322,-144 328,-150 328,-156 328,-156 328,-168 328,-168 328,-174 322,-180 316,-180"/>
<text text-anchor="start" x="180" y="-158.3" font-family="Times,serif" font-size="14.00"> The canonical ensemble </text>
</a>
</g>
</g>
<!-- CANONICAL_ENSEMBLE&#45;&gt;ADSORPTION -->
<g id="edge2" class="edge"><title>CANONICAL_ENSEMBLE&#45;&gt;ADSORPTION</title>
<path fill="none" stroke="black" d="M250.31,-143.783C249.79,-124.398 246.221,-92.8889 230,-72 219.656,-58.6789 205.045,-48.4176 190.036,-40.6345"/>
<polygon fill="black" stroke="black" points="191.2,-37.3093 180.674,-36.1034 188.15,-43.6102 191.2,-37.3093"/>
</g>
<!-- GRAND_CANONICAL_ENSEMBLE&#45;&gt;ADSORPTION -->
<g id="edge3" class="edge"><title>GRAND_CANONICAL_ENSEMBLE&#45;&gt;ADSORPTION</title>
<path fill="none" stroke="black" d="M126,-71.6966C126,-63.9827 126,-54.7125 126,-46.1124"/>
<polygon fill="black" stroke="black" points="129.5,-46.1043 126,-36.1043 122.5,-46.1044 129.5,-46.1043"/>
</g>
</g>
</svg>
