<?xml version="1.0" encoding="UTF-8" standalone="no"?>
<!DOCTYPE svg PUBLIC "-//W3C//DTD SVG 1.1//EN"
 "http://www.w3.org/Graphics/SVG/1.1/DTD/svg11.dtd">
<!-- Generated by graphviz version 2.26.3 (20100126.1600)
 -->
<!-- Title: _anonymous_0 Pages: 1 -->
<svg width="409pt" height="188pt"
 viewBox="0.00 0.00 409.00 188.00" xmlns="http://www.w3.org/2000/svg" xmlns:xlink="http://www.w3.org/1999/xlink">
<g id="graph1" class="graph" transform="scale(1 1) rotate(0) translate(4 184)">
<title>_anonymous_0</title>
<!-- ADSORPTION -->
<g id="node1" class="node"><title>ADSORPTION</title>
<a xlink:href="ADSORPTION.html" xlink:title=" Statistical mechanics of adsorption " target="_top">
<polyline fill="none" stroke="blue" stroke-width="2" points="336,-36 96,-36 "/>
<path fill="none" stroke="blue" stroke-width="2" d="M96,-36C90,-36 84,-30 84,-24"/>
<polyline fill="none" stroke="blue" stroke-width="2" points="84,-24 84,-12 "/>
<path fill="none" stroke="blue" stroke-width="2" d="M84,-12C84,-6 90,-1.74406e-14 96,-1.71176e-14"/>
<polyline fill="none" stroke="blue" stroke-width="2" points="96,-1.71176e-14 336,-4.19866e-15 "/>
<path fill="none" stroke="blue" stroke-width="2" d="M336,-4.19866e-15C342,-3.87569e-15 348,-6 348,-12"/>
<polyline fill="none" stroke="blue" stroke-width="2" points="348,-12 348,-24 "/>
<path fill="none" stroke="blue" stroke-width="2" d="M348,-24C348,-30 342,-36 336,-36"/>
<text text-anchor="start" x="92" y="-15.2333" font-family="Times Roman,serif" font-size="14.00"> Statistical mechanics of adsorption </text>
</a>
</g>
<!-- GRAND_CANONICAL_ENSEMBLE -->
<g id="node2" class="node"><title>GRAND_CANONICAL_ENSEMBLE</title>
<a xlink:href="GRAND_CANONICAL_ENSEMBLE.html" xlink:title=" The grand canonical ensemble " target="_top">
<polyline fill="none" stroke="black" points="222,-180 12,-180 "/>
<path fill="none" stroke="black" d="M12,-180C6,-180 8.28967e-14,-174 6.63173e-14,-168"/>
<polyline fill="none" stroke="black" points="6.63173e-14,-168 3.31587e-14,-156 "/>
<path fill="none" stroke="black" d="M3.31587e-14,-156C1.65793e-14,-150 6,-144 12,-144"/>
<polyline fill="none" stroke="black" points="12,-144 222,-144 "/>
<path fill="none" stroke="black" d="M222,-144C228,-144 234,-150 234,-156"/>
<polyline fill="none" stroke="black" points="234,-156 234,-168 "/>
<path fill="none" stroke="black" d="M234,-168C234,-174 228,-180 222,-180"/>
<text text-anchor="start" x="8" y="-159.233" font-family="Times Roman,serif" font-size="14.00"> The grand canonical ensemble </text>
</a>
</g>
<!-- GRAND_CANONICAL_ENSEMBLE&#45;&gt;ADSORPTION -->
<g id="edge2" class="edge"><title>GRAND_CANONICAL_ENSEMBLE&#45;&gt;ADSORPTION</title>
<path fill="none" stroke="black" d="M110.364,-143.982C104.474,-124.701 98.6744,-93.9339 112,-72 120.102,-58.6642 132.685,-48.4722 146.336,-40.7371"/>
<polygon fill="black" stroke="black" points="148.174,-43.726 155.424,-36.0006 144.939,-37.5184 148.174,-43.726"/>
</g>
<!-- CANONICAL_ENSEMBLE -->
<g id="node6" class="node"><title>CANONICAL_ENSEMBLE</title>
<a xlink:href="CANONICAL_ENSEMBLE.html" xlink:title=" The canonical ensemble " target="_top">
<polyline fill="none" stroke="black" points="299,-108 133,-108 "/>
<path fill="none" stroke="black" d="M133,-108C127,-108 121,-102 121,-96"/>
<polyline fill="none" stroke="black" points="121,-96 121,-84 "/>
<path fill="none" stroke="black" d="M121,-84C121,-78 127,-72 133,-72"/>
<polyline fill="none" stroke="black" points="133,-72 299,-72 "/>
<path fill="none" stroke="black" d="M299,-72C305,-72 311,-78 311,-84"/>
<polyline fill="none" stroke="black" points="311,-84 311,-96 "/>
<path fill="none" stroke="black" d="M311,-96C311,-102 305,-108 299,-108"/>
<text text-anchor="start" x="129" y="-87.2333" font-family="Times Roman,serif" font-size="14.00"> The canonical ensemble </text>
</a>
</g>
<!-- GRAND_CANONICAL_ENSEMBLE&#45;&gt;CANONICAL_ENSEMBLE -->
<!-- BASIC_COMBINATORICS -->
<g id="node4" class="node"><title>BASIC_COMBINATORICS</title>
<a xlink:href="BASIC_COMBINATORICS.html" xlink:title=" Combinatorics " target="_top">
<polyline fill="none" stroke="black" points="389,-180 289,-180 "/>
<path fill="none" stroke="black" d="M289,-180C283,-180 277,-174 277,-168"/>
<polyline fill="none" stroke="black" points="277,-168 277,-156 "/>
<path fill="none" stroke="black" d="M277,-156C277,-150 283,-144 289,-144"/>
<polyline fill="none" stroke="black" points="289,-144 389,-144 "/>
<path fill="none" stroke="black" d="M389,-144C395,-144 401,-150 401,-156"/>
<polyline fill="none" stroke="black" points="401,-156 401,-168 "/>
<path fill="none" stroke="black" d="M401,-168C401,-174 395,-180 389,-180"/>
<text text-anchor="start" x="285.5" y="-159.233" font-family="Times Roman,serif" font-size="14.00"> Combinatorics </text>
</a>
</g>
<!-- BASIC_COMBINATORICS&#45;&gt;ADSORPTION -->
<g id="edge4" class="edge"><title>BASIC_COMBINATORICS&#45;&gt;ADSORPTION</title>
<path fill="none" stroke="black" d="M339.549,-143.92C339.229,-124.301 335.946,-92.9769 320,-72 309.957,-58.7887 295.756,-48.5141 281.065,-40.6459"/>
<polygon fill="black" stroke="black" points="282.397,-37.3986 271.888,-36.0532 279.264,-43.6585 282.397,-37.3986"/>
</g>
<!-- CANONICAL_ENSEMBLE&#45;&gt;ADSORPTION -->
<g id="edge6" class="edge"><title>CANONICAL_ENSEMBLE&#45;&gt;ADSORPTION</title>
<path fill="none" stroke="black" d="M216,-71.8314C216,-64.131 216,-54.9743 216,-46.4166"/>
<polygon fill="black" stroke="black" points="219.5,-46.4132 216,-36.4133 212.5,-46.4133 219.5,-46.4132"/>
</g>
</g>
</svg>
