<?xml version="1.0" encoding="UTF-8" standalone="no"?>
<!DOCTYPE svg PUBLIC "-//W3C//DTD SVG 1.1//EN"
 "http://www.w3.org/Graphics/SVG/1.1/DTD/svg11.dtd">
<!-- Generated by graphviz version 2.36.0 (20140111.2315)
 -->
<!-- Title: %3 Pages: 1 -->
<svg width="373pt" height="188pt"
 viewBox="0.00 0.00 373.00 188.00" xmlns="http://www.w3.org/2000/svg" xmlns:xlink="http://www.w3.org/1999/xlink">
<g id="graph0" class="graph" transform="scale(1 1) rotate(0) translate(4 184)">
<title>%3</title>
<!-- ADSORPTION -->
<g id="node1" class="node"><title>ADSORPTION</title>
<g id="a_node1"><a xlink:href="ADSORPTION.html" xlink:title=" Statistical mechanics of adsorption " target="_top">
<path fill="none" stroke="blue" stroke-width="2" d="M270.25,-36C270.25,-36 79.75,-36 79.75,-36 73.75,-36 67.75,-30 67.75,-24 67.75,-24 67.75,-12 67.75,-12 67.75,-6 73.75,-0 79.75,-0 79.75,-0 270.25,-0 270.25,-0 276.25,-0 282.25,-6 282.25,-12 282.25,-12 282.25,-24 282.25,-24 282.25,-30 276.25,-36 270.25,-36"/>
<text text-anchor="start" x="75.5" y="-14.3" font-family="Times,serif" font-size="14.00"> Statistical mechanics of adsorption </text>
</a>
</g>
</g>
<!-- GRAND_CANONICAL_ENSEMBLE -->
<g id="node2" class="node"><title>GRAND_CANONICAL_ENSEMBLE</title>
<g id="a_node2"><a xlink:href="GRAND_CANONICAL_ENSEMBLE.html" xlink:title=" The grand canonical ensemble " target="_top">
<path fill="none" stroke="black" d="M178.25,-180C178.25,-180 11.75,-180 11.75,-180 5.75,-180 -0.25,-174 -0.25,-168 -0.25,-168 -0.25,-156 -0.25,-156 -0.25,-150 5.75,-144 11.75,-144 11.75,-144 178.25,-144 178.25,-144 184.25,-144 190.25,-150 190.25,-156 190.25,-156 190.25,-168 190.25,-168 190.25,-174 184.25,-180 178.25,-180"/>
<text text-anchor="start" x="7.5" y="-158.3" font-family="Times,serif" font-size="14.00"> The grand canonical ensemble </text>
</a>
</g>
</g>
<!-- GRAND_CANONICAL_ENSEMBLE&#45;&gt;ADSORPTION -->
<g id="edge1" class="edge"><title>GRAND_CANONICAL_ENSEMBLE&#45;&gt;ADSORPTION</title>
<path fill="none" stroke="black" d="M95.4752,-143.769C96.6914,-124.936 100.756,-94.4545 114,-72 120.636,-60.7487 130.514,-50.6707 140.398,-42.401"/>
<polygon fill="black" stroke="black" points="142.6,-45.122 148.265,-36.1686 138.253,-39.6353 142.6,-45.122"/>
</g>
<!-- BASIC_COMBINATORICS -->
<g id="node4" class="node"><title>BASIC_COMBINATORICS</title>
<g id="a_node4"><a xlink:href="BASIC_COMBINATORICS.html" xlink:title=" Combinatorics " target="_top">
<path fill="none" stroke="black" d="M215,-108C215,-108 135,-108 135,-108 129,-108 123,-102 123,-96 123,-96 123,-84 123,-84 123,-78 129,-72 135,-72 135,-72 215,-72 215,-72 221,-72 227,-78 227,-84 227,-84 227,-96 227,-96 227,-102 221,-108 215,-108"/>
<text text-anchor="start" x="131" y="-86.3" font-family="Times,serif" font-size="14.00"> Combinatorics </text>
</a>
</g>
</g>
<!-- GRAND_CANONICAL_ENSEMBLE&#45;&gt;BASIC_COMBINATORICS -->
<!-- CANONICAL_ENSEMBLE -->
<g id="node3" class="node"><title>CANONICAL_ENSEMBLE</title>
<g id="a_node3"><a xlink:href="CANONICAL_ENSEMBLE.html" xlink:title=" The canonical ensemble " target="_top">
<path fill="none" stroke="black" d="M353,-180C353,-180 221,-180 221,-180 215,-180 209,-174 209,-168 209,-168 209,-156 209,-156 209,-150 215,-144 221,-144 221,-144 353,-144 353,-144 359,-144 365,-150 365,-156 365,-156 365,-168 365,-168 365,-174 359,-180 353,-180"/>
<text text-anchor="start" x="217" y="-158.3" font-family="Times,serif" font-size="14.00"> The canonical ensemble </text>
</a>
</g>
</g>
<!-- CANONICAL_ENSEMBLE&#45;&gt;ADSORPTION -->
<g id="edge2" class="edge"><title>CANONICAL_ENSEMBLE&#45;&gt;ADSORPTION</title>
<path fill="none" stroke="black" d="M279.321,-143.863C270.45,-125.112 254.657,-94.7014 236,-72 227.285,-61.395 216.321,-51.1544 206.1,-42.5488"/>
<polygon fill="black" stroke="black" points="208.076,-39.6436 198.119,-36.022 203.644,-45.0622 208.076,-39.6436"/>
</g>
<!-- BASIC_COMBINATORICS&#45;&gt;ADSORPTION -->
<g id="edge3" class="edge"><title>BASIC_COMBINATORICS&#45;&gt;ADSORPTION</title>
<path fill="none" stroke="black" d="M175,-71.6966C175,-63.9827 175,-54.7125 175,-46.1124"/>
<polygon fill="black" stroke="black" points="178.5,-46.1043 175,-36.1043 171.5,-46.1044 178.5,-46.1043"/>
</g>
</g>
</svg>
