<?xml version="1.0" encoding="UTF-8" standalone="no"?>
<!DOCTYPE svg PUBLIC "-//W3C//DTD SVG 1.1//EN"
 "http://www.w3.org/Graphics/SVG/1.1/DTD/svg11.dtd">
<!-- Generated by graphviz version 2.26.3 (20100126.1600)
 -->
<!-- Title: _anonymous_0 Pages: 1 -->
<svg width="391pt" height="188pt"
 viewBox="0.00 0.00 391.00 188.00" xmlns="http://www.w3.org/2000/svg" xmlns:xlink="http://www.w3.org/1999/xlink">
<g id="graph1" class="graph" transform="scale(1 1) rotate(0) translate(4 184)">
<title>_anonymous_0</title>
<!-- ADSORPTION -->
<g id="node1" class="node"><title>ADSORPTION</title>
<a xlink:href="ADSORPTION.html" xlink:title="Statistical mechanics of adsorption" target="_top">
<polyline fill="none" stroke="blue" stroke-width="2" points="323,-36 91,-36 "/>
<path fill="none" stroke="blue" stroke-width="2" d="M91,-36C85,-36 79,-30 79,-24"/>
<polyline fill="none" stroke="blue" stroke-width="2" points="79,-24 79,-12 "/>
<path fill="none" stroke="blue" stroke-width="2" d="M79,-12C79,-6 85,-1.74305e-14 91,-1.70974e-14"/>
<polyline fill="none" stroke="blue" stroke-width="2" points="91,-1.70974e-14 323,-4.21885e-15 "/>
<path fill="none" stroke="blue" stroke-width="2" d="M323,-4.21885e-15C329,-3.88578e-15 335,-6 335,-12"/>
<polyline fill="none" stroke="blue" stroke-width="2" points="335,-12 335,-24 "/>
<path fill="none" stroke="blue" stroke-width="2" d="M335,-24C335,-30 329,-36 323,-36"/>
<text text-anchor="start" x="87.5" y="-15.2333" font-family="Times Roman,serif" font-size="14.00">Statistical mechanics of adsorption</text>
</a>
</g>
<!-- GRAND_CANONICAL_ENSEMBLE -->
<g id="node2" class="node"><title>GRAND_CANONICAL_ENSEMBLE</title>
<a xlink:href="GRAND_CANONICAL_ENSEMBLE.html" xlink:title="The grand canonical ensemble" target="_top">
<polyline fill="none" stroke="black" points="214,-180 12,-180 "/>
<path fill="none" stroke="black" d="M12,-180C6,-180 7.10543e-14,-174 5.68434e-14,-168"/>
<polyline fill="none" stroke="black" points="5.68434e-14,-168 2.84217e-14,-156 "/>
<path fill="none" stroke="black" d="M2.84217e-14,-156C1.42109e-14,-150 6,-144 12,-144"/>
<polyline fill="none" stroke="black" points="12,-144 214,-144 "/>
<path fill="none" stroke="black" d="M214,-144C220,-144 226,-150 226,-156"/>
<polyline fill="none" stroke="black" points="226,-156 226,-168 "/>
<path fill="none" stroke="black" d="M226,-168C226,-174 220,-180 214,-180"/>
<text text-anchor="start" x="8.5" y="-159.233" font-family="Times Roman,serif" font-size="14.00">The grand canonical ensemble</text>
</a>
</g>
<!-- GRAND_CANONICAL_ENSEMBLE&#45;&gt;ADSORPTION -->
<g id="edge2" class="edge"><title>GRAND_CANONICAL_ENSEMBLE&#45;&gt;ADSORPTION</title>
<path fill="none" stroke="black" d="M106.023,-143.676C99.932,-124.414 93.924,-93.9217 107,-72 114.877,-58.7947 127.225,-48.6251 140.592,-40.8667"/>
<polygon fill="black" stroke="black" points="142.319,-43.9119 149.486,-36.1088 139.017,-37.7395 142.319,-43.9119"/>
</g>
<!-- CANONICAL_ENSEMBLE -->
<g id="node6" class="node"><title>CANONICAL_ENSEMBLE</title>
<a xlink:href="CANONICAL_ENSEMBLE.html" xlink:title="The canonical ensemble" target="_top">
<polyline fill="none" stroke="black" points="286,-108 128,-108 "/>
<path fill="none" stroke="black" d="M128,-108C122,-108 116,-102 116,-96"/>
<polyline fill="none" stroke="black" points="116,-96 116,-84 "/>
<path fill="none" stroke="black" d="M116,-84C116,-78 122,-72 128,-72"/>
<polyline fill="none" stroke="black" points="128,-72 286,-72 "/>
<path fill="none" stroke="black" d="M286,-72C292,-72 298,-78 298,-84"/>
<polyline fill="none" stroke="black" points="298,-84 298,-96 "/>
<path fill="none" stroke="black" d="M298,-96C298,-102 292,-108 286,-108"/>
<text text-anchor="start" x="124.5" y="-87.2333" font-family="Times Roman,serif" font-size="14.00">The canonical ensemble</text>
</a>
</g>
<!-- GRAND_CANONICAL_ENSEMBLE&#45;&gt;CANONICAL_ENSEMBLE -->
<!-- BASIC_COMBINATORICS -->
<g id="node4" class="node"><title>BASIC_COMBINATORICS</title>
<a xlink:href="BASIC_COMBINATORICS.html" xlink:title="Combinatorics" target="_top">
<polyline fill="none" stroke="black" points="371,-180 281,-180 "/>
<path fill="none" stroke="black" d="M281,-180C275,-180 269,-174 269,-168"/>
<polyline fill="none" stroke="black" points="269,-168 269,-156 "/>
<path fill="none" stroke="black" d="M269,-156C269,-150 275,-144 281,-144"/>
<polyline fill="none" stroke="black" points="281,-144 371,-144 "/>
<path fill="none" stroke="black" d="M371,-144C377,-144 383,-150 383,-156"/>
<polyline fill="none" stroke="black" points="383,-156 383,-168 "/>
<path fill="none" stroke="black" d="M383,-168C383,-174 377,-180 371,-180"/>
<text text-anchor="start" x="277" y="-159.233" font-family="Times Roman,serif" font-size="14.00">Combinatorics</text>
</a>
</g>
<!-- BASIC_COMBINATORICS&#45;&gt;ADSORPTION -->
<g id="edge4" class="edge"><title>BASIC_COMBINATORICS&#45;&gt;ADSORPTION</title>
<path fill="none" stroke="black" d="M326.484,-143.969C326.108,-124.393 322.775,-93.1055 307,-72 297.218,-58.9124 283.3,-48.6413 268.946,-40.7342"/>
<polygon fill="black" stroke="black" points="270.477,-37.5858 259.985,-36.1123 267.268,-43.807 270.477,-37.5858"/>
</g>
<!-- CANONICAL_ENSEMBLE&#45;&gt;ADSORPTION -->
<g id="edge6" class="edge"><title>CANONICAL_ENSEMBLE&#45;&gt;ADSORPTION</title>
<path fill="none" stroke="black" d="M207,-71.8314C207,-64.131 207,-54.9743 207,-46.4166"/>
<polygon fill="black" stroke="black" points="210.5,-46.4132 207,-36.4133 203.5,-46.4133 210.5,-46.4132"/>
</g>
</g>
</svg>
