<?xml version="1.0" encoding="UTF-8" standalone="no"?>
<!DOCTYPE svg PUBLIC "-//W3C//DTD SVG 1.1//EN"
 "http://www.w3.org/Graphics/SVG/1.1/DTD/svg11.dtd">
<!-- Generated by graphviz version 2.36.0 (20140111.2315)
 -->
<!-- Title: %3 Pages: 1 -->
<svg width="1051pt" height="260pt"
 viewBox="0.00 0.00 1051.00 260.00" xmlns="http://www.w3.org/2000/svg" xmlns:xlink="http://www.w3.org/1999/xlink">
<g id="graph0" class="graph" transform="scale(1 1) rotate(0) translate(4 256)">
<title>%3</title>
<!-- PRINCIPLE_OF_EQUAL_APRIORI_PROBABILITIES -->
<g id="node1" class="node"><title>PRINCIPLE_OF_EQUAL_APRIORI_PROBABILITIES</title>
<g id="a_node1"><a xlink:href="PRINCIPLE_OF_EQUAL_APRIORI_PROBABILITIES.html" xlink:title=" The principle of equal apriori probabilities " target="_top">
<path fill="none" stroke="black" d="M244,-252C244,-252 12,-252 12,-252 6,-252 0,-246 0,-240 0,-240 0,-228 0,-228 0,-222 6,-216 12,-216 12,-216 244,-216 244,-216 250,-216 256,-222 256,-228 256,-228 256,-240 256,-240 256,-246 250,-252 244,-252"/>
<text text-anchor="start" x="8" y="-230.3" font-family="Times,serif" font-size="14.00"> The principle of equal apriori probabilities </text>
</a>
</g>
</g>
<!-- GENERALIZED_PARTITION_FUNCTION -->
<g id="node4" class="node"><title>GENERALIZED_PARTITION_FUNCTION</title>
<g id="a_node4"><a xlink:href="GENERALIZED_PARTITION_FUNCTION.html" xlink:title=" The generalized partition function " target="_top">
<path fill="none" stroke="black" d="M432.25,-180C432.25,-180 247.75,-180 247.75,-180 241.75,-180 235.75,-174 235.75,-168 235.75,-168 235.75,-156 235.75,-156 235.75,-150 241.75,-144 247.75,-144 247.75,-144 432.25,-144 432.25,-144 438.25,-144 444.25,-150 444.25,-156 444.25,-156 444.25,-168 444.25,-168 444.25,-174 438.25,-180 432.25,-180"/>
<text text-anchor="start" x="243.5" y="-158.3" font-family="Times,serif" font-size="14.00"> The generalized partition function </text>
</a>
</g>
</g>
<!-- PRINCIPLE_OF_EQUAL_APRIORI_PROBABILITIES&#45;&gt;GENERALIZED_PARTITION_FUNCTION -->
<g id="edge1" class="edge"><title>PRINCIPLE_OF_EQUAL_APRIORI_PROBABILITIES&#45;&gt;GENERALIZED_PARTITION_FUNCTION</title>
<path fill="none" stroke="black" d="M179.59,-215.966C209.469,-206.1 247.26,-193.622 278.656,-183.255"/>
<polygon fill="black" stroke="black" points="279.78,-186.57 288.179,-180.111 277.586,-179.923 279.78,-186.57"/>
</g>
<!-- INFORMATION_THEORY -->
<g id="node2" class="node"><title>INFORMATION_THEORY</title>
<g id="a_node2"><a xlink:href="INFORMATION_THEORY.html" xlink:title=" Information theory &#160;" target="_top">
<path fill="none" stroke="black" d="M393.25,-252C393.25,-252 286.75,-252 286.75,-252 280.75,-252 274.75,-246 274.75,-240 274.75,-240 274.75,-228 274.75,-228 274.75,-222 280.75,-216 286.75,-216 286.75,-216 393.25,-216 393.25,-216 399.25,-216 405.25,-222 405.25,-228 405.25,-228 405.25,-240 405.25,-240 405.25,-246 399.25,-252 393.25,-252"/>
<text text-anchor="start" x="282.5" y="-230.3" font-family="Times,serif" font-size="14.00"> Information theory &#160;</text>
</a>
</g>
</g>
<!-- INFORMATION_THEORY&#45;&gt;GENERALIZED_PARTITION_FUNCTION -->
<g id="edge2" class="edge"><title>INFORMATION_THEORY&#45;&gt;GENERALIZED_PARTITION_FUNCTION</title>
<path fill="none" stroke="black" d="M340,-215.697C340,-207.983 340,-198.712 340,-190.112"/>
<polygon fill="black" stroke="black" points="343.5,-190.104 340,-180.104 336.5,-190.104 343.5,-190.104"/>
</g>
<!-- LAGRANGE_MULTIPLIERS -->
<g id="node3" class="node"><title>LAGRANGE_MULTIPLIERS</title>
<g id="a_node3"><a xlink:href="LAGRANGE_MULTIPLIERS.html" xlink:title=" Lagrange multipliers " target="_top">
<path fill="none" stroke="black" d="M550,-252C550,-252 436,-252 436,-252 430,-252 424,-246 424,-240 424,-240 424,-228 424,-228 424,-222 430,-216 436,-216 436,-216 550,-216 550,-216 556,-216 562,-222 562,-228 562,-228 562,-240 562,-240 562,-246 556,-252 550,-252"/>
<text text-anchor="start" x="432" y="-230.3" font-family="Times,serif" font-size="14.00"> Lagrange multipliers </text>
</a>
</g>
</g>
<!-- LAGRANGE_MULTIPLIERS&#45;&gt;GENERALIZED_PARTITION_FUNCTION -->
<g id="edge3" class="edge"><title>LAGRANGE_MULTIPLIERS&#45;&gt;GENERALIZED_PARTITION_FUNCTION</title>
<path fill="none" stroke="black" d="M455.572,-215.876C434.749,-206.349 408.646,-194.407 386.519,-184.283"/>
<polygon fill="black" stroke="black" points="387.856,-181.046 377.306,-180.068 384.944,-187.411 387.856,-181.046"/>
</g>
<!-- ISOTHERMAL_ISOBARIC_ENSEMBLE -->
<g id="node6" class="node"><title>ISOTHERMAL_ISOBARIC_ENSEMBLE</title>
<g id="a_node6"><a xlink:href="ISOTHERMAL_ISOBARIC_ENSEMBLE.html" xlink:title=" The isothermal isobaric ensemble " target="_top">
<path fill="none" stroke="black" d="M323.25,-108C323.25,-108 138.75,-108 138.75,-108 132.75,-108 126.75,-102 126.75,-96 126.75,-96 126.75,-84 126.75,-84 126.75,-78 132.75,-72 138.75,-72 138.75,-72 323.25,-72 323.25,-72 329.25,-72 335.25,-78 335.25,-84 335.25,-84 335.25,-96 335.25,-96 335.25,-102 329.25,-108 323.25,-108"/>
<text text-anchor="start" x="134.5" y="-86.3" font-family="Times,serif" font-size="14.00"> The isothermal isobaric ensemble </text>
</a>
</g>
</g>
<!-- GENERALIZED_PARTITION_FUNCTION&#45;&gt;ISOTHERMAL_ISOBARIC_ENSEMBLE -->
<g id="edge4" class="edge"><title>GENERALIZED_PARTITION_FUNCTION&#45;&gt;ISOTHERMAL_ISOBARIC_ENSEMBLE</title>
<path fill="none" stroke="black" d="M313.336,-143.876C299.216,-134.808 281.689,-123.552 266.439,-113.759"/>
<polygon fill="black" stroke="black" points="268.073,-110.648 257.767,-108.19 264.29,-116.538 268.073,-110.648"/>
</g>
<!-- GRAND_CANONICAL_ENSEMBLE -->
<g id="node7" class="node"><title>GRAND_CANONICAL_ENSEMBLE</title>
<g id="a_node7"><a xlink:href="GRAND_CANONICAL_ENSEMBLE.html" xlink:title=" The grand canonical ensemble " target="_top">
<path fill="none" stroke="black" d="M532.25,-108C532.25,-108 365.75,-108 365.75,-108 359.75,-108 353.75,-102 353.75,-96 353.75,-96 353.75,-84 353.75,-84 353.75,-78 359.75,-72 365.75,-72 365.75,-72 532.25,-72 532.25,-72 538.25,-72 544.25,-78 544.25,-84 544.25,-84 544.25,-96 544.25,-96 544.25,-102 538.25,-108 532.25,-108"/>
<text text-anchor="start" x="361.5" y="-86.3" font-family="Times,serif" font-size="14.00"> The grand canonical ensemble </text>
</a>
</g>
</g>
<!-- GENERALIZED_PARTITION_FUNCTION&#45;&gt;GRAND_CANONICAL_ENSEMBLE -->
<g id="edge5" class="edge"><title>GENERALIZED_PARTITION_FUNCTION&#45;&gt;GRAND_CANONICAL_ENSEMBLE</title>
<path fill="none" stroke="black" d="M366.664,-143.876C380.784,-134.808 398.311,-123.552 413.561,-113.759"/>
<polygon fill="black" stroke="black" points="415.71,-116.538 422.233,-108.19 411.927,-110.648 415.71,-116.538"/>
</g>
<!-- PARTITION_FUNCTION_FOR_MOLECULES -->
<g id="node5" class="node"><title>PARTITION_FUNCTION_FOR_MOLECULES</title>
<g id="a_node5"><a xlink:href="PARTITION_FUNCTION_FOR_MOLECULES.html" xlink:title=" The partition function for molecular gasses " target="_top">
<path fill="none" stroke="black" d="M738,-180C738,-180 502,-180 502,-180 496,-180 490,-174 490,-168 490,-168 490,-156 490,-156 490,-150 496,-144 502,-144 502,-144 738,-144 738,-144 744,-144 750,-150 750,-156 750,-156 750,-168 750,-168 750,-174 744,-180 738,-180"/>
<text text-anchor="start" x="498" y="-158.3" font-family="Times,serif" font-size="14.00"> The partition function for molecular gasses </text>
</a>
</g>
</g>
<!-- ADSORPTION -->
<g id="node8" class="node"><title>ADSORPTION</title>
<g id="a_node8"><a xlink:href="ADSORPTION.html" xlink:title=" Statistical mechanics of adsorption " target="_top">
<path fill="none" stroke="black" d="M544.25,-36C544.25,-36 353.75,-36 353.75,-36 347.75,-36 341.75,-30 341.75,-24 341.75,-24 341.75,-12 341.75,-12 341.75,-6 347.75,-0 353.75,-0 353.75,-0 544.25,-0 544.25,-0 550.25,-0 556.25,-6 556.25,-12 556.25,-12 556.25,-24 556.25,-24 556.25,-30 550.25,-36 544.25,-36"/>
<text text-anchor="start" x="349.5" y="-14.3" font-family="Times,serif" font-size="14.00"> Statistical mechanics of adsorption </text>
</a>
</g>
</g>
<!-- GRAND_CANONICAL_ENSEMBLE&#45;&gt;ADSORPTION -->
<g id="edge6" class="edge"><title>GRAND_CANONICAL_ENSEMBLE&#45;&gt;ADSORPTION</title>
<path fill="none" stroke="black" d="M449,-71.6966C449,-63.9827 449,-54.7125 449,-46.1124"/>
<polygon fill="black" stroke="black" points="452.5,-46.1043 449,-36.1043 445.5,-46.1044 452.5,-46.1043"/>
</g>
<!-- IDEAL_GAS -->
<g id="node9" class="node"><title>IDEAL_GAS</title>
<g id="a_node9"><a xlink:href="IDEAL_GAS.html" xlink:title=" The ideal gas model " target="_top">
<path fill="none" stroke="black" d="M820.25,-252C820.25,-252 709.75,-252 709.75,-252 703.75,-252 697.75,-246 697.75,-240 697.75,-240 697.75,-228 697.75,-228 697.75,-222 703.75,-216 709.75,-216 709.75,-216 820.25,-216 820.25,-216 826.25,-216 832.25,-222 832.25,-228 832.25,-228 832.25,-240 832.25,-240 832.25,-246 826.25,-252 820.25,-252"/>
<text text-anchor="start" x="705.5" y="-230.3" font-family="Times,serif" font-size="14.00"> The ideal gas model </text>
</a>
</g>
</g>
<!-- IDEAL_GAS&#45;&gt;PARTITION_FUNCTION_FOR_MOLECULES -->
<g id="edge7" class="edge"><title>IDEAL_GAS&#45;&gt;PARTITION_FUNCTION_FOR_MOLECULES</title>
<path fill="none" stroke="black" d="M729.529,-215.876C709.883,-206.392 685.278,-194.513 664.368,-184.419"/>
<polygon fill="black" stroke="black" points="665.883,-181.264 655.356,-180.068 662.84,-187.568 665.883,-181.264"/>
</g>
<!-- CLUSTER_EXPANSION -->
<g id="node11" class="node"><title>CLUSTER_EXPANSION</title>
<g id="a_node11"><a xlink:href="CLUSTER_EXPANSION.html" xlink:title=" The Cluster expansion approximation " target="_top">
<path fill="none" stroke="black" d="M985.5,-180C985.5,-180 780.5,-180 780.5,-180 774.5,-180 768.5,-174 768.5,-168 768.5,-168 768.5,-156 768.5,-156 768.5,-150 774.5,-144 780.5,-144 780.5,-144 985.5,-144 985.5,-144 991.5,-144 997.5,-150 997.5,-156 997.5,-156 997.5,-168 997.5,-168 997.5,-174 991.5,-180 985.5,-180"/>
<text text-anchor="start" x="776" y="-158.3" font-family="Times,serif" font-size="14.00"> The Cluster expansion approximation </text>
</a>
</g>
</g>
<!-- IDEAL_GAS&#45;&gt;CLUSTER_EXPANSION -->
<g id="edge8" class="edge"><title>IDEAL_GAS&#45;&gt;CLUSTER_EXPANSION</title>
<path fill="none" stroke="black" d="M793.866,-215.876C809.295,-206.724 828.481,-195.342 845.097,-185.485"/>
<polygon fill="black" stroke="black" points="847.208,-188.302 854.023,-180.19 843.637,-182.282 847.208,-188.302"/>
</g>
<!-- PHASE_TRANSITIONS -->
<g id="node10" class="node"><title>PHASE_TRANSITIONS</title>
<g id="a_node10"><a xlink:href="PHASE_TRANSITIONS.html" xlink:title=" The theory of phase transitions " target="_top">
<path fill="none" stroke="black" d="M1031.25,-252C1031.25,-252 862.75,-252 862.75,-252 856.75,-252 850.75,-246 850.75,-240 850.75,-240 850.75,-228 850.75,-228 850.75,-222 856.75,-216 862.75,-216 862.75,-216 1031.25,-216 1031.25,-216 1037.25,-216 1043.25,-222 1043.25,-228 1043.25,-228 1043.25,-240 1043.25,-240 1043.25,-246 1037.25,-252 1031.25,-252"/>
<text text-anchor="start" x="858.5" y="-230.3" font-family="Times,serif" font-size="14.00"> The theory of phase transitions </text>
</a>
</g>
</g>
</g>
</svg>
