<?xml version="1.0" encoding="UTF-8" standalone="no"?>
<!DOCTYPE svg PUBLIC "-//W3C//DTD SVG 1.1//EN"
 "http://www.w3.org/Graphics/SVG/1.1/DTD/svg11.dtd">
<!-- Generated by graphviz version 2.36.0 (20140111.2315)
 -->
<!-- Title: %3 Pages: 1 -->
<svg width="1051pt" height="188pt"
 viewBox="0.00 0.00 1051.00 188.00" xmlns="http://www.w3.org/2000/svg" xmlns:xlink="http://www.w3.org/1999/xlink">
<g id="graph0" class="graph" transform="scale(1 1) rotate(0) translate(4 184)">
<title>%3</title>
<!-- PRINCIPLE_OF_EQUAL_APRIORI_PROBABILITIES -->
<g id="node1" class="node"><title>PRINCIPLE_OF_EQUAL_APRIORI_PROBABILITIES</title>
<g id="a_node1"><a xlink:href="PRINCIPLE_OF_EQUAL_APRIORI_PROBABILITIES.html" xlink:title=" The principle of equal apriori probabilities " target="_top">
<path fill="none" stroke="black" d="M244,-180C244,-180 12,-180 12,-180 6,-180 0,-174 0,-168 0,-168 0,-156 0,-156 0,-150 6,-144 12,-144 12,-144 244,-144 244,-144 250,-144 256,-150 256,-156 256,-156 256,-168 256,-168 256,-174 250,-180 244,-180"/>
<text text-anchor="start" x="8" y="-158.3" font-family="Times,serif" font-size="14.00"> The principle of equal apriori probabilities </text>
</a>
</g>
</g>
<!-- GENERALIZED_PARTITION_FUNCTION -->
<g id="node4" class="node"><title>GENERALIZED_PARTITION_FUNCTION</title>
<g id="a_node4"><a xlink:href="GENERALIZED_PARTITION_FUNCTION.html" xlink:title=" The generalized partition function " target="_top">
<path fill="none" stroke="black" d="M432.25,-108C432.25,-108 247.75,-108 247.75,-108 241.75,-108 235.75,-102 235.75,-96 235.75,-96 235.75,-84 235.75,-84 235.75,-78 241.75,-72 247.75,-72 247.75,-72 432.25,-72 432.25,-72 438.25,-72 444.25,-78 444.25,-84 444.25,-84 444.25,-96 444.25,-96 444.25,-102 438.25,-108 432.25,-108"/>
<text text-anchor="start" x="243.5" y="-86.3" font-family="Times,serif" font-size="14.00"> The generalized partition function </text>
</a>
</g>
</g>
<!-- PRINCIPLE_OF_EQUAL_APRIORI_PROBABILITIES&#45;&gt;GENERALIZED_PARTITION_FUNCTION -->
<g id="edge1" class="edge"><title>PRINCIPLE_OF_EQUAL_APRIORI_PROBABILITIES&#45;&gt;GENERALIZED_PARTITION_FUNCTION</title>
<path fill="none" stroke="black" d="M179.59,-143.966C209.469,-134.1 247.26,-121.622 278.656,-111.255"/>
<polygon fill="black" stroke="black" points="279.78,-114.57 288.179,-108.111 277.586,-107.923 279.78,-114.57"/>
</g>
<!-- INFORMATION_THEORY -->
<g id="node2" class="node"><title>INFORMATION_THEORY</title>
<g id="a_node2"><a xlink:href="INFORMATION_THEORY.html" xlink:title=" Information theory &#160;" target="_top">
<path fill="none" stroke="black" d="M393.25,-180C393.25,-180 286.75,-180 286.75,-180 280.75,-180 274.75,-174 274.75,-168 274.75,-168 274.75,-156 274.75,-156 274.75,-150 280.75,-144 286.75,-144 286.75,-144 393.25,-144 393.25,-144 399.25,-144 405.25,-150 405.25,-156 405.25,-156 405.25,-168 405.25,-168 405.25,-174 399.25,-180 393.25,-180"/>
<text text-anchor="start" x="282.5" y="-158.3" font-family="Times,serif" font-size="14.00"> Information theory &#160;</text>
</a>
</g>
</g>
<!-- INFORMATION_THEORY&#45;&gt;GENERALIZED_PARTITION_FUNCTION -->
<g id="edge2" class="edge"><title>INFORMATION_THEORY&#45;&gt;GENERALIZED_PARTITION_FUNCTION</title>
<path fill="none" stroke="black" d="M340,-143.697C340,-135.983 340,-126.712 340,-118.112"/>
<polygon fill="black" stroke="black" points="343.5,-118.104 340,-108.104 336.5,-118.104 343.5,-118.104"/>
</g>
<!-- LAGRANGE_MULTIPLIERS -->
<g id="node3" class="node"><title>LAGRANGE_MULTIPLIERS</title>
<g id="a_node3"><a xlink:href="LAGRANGE_MULTIPLIERS.html" xlink:title=" Lagrange multipliers " target="_top">
<path fill="none" stroke="black" d="M550,-180C550,-180 436,-180 436,-180 430,-180 424,-174 424,-168 424,-168 424,-156 424,-156 424,-150 430,-144 436,-144 436,-144 550,-144 550,-144 556,-144 562,-150 562,-156 562,-156 562,-168 562,-168 562,-174 556,-180 550,-180"/>
<text text-anchor="start" x="432" y="-158.3" font-family="Times,serif" font-size="14.00"> Lagrange multipliers </text>
</a>
</g>
</g>
<!-- LAGRANGE_MULTIPLIERS&#45;&gt;GENERALIZED_PARTITION_FUNCTION -->
<g id="edge3" class="edge"><title>LAGRANGE_MULTIPLIERS&#45;&gt;GENERALIZED_PARTITION_FUNCTION</title>
<path fill="none" stroke="black" d="M455.572,-143.876C434.749,-134.349 408.646,-122.407 386.519,-112.283"/>
<polygon fill="black" stroke="black" points="387.856,-109.046 377.306,-108.068 384.944,-115.411 387.856,-109.046"/>
</g>
<!-- ISOTHERMAL_ISOBARIC_ENSEMBLE -->
<g id="node6" class="node"><title>ISOTHERMAL_ISOBARIC_ENSEMBLE</title>
<g id="a_node6"><a xlink:href="ISOTHERMAL_ISOBARIC_ENSEMBLE.html" xlink:title=" The isothermal isobaric ensemble " target="_top">
<path fill="none" stroke="black" d="M323.25,-36C323.25,-36 138.75,-36 138.75,-36 132.75,-36 126.75,-30 126.75,-24 126.75,-24 126.75,-12 126.75,-12 126.75,-6 132.75,-0 138.75,-0 138.75,-0 323.25,-0 323.25,-0 329.25,-0 335.25,-6 335.25,-12 335.25,-12 335.25,-24 335.25,-24 335.25,-30 329.25,-36 323.25,-36"/>
<text text-anchor="start" x="134.5" y="-14.3" font-family="Times,serif" font-size="14.00"> The isothermal isobaric ensemble </text>
</a>
</g>
</g>
<!-- GENERALIZED_PARTITION_FUNCTION&#45;&gt;ISOTHERMAL_ISOBARIC_ENSEMBLE -->
<g id="edge4" class="edge"><title>GENERALIZED_PARTITION_FUNCTION&#45;&gt;ISOTHERMAL_ISOBARIC_ENSEMBLE</title>
<path fill="none" stroke="black" d="M313.336,-71.8761C299.216,-62.8083 281.689,-51.5523 266.439,-41.7592"/>
<polygon fill="black" stroke="black" points="268.073,-38.6485 257.767,-36.1898 264.29,-44.5385 268.073,-38.6485"/>
</g>
<!-- GRAND_CANONICAL_ENSEMBLE -->
<g id="node7" class="node"><title>GRAND_CANONICAL_ENSEMBLE</title>
<g id="a_node7"><a xlink:href="GRAND_CANONICAL_ENSEMBLE.html" xlink:title=" The grand canonical ensemble " target="_top">
<path fill="none" stroke="black" d="M532.25,-36C532.25,-36 365.75,-36 365.75,-36 359.75,-36 353.75,-30 353.75,-24 353.75,-24 353.75,-12 353.75,-12 353.75,-6 359.75,-0 365.75,-0 365.75,-0 532.25,-0 532.25,-0 538.25,-0 544.25,-6 544.25,-12 544.25,-12 544.25,-24 544.25,-24 544.25,-30 538.25,-36 532.25,-36"/>
<text text-anchor="start" x="361.5" y="-14.3" font-family="Times,serif" font-size="14.00"> The grand canonical ensemble </text>
</a>
</g>
</g>
<!-- GENERALIZED_PARTITION_FUNCTION&#45;&gt;GRAND_CANONICAL_ENSEMBLE -->
<g id="edge5" class="edge"><title>GENERALIZED_PARTITION_FUNCTION&#45;&gt;GRAND_CANONICAL_ENSEMBLE</title>
<path fill="none" stroke="black" d="M366.664,-71.8761C380.784,-62.8083 398.311,-51.5523 413.561,-41.7592"/>
<polygon fill="black" stroke="black" points="415.71,-44.5385 422.233,-36.1898 411.927,-38.6485 415.71,-44.5385"/>
</g>
<!-- PARTITION_FUNCTION_FOR_MOLECULES -->
<g id="node5" class="node"><title>PARTITION_FUNCTION_FOR_MOLECULES</title>
<g id="a_node5"><a xlink:href="PARTITION_FUNCTION_FOR_MOLECULES.html" xlink:title=" The partition function for molecular gasses " target="_top">
<path fill="none" stroke="black" d="M738,-108C738,-108 502,-108 502,-108 496,-108 490,-102 490,-96 490,-96 490,-84 490,-84 490,-78 496,-72 502,-72 502,-72 738,-72 738,-72 744,-72 750,-78 750,-84 750,-84 750,-96 750,-96 750,-102 744,-108 738,-108"/>
<text text-anchor="start" x="498" y="-86.3" font-family="Times,serif" font-size="14.00"> The partition function for molecular gasses </text>
</a>
</g>
</g>
<!-- IDEAL_GAS -->
<g id="node8" class="node"><title>IDEAL_GAS</title>
<g id="a_node8"><a xlink:href="IDEAL_GAS.html" xlink:title=" The ideal gas model " target="_top">
<path fill="none" stroke="black" d="M820.25,-180C820.25,-180 709.75,-180 709.75,-180 703.75,-180 697.75,-174 697.75,-168 697.75,-168 697.75,-156 697.75,-156 697.75,-150 703.75,-144 709.75,-144 709.75,-144 820.25,-144 820.25,-144 826.25,-144 832.25,-150 832.25,-156 832.25,-156 832.25,-168 832.25,-168 832.25,-174 826.25,-180 820.25,-180"/>
<text text-anchor="start" x="705.5" y="-158.3" font-family="Times,serif" font-size="14.00"> The ideal gas model </text>
</a>
</g>
</g>
<!-- IDEAL_GAS&#45;&gt;PARTITION_FUNCTION_FOR_MOLECULES -->
<g id="edge6" class="edge"><title>IDEAL_GAS&#45;&gt;PARTITION_FUNCTION_FOR_MOLECULES</title>
<path fill="none" stroke="black" d="M729.529,-143.876C709.883,-134.392 685.278,-122.513 664.368,-112.419"/>
<polygon fill="black" stroke="black" points="665.883,-109.264 655.356,-108.068 662.84,-115.568 665.883,-109.264"/>
</g>
<!-- CLUSTER_EXPANSION -->
<g id="node10" class="node"><title>CLUSTER_EXPANSION</title>
<g id="a_node10"><a xlink:href="CLUSTER_EXPANSION.html" xlink:title=" The Cluster expansion approximation " target="_top">
<path fill="none" stroke="black" d="M985.5,-108C985.5,-108 780.5,-108 780.5,-108 774.5,-108 768.5,-102 768.5,-96 768.5,-96 768.5,-84 768.5,-84 768.5,-78 774.5,-72 780.5,-72 780.5,-72 985.5,-72 985.5,-72 991.5,-72 997.5,-78 997.5,-84 997.5,-84 997.5,-96 997.5,-96 997.5,-102 991.5,-108 985.5,-108"/>
<text text-anchor="start" x="776" y="-86.3" font-family="Times,serif" font-size="14.00"> The Cluster expansion approximation </text>
</a>
</g>
</g>
<!-- IDEAL_GAS&#45;&gt;CLUSTER_EXPANSION -->
<g id="edge7" class="edge"><title>IDEAL_GAS&#45;&gt;CLUSTER_EXPANSION</title>
<path fill="none" stroke="black" d="M793.866,-143.876C809.295,-134.724 828.481,-123.342 845.097,-113.485"/>
<polygon fill="black" stroke="black" points="847.208,-116.302 854.023,-108.19 843.637,-110.282 847.208,-116.302"/>
</g>
<!-- PHASE_TRANSITIONS -->
<g id="node9" class="node"><title>PHASE_TRANSITIONS</title>
<g id="a_node9"><a xlink:href="PHASE_TRANSITIONS.html" xlink:title=" The theory of phase transitions " target="_top">
<path fill="none" stroke="black" d="M1031.25,-180C1031.25,-180 862.75,-180 862.75,-180 856.75,-180 850.75,-174 850.75,-168 850.75,-168 850.75,-156 850.75,-156 850.75,-150 856.75,-144 862.75,-144 862.75,-144 1031.25,-144 1031.25,-144 1037.25,-144 1043.25,-150 1043.25,-156 1043.25,-156 1043.25,-168 1043.25,-168 1043.25,-174 1037.25,-180 1031.25,-180"/>
<text text-anchor="start" x="858.5" y="-158.3" font-family="Times,serif" font-size="14.00"> The theory of phase transitions </text>
</a>
</g>
</g>
</g>
</svg>
