<?xml version="1.0" encoding="UTF-8" standalone="no"?>
<!DOCTYPE svg PUBLIC "-//W3C//DTD SVG 1.1//EN"
 "http://www.w3.org/Graphics/SVG/1.1/DTD/svg11.dtd">
<!-- Generated by graphviz version 2.36.0 (20140111.2315)
 -->
<!-- Title: %3 Pages: 1 -->
<svg width="248pt" height="188pt"
 viewBox="0.00 0.00 248.00 188.00" xmlns="http://www.w3.org/2000/svg" xmlns:xlink="http://www.w3.org/1999/xlink">
<g id="graph0" class="graph" transform="scale(1 1) rotate(0) translate(4 184)">
<title>%3</title>
<!-- MONTE_CARLO -->
<g id="node1" class="node"><title>MONTE_CARLO</title>
<g id="a_node1"><a xlink:href="MONTE_CARLO.html" xlink:title=" Monte Carlo Simulation " target="_top">
<path fill="none" stroke="black" d="M228.5,-180C228.5,-180 95.5,-180 95.5,-180 89.5,-180 83.5,-174 83.5,-168 83.5,-168 83.5,-156 83.5,-156 83.5,-150 89.5,-144 95.5,-144 95.5,-144 228.5,-144 228.5,-144 234.5,-144 240.5,-150 240.5,-156 240.5,-156 240.5,-168 240.5,-168 240.5,-174 234.5,-180 228.5,-180"/>
<text text-anchor="start" x="91" y="-158.3" font-family="Times,serif" font-size="14.00"> Monte Carlo Simulation </text>
</a>
</g>
</g>
<!-- MOLECULAR_DYNAMICS -->
<g id="node2" class="node"><title>MOLECULAR_DYNAMICS</title>
<g id="a_node2"><a xlink:href="MOLECULAR_DYNAMICS.html" xlink:title=" Molecular dynamics simulation " target="_top">
<path fill="none" stroke="black" d="M186,-108C186,-108 12,-108 12,-108 6,-108 0,-102 0,-96 0,-96 0,-84 0,-84 0,-78 6,-72 12,-72 12,-72 186,-72 186,-72 192,-72 198,-78 198,-84 198,-84 198,-96 198,-96 198,-102 192,-108 186,-108"/>
<text text-anchor="start" x="8" y="-86.3" font-family="Times,serif" font-size="14.00"> Molecular dynamics simulation </text>
</a>
</g>
</g>
<!-- MONTE_CARLO&#45;&gt;MOLECULAR_DYNAMICS -->
<g id="edge1" class="edge"><title>MONTE_CARLO&#45;&gt;MOLECULAR_DYNAMICS</title>
<path fill="none" stroke="black" d="M146.427,-143.697C138.798,-135.22 129.477,-124.864 121.124,-115.583"/>
<polygon fill="black" stroke="black" points="123.685,-113.196 114.394,-108.104 118.482,-117.879 123.685,-113.196"/>
</g>
<!-- ENHANCED_SAMPLING -->
<g id="node3" class="node"><title>ENHANCED_SAMPLING</title>
<g id="a_node3"><a xlink:href="ENHANCED_SAMPLING.html" xlink:title=" Enhanced sampling " target="_top">
<path fill="none" stroke="black" d="M215.25,-36C215.25,-36 108.75,-36 108.75,-36 102.75,-36 96.75,-30 96.75,-24 96.75,-24 96.75,-12 96.75,-12 96.75,-6 102.75,-0 108.75,-0 108.75,-0 215.25,-0 215.25,-0 221.25,-0 227.25,-6 227.25,-12 227.25,-12 227.25,-24 227.25,-24 227.25,-30 221.25,-36 215.25,-36"/>
<text text-anchor="start" x="104.5" y="-14.3" font-family="Times,serif" font-size="14.00"> Enhanced sampling </text>
</a>
</g>
</g>
<!-- MONTE_CARLO&#45;&gt;ENHANCED_SAMPLING -->
<g id="edge2" class="edge"><title>MONTE_CARLO&#45;&gt;ENHANCED_SAMPLING</title>
<path fill="none" stroke="black" d="M182.379,-143.531C191.807,-134.092 202.006,-121.597 207,-108 212.516,-92.9809 212.516,-87.0191 207,-72 203.216,-61.6962 196.442,-52.0249 189.28,-43.837"/>
<polygon fill="black" stroke="black" points="191.769,-41.3751 182.379,-36.469 186.66,-46.1603 191.769,-41.3751"/>
</g>
<!-- MOLECULAR_DYNAMICS&#45;&gt;ENHANCED_SAMPLING -->
<g id="edge3" class="edge"><title>MOLECULAR_DYNAMICS&#45;&gt;ENHANCED_SAMPLING</title>
<path fill="none" stroke="black" d="M114.573,-71.6966C122.202,-63.2198 131.523,-52.8636 139.876,-43.5826"/>
<polygon fill="black" stroke="black" points="142.518,-45.8787 146.606,-36.1043 137.315,-41.1959 142.518,-45.8787"/>
</g>
</g>
</svg>
