<?xml version="1.0" encoding="UTF-8" standalone="no"?>
<!DOCTYPE svg PUBLIC "-//W3C//DTD SVG 1.1//EN"
 "http://www.w3.org/Graphics/SVG/1.1/DTD/svg11.dtd">
<!-- Generated by graphviz version 2.36.0 (20140111.2315)
 -->
<!-- Title: %3 Pages: 1 -->
<svg width="529pt" height="188pt"
 viewBox="0.00 0.00 529.00 188.00" xmlns="http://www.w3.org/2000/svg" xmlns:xlink="http://www.w3.org/1999/xlink">
<g id="graph0" class="graph" transform="scale(1 1) rotate(0) translate(4 184)">
<title>%3</title>
<!-- LATTICE_GAS -->
<g id="node1" class="node"><title>LATTICE_GAS</title>
<g id="a_node1"><a xlink:href="LATTICE_GAS.html" xlink:title=" Statistical mechanics of independent&#45;distinguisable systems " target="_top">
<path fill="none" stroke="black" d="M338,-108C338,-108 12,-108 12,-108 6,-108 0,-102 0,-96 0,-96 0,-84 0,-84 0,-78 6,-72 12,-72 12,-72 338,-72 338,-72 344,-72 350,-78 350,-84 350,-84 350,-96 350,-96 350,-102 344,-108 338,-108"/>
<text text-anchor="start" x="8" y="-86.3" font-family="Times,serif" font-size="14.00"> Statistical mechanics of independent&#45;distinguisable systems </text>
</a>
</g>
</g>
<!-- ISING_MODEL -->
<g id="node2" class="node"><title>ISING_MODEL</title>
<g id="a_node2"><a xlink:href="ISING_MODEL.html" xlink:title=" The Ising Model " target="_top">
<path fill="none" stroke="black" d="M471.5,-108C471.5,-108 380.5,-108 380.5,-108 374.5,-108 368.5,-102 368.5,-96 368.5,-96 368.5,-84 368.5,-84 368.5,-78 374.5,-72 380.5,-72 380.5,-72 471.5,-72 471.5,-72 477.5,-72 483.5,-78 483.5,-84 483.5,-84 483.5,-96 483.5,-96 483.5,-102 477.5,-108 471.5,-108"/>
<text text-anchor="start" x="376" y="-86.3" font-family="Times,serif" font-size="14.00"> The Ising Model </text>
</a>
</g>
</g>
<!-- MEAN_FIELD_MODELS -->
<g id="node4" class="node"><title>MEAN_FIELD_MODELS</title>
<g id="a_node4"><a xlink:href="MEAN_FIELD_MODELS.html" xlink:title=" The mean field approximation " target="_top">
<path fill="none" stroke="black" d="M509.25,-36C509.25,-36 342.75,-36 342.75,-36 336.75,-36 330.75,-30 330.75,-24 330.75,-24 330.75,-12 330.75,-12 330.75,-6 336.75,-0 342.75,-0 342.75,-0 509.25,-0 509.25,-0 515.25,-0 521.25,-6 521.25,-12 521.25,-12 521.25,-24 521.25,-24 521.25,-30 515.25,-36 509.25,-36"/>
<text text-anchor="start" x="338.5" y="-14.3" font-family="Times,serif" font-size="14.00"> The mean field approximation </text>
</a>
</g>
</g>
<!-- ISING_MODEL&#45;&gt;MEAN_FIELD_MODELS -->
<g id="edge1" class="edge"><title>ISING_MODEL&#45;&gt;MEAN_FIELD_MODELS</title>
<path fill="none" stroke="black" d="M426,-71.6966C426,-63.9827 426,-54.7125 426,-46.1124"/>
<polygon fill="black" stroke="black" points="429.5,-46.1043 426,-36.1043 422.5,-46.1044 429.5,-46.1043"/>
</g>
<!-- CANONICAL_ENSEMBLE -->
<g id="node3" class="node"><title>CANONICAL_ENSEMBLE</title>
<g id="a_node3"><a xlink:href="CANONICAL_ENSEMBLE.html" xlink:title=" The canonical ensemble " target="_top">
<path fill="none" stroke="black" d="M366,-180C366,-180 234,-180 234,-180 228,-180 222,-174 222,-168 222,-168 222,-156 222,-156 222,-150 228,-144 234,-144 234,-144 366,-144 366,-144 372,-144 378,-150 378,-156 378,-156 378,-168 378,-168 378,-174 372,-180 366,-180"/>
<text text-anchor="start" x="230" y="-158.3" font-family="Times,serif" font-size="14.00"> The canonical ensemble </text>
</a>
</g>
</g>
<!-- CANONICAL_ENSEMBLE&#45;&gt;LATTICE_GAS -->
<g id="edge2" class="edge"><title>CANONICAL_ENSEMBLE&#45;&gt;LATTICE_GAS</title>
<path fill="none" stroke="black" d="M269.422,-143.876C252.926,-134.639 232.376,-123.131 214.664,-113.212"/>
<polygon fill="black" stroke="black" points="216.131,-110.022 205.696,-108.19 212.711,-116.13 216.131,-110.022"/>
</g>
<!-- CANONICAL_ENSEMBLE&#45;&gt;ISING_MODEL -->
<g id="edge3" class="edge"><title>CANONICAL_ENSEMBLE&#45;&gt;ISING_MODEL</title>
<path fill="none" stroke="black" d="M330.823,-143.876C347.45,-134.639 368.165,-123.131 386.019,-113.212"/>
<polygon fill="black" stroke="black" points="388.017,-116.106 395.058,-108.19 384.617,-109.987 388.017,-116.106"/>
</g>
</g>
</svg>
