<?xml version="1.0" encoding="UTF-8" standalone="no"?>
<!DOCTYPE svg PUBLIC "-//W3C//DTD SVG 1.1//EN"
 "http://www.w3.org/Graphics/SVG/1.1/DTD/svg11.dtd">
<!-- Generated by graphviz version 2.36.0 (20140111.2315)
 -->
<!-- Title: %3 Pages: 1 -->
<svg width="479pt" height="404pt"
 viewBox="0.00 0.00 479.00 404.00" xmlns="http://www.w3.org/2000/svg" xmlns:xlink="http://www.w3.org/1999/xlink">
<g id="graph0" class="graph" transform="scale(1 1) rotate(0) translate(4 400)">
<title>%3</title>
<!-- THERMODYNAMIC_VARIABLES -->
<g id="node1" class="node"><title>THERMODYNAMIC_VARIABLES</title>
<g id="a_node1"><a xlink:href="THERMODYNAMIC_VARIABLES.html" xlink:title=" Thermodynamic variables " target="_top">
<path fill="none" stroke="black" d="M336.25,-396C336.25,-396 193.75,-396 193.75,-396 187.75,-396 181.75,-390 181.75,-384 181.75,-384 181.75,-372 181.75,-372 181.75,-366 187.75,-360 193.75,-360 193.75,-360 336.25,-360 336.25,-360 342.25,-360 348.25,-366 348.25,-372 348.25,-372 348.25,-384 348.25,-384 348.25,-390 342.25,-396 336.25,-396"/>
<text text-anchor="start" x="189.5" y="-374.3" font-family="Times,serif" font-size="14.00"> Thermodynamic variables </text>
</a>
</g>
</g>
<!-- GIBBS_PHASE_RULE -->
<g id="node2" class="node"><title>GIBBS_PHASE_RULE</title>
<g id="a_node2"><a xlink:href="GIBBS_PHASE_RULE.html" xlink:title=" Gibbs Phase rule " target="_top">
<path fill="none" stroke="black" d="M242.5,-324C242.5,-324 151.5,-324 151.5,-324 145.5,-324 139.5,-318 139.5,-312 139.5,-312 139.5,-300 139.5,-300 139.5,-294 145.5,-288 151.5,-288 151.5,-288 242.5,-288 242.5,-288 248.5,-288 254.5,-294 254.5,-300 254.5,-300 254.5,-312 254.5,-312 254.5,-318 248.5,-324 242.5,-324"/>
<text text-anchor="start" x="147" y="-302.3" font-family="Times,serif" font-size="14.00"> Gibbs Phase rule </text>
</a>
</g>
</g>
<!-- THERMODYNAMIC_VARIABLES&#45;&gt;GIBBS_PHASE_RULE -->
<g id="edge1" class="edge"><title>THERMODYNAMIC_VARIABLES&#45;&gt;GIBBS_PHASE_RULE</title>
<path fill="none" stroke="black" d="M248.191,-359.697C239.874,-351.135 229.695,-340.656 220.61,-331.304"/>
<polygon fill="black" stroke="black" points="223.094,-328.838 213.616,-324.104 218.073,-333.716 223.094,-328.838"/>
</g>
<!-- CARNOT_CYCLE -->
<g id="node4" class="node"><title>CARNOT_CYCLE</title>
<g id="a_node4"><a xlink:href="CARNOT_CYCLE.html" xlink:title=" The Carnot Cycle " target="_top">
<path fill="none" stroke="black" d="M382.25,-324C382.25,-324 285.75,-324 285.75,-324 279.75,-324 273.75,-318 273.75,-312 273.75,-312 273.75,-300 273.75,-300 273.75,-294 279.75,-288 285.75,-288 285.75,-288 382.25,-288 382.25,-288 388.25,-288 394.25,-294 394.25,-300 394.25,-300 394.25,-312 394.25,-312 394.25,-318 388.25,-324 382.25,-324"/>
<text text-anchor="start" x="281.5" y="-302.3" font-family="Times,serif" font-size="14.00"> The Carnot Cycle </text>
</a>
</g>
</g>
<!-- THERMODYNAMIC_VARIABLES&#45;&gt;CARNOT_CYCLE -->
<g id="edge2" class="edge"><title>THERMODYNAMIC_VARIABLES&#45;&gt;CARNOT_CYCLE</title>
<path fill="none" stroke="black" d="M282.056,-359.697C290.495,-351.135 300.825,-340.656 310.043,-331.304"/>
<polygon fill="black" stroke="black" points="312.613,-333.683 317.14,-324.104 307.627,-328.769 312.613,-333.683"/>
</g>
<!-- EXACT_DIFFERENTIALS -->
<g id="node3" class="node"><title>EXACT_DIFFERENTIALS</title>
<g id="a_node3"><a xlink:href="EXACT_DIFFERENTIALS.html" xlink:title=" Theory of exact differentials " target="_top">
<path fill="none" stroke="black" d="M166.25,-252C166.25,-252 11.75,-252 11.75,-252 5.75,-252 -0.25,-246 -0.25,-240 -0.25,-240 -0.25,-228 -0.25,-228 -0.25,-222 5.75,-216 11.75,-216 11.75,-216 166.25,-216 166.25,-216 172.25,-216 178.25,-222 178.25,-228 178.25,-228 178.25,-240 178.25,-240 178.25,-246 172.25,-252 166.25,-252"/>
<text text-anchor="start" x="7.5" y="-230.3" font-family="Times,serif" font-size="14.00"> Theory of exact differentials </text>
</a>
</g>
</g>
<!-- THERMODYNAMIC_POTENTIALS -->
<g id="node6" class="node"><title>THERMODYNAMIC_POTENTIALS</title>
<g id="a_node6"><a xlink:href="THERMODYNAMIC_POTENTIALS.html" xlink:title=" Thermodynamic Potentials " target="_top">
<path fill="none" stroke="black" d="M294,-180C294,-180 146,-180 146,-180 140,-180 134,-174 134,-168 134,-168 134,-156 134,-156 134,-150 140,-144 146,-144 146,-144 294,-144 294,-144 300,-144 306,-150 306,-156 306,-156 306,-168 306,-168 306,-174 300,-180 294,-180"/>
<text text-anchor="start" x="142" y="-158.3" font-family="Times,serif" font-size="14.00"> Thermodynamic Potentials </text>
</a>
</g>
</g>
<!-- EXACT_DIFFERENTIALS&#45;&gt;THERMODYNAMIC_POTENTIALS -->
<g id="edge3" class="edge"><title>EXACT_DIFFERENTIALS&#45;&gt;THERMODYNAMIC_POTENTIALS</title>
<path fill="none" stroke="black" d="M121.046,-215.876C138.492,-206.554 160.265,-194.919 178.943,-184.939"/>
<polygon fill="black" stroke="black" points="180.66,-187.99 187.831,-180.19 177.361,-181.816 180.66,-187.99"/>
</g>
<!-- LAWS_OF_THERMODYNAMICS -->
<g id="node5" class="node"><title>LAWS_OF_THERMODYNAMICS</title>
<g id="a_node5"><a xlink:href="LAWS_OF_THERMODYNAMICS.html" xlink:title=" The first and second laws of thermodynamics " target="_top">
<path fill="none" stroke="black" d="M459,-252C459,-252 209,-252 209,-252 203,-252 197,-246 197,-240 197,-240 197,-228 197,-228 197,-222 203,-216 209,-216 209,-216 459,-216 459,-216 465,-216 471,-222 471,-228 471,-228 471,-240 471,-240 471,-246 465,-252 459,-252"/>
<text text-anchor="start" x="205" y="-230.3" font-family="Times,serif" font-size="14.00"> The first and second laws of thermodynamics </text>
</a>
</g>
</g>
<!-- CARNOT_CYCLE&#45;&gt;LAWS_OF_THERMODYNAMICS -->
<g id="edge4" class="edge"><title>CARNOT_CYCLE&#45;&gt;LAWS_OF_THERMODYNAMICS</title>
<path fill="none" stroke="black" d="M334,-287.697C334,-279.983 334,-270.712 334,-262.112"/>
<polygon fill="black" stroke="black" points="337.5,-262.104 334,-252.104 330.5,-262.104 337.5,-262.104"/>
</g>
<!-- LAWS_OF_THERMODYNAMICS&#45;&gt;THERMODYNAMIC_POTENTIALS -->
<g id="edge5" class="edge"><title>LAWS_OF_THERMODYNAMICS&#45;&gt;THERMODYNAMIC_POTENTIALS</title>
<path fill="none" stroke="black" d="M306.112,-215.876C291.207,-206.724 272.671,-195.342 256.618,-185.485"/>
<polygon fill="black" stroke="black" points="258.348,-182.44 247.995,-180.19 254.685,-188.405 258.348,-182.44"/>
</g>
<!-- RESPONSE_FUNCTIONS -->
<g id="node8" class="node"><title>RESPONSE_FUNCTIONS</title>
<g id="a_node8"><a xlink:href="RESPONSE_FUNCTIONS.html" xlink:title=" Response functions " target="_top">
<path fill="none" stroke="black" d="M336,-36C336,-36 230,-36 230,-36 224,-36 218,-30 218,-24 218,-24 218,-12 218,-12 218,-6 224,-0 230,-0 230,-0 336,-0 336,-0 342,-0 348,-6 348,-12 348,-12 348,-24 348,-24 348,-30 342,-36 336,-36"/>
<text text-anchor="start" x="226" y="-14.3" font-family="Times,serif" font-size="14.00"> Response functions </text>
</a>
</g>
</g>
<!-- LAWS_OF_THERMODYNAMICS&#45;&gt;RESPONSE_FUNCTIONS -->
<g id="edge6" class="edge"><title>LAWS_OF_THERMODYNAMICS&#45;&gt;RESPONSE_FUNCTIONS</title>
<path fill="none" stroke="black" d="M331.453,-215.885C326.855,-186.258 316.301,-123.632 302,-72 299.626,-63.4277 296.538,-54.2528 293.545,-45.9869"/>
<polygon fill="black" stroke="black" points="296.766,-44.6058 289.995,-36.4567 290.206,-47.0494 296.766,-44.6058"/>
</g>
<!-- MAXWELL_RELATIONS -->
<g id="node7" class="node"><title>MAXWELL_RELATIONS</title>
<g id="a_node7"><a xlink:href="MAXWELL_RELATIONS.html" xlink:title=" Maxwell relations " target="_top">
<path fill="none" stroke="black" d="M281.25,-108C281.25,-108 182.75,-108 182.75,-108 176.75,-108 170.75,-102 170.75,-96 170.75,-96 170.75,-84 170.75,-84 170.75,-78 176.75,-72 182.75,-72 182.75,-72 281.25,-72 281.25,-72 287.25,-72 293.25,-78 293.25,-84 293.25,-84 293.25,-96 293.25,-96 293.25,-102 287.25,-108 281.25,-108"/>
<text text-anchor="start" x="178.5" y="-86.3" font-family="Times,serif" font-size="14.00"> Maxwell relations </text>
</a>
</g>
</g>
<!-- THERMODYNAMIC_POTENTIALS&#45;&gt;MAXWELL_RELATIONS -->
<g id="edge7" class="edge"><title>THERMODYNAMIC_POTENTIALS&#45;&gt;MAXWELL_RELATIONS</title>
<path fill="none" stroke="black" d="M222.966,-143.697C224.289,-135.983 225.878,-126.712 227.352,-118.112"/>
<polygon fill="black" stroke="black" points="230.828,-118.552 229.068,-108.104 223.928,-117.369 230.828,-118.552"/>
</g>
<!-- MAXWELL_RELATIONS&#45;&gt;RESPONSE_FUNCTIONS -->
<g id="edge8" class="edge"><title>MAXWELL_RELATIONS&#45;&gt;RESPONSE_FUNCTIONS</title>
<path fill="none" stroke="black" d="M244.607,-71.6966C250.597,-63.4741 257.876,-53.4832 264.479,-44.4207"/>
<polygon fill="black" stroke="black" points="267.478,-46.2477 270.538,-36.1043 261.821,-42.1257 267.478,-46.2477"/>
</g>
</g>
</svg>
