<?xml version="1.0" encoding="UTF-8" standalone="no"?>
<!DOCTYPE svg PUBLIC "-//W3C//DTD SVG 1.1//EN"
 "http://www.w3.org/Graphics/SVG/1.1/DTD/svg11.dtd">
<!-- Generated by graphviz version 2.36.0 (20140111.2315)
 -->
<!-- Title: %3 Pages: 1 -->
<svg width="936pt" height="116pt"
 viewBox="0.00 0.00 936.00 116.00" xmlns="http://www.w3.org/2000/svg" xmlns:xlink="http://www.w3.org/1999/xlink">
<g id="graph0" class="graph" transform="scale(1 1) rotate(0) translate(4 112)">
<title>%3</title>
<!-- IDEAL_GAS -->
<g id="node1" class="node"><title>IDEAL_GAS</title>
<g id="a_node1"><a xlink:href="IDEAL_GAS.html" xlink:title=" The ideal gas model " target="_top">
<path fill="none" stroke="black" d="M316.25,-108C316.25,-108 205.75,-108 205.75,-108 199.75,-108 193.75,-102 193.75,-96 193.75,-96 193.75,-84 193.75,-84 193.75,-78 199.75,-72 205.75,-72 205.75,-72 316.25,-72 316.25,-72 322.25,-72 328.25,-78 328.25,-84 328.25,-84 328.25,-96 328.25,-96 328.25,-102 322.25,-108 316.25,-108"/>
<text text-anchor="start" x="201.5" y="-86.3" font-family="Times,serif" font-size="14.00"> The ideal gas model </text>
</a>
</g>
</g>
<!-- PARTITION_FUNCTION_FOR_MOLECULES -->
<g id="node2" class="node"><title>PARTITION_FUNCTION_FOR_MOLECULES</title>
<g id="a_node2"><a xlink:href="PARTITION_FUNCTION_FOR_MOLECULES.html" xlink:title=" The partition function for molecular gasses " target="_top">
<path fill="none" stroke="black" d="M248,-36C248,-36 12,-36 12,-36 6,-36 0,-30 0,-24 0,-24 0,-12 0,-12 0,-6 6,-0 12,-0 12,-0 248,-0 248,-0 254,-0 260,-6 260,-12 260,-12 260,-24 260,-24 260,-30 254,-36 248,-36"/>
<text text-anchor="start" x="8" y="-14.3" font-family="Times,serif" font-size="14.00"> The partition function for molecular gasses </text>
</a>
</g>
</g>
<!-- IDEAL_GAS&#45;&gt;PARTITION_FUNCTION_FOR_MOLECULES -->
<g id="edge1" class="edge"><title>IDEAL_GAS&#45;&gt;PARTITION_FUNCTION_FOR_MOLECULES</title>
<path fill="none" stroke="black" d="M228.954,-71.8761C211.508,-62.5541 189.735,-50.9194 171.057,-40.939"/>
<polygon fill="black" stroke="black" points="172.639,-37.8157 162.169,-36.1898 169.34,-43.9896 172.639,-37.8157"/>
</g>
<!-- CLUSTER_EXPANSION -->
<g id="node6" class="node"><title>CLUSTER_EXPANSION</title>
<g id="a_node6"><a xlink:href="CLUSTER_EXPANSION.html" xlink:title=" The Cluster expansion approximation " target="_top">
<path fill="none" stroke="black" d="M495.5,-36C495.5,-36 290.5,-36 290.5,-36 284.5,-36 278.5,-30 278.5,-24 278.5,-24 278.5,-12 278.5,-12 278.5,-6 284.5,-0 290.5,-0 290.5,-0 495.5,-0 495.5,-0 501.5,-0 507.5,-6 507.5,-12 507.5,-12 507.5,-24 507.5,-24 507.5,-30 501.5,-36 495.5,-36"/>
<text text-anchor="start" x="286" y="-14.3" font-family="Times,serif" font-size="14.00"> The Cluster expansion approximation </text>
</a>
</g>
</g>
<!-- IDEAL_GAS&#45;&gt;CLUSTER_EXPANSION -->
<g id="edge2" class="edge"><title>IDEAL_GAS&#45;&gt;CLUSTER_EXPANSION</title>
<path fill="none" stroke="black" d="M293.291,-71.8761C310.869,-62.5541 332.809,-50.9194 351.629,-40.939"/>
<polygon fill="black" stroke="black" points="353.39,-43.967 360.585,-36.1898 350.111,-37.7827 353.39,-43.967"/>
</g>
<!-- ISING_MODEL -->
<g id="node3" class="node"><title>ISING_MODEL</title>
<g id="a_node3"><a xlink:href="ISING_MODEL.html" xlink:title=" The Ising Model " target="_top">
<path fill="none" stroke="black" d="M773.5,-108C773.5,-108 682.5,-108 682.5,-108 676.5,-108 670.5,-102 670.5,-96 670.5,-96 670.5,-84 670.5,-84 670.5,-78 676.5,-72 682.5,-72 682.5,-72 773.5,-72 773.5,-72 779.5,-72 785.5,-78 785.5,-84 785.5,-84 785.5,-96 785.5,-96 785.5,-102 779.5,-108 773.5,-108"/>
<text text-anchor="start" x="678" y="-86.3" font-family="Times,serif" font-size="14.00"> The Ising Model </text>
</a>
</g>
</g>
<!-- PHASE_TRANSITIONS -->
<g id="node4" class="node"><title>PHASE_TRANSITIONS</title>
<g id="a_node4"><a xlink:href="PHASE_TRANSITIONS.html" xlink:title=" The theory of phase transitions " target="_top">
<path fill="none" stroke="black" d="M707.25,-36C707.25,-36 538.75,-36 538.75,-36 532.75,-36 526.75,-30 526.75,-24 526.75,-24 526.75,-12 526.75,-12 526.75,-6 532.75,-0 538.75,-0 538.75,-0 707.25,-0 707.25,-0 713.25,-0 719.25,-6 719.25,-12 719.25,-12 719.25,-24 719.25,-24 719.25,-30 713.25,-36 707.25,-36"/>
<text text-anchor="start" x="534.5" y="-14.3" font-family="Times,serif" font-size="14.00"> The theory of phase transitions </text>
</a>
</g>
</g>
<!-- ISING_MODEL&#45;&gt;PHASE_TRANSITIONS -->
<g id="edge3" class="edge"><title>ISING_MODEL&#45;&gt;PHASE_TRANSITIONS</title>
<path fill="none" stroke="black" d="M702.314,-71.8761C688.712,-62.8083 671.828,-51.5523 657.139,-41.7592"/>
<polygon fill="black" stroke="black" points="659.047,-38.8246 648.785,-36.1898 655.164,-44.649 659.047,-38.8246"/>
</g>
<!-- MEAN_FIELD_MODELS -->
<g id="node5" class="node"><title>MEAN_FIELD_MODELS</title>
<g id="a_node5"><a xlink:href="MEAN_FIELD_MODELS.html" xlink:title=" The mean field approximation " target="_top">
<path fill="none" stroke="black" d="M916.25,-36C916.25,-36 749.75,-36 749.75,-36 743.75,-36 737.75,-30 737.75,-24 737.75,-24 737.75,-12 737.75,-12 737.75,-6 743.75,-0 749.75,-0 749.75,-0 916.25,-0 916.25,-0 922.25,-0 928.25,-6 928.25,-12 928.25,-12 928.25,-24 928.25,-24 928.25,-30 922.25,-36 916.25,-36"/>
<text text-anchor="start" x="745.5" y="-14.3" font-family="Times,serif" font-size="14.00"> The mean field approximation </text>
</a>
</g>
</g>
<!-- ISING_MODEL&#45;&gt;MEAN_FIELD_MODELS -->
<g id="edge4" class="edge"><title>ISING_MODEL&#45;&gt;MEAN_FIELD_MODELS</title>
<path fill="none" stroke="black" d="M753.686,-71.8761C767.288,-62.8083 784.172,-51.5523 798.861,-41.7592"/>
<polygon fill="black" stroke="black" points="800.836,-44.649 807.215,-36.1898 796.953,-38.8246 800.836,-44.649"/>
</g>
</g>
</svg>
