<?xml version="1.0" encoding="UTF-8" standalone="no"?>
<!DOCTYPE svg PUBLIC "-//W3C//DTD SVG 1.1//EN"
 "http://www.w3.org/Graphics/SVG/1.1/DTD/svg11.dtd">
<!-- Generated by graphviz version 2.36.0 (20140111.2315)
 -->
<!-- Title: %3 Pages: 1 -->
<svg width="697pt" height="260pt"
 viewBox="0.00 0.00 697.00 260.00" xmlns="http://www.w3.org/2000/svg" xmlns:xlink="http://www.w3.org/1999/xlink">
<g id="graph0" class="graph" transform="scale(1 1) rotate(0) translate(4 256)">
<title>%3</title>
<!-- PRINCIPLE_OF_EQUAL_APRIORI_PROBABILITIES -->
<g id="node1" class="node"><title>PRINCIPLE_OF_EQUAL_APRIORI_PROBABILITIES</title>
<g id="a_node1"><a xlink:href="PRINCIPLE_OF_EQUAL_APRIORI_PROBABILITIES.html" xlink:title=" The principle of equal apriori probabilities " target="_top">
<path fill="none" stroke="black" d="M280,-252C280,-252 48,-252 48,-252 42,-252 36,-246 36,-240 36,-240 36,-228 36,-228 36,-222 42,-216 48,-216 48,-216 280,-216 280,-216 286,-216 292,-222 292,-228 292,-228 292,-240 292,-240 292,-246 286,-252 280,-252"/>
<text text-anchor="start" x="44" y="-230.3" font-family="Times,serif" font-size="14.00"> The principle of equal apriori probabilities </text>
</a>
</g>
</g>
<!-- GENERALIZED_PARTITION_FUNCTION -->
<g id="node4" class="node"><title>GENERALIZED_PARTITION_FUNCTION</title>
<g id="a_node4"><a xlink:href="GENERALIZED_PARTITION_FUNCTION.html" xlink:title=" The generalized partition function " target="_top">
<path fill="none" stroke="black" d="M468.25,-180C468.25,-180 283.75,-180 283.75,-180 277.75,-180 271.75,-174 271.75,-168 271.75,-168 271.75,-156 271.75,-156 271.75,-150 277.75,-144 283.75,-144 283.75,-144 468.25,-144 468.25,-144 474.25,-144 480.25,-150 480.25,-156 480.25,-156 480.25,-168 480.25,-168 480.25,-174 474.25,-180 468.25,-180"/>
<text text-anchor="start" x="279.5" y="-158.3" font-family="Times,serif" font-size="14.00"> The generalized partition function </text>
</a>
</g>
</g>
<!-- PRINCIPLE_OF_EQUAL_APRIORI_PROBABILITIES&#45;&gt;GENERALIZED_PARTITION_FUNCTION -->
<g id="edge1" class="edge"><title>PRINCIPLE_OF_EQUAL_APRIORI_PROBABILITIES&#45;&gt;GENERALIZED_PARTITION_FUNCTION</title>
<path fill="none" stroke="black" d="M215.59,-215.966C245.469,-206.1 283.26,-193.622 314.656,-183.255"/>
<polygon fill="black" stroke="black" points="315.78,-186.57 324.179,-180.111 313.586,-179.923 315.78,-186.57"/>
</g>
<!-- INFORMATION_THEORY -->
<g id="node2" class="node"><title>INFORMATION_THEORY</title>
<g id="a_node2"><a xlink:href="INFORMATION_THEORY.html" xlink:title=" Information theory &#160;" target="_top">
<path fill="none" stroke="black" d="M429.25,-252C429.25,-252 322.75,-252 322.75,-252 316.75,-252 310.75,-246 310.75,-240 310.75,-240 310.75,-228 310.75,-228 310.75,-222 316.75,-216 322.75,-216 322.75,-216 429.25,-216 429.25,-216 435.25,-216 441.25,-222 441.25,-228 441.25,-228 441.25,-240 441.25,-240 441.25,-246 435.25,-252 429.25,-252"/>
<text text-anchor="start" x="318.5" y="-230.3" font-family="Times,serif" font-size="14.00"> Information theory &#160;</text>
</a>
</g>
</g>
<!-- INFORMATION_THEORY&#45;&gt;GENERALIZED_PARTITION_FUNCTION -->
<g id="edge2" class="edge"><title>INFORMATION_THEORY&#45;&gt;GENERALIZED_PARTITION_FUNCTION</title>
<path fill="none" stroke="black" d="M376,-215.697C376,-207.983 376,-198.712 376,-190.112"/>
<polygon fill="black" stroke="black" points="379.5,-190.104 376,-180.104 372.5,-190.104 379.5,-190.104"/>
</g>
<!-- LAGRANGE_MULTIPLIERS -->
<g id="node3" class="node"><title>LAGRANGE_MULTIPLIERS</title>
<g id="a_node3"><a xlink:href="LAGRANGE_MULTIPLIERS.html" xlink:title=" Lagrange multipliers " target="_top">
<path fill="none" stroke="black" d="M586,-252C586,-252 472,-252 472,-252 466,-252 460,-246 460,-240 460,-240 460,-228 460,-228 460,-222 466,-216 472,-216 472,-216 586,-216 586,-216 592,-216 598,-222 598,-228 598,-228 598,-240 598,-240 598,-246 592,-252 586,-252"/>
<text text-anchor="start" x="468" y="-230.3" font-family="Times,serif" font-size="14.00"> Lagrange multipliers </text>
</a>
</g>
</g>
<!-- LAGRANGE_MULTIPLIERS&#45;&gt;GENERALIZED_PARTITION_FUNCTION -->
<g id="edge3" class="edge"><title>LAGRANGE_MULTIPLIERS&#45;&gt;GENERALIZED_PARTITION_FUNCTION</title>
<path fill="none" stroke="black" d="M491.572,-215.876C470.749,-206.349 444.646,-194.407 422.519,-184.283"/>
<polygon fill="black" stroke="black" points="423.856,-181.046 413.306,-180.068 420.944,-187.411 423.856,-181.046"/>
</g>
<!-- CANONICAL_ENSEMBLE -->
<g id="node5" class="node"><title>CANONICAL_ENSEMBLE</title>
<g id="a_node5"><a xlink:href="CANONICAL_ENSEMBLE.html" xlink:title=" The canonical ensemble " target="_top">
<path fill="none" stroke="black" d="M241,-108C241,-108 109,-108 109,-108 103,-108 97,-102 97,-96 97,-96 97,-84 97,-84 97,-78 103,-72 109,-72 109,-72 241,-72 241,-72 247,-72 253,-78 253,-84 253,-84 253,-96 253,-96 253,-102 247,-108 241,-108"/>
<text text-anchor="start" x="105" y="-86.3" font-family="Times,serif" font-size="14.00"> The canonical ensemble </text>
</a>
</g>
</g>
<!-- GENERALIZED_PARTITION_FUNCTION&#45;&gt;CANONICAL_ENSEMBLE -->
<g id="edge4" class="edge"><title>GENERALIZED_PARTITION_FUNCTION&#45;&gt;CANONICAL_ENSEMBLE</title>
<path fill="none" stroke="black" d="M327.087,-143.966C299.003,-134.185 263.545,-121.836 233.932,-111.524"/>
<polygon fill="black" stroke="black" points="234.727,-108.094 224.132,-108.111 232.425,-114.705 234.727,-108.094"/>
</g>
<!-- ISOTHERMAL_ISOBARIC_ENSEMBLE -->
<g id="node6" class="node"><title>ISOTHERMAL_ISOBARIC_ENSEMBLE</title>
<g id="a_node6"><a xlink:href="ISOTHERMAL_ISOBARIC_ENSEMBLE.html" xlink:title=" The isothermal isobaric ensemble " target="_top">
<path fill="none" stroke="black" d="M468.25,-108C468.25,-108 283.75,-108 283.75,-108 277.75,-108 271.75,-102 271.75,-96 271.75,-96 271.75,-84 271.75,-84 271.75,-78 277.75,-72 283.75,-72 283.75,-72 468.25,-72 468.25,-72 474.25,-72 480.25,-78 480.25,-84 480.25,-84 480.25,-96 480.25,-96 480.25,-102 474.25,-108 468.25,-108"/>
<text text-anchor="start" x="279.5" y="-86.3" font-family="Times,serif" font-size="14.00"> The isothermal isobaric ensemble </text>
</a>
</g>
</g>
<!-- GENERALIZED_PARTITION_FUNCTION&#45;&gt;ISOTHERMAL_ISOBARIC_ENSEMBLE -->
<g id="edge5" class="edge"><title>GENERALIZED_PARTITION_FUNCTION&#45;&gt;ISOTHERMAL_ISOBARIC_ENSEMBLE</title>
<path fill="none" stroke="black" d="M376,-143.697C376,-135.983 376,-126.712 376,-118.112"/>
<polygon fill="black" stroke="black" points="379.5,-118.104 376,-108.104 372.5,-118.104 379.5,-118.104"/>
</g>
<!-- GRAND_CANONICAL_ENSEMBLE -->
<g id="node7" class="node"><title>GRAND_CANONICAL_ENSEMBLE</title>
<g id="a_node7"><a xlink:href="GRAND_CANONICAL_ENSEMBLE.html" xlink:title=" The grand canonical ensemble " target="_top">
<path fill="none" stroke="black" d="M677.25,-108C677.25,-108 510.75,-108 510.75,-108 504.75,-108 498.75,-102 498.75,-96 498.75,-96 498.75,-84 498.75,-84 498.75,-78 504.75,-72 510.75,-72 510.75,-72 677.25,-72 677.25,-72 683.25,-72 689.25,-78 689.25,-84 689.25,-84 689.25,-96 689.25,-96 689.25,-102 683.25,-108 677.25,-108"/>
<text text-anchor="start" x="506.5" y="-86.3" font-family="Times,serif" font-size="14.00"> The grand canonical ensemble </text>
</a>
</g>
</g>
<!-- GENERALIZED_PARTITION_FUNCTION&#45;&gt;GRAND_CANONICAL_ENSEMBLE -->
<g id="edge6" class="edge"><title>GENERALIZED_PARTITION_FUNCTION&#45;&gt;GRAND_CANONICAL_ENSEMBLE</title>
<path fill="none" stroke="black" d="M429.05,-143.966C459.774,-134.1 498.636,-121.622 530.92,-111.255"/>
<polygon fill="black" stroke="black" points="532.261,-114.501 540.712,-108.111 530.121,-107.836 532.261,-114.501"/>
</g>
<!-- LATTICE_GAS -->
<g id="node8" class="node"><title>LATTICE_GAS</title>
<g id="a_node8"><a xlink:href="LATTICE_GAS.html" xlink:title=" Statistical mechanics of independent&#45;distinguisable systems " target="_top">
<path fill="none" stroke="black" d="M338,-36C338,-36 12,-36 12,-36 6,-36 0,-30 0,-24 0,-24 0,-12 0,-12 0,-6 6,-0 12,-0 12,-0 338,-0 338,-0 344,-0 350,-6 350,-12 350,-12 350,-24 350,-24 350,-30 344,-36 338,-36"/>
<text text-anchor="start" x="8" y="-14.3" font-family="Times,serif" font-size="14.00"> Statistical mechanics of independent&#45;distinguisable systems </text>
</a>
</g>
</g>
<!-- CANONICAL_ENSEMBLE&#45;&gt;LATTICE_GAS -->
<g id="edge7" class="edge"><title>CANONICAL_ENSEMBLE&#45;&gt;LATTICE_GAS</title>
<path fill="none" stroke="black" d="M175,-71.6966C175,-63.9827 175,-54.7125 175,-46.1124"/>
<polygon fill="black" stroke="black" points="178.5,-46.1043 175,-36.1043 171.5,-46.1044 178.5,-46.1043"/>
</g>
</g>
</svg>
