<?xml version="1.0" encoding="UTF-8" standalone="no"?>
<!DOCTYPE svg PUBLIC "-//W3C//DTD SVG 1.1//EN"
 "http://www.w3.org/Graphics/SVG/1.1/DTD/svg11.dtd">
<!-- Generated by graphviz version 2.26.3 (20100126.1600)
 -->
<!-- Title: _anonymous_0 Pages: 1 -->
<svg width="492pt" height="116pt"
 viewBox="0.00 0.00 492.00 116.00" xmlns="http://www.w3.org/2000/svg" xmlns:xlink="http://www.w3.org/1999/xlink">
<g id="graph1" class="graph" transform="scale(1 1) rotate(0) translate(4 112)">
<title>_anonymous_0</title>
<!-- BASIC_COMBINATORICS -->
<g id="node1" class="node"><title>BASIC_COMBINATORICS</title>
<a xlink:href="BASIC_COMBINATORICS.html" xlink:title=" Combinatorics " target="_top">
<polyline fill="none" stroke="blue" stroke-width="2" points="276,-108 176,-108 "/>
<path fill="none" stroke="blue" stroke-width="2" d="M176,-108C170,-108 164,-102 164,-96"/>
<polyline fill="none" stroke="blue" stroke-width="2" points="164,-96 164,-84 "/>
<path fill="none" stroke="blue" stroke-width="2" d="M164,-84C164,-78 170,-72 176,-72"/>
<polyline fill="none" stroke="blue" stroke-width="2" points="176,-72 276,-72 "/>
<path fill="none" stroke="blue" stroke-width="2" d="M276,-72C282,-72 288,-78 288,-84"/>
<polyline fill="none" stroke="blue" stroke-width="2" points="288,-84 288,-96 "/>
<path fill="none" stroke="blue" stroke-width="2" d="M288,-96C288,-102 282,-108 276,-108"/>
<text text-anchor="start" x="172.5" y="-87.2333" font-family="Times Roman,serif" font-size="14.00"> Combinatorics </text>
</a>
</g>
<!-- BINOMIAL_RANDOM_VARIABLE -->
<g id="node2" class="node"><title>BINOMIAL_RANDOM_VARIABLE</title>
<a xlink:href="BINOMIAL_RANDOM_VARIABLE.html" xlink:title=" Binomial random variable " target="_top">
<polyline fill="none" stroke="black" points="190,-36 12,-36 "/>
<path fill="none" stroke="black" d="M12,-36C6,-36 5.92119e-14,-30 4.73695e-14,-24"/>
<polyline fill="none" stroke="black" points="4.73695e-14,-24 2.36848e-14,-12 "/>
<path fill="none" stroke="black" d="M2.36848e-14,-12C1.18424e-14,-6 6,-1.73415e-14 12,-1.69194e-14"/>
<polyline fill="none" stroke="black" points="12,-1.69194e-14 190,-4.39692e-15 "/>
<path fill="none" stroke="black" d="M190,-4.39692e-15C196,-3.97482e-15 202,-6 202,-12"/>
<polyline fill="none" stroke="black" points="202,-12 202,-24 "/>
<path fill="none" stroke="black" d="M202,-24C202,-30 196,-36 190,-36"/>
<text text-anchor="start" x="8.5" y="-15.2333" font-family="Times Roman,serif" font-size="14.00"> Binomial random variable </text>
</a>
</g>
<!-- BASIC_COMBINATORICS&#45;&gt;BINOMIAL_RANDOM_VARIABLE -->
<g id="edge2" class="edge"><title>BASIC_COMBINATORICS&#45;&gt;BINOMIAL_RANDOM_VARIABLE</title>
<path fill="none" stroke="black" d="M194.457,-71.8314C178.321,-62.5368 158.501,-51.1208 141.273,-41.1971"/>
<polygon fill="black" stroke="black" points="142.945,-38.1212 132.533,-36.1628 139.451,-44.187 142.945,-38.1212"/>
</g>
<!-- ADSORPTION -->
<g id="node4" class="node"><title>ADSORPTION</title>
<a xlink:href="ADSORPTION.html" xlink:title=" Statistical mechanics of adsorption " target="_top">
<polyline fill="none" stroke="black" points="472,-36 232,-36 "/>
<path fill="none" stroke="black" d="M232,-36C226,-36 220,-30 220,-24"/>
<polyline fill="none" stroke="black" points="220,-24 220,-12 "/>
<path fill="none" stroke="black" d="M220,-12C220,-6 226,-1.74406e-14 232,-1.71176e-14"/>
<polyline fill="none" stroke="black" points="232,-1.71176e-14 472,-4.19866e-15 "/>
<path fill="none" stroke="black" d="M472,-4.19866e-15C478,-3.87569e-15 484,-6 484,-12"/>
<polyline fill="none" stroke="black" points="484,-12 484,-24 "/>
<path fill="none" stroke="black" d="M484,-24C484,-30 478,-36 472,-36"/>
<text text-anchor="start" x="228" y="-15.2333" font-family="Times Roman,serif" font-size="14.00"> Statistical mechanics of adsorption </text>
</a>
</g>
<!-- BASIC_COMBINATORICS&#45;&gt;ADSORPTION -->
<g id="edge4" class="edge"><title>BASIC_COMBINATORICS&#45;&gt;ADSORPTION</title>
<path fill="none" stroke="black" d="M257.795,-71.8314C274.061,-62.5368 294.039,-51.1208 311.405,-41.1971"/>
<polygon fill="black" stroke="black" points="313.269,-44.1631 320.215,-36.1628 309.796,-38.0854 313.269,-44.1631"/>
</g>
</g>
</svg>
