<?xml version="1.0" encoding="UTF-8" standalone="no"?>
<!DOCTYPE svg PUBLIC "-//W3C//DTD SVG 1.1//EN"
 "http://www.w3.org/Graphics/SVG/1.1/DTD/svg11.dtd">
<!-- Generated by graphviz version 2.28.0 (20110509.1545)
 -->
<!-- Title: _anonymous_0 Pages: 1 -->
<svg width="170pt" height="116pt"
 viewBox="0.00 0.00 170.00 116.00" xmlns="http://www.w3.org/2000/svg" xmlns:xlink="http://www.w3.org/1999/xlink">
<g id="graph1" class="graph" transform="scale(1 1) rotate(0) translate(4 112)">
<title>_anonymous_0</title>
<!-- BASIC_COMBINATORICS -->
<g id="node1" class="node"><title>BASIC_COMBINATORICS</title>
<a xlink:href="BASIC_COMBINATORICS.html" xlink:title="Combinatorics" target="_top">
<polyline fill="none" stroke="blue" stroke-width="2" points="118.25,-108 43.75,-108 "/>
<path fill="none" stroke="blue" stroke-width="2" d="M43.75,-108C37.75,-108 31.75,-102 31.75,-96"/>
<polyline fill="none" stroke="blue" stroke-width="2" points="31.75,-96 31.75,-84 "/>
<path fill="none" stroke="blue" stroke-width="2" d="M31.75,-84C31.75,-78 37.75,-72 43.75,-72"/>
<polyline fill="none" stroke="blue" stroke-width="2" points="43.75,-72 118.25,-72 "/>
<path fill="none" stroke="blue" stroke-width="2" d="M118.25,-72C124.25,-72 130.25,-78 130.25,-84"/>
<polyline fill="none" stroke="blue" stroke-width="2" points="130.25,-84 130.25,-96 "/>
<path fill="none" stroke="blue" stroke-width="2" d="M130.25,-96C130.25,-102 124.25,-108 118.25,-108"/>
<text text-anchor="start" x="40" y="-84.5" font-family="Times,serif" font-size="14.00">Combinatorics</text>
</a>
</g>
<!-- BINOMIAL_RANDOM_VARIABLE -->
<g id="node2" class="node"><title>BINOMIAL_RANDOM_VARIABLE</title>
<a xlink:href="BINOMIAL_RANDOM_VARIABLE.html" xlink:title="Binomial random variable" target="_top">
<polyline fill="none" stroke="black" points="150.25,-36 11.75,-36 "/>
<path fill="none" stroke="black" d="M11.75,-36C5.75,-36 -0.25,-30 -0.25,-24"/>
<polyline fill="none" stroke="black" points="-0.25,-24 -0.25,-12 "/>
<path fill="none" stroke="black" d="M-0.25,-12C-0.25,-6 5.75,-0 11.75,-0"/>
<polyline fill="none" stroke="black" points="11.75,-0 150.25,-0 "/>
<path fill="none" stroke="black" d="M150.25,-0C156.25,-0 162.25,-6 162.25,-12"/>
<polyline fill="none" stroke="black" points="162.25,-12 162.25,-24 "/>
<path fill="none" stroke="black" d="M162.25,-24C162.25,-30 156.25,-36 150.25,-36"/>
<text text-anchor="start" x="8" y="-12.5" font-family="Times,serif" font-size="14.00">Binomial random variable</text>
</a>
</g>
<!-- BASIC_COMBINATORICS&#45;&gt;BINOMIAL_RANDOM_VARIABLE -->
<g id="edge2" class="edge"><title>BASIC_COMBINATORICS&#45;&gt;BINOMIAL_RANDOM_VARIABLE</title>
<path fill="none" stroke="black" d="M81,-71.6966C81,-63.9827 81,-54.7125 81,-46.1124"/>
<polygon fill="black" stroke="black" points="84.5001,-46.1043 81,-36.1043 77.5001,-46.1044 84.5001,-46.1043"/>
</g>
</g>
</svg>
