<?xml version="1.0" encoding="UTF-8" standalone="no"?>
<!DOCTYPE svg PUBLIC "-//W3C//DTD SVG 1.1//EN"
 "http://www.w3.org/Graphics/SVG/1.1/DTD/svg11.dtd">
<!-- Generated by graphviz version 2.36.0 (20140111.2315)
 -->
<!-- Title: %3 Pages: 1 -->
<svg width="409pt" height="116pt"
 viewBox="0.00 0.00 409.00 116.00" xmlns="http://www.w3.org/2000/svg" xmlns:xlink="http://www.w3.org/1999/xlink">
<g id="graph0" class="graph" transform="scale(1 1) rotate(0) translate(4 112)">
<title>%3</title>
<!-- BASIC_COMBINATORICS -->
<g id="node1" class="node"><title>BASIC_COMBINATORICS</title>
<g id="a_node1"><a xlink:href="BASIC_COMBINATORICS.html" xlink:title=" Combinatorics " target="_top">
<path fill="none" stroke="blue" stroke-width="2" d="M252,-108C252,-108 172,-108 172,-108 166,-108 160,-102 160,-96 160,-96 160,-84 160,-84 160,-78 166,-72 172,-72 172,-72 252,-72 252,-72 258,-72 264,-78 264,-84 264,-84 264,-96 264,-96 264,-102 258,-108 252,-108"/>
<text text-anchor="start" x="168" y="-86.3" font-family="Times,serif" font-size="14.00"> Combinatorics </text>
</a>
</g>
</g>
<!-- ADSORPTION -->
<g id="node2" class="node"><title>ADSORPTION</title>
<g id="a_node2"><a xlink:href="ADSORPTION.html" xlink:title=" Statistical mechanics of adsorption " target="_top">
<path fill="none" stroke="black" d="M202.25,-36C202.25,-36 11.75,-36 11.75,-36 5.75,-36 -0.25,-30 -0.25,-24 -0.25,-24 -0.25,-12 -0.25,-12 -0.25,-6 5.75,-0 11.75,-0 11.75,-0 202.25,-0 202.25,-0 208.25,-0 214.25,-6 214.25,-12 214.25,-12 214.25,-24 214.25,-24 214.25,-30 208.25,-36 202.25,-36"/>
<text text-anchor="start" x="7.5" y="-14.3" font-family="Times,serif" font-size="14.00"> Statistical mechanics of adsorption </text>
</a>
</g>
</g>
<!-- BASIC_COMBINATORICS&#45;&gt;ADSORPTION -->
<g id="edge1" class="edge"><title>BASIC_COMBINATORICS&#45;&gt;ADSORPTION</title>
<path fill="none" stroke="black" d="M186.314,-71.8761C172.712,-62.8083 155.828,-51.5523 141.139,-41.7592"/>
<polygon fill="black" stroke="black" points="143.047,-38.8246 132.785,-36.1898 139.164,-44.649 143.047,-38.8246"/>
</g>
<!-- BINOMIAL_RANDOM_VARIABLE -->
<g id="node3" class="node"><title>BINOMIAL_RANDOM_VARIABLE</title>
<g id="a_node3"><a xlink:href="BINOMIAL_RANDOM_VARIABLE.html" xlink:title=" Binomial random variable " target="_top">
<path fill="none" stroke="black" d="M388.5,-36C388.5,-36 245.5,-36 245.5,-36 239.5,-36 233.5,-30 233.5,-24 233.5,-24 233.5,-12 233.5,-12 233.5,-6 239.5,-0 245.5,-0 245.5,-0 388.5,-0 388.5,-0 394.5,-0 400.5,-6 400.5,-12 400.5,-12 400.5,-24 400.5,-24 400.5,-30 394.5,-36 388.5,-36"/>
<text text-anchor="start" x="241" y="-14.3" font-family="Times,serif" font-size="14.00"> Binomial random variable </text>
</a>
</g>
</g>
<!-- BASIC_COMBINATORICS&#45;&gt;BINOMIAL_RANDOM_VARIABLE -->
<g id="edge2" class="edge"><title>BASIC_COMBINATORICS&#45;&gt;BINOMIAL_RANDOM_VARIABLE</title>
<path fill="none" stroke="black" d="M237.686,-71.8761C251.288,-62.8083 268.172,-51.5523 282.861,-41.7592"/>
<polygon fill="black" stroke="black" points="284.836,-44.649 291.215,-36.1898 280.953,-38.8246 284.836,-44.649"/>
</g>
</g>
</svg>
