<?xml version="1.0" encoding="UTF-8" standalone="no"?>
<!DOCTYPE svg PUBLIC "-//W3C//DTD SVG 1.1//EN"
 "http://www.w3.org/Graphics/SVG/1.1/DTD/svg11.dtd">
<!-- Generated by graphviz version 2.26.3 (20100126.1600)
 -->
<!-- Title: _anonymous_0 Pages: 1 -->
<svg width="474pt" height="116pt"
 viewBox="0.00 0.00 474.00 116.00" xmlns="http://www.w3.org/2000/svg" xmlns:xlink="http://www.w3.org/1999/xlink">
<g id="graph1" class="graph" transform="scale(1 1) rotate(0) translate(4 112)">
<title>_anonymous_0</title>
<!-- BASIC_COMBINATORICS -->
<g id="node1" class="node"><title>BASIC_COMBINATORICS</title>
<a xlink:href="BASIC_COMBINATORICS.html" xlink:title="Combinatorics" target="_top">
<polyline fill="none" stroke="blue" stroke-width="2" points="294,-108 204,-108 "/>
<path fill="none" stroke="blue" stroke-width="2" d="M204,-108C198,-108 192,-102 192,-96"/>
<polyline fill="none" stroke="blue" stroke-width="2" points="192,-96 192,-84 "/>
<path fill="none" stroke="blue" stroke-width="2" d="M192,-84C192,-78 198,-72 204,-72"/>
<polyline fill="none" stroke="blue" stroke-width="2" points="204,-72 294,-72 "/>
<path fill="none" stroke="blue" stroke-width="2" d="M294,-72C300,-72 306,-78 306,-84"/>
<polyline fill="none" stroke="blue" stroke-width="2" points="306,-84 306,-96 "/>
<path fill="none" stroke="blue" stroke-width="2" d="M306,-96C306,-102 300,-108 294,-108"/>
<text text-anchor="start" x="200" y="-87.2333" font-family="Times Roman,serif" font-size="14.00">Combinatorics</text>
</a>
</g>
<!-- ADSORPTION -->
<g id="node2" class="node"><title>ADSORPTION</title>
<a xlink:href="ADSORPTION.html" xlink:title="Statistical mechanics of adsorption" target="_top">
<polyline fill="none" stroke="black" points="244,-36 12,-36 "/>
<path fill="none" stroke="black" d="M12,-36C6,-36 1.06581e-13,-30 8.52651e-14,-24"/>
<polyline fill="none" stroke="black" points="8.52651e-14,-24 4.26326e-14,-12 "/>
<path fill="none" stroke="black" d="M4.26326e-14,-12C2.13163e-14,-6 6,-1.74305e-14 12,-1.70974e-14"/>
<polyline fill="none" stroke="black" points="12,-1.70974e-14 244,-4.21885e-15 "/>
<path fill="none" stroke="black" d="M244,-4.21885e-15C250,-3.88578e-15 256,-6 256,-12"/>
<polyline fill="none" stroke="black" points="256,-12 256,-24 "/>
<path fill="none" stroke="black" d="M256,-24C256,-30 250,-36 244,-36"/>
<text text-anchor="start" x="8.5" y="-15.2333" font-family="Times Roman,serif" font-size="14.00">Statistical mechanics of adsorption</text>
</a>
</g>
<!-- BASIC_COMBINATORICS&#45;&gt;ADSORPTION -->
<g id="edge2" class="edge"><title>BASIC_COMBINATORICS&#45;&gt;ADSORPTION</title>
<path fill="none" stroke="black" d="M218.467,-71.8314C202.99,-62.6221 184.013,-51.3301 167.444,-41.4706"/>
<polygon fill="black" stroke="black" points="168.907,-38.2687 158.524,-36.1628 165.328,-44.2843 168.907,-38.2687"/>
</g>
<!-- BINOMIAL_RANDOM_VARIABLE -->
<g id="node4" class="node"><title>BINOMIAL_RANDOM_VARIABLE</title>
<a xlink:href="BINOMIAL_RANDOM_VARIABLE.html" xlink:title="Binomial random variable" target="_top">
<polyline fill="none" stroke="black" points="454,-36 286,-36 "/>
<path fill="none" stroke="black" d="M286,-36C280,-36 274,-30 274,-24"/>
<polyline fill="none" stroke="black" points="274,-24 274,-12 "/>
<path fill="none" stroke="black" d="M274,-12C274,-6 280,-1.73195e-14 286,-1.68754e-14"/>
<polyline fill="none" stroke="black" points="286,-1.68754e-14 454,-4.44089e-15 "/>
<path fill="none" stroke="black" d="M454,-4.44089e-15C460,-3.9968e-15 466,-6 466,-12"/>
<polyline fill="none" stroke="black" points="466,-12 466,-24 "/>
<path fill="none" stroke="black" d="M466,-24C466,-30 460,-36 454,-36"/>
<text text-anchor="start" x="282" y="-15.2333" font-family="Times Roman,serif" font-size="14.00">Binomial random variable</text>
</a>
</g>
<!-- BASIC_COMBINATORICS&#45;&gt;BINOMIAL_RANDOM_VARIABLE -->
<g id="edge4" class="edge"><title>BASIC_COMBINATORICS&#45;&gt;BINOMIAL_RANDOM_VARIABLE</title>
<path fill="none" stroke="black" d="M279.533,-71.8314C295.01,-62.6221 313.987,-51.3301 330.556,-41.4706"/>
<polygon fill="black" stroke="black" points="332.672,-44.2843 339.476,-36.1628 329.093,-38.2687 332.672,-44.2843"/>
</g>
</g>
</svg>
