<?xml version="1.0" encoding="UTF-8" standalone="no"?>
<!DOCTYPE svg PUBLIC "-//W3C//DTD SVG 1.1//EN"
 "http://www.w3.org/Graphics/SVG/1.1/DTD/svg11.dtd">
<!-- Generated by graphviz version 2.26.3 (20100126.1600)
 -->
<!-- Title: _anonymous_0 Pages: 1 -->
<svg width="200pt" height="116pt"
 viewBox="0.00 0.00 200.00 116.00" xmlns="http://www.w3.org/2000/svg" xmlns:xlink="http://www.w3.org/1999/xlink">
<g id="graph1" class="graph" transform="scale(1 1) rotate(0) translate(4 112)">
<title>_anonymous_0</title>
<!-- BASIC_COMBINATORICS -->
<g id="node1" class="node"><title>BASIC_COMBINATORICS</title>
<a xlink:href="BASIC_COMBINATORICS.html" xlink:title="Combinatorics" target="_top">
<polyline fill="none" stroke="blue" stroke-width="2" points="141,-108 51,-108 "/>
<path fill="none" stroke="blue" stroke-width="2" d="M51,-108C45,-108 39,-102 39,-96"/>
<polyline fill="none" stroke="blue" stroke-width="2" points="39,-96 39,-84 "/>
<path fill="none" stroke="blue" stroke-width="2" d="M39,-84C39,-78 45,-72 51,-72"/>
<polyline fill="none" stroke="blue" stroke-width="2" points="51,-72 141,-72 "/>
<path fill="none" stroke="blue" stroke-width="2" d="M141,-72C147,-72 153,-78 153,-84"/>
<polyline fill="none" stroke="blue" stroke-width="2" points="153,-84 153,-96 "/>
<path fill="none" stroke="blue" stroke-width="2" d="M153,-96C153,-102 147,-108 141,-108"/>
<text text-anchor="start" x="47" y="-87.2333" font-family="Times Roman,serif" font-size="14.00">Combinatorics</text>
</a>
</g>
<!-- BINOMIAL_RANDOM_VARIABLE -->
<g id="node2" class="node"><title>BINOMIAL_RANDOM_VARIABLE</title>
<a xlink:href="BINOMIAL_RANDOM_VARIABLE.html" xlink:title="Binomial random variable" target="_top">
<polyline fill="none" stroke="black" points="180,-36 12,-36 "/>
<path fill="none" stroke="black" d="M12,-36C6,-36 5.92119e-14,-30 4.73695e-14,-24"/>
<polyline fill="none" stroke="black" points="4.73695e-14,-24 2.36848e-14,-12 "/>
<path fill="none" stroke="black" d="M2.36848e-14,-12C1.18424e-14,-6 6,-1.73195e-14 12,-1.68754e-14"/>
<polyline fill="none" stroke="black" points="12,-1.68754e-14 180,-4.44089e-15 "/>
<path fill="none" stroke="black" d="M180,-4.44089e-15C186,-3.9968e-15 192,-6 192,-12"/>
<polyline fill="none" stroke="black" points="192,-12 192,-24 "/>
<path fill="none" stroke="black" d="M192,-24C192,-30 186,-36 180,-36"/>
<text text-anchor="start" x="8" y="-15.2333" font-family="Times Roman,serif" font-size="14.00">Binomial random variable</text>
</a>
</g>
<!-- BASIC_COMBINATORICS&#45;&gt;BINOMIAL_RANDOM_VARIABLE -->
<g id="edge2" class="edge"><title>BASIC_COMBINATORICS&#45;&gt;BINOMIAL_RANDOM_VARIABLE</title>
<path fill="none" stroke="black" d="M96,-71.8314C96,-64.131 96,-54.9743 96,-46.4166"/>
<polygon fill="black" stroke="black" points="99.5001,-46.4132 96,-36.4133 92.5001,-46.4133 99.5001,-46.4132"/>
</g>
</g>
</svg>
