<?xml version="1.0" encoding="UTF-8" standalone="no"?>
<!DOCTYPE svg PUBLIC "-//W3C//DTD SVG 1.1//EN"
 "http://www.w3.org/Graphics/SVG/1.1/DTD/svg11.dtd">
<!-- Generated by graphviz version 2.26.3 (20100126.1600)
 -->
<!-- Title: _anonymous_0 Pages: 1 -->
<svg width="180pt" height="116pt"
 viewBox="0.00 0.00 180.00 116.00" xmlns="http://www.w3.org/2000/svg" xmlns:xlink="http://www.w3.org/1999/xlink">
<g id="graph1" class="graph" transform="scale(1 1) rotate(0) translate(4 112)">
<title>_anonymous_0</title>
<!-- BAYES_THEOREM -->
<g id="node1" class="node"><title>BAYES_THEOREM</title>
<a xlink:href="BAYES_THEOREM.html" xlink:title="Bayes theorem" target="_top">
<polyline fill="none" stroke="blue" stroke-width="2" points="135,-36 37,-36 "/>
<path fill="none" stroke="blue" stroke-width="2" d="M37,-36C31,-36 25,-30 25,-24"/>
<polyline fill="none" stroke="blue" stroke-width="2" points="25,-24 25,-12 "/>
<path fill="none" stroke="blue" stroke-width="2" d="M25,-12C25,-6 31,-1.70647e-14 37,-1.63658e-14"/>
<polyline fill="none" stroke="blue" stroke-width="2" points="37,-1.63658e-14 135,-4.9505e-15 "/>
<path fill="none" stroke="blue" stroke-width="2" d="M135,-4.9505e-15C141,-4.25161e-15 147,-6 147,-12"/>
<polyline fill="none" stroke="blue" stroke-width="2" points="147,-12 147,-24 "/>
<path fill="none" stroke="blue" stroke-width="2" d="M147,-24C147,-30 141,-36 135,-36"/>
<text text-anchor="start" x="33.5" y="-15.2333" font-family="Times Roman,serif" font-size="14.00">Bayes theorem</text>
</a>
</g>
<!-- CONDITIONAL_PROBABILITY -->
<g id="node2" class="node"><title>CONDITIONAL_PROBABILITY</title>
<a xlink:href="CONDITIONAL_PROBABILITY.html" xlink:title="Conditional probability" target="_top">
<polyline fill="none" stroke="black" points="160,-108 12,-108 "/>
<path fill="none" stroke="black" d="M12,-108C6,-108 7.10543e-14,-102 5.68434e-14,-96"/>
<polyline fill="none" stroke="black" points="5.68434e-14,-96 2.84217e-14,-84 "/>
<path fill="none" stroke="black" d="M2.84217e-14,-84C1.42109e-14,-78 6,-72 12,-72"/>
<polyline fill="none" stroke="black" points="12,-72 160,-72 "/>
<path fill="none" stroke="black" d="M160,-72C166,-72 172,-78 172,-84"/>
<polyline fill="none" stroke="black" points="172,-84 172,-96 "/>
<path fill="none" stroke="black" d="M172,-96C172,-102 166,-108 160,-108"/>
<text text-anchor="start" x="8" y="-87.2333" font-family="Times Roman,serif" font-size="14.00">Conditional probability</text>
</a>
</g>
<!-- CONDITIONAL_PROBABILITY&#45;&gt;BAYES_THEOREM -->
<g id="edge2" class="edge"><title>CONDITIONAL_PROBABILITY&#45;&gt;BAYES_THEOREM</title>
<path fill="none" stroke="black" d="M86,-71.8314C86,-64.131 86,-54.9743 86,-46.4166"/>
<polygon fill="black" stroke="black" points="89.5001,-46.4132 86,-36.4133 82.5001,-46.4133 89.5001,-46.4132"/>
</g>
</g>
</svg>
