<?xml version="1.0" encoding="UTF-8" standalone="no"?>
<!DOCTYPE svg PUBLIC "-//W3C//DTD SVG 1.1//EN"
 "http://www.w3.org/Graphics/SVG/1.1/DTD/svg11.dtd">
<!-- Generated by graphviz version 2.28.0 (20110509.1545)
 -->
<!-- Title: _anonymous_0 Pages: 1 -->
<svg width="156pt" height="116pt"
 viewBox="0.00 0.00 156.00 116.00" xmlns="http://www.w3.org/2000/svg" xmlns:xlink="http://www.w3.org/1999/xlink">
<g id="graph1" class="graph" transform="scale(1 1) rotate(0) translate(4 112)">
<title>_anonymous_0</title>
<!-- BAYES_THEOREM -->
<g id="node1" class="node"><title>BAYES_THEOREM</title>
<a xlink:href="BAYES_THEOREM.html" xlink:title="Bayes theorem" target="_top">
<polyline fill="none" stroke="blue" stroke-width="2" points="112,-36 36,-36 "/>
<path fill="none" stroke="blue" stroke-width="2" d="M36,-36C30,-36 24,-30 24,-24"/>
<polyline fill="none" stroke="blue" stroke-width="2" points="24,-24 24,-12 "/>
<path fill="none" stroke="blue" stroke-width="2" d="M24,-12C24,-6 30,-0 36,-0"/>
<polyline fill="none" stroke="blue" stroke-width="2" points="36,-0 112,-0 "/>
<path fill="none" stroke="blue" stroke-width="2" d="M112,-0C118,-0 124,-6 124,-12"/>
<polyline fill="none" stroke="blue" stroke-width="2" points="124,-12 124,-24 "/>
<path fill="none" stroke="blue" stroke-width="2" d="M124,-24C124,-30 118,-36 112,-36"/>
<text text-anchor="start" x="32.5" y="-12.5" font-family="Times,serif" font-size="14.00">Bayes theorem</text>
</a>
</g>
<!-- CONDITIONAL_PROBABILITY -->
<g id="node2" class="node"><title>CONDITIONAL_PROBABILITY</title>
<a xlink:href="CONDITIONAL_PROBABILITY.html" xlink:title="Conditional probability" target="_top">
<polyline fill="none" stroke="black" points="136,-108 12,-108 "/>
<path fill="none" stroke="black" d="M12,-108C6,-108 0,-102 0,-96"/>
<polyline fill="none" stroke="black" points="0,-96 0,-84 "/>
<path fill="none" stroke="black" d="M0,-84C0,-78 6,-72 12,-72"/>
<polyline fill="none" stroke="black" points="12,-72 136,-72 "/>
<path fill="none" stroke="black" d="M136,-72C142,-72 148,-78 148,-84"/>
<polyline fill="none" stroke="black" points="148,-84 148,-96 "/>
<path fill="none" stroke="black" d="M148,-96C148,-102 142,-108 136,-108"/>
<text text-anchor="start" x="8.5" y="-84.5" font-family="Times,serif" font-size="14.00">Conditional probability</text>
</a>
</g>
<!-- CONDITIONAL_PROBABILITY&#45;&gt;BAYES_THEOREM -->
<g id="edge2" class="edge"><title>CONDITIONAL_PROBABILITY&#45;&gt;BAYES_THEOREM</title>
<path fill="none" stroke="black" d="M74,-71.6966C74,-63.9827 74,-54.7125 74,-46.1124"/>
<polygon fill="black" stroke="black" points="77.5001,-46.1043 74,-36.1043 70.5001,-46.1044 77.5001,-46.1043"/>
</g>
</g>
</svg>
