<?xml version="1.0" encoding="UTF-8" standalone="no"?>
<!DOCTYPE svg PUBLIC "-//W3C//DTD SVG 1.1//EN"
 "http://www.w3.org/Graphics/SVG/1.1/DTD/svg11.dtd">
<!-- Generated by graphviz version 2.26.3 (20100126.1600)
 -->
<!-- Title: _anonymous_0 Pages: 1 -->
<svg width="190pt" height="116pt"
 viewBox="0.00 0.00 190.00 116.00" xmlns="http://www.w3.org/2000/svg" xmlns:xlink="http://www.w3.org/1999/xlink">
<g id="graph1" class="graph" transform="scale(1 1) rotate(0) translate(4 112)">
<title>_anonymous_0</title>
<!-- BAYES_THEOREM -->
<g id="node1" class="node"><title>BAYES_THEOREM</title>
<a xlink:href="BAYES_THEOREM.html" xlink:title=" Bayes theorem " target="_top">
<polyline fill="none" stroke="blue" stroke-width="2" points="144,-36 38,-36 "/>
<path fill="none" stroke="blue" stroke-width="2" d="M38,-36C32,-36 26,-30 26,-24"/>
<polyline fill="none" stroke="blue" stroke-width="2" points="26,-24 26,-12 "/>
<path fill="none" stroke="blue" stroke-width="2" d="M26,-12C26,-6 32,-1.71077e-14 38,-1.64518e-14"/>
<polyline fill="none" stroke="blue" stroke-width="2" points="38,-1.64518e-14 144,-4.86448e-15 "/>
<path fill="none" stroke="blue" stroke-width="2" d="M144,-4.86448e-15C150,-4.2086e-15 156,-6 156,-12"/>
<polyline fill="none" stroke="blue" stroke-width="2" points="156,-12 156,-24 "/>
<path fill="none" stroke="blue" stroke-width="2" d="M156,-24C156,-30 150,-36 144,-36"/>
<text text-anchor="start" x="34" y="-15.2333" font-family="Times Roman,serif" font-size="14.00"> Bayes theorem </text>
</a>
</g>
<!-- CONDITIONAL_PROBABILITY -->
<g id="node2" class="node"><title>CONDITIONAL_PROBABILITY</title>
<a xlink:href="CONDITIONAL_PROBABILITY.html" xlink:title=" Conditional probability " target="_top">
<polyline fill="none" stroke="black" points="170,-108 12,-108 "/>
<path fill="none" stroke="black" d="M12,-108C6,-108 5.92119e-14,-102 4.73695e-14,-96"/>
<polyline fill="none" stroke="black" points="4.73695e-14,-96 2.36848e-14,-84 "/>
<path fill="none" stroke="black" d="M2.36848e-14,-84C1.18424e-14,-78 6,-72 12,-72"/>
<polyline fill="none" stroke="black" points="12,-72 170,-72 "/>
<path fill="none" stroke="black" d="M170,-72C176,-72 182,-78 182,-84"/>
<polyline fill="none" stroke="black" points="182,-84 182,-96 "/>
<path fill="none" stroke="black" d="M182,-96C182,-102 176,-108 170,-108"/>
<text text-anchor="start" x="8.5" y="-87.2333" font-family="Times Roman,serif" font-size="14.00"> Conditional probability </text>
</a>
</g>
<!-- CONDITIONAL_PROBABILITY&#45;&gt;BAYES_THEOREM -->
<g id="edge2" class="edge"><title>CONDITIONAL_PROBABILITY&#45;&gt;BAYES_THEOREM</title>
<path fill="none" stroke="black" d="M91,-71.8314C91,-64.131 91,-54.9743 91,-46.4166"/>
<polygon fill="black" stroke="black" points="94.5001,-46.4132 91,-36.4133 87.5001,-46.4133 94.5001,-46.4132"/>
</g>
</g>
</svg>
