<?xml version="1.0" encoding="UTF-8" standalone="no"?>
<!DOCTYPE svg PUBLIC "-//W3C//DTD SVG 1.1//EN"
 "http://www.w3.org/Graphics/SVG/1.1/DTD/svg11.dtd">
<!-- Generated by graphviz version 2.36.0 (20140111.2315)
 -->
<!-- Title: %3 Pages: 1 -->
<svg width="158pt" height="116pt"
 viewBox="0.00 0.00 158.00 116.00" xmlns="http://www.w3.org/2000/svg" xmlns:xlink="http://www.w3.org/1999/xlink">
<g id="graph0" class="graph" transform="scale(1 1) rotate(0) translate(4 112)">
<title>%3</title>
<!-- BAYES_THEOREM -->
<g id="node1" class="node"><title>BAYES_THEOREM</title>
<g id="a_node1"><a xlink:href="BAYES_THEOREM.html" xlink:title=" Bayes theorem " target="_top">
<path fill="none" stroke="blue" stroke-width="2" d="M115.5,-36C115.5,-36 34.5,-36 34.5,-36 28.5,-36 22.5,-30 22.5,-24 22.5,-24 22.5,-12 22.5,-12 22.5,-6 28.5,-0 34.5,-0 34.5,-0 115.5,-0 115.5,-0 121.5,-0 127.5,-6 127.5,-12 127.5,-12 127.5,-24 127.5,-24 127.5,-30 121.5,-36 115.5,-36"/>
<text text-anchor="start" x="30" y="-14.3" font-family="Times,serif" font-size="14.00"> Bayes theorem </text>
</a>
</g>
</g>
<!-- CONDITIONAL_PROBABILITY -->
<g id="node2" class="node"><title>CONDITIONAL_PROBABILITY</title>
<g id="a_node2"><a xlink:href="CONDITIONAL_PROBABILITY.html" xlink:title=" Conditional probability " target="_top">
<path fill="none" stroke="black" d="M138.25,-108C138.25,-108 11.75,-108 11.75,-108 5.75,-108 -0.25,-102 -0.25,-96 -0.25,-96 -0.25,-84 -0.25,-84 -0.25,-78 5.75,-72 11.75,-72 11.75,-72 138.25,-72 138.25,-72 144.25,-72 150.25,-78 150.25,-84 150.25,-84 150.25,-96 150.25,-96 150.25,-102 144.25,-108 138.25,-108"/>
<text text-anchor="start" x="7.5" y="-86.3" font-family="Times,serif" font-size="14.00"> Conditional probability </text>
</a>
</g>
</g>
<!-- CONDITIONAL_PROBABILITY&#45;&gt;BAYES_THEOREM -->
<g id="edge1" class="edge"><title>CONDITIONAL_PROBABILITY&#45;&gt;BAYES_THEOREM</title>
<path fill="none" stroke="black" d="M75,-71.6966C75,-63.9827 75,-54.7125 75,-46.1124"/>
<polygon fill="black" stroke="black" points="78.5001,-46.1043 75,-36.1043 71.5001,-46.1044 78.5001,-46.1043"/>
</g>
</g>
</svg>
