<?xml version="1.0" encoding="UTF-8" standalone="no"?>
<!DOCTYPE svg PUBLIC "-//W3C//DTD SVG 1.1//EN"
 "http://www.w3.org/Graphics/SVG/1.1/DTD/svg11.dtd">
<!-- Generated by graphviz version 2.26.3 (20100126.1600)
 -->
<!-- Title: _anonymous_0 Pages: 1 -->
<svg width="450pt" height="260pt"
 viewBox="0.00 0.00 450.00 260.00" xmlns="http://www.w3.org/2000/svg" xmlns:xlink="http://www.w3.org/1999/xlink">
<g id="graph1" class="graph" transform="scale(1 1) rotate(0) translate(4 256)">
<title>_anonymous_0</title>
<!-- BERNOULI_RANDOM_VARIABLE -->
<g id="node1" class="node"><title>BERNOULI_RANDOM_VARIABLE</title>
<a xlink:href="BERNOULI_RANDOM_VARIABLE.html" xlink:title="Bernoulli random variable" target="_top">
<polyline fill="none" stroke="blue" stroke-width="2" points="316,-108 146,-108 "/>
<path fill="none" stroke="blue" stroke-width="2" d="M146,-108C140,-108 134,-102 134,-96"/>
<polyline fill="none" stroke="blue" stroke-width="2" points="134,-96 134,-84 "/>
<path fill="none" stroke="blue" stroke-width="2" d="M134,-84C134,-78 140,-72 146,-72"/>
<polyline fill="none" stroke="blue" stroke-width="2" points="146,-72 316,-72 "/>
<path fill="none" stroke="blue" stroke-width="2" d="M316,-72C322,-72 328,-78 328,-84"/>
<polyline fill="none" stroke="blue" stroke-width="2" points="328,-84 328,-96 "/>
<path fill="none" stroke="blue" stroke-width="2" d="M328,-96C328,-102 322,-108 316,-108"/>
<text text-anchor="start" x="142" y="-87.2333" font-family="Times Roman,serif" font-size="14.00">Bernoulli random variable</text>
</a>
</g>
<!-- GEOMETRIC_RANDOM_VARIABLE -->
<g id="node6" class="node"><title>GEOMETRIC_RANDOM_VARIABLE</title>
<a xlink:href="GEOMETRIC_RANDOM_VARIABLE.html" xlink:title="The geometric random variable" target="_top">
<polyline fill="none" stroke="black" points="220,-36 12,-36 "/>
<path fill="none" stroke="black" d="M12,-36C6,-36 8.28967e-14,-30 6.63173e-14,-24"/>
<polyline fill="none" stroke="black" points="6.63173e-14,-24 3.31587e-14,-12 "/>
<path fill="none" stroke="black" d="M3.31587e-14,-12C1.65793e-14,-6 6,-1.7396e-14 12,-1.70285e-14"/>
<polyline fill="none" stroke="black" points="12,-1.70285e-14 220,-4.28776e-15 "/>
<path fill="none" stroke="black" d="M220,-4.28776e-15C226,-3.92024e-15 232,-6 232,-12"/>
<polyline fill="none" stroke="black" points="232,-12 232,-24 "/>
<path fill="none" stroke="black" d="M232,-24C232,-30 226,-36 220,-36"/>
<text text-anchor="start" x="8" y="-15.2333" font-family="Times Roman,serif" font-size="14.00">The geometric random variable</text>
</a>
</g>
<!-- BERNOULI_RANDOM_VARIABLE&#45;&gt;GEOMETRIC_RANDOM_VARIABLE -->
<g id="edge6" class="edge"><title>BERNOULI_RANDOM_VARIABLE&#45;&gt;GEOMETRIC_RANDOM_VARIABLE</title>
<path fill="none" stroke="black" d="M201.981,-71.8314C187.271,-62.6221 169.236,-51.3301 153.488,-41.4706"/>
<polygon fill="black" stroke="black" points="155.343,-38.5029 145.01,-36.1628 151.629,-44.436 155.343,-38.5029"/>
</g>
<!-- BINOMIAL_RANDOM_VARIABLE -->
<g id="node11" class="node"><title>BINOMIAL_RANDOM_VARIABLE</title>
<a xlink:href="BINOMIAL_RANDOM_VARIABLE.html" xlink:title="Binomial random variable" target="_top">
<polyline fill="none" stroke="black" points="430,-36 262,-36 "/>
<path fill="none" stroke="black" d="M262,-36C256,-36 250,-30 250,-24"/>
<polyline fill="none" stroke="black" points="250,-24 250,-12 "/>
<path fill="none" stroke="black" d="M250,-12C250,-6 256,-1.73195e-14 262,-1.68754e-14"/>
<polyline fill="none" stroke="black" points="262,-1.68754e-14 430,-4.44089e-15 "/>
<path fill="none" stroke="black" d="M430,-4.44089e-15C436,-3.9968e-15 442,-6 442,-12"/>
<polyline fill="none" stroke="black" points="442,-12 442,-24 "/>
<path fill="none" stroke="black" d="M442,-24C442,-30 436,-36 430,-36"/>
<text text-anchor="start" x="258" y="-15.2333" font-family="Times Roman,serif" font-size="14.00">Binomial random variable</text>
</a>
</g>
<!-- BERNOULI_RANDOM_VARIABLE&#45;&gt;BINOMIAL_RANDOM_VARIABLE -->
<g id="edge12" class="edge"><title>BERNOULI_RANDOM_VARIABLE&#45;&gt;BINOMIAL_RANDOM_VARIABLE</title>
<path fill="none" stroke="black" d="M260.019,-71.8314C274.729,-62.6221 292.764,-51.3301 308.512,-41.4706"/>
<polygon fill="black" stroke="black" points="310.371,-44.436 316.99,-36.1628 306.657,-38.5029 310.371,-44.436"/>
</g>
<!-- RANDOM_VARIABLES -->
<g id="node2" class="node"><title>RANDOM_VARIABLES</title>
<a xlink:href="RANDOM_VARIABLES.html" xlink:title="Random variables" target="_top">
<polyline fill="none" stroke="black" points="139,-252 23,-252 "/>
<path fill="none" stroke="black" d="M23,-252C17,-252 11,-246 11,-240"/>
<polyline fill="none" stroke="black" points="11,-240 11,-228 "/>
<path fill="none" stroke="black" d="M11,-228C11,-222 17,-216 23,-216"/>
<polyline fill="none" stroke="black" points="23,-216 139,-216 "/>
<path fill="none" stroke="black" d="M139,-216C145,-216 151,-222 151,-228"/>
<polyline fill="none" stroke="black" points="151,-228 151,-240 "/>
<path fill="none" stroke="black" d="M151,-240C151,-246 145,-252 139,-252"/>
<text text-anchor="start" x="19.5" y="-231.233" font-family="Times Roman,serif" font-size="14.00">Random variables</text>
</a>
</g>
<!-- RANDOM_VARIABLES&#45;&gt;BERNOULI_RANDOM_VARIABLE -->
<g id="edge2" class="edge"><title>RANDOM_VARIABLES&#45;&gt;BERNOULI_RANDOM_VARIABLE</title>
<path fill="none" stroke="black" d="M55.7561,-215.752C33.0331,-197.086 5.7948,-167.564 24,-144 37.0884,-127.059 80.3656,-114.425 123.988,-105.655"/>
<polygon fill="black" stroke="black" points="124.731,-109.076 133.879,-103.731 123.395,-102.205 124.731,-109.076"/>
</g>
<!-- MOMENT_GENERATING_FUNCTION -->
<g id="node8" class="node"><title>MOMENT_GENERATING_FUNCTION</title>
<a xlink:href="MOMENT_GENERATING_FUNCTION.html" xlink:title="The moment generating function" target="_top">
<polyline fill="none" stroke="black" points="267,-180 45,-180 "/>
<path fill="none" stroke="black" d="M45,-180C39,-180 33,-174 33,-168"/>
<polyline fill="none" stroke="black" points="33,-168 33,-156 "/>
<path fill="none" stroke="black" d="M33,-156C33,-150 39,-144 45,-144"/>
<polyline fill="none" stroke="black" points="45,-144 267,-144 "/>
<path fill="none" stroke="black" d="M267,-144C273,-144 279,-150 279,-156"/>
<polyline fill="none" stroke="black" points="279,-156 279,-168 "/>
<path fill="none" stroke="black" d="M279,-168C279,-174 273,-180 267,-180"/>
<text text-anchor="start" x="41.5" y="-159.233" font-family="Times Roman,serif" font-size="14.00">The moment generating function</text>
</a>
</g>
<!-- RANDOM_VARIABLES&#45;&gt;MOMENT_GENERATING_FUNCTION -->
<!-- EXPECTATION -->
<g id="node4" class="node"><title>EXPECTATION</title>
<a xlink:href="EXPECTATION.html" xlink:title="Expectation " target="_top">
<polyline fill="none" stroke="black" points="347,-252 267,-252 "/>
<path fill="none" stroke="black" d="M267,-252C261,-252 255,-246 255,-240"/>
<polyline fill="none" stroke="black" points="255,-240 255,-228 "/>
<path fill="none" stroke="black" d="M255,-228C255,-222 261,-216 267,-216"/>
<polyline fill="none" stroke="black" points="267,-216 347,-216 "/>
<path fill="none" stroke="black" d="M347,-216C353,-216 359,-222 359,-228"/>
<polyline fill="none" stroke="black" points="359,-228 359,-240 "/>
<path fill="none" stroke="black" d="M359,-240C359,-246 353,-252 347,-252"/>
<text text-anchor="start" x="263.5" y="-231.233" font-family="Times Roman,serif" font-size="14.00">Expectation </text>
</a>
</g>
<!-- EXPECTATION&#45;&gt;BERNOULI_RANDOM_VARIABLE -->
<g id="edge4" class="edge"><title>EXPECTATION&#45;&gt;BERNOULI_RANDOM_VARIABLE</title>
<path fill="none" stroke="black" d="M306.333,-215.99C304.939,-196.991 300.713,-166.715 288,-144 281.915,-133.127 272.908,-123.134 263.842,-114.779"/>
<polygon fill="black" stroke="black" points="266.108,-112.111 256.276,-108.163 261.5,-117.38 266.108,-112.111"/>
</g>
<!-- MOMENT_GENERATING_FUNCTION&#45;&gt;BERNOULI_RANDOM_VARIABLE -->
<g id="edge8" class="edge"><title>MOMENT_GENERATING_FUNCTION&#45;&gt;BERNOULI_RANDOM_VARIABLE</title>
<path fill="none" stroke="black" d="M174.926,-143.831C183.986,-135.134 194.981,-124.578 204.827,-115.127"/>
<polygon fill="black" stroke="black" points="207.29,-117.613 212.08,-108.163 202.443,-112.563 207.29,-117.613"/>
</g>
<!-- VARIANCE -->
<g id="node13" class="node"><title>VARIANCE</title>
<a xlink:href="VARIANCE.html" xlink:title="Variance " target="_top">
<polyline fill="none" stroke="black" points="403,-180 347,-180 "/>
<path fill="none" stroke="black" d="M347,-180C341,-180 335,-174 335,-168"/>
<polyline fill="none" stroke="black" points="335,-168 335,-156 "/>
<path fill="none" stroke="black" d="M335,-156C335,-150 341,-144 347,-144"/>
<polyline fill="none" stroke="black" points="347,-144 403,-144 "/>
<path fill="none" stroke="black" d="M403,-144C409,-144 415,-150 415,-156"/>
<polyline fill="none" stroke="black" points="415,-156 415,-168 "/>
<path fill="none" stroke="black" d="M415,-168C415,-174 409,-180 403,-180"/>
<text text-anchor="start" x="343" y="-159.233" font-family="Times Roman,serif" font-size="14.00">Variance </text>
</a>
</g>
<!-- VARIANCE&#45;&gt;BERNOULI_RANDOM_VARIABLE -->
<g id="edge14" class="edge"><title>VARIANCE&#45;&gt;BERNOULI_RANDOM_VARIABLE</title>
<path fill="none" stroke="black" d="M338.663,-143.831C319.66,-134.33 296.224,-122.612 276.075,-112.537"/>
<polygon fill="black" stroke="black" points="277.586,-109.38 267.076,-108.038 274.455,-115.641 277.586,-109.38"/>
</g>
</g>
</svg>
