<?xml version="1.0" encoding="UTF-8" standalone="no"?>
<!DOCTYPE svg PUBLIC "-//W3C//DTD SVG 1.1//EN"
 "http://www.w3.org/Graphics/SVG/1.1/DTD/svg11.dtd">
<!-- Generated by graphviz version 2.26.3 (20100126.1600)
 -->
<!-- Title: _anonymous_0 Pages: 1 -->
<svg width="528pt" height="260pt"
 viewBox="0.00 0.00 528.00 260.00" xmlns="http://www.w3.org/2000/svg" xmlns:xlink="http://www.w3.org/1999/xlink">
<g id="graph1" class="graph" transform="scale(1 1) rotate(0) translate(4 256)">
<title>_anonymous_0</title>
<!-- BERNOULI_RANDOM_VARIABLE -->
<g id="node1" class="node"><title>BERNOULI_RANDOM_VARIABLE</title>
<a xlink:href="BERNOULI_RANDOM_VARIABLE.html" xlink:title="Bernoulli random variable" target="_top">
<polyline fill="none" stroke="blue" stroke-width="2" points="296,-108 126,-108 "/>
<path fill="none" stroke="blue" stroke-width="2" d="M126,-108C120,-108 114,-102 114,-96"/>
<polyline fill="none" stroke="blue" stroke-width="2" points="114,-96 114,-84 "/>
<path fill="none" stroke="blue" stroke-width="2" d="M114,-84C114,-78 120,-72 126,-72"/>
<polyline fill="none" stroke="blue" stroke-width="2" points="126,-72 296,-72 "/>
<path fill="none" stroke="blue" stroke-width="2" d="M296,-72C302,-72 308,-78 308,-84"/>
<polyline fill="none" stroke="blue" stroke-width="2" points="308,-84 308,-96 "/>
<path fill="none" stroke="blue" stroke-width="2" d="M308,-96C308,-102 302,-108 296,-108"/>
<text text-anchor="start" x="122" y="-87.2333" font-family="Times Roman,serif" font-size="14.00">Bernoulli random variable</text>
</a>
</g>
<!-- BINOMIAL_RANDOM_VARIABLE -->
<g id="node4" class="node"><title>BINOMIAL_RANDOM_VARIABLE</title>
<a xlink:href="BINOMIAL_RANDOM_VARIABLE.html" xlink:title="Binomial random variable" target="_top">
<polyline fill="none" stroke="black" points="180,-36 12,-36 "/>
<path fill="none" stroke="black" d="M12,-36C6,-36 5.92119e-14,-30 4.73695e-14,-24"/>
<polyline fill="none" stroke="black" points="4.73695e-14,-24 2.36848e-14,-12 "/>
<path fill="none" stroke="black" d="M2.36848e-14,-12C1.18424e-14,-6 6,-1.73195e-14 12,-1.68754e-14"/>
<polyline fill="none" stroke="black" points="12,-1.68754e-14 180,-4.44089e-15 "/>
<path fill="none" stroke="black" d="M180,-4.44089e-15C186,-3.9968e-15 192,-6 192,-12"/>
<polyline fill="none" stroke="black" points="192,-12 192,-24 "/>
<path fill="none" stroke="black" d="M192,-24C192,-30 186,-36 180,-36"/>
<text text-anchor="start" x="8" y="-15.2333" font-family="Times Roman,serif" font-size="14.00">Binomial random variable</text>
</a>
</g>
<!-- BERNOULI_RANDOM_VARIABLE&#45;&gt;BINOMIAL_RANDOM_VARIABLE -->
<g id="edge4" class="edge"><title>BERNOULI_RANDOM_VARIABLE&#45;&gt;BINOMIAL_RANDOM_VARIABLE</title>
<path fill="none" stroke="black" d="M181.981,-71.8314C167.271,-62.6221 149.236,-51.3301 133.488,-41.4706"/>
<polygon fill="black" stroke="black" points="135.343,-38.5029 125.01,-36.1628 131.629,-44.436 135.343,-38.5029"/>
</g>
<!-- GEOMETRIC_RANDOM_VARIABLE -->
<g id="node8" class="node"><title>GEOMETRIC_RANDOM_VARIABLE</title>
<a xlink:href="GEOMETRIC_RANDOM_VARIABLE.html" xlink:title="The geometric random variable" target="_top">
<polyline fill="none" stroke="black" points="430,-36 222,-36 "/>
<path fill="none" stroke="black" d="M222,-36C216,-36 210,-30 210,-24"/>
<polyline fill="none" stroke="black" points="210,-24 210,-12 "/>
<path fill="none" stroke="black" d="M210,-12C210,-6 216,-1.7396e-14 222,-1.70285e-14"/>
<polyline fill="none" stroke="black" points="222,-1.70285e-14 430,-4.28776e-15 "/>
<path fill="none" stroke="black" d="M430,-4.28776e-15C436,-3.92024e-15 442,-6 442,-12"/>
<polyline fill="none" stroke="black" points="442,-12 442,-24 "/>
<path fill="none" stroke="black" d="M442,-24C442,-30 436,-36 430,-36"/>
<text text-anchor="start" x="218" y="-15.2333" font-family="Times Roman,serif" font-size="14.00">The geometric random variable</text>
</a>
</g>
<!-- BERNOULI_RANDOM_VARIABLE&#45;&gt;GEOMETRIC_RANDOM_VARIABLE -->
<g id="edge8" class="edge"><title>BERNOULI_RANDOM_VARIABLE&#45;&gt;GEOMETRIC_RANDOM_VARIABLE</title>
<path fill="none" stroke="black" d="M240.019,-71.8314C254.729,-62.6221 272.764,-51.3301 288.512,-41.4706"/>
<polygon fill="black" stroke="black" points="290.371,-44.436 296.99,-36.1628 286.657,-38.5029 290.371,-44.436"/>
</g>
<!-- RANDOM_VARIABLES -->
<g id="node2" class="node"><title>RANDOM_VARIABLES</title>
<a xlink:href="RANDOM_VARIABLES.html" xlink:title="Random variables" target="_top">
<polyline fill="none" stroke="black" points="165,-252 49,-252 "/>
<path fill="none" stroke="black" d="M49,-252C43,-252 37,-246 37,-240"/>
<polyline fill="none" stroke="black" points="37,-240 37,-228 "/>
<path fill="none" stroke="black" d="M37,-228C37,-222 43,-216 49,-216"/>
<polyline fill="none" stroke="black" points="49,-216 165,-216 "/>
<path fill="none" stroke="black" d="M165,-216C171,-216 177,-222 177,-228"/>
<polyline fill="none" stroke="black" points="177,-228 177,-240 "/>
<path fill="none" stroke="black" d="M177,-240C177,-246 171,-252 165,-252"/>
<text text-anchor="start" x="45.5" y="-231.233" font-family="Times Roman,serif" font-size="14.00">Random variables</text>
</a>
</g>
<!-- RANDOM_VARIABLES&#45;&gt;BERNOULI_RANDOM_VARIABLE -->
<g id="edge2" class="edge"><title>RANDOM_VARIABLES&#45;&gt;BERNOULI_RANDOM_VARIABLE</title>
<path fill="none" stroke="black" d="M107.333,-215.831C108.522,-196.42 112.891,-165.543 128,-144 136.662,-131.649 149.137,-121.421 161.795,-113.311"/>
<polygon fill="black" stroke="black" points="163.787,-116.197 170.542,-108.035 160.171,-110.203 163.787,-116.197"/>
</g>
<!-- VARIANCE -->
<g id="node10" class="node"><title>VARIANCE</title>
<a xlink:href="VARIANCE.html" xlink:title="Variance " target="_top">
<polyline fill="none" stroke="black" points="205,-180 149,-180 "/>
<path fill="none" stroke="black" d="M149,-180C143,-180 137,-174 137,-168"/>
<polyline fill="none" stroke="black" points="137,-168 137,-156 "/>
<path fill="none" stroke="black" d="M137,-156C137,-150 143,-144 149,-144"/>
<polyline fill="none" stroke="black" points="149,-144 205,-144 "/>
<path fill="none" stroke="black" d="M205,-144C211,-144 217,-150 217,-156"/>
<polyline fill="none" stroke="black" points="217,-156 217,-168 "/>
<path fill="none" stroke="black" d="M217,-168C217,-174 211,-180 205,-180"/>
<text text-anchor="start" x="145" y="-159.233" font-family="Times Roman,serif" font-size="14.00">Variance </text>
</a>
</g>
<!-- RANDOM_VARIABLES&#45;&gt;VARIANCE -->
<!-- EXPECTATION -->
<g id="node6" class="node"><title>EXPECTATION</title>
<a xlink:href="EXPECTATION.html" xlink:title="Expectation " target="_top">
<polyline fill="none" stroke="black" points="287,-252 207,-252 "/>
<path fill="none" stroke="black" d="M207,-252C201,-252 195,-246 195,-240"/>
<polyline fill="none" stroke="black" points="195,-240 195,-228 "/>
<path fill="none" stroke="black" d="M195,-228C195,-222 201,-216 207,-216"/>
<polyline fill="none" stroke="black" points="207,-216 287,-216 "/>
<path fill="none" stroke="black" d="M287,-216C293,-216 299,-222 299,-228"/>
<polyline fill="none" stroke="black" points="299,-228 299,-240 "/>
<path fill="none" stroke="black" d="M299,-240C299,-246 293,-252 287,-252"/>
<text text-anchor="start" x="203.5" y="-231.233" font-family="Times Roman,serif" font-size="14.00">Expectation </text>
</a>
</g>
<!-- EXPECTATION&#45;&gt;BERNOULI_RANDOM_VARIABLE -->
<g id="edge6" class="edge"><title>EXPECTATION&#45;&gt;BERNOULI_RANDOM_VARIABLE</title>
<path fill="none" stroke="black" d="M242.959,-215.674C238.886,-197.449 232.314,-168.717 226,-144 223.843,-135.555 221.359,-126.409 219.041,-118.085"/>
<polygon fill="black" stroke="black" points="222.406,-117.122 216.328,-108.443 215.667,-119.018 222.406,-117.122"/>
</g>
<!-- VARIANCE&#45;&gt;BERNOULI_RANDOM_VARIABLE -->
<g id="edge10" class="edge"><title>VARIANCE&#45;&gt;BERNOULI_RANDOM_VARIABLE</title>
<path fill="none" stroke="black" d="M185.58,-143.831C189.336,-135.877 193.826,-126.369 197.98,-117.572"/>
<polygon fill="black" stroke="black" points="201.2,-118.95 202.305,-108.413 194.87,-115.961 201.2,-118.95"/>
</g>
<!-- MOMENT_GENERATING_FUNCTION -->
<g id="node13" class="node"><title>MOMENT_GENERATING_FUNCTION</title>
<a xlink:href="MOMENT_GENERATING_FUNCTION.html" xlink:title="The moment generating function" target="_top">
<polyline fill="none" stroke="black" points="508,-180 286,-180 "/>
<path fill="none" stroke="black" d="M286,-180C280,-180 274,-174 274,-168"/>
<polyline fill="none" stroke="black" points="274,-168 274,-156 "/>
<path fill="none" stroke="black" d="M274,-156C274,-150 280,-144 286,-144"/>
<polyline fill="none" stroke="black" points="286,-144 508,-144 "/>
<path fill="none" stroke="black" d="M508,-144C514,-144 520,-150 520,-156"/>
<polyline fill="none" stroke="black" points="520,-156 520,-168 "/>
<path fill="none" stroke="black" d="M520,-168C520,-174 514,-180 508,-180"/>
<text text-anchor="start" x="282.5" y="-159.233" font-family="Times Roman,serif" font-size="14.00">The moment generating function</text>
</a>
</g>
<!-- MOMENT_GENERATING_FUNCTION&#45;&gt;BERNOULI_RANDOM_VARIABLE -->
<g id="edge14" class="edge"><title>MOMENT_GENERATING_FUNCTION&#45;&gt;BERNOULI_RANDOM_VARIABLE</title>
<path fill="none" stroke="black" d="M350.064,-143.831C324.856,-134.073 293.607,-121.977 267.121,-111.724"/>
<polygon fill="black" stroke="black" points="268.187,-108.384 257.598,-108.038 265.66,-114.912 268.187,-108.384"/>
</g>
</g>
</svg>
