<?xml version="1.0" encoding="UTF-8" standalone="no"?>
<!DOCTYPE svg PUBLIC "-//W3C//DTD SVG 1.1//EN"
 "http://www.w3.org/Graphics/SVG/1.1/DTD/svg11.dtd">
<!-- Generated by graphviz version 2.36.0 (20140111.2315)
 -->
<!-- Title: %3 Pages: 1 -->
<svg width="475pt" height="260pt"
 viewBox="0.00 0.00 475.00 260.00" xmlns="http://www.w3.org/2000/svg" xmlns:xlink="http://www.w3.org/1999/xlink">
<g id="graph0" class="graph" transform="scale(1 1) rotate(0) translate(4 256)">
<title>%3</title>
<!-- BERNOULI_RANDOM_VARIABLE -->
<g id="node1" class="node"><title>BERNOULI_RANDOM_VARIABLE</title>
<g id="a_node1"><a xlink:href="BERNOULI_RANDOM_VARIABLE.html" xlink:title=" Bernoulli random variable " target="_top">
<path fill="none" stroke="blue" stroke-width="2" d="M269.5,-108C269.5,-108 126.5,-108 126.5,-108 120.5,-108 114.5,-102 114.5,-96 114.5,-96 114.5,-84 114.5,-84 114.5,-78 120.5,-72 126.5,-72 126.5,-72 269.5,-72 269.5,-72 275.5,-72 281.5,-78 281.5,-84 281.5,-84 281.5,-96 281.5,-96 281.5,-102 275.5,-108 269.5,-108"/>
<text text-anchor="start" x="122" y="-86.3" font-family="Times,serif" font-size="14.00"> Bernoulli random variable </text>
</a>
</g>
</g>
<!-- GEOMETRIC_RANDOM_VARIABLE -->
<g id="node2" class="node"><title>GEOMETRIC_RANDOM_VARIABLE</title>
<g id="a_node2"><a xlink:href="GEOMETRIC_RANDOM_VARIABLE.html" xlink:title=" The geometric random variable " target="_top">
<path fill="none" stroke="black" d="M184.25,-36C184.25,-36 11.75,-36 11.75,-36 5.75,-36 -0.25,-30 -0.25,-24 -0.25,-24 -0.25,-12 -0.25,-12 -0.25,-6 5.75,-0 11.75,-0 11.75,-0 184.25,-0 184.25,-0 190.25,-0 196.25,-6 196.25,-12 196.25,-12 196.25,-24 196.25,-24 196.25,-30 190.25,-36 184.25,-36"/>
<text text-anchor="start" x="7.5" y="-14.3" font-family="Times,serif" font-size="14.00"> The geometric random variable </text>
</a>
</g>
</g>
<!-- BERNOULI_RANDOM_VARIABLE&#45;&gt;GEOMETRIC_RANDOM_VARIABLE -->
<g id="edge1" class="edge"><title>BERNOULI_RANDOM_VARIABLE&#45;&gt;GEOMETRIC_RANDOM_VARIABLE</title>
<path fill="none" stroke="black" d="M173.537,-71.8761C160.704,-62.8931 144.804,-51.7625 130.906,-42.0341"/>
<polygon fill="black" stroke="black" points="132.756,-39.0571 122.557,-36.1898 128.742,-44.7917 132.756,-39.0571"/>
</g>
<!-- BINOMIAL_RANDOM_VARIABLE -->
<g id="node7" class="node"><title>BINOMIAL_RANDOM_VARIABLE</title>
<g id="a_node7"><a xlink:href="BINOMIAL_RANDOM_VARIABLE.html" xlink:title=" Binomial random variable " target="_top">
<path fill="none" stroke="black" d="M370.5,-36C370.5,-36 227.5,-36 227.5,-36 221.5,-36 215.5,-30 215.5,-24 215.5,-24 215.5,-12 215.5,-12 215.5,-6 221.5,-0 227.5,-0 227.5,-0 370.5,-0 370.5,-0 376.5,-0 382.5,-6 382.5,-12 382.5,-12 382.5,-24 382.5,-24 382.5,-30 376.5,-36 370.5,-36"/>
<text text-anchor="start" x="223" y="-14.3" font-family="Times,serif" font-size="14.00"> Binomial random variable </text>
</a>
</g>
</g>
<!-- BERNOULI_RANDOM_VARIABLE&#45;&gt;BINOMIAL_RANDOM_VARIABLE -->
<g id="edge7" class="edge"><title>BERNOULI_RANDOM_VARIABLE&#45;&gt;BINOMIAL_RANDOM_VARIABLE</title>
<path fill="none" stroke="black" d="M222.707,-71.8761C235.669,-62.8931 251.728,-51.7625 265.765,-42.0341"/>
<polygon fill="black" stroke="black" points="267.972,-44.7628 274.198,-36.1898 263.985,-39.0095 267.972,-44.7628"/>
</g>
<!-- VARIANCE -->
<g id="node3" class="node"><title>VARIANCE</title>
<g id="a_node3"><a xlink:href="VARIANCE.html" xlink:title=" Variance &#160;" target="_top">
<path fill="none" stroke="black" d="M128.25,-252C128.25,-252 75.75,-252 75.75,-252 69.75,-252 63.75,-246 63.75,-240 63.75,-240 63.75,-228 63.75,-228 63.75,-222 69.75,-216 75.75,-216 75.75,-216 128.25,-216 128.25,-216 134.25,-216 140.25,-222 140.25,-228 140.25,-228 140.25,-240 140.25,-240 140.25,-246 134.25,-252 128.25,-252"/>
<text text-anchor="start" x="71.5" y="-230.3" font-family="Times,serif" font-size="14.00"> Variance &#160;</text>
</a>
</g>
</g>
<!-- VARIANCE&#45;&gt;BERNOULI_RANDOM_VARIABLE -->
<g id="edge2" class="edge"><title>VARIANCE&#45;&gt;BERNOULI_RANDOM_VARIABLE</title>
<path fill="none" stroke="black" d="M98.1877,-215.868C94.9356,-196.845 92.6559,-165.935 106,-144 114.016,-130.823 126.62,-120.598 139.957,-112.803"/>
<polygon fill="black" stroke="black" points="141.657,-115.863 148.786,-108.025 138.325,-109.706 141.657,-115.863"/>
</g>
<!-- EXPECTATION -->
<g id="node5" class="node"><title>EXPECTATION</title>
<g id="a_node5"><a xlink:href="EXPECTATION.html" xlink:title=" Expectation &#160;" target="_top">
<path fill="none" stroke="black" d="M195,-180C195,-180 127,-180 127,-180 121,-180 115,-174 115,-168 115,-168 115,-156 115,-156 115,-150 121,-144 127,-144 127,-144 195,-144 195,-144 201,-144 207,-150 207,-156 207,-156 207,-168 207,-168 207,-174 201,-180 195,-180"/>
<text text-anchor="start" x="123" y="-158.3" font-family="Times,serif" font-size="14.00"> Expectation &#160;</text>
</a>
</g>
</g>
<!-- VARIANCE&#45;&gt;EXPECTATION -->
<!-- RANDOM_VARIABLES -->
<g id="node4" class="node"><title>RANDOM_VARIABLES</title>
<g id="a_node4"><a xlink:href="RANDOM_VARIABLES.html" xlink:title=" Random variables " target="_top">
<path fill="none" stroke="black" d="M284.25,-252C284.25,-252 185.75,-252 185.75,-252 179.75,-252 173.75,-246 173.75,-240 173.75,-240 173.75,-228 173.75,-228 173.75,-222 179.75,-216 185.75,-216 185.75,-216 284.25,-216 284.25,-216 290.25,-216 296.25,-222 296.25,-228 296.25,-228 296.25,-240 296.25,-240 296.25,-246 290.25,-252 284.25,-252"/>
<text text-anchor="start" x="181.5" y="-230.3" font-family="Times,serif" font-size="14.00"> Random variables </text>
</a>
</g>
</g>
<!-- RANDOM_VARIABLES&#45;&gt;BERNOULI_RANDOM_VARIABLE -->
<g id="edge3" class="edge"><title>RANDOM_VARIABLES&#45;&gt;BERNOULI_RANDOM_VARIABLE</title>
<path fill="none" stroke="black" d="M231.946,-215.794C228.602,-197.761 222.799,-168.676 216,-144 213.614,-135.342 210.605,-126.027 207.734,-117.659"/>
<polygon fill="black" stroke="black" points="210.967,-116.303 204.35,-108.028 204.363,-118.623 210.967,-116.303"/>
</g>
<!-- EXPECTATION&#45;&gt;BERNOULI_RANDOM_VARIABLE -->
<g id="edge4" class="edge"><title>EXPECTATION&#45;&gt;BERNOULI_RANDOM_VARIABLE</title>
<path fill="none" stroke="black" d="M170.146,-143.697C174.403,-135.644 179.556,-125.894 184.266,-116.982"/>
<polygon fill="black" stroke="black" points="187.38,-118.581 188.959,-108.104 181.192,-115.31 187.38,-118.581"/>
</g>
<!-- MOMENT_GENERATING_FUNCTION -->
<g id="node6" class="node"><title>MOMENT_GENERATING_FUNCTION</title>
<g id="a_node6"><a xlink:href="MOMENT_GENERATING_FUNCTION.html" xlink:title=" The moment generating function " target="_top">
<path fill="none" stroke="black" d="M454.5,-180C454.5,-180 275.5,-180 275.5,-180 269.5,-180 263.5,-174 263.5,-168 263.5,-168 263.5,-156 263.5,-156 263.5,-150 269.5,-144 275.5,-144 275.5,-144 454.5,-144 454.5,-144 460.5,-144 466.5,-150 466.5,-156 466.5,-156 466.5,-168 466.5,-168 466.5,-174 460.5,-180 454.5,-180"/>
<text text-anchor="start" x="271" y="-158.3" font-family="Times,serif" font-size="14.00"> The moment generating function </text>
</a>
</g>
</g>
<!-- MOMENT_GENERATING_FUNCTION&#45;&gt;BERNOULI_RANDOM_VARIABLE -->
<g id="edge6" class="edge"><title>MOMENT_GENERATING_FUNCTION&#45;&gt;BERNOULI_RANDOM_VARIABLE</title>
<path fill="none" stroke="black" d="M324.147,-143.876C301.216,-134.264 272.418,-122.193 248.13,-112.013"/>
<polygon fill="black" stroke="black" points="249.296,-108.706 238.72,-108.068 246.59,-115.162 249.296,-108.706"/>
</g>
</g>
</svg>
