<?xml version="1.0" encoding="UTF-8" standalone="no"?>
<!DOCTYPE svg PUBLIC "-//W3C//DTD SVG 1.1//EN"
 "http://www.w3.org/Graphics/SVG/1.1/DTD/svg11.dtd">
<!-- Generated by graphviz version 2.26.3 (20100126.1600)
 -->
<!-- Title: _anonymous_0 Pages: 1 -->
<svg width="542pt" height="260pt"
 viewBox="0.00 0.00 542.00 260.00" xmlns="http://www.w3.org/2000/svg" xmlns:xlink="http://www.w3.org/1999/xlink">
<g id="graph1" class="graph" transform="scale(1 1) rotate(0) translate(4 256)">
<title>_anonymous_0</title>
<!-- BERNOULI_RANDOM_VARIABLE -->
<g id="node1" class="node"><title>BERNOULI_RANDOM_VARIABLE</title>
<a xlink:href="BERNOULI_RANDOM_VARIABLE.html" xlink:title="Bernoulli random variable" target="_top">
<polyline fill="none" stroke="blue" stroke-width="2" points="296,-108 126,-108 "/>
<path fill="none" stroke="blue" stroke-width="2" d="M126,-108C120,-108 114,-102 114,-96"/>
<polyline fill="none" stroke="blue" stroke-width="2" points="114,-96 114,-84 "/>
<path fill="none" stroke="blue" stroke-width="2" d="M114,-84C114,-78 120,-72 126,-72"/>
<polyline fill="none" stroke="blue" stroke-width="2" points="126,-72 296,-72 "/>
<path fill="none" stroke="blue" stroke-width="2" d="M296,-72C302,-72 308,-78 308,-84"/>
<polyline fill="none" stroke="blue" stroke-width="2" points="308,-84 308,-96 "/>
<path fill="none" stroke="blue" stroke-width="2" d="M308,-96C308,-102 302,-108 296,-108"/>
<text text-anchor="start" x="122" y="-87.2333" font-family="Times Roman,serif" font-size="14.00">Bernoulli random variable</text>
</a>
</g>
<!-- BINOMIAL_RANDOM_VARIABLE -->
<g id="node2" class="node"><title>BINOMIAL_RANDOM_VARIABLE</title>
<a xlink:href="BINOMIAL_RANDOM_VARIABLE.html" xlink:title="Binomial random variable" target="_top">
<polyline fill="none" stroke="black" points="180,-36 12,-36 "/>
<path fill="none" stroke="black" d="M12,-36C6,-36 5.92119e-14,-30 4.73695e-14,-24"/>
<polyline fill="none" stroke="black" points="4.73695e-14,-24 2.36848e-14,-12 "/>
<path fill="none" stroke="black" d="M2.36848e-14,-12C1.18424e-14,-6 6,-1.73195e-14 12,-1.68754e-14"/>
<polyline fill="none" stroke="black" points="12,-1.68754e-14 180,-4.44089e-15 "/>
<path fill="none" stroke="black" d="M180,-4.44089e-15C186,-3.9968e-15 192,-6 192,-12"/>
<polyline fill="none" stroke="black" points="192,-12 192,-24 "/>
<path fill="none" stroke="black" d="M192,-24C192,-30 186,-36 180,-36"/>
<text text-anchor="start" x="8" y="-15.2333" font-family="Times Roman,serif" font-size="14.00">Binomial random variable</text>
</a>
</g>
<!-- BERNOULI_RANDOM_VARIABLE&#45;&gt;BINOMIAL_RANDOM_VARIABLE -->
<g id="edge2" class="edge"><title>BERNOULI_RANDOM_VARIABLE&#45;&gt;BINOMIAL_RANDOM_VARIABLE</title>
<path fill="none" stroke="black" d="M181.981,-71.8314C167.271,-62.6221 149.236,-51.3301 133.488,-41.4706"/>
<polygon fill="black" stroke="black" points="135.343,-38.5029 125.01,-36.1628 131.629,-44.436 135.343,-38.5029"/>
</g>
<!-- GEOMETRIC_RANDOM_VARIABLE -->
<g id="node13" class="node"><title>GEOMETRIC_RANDOM_VARIABLE</title>
<a xlink:href="GEOMETRIC_RANDOM_VARIABLE.html" xlink:title="The geometric random variable" target="_top">
<polyline fill="none" stroke="black" points="430,-36 222,-36 "/>
<path fill="none" stroke="black" d="M222,-36C216,-36 210,-30 210,-24"/>
<polyline fill="none" stroke="black" points="210,-24 210,-12 "/>
<path fill="none" stroke="black" d="M210,-12C210,-6 216,-1.7396e-14 222,-1.70285e-14"/>
<polyline fill="none" stroke="black" points="222,-1.70285e-14 430,-4.28776e-15 "/>
<path fill="none" stroke="black" d="M430,-4.28776e-15C436,-3.92024e-15 442,-6 442,-12"/>
<polyline fill="none" stroke="black" points="442,-12 442,-24 "/>
<path fill="none" stroke="black" d="M442,-24C442,-30 436,-36 430,-36"/>
<text text-anchor="start" x="218" y="-15.2333" font-family="Times Roman,serif" font-size="14.00">The geometric random variable</text>
</a>
</g>
<!-- BERNOULI_RANDOM_VARIABLE&#45;&gt;GEOMETRIC_RANDOM_VARIABLE -->
<g id="edge14" class="edge"><title>BERNOULI_RANDOM_VARIABLE&#45;&gt;GEOMETRIC_RANDOM_VARIABLE</title>
<path fill="none" stroke="black" d="M240.019,-71.8314C254.729,-62.6221 272.764,-51.3301 288.512,-41.4706"/>
<polygon fill="black" stroke="black" points="290.371,-44.436 296.99,-36.1628 286.657,-38.5029 290.371,-44.436"/>
</g>
<!-- VARIANCE -->
<g id="node4" class="node"><title>VARIANCE</title>
<a xlink:href="VARIANCE.html" xlink:title="Variance " target="_top">
<polyline fill="none" stroke="black" points="135,-252 79,-252 "/>
<path fill="none" stroke="black" d="M79,-252C73,-252 67,-246 67,-240"/>
<polyline fill="none" stroke="black" points="67,-240 67,-228 "/>
<path fill="none" stroke="black" d="M67,-228C67,-222 73,-216 79,-216"/>
<polyline fill="none" stroke="black" points="79,-216 135,-216 "/>
<path fill="none" stroke="black" d="M135,-216C141,-216 147,-222 147,-228"/>
<polyline fill="none" stroke="black" points="147,-228 147,-240 "/>
<path fill="none" stroke="black" d="M147,-240C147,-246 141,-252 135,-252"/>
<text text-anchor="start" x="75" y="-231.233" font-family="Times Roman,serif" font-size="14.00">Variance </text>
</a>
</g>
<!-- VARIANCE&#45;&gt;BERNOULI_RANDOM_VARIABLE -->
<g id="edge4" class="edge"><title>VARIANCE&#45;&gt;BERNOULI_RANDOM_VARIABLE</title>
<path fill="none" stroke="black" d="M94.0296,-215.693C82.142,-196.445 68.4274,-165.964 83,-144 92.0548,-130.352 105.312,-120.146 119.906,-112.514"/>
<polygon fill="black" stroke="black" points="121.635,-115.567 129.139,-108.088 118.609,-109.255 121.635,-115.567"/>
</g>
<!-- RANDOM_VARIABLES -->
<g id="node8" class="node"><title>RANDOM_VARIABLES</title>
<a xlink:href="RANDOM_VARIABLES.html" xlink:title="Random variables" target="_top">
<polyline fill="none" stroke="black" points="220,-180 104,-180 "/>
<path fill="none" stroke="black" d="M104,-180C98,-180 92,-174 92,-168"/>
<polyline fill="none" stroke="black" points="92,-168 92,-156 "/>
<path fill="none" stroke="black" d="M92,-156C92,-150 98,-144 104,-144"/>
<polyline fill="none" stroke="black" points="104,-144 220,-144 "/>
<path fill="none" stroke="black" d="M220,-144C226,-144 232,-150 232,-156"/>
<polyline fill="none" stroke="black" points="232,-156 232,-168 "/>
<path fill="none" stroke="black" d="M232,-168C232,-174 226,-180 220,-180"/>
<text text-anchor="start" x="100.5" y="-159.233" font-family="Times Roman,serif" font-size="14.00">Random variables</text>
</a>
</g>
<!-- VARIANCE&#45;&gt;RANDOM_VARIABLES -->
<!-- EXPECTATION -->
<g id="node6" class="node"><title>EXPECTATION</title>
<a xlink:href="EXPECTATION.html" xlink:title="Expectation " target="_top">
<polyline fill="none" stroke="black" points="300,-252 220,-252 "/>
<path fill="none" stroke="black" d="M220,-252C214,-252 208,-246 208,-240"/>
<polyline fill="none" stroke="black" points="208,-240 208,-228 "/>
<path fill="none" stroke="black" d="M208,-228C208,-222 214,-216 220,-216"/>
<polyline fill="none" stroke="black" points="220,-216 300,-216 "/>
<path fill="none" stroke="black" d="M300,-216C306,-216 312,-222 312,-228"/>
<polyline fill="none" stroke="black" points="312,-228 312,-240 "/>
<path fill="none" stroke="black" d="M312,-240C312,-246 306,-252 300,-252"/>
<text text-anchor="start" x="216.5" y="-231.233" font-family="Times Roman,serif" font-size="14.00">Expectation </text>
</a>
</g>
<!-- EXPECTATION&#45;&gt;BERNOULI_RANDOM_VARIABLE -->
<g id="edge6" class="edge"><title>EXPECTATION&#45;&gt;BERNOULI_RANDOM_VARIABLE</title>
<path fill="none" stroke="black" d="M257.81,-215.967C255.194,-197.472 249.999,-168.084 241,-144 237.582,-134.852 232.799,-125.379 228.056,-116.97"/>
<polygon fill="black" stroke="black" points="231.067,-115.186 222.99,-108.329 225.028,-118.726 231.067,-115.186"/>
</g>
<!-- RANDOM_VARIABLES&#45;&gt;BERNOULI_RANDOM_VARIABLE -->
<g id="edge8" class="edge"><title>RANDOM_VARIABLES&#45;&gt;BERNOULI_RANDOM_VARIABLE</title>
<path fill="none" stroke="black" d="M174.365,-143.831C179.951,-135.623 186.663,-125.761 192.807,-116.732"/>
<polygon fill="black" stroke="black" points="195.736,-118.65 198.469,-108.413 189.949,-114.711 195.736,-118.65"/>
</g>
<!-- MOMENT_GENERATING_FUNCTION -->
<g id="node11" class="node"><title>MOMENT_GENERATING_FUNCTION</title>
<a xlink:href="MOMENT_GENERATING_FUNCTION.html" xlink:title="The moment generating function" target="_top">
<polyline fill="none" stroke="black" points="522,-180 300,-180 "/>
<path fill="none" stroke="black" d="M300,-180C294,-180 288,-174 288,-168"/>
<polyline fill="none" stroke="black" points="288,-168 288,-156 "/>
<path fill="none" stroke="black" d="M288,-156C288,-150 294,-144 300,-144"/>
<polyline fill="none" stroke="black" points="300,-144 522,-144 "/>
<path fill="none" stroke="black" d="M522,-144C528,-144 534,-150 534,-156"/>
<polyline fill="none" stroke="black" points="534,-156 534,-168 "/>
<path fill="none" stroke="black" d="M534,-168C534,-174 528,-180 522,-180"/>
<text text-anchor="start" x="296.5" y="-159.233" font-family="Times Roman,serif" font-size="14.00">The moment generating function</text>
</a>
</g>
<!-- MOMENT_GENERATING_FUNCTION&#45;&gt;BERNOULI_RANDOM_VARIABLE -->
<g id="edge12" class="edge"><title>MOMENT_GENERATING_FUNCTION&#45;&gt;BERNOULI_RANDOM_VARIABLE</title>
<path fill="none" stroke="black" d="M360.79,-143.924C333.449,-134.081 299.441,-121.839 270.742,-111.507"/>
<polygon fill="black" stroke="black" points="271.825,-108.177 261.231,-108.083 269.454,-114.764 271.825,-108.177"/>
</g>
</g>
</svg>
