<?xml version="1.0" encoding="UTF-8" standalone="no"?>
<!DOCTYPE svg PUBLIC "-//W3C//DTD SVG 1.1//EN"
 "http://www.w3.org/Graphics/SVG/1.1/DTD/svg11.dtd">
<!-- Generated by graphviz version 2.36.0 (20140111.2315)
 -->
<!-- Title: %3 Pages: 1 -->
<svg width="483pt" height="260pt"
 viewBox="0.00 0.00 483.00 260.00" xmlns="http://www.w3.org/2000/svg" xmlns:xlink="http://www.w3.org/1999/xlink">
<g id="graph0" class="graph" transform="scale(1 1) rotate(0) translate(4 256)">
<title>%3</title>
<!-- BERNOULI_RANDOM_VARIABLE -->
<g id="node1" class="node"><title>BERNOULI_RANDOM_VARIABLE</title>
<g id="a_node1"><a xlink:href="BERNOULI_RANDOM_VARIABLE.html" xlink:title=" Bernoulli random variable " target="_top">
<path fill="none" stroke="blue" stroke-width="2" d="M269.5,-108C269.5,-108 126.5,-108 126.5,-108 120.5,-108 114.5,-102 114.5,-96 114.5,-96 114.5,-84 114.5,-84 114.5,-78 120.5,-72 126.5,-72 126.5,-72 269.5,-72 269.5,-72 275.5,-72 281.5,-78 281.5,-84 281.5,-84 281.5,-96 281.5,-96 281.5,-102 275.5,-108 269.5,-108"/>
<text text-anchor="start" x="122" y="-86.3" font-family="Times,serif" font-size="14.00"> Bernoulli random variable </text>
</a>
</g>
</g>
<!-- GEOMETRIC_RANDOM_VARIABLE -->
<g id="node4" class="node"><title>GEOMETRIC_RANDOM_VARIABLE</title>
<g id="a_node4"><a xlink:href="GEOMETRIC_RANDOM_VARIABLE.html" xlink:title=" The geometric random variable " target="_top">
<path fill="none" stroke="black" d="M184.25,-36C184.25,-36 11.75,-36 11.75,-36 5.75,-36 -0.25,-30 -0.25,-24 -0.25,-24 -0.25,-12 -0.25,-12 -0.25,-6 5.75,-0 11.75,-0 11.75,-0 184.25,-0 184.25,-0 190.25,-0 196.25,-6 196.25,-12 196.25,-12 196.25,-24 196.25,-24 196.25,-30 190.25,-36 184.25,-36"/>
<text text-anchor="start" x="7.5" y="-14.3" font-family="Times,serif" font-size="14.00"> The geometric random variable </text>
</a>
</g>
</g>
<!-- BERNOULI_RANDOM_VARIABLE&#45;&gt;GEOMETRIC_RANDOM_VARIABLE -->
<g id="edge3" class="edge"><title>BERNOULI_RANDOM_VARIABLE&#45;&gt;GEOMETRIC_RANDOM_VARIABLE</title>
<path fill="none" stroke="black" d="M173.537,-71.8761C160.704,-62.8931 144.804,-51.7625 130.906,-42.0341"/>
<polygon fill="black" stroke="black" points="132.756,-39.0571 122.557,-36.1898 128.742,-44.7917 132.756,-39.0571"/>
</g>
<!-- BINOMIAL_RANDOM_VARIABLE -->
<g id="node5" class="node"><title>BINOMIAL_RANDOM_VARIABLE</title>
<g id="a_node5"><a xlink:href="BINOMIAL_RANDOM_VARIABLE.html" xlink:title=" Binomial random variable " target="_top">
<path fill="none" stroke="black" d="M370.5,-36C370.5,-36 227.5,-36 227.5,-36 221.5,-36 215.5,-30 215.5,-24 215.5,-24 215.5,-12 215.5,-12 215.5,-6 221.5,-0 227.5,-0 227.5,-0 370.5,-0 370.5,-0 376.5,-0 382.5,-6 382.5,-12 382.5,-12 382.5,-24 382.5,-24 382.5,-30 376.5,-36 370.5,-36"/>
<text text-anchor="start" x="223" y="-14.3" font-family="Times,serif" font-size="14.00"> Binomial random variable </text>
</a>
</g>
</g>
<!-- BERNOULI_RANDOM_VARIABLE&#45;&gt;BINOMIAL_RANDOM_VARIABLE -->
<g id="edge4" class="edge"><title>BERNOULI_RANDOM_VARIABLE&#45;&gt;BINOMIAL_RANDOM_VARIABLE</title>
<path fill="none" stroke="black" d="M222.707,-71.8761C235.669,-62.8931 251.728,-51.7625 265.765,-42.0341"/>
<polygon fill="black" stroke="black" points="267.972,-44.7628 274.198,-36.1898 263.985,-39.0095 267.972,-44.7628"/>
</g>
<!-- EXPECTATION -->
<g id="node2" class="node"><title>EXPECTATION</title>
<g id="a_node2"><a xlink:href="EXPECTATION.html" xlink:title=" Expectation &#160;" target="_top">
<path fill="none" stroke="black" d="M136,-252C136,-252 68,-252 68,-252 62,-252 56,-246 56,-240 56,-240 56,-228 56,-228 56,-222 62,-216 68,-216 68,-216 136,-216 136,-216 142,-216 148,-222 148,-228 148,-228 148,-240 148,-240 148,-246 142,-252 136,-252"/>
<text text-anchor="start" x="64" y="-230.3" font-family="Times,serif" font-size="14.00"> Expectation &#160;</text>
</a>
</g>
</g>
<!-- EXPECTATION&#45;&gt;BERNOULI_RANDOM_VARIABLE -->
<g id="edge1" class="edge"><title>EXPECTATION&#45;&gt;BERNOULI_RANDOM_VARIABLE</title>
<path fill="none" stroke="black" d="M91.053,-215.935C80.4174,-196.973 67.7891,-166.117 82,-144 90.8215,-130.271 104.178,-120.054 118.728,-112.465"/>
<polygon fill="black" stroke="black" points="120.402,-115.544 127.912,-108.071 117.381,-109.23 120.402,-115.544"/>
</g>
<!-- RANDOM_VARIABLES -->
<g id="node6" class="node"><title>RANDOM_VARIABLES</title>
<g id="a_node6"><a xlink:href="RANDOM_VARIABLES.html" xlink:title=" Random variables " target="_top">
<path fill="none" stroke="black" d="M202.25,-180C202.25,-180 103.75,-180 103.75,-180 97.75,-180 91.75,-174 91.75,-168 91.75,-168 91.75,-156 91.75,-156 91.75,-150 97.75,-144 103.75,-144 103.75,-144 202.25,-144 202.25,-144 208.25,-144 214.25,-150 214.25,-156 214.25,-156 214.25,-168 214.25,-168 214.25,-174 208.25,-180 202.25,-180"/>
<text text-anchor="start" x="99.5" y="-158.3" font-family="Times,serif" font-size="14.00"> Random variables </text>
</a>
</g>
</g>
<!-- EXPECTATION&#45;&gt;RANDOM_VARIABLES -->
<!-- VARIANCE -->
<g id="node3" class="node"><title>VARIANCE</title>
<g id="a_node3"><a xlink:href="VARIANCE.html" xlink:title=" Variance &#160;" target="_top">
<path fill="none" stroke="black" d="M269.25,-252C269.25,-252 216.75,-252 216.75,-252 210.75,-252 204.75,-246 204.75,-240 204.75,-240 204.75,-228 204.75,-228 204.75,-222 210.75,-216 216.75,-216 216.75,-216 269.25,-216 269.25,-216 275.25,-216 281.25,-222 281.25,-228 281.25,-228 281.25,-240 281.25,-240 281.25,-246 275.25,-252 269.25,-252"/>
<text text-anchor="start" x="212.5" y="-230.3" font-family="Times,serif" font-size="14.00"> Variance &#160;</text>
</a>
</g>
</g>
<!-- VARIANCE&#45;&gt;BERNOULI_RANDOM_VARIABLE -->
<g id="edge2" class="edge"><title>VARIANCE&#45;&gt;BERNOULI_RANDOM_VARIABLE</title>
<path fill="none" stroke="black" d="M240.32,-215.963C237.202,-197.819 231.387,-168.413 223,-144 219.959,-135.148 215.875,-125.813 211.89,-117.486"/>
<polygon fill="black" stroke="black" points="214.899,-115.674 207.327,-108.263 208.625,-118.778 214.899,-115.674"/>
</g>
<!-- RANDOM_VARIABLES&#45;&gt;BERNOULI_RANDOM_VARIABLE -->
<g id="edge5" class="edge"><title>RANDOM_VARIABLES&#45;&gt;BERNOULI_RANDOM_VARIABLE</title>
<path fill="none" stroke="black" d="M164.124,-143.697C169.355,-135.559 175.7,-125.689 181.478,-116.701"/>
<polygon fill="black" stroke="black" points="184.541,-118.409 187.004,-108.104 178.653,-114.623 184.541,-118.409"/>
</g>
<!-- MOMENT_GENERATING_FUNCTION -->
<g id="node7" class="node"><title>MOMENT_GENERATING_FUNCTION</title>
<g id="a_node7"><a xlink:href="MOMENT_GENERATING_FUNCTION.html" xlink:title=" The moment generating function " target="_top">
<path fill="none" stroke="black" d="M462.5,-180C462.5,-180 283.5,-180 283.5,-180 277.5,-180 271.5,-174 271.5,-168 271.5,-168 271.5,-156 271.5,-156 271.5,-150 277.5,-144 283.5,-144 283.5,-144 462.5,-144 462.5,-144 468.5,-144 474.5,-150 474.5,-156 474.5,-156 474.5,-168 474.5,-168 474.5,-174 468.5,-180 462.5,-180"/>
<text text-anchor="start" x="279" y="-158.3" font-family="Times,serif" font-size="14.00"> The moment generating function </text>
</a>
</g>
</g>
<!-- MOMENT_GENERATING_FUNCTION&#45;&gt;BERNOULI_RANDOM_VARIABLE -->
<g id="edge7" class="edge"><title>MOMENT_GENERATING_FUNCTION&#45;&gt;BERNOULI_RANDOM_VARIABLE</title>
<path fill="none" stroke="black" d="M330.19,-143.876C306.054,-134.222 275.716,-122.087 250.194,-111.878"/>
<polygon fill="black" stroke="black" points="251.255,-108.533 240.671,-108.068 248.656,-115.032 251.255,-108.533"/>
</g>
</g>
</svg>
