<?xml version="1.0" encoding="UTF-8" standalone="no"?>
<!DOCTYPE svg PUBLIC "-//W3C//DTD SVG 1.1//EN"
 "http://www.w3.org/Graphics/SVG/1.1/DTD/svg11.dtd">
<!-- Generated by graphviz version 2.28.0 (20110509.1545)
 -->
<!-- Title: _anonymous_0 Pages: 1 -->
<svg width="381pt" height="260pt"
 viewBox="0.00 0.00 381.00 260.00" xmlns="http://www.w3.org/2000/svg" xmlns:xlink="http://www.w3.org/1999/xlink">
<g id="graph1" class="graph" transform="scale(1 1) rotate(0) translate(4 256)">
<title>_anonymous_0</title>
<!-- BERNOULI_RANDOM_VARIABLE -->
<g id="node1" class="node"><title>BERNOULI_RANDOM_VARIABLE</title>
<a xlink:href="BERNOULI_RANDOM_VARIABLE.html" xlink:title="Bernoulli random variable" target="_top">
<polyline fill="none" stroke="blue" stroke-width="2" points="249,-108 109,-108 "/>
<path fill="none" stroke="blue" stroke-width="2" d="M109,-108C103,-108 97,-102 97,-96"/>
<polyline fill="none" stroke="blue" stroke-width="2" points="97,-96 97,-84 "/>
<path fill="none" stroke="blue" stroke-width="2" d="M97,-84C97,-78 103,-72 109,-72"/>
<polyline fill="none" stroke="blue" stroke-width="2" points="109,-72 249,-72 "/>
<path fill="none" stroke="blue" stroke-width="2" d="M249,-72C255,-72 261,-78 261,-84"/>
<polyline fill="none" stroke="blue" stroke-width="2" points="261,-84 261,-96 "/>
<path fill="none" stroke="blue" stroke-width="2" d="M261,-96C261,-102 255,-108 249,-108"/>
<text text-anchor="start" x="105.5" y="-84.5" font-family="Times,serif" font-size="14.00">Bernoulli random variable</text>
</a>
</g>
<!-- BINOMIAL_RANDOM_VARIABLE -->
<g id="node2" class="node"><title>BINOMIAL_RANDOM_VARIABLE</title>
<a xlink:href="BINOMIAL_RANDOM_VARIABLE.html" xlink:title="Binomial random variable" target="_top">
<polyline fill="none" stroke="black" points="150.25,-36 11.75,-36 "/>
<path fill="none" stroke="black" d="M11.75,-36C5.75,-36 -0.25,-30 -0.25,-24"/>
<polyline fill="none" stroke="black" points="-0.25,-24 -0.25,-12 "/>
<path fill="none" stroke="black" d="M-0.25,-12C-0.25,-6 5.75,-0 11.75,-0"/>
<polyline fill="none" stroke="black" points="11.75,-0 150.25,-0 "/>
<path fill="none" stroke="black" d="M150.25,-0C156.25,-0 162.25,-6 162.25,-12"/>
<polyline fill="none" stroke="black" points="162.25,-12 162.25,-24 "/>
<path fill="none" stroke="black" d="M162.25,-24C162.25,-30 156.25,-36 150.25,-36"/>
<text text-anchor="start" x="8" y="-12.5" font-family="Times,serif" font-size="14.00">Binomial random variable</text>
</a>
</g>
<!-- BERNOULI_RANDOM_VARIABLE&#45;&gt;BINOMIAL_RANDOM_VARIABLE -->
<g id="edge2" class="edge"><title>BERNOULI_RANDOM_VARIABLE&#45;&gt;BINOMIAL_RANDOM_VARIABLE</title>
<path fill="none" stroke="black" d="M155.027,-71.8761C142.45,-62.8931 126.868,-51.7625 113.248,-42.0341"/>
<polygon fill="black" stroke="black" points="115.237,-39.1541 105.066,-36.1898 111.169,-44.8502 115.237,-39.1541"/>
</g>
<!-- GEOMETRIC_RANDOM_VARIABLE -->
<g id="node6" class="node"><title>GEOMETRIC_RANDOM_VARIABLE</title>
<a xlink:href="GEOMETRIC_RANDOM_VARIABLE.html" xlink:title="The geometric random variable" target="_top">
<polyline fill="none" stroke="black" points="361.25,-36 192.75,-36 "/>
<path fill="none" stroke="black" d="M192.75,-36C186.75,-36 180.75,-30 180.75,-24"/>
<polyline fill="none" stroke="black" points="180.75,-24 180.75,-12 "/>
<path fill="none" stroke="black" d="M180.75,-12C180.75,-6 186.75,-0 192.75,-0"/>
<polyline fill="none" stroke="black" points="192.75,-0 361.25,-0 "/>
<path fill="none" stroke="black" d="M361.25,-0C367.25,-0 373.25,-6 373.25,-12"/>
<polyline fill="none" stroke="black" points="373.25,-12 373.25,-24 "/>
<path fill="none" stroke="black" d="M373.25,-24C373.25,-30 367.25,-36 361.25,-36"/>
<text text-anchor="start" x="189" y="-12.5" font-family="Times,serif" font-size="14.00">The geometric random variable</text>
</a>
</g>
<!-- BERNOULI_RANDOM_VARIABLE&#45;&gt;GEOMETRIC_RANDOM_VARIABLE -->
<g id="edge6" class="edge"><title>BERNOULI_RANDOM_VARIABLE&#45;&gt;GEOMETRIC_RANDOM_VARIABLE</title>
<path fill="none" stroke="black" d="M202.973,-71.8761C215.55,-62.8931 231.132,-51.7625 244.752,-42.0341"/>
<polygon fill="black" stroke="black" points="246.831,-44.8502 252.934,-36.1898 242.763,-39.1541 246.831,-44.8502"/>
</g>
<!-- EXPECTATION -->
<g id="node4" class="node"><title>EXPECTATION</title>
<a xlink:href="EXPECTATION.html" xlink:title="Expectation " target="_top">
<polyline fill="none" stroke="black" points="86.25,-252 23.75,-252 "/>
<path fill="none" stroke="black" d="M23.75,-252C17.75,-252 11.75,-246 11.75,-240"/>
<polyline fill="none" stroke="black" points="11.75,-240 11.75,-228 "/>
<path fill="none" stroke="black" d="M11.75,-228C11.75,-222 17.75,-216 23.75,-216"/>
<polyline fill="none" stroke="black" points="23.75,-216 86.25,-216 "/>
<path fill="none" stroke="black" d="M86.25,-216C92.25,-216 98.25,-222 98.25,-228"/>
<polyline fill="none" stroke="black" points="98.25,-228 98.25,-240 "/>
<path fill="none" stroke="black" d="M98.25,-240C98.25,-246 92.25,-252 86.25,-252"/>
<text text-anchor="start" x="20" y="-228.5" font-family="Times,serif" font-size="14.00">Expectation </text>
</a>
</g>
<!-- EXPECTATION&#45;&gt;BERNOULI_RANDOM_VARIABLE -->
<g id="edge4" class="edge"><title>EXPECTATION&#45;&gt;BERNOULI_RANDOM_VARIABLE</title>
<path fill="none" stroke="black" d="M53.011,-215.82C51.7096,-196.47 52.5274,-164.992 68,-144 78.115,-130.277 92.7158,-119.959 108.021,-112.256"/>
<polygon fill="black" stroke="black" points="109.509,-115.424 117.085,-108.018 106.544,-109.083 109.509,-115.424"/>
</g>
<!-- RANDOM_VARIABLES -->
<g id="node10" class="node"><title>RANDOM_VARIABLES</title>
<a xlink:href="RANDOM_VARIABLES.html" xlink:title="Random variables" target="_top">
<polyline fill="none" stroke="black" points="183,-180 89,-180 "/>
<path fill="none" stroke="black" d="M89,-180C83,-180 77,-174 77,-168"/>
<polyline fill="none" stroke="black" points="77,-168 77,-156 "/>
<path fill="none" stroke="black" d="M77,-156C77,-150 83,-144 89,-144"/>
<polyline fill="none" stroke="black" points="89,-144 183,-144 "/>
<path fill="none" stroke="black" d="M183,-144C189,-144 195,-150 195,-156"/>
<polyline fill="none" stroke="black" points="195,-156 195,-168 "/>
<path fill="none" stroke="black" d="M195,-168C195,-174 189,-180 183,-180"/>
<text text-anchor="start" x="85.5" y="-156.5" font-family="Times,serif" font-size="14.00">Random variables</text>
</a>
</g>
<!-- EXPECTATION&#45;&gt;RANDOM_VARIABLES -->
<!-- MOMENT_GENERATING_FUNCTION -->
<g id="node8" class="node"><title>MOMENT_GENERATING_FUNCTION</title>
<a xlink:href="MOMENT_GENERATING_FUNCTION.html" xlink:title="The moment generating function" target="_top">
<polyline fill="none" stroke="black" points="311,-252 135,-252 "/>
<path fill="none" stroke="black" d="M135,-252C129,-252 123,-246 123,-240"/>
<polyline fill="none" stroke="black" points="123,-240 123,-228 "/>
<path fill="none" stroke="black" d="M123,-228C123,-222 129,-216 135,-216"/>
<polyline fill="none" stroke="black" points="135,-216 311,-216 "/>
<path fill="none" stroke="black" d="M311,-216C317,-216 323,-222 323,-228"/>
<polyline fill="none" stroke="black" points="323,-228 323,-240 "/>
<path fill="none" stroke="black" d="M323,-240C323,-246 317,-252 311,-252"/>
<text text-anchor="start" x="131.5" y="-228.5" font-family="Times,serif" font-size="14.00">The moment generating function</text>
</a>
</g>
<!-- MOMENT_GENERATING_FUNCTION&#45;&gt;BERNOULI_RANDOM_VARIABLE -->
<g id="edge8" class="edge"><title>MOMENT_GENERATING_FUNCTION&#45;&gt;BERNOULI_RANDOM_VARIABLE</title>
<path fill="none" stroke="black" d="M220.56,-215.958C217.687,-197.81 212.236,-168.401 204,-144 201.007,-135.132 196.936,-125.793 192.949,-117.466"/>
<polygon fill="black" stroke="black" points="195.955,-115.65 188.376,-108.246 189.684,-118.76 195.955,-115.65"/>
</g>
<!-- RANDOM_VARIABLES&#45;&gt;BERNOULI_RANDOM_VARIABLE -->
<g id="edge10" class="edge"><title>RANDOM_VARIABLES&#45;&gt;BERNOULI_RANDOM_VARIABLE</title>
<path fill="none" stroke="black" d="M146.629,-143.697C151.628,-135.559 157.691,-125.689 163.212,-116.701"/>
<polygon fill="black" stroke="black" points="166.241,-118.457 168.493,-108.104 160.277,-114.793 166.241,-118.457"/>
</g>
<!-- VARIANCE -->
<g id="node13" class="node"><title>VARIANCE</title>
<a xlink:href="VARIANCE.html" xlink:title="Variance " target="_top">
<polyline fill="none" stroke="black" points="308.25,-180 263.75,-180 "/>
<path fill="none" stroke="black" d="M263.75,-180C257.75,-180 251.75,-174 251.75,-168"/>
<polyline fill="none" stroke="black" points="251.75,-168 251.75,-156 "/>
<path fill="none" stroke="black" d="M251.75,-156C251.75,-150 257.75,-144 263.75,-144"/>
<polyline fill="none" stroke="black" points="263.75,-144 308.25,-144 "/>
<path fill="none" stroke="black" d="M308.25,-144C314.25,-144 320.25,-150 320.25,-156"/>
<polyline fill="none" stroke="black" points="320.25,-156 320.25,-168 "/>
<path fill="none" stroke="black" d="M320.25,-168C320.25,-174 314.25,-180 308.25,-180"/>
<text text-anchor="start" x="260" y="-156.5" font-family="Times,serif" font-size="14.00">Variance </text>
</a>
</g>
<!-- VARIANCE&#45;&gt;BERNOULI_RANDOM_VARIABLE -->
<g id="edge14" class="edge"><title>VARIANCE&#45;&gt;BERNOULI_RANDOM_VARIABLE</title>
<path fill="none" stroke="black" d="M259.825,-143.876C245.964,-134.808 228.759,-123.552 213.789,-113.759"/>
<polygon fill="black" stroke="black" points="215.56,-110.735 205.276,-108.19 211.728,-116.593 215.56,-110.735"/>
</g>
</g>
</svg>
