<?xml version="1.0" encoding="UTF-8" standalone="no"?>
<!DOCTYPE svg PUBLIC "-//W3C//DTD SVG 1.1//EN"
 "http://www.w3.org/Graphics/SVG/1.1/DTD/svg11.dtd">
<!-- Generated by graphviz version 2.28.0 (20110509.1545)
 -->
<!-- Title: _anonymous_0 Pages: 1 -->
<svg width="319pt" height="188pt"
 viewBox="0.00 0.00 319.00 188.00" xmlns="http://www.w3.org/2000/svg" xmlns:xlink="http://www.w3.org/1999/xlink">
<g id="graph1" class="graph" transform="scale(1 1) rotate(0) translate(4 184)">
<title>_anonymous_0</title>
<!-- BERNOULI_RANDOM_VARIABLE -->
<g id="node1" class="node"><title>BERNOULI_RANDOM_VARIABLE</title>
<a xlink:href="BERNOULI_RANDOM_VARIABLE.html" xlink:title="Bernoulli random variable" target="_top">
<polyline fill="none" stroke="blue" stroke-width="2" points="237,-36 97,-36 "/>
<path fill="none" stroke="blue" stroke-width="2" d="M97,-36C91,-36 85,-30 85,-24"/>
<polyline fill="none" stroke="blue" stroke-width="2" points="85,-24 85,-12 "/>
<path fill="none" stroke="blue" stroke-width="2" d="M85,-12C85,-6 91,-0 97,-0"/>
<polyline fill="none" stroke="blue" stroke-width="2" points="97,-0 237,-0 "/>
<path fill="none" stroke="blue" stroke-width="2" d="M237,-0C243,-0 249,-6 249,-12"/>
<polyline fill="none" stroke="blue" stroke-width="2" points="249,-12 249,-24 "/>
<path fill="none" stroke="blue" stroke-width="2" d="M249,-24C249,-30 243,-36 237,-36"/>
<text text-anchor="start" x="93.5" y="-12.5" font-family="Times,serif" font-size="14.00">Bernoulli random variable</text>
</a>
</g>
<!-- EXPECTATION -->
<g id="node2" class="node"><title>EXPECTATION</title>
<a xlink:href="EXPECTATION.html" xlink:title="Expectation " target="_top">
<polyline fill="none" stroke="black" points="74.25,-180 11.75,-180 "/>
<path fill="none" stroke="black" d="M11.75,-180C5.75,-180 -0.25,-174 -0.25,-168"/>
<polyline fill="none" stroke="black" points="-0.25,-168 -0.25,-156 "/>
<path fill="none" stroke="black" d="M-0.25,-156C-0.25,-150 5.75,-144 11.75,-144"/>
<polyline fill="none" stroke="black" points="11.75,-144 74.25,-144 "/>
<path fill="none" stroke="black" d="M74.25,-144C80.25,-144 86.25,-150 86.25,-156"/>
<polyline fill="none" stroke="black" points="86.25,-156 86.25,-168 "/>
<path fill="none" stroke="black" d="M86.25,-168C86.25,-174 80.25,-180 74.25,-180"/>
<text text-anchor="start" x="8" y="-156.5" font-family="Times,serif" font-size="14.00">Expectation </text>
</a>
</g>
<!-- EXPECTATION&#45;&gt;BERNOULI_RANDOM_VARIABLE -->
<g id="edge2" class="edge"><title>EXPECTATION&#45;&gt;BERNOULI_RANDOM_VARIABLE</title>
<path fill="none" stroke="black" d="M41.011,-143.82C39.7096,-124.47 40.5274,-92.9915 56,-72 66.115,-58.277 80.7158,-47.9588 96.021,-40.2564"/>
<polygon fill="black" stroke="black" points="97.5094,-43.4242 105.085,-36.0176 94.5442,-37.0832 97.5094,-43.4242"/>
</g>
<!-- RANDOM_VARIABLES -->
<g id="node6" class="node"><title>RANDOM_VARIABLES</title>
<a xlink:href="RANDOM_VARIABLES.html" xlink:title="Random variables" target="_top">
<polyline fill="none" stroke="black" points="171,-108 77,-108 "/>
<path fill="none" stroke="black" d="M77,-108C71,-108 65,-102 65,-96"/>
<polyline fill="none" stroke="black" points="65,-96 65,-84 "/>
<path fill="none" stroke="black" d="M65,-84C65,-78 71,-72 77,-72"/>
<polyline fill="none" stroke="black" points="77,-72 171,-72 "/>
<path fill="none" stroke="black" d="M171,-72C177,-72 183,-78 183,-84"/>
<polyline fill="none" stroke="black" points="183,-84 183,-96 "/>
<path fill="none" stroke="black" d="M183,-96C183,-102 177,-108 171,-108"/>
<text text-anchor="start" x="73.5" y="-84.5" font-family="Times,serif" font-size="14.00">Random variables</text>
</a>
</g>
<!-- EXPECTATION&#45;&gt;RANDOM_VARIABLES -->
<!-- MOMENT_GENERATING_FUNCTION -->
<g id="node4" class="node"><title>MOMENT_GENERATING_FUNCTION</title>
<a xlink:href="MOMENT_GENERATING_FUNCTION.html" xlink:title="The moment generating function" target="_top">
<polyline fill="none" stroke="black" points="299,-180 123,-180 "/>
<path fill="none" stroke="black" d="M123,-180C117,-180 111,-174 111,-168"/>
<polyline fill="none" stroke="black" points="111,-168 111,-156 "/>
<path fill="none" stroke="black" d="M111,-156C111,-150 117,-144 123,-144"/>
<polyline fill="none" stroke="black" points="123,-144 299,-144 "/>
<path fill="none" stroke="black" d="M299,-144C305,-144 311,-150 311,-156"/>
<polyline fill="none" stroke="black" points="311,-156 311,-168 "/>
<path fill="none" stroke="black" d="M311,-168C311,-174 305,-180 299,-180"/>
<text text-anchor="start" x="119.5" y="-156.5" font-family="Times,serif" font-size="14.00">The moment generating function</text>
</a>
</g>
<!-- MOMENT_GENERATING_FUNCTION&#45;&gt;BERNOULI_RANDOM_VARIABLE -->
<g id="edge4" class="edge"><title>MOMENT_GENERATING_FUNCTION&#45;&gt;BERNOULI_RANDOM_VARIABLE</title>
<path fill="none" stroke="black" d="M208.56,-143.958C205.687,-125.81 200.236,-96.4007 192,-72 189.007,-63.1318 184.936,-53.7927 180.949,-45.4664"/>
<polygon fill="black" stroke="black" points="183.955,-43.6501 176.376,-36.2462 177.684,-46.7601 183.955,-43.6501"/>
</g>
<!-- RANDOM_VARIABLES&#45;&gt;BERNOULI_RANDOM_VARIABLE -->
<g id="edge6" class="edge"><title>RANDOM_VARIABLES&#45;&gt;BERNOULI_RANDOM_VARIABLE</title>
<path fill="none" stroke="black" d="M134.629,-71.6966C139.628,-63.5589 145.691,-53.689 151.212,-44.7013"/>
<polygon fill="black" stroke="black" points="154.241,-46.4571 156.493,-36.1043 148.277,-42.7931 154.241,-46.4571"/>
</g>
<!-- VARIANCE -->
<g id="node9" class="node"><title>VARIANCE</title>
<a xlink:href="VARIANCE.html" xlink:title="Variance " target="_top">
<polyline fill="none" stroke="black" points="296.25,-108 251.75,-108 "/>
<path fill="none" stroke="black" d="M251.75,-108C245.75,-108 239.75,-102 239.75,-96"/>
<polyline fill="none" stroke="black" points="239.75,-96 239.75,-84 "/>
<path fill="none" stroke="black" d="M239.75,-84C239.75,-78 245.75,-72 251.75,-72"/>
<polyline fill="none" stroke="black" points="251.75,-72 296.25,-72 "/>
<path fill="none" stroke="black" d="M296.25,-72C302.25,-72 308.25,-78 308.25,-84"/>
<polyline fill="none" stroke="black" points="308.25,-84 308.25,-96 "/>
<path fill="none" stroke="black" d="M308.25,-96C308.25,-102 302.25,-108 296.25,-108"/>
<text text-anchor="start" x="248" y="-84.5" font-family="Times,serif" font-size="14.00">Variance </text>
</a>
</g>
<!-- VARIANCE&#45;&gt;BERNOULI_RANDOM_VARIABLE -->
<g id="edge10" class="edge"><title>VARIANCE&#45;&gt;BERNOULI_RANDOM_VARIABLE</title>
<path fill="none" stroke="black" d="M247.825,-71.8761C233.964,-62.8083 216.759,-51.5523 201.789,-41.7592"/>
<polygon fill="black" stroke="black" points="203.56,-38.7355 193.276,-36.1898 199.728,-44.5933 203.56,-38.7355"/>
</g>
</g>
</svg>
