<?xml version="1.0" encoding="UTF-8" standalone="no"?>
<!DOCTYPE svg PUBLIC "-//W3C//DTD SVG 1.1//EN"
 "http://www.w3.org/Graphics/SVG/1.1/DTD/svg11.dtd">
<!-- Generated by graphviz version 2.26.3 (20100126.1600)
 -->
<!-- Title: _anonymous_0 Pages: 1 -->
<svg width="553pt" height="260pt"
 viewBox="0.00 0.00 553.00 260.00" xmlns="http://www.w3.org/2000/svg" xmlns:xlink="http://www.w3.org/1999/xlink">
<g id="graph1" class="graph" transform="scale(1 1) rotate(0) translate(4 256)">
<title>_anonymous_0</title>
<!-- BERNOULI_RANDOM_VARIABLE -->
<g id="node1" class="node"><title>BERNOULI_RANDOM_VARIABLE</title>
<a xlink:href="BERNOULI_RANDOM_VARIABLE.html" xlink:title="Bernoulli random variable" target="_top">
<polyline fill="none" stroke="blue" stroke-width="2" points="316,-108 146,-108 "/>
<path fill="none" stroke="blue" stroke-width="2" d="M146,-108C140,-108 134,-102 134,-96"/>
<polyline fill="none" stroke="blue" stroke-width="2" points="134,-96 134,-84 "/>
<path fill="none" stroke="blue" stroke-width="2" d="M134,-84C134,-78 140,-72 146,-72"/>
<polyline fill="none" stroke="blue" stroke-width="2" points="146,-72 316,-72 "/>
<path fill="none" stroke="blue" stroke-width="2" d="M316,-72C322,-72 328,-78 328,-84"/>
<polyline fill="none" stroke="blue" stroke-width="2" points="328,-84 328,-96 "/>
<path fill="none" stroke="blue" stroke-width="2" d="M328,-96C328,-102 322,-108 316,-108"/>
<text text-anchor="start" x="142" y="-87.2333" font-family="Times Roman,serif" font-size="14.00">Bernoulli random variable</text>
</a>
</g>
<!-- GEOMETRIC_RANDOM_VARIABLE -->
<g id="node11" class="node"><title>GEOMETRIC_RANDOM_VARIABLE</title>
<a xlink:href="GEOMETRIC_RANDOM_VARIABLE.html" xlink:title="The geometric random variable" target="_top">
<polyline fill="none" stroke="black" points="220,-36 12,-36 "/>
<path fill="none" stroke="black" d="M12,-36C6,-36 8.28967e-14,-30 6.63173e-14,-24"/>
<polyline fill="none" stroke="black" points="6.63173e-14,-24 3.31587e-14,-12 "/>
<path fill="none" stroke="black" d="M3.31587e-14,-12C1.65793e-14,-6 6,-1.7396e-14 12,-1.70285e-14"/>
<polyline fill="none" stroke="black" points="12,-1.70285e-14 220,-4.28776e-15 "/>
<path fill="none" stroke="black" d="M220,-4.28776e-15C226,-3.92024e-15 232,-6 232,-12"/>
<polyline fill="none" stroke="black" points="232,-12 232,-24 "/>
<path fill="none" stroke="black" d="M232,-24C232,-30 226,-36 220,-36"/>
<text text-anchor="start" x="8" y="-15.2333" font-family="Times Roman,serif" font-size="14.00">The geometric random variable</text>
</a>
</g>
<!-- BERNOULI_RANDOM_VARIABLE&#45;&gt;GEOMETRIC_RANDOM_VARIABLE -->
<g id="edge12" class="edge"><title>BERNOULI_RANDOM_VARIABLE&#45;&gt;GEOMETRIC_RANDOM_VARIABLE</title>
<path fill="none" stroke="black" d="M201.981,-71.8314C187.271,-62.6221 169.236,-51.3301 153.488,-41.4706"/>
<polygon fill="black" stroke="black" points="155.343,-38.5029 145.01,-36.1628 151.629,-44.436 155.343,-38.5029"/>
</g>
<!-- BINOMIAL_RANDOM_VARIABLE -->
<g id="node13" class="node"><title>BINOMIAL_RANDOM_VARIABLE</title>
<a xlink:href="BINOMIAL_RANDOM_VARIABLE.html" xlink:title="Binomial random variable" target="_top">
<polyline fill="none" stroke="black" points="430,-36 262,-36 "/>
<path fill="none" stroke="black" d="M262,-36C256,-36 250,-30 250,-24"/>
<polyline fill="none" stroke="black" points="250,-24 250,-12 "/>
<path fill="none" stroke="black" d="M250,-12C250,-6 256,-1.73195e-14 262,-1.68754e-14"/>
<polyline fill="none" stroke="black" points="262,-1.68754e-14 430,-4.44089e-15 "/>
<path fill="none" stroke="black" d="M430,-4.44089e-15C436,-3.9968e-15 442,-6 442,-12"/>
<polyline fill="none" stroke="black" points="442,-12 442,-24 "/>
<path fill="none" stroke="black" d="M442,-24C442,-30 436,-36 430,-36"/>
<text text-anchor="start" x="258" y="-15.2333" font-family="Times Roman,serif" font-size="14.00">Binomial random variable</text>
</a>
</g>
<!-- BERNOULI_RANDOM_VARIABLE&#45;&gt;BINOMIAL_RANDOM_VARIABLE -->
<g id="edge14" class="edge"><title>BERNOULI_RANDOM_VARIABLE&#45;&gt;BINOMIAL_RANDOM_VARIABLE</title>
<path fill="none" stroke="black" d="M260.019,-71.8314C274.729,-62.6221 292.764,-51.3301 308.512,-41.4706"/>
<polygon fill="black" stroke="black" points="310.371,-44.436 316.99,-36.1628 306.657,-38.5029 310.371,-44.436"/>
</g>
<!-- VARIANCE -->
<g id="node2" class="node"><title>VARIANCE</title>
<a xlink:href="VARIANCE.html" xlink:title="Variance " target="_top">
<polyline fill="none" stroke="black" points="155,-252 99,-252 "/>
<path fill="none" stroke="black" d="M99,-252C93,-252 87,-246 87,-240"/>
<polyline fill="none" stroke="black" points="87,-240 87,-228 "/>
<path fill="none" stroke="black" d="M87,-228C87,-222 93,-216 99,-216"/>
<polyline fill="none" stroke="black" points="99,-216 155,-216 "/>
<path fill="none" stroke="black" d="M155,-216C161,-216 167,-222 167,-228"/>
<polyline fill="none" stroke="black" points="167,-228 167,-240 "/>
<path fill="none" stroke="black" d="M167,-240C167,-246 161,-252 155,-252"/>
<text text-anchor="start" x="95" y="-231.233" font-family="Times Roman,serif" font-size="14.00">Variance </text>
</a>
</g>
<!-- VARIANCE&#45;&gt;BERNOULI_RANDOM_VARIABLE -->
<g id="edge2" class="edge"><title>VARIANCE&#45;&gt;BERNOULI_RANDOM_VARIABLE</title>
<path fill="none" stroke="black" d="M122.636,-215.918C119.034,-196.583 116.455,-165.77 130,-144 138.229,-130.774 150.879,-120.586 164.475,-112.815"/>
<polygon fill="black" stroke="black" points="166.297,-115.811 173.509,-108.05 163.031,-109.62 166.297,-115.811"/>
</g>
<!-- EXPECTATION -->
<g id="node6" class="node"><title>EXPECTATION</title>
<a xlink:href="EXPECTATION.html" xlink:title="Expectation " target="_top">
<polyline fill="none" stroke="black" points="231,-180 151,-180 "/>
<path fill="none" stroke="black" d="M151,-180C145,-180 139,-174 139,-168"/>
<polyline fill="none" stroke="black" points="139,-168 139,-156 "/>
<path fill="none" stroke="black" d="M139,-156C139,-150 145,-144 151,-144"/>
<polyline fill="none" stroke="black" points="151,-144 231,-144 "/>
<path fill="none" stroke="black" d="M231,-144C237,-144 243,-150 243,-156"/>
<polyline fill="none" stroke="black" points="243,-156 243,-168 "/>
<path fill="none" stroke="black" d="M243,-168C243,-174 237,-180 231,-180"/>
<text text-anchor="start" x="147.5" y="-159.233" font-family="Times Roman,serif" font-size="14.00">Expectation </text>
</a>
</g>
<!-- VARIANCE&#45;&gt;EXPECTATION -->
<!-- RANDOM_VARIABLES -->
<g id="node4" class="node"><title>RANDOM_VARIABLES</title>
<a xlink:href="RANDOM_VARIABLES.html" xlink:title="Random variables" target="_top">
<polyline fill="none" stroke="black" points="329,-252 213,-252 "/>
<path fill="none" stroke="black" d="M213,-252C207,-252 201,-246 201,-240"/>
<polyline fill="none" stroke="black" points="201,-240 201,-228 "/>
<path fill="none" stroke="black" d="M201,-228C201,-222 207,-216 213,-216"/>
<polyline fill="none" stroke="black" points="213,-216 329,-216 "/>
<path fill="none" stroke="black" d="M329,-216C335,-216 341,-222 341,-228"/>
<polyline fill="none" stroke="black" points="341,-228 341,-240 "/>
<path fill="none" stroke="black" d="M341,-240C341,-246 335,-252 329,-252"/>
<text text-anchor="start" x="209.5" y="-231.233" font-family="Times Roman,serif" font-size="14.00">Random variables</text>
</a>
</g>
<!-- RANDOM_VARIABLES&#45;&gt;BERNOULI_RANDOM_VARIABLE -->
<g id="edge4" class="edge"><title>RANDOM_VARIABLES&#45;&gt;BERNOULI_RANDOM_VARIABLE</title>
<path fill="none" stroke="black" d="M268.065,-215.854C264.892,-197.522 259.293,-168.488 252,-144 249.4,-135.269 246.011,-125.958 242.717,-117.569"/>
<polygon fill="black" stroke="black" points="245.938,-116.197 238.947,-108.236 239.447,-118.819 245.938,-116.197"/>
</g>
<!-- EXPECTATION&#45;&gt;BERNOULI_RANDOM_VARIABLE -->
<g id="edge6" class="edge"><title>EXPECTATION&#45;&gt;BERNOULI_RANDOM_VARIABLE</title>
<path fill="none" stroke="black" d="M201.094,-143.831C205.56,-135.792 210.907,-126.167 215.838,-117.292"/>
<polygon fill="black" stroke="black" points="218.973,-118.855 220.77,-108.413 212.854,-115.455 218.973,-118.855"/>
</g>
<!-- MOMENT_GENERATING_FUNCTION -->
<g id="node9" class="node"><title>MOMENT_GENERATING_FUNCTION</title>
<a xlink:href="MOMENT_GENERATING_FUNCTION.html" xlink:title="The moment generating function" target="_top">
<polyline fill="none" stroke="black" points="533,-180 311,-180 "/>
<path fill="none" stroke="black" d="M311,-180C305,-180 299,-174 299,-168"/>
<polyline fill="none" stroke="black" points="299,-168 299,-156 "/>
<path fill="none" stroke="black" d="M299,-156C299,-150 305,-144 311,-144"/>
<polyline fill="none" stroke="black" points="311,-144 533,-144 "/>
<path fill="none" stroke="black" d="M533,-144C539,-144 545,-150 545,-156"/>
<polyline fill="none" stroke="black" points="545,-156 545,-168 "/>
<path fill="none" stroke="black" d="M545,-168C545,-174 539,-180 533,-180"/>
<text text-anchor="start" x="307.5" y="-159.233" font-family="Times Roman,serif" font-size="14.00">The moment generating function</text>
</a>
</g>
<!-- MOMENT_GENERATING_FUNCTION&#45;&gt;BERNOULI_RANDOM_VARIABLE -->
<g id="edge10" class="edge"><title>MOMENT_GENERATING_FUNCTION&#45;&gt;BERNOULI_RANDOM_VARIABLE</title>
<path fill="none" stroke="black" d="M373.803,-143.831C347.803,-134.031 315.546,-121.871 288.272,-111.589"/>
<polygon fill="black" stroke="black" points="289.443,-108.29 278.851,-108.038 286.973,-114.84 289.443,-108.29"/>
</g>
</g>
</svg>
