<?xml version="1.0" encoding="UTF-8" standalone="no"?>
<!DOCTYPE svg PUBLIC "-//W3C//DTD SVG 1.1//EN"
 "http://www.w3.org/Graphics/SVG/1.1/DTD/svg11.dtd">
<!-- Generated by graphviz version 2.26.3 (20100126.1600)
 -->
<!-- Title: _anonymous_0 Pages: 1 -->
<svg width="573pt" height="260pt"
 viewBox="0.00 0.00 573.00 260.00" xmlns="http://www.w3.org/2000/svg" xmlns:xlink="http://www.w3.org/1999/xlink">
<g id="graph1" class="graph" transform="scale(1 1) rotate(0) translate(4 256)">
<title>_anonymous_0</title>
<!-- BERNOULI_RANDOM_VARIABLE -->
<g id="node1" class="node"><title>BERNOULI_RANDOM_VARIABLE</title>
<a xlink:href="BERNOULI_RANDOM_VARIABLE.html" xlink:title=" Bernoulli random variable " target="_top">
<polyline fill="none" stroke="blue" stroke-width="2" points="331,-108 151,-108 "/>
<path fill="none" stroke="blue" stroke-width="2" d="M151,-108C145,-108 139,-102 139,-96"/>
<polyline fill="none" stroke="blue" stroke-width="2" points="139,-96 139,-84 "/>
<path fill="none" stroke="blue" stroke-width="2" d="M139,-84C139,-78 145,-72 151,-72"/>
<polyline fill="none" stroke="blue" stroke-width="2" points="151,-72 331,-72 "/>
<path fill="none" stroke="blue" stroke-width="2" d="M331,-72C337,-72 343,-78 343,-84"/>
<polyline fill="none" stroke="blue" stroke-width="2" points="343,-84 343,-96 "/>
<path fill="none" stroke="blue" stroke-width="2" d="M343,-96C343,-102 337,-108 331,-108"/>
<text text-anchor="start" x="147.5" y="-87.2333" font-family="Times Roman,serif" font-size="14.00"> Bernoulli random variable </text>
</a>
</g>
<!-- GEOMETRIC_RANDOM_VARIABLE -->
<g id="node6" class="node"><title>GEOMETRIC_RANDOM_VARIABLE</title>
<a xlink:href="GEOMETRIC_RANDOM_VARIABLE.html" xlink:title=" The geometric random variable " target="_top">
<polyline fill="none" stroke="black" points="230,-36 12,-36 "/>
<path fill="none" stroke="black" d="M12,-36C6,-36 8.28967e-14,-30 6.63173e-14,-24"/>
<polyline fill="none" stroke="black" points="6.63173e-14,-24 3.31587e-14,-12 "/>
<path fill="none" stroke="black" d="M3.31587e-14,-12C1.65793e-14,-6 6,-1.74112e-14 12,-1.70589e-14"/>
<polyline fill="none" stroke="black" points="12,-1.70589e-14 230,-4.25738e-15 "/>
<path fill="none" stroke="black" d="M230,-4.25738e-15C236,-3.90505e-15 242,-6 242,-12"/>
<polyline fill="none" stroke="black" points="242,-12 242,-24 "/>
<path fill="none" stroke="black" d="M242,-24C242,-30 236,-36 230,-36"/>
<text text-anchor="start" x="8.5" y="-15.2333" font-family="Times Roman,serif" font-size="14.00"> The geometric random variable </text>
</a>
</g>
<!-- BERNOULI_RANDOM_VARIABLE&#45;&gt;GEOMETRIC_RANDOM_VARIABLE -->
<g id="edge6" class="edge"><title>BERNOULI_RANDOM_VARIABLE&#45;&gt;GEOMETRIC_RANDOM_VARIABLE</title>
<path fill="none" stroke="black" d="M210.719,-71.8314C195.37,-62.6221 176.55,-51.3301 160.118,-41.4706"/>
<polygon fill="black" stroke="black" points="161.647,-38.3066 151.271,-36.1628 158.046,-44.3091 161.647,-38.3066"/>
</g>
<!-- BINOMIAL_RANDOM_VARIABLE -->
<g id="node13" class="node"><title>BINOMIAL_RANDOM_VARIABLE</title>
<a xlink:href="BINOMIAL_RANDOM_VARIABLE.html" xlink:title=" Binomial random variable " target="_top">
<polyline fill="none" stroke="black" points="450,-36 272,-36 "/>
<path fill="none" stroke="black" d="M272,-36C266,-36 260,-30 260,-24"/>
<polyline fill="none" stroke="black" points="260,-24 260,-12 "/>
<path fill="none" stroke="black" d="M260,-12C260,-6 266,-1.73415e-14 272,-1.69194e-14"/>
<polyline fill="none" stroke="black" points="272,-1.69194e-14 450,-4.39692e-15 "/>
<path fill="none" stroke="black" d="M450,-4.39692e-15C456,-3.97482e-15 462,-6 462,-12"/>
<polyline fill="none" stroke="black" points="462,-12 462,-24 "/>
<path fill="none" stroke="black" d="M462,-24C462,-30 456,-36 450,-36"/>
<text text-anchor="start" x="268.5" y="-15.2333" font-family="Times Roman,serif" font-size="14.00"> Binomial random variable </text>
</a>
</g>
<!-- BERNOULI_RANDOM_VARIABLE&#45;&gt;BINOMIAL_RANDOM_VARIABLE -->
<g id="edge14" class="edge"><title>BERNOULI_RANDOM_VARIABLE&#45;&gt;BINOMIAL_RANDOM_VARIABLE</title>
<path fill="none" stroke="black" d="M271.281,-71.8314C286.63,-62.6221 305.45,-51.3301 321.882,-41.4706"/>
<polygon fill="black" stroke="black" points="323.954,-44.3091 330.729,-36.1628 320.353,-38.3066 323.954,-44.3091"/>
</g>
<!-- RANDOM_VARIABLES -->
<g id="node2" class="node"><title>RANDOM_VARIABLES</title>
<a xlink:href="RANDOM_VARIABLES.html" xlink:title=" Random variables " target="_top">
<polyline fill="none" stroke="black" points="193,-252 69,-252 "/>
<path fill="none" stroke="black" d="M69,-252C63,-252 57,-246 57,-240"/>
<polyline fill="none" stroke="black" points="57,-240 57,-228 "/>
<path fill="none" stroke="black" d="M57,-228C57,-222 63,-216 69,-216"/>
<polyline fill="none" stroke="black" points="69,-216 193,-216 "/>
<path fill="none" stroke="black" d="M193,-216C199,-216 205,-222 205,-228"/>
<polyline fill="none" stroke="black" points="205,-228 205,-240 "/>
<path fill="none" stroke="black" d="M205,-240C205,-246 199,-252 193,-252"/>
<text text-anchor="start" x="65" y="-231.233" font-family="Times Roman,serif" font-size="14.00"> Random variables </text>
</a>
</g>
<!-- RANDOM_VARIABLES&#45;&gt;BERNOULI_RANDOM_VARIABLE -->
<g id="edge2" class="edge"><title>RANDOM_VARIABLES&#45;&gt;BERNOULI_RANDOM_VARIABLE</title>
<path fill="none" stroke="black" d="M126.537,-215.856C122.85,-196.467 120.199,-165.608 134,-144 142.498,-130.693 155.359,-120.531 169.25,-112.818"/>
<polygon fill="black" stroke="black" points="171.18,-115.762 178.492,-108.094 167.994,-109.529 171.18,-115.762"/>
</g>
<!-- EXPECTATION -->
<g id="node8" class="node"><title>EXPECTATION</title>
<a xlink:href="EXPECTATION.html" xlink:title=" Expectation &#160;" target="_top">
<polyline fill="none" stroke="black" points="243,-180 155,-180 "/>
<path fill="none" stroke="black" d="M155,-180C149,-180 143,-174 143,-168"/>
<polyline fill="none" stroke="black" points="143,-168 143,-156 "/>
<path fill="none" stroke="black" d="M143,-156C143,-150 149,-144 155,-144"/>
<polyline fill="none" stroke="black" points="155,-144 243,-144 "/>
<path fill="none" stroke="black" d="M243,-144C249,-144 255,-150 255,-156"/>
<polyline fill="none" stroke="black" points="255,-156 255,-168 "/>
<path fill="none" stroke="black" d="M255,-168C255,-174 249,-180 243,-180"/>
<text text-anchor="start" x="151" y="-159.233" font-family="Times Roman,serif" font-size="14.00"> Expectation &#160;</text>
</a>
</g>
<!-- RANDOM_VARIABLES&#45;&gt;EXPECTATION -->
<!-- VARIANCE -->
<g id="node4" class="node"><title>VARIANCE</title>
<a xlink:href="VARIANCE.html" xlink:title=" Variance &#160;" target="_top">
<polyline fill="none" stroke="black" points="316,-252 250,-252 "/>
<path fill="none" stroke="black" d="M250,-252C244,-252 238,-246 238,-240"/>
<polyline fill="none" stroke="black" points="238,-240 238,-228 "/>
<path fill="none" stroke="black" d="M238,-228C238,-222 244,-216 250,-216"/>
<polyline fill="none" stroke="black" points="250,-216 316,-216 "/>
<path fill="none" stroke="black" d="M316,-216C322,-216 328,-222 328,-228"/>
<polyline fill="none" stroke="black" points="328,-228 328,-240 "/>
<path fill="none" stroke="black" d="M328,-240C328,-246 322,-252 316,-252"/>
<text text-anchor="start" x="246.5" y="-231.233" font-family="Times Roman,serif" font-size="14.00"> Variance &#160;</text>
</a>
</g>
<!-- VARIANCE&#45;&gt;BERNOULI_RANDOM_VARIABLE -->
<g id="edge4" class="edge"><title>VARIANCE&#45;&gt;BERNOULI_RANDOM_VARIABLE</title>
<path fill="none" stroke="black" d="M280.229,-215.804C277.183,-197.433 271.681,-168.369 264,-144 261.226,-135.199 257.536,-125.867 253.926,-117.481"/>
<polygon fill="black" stroke="black" points="257.043,-115.876 249.783,-108.159 250.646,-118.719 257.043,-115.876"/>
</g>
<!-- EXPECTATION&#45;&gt;BERNOULI_RANDOM_VARIABLE -->
<g id="edge8" class="edge"><title>EXPECTATION&#45;&gt;BERNOULI_RANDOM_VARIABLE</title>
<path fill="none" stroke="black" d="M209.598,-143.831C214.288,-135.792 219.903,-126.167 225.08,-117.292"/>
<polygon fill="black" stroke="black" points="228.243,-118.815 230.259,-108.413 222.197,-115.288 228.243,-118.815"/>
</g>
<!-- MOMENT_GENERATING_FUNCTION -->
<g id="node11" class="node"><title>MOMENT_GENERATING_FUNCTION</title>
<a xlink:href="MOMENT_GENERATING_FUNCTION.html" xlink:title=" The moment generating function " target="_top">
<polyline fill="none" stroke="black" points="553,-180 323,-180 "/>
<path fill="none" stroke="black" d="M323,-180C317,-180 311,-174 311,-168"/>
<polyline fill="none" stroke="black" points="311,-168 311,-156 "/>
<path fill="none" stroke="black" d="M311,-156C311,-150 317,-144 323,-144"/>
<polyline fill="none" stroke="black" points="323,-144 553,-144 "/>
<path fill="none" stroke="black" d="M553,-144C559,-144 565,-150 565,-156"/>
<polyline fill="none" stroke="black" points="565,-156 565,-168 "/>
<path fill="none" stroke="black" d="M565,-168C565,-174 559,-180 553,-180"/>
<text text-anchor="start" x="319" y="-159.233" font-family="Times Roman,serif" font-size="14.00"> The moment generating function </text>
</a>
</g>
<!-- MOMENT_GENERATING_FUNCTION&#45;&gt;BERNOULI_RANDOM_VARIABLE -->
<g id="edge12" class="edge"><title>MOMENT_GENERATING_FUNCTION&#45;&gt;BERNOULI_RANDOM_VARIABLE</title>
<path fill="none" stroke="black" d="M388.543,-143.924C361.729,-134.124 328.405,-121.945 300.215,-111.642"/>
<polygon fill="black" stroke="black" points="301.071,-108.229 290.477,-108.083 298.668,-114.803 301.071,-108.229"/>
</g>
</g>
</svg>
