<?xml version="1.0" encoding="UTF-8" standalone="no"?>
<!DOCTYPE svg PUBLIC "-//W3C//DTD SVG 1.1//EN"
 "http://www.w3.org/Graphics/SVG/1.1/DTD/svg11.dtd">
<!-- Generated by graphviz version 2.26.3 (20100126.1600)
 -->
<!-- Title: _anonymous_0 Pages: 1 -->
<svg width="418pt" height="260pt"
 viewBox="0.00 0.00 418.00 260.00" xmlns="http://www.w3.org/2000/svg" xmlns:xlink="http://www.w3.org/1999/xlink">
<g id="graph1" class="graph" transform="scale(1 1) rotate(0) translate(4 256)">
<title>_anonymous_0</title>
<!-- BINOMIAL_RANDOM_VARIABLE -->
<g id="node1" class="node"><title>BINOMIAL_RANDOM_VARIABLE</title>
<a xlink:href="BINOMIAL_RANDOM_VARIABLE.html" xlink:title=" Binomial random variable " target="_top">
<polyline fill="none" stroke="blue" stroke-width="2" points="282,-108 104,-108 "/>
<path fill="none" stroke="blue" stroke-width="2" d="M104,-108C98,-108 92,-102 92,-96"/>
<polyline fill="none" stroke="blue" stroke-width="2" points="92,-96 92,-84 "/>
<path fill="none" stroke="blue" stroke-width="2" d="M92,-84C92,-78 98,-72 104,-72"/>
<polyline fill="none" stroke="blue" stroke-width="2" points="104,-72 282,-72 "/>
<path fill="none" stroke="blue" stroke-width="2" d="M282,-72C288,-72 294,-78 294,-84"/>
<polyline fill="none" stroke="blue" stroke-width="2" points="294,-84 294,-96 "/>
<path fill="none" stroke="blue" stroke-width="2" d="M294,-96C294,-102 288,-108 282,-108"/>
<text text-anchor="start" x="100.5" y="-87.2333" font-family="Times Roman,serif" font-size="14.00"> Binomial random variable </text>
</a>
</g>
<!-- POISSON_RANDOM_VARIABLE -->
<g id="node9" class="node"><title>POISSON_RANDOM_VARIABLE</title>
<a xlink:href="POISSON_RANDOM_VARIABLE.html" xlink:title=" The poisson random variable " target="_top">
<polyline fill="none" stroke="black" points="293,-36 93,-36 "/>
<path fill="none" stroke="black" d="M93,-36C87,-36 81,-30 81,-24"/>
<polyline fill="none" stroke="black" points="81,-24 81,-12 "/>
<path fill="none" stroke="black" d="M81,-12C81,-6 87,-1.73829e-14 93,-1.70023e-14"/>
<polyline fill="none" stroke="black" points="93,-1.70023e-14 293,-4.31401e-15 "/>
<path fill="none" stroke="black" d="M293,-4.31401e-15C299,-3.93336e-15 305,-6 305,-12"/>
<polyline fill="none" stroke="black" points="305,-12 305,-24 "/>
<path fill="none" stroke="black" d="M305,-24C305,-30 299,-36 293,-36"/>
<text text-anchor="start" x="89" y="-15.2333" font-family="Times Roman,serif" font-size="14.00"> The poisson random variable </text>
</a>
</g>
<!-- BINOMIAL_RANDOM_VARIABLE&#45;&gt;POISSON_RANDOM_VARIABLE -->
<g id="edge10" class="edge"><title>BINOMIAL_RANDOM_VARIABLE&#45;&gt;POISSON_RANDOM_VARIABLE</title>
<path fill="none" stroke="black" d="M193,-71.8314C193,-64.131 193,-54.9743 193,-46.4166"/>
<polygon fill="black" stroke="black" points="196.5,-46.4132 193,-36.4133 189.5,-46.4133 196.5,-46.4132"/>
</g>
<!-- BERNOULI_RANDOM_VARIABLE -->
<g id="node2" class="node"><title>BERNOULI_RANDOM_VARIABLE</title>
<a xlink:href="BERNOULI_RANDOM_VARIABLE.html" xlink:title=" Bernoulli random variable " target="_top">
<polyline fill="none" stroke="black" points="192,-252 12,-252 "/>
<path fill="none" stroke="black" d="M12,-252C6,-252 8.28967e-14,-246 6.63173e-14,-240"/>
<polyline fill="none" stroke="black" points="6.63173e-14,-240 3.31587e-14,-228 "/>
<path fill="none" stroke="black" d="M3.31587e-14,-228C1.65793e-14,-222 6,-216 12,-216"/>
<polyline fill="none" stroke="black" points="12,-216 192,-216 "/>
<path fill="none" stroke="black" d="M192,-216C198,-216 204,-222 204,-228"/>
<polyline fill="none" stroke="black" points="204,-228 204,-240 "/>
<path fill="none" stroke="black" d="M204,-240C204,-246 198,-252 192,-252"/>
<text text-anchor="start" x="8.5" y="-231.233" font-family="Times Roman,serif" font-size="14.00"> Bernoulli random variable </text>
</a>
</g>
<!-- BERNOULI_RANDOM_VARIABLE&#45;&gt;BINOMIAL_RANDOM_VARIABLE -->
<g id="edge2" class="edge"><title>BERNOULI_RANDOM_VARIABLE&#45;&gt;BINOMIAL_RANDOM_VARIABLE</title>
<path fill="none" stroke="black" d="M81.8245,-215.979C63.347,-197.236 41.1043,-167.414 57,-144 66.276,-130.336 79.6108,-120.13 94.3448,-112.506"/>
<polygon fill="black" stroke="black" points="96.1375,-115.53 103.676,-108.085 93.1403,-109.204 96.1375,-115.53"/>
</g>
<!-- MOMENT_GENERATING_FUNCTION -->
<g id="node6" class="node"><title>MOMENT_GENERATING_FUNCTION</title>
<a xlink:href="MOMENT_GENERATING_FUNCTION.html" xlink:title=" The moment generating function " target="_top">
<polyline fill="none" stroke="black" points="308,-180 78,-180 "/>
<path fill="none" stroke="black" d="M78,-180C72,-180 66,-174 66,-168"/>
<polyline fill="none" stroke="black" points="66,-168 66,-156 "/>
<path fill="none" stroke="black" d="M66,-156C66,-150 72,-144 78,-144"/>
<polyline fill="none" stroke="black" points="78,-144 308,-144 "/>
<path fill="none" stroke="black" d="M308,-144C314,-144 320,-150 320,-156"/>
<polyline fill="none" stroke="black" points="320,-156 320,-168 "/>
<path fill="none" stroke="black" d="M320,-168C320,-174 314,-180 308,-180"/>
<text text-anchor="start" x="74" y="-159.233" font-family="Times Roman,serif" font-size="14.00"> The moment generating function </text>
</a>
</g>
<!-- BERNOULI_RANDOM_VARIABLE&#45;&gt;MOMENT_GENERATING_FUNCTION -->
<!-- BASIC_COMBINATORICS -->
<g id="node4" class="node"><title>BASIC_COMBINATORICS</title>
<a xlink:href="BASIC_COMBINATORICS.html" xlink:title=" Combinatorics " target="_top">
<polyline fill="none" stroke="black" points="398,-252 298,-252 "/>
<path fill="none" stroke="black" d="M298,-252C292,-252 286,-246 286,-240"/>
<polyline fill="none" stroke="black" points="286,-240 286,-228 "/>
<path fill="none" stroke="black" d="M286,-228C286,-222 292,-216 298,-216"/>
<polyline fill="none" stroke="black" points="298,-216 398,-216 "/>
<path fill="none" stroke="black" d="M398,-216C404,-216 410,-222 410,-228"/>
<polyline fill="none" stroke="black" points="410,-228 410,-240 "/>
<path fill="none" stroke="black" d="M410,-240C410,-246 404,-252 398,-252"/>
<text text-anchor="start" x="294.5" y="-231.233" font-family="Times Roman,serif" font-size="14.00"> Combinatorics </text>
</a>
</g>
<!-- BASIC_COMBINATORICS&#45;&gt;BINOMIAL_RANDOM_VARIABLE -->
<g id="edge4" class="edge"><title>BASIC_COMBINATORICS&#45;&gt;BINOMIAL_RANDOM_VARIABLE</title>
<path fill="none" stroke="black" d="M348.942,-215.965C349.003,-196.093 346.087,-164.268 329,-144 317.326,-130.152 301.605,-119.829 284.998,-112.142"/>
<polygon fill="black" stroke="black" points="286.269,-108.878 275.7,-108.136 283.5,-115.307 286.269,-108.878"/>
</g>
<!-- MOMENT_GENERATING_FUNCTION&#45;&gt;BINOMIAL_RANDOM_VARIABLE -->
<g id="edge6" class="edge"><title>MOMENT_GENERATING_FUNCTION&#45;&gt;BINOMIAL_RANDOM_VARIABLE</title>
<path fill="none" stroke="black" d="M193,-143.831C193,-136.131 193,-126.974 193,-118.417"/>
<polygon fill="black" stroke="black" points="196.5,-118.413 193,-108.413 189.5,-118.413 196.5,-118.413"/>
</g>
</g>
</svg>
