<?xml version="1.0" encoding="UTF-8" standalone="no"?>
<!DOCTYPE svg PUBLIC "-//W3C//DTD SVG 1.1//EN"
 "http://www.w3.org/Graphics/SVG/1.1/DTD/svg11.dtd">
<!-- Generated by graphviz version 2.36.0 (20140111.2315)
 -->
<!-- Title: %3 Pages: 1 -->
<svg width="360pt" height="260pt"
 viewBox="0.00 0.00 360.00 260.00" xmlns="http://www.w3.org/2000/svg" xmlns:xlink="http://www.w3.org/1999/xlink">
<g id="graph0" class="graph" transform="scale(1 1) rotate(0) translate(4 256)">
<title>%3</title>
<!-- BINOMIAL_RANDOM_VARIABLE -->
<g id="node1" class="node"><title>BINOMIAL_RANDOM_VARIABLE</title>
<g id="a_node1"><a xlink:href="BINOMIAL_RANDOM_VARIABLE.html" xlink:title=" Binomial random variable " target="_top">
<path fill="none" stroke="blue" stroke-width="2" d="M259.5,-108C259.5,-108 116.5,-108 116.5,-108 110.5,-108 104.5,-102 104.5,-96 104.5,-96 104.5,-84 104.5,-84 104.5,-78 110.5,-72 116.5,-72 116.5,-72 259.5,-72 259.5,-72 265.5,-72 271.5,-78 271.5,-84 271.5,-84 271.5,-96 271.5,-96 271.5,-102 265.5,-108 259.5,-108"/>
<text text-anchor="start" x="112" y="-86.3" font-family="Times,serif" font-size="14.00"> Binomial random variable </text>
</a>
</g>
</g>
<!-- POISSON_RANDOM_VARIABLE -->
<g id="node2" class="node"><title>POISSON_RANDOM_VARIABLE</title>
<g id="a_node2"><a xlink:href="POISSON_RANDOM_VARIABLE.html" xlink:title=" The poisson random variable " target="_top">
<path fill="none" stroke="black" d="M267.25,-36C267.25,-36 108.75,-36 108.75,-36 102.75,-36 96.75,-30 96.75,-24 96.75,-24 96.75,-12 96.75,-12 96.75,-6 102.75,-0 108.75,-0 108.75,-0 267.25,-0 267.25,-0 273.25,-0 279.25,-6 279.25,-12 279.25,-12 279.25,-24 279.25,-24 279.25,-30 273.25,-36 267.25,-36"/>
<text text-anchor="start" x="104.5" y="-14.3" font-family="Times,serif" font-size="14.00"> The poisson random variable </text>
</a>
</g>
</g>
<!-- BINOMIAL_RANDOM_VARIABLE&#45;&gt;POISSON_RANDOM_VARIABLE -->
<g id="edge1" class="edge"><title>BINOMIAL_RANDOM_VARIABLE&#45;&gt;POISSON_RANDOM_VARIABLE</title>
<path fill="none" stroke="black" d="M188,-71.6966C188,-63.9827 188,-54.7125 188,-46.1124"/>
<polygon fill="black" stroke="black" points="191.5,-46.1043 188,-36.1043 184.5,-46.1044 191.5,-46.1043"/>
</g>
<!-- MOMENT_GENERATING_FUNCTION -->
<g id="node3" class="node"><title>MOMENT_GENERATING_FUNCTION</title>
<g id="a_node3"><a xlink:href="MOMENT_GENERATING_FUNCTION.html" xlink:title=" The moment generating function " target="_top">
<path fill="none" stroke="black" d="M191.5,-252C191.5,-252 12.5,-252 12.5,-252 6.5,-252 0.5,-246 0.5,-240 0.5,-240 0.5,-228 0.5,-228 0.5,-222 6.5,-216 12.5,-216 12.5,-216 191.5,-216 191.5,-216 197.5,-216 203.5,-222 203.5,-228 203.5,-228 203.5,-240 203.5,-240 203.5,-246 197.5,-252 191.5,-252"/>
<text text-anchor="start" x="8" y="-230.3" font-family="Times,serif" font-size="14.00"> The moment generating function </text>
</a>
</g>
</g>
<!-- MOMENT_GENERATING_FUNCTION&#45;&gt;BINOMIAL_RANDOM_VARIABLE -->
<g id="edge2" class="edge"><title>MOMENT_GENERATING_FUNCTION&#45;&gt;BINOMIAL_RANDOM_VARIABLE</title>
<path fill="none" stroke="black" d="M95.2197,-215.983C88.8542,-197.063 82.0733,-166.245 95,-144 102.586,-130.945 114.725,-120.838 127.763,-113.123"/>
<polygon fill="black" stroke="black" points="129.777,-116.011 136.887,-108.157 126.43,-109.863 129.777,-116.011"/>
</g>
<!-- BERNOULI_RANDOM_VARIABLE -->
<g id="node5" class="node"><title>BERNOULI_RANDOM_VARIABLE</title>
<g id="a_node5"><a xlink:href="BERNOULI_RANDOM_VARIABLE.html" xlink:title=" Bernoulli random variable " target="_top">
<path fill="none" stroke="black" d="M259.5,-180C259.5,-180 116.5,-180 116.5,-180 110.5,-180 104.5,-174 104.5,-168 104.5,-168 104.5,-156 104.5,-156 104.5,-150 110.5,-144 116.5,-144 116.5,-144 259.5,-144 259.5,-144 265.5,-144 271.5,-150 271.5,-156 271.5,-156 271.5,-168 271.5,-168 271.5,-174 265.5,-180 259.5,-180"/>
<text text-anchor="start" x="112" y="-158.3" font-family="Times,serif" font-size="14.00"> Bernoulli random variable </text>
</a>
</g>
</g>
<!-- MOMENT_GENERATING_FUNCTION&#45;&gt;BERNOULI_RANDOM_VARIABLE -->
<!-- BASIC_COMBINATORICS -->
<g id="node4" class="node"><title>BASIC_COMBINATORICS</title>
<g id="a_node4"><a xlink:href="BASIC_COMBINATORICS.html" xlink:title=" Combinatorics " target="_top">
<path fill="none" stroke="black" d="M340,-252C340,-252 260,-252 260,-252 254,-252 248,-246 248,-240 248,-240 248,-228 248,-228 248,-222 254,-216 260,-216 260,-216 340,-216 340,-216 346,-216 352,-222 352,-228 352,-228 352,-240 352,-240 352,-246 346,-252 340,-252"/>
<text text-anchor="start" x="256" y="-230.3" font-family="Times,serif" font-size="14.00"> Combinatorics </text>
</a>
</g>
</g>
<!-- BASIC_COMBINATORICS&#45;&gt;BINOMIAL_RANDOM_VARIABLE -->
<g id="edge3" class="edge"><title>BASIC_COMBINATORICS&#45;&gt;BINOMIAL_RANDOM_VARIABLE</title>
<path fill="none" stroke="black" d="M300.114,-215.931C299.413,-196.683 295.679,-165.298 280,-144 270.498,-131.092 256.837,-120.839 242.938,-112.925"/>
<polygon fill="black" stroke="black" points="244.282,-109.675 233.812,-108.058 240.989,-115.852 244.282,-109.675"/>
</g>
<!-- BERNOULI_RANDOM_VARIABLE&#45;&gt;BINOMIAL_RANDOM_VARIABLE -->
<g id="edge4" class="edge"><title>BERNOULI_RANDOM_VARIABLE&#45;&gt;BINOMIAL_RANDOM_VARIABLE</title>
<path fill="none" stroke="black" d="M188,-143.697C188,-135.983 188,-126.712 188,-118.112"/>
<polygon fill="black" stroke="black" points="191.5,-118.104 188,-108.104 184.5,-118.104 191.5,-118.104"/>
</g>
</g>
</svg>
