<?xml version="1.0" encoding="UTF-8" standalone="no"?>
<!DOCTYPE svg PUBLIC "-//W3C//DTD SVG 1.1//EN"
 "http://www.w3.org/Graphics/SVG/1.1/DTD/svg11.dtd">
<!-- Generated by graphviz version 2.36.0 (20140111.2315)
 -->
<!-- Title: %3 Pages: 1 -->
<svg width="351pt" height="260pt"
 viewBox="0.00 0.00 351.00 260.00" xmlns="http://www.w3.org/2000/svg" xmlns:xlink="http://www.w3.org/1999/xlink">
<g id="graph0" class="graph" transform="scale(1 1) rotate(0) translate(4 256)">
<title>%3</title>
<!-- BINOMIAL_RANDOM_VARIABLE -->
<g id="node1" class="node"><title>BINOMIAL_RANDOM_VARIABLE</title>
<g id="a_node1"><a xlink:href="BINOMIAL_RANDOM_VARIABLE.html" xlink:title=" Binomial random variable " target="_top">
<path fill="none" stroke="blue" stroke-width="2" d="M200.5,-108C200.5,-108 57.5,-108 57.5,-108 51.5,-108 45.5,-102 45.5,-96 45.5,-96 45.5,-84 45.5,-84 45.5,-78 51.5,-72 57.5,-72 57.5,-72 200.5,-72 200.5,-72 206.5,-72 212.5,-78 212.5,-84 212.5,-84 212.5,-96 212.5,-96 212.5,-102 206.5,-108 200.5,-108"/>
<text text-anchor="start" x="53" y="-86.3" font-family="Times,serif" font-size="14.00"> Binomial random variable </text>
</a>
</g>
</g>
<!-- POISSON_RANDOM_VARIABLE -->
<g id="node3" class="node"><title>POISSON_RANDOM_VARIABLE</title>
<g id="a_node3"><a xlink:href="POISSON_RANDOM_VARIABLE.html" xlink:title=" The poisson random variable " target="_top">
<path fill="none" stroke="black" d="M208.25,-36C208.25,-36 49.75,-36 49.75,-36 43.75,-36 37.75,-30 37.75,-24 37.75,-24 37.75,-12 37.75,-12 37.75,-6 43.75,-0 49.75,-0 49.75,-0 208.25,-0 208.25,-0 214.25,-0 220.25,-6 220.25,-12 220.25,-12 220.25,-24 220.25,-24 220.25,-30 214.25,-36 208.25,-36"/>
<text text-anchor="start" x="45.5" y="-14.3" font-family="Times,serif" font-size="14.00"> The poisson random variable </text>
</a>
</g>
</g>
<!-- BINOMIAL_RANDOM_VARIABLE&#45;&gt;POISSON_RANDOM_VARIABLE -->
<g id="edge2" class="edge"><title>BINOMIAL_RANDOM_VARIABLE&#45;&gt;POISSON_RANDOM_VARIABLE</title>
<path fill="none" stroke="black" d="M129,-71.6966C129,-63.9827 129,-54.7125 129,-46.1124"/>
<polygon fill="black" stroke="black" points="132.5,-46.1043 129,-36.1043 125.5,-46.1044 132.5,-46.1043"/>
</g>
<!-- BASIC_COMBINATORICS -->
<g id="node2" class="node"><title>BASIC_COMBINATORICS</title>
<g id="a_node2"><a xlink:href="BASIC_COMBINATORICS.html" xlink:title=" Combinatorics " target="_top">
<path fill="none" stroke="black" d="M92,-252C92,-252 12,-252 12,-252 6,-252 0,-246 0,-240 0,-240 0,-228 0,-228 0,-222 6,-216 12,-216 12,-216 92,-216 92,-216 98,-216 104,-222 104,-228 104,-228 104,-240 104,-240 104,-246 98,-252 92,-252"/>
<text text-anchor="start" x="8" y="-230.3" font-family="Times,serif" font-size="14.00"> Combinatorics </text>
</a>
</g>
</g>
<!-- BASIC_COMBINATORICS&#45;&gt;BINOMIAL_RANDOM_VARIABLE -->
<g id="edge1" class="edge"><title>BASIC_COMBINATORICS&#45;&gt;BINOMIAL_RANDOM_VARIABLE</title>
<path fill="none" stroke="black" d="M36.3762,-215.668C21.553,-197.017 3.52964,-166.945 18,-144 26.6318,-130.313 39.8785,-120.085 54.2518,-112.468"/>
<polygon fill="black" stroke="black" points="55.857,-115.579 63.3157,-108.055 52.7926,-109.286 55.857,-115.579"/>
</g>
<!-- MOMENT_GENERATING_FUNCTION -->
<g id="node5" class="node"><title>MOMENT_GENERATING_FUNCTION</title>
<g id="a_node5"><a xlink:href="MOMENT_GENERATING_FUNCTION.html" xlink:title=" The moment generating function " target="_top">
<path fill="none" stroke="black" d="M218.5,-180C218.5,-180 39.5,-180 39.5,-180 33.5,-180 27.5,-174 27.5,-168 27.5,-168 27.5,-156 27.5,-156 27.5,-150 33.5,-144 39.5,-144 39.5,-144 218.5,-144 218.5,-144 224.5,-144 230.5,-150 230.5,-156 230.5,-156 230.5,-168 230.5,-168 230.5,-174 224.5,-180 218.5,-180"/>
<text text-anchor="start" x="35" y="-158.3" font-family="Times,serif" font-size="14.00"> The moment generating function </text>
</a>
</g>
</g>
<!-- BASIC_COMBINATORICS&#45;&gt;MOMENT_GENERATING_FUNCTION -->
<!-- BERNOULI_RANDOM_VARIABLE -->
<g id="node4" class="node"><title>BERNOULI_RANDOM_VARIABLE</title>
<g id="a_node4"><a xlink:href="BERNOULI_RANDOM_VARIABLE.html" xlink:title=" Bernoulli random variable " target="_top">
<path fill="none" stroke="black" d="M330.5,-252C330.5,-252 187.5,-252 187.5,-252 181.5,-252 175.5,-246 175.5,-240 175.5,-240 175.5,-228 175.5,-228 175.5,-222 181.5,-216 187.5,-216 187.5,-216 330.5,-216 330.5,-216 336.5,-216 342.5,-222 342.5,-228 342.5,-228 342.5,-240 342.5,-240 342.5,-246 336.5,-252 330.5,-252"/>
<text text-anchor="start" x="183" y="-230.3" font-family="Times,serif" font-size="14.00"> Bernoulli random variable </text>
</a>
</g>
</g>
<!-- BERNOULI_RANDOM_VARIABLE&#45;&gt;BINOMIAL_RANDOM_VARIABLE -->
<g id="edge3" class="edge"><title>BERNOULI_RANDOM_VARIABLE&#45;&gt;BINOMIAL_RANDOM_VARIABLE</title>
<path fill="none" stroke="black" d="M259.395,-215.717C258.951,-196.272 255.453,-164.707 239,-144 228.197,-130.403 213.043,-120.081 197.43,-112.331"/>
<polygon fill="black" stroke="black" points="198.758,-109.089 188.213,-108.059 195.814,-115.44 198.758,-109.089"/>
</g>
<!-- MOMENT_GENERATING_FUNCTION&#45;&gt;BINOMIAL_RANDOM_VARIABLE -->
<g id="edge4" class="edge"><title>MOMENT_GENERATING_FUNCTION&#45;&gt;BINOMIAL_RANDOM_VARIABLE</title>
<path fill="none" stroke="black" d="M129,-143.697C129,-135.983 129,-126.712 129,-118.112"/>
<polygon fill="black" stroke="black" points="132.5,-118.104 129,-108.104 125.5,-118.104 132.5,-118.104"/>
</g>
</g>
</svg>
