<?xml version="1.0" encoding="UTF-8" standalone="no"?>
<!DOCTYPE svg PUBLIC "-//W3C//DTD SVG 1.1//EN"
 "http://www.w3.org/Graphics/SVG/1.1/DTD/svg11.dtd">
<!-- Generated by graphviz version 2.26.3 (20100126.1600)
 -->
<!-- Title: _anonymous_0 Pages: 1 -->
<svg width="412pt" height="260pt"
 viewBox="0.00 0.00 412.00 260.00" xmlns="http://www.w3.org/2000/svg" xmlns:xlink="http://www.w3.org/1999/xlink">
<g id="graph1" class="graph" transform="scale(1 1) rotate(0) translate(4 256)">
<title>_anonymous_0</title>
<!-- BINOMIAL_RANDOM_VARIABLE -->
<g id="node1" class="node"><title>BINOMIAL_RANDOM_VARIABLE</title>
<a xlink:href="BINOMIAL_RANDOM_VARIABLE.html" xlink:title="Binomial random variable" target="_top">
<polyline fill="none" stroke="blue" stroke-width="2" points="306,-108 138,-108 "/>
<path fill="none" stroke="blue" stroke-width="2" d="M138,-108C132,-108 126,-102 126,-96"/>
<polyline fill="none" stroke="blue" stroke-width="2" points="126,-96 126,-84 "/>
<path fill="none" stroke="blue" stroke-width="2" d="M126,-84C126,-78 132,-72 138,-72"/>
<polyline fill="none" stroke="blue" stroke-width="2" points="138,-72 306,-72 "/>
<path fill="none" stroke="blue" stroke-width="2" d="M306,-72C312,-72 318,-78 318,-84"/>
<polyline fill="none" stroke="blue" stroke-width="2" points="318,-84 318,-96 "/>
<path fill="none" stroke="blue" stroke-width="2" d="M318,-96C318,-102 312,-108 306,-108"/>
<text text-anchor="start" x="134" y="-87.2333" font-family="Times Roman,serif" font-size="14.00">Binomial random variable</text>
</a>
</g>
<!-- POISSON_RANDOM_VARIABLE -->
<g id="node2" class="node"><title>POISSON_RANDOM_VARIABLE</title>
<a xlink:href="POISSON_RANDOM_VARIABLE.html" xlink:title="The poisson random variable" target="_top">
<polyline fill="none" stroke="black" points="318,-36 126,-36 "/>
<path fill="none" stroke="black" d="M126,-36C120,-36 114,-30 114,-24"/>
<polyline fill="none" stroke="black" points="114,-24 114,-12 "/>
<path fill="none" stroke="black" d="M114,-12C114,-6 120,-1.73688e-14 126,-1.69741e-14"/>
<polyline fill="none" stroke="black" points="126,-1.69741e-14 318,-4.34221e-15 "/>
<path fill="none" stroke="black" d="M318,-4.34221e-15C324,-3.94746e-15 330,-6 330,-12"/>
<polyline fill="none" stroke="black" points="330,-12 330,-24 "/>
<path fill="none" stroke="black" d="M330,-24C330,-30 324,-36 318,-36"/>
<text text-anchor="start" x="122.5" y="-15.2333" font-family="Times Roman,serif" font-size="14.00">The poisson random variable</text>
</a>
</g>
<!-- BINOMIAL_RANDOM_VARIABLE&#45;&gt;POISSON_RANDOM_VARIABLE -->
<g id="edge2" class="edge"><title>BINOMIAL_RANDOM_VARIABLE&#45;&gt;POISSON_RANDOM_VARIABLE</title>
<path fill="none" stroke="black" d="M222,-71.8314C222,-64.131 222,-54.9743 222,-46.4166"/>
<polygon fill="black" stroke="black" points="225.5,-46.4132 222,-36.4133 218.5,-46.4133 225.5,-46.4132"/>
</g>
<!-- MOMENT_GENERATING_FUNCTION -->
<g id="node4" class="node"><title>MOMENT_GENERATING_FUNCTION</title>
<a xlink:href="MOMENT_GENERATING_FUNCTION.html" xlink:title="The moment generating function" target="_top">
<polyline fill="none" stroke="black" points="234,-252 12,-252 "/>
<path fill="none" stroke="black" d="M12,-252C6,-252 8.28967e-14,-246 6.63173e-14,-240"/>
<polyline fill="none" stroke="black" points="6.63173e-14,-240 3.31587e-14,-228 "/>
<path fill="none" stroke="black" d="M3.31587e-14,-228C1.65793e-14,-222 6,-216 12,-216"/>
<polyline fill="none" stroke="black" points="12,-216 234,-216 "/>
<path fill="none" stroke="black" d="M234,-216C240,-216 246,-222 246,-228"/>
<polyline fill="none" stroke="black" points="246,-228 246,-240 "/>
<path fill="none" stroke="black" d="M246,-240C246,-246 240,-252 234,-252"/>
<text text-anchor="start" x="8.5" y="-231.233" font-family="Times Roman,serif" font-size="14.00">The moment generating function</text>
</a>
</g>
<!-- MOMENT_GENERATING_FUNCTION&#45;&gt;BINOMIAL_RANDOM_VARIABLE -->
<g id="edge4" class="edge"><title>MOMENT_GENERATING_FUNCTION&#45;&gt;BINOMIAL_RANDOM_VARIABLE</title>
<path fill="none" stroke="black" d="M115.734,-215.975C109.22,-196.687 102.57,-165.914 116,-144 124.189,-130.638 136.836,-120.453 150.579,-112.736"/>
<polygon fill="black" stroke="black" points="152.451,-115.708 159.732,-108.012 149.241,-109.488 152.451,-115.708"/>
</g>
<!-- BERNOULI_RANDOM_VARIABLE -->
<g id="node8" class="node"><title>BERNOULI_RANDOM_VARIABLE</title>
<a xlink:href="BERNOULI_RANDOM_VARIABLE.html" xlink:title="Bernoulli random variable" target="_top">
<polyline fill="none" stroke="black" points="307,-180 137,-180 "/>
<path fill="none" stroke="black" d="M137,-180C131,-180 125,-174 125,-168"/>
<polyline fill="none" stroke="black" points="125,-168 125,-156 "/>
<path fill="none" stroke="black" d="M125,-156C125,-150 131,-144 137,-144"/>
<polyline fill="none" stroke="black" points="137,-144 307,-144 "/>
<path fill="none" stroke="black" d="M307,-144C313,-144 319,-150 319,-156"/>
<polyline fill="none" stroke="black" points="319,-156 319,-168 "/>
<path fill="none" stroke="black" d="M319,-168C319,-174 313,-180 307,-180"/>
<text text-anchor="start" x="133" y="-159.233" font-family="Times Roman,serif" font-size="14.00">Bernoulli random variable</text>
</a>
</g>
<!-- MOMENT_GENERATING_FUNCTION&#45;&gt;BERNOULI_RANDOM_VARIABLE -->
<!-- BASIC_COMBINATORICS -->
<g id="node6" class="node"><title>BASIC_COMBINATORICS</title>
<a xlink:href="BASIC_COMBINATORICS.html" xlink:title="Combinatorics" target="_top">
<polyline fill="none" stroke="black" points="392,-252 302,-252 "/>
<path fill="none" stroke="black" d="M302,-252C296,-252 290,-246 290,-240"/>
<polyline fill="none" stroke="black" points="290,-240 290,-228 "/>
<path fill="none" stroke="black" d="M290,-228C290,-222 296,-216 302,-216"/>
<polyline fill="none" stroke="black" points="302,-216 392,-216 "/>
<path fill="none" stroke="black" d="M392,-216C398,-216 404,-222 404,-228"/>
<polyline fill="none" stroke="black" points="404,-228 404,-240 "/>
<path fill="none" stroke="black" d="M404,-240C404,-246 398,-252 392,-252"/>
<text text-anchor="start" x="298" y="-231.233" font-family="Times Roman,serif" font-size="14.00">Combinatorics</text>
</a>
</g>
<!-- BASIC_COMBINATORICS&#45;&gt;BINOMIAL_RANDOM_VARIABLE -->
<g id="edge6" class="edge"><title>BASIC_COMBINATORICS&#45;&gt;BINOMIAL_RANDOM_VARIABLE</title>
<path fill="none" stroke="black" d="M347.58,-215.897C347.287,-196.257 344.027,-164.915 328,-144 317.857,-130.764 303.568,-120.505 288.757,-112.662"/>
<polygon fill="black" stroke="black" points="290.015,-109.38 279.5,-108.086 286.913,-115.655 290.015,-109.38"/>
</g>
<!-- BERNOULI_RANDOM_VARIABLE&#45;&gt;BINOMIAL_RANDOM_VARIABLE -->
<g id="edge8" class="edge"><title>BERNOULI_RANDOM_VARIABLE&#45;&gt;BINOMIAL_RANDOM_VARIABLE</title>
<path fill="none" stroke="black" d="M222,-143.831C222,-136.131 222,-126.974 222,-118.417"/>
<polygon fill="black" stroke="black" points="225.5,-118.413 222,-108.413 218.5,-118.413 225.5,-118.413"/>
</g>
</g>
</svg>
