<?xml version="1.0" encoding="UTF-8" standalone="no"?>
<!DOCTYPE svg PUBLIC "-//W3C//DTD SVG 1.1//EN"
 "http://www.w3.org/Graphics/SVG/1.1/DTD/svg11.dtd">
<!-- Generated by graphviz version 2.28.0 (20110509.1545)
 -->
<!-- Title: _anonymous_0 Pages: 1 -->
<svg width="342pt" height="260pt"
 viewBox="0.00 0.00 342.00 260.00" xmlns="http://www.w3.org/2000/svg" xmlns:xlink="http://www.w3.org/1999/xlink">
<g id="graph1" class="graph" transform="scale(1 1) rotate(0) translate(4 256)">
<title>_anonymous_0</title>
<!-- BINOMIAL_RANDOM_VARIABLE -->
<g id="node1" class="node"><title>BINOMIAL_RANDOM_VARIABLE</title>
<a xlink:href="BINOMIAL_RANDOM_VARIABLE.html" xlink:title="Binomial random variable" target="_top">
<polyline fill="none" stroke="blue" stroke-width="2" points="193.25,-108 54.75,-108 "/>
<path fill="none" stroke="blue" stroke-width="2" d="M54.75,-108C48.75,-108 42.75,-102 42.75,-96"/>
<polyline fill="none" stroke="blue" stroke-width="2" points="42.75,-96 42.75,-84 "/>
<path fill="none" stroke="blue" stroke-width="2" d="M42.75,-84C42.75,-78 48.75,-72 54.75,-72"/>
<polyline fill="none" stroke="blue" stroke-width="2" points="54.75,-72 193.25,-72 "/>
<path fill="none" stroke="blue" stroke-width="2" d="M193.25,-72C199.25,-72 205.25,-78 205.25,-84"/>
<polyline fill="none" stroke="blue" stroke-width="2" points="205.25,-84 205.25,-96 "/>
<path fill="none" stroke="blue" stroke-width="2" d="M205.25,-96C205.25,-102 199.25,-108 193.25,-108"/>
<text text-anchor="start" x="51" y="-84.5" font-family="Times,serif" font-size="14.00">Binomial random variable</text>
</a>
</g>
<!-- POISSON_RANDOM_VARIABLE -->
<g id="node9" class="node"><title>POISSON_RANDOM_VARIABLE</title>
<a xlink:href="POISSON_RANDOM_VARIABLE.html" xlink:title="The poisson random variable" target="_top">
<polyline fill="none" stroke="black" points="201.25,-36 46.75,-36 "/>
<path fill="none" stroke="black" d="M46.75,-36C40.75,-36 34.75,-30 34.75,-24"/>
<polyline fill="none" stroke="black" points="34.75,-24 34.75,-12 "/>
<path fill="none" stroke="black" d="M34.75,-12C34.75,-6 40.75,-0 46.75,-0"/>
<polyline fill="none" stroke="black" points="46.75,-0 201.25,-0 "/>
<path fill="none" stroke="black" d="M201.25,-0C207.25,-0 213.25,-6 213.25,-12"/>
<polyline fill="none" stroke="black" points="213.25,-12 213.25,-24 "/>
<path fill="none" stroke="black" d="M213.25,-24C213.25,-30 207.25,-36 201.25,-36"/>
<text text-anchor="start" x="43" y="-12.5" font-family="Times,serif" font-size="14.00">The poisson random variable</text>
</a>
</g>
<!-- BINOMIAL_RANDOM_VARIABLE&#45;&gt;POISSON_RANDOM_VARIABLE -->
<g id="edge10" class="edge"><title>BINOMIAL_RANDOM_VARIABLE&#45;&gt;POISSON_RANDOM_VARIABLE</title>
<path fill="none" stroke="black" d="M124,-71.6966C124,-63.9827 124,-54.7125 124,-46.1124"/>
<polygon fill="black" stroke="black" points="127.5,-46.1043 124,-36.1043 120.5,-46.1044 127.5,-46.1043"/>
</g>
<!-- BASIC_COMBINATORICS -->
<g id="node2" class="node"><title>BASIC_COMBINATORICS</title>
<a xlink:href="BASIC_COMBINATORICS.html" xlink:title="Combinatorics" target="_top">
<polyline fill="none" stroke="black" points="86.25,-252 11.75,-252 "/>
<path fill="none" stroke="black" d="M11.75,-252C5.75,-252 -0.25,-246 -0.25,-240"/>
<polyline fill="none" stroke="black" points="-0.25,-240 -0.25,-228 "/>
<path fill="none" stroke="black" d="M-0.25,-228C-0.25,-222 5.75,-216 11.75,-216"/>
<polyline fill="none" stroke="black" points="11.75,-216 86.25,-216 "/>
<path fill="none" stroke="black" d="M86.25,-216C92.25,-216 98.25,-222 98.25,-228"/>
<polyline fill="none" stroke="black" points="98.25,-228 98.25,-240 "/>
<path fill="none" stroke="black" d="M98.25,-240C98.25,-246 92.25,-252 86.25,-252"/>
<text text-anchor="start" x="8" y="-228.5" font-family="Times,serif" font-size="14.00">Combinatorics</text>
</a>
</g>
<!-- BASIC_COMBINATORICS&#45;&gt;BINOMIAL_RANDOM_VARIABLE -->
<g id="edge2" class="edge"><title>BASIC_COMBINATORICS&#45;&gt;BINOMIAL_RANDOM_VARIABLE</title>
<path fill="none" stroke="black" d="M33.4079,-215.688C18.6117,-197.054 0.611298,-166.996 15,-144 23.5498,-130.336 36.7423,-120.104 51.0337,-112.473"/>
<polygon fill="black" stroke="black" points="52.608,-115.599 60.0423,-108.05 49.5233,-109.315 52.608,-115.599"/>
</g>
<!-- MOMENT_GENERATING_FUNCTION -->
<g id="node6" class="node"><title>MOMENT_GENERATING_FUNCTION</title>
<a xlink:href="MOMENT_GENERATING_FUNCTION.html" xlink:title="The moment generating function" target="_top">
<polyline fill="none" stroke="black" points="212,-180 36,-180 "/>
<path fill="none" stroke="black" d="M36,-180C30,-180 24,-174 24,-168"/>
<polyline fill="none" stroke="black" points="24,-168 24,-156 "/>
<path fill="none" stroke="black" d="M24,-156C24,-150 30,-144 36,-144"/>
<polyline fill="none" stroke="black" points="36,-144 212,-144 "/>
<path fill="none" stroke="black" d="M212,-144C218,-144 224,-150 224,-156"/>
<polyline fill="none" stroke="black" points="224,-156 224,-168 "/>
<path fill="none" stroke="black" d="M224,-168C224,-174 218,-180 212,-180"/>
<text text-anchor="start" x="32.5" y="-156.5" font-family="Times,serif" font-size="14.00">The moment generating function</text>
</a>
</g>
<!-- BASIC_COMBINATORICS&#45;&gt;MOMENT_GENERATING_FUNCTION -->
<!-- BERNOULI_RANDOM_VARIABLE -->
<g id="node4" class="node"><title>BERNOULI_RANDOM_VARIABLE</title>
<a xlink:href="BERNOULI_RANDOM_VARIABLE.html" xlink:title="Bernoulli random variable" target="_top">
<polyline fill="none" stroke="black" points="322,-252 182,-252 "/>
<path fill="none" stroke="black" d="M182,-252C176,-252 170,-246 170,-240"/>
<polyline fill="none" stroke="black" points="170,-240 170,-228 "/>
<path fill="none" stroke="black" d="M170,-228C170,-222 176,-216 182,-216"/>
<polyline fill="none" stroke="black" points="182,-216 322,-216 "/>
<path fill="none" stroke="black" d="M322,-216C328,-216 334,-222 334,-228"/>
<polyline fill="none" stroke="black" points="334,-228 334,-240 "/>
<path fill="none" stroke="black" d="M334,-240C334,-246 328,-252 322,-252"/>
<text text-anchor="start" x="178.5" y="-228.5" font-family="Times,serif" font-size="14.00">Bernoulli random variable</text>
</a>
</g>
<!-- BERNOULI_RANDOM_VARIABLE&#45;&gt;BINOMIAL_RANDOM_VARIABLE -->
<g id="edge4" class="edge"><title>BERNOULI_RANDOM_VARIABLE&#45;&gt;BINOMIAL_RANDOM_VARIABLE</title>
<path fill="none" stroke="black" d="M252.605,-215.741C252.396,-196.319 249.266,-164.775 233,-144 222.373,-130.427 207.385,-120.114 191.916,-112.364"/>
<polygon fill="black" stroke="black" points="193.323,-109.158 182.782,-108.091 190.357,-115.499 193.323,-109.158"/>
</g>
<!-- MOMENT_GENERATING_FUNCTION&#45;&gt;BINOMIAL_RANDOM_VARIABLE -->
<g id="edge6" class="edge"><title>MOMENT_GENERATING_FUNCTION&#45;&gt;BINOMIAL_RANDOM_VARIABLE</title>
<path fill="none" stroke="black" d="M124,-143.697C124,-135.983 124,-126.712 124,-118.112"/>
<polygon fill="black" stroke="black" points="127.5,-118.104 124,-108.104 120.5,-118.104 127.5,-118.104"/>
</g>
</g>
</svg>
