<?xml version="1.0" encoding="UTF-8" standalone="no"?>
<!DOCTYPE svg PUBLIC "-//W3C//DTD SVG 1.1//EN"
 "http://www.w3.org/Graphics/SVG/1.1/DTD/svg11.dtd">
<!-- Generated by graphviz version 2.28.0 (20110509.1545)
 -->
<!-- Title: _anonymous_0 Pages: 1 -->
<svg width="325pt" height="188pt"
 viewBox="0.00 0.00 325.00 188.00" xmlns="http://www.w3.org/2000/svg" xmlns:xlink="http://www.w3.org/1999/xlink">
<g id="graph1" class="graph" transform="scale(1 1) rotate(0) translate(4 184)">
<title>_anonymous_0</title>
<!-- BINOMIAL_RANDOM_VARIABLE -->
<g id="node1" class="node"><title>BINOMIAL_RANDOM_VARIABLE</title>
<a xlink:href="BINOMIAL_RANDOM_VARIABLE.html" xlink:title="Binomial random variable" target="_top">
<polyline fill="none" stroke="blue" stroke-width="2" points="202.25,-108 63.75,-108 "/>
<path fill="none" stroke="blue" stroke-width="2" d="M63.75,-108C57.75,-108 51.75,-102 51.75,-96"/>
<polyline fill="none" stroke="blue" stroke-width="2" points="51.75,-96 51.75,-84 "/>
<path fill="none" stroke="blue" stroke-width="2" d="M51.75,-84C51.75,-78 57.75,-72 63.75,-72"/>
<polyline fill="none" stroke="blue" stroke-width="2" points="63.75,-72 202.25,-72 "/>
<path fill="none" stroke="blue" stroke-width="2" d="M202.25,-72C208.25,-72 214.25,-78 214.25,-84"/>
<polyline fill="none" stroke="blue" stroke-width="2" points="214.25,-84 214.25,-96 "/>
<path fill="none" stroke="blue" stroke-width="2" d="M214.25,-96C214.25,-102 208.25,-108 202.25,-108"/>
<text text-anchor="start" x="60" y="-84.5" font-family="Times,serif" font-size="14.00">Binomial random variable</text>
</a>
</g>
<!-- POISSON_RANDOM_VARIABLE -->
<g id="node6" class="node"><title>POISSON_RANDOM_VARIABLE</title>
<a xlink:href="POISSON_RANDOM_VARIABLE.html" xlink:title="The poisson random variable" target="_top">
<polyline fill="none" stroke="black" points="210.25,-36 55.75,-36 "/>
<path fill="none" stroke="black" d="M55.75,-36C49.75,-36 43.75,-30 43.75,-24"/>
<polyline fill="none" stroke="black" points="43.75,-24 43.75,-12 "/>
<path fill="none" stroke="black" d="M43.75,-12C43.75,-6 49.75,-0 55.75,-0"/>
<polyline fill="none" stroke="black" points="55.75,-0 210.25,-0 "/>
<path fill="none" stroke="black" d="M210.25,-0C216.25,-0 222.25,-6 222.25,-12"/>
<polyline fill="none" stroke="black" points="222.25,-12 222.25,-24 "/>
<path fill="none" stroke="black" d="M222.25,-24C222.25,-30 216.25,-36 210.25,-36"/>
<text text-anchor="start" x="52" y="-12.5" font-family="Times,serif" font-size="14.00">The poisson random variable</text>
</a>
</g>
<!-- BINOMIAL_RANDOM_VARIABLE&#45;&gt;POISSON_RANDOM_VARIABLE -->
<g id="edge6" class="edge"><title>BINOMIAL_RANDOM_VARIABLE&#45;&gt;POISSON_RANDOM_VARIABLE</title>
<path fill="none" stroke="black" d="M133,-71.6966C133,-63.9827 133,-54.7125 133,-46.1124"/>
<polygon fill="black" stroke="black" points="136.5,-46.1043 133,-36.1043 129.5,-46.1044 136.5,-46.1043"/>
</g>
<!-- BASIC_COMBINATORICS -->
<g id="node2" class="node"><title>BASIC_COMBINATORICS</title>
<a xlink:href="BASIC_COMBINATORICS.html" xlink:title="Combinatorics" target="_top">
<polyline fill="none" stroke="black" points="86.25,-180 11.75,-180 "/>
<path fill="none" stroke="black" d="M11.75,-180C5.75,-180 -0.25,-174 -0.25,-168"/>
<polyline fill="none" stroke="black" points="-0.25,-168 -0.25,-156 "/>
<path fill="none" stroke="black" d="M-0.25,-156C-0.25,-150 5.75,-144 11.75,-144"/>
<polyline fill="none" stroke="black" points="11.75,-144 86.25,-144 "/>
<path fill="none" stroke="black" d="M86.25,-144C92.25,-144 98.25,-150 98.25,-156"/>
<polyline fill="none" stroke="black" points="98.25,-156 98.25,-168 "/>
<path fill="none" stroke="black" d="M98.25,-168C98.25,-174 92.25,-180 86.25,-180"/>
<text text-anchor="start" x="8" y="-156.5" font-family="Times,serif" font-size="14.00">Combinatorics</text>
</a>
</g>
<!-- BASIC_COMBINATORICS&#45;&gt;BINOMIAL_RANDOM_VARIABLE -->
<g id="edge2" class="edge"><title>BASIC_COMBINATORICS&#45;&gt;BINOMIAL_RANDOM_VARIABLE</title>
<path fill="none" stroke="black" d="M69.7641,-143.697C80.2414,-134.965 93.1114,-124.24 104.5,-114.75"/>
<polygon fill="black" stroke="black" points="107.033,-117.195 112.475,-108.104 102.552,-111.817 107.033,-117.195"/>
</g>
<!-- MOMENT_GENERATING_FUNCTION -->
<g id="node4" class="node"><title>MOMENT_GENERATING_FUNCTION</title>
<a xlink:href="MOMENT_GENERATING_FUNCTION.html" xlink:title="The moment generating function" target="_top">
<polyline fill="none" stroke="black" points="305,-180 129,-180 "/>
<path fill="none" stroke="black" d="M129,-180C123,-180 117,-174 117,-168"/>
<polyline fill="none" stroke="black" points="117,-168 117,-156 "/>
<path fill="none" stroke="black" d="M117,-156C117,-150 123,-144 129,-144"/>
<polyline fill="none" stroke="black" points="129,-144 305,-144 "/>
<path fill="none" stroke="black" d="M305,-144C311,-144 317,-150 317,-156"/>
<polyline fill="none" stroke="black" points="317,-156 317,-168 "/>
<path fill="none" stroke="black" d="M317,-168C317,-174 311,-180 305,-180"/>
<text text-anchor="start" x="125.5" y="-156.5" font-family="Times,serif" font-size="14.00">The moment generating function</text>
</a>
</g>
<!-- MOMENT_GENERATING_FUNCTION&#45;&gt;BINOMIAL_RANDOM_VARIABLE -->
<g id="edge4" class="edge"><title>MOMENT_GENERATING_FUNCTION&#45;&gt;BINOMIAL_RANDOM_VARIABLE</title>
<path fill="none" stroke="black" d="M196.236,-143.697C185.759,-134.965 172.889,-124.24 161.5,-114.75"/>
<polygon fill="black" stroke="black" points="163.448,-111.817 153.525,-108.104 158.967,-117.195 163.448,-111.817"/>
</g>
</g>
</svg>
