<?xml version="1.0" encoding="UTF-8" standalone="no"?>
<!DOCTYPE svg PUBLIC "-//W3C//DTD SVG 1.1//EN"
 "http://www.w3.org/Graphics/SVG/1.1/DTD/svg11.dtd">
<!-- Generated by graphviz version 2.26.3 (20100126.1600)
 -->
<!-- Title: _anonymous_0 Pages: 1 -->
<svg width="399pt" height="260pt"
 viewBox="0.00 0.00 399.00 260.00" xmlns="http://www.w3.org/2000/svg" xmlns:xlink="http://www.w3.org/1999/xlink">
<g id="graph1" class="graph" transform="scale(1 1) rotate(0) translate(4 256)">
<title>_anonymous_0</title>
<!-- BINOMIAL_RANDOM_VARIABLE -->
<g id="node1" class="node"><title>BINOMIAL_RANDOM_VARIABLE</title>
<a xlink:href="BINOMIAL_RANDOM_VARIABLE.html" xlink:title="Binomial random variable" target="_top">
<polyline fill="none" stroke="blue" stroke-width="2" points="267,-108 99,-108 "/>
<path fill="none" stroke="blue" stroke-width="2" d="M99,-108C93,-108 87,-102 87,-96"/>
<polyline fill="none" stroke="blue" stroke-width="2" points="87,-96 87,-84 "/>
<path fill="none" stroke="blue" stroke-width="2" d="M87,-84C87,-78 93,-72 99,-72"/>
<polyline fill="none" stroke="blue" stroke-width="2" points="99,-72 267,-72 "/>
<path fill="none" stroke="blue" stroke-width="2" d="M267,-72C273,-72 279,-78 279,-84"/>
<polyline fill="none" stroke="blue" stroke-width="2" points="279,-84 279,-96 "/>
<path fill="none" stroke="blue" stroke-width="2" d="M279,-96C279,-102 273,-108 267,-108"/>
<text text-anchor="start" x="95" y="-87.2333" font-family="Times Roman,serif" font-size="14.00">Binomial random variable</text>
</a>
</g>
<!-- POISSON_RANDOM_VARIABLE -->
<g id="node9" class="node"><title>POISSON_RANDOM_VARIABLE</title>
<a xlink:href="POISSON_RANDOM_VARIABLE.html" xlink:title="The poisson random variable" target="_top">
<polyline fill="none" stroke="black" points="279,-36 87,-36 "/>
<path fill="none" stroke="black" d="M87,-36C81,-36 75,-30 75,-24"/>
<polyline fill="none" stroke="black" points="75,-24 75,-12 "/>
<path fill="none" stroke="black" d="M75,-12C75,-6 81,-1.73688e-14 87,-1.69741e-14"/>
<polyline fill="none" stroke="black" points="87,-1.69741e-14 279,-4.34221e-15 "/>
<path fill="none" stroke="black" d="M279,-4.34221e-15C285,-3.94746e-15 291,-6 291,-12"/>
<polyline fill="none" stroke="black" points="291,-12 291,-24 "/>
<path fill="none" stroke="black" d="M291,-24C291,-30 285,-36 279,-36"/>
<text text-anchor="start" x="83.5" y="-15.2333" font-family="Times Roman,serif" font-size="14.00">The poisson random variable</text>
</a>
</g>
<!-- BINOMIAL_RANDOM_VARIABLE&#45;&gt;POISSON_RANDOM_VARIABLE -->
<g id="edge10" class="edge"><title>BINOMIAL_RANDOM_VARIABLE&#45;&gt;POISSON_RANDOM_VARIABLE</title>
<path fill="none" stroke="black" d="M183,-71.8314C183,-64.131 183,-54.9743 183,-46.4166"/>
<polygon fill="black" stroke="black" points="186.5,-46.4132 183,-36.4133 179.5,-46.4133 186.5,-46.4132"/>
</g>
<!-- BERNOULI_RANDOM_VARIABLE -->
<g id="node2" class="node"><title>BERNOULI_RANDOM_VARIABLE</title>
<a xlink:href="BERNOULI_RANDOM_VARIABLE.html" xlink:title="Bernoulli random variable" target="_top">
<polyline fill="none" stroke="black" points="182,-252 12,-252 "/>
<path fill="none" stroke="black" d="M12,-252C6,-252 7.10543e-14,-246 5.68434e-14,-240"/>
<polyline fill="none" stroke="black" points="5.68434e-14,-240 2.84217e-14,-228 "/>
<path fill="none" stroke="black" d="M2.84217e-14,-228C1.42109e-14,-222 6,-216 12,-216"/>
<polyline fill="none" stroke="black" points="12,-216 182,-216 "/>
<path fill="none" stroke="black" d="M182,-216C188,-216 194,-222 194,-228"/>
<polyline fill="none" stroke="black" points="194,-228 194,-240 "/>
<path fill="none" stroke="black" d="M194,-240C194,-246 188,-252 182,-252"/>
<text text-anchor="start" x="8" y="-231.233" font-family="Times Roman,serif" font-size="14.00">Bernoulli random variable</text>
</a>
</g>
<!-- BERNOULI_RANDOM_VARIABLE&#45;&gt;BINOMIAL_RANDOM_VARIABLE -->
<g id="edge2" class="edge"><title>BERNOULI_RANDOM_VARIABLE&#45;&gt;BINOMIAL_RANDOM_VARIABLE</title>
<path fill="none" stroke="black" d="M76.1918,-215.707C57.5067,-197.006 35.2528,-167.456 51,-144 60.2003,-130.296 73.5601,-120.067 88.2892,-112.433"/>
<polygon fill="black" stroke="black" points="90.0794,-115.458 97.6122,-108.007 87.0774,-109.134 90.0794,-115.458"/>
</g>
<!-- MOMENT_GENERATING_FUNCTION -->
<g id="node6" class="node"><title>MOMENT_GENERATING_FUNCTION</title>
<a xlink:href="MOMENT_GENERATING_FUNCTION.html" xlink:title="The moment generating function" target="_top">
<polyline fill="none" stroke="black" points="294,-180 72,-180 "/>
<path fill="none" stroke="black" d="M72,-180C66,-180 60,-174 60,-168"/>
<polyline fill="none" stroke="black" points="60,-168 60,-156 "/>
<path fill="none" stroke="black" d="M60,-156C60,-150 66,-144 72,-144"/>
<polyline fill="none" stroke="black" points="72,-144 294,-144 "/>
<path fill="none" stroke="black" d="M294,-144C300,-144 306,-150 306,-156"/>
<polyline fill="none" stroke="black" points="306,-156 306,-168 "/>
<path fill="none" stroke="black" d="M306,-168C306,-174 300,-180 294,-180"/>
<text text-anchor="start" x="68.5" y="-159.233" font-family="Times Roman,serif" font-size="14.00">The moment generating function</text>
</a>
</g>
<!-- BERNOULI_RANDOM_VARIABLE&#45;&gt;MOMENT_GENERATING_FUNCTION -->
<!-- BASIC_COMBINATORICS -->
<g id="node4" class="node"><title>BASIC_COMBINATORICS</title>
<a xlink:href="BASIC_COMBINATORICS.html" xlink:title="Combinatorics" target="_top">
<polyline fill="none" stroke="black" points="379,-252 289,-252 "/>
<path fill="none" stroke="black" d="M289,-252C283,-252 277,-246 277,-240"/>
<polyline fill="none" stroke="black" points="277,-240 277,-228 "/>
<path fill="none" stroke="black" d="M277,-228C277,-222 283,-216 289,-216"/>
<polyline fill="none" stroke="black" points="289,-216 379,-216 "/>
<path fill="none" stroke="black" d="M379,-216C385,-216 391,-222 391,-228"/>
<polyline fill="none" stroke="black" points="391,-228 391,-240 "/>
<path fill="none" stroke="black" d="M391,-240C391,-246 385,-252 379,-252"/>
<text text-anchor="start" x="285" y="-231.233" font-family="Times Roman,serif" font-size="14.00">Combinatorics</text>
</a>
</g>
<!-- BASIC_COMBINATORICS&#45;&gt;BINOMIAL_RANDOM_VARIABLE -->
<g id="edge4" class="edge"><title>BASIC_COMBINATORICS&#45;&gt;BINOMIAL_RANDOM_VARIABLE</title>
<path fill="none" stroke="black" d="M334.903,-215.998C334.929,-196.155 331.982,-164.356 315,-144 303.424,-130.124 287.719,-119.77 271.182,-112.059"/>
<polygon fill="black" stroke="black" points="272.496,-108.814 261.929,-108.041 269.708,-115.235 272.496,-108.814"/>
</g>
<!-- MOMENT_GENERATING_FUNCTION&#45;&gt;BINOMIAL_RANDOM_VARIABLE -->
<g id="edge6" class="edge"><title>MOMENT_GENERATING_FUNCTION&#45;&gt;BINOMIAL_RANDOM_VARIABLE</title>
<path fill="none" stroke="black" d="M183,-143.831C183,-136.131 183,-126.974 183,-118.417"/>
<polygon fill="black" stroke="black" points="186.5,-118.413 183,-108.413 179.5,-118.413 186.5,-118.413"/>
</g>
</g>
</svg>
