<?xml version="1.0" encoding="UTF-8" standalone="no"?>
<!DOCTYPE svg PUBLIC "-//W3C//DTD SVG 1.1//EN"
 "http://www.w3.org/Graphics/SVG/1.1/DTD/svg11.dtd">
<!-- Generated by graphviz version 2.36.0 (20140111.2315)
 -->
<!-- Title: %3 Pages: 1 -->
<svg width="740pt" height="404pt"
 viewBox="0.00 0.00 739.60 404.00" xmlns="http://www.w3.org/2000/svg" xmlns:xlink="http://www.w3.org/1999/xlink">
<g id="graph0" class="graph" transform="scale(1 1) rotate(0) translate(4 400)">
<title>%3</title>
<!-- CANONICAL_ENSEMBLE -->
<g id="node1" class="node"><title>CANONICAL_ENSEMBLE</title>
<g id="a_node1"><a xlink:href="CANONICAL_ENSEMBLE.html" xlink:title=" The canonical ensemble " target="_top">
<path fill="none" stroke="blue" stroke-width="2" d="M542,-324C542,-324 410,-324 410,-324 404,-324 398,-318 398,-312 398,-312 398,-300 398,-300 398,-294 404,-288 410,-288 410,-288 542,-288 542,-288 548,-288 554,-294 554,-300 554,-300 554,-312 554,-312 554,-318 548,-324 542,-324"/>
<text text-anchor="start" x="406" y="-302.3" font-family="Times,serif" font-size="14.00"> The canonical ensemble </text>
</a>
</g>
</g>
<!-- THERMODYNAMIC_POTENTIALS -->
<g id="node2" class="node"><title>THERMODYNAMIC_POTENTIALS</title>
<g id="a_node2"><a xlink:href="THERMODYNAMIC_POTENTIALS.html" xlink:title=" Thermodynamic Potentials " target="_top">
<path fill="none" stroke="black" d="M257,-252C257,-252 109,-252 109,-252 103,-252 97,-246 97,-240 97,-240 97,-228 97,-228 97,-222 103,-216 109,-216 109,-216 257,-216 257,-216 263,-216 269,-222 269,-228 269,-228 269,-240 269,-240 269,-246 263,-252 257,-252"/>
<text text-anchor="start" x="105" y="-230.3" font-family="Times,serif" font-size="14.00"> Thermodynamic Potentials </text>
</a>
</g>
</g>
<!-- CANONICAL_ENSEMBLE&#45;&gt;THERMODYNAMIC_POTENTIALS -->
<g id="edge1" class="edge"><title>CANONICAL_ENSEMBLE&#45;&gt;THERMODYNAMIC_POTENTIALS</title>
<path fill="none" stroke="black" d="M404.699,-287.966C362.257,-277.826 308.264,-264.927 264.188,-254.396"/>
<polygon fill="black" stroke="black" points="264.906,-250.97 254.367,-252.05 263.28,-257.778 264.906,-250.97"/>
</g>
<!-- ISING_MODEL -->
<g id="node3" class="node"><title>ISING_MODEL</title>
<g id="a_node3"><a xlink:href="ISING_MODEL.html" xlink:title=" The Ising Model " target="_top">
<path fill="none" stroke="black" d="M397.5,-252C397.5,-252 306.5,-252 306.5,-252 300.5,-252 294.5,-246 294.5,-240 294.5,-240 294.5,-228 294.5,-228 294.5,-222 300.5,-216 306.5,-216 306.5,-216 397.5,-216 397.5,-216 403.5,-216 409.5,-222 409.5,-228 409.5,-228 409.5,-240 409.5,-240 409.5,-246 403.5,-252 397.5,-252"/>
<text text-anchor="start" x="302" y="-230.3" font-family="Times,serif" font-size="14.00"> The Ising Model </text>
</a>
</g>
</g>
<!-- CANONICAL_ENSEMBLE&#45;&gt;ISING_MODEL -->
<g id="edge2" class="edge"><title>CANONICAL_ENSEMBLE&#45;&gt;ISING_MODEL</title>
<path fill="none" stroke="black" d="M445.666,-287.876C429.303,-278.639 408.917,-267.131 391.346,-257.212"/>
<polygon fill="black" stroke="black" points="392.879,-254.058 382.45,-252.19 389.438,-260.154 392.879,-254.058"/>
</g>
<!-- LATTICE_GAS -->
<g id="node4" class="node"><title>LATTICE_GAS</title>
<g id="a_node4"><a xlink:href="LATTICE_GAS.html" xlink:title=" Statistical mechanics of independent&#45;distinguisable systems " target="_top">
<path fill="none" stroke="black" d="M338,-180C338,-180 12,-180 12,-180 6,-180 0,-174 0,-168 0,-168 0,-156 0,-156 0,-150 6,-144 12,-144 12,-144 338,-144 338,-144 344,-144 350,-150 350,-156 350,-156 350,-168 350,-168 350,-174 344,-180 338,-180"/>
<text text-anchor="start" x="8" y="-158.3" font-family="Times,serif" font-size="14.00"> Statistical mechanics of independent&#45;distinguisable systems </text>
</a>
</g>
</g>
<!-- CANONICAL_ENSEMBLE&#45;&gt;LATTICE_GAS -->
<g id="edge3" class="edge"><title>CANONICAL_ENSEMBLE&#45;&gt;LATTICE_GAS</title>
<path fill="none" stroke="black" d="M469.498,-287.645C460.915,-267.211 443.806,-233.806 418,-216 396.807,-201.377 372.302,-190.69 347.178,-182.9"/>
<polygon fill="black" stroke="black" points="348.106,-179.524 337.525,-180.054 346.127,-186.239 348.106,-179.524"/>
</g>
<!-- ADSORPTION -->
<g id="node6" class="node"><title>ADSORPTION</title>
<g id="a_node6"><a xlink:href="ADSORPTION.html" xlink:title=" Statistical mechanics of adsorption " target="_top">
<path fill="none" stroke="black" d="M571.25,-180C571.25,-180 380.75,-180 380.75,-180 374.75,-180 368.75,-174 368.75,-168 368.75,-168 368.75,-156 368.75,-156 368.75,-150 374.75,-144 380.75,-144 380.75,-144 571.25,-144 571.25,-144 577.25,-144 583.25,-150 583.25,-156 583.25,-156 583.25,-168 583.25,-168 583.25,-174 577.25,-180 571.25,-180"/>
<text text-anchor="start" x="376.5" y="-158.3" font-family="Times,serif" font-size="14.00"> Statistical mechanics of adsorption </text>
</a>
</g>
</g>
<!-- CANONICAL_ENSEMBLE&#45;&gt;ADSORPTION -->
<g id="edge6" class="edge"><title>CANONICAL_ENSEMBLE&#45;&gt;ADSORPTION</title>
<path fill="none" stroke="black" d="M476,-287.871C476,-263.67 476,-219.211 476,-190.393"/>
<polygon fill="black" stroke="black" points="479.5,-190.189 476,-180.189 472.5,-190.189 479.5,-190.189"/>
</g>
<!-- PARTITION_FUNCTION_FOR_MOLECULES -->
<g id="node8" class="node"><title>PARTITION_FUNCTION_FOR_MOLECULES</title>
<g id="a_node8"><a xlink:href="PARTITION_FUNCTION_FOR_MOLECULES.html" xlink:title=" The partition function for molecular gasses " target="_top">
<path fill="none" stroke="black" d="M552,-108C552,-108 316,-108 316,-108 310,-108 304,-102 304,-96 304,-96 304,-84 304,-84 304,-78 310,-72 316,-72 316,-72 552,-72 552,-72 558,-72 564,-78 564,-84 564,-84 564,-96 564,-96 564,-102 558,-108 552,-108"/>
<text text-anchor="start" x="312" y="-86.3" font-family="Times,serif" font-size="14.00"> The partition function for molecular gasses </text>
</a>
</g>
</g>
<!-- CANONICAL_ENSEMBLE&#45;&gt;PARTITION_FUNCTION_FOR_MOLECULES -->
<g id="edge8" class="edge"><title>CANONICAL_ENSEMBLE&#45;&gt;PARTITION_FUNCTION_FOR_MOLECULES</title>
<path fill="none" stroke="black" d="M504.573,-287.85C549.959,-258.43 629.72,-196.438 592,-144 582.043,-130.158 568.297,-119.88 553.034,-112.259"/>
<polygon fill="black" stroke="black" points="554.439,-109.053 543.89,-108.073 551.525,-115.418 554.439,-109.053"/>
</g>
<!-- IDEAL_GAS -->
<g id="node9" class="node"><title>IDEAL_GAS</title>
<g id="a_node9"><a xlink:href="IDEAL_GAS.html" xlink:title=" The ideal gas model " target="_top">
<path fill="none" stroke="black" d="M705.25,-108C705.25,-108 594.75,-108 594.75,-108 588.75,-108 582.75,-102 582.75,-96 582.75,-96 582.75,-84 582.75,-84 582.75,-78 588.75,-72 594.75,-72 594.75,-72 705.25,-72 705.25,-72 711.25,-72 717.25,-78 717.25,-84 717.25,-84 717.25,-96 717.25,-96 717.25,-102 711.25,-108 705.25,-108"/>
<text text-anchor="start" x="590.5" y="-86.3" font-family="Times,serif" font-size="14.00"> The ideal gas model </text>
</a>
</g>
</g>
<!-- CANONICAL_ENSEMBLE&#45;&gt;IDEAL_GAS -->
<g id="edge10" class="edge"><title>CANONICAL_ENSEMBLE&#45;&gt;IDEAL_GAS</title>
<path fill="none" stroke="black" d="M529.32,-287.915C548.559,-279.589 569.165,-267.867 584,-252 619.899,-213.605 637.488,-153.025 645.073,-118.156"/>
<polygon fill="black" stroke="black" points="648.532,-118.712 647.115,-108.212 641.675,-117.304 648.532,-118.712"/>
</g>
<!-- MONTE_CARLO -->
<g id="node10" class="node"><title>MONTE_CARLO</title>
<g id="a_node10"><a xlink:href="MONTE_CARLO.html" xlink:title=" Monte Carlo Simulation " target="_top">
<path fill="none" stroke="black" d="M656.5,-36C656.5,-36 523.5,-36 523.5,-36 517.5,-36 511.5,-30 511.5,-24 511.5,-24 511.5,-12 511.5,-12 511.5,-6 517.5,-0 523.5,-0 523.5,-0 656.5,-0 656.5,-0 662.5,-0 668.5,-6 668.5,-12 668.5,-12 668.5,-24 668.5,-24 668.5,-30 662.5,-36 656.5,-36"/>
<text text-anchor="start" x="519" y="-14.3" font-family="Times,serif" font-size="14.00"> Monte Carlo Simulation </text>
</a>
</g>
</g>
<!-- CANONICAL_ENSEMBLE&#45;&gt;MONTE_CARLO -->
<g id="edge11" class="edge"><title>CANONICAL_ENSEMBLE&#45;&gt;MONTE_CARLO</title>
<path fill="none" stroke="black" d="M538.949,-287.933C562.937,-279.541 589.622,-267.768 611,-252 676.915,-203.383 698.922,-185.299 726,-108 731.29,-92.8997 735.029,-85.209 726,-72 714.562,-55.2666 696.995,-43.8158 678.245,-35.98"/>
<polygon fill="black" stroke="black" points="679.255,-32.6189 668.664,-32.31 676.751,-39.1557 679.255,-32.6189"/>
</g>
<!-- THERMODYNAMIC_POTENTIALS&#45;&gt;LATTICE_GAS -->
<!-- LATTICE_GAS&#45;&gt;PARTITION_FUNCTION_FOR_MOLECULES -->
<!-- RESPONSE_FUNCTIONS -->
<g id="node5" class="node"><title>RESPONSE_FUNCTIONS</title>
<g id="a_node5"><a xlink:href="RESPONSE_FUNCTIONS.html" xlink:title=" Response functions " target="_top">
<path fill="none" stroke="black" d="M435,-396C435,-396 329,-396 329,-396 323,-396 317,-390 317,-384 317,-384 317,-372 317,-372 317,-366 323,-360 329,-360 329,-360 435,-360 435,-360 441,-360 447,-366 447,-372 447,-372 447,-384 447,-384 447,-390 441,-396 435,-396"/>
<text text-anchor="start" x="325" y="-374.3" font-family="Times,serif" font-size="14.00"> Response functions </text>
</a>
</g>
</g>
<!-- RESPONSE_FUNCTIONS&#45;&gt;CANONICAL_ENSEMBLE -->
<g id="edge5" class="edge"><title>RESPONSE_FUNCTIONS&#45;&gt;CANONICAL_ENSEMBLE</title>
<path fill="none" stroke="black" d="M405.236,-359.697C417.188,-350.796 431.923,-339.823 444.847,-330.199"/>
<polygon fill="black" stroke="black" points="447.101,-332.884 453.031,-324.104 442.92,-327.27 447.101,-332.884"/>
</g>
<!-- GENERALIZED_PARTITION_FUNCTION -->
<g id="node7" class="node"><title>GENERALIZED_PARTITION_FUNCTION</title>
<g id="a_node7"><a xlink:href="GENERALIZED_PARTITION_FUNCTION.html" xlink:title=" The generalized partition function " target="_top">
<path fill="none" stroke="black" d="M662.25,-396C662.25,-396 477.75,-396 477.75,-396 471.75,-396 465.75,-390 465.75,-384 465.75,-384 465.75,-372 465.75,-372 465.75,-366 471.75,-360 477.75,-360 477.75,-360 662.25,-360 662.25,-360 668.25,-360 674.25,-366 674.25,-372 674.25,-372 674.25,-384 674.25,-384 674.25,-390 668.25,-396 662.25,-396"/>
<text text-anchor="start" x="473.5" y="-374.3" font-family="Times,serif" font-size="14.00"> The generalized partition function </text>
</a>
</g>
</g>
<!-- GENERALIZED_PARTITION_FUNCTION&#45;&gt;CANONICAL_ENSEMBLE -->
<g id="edge7" class="edge"><title>GENERALIZED_PARTITION_FUNCTION&#45;&gt;CANONICAL_ENSEMBLE</title>
<path fill="none" stroke="black" d="M546.764,-359.697C534.812,-350.796 520.077,-339.823 507.153,-330.199"/>
<polygon fill="black" stroke="black" points="509.08,-327.27 498.969,-324.104 504.899,-332.884 509.08,-327.27"/>
</g>
<!-- PARTITION_FUNCTION_FOR_MOLECULES&#45;&gt;MONTE_CARLO -->
</g>
</svg>
