<?xml version="1.0" encoding="UTF-8" standalone="no"?>
<!DOCTYPE svg PUBLIC "-//W3C//DTD SVG 1.1//EN"
 "http://www.w3.org/Graphics/SVG/1.1/DTD/svg11.dtd">
<!-- Generated by graphviz version 2.26.3 (20100126.1600)
 -->
<!-- Title: _anonymous_0 Pages: 1 -->
<svg width="787pt" height="404pt"
 viewBox="0.00 0.00 786.55 404.00" xmlns="http://www.w3.org/2000/svg" xmlns:xlink="http://www.w3.org/1999/xlink">
<g id="graph1" class="graph" transform="scale(1 1) rotate(0) translate(4 400)">
<title>_anonymous_0</title>
<!-- CANONICAL_ENSEMBLE -->
<g id="node1" class="node"><title>CANONICAL_ENSEMBLE</title>
<a xlink:href="CANONICAL_ENSEMBLE.html" xlink:title=" The canonical ensemble " target="_top">
<polyline fill="none" stroke="blue" stroke-width="2" points="539,-324 373,-324 "/>
<path fill="none" stroke="blue" stroke-width="2" d="M373,-324C367,-324 361,-318 361,-312"/>
<polyline fill="none" stroke="blue" stroke-width="2" points="361,-312 361,-300 "/>
<path fill="none" stroke="blue" stroke-width="2" d="M361,-300C361,-294 367,-288 373,-288"/>
<polyline fill="none" stroke="blue" stroke-width="2" points="373,-288 539,-288 "/>
<path fill="none" stroke="blue" stroke-width="2" d="M539,-288C545,-288 551,-294 551,-300"/>
<polyline fill="none" stroke="blue" stroke-width="2" points="551,-300 551,-312 "/>
<path fill="none" stroke="blue" stroke-width="2" d="M551,-312C551,-318 545,-324 539,-324"/>
<text text-anchor="start" x="369" y="-303.233" font-family="Times Roman,serif" font-size="14.00"> The canonical ensemble </text>
</a>
</g>
<!-- IDEAL_GAS -->
<g id="node2" class="node"><title>IDEAL_GAS</title>
<a xlink:href="IDEAL_GAS.html" xlink:title=" The ideal gas model " target="_top">
<polyline fill="none" stroke="black" points="150,-252 12,-252 "/>
<path fill="none" stroke="black" d="M12,-252C6,-252 5.92119e-14,-246 4.73695e-14,-240"/>
<polyline fill="none" stroke="black" points="4.73695e-14,-240 2.36848e-14,-228 "/>
<path fill="none" stroke="black" d="M2.36848e-14,-228C1.18424e-14,-222 6,-216 12,-216"/>
<polyline fill="none" stroke="black" points="12,-216 150,-216 "/>
<path fill="none" stroke="black" d="M150,-216C156,-216 162,-222 162,-228"/>
<polyline fill="none" stroke="black" points="162,-228 162,-240 "/>
<path fill="none" stroke="black" d="M162,-240C162,-246 156,-252 150,-252"/>
<text text-anchor="start" x="8" y="-231.233" font-family="Times Roman,serif" font-size="14.00"> The ideal gas model </text>
</a>
</g>
<!-- CANONICAL_ENSEMBLE&#45;&gt;IDEAL_GAS -->
<g id="edge2" class="edge"><title>CANONICAL_ENSEMBLE&#45;&gt;IDEAL_GAS</title>
<path fill="none" stroke="black" d="M360.954,-288.241C308.12,-278.309 240.917,-265.58 172.525,-252.289"/>
<polygon fill="black" stroke="black" points="172.912,-248.798 162.428,-250.324 171.575,-255.67 172.912,-248.798"/>
</g>
<!-- THERMODYNAMIC_POTENTIALS -->
<g id="node4" class="node"><title>THERMODYNAMIC_POTENTIALS</title>
<a xlink:href="THERMODYNAMIC_POTENTIALS.html" xlink:title=" Thermodynamic Potentials " target="_top">
<polyline fill="none" stroke="black" points="378,-252 192,-252 "/>
<path fill="none" stroke="black" d="M192,-252C186,-252 180,-246 180,-240"/>
<polyline fill="none" stroke="black" points="180,-240 180,-228 "/>
<path fill="none" stroke="black" d="M180,-228C180,-222 186,-216 192,-216"/>
<polyline fill="none" stroke="black" points="192,-216 378,-216 "/>
<path fill="none" stroke="black" d="M378,-216C384,-216 390,-222 390,-228"/>
<polyline fill="none" stroke="black" points="390,-228 390,-240 "/>
<path fill="none" stroke="black" d="M390,-240C390,-246 384,-252 378,-252"/>
<text text-anchor="start" x="188.5" y="-231.233" font-family="Times Roman,serif" font-size="14.00"> Thermodynamic Potentials </text>
</a>
</g>
<!-- CANONICAL_ENSEMBLE&#45;&gt;THERMODYNAMIC_POTENTIALS -->
<g id="edge4" class="edge"><title>CANONICAL_ENSEMBLE&#45;&gt;THERMODYNAMIC_POTENTIALS</title>
<path fill="none" stroke="black" d="M412.849,-287.831C389.878,-278.159 361.449,-266.189 337.237,-255.994"/>
<polygon fill="black" stroke="black" points="338.415,-252.693 327.84,-252.038 335.698,-259.144 338.415,-252.693"/>
</g>
<!-- MONTE_CARLO -->
<g id="node8" class="node"><title>MONTE_CARLO</title>
<a xlink:href="MONTE_CARLO.html" xlink:title=" Monte Carlo Simulation " target="_top">
<polyline fill="none" stroke="black" points="245,-180 81,-180 "/>
<path fill="none" stroke="black" d="M81,-180C75,-180 69,-174 69,-168"/>
<polyline fill="none" stroke="black" points="69,-168 69,-156 "/>
<path fill="none" stroke="black" d="M69,-156C69,-150 75,-144 81,-144"/>
<polyline fill="none" stroke="black" points="81,-144 245,-144 "/>
<path fill="none" stroke="black" d="M245,-144C251,-144 257,-150 257,-156"/>
<polyline fill="none" stroke="black" points="257,-156 257,-168 "/>
<path fill="none" stroke="black" d="M257,-168C257,-174 251,-180 245,-180"/>
<text text-anchor="start" x="77" y="-159.233" font-family="Times Roman,serif" font-size="14.00"> Monte Carlo Simulation </text>
</a>
</g>
<!-- CANONICAL_ENSEMBLE&#45;&gt;MONTE_CARLO -->
<g id="edge8" class="edge"><title>CANONICAL_ENSEMBLE&#45;&gt;MONTE_CARLO</title>
<path fill="none" stroke="black" d="M449.417,-287.767C440.988,-267.095 424.368,-233.942 399,-216 377.401,-200.723 319.976,-187.413 267.183,-177.83"/>
<polygon fill="black" stroke="black" points="267.503,-174.332 257.044,-176.024 266.275,-181.223 267.503,-174.332"/>
</g>
<!-- ISING_MODEL -->
<g id="node13" class="node"><title>ISING_MODEL</title>
<a xlink:href="ISING_MODEL.html" xlink:title=" The Ising Model " target="_top">
<polyline fill="none" stroke="black" points="454,-180 344,-180 "/>
<path fill="none" stroke="black" d="M344,-180C338,-180 332,-174 332,-168"/>
<polyline fill="none" stroke="black" points="332,-168 332,-156 "/>
<path fill="none" stroke="black" d="M332,-156C332,-150 338,-144 344,-144"/>
<polyline fill="none" stroke="black" points="344,-144 454,-144 "/>
<path fill="none" stroke="black" d="M454,-144C460,-144 466,-150 466,-156"/>
<polyline fill="none" stroke="black" points="466,-156 466,-168 "/>
<path fill="none" stroke="black" d="M466,-168C466,-174 460,-180 454,-180"/>
<text text-anchor="start" x="340" y="-159.233" font-family="Times Roman,serif" font-size="14.00"> The Ising Model </text>
</a>
</g>
<!-- CANONICAL_ENSEMBLE&#45;&gt;ISING_MODEL -->
<g id="edge14" class="edge"><title>CANONICAL_ENSEMBLE&#45;&gt;ISING_MODEL</title>
<path fill="none" stroke="black" d="M452.772,-287.904C449.099,-269.36 442.248,-239.933 432,-216 428.062,-206.803 422.75,-197.316 417.54,-188.909"/>
<polygon fill="black" stroke="black" points="420.344,-186.799 411.996,-180.276 414.454,-190.582 420.344,-186.799"/>
</g>
<!-- ADSORPTION -->
<g id="node15" class="node"><title>ADSORPTION</title>
<a xlink:href="ADSORPTION.html" xlink:title=" Statistical mechanics of adsorption " target="_top">
<polyline fill="none" stroke="black" points="283,-108 43,-108 "/>
<path fill="none" stroke="black" d="M43,-108C37,-108 31,-102 31,-96"/>
<polyline fill="none" stroke="black" points="31,-96 31,-84 "/>
<path fill="none" stroke="black" d="M31,-84C31,-78 37,-72 43,-72"/>
<polyline fill="none" stroke="black" points="43,-72 283,-72 "/>
<path fill="none" stroke="black" d="M283,-72C289,-72 295,-78 295,-84"/>
<polyline fill="none" stroke="black" points="295,-84 295,-96 "/>
<path fill="none" stroke="black" d="M295,-96C295,-102 289,-108 283,-108"/>
<text text-anchor="start" x="39" y="-87.2333" font-family="Times Roman,serif" font-size="14.00"> Statistical mechanics of adsorption </text>
</a>
</g>
<!-- CANONICAL_ENSEMBLE&#45;&gt;ADSORPTION -->
<g id="edge16" class="edge"><title>CANONICAL_ENSEMBLE&#45;&gt;ADSORPTION</title>
<path fill="none" stroke="black" d="M465.789,-287.975C482.112,-255.191 509.832,-185.378 475,-144 468.953,-136.816 380.456,-121.914 299.258,-109.582"/>
<polygon fill="black" stroke="black" points="299.298,-106.048 288.887,-108.014 298.252,-112.969 299.298,-106.048"/>
</g>
<!-- LATTICE_GAS -->
<g id="node18" class="node"><title>LATTICE_GAS</title>
<a xlink:href="LATTICE_GAS.html" xlink:title=" Statistical mechanics of independent&#45;distinguisable systems " target="_top">
<polyline fill="none" stroke="black" points="739,-108 325,-108 "/>
<path fill="none" stroke="black" d="M325,-108C319,-108 313,-102 313,-96"/>
<polyline fill="none" stroke="black" points="313,-96 313,-84 "/>
<path fill="none" stroke="black" d="M313,-84C313,-78 319,-72 325,-72"/>
<polyline fill="none" stroke="black" points="325,-72 739,-72 "/>
<path fill="none" stroke="black" d="M739,-72C745,-72 751,-78 751,-84"/>
<polyline fill="none" stroke="black" points="751,-84 751,-96 "/>
<path fill="none" stroke="black" d="M751,-96C751,-102 745,-108 739,-108"/>
<text text-anchor="start" x="321.5" y="-87.2333" font-family="Times Roman,serif" font-size="14.00"> Statistical mechanics of independent&#45;distinguisable systems </text>
</a>
</g>
<!-- CANONICAL_ENSEMBLE&#45;&gt;LATTICE_GAS -->
<g id="edge20" class="edge"><title>CANONICAL_ENSEMBLE&#45;&gt;LATTICE_GAS</title>
<path fill="none" stroke="black" d="M479.135,-287.858C489.649,-278.333 501.226,-265.783 508,-252 529.274,-208.713 532.892,-151.658 532.912,-118.09"/>
<polygon fill="black" stroke="black" points="536.412,-118.028 532.81,-108.064 529.412,-118.099 536.412,-118.028"/>
</g>
<!-- PARTITION_FUNCTION_FOR_MOLECULES -->
<g id="node20" class="node"><title>PARTITION_FUNCTION_FOR_MOLECULES</title>
<a xlink:href="PARTITION_FUNCTION_FOR_MOLECULES.html" xlink:title=" The partition function for molecular gasses " target="_top">
<polyline fill="none" stroke="black" points="619,-36 323,-36 "/>
<path fill="none" stroke="black" d="M323,-36C317,-36 311,-30 311,-24"/>
<polyline fill="none" stroke="black" points="311,-24 311,-12 "/>
<path fill="none" stroke="black" d="M311,-12C311,-6 317,-1.74971e-14 323,-1.72307e-14"/>
<polyline fill="none" stroke="black" points="323,-1.72307e-14 619,-4.08562e-15 "/>
<path fill="none" stroke="black" d="M619,-4.08562e-15C625,-3.81917e-15 631,-6 631,-12"/>
<polyline fill="none" stroke="black" points="631,-12 631,-24 "/>
<path fill="none" stroke="black" d="M631,-24C631,-30 625,-36 619,-36"/>
<text text-anchor="start" x="319" y="-15.2333" font-family="Times Roman,serif" font-size="14.00"> The partition function for molecular gasses </text>
</a>
</g>
<!-- CANONICAL_ENSEMBLE&#45;&gt;PARTITION_FUNCTION_FOR_MOLECULES -->
<g id="edge22" class="edge"><title>CANONICAL_ENSEMBLE&#45;&gt;PARTITION_FUNCTION_FOR_MOLECULES</title>
<path fill="none" stroke="black" d="M518.818,-287.883C629.849,-252.813 841.697,-170.377 760,-72 743.384,-51.992 694.201,-39.3564 641.012,-31.3941"/>
<polygon fill="black" stroke="black" points="641.437,-27.9193 631.041,-29.961 640.441,-34.8481 641.437,-27.9193"/>
</g>
<!-- IDEAL_GAS&#45;&gt;MONTE_CARLO -->
<!-- GENERALIZED_PARTITION_FUNCTION -->
<g id="node6" class="node"><title>GENERALIZED_PARTITION_FUNCTION</title>
<a xlink:href="GENERALIZED_PARTITION_FUNCTION.html" xlink:title=" The generalized partition function " target="_top">
<polyline fill="none" stroke="black" points="461,-396 223,-396 "/>
<path fill="none" stroke="black" d="M223,-396C217,-396 211,-390 211,-384"/>
<polyline fill="none" stroke="black" points="211,-384 211,-372 "/>
<path fill="none" stroke="black" d="M211,-372C211,-366 217,-360 223,-360"/>
<polyline fill="none" stroke="black" points="223,-360 461,-360 "/>
<path fill="none" stroke="black" d="M461,-360C467,-360 473,-366 473,-372"/>
<polyline fill="none" stroke="black" points="473,-372 473,-384 "/>
<path fill="none" stroke="black" d="M473,-384C473,-390 467,-396 461,-396"/>
<text text-anchor="start" x="219.5" y="-375.233" font-family="Times Roman,serif" font-size="14.00"> The generalized partition function </text>
</a>
</g>
<!-- GENERALIZED_PARTITION_FUNCTION&#45;&gt;CANONICAL_ENSEMBLE -->
<g id="edge6" class="edge"><title>GENERALIZED_PARTITION_FUNCTION&#45;&gt;CANONICAL_ENSEMBLE</title>
<path fill="none" stroke="black" d="M370.767,-359.831C385.213,-350.707 402.897,-339.539 418.404,-329.745"/>
<polygon fill="black" stroke="black" points="420.656,-332.462 427.242,-324.163 416.918,-326.544 420.656,-332.462"/>
</g>
<!-- MONTE_CARLO&#45;&gt;ADSORPTION -->
<!-- RESPONSE_FUNCTIONS -->
<g id="node11" class="node"><title>RESPONSE_FUNCTIONS</title>
<a xlink:href="RESPONSE_FUNCTIONS.html" xlink:title=" Response functions " target="_top">
<polyline fill="none" stroke="black" points="637,-396 503,-396 "/>
<path fill="none" stroke="black" d="M503,-396C497,-396 491,-390 491,-384"/>
<polyline fill="none" stroke="black" points="491,-384 491,-372 "/>
<path fill="none" stroke="black" d="M491,-372C491,-366 497,-360 503,-360"/>
<polyline fill="none" stroke="black" points="503,-360 637,-360 "/>
<path fill="none" stroke="black" d="M637,-360C643,-360 649,-366 649,-372"/>
<polyline fill="none" stroke="black" points="649,-372 649,-384 "/>
<path fill="none" stroke="black" d="M649,-384C649,-390 643,-396 637,-396"/>
<text text-anchor="start" x="499" y="-375.233" font-family="Times Roman,serif" font-size="14.00"> Response functions </text>
</a>
</g>
<!-- RESPONSE_FUNCTIONS&#45;&gt;CANONICAL_ENSEMBLE -->
<g id="edge12" class="edge"><title>RESPONSE_FUNCTIONS&#45;&gt;CANONICAL_ENSEMBLE</title>
<path fill="none" stroke="black" d="M541.233,-359.831C526.787,-350.707 509.103,-339.539 493.596,-329.745"/>
<polygon fill="black" stroke="black" points="495.082,-326.544 484.758,-324.163 491.344,-332.462 495.082,-326.544"/>
</g>
<!-- ADSORPTION&#45;&gt;PARTITION_FUNCTION_FOR_MOLECULES -->
</g>
</svg>
