<?xml version="1.0" encoding="UTF-8" standalone="no"?>
<!DOCTYPE svg PUBLIC "-//W3C//DTD SVG 1.1//EN"
 "http://www.w3.org/Graphics/SVG/1.1/DTD/svg11.dtd">
<!-- Generated by graphviz version 2.36.0 (20140111.2315)
 -->
<!-- Title: %3 Pages: 1 -->
<svg width="759pt" height="404pt"
 viewBox="0.00 0.00 759.00 404.00" xmlns="http://www.w3.org/2000/svg" xmlns:xlink="http://www.w3.org/1999/xlink">
<g id="graph0" class="graph" transform="scale(1 1) rotate(0) translate(4 400)">
<title>%3</title>
<!-- CANONICAL_ENSEMBLE -->
<g id="node1" class="node"><title>CANONICAL_ENSEMBLE</title>
<g id="a_node1"><a xlink:href="CANONICAL_ENSEMBLE.html" xlink:title=" The canonical ensemble " target="_top">
<path fill="none" stroke="blue" stroke-width="2" d="M658,-324C658,-324 526,-324 526,-324 520,-324 514,-318 514,-312 514,-312 514,-300 514,-300 514,-294 520,-288 526,-288 526,-288 658,-288 658,-288 664,-288 670,-294 670,-300 670,-300 670,-312 670,-312 670,-318 664,-324 658,-324"/>
<text text-anchor="start" x="522" y="-302.3" font-family="Times,serif" font-size="14.00"> The canonical ensemble </text>
</a>
</g>
</g>
<!-- MONTE_CARLO -->
<g id="node2" class="node"><title>MONTE_CARLO</title>
<g id="a_node2"><a xlink:href="MONTE_CARLO.html" xlink:title=" Monte Carlo Simulation " target="_top">
<path fill="none" stroke="black" d="M145.5,-252C145.5,-252 12.5,-252 12.5,-252 6.5,-252 0.5,-246 0.5,-240 0.5,-240 0.5,-228 0.5,-228 0.5,-222 6.5,-216 12.5,-216 12.5,-216 145.5,-216 145.5,-216 151.5,-216 157.5,-222 157.5,-228 157.5,-228 157.5,-240 157.5,-240 157.5,-246 151.5,-252 145.5,-252"/>
<text text-anchor="start" x="8" y="-230.3" font-family="Times,serif" font-size="14.00"> Monte Carlo Simulation </text>
</a>
</g>
</g>
<!-- CANONICAL_ENSEMBLE&#45;&gt;MONTE_CARLO -->
<g id="edge1" class="edge"><title>CANONICAL_ENSEMBLE&#45;&gt;MONTE_CARLO</title>
<path fill="none" stroke="black" d="M513.838,-296.836C430.581,-287.78 294.733,-271.978 167.557,-252.028"/>
<polygon fill="black" stroke="black" points="168.06,-248.565 157.636,-250.461 166.968,-255.479 168.06,-248.565"/>
</g>
<!-- LATTICE_GAS -->
<g id="node3" class="node"><title>LATTICE_GAS</title>
<g id="a_node3"><a xlink:href="LATTICE_GAS.html" xlink:title=" Statistical mechanics of independent&#45;distinguisable systems " target="_top">
<path fill="none" stroke="black" d="M514,-252C514,-252 188,-252 188,-252 182,-252 176,-246 176,-240 176,-240 176,-228 176,-228 176,-222 182,-216 188,-216 188,-216 514,-216 514,-216 520,-216 526,-222 526,-228 526,-228 526,-240 526,-240 526,-246 520,-252 514,-252"/>
<text text-anchor="start" x="184" y="-230.3" font-family="Times,serif" font-size="14.00"> Statistical mechanics of independent&#45;distinguisable systems </text>
</a>
</g>
</g>
<!-- CANONICAL_ENSEMBLE&#45;&gt;LATTICE_GAS -->
<g id="edge2" class="edge"><title>CANONICAL_ENSEMBLE&#45;&gt;LATTICE_GAS</title>
<path fill="none" stroke="black" d="M533.353,-287.966C499.094,-278.015 455.684,-265.406 419.814,-254.987"/>
<polygon fill="black" stroke="black" points="420.489,-251.539 409.91,-252.111 418.537,-258.261 420.489,-251.539"/>
</g>
<!-- THERMODYNAMIC_POTENTIALS -->
<g id="node4" class="node"><title>THERMODYNAMIC_POTENTIALS</title>
<g id="a_node4"><a xlink:href="THERMODYNAMIC_POTENTIALS.html" xlink:title=" Thermodynamic Potentials " target="_top">
<path fill="none" stroke="black" d="M312,-180C312,-180 164,-180 164,-180 158,-180 152,-174 152,-168 152,-168 152,-156 152,-156 152,-150 158,-144 164,-144 164,-144 312,-144 312,-144 318,-144 324,-150 324,-156 324,-156 324,-168 324,-168 324,-174 318,-180 312,-180"/>
<text text-anchor="start" x="160" y="-158.3" font-family="Times,serif" font-size="14.00"> Thermodynamic Potentials </text>
</a>
</g>
</g>
<!-- CANONICAL_ENSEMBLE&#45;&gt;THERMODYNAMIC_POTENTIALS -->
<g id="edge3" class="edge"><title>CANONICAL_ENSEMBLE&#45;&gt;THERMODYNAMIC_POTENTIALS</title>
<path fill="none" stroke="black" d="M585.951,-287.843C577.76,-267.281 561.093,-233.424 535,-216 461.754,-167.089 425.306,-194.03 334.105,-180.071"/>
<polygon fill="black" stroke="black" points="334.651,-176.614 324.213,-178.43 333.505,-183.52 334.651,-176.614"/>
</g>
<!-- PARTITION_FUNCTION_FOR_MOLECULES -->
<g id="node6" class="node"><title>PARTITION_FUNCTION_FOR_MOLECULES</title>
<g id="a_node6"><a xlink:href="PARTITION_FUNCTION_FOR_MOLECULES.html" xlink:title=" The partition function for molecular gasses " target="_top">
<path fill="none" stroke="black" d="M590,-180C590,-180 354,-180 354,-180 348,-180 342,-174 342,-168 342,-168 342,-156 342,-156 342,-150 348,-144 354,-144 354,-144 590,-144 590,-144 596,-144 602,-150 602,-156 602,-156 602,-168 602,-168 602,-174 596,-180 590,-180"/>
<text text-anchor="start" x="350" y="-158.3" font-family="Times,serif" font-size="14.00"> The partition function for molecular gasses </text>
</a>
</g>
</g>
<!-- CANONICAL_ENSEMBLE&#45;&gt;PARTITION_FUNCTION_FOR_MOLECULES -->
<g id="edge6" class="edge"><title>CANONICAL_ENSEMBLE&#45;&gt;PARTITION_FUNCTION_FOR_MOLECULES</title>
<path fill="none" stroke="black" d="M591.293,-287.835C589.678,-268.499 584.489,-237.033 568,-216 557.787,-202.972 543.436,-192.68 528.937,-184.768"/>
<polygon fill="black" stroke="black" points="530.421,-181.595 519.926,-180.146 527.226,-187.824 530.421,-181.595"/>
</g>
<!-- ADSORPTION -->
<g id="node8" class="node"><title>ADSORPTION</title>
<g id="a_node8"><a xlink:href="ADSORPTION.html" xlink:title=" Statistical mechanics of adsorption " target="_top">
<path fill="none" stroke="black" d="M579.25,-108C579.25,-108 388.75,-108 388.75,-108 382.75,-108 376.75,-102 376.75,-96 376.75,-96 376.75,-84 376.75,-84 376.75,-78 382.75,-72 388.75,-72 388.75,-72 579.25,-72 579.25,-72 585.25,-72 591.25,-78 591.25,-84 591.25,-84 591.25,-96 591.25,-96 591.25,-102 585.25,-108 579.25,-108"/>
<text text-anchor="start" x="384.5" y="-86.3" font-family="Times,serif" font-size="14.00"> Statistical mechanics of adsorption </text>
</a>
</g>
</g>
<!-- CANONICAL_ENSEMBLE&#45;&gt;ADSORPTION -->
<g id="edge8" class="edge"><title>CANONICAL_ENSEMBLE&#45;&gt;ADSORPTION</title>
<path fill="none" stroke="black" d="M600.817,-287.785C615.56,-256.34 640.807,-188.737 611,-144 601.785,-130.169 588.201,-119.941 573.302,-112.38"/>
<polygon fill="black" stroke="black" points="574.427,-109.043 563.883,-108.008 571.48,-115.393 574.427,-109.043"/>
</g>
<!-- ISING_MODEL -->
<g id="node9" class="node"><title>ISING_MODEL</title>
<g id="a_node9"><a xlink:href="ISING_MODEL.html" xlink:title=" The Ising Model " target="_top">
<path fill="none" stroke="black" d="M713.5,-108C713.5,-108 622.5,-108 622.5,-108 616.5,-108 610.5,-102 610.5,-96 610.5,-96 610.5,-84 610.5,-84 610.5,-78 616.5,-72 622.5,-72 622.5,-72 713.5,-72 713.5,-72 719.5,-72 725.5,-78 725.5,-84 725.5,-84 725.5,-96 725.5,-96 725.5,-102 719.5,-108 713.5,-108"/>
<text text-anchor="start" x="618" y="-86.3" font-family="Times,serif" font-size="14.00"> The Ising Model </text>
</a>
</g>
</g>
<!-- CANONICAL_ENSEMBLE&#45;&gt;ISING_MODEL -->
<g id="edge10" class="edge"><title>CANONICAL_ENSEMBLE&#45;&gt;ISING_MODEL</title>
<path fill="none" stroke="black" d="M614.331,-287.977C625.051,-278.567 637.049,-265.963 644,-252 665.5,-208.815 668.998,-151.636 668.943,-118.327"/>
<polygon fill="black" stroke="black" points="672.438,-117.955 668.809,-108.001 665.439,-118.046 672.438,-117.955"/>
</g>
<!-- IDEAL_GAS -->
<g id="node10" class="node"><title>IDEAL_GAS</title>
<g id="a_node10"><a xlink:href="IDEAL_GAS.html" xlink:title=" The ideal gas model " target="_top">
<path fill="none" stroke="black" d="M674.25,-36C674.25,-36 563.75,-36 563.75,-36 557.75,-36 551.75,-30 551.75,-24 551.75,-24 551.75,-12 551.75,-12 551.75,-6 557.75,-0 563.75,-0 563.75,-0 674.25,-0 674.25,-0 680.25,-0 686.25,-6 686.25,-12 686.25,-12 686.25,-24 686.25,-24 686.25,-30 680.25,-36 674.25,-36"/>
<text text-anchor="start" x="559.5" y="-14.3" font-family="Times,serif" font-size="14.00"> The ideal gas model </text>
</a>
</g>
</g>
<!-- CANONICAL_ENSEMBLE&#45;&gt;IDEAL_GAS -->
<g id="edge11" class="edge"><title>CANONICAL_ENSEMBLE&#45;&gt;IDEAL_GAS</title>
<path fill="none" stroke="black" d="M622.454,-287.777C636.733,-278.566 653.168,-266.196 665,-252 710.437,-197.485 718.276,-177.204 734,-108 737.545,-92.3977 742.627,-85.475 734,-72 724.835,-57.684 710.714,-47.1809 695.468,-39.4934"/>
<polygon fill="black" stroke="black" points="696.935,-36.3156 686.391,-35.2849 693.991,-42.6664 696.935,-36.3156"/>
</g>
<!-- MONTE_CARLO&#45;&gt;THERMODYNAMIC_POTENTIALS -->
<!-- THERMODYNAMIC_POTENTIALS&#45;&gt;ADSORPTION -->
<!-- GENERALIZED_PARTITION_FUNCTION -->
<g id="node5" class="node"><title>GENERALIZED_PARTITION_FUNCTION</title>
<g id="a_node5"><a xlink:href="GENERALIZED_PARTITION_FUNCTION.html" xlink:title=" The generalized partition function " target="_top">
<path fill="none" stroke="black" d="M590.25,-396C590.25,-396 405.75,-396 405.75,-396 399.75,-396 393.75,-390 393.75,-384 393.75,-384 393.75,-372 393.75,-372 393.75,-366 399.75,-360 405.75,-360 405.75,-360 590.25,-360 590.25,-360 596.25,-360 602.25,-366 602.25,-372 602.25,-372 602.25,-384 602.25,-384 602.25,-390 596.25,-396 590.25,-396"/>
<text text-anchor="start" x="401.5" y="-374.3" font-family="Times,serif" font-size="14.00"> The generalized partition function </text>
</a>
</g>
</g>
<!-- GENERALIZED_PARTITION_FUNCTION&#45;&gt;CANONICAL_ENSEMBLE -->
<g id="edge5" class="edge"><title>GENERALIZED_PARTITION_FUNCTION&#45;&gt;CANONICAL_ENSEMBLE</title>
<path fill="none" stroke="black" d="M521.236,-359.697C533.188,-350.796 547.923,-339.823 560.847,-330.199"/>
<polygon fill="black" stroke="black" points="563.101,-332.884 569.031,-324.104 558.92,-327.27 563.101,-332.884"/>
</g>
<!-- RESPONSE_FUNCTIONS -->
<g id="node7" class="node"><title>RESPONSE_FUNCTIONS</title>
<g id="a_node7"><a xlink:href="RESPONSE_FUNCTIONS.html" xlink:title=" Response functions " target="_top">
<path fill="none" stroke="black" d="M739,-396C739,-396 633,-396 633,-396 627,-396 621,-390 621,-384 621,-384 621,-372 621,-372 621,-366 627,-360 633,-360 633,-360 739,-360 739,-360 745,-360 751,-366 751,-372 751,-372 751,-384 751,-384 751,-390 745,-396 739,-396"/>
<text text-anchor="start" x="629" y="-374.3" font-family="Times,serif" font-size="14.00"> Response functions </text>
</a>
</g>
</g>
<!-- RESPONSE_FUNCTIONS&#45;&gt;CANONICAL_ENSEMBLE -->
<g id="edge7" class="edge"><title>RESPONSE_FUNCTIONS&#45;&gt;CANONICAL_ENSEMBLE</title>
<path fill="none" stroke="black" d="M662.764,-359.697C650.812,-350.796 636.077,-339.823 623.153,-330.199"/>
<polygon fill="black" stroke="black" points="625.08,-327.27 614.969,-324.104 620.899,-332.884 625.08,-327.27"/>
</g>
<!-- ADSORPTION&#45;&gt;IDEAL_GAS -->
</g>
</svg>
