<?xml version="1.0" encoding="UTF-8" standalone="no"?>
<!DOCTYPE svg PUBLIC "-//W3C//DTD SVG 1.1//EN"
 "http://www.w3.org/Graphics/SVG/1.1/DTD/svg11.dtd">
<!-- Generated by graphviz version 2.26.3 (20100126.1600)
 -->
<!-- Title: _anonymous_0 Pages: 1 -->
<svg width="939pt" height="332pt"
 viewBox="0.00 0.00 939.00 332.00" xmlns="http://www.w3.org/2000/svg" xmlns:xlink="http://www.w3.org/1999/xlink">
<g id="graph1" class="graph" transform="scale(1 1) rotate(0) translate(4 328)">
<title>_anonymous_0</title>
<!-- CANONICAL_ENSEMBLE -->
<g id="node1" class="node"><title>CANONICAL_ENSEMBLE</title>
<a xlink:href="CANONICAL_ENSEMBLE.html" xlink:title="The canonical ensemble" target="_top">
<polyline fill="none" stroke="blue" stroke-width="2" points="636,-252 478,-252 "/>
<path fill="none" stroke="blue" stroke-width="2" d="M478,-252C472,-252 466,-246 466,-240"/>
<polyline fill="none" stroke="blue" stroke-width="2" points="466,-240 466,-228 "/>
<path fill="none" stroke="blue" stroke-width="2" d="M466,-228C466,-222 472,-216 478,-216"/>
<polyline fill="none" stroke="blue" stroke-width="2" points="478,-216 636,-216 "/>
<path fill="none" stroke="blue" stroke-width="2" d="M636,-216C642,-216 648,-222 648,-228"/>
<polyline fill="none" stroke="blue" stroke-width="2" points="648,-228 648,-240 "/>
<path fill="none" stroke="blue" stroke-width="2" d="M648,-240C648,-246 642,-252 636,-252"/>
<text text-anchor="start" x="474.5" y="-231.233" font-family="Times Roman,serif" font-size="14.00">The canonical ensemble</text>
</a>
</g>
<!-- MONTE_CARLO -->
<g id="node2" class="node"><title>MONTE_CARLO</title>
<a xlink:href="MONTE_CARLO.html" xlink:title="Monte Carlo Simulation" target="_top">
<polyline fill="none" stroke="black" points="168,-180 12,-180 "/>
<path fill="none" stroke="black" d="M12,-180C6,-180 7.10543e-14,-174 5.68434e-14,-168"/>
<polyline fill="none" stroke="black" points="5.68434e-14,-168 2.84217e-14,-156 "/>
<path fill="none" stroke="black" d="M2.84217e-14,-156C1.42109e-14,-150 6,-144 12,-144"/>
<polyline fill="none" stroke="black" points="12,-144 168,-144 "/>
<path fill="none" stroke="black" d="M168,-144C174,-144 180,-150 180,-156"/>
<polyline fill="none" stroke="black" points="180,-156 180,-168 "/>
<path fill="none" stroke="black" d="M180,-168C180,-174 174,-180 168,-180"/>
<text text-anchor="start" x="8.5" y="-159.233" font-family="Times Roman,serif" font-size="14.00">Monte Carlo Simulation</text>
</a>
</g>
<!-- CANONICAL_ENSEMBLE&#45;&gt;MONTE_CARLO -->
<g id="edge2" class="edge"><title>CANONICAL_ENSEMBLE&#45;&gt;MONTE_CARLO</title>
<path fill="none" stroke="black" d="M465.749,-221.493C393.603,-211.399 290.075,-196.462 190.064,-180.148"/>
<polygon fill="black" stroke="black" points="190.52,-176.676 180.086,-178.514 189.388,-183.584 190.52,-176.676"/>
</g>
<!-- PARTITION_FUNCTION_FOR_MOLECULES -->
<g id="node8" class="node"><title>PARTITION_FUNCTION_FOR_MOLECULES</title>
<a xlink:href="PARTITION_FUNCTION_FOR_MOLECULES.html" xlink:title="The partition function for molecular gasses" target="_top">
<polyline fill="none" stroke="black" points="498,-180 210,-180 "/>
<path fill="none" stroke="black" d="M210,-180C204,-180 198,-174 198,-168"/>
<polyline fill="none" stroke="black" points="198,-168 198,-156 "/>
<path fill="none" stroke="black" d="M198,-156C198,-150 204,-144 210,-144"/>
<polyline fill="none" stroke="black" points="210,-144 498,-144 "/>
<path fill="none" stroke="black" d="M498,-144C504,-144 510,-150 510,-156"/>
<polyline fill="none" stroke="black" points="510,-156 510,-168 "/>
<path fill="none" stroke="black" d="M510,-168C510,-174 504,-180 498,-180"/>
<text text-anchor="start" x="206.5" y="-159.233" font-family="Times Roman,serif" font-size="14.00">The partition function for molecular gasses</text>
</a>
</g>
<!-- CANONICAL_ENSEMBLE&#45;&gt;PARTITION_FUNCTION_FOR_MOLECULES -->
<g id="edge8" class="edge"><title>CANONICAL_ENSEMBLE&#45;&gt;PARTITION_FUNCTION_FOR_MOLECULES</title>
<path fill="none" stroke="black" d="M506.037,-215.924C478.285,-206.081 443.767,-193.839 414.639,-183.507"/>
<polygon fill="black" stroke="black" points="415.579,-180.127 404.984,-180.083 413.239,-186.725 415.579,-180.127"/>
</g>
<!-- LATTICE_GAS -->
<g id="node10" class="node"><title>LATTICE_GAS</title>
<a xlink:href="LATTICE_GAS.html" xlink:title="Statistical mechanics of independent&#45;distinguisable systems" target="_top">
<polyline fill="none" stroke="black" points="435,-108 31,-108 "/>
<path fill="none" stroke="black" d="M31,-108C25,-108 19,-102 19,-96"/>
<polyline fill="none" stroke="black" points="19,-96 19,-84 "/>
<path fill="none" stroke="black" d="M19,-84C19,-78 25,-72 31,-72"/>
<polyline fill="none" stroke="black" points="31,-72 435,-72 "/>
<path fill="none" stroke="black" d="M435,-72C441,-72 447,-78 447,-84"/>
<polyline fill="none" stroke="black" points="447,-84 447,-96 "/>
<path fill="none" stroke="black" d="M447,-96C447,-102 441,-108 435,-108"/>
<text text-anchor="start" x="27" y="-87.2333" font-family="Times Roman,serif" font-size="14.00">Statistical mechanics of independent&#45;distinguisable systems</text>
</a>
</g>
<!-- CANONICAL_ENSEMBLE&#45;&gt;LATTICE_GAS -->
<g id="edge10" class="edge"><title>CANONICAL_ENSEMBLE&#45;&gt;LATTICE_GAS</title>
<path fill="none" stroke="black" d="M554.477,-215.75C550.61,-195.062 541.175,-161.893 519,-144 500.644,-129.188 457.639,-117.997 410.406,-109.757"/>
<polygon fill="black" stroke="black" points="410.713,-106.26 400.27,-108.043 409.546,-113.162 410.713,-106.26"/>
</g>
<!-- IDEAL_GAS -->
<g id="node13" class="node"><title>IDEAL_GAS</title>
<a xlink:href="IDEAL_GAS.html" xlink:title="The ideal gas model" target="_top">
<polyline fill="none" stroke="black" points="607,-108 477,-108 "/>
<path fill="none" stroke="black" d="M477,-108C471,-108 465,-102 465,-96"/>
<polyline fill="none" stroke="black" points="465,-96 465,-84 "/>
<path fill="none" stroke="black" d="M465,-84C465,-78 471,-72 477,-72"/>
<polyline fill="none" stroke="black" points="477,-72 607,-72 "/>
<path fill="none" stroke="black" d="M607,-72C613,-72 619,-78 619,-84"/>
<polyline fill="none" stroke="black" points="619,-84 619,-96 "/>
<path fill="none" stroke="black" d="M619,-96C619,-102 613,-108 607,-108"/>
<text text-anchor="start" x="473.5" y="-87.2333" font-family="Times Roman,serif" font-size="14.00">The ideal gas model</text>
</a>
</g>
<!-- CANONICAL_ENSEMBLE&#45;&gt;IDEAL_GAS -->
<g id="edge14" class="edge"><title>CANONICAL_ENSEMBLE&#45;&gt;IDEAL_GAS</title>
<path fill="none" stroke="black" d="M556.666,-215.669C556.173,-197.44 554.962,-168.705 552,-144 550.995,-135.613 549.487,-126.564 547.946,-118.315"/>
<polygon fill="black" stroke="black" points="551.363,-117.549 546.011,-108.405 544.493,-118.891 551.363,-117.549"/>
</g>
<!-- ISING_MODEL -->
<g id="node15" class="node"><title>ISING_MODEL</title>
<a xlink:href="ISING_MODEL.html" xlink:title="The Ising Model" target="_top">
<polyline fill="none" stroke="black" points="491,-36 389,-36 "/>
<path fill="none" stroke="black" d="M389,-36C383,-36 377,-30 377,-24"/>
<polyline fill="none" stroke="black" points="377,-24 377,-12 "/>
<path fill="none" stroke="black" d="M377,-12C377,-6 383,-1.70869e-14 389,-1.64102e-14"/>
<polyline fill="none" stroke="black" points="389,-1.64102e-14 491,-4.90613e-15 "/>
<path fill="none" stroke="black" d="M491,-4.90613e-15C497,-4.22942e-15 503,-6 503,-12"/>
<polyline fill="none" stroke="black" points="503,-12 503,-24 "/>
<path fill="none" stroke="black" d="M503,-24C503,-30 497,-36 491,-36"/>
<text text-anchor="start" x="385.5" y="-15.2333" font-family="Times Roman,serif" font-size="14.00">The Ising Model</text>
</a>
</g>
<!-- CANONICAL_ENSEMBLE&#45;&gt;ISING_MODEL -->
<g id="edge16" class="edge"><title>CANONICAL_ENSEMBLE&#45;&gt;ISING_MODEL</title>
<path fill="none" stroke="black" d="M576.719,-215.543C608.161,-183.865 662.733,-118.113 628,-72 613.82,-53.1732 559.74,-38.8863 513.201,-29.7514"/>
<polygon fill="black" stroke="black" points="513.576,-26.2599 503.098,-27.8241 512.265,-33.1359 513.576,-26.2599"/>
</g>
<!-- ADSORPTION -->
<g id="node18" class="node"><title>ADSORPTION</title>
<a xlink:href="ADSORPTION.html" xlink:title="Statistical mechanics of adsorption" target="_top">
<polyline fill="none" stroke="black" points="919,-180 687,-180 "/>
<path fill="none" stroke="black" d="M687,-180C681,-180 675,-174 675,-168"/>
<polyline fill="none" stroke="black" points="675,-168 675,-156 "/>
<path fill="none" stroke="black" d="M675,-156C675,-150 681,-144 687,-144"/>
<polyline fill="none" stroke="black" points="687,-144 919,-144 "/>
<path fill="none" stroke="black" d="M919,-144C925,-144 931,-150 931,-156"/>
<polyline fill="none" stroke="black" points="931,-156 931,-168 "/>
<path fill="none" stroke="black" d="M931,-168C931,-174 925,-180 919,-180"/>
<text text-anchor="start" x="683.5" y="-159.233" font-family="Times Roman,serif" font-size="14.00">Statistical mechanics of adsorption</text>
</a>
</g>
<!-- CANONICAL_ENSEMBLE&#45;&gt;ADSORPTION -->
<g id="edge20" class="edge"><title>CANONICAL_ENSEMBLE&#45;&gt;ADSORPTION</title>
<path fill="none" stroke="black" d="M618.759,-215.924C652.973,-205.91 695.676,-193.412 731.352,-182.97"/>
<polygon fill="black" stroke="black" points="732.602,-186.251 741.216,-180.083 730.635,-179.533 732.602,-186.251"/>
</g>
<!-- MONTE_CARLO&#45;&gt;LATTICE_GAS -->
<!-- RESPONSE_FUNCTIONS -->
<g id="node4" class="node"><title>RESPONSE_FUNCTIONS</title>
<a xlink:href="RESPONSE_FUNCTIONS.html" xlink:title="Response functions" target="_top">
<polyline fill="none" stroke="black" points="511,-324 385,-324 "/>
<path fill="none" stroke="black" d="M385,-324C379,-324 373,-318 373,-312"/>
<polyline fill="none" stroke="black" points="373,-312 373,-300 "/>
<path fill="none" stroke="black" d="M373,-300C373,-294 379,-288 385,-288"/>
<polyline fill="none" stroke="black" points="385,-288 511,-288 "/>
<path fill="none" stroke="black" d="M511,-288C517,-288 523,-294 523,-300"/>
<polyline fill="none" stroke="black" points="523,-300 523,-312 "/>
<path fill="none" stroke="black" d="M523,-312C523,-318 517,-324 511,-324"/>
<text text-anchor="start" x="381.5" y="-303.233" font-family="Times Roman,serif" font-size="14.00">Response functions</text>
</a>
</g>
<!-- RESPONSE_FUNCTIONS&#45;&gt;CANONICAL_ENSEMBLE -->
<g id="edge4" class="edge"><title>RESPONSE_FUNCTIONS&#45;&gt;CANONICAL_ENSEMBLE</title>
<path fill="none" stroke="black" d="M475.505,-287.831C489.318,-278.707 506.226,-267.539 521.053,-257.745"/>
<polygon fill="black" stroke="black" points="523.089,-260.595 529.503,-252.163 519.23,-254.754 523.089,-260.595"/>
</g>
<!-- GENERALIZED_PARTITION_FUNCTION -->
<g id="node6" class="node"><title>GENERALIZED_PARTITION_FUNCTION</title>
<a xlink:href="GENERALIZED_PARTITION_FUNCTION.html" xlink:title="The generalized partition function" target="_top">
<polyline fill="none" stroke="black" points="781,-324 553,-324 "/>
<path fill="none" stroke="black" d="M553,-324C547,-324 541,-318 541,-312"/>
<polyline fill="none" stroke="black" points="541,-312 541,-300 "/>
<path fill="none" stroke="black" d="M541,-300C541,-294 547,-288 553,-288"/>
<polyline fill="none" stroke="black" points="553,-288 781,-288 "/>
<path fill="none" stroke="black" d="M781,-288C787,-288 793,-294 793,-300"/>
<polyline fill="none" stroke="black" points="793,-300 793,-312 "/>
<path fill="none" stroke="black" d="M793,-312C793,-318 787,-324 781,-324"/>
<text text-anchor="start" x="549" y="-303.233" font-family="Times Roman,serif" font-size="14.00">The generalized partition function</text>
</a>
</g>
<!-- GENERALIZED_PARTITION_FUNCTION&#45;&gt;CANONICAL_ENSEMBLE -->
<g id="edge6" class="edge"><title>GENERALIZED_PARTITION_FUNCTION&#45;&gt;CANONICAL_ENSEMBLE</title>
<path fill="none" stroke="black" d="M639.242,-287.831C625.303,-278.707 608.24,-267.539 593.277,-257.745"/>
<polygon fill="black" stroke="black" points="595.033,-254.711 584.749,-252.163 591.199,-260.568 595.033,-254.711"/>
</g>
<!-- LATTICE_GAS&#45;&gt;ISING_MODEL -->
</g>
</svg>
