<?xml version="1.0" encoding="UTF-8" standalone="no"?>
<!DOCTYPE svg PUBLIC "-//W3C//DTD SVG 1.1//EN"
 "http://www.w3.org/Graphics/SVG/1.1/DTD/svg11.dtd">
<!-- Generated by graphviz version 2.26.3 (20100126.1600)
 -->
<!-- Title: _anonymous_0 Pages: 1 -->
<svg width="854pt" height="404pt"
 viewBox="0.00 0.00 853.79 404.00" xmlns="http://www.w3.org/2000/svg" xmlns:xlink="http://www.w3.org/1999/xlink">
<g id="graph1" class="graph" transform="scale(1 1) rotate(0) translate(4 400)">
<title>_anonymous_0</title>
<!-- CANONICAL_ENSEMBLE -->
<g id="node1" class="node"><title>CANONICAL_ENSEMBLE</title>
<a xlink:href="CANONICAL_ENSEMBLE.html" xlink:title="The canonical ensemble" target="_top">
<polyline fill="none" stroke="blue" stroke-width="2" points="619,-324 461,-324 "/>
<path fill="none" stroke="blue" stroke-width="2" d="M461,-324C455,-324 449,-318 449,-312"/>
<polyline fill="none" stroke="blue" stroke-width="2" points="449,-312 449,-300 "/>
<path fill="none" stroke="blue" stroke-width="2" d="M449,-300C449,-294 455,-288 461,-288"/>
<polyline fill="none" stroke="blue" stroke-width="2" points="461,-288 619,-288 "/>
<path fill="none" stroke="blue" stroke-width="2" d="M619,-288C625,-288 631,-294 631,-300"/>
<polyline fill="none" stroke="blue" stroke-width="2" points="631,-300 631,-312 "/>
<path fill="none" stroke="blue" stroke-width="2" d="M631,-312C631,-318 625,-324 619,-324"/>
<text text-anchor="start" x="457.5" y="-303.233" font-family="Times Roman,serif" font-size="14.00">The canonical ensemble</text>
</a>
</g>
<!-- ADSORPTION -->
<g id="node2" class="node"><title>ADSORPTION</title>
<a xlink:href="ADSORPTION.html" xlink:title="Statistical mechanics of adsorption" target="_top">
<polyline fill="none" stroke="black" points="244,-252 12,-252 "/>
<path fill="none" stroke="black" d="M12,-252C6,-252 1.06581e-13,-246 8.52651e-14,-240"/>
<polyline fill="none" stroke="black" points="8.52651e-14,-240 4.26326e-14,-228 "/>
<path fill="none" stroke="black" d="M4.26326e-14,-228C2.13163e-14,-222 6,-216 12,-216"/>
<polyline fill="none" stroke="black" points="12,-216 244,-216 "/>
<path fill="none" stroke="black" d="M244,-216C250,-216 256,-222 256,-228"/>
<polyline fill="none" stroke="black" points="256,-228 256,-240 "/>
<path fill="none" stroke="black" d="M256,-240C256,-246 250,-252 244,-252"/>
<text text-anchor="start" x="8.5" y="-231.233" font-family="Times Roman,serif" font-size="14.00">Statistical mechanics of adsorption</text>
</a>
</g>
<!-- CANONICAL_ENSEMBLE&#45;&gt;ADSORPTION -->
<g id="edge2" class="edge"><title>CANONICAL_ENSEMBLE&#45;&gt;ADSORPTION</title>
<path fill="none" stroke="black" d="M448.819,-290.066C387.611,-279.369 306.53,-265.199 241.196,-253.782"/>
<polygon fill="black" stroke="black" points="241.717,-250.32 231.263,-252.046 240.511,-257.215 241.717,-250.32"/>
</g>
<!-- THERMODYNAMIC_POTENTIALS -->
<g id="node4" class="node"><title>THERMODYNAMIC_POTENTIALS</title>
<a xlink:href="THERMODYNAMIC_POTENTIALS.html" xlink:title="Thermodynamic Potentials" target="_top">
<polyline fill="none" stroke="black" points="462,-252 286,-252 "/>
<path fill="none" stroke="black" d="M286,-252C280,-252 274,-246 274,-240"/>
<polyline fill="none" stroke="black" points="274,-240 274,-228 "/>
<path fill="none" stroke="black" d="M274,-228C274,-222 280,-216 286,-216"/>
<polyline fill="none" stroke="black" points="286,-216 462,-216 "/>
<path fill="none" stroke="black" d="M462,-216C468,-216 474,-222 474,-228"/>
<polyline fill="none" stroke="black" points="474,-228 474,-240 "/>
<path fill="none" stroke="black" d="M474,-240C474,-246 468,-252 462,-252"/>
<text text-anchor="start" x="282" y="-231.233" font-family="Times Roman,serif" font-size="14.00">Thermodynamic Potentials</text>
</a>
</g>
<!-- CANONICAL_ENSEMBLE&#45;&gt;THERMODYNAMIC_POTENTIALS -->
<g id="edge4" class="edge"><title>CANONICAL_ENSEMBLE&#45;&gt;THERMODYNAMIC_POTENTIALS</title>
<path fill="none" stroke="black" d="M498.111,-287.831C475.91,-278.202 448.458,-266.295 425.022,-256.13"/>
<polygon fill="black" stroke="black" points="426.155,-252.806 415.588,-252.038 423.369,-259.228 426.155,-252.806"/>
</g>
<!-- IDEAL_GAS -->
<g id="node6" class="node"><title>IDEAL_GAS</title>
<a xlink:href="IDEAL_GAS.html" xlink:title="The ideal gas model" target="_top">
<polyline fill="none" stroke="black" points="359,-180 229,-180 "/>
<path fill="none" stroke="black" d="M229,-180C223,-180 217,-174 217,-168"/>
<polyline fill="none" stroke="black" points="217,-168 217,-156 "/>
<path fill="none" stroke="black" d="M217,-156C217,-150 223,-144 229,-144"/>
<polyline fill="none" stroke="black" points="229,-144 359,-144 "/>
<path fill="none" stroke="black" d="M359,-144C365,-144 371,-150 371,-156"/>
<polyline fill="none" stroke="black" points="371,-156 371,-168 "/>
<path fill="none" stroke="black" d="M371,-168C371,-174 365,-180 359,-180"/>
<text text-anchor="start" x="225.5" y="-159.233" font-family="Times Roman,serif" font-size="14.00">The ideal gas model</text>
</a>
</g>
<!-- CANONICAL_ENSEMBLE&#45;&gt;IDEAL_GAS -->
<g id="edge6" class="edge"><title>CANONICAL_ENSEMBLE&#45;&gt;IDEAL_GAS</title>
<path fill="none" stroke="black" d="M533.09,-287.639C524.453,-267.164 507.732,-234.501 483,-216 453.653,-194.046 415.665,-181.009 381.452,-173.27"/>
<polygon fill="black" stroke="black" points="381.953,-169.798 371.442,-171.13 380.489,-176.643 381.953,-169.798"/>
</g>
<!-- ISING_MODEL -->
<g id="node11" class="node"><title>ISING_MODEL</title>
<a xlink:href="ISING_MODEL.html" xlink:title="The Ising Model" target="_top">
<polyline fill="none" stroke="black" points="538,-180 436,-180 "/>
<path fill="none" stroke="black" d="M436,-180C430,-180 424,-174 424,-168"/>
<polyline fill="none" stroke="black" points="424,-168 424,-156 "/>
<path fill="none" stroke="black" d="M424,-156C424,-150 430,-144 436,-144"/>
<polyline fill="none" stroke="black" points="436,-144 538,-144 "/>
<path fill="none" stroke="black" d="M538,-144C544,-144 550,-150 550,-156"/>
<polyline fill="none" stroke="black" points="550,-156 550,-168 "/>
<path fill="none" stroke="black" d="M550,-168C550,-174 544,-180 538,-180"/>
<text text-anchor="start" x="432.5" y="-159.233" font-family="Times Roman,serif" font-size="14.00">The Ising Model</text>
</a>
</g>
<!-- CANONICAL_ENSEMBLE&#45;&gt;ISING_MODEL -->
<g id="edge12" class="edge"><title>CANONICAL_ENSEMBLE&#45;&gt;ISING_MODEL</title>
<path fill="none" stroke="black" d="M536.422,-287.673C532.514,-269.201 525.518,-240.059 516,-216 512.473,-207.085 507.837,-197.757 503.309,-189.41"/>
<polygon fill="black" stroke="black" points="506.247,-187.494 498.308,-180.479 500.14,-190.914 506.247,-187.494"/>
</g>
<!-- MONTE_CARLO -->
<g id="node15" class="node"><title>MONTE_CARLO</title>
<a xlink:href="MONTE_CARLO.html" xlink:title="Monte Carlo Simulation" target="_top">
<polyline fill="none" stroke="black" points="372,-108 216,-108 "/>
<path fill="none" stroke="black" d="M216,-108C210,-108 204,-102 204,-96"/>
<polyline fill="none" stroke="black" points="204,-96 204,-84 "/>
<path fill="none" stroke="black" d="M204,-84C204,-78 210,-72 216,-72"/>
<polyline fill="none" stroke="black" points="216,-72 372,-72 "/>
<path fill="none" stroke="black" d="M372,-72C378,-72 384,-78 384,-84"/>
<polyline fill="none" stroke="black" points="384,-84 384,-96 "/>
<path fill="none" stroke="black" d="M384,-96C384,-102 378,-108 372,-108"/>
<text text-anchor="start" x="212.5" y="-87.2333" font-family="Times Roman,serif" font-size="14.00">Monte Carlo Simulation</text>
</a>
</g>
<!-- CANONICAL_ENSEMBLE&#45;&gt;MONTE_CARLO -->
<g id="edge16" class="edge"><title>CANONICAL_ENSEMBLE&#45;&gt;MONTE_CARLO</title>
<path fill="none" stroke="black" d="M549.797,-287.817C565.941,-255.086 593.125,-185.78 559,-144 556.251,-140.634 467.991,-123.09 394.08,-108.898"/>
<polygon fill="black" stroke="black" points="394.701,-105.454 384.221,-107.009 393.383,-112.329 394.701,-105.454"/>
</g>
<!-- LATTICE_GAS -->
<g id="node18" class="node"><title>LATTICE_GAS</title>
<a xlink:href="LATTICE_GAS.html" xlink:title="Statistical mechanics of independent&#45;distinguisable systems" target="_top">
<polyline fill="none" stroke="black" points="818,-108 414,-108 "/>
<path fill="none" stroke="black" d="M414,-108C408,-108 402,-102 402,-96"/>
<polyline fill="none" stroke="black" points="402,-96 402,-84 "/>
<path fill="none" stroke="black" d="M402,-84C402,-78 408,-72 414,-72"/>
<polyline fill="none" stroke="black" points="414,-72 818,-72 "/>
<path fill="none" stroke="black" d="M818,-72C824,-72 830,-78 830,-84"/>
<polyline fill="none" stroke="black" points="830,-84 830,-96 "/>
<path fill="none" stroke="black" d="M830,-96C830,-102 824,-108 818,-108"/>
<text text-anchor="start" x="410" y="-87.2333" font-family="Times Roman,serif" font-size="14.00">Statistical mechanics of independent&#45;distinguisable systems</text>
</a>
</g>
<!-- CANONICAL_ENSEMBLE&#45;&gt;LATTICE_GAS -->
<g id="edge20" class="edge"><title>CANONICAL_ENSEMBLE&#45;&gt;LATTICE_GAS</title>
<path fill="none" stroke="black" d="M563.135,-287.858C573.649,-278.333 585.226,-265.783 592,-252 613.274,-208.713 616.892,-151.658 616.912,-118.09"/>
<polygon fill="black" stroke="black" points="620.412,-118.028 616.81,-108.064 613.412,-118.099 620.412,-118.028"/>
</g>
<!-- PARTITION_FUNCTION_FOR_MOLECULES -->
<g id="node20" class="node"><title>PARTITION_FUNCTION_FOR_MOLECULES</title>
<a xlink:href="PARTITION_FUNCTION_FOR_MOLECULES.html" xlink:title="The partition function for molecular gasses" target="_top">
<polyline fill="none" stroke="black" points="720,-36 432,-36 "/>
<path fill="none" stroke="black" d="M432,-36C426,-36 420,-30 420,-24"/>
<polyline fill="none" stroke="black" points="420,-24 420,-12 "/>
<path fill="none" stroke="black" d="M420,-12C420,-6 426,-1.74903e-14 432,-1.7217e-14"/>
<polyline fill="none" stroke="black" points="432,-1.7217e-14 720,-4.09929e-15 "/>
<path fill="none" stroke="black" d="M720,-4.09929e-15C726,-3.826e-15 732,-6 732,-12"/>
<polyline fill="none" stroke="black" points="732,-12 732,-24 "/>
<path fill="none" stroke="black" d="M732,-24C732,-30 726,-36 720,-36"/>
<text text-anchor="start" x="428.5" y="-15.2333" font-family="Times Roman,serif" font-size="14.00">The partition function for molecular gasses</text>
</a>
</g>
<!-- CANONICAL_ENSEMBLE&#45;&gt;PARTITION_FUNCTION_FOR_MOLECULES -->
<g id="edge22" class="edge"><title>CANONICAL_ENSEMBLE&#45;&gt;PARTITION_FUNCTION_FOR_MOLECULES</title>
<path fill="none" stroke="black" d="M595.374,-287.904C666.65,-261.264 787.441,-203.983 839,-108 846.572,-93.9049 849.112,-84.3994 839,-72 825.169,-55.0407 786.101,-43.2575 742.171,-35.135"/>
<polygon fill="black" stroke="black" points="742.586,-31.6541 732.129,-33.3542 741.364,-38.5466 742.586,-31.6541"/>
</g>
<!-- ADSORPTION&#45;&gt;IDEAL_GAS -->
<!-- IDEAL_GAS&#45;&gt;MONTE_CARLO -->
<!-- GENERALIZED_PARTITION_FUNCTION -->
<g id="node9" class="node"><title>GENERALIZED_PARTITION_FUNCTION</title>
<a xlink:href="GENERALIZED_PARTITION_FUNCTION.html" xlink:title="The generalized partition function" target="_top">
<polyline fill="none" stroke="black" points="545,-396 317,-396 "/>
<path fill="none" stroke="black" d="M317,-396C311,-396 305,-390 305,-384"/>
<polyline fill="none" stroke="black" points="305,-384 305,-372 "/>
<path fill="none" stroke="black" d="M305,-372C305,-366 311,-360 317,-360"/>
<polyline fill="none" stroke="black" points="317,-360 545,-360 "/>
<path fill="none" stroke="black" d="M545,-360C551,-360 557,-366 557,-372"/>
<polyline fill="none" stroke="black" points="557,-372 557,-384 "/>
<path fill="none" stroke="black" d="M557,-384C557,-390 551,-396 545,-396"/>
<text text-anchor="start" x="313" y="-375.233" font-family="Times Roman,serif" font-size="14.00">The generalized partition function</text>
</a>
</g>
<!-- GENERALIZED_PARTITION_FUNCTION&#45;&gt;CANONICAL_ENSEMBLE -->
<g id="edge10" class="edge"><title>GENERALIZED_PARTITION_FUNCTION&#45;&gt;CANONICAL_ENSEMBLE</title>
<path fill="none" stroke="black" d="M458.505,-359.831C472.318,-350.707 489.226,-339.539 504.053,-329.745"/>
<polygon fill="black" stroke="black" points="506.089,-332.595 512.503,-324.163 502.23,-326.754 506.089,-332.595"/>
</g>
<!-- RESPONSE_FUNCTIONS -->
<g id="node13" class="node"><title>RESPONSE_FUNCTIONS</title>
<a xlink:href="RESPONSE_FUNCTIONS.html" xlink:title="Response functions" target="_top">
<polyline fill="none" stroke="black" points="713,-396 587,-396 "/>
<path fill="none" stroke="black" d="M587,-396C581,-396 575,-390 575,-384"/>
<polyline fill="none" stroke="black" points="575,-384 575,-372 "/>
<path fill="none" stroke="black" d="M575,-372C575,-366 581,-360 587,-360"/>
<polyline fill="none" stroke="black" points="587,-360 713,-360 "/>
<path fill="none" stroke="black" d="M713,-360C719,-360 725,-366 725,-372"/>
<polyline fill="none" stroke="black" points="725,-372 725,-384 "/>
<path fill="none" stroke="black" d="M725,-384C725,-390 719,-396 713,-396"/>
<text text-anchor="start" x="583.5" y="-375.233" font-family="Times Roman,serif" font-size="14.00">Response functions</text>
</a>
</g>
<!-- RESPONSE_FUNCTIONS&#45;&gt;CANONICAL_ENSEMBLE -->
<g id="edge14" class="edge"><title>RESPONSE_FUNCTIONS&#45;&gt;CANONICAL_ENSEMBLE</title>
<path fill="none" stroke="black" d="M622.242,-359.831C608.303,-350.707 591.24,-339.539 576.277,-329.745"/>
<polygon fill="black" stroke="black" points="578.033,-326.711 567.749,-324.163 574.199,-332.568 578.033,-326.711"/>
</g>
<!-- MONTE_CARLO&#45;&gt;PARTITION_FUNCTION_FOR_MOLECULES -->
</g>
</svg>
