<?xml version="1.0" encoding="UTF-8" standalone="no"?>
<!DOCTYPE svg PUBLIC "-//W3C//DTD SVG 1.1//EN"
 "http://www.w3.org/Graphics/SVG/1.1/DTD/svg11.dtd">
<!-- Generated by graphviz version 2.26.3 (20100126.1600)
 -->
<!-- Title: _anonymous_0 Pages: 1 -->
<svg width="1077pt" height="332pt"
 viewBox="0.00 0.00 1077.00 332.00" xmlns="http://www.w3.org/2000/svg" xmlns:xlink="http://www.w3.org/1999/xlink">
<g id="graph1" class="graph" transform="scale(1 1) rotate(0) translate(4 328)">
<title>_anonymous_0</title>
<!-- CANONICAL_ENSEMBLE -->
<g id="node1" class="node"><title>CANONICAL_ENSEMBLE</title>
<a xlink:href="CANONICAL_ENSEMBLE.html" xlink:title="The canonical ensemble" target="_top">
<polyline fill="none" stroke="blue" stroke-width="2" points="554,-252 396,-252 "/>
<path fill="none" stroke="blue" stroke-width="2" d="M396,-252C390,-252 384,-246 384,-240"/>
<polyline fill="none" stroke="blue" stroke-width="2" points="384,-240 384,-228 "/>
<path fill="none" stroke="blue" stroke-width="2" d="M384,-228C384,-222 390,-216 396,-216"/>
<polyline fill="none" stroke="blue" stroke-width="2" points="396,-216 554,-216 "/>
<path fill="none" stroke="blue" stroke-width="2" d="M554,-216C560,-216 566,-222 566,-228"/>
<polyline fill="none" stroke="blue" stroke-width="2" points="566,-228 566,-240 "/>
<path fill="none" stroke="blue" stroke-width="2" d="M566,-240C566,-246 560,-252 554,-252"/>
<text text-anchor="start" x="392.5" y="-231.233" font-family="Times Roman,serif" font-size="14.00">The canonical ensemble</text>
</a>
</g>
<!-- ADSORPTION -->
<g id="node2" class="node"><title>ADSORPTION</title>
<a xlink:href="ADSORPTION.html" xlink:title="Statistical mechanics of adsorption" target="_top">
<polyline fill="none" stroke="black" points="244,-180 12,-180 "/>
<path fill="none" stroke="black" d="M12,-180C6,-180 1.06581e-13,-174 8.52651e-14,-168"/>
<polyline fill="none" stroke="black" points="8.52651e-14,-168 4.26326e-14,-156 "/>
<path fill="none" stroke="black" d="M4.26326e-14,-156C2.13163e-14,-150 6,-144 12,-144"/>
<polyline fill="none" stroke="black" points="12,-144 244,-144 "/>
<path fill="none" stroke="black" d="M244,-144C250,-144 256,-150 256,-156"/>
<polyline fill="none" stroke="black" points="256,-156 256,-168 "/>
<path fill="none" stroke="black" d="M256,-168C256,-174 250,-180 244,-180"/>
<text text-anchor="start" x="8.5" y="-159.233" font-family="Times Roman,serif" font-size="14.00">Statistical mechanics of adsorption</text>
</a>
</g>
<!-- CANONICAL_ENSEMBLE&#45;&gt;ADSORPTION -->
<g id="edge2" class="edge"><title>CANONICAL_ENSEMBLE&#45;&gt;ADSORPTION</title>
<path fill="none" stroke="black" d="M387.885,-215.924C338.292,-205.634 276.056,-192.72 224.921,-182.111"/>
<polygon fill="black" stroke="black" points="225.352,-178.625 214.85,-180.021 223.93,-185.479 225.352,-178.625"/>
</g>
<!-- IDEAL_GAS -->
<g id="node4" class="node"><title>IDEAL_GAS</title>
<a xlink:href="IDEAL_GAS.html" xlink:title="The ideal gas model" target="_top">
<polyline fill="none" stroke="black" points="416,-180 286,-180 "/>
<path fill="none" stroke="black" d="M286,-180C280,-180 274,-174 274,-168"/>
<polyline fill="none" stroke="black" points="274,-168 274,-156 "/>
<path fill="none" stroke="black" d="M274,-156C274,-150 280,-144 286,-144"/>
<polyline fill="none" stroke="black" points="286,-144 416,-144 "/>
<path fill="none" stroke="black" d="M416,-144C422,-144 428,-150 428,-156"/>
<polyline fill="none" stroke="black" points="428,-156 428,-168 "/>
<path fill="none" stroke="black" d="M428,-168C428,-174 422,-180 416,-180"/>
<text text-anchor="start" x="282.5" y="-159.233" font-family="Times Roman,serif" font-size="14.00">The ideal gas model</text>
</a>
</g>
<!-- CANONICAL_ENSEMBLE&#45;&gt;IDEAL_GAS -->
<g id="edge4" class="edge"><title>CANONICAL_ENSEMBLE&#45;&gt;IDEAL_GAS</title>
<path fill="none" stroke="black" d="M443.71,-215.831C427.702,-206.537 408.041,-195.121 390.951,-185.197"/>
<polygon fill="black" stroke="black" points="392.686,-182.157 382.28,-180.163 389.171,-188.211 392.686,-182.157"/>
</g>
<!-- ISING_MODEL -->
<g id="node6" class="node"><title>ISING_MODEL</title>
<a xlink:href="ISING_MODEL.html" xlink:title="The Ising Model" target="_top">
<polyline fill="none" stroke="black" points="243,-108 141,-108 "/>
<path fill="none" stroke="black" d="M141,-108C135,-108 129,-102 129,-96"/>
<polyline fill="none" stroke="black" points="129,-96 129,-84 "/>
<path fill="none" stroke="black" d="M129,-84C129,-78 135,-72 141,-72"/>
<polyline fill="none" stroke="black" points="141,-72 243,-72 "/>
<path fill="none" stroke="black" d="M243,-72C249,-72 255,-78 255,-84"/>
<polyline fill="none" stroke="black" points="255,-84 255,-96 "/>
<path fill="none" stroke="black" d="M255,-96C255,-102 249,-108 243,-108"/>
<text text-anchor="start" x="137.5" y="-87.2333" font-family="Times Roman,serif" font-size="14.00">The Ising Model</text>
</a>
</g>
<!-- CANONICAL_ENSEMBLE&#45;&gt;ISING_MODEL -->
<g id="edge6" class="edge"><title>CANONICAL_ENSEMBLE&#45;&gt;ISING_MODEL</title>
<path fill="none" stroke="black" d="M472.418,-215.823C468.496,-195.202 459.008,-162.098 437,-144 378.829,-96.1627 343.533,-123.087 265.442,-108.108"/>
<polygon fill="black" stroke="black" points="265.689,-104.583 255.182,-105.947 264.246,-111.433 265.689,-104.583"/>
</g>
<!-- PARTITION_FUNCTION_FOR_MOLECULES -->
<g id="node13" class="node"><title>PARTITION_FUNCTION_FOR_MOLECULES</title>
<a xlink:href="PARTITION_FUNCTION_FOR_MOLECULES.html" xlink:title="The partition function for molecular gasses" target="_top">
<polyline fill="none" stroke="black" points="573,-108 285,-108 "/>
<path fill="none" stroke="black" d="M285,-108C279,-108 273,-102 273,-96"/>
<polyline fill="none" stroke="black" points="273,-96 273,-84 "/>
<path fill="none" stroke="black" d="M273,-84C273,-78 279,-72 285,-72"/>
<polyline fill="none" stroke="black" points="285,-72 573,-72 "/>
<path fill="none" stroke="black" d="M573,-72C579,-72 585,-78 585,-84"/>
<polyline fill="none" stroke="black" points="585,-84 585,-96 "/>
<path fill="none" stroke="black" d="M585,-96C585,-102 579,-108 573,-108"/>
<text text-anchor="start" x="281.5" y="-87.2333" font-family="Times Roman,serif" font-size="14.00">The partition function for molecular gasses</text>
</a>
</g>
<!-- CANONICAL_ENSEMBLE&#45;&gt;PARTITION_FUNCTION_FOR_MOLECULES -->
<g id="edge14" class="edge"><title>CANONICAL_ENSEMBLE&#45;&gt;PARTITION_FUNCTION_FOR_MOLECULES</title>
<path fill="none" stroke="black" d="M477.038,-215.786C478.433,-197.147 478.697,-167.646 470,-144 466.343,-134.057 460.19,-124.431 453.748,-116.128"/>
<polygon fill="black" stroke="black" points="456.355,-113.789 447.291,-108.304 450.956,-118.244 456.355,-113.789"/>
</g>
<!-- MONTE_CARLO -->
<g id="node15" class="node"><title>MONTE_CARLO</title>
<a xlink:href="MONTE_CARLO.html" xlink:title="Monte Carlo Simulation" target="_top">
<polyline fill="none" stroke="black" points="480,-36 324,-36 "/>
<path fill="none" stroke="black" d="M324,-36C318,-36 312,-30 312,-24"/>
<polyline fill="none" stroke="black" points="312,-24 312,-12 "/>
<path fill="none" stroke="black" d="M312,-12C312,-6 318,-1.72899e-14 324,-1.68162e-14"/>
<polyline fill="none" stroke="black" points="324,-1.68162e-14 480,-4.5001e-15 "/>
<path fill="none" stroke="black" d="M480,-4.5001e-15C486,-4.02641e-15 492,-6 492,-12"/>
<polyline fill="none" stroke="black" points="492,-12 492,-24 "/>
<path fill="none" stroke="black" d="M492,-24C492,-30 486,-36 480,-36"/>
<text text-anchor="start" x="320.5" y="-15.2333" font-family="Times Roman,serif" font-size="14.00">Monte Carlo Simulation</text>
</a>
</g>
<!-- CANONICAL_ENSEMBLE&#45;&gt;MONTE_CARLO -->
<g id="edge16" class="edge"><title>CANONICAL_ENSEMBLE&#45;&gt;MONTE_CARLO</title>
<path fill="none" stroke="black" d="M505.618,-215.892C552.616,-185.814 633.195,-123.74 594,-72 582.024,-56.1909 542.32,-43.7175 502.102,-34.76"/>
<polygon fill="black" stroke="black" points="502.672,-31.3024 492.159,-32.6161 501.196,-38.1452 502.672,-31.3024"/>
</g>
<!-- LATTICE_GAS -->
<g id="node18" class="node"><title>LATTICE_GAS</title>
<a xlink:href="LATTICE_GAS.html" xlink:title="Statistical mechanics of independent&#45;distinguisable systems" target="_top">
<polyline fill="none" stroke="black" points="1057,-180 653,-180 "/>
<path fill="none" stroke="black" d="M653,-180C647,-180 641,-174 641,-168"/>
<polyline fill="none" stroke="black" points="641,-168 641,-156 "/>
<path fill="none" stroke="black" d="M641,-156C641,-150 647,-144 653,-144"/>
<polyline fill="none" stroke="black" points="653,-144 1057,-144 "/>
<path fill="none" stroke="black" d="M1057,-144C1063,-144 1069,-150 1069,-156"/>
<polyline fill="none" stroke="black" points="1069,-156 1069,-168 "/>
<path fill="none" stroke="black" d="M1069,-168C1069,-174 1063,-180 1057,-180"/>
<text text-anchor="start" x="649" y="-159.233" font-family="Times Roman,serif" font-size="14.00">Statistical mechanics of independent&#45;distinguisable systems</text>
</a>
</g>
<!-- CANONICAL_ENSEMBLE&#45;&gt;LATTICE_GAS -->
<g id="edge20" class="edge"><title>CANONICAL_ENSEMBLE&#45;&gt;LATTICE_GAS</title>
<path fill="none" stroke="black" d="M566.019,-216.754C621.335,-206.273 692.179,-192.85 749.878,-181.918"/>
<polygon fill="black" stroke="black" points="750.581,-185.347 759.755,-180.047 749.278,-178.469 750.581,-185.347"/>
</g>
<!-- ADSORPTION&#45;&gt;ISING_MODEL -->
<!-- ISING_MODEL&#45;&gt;MONTE_CARLO -->
<!-- GENERALIZED_PARTITION_FUNCTION -->
<g id="node9" class="node"><title>GENERALIZED_PARTITION_FUNCTION</title>
<a xlink:href="GENERALIZED_PARTITION_FUNCTION.html" xlink:title="The generalized partition function" target="_top">
<polyline fill="none" stroke="black" points="480,-324 252,-324 "/>
<path fill="none" stroke="black" d="M252,-324C246,-324 240,-318 240,-312"/>
<polyline fill="none" stroke="black" points="240,-312 240,-300 "/>
<path fill="none" stroke="black" d="M240,-300C240,-294 246,-288 252,-288"/>
<polyline fill="none" stroke="black" points="252,-288 480,-288 "/>
<path fill="none" stroke="black" d="M480,-288C486,-288 492,-294 492,-300"/>
<polyline fill="none" stroke="black" points="492,-300 492,-312 "/>
<path fill="none" stroke="black" d="M492,-312C492,-318 486,-324 480,-324"/>
<text text-anchor="start" x="248" y="-303.233" font-family="Times Roman,serif" font-size="14.00">The generalized partition function</text>
</a>
</g>
<!-- GENERALIZED_PARTITION_FUNCTION&#45;&gt;CANONICAL_ENSEMBLE -->
<g id="edge10" class="edge"><title>GENERALIZED_PARTITION_FUNCTION&#45;&gt;CANONICAL_ENSEMBLE</title>
<path fill="none" stroke="black" d="M393.505,-287.831C407.318,-278.707 424.226,-267.539 439.053,-257.745"/>
<polygon fill="black" stroke="black" points="441.089,-260.595 447.503,-252.163 437.23,-254.754 441.089,-260.595"/>
</g>
<!-- RESPONSE_FUNCTIONS -->
<g id="node11" class="node"><title>RESPONSE_FUNCTIONS</title>
<a xlink:href="RESPONSE_FUNCTIONS.html" xlink:title="Response functions" target="_top">
<polyline fill="none" stroke="black" points="648,-324 522,-324 "/>
<path fill="none" stroke="black" d="M522,-324C516,-324 510,-318 510,-312"/>
<polyline fill="none" stroke="black" points="510,-312 510,-300 "/>
<path fill="none" stroke="black" d="M510,-300C510,-294 516,-288 522,-288"/>
<polyline fill="none" stroke="black" points="522,-288 648,-288 "/>
<path fill="none" stroke="black" d="M648,-288C654,-288 660,-294 660,-300"/>
<polyline fill="none" stroke="black" points="660,-300 660,-312 "/>
<path fill="none" stroke="black" d="M660,-312C660,-318 654,-324 648,-324"/>
<text text-anchor="start" x="518.5" y="-303.233" font-family="Times Roman,serif" font-size="14.00">Response functions</text>
</a>
</g>
<!-- RESPONSE_FUNCTIONS&#45;&gt;CANONICAL_ENSEMBLE -->
<g id="edge12" class="edge"><title>RESPONSE_FUNCTIONS&#45;&gt;CANONICAL_ENSEMBLE</title>
<path fill="none" stroke="black" d="M557.242,-287.831C543.303,-278.707 526.24,-267.539 511.277,-257.745"/>
<polygon fill="black" stroke="black" points="513.033,-254.711 502.749,-252.163 509.199,-260.568 513.033,-254.711"/>
</g>
</g>
</svg>
