<?xml version="1.0" encoding="UTF-8" standalone="no"?>
<!DOCTYPE svg PUBLIC "-//W3C//DTD SVG 1.1//EN"
 "http://www.w3.org/Graphics/SVG/1.1/DTD/svg11.dtd">
<!-- Generated by graphviz version 2.26.3 (20100126.1600)
 -->
<!-- Title: _anonymous_0 Pages: 1 -->
<svg width="920pt" height="332pt"
 viewBox="0.00 0.00 920.00 332.00" xmlns="http://www.w3.org/2000/svg" xmlns:xlink="http://www.w3.org/1999/xlink">
<g id="graph1" class="graph" transform="scale(1 1) rotate(0) translate(4 328)">
<title>_anonymous_0</title>
<!-- CANONICAL_ENSEMBLE -->
<g id="node1" class="node"><title>CANONICAL_ENSEMBLE</title>
<a xlink:href="CANONICAL_ENSEMBLE.html" xlink:title="The canonical ensemble" target="_top">
<polyline fill="none" stroke="blue" stroke-width="2" points="554,-252 396,-252 "/>
<path fill="none" stroke="blue" stroke-width="2" d="M396,-252C390,-252 384,-246 384,-240"/>
<polyline fill="none" stroke="blue" stroke-width="2" points="384,-240 384,-228 "/>
<path fill="none" stroke="blue" stroke-width="2" d="M384,-228C384,-222 390,-216 396,-216"/>
<polyline fill="none" stroke="blue" stroke-width="2" points="396,-216 554,-216 "/>
<path fill="none" stroke="blue" stroke-width="2" d="M554,-216C560,-216 566,-222 566,-228"/>
<polyline fill="none" stroke="blue" stroke-width="2" points="566,-228 566,-240 "/>
<path fill="none" stroke="blue" stroke-width="2" d="M566,-240C566,-246 560,-252 554,-252"/>
<text text-anchor="start" x="392.5" y="-231.233" font-family="Times Roman,serif" font-size="14.00">The canonical ensemble</text>
</a>
</g>
<!-- ADSORPTION -->
<g id="node2" class="node"><title>ADSORPTION</title>
<a xlink:href="ADSORPTION.html" xlink:title="Statistical mechanics of adsorption" target="_top">
<polyline fill="none" stroke="black" points="244,-180 12,-180 "/>
<path fill="none" stroke="black" d="M12,-180C6,-180 1.06581e-13,-174 8.52651e-14,-168"/>
<polyline fill="none" stroke="black" points="8.52651e-14,-168 4.26326e-14,-156 "/>
<path fill="none" stroke="black" d="M4.26326e-14,-156C2.13163e-14,-150 6,-144 12,-144"/>
<polyline fill="none" stroke="black" points="12,-144 244,-144 "/>
<path fill="none" stroke="black" d="M244,-144C250,-144 256,-150 256,-156"/>
<polyline fill="none" stroke="black" points="256,-156 256,-168 "/>
<path fill="none" stroke="black" d="M256,-168C256,-174 250,-180 244,-180"/>
<text text-anchor="start" x="8.5" y="-159.233" font-family="Times Roman,serif" font-size="14.00">Statistical mechanics of adsorption</text>
</a>
</g>
<!-- CANONICAL_ENSEMBLE&#45;&gt;ADSORPTION -->
<g id="edge2" class="edge"><title>CANONICAL_ENSEMBLE&#45;&gt;ADSORPTION</title>
<path fill="none" stroke="black" d="M387.885,-215.924C338.292,-205.634 276.056,-192.72 224.921,-182.111"/>
<polygon fill="black" stroke="black" points="225.352,-178.625 214.85,-180.021 223.93,-185.479 225.352,-178.625"/>
</g>
<!-- IDEAL_GAS -->
<g id="node4" class="node"><title>IDEAL_GAS</title>
<a xlink:href="IDEAL_GAS.html" xlink:title="The ideal gas model" target="_top">
<polyline fill="none" stroke="black" points="416,-180 286,-180 "/>
<path fill="none" stroke="black" d="M286,-180C280,-180 274,-174 274,-168"/>
<polyline fill="none" stroke="black" points="274,-168 274,-156 "/>
<path fill="none" stroke="black" d="M274,-156C274,-150 280,-144 286,-144"/>
<polyline fill="none" stroke="black" points="286,-144 416,-144 "/>
<path fill="none" stroke="black" d="M416,-144C422,-144 428,-150 428,-156"/>
<polyline fill="none" stroke="black" points="428,-156 428,-168 "/>
<path fill="none" stroke="black" d="M428,-168C428,-174 422,-180 416,-180"/>
<text text-anchor="start" x="282.5" y="-159.233" font-family="Times Roman,serif" font-size="14.00">The ideal gas model</text>
</a>
</g>
<!-- CANONICAL_ENSEMBLE&#45;&gt;IDEAL_GAS -->
<g id="edge4" class="edge"><title>CANONICAL_ENSEMBLE&#45;&gt;IDEAL_GAS</title>
<path fill="none" stroke="black" d="M443.71,-215.831C427.702,-206.537 408.041,-195.121 390.951,-185.197"/>
<polygon fill="black" stroke="black" points="392.686,-182.157 382.28,-180.163 389.171,-188.211 392.686,-182.157"/>
</g>
<!-- ISING_MODEL -->
<g id="node8" class="node"><title>ISING_MODEL</title>
<a xlink:href="ISING_MODEL.html" xlink:title="The Ising Model" target="_top">
<polyline fill="none" stroke="black" points="334,-108 232,-108 "/>
<path fill="none" stroke="black" d="M232,-108C226,-108 220,-102 220,-96"/>
<polyline fill="none" stroke="black" points="220,-96 220,-84 "/>
<path fill="none" stroke="black" d="M220,-84C220,-78 226,-72 232,-72"/>
<polyline fill="none" stroke="black" points="232,-72 334,-72 "/>
<path fill="none" stroke="black" d="M334,-72C340,-72 346,-78 346,-84"/>
<polyline fill="none" stroke="black" points="346,-84 346,-96 "/>
<path fill="none" stroke="black" d="M346,-96C346,-102 340,-108 334,-108"/>
<text text-anchor="start" x="228.5" y="-87.2333" font-family="Times Roman,serif" font-size="14.00">The Ising Model</text>
</a>
</g>
<!-- CANONICAL_ENSEMBLE&#45;&gt;ISING_MODEL -->
<g id="edge8" class="edge"><title>CANONICAL_ENSEMBLE&#45;&gt;ISING_MODEL</title>
<path fill="none" stroke="black" d="M471.9,-215.963C467.524,-195.785 457.642,-163.395 437,-144 424.55,-132.302 389.655,-119.642 356.225,-109.522"/>
<polygon fill="black" stroke="black" points="356.973,-106.093 346.39,-106.603 354.981,-112.804 356.973,-106.093"/>
</g>
<!-- MONTE_CARLO -->
<g id="node13" class="node"><title>MONTE_CARLO</title>
<a xlink:href="MONTE_CARLO.html" xlink:title="Monte Carlo Simulation" target="_top">
<polyline fill="none" stroke="black" points="532,-108 376,-108 "/>
<path fill="none" stroke="black" d="M376,-108C370,-108 364,-102 364,-96"/>
<polyline fill="none" stroke="black" points="364,-96 364,-84 "/>
<path fill="none" stroke="black" d="M364,-84C364,-78 370,-72 376,-72"/>
<polyline fill="none" stroke="black" points="376,-72 532,-72 "/>
<path fill="none" stroke="black" d="M532,-72C538,-72 544,-78 544,-84"/>
<polyline fill="none" stroke="black" points="544,-84 544,-96 "/>
<path fill="none" stroke="black" d="M544,-96C544,-102 538,-108 532,-108"/>
<text text-anchor="start" x="372.5" y="-87.2333" font-family="Times Roman,serif" font-size="14.00">Monte Carlo Simulation</text>
</a>
</g>
<!-- CANONICAL_ENSEMBLE&#45;&gt;MONTE_CARLO -->
<g id="edge14" class="edge"><title>CANONICAL_ENSEMBLE&#45;&gt;MONTE_CARLO</title>
<path fill="none" stroke="black" d="M475.224,-215.931C475.163,-197.659 474.28,-168.67 470,-144 468.503,-135.37 466.094,-126.168 463.596,-117.85"/>
<polygon fill="black" stroke="black" points="466.91,-116.722 460.558,-108.242 460.235,-118.832 466.91,-116.722"/>
</g>
<!-- LATTICE_GAS -->
<g id="node15" class="node"><title>LATTICE_GAS</title>
<a xlink:href="LATTICE_GAS.html" xlink:title="Statistical mechanics of independent&#45;distinguisable systems" target="_top">
<polyline fill="none" stroke="black" points="629,-36 225,-36 "/>
<path fill="none" stroke="black" d="M225,-36C219,-36 213,-30 213,-24"/>
<polyline fill="none" stroke="black" points="213,-24 213,-12 "/>
<path fill="none" stroke="black" d="M213,-12C213,-6 219,-1.75644e-14 225,-1.73651e-14"/>
<polyline fill="none" stroke="black" points="225,-1.73651e-14 629,-3.95115e-15 "/>
<path fill="none" stroke="black" d="M629,-3.95115e-15C635,-3.75193e-15 641,-6 641,-12"/>
<polyline fill="none" stroke="black" points="641,-12 641,-24 "/>
<path fill="none" stroke="black" d="M641,-24C641,-30 635,-36 629,-36"/>
<text text-anchor="start" x="221" y="-15.2333" font-family="Times Roman,serif" font-size="14.00">Statistical mechanics of independent&#45;distinguisable systems</text>
</a>
</g>
<!-- CANONICAL_ENSEMBLE&#45;&gt;LATTICE_GAS -->
<g id="edge16" class="edge"><title>CANONICAL_ENSEMBLE&#45;&gt;LATTICE_GAS</title>
<path fill="none" stroke="black" d="M495.686,-215.906C528.4,-185.052 585.219,-120.862 553,-72 543.995,-58.3434 530.742,-48.1275 516.172,-40.489"/>
<polygon fill="black" stroke="black" points="517.485,-37.2369 506.956,-36.0584 514.452,-43.5457 517.485,-37.2369"/>
</g>
<!-- PARTITION_FUNCTION_FOR_MOLECULES -->
<g id="node18" class="node"><title>PARTITION_FUNCTION_FOR_MOLECULES</title>
<a xlink:href="PARTITION_FUNCTION_FOR_MOLECULES.html" xlink:title="The partition function for molecular gasses" target="_top">
<polyline fill="none" stroke="black" points="900,-180 612,-180 "/>
<path fill="none" stroke="black" d="M612,-180C606,-180 600,-174 600,-168"/>
<polyline fill="none" stroke="black" points="600,-168 600,-156 "/>
<path fill="none" stroke="black" d="M600,-156C600,-150 606,-144 612,-144"/>
<polyline fill="none" stroke="black" points="612,-144 900,-144 "/>
<path fill="none" stroke="black" d="M900,-144C906,-144 912,-150 912,-156"/>
<polyline fill="none" stroke="black" points="912,-156 912,-168 "/>
<path fill="none" stroke="black" d="M912,-168C912,-174 906,-180 900,-180"/>
<text text-anchor="start" x="608.5" y="-159.233" font-family="Times Roman,serif" font-size="14.00">The partition function for molecular gasses</text>
</a>
</g>
<!-- CANONICAL_ENSEMBLE&#45;&gt;PARTITION_FUNCTION_FOR_MOLECULES -->
<g id="edge20" class="edge"><title>CANONICAL_ENSEMBLE&#45;&gt;PARTITION_FUNCTION_FOR_MOLECULES</title>
<path fill="none" stroke="black" d="M545.545,-215.924C585.129,-205.782 634.658,-193.091 675.722,-182.569"/>
<polygon fill="black" stroke="black" points="676.607,-185.956 685.426,-180.083 674.87,-179.175 676.607,-185.956"/>
</g>
<!-- ADSORPTION&#45;&gt;ISING_MODEL -->
<!-- GENERALIZED_PARTITION_FUNCTION -->
<g id="node6" class="node"><title>GENERALIZED_PARTITION_FUNCTION</title>
<a xlink:href="GENERALIZED_PARTITION_FUNCTION.html" xlink:title="The generalized partition function" target="_top">
<polyline fill="none" stroke="black" points="480,-324 252,-324 "/>
<path fill="none" stroke="black" d="M252,-324C246,-324 240,-318 240,-312"/>
<polyline fill="none" stroke="black" points="240,-312 240,-300 "/>
<path fill="none" stroke="black" d="M240,-300C240,-294 246,-288 252,-288"/>
<polyline fill="none" stroke="black" points="252,-288 480,-288 "/>
<path fill="none" stroke="black" d="M480,-288C486,-288 492,-294 492,-300"/>
<polyline fill="none" stroke="black" points="492,-300 492,-312 "/>
<path fill="none" stroke="black" d="M492,-312C492,-318 486,-324 480,-324"/>
<text text-anchor="start" x="248" y="-303.233" font-family="Times Roman,serif" font-size="14.00">The generalized partition function</text>
</a>
</g>
<!-- GENERALIZED_PARTITION_FUNCTION&#45;&gt;CANONICAL_ENSEMBLE -->
<g id="edge6" class="edge"><title>GENERALIZED_PARTITION_FUNCTION&#45;&gt;CANONICAL_ENSEMBLE</title>
<path fill="none" stroke="black" d="M393.505,-287.831C407.318,-278.707 424.226,-267.539 439.053,-257.745"/>
<polygon fill="black" stroke="black" points="441.089,-260.595 447.503,-252.163 437.23,-254.754 441.089,-260.595"/>
</g>
<!-- ISING_MODEL&#45;&gt;LATTICE_GAS -->
<!-- RESPONSE_FUNCTIONS -->
<g id="node11" class="node"><title>RESPONSE_FUNCTIONS</title>
<a xlink:href="RESPONSE_FUNCTIONS.html" xlink:title="Response functions" target="_top">
<polyline fill="none" stroke="black" points="648,-324 522,-324 "/>
<path fill="none" stroke="black" d="M522,-324C516,-324 510,-318 510,-312"/>
<polyline fill="none" stroke="black" points="510,-312 510,-300 "/>
<path fill="none" stroke="black" d="M510,-300C510,-294 516,-288 522,-288"/>
<polyline fill="none" stroke="black" points="522,-288 648,-288 "/>
<path fill="none" stroke="black" d="M648,-288C654,-288 660,-294 660,-300"/>
<polyline fill="none" stroke="black" points="660,-300 660,-312 "/>
<path fill="none" stroke="black" d="M660,-312C660,-318 654,-324 648,-324"/>
<text text-anchor="start" x="518.5" y="-303.233" font-family="Times Roman,serif" font-size="14.00">Response functions</text>
</a>
</g>
<!-- RESPONSE_FUNCTIONS&#45;&gt;CANONICAL_ENSEMBLE -->
<g id="edge12" class="edge"><title>RESPONSE_FUNCTIONS&#45;&gt;CANONICAL_ENSEMBLE</title>
<path fill="none" stroke="black" d="M557.242,-287.831C543.303,-278.707 526.24,-267.539 511.277,-257.745"/>
<polygon fill="black" stroke="black" points="513.033,-254.711 502.749,-252.163 509.199,-260.568 513.033,-254.711"/>
</g>
</g>
</svg>
