<?xml version="1.0" encoding="UTF-8" standalone="no"?>
<!DOCTYPE svg PUBLIC "-//W3C//DTD SVG 1.1//EN"
 "http://www.w3.org/Graphics/SVG/1.1/DTD/svg11.dtd">
<!-- Generated by graphviz version 2.26.3 (20100126.1600)
 -->
<!-- Title: _anonymous_0 Pages: 1 -->
<svg width="260pt" height="188pt"
 viewBox="0.00 0.00 260.00 188.00" xmlns="http://www.w3.org/2000/svg" xmlns:xlink="http://www.w3.org/1999/xlink">
<g id="graph1" class="graph" transform="scale(1 1) rotate(0) translate(4 184)">
<title>_anonymous_0</title>
<!-- CANONICAL_ENSEMBLE -->
<g id="node1" class="node"><title>CANONICAL_ENSEMBLE</title>
<a xlink:href="CANONICAL_ENSEMBLE.html" xlink:title="The canonical ensemble" target="_top">
<polyline fill="none" stroke="blue" stroke-width="2" points="205,-108 47,-108 "/>
<path fill="none" stroke="blue" stroke-width="2" d="M47,-108C41,-108 35,-102 35,-96"/>
<polyline fill="none" stroke="blue" stroke-width="2" points="35,-96 35,-84 "/>
<path fill="none" stroke="blue" stroke-width="2" d="M35,-84C35,-78 41,-72 47,-72"/>
<polyline fill="none" stroke="blue" stroke-width="2" points="47,-72 205,-72 "/>
<path fill="none" stroke="blue" stroke-width="2" d="M205,-72C211,-72 217,-78 217,-84"/>
<polyline fill="none" stroke="blue" stroke-width="2" points="217,-84 217,-96 "/>
<path fill="none" stroke="blue" stroke-width="2" d="M217,-96C217,-102 211,-108 205,-108"/>
<text text-anchor="start" x="43.5" y="-87.2333" font-family="Times Roman,serif" font-size="14.00">The canonical ensemble</text>
</a>
</g>
<!-- MONTE_CARLO -->
<g id="node2" class="node"><title>MONTE_CARLO</title>
<a xlink:href="MONTE_CARLO.html" xlink:title="Monte Carlo Simulation" target="_top">
<polyline fill="none" stroke="black" points="204,-36 48,-36 "/>
<path fill="none" stroke="black" d="M48,-36C42,-36 36,-30 36,-24"/>
<polyline fill="none" stroke="black" points="36,-24 36,-12 "/>
<path fill="none" stroke="black" d="M36,-12C36,-6 42,-1.72899e-14 48,-1.68162e-14"/>
<polyline fill="none" stroke="black" points="48,-1.68162e-14 204,-4.5001e-15 "/>
<path fill="none" stroke="black" d="M204,-4.5001e-15C210,-4.02641e-15 216,-6 216,-12"/>
<polyline fill="none" stroke="black" points="216,-12 216,-24 "/>
<path fill="none" stroke="black" d="M216,-24C216,-30 210,-36 204,-36"/>
<text text-anchor="start" x="44.5" y="-15.2333" font-family="Times Roman,serif" font-size="14.00">Monte Carlo Simulation</text>
</a>
</g>
<!-- CANONICAL_ENSEMBLE&#45;&gt;MONTE_CARLO -->
<g id="edge2" class="edge"><title>CANONICAL_ENSEMBLE&#45;&gt;MONTE_CARLO</title>
<path fill="none" stroke="black" d="M126,-71.8314C126,-64.131 126,-54.9743 126,-46.4166"/>
<polygon fill="black" stroke="black" points="129.5,-46.4132 126,-36.4133 122.5,-46.4133 129.5,-46.4132"/>
</g>
<!-- GENERALIZED_PARTITION_FUNCTION -->
<g id="node4" class="node"><title>GENERALIZED_PARTITION_FUNCTION</title>
<a xlink:href="GENERALIZED_PARTITION_FUNCTION.html" xlink:title="The generalized partition function" target="_top">
<polyline fill="none" stroke="black" points="240,-180 12,-180 "/>
<path fill="none" stroke="black" d="M12,-180C6,-180 8.28967e-14,-174 6.63173e-14,-168"/>
<polyline fill="none" stroke="black" points="6.63173e-14,-168 3.31587e-14,-156 "/>
<path fill="none" stroke="black" d="M3.31587e-14,-156C1.65793e-14,-150 6,-144 12,-144"/>
<polyline fill="none" stroke="black" points="12,-144 240,-144 "/>
<path fill="none" stroke="black" d="M240,-144C246,-144 252,-150 252,-156"/>
<polyline fill="none" stroke="black" points="252,-156 252,-168 "/>
<path fill="none" stroke="black" d="M252,-168C252,-174 246,-180 240,-180"/>
<text text-anchor="start" x="8" y="-159.233" font-family="Times Roman,serif" font-size="14.00">The generalized partition function</text>
</a>
</g>
<!-- GENERALIZED_PARTITION_FUNCTION&#45;&gt;CANONICAL_ENSEMBLE -->
<g id="edge4" class="edge"><title>GENERALIZED_PARTITION_FUNCTION&#45;&gt;CANONICAL_ENSEMBLE</title>
<path fill="none" stroke="black" d="M126,-143.831C126,-136.131 126,-126.974 126,-118.417"/>
<polygon fill="black" stroke="black" points="129.5,-118.413 126,-108.413 122.5,-118.413 129.5,-118.413"/>
</g>
</g>
</svg>
