<?xml version="1.0" encoding="UTF-8" standalone="no"?>
<!DOCTYPE svg PUBLIC "-//W3C//DTD SVG 1.1//EN"
 "http://www.w3.org/Graphics/SVG/1.1/DTD/svg11.dtd">
<!-- Generated by graphviz version 2.36.0 (20140111.2315)
 -->
<!-- Title: %3 Pages: 1 -->
<svg width="282pt" height="188pt"
 viewBox="0.00 0.00 282.00 188.00" xmlns="http://www.w3.org/2000/svg" xmlns:xlink="http://www.w3.org/1999/xlink">
<g id="graph0" class="graph" transform="scale(1 1) rotate(0) translate(4 184)">
<title>%3</title>
<!-- CARNOT_CYCLE -->
<g id="node1" class="node"><title>CARNOT_CYCLE</title>
<g id="a_node1"><a xlink:href="CARNOT_CYCLE.html" xlink:title=" The Carnot Cycle " target="_top">
<path fill="none" stroke="blue" stroke-width="2" d="M185.25,-108C185.25,-108 88.75,-108 88.75,-108 82.75,-108 76.75,-102 76.75,-96 76.75,-96 76.75,-84 76.75,-84 76.75,-78 82.75,-72 88.75,-72 88.75,-72 185.25,-72 185.25,-72 191.25,-72 197.25,-78 197.25,-84 197.25,-84 197.25,-96 197.25,-96 197.25,-102 191.25,-108 185.25,-108"/>
<text text-anchor="start" x="84.5" y="-86.3" font-family="Times,serif" font-size="14.00"> The Carnot Cycle </text>
</a>
</g>
</g>
<!-- LAWS_OF_THERMODYNAMICS -->
<g id="node2" class="node"><title>LAWS_OF_THERMODYNAMICS</title>
<g id="a_node2"><a xlink:href="LAWS_OF_THERMODYNAMICS.html" xlink:title=" The first and second laws of thermodynamics " target="_top">
<path fill="none" stroke="black" d="M262,-36C262,-36 12,-36 12,-36 6,-36 0,-30 0,-24 0,-24 0,-12 0,-12 0,-6 6,-0 12,-0 12,-0 262,-0 262,-0 268,-0 274,-6 274,-12 274,-12 274,-24 274,-24 274,-30 268,-36 262,-36"/>
<text text-anchor="start" x="8" y="-14.3" font-family="Times,serif" font-size="14.00"> The first and second laws of thermodynamics </text>
</a>
</g>
</g>
<!-- CARNOT_CYCLE&#45;&gt;LAWS_OF_THERMODYNAMICS -->
<g id="edge1" class="edge"><title>CARNOT_CYCLE&#45;&gt;LAWS_OF_THERMODYNAMICS</title>
<path fill="none" stroke="black" d="M137,-71.6966C137,-63.9827 137,-54.7125 137,-46.1124"/>
<polygon fill="black" stroke="black" points="140.5,-46.1043 137,-36.1043 133.5,-46.1044 140.5,-46.1043"/>
</g>
<!-- THERMODYNAMIC_VARIABLES -->
<g id="node3" class="node"><title>THERMODYNAMIC_VARIABLES</title>
<g id="a_node3"><a xlink:href="THERMODYNAMIC_VARIABLES.html" xlink:title=" Thermodynamic variables " target="_top">
<path fill="none" stroke="black" d="M208.25,-180C208.25,-180 65.75,-180 65.75,-180 59.75,-180 53.75,-174 53.75,-168 53.75,-168 53.75,-156 53.75,-156 53.75,-150 59.75,-144 65.75,-144 65.75,-144 208.25,-144 208.25,-144 214.25,-144 220.25,-150 220.25,-156 220.25,-156 220.25,-168 220.25,-168 220.25,-174 214.25,-180 208.25,-180"/>
<text text-anchor="start" x="61.5" y="-158.3" font-family="Times,serif" font-size="14.00"> Thermodynamic variables </text>
</a>
</g>
</g>
<!-- THERMODYNAMIC_VARIABLES&#45;&gt;CARNOT_CYCLE -->
<g id="edge2" class="edge"><title>THERMODYNAMIC_VARIABLES&#45;&gt;CARNOT_CYCLE</title>
<path fill="none" stroke="black" d="M137,-143.697C137,-135.983 137,-126.712 137,-118.112"/>
<polygon fill="black" stroke="black" points="140.5,-118.104 137,-108.104 133.5,-118.104 140.5,-118.104"/>
</g>
</g>
</svg>
