<?xml version="1.0" encoding="UTF-8" standalone="no"?>
<!DOCTYPE svg PUBLIC "-//W3C//DTD SVG 1.1//EN"
 "http://www.w3.org/Graphics/SVG/1.1/DTD/svg11.dtd">
<!-- Generated by graphviz version 2.26.3 (20100126.1600)
 -->
<!-- Title: _anonymous_0 Pages: 1 -->
<svg width="346pt" height="188pt"
 viewBox="0.00 0.00 346.00 188.00" xmlns="http://www.w3.org/2000/svg" xmlns:xlink="http://www.w3.org/1999/xlink">
<g id="graph1" class="graph" transform="scale(1 1) rotate(0) translate(4 184)">
<title>_anonymous_0</title>
<!-- CARNOT_CYCLE -->
<g id="node1" class="node"><title>CARNOT_CYCLE</title>
<a xlink:href="CARNOT_CYCLE.html" xlink:title=" The Carnot Cycle " target="_top">
<polyline fill="none" stroke="blue" stroke-width="2" points="230,-108 108,-108 "/>
<path fill="none" stroke="blue" stroke-width="2" d="M108,-108C102,-108 96,-102 96,-96"/>
<polyline fill="none" stroke="blue" stroke-width="2" points="96,-96 96,-84 "/>
<path fill="none" stroke="blue" stroke-width="2" d="M96,-84C96,-78 102,-72 108,-72"/>
<polyline fill="none" stroke="blue" stroke-width="2" points="108,-72 230,-72 "/>
<path fill="none" stroke="blue" stroke-width="2" d="M230,-72C236,-72 242,-78 242,-84"/>
<polyline fill="none" stroke="blue" stroke-width="2" points="242,-84 242,-96 "/>
<path fill="none" stroke="blue" stroke-width="2" d="M242,-96C242,-102 236,-108 230,-108"/>
<text text-anchor="start" x="104.5" y="-87.2333" font-family="Times Roman,serif" font-size="14.00"> The Carnot Cycle </text>
</a>
</g>
<!-- LAWS_OF_THERMODYNAMICS -->
<g id="node2" class="node"><title>LAWS_OF_THERMODYNAMICS</title>
<a xlink:href="LAWS_OF_THERMODYNAMICS.html" xlink:title=" The first and second laws of thermodynamics " target="_top">
<polyline fill="none" stroke="black" points="326,-36 12,-36 "/>
<path fill="none" stroke="black" d="M12,-36C6,-36 1.42109e-13,-30 1.13687e-13,-24"/>
<polyline fill="none" stroke="black" points="1.13687e-13,-24 5.68434e-14,-12 "/>
<path fill="none" stroke="black" d="M5.68434e-14,-12C2.84217e-14,-6 6,-1.75113e-14 12,-1.7259e-14"/>
<polyline fill="none" stroke="black" points="12,-1.7259e-14 326,-4.05724e-15 "/>
<path fill="none" stroke="black" d="M326,-4.05724e-15C332,-3.80498e-15 338,-6 338,-12"/>
<polyline fill="none" stroke="black" points="338,-12 338,-24 "/>
<path fill="none" stroke="black" d="M338,-24C338,-30 332,-36 326,-36"/>
<text text-anchor="start" x="8.5" y="-15.2333" font-family="Times Roman,serif" font-size="14.00"> The first and second laws of thermodynamics </text>
</a>
</g>
<!-- CARNOT_CYCLE&#45;&gt;LAWS_OF_THERMODYNAMICS -->
<g id="edge2" class="edge"><title>CARNOT_CYCLE&#45;&gt;LAWS_OF_THERMODYNAMICS</title>
<path fill="none" stroke="black" d="M169,-71.8314C169,-64.131 169,-54.9743 169,-46.4166"/>
<polygon fill="black" stroke="black" points="172.5,-46.4132 169,-36.4133 165.5,-46.4133 172.5,-46.4132"/>
</g>
<!-- THERMODYNAMIC_VARIABLES -->
<g id="node4" class="node"><title>THERMODYNAMIC_VARIABLES</title>
<a xlink:href="THERMODYNAMIC_VARIABLES.html" xlink:title=" Thermodynamic variables " target="_top">
<polyline fill="none" stroke="black" points="258,-180 80,-180 "/>
<path fill="none" stroke="black" d="M80,-180C74,-180 68,-174 68,-168"/>
<polyline fill="none" stroke="black" points="68,-168 68,-156 "/>
<path fill="none" stroke="black" d="M68,-156C68,-150 74,-144 80,-144"/>
<polyline fill="none" stroke="black" points="80,-144 258,-144 "/>
<path fill="none" stroke="black" d="M258,-144C264,-144 270,-150 270,-156"/>
<polyline fill="none" stroke="black" points="270,-156 270,-168 "/>
<path fill="none" stroke="black" d="M270,-168C270,-174 264,-180 258,-180"/>
<text text-anchor="start" x="76" y="-159.233" font-family="Times Roman,serif" font-size="14.00"> Thermodynamic variables </text>
</a>
</g>
<!-- THERMODYNAMIC_VARIABLES&#45;&gt;CARNOT_CYCLE -->
<g id="edge4" class="edge"><title>THERMODYNAMIC_VARIABLES&#45;&gt;CARNOT_CYCLE</title>
<path fill="none" stroke="black" d="M169,-143.831C169,-136.131 169,-126.974 169,-118.417"/>
<polygon fill="black" stroke="black" points="172.5,-118.413 169,-108.413 165.5,-118.413 172.5,-118.413"/>
</g>
</g>
</svg>
