<?xml version="1.0" encoding="UTF-8" standalone="no"?>
<!DOCTYPE svg PUBLIC "-//W3C//DTD SVG 1.1//EN"
 "http://www.w3.org/Graphics/SVG/1.1/DTD/svg11.dtd">
<!-- Generated by graphviz version 2.26.3 (20100126.1600)
 -->
<!-- Title: _anonymous_0 Pages: 1 -->
<svg width="336pt" height="188pt"
 viewBox="0.00 0.00 336.00 188.00" xmlns="http://www.w3.org/2000/svg" xmlns:xlink="http://www.w3.org/1999/xlink">
<g id="graph1" class="graph" transform="scale(1 1) rotate(0) translate(4 184)">
<title>_anonymous_0</title>
<!-- CARNOT_CYCLE -->
<g id="node1" class="node"><title>CARNOT_CYCLE</title>
<a xlink:href="CARNOT_CYCLE.html" xlink:title="The Carnot Cycle" target="_top">
<polyline fill="none" stroke="blue" stroke-width="2" points="220,-108 108,-108 "/>
<path fill="none" stroke="blue" stroke-width="2" d="M108,-108C102,-108 96,-102 96,-96"/>
<polyline fill="none" stroke="blue" stroke-width="2" points="96,-96 96,-84 "/>
<path fill="none" stroke="blue" stroke-width="2" d="M96,-84C96,-78 102,-72 108,-72"/>
<polyline fill="none" stroke="blue" stroke-width="2" points="108,-72 220,-72 "/>
<path fill="none" stroke="blue" stroke-width="2" d="M220,-72C226,-72 232,-78 232,-84"/>
<polyline fill="none" stroke="blue" stroke-width="2" points="232,-84 232,-96 "/>
<path fill="none" stroke="blue" stroke-width="2" d="M232,-96C232,-102 226,-108 220,-108"/>
<text text-anchor="start" x="104" y="-87.2333" font-family="Times Roman,serif" font-size="14.00">The Carnot Cycle</text>
</a>
</g>
<!-- LAWS_OF_THERMODYNAMICS -->
<g id="node2" class="node"><title>LAWS_OF_THERMODYNAMICS</title>
<a xlink:href="LAWS_OF_THERMODYNAMICS.html" xlink:title="The first and second laws of thermodynamics" target="_top">
<polyline fill="none" stroke="black" points="316,-36 12,-36 "/>
<path fill="none" stroke="black" d="M12,-36C6,-36 1.42109e-13,-30 1.13687e-13,-24"/>
<polyline fill="none" stroke="black" points="1.13687e-13,-24 5.68434e-14,-12 "/>
<path fill="none" stroke="black" d="M5.68434e-14,-12C2.84217e-14,-6 6,-1.75036e-14 12,-1.72437e-14"/>
<polyline fill="none" stroke="black" points="12,-1.72437e-14 316,-4.07262e-15 "/>
<path fill="none" stroke="black" d="M316,-4.07262e-15C322,-3.81267e-15 328,-6 328,-12"/>
<polyline fill="none" stroke="black" points="328,-12 328,-24 "/>
<path fill="none" stroke="black" d="M328,-24C328,-30 322,-36 316,-36"/>
<text text-anchor="start" x="8" y="-15.2333" font-family="Times Roman,serif" font-size="14.00">The first and second laws of thermodynamics</text>
</a>
</g>
<!-- CARNOT_CYCLE&#45;&gt;LAWS_OF_THERMODYNAMICS -->
<g id="edge2" class="edge"><title>CARNOT_CYCLE&#45;&gt;LAWS_OF_THERMODYNAMICS</title>
<path fill="none" stroke="black" d="M164,-71.8314C164,-64.131 164,-54.9743 164,-46.4166"/>
<polygon fill="black" stroke="black" points="167.5,-46.4132 164,-36.4133 160.5,-46.4133 167.5,-46.4132"/>
</g>
<!-- THERMODYNAMIC_VARIABLES -->
<g id="node4" class="node"><title>THERMODYNAMIC_VARIABLES</title>
<a xlink:href="THERMODYNAMIC_VARIABLES.html" xlink:title="Thermodynamic variables" target="_top">
<polyline fill="none" stroke="black" points="249,-180 79,-180 "/>
<path fill="none" stroke="black" d="M79,-180C73,-180 67,-174 67,-168"/>
<polyline fill="none" stroke="black" points="67,-168 67,-156 "/>
<path fill="none" stroke="black" d="M67,-156C67,-150 73,-144 79,-144"/>
<polyline fill="none" stroke="black" points="79,-144 249,-144 "/>
<path fill="none" stroke="black" d="M249,-144C255,-144 261,-150 261,-156"/>
<polyline fill="none" stroke="black" points="261,-156 261,-168 "/>
<path fill="none" stroke="black" d="M261,-168C261,-174 255,-180 249,-180"/>
<text text-anchor="start" x="75.5" y="-159.233" font-family="Times Roman,serif" font-size="14.00">Thermodynamic variables</text>
</a>
</g>
<!-- THERMODYNAMIC_VARIABLES&#45;&gt;CARNOT_CYCLE -->
<g id="edge4" class="edge"><title>THERMODYNAMIC_VARIABLES&#45;&gt;CARNOT_CYCLE</title>
<path fill="none" stroke="black" d="M164,-143.831C164,-136.131 164,-126.974 164,-118.417"/>
<polygon fill="black" stroke="black" points="167.5,-118.413 164,-108.413 160.5,-118.413 167.5,-118.413"/>
</g>
</g>
</svg>
