<?xml version="1.0" encoding="UTF-8" standalone="no"?>
<!DOCTYPE svg PUBLIC "-//W3C//DTD SVG 1.1//EN"
 "http://www.w3.org/Graphics/SVG/1.1/DTD/svg11.dtd">
<!-- Generated by graphviz version 2.26.3 (20100126.1600)
 -->
<!-- Title: _anonymous_0 Pages: 1 -->
<svg width="344pt" height="116pt"
 viewBox="0.00 0.00 344.00 116.00" xmlns="http://www.w3.org/2000/svg" xmlns:xlink="http://www.w3.org/1999/xlink">
<g id="graph1" class="graph" transform="scale(1 1) rotate(0) translate(4 112)">
<title>_anonymous_0</title>
<!-- CAUCHY_SCHWARTZ_INEQUALITY_STATS -->
<g id="node1" class="node"><title>CAUCHY_SCHWARTZ_INEQUALITY_STATS</title>
<a xlink:href="CAUCHY_SCHWARTZ_INEQUALITY_STATS.html" xlink:title=" The Cauchy Schwartz Inequality in Statistics " target="_top">
<polyline fill="none" stroke="blue" stroke-width="2" points="324,-36 12,-36 "/>
<path fill="none" stroke="blue" stroke-width="2" d="M12,-36C6,-36 1.42109e-13,-30 1.13687e-13,-24"/>
<polyline fill="none" stroke="blue" stroke-width="2" points="1.13687e-13,-24 5.68434e-14,-12 "/>
<path fill="none" stroke="blue" stroke-width="2" d="M5.68434e-14,-12C2.84217e-14,-6 6,-1.75098e-14 12,-1.7256e-14"/>
<polyline fill="none" stroke="blue" stroke-width="2" points="12,-1.7256e-14 324,-4.06024e-15 "/>
<path fill="none" stroke="blue" stroke-width="2" d="M324,-4.06024e-15C330,-3.80648e-15 336,-6 336,-12"/>
<polyline fill="none" stroke="blue" stroke-width="2" points="336,-12 336,-24 "/>
<path fill="none" stroke="blue" stroke-width="2" d="M336,-24C336,-30 330,-36 324,-36"/>
<text text-anchor="start" x="8" y="-15.2333" font-family="Times Roman,serif" font-size="14.00"> The Cauchy Schwartz Inequality in Statistics </text>
</a>
</g>
<!-- JOINT_PROBABILITY_DISTRIBUTION -->
<g id="node2" class="node"><title>JOINT_PROBABILITY_DISTRIBUTION</title>
<a xlink:href="JOINT_PROBABILITY_DISTRIBUTION.html" xlink:title=" Joint probability distribution " target="_top">
<polyline fill="none" stroke="black" points="265,-108 71,-108 "/>
<path fill="none" stroke="black" d="M71,-108C65,-108 59,-102 59,-96"/>
<polyline fill="none" stroke="black" points="59,-96 59,-84 "/>
<path fill="none" stroke="black" d="M59,-84C59,-78 65,-72 71,-72"/>
<polyline fill="none" stroke="black" points="71,-72 265,-72 "/>
<path fill="none" stroke="black" d="M265,-72C271,-72 277,-78 277,-84"/>
<polyline fill="none" stroke="black" points="277,-84 277,-96 "/>
<path fill="none" stroke="black" d="M277,-96C277,-102 271,-108 265,-108"/>
<text text-anchor="start" x="67" y="-87.2333" font-family="Times Roman,serif" font-size="14.00"> Joint probability distribution </text>
</a>
</g>
<!-- JOINT_PROBABILITY_DISTRIBUTION&#45;&gt;CAUCHY_SCHWARTZ_INEQUALITY_STATS -->
<g id="edge2" class="edge"><title>JOINT_PROBABILITY_DISTRIBUTION&#45;&gt;CAUCHY_SCHWARTZ_INEQUALITY_STATS</title>
<path fill="none" stroke="black" d="M168,-71.8314C168,-64.131 168,-54.9743 168,-46.4166"/>
<polygon fill="black" stroke="black" points="171.5,-46.4132 168,-36.4133 164.5,-46.4133 171.5,-46.4132"/>
</g>
</g>
</svg>
