<?xml version="1.0" encoding="UTF-8" standalone="no"?>
<!DOCTYPE svg PUBLIC "-//W3C//DTD SVG 1.1//EN"
 "http://www.w3.org/Graphics/SVG/1.1/DTD/svg11.dtd">
<!-- Generated by graphviz version 2.36.0 (20140111.2315)
 -->
<!-- Title: %3 Pages: 1 -->
<svg width="276pt" height="116pt"
 viewBox="0.00 0.00 276.00 116.00" xmlns="http://www.w3.org/2000/svg" xmlns:xlink="http://www.w3.org/1999/xlink">
<g id="graph0" class="graph" transform="scale(1 1) rotate(0) translate(4 112)">
<title>%3</title>
<!-- CAUCHY_SCHWARTZ_INEQUALITY_STATS -->
<g id="node1" class="node"><title>CAUCHY_SCHWARTZ_INEQUALITY_STATS</title>
<g id="a_node1"><a xlink:href="CAUCHY_SCHWARTZ_INEQUALITY_STATS.html" xlink:title=" The Cauchy Schwartz Inequality in Statistics " target="_top">
<path fill="none" stroke="blue" stroke-width="2" d="M256.25,-36C256.25,-36 11.75,-36 11.75,-36 5.75,-36 -0.25,-30 -0.25,-24 -0.25,-24 -0.25,-12 -0.25,-12 -0.25,-6 5.75,-0 11.75,-0 11.75,-0 256.25,-0 256.25,-0 262.25,-0 268.25,-6 268.25,-12 268.25,-12 268.25,-24 268.25,-24 268.25,-30 262.25,-36 256.25,-36"/>
<text text-anchor="start" x="7.5" y="-14.3" font-family="Times,serif" font-size="14.00"> The Cauchy Schwartz Inequality in Statistics </text>
</a>
</g>
</g>
<!-- JOINT_PROBABILITY_DISTRIBUTION -->
<g id="node2" class="node"><title>JOINT_PROBABILITY_DISTRIBUTION</title>
<g id="a_node2"><a xlink:href="JOINT_PROBABILITY_DISTRIBUTION.html" xlink:title=" Joint probability distribution " target="_top">
<path fill="none" stroke="black" d="M211.25,-108C211.25,-108 56.75,-108 56.75,-108 50.75,-108 44.75,-102 44.75,-96 44.75,-96 44.75,-84 44.75,-84 44.75,-78 50.75,-72 56.75,-72 56.75,-72 211.25,-72 211.25,-72 217.25,-72 223.25,-78 223.25,-84 223.25,-84 223.25,-96 223.25,-96 223.25,-102 217.25,-108 211.25,-108"/>
<text text-anchor="start" x="52.5" y="-86.3" font-family="Times,serif" font-size="14.00"> Joint probability distribution </text>
</a>
</g>
</g>
<!-- JOINT_PROBABILITY_DISTRIBUTION&#45;&gt;CAUCHY_SCHWARTZ_INEQUALITY_STATS -->
<g id="edge1" class="edge"><title>JOINT_PROBABILITY_DISTRIBUTION&#45;&gt;CAUCHY_SCHWARTZ_INEQUALITY_STATS</title>
<path fill="none" stroke="black" d="M134,-71.6966C134,-63.9827 134,-54.7125 134,-46.1124"/>
<polygon fill="black" stroke="black" points="137.5,-46.1043 134,-36.1043 130.5,-46.1044 137.5,-46.1043"/>
</g>
</g>
</svg>
