<?xml version="1.0" encoding="UTF-8" standalone="no"?>
<!DOCTYPE svg PUBLIC "-//W3C//DTD SVG 1.1//EN"
 "http://www.w3.org/Graphics/SVG/1.1/DTD/svg11.dtd">
<!-- Generated by graphviz version 2.26.3 (20100126.1600)
 -->
<!-- Title: _anonymous_0 Pages: 1 -->
<svg width="336pt" height="116pt"
 viewBox="0.00 0.00 336.00 116.00" xmlns="http://www.w3.org/2000/svg" xmlns:xlink="http://www.w3.org/1999/xlink">
<g id="graph1" class="graph" transform="scale(1 1) rotate(0) translate(4 112)">
<title>_anonymous_0</title>
<!-- CAUCHY_SCHWARTZ_INEQUALITY_STATS -->
<g id="node1" class="node"><title>CAUCHY_SCHWARTZ_INEQUALITY_STATS</title>
<a xlink:href="CAUCHY_SCHWARTZ_INEQUALITY_STATS.html" xlink:title="The Cauchy Schwartz Inequality in Statistics" target="_top">
<polyline fill="none" stroke="blue" stroke-width="2" points="316,-36 12,-36 "/>
<path fill="none" stroke="blue" stroke-width="2" d="M12,-36C6,-36 1.42109e-13,-30 1.13687e-13,-24"/>
<polyline fill="none" stroke="blue" stroke-width="2" points="1.13687e-13,-24 5.68434e-14,-12 "/>
<path fill="none" stroke="blue" stroke-width="2" d="M5.68434e-14,-12C2.84217e-14,-6 6,-1.75036e-14 12,-1.72437e-14"/>
<polyline fill="none" stroke="blue" stroke-width="2" points="12,-1.72437e-14 316,-4.07262e-15 "/>
<path fill="none" stroke="blue" stroke-width="2" d="M316,-4.07262e-15C322,-3.81267e-15 328,-6 328,-12"/>
<polyline fill="none" stroke="blue" stroke-width="2" points="328,-12 328,-24 "/>
<path fill="none" stroke="blue" stroke-width="2" d="M328,-24C328,-30 322,-36 316,-36"/>
<text text-anchor="start" x="8.5" y="-15.2333" font-family="Times Roman,serif" font-size="14.00">The Cauchy Schwartz Inequality in Statistics</text>
</a>
</g>
<!-- JOINT_PROBABILITY_DISTRIBUTION -->
<g id="node2" class="node"><title>JOINT_PROBABILITY_DISTRIBUTION</title>
<a xlink:href="JOINT_PROBABILITY_DISTRIBUTION.html" xlink:title="Joint probability distribution" target="_top">
<polyline fill="none" stroke="black" points="257,-108 71,-108 "/>
<path fill="none" stroke="black" d="M71,-108C65,-108 59,-102 59,-96"/>
<polyline fill="none" stroke="black" points="59,-96 59,-84 "/>
<path fill="none" stroke="black" d="M59,-84C59,-78 65,-72 71,-72"/>
<polyline fill="none" stroke="black" points="71,-72 257,-72 "/>
<path fill="none" stroke="black" d="M257,-72C263,-72 269,-78 269,-84"/>
<polyline fill="none" stroke="black" points="269,-84 269,-96 "/>
<path fill="none" stroke="black" d="M269,-96C269,-102 263,-108 257,-108"/>
<text text-anchor="start" x="67.5" y="-87.2333" font-family="Times Roman,serif" font-size="14.00">Joint probability distribution</text>
</a>
</g>
<!-- JOINT_PROBABILITY_DISTRIBUTION&#45;&gt;CAUCHY_SCHWARTZ_INEQUALITY_STATS -->
<g id="edge2" class="edge"><title>JOINT_PROBABILITY_DISTRIBUTION&#45;&gt;CAUCHY_SCHWARTZ_INEQUALITY_STATS</title>
<path fill="none" stroke="black" d="M164,-71.8314C164,-64.131 164,-54.9743 164,-46.4166"/>
<polygon fill="black" stroke="black" points="167.5,-46.4132 164,-36.4133 160.5,-46.4133 167.5,-46.4132"/>
</g>
</g>
</svg>
