<?xml version="1.0" encoding="UTF-8" standalone="no"?>
<!DOCTYPE svg PUBLIC "-//W3C//DTD SVG 1.1//EN"
 "http://www.w3.org/Graphics/SVG/1.1/DTD/svg11.dtd">
<!-- Generated by graphviz version 2.28.0 (20110509.1545)
 -->
<!-- Title: _anonymous_0 Pages: 1 -->
<svg width="276pt" height="116pt"
 viewBox="0.00 0.00 276.00 116.00" xmlns="http://www.w3.org/2000/svg" xmlns:xlink="http://www.w3.org/1999/xlink">
<g id="graph1" class="graph" transform="scale(1 1) rotate(0) translate(4 112)">
<title>_anonymous_0</title>
<!-- CAUCHY_SCHWARTZ_INEQUALITY_STATS -->
<g id="node1" class="node"><title>CAUCHY_SCHWARTZ_INEQUALITY_STATS</title>
<a xlink:href="CAUCHY_SCHWARTZ_INEQUALITY_STATS.html" xlink:title="The Cauchy Schwartz Inequality in Statistics" target="_top">
<polyline fill="none" stroke="blue" stroke-width="2" points="256.25,-36 11.75,-36 "/>
<path fill="none" stroke="blue" stroke-width="2" d="M11.75,-36C5.75,-36 -0.25,-30 -0.25,-24"/>
<polyline fill="none" stroke="blue" stroke-width="2" points="-0.25,-24 -0.25,-12 "/>
<path fill="none" stroke="blue" stroke-width="2" d="M-0.25,-12C-0.25,-6 5.75,-0 11.75,-0"/>
<polyline fill="none" stroke="blue" stroke-width="2" points="11.75,-0 256.25,-0 "/>
<path fill="none" stroke="blue" stroke-width="2" d="M256.25,-0C262.25,-0 268.25,-6 268.25,-12"/>
<polyline fill="none" stroke="blue" stroke-width="2" points="268.25,-12 268.25,-24 "/>
<path fill="none" stroke="blue" stroke-width="2" d="M268.25,-24C268.25,-30 262.25,-36 256.25,-36"/>
<text text-anchor="start" x="8" y="-12.5" font-family="Times,serif" font-size="14.00">The Cauchy Schwartz Inequality in Statistics</text>
</a>
</g>
<!-- JOINT_PROBABILITY_DISTRIBUTION -->
<g id="node2" class="node"><title>JOINT_PROBABILITY_DISTRIBUTION</title>
<a xlink:href="JOINT_PROBABILITY_DISTRIBUTION.html" xlink:title="Joint probability distribution" target="_top">
<polyline fill="none" stroke="black" points="210.25,-108 57.75,-108 "/>
<path fill="none" stroke="black" d="M57.75,-108C51.75,-108 45.75,-102 45.75,-96"/>
<polyline fill="none" stroke="black" points="45.75,-96 45.75,-84 "/>
<path fill="none" stroke="black" d="M45.75,-84C45.75,-78 51.75,-72 57.75,-72"/>
<polyline fill="none" stroke="black" points="57.75,-72 210.25,-72 "/>
<path fill="none" stroke="black" d="M210.25,-72C216.25,-72 222.25,-78 222.25,-84"/>
<polyline fill="none" stroke="black" points="222.25,-84 222.25,-96 "/>
<path fill="none" stroke="black" d="M222.25,-96C222.25,-102 216.25,-108 210.25,-108"/>
<text text-anchor="start" x="54" y="-84.5" font-family="Times,serif" font-size="14.00">Joint probability distribution</text>
</a>
</g>
<!-- JOINT_PROBABILITY_DISTRIBUTION&#45;&gt;CAUCHY_SCHWARTZ_INEQUALITY_STATS -->
<g id="edge2" class="edge"><title>JOINT_PROBABILITY_DISTRIBUTION&#45;&gt;CAUCHY_SCHWARTZ_INEQUALITY_STATS</title>
<path fill="none" stroke="black" d="M134,-71.6966C134,-63.9827 134,-54.7125 134,-46.1124"/>
<polygon fill="black" stroke="black" points="137.5,-46.1043 134,-36.1043 130.5,-46.1044 137.5,-46.1043"/>
</g>
</g>
</svg>
