<?xml version="1.0" encoding="UTF-8" standalone="no"?>
<!DOCTYPE svg PUBLIC "-//W3C//DTD SVG 1.1//EN"
 "http://www.w3.org/Graphics/SVG/1.1/DTD/svg11.dtd">
<!-- Generated by graphviz version 2.26.3 (20100126.1600)
 -->
<!-- Title: _anonymous_0 Pages: 1 -->
<svg width="300pt" height="188pt"
 viewBox="0.00 0.00 300.00 188.00" xmlns="http://www.w3.org/2000/svg" xmlns:xlink="http://www.w3.org/1999/xlink">
<g id="graph1" class="graph" transform="scale(1 1) rotate(0) translate(4 184)">
<title>_anonymous_0</title>
<!-- CENTRAL_LIMIT_THEOREM -->
<g id="node1" class="node"><title>CENTRAL_LIMIT_THEOREM</title>
<a xlink:href="CENTRAL_LIMIT_THEOREM.html" xlink:title="The central limit theorem" target="_top">
<polyline fill="none" stroke="blue" stroke-width="2" points="212,-108 42,-108 "/>
<path fill="none" stroke="blue" stroke-width="2" d="M42,-108C36,-108 30,-102 30,-96"/>
<polyline fill="none" stroke="blue" stroke-width="2" points="30,-96 30,-84 "/>
<path fill="none" stroke="blue" stroke-width="2" d="M30,-84C30,-78 36,-72 42,-72"/>
<polyline fill="none" stroke="blue" stroke-width="2" points="42,-72 212,-72 "/>
<path fill="none" stroke="blue" stroke-width="2" d="M212,-72C218,-72 224,-78 224,-84"/>
<polyline fill="none" stroke="blue" stroke-width="2" points="224,-84 224,-96 "/>
<path fill="none" stroke="blue" stroke-width="2" d="M224,-96C224,-102 218,-108 212,-108"/>
<text text-anchor="start" x="38.5" y="-87.2333" font-family="Times Roman,serif" font-size="14.00">The central limit theorem</text>
</a>
</g>
<!-- NORMAL_RANDOM_VARIABLE -->
<g id="node6" class="node"><title>NORMAL_RANDOM_VARIABLE</title>
<a xlink:href="NORMAL_RANDOM_VARIABLE.html" xlink:title="Normal random variable" target="_top">
<polyline fill="none" stroke="black" points="206,-36 48,-36 "/>
<path fill="none" stroke="black" d="M48,-36C42,-36 36,-30 36,-24"/>
<polyline fill="none" stroke="black" points="36,-24 36,-12 "/>
<path fill="none" stroke="black" d="M36,-12C36,-6 42,-1.72951e-14 48,-1.68266e-14"/>
<polyline fill="none" stroke="black" points="48,-1.68266e-14 206,-4.48969e-15 "/>
<path fill="none" stroke="black" d="M206,-4.48969e-15C212,-4.0212e-15 218,-6 218,-12"/>
<polyline fill="none" stroke="black" points="218,-12 218,-24 "/>
<path fill="none" stroke="black" d="M218,-24C218,-30 212,-36 206,-36"/>
<text text-anchor="start" x="44" y="-15.2333" font-family="Times Roman,serif" font-size="14.00">Normal random variable</text>
</a>
</g>
<!-- CENTRAL_LIMIT_THEOREM&#45;&gt;NORMAL_RANDOM_VARIABLE -->
<g id="edge6" class="edge"><title>CENTRAL_LIMIT_THEOREM&#45;&gt;NORMAL_RANDOM_VARIABLE</title>
<path fill="none" stroke="black" d="M121.048,-71.8314C120.297,-64.131 120.076,-54.9743 120.385,-46.4166"/>
<polygon fill="black" stroke="black" points="123.879,-46.6161 121.024,-36.4133 116.893,-46.1697 123.879,-46.6161"/>
</g>
<!-- VARIANCE -->
<g id="node2" class="node"><title>VARIANCE</title>
<a xlink:href="VARIANCE.html" xlink:title="Variance " target="_top">
<polyline fill="none" stroke="black" points="280,-180 224,-180 "/>
<path fill="none" stroke="black" d="M224,-180C218,-180 212,-174 212,-168"/>
<polyline fill="none" stroke="black" points="212,-168 212,-156 "/>
<path fill="none" stroke="black" d="M212,-156C212,-150 218,-144 224,-144"/>
<polyline fill="none" stroke="black" points="224,-144 280,-144 "/>
<path fill="none" stroke="black" d="M280,-144C286,-144 292,-150 292,-156"/>
<polyline fill="none" stroke="black" points="292,-156 292,-168 "/>
<path fill="none" stroke="black" d="M292,-168C292,-174 286,-180 280,-180"/>
<text text-anchor="start" x="220" y="-159.233" font-family="Times Roman,serif" font-size="14.00">Variance </text>
</a>
</g>
<!-- VARIANCE&#45;&gt;CENTRAL_LIMIT_THEOREM -->
<g id="edge2" class="edge"><title>VARIANCE&#45;&gt;CENTRAL_LIMIT_THEOREM</title>
<path fill="none" stroke="black" d="M220.457,-143.831C204.321,-134.537 184.501,-123.121 167.273,-113.197"/>
<polygon fill="black" stroke="black" points="168.945,-110.121 158.533,-108.163 165.451,-116.187 168.945,-110.121"/>
</g>
<!-- VARIANCE&#45;&gt;NORMAL_RANDOM_VARIABLE -->
<!-- LAW_OF_LARGE_NUMBERS -->
<g id="node4" class="node"><title>LAW_OF_LARGE_NUMBERS</title>
<a xlink:href="LAW_OF_LARGE_NUMBERS.html" xlink:title="The law of large numbers" target="_top">
<polyline fill="none" stroke="black" points="182,-180 12,-180 "/>
<path fill="none" stroke="black" d="M12,-180C6,-180 4.73695e-14,-174 3.78956e-14,-168"/>
<polyline fill="none" stroke="black" points="3.78956e-14,-168 1.89478e-14,-156 "/>
<path fill="none" stroke="black" d="M1.89478e-14,-156C9.4739e-15,-150 6,-144 12,-144"/>
<polyline fill="none" stroke="black" points="12,-144 182,-144 "/>
<path fill="none" stroke="black" d="M182,-144C188,-144 194,-150 194,-156"/>
<polyline fill="none" stroke="black" points="194,-156 194,-168 "/>
<path fill="none" stroke="black" d="M194,-168C194,-174 188,-180 182,-180"/>
<text text-anchor="start" x="8.5" y="-159.233" font-family="Times Roman,serif" font-size="14.00">The law of large numbers</text>
</a>
</g>
<!-- LAW_OF_LARGE_NUMBERS&#45;&gt;CENTRAL_LIMIT_THEOREM -->
<g id="edge4" class="edge"><title>LAW_OF_LARGE_NUMBERS&#45;&gt;CENTRAL_LIMIT_THEOREM</title>
<path fill="none" stroke="black" d="M104.57,-143.831C107.849,-135.962 111.762,-126.571 115.394,-117.853"/>
<polygon fill="black" stroke="black" points="118.712,-118.99 119.328,-108.413 112.251,-116.298 118.712,-118.99"/>
</g>
<!-- NORMAL_RANDOM_VARIABLE&#45;&gt;CENTRAL_LIMIT_THEOREM -->
<g id="edge8" class="edge"><title>NORMAL_RANDOM_VARIABLE&#45;&gt;CENTRAL_LIMIT_THEOREM</title>
<path fill="none" stroke="black" d="M132.976,-36.4133C133.707,-44.0593 133.92,-53.1084 133.615,-61.5726"/>
<polygon fill="black" stroke="black" points="130.105,-61.6264 132.952,-71.8314 137.09,-62.078 130.105,-61.6264"/>
</g>
</g>
</svg>
