<?xml version="1.0" encoding="UTF-8" standalone="no"?>
<!DOCTYPE svg PUBLIC "-//W3C//DTD SVG 1.1//EN"
 "http://www.w3.org/Graphics/SVG/1.1/DTD/svg11.dtd">
<!-- Generated by graphviz version 2.36.0 (20140111.2315)
 -->
<!-- Title: %3 Pages: 1 -->
<svg width="527pt" height="260pt"
 viewBox="0.00 0.00 527.00 260.00" xmlns="http://www.w3.org/2000/svg" xmlns:xlink="http://www.w3.org/1999/xlink">
<g id="graph0" class="graph" transform="scale(1 1) rotate(0) translate(4 256)">
<title>%3</title>
<!-- CENTRAL_LIMIT_THEOREM -->
<g id="node1" class="node"><title>CENTRAL_LIMIT_THEOREM</title>
<g id="a_node1"><a xlink:href="CENTRAL_LIMIT_THEOREM.html" xlink:title=" The central limit theorem " target="_top">
<path fill="none" stroke="blue" stroke-width="2" d="M325,-180C325,-180 185,-180 185,-180 179,-180 173,-174 173,-168 173,-168 173,-156 173,-156 173,-150 179,-144 185,-144 185,-144 325,-144 325,-144 331,-144 337,-150 337,-156 337,-156 337,-168 337,-168 337,-174 331,-180 325,-180"/>
<text text-anchor="start" x="181" y="-158.3" font-family="Times,serif" font-size="14.00"> The central limit theorem </text>
</a>
</g>
</g>
<!-- NORMAL_RANDOM_VARIABLE -->
<g id="node3" class="node"><title>NORMAL_RANDOM_VARIABLE</title>
<g id="a_node3"><a xlink:href="NORMAL_RANDOM_VARIABLE.html" xlink:title=" Normal random variable " target="_top">
<path fill="none" stroke="black" d="M146.25,-108C146.25,-108 11.75,-108 11.75,-108 5.75,-108 -0.25,-102 -0.25,-96 -0.25,-96 -0.25,-84 -0.25,-84 -0.25,-78 5.75,-72 11.75,-72 11.75,-72 146.25,-72 146.25,-72 152.25,-72 158.25,-78 158.25,-84 158.25,-84 158.25,-96 158.25,-96 158.25,-102 152.25,-108 146.25,-108"/>
<text text-anchor="start" x="7.5" y="-86.3" font-family="Times,serif" font-size="14.00"> Normal random variable </text>
</a>
</g>
</g>
<!-- CENTRAL_LIMIT_THEOREM&#45;&gt;NORMAL_RANDOM_VARIABLE -->
<g id="edge2" class="edge"><title>CENTRAL_LIMIT_THEOREM&#45;&gt;NORMAL_RANDOM_VARIABLE</title>
<path fill="none" stroke="black" d="M206.048,-143.876C180.876,-134.264 150.41,-122.193 125.585,-112.013"/>
<polygon fill="black" stroke="black" points="126.602,-108.646 116.023,-108.068 123.933,-115.117 126.602,-108.646"/>
</g>
<!-- MONTE_CARLO -->
<g id="node5" class="node"><title>MONTE_CARLO</title>
<g id="a_node5"><a xlink:href="MONTE_CARLO.html" xlink:title=" Monte Carlo Simulation " target="_top">
<path fill="none" stroke="black" d="M321.5,-108C321.5,-108 188.5,-108 188.5,-108 182.5,-108 176.5,-102 176.5,-96 176.5,-96 176.5,-84 176.5,-84 176.5,-78 182.5,-72 188.5,-72 188.5,-72 321.5,-72 321.5,-72 327.5,-72 333.5,-78 333.5,-84 333.5,-84 333.5,-96 333.5,-96 333.5,-102 327.5,-108 321.5,-108"/>
<text text-anchor="start" x="184" y="-86.3" font-family="Times,serif" font-size="14.00"> Monte Carlo Simulation </text>
</a>
</g>
</g>
<!-- CENTRAL_LIMIT_THEOREM&#45;&gt;MONTE_CARLO -->
<g id="edge6" class="edge"><title>CENTRAL_LIMIT_THEOREM&#45;&gt;MONTE_CARLO</title>
<path fill="none" stroke="black" d="M255,-143.697C255,-135.983 255,-126.712 255,-118.112"/>
<polygon fill="black" stroke="black" points="258.5,-118.104 255,-108.104 251.5,-118.104 258.5,-118.104"/>
</g>
<!-- VARIANCE -->
<g id="node2" class="node"><title>VARIANCE</title>
<g id="a_node2"><a xlink:href="VARIANCE.html" xlink:title=" Variance &#160;" target="_top">
<path fill="none" stroke="black" d="M417.25,-108C417.25,-108 364.75,-108 364.75,-108 358.75,-108 352.75,-102 352.75,-96 352.75,-96 352.75,-84 352.75,-84 352.75,-78 358.75,-72 364.75,-72 364.75,-72 417.25,-72 417.25,-72 423.25,-72 429.25,-78 429.25,-84 429.25,-84 429.25,-96 429.25,-96 429.25,-102 423.25,-108 417.25,-108"/>
<text text-anchor="start" x="360.5" y="-86.3" font-family="Times,serif" font-size="14.00"> Variance &#160;</text>
</a>
</g>
</g>
<!-- VARIANCE&#45;&gt;CENTRAL_LIMIT_THEOREM -->
<g id="edge1" class="edge"><title>VARIANCE&#45;&gt;CENTRAL_LIMIT_THEOREM</title>
<path fill="none" stroke="black" d="M357.603,-108.19C339.388,-117.565 316.657,-129.265 297.224,-139.267"/>
<polygon fill="black" stroke="black" points="295.559,-136.188 288.269,-143.876 298.762,-142.412 295.559,-136.188"/>
</g>
<!-- INDEPENDENT_RANDOM_VARIABLES -->
<g id="node4" class="node"><title>INDEPENDENT_RANDOM_VARIABLES</title>
<g id="a_node4"><a xlink:href="INDEPENDENT_RANDOM_VARIABLES.html" xlink:title=" Independent random variables " target="_top">
<path fill="none" stroke="black" d="M506.25,-36C506.25,-36 341.75,-36 341.75,-36 335.75,-36 329.75,-30 329.75,-24 329.75,-24 329.75,-12 329.75,-12 329.75,-6 335.75,-0 341.75,-0 341.75,-0 506.25,-0 506.25,-0 512.25,-0 518.25,-6 518.25,-12 518.25,-12 518.25,-24 518.25,-24 518.25,-30 512.25,-36 506.25,-36"/>
<text text-anchor="start" x="337.5" y="-14.3" font-family="Times,serif" font-size="14.00"> Independent random variables </text>
</a>
</g>
</g>
<!-- VARIANCE&#45;&gt;INDEPENDENT_RANDOM_VARIABLES -->
<!-- NORMAL_RANDOM_VARIABLE&#45;&gt;CENTRAL_LIMIT_THEOREM -->
<g id="edge3" class="edge"><title>NORMAL_RANDOM_VARIABLE&#45;&gt;CENTRAL_LIMIT_THEOREM</title>
<path fill="none" stroke="black" d="M127.806,-108.068C152.958,-117.671 183.425,-129.74 208.271,-139.928"/>
<polygon fill="black" stroke="black" points="207.264,-143.299 217.843,-143.876 209.932,-136.828 207.264,-143.299"/>
</g>
<!-- INDEPENDENT_RANDOM_VARIABLES&#45;&gt;CENTRAL_LIMIT_THEOREM -->
<g id="edge4" class="edge"><title>INDEPENDENT_RANDOM_VARIABLES&#45;&gt;CENTRAL_LIMIT_THEOREM</title>
<path fill="none" stroke="black" d="M433.59,-36.2197C442.953,-55.6063 453.692,-87.1179 438,-108 426.322,-123.54 386.79,-135.983 347.443,-144.897"/>
<polygon fill="black" stroke="black" points="346.479,-141.525 337.461,-147.086 347.979,-148.362 346.479,-141.525"/>
</g>
<!-- LAW_OF_LARGE_NUMBERS -->
<g id="node6" class="node"><title>LAW_OF_LARGE_NUMBERS</title>
<g id="a_node6"><a xlink:href="LAW_OF_LARGE_NUMBERS.html" xlink:title=" The law of large numbers " target="_top">
<path fill="none" stroke="black" d="M325.25,-252C325.25,-252 184.75,-252 184.75,-252 178.75,-252 172.75,-246 172.75,-240 172.75,-240 172.75,-228 172.75,-228 172.75,-222 178.75,-216 184.75,-216 184.75,-216 325.25,-216 325.25,-216 331.25,-216 337.25,-222 337.25,-228 337.25,-228 337.25,-240 337.25,-240 337.25,-246 331.25,-252 325.25,-252"/>
<text text-anchor="start" x="180.5" y="-230.3" font-family="Times,serif" font-size="14.00"> The law of large numbers </text>
</a>
</g>
</g>
<!-- LAW_OF_LARGE_NUMBERS&#45;&gt;CENTRAL_LIMIT_THEOREM -->
<g id="edge7" class="edge"><title>LAW_OF_LARGE_NUMBERS&#45;&gt;CENTRAL_LIMIT_THEOREM</title>
<path fill="none" stroke="black" d="M255,-215.697C255,-207.983 255,-198.712 255,-190.112"/>
<polygon fill="black" stroke="black" points="258.5,-190.104 255,-180.104 251.5,-190.104 258.5,-190.104"/>
</g>
</g>
</svg>
