<?xml version="1.0" encoding="UTF-8" standalone="no"?>
<!DOCTYPE svg PUBLIC "-//W3C//DTD SVG 1.1//EN"
 "http://www.w3.org/Graphics/SVG/1.1/DTD/svg11.dtd">
<!-- Generated by graphviz version 2.26.3 (20100126.1600)
 -->
<!-- Title: _anonymous_0 Pages: 1 -->
<svg width="456pt" height="188pt"
 viewBox="0.00 0.00 456.00 188.00" xmlns="http://www.w3.org/2000/svg" xmlns:xlink="http://www.w3.org/1999/xlink">
<g id="graph1" class="graph" transform="scale(1 1) rotate(0) translate(4 184)">
<title>_anonymous_0</title>
<!-- CENTRAL_LIMIT_THEOREM -->
<g id="node1" class="node"><title>CENTRAL_LIMIT_THEOREM</title>
<a xlink:href="CENTRAL_LIMIT_THEOREM.html" xlink:title="The central limit theorem" target="_top">
<polyline fill="none" stroke="blue" stroke-width="2" points="311,-108 141,-108 "/>
<path fill="none" stroke="blue" stroke-width="2" d="M141,-108C135,-108 129,-102 129,-96"/>
<polyline fill="none" stroke="blue" stroke-width="2" points="129,-96 129,-84 "/>
<path fill="none" stroke="blue" stroke-width="2" d="M129,-84C129,-78 135,-72 141,-72"/>
<polyline fill="none" stroke="blue" stroke-width="2" points="141,-72 311,-72 "/>
<path fill="none" stroke="blue" stroke-width="2" d="M311,-72C317,-72 323,-78 323,-84"/>
<polyline fill="none" stroke="blue" stroke-width="2" points="323,-84 323,-96 "/>
<path fill="none" stroke="blue" stroke-width="2" d="M323,-96C323,-102 317,-108 311,-108"/>
<text text-anchor="start" x="137.5" y="-87.2333" font-family="Times Roman,serif" font-size="14.00">The central limit theorem</text>
</a>
</g>
<!-- MONTE_CARLO -->
<g id="node4" class="node"><title>MONTE_CARLO</title>
<a xlink:href="MONTE_CARLO.html" xlink:title="Monte Carlo Simulation" target="_top">
<polyline fill="none" stroke="black" points="168,-36 12,-36 "/>
<path fill="none" stroke="black" d="M12,-36C6,-36 7.10543e-14,-30 5.68434e-14,-24"/>
<polyline fill="none" stroke="black" points="5.68434e-14,-24 2.84217e-14,-12 "/>
<path fill="none" stroke="black" d="M2.84217e-14,-12C1.42109e-14,-6 6,-1.72899e-14 12,-1.68162e-14"/>
<polyline fill="none" stroke="black" points="12,-1.68162e-14 168,-4.5001e-15 "/>
<path fill="none" stroke="black" d="M168,-4.5001e-15C174,-4.02641e-15 180,-6 180,-12"/>
<polyline fill="none" stroke="black" points="180,-12 180,-24 "/>
<path fill="none" stroke="black" d="M180,-24C180,-30 174,-36 168,-36"/>
<text text-anchor="start" x="8.5" y="-15.2333" font-family="Times Roman,serif" font-size="14.00">Monte Carlo Simulation</text>
</a>
</g>
<!-- CENTRAL_LIMIT_THEOREM&#45;&gt;MONTE_CARLO -->
<g id="edge4" class="edge"><title>CENTRAL_LIMIT_THEOREM&#45;&gt;MONTE_CARLO</title>
<path fill="none" stroke="black" d="M191.681,-71.8314C173.964,-62.4516 152.166,-50.9112 133.302,-40.9244"/>
<polygon fill="black" stroke="black" points="134.783,-37.7485 124.308,-36.1628 131.508,-43.935 134.783,-37.7485"/>
</g>
<!-- NORMAL_RANDOM_VARIABLE -->
<g id="node8" class="node"><title>NORMAL_RANDOM_VARIABLE</title>
<a xlink:href="NORMAL_RANDOM_VARIABLE.html" xlink:title="Normal random variable" target="_top">
<polyline fill="none" stroke="black" points="368,-36 210,-36 "/>
<path fill="none" stroke="black" d="M210,-36C204,-36 198,-30 198,-24"/>
<polyline fill="none" stroke="black" points="198,-24 198,-12 "/>
<path fill="none" stroke="black" d="M198,-12C198,-6 204,-1.72951e-14 210,-1.68266e-14"/>
<polyline fill="none" stroke="black" points="210,-1.68266e-14 368,-4.48969e-15 "/>
<path fill="none" stroke="black" d="M368,-4.48969e-15C374,-4.0212e-15 380,-6 380,-12"/>
<polyline fill="none" stroke="black" points="380,-12 380,-24 "/>
<path fill="none" stroke="black" d="M380,-24C380,-30 374,-36 368,-36"/>
<text text-anchor="start" x="206" y="-15.2333" font-family="Times Roman,serif" font-size="14.00">Normal random variable</text>
</a>
</g>
<!-- CENTRAL_LIMIT_THEOREM&#45;&gt;NORMAL_RANDOM_VARIABLE -->
<g id="edge8" class="edge"><title>CENTRAL_LIMIT_THEOREM&#45;&gt;NORMAL_RANDOM_VARIABLE</title>
<path fill="none" stroke="black" d="M235.945,-71.8314C242.525,-63.3694 251.282,-53.1489 259.832,-43.8971"/>
<polygon fill="black" stroke="black" points="262.582,-46.0829 266.912,-36.4133 257.497,-41.2721 262.582,-46.0829"/>
</g>
<!-- LAW_OF_LARGE_NUMBERS -->
<g id="node2" class="node"><title>LAW_OF_LARGE_NUMBERS</title>
<a xlink:href="LAW_OF_LARGE_NUMBERS.html" xlink:title="The law of large numbers" target="_top">
<polyline fill="none" stroke="black" points="436,-180 266,-180 "/>
<path fill="none" stroke="black" d="M266,-180C260,-180 254,-174 254,-168"/>
<polyline fill="none" stroke="black" points="254,-168 254,-156 "/>
<path fill="none" stroke="black" d="M254,-156C254,-150 260,-144 266,-144"/>
<polyline fill="none" stroke="black" points="266,-144 436,-144 "/>
<path fill="none" stroke="black" d="M436,-144C442,-144 448,-150 448,-156"/>
<polyline fill="none" stroke="black" points="448,-156 448,-168 "/>
<path fill="none" stroke="black" d="M448,-168C448,-174 442,-180 436,-180"/>
<text text-anchor="start" x="262.5" y="-159.233" font-family="Times Roman,serif" font-size="14.00">The law of large numbers</text>
</a>
</g>
<!-- LAW_OF_LARGE_NUMBERS&#45;&gt;CENTRAL_LIMIT_THEOREM -->
<g id="edge2" class="edge"><title>LAW_OF_LARGE_NUMBERS&#45;&gt;CENTRAL_LIMIT_THEOREM</title>
<path fill="none" stroke="black" d="M319.457,-143.831C303.321,-134.537 283.501,-123.121 266.273,-113.197"/>
<polygon fill="black" stroke="black" points="267.945,-110.121 257.533,-108.163 264.451,-116.187 267.945,-110.121"/>
</g>
<!-- LAW_OF_LARGE_NUMBERS&#45;&gt;NORMAL_RANDOM_VARIABLE -->
<!-- VARIANCE -->
<g id="node6" class="node"><title>VARIANCE</title>
<a xlink:href="VARIANCE.html" xlink:title="Variance " target="_top">
<polyline fill="none" stroke="black" points="224,-180 168,-180 "/>
<path fill="none" stroke="black" d="M168,-180C162,-180 156,-174 156,-168"/>
<polyline fill="none" stroke="black" points="156,-168 156,-156 "/>
<path fill="none" stroke="black" d="M156,-156C156,-150 162,-144 168,-144"/>
<polyline fill="none" stroke="black" points="168,-144 224,-144 "/>
<path fill="none" stroke="black" d="M224,-144C230,-144 236,-150 236,-156"/>
<polyline fill="none" stroke="black" points="236,-156 236,-168 "/>
<path fill="none" stroke="black" d="M236,-168C236,-174 230,-180 224,-180"/>
<text text-anchor="start" x="164" y="-159.233" font-family="Times Roman,serif" font-size="14.00">Variance </text>
</a>
</g>
<!-- VARIANCE&#45;&gt;CENTRAL_LIMIT_THEOREM -->
<g id="edge6" class="edge"><title>VARIANCE&#45;&gt;CENTRAL_LIMIT_THEOREM</title>
<path fill="none" stroke="black" d="M203.57,-143.831C206.849,-135.962 210.762,-126.571 214.394,-117.853"/>
<polygon fill="black" stroke="black" points="217.712,-118.99 218.328,-108.413 211.251,-116.298 217.712,-118.99"/>
</g>
<!-- NORMAL_RANDOM_VARIABLE&#45;&gt;CENTRAL_LIMIT_THEOREM -->
<g id="edge10" class="edge"><title>NORMAL_RANDOM_VARIABLE&#45;&gt;CENTRAL_LIMIT_THEOREM</title>
<path fill="none" stroke="black" d="M278.864,-36.4133C272.243,-44.9088 263.467,-55.1366 254.921,-64.3696"/>
<polygon fill="black" stroke="black" points="252.188,-62.1654 247.85,-71.8314 257.269,-66.9805 252.188,-62.1654"/>
</g>
</g>
</svg>
