<?xml version="1.0" encoding="UTF-8" standalone="no"?>
<!DOCTYPE svg PUBLIC "-//W3C//DTD SVG 1.1//EN"
 "http://www.w3.org/Graphics/SVG/1.1/DTD/svg11.dtd">
<!-- Generated by graphviz version 2.26.3 (20100126.1600)
 -->
<!-- Title: _anonymous_0 Pages: 1 -->
<svg width="417pt" height="188pt"
 viewBox="0.00 0.00 417.25 188.00" xmlns="http://www.w3.org/2000/svg" xmlns:xlink="http://www.w3.org/1999/xlink">
<g id="graph1" class="graph" transform="scale(1 1) rotate(0) translate(4 184)">
<title>_anonymous_0</title>
<!-- CENTRAL_LIMIT_THEOREM -->
<g id="node1" class="node"><title>CENTRAL_LIMIT_THEOREM</title>
<a xlink:href="CENTRAL_LIMIT_THEOREM.html" xlink:title="The central limit theorem" target="_top">
<polyline fill="none" stroke="blue" stroke-width="2" points="279,-180 109,-180 "/>
<path fill="none" stroke="blue" stroke-width="2" d="M109,-180C103,-180 97,-174 97,-168"/>
<polyline fill="none" stroke="blue" stroke-width="2" points="97,-168 97,-156 "/>
<path fill="none" stroke="blue" stroke-width="2" d="M97,-156C97,-150 103,-144 109,-144"/>
<polyline fill="none" stroke="blue" stroke-width="2" points="109,-144 279,-144 "/>
<path fill="none" stroke="blue" stroke-width="2" d="M279,-144C285,-144 291,-150 291,-156"/>
<polyline fill="none" stroke="blue" stroke-width="2" points="291,-156 291,-168 "/>
<path fill="none" stroke="blue" stroke-width="2" d="M291,-168C291,-174 285,-180 279,-180"/>
<text text-anchor="start" x="105.5" y="-159.233" font-family="Times Roman,serif" font-size="14.00">The central limit theorem</text>
</a>
</g>
<!-- NORMAL_RANDOM_VARIABLE -->
<g id="node4" class="node"><title>NORMAL_RANDOM_VARIABLE</title>
<a xlink:href="NORMAL_RANDOM_VARIABLE.html" xlink:title="Normal random variable" target="_top">
<polyline fill="none" stroke="black" points="170,-108 12,-108 "/>
<path fill="none" stroke="black" d="M12,-108C6,-108 7.10543e-14,-102 5.68434e-14,-96"/>
<polyline fill="none" stroke="black" points="5.68434e-14,-96 2.84217e-14,-84 "/>
<path fill="none" stroke="black" d="M2.84217e-14,-84C1.42109e-14,-78 6,-72 12,-72"/>
<polyline fill="none" stroke="black" points="12,-72 170,-72 "/>
<path fill="none" stroke="black" d="M170,-72C176,-72 182,-78 182,-84"/>
<polyline fill="none" stroke="black" points="182,-84 182,-96 "/>
<path fill="none" stroke="black" d="M182,-96C182,-102 176,-108 170,-108"/>
<text text-anchor="start" x="8" y="-87.2333" font-family="Times Roman,serif" font-size="14.00">Normal random variable</text>
</a>
</g>
<!-- CENTRAL_LIMIT_THEOREM&#45;&gt;NORMAL_RANDOM_VARIABLE -->
<g id="edge4" class="edge"><title>CENTRAL_LIMIT_THEOREM&#45;&gt;NORMAL_RANDOM_VARIABLE</title>
<path fill="none" stroke="black" d="M162.056,-143.831C148.375,-134.878 132.594,-123.956 119.334,-114.295"/>
<polygon fill="black" stroke="black" points="121.154,-111.289 111.031,-108.163 116.995,-116.92 121.154,-111.289"/>
</g>
<!-- LAW_OF_LARGE_NUMBERS -->
<g id="node2" class="node"><title>LAW_OF_LARGE_NUMBERS</title>
<a xlink:href="LAW_OF_LARGE_NUMBERS.html" xlink:title="The law of large numbers" target="_top">
<polyline fill="none" stroke="black" points="382,-108 212,-108 "/>
<path fill="none" stroke="black" d="M212,-108C206,-108 200,-102 200,-96"/>
<polyline fill="none" stroke="black" points="200,-96 200,-84 "/>
<path fill="none" stroke="black" d="M200,-84C200,-78 206,-72 212,-72"/>
<polyline fill="none" stroke="black" points="212,-72 382,-72 "/>
<path fill="none" stroke="black" d="M382,-72C388,-72 394,-78 394,-84"/>
<polyline fill="none" stroke="black" points="394,-84 394,-96 "/>
<path fill="none" stroke="black" d="M394,-96C394,-102 388,-108 382,-108"/>
<text text-anchor="start" x="208.5" y="-87.2333" font-family="Times Roman,serif" font-size="14.00">The law of large numbers</text>
</a>
</g>
<!-- LAW_OF_LARGE_NUMBERS&#45;&gt;CENTRAL_LIMIT_THEOREM -->
<g id="edge2" class="edge"><title>LAW_OF_LARGE_NUMBERS&#45;&gt;CENTRAL_LIMIT_THEOREM</title>
<path fill="none" stroke="black" d="M271.017,-108.163C258.088,-117.201 242.288,-128.246 228.371,-137.974"/>
<polygon fill="black" stroke="black" points="226.182,-135.233 219.991,-143.831 230.193,-140.971 226.182,-135.233"/>
</g>
<!-- VARIANCE -->
<g id="node7" class="node"><title>VARIANCE</title>
<a xlink:href="VARIANCE.html" xlink:title="Variance " target="_top">
<polyline fill="none" stroke="black" points="387,-36 331,-36 "/>
<path fill="none" stroke="black" d="M331,-36C325,-36 319,-30 319,-24"/>
<polyline fill="none" stroke="black" points="319,-24 319,-12 "/>
<path fill="none" stroke="black" d="M319,-12C319,-6 325,-1.66978e-14 331,-1.56319e-14"/>
<polyline fill="none" stroke="black" points="331,-1.56319e-14 387,-5.68434e-15 "/>
<path fill="none" stroke="black" d="M387,-5.68434e-15C393,-4.61853e-15 399,-6 399,-12"/>
<polyline fill="none" stroke="black" points="399,-12 399,-24 "/>
<path fill="none" stroke="black" d="M399,-24C399,-30 393,-36 387,-36"/>
<text text-anchor="start" x="327" y="-15.2333" font-family="Times Roman,serif" font-size="14.00">Variance </text>
</a>
</g>
<!-- LAW_OF_LARGE_NUMBERS&#45;&gt;VARIANCE -->
<!-- NORMAL_RANDOM_VARIABLE&#45;&gt;CENTRAL_LIMIT_THEOREM -->
<g id="edge6" class="edge"><title>NORMAL_RANDOM_VARIABLE&#45;&gt;CENTRAL_LIMIT_THEOREM</title>
<path fill="none" stroke="black" d="M122.935,-108.163C136.615,-117.115 152.396,-128.037 165.658,-137.698"/>
<polygon fill="black" stroke="black" points="163.838,-140.705 173.961,-143.831 167.997,-135.075 163.838,-140.705"/>
</g>
<!-- VARIANCE&#45;&gt;CENTRAL_LIMIT_THEOREM -->
<g id="edge8" class="edge"><title>VARIANCE&#45;&gt;CENTRAL_LIMIT_THEOREM</title>
<path fill="none" stroke="black" d="M379.074,-36.129C397.774,-55.2281 420.359,-85.5863 403,-108 389.693,-125.182 345.547,-137.879 301.236,-146.628"/>
<polygon fill="black" stroke="black" points="300.358,-143.232 291.192,-148.546 301.671,-150.108 300.358,-143.232"/>
</g>
</g>
</svg>
