<?xml version="1.0" encoding="UTF-8" standalone="no"?>
<!DOCTYPE svg PUBLIC "-//W3C//DTD SVG 1.1//EN"
 "http://www.w3.org/Graphics/SVG/1.1/DTD/svg11.dtd">
<!-- Generated by graphviz version 2.26.3 (20100126.1600)
 -->
<!-- Title: _anonymous_0 Pages: 1 -->
<svg width="419pt" height="188pt"
 viewBox="0.00 0.00 419.00 188.00" xmlns="http://www.w3.org/2000/svg" xmlns:xlink="http://www.w3.org/1999/xlink">
<g id="graph1" class="graph" transform="scale(1 1) rotate(0) translate(4 184)">
<title>_anonymous_0</title>
<!-- CENTRAL_LIMIT_THEOREM -->
<g id="node1" class="node"><title>CENTRAL_LIMIT_THEOREM</title>
<a xlink:href="CENTRAL_LIMIT_THEOREM.html" xlink:title=" The central limit theorem " target="_top">
<polyline fill="none" stroke="blue" stroke-width="2" points="326,-108 148,-108 "/>
<path fill="none" stroke="blue" stroke-width="2" d="M148,-108C142,-108 136,-102 136,-96"/>
<polyline fill="none" stroke="blue" stroke-width="2" points="136,-96 136,-84 "/>
<path fill="none" stroke="blue" stroke-width="2" d="M136,-84C136,-78 142,-72 148,-72"/>
<polyline fill="none" stroke="blue" stroke-width="2" points="148,-72 326,-72 "/>
<path fill="none" stroke="blue" stroke-width="2" d="M326,-72C332,-72 338,-78 338,-84"/>
<polyline fill="none" stroke="blue" stroke-width="2" points="338,-84 338,-96 "/>
<path fill="none" stroke="blue" stroke-width="2" d="M338,-96C338,-102 332,-108 326,-108"/>
<text text-anchor="start" x="144" y="-87.2333" font-family="Times Roman,serif" font-size="14.00"> The central limit theorem </text>
</a>
</g>
<!-- MONTE_CARLO -->
<g id="node6" class="node"><title>MONTE_CARLO</title>
<a xlink:href="MONTE_CARLO.html" xlink:title=" Monte Carlo Simulation " target="_top">
<polyline fill="none" stroke="black" points="176,-36 12,-36 "/>
<path fill="none" stroke="black" d="M12,-36C6,-36 7.10543e-14,-30 5.68434e-14,-24"/>
<polyline fill="none" stroke="black" points="5.68434e-14,-24 2.84217e-14,-12 "/>
<path fill="none" stroke="black" d="M2.84217e-14,-12C1.42109e-14,-6 6,-1.731e-14 12,-1.68565e-14"/>
<polyline fill="none" stroke="black" points="12,-1.68565e-14 176,-4.45979e-15 "/>
<path fill="none" stroke="black" d="M176,-4.45979e-15C182,-4.00625e-15 188,-6 188,-12"/>
<polyline fill="none" stroke="black" points="188,-12 188,-24 "/>
<path fill="none" stroke="black" d="M188,-24C188,-30 182,-36 176,-36"/>
<text text-anchor="start" x="8" y="-15.2333" font-family="Times Roman,serif" font-size="14.00"> Monte Carlo Simulation </text>
</a>
</g>
<!-- CENTRAL_LIMIT_THEOREM&#45;&gt;MONTE_CARLO -->
<g id="edge6" class="edge"><title>CENTRAL_LIMIT_THEOREM&#45;&gt;MONTE_CARLO</title>
<path fill="none" stroke="black" d="M200.915,-71.8314C182.201,-62.4089 159.157,-50.8062 139.26,-40.7883"/>
<polygon fill="black" stroke="black" points="140.579,-37.5339 130.073,-36.1628 137.431,-43.7861 140.579,-37.5339"/>
</g>
<!-- NORMAL_RANDOM_VARIABLE -->
<g id="node8" class="node"><title>NORMAL_RANDOM_VARIABLE</title>
<a xlink:href="NORMAL_RANDOM_VARIABLE.html" xlink:title=" Normal random variable " target="_top">
<polyline fill="none" stroke="black" points="386,-36 218,-36 "/>
<path fill="none" stroke="black" d="M218,-36C212,-36 206,-30 206,-24"/>
<polyline fill="none" stroke="black" points="206,-24 206,-12 "/>
<path fill="none" stroke="black" d="M206,-12C206,-6 212,-1.73195e-14 218,-1.68754e-14"/>
<polyline fill="none" stroke="black" points="218,-1.68754e-14 386,-4.44089e-15 "/>
<path fill="none" stroke="black" d="M386,-4.44089e-15C392,-3.9968e-15 398,-6 398,-12"/>
<polyline fill="none" stroke="black" points="398,-12 398,-24 "/>
<path fill="none" stroke="black" d="M398,-24C398,-30 392,-36 386,-36"/>
<text text-anchor="start" x="214.5" y="-15.2333" font-family="Times Roman,serif" font-size="14.00"> Normal random variable </text>
</a>
</g>
<!-- CENTRAL_LIMIT_THEOREM&#45;&gt;NORMAL_RANDOM_VARIABLE -->
<g id="edge8" class="edge"><title>CENTRAL_LIMIT_THEOREM&#45;&gt;NORMAL_RANDOM_VARIABLE</title>
<path fill="none" stroke="black" d="M247.45,-71.8314C254.333,-63.2848 263.487,-52.9443 272.377,-43.6198"/>
<polygon fill="black" stroke="black" points="274.927,-46.0174 279.401,-36.4133 269.915,-41.1315 274.927,-46.0174"/>
</g>
<!-- VARIANCE -->
<g id="node2" class="node"><title>VARIANCE</title>
<a xlink:href="VARIANCE.html" xlink:title=" Variance &#160;" target="_top">
<polyline fill="none" stroke="black" points="399,-180 333,-180 "/>
<path fill="none" stroke="black" d="M333,-180C327,-180 321,-174 321,-168"/>
<polyline fill="none" stroke="black" points="321,-168 321,-156 "/>
<path fill="none" stroke="black" d="M321,-156C321,-150 327,-144 333,-144"/>
<polyline fill="none" stroke="black" points="333,-144 399,-144 "/>
<path fill="none" stroke="black" d="M399,-144C405,-144 411,-150 411,-156"/>
<polyline fill="none" stroke="black" points="411,-156 411,-168 "/>
<path fill="none" stroke="black" d="M411,-168C411,-174 405,-180 399,-180"/>
<text text-anchor="start" x="329.5" y="-159.233" font-family="Times Roman,serif" font-size="14.00"> Variance &#160;</text>
</a>
</g>
<!-- VARIANCE&#45;&gt;CENTRAL_LIMIT_THEOREM -->
<g id="edge2" class="edge"><title>VARIANCE&#45;&gt;CENTRAL_LIMIT_THEOREM</title>
<path fill="none" stroke="black" d="M333.448,-143.831C316.795,-134.537 296.341,-123.121 278.561,-113.197"/>
<polygon fill="black" stroke="black" points="279.98,-109.98 269.542,-108.163 276.568,-116.093 279.98,-109.98"/>
</g>
<!-- VARIANCE&#45;&gt;NORMAL_RANDOM_VARIABLE -->
<!-- LAW_OF_LARGE_NUMBERS -->
<g id="node4" class="node"><title>LAW_OF_LARGE_NUMBERS</title>
<a xlink:href="LAW_OF_LARGE_NUMBERS.html" xlink:title=" The law of large numbers " target="_top">
<polyline fill="none" stroke="black" points="291,-180 113,-180 "/>
<path fill="none" stroke="black" d="M113,-180C107,-180 101,-174 101,-168"/>
<polyline fill="none" stroke="black" points="101,-168 101,-156 "/>
<path fill="none" stroke="black" d="M101,-156C101,-150 107,-144 113,-144"/>
<polyline fill="none" stroke="black" points="113,-144 291,-144 "/>
<path fill="none" stroke="black" d="M291,-144C297,-144 303,-150 303,-156"/>
<polyline fill="none" stroke="black" points="303,-156 303,-168 "/>
<path fill="none" stroke="black" d="M303,-168C303,-174 297,-180 291,-180"/>
<text text-anchor="start" x="109" y="-159.233" font-family="Times Roman,serif" font-size="14.00"> The law of large numbers </text>
</a>
</g>
<!-- LAW_OF_LARGE_NUMBERS&#45;&gt;CENTRAL_LIMIT_THEOREM -->
<g id="edge4" class="edge"><title>LAW_OF_LARGE_NUMBERS&#45;&gt;CENTRAL_LIMIT_THEOREM</title>
<path fill="none" stroke="black" d="M210.832,-143.831C214.699,-135.877 219.321,-126.369 223.597,-117.572"/>
<polygon fill="black" stroke="black" points="226.825,-118.937 228.049,-108.413 220.529,-115.877 226.825,-118.937"/>
</g>
<!-- NORMAL_RANDOM_VARIABLE&#45;&gt;CENTRAL_LIMIT_THEOREM -->
<g id="edge10" class="edge"><title>NORMAL_RANDOM_VARIABLE&#45;&gt;CENTRAL_LIMIT_THEOREM</title>
<path fill="none" stroke="black" d="M291.353,-36.4133C284.427,-44.9938 275.254,-55.3414 266.369,-64.6463"/>
<polygon fill="black" stroke="black" points="263.836,-62.2309 259.355,-71.8314 268.845,-67.1209 263.836,-62.2309"/>
</g>
</g>
</svg>
