<?xml version="1.0" encoding="UTF-8" standalone="no"?>
<!DOCTYPE svg PUBLIC "-//W3C//DTD SVG 1.1//EN"
 "http://www.w3.org/Graphics/SVG/1.1/DTD/svg11.dtd">
<!-- Generated by graphviz version 2.26.3 (20100126.1600)
 -->
<!-- Title: _anonymous_0 Pages: 1 -->
<svg width="300pt" height="188pt"
 viewBox="0.00 0.00 300.00 188.00" xmlns="http://www.w3.org/2000/svg" xmlns:xlink="http://www.w3.org/1999/xlink">
<g id="graph1" class="graph" transform="scale(1 1) rotate(0) translate(4 184)">
<title>_anonymous_0</title>
<!-- CENTRAL_LIMIT_THEOREM -->
<g id="node1" class="node"><title>CENTRAL_LIMIT_THEOREM</title>
<a xlink:href="CENTRAL_LIMIT_THEOREM.html" xlink:title="The central limit theorem" target="_top">
<polyline fill="none" stroke="blue" stroke-width="2" points="259,-108 89,-108 "/>
<path fill="none" stroke="blue" stroke-width="2" d="M89,-108C83,-108 77,-102 77,-96"/>
<polyline fill="none" stroke="blue" stroke-width="2" points="77,-96 77,-84 "/>
<path fill="none" stroke="blue" stroke-width="2" d="M77,-84C77,-78 83,-72 89,-72"/>
<polyline fill="none" stroke="blue" stroke-width="2" points="89,-72 259,-72 "/>
<path fill="none" stroke="blue" stroke-width="2" d="M259,-72C265,-72 271,-78 271,-84"/>
<polyline fill="none" stroke="blue" stroke-width="2" points="271,-84 271,-96 "/>
<path fill="none" stroke="blue" stroke-width="2" d="M271,-96C271,-102 265,-108 259,-108"/>
<text text-anchor="start" x="85.5" y="-87.2333" font-family="Times Roman,serif" font-size="14.00">The central limit theorem</text>
</a>
</g>
<!-- NORMAL_RANDOM_VARIABLE -->
<g id="node4" class="node"><title>NORMAL_RANDOM_VARIABLE</title>
<a xlink:href="NORMAL_RANDOM_VARIABLE.html" xlink:title="Normal random variable" target="_top">
<polyline fill="none" stroke="black" points="253,-36 95,-36 "/>
<path fill="none" stroke="black" d="M95,-36C89,-36 83,-30 83,-24"/>
<polyline fill="none" stroke="black" points="83,-24 83,-12 "/>
<path fill="none" stroke="black" d="M83,-12C83,-6 89,-1.72951e-14 95,-1.68266e-14"/>
<polyline fill="none" stroke="black" points="95,-1.68266e-14 253,-4.48969e-15 "/>
<path fill="none" stroke="black" d="M253,-4.48969e-15C259,-4.0212e-15 265,-6 265,-12"/>
<polyline fill="none" stroke="black" points="265,-12 265,-24 "/>
<path fill="none" stroke="black" d="M265,-24C265,-30 259,-36 253,-36"/>
<text text-anchor="start" x="91" y="-15.2333" font-family="Times Roman,serif" font-size="14.00">Normal random variable</text>
</a>
</g>
<!-- CENTRAL_LIMIT_THEOREM&#45;&gt;NORMAL_RANDOM_VARIABLE -->
<g id="edge4" class="edge"><title>CENTRAL_LIMIT_THEOREM&#45;&gt;NORMAL_RANDOM_VARIABLE</title>
<path fill="none" stroke="black" d="M174,-71.8314C174,-64.131 174,-54.9743 174,-46.4166"/>
<polygon fill="black" stroke="black" points="177.5,-46.4132 174,-36.4133 170.5,-46.4133 177.5,-46.4132"/>
</g>
<!-- LAW_OF_LARGE_NUMBERS -->
<g id="node2" class="node"><title>LAW_OF_LARGE_NUMBERS</title>
<a xlink:href="LAW_OF_LARGE_NUMBERS.html" xlink:title="The law of large numbers" target="_top">
<polyline fill="none" stroke="black" points="182,-180 12,-180 "/>
<path fill="none" stroke="black" d="M12,-180C6,-180 4.73695e-14,-174 3.78956e-14,-168"/>
<polyline fill="none" stroke="black" points="3.78956e-14,-168 1.89478e-14,-156 "/>
<path fill="none" stroke="black" d="M1.89478e-14,-156C9.4739e-15,-150 6,-144 12,-144"/>
<polyline fill="none" stroke="black" points="12,-144 182,-144 "/>
<path fill="none" stroke="black" d="M182,-144C188,-144 194,-150 194,-156"/>
<polyline fill="none" stroke="black" points="194,-156 194,-168 "/>
<path fill="none" stroke="black" d="M194,-168C194,-174 188,-180 182,-180"/>
<text text-anchor="start" x="8.5" y="-159.233" font-family="Times Roman,serif" font-size="14.00">The law of large numbers</text>
</a>
</g>
<!-- LAW_OF_LARGE_NUMBERS&#45;&gt;CENTRAL_LIMIT_THEOREM -->
<g id="edge2" class="edge"><title>LAW_OF_LARGE_NUMBERS&#45;&gt;CENTRAL_LIMIT_THEOREM</title>
<path fill="none" stroke="black" d="M116.43,-143.831C125.732,-135.134 137.02,-124.578 147.129,-115.127"/>
<polygon fill="black" stroke="black" points="149.662,-117.549 154.576,-108.163 144.881,-112.436 149.662,-117.549"/>
</g>
<!-- VARIANCE -->
<g id="node6" class="node"><title>VARIANCE</title>
<a xlink:href="VARIANCE.html" xlink:title="Variance " target="_top">
<polyline fill="none" stroke="black" points="280,-180 224,-180 "/>
<path fill="none" stroke="black" d="M224,-180C218,-180 212,-174 212,-168"/>
<polyline fill="none" stroke="black" points="212,-168 212,-156 "/>
<path fill="none" stroke="black" d="M212,-156C212,-150 218,-144 224,-144"/>
<polyline fill="none" stroke="black" points="224,-144 280,-144 "/>
<path fill="none" stroke="black" d="M280,-144C286,-144 292,-150 292,-156"/>
<polyline fill="none" stroke="black" points="292,-156 292,-168 "/>
<path fill="none" stroke="black" d="M292,-168C292,-174 286,-180 280,-180"/>
<text text-anchor="start" x="220" y="-159.233" font-family="Times Roman,serif" font-size="14.00">Variance </text>
</a>
</g>
<!-- VARIANCE&#45;&gt;CENTRAL_LIMIT_THEOREM -->
<g id="edge6" class="edge"><title>VARIANCE&#45;&gt;CENTRAL_LIMIT_THEOREM</title>
<path fill="none" stroke="black" d="M232.317,-143.831C222.895,-135.134 211.46,-124.578 201.22,-115.127"/>
<polygon fill="black" stroke="black" points="203.398,-112.374 193.676,-108.163 198.65,-117.517 203.398,-112.374"/>
</g>
</g>
</svg>
