<?xml version="1.0" encoding="UTF-8" standalone="no"?>
<!DOCTYPE svg PUBLIC "-//W3C//DTD SVG 1.1//EN"
 "http://www.w3.org/Graphics/SVG/1.1/DTD/svg11.dtd">
<!-- Generated by graphviz version 2.26.3 (20100126.1600)
 -->
<!-- Title: _anonymous_0 Pages: 1 -->
<svg width="557pt" height="260pt"
 viewBox="0.00 0.00 557.00 260.00" xmlns="http://www.w3.org/2000/svg" xmlns:xlink="http://www.w3.org/1999/xlink">
<g id="graph1" class="graph" transform="scale(1 1) rotate(0) translate(4 256)">
<title>_anonymous_0</title>
<!-- CENTRAL_LIMIT_THEOREM -->
<g id="node1" class="node"><title>CENTRAL_LIMIT_THEOREM</title>
<a xlink:href="CENTRAL_LIMIT_THEOREM.html" xlink:title=" The central limit theorem " target="_top">
<polyline fill="none" stroke="blue" stroke-width="2" points="391,-108 213,-108 "/>
<path fill="none" stroke="blue" stroke-width="2" d="M213,-108C207,-108 201,-102 201,-96"/>
<polyline fill="none" stroke="blue" stroke-width="2" points="201,-96 201,-84 "/>
<path fill="none" stroke="blue" stroke-width="2" d="M201,-84C201,-78 207,-72 213,-72"/>
<polyline fill="none" stroke="blue" stroke-width="2" points="213,-72 391,-72 "/>
<path fill="none" stroke="blue" stroke-width="2" d="M391,-72C397,-72 403,-78 403,-84"/>
<polyline fill="none" stroke="blue" stroke-width="2" points="403,-84 403,-96 "/>
<path fill="none" stroke="blue" stroke-width="2" d="M403,-96C403,-102 397,-108 391,-108"/>
<text text-anchor="start" x="209" y="-87.2333" font-family="Times Roman,serif" font-size="14.00"> The central limit theorem </text>
</a>
</g>
<!-- MONTE_CARLO -->
<g id="node9" class="node"><title>MONTE_CARLO</title>
<a xlink:href="MONTE_CARLO.html" xlink:title=" Monte Carlo Simulation " target="_top">
<polyline fill="none" stroke="black" points="176,-36 12,-36 "/>
<path fill="none" stroke="black" d="M12,-36C6,-36 7.10543e-14,-30 5.68434e-14,-24"/>
<polyline fill="none" stroke="black" points="5.68434e-14,-24 2.84217e-14,-12 "/>
<path fill="none" stroke="black" d="M2.84217e-14,-12C1.42109e-14,-6 6,-1.731e-14 12,-1.68565e-14"/>
<polyline fill="none" stroke="black" points="12,-1.68565e-14 176,-4.45979e-15 "/>
<path fill="none" stroke="black" d="M176,-4.45979e-15C182,-4.00625e-15 188,-6 188,-12"/>
<polyline fill="none" stroke="black" points="188,-12 188,-24 "/>
<path fill="none" stroke="black" d="M188,-24C188,-30 182,-36 176,-36"/>
<text text-anchor="start" x="8" y="-15.2333" font-family="Times Roman,serif" font-size="14.00"> Monte Carlo Simulation </text>
</a>
</g>
<!-- CENTRAL_LIMIT_THEOREM&#45;&gt;MONTE_CARLO -->
<g id="edge10" class="edge"><title>CENTRAL_LIMIT_THEOREM&#45;&gt;MONTE_CARLO</title>
<path fill="none" stroke="black" d="M249.781,-71.9243C221.223,-62.0387 185.67,-49.7321 155.743,-39.3726"/>
<polygon fill="black" stroke="black" points="156.835,-36.0469 146.24,-36.0831 154.545,-42.6618 156.835,-36.0469"/>
</g>
<!-- NORMAL_RANDOM_VARIABLE -->
<g id="node11" class="node"><title>NORMAL_RANDOM_VARIABLE</title>
<a xlink:href="NORMAL_RANDOM_VARIABLE.html" xlink:title=" Normal random variable " target="_top">
<polyline fill="none" stroke="black" points="386,-36 218,-36 "/>
<path fill="none" stroke="black" d="M218,-36C212,-36 206,-30 206,-24"/>
<polyline fill="none" stroke="black" points="206,-24 206,-12 "/>
<path fill="none" stroke="black" d="M206,-12C206,-6 212,-1.73195e-14 218,-1.68754e-14"/>
<polyline fill="none" stroke="black" points="218,-1.68754e-14 386,-4.44089e-15 "/>
<path fill="none" stroke="black" d="M386,-4.44089e-15C392,-3.9968e-15 398,-6 398,-12"/>
<polyline fill="none" stroke="black" points="398,-12 398,-24 "/>
<path fill="none" stroke="black" d="M398,-24C398,-30 392,-36 386,-36"/>
<text text-anchor="start" x="214.5" y="-15.2333" font-family="Times Roman,serif" font-size="14.00"> Normal random variable </text>
</a>
</g>
<!-- CENTRAL_LIMIT_THEOREM&#45;&gt;NORMAL_RANDOM_VARIABLE -->
<g id="edge12" class="edge"><title>CENTRAL_LIMIT_THEOREM&#45;&gt;NORMAL_RANDOM_VARIABLE</title>
<path fill="none" stroke="black" d="M296.048,-71.8314C295.297,-64.131 295.076,-54.9743 295.385,-46.4166"/>
<polygon fill="black" stroke="black" points="298.879,-46.6161 296.024,-36.4133 291.893,-46.1697 298.879,-46.6161"/>
</g>
<!-- VARIANCE -->
<g id="node2" class="node"><title>VARIANCE</title>
<a xlink:href="VARIANCE.html" xlink:title=" Variance &#160;" target="_top">
<polyline fill="none" stroke="black" points="253,-252 187,-252 "/>
<path fill="none" stroke="black" d="M187,-252C181,-252 175,-246 175,-240"/>
<polyline fill="none" stroke="black" points="175,-240 175,-228 "/>
<path fill="none" stroke="black" d="M175,-228C175,-222 181,-216 187,-216"/>
<polyline fill="none" stroke="black" points="187,-216 253,-216 "/>
<path fill="none" stroke="black" d="M253,-216C259,-216 265,-222 265,-228"/>
<polyline fill="none" stroke="black" points="265,-228 265,-240 "/>
<path fill="none" stroke="black" d="M265,-240C265,-246 259,-252 253,-252"/>
<text text-anchor="start" x="183.5" y="-231.233" font-family="Times Roman,serif" font-size="14.00"> Variance &#160;</text>
</a>
</g>
<!-- VARIANCE&#45;&gt;CENTRAL_LIMIT_THEOREM -->
<g id="edge2" class="edge"><title>VARIANCE&#45;&gt;CENTRAL_LIMIT_THEOREM</title>
<path fill="none" stroke="black" d="M199.598,-215.708C181.282,-197.007 159.484,-167.458 175,-144 184.03,-130.347 197.286,-120.136 211.869,-112.501"/>
<polygon fill="black" stroke="black" points="213.594,-115.556 221.094,-108.073 210.564,-109.245 213.594,-115.556"/>
</g>
<!-- INDEPENDENT_RANDOM_VARIABLES -->
<g id="node6" class="node"><title>INDEPENDENT_RANDOM_VARIABLES</title>
<a xlink:href="INDEPENDENT_RANDOM_VARIABLES.html" xlink:title=" Independent random variables " target="_top">
<polyline fill="none" stroke="black" points="408,-180 196,-180 "/>
<path fill="none" stroke="black" d="M196,-180C190,-180 184,-174 184,-168"/>
<polyline fill="none" stroke="black" points="184,-168 184,-156 "/>
<path fill="none" stroke="black" d="M184,-156C184,-150 190,-144 196,-144"/>
<polyline fill="none" stroke="black" points="196,-144 408,-144 "/>
<path fill="none" stroke="black" d="M408,-144C414,-144 420,-150 420,-156"/>
<polyline fill="none" stroke="black" points="420,-156 420,-168 "/>
<path fill="none" stroke="black" d="M420,-168C420,-174 414,-180 408,-180"/>
<text text-anchor="start" x="192" y="-159.233" font-family="Times Roman,serif" font-size="14.00"> Independent random variables </text>
</a>
</g>
<!-- VARIANCE&#45;&gt;INDEPENDENT_RANDOM_VARIABLES -->
<!-- LAW_OF_LARGE_NUMBERS -->
<g id="node4" class="node"><title>LAW_OF_LARGE_NUMBERS</title>
<a xlink:href="LAW_OF_LARGE_NUMBERS.html" xlink:title=" The law of large numbers " target="_top">
<polyline fill="none" stroke="black" points="537,-252 359,-252 "/>
<path fill="none" stroke="black" d="M359,-252C353,-252 347,-246 347,-240"/>
<polyline fill="none" stroke="black" points="347,-240 347,-228 "/>
<path fill="none" stroke="black" d="M347,-228C347,-222 353,-216 359,-216"/>
<polyline fill="none" stroke="black" points="359,-216 537,-216 "/>
<path fill="none" stroke="black" d="M537,-216C543,-216 549,-222 549,-228"/>
<polyline fill="none" stroke="black" points="549,-228 549,-240 "/>
<path fill="none" stroke="black" d="M549,-240C549,-246 543,-252 537,-252"/>
<text text-anchor="start" x="355" y="-231.233" font-family="Times Roman,serif" font-size="14.00"> The law of large numbers </text>
</a>
</g>
<!-- LAW_OF_LARGE_NUMBERS&#45;&gt;CENTRAL_LIMIT_THEOREM -->
<g id="edge4" class="edge"><title>LAW_OF_LARGE_NUMBERS&#45;&gt;CENTRAL_LIMIT_THEOREM</title>
<path fill="none" stroke="black" d="M448.85,-215.682C448.794,-195.854 445.74,-164.349 429,-144 417.739,-130.312 402.381,-120.025 386.233,-112.317"/>
<polygon fill="black" stroke="black" points="387.22,-108.926 376.66,-108.071 384.382,-115.325 387.22,-108.926"/>
</g>
<!-- INDEPENDENT_RANDOM_VARIABLES&#45;&gt;CENTRAL_LIMIT_THEOREM -->
<g id="edge6" class="edge"><title>INDEPENDENT_RANDOM_VARIABLES&#45;&gt;CENTRAL_LIMIT_THEOREM</title>
<path fill="none" stroke="black" d="M302,-143.831C302,-136.131 302,-126.974 302,-118.417"/>
<polygon fill="black" stroke="black" points="305.5,-118.413 302,-108.413 298.5,-118.413 305.5,-118.413"/>
</g>
<!-- NORMAL_RANDOM_VARIABLE&#45;&gt;CENTRAL_LIMIT_THEOREM -->
<g id="edge14" class="edge"><title>NORMAL_RANDOM_VARIABLE&#45;&gt;CENTRAL_LIMIT_THEOREM</title>
<path fill="none" stroke="black" d="M307.976,-36.4133C308.707,-44.0593 308.92,-53.1084 308.615,-61.5726"/>
<polygon fill="black" stroke="black" points="305.105,-61.6264 307.952,-71.8314 312.09,-62.078 305.105,-61.6264"/>
</g>
</g>
</svg>
