<?xml version="1.0" encoding="UTF-8" standalone="no"?>
<!DOCTYPE svg PUBLIC "-//W3C//DTD SVG 1.1//EN"
 "http://www.w3.org/Graphics/SVG/1.1/DTD/svg11.dtd">
<!-- Generated by graphviz version 2.36.0 (20140111.2315)
 -->
<!-- Title: %3 Pages: 1 -->
<svg width="468pt" height="260pt"
 viewBox="0.00 0.00 468.00 260.00" xmlns="http://www.w3.org/2000/svg" xmlns:xlink="http://www.w3.org/1999/xlink">
<g id="graph0" class="graph" transform="scale(1 1) rotate(0) translate(4 256)">
<title>%3</title>
<!-- CENTRAL_LIMIT_THEOREM -->
<g id="node1" class="node"><title>CENTRAL_LIMIT_THEOREM</title>
<g id="a_node1"><a xlink:href="CENTRAL_LIMIT_THEOREM.html" xlink:title=" The central limit theorem " target="_top">
<path fill="none" stroke="blue" stroke-width="2" d="M325,-108C325,-108 185,-108 185,-108 179,-108 173,-102 173,-96 173,-96 173,-84 173,-84 173,-78 179,-72 185,-72 185,-72 325,-72 325,-72 331,-72 337,-78 337,-84 337,-84 337,-96 337,-96 337,-102 331,-108 325,-108"/>
<text text-anchor="start" x="181" y="-86.3" font-family="Times,serif" font-size="14.00"> The central limit theorem </text>
</a>
</g>
</g>
<!-- MONTE_CARLO -->
<g id="node2" class="node"><title>MONTE_CARLO</title>
<g id="a_node2"><a xlink:href="MONTE_CARLO.html" xlink:title=" Monte Carlo Simulation " target="_top">
<path fill="none" stroke="black" d="M145.5,-36C145.5,-36 12.5,-36 12.5,-36 6.5,-36 0.5,-30 0.5,-24 0.5,-24 0.5,-12 0.5,-12 0.5,-6 6.5,-0 12.5,-0 12.5,-0 145.5,-0 145.5,-0 151.5,-0 157.5,-6 157.5,-12 157.5,-12 157.5,-24 157.5,-24 157.5,-30 151.5,-36 145.5,-36"/>
<text text-anchor="start" x="8" y="-14.3" font-family="Times,serif" font-size="14.00"> Monte Carlo Simulation </text>
</a>
</g>
</g>
<!-- CENTRAL_LIMIT_THEOREM&#45;&gt;MONTE_CARLO -->
<g id="edge1" class="edge"><title>CENTRAL_LIMIT_THEOREM&#45;&gt;MONTE_CARLO</title>
<path fill="none" stroke="black" d="M211.946,-71.8761C187.671,-62.2216 157.16,-50.0865 131.492,-39.8775"/>
<polygon fill="black" stroke="black" points="132.5,-36.5119 121.915,-36.0683 129.913,-43.0163 132.5,-36.5119"/>
</g>
<!-- NORMAL_RANDOM_VARIABLE -->
<g id="node6" class="node"><title>NORMAL_RANDOM_VARIABLE</title>
<g id="a_node6"><a xlink:href="NORMAL_RANDOM_VARIABLE.html" xlink:title=" Normal random variable " target="_top">
<path fill="none" stroke="black" d="M322.25,-36C322.25,-36 187.75,-36 187.75,-36 181.75,-36 175.75,-30 175.75,-24 175.75,-24 175.75,-12 175.75,-12 175.75,-6 181.75,-0 187.75,-0 187.75,-0 322.25,-0 322.25,-0 328.25,-0 334.25,-6 334.25,-12 334.25,-12 334.25,-24 334.25,-24 334.25,-30 328.25,-36 322.25,-36"/>
<text text-anchor="start" x="183.5" y="-14.3" font-family="Times,serif" font-size="14.00"> Normal random variable </text>
</a>
</g>
</g>
<!-- CENTRAL_LIMIT_THEOREM&#45;&gt;NORMAL_RANDOM_VARIABLE -->
<g id="edge6" class="edge"><title>CENTRAL_LIMIT_THEOREM&#45;&gt;NORMAL_RANDOM_VARIABLE</title>
<path fill="none" stroke="black" d="M249.084,-71.6966C248.289,-63.9827 248.062,-54.7125 248.405,-46.1124"/>
<polygon fill="black" stroke="black" points="251.898,-46.3243 249.105,-36.1043 244.915,-45.8356 251.898,-46.3243"/>
</g>
<!-- VARIANCE -->
<g id="node3" class="node"><title>VARIANCE</title>
<g id="a_node3"><a xlink:href="VARIANCE.html" xlink:title=" Variance &#160;" target="_top">
<path fill="none" stroke="black" d="M211.25,-252C211.25,-252 158.75,-252 158.75,-252 152.75,-252 146.75,-246 146.75,-240 146.75,-240 146.75,-228 146.75,-228 146.75,-222 152.75,-216 158.75,-216 158.75,-216 211.25,-216 211.25,-216 217.25,-216 223.25,-222 223.25,-228 223.25,-228 223.25,-240 223.25,-240 223.25,-246 217.25,-252 211.25,-252"/>
<text text-anchor="start" x="154.5" y="-230.3" font-family="Times,serif" font-size="14.00"> Variance &#160;</text>
</a>
</g>
</g>
<!-- VARIANCE&#45;&gt;CENTRAL_LIMIT_THEOREM -->
<g id="edge2" class="edge"><title>VARIANCE&#45;&gt;CENTRAL_LIMIT_THEOREM</title>
<path fill="none" stroke="black" d="M169.492,-215.74C154.767,-197.15 136.827,-167.13 151,-144 159.251,-130.534 172.116,-120.356 186.021,-112.711"/>
<polygon fill="black" stroke="black" points="187.92,-115.673 195.271,-108.043 184.767,-109.423 187.92,-115.673"/>
</g>
<!-- INDEPENDENT_RANDOM_VARIABLES -->
<g id="node5" class="node"><title>INDEPENDENT_RANDOM_VARIABLES</title>
<g id="a_node5"><a xlink:href="INDEPENDENT_RANDOM_VARIABLES.html" xlink:title=" Independent random variables " target="_top">
<path fill="none" stroke="black" d="M337.25,-180C337.25,-180 172.75,-180 172.75,-180 166.75,-180 160.75,-174 160.75,-168 160.75,-168 160.75,-156 160.75,-156 160.75,-150 166.75,-144 172.75,-144 172.75,-144 337.25,-144 337.25,-144 343.25,-144 349.25,-150 349.25,-156 349.25,-156 349.25,-168 349.25,-168 349.25,-174 343.25,-180 337.25,-180"/>
<text text-anchor="start" x="168.5" y="-158.3" font-family="Times,serif" font-size="14.00"> Independent random variables </text>
</a>
</g>
</g>
<!-- VARIANCE&#45;&gt;INDEPENDENT_RANDOM_VARIABLES -->
<!-- LAW_OF_LARGE_NUMBERS -->
<g id="node4" class="node"><title>LAW_OF_LARGE_NUMBERS</title>
<g id="a_node4"><a xlink:href="LAW_OF_LARGE_NUMBERS.html" xlink:title=" The law of large numbers " target="_top">
<path fill="none" stroke="black" d="M448.25,-252C448.25,-252 307.75,-252 307.75,-252 301.75,-252 295.75,-246 295.75,-240 295.75,-240 295.75,-228 295.75,-228 295.75,-222 301.75,-216 307.75,-216 307.75,-216 448.25,-216 448.25,-216 454.25,-216 460.25,-222 460.25,-228 460.25,-228 460.25,-240 460.25,-240 460.25,-246 454.25,-252 448.25,-252"/>
<text text-anchor="start" x="303.5" y="-230.3" font-family="Times,serif" font-size="14.00"> The law of large numbers </text>
</a>
</g>
</g>
<!-- LAW_OF_LARGE_NUMBERS&#45;&gt;CENTRAL_LIMIT_THEOREM -->
<g id="edge3" class="edge"><title>LAW_OF_LARGE_NUMBERS&#45;&gt;CENTRAL_LIMIT_THEOREM</title>
<path fill="none" stroke="black" d="M378.296,-215.794C377.761,-196.421 374.18,-164.921 358,-144 347.71,-130.694 333.148,-120.426 318.206,-112.63"/>
<polygon fill="black" stroke="black" points="319.41,-109.323 308.887,-108.09 316.344,-115.616 319.41,-109.323"/>
</g>
<!-- INDEPENDENT_RANDOM_VARIABLES&#45;&gt;CENTRAL_LIMIT_THEOREM -->
<g id="edge4" class="edge"><title>INDEPENDENT_RANDOM_VARIABLES&#45;&gt;CENTRAL_LIMIT_THEOREM</title>
<path fill="none" stroke="black" d="M255,-143.697C255,-135.983 255,-126.712 255,-118.112"/>
<polygon fill="black" stroke="black" points="258.5,-118.104 255,-108.104 251.5,-118.104 258.5,-118.104"/>
</g>
<!-- NORMAL_RANDOM_VARIABLE&#45;&gt;CENTRAL_LIMIT_THEOREM -->
<g id="edge7" class="edge"><title>NORMAL_RANDOM_VARIABLE&#45;&gt;CENTRAL_LIMIT_THEOREM</title>
<path fill="none" stroke="black" d="M260.895,-36.1043C261.701,-43.7913 261.937,-53.0537 261.604,-61.6651"/>
<polygon fill="black" stroke="black" points="258.109,-61.4805 260.916,-71.6966 265.092,-61.9597 258.109,-61.4805"/>
</g>
</g>
</svg>
