<?xml version="1.0" encoding="UTF-8" standalone="no"?>
<!DOCTYPE svg PUBLIC "-//W3C//DTD SVG 1.1//EN"
 "http://www.w3.org/Graphics/SVG/1.1/DTD/svg11.dtd">
<!-- Generated by graphviz version 2.26.3 (20100126.1600)
 -->
<!-- Title: _anonymous_0 Pages: 1 -->
<svg width="300pt" height="188pt"
 viewBox="0.00 0.00 300.00 188.00" xmlns="http://www.w3.org/2000/svg" xmlns:xlink="http://www.w3.org/1999/xlink">
<g id="graph1" class="graph" transform="scale(1 1) rotate(0) translate(4 184)">
<title>_anonymous_0</title>
<!-- CENTRAL_LIMIT_THEOREM -->
<g id="node1" class="node"><title>CENTRAL_LIMIT_THEOREM</title>
<a xlink:href="CENTRAL_LIMIT_THEOREM.html" xlink:title="The central limit theorem" target="_top">
<polyline fill="none" stroke="blue" stroke-width="2" points="202,-108 32,-108 "/>
<path fill="none" stroke="blue" stroke-width="2" d="M32,-108C26,-108 20,-102 20,-96"/>
<polyline fill="none" stroke="blue" stroke-width="2" points="20,-96 20,-84 "/>
<path fill="none" stroke="blue" stroke-width="2" d="M20,-84C20,-78 26,-72 32,-72"/>
<polyline fill="none" stroke="blue" stroke-width="2" points="32,-72 202,-72 "/>
<path fill="none" stroke="blue" stroke-width="2" d="M202,-72C208,-72 214,-78 214,-84"/>
<polyline fill="none" stroke="blue" stroke-width="2" points="214,-84 214,-96 "/>
<path fill="none" stroke="blue" stroke-width="2" d="M214,-96C214,-102 208,-108 202,-108"/>
<text text-anchor="start" x="28.5" y="-87.2333" font-family="Times Roman,serif" font-size="14.00">The central limit theorem</text>
</a>
</g>
<!-- NORMAL_RANDOM_VARIABLE -->
<g id="node4" class="node"><title>NORMAL_RANDOM_VARIABLE</title>
<a xlink:href="NORMAL_RANDOM_VARIABLE.html" xlink:title="Normal random variable" target="_top">
<polyline fill="none" stroke="black" points="196,-36 38,-36 "/>
<path fill="none" stroke="black" d="M38,-36C32,-36 26,-30 26,-24"/>
<polyline fill="none" stroke="black" points="26,-24 26,-12 "/>
<path fill="none" stroke="black" d="M26,-12C26,-6 32,-1.72951e-14 38,-1.68266e-14"/>
<polyline fill="none" stroke="black" points="38,-1.68266e-14 196,-4.48969e-15 "/>
<path fill="none" stroke="black" d="M196,-4.48969e-15C202,-4.0212e-15 208,-6 208,-12"/>
<polyline fill="none" stroke="black" points="208,-12 208,-24 "/>
<path fill="none" stroke="black" d="M208,-24C208,-30 202,-36 196,-36"/>
<text text-anchor="start" x="34" y="-15.2333" font-family="Times Roman,serif" font-size="14.00">Normal random variable</text>
</a>
</g>
<!-- CENTRAL_LIMIT_THEOREM&#45;&gt;NORMAL_RANDOM_VARIABLE -->
<g id="edge4" class="edge"><title>CENTRAL_LIMIT_THEOREM&#45;&gt;NORMAL_RANDOM_VARIABLE</title>
<path fill="none" stroke="black" d="M117,-71.8314C117,-64.131 117,-54.9743 117,-46.4166"/>
<polygon fill="black" stroke="black" points="120.5,-46.4132 117,-36.4133 113.5,-46.4133 120.5,-46.4132"/>
</g>
<!-- VARIANCE -->
<g id="node2" class="node"><title>VARIANCE</title>
<a xlink:href="VARIANCE.html" xlink:title="Variance " target="_top">
<polyline fill="none" stroke="black" points="68,-180 12,-180 "/>
<path fill="none" stroke="black" d="M12,-180C6,-180 3.55271e-14,-174 2.84217e-14,-168"/>
<polyline fill="none" stroke="black" points="2.84217e-14,-168 1.42109e-14,-156 "/>
<path fill="none" stroke="black" d="M1.42109e-14,-156C7.10543e-15,-150 6,-144 12,-144"/>
<polyline fill="none" stroke="black" points="12,-144 68,-144 "/>
<path fill="none" stroke="black" d="M68,-144C74,-144 80,-150 80,-156"/>
<polyline fill="none" stroke="black" points="80,-156 80,-168 "/>
<path fill="none" stroke="black" d="M80,-168C80,-174 74,-180 68,-180"/>
<text text-anchor="start" x="8" y="-159.233" font-family="Times Roman,serif" font-size="14.00">Variance </text>
</a>
</g>
<!-- VARIANCE&#45;&gt;CENTRAL_LIMIT_THEOREM -->
<g id="edge2" class="edge"><title>VARIANCE&#45;&gt;CENTRAL_LIMIT_THEOREM</title>
<path fill="none" stroke="black" d="M59.4304,-143.831C68.732,-135.134 80.0204,-124.578 90.1286,-115.127"/>
<polygon fill="black" stroke="black" points="92.6621,-117.549 97.5759,-108.163 87.8811,-112.436 92.6621,-117.549"/>
</g>
<!-- LAW_OF_LARGE_NUMBERS -->
<g id="node6" class="node"><title>LAW_OF_LARGE_NUMBERS</title>
<a xlink:href="LAW_OF_LARGE_NUMBERS.html" xlink:title="The law of large numbers" target="_top">
<polyline fill="none" stroke="black" points="280,-180 110,-180 "/>
<path fill="none" stroke="black" d="M110,-180C104,-180 98,-174 98,-168"/>
<polyline fill="none" stroke="black" points="98,-168 98,-156 "/>
<path fill="none" stroke="black" d="M98,-156C98,-150 104,-144 110,-144"/>
<polyline fill="none" stroke="black" points="110,-144 280,-144 "/>
<path fill="none" stroke="black" d="M280,-144C286,-144 292,-150 292,-156"/>
<polyline fill="none" stroke="black" points="292,-156 292,-168 "/>
<path fill="none" stroke="black" d="M292,-168C292,-174 286,-180 280,-180"/>
<text text-anchor="start" x="106.5" y="-159.233" font-family="Times Roman,serif" font-size="14.00">The law of large numbers</text>
</a>
</g>
<!-- LAW_OF_LARGE_NUMBERS&#45;&gt;CENTRAL_LIMIT_THEOREM -->
<g id="edge6" class="edge"><title>LAW_OF_LARGE_NUMBERS&#45;&gt;CENTRAL_LIMIT_THEOREM</title>
<path fill="none" stroke="black" d="M175.317,-143.831C165.895,-135.134 154.46,-124.578 144.22,-115.127"/>
<polygon fill="black" stroke="black" points="146.398,-112.374 136.676,-108.163 141.65,-117.517 146.398,-112.374"/>
</g>
</g>
</svg>
