<?xml version="1.0" encoding="UTF-8" standalone="no"?>
<!DOCTYPE svg PUBLIC "-//W3C//DTD SVG 1.1//EN"
 "http://www.w3.org/Graphics/SVG/1.1/DTD/svg11.dtd">
<!-- Generated by graphviz version 2.28.0 (20110509.1545)
 -->
<!-- Title: _anonymous_0 Pages: 1 -->
<svg width="255pt" height="188pt"
 viewBox="0.00 0.00 255.00 188.00" xmlns="http://www.w3.org/2000/svg" xmlns:xlink="http://www.w3.org/1999/xlink">
<g id="graph1" class="graph" transform="scale(1 1) rotate(0) translate(4 184)">
<title>_anonymous_0</title>
<!-- CENTRAL_LIMIT_THEOREM -->
<g id="node1" class="node"><title>CENTRAL_LIMIT_THEOREM</title>
<a xlink:href="CENTRAL_LIMIT_THEOREM.html" xlink:title="The central limit theorem" target="_top">
<polyline fill="none" stroke="blue" stroke-width="2" points="213.25,-108 78.75,-108 "/>
<path fill="none" stroke="blue" stroke-width="2" d="M78.75,-108C72.75,-108 66.75,-102 66.75,-96"/>
<polyline fill="none" stroke="blue" stroke-width="2" points="66.75,-96 66.75,-84 "/>
<path fill="none" stroke="blue" stroke-width="2" d="M66.75,-84C66.75,-78 72.75,-72 78.75,-72"/>
<polyline fill="none" stroke="blue" stroke-width="2" points="78.75,-72 213.25,-72 "/>
<path fill="none" stroke="blue" stroke-width="2" d="M213.25,-72C219.25,-72 225.25,-78 225.25,-84"/>
<polyline fill="none" stroke="blue" stroke-width="2" points="225.25,-84 225.25,-96 "/>
<path fill="none" stroke="blue" stroke-width="2" d="M225.25,-96C225.25,-102 219.25,-108 213.25,-108"/>
<text text-anchor="start" x="75" y="-84.5" font-family="Times,serif" font-size="14.00">The central limit theorem</text>
</a>
</g>
<!-- NORMAL_RANDOM_VARIABLE -->
<g id="node4" class="node"><title>NORMAL_RANDOM_VARIABLE</title>
<a xlink:href="NORMAL_RANDOM_VARIABLE.html" xlink:title="Normal random variable" target="_top">
<polyline fill="none" stroke="black" points="211,-36 81,-36 "/>
<path fill="none" stroke="black" d="M81,-36C75,-36 69,-30 69,-24"/>
<polyline fill="none" stroke="black" points="69,-24 69,-12 "/>
<path fill="none" stroke="black" d="M69,-12C69,-6 75,-0 81,-0"/>
<polyline fill="none" stroke="black" points="81,-0 211,-0 "/>
<path fill="none" stroke="black" d="M211,-0C217,-0 223,-6 223,-12"/>
<polyline fill="none" stroke="black" points="223,-12 223,-24 "/>
<path fill="none" stroke="black" d="M223,-24C223,-30 217,-36 211,-36"/>
<text text-anchor="start" x="77.5" y="-12.5" font-family="Times,serif" font-size="14.00">Normal random variable</text>
</a>
</g>
<!-- CENTRAL_LIMIT_THEOREM&#45;&gt;NORMAL_RANDOM_VARIABLE -->
<g id="edge4" class="edge"><title>CENTRAL_LIMIT_THEOREM&#45;&gt;NORMAL_RANDOM_VARIABLE</title>
<path fill="none" stroke="black" d="M146,-71.6966C146,-63.9827 146,-54.7125 146,-46.1124"/>
<polygon fill="black" stroke="black" points="149.5,-46.1043 146,-36.1043 142.5,-46.1044 149.5,-46.1043"/>
</g>
<!-- LAW_OF_LARGE_NUMBERS -->
<g id="node2" class="node"><title>LAW_OF_LARGE_NUMBERS</title>
<a xlink:href="LAW_OF_LARGE_NUMBERS.html" xlink:title="The law of large numbers" target="_top">
<polyline fill="none" stroke="black" points="148,-180 12,-180 "/>
<path fill="none" stroke="black" d="M12,-180C6,-180 0,-174 0,-168"/>
<polyline fill="none" stroke="black" points="0,-168 0,-156 "/>
<path fill="none" stroke="black" d="M0,-156C0,-150 6,-144 12,-144"/>
<polyline fill="none" stroke="black" points="12,-144 148,-144 "/>
<path fill="none" stroke="black" d="M148,-144C154,-144 160,-150 160,-156"/>
<polyline fill="none" stroke="black" points="160,-156 160,-168 "/>
<path fill="none" stroke="black" d="M160,-168C160,-174 154,-180 148,-180"/>
<text text-anchor="start" x="8.5" y="-156.5" font-family="Times,serif" font-size="14.00">The law of large numbers</text>
</a>
</g>
<!-- LAW_OF_LARGE_NUMBERS&#45;&gt;CENTRAL_LIMIT_THEOREM -->
<g id="edge2" class="edge"><title>LAW_OF_LARGE_NUMBERS&#45;&gt;CENTRAL_LIMIT_THEOREM</title>
<path fill="none" stroke="black" d="M96.3146,-143.697C104.307,-135.22 114.072,-124.864 122.822,-115.583"/>
<polygon fill="black" stroke="black" points="125.559,-117.781 129.873,-108.104 120.466,-112.979 125.559,-117.781"/>
</g>
<!-- VARIANCE -->
<g id="node6" class="node"><title>VARIANCE</title>
<a xlink:href="VARIANCE.html" xlink:title="Variance " target="_top">
<polyline fill="none" stroke="black" points="235.25,-180 190.75,-180 "/>
<path fill="none" stroke="black" d="M190.75,-180C184.75,-180 178.75,-174 178.75,-168"/>
<polyline fill="none" stroke="black" points="178.75,-168 178.75,-156 "/>
<path fill="none" stroke="black" d="M178.75,-156C178.75,-150 184.75,-144 190.75,-144"/>
<polyline fill="none" stroke="black" points="190.75,-144 235.25,-144 "/>
<path fill="none" stroke="black" d="M235.25,-144C241.25,-144 247.25,-150 247.25,-156"/>
<polyline fill="none" stroke="black" points="247.25,-156 247.25,-168 "/>
<path fill="none" stroke="black" d="M247.25,-168C247.25,-174 241.25,-180 235.25,-180"/>
<text text-anchor="start" x="187" y="-156.5" font-family="Times,serif" font-size="14.00">Variance </text>
</a>
</g>
<!-- VARIANCE&#45;&gt;CENTRAL_LIMIT_THEOREM -->
<g id="edge6" class="edge"><title>VARIANCE&#45;&gt;CENTRAL_LIMIT_THEOREM</title>
<path fill="none" stroke="black" d="M196.438,-143.697C188.325,-135.22 178.412,-124.864 169.529,-115.583"/>
<polygon fill="black" stroke="black" points="171.814,-112.908 162.371,-108.104 166.757,-117.749 171.814,-112.908"/>
</g>
</g>
</svg>
