<?xml version="1.0" encoding="UTF-8" standalone="no"?>
<!DOCTYPE svg PUBLIC "-//W3C//DTD SVG 1.1//EN"
 "http://www.w3.org/Graphics/SVG/1.1/DTD/svg11.dtd">
<!-- Generated by graphviz version 2.26.3 (20100126.1600)
 -->
<!-- Title: _anonymous_0 Pages: 1 -->
<svg width="327pt" height="188pt"
 viewBox="0.00 0.00 327.00 188.00" xmlns="http://www.w3.org/2000/svg" xmlns:xlink="http://www.w3.org/1999/xlink">
<g id="graph1" class="graph" transform="scale(1 1) rotate(0) translate(4 184)">
<title>_anonymous_0</title>
<!-- CENTRAL_LIMIT_THEOREM -->
<g id="node1" class="node"><title>CENTRAL_LIMIT_THEOREM</title>
<a xlink:href="CENTRAL_LIMIT_THEOREM.html" xlink:title="The central limit theorem" target="_top">
<polyline fill="none" stroke="blue" stroke-width="2" points="182,-108 12,-108 "/>
<path fill="none" stroke="blue" stroke-width="2" d="M12,-108C6,-108 4.73695e-14,-102 3.78956e-14,-96"/>
<polyline fill="none" stroke="blue" stroke-width="2" points="3.78956e-14,-96 1.89478e-14,-84 "/>
<path fill="none" stroke="blue" stroke-width="2" d="M1.89478e-14,-84C9.4739e-15,-78 6,-72 12,-72"/>
<polyline fill="none" stroke="blue" stroke-width="2" points="12,-72 182,-72 "/>
<path fill="none" stroke="blue" stroke-width="2" d="M182,-72C188,-72 194,-78 194,-84"/>
<polyline fill="none" stroke="blue" stroke-width="2" points="194,-84 194,-96 "/>
<path fill="none" stroke="blue" stroke-width="2" d="M194,-96C194,-102 188,-108 182,-108"/>
<text text-anchor="start" x="8.5" y="-87.2333" font-family="Times Roman,serif" font-size="14.00">The central limit theorem</text>
</a>
</g>
<!-- NORMAL_RANDOM_VARIABLE -->
<g id="node6" class="node"><title>NORMAL_RANDOM_VARIABLE</title>
<a xlink:href="NORMAL_RANDOM_VARIABLE.html" xlink:title="Normal random variable" target="_top">
<polyline fill="none" stroke="black" points="176,-36 18,-36 "/>
<path fill="none" stroke="black" d="M18,-36C12,-36 6,-30 6,-24"/>
<polyline fill="none" stroke="black" points="6,-24 6,-12 "/>
<path fill="none" stroke="black" d="M6,-12C6,-6 12,-1.72951e-14 18,-1.68266e-14"/>
<polyline fill="none" stroke="black" points="18,-1.68266e-14 176,-4.48969e-15 "/>
<path fill="none" stroke="black" d="M176,-4.48969e-15C182,-4.0212e-15 188,-6 188,-12"/>
<polyline fill="none" stroke="black" points="188,-12 188,-24 "/>
<path fill="none" stroke="black" d="M188,-24C188,-30 182,-36 176,-36"/>
<text text-anchor="start" x="14" y="-15.2333" font-family="Times Roman,serif" font-size="14.00">Normal random variable</text>
</a>
</g>
<!-- CENTRAL_LIMIT_THEOREM&#45;&gt;NORMAL_RANDOM_VARIABLE -->
<g id="edge6" class="edge"><title>CENTRAL_LIMIT_THEOREM&#45;&gt;NORMAL_RANDOM_VARIABLE</title>
<path fill="none" stroke="black" d="M91.0476,-71.8314C90.2972,-64.131 90.0763,-54.9743 90.3849,-46.4166"/>
<polygon fill="black" stroke="black" points="93.8792,-46.6161 91.024,-36.4133 86.8935,-46.1697 93.8792,-46.6161"/>
</g>
<!-- LAW_OF_LARGE_NUMBERS -->
<g id="node2" class="node"><title>LAW_OF_LARGE_NUMBERS</title>
<a xlink:href="LAW_OF_LARGE_NUMBERS.html" xlink:title="The law of large numbers" target="_top">
<polyline fill="none" stroke="black" points="307,-180 137,-180 "/>
<path fill="none" stroke="black" d="M137,-180C131,-180 125,-174 125,-168"/>
<polyline fill="none" stroke="black" points="125,-168 125,-156 "/>
<path fill="none" stroke="black" d="M125,-156C125,-150 131,-144 137,-144"/>
<polyline fill="none" stroke="black" points="137,-144 307,-144 "/>
<path fill="none" stroke="black" d="M307,-144C313,-144 319,-150 319,-156"/>
<polyline fill="none" stroke="black" points="319,-156 319,-168 "/>
<path fill="none" stroke="black" d="M319,-168C319,-174 313,-180 307,-180"/>
<text text-anchor="start" x="133.5" y="-159.233" font-family="Times Roman,serif" font-size="14.00">The law of large numbers</text>
</a>
</g>
<!-- LAW_OF_LARGE_NUMBERS&#45;&gt;CENTRAL_LIMIT_THEOREM -->
<g id="edge2" class="edge"><title>LAW_OF_LARGE_NUMBERS&#45;&gt;CENTRAL_LIMIT_THEOREM</title>
<path fill="none" stroke="black" d="M190.457,-143.831C174.321,-134.537 154.501,-123.121 137.273,-113.197"/>
<polygon fill="black" stroke="black" points="138.945,-110.121 128.533,-108.163 135.451,-116.187 138.945,-110.121"/>
</g>
<!-- LAW_OF_LARGE_NUMBERS&#45;&gt;NORMAL_RANDOM_VARIABLE -->
<!-- VARIANCE -->
<g id="node4" class="node"><title>VARIANCE</title>
<a xlink:href="VARIANCE.html" xlink:title="Variance " target="_top">
<polyline fill="none" stroke="black" points="95,-180 39,-180 "/>
<path fill="none" stroke="black" d="M39,-180C33,-180 27,-174 27,-168"/>
<polyline fill="none" stroke="black" points="27,-168 27,-156 "/>
<path fill="none" stroke="black" d="M27,-156C27,-150 33,-144 39,-144"/>
<polyline fill="none" stroke="black" points="39,-144 95,-144 "/>
<path fill="none" stroke="black" d="M95,-144C101,-144 107,-150 107,-156"/>
<polyline fill="none" stroke="black" points="107,-156 107,-168 "/>
<path fill="none" stroke="black" d="M107,-168C107,-174 101,-180 95,-180"/>
<text text-anchor="start" x="35" y="-159.233" font-family="Times Roman,serif" font-size="14.00">Variance </text>
</a>
</g>
<!-- VARIANCE&#45;&gt;CENTRAL_LIMIT_THEOREM -->
<g id="edge4" class="edge"><title>VARIANCE&#45;&gt;CENTRAL_LIMIT_THEOREM</title>
<path fill="none" stroke="black" d="M74.5703,-143.831C77.8493,-135.962 81.762,-126.571 85.3945,-117.853"/>
<polygon fill="black" stroke="black" points="88.7124,-118.99 89.3278,-108.413 82.2508,-116.298 88.7124,-118.99"/>
</g>
<!-- NORMAL_RANDOM_VARIABLE&#45;&gt;CENTRAL_LIMIT_THEOREM -->
<g id="edge8" class="edge"><title>NORMAL_RANDOM_VARIABLE&#45;&gt;CENTRAL_LIMIT_THEOREM</title>
<path fill="none" stroke="black" d="M102.976,-36.4133C103.707,-44.0593 103.92,-53.1084 103.615,-61.5726"/>
<polygon fill="black" stroke="black" points="100.105,-61.6264 102.952,-71.8314 107.09,-62.078 100.105,-61.6264"/>
</g>
</g>
</svg>
