<?xml version="1.0" encoding="UTF-8" standalone="no"?>
<!DOCTYPE svg PUBLIC "-//W3C//DTD SVG 1.1//EN"
 "http://www.w3.org/Graphics/SVG/1.1/DTD/svg11.dtd">
<!-- Generated by graphviz version 2.36.0 (20140111.2315)
 -->
<!-- Title: %3 Pages: 1 -->
<svg width="130pt" height="188pt"
 viewBox="0.00 0.00 130.00 188.00" xmlns="http://www.w3.org/2000/svg" xmlns:xlink="http://www.w3.org/1999/xlink">
<g id="graph0" class="graph" transform="scale(1 1) rotate(0) translate(4 184)">
<title>%3</title>
<!-- CHAIN_RULE -->
<g id="node1" class="node"><title>CHAIN_RULE</title>
<g id="a_node1"><a xlink:href="CHAIN_RULE.html" xlink:title=" Chain Rule " target="_top">
<path fill="none" stroke="blue" stroke-width="2" d="M92,-108C92,-108 30,-108 30,-108 24,-108 18,-102 18,-96 18,-96 18,-84 18,-84 18,-78 24,-72 30,-72 30,-72 92,-72 92,-72 98,-72 104,-78 104,-84 104,-84 104,-96 104,-96 104,-102 98,-108 92,-108"/>
<text text-anchor="start" x="26" y="-86.3" font-family="Times,serif" font-size="14.00"> Chain Rule </text>
</a>
</g>
</g>
<!-- INTERATOMIC_FORCES -->
<g id="node3" class="node"><title>INTERATOMIC_FORCES</title>
<g id="a_node3"><a xlink:href="INTERATOMIC_FORCES.html" xlink:title=" Interatomic forces " target="_top">
<path fill="none" stroke="black" d="M110.5,-36C110.5,-36 11.5,-36 11.5,-36 5.5,-36 -0.5,-30 -0.5,-24 -0.5,-24 -0.5,-12 -0.5,-12 -0.5,-6 5.5,-0 11.5,-0 11.5,-0 110.5,-0 110.5,-0 116.5,-0 122.5,-6 122.5,-12 122.5,-12 122.5,-24 122.5,-24 122.5,-30 116.5,-36 110.5,-36"/>
<text text-anchor="start" x="7" y="-14.3" font-family="Times,serif" font-size="14.00"> Interatomic forces </text>
</a>
</g>
</g>
<!-- CHAIN_RULE&#45;&gt;INTERATOMIC_FORCES -->
<g id="edge2" class="edge"><title>CHAIN_RULE&#45;&gt;INTERATOMIC_FORCES</title>
<path fill="none" stroke="black" d="M61,-71.6966C61,-63.9827 61,-54.7125 61,-46.1124"/>
<polygon fill="black" stroke="black" points="64.5001,-46.1043 61,-36.1043 57.5001,-46.1044 64.5001,-46.1043"/>
</g>
<!-- DEFINITION_OF_DERIVATIVE -->
<g id="node2" class="node"><title>DEFINITION_OF_DERIVATIVE</title>
<g id="a_node2"><a xlink:href="DEFINITION_OF_DERIVATIVE.html" xlink:title=" Differentiation " target="_top">
<path fill="none" stroke="black" d="M101,-180C101,-180 21,-180 21,-180 15,-180 9,-174 9,-168 9,-168 9,-156 9,-156 9,-150 15,-144 21,-144 21,-144 101,-144 101,-144 107,-144 113,-150 113,-156 113,-156 113,-168 113,-168 113,-174 107,-180 101,-180"/>
<text text-anchor="start" x="17" y="-158.3" font-family="Times,serif" font-size="14.00"> Differentiation </text>
</a>
</g>
</g>
<!-- DEFINITION_OF_DERIVATIVE&#45;&gt;CHAIN_RULE -->
<g id="edge1" class="edge"><title>DEFINITION_OF_DERIVATIVE&#45;&gt;CHAIN_RULE</title>
<path fill="none" stroke="black" d="M61,-143.697C61,-135.983 61,-126.712 61,-118.112"/>
<polygon fill="black" stroke="black" points="64.5001,-118.104 61,-108.104 57.5001,-118.104 64.5001,-118.104"/>
</g>
</g>
</svg>
