<?xml version="1.0" encoding="UTF-8" standalone="no"?>
<!DOCTYPE svg PUBLIC "-//W3C//DTD SVG 1.1//EN"
 "http://www.w3.org/Graphics/SVG/1.1/DTD/svg11.dtd">
<!-- Generated by graphviz version 2.28.0 (20110509.1545)
 -->
<!-- Title: _anonymous_0 Pages: 1 -->
<svg width="106pt" height="116pt"
 viewBox="0.00 0.00 106.00 116.00" xmlns="http://www.w3.org/2000/svg" xmlns:xlink="http://www.w3.org/1999/xlink">
<g id="graph1" class="graph" transform="scale(1 1) rotate(0) translate(4 112)">
<title>_anonymous_0</title>
<!-- CHAIN_RULE -->
<g id="node1" class="node"><title>CHAIN_RULE</title>
<a xlink:href="CHAIN_RULE.html" xlink:title="Chain Rule" target="_top">
<polyline fill="none" stroke="blue" stroke-width="2" points="77,-36 21,-36 "/>
<path fill="none" stroke="blue" stroke-width="2" d="M21,-36C15,-36 9,-30 9,-24"/>
<polyline fill="none" stroke="blue" stroke-width="2" points="9,-24 9,-12 "/>
<path fill="none" stroke="blue" stroke-width="2" d="M9,-12C9,-6 15,-0 21,-0"/>
<polyline fill="none" stroke="blue" stroke-width="2" points="21,-0 77,-0 "/>
<path fill="none" stroke="blue" stroke-width="2" d="M77,-0C83,-0 89,-6 89,-12"/>
<polyline fill="none" stroke="blue" stroke-width="2" points="89,-12 89,-24 "/>
<path fill="none" stroke="blue" stroke-width="2" d="M89,-24C89,-30 83,-36 77,-36"/>
<text text-anchor="start" x="17.5" y="-12.5" font-family="Times,serif" font-size="14.00">Chain Rule</text>
</a>
</g>
<!-- DEFINITION_OF_DERIVATIVE -->
<g id="node2" class="node"><title>DEFINITION_OF_DERIVATIVE</title>
<a xlink:href="DEFINITION_OF_DERIVATIVE.html" xlink:title="Differentiation" target="_top">
<polyline fill="none" stroke="black" points="86.25,-108 11.75,-108 "/>
<path fill="none" stroke="black" d="M11.75,-108C5.75,-108 -0.25,-102 -0.25,-96"/>
<polyline fill="none" stroke="black" points="-0.25,-96 -0.25,-84 "/>
<path fill="none" stroke="black" d="M-0.25,-84C-0.25,-78 5.75,-72 11.75,-72"/>
<polyline fill="none" stroke="black" points="11.75,-72 86.25,-72 "/>
<path fill="none" stroke="black" d="M86.25,-72C92.25,-72 98.25,-78 98.25,-84"/>
<polyline fill="none" stroke="black" points="98.25,-84 98.25,-96 "/>
<path fill="none" stroke="black" d="M98.25,-96C98.25,-102 92.25,-108 86.25,-108"/>
<text text-anchor="start" x="8" y="-84.5" font-family="Times,serif" font-size="14.00">Differentiation</text>
</a>
</g>
<!-- DEFINITION_OF_DERIVATIVE&#45;&gt;CHAIN_RULE -->
<g id="edge2" class="edge"><title>DEFINITION_OF_DERIVATIVE&#45;&gt;CHAIN_RULE</title>
<path fill="none" stroke="black" d="M49,-71.6966C49,-63.9827 49,-54.7125 49,-46.1124"/>
<polygon fill="black" stroke="black" points="52.5001,-46.1043 49,-36.1043 45.5001,-46.1044 52.5001,-46.1043"/>
</g>
</g>
</svg>
