<?xml version="1.0" encoding="UTF-8" standalone="no"?>
<!DOCTYPE svg PUBLIC "-//W3C//DTD SVG 1.1//EN"
 "http://www.w3.org/Graphics/SVG/1.1/DTD/svg11.dtd">
<!-- Generated by graphviz version 2.26.3 (20100126.1600)
 -->
<!-- Title: _anonymous_0 Pages: 1 -->
<svg width="158pt" height="188pt"
 viewBox="0.00 0.00 158.00 188.00" xmlns="http://www.w3.org/2000/svg" xmlns:xlink="http://www.w3.org/1999/xlink">
<g id="graph1" class="graph" transform="scale(1 1) rotate(0) translate(4 184)">
<title>_anonymous_0</title>
<!-- CHAIN_RULE -->
<g id="node1" class="node"><title>CHAIN_RULE</title>
<a xlink:href="CHAIN_RULE.html" xlink:title=" Chain Rule " target="_top">
<polyline fill="none" stroke="blue" stroke-width="2" points="113,-108 37,-108 "/>
<path fill="none" stroke="blue" stroke-width="2" d="M37,-108C31,-108 25,-102 25,-96"/>
<polyline fill="none" stroke="blue" stroke-width="2" points="25,-96 25,-84 "/>
<path fill="none" stroke="blue" stroke-width="2" d="M25,-84C25,-78 31,-72 37,-72"/>
<polyline fill="none" stroke="blue" stroke-width="2" points="37,-72 113,-72 "/>
<path fill="none" stroke="blue" stroke-width="2" d="M113,-72C119,-72 125,-78 125,-84"/>
<polyline fill="none" stroke="blue" stroke-width="2" points="125,-84 125,-96 "/>
<path fill="none" stroke="blue" stroke-width="2" d="M125,-96C125,-102 119,-108 113,-108"/>
<text text-anchor="start" x="33" y="-87.2333" font-family="Times Roman,serif" font-size="14.00"> Chain Rule </text>
</a>
</g>
<!-- INTERATOMIC_FORCES -->
<g id="node4" class="node"><title>INTERATOMIC_FORCES</title>
<a xlink:href="INTERATOMIC_FORCES.html" xlink:title=" Interatomic forces " target="_top">
<polyline fill="none" stroke="black" points="138,-36 12,-36 "/>
<path fill="none" stroke="black" d="M12,-36C6,-36 5.92119e-14,-30 4.73695e-14,-24"/>
<polyline fill="none" stroke="black" points="4.73695e-14,-24 2.36848e-14,-12 "/>
<path fill="none" stroke="black" d="M2.36848e-14,-12C1.18424e-14,-6 6,-1.71951e-14 12,-1.66267e-14"/>
<polyline fill="none" stroke="black" points="12,-1.66267e-14 138,-4.68958e-15 "/>
<path fill="none" stroke="black" d="M138,-4.68958e-15C144,-4.12115e-15 150,-6 150,-12"/>
<polyline fill="none" stroke="black" points="150,-12 150,-24 "/>
<path fill="none" stroke="black" d="M150,-24C150,-30 144,-36 138,-36"/>
<text text-anchor="start" x="8" y="-15.2333" font-family="Times Roman,serif" font-size="14.00"> Interatomic forces </text>
</a>
</g>
<!-- CHAIN_RULE&#45;&gt;INTERATOMIC_FORCES -->
<g id="edge4" class="edge"><title>CHAIN_RULE&#45;&gt;INTERATOMIC_FORCES</title>
<path fill="none" stroke="black" d="M75,-71.8314C75,-64.131 75,-54.9743 75,-46.4166"/>
<polygon fill="black" stroke="black" points="78.5001,-46.4132 75,-36.4133 71.5001,-46.4133 78.5001,-46.4132"/>
</g>
<!-- DEFINITION_OF_DERIVATIVE -->
<g id="node2" class="node"><title>DEFINITION_OF_DERIVATIVE</title>
<a xlink:href="DEFINITION_OF_DERIVATIVE.html" xlink:title=" Differentiation " target="_top">
<polyline fill="none" stroke="black" points="127,-180 23,-180 "/>
<path fill="none" stroke="black" d="M23,-180C17,-180 11,-174 11,-168"/>
<polyline fill="none" stroke="black" points="11,-168 11,-156 "/>
<path fill="none" stroke="black" d="M11,-156C11,-150 17,-144 23,-144"/>
<polyline fill="none" stroke="black" points="23,-144 127,-144 "/>
<path fill="none" stroke="black" d="M127,-144C133,-144 139,-150 139,-156"/>
<polyline fill="none" stroke="black" points="139,-156 139,-168 "/>
<path fill="none" stroke="black" d="M139,-168C139,-174 133,-180 127,-180"/>
<text text-anchor="start" x="19.5" y="-159.233" font-family="Times Roman,serif" font-size="14.00"> Differentiation </text>
</a>
</g>
<!-- DEFINITION_OF_DERIVATIVE&#45;&gt;CHAIN_RULE -->
<g id="edge2" class="edge"><title>DEFINITION_OF_DERIVATIVE&#45;&gt;CHAIN_RULE</title>
<path fill="none" stroke="black" d="M75,-143.831C75,-136.131 75,-126.974 75,-118.417"/>
<polygon fill="black" stroke="black" points="78.5001,-118.413 75,-108.413 71.5001,-118.413 78.5001,-118.413"/>
</g>
</g>
</svg>
