<?xml version="1.0" encoding="UTF-8" standalone="no"?>
<!DOCTYPE svg PUBLIC "-//W3C//DTD SVG 1.1//EN"
 "http://www.w3.org/Graphics/SVG/1.1/DTD/svg11.dtd">
<!-- Generated by graphviz version 2.26.3 (20100126.1600)
 -->
<!-- Title: _anonymous_0 Pages: 1 -->
<svg width="126pt" height="116pt"
 viewBox="0.00 0.00 126.00 116.00" xmlns="http://www.w3.org/2000/svg" xmlns:xlink="http://www.w3.org/1999/xlink">
<g id="graph1" class="graph" transform="scale(1 1) rotate(0) translate(4 112)">
<title>_anonymous_0</title>
<!-- CHAIN_RULE -->
<g id="node1" class="node"><title>CHAIN_RULE</title>
<a xlink:href="CHAIN_RULE.html" xlink:title="Chain Rule" target="_top">
<polyline fill="none" stroke="blue" stroke-width="2" points="93,-36 25,-36 "/>
<path fill="none" stroke="blue" stroke-width="2" d="M25,-36C19,-36 13,-30 13,-24"/>
<polyline fill="none" stroke="blue" stroke-width="2" points="13,-24 13,-12 "/>
<path fill="none" stroke="blue" stroke-width="2" d="M13,-12C13,-6 19,-1.68368e-14 25,-1.591e-14"/>
<polyline fill="none" stroke="blue" stroke-width="2" points="25,-1.591e-14 93,-5.4063e-15 "/>
<path fill="none" stroke="blue" stroke-width="2" d="M93,-5.4063e-15C99,-4.47951e-15 105,-6 105,-12"/>
<polyline fill="none" stroke="blue" stroke-width="2" points="105,-12 105,-24 "/>
<path fill="none" stroke="blue" stroke-width="2" d="M105,-24C105,-30 99,-36 93,-36"/>
<text text-anchor="start" x="21.5" y="-15.2333" font-family="Times Roman,serif" font-size="14.00">Chain Rule</text>
</a>
</g>
<!-- DEFINITION_OF_DERIVATIVE -->
<g id="node2" class="node"><title>DEFINITION_OF_DERIVATIVE</title>
<a xlink:href="DEFINITION_OF_DERIVATIVE.html" xlink:title="Differentiation" target="_top">
<polyline fill="none" stroke="black" points="106,-108 12,-108 "/>
<path fill="none" stroke="black" d="M12,-108C6,-108 4.14483e-14,-102 3.31587e-14,-96"/>
<polyline fill="none" stroke="black" points="3.31587e-14,-96 1.65793e-14,-84 "/>
<path fill="none" stroke="black" d="M1.65793e-14,-84C8.28967e-15,-78 6,-72 12,-72"/>
<polyline fill="none" stroke="black" points="12,-72 106,-72 "/>
<path fill="none" stroke="black" d="M106,-72C112,-72 118,-78 118,-84"/>
<polyline fill="none" stroke="black" points="118,-84 118,-96 "/>
<path fill="none" stroke="black" d="M118,-96C118,-102 112,-108 106,-108"/>
<text text-anchor="start" x="8" y="-87.2333" font-family="Times Roman,serif" font-size="14.00">Differentiation</text>
</a>
</g>
<!-- DEFINITION_OF_DERIVATIVE&#45;&gt;CHAIN_RULE -->
<g id="edge2" class="edge"><title>DEFINITION_OF_DERIVATIVE&#45;&gt;CHAIN_RULE</title>
<path fill="none" stroke="black" d="M59,-71.8314C59,-64.131 59,-54.9743 59,-46.4166"/>
<polygon fill="black" stroke="black" points="62.5001,-46.4132 59,-36.4133 55.5001,-46.4133 62.5001,-46.4132"/>
</g>
</g>
</svg>
