<?xml version="1.0" encoding="UTF-8" standalone="no"?>
<!DOCTYPE svg PUBLIC "-//W3C//DTD SVG 1.1//EN"
 "http://www.w3.org/Graphics/SVG/1.1/DTD/svg11.dtd">
<!-- Generated by graphviz version 2.26.3 (20100126.1600)
 -->
<!-- Title: _anonymous_0 Pages: 1 -->
<svg width="150pt" height="188pt"
 viewBox="0.00 0.00 150.00 188.00" xmlns="http://www.w3.org/2000/svg" xmlns:xlink="http://www.w3.org/1999/xlink">
<g id="graph1" class="graph" transform="scale(1 1) rotate(0) translate(4 184)">
<title>_anonymous_0</title>
<!-- CHAIN_RULE -->
<g id="node1" class="node"><title>CHAIN_RULE</title>
<a xlink:href="CHAIN_RULE.html" xlink:title="Chain Rule" target="_top">
<polyline fill="none" stroke="blue" stroke-width="2" points="105,-108 37,-108 "/>
<path fill="none" stroke="blue" stroke-width="2" d="M37,-108C31,-108 25,-102 25,-96"/>
<polyline fill="none" stroke="blue" stroke-width="2" points="25,-96 25,-84 "/>
<path fill="none" stroke="blue" stroke-width="2" d="M25,-84C25,-78 31,-72 37,-72"/>
<polyline fill="none" stroke="blue" stroke-width="2" points="37,-72 105,-72 "/>
<path fill="none" stroke="blue" stroke-width="2" d="M105,-72C111,-72 117,-78 117,-84"/>
<polyline fill="none" stroke="blue" stroke-width="2" points="117,-84 117,-96 "/>
<path fill="none" stroke="blue" stroke-width="2" d="M117,-96C117,-102 111,-108 105,-108"/>
<text text-anchor="start" x="33.5" y="-87.2333" font-family="Times Roman,serif" font-size="14.00">Chain Rule</text>
</a>
</g>
<!-- INTERATOMIC_FORCES -->
<g id="node4" class="node"><title>INTERATOMIC_FORCES</title>
<a xlink:href="INTERATOMIC_FORCES.html" xlink:title="Interatomic forces" target="_top">
<polyline fill="none" stroke="black" points="130,-36 12,-36 "/>
<path fill="none" stroke="black" d="M12,-36C6,-36 4.73695e-14,-30 3.78956e-14,-24"/>
<polyline fill="none" stroke="black" points="3.78956e-14,-24 1.89478e-14,-12 "/>
<path fill="none" stroke="black" d="M1.89478e-14,-12C9.4739e-15,-6 6,-1.71631e-14 12,-1.65627e-14"/>
<polyline fill="none" stroke="black" points="12,-1.65627e-14 130,-4.75363e-15 "/>
<path fill="none" stroke="black" d="M130,-4.75363e-15C136,-4.15317e-15 142,-6 142,-12"/>
<polyline fill="none" stroke="black" points="142,-12 142,-24 "/>
<path fill="none" stroke="black" d="M142,-24C142,-30 136,-36 130,-36"/>
<text text-anchor="start" x="8.5" y="-15.2333" font-family="Times Roman,serif" font-size="14.00">Interatomic forces</text>
</a>
</g>
<!-- CHAIN_RULE&#45;&gt;INTERATOMIC_FORCES -->
<g id="edge4" class="edge"><title>CHAIN_RULE&#45;&gt;INTERATOMIC_FORCES</title>
<path fill="none" stroke="black" d="M71,-71.8314C71,-64.131 71,-54.9743 71,-46.4166"/>
<polygon fill="black" stroke="black" points="74.5001,-46.4132 71,-36.4133 67.5001,-46.4133 74.5001,-46.4132"/>
</g>
<!-- DEFINITION_OF_DERIVATIVE -->
<g id="node2" class="node"><title>DEFINITION_OF_DERIVATIVE</title>
<a xlink:href="DEFINITION_OF_DERIVATIVE.html" xlink:title="Differentiation" target="_top">
<polyline fill="none" stroke="black" points="118,-180 24,-180 "/>
<path fill="none" stroke="black" d="M24,-180C18,-180 12,-174 12,-168"/>
<polyline fill="none" stroke="black" points="12,-168 12,-156 "/>
<path fill="none" stroke="black" d="M12,-156C12,-150 18,-144 24,-144"/>
<polyline fill="none" stroke="black" points="24,-144 118,-144 "/>
<path fill="none" stroke="black" d="M118,-144C124,-144 130,-150 130,-156"/>
<polyline fill="none" stroke="black" points="130,-156 130,-168 "/>
<path fill="none" stroke="black" d="M130,-168C130,-174 124,-180 118,-180"/>
<text text-anchor="start" x="20" y="-159.233" font-family="Times Roman,serif" font-size="14.00">Differentiation</text>
</a>
</g>
<!-- DEFINITION_OF_DERIVATIVE&#45;&gt;CHAIN_RULE -->
<g id="edge2" class="edge"><title>DEFINITION_OF_DERIVATIVE&#45;&gt;CHAIN_RULE</title>
<path fill="none" stroke="black" d="M71,-143.831C71,-136.131 71,-126.974 71,-118.417"/>
<polygon fill="black" stroke="black" points="74.5001,-118.413 71,-108.413 67.5001,-118.413 74.5001,-118.413"/>
</g>
</g>
</svg>
