<?xml version="1.0" encoding="UTF-8" standalone="no"?>
<!DOCTYPE svg PUBLIC "-//W3C//DTD SVG 1.1//EN"
 "http://www.w3.org/Graphics/SVG/1.1/DTD/svg11.dtd">
<!-- Generated by graphviz version 2.26.3 (20100126.1600)
 -->
<!-- Title: _anonymous_0 Pages: 1 -->
<svg width="644pt" height="260pt"
 viewBox="0.00 0.00 644.00 260.00" xmlns="http://www.w3.org/2000/svg" xmlns:xlink="http://www.w3.org/1999/xlink">
<g id="graph1" class="graph" transform="scale(1 1) rotate(0) translate(4 256)">
<title>_anonymous_0</title>
<!-- CHAPMAN_KOLMOGOROV_RELATION -->
<g id="node1" class="node"><title>CHAPMAN_KOLMOGOROV_RELATION</title>
<a xlink:href="CHAPMAN_KOLMOGOROV_RELATION.html" xlink:title=" The Chapman Kolmogorov Relation " target="_top">
<polyline fill="none" stroke="blue" stroke-width="2" points="462,-108 218,-108 "/>
<path fill="none" stroke="blue" stroke-width="2" d="M218,-108C212,-108 206,-102 206,-96"/>
<polyline fill="none" stroke="blue" stroke-width="2" points="206,-96 206,-84 "/>
<path fill="none" stroke="blue" stroke-width="2" d="M206,-84C206,-78 212,-72 218,-72"/>
<polyline fill="none" stroke="blue" stroke-width="2" points="218,-72 462,-72 "/>
<path fill="none" stroke="blue" stroke-width="2" d="M462,-72C468,-72 474,-78 474,-84"/>
<polyline fill="none" stroke="blue" stroke-width="2" points="474,-84 474,-96 "/>
<path fill="none" stroke="blue" stroke-width="2" d="M474,-96C474,-102 468,-108 462,-108"/>
<text text-anchor="start" x="214.5" y="-87.2333" font-family="Times Roman,serif" font-size="14.00"> The Chapman Kolmogorov Relation </text>
</a>
</g>
<!-- TRANSIENT_RECURRENT_STATES -->
<g id="node6" class="node"><title>TRANSIENT_RECURRENT_STATES</title>
<a xlink:href="TRANSIENT_RECURRENT_STATES.html" xlink:title=" Transient and recurrent states in Markov chains " target="_top">
<polyline fill="none" stroke="black" points="344,-36 12,-36 "/>
<path fill="none" stroke="black" d="M12,-36C6,-36 1.42109e-13,-30 1.13687e-13,-24"/>
<polyline fill="none" stroke="black" points="1.13687e-13,-24 5.68434e-14,-12 "/>
<path fill="none" stroke="black" d="M5.68434e-14,-12C2.84217e-14,-6 6,-1.75241e-14 12,-1.72846e-14"/>
<polyline fill="none" stroke="black" points="12,-1.72846e-14 344,-4.03173e-15 "/>
<path fill="none" stroke="black" d="M344,-4.03173e-15C350,-3.79222e-15 356,-6 356,-12"/>
<polyline fill="none" stroke="black" points="356,-12 356,-24 "/>
<path fill="none" stroke="black" d="M356,-24C356,-30 350,-36 344,-36"/>
<text text-anchor="start" x="8" y="-15.2333" font-family="Times Roman,serif" font-size="14.00"> Transient and recurrent states in Markov chains </text>
</a>
</g>
<!-- CHAPMAN_KOLMOGOROV_RELATION&#45;&gt;TRANSIENT_RECURRENT_STATES -->
<g id="edge6" class="edge"><title>CHAPMAN_KOLMOGOROV_RELATION&#45;&gt;TRANSIENT_RECURRENT_STATES</title>
<path fill="none" stroke="black" d="M299.121,-71.8314C277.454,-62.2018 250.664,-50.295 227.792,-40.1299"/>
<polygon fill="black" stroke="black" points="229.145,-36.9011 218.585,-36.038 226.302,-43.2978 229.145,-36.9011"/>
</g>
<!-- CONTINUOUS_TIME_MARKOV_CHAIN -->
<g id="node8" class="node"><title>CONTINUOUS_TIME_MARKOV_CHAIN</title>
<a xlink:href="CONTINUOUS_TIME_MARKOV_CHAIN.html" xlink:title=" Markov chains in continuous time " target="_top">
<polyline fill="none" stroke="black" points="620,-36 386,-36 "/>
<path fill="none" stroke="black" d="M386,-36C380,-36 374,-30 374,-24"/>
<polyline fill="none" stroke="black" points="374,-24 374,-12 "/>
<path fill="none" stroke="black" d="M374,-12C374,-6 380,-1.74331e-14 386,-1.71026e-14"/>
<polyline fill="none" stroke="black" points="386,-1.71026e-14 620,-4.21368e-15 "/>
<path fill="none" stroke="black" d="M620,-4.21368e-15C626,-3.8832e-15 632,-6 632,-12"/>
<polyline fill="none" stroke="black" points="632,-12 632,-24 "/>
<path fill="none" stroke="black" d="M632,-24C632,-30 626,-36 620,-36"/>
<text text-anchor="start" x="382.5" y="-15.2333" font-family="Times Roman,serif" font-size="14.00"> Markov chains in continuous time </text>
</a>
</g>
<!-- CHAPMAN_KOLMOGOROV_RELATION&#45;&gt;CONTINUOUS_TIME_MARKOV_CHAIN -->
<g id="edge8" class="edge"><title>CHAPMAN_KOLMOGOROV_RELATION&#45;&gt;CONTINUOUS_TIME_MARKOV_CHAIN</title>
<path fill="none" stroke="black" d="M381.132,-71.8314C402.932,-62.2018 429.888,-50.295 452.9,-40.1299"/>
<polygon fill="black" stroke="black" points="454.431,-43.2802 462.164,-36.038 451.602,-36.877 454.431,-43.2802"/>
</g>
<!-- TRANSITION_MATRIX_OF_MARKOV_CHAIN -->
<g id="node2" class="node"><title>TRANSITION_MATRIX_OF_MARKOV_CHAIN</title>
<a xlink:href="TRANSITION_MATRIX_OF_MARKOV_CHAIN.html" xlink:title=" Markovian transition matrix " target="_top">
<polyline fill="none" stroke="black" points="331,-252 137,-252 "/>
<path fill="none" stroke="black" d="M137,-252C131,-252 125,-246 125,-240"/>
<polyline fill="none" stroke="black" points="125,-240 125,-228 "/>
<path fill="none" stroke="black" d="M125,-228C125,-222 131,-216 137,-216"/>
<polyline fill="none" stroke="black" points="137,-216 331,-216 "/>
<path fill="none" stroke="black" d="M331,-216C337,-216 343,-222 343,-228"/>
<polyline fill="none" stroke="black" points="343,-228 343,-240 "/>
<path fill="none" stroke="black" d="M343,-240C343,-246 337,-252 331,-252"/>
<text text-anchor="start" x="133" y="-231.233" font-family="Times Roman,serif" font-size="14.00"> Markovian transition matrix </text>
</a>
</g>
<!-- TRANSITION_MATRIX_OF_MARKOV_CHAIN&#45;&gt;CHAPMAN_KOLMOGOROV_RELATION -->
<g id="edge2" class="edge"><title>TRANSITION_MATRIX_OF_MARKOV_CHAIN&#45;&gt;CHAPMAN_KOLMOGOROV_RELATION</title>
<path fill="none" stroke="black" d="M186.54,-215.84C171.111,-207.406 155.728,-195.691 147,-180 139.222,-166.018 137.33,-156.747 147,-144 157.476,-130.191 189.031,-118.951 223.671,-110.373"/>
<polygon fill="black" stroke="black" points="224.595,-113.751 233.508,-108.024 222.969,-106.942 224.595,-113.751"/>
</g>
<!-- MATRIX_POWERS -->
<g id="node10" class="node"><title>MATRIX_POWERS</title>
<a xlink:href="MATRIX_POWERS.html" xlink:title=" Taking positive integer powers of a square matrix " target="_top">
<polyline fill="none" stroke="black" points="512,-180 168,-180 "/>
<path fill="none" stroke="black" d="M168,-180C162,-180 156,-174 156,-168"/>
<polyline fill="none" stroke="black" points="156,-168 156,-156 "/>
<path fill="none" stroke="black" d="M156,-156C156,-150 162,-144 168,-144"/>
<polyline fill="none" stroke="black" points="168,-144 512,-144 "/>
<path fill="none" stroke="black" d="M512,-144C518,-144 524,-150 524,-156"/>
<polyline fill="none" stroke="black" points="524,-156 524,-168 "/>
<path fill="none" stroke="black" d="M524,-168C524,-174 518,-180 512,-180"/>
<text text-anchor="start" x="164.5" y="-159.233" font-family="Times Roman,serif" font-size="14.00"> Taking positive integer powers of a square matrix </text>
</a>
</g>
<!-- TRANSITION_MATRIX_OF_MARKOV_CHAIN&#45;&gt;MATRIX_POWERS -->
<!-- MATRIX_MULTIPLICATION -->
<g id="node4" class="node"><title>MATRIX_MULTIPLICATION</title>
<a xlink:href="MATRIX_MULTIPLICATION.html" xlink:title=" Matrix multiplication " target="_top">
<polyline fill="none" stroke="black" points="624,-252 480,-252 "/>
<path fill="none" stroke="black" d="M480,-252C474,-252 468,-246 468,-240"/>
<polyline fill="none" stroke="black" points="468,-240 468,-228 "/>
<path fill="none" stroke="black" d="M468,-228C468,-222 474,-216 480,-216"/>
<polyline fill="none" stroke="black" points="480,-216 624,-216 "/>
<path fill="none" stroke="black" d="M624,-216C630,-216 636,-222 636,-228"/>
<polyline fill="none" stroke="black" points="636,-228 636,-240 "/>
<path fill="none" stroke="black" d="M636,-240C636,-246 630,-252 624,-252"/>
<text text-anchor="start" x="476.5" y="-231.233" font-family="Times Roman,serif" font-size="14.00"> Matrix multiplication </text>
</a>
</g>
<!-- MATRIX_MULTIPLICATION&#45;&gt;CHAPMAN_KOLMOGOROV_RELATION -->
<g id="edge4" class="edge"><title>MATRIX_MULTIPLICATION&#45;&gt;CHAPMAN_KOLMOGOROV_RELATION</title>
<path fill="none" stroke="black" d="M553.32,-215.985C553.766,-195.829 551.237,-163.458 533,-144 520.55,-130.717 486.028,-119.27 449.559,-110.378"/>
<polygon fill="black" stroke="black" points="450.288,-106.953 439.75,-108.055 448.675,-113.765 450.288,-106.953"/>
</g>
<!-- MATRIX_POWERS&#45;&gt;CHAPMAN_KOLMOGOROV_RELATION -->
<g id="edge10" class="edge"><title>MATRIX_POWERS&#45;&gt;CHAPMAN_KOLMOGOROV_RELATION</title>
<path fill="none" stroke="black" d="M340,-143.831C340,-136.131 340,-126.974 340,-118.417"/>
<polygon fill="black" stroke="black" points="343.5,-118.413 340,-108.413 336.5,-118.413 343.5,-118.413"/>
</g>
</g>
</svg>
