<?xml version="1.0" encoding="UTF-8" standalone="no"?>
<!DOCTYPE svg PUBLIC "-//W3C//DTD SVG 1.1//EN"
 "http://www.w3.org/Graphics/SVG/1.1/DTD/svg11.dtd">
<!-- Generated by graphviz version 2.26.3 (20100126.1600)
 -->
<!-- Title: _anonymous_0 Pages: 1 -->
<svg width="622pt" height="260pt"
 viewBox="0.00 0.00 622.00 260.00" xmlns="http://www.w3.org/2000/svg" xmlns:xlink="http://www.w3.org/1999/xlink">
<g id="graph1" class="graph" transform="scale(1 1) rotate(0) translate(4 256)">
<title>_anonymous_0</title>
<!-- CHAPMAN_KOLMOGOROV_RELATION -->
<g id="node1" class="node"><title>CHAPMAN_KOLMOGOROV_RELATION</title>
<a xlink:href="CHAPMAN_KOLMOGOROV_RELATION.html" xlink:title="The Chapman Kolmogorov Relation" target="_top">
<polyline fill="none" stroke="blue" stroke-width="2" points="399,-108 165,-108 "/>
<path fill="none" stroke="blue" stroke-width="2" d="M165,-108C159,-108 153,-102 153,-96"/>
<polyline fill="none" stroke="blue" stroke-width="2" points="153,-96 153,-84 "/>
<path fill="none" stroke="blue" stroke-width="2" d="M153,-84C153,-78 159,-72 165,-72"/>
<polyline fill="none" stroke="blue" stroke-width="2" points="165,-72 399,-72 "/>
<path fill="none" stroke="blue" stroke-width="2" d="M399,-72C405,-72 411,-78 411,-84"/>
<polyline fill="none" stroke="blue" stroke-width="2" points="411,-84 411,-96 "/>
<path fill="none" stroke="blue" stroke-width="2" d="M411,-96C411,-102 405,-108 399,-108"/>
<text text-anchor="start" x="161" y="-87.2333" font-family="Times Roman,serif" font-size="14.00">The Chapman Kolmogorov Relation</text>
</a>
</g>
<!-- CONTINUOUS_TIME_MARKOV_CHAIN -->
<g id="node2" class="node"><title>CONTINUOUS_TIME_MARKOV_CHAIN</title>
<a xlink:href="CONTINUOUS_TIME_MARKOV_CHAIN.html" xlink:title="Markov chains in continuous time" target="_top">
<polyline fill="none" stroke="black" points="236,-36 12,-36 "/>
<path fill="none" stroke="black" d="M12,-36C6,-36 6.86858e-14,-30 5.21065e-14,-24"/>
<polyline fill="none" stroke="black" points="5.21065e-14,-24 1.89478e-14,-12 "/>
<path fill="none" stroke="black" d="M1.89478e-14,-12C2.36848e-15,-6 6,-1.74198e-14 12,-1.70759e-14"/>
<polyline fill="none" stroke="black" points="12,-1.70759e-14 236,-4.24034e-15 "/>
<path fill="none" stroke="black" d="M236,-4.24034e-15C242,-3.89652e-15 248,-6 248,-12"/>
<polyline fill="none" stroke="black" points="248,-12 248,-24 "/>
<path fill="none" stroke="black" d="M248,-24C248,-30 242,-36 236,-36"/>
<text text-anchor="start" x="8" y="-15.2333" font-family="Times Roman,serif" font-size="14.00">Markov chains in continuous time</text>
</a>
</g>
<!-- CHAPMAN_KOLMOGOROV_RELATION&#45;&gt;CONTINUOUS_TIME_MARKOV_CHAIN -->
<g id="edge2" class="edge"><title>CHAPMAN_KOLMOGOROV_RELATION&#45;&gt;CONTINUOUS_TIME_MARKOV_CHAIN</title>
<path fill="none" stroke="black" d="M242.13,-71.8314C221.092,-62.2446 195.102,-50.4008 172.86,-40.2655"/>
<polygon fill="black" stroke="black" points="174.134,-36.9999 163.583,-36.038 171.232,-43.3697 174.134,-36.9999"/>
</g>
<!-- TRANSIENT_RECURRENT_STATES -->
<g id="node6" class="node"><title>TRANSIENT_RECURRENT_STATES</title>
<a xlink:href="TRANSIENT_RECURRENT_STATES.html" xlink:title="Transient and recurrent states in Markov chains" target="_top">
<polyline fill="none" stroke="black" points="602,-36 278,-36 "/>
<path fill="none" stroke="black" d="M278,-36C272,-36 266,-30 266,-24"/>
<polyline fill="none" stroke="black" points="266,-24 266,-12 "/>
<path fill="none" stroke="black" d="M266,-12C266,-6 272,-1.75186e-14 278,-1.72735e-14"/>
<polyline fill="none" stroke="black" points="278,-1.72735e-14 602,-4.04274e-15 "/>
<path fill="none" stroke="black" d="M602,-4.04274e-15C608,-3.79773e-15 614,-6 614,-12"/>
<polyline fill="none" stroke="black" points="614,-12 614,-24 "/>
<path fill="none" stroke="black" d="M614,-24C614,-30 608,-36 602,-36"/>
<text text-anchor="start" x="274.5" y="-15.2333" font-family="Times Roman,serif" font-size="14.00">Transient and recurrent states in Markov chains</text>
</a>
</g>
<!-- CHAPMAN_KOLMOGOROV_RELATION&#45;&gt;TRANSIENT_RECURRENT_STATES -->
<g id="edge6" class="edge"><title>CHAPMAN_KOLMOGOROV_RELATION&#45;&gt;TRANSIENT_RECURRENT_STATES</title>
<path fill="none" stroke="black" d="M321.87,-71.8314C342.908,-62.2446 368.898,-50.4008 391.14,-40.2655"/>
<polygon fill="black" stroke="black" points="392.768,-43.3697 400.417,-36.038 389.866,-36.9999 392.768,-43.3697"/>
</g>
<!-- MATRIX_MULTIPLICATION -->
<g id="node4" class="node"><title>MATRIX_MULTIPLICATION</title>
<a xlink:href="MATRIX_MULTIPLICATION.html" xlink:title="Matrix multiplication" target="_top">
<polyline fill="none" stroke="black" points="216,-252 82,-252 "/>
<path fill="none" stroke="black" d="M82,-252C76,-252 70,-246 70,-240"/>
<polyline fill="none" stroke="black" points="70,-240 70,-228 "/>
<path fill="none" stroke="black" d="M70,-228C70,-222 76,-216 82,-216"/>
<polyline fill="none" stroke="black" points="82,-216 216,-216 "/>
<path fill="none" stroke="black" d="M216,-216C222,-216 228,-222 228,-228"/>
<polyline fill="none" stroke="black" points="228,-228 228,-240 "/>
<path fill="none" stroke="black" d="M228,-240C228,-246 222,-252 216,-252"/>
<text text-anchor="start" x="78" y="-231.233" font-family="Times Roman,serif" font-size="14.00">Matrix multiplication</text>
</a>
</g>
<!-- MATRIX_MULTIPLICATION&#45;&gt;CHAPMAN_KOLMOGOROV_RELATION -->
<g id="edge4" class="edge"><title>MATRIX_MULTIPLICATION&#45;&gt;CHAPMAN_KOLMOGOROV_RELATION</title>
<path fill="none" stroke="black" d="M148.307,-215.808C148.5,-196.092 151.674,-164.682 168,-144 178.662,-130.493 193.52,-120.19 208.992,-112.397"/>
<polygon fill="black" stroke="black" points="210.586,-115.515 218.147,-108.093 207.608,-109.18 210.586,-115.515"/>
</g>
<!-- TRANSITION_MATRIX_OF_MARKOV_CHAIN -->
<g id="node10" class="node"><title>TRANSITION_MATRIX_OF_MARKOV_CHAIN</title>
<a xlink:href="TRANSITION_MATRIX_OF_MARKOV_CHAIN.html" xlink:title="Markovian transition matrix" target="_top">
<polyline fill="none" stroke="black" points="375,-180 189,-180 "/>
<path fill="none" stroke="black" d="M189,-180C183,-180 177,-174 177,-168"/>
<polyline fill="none" stroke="black" points="177,-168 177,-156 "/>
<path fill="none" stroke="black" d="M177,-156C177,-150 183,-144 189,-144"/>
<polyline fill="none" stroke="black" points="189,-144 375,-144 "/>
<path fill="none" stroke="black" d="M375,-144C381,-144 387,-150 387,-156"/>
<polyline fill="none" stroke="black" points="387,-156 387,-168 "/>
<path fill="none" stroke="black" d="M387,-168C387,-174 381,-180 375,-180"/>
<text text-anchor="start" x="185.5" y="-159.233" font-family="Times Roman,serif" font-size="14.00">Markovian transition matrix</text>
</a>
</g>
<!-- MATRIX_MULTIPLICATION&#45;&gt;TRANSITION_MATRIX_OF_MARKOV_CHAIN -->
<!-- MATRIX_POWERS -->
<g id="node8" class="node"><title>MATRIX_POWERS</title>
<a xlink:href="MATRIX_POWERS.html" xlink:title="Taking positive integer powers of a square matrix" target="_top">
<polyline fill="none" stroke="black" points="592,-252 258,-252 "/>
<path fill="none" stroke="black" d="M258,-252C252,-252 246,-246 246,-240"/>
<polyline fill="none" stroke="black" points="246,-240 246,-228 "/>
<path fill="none" stroke="black" d="M246,-228C246,-222 252,-216 258,-216"/>
<polyline fill="none" stroke="black" points="258,-216 592,-216 "/>
<path fill="none" stroke="black" d="M592,-216C598,-216 604,-222 604,-228"/>
<polyline fill="none" stroke="black" points="604,-228 604,-240 "/>
<path fill="none" stroke="black" d="M604,-240C604,-246 598,-252 592,-252"/>
<text text-anchor="start" x="254" y="-231.233" font-family="Times Roman,serif" font-size="14.00">Taking positive integer powers of a square matrix</text>
</a>
</g>
<!-- MATRIX_POWERS&#45;&gt;CHAPMAN_KOLMOGOROV_RELATION -->
<g id="edge8" class="edge"><title>MATRIX_POWERS&#45;&gt;CHAPMAN_KOLMOGOROV_RELATION</title>
<path fill="none" stroke="black" d="M423.383,-215.687C420.746,-195.864 413.862,-164.363 396,-144 384.23,-130.582 368.399,-120.234 352.286,-112.362"/>
<polygon fill="black" stroke="black" points="353.343,-108.996 342.795,-108.008 350.425,-115.359 353.343,-108.996"/>
</g>
<!-- TRANSITION_MATRIX_OF_MARKOV_CHAIN&#45;&gt;CHAPMAN_KOLMOGOROV_RELATION -->
<g id="edge10" class="edge"><title>TRANSITION_MATRIX_OF_MARKOV_CHAIN&#45;&gt;CHAPMAN_KOLMOGOROV_RELATION</title>
<path fill="none" stroke="black" d="M282,-143.831C282,-136.131 282,-126.974 282,-118.417"/>
<polygon fill="black" stroke="black" points="285.5,-118.413 282,-108.413 278.5,-118.413 285.5,-118.413"/>
</g>
</g>
</svg>
