<?xml version="1.0" encoding="UTF-8" standalone="no"?>
<!DOCTYPE svg PUBLIC "-//W3C//DTD SVG 1.1//EN"
 "http://www.w3.org/Graphics/SVG/1.1/DTD/svg11.dtd">
<!-- Generated by graphviz version 2.36.0 (20140111.2315)
 -->
<!-- Title: %3 Pages: 1 -->
<svg width="549pt" height="260pt"
 viewBox="0.00 0.00 549.00 260.00" xmlns="http://www.w3.org/2000/svg" xmlns:xlink="http://www.w3.org/1999/xlink">
<g id="graph0" class="graph" transform="scale(1 1) rotate(0) translate(4 256)">
<title>%3</title>
<!-- CHAPMAN_KOLMOGOROV_RELATION -->
<g id="node1" class="node"><title>CHAPMAN_KOLMOGOROV_RELATION</title>
<g id="a_node1"><a xlink:href="CHAPMAN_KOLMOGOROV_RELATION.html" xlink:title=" The Chapman Kolmogorov Relation " target="_top">
<path fill="none" stroke="blue" stroke-width="2" d="M365.5,-108C365.5,-108 166.5,-108 166.5,-108 160.5,-108 154.5,-102 154.5,-96 154.5,-96 154.5,-84 154.5,-84 154.5,-78 160.5,-72 166.5,-72 166.5,-72 365.5,-72 365.5,-72 371.5,-72 377.5,-78 377.5,-84 377.5,-84 377.5,-96 377.5,-96 377.5,-102 371.5,-108 365.5,-108"/>
<text text-anchor="start" x="162" y="-86.3" font-family="Times,serif" font-size="14.00"> The Chapman Kolmogorov Relation </text>
</a>
</g>
</g>
<!-- CONTINUOUS_TIME_MARKOV_CHAIN -->
<g id="node4" class="node"><title>CONTINUOUS_TIME_MARKOV_CHAIN</title>
<g id="a_node4"><a xlink:href="CONTINUOUS_TIME_MARKOV_CHAIN.html" xlink:title=" Markov chains in continuous time " target="_top">
<path fill="none" stroke="black" d="M226.5,-36C226.5,-36 39.5,-36 39.5,-36 33.5,-36 27.5,-30 27.5,-24 27.5,-24 27.5,-12 27.5,-12 27.5,-6 33.5,-0 39.5,-0 39.5,-0 226.5,-0 226.5,-0 232.5,-0 238.5,-6 238.5,-12 238.5,-12 238.5,-24 238.5,-24 238.5,-30 232.5,-36 226.5,-36"/>
<text text-anchor="start" x="35" y="-14.3" font-family="Times,serif" font-size="14.00"> Markov chains in continuous time </text>
</a>
</g>
</g>
<!-- CHAPMAN_KOLMOGOROV_RELATION&#45;&gt;CONTINUOUS_TIME_MARKOV_CHAIN -->
<g id="edge3" class="edge"><title>CHAPMAN_KOLMOGOROV_RELATION&#45;&gt;CONTINUOUS_TIME_MARKOV_CHAIN</title>
<path fill="none" stroke="black" d="M233.465,-71.8761C215.753,-62.5541 193.647,-50.9194 174.684,-40.939"/>
<polygon fill="black" stroke="black" points="176.14,-37.7501 165.661,-36.1898 172.88,-43.9445 176.14,-37.7501"/>
</g>
<!-- TRANSIENT_RECURRENT_STATES -->
<g id="node5" class="node"><title>TRANSIENT_RECURRENT_STATES</title>
<g id="a_node5"><a xlink:href="TRANSIENT_RECURRENT_STATES.html" xlink:title=" Transient and recurrent states in Markov chains " target="_top">
<path fill="none" stroke="black" d="M529,-36C529,-36 269,-36 269,-36 263,-36 257,-30 257,-24 257,-24 257,-12 257,-12 257,-6 263,-0 269,-0 269,-0 529,-0 529,-0 535,-0 541,-6 541,-12 541,-12 541,-24 541,-24 541,-30 535,-36 529,-36"/>
<text text-anchor="start" x="265" y="-14.3" font-family="Times,serif" font-size="14.00"> Transient and recurrent states in Markov chains </text>
</a>
</g>
</g>
<!-- CHAPMAN_KOLMOGOROV_RELATION&#45;&gt;TRANSIENT_RECURRENT_STATES -->
<g id="edge4" class="edge"><title>CHAPMAN_KOLMOGOROV_RELATION&#45;&gt;TRANSIENT_RECURRENT_STATES</title>
<path fill="none" stroke="black" d="M298.535,-71.8761C316.247,-62.5541 338.353,-50.9194 357.316,-40.939"/>
<polygon fill="black" stroke="black" points="359.12,-43.9445 366.339,-36.1898 355.86,-37.7501 359.12,-43.9445"/>
</g>
<!-- MATRIX_POWERS -->
<g id="node2" class="node"><title>MATRIX_POWERS</title>
<g id="a_node2"><a xlink:href="MATRIX_POWERS.html" xlink:title=" Taking positive integer powers of a square matrix " target="_top">
<path fill="none" stroke="black" d="M284,-252C284,-252 12,-252 12,-252 6,-252 0,-246 0,-240 0,-240 0,-228 0,-228 0,-222 6,-216 12,-216 12,-216 284,-216 284,-216 290,-216 296,-222 296,-228 296,-228 296,-240 296,-240 296,-246 290,-252 284,-252"/>
<text text-anchor="start" x="8" y="-230.3" font-family="Times,serif" font-size="14.00"> Taking positive integer powers of a square matrix </text>
</a>
</g>
</g>
<!-- MATRIX_POWERS&#45;&gt;CHAPMAN_KOLMOGOROV_RELATION -->
<g id="edge1" class="edge"><title>MATRIX_POWERS&#45;&gt;CHAPMAN_KOLMOGOROV_RELATION</title>
<path fill="none" stroke="black" d="M147.542,-215.855C147.888,-196.537 151.142,-165.088 167,-144 176.946,-130.774 191.181,-120.492 205.766,-112.656"/>
<polygon fill="black" stroke="black" points="207.494,-115.705 214.858,-108.088 204.351,-109.45 207.494,-115.705"/>
</g>
<!-- TRANSITION_MATRIX_OF_MARKOV_CHAIN -->
<g id="node6" class="node"><title>TRANSITION_MATRIX_OF_MARKOV_CHAIN</title>
<g id="a_node6"><a xlink:href="TRANSITION_MATRIX_OF_MARKOV_CHAIN.html" xlink:title=" Markovian transition matrix " target="_top">
<path fill="none" stroke="black" d="M343.25,-180C343.25,-180 188.75,-180 188.75,-180 182.75,-180 176.75,-174 176.75,-168 176.75,-168 176.75,-156 176.75,-156 176.75,-150 182.75,-144 188.75,-144 188.75,-144 343.25,-144 343.25,-144 349.25,-144 355.25,-150 355.25,-156 355.25,-156 355.25,-168 355.25,-168 355.25,-174 349.25,-180 343.25,-180"/>
<text text-anchor="start" x="184.5" y="-158.3" font-family="Times,serif" font-size="14.00"> Markovian transition matrix </text>
</a>
</g>
</g>
<!-- MATRIX_POWERS&#45;&gt;TRANSITION_MATRIX_OF_MARKOV_CHAIN -->
<!-- MATRIX_MULTIPLICATION -->
<g id="node3" class="node"><title>MATRIX_MULTIPLICATION</title>
<g id="a_node3"><a xlink:href="MATRIX_MULTIPLICATION.html" xlink:title=" Matrix multiplication " target="_top">
<path fill="none" stroke="black" d="M444,-252C444,-252 326,-252 326,-252 320,-252 314,-246 314,-240 314,-240 314,-228 314,-228 314,-222 320,-216 326,-216 326,-216 444,-216 444,-216 450,-216 456,-222 456,-228 456,-228 456,-240 456,-240 456,-246 450,-252 444,-252"/>
<text text-anchor="start" x="322" y="-230.3" font-family="Times,serif" font-size="14.00"> Matrix multiplication </text>
</a>
</g>
</g>
<!-- MATRIX_MULTIPLICATION&#45;&gt;CHAPMAN_KOLMOGOROV_RELATION -->
<g id="edge2" class="edge"><title>MATRIX_MULTIPLICATION&#45;&gt;CHAPMAN_KOLMOGOROV_RELATION</title>
<path fill="none" stroke="black" d="M384.994,-215.842C384.142,-196.512 380.116,-165.052 364,-144 353.922,-130.836 339.607,-120.546 325.022,-112.68"/>
<polygon fill="black" stroke="black" points="326.445,-109.478 315.941,-108.092 323.289,-115.726 326.445,-109.478"/>
</g>
<!-- TRANSITION_MATRIX_OF_MARKOV_CHAIN&#45;&gt;CHAPMAN_KOLMOGOROV_RELATION -->
<g id="edge5" class="edge"><title>TRANSITION_MATRIX_OF_MARKOV_CHAIN&#45;&gt;CHAPMAN_KOLMOGOROV_RELATION</title>
<path fill="none" stroke="black" d="M266,-143.697C266,-135.983 266,-126.712 266,-118.112"/>
<polygon fill="black" stroke="black" points="269.5,-118.104 266,-108.104 262.5,-118.104 269.5,-118.104"/>
</g>
</g>
</svg>
