<?xml version="1.0" encoding="UTF-8" standalone="no"?>
<!DOCTYPE svg PUBLIC "-//W3C//DTD SVG 1.1//EN"
 "http://www.w3.org/Graphics/SVG/1.1/DTD/svg11.dtd">
<!-- Generated by graphviz version 2.36.0 (20140111.2315)
 -->
<!-- Title: %3 Pages: 1 -->
<svg width="548pt" height="260pt"
 viewBox="0.00 0.00 548.00 260.00" xmlns="http://www.w3.org/2000/svg" xmlns:xlink="http://www.w3.org/1999/xlink">
<g id="graph0" class="graph" transform="scale(1 1) rotate(0) translate(4 256)">
<title>%3</title>
<!-- CHAPMAN_KOLMOGOROV_RELATION -->
<g id="node1" class="node"><title>CHAPMAN_KOLMOGOROV_RELATION</title>
<g id="a_node1"><a xlink:href="CHAPMAN_KOLMOGOROV_RELATION.html" xlink:title=" The Chapman Kolmogorov Relation " target="_top">
<path fill="none" stroke="blue" stroke-width="2" d="M374.5,-108C374.5,-108 175.5,-108 175.5,-108 169.5,-108 163.5,-102 163.5,-96 163.5,-96 163.5,-84 163.5,-84 163.5,-78 169.5,-72 175.5,-72 175.5,-72 374.5,-72 374.5,-72 380.5,-72 386.5,-78 386.5,-84 386.5,-84 386.5,-96 386.5,-96 386.5,-102 380.5,-108 374.5,-108"/>
<text text-anchor="start" x="171" y="-86.3" font-family="Times,serif" font-size="14.00"> The Chapman Kolmogorov Relation </text>
</a>
</g>
</g>
<!-- TRANSIENT_RECURRENT_STATES -->
<g id="node2" class="node"><title>TRANSIENT_RECURRENT_STATES</title>
<g id="a_node2"><a xlink:href="TRANSIENT_RECURRENT_STATES.html" xlink:title=" Transient and recurrent states in Markov chains " target="_top">
<path fill="none" stroke="black" d="M272,-36C272,-36 12,-36 12,-36 6,-36 0,-30 0,-24 0,-24 0,-12 0,-12 0,-6 6,-0 12,-0 12,-0 272,-0 272,-0 278,-0 284,-6 284,-12 284,-12 284,-24 284,-24 284,-30 278,-36 272,-36"/>
<text text-anchor="start" x="8" y="-14.3" font-family="Times,serif" font-size="14.00"> Transient and recurrent states in Markov chains </text>
</a>
</g>
</g>
<!-- CHAPMAN_KOLMOGOROV_RELATION&#45;&gt;TRANSIENT_RECURRENT_STATES -->
<g id="edge1" class="edge"><title>CHAPMAN_KOLMOGOROV_RELATION&#45;&gt;TRANSIENT_RECURRENT_STATES</title>
<path fill="none" stroke="black" d="M242.465,-71.8761C224.753,-62.5541 202.647,-50.9194 183.684,-40.939"/>
<polygon fill="black" stroke="black" points="185.14,-37.7501 174.661,-36.1898 181.88,-43.9445 185.14,-37.7501"/>
</g>
<!-- CONTINUOUS_TIME_MARKOV_CHAIN -->
<g id="node4" class="node"><title>CONTINUOUS_TIME_MARKOV_CHAIN</title>
<g id="a_node4"><a xlink:href="CONTINUOUS_TIME_MARKOV_CHAIN.html" xlink:title=" Markov chains in continuous time " target="_top">
<path fill="none" stroke="black" d="M501.5,-36C501.5,-36 314.5,-36 314.5,-36 308.5,-36 302.5,-30 302.5,-24 302.5,-24 302.5,-12 302.5,-12 302.5,-6 308.5,-0 314.5,-0 314.5,-0 501.5,-0 501.5,-0 507.5,-0 513.5,-6 513.5,-12 513.5,-12 513.5,-24 513.5,-24 513.5,-30 507.5,-36 501.5,-36"/>
<text text-anchor="start" x="310" y="-14.3" font-family="Times,serif" font-size="14.00"> Markov chains in continuous time </text>
</a>
</g>
</g>
<!-- CHAPMAN_KOLMOGOROV_RELATION&#45;&gt;CONTINUOUS_TIME_MARKOV_CHAIN -->
<g id="edge3" class="edge"><title>CHAPMAN_KOLMOGOROV_RELATION&#45;&gt;CONTINUOUS_TIME_MARKOV_CHAIN</title>
<path fill="none" stroke="black" d="M307.535,-71.8761C325.247,-62.5541 347.353,-50.9194 366.316,-40.939"/>
<polygon fill="black" stroke="black" points="368.12,-43.9445 375.339,-36.1898 364.86,-37.7501 368.12,-43.9445"/>
</g>
<!-- MATRIX_MULTIPLICATION -->
<g id="node3" class="node"><title>MATRIX_MULTIPLICATION</title>
<g id="a_node3"><a xlink:href="MATRIX_MULTIPLICATION.html" xlink:title=" Matrix multiplication " target="_top">
<path fill="none" stroke="black" d="M244,-252C244,-252 126,-252 126,-252 120,-252 114,-246 114,-240 114,-240 114,-228 114,-228 114,-222 120,-216 126,-216 126,-216 244,-216 244,-216 250,-216 256,-222 256,-228 256,-228 256,-240 256,-240 256,-246 250,-252 244,-252"/>
<text text-anchor="start" x="122" y="-230.3" font-family="Times,serif" font-size="14.00"> Matrix multiplication </text>
</a>
</g>
</g>
<!-- MATRIX_MULTIPLICATION&#45;&gt;CHAPMAN_KOLMOGOROV_RELATION -->
<g id="edge2" class="edge"><title>MATRIX_MULTIPLICATION&#45;&gt;CHAPMAN_KOLMOGOROV_RELATION</title>
<path fill="none" stroke="black" d="M152.473,-215.984C139.211,-207.18 125.301,-195.085 118,-180 111.029,-165.598 108.669,-156.998 118,-144 127.957,-130.13 141.736,-119.842 157.03,-112.221"/>
<polygon fill="black" stroke="black" points="158.55,-115.374 166.192,-108.035 155.642,-109.007 158.55,-115.374"/>
</g>
<!-- MATRIX_POWERS -->
<g id="node6" class="node"><title>MATRIX_POWERS</title>
<g id="a_node6"><a xlink:href="MATRIX_POWERS.html" xlink:title=" Taking positive integer powers of a square matrix " target="_top">
<path fill="none" stroke="black" d="M411,-180C411,-180 139,-180 139,-180 133,-180 127,-174 127,-168 127,-168 127,-156 127,-156 127,-150 133,-144 139,-144 139,-144 411,-144 411,-144 417,-144 423,-150 423,-156 423,-156 423,-168 423,-168 423,-174 417,-180 411,-180"/>
<text text-anchor="start" x="135" y="-158.3" font-family="Times,serif" font-size="14.00"> Taking positive integer powers of a square matrix </text>
</a>
</g>
</g>
<!-- MATRIX_MULTIPLICATION&#45;&gt;MATRIX_POWERS -->
<!-- TRANSITION_MATRIX_OF_MARKOV_CHAIN -->
<g id="node5" class="node"><title>TRANSITION_MATRIX_OF_MARKOV_CHAIN</title>
<g id="a_node5"><a xlink:href="TRANSITION_MATRIX_OF_MARKOV_CHAIN.html" xlink:title=" Markovian transition matrix " target="_top">
<path fill="none" stroke="black" d="M528.25,-252C528.25,-252 373.75,-252 373.75,-252 367.75,-252 361.75,-246 361.75,-240 361.75,-240 361.75,-228 361.75,-228 361.75,-222 367.75,-216 373.75,-216 373.75,-216 528.25,-216 528.25,-216 534.25,-216 540.25,-222 540.25,-228 540.25,-228 540.25,-240 540.25,-240 540.25,-246 534.25,-252 528.25,-252"/>
<text text-anchor="start" x="369.5" y="-230.3" font-family="Times,serif" font-size="14.00"> Markovian transition matrix </text>
</a>
</g>
</g>
<!-- TRANSITION_MATRIX_OF_MARKOV_CHAIN&#45;&gt;CHAPMAN_KOLMOGOROV_RELATION -->
<g id="edge4" class="edge"><title>TRANSITION_MATRIX_OF_MARKOV_CHAIN&#45;&gt;CHAPMAN_KOLMOGOROV_RELATION</title>
<path fill="none" stroke="black" d="M452.067,-215.706C452.322,-195.954 449.657,-163.819 432,-144 419.37,-129.824 402.818,-119.435 385.206,-111.822"/>
<polygon fill="black" stroke="black" points="386.498,-108.569 375.914,-108.089 383.888,-115.065 386.498,-108.569"/>
</g>
<!-- MATRIX_POWERS&#45;&gt;CHAPMAN_KOLMOGOROV_RELATION -->
<g id="edge5" class="edge"><title>MATRIX_POWERS&#45;&gt;CHAPMAN_KOLMOGOROV_RELATION</title>
<path fill="none" stroke="black" d="M275,-143.697C275,-135.983 275,-126.712 275,-118.112"/>
<polygon fill="black" stroke="black" points="278.5,-118.104 275,-108.104 271.5,-118.104 278.5,-118.104"/>
</g>
</g>
</svg>
