<?xml version="1.0" encoding="UTF-8" standalone="no"?>
<!DOCTYPE svg PUBLIC "-//W3C//DTD SVG 1.1//EN"
 "http://www.w3.org/Graphics/SVG/1.1/DTD/svg11.dtd">
<!-- Generated by graphviz version 2.28.0 (20110509.1545)
 -->
<!-- Title: _anonymous_0 Pages: 1 -->
<svg width="457pt" height="260pt"
 viewBox="0.00 0.00 457.00 260.00" xmlns="http://www.w3.org/2000/svg" xmlns:xlink="http://www.w3.org/1999/xlink">
<g id="graph1" class="graph" transform="scale(1 1) rotate(0) translate(4 256)">
<title>_anonymous_0</title>
<!-- CHAPMAN_KOLMOGOROV_RELATION -->
<g id="node1" class="node"><title>CHAPMAN_KOLMOGOROV_RELATION</title>
<a xlink:href="CHAPMAN_KOLMOGOROV_RELATION.html" xlink:title="The Chapman Kolmogorov Relation" target="_top">
<polyline fill="none" stroke="blue" stroke-width="2" points="281.25,-108 84.75,-108 "/>
<path fill="none" stroke="blue" stroke-width="2" d="M84.75,-108C78.75,-108 72.75,-102 72.75,-96"/>
<polyline fill="none" stroke="blue" stroke-width="2" points="72.75,-96 72.75,-84 "/>
<path fill="none" stroke="blue" stroke-width="2" d="M72.75,-84C72.75,-78 78.75,-72 84.75,-72"/>
<polyline fill="none" stroke="blue" stroke-width="2" points="84.75,-72 281.25,-72 "/>
<path fill="none" stroke="blue" stroke-width="2" d="M281.25,-72C287.25,-72 293.25,-78 293.25,-84"/>
<polyline fill="none" stroke="blue" stroke-width="2" points="293.25,-84 293.25,-96 "/>
<path fill="none" stroke="blue" stroke-width="2" d="M293.25,-96C293.25,-102 287.25,-108 281.25,-108"/>
<text text-anchor="start" x="81" y="-84.5" font-family="Times,serif" font-size="14.00">The Chapman Kolmogorov Relation</text>
</a>
</g>
<!-- CONTINUOUS_TIME_MARKOV_CHAIN -->
<g id="node2" class="node"><title>CONTINUOUS_TIME_MARKOV_CHAIN</title>
<a xlink:href="CONTINUOUS_TIME_MARKOV_CHAIN.html" xlink:title="TITLE:" target="_top">
<polyline fill="none" stroke="black" points="106.25,-36 71.75,-36 "/>
<path fill="none" stroke="black" d="M71.75,-36C65.75,-36 59.75,-30 59.75,-24"/>
<polyline fill="none" stroke="black" points="59.75,-24 59.75,-12 "/>
<path fill="none" stroke="black" d="M59.75,-12C59.75,-6 65.75,-0 71.75,-0"/>
<polyline fill="none" stroke="black" points="71.75,-0 106.25,-0 "/>
<path fill="none" stroke="black" d="M106.25,-0C112.25,-0 118.25,-6 118.25,-12"/>
<polyline fill="none" stroke="black" points="118.25,-12 118.25,-24 "/>
<path fill="none" stroke="black" d="M118.25,-24C118.25,-30 112.25,-36 106.25,-36"/>
<text text-anchor="start" x="68" y="-12.5" font-family="Times,serif" font-size="14.00">TITLE:</text>
</a>
</g>
<!-- CHAPMAN_KOLMOGOROV_RELATION&#45;&gt;CONTINUOUS_TIME_MARKOV_CHAIN -->
<g id="edge2" class="edge"><title>CHAPMAN_KOLMOGOROV_RELATION&#45;&gt;CONTINUOUS_TIME_MARKOV_CHAIN</title>
<path fill="none" stroke="black" d="M159.764,-71.6966C147.812,-62.796 133.077,-51.8232 120.153,-42.1989"/>
<polygon fill="black" stroke="black" points="122.08,-39.2699 111.969,-36.1043 117.899,-44.8842 122.08,-39.2699"/>
</g>
<!-- TRANSIENT_RECURRENT_STATES -->
<g id="node8" class="node"><title>TRANSIENT_RECURRENT_STATES</title>
<a xlink:href="TRANSIENT_RECURRENT_STATES.html" xlink:title="Transient and recurrent states in Markov chains" target="_top">
<polyline fill="none" stroke="black" points="407.25,-36 148.75,-36 "/>
<path fill="none" stroke="black" d="M148.75,-36C142.75,-36 136.75,-30 136.75,-24"/>
<polyline fill="none" stroke="black" points="136.75,-24 136.75,-12 "/>
<path fill="none" stroke="black" d="M136.75,-12C136.75,-6 142.75,-0 148.75,-0"/>
<polyline fill="none" stroke="black" points="148.75,-0 407.25,-0 "/>
<path fill="none" stroke="black" d="M407.25,-0C413.25,-0 419.25,-6 419.25,-12"/>
<polyline fill="none" stroke="black" points="419.25,-12 419.25,-24 "/>
<path fill="none" stroke="black" d="M419.25,-24C419.25,-30 413.25,-36 407.25,-36"/>
<text text-anchor="start" x="145" y="-12.5" font-family="Times,serif" font-size="14.00">Transient and recurrent states in Markov chains</text>
</a>
</g>
<!-- CHAPMAN_KOLMOGOROV_RELATION&#45;&gt;TRANSIENT_RECURRENT_STATES -->
<g id="edge8" class="edge"><title>CHAPMAN_KOLMOGOROV_RELATION&#45;&gt;TRANSIENT_RECURRENT_STATES</title>
<path fill="none" stroke="black" d="M206.483,-71.6966C218.563,-62.796 233.454,-51.8232 246.516,-42.1989"/>
<polygon fill="black" stroke="black" points="248.813,-44.8541 254.787,-36.1043 244.66,-39.2187 248.813,-44.8541"/>
</g>
<!-- MATRIX_MULTIPLICATION -->
<g id="node4" class="node"><title>MATRIX_MULTIPLICATION</title>
<a xlink:href="MATRIX_MULTIPLICATION.html" xlink:title="Matrix multiplication" target="_top">
<polyline fill="none" stroke="black" points="124.25,-252 11.75,-252 "/>
<path fill="none" stroke="black" d="M11.75,-252C5.75,-252 -0.25,-246 -0.25,-240"/>
<polyline fill="none" stroke="black" points="-0.25,-240 -0.25,-228 "/>
<path fill="none" stroke="black" d="M-0.25,-228C-0.25,-222 5.75,-216 11.75,-216"/>
<polyline fill="none" stroke="black" points="11.75,-216 124.25,-216 "/>
<path fill="none" stroke="black" d="M124.25,-216C130.25,-216 136.25,-222 136.25,-228"/>
<polyline fill="none" stroke="black" points="136.25,-228 136.25,-240 "/>
<path fill="none" stroke="black" d="M136.25,-240C136.25,-246 130.25,-252 124.25,-252"/>
<text text-anchor="start" x="8" y="-228.5" font-family="Times,serif" font-size="14.00">Matrix multiplication</text>
</a>
</g>
<!-- MATRIX_MULTIPLICATION&#45;&gt;CHAPMAN_KOLMOGOROV_RELATION -->
<g id="edge4" class="edge"><title>MATRIX_MULTIPLICATION&#45;&gt;CHAPMAN_KOLMOGOROV_RELATION</title>
<path fill="none" stroke="black" d="M67.5918,-215.892C67.9828,-196.608 71.278,-165.19 87,-144 96.77,-130.832 110.832,-120.526 125.192,-112.646"/>
<polygon fill="black" stroke="black" points="126.842,-115.733 134.136,-108.049 123.642,-109.507 126.842,-115.733"/>
</g>
<!-- TRANSITION_MATRIX_OF_MARKOV_CHAIN -->
<g id="node10" class="node"><title>TRANSITION_MATRIX_OF_MARKOV_CHAIN</title>
<a xlink:href="TRANSITION_MATRIX_OF_MARKOV_CHAIN.html" xlink:title="Markovian transition matrix" target="_top">
<polyline fill="none" stroke="black" points="258,-180 108,-180 "/>
<path fill="none" stroke="black" d="M108,-180C102,-180 96,-174 96,-168"/>
<polyline fill="none" stroke="black" points="96,-168 96,-156 "/>
<path fill="none" stroke="black" d="M96,-156C96,-150 102,-144 108,-144"/>
<polyline fill="none" stroke="black" points="108,-144 258,-144 "/>
<path fill="none" stroke="black" d="M258,-144C264,-144 270,-150 270,-156"/>
<polyline fill="none" stroke="black" points="270,-156 270,-168 "/>
<path fill="none" stroke="black" d="M270,-168C270,-174 264,-180 258,-180"/>
<text text-anchor="start" x="104.5" y="-156.5" font-family="Times,serif" font-size="14.00">Markovian transition matrix</text>
</a>
</g>
<!-- MATRIX_MULTIPLICATION&#45;&gt;TRANSITION_MATRIX_OF_MARKOV_CHAIN -->
<!-- MATRIX_POWERS -->
<g id="node6" class="node"><title>MATRIX_POWERS</title>
<a xlink:href="MATRIX_POWERS.html" xlink:title="Taking positive integer powers of a square matrix" target="_top">
<polyline fill="none" stroke="black" points="437,-252 167,-252 "/>
<path fill="none" stroke="black" d="M167,-252C161,-252 155,-246 155,-240"/>
<polyline fill="none" stroke="black" points="155,-240 155,-228 "/>
<path fill="none" stroke="black" d="M155,-228C155,-222 161,-216 167,-216"/>
<polyline fill="none" stroke="black" points="167,-216 437,-216 "/>
<path fill="none" stroke="black" d="M437,-216C443,-216 449,-222 449,-228"/>
<polyline fill="none" stroke="black" points="449,-228 449,-240 "/>
<path fill="none" stroke="black" d="M449,-240C449,-246 443,-252 437,-252"/>
<text text-anchor="start" x="163.5" y="-228.5" font-family="Times,serif" font-size="14.00">Taking positive integer powers of a square matrix</text>
</a>
</g>
<!-- MATRIX_POWERS&#45;&gt;CHAPMAN_KOLMOGOROV_RELATION -->
<g id="edge6" class="edge"><title>MATRIX_POWERS&#45;&gt;CHAPMAN_KOLMOGOROV_RELATION</title>
<path fill="none" stroke="black" d="M301.515,-215.845C300.144,-196.518 295.333,-165.061 279,-144 268.855,-130.919 254.527,-120.609 240.027,-112.698"/>
<polygon fill="black" stroke="black" points="241.508,-109.524 231.012,-108.078 238.316,-115.754 241.508,-109.524"/>
</g>
<!-- TRANSITION_MATRIX_OF_MARKOV_CHAIN&#45;&gt;CHAPMAN_KOLMOGOROV_RELATION -->
<g id="edge10" class="edge"><title>TRANSITION_MATRIX_OF_MARKOV_CHAIN&#45;&gt;CHAPMAN_KOLMOGOROV_RELATION</title>
<path fill="none" stroke="black" d="M183,-143.697C183,-135.983 183,-126.712 183,-118.112"/>
<polygon fill="black" stroke="black" points="186.5,-118.104 183,-108.104 179.5,-118.104 186.5,-118.104"/>
</g>
</g>
</svg>
