<?xml version="1.0" encoding="UTF-8" standalone="no"?>
<!DOCTYPE svg PUBLIC "-//W3C//DTD SVG 1.1//EN"
 "http://www.w3.org/Graphics/SVG/1.1/DTD/svg11.dtd">
<!-- Generated by graphviz version 2.28.0 (20110509.1545)
 -->
<!-- Title: _anonymous_0 Pages: 1 -->
<svg width="517pt" height="260pt"
 viewBox="0.00 0.00 517.00 260.00" xmlns="http://www.w3.org/2000/svg" xmlns:xlink="http://www.w3.org/1999/xlink">
<g id="graph1" class="graph" transform="scale(1 1) rotate(0) translate(4 256)">
<title>_anonymous_0</title>
<!-- CHAPMAN_KOLMOGOROV_RELATION -->
<g id="node1" class="node"><title>CHAPMAN_KOLMOGOROV_RELATION</title>
<a xlink:href="CHAPMAN_KOLMOGOROV_RELATION.html" xlink:title="The Chapman Kolmogorov Relation" target="_top">
<polyline fill="none" stroke="blue" stroke-width="2" points="334.25,-108 137.75,-108 "/>
<path fill="none" stroke="blue" stroke-width="2" d="M137.75,-108C131.75,-108 125.75,-102 125.75,-96"/>
<polyline fill="none" stroke="blue" stroke-width="2" points="125.75,-96 125.75,-84 "/>
<path fill="none" stroke="blue" stroke-width="2" d="M125.75,-84C125.75,-78 131.75,-72 137.75,-72"/>
<polyline fill="none" stroke="blue" stroke-width="2" points="137.75,-72 334.25,-72 "/>
<path fill="none" stroke="blue" stroke-width="2" d="M334.25,-72C340.25,-72 346.25,-78 346.25,-84"/>
<polyline fill="none" stroke="blue" stroke-width="2" points="346.25,-84 346.25,-96 "/>
<path fill="none" stroke="blue" stroke-width="2" d="M346.25,-96C346.25,-102 340.25,-108 334.25,-108"/>
<text text-anchor="start" x="134" y="-84.5" font-family="Times,serif" font-size="14.00">The Chapman Kolmogorov Relation</text>
</a>
</g>
<!-- CONTINUOUS_TIME_MARKOV_CHAIN -->
<g id="node2" class="node"><title>CONTINUOUS_TIME_MARKOV_CHAIN</title>
<a xlink:href="CONTINUOUS_TIME_MARKOV_CHAIN.html" xlink:title="Markov chains in continuous time" target="_top">
<polyline fill="none" stroke="black" points="196,-36 12,-36 "/>
<path fill="none" stroke="black" d="M12,-36C6,-36 0,-30 0,-24"/>
<polyline fill="none" stroke="black" points="0,-24 0,-12 "/>
<path fill="none" stroke="black" d="M0,-12C0,-6 6,-0 12,-0"/>
<polyline fill="none" stroke="black" points="12,-0 196,-0 "/>
<path fill="none" stroke="black" d="M196,-0C202,-0 208,-6 208,-12"/>
<polyline fill="none" stroke="black" points="208,-12 208,-24 "/>
<path fill="none" stroke="black" d="M208,-24C208,-30 202,-36 196,-36"/>
<text text-anchor="start" x="8.5" y="-12.5" font-family="Times,serif" font-size="14.00">Markov chains in continuous time</text>
</a>
</g>
<!-- CHAPMAN_KOLMOGOROV_RELATION&#45;&gt;CONTINUOUS_TIME_MARKOV_CHAIN -->
<g id="edge2" class="edge"><title>CHAPMAN_KOLMOGOROV_RELATION&#45;&gt;CONTINUOUS_TIME_MARKOV_CHAIN</title>
<path fill="none" stroke="black" d="M203.709,-71.8761C186.131,-62.5541 164.191,-50.9194 145.371,-40.939"/>
<polygon fill="black" stroke="black" points="146.889,-37.7827 136.415,-36.1898 143.61,-43.967 146.889,-37.7827"/>
</g>
<!-- TRANSIENT_RECURRENT_STATES -->
<g id="node8" class="node"><title>TRANSIENT_RECURRENT_STATES</title>
<a xlink:href="TRANSIENT_RECURRENT_STATES.html" xlink:title="Transient and recurrent states in Markov chains" target="_top">
<polyline fill="none" stroke="black" points="497.25,-36 238.75,-36 "/>
<path fill="none" stroke="black" d="M238.75,-36C232.75,-36 226.75,-30 226.75,-24"/>
<polyline fill="none" stroke="black" points="226.75,-24 226.75,-12 "/>
<path fill="none" stroke="black" d="M226.75,-12C226.75,-6 232.75,-0 238.75,-0"/>
<polyline fill="none" stroke="black" points="238.75,-0 497.25,-0 "/>
<path fill="none" stroke="black" d="M497.25,-0C503.25,-0 509.25,-6 509.25,-12"/>
<polyline fill="none" stroke="black" points="509.25,-12 509.25,-24 "/>
<path fill="none" stroke="black" d="M509.25,-24C509.25,-30 503.25,-36 497.25,-36"/>
<text text-anchor="start" x="235" y="-12.5" font-family="Times,serif" font-size="14.00">Transient and recurrent states in Markov chains</text>
</a>
</g>
<!-- CHAPMAN_KOLMOGOROV_RELATION&#45;&gt;TRANSIENT_RECURRENT_STATES -->
<g id="edge8" class="edge"><title>CHAPMAN_KOLMOGOROV_RELATION&#45;&gt;TRANSIENT_RECURRENT_STATES</title>
<path fill="none" stroke="black" d="M268.291,-71.8761C285.869,-62.5541 307.809,-50.9194 326.629,-40.939"/>
<polygon fill="black" stroke="black" points="328.39,-43.967 335.585,-36.1898 325.111,-37.7827 328.39,-43.967"/>
</g>
<!-- MATRIX_MULTIPLICATION -->
<g id="node4" class="node"><title>MATRIX_MULTIPLICATION</title>
<a xlink:href="MATRIX_MULTIPLICATION.html" xlink:title="Matrix multiplication" target="_top">
<polyline fill="none" stroke="black" points="177.25,-252 64.75,-252 "/>
<path fill="none" stroke="black" d="M64.75,-252C58.75,-252 52.75,-246 52.75,-240"/>
<polyline fill="none" stroke="black" points="52.75,-240 52.75,-228 "/>
<path fill="none" stroke="black" d="M52.75,-228C52.75,-222 58.75,-216 64.75,-216"/>
<polyline fill="none" stroke="black" points="64.75,-216 177.25,-216 "/>
<path fill="none" stroke="black" d="M177.25,-216C183.25,-216 189.25,-222 189.25,-228"/>
<polyline fill="none" stroke="black" points="189.25,-228 189.25,-240 "/>
<path fill="none" stroke="black" d="M189.25,-240C189.25,-246 183.25,-252 177.25,-252"/>
<text text-anchor="start" x="61" y="-228.5" font-family="Times,serif" font-size="14.00">Matrix multiplication</text>
</a>
</g>
<!-- MATRIX_MULTIPLICATION&#45;&gt;CHAPMAN_KOLMOGOROV_RELATION -->
<g id="edge4" class="edge"><title>MATRIX_MULTIPLICATION&#45;&gt;CHAPMAN_KOLMOGOROV_RELATION</title>
<path fill="none" stroke="black" d="M120.592,-215.892C120.983,-196.608 124.278,-165.19 140,-144 149.77,-130.832 163.832,-120.526 178.192,-112.646"/>
<polygon fill="black" stroke="black" points="179.842,-115.733 187.136,-108.049 176.642,-109.507 179.842,-115.733"/>
</g>
<!-- TRANSITION_MATRIX_OF_MARKOV_CHAIN -->
<g id="node10" class="node"><title>TRANSITION_MATRIX_OF_MARKOV_CHAIN</title>
<a xlink:href="TRANSITION_MATRIX_OF_MARKOV_CHAIN.html" xlink:title="Markovian transition matrix" target="_top">
<polyline fill="none" stroke="black" points="311,-180 161,-180 "/>
<path fill="none" stroke="black" d="M161,-180C155,-180 149,-174 149,-168"/>
<polyline fill="none" stroke="black" points="149,-168 149,-156 "/>
<path fill="none" stroke="black" d="M149,-156C149,-150 155,-144 161,-144"/>
<polyline fill="none" stroke="black" points="161,-144 311,-144 "/>
<path fill="none" stroke="black" d="M311,-144C317,-144 323,-150 323,-156"/>
<polyline fill="none" stroke="black" points="323,-156 323,-168 "/>
<path fill="none" stroke="black" d="M323,-168C323,-174 317,-180 311,-180"/>
<text text-anchor="start" x="157.5" y="-156.5" font-family="Times,serif" font-size="14.00">Markovian transition matrix</text>
</a>
</g>
<!-- MATRIX_MULTIPLICATION&#45;&gt;TRANSITION_MATRIX_OF_MARKOV_CHAIN -->
<!-- MATRIX_POWERS -->
<g id="node6" class="node"><title>MATRIX_POWERS</title>
<a xlink:href="MATRIX_POWERS.html" xlink:title="Taking positive integer powers of a square matrix" target="_top">
<polyline fill="none" stroke="black" points="490,-252 220,-252 "/>
<path fill="none" stroke="black" d="M220,-252C214,-252 208,-246 208,-240"/>
<polyline fill="none" stroke="black" points="208,-240 208,-228 "/>
<path fill="none" stroke="black" d="M208,-228C208,-222 214,-216 220,-216"/>
<polyline fill="none" stroke="black" points="220,-216 490,-216 "/>
<path fill="none" stroke="black" d="M490,-216C496,-216 502,-222 502,-228"/>
<polyline fill="none" stroke="black" points="502,-228 502,-240 "/>
<path fill="none" stroke="black" d="M502,-240C502,-246 496,-252 490,-252"/>
<text text-anchor="start" x="216.5" y="-228.5" font-family="Times,serif" font-size="14.00">Taking positive integer powers of a square matrix</text>
</a>
</g>
<!-- MATRIX_POWERS&#45;&gt;CHAPMAN_KOLMOGOROV_RELATION -->
<g id="edge6" class="edge"><title>MATRIX_POWERS&#45;&gt;CHAPMAN_KOLMOGOROV_RELATION</title>
<path fill="none" stroke="black" d="M354.515,-215.845C353.144,-196.518 348.333,-165.061 332,-144 321.855,-130.919 307.527,-120.609 293.027,-112.698"/>
<polygon fill="black" stroke="black" points="294.508,-109.524 284.012,-108.078 291.316,-115.754 294.508,-109.524"/>
</g>
<!-- TRANSITION_MATRIX_OF_MARKOV_CHAIN&#45;&gt;CHAPMAN_KOLMOGOROV_RELATION -->
<g id="edge10" class="edge"><title>TRANSITION_MATRIX_OF_MARKOV_CHAIN&#45;&gt;CHAPMAN_KOLMOGOROV_RELATION</title>
<path fill="none" stroke="black" d="M236,-143.697C236,-135.983 236,-126.712 236,-118.112"/>
<polygon fill="black" stroke="black" points="239.5,-118.104 236,-108.104 232.5,-118.104 239.5,-118.104"/>
</g>
</g>
</svg>
