<?xml version="1.0" encoding="UTF-8" standalone="no"?>
<!DOCTYPE svg PUBLIC "-//W3C//DTD SVG 1.1//EN"
 "http://www.w3.org/Graphics/SVG/1.1/DTD/svg11.dtd">
<!-- Generated by graphviz version 2.26.3 (20100126.1600)
 -->
<!-- Title: _anonymous_0 Pages: 1 -->
<svg width="626pt" height="260pt"
 viewBox="0.00 0.00 626.00 260.00" xmlns="http://www.w3.org/2000/svg" xmlns:xlink="http://www.w3.org/1999/xlink">
<g id="graph1" class="graph" transform="scale(1 1) rotate(0) translate(4 256)">
<title>_anonymous_0</title>
<!-- CHAPMAN_KOLMOGOROV_RELATION -->
<g id="node1" class="node"><title>CHAPMAN_KOLMOGOROV_RELATION</title>
<a xlink:href="CHAPMAN_KOLMOGOROV_RELATION.html" xlink:title="The Chapman Kolmogorov Relation" target="_top">
<polyline fill="none" stroke="blue" stroke-width="2" points="449,-108 215,-108 "/>
<path fill="none" stroke="blue" stroke-width="2" d="M215,-108C209,-108 203,-102 203,-96"/>
<polyline fill="none" stroke="blue" stroke-width="2" points="203,-96 203,-84 "/>
<path fill="none" stroke="blue" stroke-width="2" d="M203,-84C203,-78 209,-72 215,-72"/>
<polyline fill="none" stroke="blue" stroke-width="2" points="215,-72 449,-72 "/>
<path fill="none" stroke="blue" stroke-width="2" d="M449,-72C455,-72 461,-78 461,-84"/>
<polyline fill="none" stroke="blue" stroke-width="2" points="461,-84 461,-96 "/>
<path fill="none" stroke="blue" stroke-width="2" d="M461,-96C461,-102 455,-108 449,-108"/>
<text text-anchor="start" x="211" y="-87.2333" font-family="Times Roman,serif" font-size="14.00">The Chapman Kolmogorov Relation</text>
</a>
</g>
<!-- TRANSIENT_RECURRENT_STATES -->
<g id="node2" class="node"><title>TRANSIENT_RECURRENT_STATES</title>
<a xlink:href="TRANSIENT_RECURRENT_STATES.html" xlink:title="Transient and recurrent states in Markov chains" target="_top">
<polyline fill="none" stroke="black" points="336,-36 12,-36 "/>
<path fill="none" stroke="black" d="M12,-36C6,-36 1.42109e-13,-30 1.13687e-13,-24"/>
<polyline fill="none" stroke="black" points="1.13687e-13,-24 5.68434e-14,-12 "/>
<path fill="none" stroke="black" d="M5.68434e-14,-12C2.84217e-14,-6 6,-1.75186e-14 12,-1.72735e-14"/>
<polyline fill="none" stroke="black" points="12,-1.72735e-14 336,-4.04274e-15 "/>
<path fill="none" stroke="black" d="M336,-4.04274e-15C342,-3.79773e-15 348,-6 348,-12"/>
<polyline fill="none" stroke="black" points="348,-12 348,-24 "/>
<path fill="none" stroke="black" d="M348,-24C348,-30 342,-36 336,-36"/>
<text text-anchor="start" x="8.5" y="-15.2333" font-family="Times Roman,serif" font-size="14.00">Transient and recurrent states in Markov chains</text>
</a>
</g>
<!-- CHAPMAN_KOLMOGOROV_RELATION&#45;&gt;TRANSIENT_RECURRENT_STATES -->
<g id="edge2" class="edge"><title>CHAPMAN_KOLMOGOROV_RELATION&#45;&gt;TRANSIENT_RECURRENT_STATES</title>
<path fill="none" stroke="black" d="M292.13,-71.8314C271.092,-62.2446 245.102,-50.4008 222.86,-40.2655"/>
<polygon fill="black" stroke="black" points="224.134,-36.9999 213.583,-36.038 221.232,-43.3697 224.134,-36.9999"/>
</g>
<!-- CONTINUOUS_TIME_MARKOV_CHAIN -->
<g id="node4" class="node"><title>CONTINUOUS_TIME_MARKOV_CHAIN</title>
<a xlink:href="CONTINUOUS_TIME_MARKOV_CHAIN.html" xlink:title="Markov chains in continuous time" target="_top">
<polyline fill="none" stroke="black" points="602,-36 378,-36 "/>
<path fill="none" stroke="black" d="M378,-36C372,-36 366,-30 366,-24"/>
<polyline fill="none" stroke="black" points="366,-24 366,-12 "/>
<path fill="none" stroke="black" d="M366,-12C366,-6 372,-1.74198e-14 378,-1.70759e-14"/>
<polyline fill="none" stroke="black" points="378,-1.70759e-14 602,-4.24034e-15 "/>
<path fill="none" stroke="black" d="M602,-4.24034e-15C608,-3.89652e-15 614,-6 614,-12"/>
<polyline fill="none" stroke="black" points="614,-12 614,-24 "/>
<path fill="none" stroke="black" d="M614,-24C614,-30 608,-36 602,-36"/>
<text text-anchor="start" x="374" y="-15.2333" font-family="Times Roman,serif" font-size="14.00">Markov chains in continuous time</text>
</a>
</g>
<!-- CHAPMAN_KOLMOGOROV_RELATION&#45;&gt;CONTINUOUS_TIME_MARKOV_CHAIN -->
<g id="edge4" class="edge"><title>CHAPMAN_KOLMOGOROV_RELATION&#45;&gt;CONTINUOUS_TIME_MARKOV_CHAIN</title>
<path fill="none" stroke="black" d="M371.87,-71.8314C392.908,-62.2446 418.898,-50.4008 441.14,-40.2655"/>
<polygon fill="black" stroke="black" points="442.768,-43.3697 450.417,-36.038 439.866,-36.9999 442.768,-43.3697"/>
</g>
<!-- TRANSITION_MATRIX_OF_MARKOV_CHAIN -->
<g id="node6" class="node"><title>TRANSITION_MATRIX_OF_MARKOV_CHAIN</title>
<a xlink:href="TRANSITION_MATRIX_OF_MARKOV_CHAIN.html" xlink:title="Markovian transition matrix" target="_top">
<polyline fill="none" stroke="black" points="321,-252 135,-252 "/>
<path fill="none" stroke="black" d="M135,-252C129,-252 123,-246 123,-240"/>
<polyline fill="none" stroke="black" points="123,-240 123,-228 "/>
<path fill="none" stroke="black" d="M123,-228C123,-222 129,-216 135,-216"/>
<polyline fill="none" stroke="black" points="135,-216 321,-216 "/>
<path fill="none" stroke="black" d="M321,-216C327,-216 333,-222 333,-228"/>
<polyline fill="none" stroke="black" points="333,-228 333,-240 "/>
<path fill="none" stroke="black" d="M333,-240C333,-246 327,-252 321,-252"/>
<text text-anchor="start" x="131.5" y="-231.233" font-family="Times Roman,serif" font-size="14.00">Markovian transition matrix</text>
</a>
</g>
<!-- TRANSITION_MATRIX_OF_MARKOV_CHAIN&#45;&gt;CHAPMAN_KOLMOGOROV_RELATION -->
<g id="edge6" class="edge"><title>TRANSITION_MATRIX_OF_MARKOV_CHAIN&#45;&gt;CHAPMAN_KOLMOGOROV_RELATION</title>
<path fill="none" stroke="black" d="M183.021,-215.986C167.826,-207.476 152.557,-195.673 144,-180 136.333,-165.957 134.374,-156.78 144,-144 154.251,-130.391 185.35,-119.154 219.379,-110.52"/>
<polygon fill="black" stroke="black" points="220.642,-113.814 229.525,-108.04 218.979,-107.015 220.642,-113.814"/>
</g>
<!-- MATRIX_POWERS -->
<g id="node10" class="node"><title>MATRIX_POWERS</title>
<a xlink:href="MATRIX_POWERS.html" xlink:title="Taking positive integer powers of a square matrix" target="_top">
<polyline fill="none" stroke="black" points="499,-180 165,-180 "/>
<path fill="none" stroke="black" d="M165,-180C159,-180 153,-174 153,-168"/>
<polyline fill="none" stroke="black" points="153,-168 153,-156 "/>
<path fill="none" stroke="black" d="M153,-156C153,-150 159,-144 165,-144"/>
<polyline fill="none" stroke="black" points="165,-144 499,-144 "/>
<path fill="none" stroke="black" d="M499,-144C505,-144 511,-150 511,-156"/>
<polyline fill="none" stroke="black" points="511,-156 511,-168 "/>
<path fill="none" stroke="black" d="M511,-168C511,-174 505,-180 499,-180"/>
<text text-anchor="start" x="161" y="-159.233" font-family="Times Roman,serif" font-size="14.00">Taking positive integer powers of a square matrix</text>
</a>
</g>
<!-- TRANSITION_MATRIX_OF_MARKOV_CHAIN&#45;&gt;MATRIX_POWERS -->
<!-- MATRIX_MULTIPLICATION -->
<g id="node8" class="node"><title>MATRIX_MULTIPLICATION</title>
<a xlink:href="MATRIX_MULTIPLICATION.html" xlink:title="Matrix multiplication" target="_top">
<polyline fill="none" stroke="black" points="606,-252 472,-252 "/>
<path fill="none" stroke="black" d="M472,-252C466,-252 460,-246 460,-240"/>
<polyline fill="none" stroke="black" points="460,-240 460,-228 "/>
<path fill="none" stroke="black" d="M460,-228C460,-222 466,-216 472,-216"/>
<polyline fill="none" stroke="black" points="472,-216 606,-216 "/>
<path fill="none" stroke="black" d="M606,-216C612,-216 618,-222 618,-228"/>
<polyline fill="none" stroke="black" points="618,-228 618,-240 "/>
<path fill="none" stroke="black" d="M618,-240C618,-246 612,-252 606,-252"/>
<text text-anchor="start" x="468" y="-231.233" font-family="Times Roman,serif" font-size="14.00">Matrix multiplication</text>
</a>
</g>
<!-- MATRIX_MULTIPLICATION&#45;&gt;CHAPMAN_KOLMOGOROV_RELATION -->
<g id="edge8" class="edge"><title>MATRIX_MULTIPLICATION&#45;&gt;CHAPMAN_KOLMOGOROV_RELATION</title>
<path fill="none" stroke="black" d="M540.303,-215.645C540.688,-195.486 538.061,-163.404 520,-144 507.813,-130.907 473.821,-119.446 438.033,-110.49"/>
<polygon fill="black" stroke="black" points="438.451,-106.99 427.908,-108.031 436.799,-113.792 438.451,-106.99"/>
</g>
<!-- MATRIX_POWERS&#45;&gt;CHAPMAN_KOLMOGOROV_RELATION -->
<g id="edge10" class="edge"><title>MATRIX_POWERS&#45;&gt;CHAPMAN_KOLMOGOROV_RELATION</title>
<path fill="none" stroke="black" d="M332,-143.831C332,-136.131 332,-126.974 332,-118.417"/>
<polygon fill="black" stroke="black" points="335.5,-118.413 332,-108.413 328.5,-118.413 335.5,-118.413"/>
</g>
</g>
</svg>
