<?xml version="1.0" encoding="UTF-8" standalone="no"?>
<!DOCTYPE svg PUBLIC "-//W3C//DTD SVG 1.1//EN"
 "http://www.w3.org/Graphics/SVG/1.1/DTD/svg11.dtd">
<!-- Generated by graphviz version 2.26.3 (20100126.1600)
 -->
<!-- Title: _anonymous_0 Pages: 1 -->
<svg width="640pt" height="260pt"
 viewBox="0.00 0.00 640.00 260.00" xmlns="http://www.w3.org/2000/svg" xmlns:xlink="http://www.w3.org/1999/xlink">
<g id="graph1" class="graph" transform="scale(1 1) rotate(0) translate(4 256)">
<title>_anonymous_0</title>
<!-- CHAPMAN_KOLMOGOROV_RELATION -->
<g id="node1" class="node"><title>CHAPMAN_KOLMOGOROV_RELATION</title>
<a xlink:href="CHAPMAN_KOLMOGOROV_RELATION.html" xlink:title="The Chapman Kolmogorov Relation" target="_top">
<polyline fill="none" stroke="blue" stroke-width="2" points="449,-108 215,-108 "/>
<path fill="none" stroke="blue" stroke-width="2" d="M215,-108C209,-108 203,-102 203,-96"/>
<polyline fill="none" stroke="blue" stroke-width="2" points="203,-96 203,-84 "/>
<path fill="none" stroke="blue" stroke-width="2" d="M203,-84C203,-78 209,-72 215,-72"/>
<polyline fill="none" stroke="blue" stroke-width="2" points="215,-72 449,-72 "/>
<path fill="none" stroke="blue" stroke-width="2" d="M449,-72C455,-72 461,-78 461,-84"/>
<polyline fill="none" stroke="blue" stroke-width="2" points="461,-84 461,-96 "/>
<path fill="none" stroke="blue" stroke-width="2" d="M461,-96C461,-102 455,-108 449,-108"/>
<text text-anchor="start" x="211" y="-87.2333" font-family="Times Roman,serif" font-size="14.00">The Chapman Kolmogorov Relation</text>
</a>
</g>
<!-- TRANSIENT_RECURRENT_STATES -->
<g id="node2" class="node"><title>TRANSIENT_RECURRENT_STATES</title>
<a xlink:href="TRANSIENT_RECURRENT_STATES.html" xlink:title="Transient and recurrent states in Markov chains" target="_top">
<polyline fill="none" stroke="black" points="336,-36 12,-36 "/>
<path fill="none" stroke="black" d="M12,-36C6,-36 1.42109e-13,-30 1.13687e-13,-24"/>
<polyline fill="none" stroke="black" points="1.13687e-13,-24 5.68434e-14,-12 "/>
<path fill="none" stroke="black" d="M5.68434e-14,-12C2.84217e-14,-6 6,-1.75186e-14 12,-1.72735e-14"/>
<polyline fill="none" stroke="black" points="12,-1.72735e-14 336,-4.04274e-15 "/>
<path fill="none" stroke="black" d="M336,-4.04274e-15C342,-3.79773e-15 348,-6 348,-12"/>
<polyline fill="none" stroke="black" points="348,-12 348,-24 "/>
<path fill="none" stroke="black" d="M348,-24C348,-30 342,-36 336,-36"/>
<text text-anchor="start" x="8.5" y="-15.2333" font-family="Times Roman,serif" font-size="14.00">Transient and recurrent states in Markov chains</text>
</a>
</g>
<!-- CHAPMAN_KOLMOGOROV_RELATION&#45;&gt;TRANSIENT_RECURRENT_STATES -->
<g id="edge2" class="edge"><title>CHAPMAN_KOLMOGOROV_RELATION&#45;&gt;TRANSIENT_RECURRENT_STATES</title>
<path fill="none" stroke="black" d="M292.13,-71.8314C271.092,-62.2446 245.102,-50.4008 222.86,-40.2655"/>
<polygon fill="black" stroke="black" points="224.134,-36.9999 213.583,-36.038 221.232,-43.3697 224.134,-36.9999"/>
</g>
<!-- CONTINUOUS_TIME_MARKOV_CHAIN -->
<g id="node6" class="node"><title>CONTINUOUS_TIME_MARKOV_CHAIN</title>
<a xlink:href="CONTINUOUS_TIME_MARKOV_CHAIN.html" xlink:title="Markov chains in continuous time" target="_top">
<polyline fill="none" stroke="black" points="602,-36 378,-36 "/>
<path fill="none" stroke="black" d="M378,-36C372,-36 366,-30 366,-24"/>
<polyline fill="none" stroke="black" points="366,-24 366,-12 "/>
<path fill="none" stroke="black" d="M366,-12C366,-6 372,-1.74198e-14 378,-1.70759e-14"/>
<polyline fill="none" stroke="black" points="378,-1.70759e-14 602,-4.24034e-15 "/>
<path fill="none" stroke="black" d="M602,-4.24034e-15C608,-3.89652e-15 614,-6 614,-12"/>
<polyline fill="none" stroke="black" points="614,-12 614,-24 "/>
<path fill="none" stroke="black" d="M614,-24C614,-30 608,-36 602,-36"/>
<text text-anchor="start" x="374" y="-15.2333" font-family="Times Roman,serif" font-size="14.00">Markov chains in continuous time</text>
</a>
</g>
<!-- CHAPMAN_KOLMOGOROV_RELATION&#45;&gt;CONTINUOUS_TIME_MARKOV_CHAIN -->
<g id="edge6" class="edge"><title>CHAPMAN_KOLMOGOROV_RELATION&#45;&gt;CONTINUOUS_TIME_MARKOV_CHAIN</title>
<path fill="none" stroke="black" d="M371.87,-71.8314C392.908,-62.2446 418.898,-50.4008 441.14,-40.2655"/>
<polygon fill="black" stroke="black" points="442.768,-43.3697 450.417,-36.038 439.866,-36.9999 442.768,-43.3697"/>
</g>
<!-- MATRIX_POWERS -->
<g id="node4" class="node"><title>MATRIX_POWERS</title>
<a xlink:href="MATRIX_POWERS.html" xlink:title="Taking positive integer powers of a square matrix" target="_top">
<polyline fill="none" stroke="black" points="392,-252 58,-252 "/>
<path fill="none" stroke="black" d="M58,-252C52,-252 46,-246 46,-240"/>
<polyline fill="none" stroke="black" points="46,-240 46,-228 "/>
<path fill="none" stroke="black" d="M46,-228C46,-222 52,-216 58,-216"/>
<polyline fill="none" stroke="black" points="58,-216 392,-216 "/>
<path fill="none" stroke="black" d="M392,-216C398,-216 404,-222 404,-228"/>
<polyline fill="none" stroke="black" points="404,-228 404,-240 "/>
<path fill="none" stroke="black" d="M404,-240C404,-246 398,-252 392,-252"/>
<text text-anchor="start" x="54" y="-231.233" font-family="Times Roman,serif" font-size="14.00">Taking positive integer powers of a square matrix</text>
</a>
</g>
<!-- MATRIX_POWERS&#45;&gt;CHAPMAN_KOLMOGOROV_RELATION -->
<g id="edge4" class="edge"><title>MATRIX_POWERS&#45;&gt;CHAPMAN_KOLMOGOROV_RELATION</title>
<path fill="none" stroke="black" d="M224.75,-215.776C225.354,-196.319 228.906,-165.403 244,-144 252.813,-131.503 265.526,-121.338 278.559,-113.339"/>
<polygon fill="black" stroke="black" points="280.666,-116.165 287.59,-108.145 277.176,-110.097 280.666,-116.165"/>
</g>
<!-- MATRIX_MULTIPLICATION -->
<g id="node10" class="node"><title>MATRIX_MULTIPLICATION</title>
<a xlink:href="MATRIX_MULTIPLICATION.html" xlink:title="Matrix multiplication" target="_top">
<polyline fill="none" stroke="black" points="399,-180 265,-180 "/>
<path fill="none" stroke="black" d="M265,-180C259,-180 253,-174 253,-168"/>
<polyline fill="none" stroke="black" points="253,-168 253,-156 "/>
<path fill="none" stroke="black" d="M253,-156C253,-150 259,-144 265,-144"/>
<polyline fill="none" stroke="black" points="265,-144 399,-144 "/>
<path fill="none" stroke="black" d="M399,-144C405,-144 411,-150 411,-156"/>
<polyline fill="none" stroke="black" points="411,-156 411,-168 "/>
<path fill="none" stroke="black" d="M411,-168C411,-174 405,-180 399,-180"/>
<text text-anchor="start" x="261" y="-159.233" font-family="Times Roman,serif" font-size="14.00">Matrix multiplication</text>
</a>
</g>
<!-- MATRIX_POWERS&#45;&gt;MATRIX_MULTIPLICATION -->
<!-- TRANSITION_MATRIX_OF_MARKOV_CHAIN -->
<g id="node8" class="node"><title>TRANSITION_MATRIX_OF_MARKOV_CHAIN</title>
<a xlink:href="TRANSITION_MATRIX_OF_MARKOV_CHAIN.html" xlink:title="Markovian transition matrix" target="_top">
<polyline fill="none" stroke="black" points="620,-252 434,-252 "/>
<path fill="none" stroke="black" d="M434,-252C428,-252 422,-246 422,-240"/>
<polyline fill="none" stroke="black" points="422,-240 422,-228 "/>
<path fill="none" stroke="black" d="M422,-228C422,-222 428,-216 434,-216"/>
<polyline fill="none" stroke="black" points="434,-216 620,-216 "/>
<path fill="none" stroke="black" d="M620,-216C626,-216 632,-222 632,-228"/>
<polyline fill="none" stroke="black" points="632,-228 632,-240 "/>
<path fill="none" stroke="black" d="M632,-240C632,-246 626,-252 620,-252"/>
<text text-anchor="start" x="430.5" y="-231.233" font-family="Times Roman,serif" font-size="14.00">Markovian transition matrix</text>
</a>
</g>
<!-- TRANSITION_MATRIX_OF_MARKOV_CHAIN&#45;&gt;CHAPMAN_KOLMOGOROV_RELATION -->
<g id="edge8" class="edge"><title>TRANSITION_MATRIX_OF_MARKOV_CHAIN&#45;&gt;CHAPMAN_KOLMOGOROV_RELATION</title>
<path fill="none" stroke="black" d="M507.215,-215.812C486.27,-196.934 451.894,-167.003 420,-144 405.052,-133.219 387.916,-122.387 372.76,-113.284"/>
<polygon fill="black" stroke="black" points="374.482,-110.236 364.097,-108.138 370.907,-116.254 374.482,-110.236"/>
</g>
<!-- MATRIX_MULTIPLICATION&#45;&gt;CHAPMAN_KOLMOGOROV_RELATION -->
<g id="edge10" class="edge"><title>MATRIX_MULTIPLICATION&#45;&gt;CHAPMAN_KOLMOGOROV_RELATION</title>
<path fill="none" stroke="black" d="M332,-143.831C332,-136.131 332,-126.974 332,-118.417"/>
<polygon fill="black" stroke="black" points="335.5,-118.413 332,-108.413 328.5,-118.413 335.5,-118.413"/>
</g>
</g>
</svg>
