<?xml version="1.0" encoding="UTF-8" standalone="no"?>
<!DOCTYPE svg PUBLIC "-//W3C//DTD SVG 1.1//EN"
 "http://www.w3.org/Graphics/SVG/1.1/DTD/svg11.dtd">
<!-- Generated by graphviz version 2.26.3 (20100126.1600)
 -->
<!-- Title: _anonymous_0 Pages: 1 -->
<svg width="282pt" height="116pt"
 viewBox="0.00 0.00 282.00 116.00" xmlns="http://www.w3.org/2000/svg" xmlns:xlink="http://www.w3.org/1999/xlink">
<g id="graph1" class="graph" transform="scale(1 1) rotate(0) translate(4 112)">
<title>_anonymous_0</title>
<!-- CLUSTER_EXPANSION -->
<g id="node1" class="node"><title>CLUSTER_EXPANSION</title>
<a xlink:href="CLUSTER_EXPANSION.html" xlink:title="The Cluster expansion approximation" target="_top">
<polyline fill="none" stroke="blue" stroke-width="2" points="262,-36 12,-36 "/>
<path fill="none" stroke="blue" stroke-width="2" d="M12,-36C6,-36 1.18424e-13,-30 9.4739e-14,-24"/>
<polyline fill="none" stroke="blue" stroke-width="2" points="9.4739e-14,-24 4.73695e-14,-12 "/>
<path fill="none" stroke="blue" stroke-width="2" d="M4.73695e-14,-12C2.36848e-14,-6 6,-1.74524e-14 12,-1.71412e-14"/>
<polyline fill="none" stroke="blue" stroke-width="2" points="12,-1.71412e-14 262,-4.17509e-15 "/>
<path fill="none" stroke="blue" stroke-width="2" d="M262,-4.17509e-15C268,-3.8639e-15 274,-6 274,-12"/>
<polyline fill="none" stroke="blue" stroke-width="2" points="274,-12 274,-24 "/>
<path fill="none" stroke="blue" stroke-width="2" d="M274,-24C274,-30 268,-36 262,-36"/>
<text text-anchor="start" x="8" y="-15.2333" font-family="Times Roman,serif" font-size="14.00">The Cluster expansion approximation</text>
</a>
</g>
<!-- IDEAL_GAS -->
<g id="node2" class="node"><title>IDEAL_GAS</title>
<a xlink:href="IDEAL_GAS.html" xlink:title="The ideal gas model" target="_top">
<polyline fill="none" stroke="black" points="202,-108 72,-108 "/>
<path fill="none" stroke="black" d="M72,-108C66,-108 60,-102 60,-96"/>
<polyline fill="none" stroke="black" points="60,-96 60,-84 "/>
<path fill="none" stroke="black" d="M60,-84C60,-78 66,-72 72,-72"/>
<polyline fill="none" stroke="black" points="72,-72 202,-72 "/>
<path fill="none" stroke="black" d="M202,-72C208,-72 214,-78 214,-84"/>
<polyline fill="none" stroke="black" points="214,-84 214,-96 "/>
<path fill="none" stroke="black" d="M214,-96C214,-102 208,-108 202,-108"/>
<text text-anchor="start" x="68.5" y="-87.2333" font-family="Times Roman,serif" font-size="14.00">The ideal gas model</text>
</a>
</g>
<!-- IDEAL_GAS&#45;&gt;CLUSTER_EXPANSION -->
<g id="edge2" class="edge"><title>IDEAL_GAS&#45;&gt;CLUSTER_EXPANSION</title>
<path fill="none" stroke="black" d="M137,-71.8314C137,-64.131 137,-54.9743 137,-46.4166"/>
<polygon fill="black" stroke="black" points="140.5,-46.4132 137,-36.4133 133.5,-46.4133 140.5,-46.4132"/>
</g>
</g>
</svg>
