<?xml version="1.0" encoding="UTF-8" standalone="no"?>
<!DOCTYPE svg PUBLIC "-//W3C//DTD SVG 1.1//EN"
 "http://www.w3.org/Graphics/SVG/1.1/DTD/svg11.dtd">
<!-- Generated by graphviz version 2.36.0 (20140111.2315)
 -->
<!-- Title: %3 Pages: 1 -->
<svg width="236pt" height="116pt"
 viewBox="0.00 0.00 236.00 116.00" xmlns="http://www.w3.org/2000/svg" xmlns:xlink="http://www.w3.org/1999/xlink">
<g id="graph0" class="graph" transform="scale(1 1) rotate(0) translate(4 112)">
<title>%3</title>
<!-- CLUSTER_EXPANSION -->
<g id="node1" class="node"><title>CLUSTER_EXPANSION</title>
<g id="a_node1"><a xlink:href="CLUSTER_EXPANSION.html" xlink:title=" The Cluster expansion approximation " target="_top">
<path fill="none" stroke="blue" stroke-width="2" d="M216.5,-36C216.5,-36 11.5,-36 11.5,-36 5.5,-36 -0.5,-30 -0.5,-24 -0.5,-24 -0.5,-12 -0.5,-12 -0.5,-6 5.5,-0 11.5,-0 11.5,-0 216.5,-0 216.5,-0 222.5,-0 228.5,-6 228.5,-12 228.5,-12 228.5,-24 228.5,-24 228.5,-30 222.5,-36 216.5,-36"/>
<text text-anchor="start" x="7" y="-14.3" font-family="Times,serif" font-size="14.00"> The Cluster expansion approximation </text>
</a>
</g>
</g>
<!-- IDEAL_GAS -->
<g id="node2" class="node"><title>IDEAL_GAS</title>
<g id="a_node2"><a xlink:href="IDEAL_GAS.html" xlink:title=" The ideal gas model " target="_top">
<path fill="none" stroke="black" d="M169.25,-108C169.25,-108 58.75,-108 58.75,-108 52.75,-108 46.75,-102 46.75,-96 46.75,-96 46.75,-84 46.75,-84 46.75,-78 52.75,-72 58.75,-72 58.75,-72 169.25,-72 169.25,-72 175.25,-72 181.25,-78 181.25,-84 181.25,-84 181.25,-96 181.25,-96 181.25,-102 175.25,-108 169.25,-108"/>
<text text-anchor="start" x="54.5" y="-86.3" font-family="Times,serif" font-size="14.00"> The ideal gas model </text>
</a>
</g>
</g>
<!-- IDEAL_GAS&#45;&gt;CLUSTER_EXPANSION -->
<g id="edge1" class="edge"><title>IDEAL_GAS&#45;&gt;CLUSTER_EXPANSION</title>
<path fill="none" stroke="black" d="M114,-71.6966C114,-63.9827 114,-54.7125 114,-46.1124"/>
<polygon fill="black" stroke="black" points="117.5,-46.1043 114,-36.1043 110.5,-46.1044 117.5,-46.1043"/>
</g>
</g>
</svg>
