<?xml version="1.0" encoding="UTF-8" standalone="no"?>
<!DOCTYPE svg PUBLIC "-//W3C//DTD SVG 1.1//EN"
 "http://www.w3.org/Graphics/SVG/1.1/DTD/svg11.dtd">
<!-- Generated by graphviz version 2.26.3 (20100126.1600)
 -->
<!-- Title: _anonymous_0 Pages: 1 -->
<svg width="292pt" height="116pt"
 viewBox="0.00 0.00 292.00 116.00" xmlns="http://www.w3.org/2000/svg" xmlns:xlink="http://www.w3.org/1999/xlink">
<g id="graph1" class="graph" transform="scale(1 1) rotate(0) translate(4 112)">
<title>_anonymous_0</title>
<!-- CLUSTER_EXPANSION -->
<g id="node1" class="node"><title>CLUSTER_EXPANSION</title>
<a xlink:href="CLUSTER_EXPANSION.html" xlink:title=" The Cluster expansion approximation " target="_top">
<polyline fill="none" stroke="blue" stroke-width="2" points="272,-36 12,-36 "/>
<path fill="none" stroke="blue" stroke-width="2" d="M12,-36C6,-36 9.4739e-14,-30 7.57912e-14,-24"/>
<polyline fill="none" stroke="blue" stroke-width="2" points="7.57912e-14,-24 3.78956e-14,-12 "/>
<path fill="none" stroke="blue" stroke-width="2" d="M3.78956e-14,-12C1.89478e-14,-6 6,-1.74633e-14 12,-1.71631e-14"/>
<polyline fill="none" stroke="blue" stroke-width="2" points="12,-1.71631e-14 272,-4.15317e-15 "/>
<path fill="none" stroke="blue" stroke-width="2" d="M272,-4.15317e-15C278,-3.85294e-15 284,-6 284,-12"/>
<polyline fill="none" stroke="blue" stroke-width="2" points="284,-12 284,-24 "/>
<path fill="none" stroke="blue" stroke-width="2" d="M284,-24C284,-30 278,-36 272,-36"/>
<text text-anchor="start" x="8.5" y="-15.2333" font-family="Times Roman,serif" font-size="14.00"> The Cluster expansion approximation </text>
</a>
</g>
<!-- IDEAL_GAS -->
<g id="node2" class="node"><title>IDEAL_GAS</title>
<a xlink:href="IDEAL_GAS.html" xlink:title=" The ideal gas model " target="_top">
<polyline fill="none" stroke="black" points="211,-108 73,-108 "/>
<path fill="none" stroke="black" d="M73,-108C67,-108 61,-102 61,-96"/>
<polyline fill="none" stroke="black" points="61,-96 61,-84 "/>
<path fill="none" stroke="black" d="M61,-84C61,-78 67,-72 73,-72"/>
<polyline fill="none" stroke="black" points="73,-72 211,-72 "/>
<path fill="none" stroke="black" d="M211,-72C217,-72 223,-78 223,-84"/>
<polyline fill="none" stroke="black" points="223,-84 223,-96 "/>
<path fill="none" stroke="black" d="M223,-96C223,-102 217,-108 211,-108"/>
<text text-anchor="start" x="69" y="-87.2333" font-family="Times Roman,serif" font-size="14.00"> The ideal gas model </text>
</a>
</g>
<!-- IDEAL_GAS&#45;&gt;CLUSTER_EXPANSION -->
<g id="edge2" class="edge"><title>IDEAL_GAS&#45;&gt;CLUSTER_EXPANSION</title>
<path fill="none" stroke="black" d="M142,-71.8314C142,-64.131 142,-54.9743 142,-46.4166"/>
<polygon fill="black" stroke="black" points="145.5,-46.4132 142,-36.4133 138.5,-46.4133 145.5,-46.4132"/>
</g>
</g>
</svg>
