<?xml version="1.0" encoding="UTF-8" standalone="no"?>
<!DOCTYPE svg PUBLIC "-//W3C//DTD SVG 1.1//EN"
 "http://www.w3.org/Graphics/SVG/1.1/DTD/svg11.dtd">
<!-- Generated by graphviz version 2.26.3 (20100126.1600)
 -->
<!-- Title: _anonymous_0 Pages: 1 -->
<svg width="210pt" height="116pt"
 viewBox="0.00 0.00 210.00 116.00" xmlns="http://www.w3.org/2000/svg" xmlns:xlink="http://www.w3.org/1999/xlink">
<g id="graph1" class="graph" transform="scale(1 1) rotate(0) translate(4 112)">
<title>_anonymous_0</title>
<!-- COMPOUND_POISSON_PROCESS -->
<g id="node1" class="node"><title>COMPOUND_POISSON_PROCESS</title>
<a xlink:href="COMPOUND_POISSON_PROCESS.html" xlink:title="Compound Poisson Process" target="_top">
<polyline fill="none" stroke="blue" stroke-width="2" points="190,-36 12,-36 "/>
<path fill="none" stroke="blue" stroke-width="2" d="M12,-36C6,-36 5.92119e-14,-30 4.73695e-14,-24"/>
<polyline fill="none" stroke="blue" stroke-width="2" points="4.73695e-14,-24 2.36848e-14,-12 "/>
<path fill="none" stroke="blue" stroke-width="2" d="M2.36848e-14,-12C1.18424e-14,-6 6,-1.73415e-14 12,-1.69194e-14"/>
<polyline fill="none" stroke="blue" stroke-width="2" points="12,-1.69194e-14 190,-4.39692e-15 "/>
<path fill="none" stroke="blue" stroke-width="2" d="M190,-4.39692e-15C196,-3.97482e-15 202,-6 202,-12"/>
<polyline fill="none" stroke="blue" stroke-width="2" points="202,-12 202,-24 "/>
<path fill="none" stroke="blue" stroke-width="2" d="M202,-24C202,-30 196,-36 190,-36"/>
<text text-anchor="start" x="8" y="-15.2333" font-family="Times Roman,serif" font-size="14.00">Compound Poisson Process</text>
</a>
</g>
<!-- POISSON_PROCESS -->
<g id="node2" class="node"><title>POISSON_PROCESS</title>
<a xlink:href="POISSON_PROCESS.html" xlink:title="Poisson Process" target="_top">
<polyline fill="none" stroke="black" points="151,-108 51,-108 "/>
<path fill="none" stroke="black" d="M51,-108C45,-108 39,-102 39,-96"/>
<polyline fill="none" stroke="black" points="39,-96 39,-84 "/>
<path fill="none" stroke="black" d="M39,-84C39,-78 45,-72 51,-72"/>
<polyline fill="none" stroke="black" points="51,-72 151,-72 "/>
<path fill="none" stroke="black" d="M151,-72C157,-72 163,-78 163,-84"/>
<polyline fill="none" stroke="black" points="163,-84 163,-96 "/>
<path fill="none" stroke="black" d="M163,-96C163,-102 157,-108 151,-108"/>
<text text-anchor="start" x="47" y="-87.2333" font-family="Times Roman,serif" font-size="14.00">Poisson Process</text>
</a>
</g>
<!-- POISSON_PROCESS&#45;&gt;COMPOUND_POISSON_PROCESS -->
<g id="edge2" class="edge"><title>POISSON_PROCESS&#45;&gt;COMPOUND_POISSON_PROCESS</title>
<path fill="none" stroke="black" d="M101,-71.8314C101,-64.131 101,-54.9743 101,-46.4166"/>
<polygon fill="black" stroke="black" points="104.5,-46.4132 101,-36.4133 97.5001,-46.4133 104.5,-46.4132"/>
</g>
</g>
</svg>
