<?xml version="1.0" encoding="UTF-8" standalone="no"?>
<!DOCTYPE svg PUBLIC "-//W3C//DTD SVG 1.1//EN"
 "http://www.w3.org/Graphics/SVG/1.1/DTD/svg11.dtd">
<!-- Generated by graphviz version 2.28.0 (20110509.1545)
 -->
<!-- Title: _anonymous_0 Pages: 1 -->
<svg width="180pt" height="116pt"
 viewBox="0.00 0.00 180.00 116.00" xmlns="http://www.w3.org/2000/svg" xmlns:xlink="http://www.w3.org/1999/xlink">
<g id="graph1" class="graph" transform="scale(1 1) rotate(0) translate(4 112)">
<title>_anonymous_0</title>
<!-- COMPOUND_POISSON_PROCESS -->
<g id="node1" class="node"><title>COMPOUND_POISSON_PROCESS</title>
<a xlink:href="COMPOUND_POISSON_PROCESS.html" xlink:title="Compound Poisson Process" target="_top">
<polyline fill="none" stroke="blue" stroke-width="2" points="160,-36 12,-36 "/>
<path fill="none" stroke="blue" stroke-width="2" d="M12,-36C6,-36 0,-30 0,-24"/>
<polyline fill="none" stroke="blue" stroke-width="2" points="0,-24 0,-12 "/>
<path fill="none" stroke="blue" stroke-width="2" d="M0,-12C0,-6 6,-0 12,-0"/>
<polyline fill="none" stroke="blue" stroke-width="2" points="12,-0 160,-0 "/>
<path fill="none" stroke="blue" stroke-width="2" d="M160,-0C166,-0 172,-6 172,-12"/>
<polyline fill="none" stroke="blue" stroke-width="2" points="172,-12 172,-24 "/>
<path fill="none" stroke="blue" stroke-width="2" d="M172,-24C172,-30 166,-36 160,-36"/>
<text text-anchor="start" x="8.5" y="-12.5" font-family="Times,serif" font-size="14.00">Compound Poisson Process</text>
</a>
</g>
<!-- POISSON_PROCESS -->
<g id="node2" class="node"><title>POISSON_PROCESS</title>
<a xlink:href="POISSON_PROCESS.html" xlink:title="Poisson Process" target="_top">
<polyline fill="none" stroke="black" points="127,-108 45,-108 "/>
<path fill="none" stroke="black" d="M45,-108C39,-108 33,-102 33,-96"/>
<polyline fill="none" stroke="black" points="33,-96 33,-84 "/>
<path fill="none" stroke="black" d="M33,-84C33,-78 39,-72 45,-72"/>
<polyline fill="none" stroke="black" points="45,-72 127,-72 "/>
<path fill="none" stroke="black" d="M127,-72C133,-72 139,-78 139,-84"/>
<polyline fill="none" stroke="black" points="139,-84 139,-96 "/>
<path fill="none" stroke="black" d="M139,-96C139,-102 133,-108 127,-108"/>
<text text-anchor="start" x="41.5" y="-84.5" font-family="Times,serif" font-size="14.00">Poisson Process</text>
</a>
</g>
<!-- POISSON_PROCESS&#45;&gt;COMPOUND_POISSON_PROCESS -->
<g id="edge2" class="edge"><title>POISSON_PROCESS&#45;&gt;COMPOUND_POISSON_PROCESS</title>
<path fill="none" stroke="black" d="M86,-71.6966C86,-63.9827 86,-54.7125 86,-46.1124"/>
<polygon fill="black" stroke="black" points="89.5001,-46.1043 86,-36.1043 82.5001,-46.1044 89.5001,-46.1043"/>
</g>
</g>
</svg>
