<?xml version="1.0" encoding="UTF-8" standalone="no"?>
<!DOCTYPE svg PUBLIC "-//W3C//DTD SVG 1.1//EN"
 "http://www.w3.org/Graphics/SVG/1.1/DTD/svg11.dtd">
<!-- Generated by graphviz version 2.26.3 (20100126.1600)
 -->
<!-- Title: _anonymous_0 Pages: 1 -->
<svg width="220pt" height="116pt"
 viewBox="0.00 0.00 220.00 116.00" xmlns="http://www.w3.org/2000/svg" xmlns:xlink="http://www.w3.org/1999/xlink">
<g id="graph1" class="graph" transform="scale(1 1) rotate(0) translate(4 112)">
<title>_anonymous_0</title>
<!-- COMPOUND_POISSON_PROCESS -->
<g id="node1" class="node"><title>COMPOUND_POISSON_PROCESS</title>
<a xlink:href="COMPOUND_POISSON_PROCESS.html" xlink:title=" Compound Poisson Process " target="_top">
<polyline fill="none" stroke="blue" stroke-width="2" points="200,-36 12,-36 "/>
<path fill="none" stroke="blue" stroke-width="2" d="M12,-36C6,-36 5.92119e-14,-30 4.73695e-14,-24"/>
<polyline fill="none" stroke="blue" stroke-width="2" points="4.73695e-14,-24 2.36848e-14,-12 "/>
<path fill="none" stroke="blue" stroke-width="2" d="M2.36848e-14,-12C1.18424e-14,-6 6,-1.73614e-14 12,-1.69592e-14"/>
<polyline fill="none" stroke="blue" stroke-width="2" points="12,-1.69592e-14 200,-4.3571e-15 "/>
<path fill="none" stroke="blue" stroke-width="2" d="M200,-4.3571e-15C206,-3.95491e-15 212,-6 212,-12"/>
<polyline fill="none" stroke="blue" stroke-width="2" points="212,-12 212,-24 "/>
<path fill="none" stroke="blue" stroke-width="2" d="M212,-24C212,-30 206,-36 200,-36"/>
<text text-anchor="start" x="8.5" y="-15.2333" font-family="Times Roman,serif" font-size="14.00"> Compound Poisson Process </text>
</a>
</g>
<!-- POISSON_PROCESS -->
<g id="node2" class="node"><title>POISSON_PROCESS</title>
<a xlink:href="POISSON_PROCESS.html" xlink:title=" Poisson Process " target="_top">
<polyline fill="none" stroke="black" points="161,-108 51,-108 "/>
<path fill="none" stroke="black" d="M51,-108C45,-108 39,-102 39,-96"/>
<polyline fill="none" stroke="black" points="39,-96 39,-84 "/>
<path fill="none" stroke="black" d="M39,-84C39,-78 45,-72 51,-72"/>
<polyline fill="none" stroke="black" points="51,-72 161,-72 "/>
<path fill="none" stroke="black" d="M161,-72C167,-72 173,-78 173,-84"/>
<polyline fill="none" stroke="black" points="173,-84 173,-96 "/>
<path fill="none" stroke="black" d="M173,-96C173,-102 167,-108 161,-108"/>
<text text-anchor="start" x="47.5" y="-87.2333" font-family="Times Roman,serif" font-size="14.00"> Poisson Process </text>
</a>
</g>
<!-- POISSON_PROCESS&#45;&gt;COMPOUND_POISSON_PROCESS -->
<g id="edge2" class="edge"><title>POISSON_PROCESS&#45;&gt;COMPOUND_POISSON_PROCESS</title>
<path fill="none" stroke="black" d="M106,-71.8314C106,-64.131 106,-54.9743 106,-46.4166"/>
<polygon fill="black" stroke="black" points="109.5,-46.4132 106,-36.4133 102.5,-46.4133 109.5,-46.4132"/>
</g>
</g>
</svg>
