<?xml version="1.0" encoding="UTF-8" standalone="no"?>
<!DOCTYPE svg PUBLIC "-//W3C//DTD SVG 1.1//EN"
 "http://www.w3.org/Graphics/SVG/1.1/DTD/svg11.dtd">
<!-- Generated by graphviz version 2.36.0 (20140111.2315)
 -->
<!-- Title: %3 Pages: 1 -->
<svg width="182pt" height="116pt"
 viewBox="0.00 0.00 182.00 116.00" xmlns="http://www.w3.org/2000/svg" xmlns:xlink="http://www.w3.org/1999/xlink">
<g id="graph0" class="graph" transform="scale(1 1) rotate(0) translate(4 112)">
<title>%3</title>
<!-- COMPOUND_POISSON_PROCESS -->
<g id="node1" class="node"><title>COMPOUND_POISSON_PROCESS</title>
<g id="a_node1"><a xlink:href="COMPOUND_POISSON_PROCESS.html" xlink:title=" Compound Poisson Process " target="_top">
<path fill="none" stroke="blue" stroke-width="2" d="M162.5,-36C162.5,-36 11.5,-36 11.5,-36 5.5,-36 -0.5,-30 -0.5,-24 -0.5,-24 -0.5,-12 -0.5,-12 -0.5,-6 5.5,-0 11.5,-0 11.5,-0 162.5,-0 162.5,-0 168.5,-0 174.5,-6 174.5,-12 174.5,-12 174.5,-24 174.5,-24 174.5,-30 168.5,-36 162.5,-36"/>
<text text-anchor="start" x="7" y="-14.3" font-family="Times,serif" font-size="14.00"> Compound Poisson Process </text>
</a>
</g>
</g>
<!-- POISSON_PROCESS -->
<g id="node2" class="node"><title>POISSON_PROCESS</title>
<g id="a_node2"><a xlink:href="POISSON_PROCESS.html" xlink:title=" Poisson Process " target="_top">
<path fill="none" stroke="black" d="M130.25,-108C130.25,-108 43.75,-108 43.75,-108 37.75,-108 31.75,-102 31.75,-96 31.75,-96 31.75,-84 31.75,-84 31.75,-78 37.75,-72 43.75,-72 43.75,-72 130.25,-72 130.25,-72 136.25,-72 142.25,-78 142.25,-84 142.25,-84 142.25,-96 142.25,-96 142.25,-102 136.25,-108 130.25,-108"/>
<text text-anchor="start" x="39.5" y="-86.3" font-family="Times,serif" font-size="14.00"> Poisson Process </text>
</a>
</g>
</g>
<!-- POISSON_PROCESS&#45;&gt;COMPOUND_POISSON_PROCESS -->
<g id="edge1" class="edge"><title>POISSON_PROCESS&#45;&gt;COMPOUND_POISSON_PROCESS</title>
<path fill="none" stroke="black" d="M87,-71.6966C87,-63.9827 87,-54.7125 87,-46.1124"/>
<polygon fill="black" stroke="black" points="90.5001,-46.1043 87,-36.1043 83.5001,-46.1044 90.5001,-46.1043"/>
</g>
</g>
</svg>
