<?xml version="1.0" encoding="UTF-8" standalone="no"?>
<!DOCTYPE svg PUBLIC "-//W3C//DTD SVG 1.1//EN"
 "http://www.w3.org/Graphics/SVG/1.1/DTD/svg11.dtd">
<!-- Generated by graphviz version 2.26.3 (20100126.1600)
 -->
<!-- Title: _anonymous_0 Pages: 1 -->
<svg width="250pt" height="188pt"
 viewBox="0.00 0.00 250.00 188.00" xmlns="http://www.w3.org/2000/svg" xmlns:xlink="http://www.w3.org/1999/xlink">
<g id="graph1" class="graph" transform="scale(1 1) rotate(0) translate(4 184)">
<title>_anonymous_0</title>
<!-- CONDITIONAL_EXPECTATION -->
<g id="node1" class="node"><title>CONDITIONAL_EXPECTATION</title>
<a xlink:href="CONDITIONAL_EXPECTATION.html" xlink:title=" Conditional expectation " target="_top">
<polyline fill="none" stroke="blue" stroke-width="2" points="204,-108 38,-108 "/>
<path fill="none" stroke="blue" stroke-width="2" d="M38,-108C32,-108 26,-102 26,-96"/>
<polyline fill="none" stroke="blue" stroke-width="2" points="26,-96 26,-84 "/>
<path fill="none" stroke="blue" stroke-width="2" d="M26,-84C26,-78 32,-72 38,-72"/>
<polyline fill="none" stroke="blue" stroke-width="2" points="38,-72 204,-72 "/>
<path fill="none" stroke="blue" stroke-width="2" d="M204,-72C210,-72 216,-78 216,-84"/>
<polyline fill="none" stroke="blue" stroke-width="2" points="216,-84 216,-96 "/>
<path fill="none" stroke="blue" stroke-width="2" d="M216,-96C216,-102 210,-108 204,-108"/>
<text text-anchor="start" x="34.5" y="-87.2333" font-family="Times Roman,serif" font-size="14.00"> Conditional expectation </text>
</a>
</g>
<!-- GEOMETRIC_RANDOM_VARIABLE -->
<g id="node2" class="node"><title>GEOMETRIC_RANDOM_VARIABLE</title>
<a xlink:href="GEOMETRIC_RANDOM_VARIABLE.html" xlink:title=" The geometric random variable " target="_top">
<polyline fill="none" stroke="black" points="230,-36 12,-36 "/>
<path fill="none" stroke="black" d="M12,-36C6,-36 8.28967e-14,-30 6.63173e-14,-24"/>
<polyline fill="none" stroke="black" points="6.63173e-14,-24 3.31587e-14,-12 "/>
<path fill="none" stroke="black" d="M3.31587e-14,-12C1.65793e-14,-6 6,-1.74112e-14 12,-1.70589e-14"/>
<polyline fill="none" stroke="black" points="12,-1.70589e-14 230,-4.25738e-15 "/>
<path fill="none" stroke="black" d="M230,-4.25738e-15C236,-3.90505e-15 242,-6 242,-12"/>
<polyline fill="none" stroke="black" points="242,-12 242,-24 "/>
<path fill="none" stroke="black" d="M242,-24C242,-30 236,-36 230,-36"/>
<text text-anchor="start" x="8.5" y="-15.2333" font-family="Times Roman,serif" font-size="14.00"> The geometric random variable </text>
</a>
</g>
<!-- CONDITIONAL_EXPECTATION&#45;&gt;GEOMETRIC_RANDOM_VARIABLE -->
<g id="edge2" class="edge"><title>CONDITIONAL_EXPECTATION&#45;&gt;GEOMETRIC_RANDOM_VARIABLE</title>
<path fill="none" stroke="black" d="M121,-71.8314C121,-64.131 121,-54.9743 121,-46.4166"/>
<polygon fill="black" stroke="black" points="124.5,-46.4132 121,-36.4133 117.5,-46.4133 124.5,-46.4132"/>
</g>
<!-- EXPECTATION -->
<g id="node4" class="node"><title>EXPECTATION</title>
<a xlink:href="EXPECTATION.html" xlink:title=" Expectation &#160;" target="_top">
<polyline fill="none" stroke="black" points="165,-180 77,-180 "/>
<path fill="none" stroke="black" d="M77,-180C71,-180 65,-174 65,-168"/>
<polyline fill="none" stroke="black" points="65,-168 65,-156 "/>
<path fill="none" stroke="black" d="M65,-156C65,-150 71,-144 77,-144"/>
<polyline fill="none" stroke="black" points="77,-144 165,-144 "/>
<path fill="none" stroke="black" d="M165,-144C171,-144 177,-150 177,-156"/>
<polyline fill="none" stroke="black" points="177,-156 177,-168 "/>
<path fill="none" stroke="black" d="M177,-168C177,-174 171,-180 165,-180"/>
<text text-anchor="start" x="73" y="-159.233" font-family="Times Roman,serif" font-size="14.00"> Expectation &#160;</text>
</a>
</g>
<!-- EXPECTATION&#45;&gt;CONDITIONAL_EXPECTATION -->
<g id="edge4" class="edge"><title>EXPECTATION&#45;&gt;CONDITIONAL_EXPECTATION</title>
<path fill="none" stroke="black" d="M121,-143.831C121,-136.131 121,-126.974 121,-118.417"/>
<polygon fill="black" stroke="black" points="124.5,-118.413 121,-108.413 117.5,-118.413 124.5,-118.413"/>
</g>
</g>
</svg>
