<?xml version="1.0" encoding="UTF-8" standalone="no"?>
<!DOCTYPE svg PUBLIC "-//W3C//DTD SVG 1.1//EN"
 "http://www.w3.org/Graphics/SVG/1.1/DTD/svg11.dtd">
<!-- Generated by graphviz version 2.26.3 (20100126.1600)
 -->
<!-- Title: _anonymous_0 Pages: 1 -->
<svg width="475pt" height="260pt"
 viewBox="0.00 0.00 475.00 260.00" xmlns="http://www.w3.org/2000/svg" xmlns:xlink="http://www.w3.org/1999/xlink">
<g id="graph1" class="graph" transform="scale(1 1) rotate(0) translate(4 256)">
<title>_anonymous_0</title>
<!-- CONDITIONAL_PROBABILITY -->
<g id="node1" class="node"><title>CONDITIONAL_PROBABILITY</title>
<a xlink:href="CONDITIONAL_PROBABILITY.html" xlink:title="Conditional probability" target="_top">
<polyline fill="none" stroke="blue" stroke-width="2" points="401,-180 253,-180 "/>
<path fill="none" stroke="blue" stroke-width="2" d="M253,-180C247,-180 241,-174 241,-168"/>
<polyline fill="none" stroke="blue" stroke-width="2" points="241,-168 241,-156 "/>
<path fill="none" stroke="blue" stroke-width="2" d="M241,-156C241,-150 247,-144 253,-144"/>
<polyline fill="none" stroke="blue" stroke-width="2" points="253,-144 401,-144 "/>
<path fill="none" stroke="blue" stroke-width="2" d="M401,-144C407,-144 413,-150 413,-156"/>
<polyline fill="none" stroke="blue" stroke-width="2" points="413,-156 413,-168 "/>
<path fill="none" stroke="blue" stroke-width="2" d="M413,-168C413,-174 407,-180 401,-180"/>
<text text-anchor="start" x="249" y="-159.233" font-family="Times Roman,serif" font-size="14.00">Conditional probability</text>
</a>
</g>
<!-- INDEPENDENT_RANDOM_VARIABLES -->
<g id="node2" class="node"><title>INDEPENDENT_RANDOM_VARIABLES</title>
<a xlink:href="INDEPENDENT_RANDOM_VARIABLES.html" xlink:title="Independent random variables" target="_top">
<polyline fill="none" stroke="black" points="216,-108 12,-108 "/>
<path fill="none" stroke="black" d="M12,-108C6,-108 8.28967e-14,-102 6.63173e-14,-96"/>
<polyline fill="none" stroke="black" points="6.63173e-14,-96 3.31587e-14,-84 "/>
<path fill="none" stroke="black" d="M3.31587e-14,-84C1.65793e-14,-78 6,-72 12,-72"/>
<polyline fill="none" stroke="black" points="12,-72 216,-72 "/>
<path fill="none" stroke="black" d="M216,-72C222,-72 228,-78 228,-84"/>
<polyline fill="none" stroke="black" points="228,-84 228,-96 "/>
<path fill="none" stroke="black" d="M228,-96C228,-102 222,-108 216,-108"/>
<text text-anchor="start" x="8.5" y="-87.2333" font-family="Times Roman,serif" font-size="14.00">Independent random variables</text>
</a>
</g>
<!-- CONDITIONAL_PROBABILITY&#45;&gt;INDEPENDENT_RANDOM_VARIABLES -->
<g id="edge2" class="edge"><title>CONDITIONAL_PROBABILITY&#45;&gt;INDEPENDENT_RANDOM_VARIABLES</title>
<path fill="none" stroke="black" d="M273.526,-143.924C244.281,-134.039 207.874,-121.732 177.227,-111.373"/>
<polygon fill="black" stroke="black" points="178.09,-107.97 167.496,-108.083 175.849,-114.601 178.09,-107.97"/>
</g>
<!-- MARKOV_PROPERTY -->
<g id="node4" class="node"><title>MARKOV_PROPERTY</title>
<a xlink:href="MARKOV_PROPERTY.html" xlink:title="The Markov Property" target="_top">
<polyline fill="none" stroke="black" points="396,-108 258,-108 "/>
<path fill="none" stroke="black" d="M258,-108C252,-108 246,-102 246,-96"/>
<polyline fill="none" stroke="black" points="246,-96 246,-84 "/>
<path fill="none" stroke="black" d="M246,-84C246,-78 252,-72 258,-72"/>
<polyline fill="none" stroke="black" points="258,-72 396,-72 "/>
<path fill="none" stroke="black" d="M396,-72C402,-72 408,-78 408,-84"/>
<polyline fill="none" stroke="black" points="408,-84 408,-96 "/>
<path fill="none" stroke="black" d="M408,-96C408,-102 402,-108 396,-108"/>
<text text-anchor="start" x="254" y="-87.2333" font-family="Times Roman,serif" font-size="14.00">The Markov Property</text>
</a>
</g>
<!-- CONDITIONAL_PROBABILITY&#45;&gt;MARKOV_PROPERTY -->
<g id="edge4" class="edge"><title>CONDITIONAL_PROBABILITY&#45;&gt;MARKOV_PROPERTY</title>
<path fill="none" stroke="black" d="M327,-143.831C327,-136.131 327,-126.974 327,-118.417"/>
<polygon fill="black" stroke="black" points="330.5,-118.413 327,-108.413 323.5,-118.413 330.5,-118.413"/>
</g>
<!-- BAYES_THEOREM -->
<g id="node10" class="node"><title>BAYES_THEOREM</title>
<a xlink:href="BAYES_THEOREM.html" xlink:title="Bayes theorem" target="_top">
<polyline fill="none" stroke="black" points="324,-36 226,-36 "/>
<path fill="none" stroke="black" d="M226,-36C220,-36 214,-30 214,-24"/>
<polyline fill="none" stroke="black" points="214,-24 214,-12 "/>
<path fill="none" stroke="black" d="M214,-12C214,-6 220,-1.70647e-14 226,-1.63658e-14"/>
<polyline fill="none" stroke="black" points="226,-1.63658e-14 324,-4.9505e-15 "/>
<path fill="none" stroke="black" d="M324,-4.9505e-15C330,-4.25161e-15 336,-6 336,-12"/>
<polyline fill="none" stroke="black" points="336,-12 336,-24 "/>
<path fill="none" stroke="black" d="M336,-24C336,-30 330,-36 324,-36"/>
<text text-anchor="start" x="222.5" y="-15.2333" font-family="Times Roman,serif" font-size="14.00">Bayes theorem</text>
</a>
</g>
<!-- CONDITIONAL_PROBABILITY&#45;&gt;BAYES_THEOREM -->
<g id="edge10" class="edge"><title>CONDITIONAL_PROBABILITY&#45;&gt;BAYES_THEOREM</title>
<path fill="none" stroke="black" d="M376.529,-143.946C392.325,-135.565 408.022,-123.857 417,-108 424.883,-94.0768 426.083,-85.1718 417,-72 408.078,-59.062 376.691,-46.4677 345.687,-36.7007"/>
<polygon fill="black" stroke="black" points="346.69,-33.3474 336.103,-33.7631 344.639,-40.04 346.69,-33.3474"/>
</g>
<!-- INDEPENDENT_RANDOM_VARIABLES&#45;&gt;BAYES_THEOREM -->
<!-- RANDOM_VARIABLES -->
<g id="node6" class="node"><title>RANDOM_VARIABLES</title>
<a xlink:href="RANDOM_VARIABLES.html" xlink:title="Random variables" target="_top">
<polyline fill="none" stroke="black" points="309,-252 193,-252 "/>
<path fill="none" stroke="black" d="M193,-252C187,-252 181,-246 181,-240"/>
<polyline fill="none" stroke="black" points="181,-240 181,-228 "/>
<path fill="none" stroke="black" d="M181,-228C181,-222 187,-216 193,-216"/>
<polyline fill="none" stroke="black" points="193,-216 309,-216 "/>
<path fill="none" stroke="black" d="M309,-216C315,-216 321,-222 321,-228"/>
<polyline fill="none" stroke="black" points="321,-228 321,-240 "/>
<path fill="none" stroke="black" d="M321,-240C321,-246 315,-252 309,-252"/>
<text text-anchor="start" x="189.5" y="-231.233" font-family="Times Roman,serif" font-size="14.00">Random variables</text>
</a>
</g>
<!-- RANDOM_VARIABLES&#45;&gt;CONDITIONAL_PROBABILITY -->
<g id="edge6" class="edge"><title>RANDOM_VARIABLES&#45;&gt;CONDITIONAL_PROBABILITY</title>
<path fill="none" stroke="black" d="M270.178,-215.831C279.359,-207.134 290.501,-196.578 300.478,-187.127"/>
<polygon fill="black" stroke="black" points="302.976,-189.581 307.828,-180.163 298.161,-184.499 302.976,-189.581"/>
</g>
<!-- VENN_DIAGRAMS -->
<g id="node8" class="node"><title>VENN_DIAGRAMS</title>
<a xlink:href="VENN_DIAGRAMS.html" xlink:title="Basic set theory" target="_top">
<polyline fill="none" stroke="black" points="455,-252 351,-252 "/>
<path fill="none" stroke="black" d="M351,-252C345,-252 339,-246 339,-240"/>
<polyline fill="none" stroke="black" points="339,-240 339,-228 "/>
<path fill="none" stroke="black" d="M339,-228C339,-222 345,-216 351,-216"/>
<polyline fill="none" stroke="black" points="351,-216 455,-216 "/>
<path fill="none" stroke="black" d="M455,-216C461,-216 467,-222 467,-228"/>
<polyline fill="none" stroke="black" points="467,-228 467,-240 "/>
<path fill="none" stroke="black" d="M467,-240C467,-246 461,-252 455,-252"/>
<text text-anchor="start" x="347" y="-231.233" font-family="Times Roman,serif" font-size="14.00">Basic set theory</text>
</a>
</g>
<!-- VENN_DIAGRAMS&#45;&gt;CONDITIONAL_PROBABILITY -->
<g id="edge8" class="edge"><title>VENN_DIAGRAMS&#45;&gt;CONDITIONAL_PROBABILITY</title>
<path fill="none" stroke="black" d="M383.822,-215.831C374.641,-207.134 363.499,-196.578 353.522,-187.127"/>
<polygon fill="black" stroke="black" points="355.839,-184.499 346.172,-180.163 351.024,-189.581 355.839,-184.499"/>
</g>
</g>
</svg>
