<?xml version="1.0" encoding="UTF-8" standalone="no"?>
<!DOCTYPE svg PUBLIC "-//W3C//DTD SVG 1.1//EN"
 "http://www.w3.org/Graphics/SVG/1.1/DTD/svg11.dtd">
<!-- Generated by graphviz version 2.26.3 (20100126.1600)
 -->
<!-- Title: _anonymous_0 Pages: 1 -->
<svg width="402pt" height="260pt"
 viewBox="0.00 0.00 402.00 260.00" xmlns="http://www.w3.org/2000/svg" xmlns:xlink="http://www.w3.org/1999/xlink">
<g id="graph1" class="graph" transform="scale(1 1) rotate(0) translate(4 256)">
<title>_anonymous_0</title>
<!-- CONDITIONAL_PROBABILITY -->
<g id="node1" class="node"><title>CONDITIONAL_PROBABILITY</title>
<a xlink:href="CONDITIONAL_PROBABILITY.html" xlink:title="Conditional probability" target="_top">
<polyline fill="none" stroke="blue" stroke-width="2" points="328,-180 180,-180 "/>
<path fill="none" stroke="blue" stroke-width="2" d="M180,-180C174,-180 168,-174 168,-168"/>
<polyline fill="none" stroke="blue" stroke-width="2" points="168,-168 168,-156 "/>
<path fill="none" stroke="blue" stroke-width="2" d="M168,-156C168,-150 174,-144 180,-144"/>
<polyline fill="none" stroke="blue" stroke-width="2" points="180,-144 328,-144 "/>
<path fill="none" stroke="blue" stroke-width="2" d="M328,-144C334,-144 340,-150 340,-156"/>
<polyline fill="none" stroke="blue" stroke-width="2" points="340,-156 340,-168 "/>
<path fill="none" stroke="blue" stroke-width="2" d="M340,-168C340,-174 334,-180 328,-180"/>
<text text-anchor="start" x="176" y="-159.233" font-family="Times Roman,serif" font-size="14.00">Conditional probability</text>
</a>
</g>
<!-- BAYES_THEOREM -->
<g id="node4" class="node"><title>BAYES_THEOREM</title>
<a xlink:href="BAYES_THEOREM.html" xlink:title="Bayes theorem" target="_top">
<polyline fill="none" stroke="black" points="110,-108 12,-108 "/>
<path fill="none" stroke="black" d="M12,-108C6,-108 4.85538e-14,-102 4.02641e-14,-96"/>
<polyline fill="none" stroke="black" points="4.02641e-14,-96 2.36848e-14,-84 "/>
<path fill="none" stroke="black" d="M2.36848e-14,-84C1.53951e-14,-78 6,-72 12,-72"/>
<polyline fill="none" stroke="black" points="12,-72 110,-72 "/>
<path fill="none" stroke="black" d="M110,-72C116,-72 122,-78 122,-84"/>
<polyline fill="none" stroke="black" points="122,-84 122,-96 "/>
<path fill="none" stroke="black" d="M122,-96C122,-102 116,-108 110,-108"/>
<text text-anchor="start" x="8.5" y="-87.2333" font-family="Times Roman,serif" font-size="14.00">Bayes theorem</text>
</a>
</g>
<!-- CONDITIONAL_PROBABILITY&#45;&gt;BAYES_THEOREM -->
<g id="edge4" class="edge"><title>CONDITIONAL_PROBABILITY&#45;&gt;BAYES_THEOREM</title>
<path fill="none" stroke="black" d="M205.298,-143.831C179.026,-134.031 146.432,-121.871 118.872,-111.589"/>
<polygon fill="black" stroke="black" points="119.944,-108.254 109.352,-108.038 117.498,-114.813 119.944,-108.254"/>
</g>
<!-- INDEPENDENT_RANDOM_VARIABLES -->
<g id="node6" class="node"><title>INDEPENDENT_RANDOM_VARIABLES</title>
<a xlink:href="INDEPENDENT_RANDOM_VARIABLES.html" xlink:title="Independent random variables" target="_top">
<polyline fill="none" stroke="black" points="356,-108 152,-108 "/>
<path fill="none" stroke="black" d="M152,-108C146,-108 140,-102 140,-96"/>
<polyline fill="none" stroke="black" points="140,-96 140,-84 "/>
<path fill="none" stroke="black" d="M140,-84C140,-78 146,-72 152,-72"/>
<polyline fill="none" stroke="black" points="152,-72 356,-72 "/>
<path fill="none" stroke="black" d="M356,-72C362,-72 368,-78 368,-84"/>
<polyline fill="none" stroke="black" points="368,-84 368,-96 "/>
<path fill="none" stroke="black" d="M368,-96C368,-102 362,-108 356,-108"/>
<text text-anchor="start" x="148.5" y="-87.2333" font-family="Times Roman,serif" font-size="14.00">Independent random variables</text>
</a>
</g>
<!-- CONDITIONAL_PROBABILITY&#45;&gt;INDEPENDENT_RANDOM_VARIABLES -->
<g id="edge6" class="edge"><title>CONDITIONAL_PROBABILITY&#45;&gt;INDEPENDENT_RANDOM_VARIABLES</title>
<path fill="none" stroke="black" d="M254,-143.831C254,-136.131 254,-126.974 254,-118.417"/>
<polygon fill="black" stroke="black" points="257.5,-118.413 254,-108.413 250.5,-118.413 257.5,-118.413"/>
</g>
<!-- MARKOV_PROPERTY -->
<g id="node8" class="node"><title>MARKOV_PROPERTY</title>
<a xlink:href="MARKOV_PROPERTY.html" xlink:title="The Markov Property" target="_top">
<polyline fill="none" stroke="black" points="297,-36 159,-36 "/>
<path fill="none" stroke="black" d="M159,-36C153,-36 147,-30 147,-24"/>
<polyline fill="none" stroke="black" points="147,-24 147,-12 "/>
<path fill="none" stroke="black" d="M147,-12C147,-6 153,-1.72372e-14 159,-1.67109e-14"/>
<polyline fill="none" stroke="black" points="159,-1.67109e-14 297,-4.60537e-15 "/>
<path fill="none" stroke="black" d="M297,-4.60537e-15C303,-4.07904e-15 309,-6 309,-12"/>
<polyline fill="none" stroke="black" points="309,-12 309,-24 "/>
<path fill="none" stroke="black" d="M309,-24C309,-30 303,-36 297,-36"/>
<text text-anchor="start" x="155" y="-15.2333" font-family="Times Roman,serif" font-size="14.00">The Markov Property</text>
</a>
</g>
<!-- CONDITIONAL_PROBABILITY&#45;&gt;MARKOV_PROPERTY -->
<g id="edge8" class="edge"><title>CONDITIONAL_PROBABILITY&#45;&gt;MARKOV_PROPERTY</title>
<path fill="none" stroke="black" d="M331.135,-143.981C349.161,-135.99 366.224,-124.499 377,-108 385.749,-94.6039 386.186,-85.1001 377,-72 368.447,-59.8034 340.473,-48.2635 311.036,-39.0068"/>
<polygon fill="black" stroke="black" points="312.036,-35.6528 301.45,-36.0837 309.994,-42.3484 312.036,-35.6528"/>
</g>
<!-- RANDOM_VARIABLES -->
<g id="node2" class="node"><title>RANDOM_VARIABLES</title>
<a xlink:href="RANDOM_VARIABLES.html" xlink:title="Random variables" target="_top">
<polyline fill="none" stroke="black" points="236,-252 120,-252 "/>
<path fill="none" stroke="black" d="M120,-252C114,-252 108,-246 108,-240"/>
<polyline fill="none" stroke="black" points="108,-240 108,-228 "/>
<path fill="none" stroke="black" d="M108,-228C108,-222 114,-216 120,-216"/>
<polyline fill="none" stroke="black" points="120,-216 236,-216 "/>
<path fill="none" stroke="black" d="M236,-216C242,-216 248,-222 248,-228"/>
<polyline fill="none" stroke="black" points="248,-228 248,-240 "/>
<path fill="none" stroke="black" d="M248,-240C248,-246 242,-252 236,-252"/>
<text text-anchor="start" x="116.5" y="-231.233" font-family="Times Roman,serif" font-size="14.00">Random variables</text>
</a>
</g>
<!-- RANDOM_VARIABLES&#45;&gt;CONDITIONAL_PROBABILITY -->
<g id="edge2" class="edge"><title>RANDOM_VARIABLES&#45;&gt;CONDITIONAL_PROBABILITY</title>
<path fill="none" stroke="black" d="M197.178,-215.831C206.359,-207.134 217.501,-196.578 227.478,-187.127"/>
<polygon fill="black" stroke="black" points="229.976,-189.581 234.828,-180.163 225.161,-184.499 229.976,-189.581"/>
</g>
<!-- BAYES_THEOREM&#45;&gt;MARKOV_PROPERTY -->
<!-- VENN_DIAGRAMS -->
<g id="node11" class="node"><title>VENN_DIAGRAMS</title>
<a xlink:href="VENN_DIAGRAMS.html" xlink:title="Basic set theory" target="_top">
<polyline fill="none" stroke="black" points="382,-252 278,-252 "/>
<path fill="none" stroke="black" d="M278,-252C272,-252 266,-246 266,-240"/>
<polyline fill="none" stroke="black" points="266,-240 266,-228 "/>
<path fill="none" stroke="black" d="M266,-228C266,-222 272,-216 278,-216"/>
<polyline fill="none" stroke="black" points="278,-216 382,-216 "/>
<path fill="none" stroke="black" d="M382,-216C388,-216 394,-222 394,-228"/>
<polyline fill="none" stroke="black" points="394,-228 394,-240 "/>
<path fill="none" stroke="black" d="M394,-240C394,-246 388,-252 382,-252"/>
<text text-anchor="start" x="274" y="-231.233" font-family="Times Roman,serif" font-size="14.00">Basic set theory</text>
</a>
</g>
<!-- VENN_DIAGRAMS&#45;&gt;CONDITIONAL_PROBABILITY -->
<g id="edge12" class="edge"><title>VENN_DIAGRAMS&#45;&gt;CONDITIONAL_PROBABILITY</title>
<path fill="none" stroke="black" d="M310.822,-215.831C301.641,-207.134 290.499,-196.578 280.522,-187.127"/>
<polygon fill="black" stroke="black" points="282.839,-184.499 273.172,-180.163 278.024,-189.581 282.839,-184.499"/>
</g>
</g>
</svg>
