<?xml version="1.0" encoding="UTF-8" standalone="no"?>
<!DOCTYPE svg PUBLIC "-//W3C//DTD SVG 1.1//EN"
 "http://www.w3.org/Graphics/SVG/1.1/DTD/svg11.dtd">
<!-- Generated by graphviz version 2.36.0 (20140111.2315)
 -->
<!-- Title: %3 Pages: 1 -->
<svg width="269pt" height="188pt"
 viewBox="0.00 0.00 269.00 188.00" xmlns="http://www.w3.org/2000/svg" xmlns:xlink="http://www.w3.org/1999/xlink">
<g id="graph0" class="graph" transform="scale(1 1) rotate(0) translate(4 184)">
<title>%3</title>
<!-- CONDITIONAL_EXPECTATION -->
<g id="node1" class="node"><title>CONDITIONAL_EXPECTATION</title>
<g id="a_node1"><a xlink:href="CONDITIONAL_EXPECTATION.html" xlink:title=" Conditional expectation " target="_top">
<path fill="none" stroke="blue" stroke-width="2" d="M181,-108C181,-108 51,-108 51,-108 45,-108 39,-102 39,-96 39,-96 39,-84 39,-84 39,-78 45,-72 51,-72 51,-72 181,-72 181,-72 187,-72 193,-78 193,-84 193,-84 193,-96 193,-96 193,-102 187,-108 181,-108"/>
<text text-anchor="start" x="47" y="-86.3" font-family="Times,serif" font-size="14.00"> Conditional expectation </text>
</a>
</g>
</g>
<!-- GEOMETRIC_RANDOM_VARIABLE -->
<g id="node2" class="node"><title>GEOMETRIC_RANDOM_VARIABLE</title>
<g id="a_node2"><a xlink:href="GEOMETRIC_RANDOM_VARIABLE.html" xlink:title=" The geometric random variable " target="_top">
<path fill="none" stroke="black" d="M202.25,-36C202.25,-36 29.75,-36 29.75,-36 23.75,-36 17.75,-30 17.75,-24 17.75,-24 17.75,-12 17.75,-12 17.75,-6 23.75,-0 29.75,-0 29.75,-0 202.25,-0 202.25,-0 208.25,-0 214.25,-6 214.25,-12 214.25,-12 214.25,-24 214.25,-24 214.25,-30 208.25,-36 202.25,-36"/>
<text text-anchor="start" x="25.5" y="-14.3" font-family="Times,serif" font-size="14.00"> The geometric random variable </text>
</a>
</g>
</g>
<!-- CONDITIONAL_EXPECTATION&#45;&gt;GEOMETRIC_RANDOM_VARIABLE -->
<g id="edge1" class="edge"><title>CONDITIONAL_EXPECTATION&#45;&gt;GEOMETRIC_RANDOM_VARIABLE</title>
<path fill="none" stroke="black" d="M116,-71.6966C116,-63.9827 116,-54.7125 116,-46.1124"/>
<polygon fill="black" stroke="black" points="119.5,-46.1043 116,-36.1043 112.5,-46.1044 119.5,-46.1043"/>
</g>
<!-- EXPECTATION -->
<g id="node3" class="node"><title>EXPECTATION</title>
<g id="a_node3"><a xlink:href="EXPECTATION.html" xlink:title=" Expectation &#160;" target="_top">
<path fill="none" stroke="black" d="M80,-180C80,-180 12,-180 12,-180 6,-180 0,-174 0,-168 0,-168 0,-156 0,-156 0,-150 6,-144 12,-144 12,-144 80,-144 80,-144 86,-144 92,-150 92,-156 92,-156 92,-168 92,-168 92,-174 86,-180 80,-180"/>
<text text-anchor="start" x="8" y="-158.3" font-family="Times,serif" font-size="14.00"> Expectation &#160;</text>
</a>
</g>
</g>
<!-- EXPECTATION&#45;&gt;CONDITIONAL_EXPECTATION -->
<g id="edge2" class="edge"><title>EXPECTATION&#45;&gt;CONDITIONAL_EXPECTATION</title>
<path fill="none" stroke="black" d="M63.3034,-143.697C71.865,-135.135 82.3438,-124.656 91.6955,-115.304"/>
<polygon fill="black" stroke="black" points="94.2995,-117.65 98.8957,-108.104 89.3497,-112.701 94.2995,-117.65"/>
</g>
<!-- CONDITIONAL_PROBABILITY -->
<g id="node4" class="node"><title>CONDITIONAL_PROBABILITY</title>
<g id="a_node4"><a xlink:href="CONDITIONAL_PROBABILITY.html" xlink:title=" Conditional probability " target="_top">
<path fill="none" stroke="black" d="M249.25,-180C249.25,-180 122.75,-180 122.75,-180 116.75,-180 110.75,-174 110.75,-168 110.75,-168 110.75,-156 110.75,-156 110.75,-150 116.75,-144 122.75,-144 122.75,-144 249.25,-144 249.25,-144 255.25,-144 261.25,-150 261.25,-156 261.25,-156 261.25,-168 261.25,-168 261.25,-174 255.25,-180 249.25,-180"/>
<text text-anchor="start" x="118.5" y="-158.3" font-family="Times,serif" font-size="14.00"> Conditional probability </text>
</a>
</g>
</g>
<!-- CONDITIONAL_PROBABILITY&#45;&gt;CONDITIONAL_EXPECTATION -->
<g id="edge3" class="edge"><title>CONDITIONAL_PROBABILITY&#45;&gt;CONDITIONAL_EXPECTATION</title>
<path fill="none" stroke="black" d="M168.697,-143.697C160.135,-135.135 149.656,-124.656 140.304,-115.304"/>
<polygon fill="black" stroke="black" points="142.65,-112.701 133.104,-108.104 137.701,-117.65 142.65,-112.701"/>
</g>
</g>
</svg>
