<?xml version="1.0" encoding="UTF-8" standalone="no"?>
<!DOCTYPE svg PUBLIC "-//W3C//DTD SVG 1.1//EN"
 "http://www.w3.org/Graphics/SVG/1.1/DTD/svg11.dtd">
<!-- Generated by graphviz version 2.26.3 (20100126.1600)
 -->
<!-- Title: _anonymous_0 Pages: 1 -->
<svg width="389pt" height="260pt"
 viewBox="0.00 0.00 389.00 260.00" xmlns="http://www.w3.org/2000/svg" xmlns:xlink="http://www.w3.org/1999/xlink">
<g id="graph1" class="graph" transform="scale(1 1) rotate(0) translate(4 256)">
<title>_anonymous_0</title>
<!-- CONDITIONAL_PROBABILITY -->
<g id="node1" class="node"><title>CONDITIONAL_PROBABILITY</title>
<a xlink:href="CONDITIONAL_PROBABILITY.html" xlink:title="Conditional probability" target="_top">
<polyline fill="none" stroke="blue" stroke-width="2" points="315,-180 167,-180 "/>
<path fill="none" stroke="blue" stroke-width="2" d="M167,-180C161,-180 155,-174 155,-168"/>
<polyline fill="none" stroke="blue" stroke-width="2" points="155,-168 155,-156 "/>
<path fill="none" stroke="blue" stroke-width="2" d="M155,-156C155,-150 161,-144 167,-144"/>
<polyline fill="none" stroke="blue" stroke-width="2" points="167,-144 315,-144 "/>
<path fill="none" stroke="blue" stroke-width="2" d="M315,-144C321,-144 327,-150 327,-156"/>
<polyline fill="none" stroke="blue" stroke-width="2" points="327,-156 327,-168 "/>
<path fill="none" stroke="blue" stroke-width="2" d="M327,-168C327,-174 321,-180 315,-180"/>
<text text-anchor="start" x="163" y="-159.233" font-family="Times Roman,serif" font-size="14.00">Conditional probability</text>
</a>
</g>
<!-- MARKOV_PROPERTY -->
<g id="node4" class="node"><title>MARKOV_PROPERTY</title>
<a xlink:href="MARKOV_PROPERTY.html" xlink:title="The Markov Property" target="_top">
<polyline fill="none" stroke="black" points="150,-108 12,-108 "/>
<path fill="none" stroke="black" d="M12,-108C6,-108 5.92119e-14,-102 4.73695e-14,-96"/>
<polyline fill="none" stroke="black" points="4.73695e-14,-96 2.36848e-14,-84 "/>
<path fill="none" stroke="black" d="M2.36848e-14,-84C1.18424e-14,-78 6,-72 12,-72"/>
<polyline fill="none" stroke="black" points="12,-72 150,-72 "/>
<path fill="none" stroke="black" d="M150,-72C156,-72 162,-78 162,-84"/>
<polyline fill="none" stroke="black" points="162,-84 162,-96 "/>
<path fill="none" stroke="black" d="M162,-96C162,-102 156,-108 150,-108"/>
<text text-anchor="start" x="8" y="-87.2333" font-family="Times Roman,serif" font-size="14.00">The Markov Property</text>
</a>
</g>
<!-- CONDITIONAL_PROBABILITY&#45;&gt;MARKOV_PROPERTY -->
<g id="edge4" class="edge"><title>CONDITIONAL_PROBABILITY&#45;&gt;MARKOV_PROPERTY</title>
<path fill="none" stroke="black" d="M200.625,-143.831C179.321,-134.245 153.002,-122.401 130.479,-112.266"/>
<polygon fill="black" stroke="black" points="131.64,-108.95 121.084,-108.038 128.767,-115.333 131.64,-108.95"/>
</g>
<!-- BAYES_THEOREM -->
<g id="node6" class="node"><title>BAYES_THEOREM</title>
<a xlink:href="BAYES_THEOREM.html" xlink:title="Bayes theorem" target="_top">
<polyline fill="none" stroke="black" points="290,-108 192,-108 "/>
<path fill="none" stroke="black" d="M192,-108C186,-108 180,-102 180,-96"/>
<polyline fill="none" stroke="black" points="180,-96 180,-84 "/>
<path fill="none" stroke="black" d="M180,-84C180,-78 186,-72 192,-72"/>
<polyline fill="none" stroke="black" points="192,-72 290,-72 "/>
<path fill="none" stroke="black" d="M290,-72C296,-72 302,-78 302,-84"/>
<polyline fill="none" stroke="black" points="302,-84 302,-96 "/>
<path fill="none" stroke="black" d="M302,-96C302,-102 296,-108 290,-108"/>
<text text-anchor="start" x="188.5" y="-87.2333" font-family="Times Roman,serif" font-size="14.00">Bayes theorem</text>
</a>
</g>
<!-- CONDITIONAL_PROBABILITY&#45;&gt;BAYES_THEOREM -->
<g id="edge6" class="edge"><title>CONDITIONAL_PROBABILITY&#45;&gt;BAYES_THEOREM</title>
<path fill="none" stroke="black" d="M241,-143.831C241,-136.131 241,-126.974 241,-118.417"/>
<polygon fill="black" stroke="black" points="244.5,-118.413 241,-108.413 237.5,-118.413 244.5,-118.413"/>
</g>
<!-- INDEPENDENT_RANDOM_VARIABLES -->
<g id="node8" class="node"><title>INDEPENDENT_RANDOM_VARIABLES</title>
<a xlink:href="INDEPENDENT_RANDOM_VARIABLES.html" xlink:title="Independent random variables" target="_top">
<polyline fill="none" stroke="black" points="307,-36 103,-36 "/>
<path fill="none" stroke="black" d="M103,-36C97,-36 91,-30 91,-24"/>
<polyline fill="none" stroke="black" points="91,-24 91,-12 "/>
<path fill="none" stroke="black" d="M91,-12C91,-6 97,-1.73896e-14 103,-1.70156e-14"/>
<polyline fill="none" stroke="black" points="103,-1.70156e-14 307,-4.30065e-15 "/>
<path fill="none" stroke="black" d="M307,-4.30065e-15C313,-3.92668e-15 319,-6 319,-12"/>
<polyline fill="none" stroke="black" points="319,-12 319,-24 "/>
<path fill="none" stroke="black" d="M319,-24C319,-30 313,-36 307,-36"/>
<text text-anchor="start" x="99.5" y="-15.2333" font-family="Times Roman,serif" font-size="14.00">Independent random variables</text>
</a>
</g>
<!-- CONDITIONAL_PROBABILITY&#45;&gt;INDEPENDENT_RANDOM_VARIABLES -->
<g id="edge8" class="edge"><title>CONDITIONAL_PROBABILITY&#45;&gt;INDEPENDENT_RANDOM_VARIABLES</title>
<path fill="none" stroke="black" d="M276.435,-143.884C289.834,-135.033 303.62,-123.014 311,-108 318.058,-93.6409 319.36,-85.6419 311,-72 302.811,-58.6382 290.164,-48.4533 276.421,-40.7357"/>
<polygon fill="black" stroke="black" points="277.759,-37.4877 267.268,-36.012 274.549,-43.7082 277.759,-37.4877"/>
</g>
<!-- RANDOM_VARIABLES -->
<g id="node2" class="node"><title>RANDOM_VARIABLES</title>
<a xlink:href="RANDOM_VARIABLES.html" xlink:title="Random variables" target="_top">
<polyline fill="none" stroke="black" points="223,-252 107,-252 "/>
<path fill="none" stroke="black" d="M107,-252C101,-252 95,-246 95,-240"/>
<polyline fill="none" stroke="black" points="95,-240 95,-228 "/>
<path fill="none" stroke="black" d="M95,-228C95,-222 101,-216 107,-216"/>
<polyline fill="none" stroke="black" points="107,-216 223,-216 "/>
<path fill="none" stroke="black" d="M223,-216C229,-216 235,-222 235,-228"/>
<polyline fill="none" stroke="black" points="235,-228 235,-240 "/>
<path fill="none" stroke="black" d="M235,-240C235,-246 229,-252 223,-252"/>
<text text-anchor="start" x="103.5" y="-231.233" font-family="Times Roman,serif" font-size="14.00">Random variables</text>
</a>
</g>
<!-- RANDOM_VARIABLES&#45;&gt;CONDITIONAL_PROBABILITY -->
<g id="edge2" class="edge"><title>RANDOM_VARIABLES&#45;&gt;CONDITIONAL_PROBABILITY</title>
<path fill="none" stroke="black" d="M184.178,-215.831C193.359,-207.134 204.501,-196.578 214.478,-187.127"/>
<polygon fill="black" stroke="black" points="216.976,-189.581 221.828,-180.163 212.161,-184.499 216.976,-189.581"/>
</g>
<!-- MARKOV_PROPERTY&#45;&gt;INDEPENDENT_RANDOM_VARIABLES -->
<!-- VENN_DIAGRAMS -->
<g id="node11" class="node"><title>VENN_DIAGRAMS</title>
<a xlink:href="VENN_DIAGRAMS.html" xlink:title="Basic set theory" target="_top">
<polyline fill="none" stroke="black" points="369,-252 265,-252 "/>
<path fill="none" stroke="black" d="M265,-252C259,-252 253,-246 253,-240"/>
<polyline fill="none" stroke="black" points="253,-240 253,-228 "/>
<path fill="none" stroke="black" d="M253,-228C253,-222 259,-216 265,-216"/>
<polyline fill="none" stroke="black" points="265,-216 369,-216 "/>
<path fill="none" stroke="black" d="M369,-216C375,-216 381,-222 381,-228"/>
<polyline fill="none" stroke="black" points="381,-228 381,-240 "/>
<path fill="none" stroke="black" d="M381,-240C381,-246 375,-252 369,-252"/>
<text text-anchor="start" x="261" y="-231.233" font-family="Times Roman,serif" font-size="14.00">Basic set theory</text>
</a>
</g>
<!-- VENN_DIAGRAMS&#45;&gt;CONDITIONAL_PROBABILITY -->
<g id="edge12" class="edge"><title>VENN_DIAGRAMS&#45;&gt;CONDITIONAL_PROBABILITY</title>
<path fill="none" stroke="black" d="M297.822,-215.831C288.641,-207.134 277.499,-196.578 267.522,-187.127"/>
<polygon fill="black" stroke="black" points="269.839,-184.499 260.172,-180.163 265.024,-189.581 269.839,-184.499"/>
</g>
</g>
</svg>
