<?xml version="1.0" encoding="UTF-8" standalone="no"?>
<!DOCTYPE svg PUBLIC "-//W3C//DTD SVG 1.1//EN"
 "http://www.w3.org/Graphics/SVG/1.1/DTD/svg11.dtd">
<!-- Generated by graphviz version 2.26.3 (20100126.1600)
 -->
<!-- Title: _anonymous_0 Pages: 1 -->
<svg width="240pt" height="188pt"
 viewBox="0.00 0.00 240.00 188.00" xmlns="http://www.w3.org/2000/svg" xmlns:xlink="http://www.w3.org/1999/xlink">
<g id="graph1" class="graph" transform="scale(1 1) rotate(0) translate(4 184)">
<title>_anonymous_0</title>
<!-- CONDITIONAL_EXPECTATION -->
<g id="node1" class="node"><title>CONDITIONAL_EXPECTATION</title>
<a xlink:href="CONDITIONAL_EXPECTATION.html" xlink:title="Conditional expectation" target="_top">
<polyline fill="none" stroke="blue" stroke-width="2" points="194,-108 38,-108 "/>
<path fill="none" stroke="blue" stroke-width="2" d="M38,-108C32,-108 26,-102 26,-96"/>
<polyline fill="none" stroke="blue" stroke-width="2" points="26,-96 26,-84 "/>
<path fill="none" stroke="blue" stroke-width="2" d="M26,-84C26,-78 32,-72 38,-72"/>
<polyline fill="none" stroke="blue" stroke-width="2" points="38,-72 194,-72 "/>
<path fill="none" stroke="blue" stroke-width="2" d="M194,-72C200,-72 206,-78 206,-84"/>
<polyline fill="none" stroke="blue" stroke-width="2" points="206,-84 206,-96 "/>
<path fill="none" stroke="blue" stroke-width="2" d="M206,-96C206,-102 200,-108 194,-108"/>
<text text-anchor="start" x="34" y="-87.2333" font-family="Times Roman,serif" font-size="14.00">Conditional expectation</text>
</a>
</g>
<!-- GEOMETRIC_RANDOM_VARIABLE -->
<g id="node4" class="node"><title>GEOMETRIC_RANDOM_VARIABLE</title>
<a xlink:href="GEOMETRIC_RANDOM_VARIABLE.html" xlink:title="The geometric random variable" target="_top">
<polyline fill="none" stroke="black" points="220,-36 12,-36 "/>
<path fill="none" stroke="black" d="M12,-36C6,-36 8.28967e-14,-30 6.63173e-14,-24"/>
<polyline fill="none" stroke="black" points="6.63173e-14,-24 3.31587e-14,-12 "/>
<path fill="none" stroke="black" d="M3.31587e-14,-12C1.65793e-14,-6 6,-1.7396e-14 12,-1.70285e-14"/>
<polyline fill="none" stroke="black" points="12,-1.70285e-14 220,-4.28776e-15 "/>
<path fill="none" stroke="black" d="M220,-4.28776e-15C226,-3.92024e-15 232,-6 232,-12"/>
<polyline fill="none" stroke="black" points="232,-12 232,-24 "/>
<path fill="none" stroke="black" d="M232,-24C232,-30 226,-36 220,-36"/>
<text text-anchor="start" x="8" y="-15.2333" font-family="Times Roman,serif" font-size="14.00">The geometric random variable</text>
</a>
</g>
<!-- CONDITIONAL_EXPECTATION&#45;&gt;GEOMETRIC_RANDOM_VARIABLE -->
<g id="edge4" class="edge"><title>CONDITIONAL_EXPECTATION&#45;&gt;GEOMETRIC_RANDOM_VARIABLE</title>
<path fill="none" stroke="black" d="M116,-71.8314C116,-64.131 116,-54.9743 116,-46.4166"/>
<polygon fill="black" stroke="black" points="119.5,-46.4132 116,-36.4133 112.5,-46.4133 119.5,-46.4132"/>
</g>
<!-- EXPECTATION -->
<g id="node2" class="node"><title>EXPECTATION</title>
<a xlink:href="EXPECTATION.html" xlink:title="Expectation " target="_top">
<polyline fill="none" stroke="black" points="156,-180 76,-180 "/>
<path fill="none" stroke="black" d="M76,-180C70,-180 64,-174 64,-168"/>
<polyline fill="none" stroke="black" points="64,-168 64,-156 "/>
<path fill="none" stroke="black" d="M64,-156C64,-150 70,-144 76,-144"/>
<polyline fill="none" stroke="black" points="76,-144 156,-144 "/>
<path fill="none" stroke="black" d="M156,-144C162,-144 168,-150 168,-156"/>
<polyline fill="none" stroke="black" points="168,-156 168,-168 "/>
<path fill="none" stroke="black" d="M168,-168C168,-174 162,-180 156,-180"/>
<text text-anchor="start" x="72.5" y="-159.233" font-family="Times Roman,serif" font-size="14.00">Expectation </text>
</a>
</g>
<!-- EXPECTATION&#45;&gt;CONDITIONAL_EXPECTATION -->
<g id="edge2" class="edge"><title>EXPECTATION&#45;&gt;CONDITIONAL_EXPECTATION</title>
<path fill="none" stroke="black" d="M116,-143.831C116,-136.131 116,-126.974 116,-118.417"/>
<polygon fill="black" stroke="black" points="119.5,-118.413 116,-108.413 112.5,-118.413 119.5,-118.413"/>
</g>
</g>
</svg>
