<?xml version="1.0" encoding="UTF-8" standalone="no"?>
<!DOCTYPE svg PUBLIC "-//W3C//DTD SVG 1.1//EN"
 "http://www.w3.org/Graphics/SVG/1.1/DTD/svg11.dtd">
<!-- Generated by graphviz version 2.26.3 (20100126.1600)
 -->
<!-- Title: _anonymous_0 Pages: 1 -->
<svg width="541pt" height="332pt"
 viewBox="0.00 0.00 540.89 332.00" xmlns="http://www.w3.org/2000/svg" xmlns:xlink="http://www.w3.org/1999/xlink">
<g id="graph1" class="graph" transform="scale(1 1) rotate(0) translate(4 328)">
<title>_anonymous_0</title>
<!-- CONDITIONAL_PROBABILITY -->
<g id="node1" class="node"><title>CONDITIONAL_PROBABILITY</title>
<a xlink:href="CONDITIONAL_PROBABILITY.html" xlink:title=" Conditional probability " target="_top">
<polyline fill="none" stroke="blue" stroke-width="2" points="445,-252 287,-252 "/>
<path fill="none" stroke="blue" stroke-width="2" d="M287,-252C281,-252 275,-246 275,-240"/>
<polyline fill="none" stroke="blue" stroke-width="2" points="275,-240 275,-228 "/>
<path fill="none" stroke="blue" stroke-width="2" d="M275,-228C275,-222 281,-216 287,-216"/>
<polyline fill="none" stroke="blue" stroke-width="2" points="287,-216 445,-216 "/>
<path fill="none" stroke="blue" stroke-width="2" d="M445,-216C451,-216 457,-222 457,-228"/>
<polyline fill="none" stroke="blue" stroke-width="2" points="457,-228 457,-240 "/>
<path fill="none" stroke="blue" stroke-width="2" d="M457,-240C457,-246 451,-252 445,-252"/>
<text text-anchor="start" x="283.5" y="-231.233" font-family="Times Roman,serif" font-size="14.00"> Conditional probability </text>
</a>
</g>
<!-- BAYES_THEOREM -->
<g id="node4" class="node"><title>BAYES_THEOREM</title>
<a xlink:href="BAYES_THEOREM.html" xlink:title=" Bayes theorem " target="_top">
<polyline fill="none" stroke="black" points="118,-180 12,-180 "/>
<path fill="none" stroke="black" d="M12,-180C6,-180 4.73695e-14,-174 3.78956e-14,-168"/>
<polyline fill="none" stroke="black" points="3.78956e-14,-168 1.89478e-14,-156 "/>
<path fill="none" stroke="black" d="M1.89478e-14,-156C9.4739e-15,-150 6,-144 12,-144"/>
<polyline fill="none" stroke="black" points="12,-144 118,-144 "/>
<path fill="none" stroke="black" d="M118,-144C124,-144 130,-150 130,-156"/>
<polyline fill="none" stroke="black" points="130,-156 130,-168 "/>
<path fill="none" stroke="black" d="M130,-168C130,-174 124,-180 118,-180"/>
<text text-anchor="start" x="8" y="-159.233" font-family="Times Roman,serif" font-size="14.00"> Bayes theorem </text>
</a>
</g>
<!-- CONDITIONAL_PROBABILITY&#45;&gt;BAYES_THEOREM -->
<g id="edge4" class="edge"><title>CONDITIONAL_PROBABILITY&#45;&gt;BAYES_THEOREM</title>
<path fill="none" stroke="black" d="M289.793,-215.973C248.217,-206.114 195.578,-193.593 140.341,-180.318"/>
<polygon fill="black" stroke="black" points="140.907,-176.854 130.366,-177.919 139.27,-183.66 140.907,-176.854"/>
</g>
<!-- CONDITIONAL_EXPECTATION -->
<g id="node6" class="node"><title>CONDITIONAL_EXPECTATION</title>
<a xlink:href="CONDITIONAL_EXPECTATION.html" xlink:title=" Conditional expectation " target="_top">
<polyline fill="none" stroke="black" points="326,-180 160,-180 "/>
<path fill="none" stroke="black" d="M160,-180C154,-180 148,-174 148,-168"/>
<polyline fill="none" stroke="black" points="148,-168 148,-156 "/>
<path fill="none" stroke="black" d="M148,-156C148,-150 154,-144 160,-144"/>
<polyline fill="none" stroke="black" points="160,-144 326,-144 "/>
<path fill="none" stroke="black" d="M326,-144C332,-144 338,-150 338,-156"/>
<polyline fill="none" stroke="black" points="338,-156 338,-168 "/>
<path fill="none" stroke="black" d="M338,-168C338,-174 332,-180 326,-180"/>
<text text-anchor="start" x="156.5" y="-159.233" font-family="Times Roman,serif" font-size="14.00"> Conditional expectation </text>
</a>
</g>
<!-- CONDITIONAL_PROBABILITY&#45;&gt;CONDITIONAL_EXPECTATION -->
<g id="edge6" class="edge"><title>CONDITIONAL_PROBABILITY&#45;&gt;CONDITIONAL_EXPECTATION</title>
<path fill="none" stroke="black" d="M334.962,-215.831C319.229,-206.622 299.939,-195.33 283.096,-185.471"/>
<polygon fill="black" stroke="black" points="284.426,-182.194 274.028,-180.163 280.89,-188.235 284.426,-182.194"/>
</g>
<!-- INDEPENDENT_RANDOM_VARIABLES -->
<g id="node8" class="node"><title>INDEPENDENT_RANDOM_VARIABLES</title>
<a xlink:href="INDEPENDENT_RANDOM_VARIABLES.html" xlink:title=" Independent random variables " target="_top">
<polyline fill="none" stroke="black" points="265,-108 53,-108 "/>
<path fill="none" stroke="black" d="M53,-108C47,-108 41,-102 41,-96"/>
<polyline fill="none" stroke="black" points="41,-96 41,-84 "/>
<path fill="none" stroke="black" d="M41,-84C41,-78 47,-72 53,-72"/>
<polyline fill="none" stroke="black" points="53,-72 265,-72 "/>
<path fill="none" stroke="black" d="M265,-72C271,-72 277,-78 277,-84"/>
<polyline fill="none" stroke="black" points="277,-84 277,-96 "/>
<path fill="none" stroke="black" d="M277,-96C277,-102 271,-108 265,-108"/>
<text text-anchor="start" x="49" y="-87.2333" font-family="Times Roman,serif" font-size="14.00"> Independent random variables </text>
</a>
</g>
<!-- CONDITIONAL_PROBABILITY&#45;&gt;INDEPENDENT_RANDOM_VARIABLES -->
<g id="edge8" class="edge"><title>CONDITIONAL_PROBABILITY&#45;&gt;INDEPENDENT_RANDOM_VARIABLES</title>
<path fill="none" stroke="black" d="M367.303,-215.645C367.688,-195.486 365.061,-163.404 347,-144 334.813,-130.907 300.821,-119.446 265.033,-110.49"/>
<polygon fill="black" stroke="black" points="265.451,-106.99 254.908,-108.031 263.799,-113.792 265.451,-106.99"/>
</g>
<!-- JOINT_PROBABILITY_DISTRIBUTION -->
<g id="node11" class="node"><title>JOINT_PROBABILITY_DISTRIBUTION</title>
<a xlink:href="JOINT_PROBABILITY_DISTRIBUTION.html" xlink:title=" Joint probability distribution " target="_top">
<polyline fill="none" stroke="black" points="501,-108 307,-108 "/>
<path fill="none" stroke="black" d="M307,-108C301,-108 295,-102 295,-96"/>
<polyline fill="none" stroke="black" points="295,-96 295,-84 "/>
<path fill="none" stroke="black" d="M295,-84C295,-78 301,-72 307,-72"/>
<polyline fill="none" stroke="black" points="307,-72 501,-72 "/>
<path fill="none" stroke="black" d="M501,-72C507,-72 513,-78 513,-84"/>
<polyline fill="none" stroke="black" points="513,-84 513,-96 "/>
<path fill="none" stroke="black" d="M513,-96C513,-102 507,-108 501,-108"/>
<text text-anchor="start" x="303" y="-87.2333" font-family="Times Roman,serif" font-size="14.00"> Joint probability distribution </text>
</a>
</g>
<!-- CONDITIONAL_PROBABILITY&#45;&gt;JOINT_PROBABILITY_DISTRIBUTION -->
<g id="edge12" class="edge"><title>CONDITIONAL_PROBABILITY&#45;&gt;JOINT_PROBABILITY_DISTRIBUTION</title>
<path fill="none" stroke="black" d="M370.813,-215.762C377.323,-191.093 388.995,-146.86 396.618,-117.973"/>
<polygon fill="black" stroke="black" points="400.059,-118.652 399.226,-108.09 393.291,-116.866 400.059,-118.652"/>
</g>
<!-- MARKOV_PROPERTY -->
<g id="node15" class="node"><title>MARKOV_PROPERTY</title>
<a xlink:href="MARKOV_PROPERTY.html" xlink:title=" The Markov Property " target="_top">
<polyline fill="none" stroke="black" points="424,-36 276,-36 "/>
<path fill="none" stroke="black" d="M276,-36C270,-36 264,-30 264,-24"/>
<polyline fill="none" stroke="black" points="264,-24 264,-12 "/>
<path fill="none" stroke="black" d="M264,-12C264,-6 270,-1.72678e-14 276,-1.67721e-14"/>
<polyline fill="none" stroke="black" points="276,-1.67721e-14 424,-4.54417e-15 "/>
<path fill="none" stroke="black" d="M424,-4.54417e-15C430,-4.04844e-15 436,-6 436,-12"/>
<polyline fill="none" stroke="black" points="436,-12 436,-24 "/>
<path fill="none" stroke="black" d="M436,-24C436,-30 430,-36 424,-36"/>
<text text-anchor="start" x="272.5" y="-15.2333" font-family="Times Roman,serif" font-size="14.00"> The Markov Property </text>
</a>
</g>
<!-- CONDITIONAL_PROBABILITY&#45;&gt;MARKOV_PROPERTY -->
<g id="edge16" class="edge"><title>CONDITIONAL_PROBABILITY&#45;&gt;MARKOV_PROPERTY</title>
<path fill="none" stroke="black" d="M407.623,-215.811C466.934,-187.313 564.17,-129.439 522,-72 512.011,-58.3949 479.91,-46.6687 446.101,-37.6531"/>
<polygon fill="black" stroke="black" points="446.616,-34.1715 436.059,-35.0633 444.868,-40.9497 446.616,-34.1715"/>
</g>
<!-- RANDOM_VARIABLES -->
<g id="node2" class="node"><title>RANDOM_VARIABLES</title>
<a xlink:href="RANDOM_VARIABLES.html" xlink:title=" Random variables " target="_top">
<polyline fill="none" stroke="black" points="348,-324 224,-324 "/>
<path fill="none" stroke="black" d="M224,-324C218,-324 212,-318 212,-312"/>
<polyline fill="none" stroke="black" points="212,-312 212,-300 "/>
<path fill="none" stroke="black" d="M212,-300C212,-294 218,-288 224,-288"/>
<polyline fill="none" stroke="black" points="224,-288 348,-288 "/>
<path fill="none" stroke="black" d="M348,-288C354,-288 360,-294 360,-300"/>
<polyline fill="none" stroke="black" points="360,-300 360,-312 "/>
<path fill="none" stroke="black" d="M360,-312C360,-318 354,-324 348,-324"/>
<text text-anchor="start" x="220" y="-303.233" font-family="Times Roman,serif" font-size="14.00"> Random variables </text>
</a>
</g>
<!-- RANDOM_VARIABLES&#45;&gt;CONDITIONAL_PROBABILITY -->
<g id="edge2" class="edge"><title>RANDOM_VARIABLES&#45;&gt;CONDITIONAL_PROBABILITY</title>
<path fill="none" stroke="black" d="M306.187,-287.831C315.851,-279.134 327.58,-268.578 338.082,-259.127"/>
<polygon fill="black" stroke="black" points="340.728,-261.454 345.819,-252.163 336.045,-256.251 340.728,-261.454"/>
</g>
<!-- BAYES_THEOREM&#45;&gt;INDEPENDENT_RANDOM_VARIABLES -->
<!-- INDEPENDENT_RANDOM_VARIABLES&#45;&gt;MARKOV_PROPERTY -->
<!-- VENN_DIAGRAMS -->
<g id="node13" class="node"><title>VENN_DIAGRAMS</title>
<a xlink:href="VENN_DIAGRAMS.html" xlink:title=" Basic set theory " target="_top">
<polyline fill="none" stroke="black" points="504,-324 390,-324 "/>
<path fill="none" stroke="black" d="M390,-324C384,-324 378,-318 378,-312"/>
<polyline fill="none" stroke="black" points="378,-312 378,-300 "/>
<path fill="none" stroke="black" d="M378,-300C378,-294 384,-288 390,-288"/>
<polyline fill="none" stroke="black" points="390,-288 504,-288 "/>
<path fill="none" stroke="black" d="M504,-288C510,-288 516,-294 516,-300"/>
<polyline fill="none" stroke="black" points="516,-300 516,-312 "/>
<path fill="none" stroke="black" d="M516,-312C516,-318 510,-324 504,-324"/>
<text text-anchor="start" x="386.5" y="-303.233" font-family="Times Roman,serif" font-size="14.00"> Basic set theory </text>
</a>
</g>
<!-- VENN_DIAGRAMS&#45;&gt;CONDITIONAL_PROBABILITY -->
<g id="edge14" class="edge"><title>VENN_DIAGRAMS&#45;&gt;CONDITIONAL_PROBABILITY</title>
<path fill="none" stroke="black" d="M426.56,-287.831C416.68,-279.048 404.668,-268.371 393.955,-258.849"/>
<polygon fill="black" stroke="black" points="396.233,-256.191 386.433,-252.163 391.582,-261.422 396.233,-256.191"/>
</g>
</g>
</svg>
