<?xml version="1.0" encoding="UTF-8" standalone="no"?>
<!DOCTYPE svg PUBLIC "-//W3C//DTD SVG 1.1//EN"
 "http://www.w3.org/Graphics/SVG/1.1/DTD/svg11.dtd">
<!-- Generated by graphviz version 2.36.0 (20140111.2315)
 -->
<!-- Title: %3 Pages: 1 -->
<svg width="498pt" height="332pt"
 viewBox="0.00 0.00 497.98 332.00" xmlns="http://www.w3.org/2000/svg" xmlns:xlink="http://www.w3.org/1999/xlink">
<g id="graph0" class="graph" transform="scale(1 1) rotate(0) translate(4 328)">
<title>%3</title>
<!-- CONDITIONAL_PROBABILITY -->
<g id="node1" class="node"><title>CONDITIONAL_PROBABILITY</title>
<g id="a_node1"><a xlink:href="CONDITIONAL_PROBABILITY.html" xlink:title=" Conditional probability " target="_top">
<path fill="none" stroke="blue" stroke-width="2" d="M407.25,-252C407.25,-252 280.75,-252 280.75,-252 274.75,-252 268.75,-246 268.75,-240 268.75,-240 268.75,-228 268.75,-228 268.75,-222 274.75,-216 280.75,-216 280.75,-216 407.25,-216 407.25,-216 413.25,-216 419.25,-222 419.25,-228 419.25,-228 419.25,-240 419.25,-240 419.25,-246 413.25,-252 407.25,-252"/>
<text text-anchor="start" x="276.5" y="-230.3" font-family="Times,serif" font-size="14.00"> Conditional probability </text>
</a>
</g>
</g>
<!-- CONDITIONAL_EXPECTATION -->
<g id="node2" class="node"><title>CONDITIONAL_EXPECTATION</title>
<g id="a_node2"><a xlink:href="CONDITIONAL_EXPECTATION.html" xlink:title=" Conditional expectation " target="_top">
<path fill="none" stroke="black" d="M142,-180C142,-180 12,-180 12,-180 6,-180 0,-174 0,-168 0,-168 0,-156 0,-156 0,-150 6,-144 12,-144 12,-144 142,-144 142,-144 148,-144 154,-150 154,-156 154,-156 154,-168 154,-168 154,-174 148,-180 142,-180"/>
<text text-anchor="start" x="8" y="-158.3" font-family="Times,serif" font-size="14.00"> Conditional expectation </text>
</a>
</g>
</g>
<!-- CONDITIONAL_PROBABILITY&#45;&gt;CONDITIONAL_EXPECTATION -->
<g id="edge1" class="edge"><title>CONDITIONAL_PROBABILITY&#45;&gt;CONDITIONAL_EXPECTATION</title>
<path fill="none" stroke="black" d="M279.026,-215.966C240.666,-205.909 191.949,-193.136 151.967,-182.654"/>
<polygon fill="black" stroke="black" points="152.826,-179.261 142.266,-180.111 151.051,-186.032 152.826,-179.261"/>
</g>
<!-- MARKOV_PROPERTY -->
<g id="node3" class="node"><title>MARKOV_PROPERTY</title>
<g id="a_node3"><a xlink:href="MARKOV_PROPERTY.html" xlink:title=" The Markov Property " target="_top">
<path fill="none" stroke="black" d="M303.25,-180C303.25,-180 184.75,-180 184.75,-180 178.75,-180 172.75,-174 172.75,-168 172.75,-168 172.75,-156 172.75,-156 172.75,-150 178.75,-144 184.75,-144 184.75,-144 303.25,-144 303.25,-144 309.25,-144 315.25,-150 315.25,-156 315.25,-156 315.25,-168 315.25,-168 315.25,-174 309.25,-180 303.25,-180"/>
<text text-anchor="start" x="180.5" y="-158.3" font-family="Times,serif" font-size="14.00"> The Markov Property </text>
</a>
</g>
</g>
<!-- CONDITIONAL_PROBABILITY&#45;&gt;MARKOV_PROPERTY -->
<g id="edge2" class="edge"><title>CONDITIONAL_PROBABILITY&#45;&gt;MARKOV_PROPERTY</title>
<path fill="none" stroke="black" d="M319.537,-215.876C306.704,-206.893 290.804,-195.763 276.906,-186.034"/>
<polygon fill="black" stroke="black" points="278.756,-183.057 268.557,-180.19 274.742,-188.792 278.756,-183.057"/>
</g>
<!-- INDEPENDENT_RANDOM_VARIABLES -->
<g id="node5" class="node"><title>INDEPENDENT_RANDOM_VARIABLES</title>
<g id="a_node5"><a xlink:href="INDEPENDENT_RANDOM_VARIABLES.html" xlink:title=" Independent random variables " target="_top">
<path fill="none" stroke="black" d="M262.25,-108C262.25,-108 97.75,-108 97.75,-108 91.75,-108 85.75,-102 85.75,-96 85.75,-96 85.75,-84 85.75,-84 85.75,-78 91.75,-72 97.75,-72 97.75,-72 262.25,-72 262.25,-72 268.25,-72 274.25,-78 274.25,-84 274.25,-84 274.25,-96 274.25,-96 274.25,-102 268.25,-108 262.25,-108"/>
<text text-anchor="start" x="93.5" y="-86.3" font-family="Times,serif" font-size="14.00"> Independent random variables </text>
</a>
</g>
</g>
<!-- CONDITIONAL_PROBABILITY&#45;&gt;INDEPENDENT_RANDOM_VARIABLES -->
<g id="edge4" class="edge"><title>CONDITIONAL_PROBABILITY&#45;&gt;INDEPENDENT_RANDOM_VARIABLES</title>
<path fill="none" stroke="black" d="M344.751,-215.774C344.669,-196.086 341.535,-164.01 324,-144 311.704,-129.969 295.36,-119.649 278.101,-112.058"/>
<polygon fill="black" stroke="black" points="279.021,-108.653 268.439,-108.116 276.376,-115.135 279.021,-108.653"/>
</g>
<!-- JOINT_PROBABILITY_DISTRIBUTION -->
<g id="node6" class="node"><title>JOINT_PROBABILITY_DISTRIBUTION</title>
<g id="a_node6"><a xlink:href="JOINT_PROBABILITY_DISTRIBUTION.html" xlink:title=" Joint probability distribution " target="_top">
<path fill="none" stroke="black" d="M459.25,-108C459.25,-108 304.75,-108 304.75,-108 298.75,-108 292.75,-102 292.75,-96 292.75,-96 292.75,-84 292.75,-84 292.75,-78 298.75,-72 304.75,-72 304.75,-72 459.25,-72 459.25,-72 465.25,-72 471.25,-78 471.25,-84 471.25,-84 471.25,-96 471.25,-96 471.25,-102 465.25,-108 459.25,-108"/>
<text text-anchor="start" x="300.5" y="-86.3" font-family="Times,serif" font-size="14.00"> Joint probability distribution </text>
</a>
</g>
</g>
<!-- CONDITIONAL_PROBABILITY&#45;&gt;JOINT_PROBABILITY_DISTRIBUTION -->
<g id="edge6" class="edge"><title>CONDITIONAL_PROBABILITY&#45;&gt;JOINT_PROBABILITY_DISTRIBUTION</title>
<path fill="none" stroke="black" d="M348.584,-215.871C355.089,-191.564 367.063,-146.819 374.771,-118.013"/>
<polygon fill="black" stroke="black" points="378.196,-118.754 377.4,-108.189 371.434,-116.945 378.196,-118.754"/>
</g>
<!-- BAYES_THEOREM -->
<g id="node7" class="node"><title>BAYES_THEOREM</title>
<g id="a_node7"><a xlink:href="BAYES_THEOREM.html" xlink:title=" Bayes theorem " target="_top">
<path fill="none" stroke="black" d="M380.5,-36C380.5,-36 299.5,-36 299.5,-36 293.5,-36 287.5,-30 287.5,-24 287.5,-24 287.5,-12 287.5,-12 287.5,-6 293.5,-0 299.5,-0 299.5,-0 380.5,-0 380.5,-0 386.5,-0 392.5,-6 392.5,-12 392.5,-12 392.5,-24 392.5,-24 392.5,-30 386.5,-36 380.5,-36"/>
<text text-anchor="start" x="295" y="-14.3" font-family="Times,serif" font-size="14.00"> Bayes theorem </text>
</a>
</g>
</g>
<!-- CONDITIONAL_PROBABILITY&#45;&gt;BAYES_THEOREM -->
<g id="edge7" class="edge"><title>CONDITIONAL_PROBABILITY&#45;&gt;BAYES_THEOREM</title>
<path fill="none" stroke="black" d="M378.038,-215.801C429.837,-187.294 518.573,-127.847 480,-72 462.494,-46.6544 431.188,-33.4173 402.613,-26.5095"/>
<polygon fill="black" stroke="black" points="403.165,-23.0473 392.647,-24.3206 401.663,-29.8843 403.165,-23.0473"/>
</g>
<!-- CONDITIONAL_EXPECTATION&#45;&gt;INDEPENDENT_RANDOM_VARIABLES -->
<!-- RANDOM_VARIABLES -->
<g id="node4" class="node"><title>RANDOM_VARIABLES</title>
<g id="a_node4"><a xlink:href="RANDOM_VARIABLES.html" xlink:title=" Random variables " target="_top">
<path fill="none" stroke="black" d="M326.25,-324C326.25,-324 227.75,-324 227.75,-324 221.75,-324 215.75,-318 215.75,-312 215.75,-312 215.75,-300 215.75,-300 215.75,-294 221.75,-288 227.75,-288 227.75,-288 326.25,-288 326.25,-288 332.25,-288 338.25,-294 338.25,-300 338.25,-300 338.25,-312 338.25,-312 338.25,-318 332.25,-324 326.25,-324"/>
<text text-anchor="start" x="223.5" y="-302.3" font-family="Times,serif" font-size="14.00"> Random variables </text>
</a>
</g>
</g>
<!-- RANDOM_VARIABLES&#45;&gt;CONDITIONAL_PROBABILITY -->
<g id="edge3" class="edge"><title>RANDOM_VARIABLES&#45;&gt;CONDITIONAL_PROBABILITY</title>
<path fill="none" stroke="black" d="M293.562,-287.697C301.675,-279.22 311.588,-268.864 320.471,-259.583"/>
<polygon fill="black" stroke="black" points="323.243,-261.749 327.629,-252.104 318.186,-256.908 323.243,-261.749"/>
</g>
<!-- INDEPENDENT_RANDOM_VARIABLES&#45;&gt;BAYES_THEOREM -->
<!-- VENN_DIAGRAMS -->
<g id="node8" class="node"><title>VENN_DIAGRAMS</title>
<g id="a_node8"><a xlink:href="VENN_DIAGRAMS.html" xlink:title=" Basic set theory " target="_top">
<path fill="none" stroke="black" d="M455.25,-324C455.25,-324 368.75,-324 368.75,-324 362.75,-324 356.75,-318 356.75,-312 356.75,-312 356.75,-300 356.75,-300 356.75,-294 362.75,-288 368.75,-288 368.75,-288 455.25,-288 455.25,-288 461.25,-288 467.25,-294 467.25,-300 467.25,-300 467.25,-312 467.25,-312 467.25,-318 461.25,-324 455.25,-324"/>
<text text-anchor="start" x="364.5" y="-302.3" font-family="Times,serif" font-size="14.00"> Basic set theory </text>
</a>
</g>
</g>
<!-- VENN_DIAGRAMS&#45;&gt;CONDITIONAL_PROBABILITY -->
<g id="edge9" class="edge"><title>VENN_DIAGRAMS&#45;&gt;CONDITIONAL_PROBABILITY</title>
<path fill="none" stroke="black" d="M395.191,-287.697C386.874,-279.135 376.695,-268.656 367.61,-259.304"/>
<polygon fill="black" stroke="black" points="370.094,-256.838 360.616,-252.104 365.073,-261.716 370.094,-256.838"/>
</g>
</g>
</svg>
