<?xml version="1.0" encoding="UTF-8" standalone="no"?>
<!DOCTYPE svg PUBLIC "-//W3C//DTD SVG 1.1//EN"
 "http://www.w3.org/Graphics/SVG/1.1/DTD/svg11.dtd">
<!-- Generated by graphviz version 2.26.3 (20100126.1600)
 -->
<!-- Title: _anonymous_0 Pages: 1 -->
<svg width="424pt" height="260pt"
 viewBox="0.00 0.00 424.00 260.00" xmlns="http://www.w3.org/2000/svg" xmlns:xlink="http://www.w3.org/1999/xlink">
<g id="graph1" class="graph" transform="scale(1 1) rotate(0) translate(4 256)">
<title>_anonymous_0</title>
<!-- CONDITIONAL_PROBABILITY -->
<g id="node1" class="node"><title>CONDITIONAL_PROBABILITY</title>
<a xlink:href="CONDITIONAL_PROBABILITY.html" xlink:title=" Conditional probability " target="_top">
<polyline fill="none" stroke="blue" stroke-width="2" points="345,-180 187,-180 "/>
<path fill="none" stroke="blue" stroke-width="2" d="M187,-180C181,-180 175,-174 175,-168"/>
<polyline fill="none" stroke="blue" stroke-width="2" points="175,-168 175,-156 "/>
<path fill="none" stroke="blue" stroke-width="2" d="M175,-156C175,-150 181,-144 187,-144"/>
<polyline fill="none" stroke="blue" stroke-width="2" points="187,-144 345,-144 "/>
<path fill="none" stroke="blue" stroke-width="2" d="M345,-144C351,-144 357,-150 357,-156"/>
<polyline fill="none" stroke="blue" stroke-width="2" points="357,-156 357,-168 "/>
<path fill="none" stroke="blue" stroke-width="2" d="M357,-168C357,-174 351,-180 345,-180"/>
<text text-anchor="start" x="183.5" y="-159.233" font-family="Times Roman,serif" font-size="14.00"> Conditional probability </text>
</a>
</g>
<!-- BAYES_THEOREM -->
<g id="node4" class="node"><title>BAYES_THEOREM</title>
<a xlink:href="BAYES_THEOREM.html" xlink:title=" Bayes theorem " target="_top">
<polyline fill="none" stroke="black" points="118,-108 12,-108 "/>
<path fill="none" stroke="black" d="M12,-108C6,-108 4.73695e-14,-102 3.78956e-14,-96"/>
<polyline fill="none" stroke="black" points="3.78956e-14,-96 1.89478e-14,-84 "/>
<path fill="none" stroke="black" d="M1.89478e-14,-84C9.4739e-15,-78 6,-72 12,-72"/>
<polyline fill="none" stroke="black" points="12,-72 118,-72 "/>
<path fill="none" stroke="black" d="M118,-72C124,-72 130,-78 130,-84"/>
<polyline fill="none" stroke="black" points="130,-84 130,-96 "/>
<path fill="none" stroke="black" d="M130,-96C130,-102 124,-108 118,-108"/>
<text text-anchor="start" x="8" y="-87.2333" font-family="Times Roman,serif" font-size="14.00"> Bayes theorem </text>
</a>
</g>
<!-- CONDITIONAL_PROBABILITY&#45;&gt;BAYES_THEOREM -->
<g id="edge4" class="edge"><title>CONDITIONAL_PROBABILITY&#45;&gt;BAYES_THEOREM</title>
<path fill="none" stroke="black" d="M215.539,-143.924C188.061,-134.081 153.883,-121.839 125.041,-111.507"/>
<polygon fill="black" stroke="black" points="126.077,-108.16 115.482,-108.083 123.716,-114.75 126.077,-108.16"/>
</g>
<!-- INDEPENDENT_RANDOM_VARIABLES -->
<g id="node6" class="node"><title>INDEPENDENT_RANDOM_VARIABLES</title>
<a xlink:href="INDEPENDENT_RANDOM_VARIABLES.html" xlink:title=" Independent random variables " target="_top">
<polyline fill="none" stroke="black" points="372,-108 160,-108 "/>
<path fill="none" stroke="black" d="M160,-108C154,-108 148,-102 148,-96"/>
<polyline fill="none" stroke="black" points="148,-96 148,-84 "/>
<path fill="none" stroke="black" d="M148,-84C148,-78 154,-72 160,-72"/>
<polyline fill="none" stroke="black" points="160,-72 372,-72 "/>
<path fill="none" stroke="black" d="M372,-72C378,-72 384,-78 384,-84"/>
<polyline fill="none" stroke="black" points="384,-84 384,-96 "/>
<path fill="none" stroke="black" d="M384,-96C384,-102 378,-108 372,-108"/>
<text text-anchor="start" x="156" y="-87.2333" font-family="Times Roman,serif" font-size="14.00"> Independent random variables </text>
</a>
</g>
<!-- CONDITIONAL_PROBABILITY&#45;&gt;INDEPENDENT_RANDOM_VARIABLES -->
<g id="edge6" class="edge"><title>CONDITIONAL_PROBABILITY&#45;&gt;INDEPENDENT_RANDOM_VARIABLES</title>
<path fill="none" stroke="black" d="M266,-143.831C266,-136.131 266,-126.974 266,-118.417"/>
<polygon fill="black" stroke="black" points="269.5,-118.413 266,-108.413 262.5,-118.413 269.5,-118.413"/>
</g>
<!-- MARKOV_PROPERTY -->
<g id="node10" class="node"><title>MARKOV_PROPERTY</title>
<a xlink:href="MARKOV_PROPERTY.html" xlink:title=" The Markov Property " target="_top">
<polyline fill="none" stroke="black" points="312,-36 164,-36 "/>
<path fill="none" stroke="black" d="M164,-36C158,-36 152,-30 152,-24"/>
<polyline fill="none" stroke="black" points="152,-24 152,-12 "/>
<path fill="none" stroke="black" d="M152,-12C152,-6 158,-1.72678e-14 164,-1.67721e-14"/>
<polyline fill="none" stroke="black" points="164,-1.67721e-14 312,-4.54417e-15 "/>
<path fill="none" stroke="black" d="M312,-4.54417e-15C318,-4.04844e-15 324,-6 324,-12"/>
<polyline fill="none" stroke="black" points="324,-12 324,-24 "/>
<path fill="none" stroke="black" d="M324,-24C324,-30 318,-36 312,-36"/>
<text text-anchor="start" x="160.5" y="-15.2333" font-family="Times Roman,serif" font-size="14.00"> The Markov Property </text>
</a>
</g>
<!-- CONDITIONAL_PROBABILITY&#45;&gt;MARKOV_PROPERTY -->
<g id="edge10" class="edge"><title>CONDITIONAL_PROBABILITY&#45;&gt;MARKOV_PROPERTY</title>
<path fill="none" stroke="black" d="M346.906,-143.927C365.03,-135.954 382.095,-124.486 393,-108 401.827,-94.6551 402.268,-85.0427 393,-72 384.175,-59.5809 355.681,-48.1154 325.488,-38.9736"/>
<polygon fill="black" stroke="black" points="326.229,-35.5436 315.648,-36.0889 324.26,-42.2609 326.229,-35.5436"/>
</g>
<!-- RANDOM_VARIABLES -->
<g id="node2" class="node"><title>RANDOM_VARIABLES</title>
<a xlink:href="RANDOM_VARIABLES.html" xlink:title=" Random variables " target="_top">
<polyline fill="none" stroke="black" points="248,-252 124,-252 "/>
<path fill="none" stroke="black" d="M124,-252C118,-252 112,-246 112,-240"/>
<polyline fill="none" stroke="black" points="112,-240 112,-228 "/>
<path fill="none" stroke="black" d="M112,-228C112,-222 118,-216 124,-216"/>
<polyline fill="none" stroke="black" points="124,-216 248,-216 "/>
<path fill="none" stroke="black" d="M248,-216C254,-216 260,-222 260,-228"/>
<polyline fill="none" stroke="black" points="260,-228 260,-240 "/>
<path fill="none" stroke="black" d="M260,-240C260,-246 254,-252 248,-252"/>
<text text-anchor="start" x="120" y="-231.233" font-family="Times Roman,serif" font-size="14.00"> Random variables </text>
</a>
</g>
<!-- RANDOM_VARIABLES&#45;&gt;CONDITIONAL_PROBABILITY -->
<g id="edge2" class="edge"><title>RANDOM_VARIABLES&#45;&gt;CONDITIONAL_PROBABILITY</title>
<path fill="none" stroke="black" d="M206.187,-215.831C215.851,-207.134 227.58,-196.578 238.082,-187.127"/>
<polygon fill="black" stroke="black" points="240.728,-189.454 245.819,-180.163 236.045,-184.251 240.728,-189.454"/>
</g>
<!-- BAYES_THEOREM&#45;&gt;MARKOV_PROPERTY -->
<!-- VENN_DIAGRAMS -->
<g id="node8" class="node"><title>VENN_DIAGRAMS</title>
<a xlink:href="VENN_DIAGRAMS.html" xlink:title=" Basic set theory " target="_top">
<polyline fill="none" stroke="black" points="404,-252 290,-252 "/>
<path fill="none" stroke="black" d="M290,-252C284,-252 278,-246 278,-240"/>
<polyline fill="none" stroke="black" points="278,-240 278,-228 "/>
<path fill="none" stroke="black" d="M278,-228C278,-222 284,-216 290,-216"/>
<polyline fill="none" stroke="black" points="290,-216 404,-216 "/>
<path fill="none" stroke="black" d="M404,-216C410,-216 416,-222 416,-228"/>
<polyline fill="none" stroke="black" points="416,-228 416,-240 "/>
<path fill="none" stroke="black" d="M416,-240C416,-246 410,-252 404,-252"/>
<text text-anchor="start" x="286.5" y="-231.233" font-family="Times Roman,serif" font-size="14.00"> Basic set theory </text>
</a>
</g>
<!-- VENN_DIAGRAMS&#45;&gt;CONDITIONAL_PROBABILITY -->
<g id="edge8" class="edge"><title>VENN_DIAGRAMS&#45;&gt;CONDITIONAL_PROBABILITY</title>
<path fill="none" stroke="black" d="M326.56,-215.831C316.68,-207.048 304.668,-196.371 293.955,-186.849"/>
<polygon fill="black" stroke="black" points="296.233,-184.191 286.433,-180.163 291.582,-189.422 296.233,-184.191"/>
</g>
</g>
</svg>
