<?xml version="1.0" encoding="UTF-8" standalone="no"?>
<!DOCTYPE svg PUBLIC "-//W3C//DTD SVG 1.1//EN"
 "http://www.w3.org/Graphics/SVG/1.1/DTD/svg11.dtd">
<!-- Generated by graphviz version 2.26.3 (20100126.1600)
 -->
<!-- Title: _anonymous_0 Pages: 1 -->
<svg width="320pt" height="188pt"
 viewBox="0.00 0.00 320.00 188.00" xmlns="http://www.w3.org/2000/svg" xmlns:xlink="http://www.w3.org/1999/xlink">
<g id="graph1" class="graph" transform="scale(1 1) rotate(0) translate(4 184)">
<title>_anonymous_0</title>
<!-- CONDITIONAL_EXPECTATION -->
<g id="node1" class="node"><title>CONDITIONAL_EXPECTATION</title>
<a xlink:href="CONDITIONAL_EXPECTATION.html" xlink:title=" Conditional expectation " target="_top">
<polyline fill="none" stroke="blue" stroke-width="2" points="221,-108 55,-108 "/>
<path fill="none" stroke="blue" stroke-width="2" d="M55,-108C49,-108 43,-102 43,-96"/>
<polyline fill="none" stroke="blue" stroke-width="2" points="43,-96 43,-84 "/>
<path fill="none" stroke="blue" stroke-width="2" d="M43,-84C43,-78 49,-72 55,-72"/>
<polyline fill="none" stroke="blue" stroke-width="2" points="55,-72 221,-72 "/>
<path fill="none" stroke="blue" stroke-width="2" d="M221,-72C227,-72 233,-78 233,-84"/>
<polyline fill="none" stroke="blue" stroke-width="2" points="233,-84 233,-96 "/>
<path fill="none" stroke="blue" stroke-width="2" d="M233,-96C233,-102 227,-108 221,-108"/>
<text text-anchor="start" x="51.5" y="-87.2333" font-family="Times Roman,serif" font-size="14.00"> Conditional expectation </text>
</a>
</g>
<!-- GEOMETRIC_RANDOM_VARIABLE -->
<g id="node2" class="node"><title>GEOMETRIC_RANDOM_VARIABLE</title>
<a xlink:href="GEOMETRIC_RANDOM_VARIABLE.html" xlink:title=" The geometric random variable " target="_top">
<polyline fill="none" stroke="black" points="247,-36 29,-36 "/>
<path fill="none" stroke="black" d="M29,-36C23,-36 17,-30 17,-24"/>
<polyline fill="none" stroke="black" points="17,-24 17,-12 "/>
<path fill="none" stroke="black" d="M17,-12C17,-6 23,-1.74112e-14 29,-1.70589e-14"/>
<polyline fill="none" stroke="black" points="29,-1.70589e-14 247,-4.25738e-15 "/>
<path fill="none" stroke="black" d="M247,-4.25738e-15C253,-3.90505e-15 259,-6 259,-12"/>
<polyline fill="none" stroke="black" points="259,-12 259,-24 "/>
<path fill="none" stroke="black" d="M259,-24C259,-30 253,-36 247,-36"/>
<text text-anchor="start" x="25.5" y="-15.2333" font-family="Times Roman,serif" font-size="14.00"> The geometric random variable </text>
</a>
</g>
<!-- CONDITIONAL_EXPECTATION&#45;&gt;GEOMETRIC_RANDOM_VARIABLE -->
<g id="edge2" class="edge"><title>CONDITIONAL_EXPECTATION&#45;&gt;GEOMETRIC_RANDOM_VARIABLE</title>
<path fill="none" stroke="black" d="M138,-71.8314C138,-64.131 138,-54.9743 138,-46.4166"/>
<polygon fill="black" stroke="black" points="141.5,-46.4132 138,-36.4133 134.5,-46.4133 141.5,-46.4132"/>
</g>
<!-- EXPECTATION -->
<g id="node4" class="node"><title>EXPECTATION</title>
<a xlink:href="EXPECTATION.html" xlink:title=" Expectation &#160;" target="_top">
<polyline fill="none" stroke="black" points="100,-180 12,-180 "/>
<path fill="none" stroke="black" d="M12,-180C6,-180 3.55271e-14,-174 2.84217e-14,-168"/>
<polyline fill="none" stroke="black" points="2.84217e-14,-168 1.42109e-14,-156 "/>
<path fill="none" stroke="black" d="M1.42109e-14,-156C7.10543e-15,-150 6,-144 12,-144"/>
<polyline fill="none" stroke="black" points="12,-144 100,-144 "/>
<path fill="none" stroke="black" d="M100,-144C106,-144 112,-150 112,-156"/>
<polyline fill="none" stroke="black" points="112,-156 112,-168 "/>
<path fill="none" stroke="black" d="M112,-168C112,-174 106,-180 100,-180"/>
<text text-anchor="start" x="8" y="-159.233" font-family="Times Roman,serif" font-size="14.00"> Expectation &#160;</text>
</a>
</g>
<!-- EXPECTATION&#45;&gt;CONDITIONAL_EXPECTATION -->
<g id="edge4" class="edge"><title>EXPECTATION&#45;&gt;CONDITIONAL_EXPECTATION</title>
<path fill="none" stroke="black" d="M76.6921,-143.831C86.6948,-135.048 98.855,-124.371 109.7,-114.849"/>
<polygon fill="black" stroke="black" points="112.109,-117.391 117.315,-108.163 107.491,-112.131 112.109,-117.391"/>
</g>
<!-- CONDITIONAL_PROBABILITY -->
<g id="node6" class="node"><title>CONDITIONAL_PROBABILITY</title>
<a xlink:href="CONDITIONAL_PROBABILITY.html" xlink:title=" Conditional probability " target="_top">
<polyline fill="none" stroke="black" points="300,-180 142,-180 "/>
<path fill="none" stroke="black" d="M142,-180C136,-180 130,-174 130,-168"/>
<polyline fill="none" stroke="black" points="130,-168 130,-156 "/>
<path fill="none" stroke="black" d="M130,-156C130,-150 136,-144 142,-144"/>
<polyline fill="none" stroke="black" points="142,-144 300,-144 "/>
<path fill="none" stroke="black" d="M300,-144C306,-144 312,-150 312,-156"/>
<polyline fill="none" stroke="black" points="312,-156 312,-168 "/>
<path fill="none" stroke="black" d="M312,-168C312,-174 306,-180 300,-180"/>
<text text-anchor="start" x="138.5" y="-159.233" font-family="Times Roman,serif" font-size="14.00"> Conditional probability </text>
</a>
</g>
<!-- CONDITIONAL_PROBABILITY&#45;&gt;CONDITIONAL_EXPECTATION -->
<g id="edge6" class="edge"><title>CONDITIONAL_PROBABILITY&#45;&gt;CONDITIONAL_EXPECTATION</title>
<path fill="none" stroke="black" d="M200.056,-143.831C189.931,-135.048 177.622,-124.371 166.645,-114.849"/>
<polygon fill="black" stroke="black" points="168.785,-112.072 158.938,-108.163 164.198,-117.359 168.785,-112.072"/>
</g>
</g>
</svg>
