<?xml version="1.0" encoding="UTF-8" standalone="no"?>
<!DOCTYPE svg PUBLIC "-//W3C//DTD SVG 1.1//EN"
 "http://www.w3.org/Graphics/SVG/1.1/DTD/svg11.dtd">
<!-- Generated by graphviz version 2.36.0 (20140111.2315)
 -->
<!-- Title: %3 Pages: 1 -->
<svg width="473pt" height="332pt"
 viewBox="0.00 0.00 472.61 332.00" xmlns="http://www.w3.org/2000/svg" xmlns:xlink="http://www.w3.org/1999/xlink">
<g id="graph0" class="graph" transform="scale(1 1) rotate(0) translate(4 328)">
<title>%3</title>
<!-- CONDITIONAL_PROBABILITY -->
<g id="node1" class="node"><title>CONDITIONAL_PROBABILITY</title>
<g id="a_node1"><a xlink:href="CONDITIONAL_PROBABILITY.html" xlink:title=" Conditional probability " target="_top">
<path fill="none" stroke="blue" stroke-width="2" d="M394.25,-252C394.25,-252 267.75,-252 267.75,-252 261.75,-252 255.75,-246 255.75,-240 255.75,-240 255.75,-228 255.75,-228 255.75,-222 261.75,-216 267.75,-216 267.75,-216 394.25,-216 394.25,-216 400.25,-216 406.25,-222 406.25,-228 406.25,-228 406.25,-240 406.25,-240 406.25,-246 400.25,-252 394.25,-252"/>
<text text-anchor="start" x="263.5" y="-230.3" font-family="Times,serif" font-size="14.00"> Conditional probability </text>
</a>
</g>
</g>
<!-- JOINT_PROBABILITY_DISTRIBUTION -->
<g id="node2" class="node"><title>JOINT_PROBABILITY_DISTRIBUTION</title>
<g id="a_node2"><a xlink:href="JOINT_PROBABILITY_DISTRIBUTION.html" xlink:title=" Joint probability distribution " target="_top">
<path fill="none" stroke="black" d="M166.25,-180C166.25,-180 11.75,-180 11.75,-180 5.75,-180 -0.25,-174 -0.25,-168 -0.25,-168 -0.25,-156 -0.25,-156 -0.25,-150 5.75,-144 11.75,-144 11.75,-144 166.25,-144 166.25,-144 172.25,-144 178.25,-150 178.25,-156 178.25,-156 178.25,-168 178.25,-168 178.25,-174 172.25,-180 166.25,-180"/>
<text text-anchor="start" x="7.5" y="-158.3" font-family="Times,serif" font-size="14.00"> Joint probability distribution </text>
</a>
</g>
</g>
<!-- CONDITIONAL_PROBABILITY&#45;&gt;JOINT_PROBABILITY_DISTRIBUTION -->
<g id="edge1" class="edge"><title>CONDITIONAL_PROBABILITY&#45;&gt;JOINT_PROBABILITY_DISTRIBUTION</title>
<path fill="none" stroke="black" d="M272.11,-215.966C237.709,-206.015 194.119,-193.406 158.099,-182.987"/>
<polygon fill="black" stroke="black" points="158.733,-179.527 148.154,-180.111 156.788,-186.252 158.733,-179.527"/>
</g>
<!-- BAYES_THEOREM -->
<g id="node3" class="node"><title>BAYES_THEOREM</title>
<g id="a_node3"><a xlink:href="BAYES_THEOREM.html" xlink:title=" Bayes theorem " target="_top">
<path fill="none" stroke="black" d="M290.5,-180C290.5,-180 209.5,-180 209.5,-180 203.5,-180 197.5,-174 197.5,-168 197.5,-168 197.5,-156 197.5,-156 197.5,-150 203.5,-144 209.5,-144 209.5,-144 290.5,-144 290.5,-144 296.5,-144 302.5,-150 302.5,-156 302.5,-156 302.5,-168 302.5,-168 302.5,-174 296.5,-180 290.5,-180"/>
<text text-anchor="start" x="205" y="-158.3" font-family="Times,serif" font-size="14.00"> Bayes theorem </text>
</a>
</g>
</g>
<!-- CONDITIONAL_PROBABILITY&#45;&gt;BAYES_THEOREM -->
<g id="edge2" class="edge"><title>CONDITIONAL_PROBABILITY&#45;&gt;BAYES_THEOREM</title>
<path fill="none" stroke="black" d="M310.978,-215.697C300.874,-206.965 288.464,-196.24 277.482,-186.75"/>
<polygon fill="black" stroke="black" points="279.647,-183.995 269.792,-180.104 275.07,-189.291 279.647,-183.995"/>
</g>
<!-- INDEPENDENT_RANDOM_VARIABLES -->
<g id="node4" class="node"><title>INDEPENDENT_RANDOM_VARIABLES</title>
<g id="a_node4"><a xlink:href="INDEPENDENT_RANDOM_VARIABLES.html" xlink:title=" Independent random variables " target="_top">
<path fill="none" stroke="black" d="M261.25,-108C261.25,-108 96.75,-108 96.75,-108 90.75,-108 84.75,-102 84.75,-96 84.75,-96 84.75,-84 84.75,-84 84.75,-78 90.75,-72 96.75,-72 96.75,-72 261.25,-72 261.25,-72 267.25,-72 273.25,-78 273.25,-84 273.25,-84 273.25,-96 273.25,-96 273.25,-102 267.25,-108 261.25,-108"/>
<text text-anchor="start" x="92.5" y="-86.3" font-family="Times,serif" font-size="14.00"> Independent random variables </text>
</a>
</g>
</g>
<!-- CONDITIONAL_PROBABILITY&#45;&gt;INDEPENDENT_RANDOM_VARIABLES -->
<g id="edge3" class="edge"><title>CONDITIONAL_PROBABILITY&#45;&gt;INDEPENDENT_RANDOM_VARIABLES</title>
<path fill="none" stroke="black" d="M331.647,-215.863C331.467,-196.26 328.242,-164.263 311,-144 299.05,-129.956 282.84,-119.596 265.873,-111.965"/>
<polygon fill="black" stroke="black" points="266.967,-108.629 256.391,-108 264.267,-115.087 266.967,-108.629"/>
</g>
<!-- CONDITIONAL_EXPECTATION -->
<g id="node5" class="node"><title>CONDITIONAL_EXPECTATION</title>
<g id="a_node5"><a xlink:href="CONDITIONAL_EXPECTATION.html" xlink:title=" Conditional expectation " target="_top">
<path fill="none" stroke="black" d="M434,-108C434,-108 304,-108 304,-108 298,-108 292,-102 292,-96 292,-96 292,-84 292,-84 292,-78 298,-72 304,-72 304,-72 434,-72 434,-72 440,-72 446,-78 446,-84 446,-84 446,-96 446,-96 446,-102 440,-108 434,-108"/>
<text text-anchor="start" x="300" y="-86.3" font-family="Times,serif" font-size="14.00"> Conditional expectation </text>
</a>
</g>
</g>
<!-- CONDITIONAL_PROBABILITY&#45;&gt;CONDITIONAL_EXPECTATION -->
<g id="edge5" class="edge"><title>CONDITIONAL_PROBABILITY&#45;&gt;CONDITIONAL_EXPECTATION</title>
<path fill="none" stroke="black" d="M335.584,-215.871C342.089,-191.564 354.063,-146.819 361.771,-118.013"/>
<polygon fill="black" stroke="black" points="365.196,-118.754 364.4,-108.189 358.434,-116.945 365.196,-118.754"/>
</g>
<!-- MARKOV_PROPERTY -->
<g id="node7" class="node"><title>MARKOV_PROPERTY</title>
<g id="a_node7"><a xlink:href="MARKOV_PROPERTY.html" xlink:title=" The Markov Property " target="_top">
<path fill="none" stroke="black" d="M385.25,-36C385.25,-36 266.75,-36 266.75,-36 260.75,-36 254.75,-30 254.75,-24 254.75,-24 254.75,-12 254.75,-12 254.75,-6 260.75,-0 266.75,-0 266.75,-0 385.25,-0 385.25,-0 391.25,-0 397.25,-6 397.25,-12 397.25,-12 397.25,-24 397.25,-24 397.25,-30 391.25,-36 385.25,-36"/>
<text text-anchor="start" x="262.5" y="-14.3" font-family="Times,serif" font-size="14.00"> The Markov Property </text>
</a>
</g>
</g>
<!-- CONDITIONAL_PROBABILITY&#45;&gt;MARKOV_PROPERTY -->
<g id="edge7" class="edge"><title>CONDITIONAL_PROBABILITY&#45;&gt;MARKOV_PROPERTY</title>
<path fill="none" stroke="black" d="M361.556,-215.929C409.08,-187.125 491.634,-126.657 455,-72 443.589,-54.9751 425.62,-43.4143 406.678,-35.5655"/>
<polygon fill="black" stroke="black" points="407.916,-32.2919 397.325,-32.0029 405.424,-38.8334 407.916,-32.2919"/>
</g>
<!-- JOINT_PROBABILITY_DISTRIBUTION&#45;&gt;INDEPENDENT_RANDOM_VARIABLES -->
<!-- INDEPENDENT_RANDOM_VARIABLES&#45;&gt;MARKOV_PROPERTY -->
<!-- RANDOM_VARIABLES -->
<g id="node6" class="node"><title>RANDOM_VARIABLES</title>
<g id="a_node6"><a xlink:href="RANDOM_VARIABLES.html" xlink:title=" Random variables " target="_top">
<path fill="none" stroke="black" d="M313.25,-324C313.25,-324 214.75,-324 214.75,-324 208.75,-324 202.75,-318 202.75,-312 202.75,-312 202.75,-300 202.75,-300 202.75,-294 208.75,-288 214.75,-288 214.75,-288 313.25,-288 313.25,-288 319.25,-288 325.25,-294 325.25,-300 325.25,-300 325.25,-312 325.25,-312 325.25,-318 319.25,-324 313.25,-324"/>
<text text-anchor="start" x="210.5" y="-302.3" font-family="Times,serif" font-size="14.00"> Random variables </text>
</a>
</g>
</g>
<!-- RANDOM_VARIABLES&#45;&gt;CONDITIONAL_PROBABILITY -->
<g id="edge6" class="edge"><title>RANDOM_VARIABLES&#45;&gt;CONDITIONAL_PROBABILITY</title>
<path fill="none" stroke="black" d="M280.562,-287.697C288.675,-279.22 298.588,-268.864 307.471,-259.583"/>
<polygon fill="black" stroke="black" points="310.243,-261.749 314.629,-252.104 305.186,-256.908 310.243,-261.749"/>
</g>
<!-- VENN_DIAGRAMS -->
<g id="node8" class="node"><title>VENN_DIAGRAMS</title>
<g id="a_node8"><a xlink:href="VENN_DIAGRAMS.html" xlink:title=" Basic set theory " target="_top">
<path fill="none" stroke="black" d="M442.25,-324C442.25,-324 355.75,-324 355.75,-324 349.75,-324 343.75,-318 343.75,-312 343.75,-312 343.75,-300 343.75,-300 343.75,-294 349.75,-288 355.75,-288 355.75,-288 442.25,-288 442.25,-288 448.25,-288 454.25,-294 454.25,-300 454.25,-300 454.25,-312 454.25,-312 454.25,-318 448.25,-324 442.25,-324"/>
<text text-anchor="start" x="351.5" y="-302.3" font-family="Times,serif" font-size="14.00"> Basic set theory </text>
</a>
</g>
</g>
<!-- VENN_DIAGRAMS&#45;&gt;CONDITIONAL_PROBABILITY -->
<g id="edge9" class="edge"><title>VENN_DIAGRAMS&#45;&gt;CONDITIONAL_PROBABILITY</title>
<path fill="none" stroke="black" d="M382.191,-287.697C373.874,-279.135 363.695,-268.656 354.61,-259.304"/>
<polygon fill="black" stroke="black" points="357.094,-256.838 347.616,-252.104 352.073,-261.716 357.094,-256.838"/>
</g>
</g>
</svg>
