<?xml version="1.0" encoding="UTF-8" standalone="no"?>
<!DOCTYPE svg PUBLIC "-//W3C//DTD SVG 1.1//EN"
 "http://www.w3.org/Graphics/SVG/1.1/DTD/svg11.dtd">
<!-- Generated by graphviz version 2.28.0 (20110509.1545)
 -->
<!-- Title: _anonymous_0 Pages: 1 -->
<svg width="200pt" height="188pt"
 viewBox="0.00 0.00 200.00 188.00" xmlns="http://www.w3.org/2000/svg" xmlns:xlink="http://www.w3.org/1999/xlink">
<g id="graph1" class="graph" transform="scale(1 1) rotate(0) translate(4 184)">
<title>_anonymous_0</title>
<!-- CONDITIONAL_EXPECTATION -->
<g id="node1" class="node"><title>CONDITIONAL_EXPECTATION</title>
<a xlink:href="CONDITIONAL_EXPECTATION.html" xlink:title="Conditional expectation" target="_top">
<polyline fill="none" stroke="blue" stroke-width="2" points="159.25,-108 32.75,-108 "/>
<path fill="none" stroke="blue" stroke-width="2" d="M32.75,-108C26.75,-108 20.75,-102 20.75,-96"/>
<polyline fill="none" stroke="blue" stroke-width="2" points="20.75,-96 20.75,-84 "/>
<path fill="none" stroke="blue" stroke-width="2" d="M20.75,-84C20.75,-78 26.75,-72 32.75,-72"/>
<polyline fill="none" stroke="blue" stroke-width="2" points="32.75,-72 159.25,-72 "/>
<path fill="none" stroke="blue" stroke-width="2" d="M159.25,-72C165.25,-72 171.25,-78 171.25,-84"/>
<polyline fill="none" stroke="blue" stroke-width="2" points="171.25,-84 171.25,-96 "/>
<path fill="none" stroke="blue" stroke-width="2" d="M171.25,-96C171.25,-102 165.25,-108 159.25,-108"/>
<text text-anchor="start" x="29" y="-84.5" font-family="Times,serif" font-size="14.00">Conditional expectation</text>
</a>
</g>
<!-- GEOMETRIC_RANDOM_VARIABLE -->
<g id="node4" class="node"><title>GEOMETRIC_RANDOM_VARIABLE</title>
<a xlink:href="GEOMETRIC_RANDOM_VARIABLE.html" xlink:title="The geometric random variable" target="_top">
<polyline fill="none" stroke="black" points="180.25,-36 11.75,-36 "/>
<path fill="none" stroke="black" d="M11.75,-36C5.75,-36 -0.25,-30 -0.25,-24"/>
<polyline fill="none" stroke="black" points="-0.25,-24 -0.25,-12 "/>
<path fill="none" stroke="black" d="M-0.25,-12C-0.25,-6 5.75,-0 11.75,-0"/>
<polyline fill="none" stroke="black" points="11.75,-0 180.25,-0 "/>
<path fill="none" stroke="black" d="M180.25,-0C186.25,-0 192.25,-6 192.25,-12"/>
<polyline fill="none" stroke="black" points="192.25,-12 192.25,-24 "/>
<path fill="none" stroke="black" d="M192.25,-24C192.25,-30 186.25,-36 180.25,-36"/>
<text text-anchor="start" x="8" y="-12.5" font-family="Times,serif" font-size="14.00">The geometric random variable</text>
</a>
</g>
<!-- CONDITIONAL_EXPECTATION&#45;&gt;GEOMETRIC_RANDOM_VARIABLE -->
<g id="edge4" class="edge"><title>CONDITIONAL_EXPECTATION&#45;&gt;GEOMETRIC_RANDOM_VARIABLE</title>
<path fill="none" stroke="black" d="M96,-71.6966C96,-63.9827 96,-54.7125 96,-46.1124"/>
<polygon fill="black" stroke="black" points="99.5001,-46.1043 96,-36.1043 92.5001,-46.1044 99.5001,-46.1043"/>
</g>
<!-- EXPECTATION -->
<g id="node2" class="node"><title>EXPECTATION</title>
<a xlink:href="EXPECTATION.html" xlink:title="Expectation " target="_top">
<polyline fill="none" stroke="black" points="127.25,-180 64.75,-180 "/>
<path fill="none" stroke="black" d="M64.75,-180C58.75,-180 52.75,-174 52.75,-168"/>
<polyline fill="none" stroke="black" points="52.75,-168 52.75,-156 "/>
<path fill="none" stroke="black" d="M52.75,-156C52.75,-150 58.75,-144 64.75,-144"/>
<polyline fill="none" stroke="black" points="64.75,-144 127.25,-144 "/>
<path fill="none" stroke="black" d="M127.25,-144C133.25,-144 139.25,-150 139.25,-156"/>
<polyline fill="none" stroke="black" points="139.25,-156 139.25,-168 "/>
<path fill="none" stroke="black" d="M139.25,-168C139.25,-174 133.25,-180 127.25,-180"/>
<text text-anchor="start" x="61" y="-156.5" font-family="Times,serif" font-size="14.00">Expectation </text>
</a>
</g>
<!-- EXPECTATION&#45;&gt;CONDITIONAL_EXPECTATION -->
<g id="edge2" class="edge"><title>EXPECTATION&#45;&gt;CONDITIONAL_EXPECTATION</title>
<path fill="none" stroke="black" d="M96,-143.697C96,-135.983 96,-126.712 96,-118.112"/>
<polygon fill="black" stroke="black" points="99.5001,-118.104 96,-108.104 92.5001,-118.104 99.5001,-118.104"/>
</g>
</g>
</svg>
