<?xml version="1.0" encoding="UTF-8" standalone="no"?>
<!DOCTYPE svg PUBLIC "-//W3C//DTD SVG 1.1//EN"
 "http://www.w3.org/Graphics/SVG/1.1/DTD/svg11.dtd">
<!-- Generated by graphviz version 2.28.0 (20110509.1545)
 -->
<!-- Title: _anonymous_0 Pages: 1 -->
<svg width="327pt" height="260pt"
 viewBox="0.00 0.00 327.46 260.00" xmlns="http://www.w3.org/2000/svg" xmlns:xlink="http://www.w3.org/1999/xlink">
<g id="graph1" class="graph" transform="scale(1 1) rotate(0) translate(4 256)">
<title>_anonymous_0</title>
<!-- CONDITIONAL_PROBABILITY -->
<g id="node1" class="node"><title>CONDITIONAL_PROBABILITY</title>
<a xlink:href="CONDITIONAL_PROBABILITY.html" xlink:title="Conditional probability" target="_top">
<polyline fill="none" stroke="blue" stroke-width="2" points="273,-180 149,-180 "/>
<path fill="none" stroke="blue" stroke-width="2" d="M149,-180C143,-180 137,-174 137,-168"/>
<polyline fill="none" stroke="blue" stroke-width="2" points="137,-168 137,-156 "/>
<path fill="none" stroke="blue" stroke-width="2" d="M137,-156C137,-150 143,-144 149,-144"/>
<polyline fill="none" stroke="blue" stroke-width="2" points="149,-144 273,-144 "/>
<path fill="none" stroke="blue" stroke-width="2" d="M273,-144C279,-144 285,-150 285,-156"/>
<polyline fill="none" stroke="blue" stroke-width="2" points="285,-156 285,-168 "/>
<path fill="none" stroke="blue" stroke-width="2" d="M285,-168C285,-174 279,-180 273,-180"/>
<text text-anchor="start" x="145.5" y="-156.5" font-family="Times,serif" font-size="14.00">Conditional probability</text>
</a>
</g>
<!-- BAYES_THEOREM -->
<g id="node2" class="node"><title>BAYES_THEOREM</title>
<a xlink:href="BAYES_THEOREM.html" xlink:title="Bayes theorem" target="_top">
<polyline fill="none" stroke="black" points="88,-108 12,-108 "/>
<path fill="none" stroke="black" d="M12,-108C6,-108 0,-102 0,-96"/>
<polyline fill="none" stroke="black" points="0,-96 0,-84 "/>
<path fill="none" stroke="black" d="M0,-84C0,-78 6,-72 12,-72"/>
<polyline fill="none" stroke="black" points="12,-72 88,-72 "/>
<path fill="none" stroke="black" d="M88,-72C94,-72 100,-78 100,-84"/>
<polyline fill="none" stroke="black" points="100,-84 100,-96 "/>
<path fill="none" stroke="black" d="M100,-96C100,-102 94,-108 88,-108"/>
<text text-anchor="start" x="8.5" y="-84.5" font-family="Times,serif" font-size="14.00">Bayes theorem</text>
</a>
</g>
<!-- CONDITIONAL_PROBABILITY&#45;&gt;BAYES_THEOREM -->
<g id="edge2" class="edge"><title>CONDITIONAL_PROBABILITY&#45;&gt;BAYES_THEOREM</title>
<path fill="none" stroke="black" d="M171.615,-143.876C149.605,-134.307 121.99,-122.3 98.6399,-112.148"/>
<polygon fill="black" stroke="black" points="99.8234,-108.846 89.2571,-108.068 97.0323,-115.265 99.8234,-108.846"/>
</g>
<!-- INDEPENDENT_RANDOM_VARIABLES -->
<g id="node4" class="node"><title>INDEPENDENT_RANDOM_VARIABLES</title>
<a xlink:href="INDEPENDENT_RANDOM_VARIABLES.html" xlink:title="Independent random variables" target="_top">
<polyline fill="none" stroke="black" points="292,-108 130,-108 "/>
<path fill="none" stroke="black" d="M130,-108C124,-108 118,-102 118,-96"/>
<polyline fill="none" stroke="black" points="118,-96 118,-84 "/>
<path fill="none" stroke="black" d="M118,-84C118,-78 124,-72 130,-72"/>
<polyline fill="none" stroke="black" points="130,-72 292,-72 "/>
<path fill="none" stroke="black" d="M292,-72C298,-72 304,-78 304,-84"/>
<polyline fill="none" stroke="black" points="304,-84 304,-96 "/>
<path fill="none" stroke="black" d="M304,-96C304,-102 298,-108 292,-108"/>
<text text-anchor="start" x="126.5" y="-84.5" font-family="Times,serif" font-size="14.00">Independent random variables</text>
</a>
</g>
<!-- CONDITIONAL_PROBABILITY&#45;&gt;INDEPENDENT_RANDOM_VARIABLES -->
<g id="edge4" class="edge"><title>CONDITIONAL_PROBABILITY&#45;&gt;INDEPENDENT_RANDOM_VARIABLES</title>
<path fill="none" stroke="black" d="M211,-143.697C211,-135.983 211,-126.712 211,-118.112"/>
<polygon fill="black" stroke="black" points="214.5,-118.104 211,-108.104 207.5,-118.104 214.5,-118.104"/>
</g>
<!-- MARKOV_PROPERTY -->
<g id="node6" class="node"><title>MARKOV_PROPERTY</title>
<a xlink:href="MARKOV_PROPERTY.html" xlink:title="The Markov Property" target="_top">
<polyline fill="none" stroke="black" points="248,-36 134,-36 "/>
<path fill="none" stroke="black" d="M134,-36C128,-36 122,-30 122,-24"/>
<polyline fill="none" stroke="black" points="122,-24 122,-12 "/>
<path fill="none" stroke="black" d="M122,-12C122,-6 128,-0 134,-0"/>
<polyline fill="none" stroke="black" points="134,-0 248,-0 "/>
<path fill="none" stroke="black" d="M248,-0C254,-0 260,-6 260,-12"/>
<polyline fill="none" stroke="black" points="260,-12 260,-24 "/>
<path fill="none" stroke="black" d="M260,-24C260,-30 254,-36 248,-36"/>
<text text-anchor="start" x="130.5" y="-12.5" font-family="Times,serif" font-size="14.00">The Markov Property</text>
</a>
</g>
<!-- CONDITIONAL_PROBABILITY&#45;&gt;MARKOV_PROPERTY -->
<g id="edge6" class="edge"><title>CONDITIONAL_PROBABILITY&#45;&gt;MARKOV_PROPERTY</title>
<path fill="none" stroke="black" d="M269.072,-143.959C286.225,-135.921 303.055,-124.375 313,-108 321.306,-94.3245 321.775,-85.3792 313,-72 302.742,-56.3587 286.761,-45.3095 269.706,-37.5122"/>
<polygon fill="black" stroke="black" points="270.726,-34.1447 260.151,-33.5065 268.02,-40.6004 270.726,-34.1447"/>
</g>
<!-- BAYES_THEOREM&#45;&gt;MARKOV_PROPERTY -->
<!-- RANDOM_VARIABLES -->
<g id="node9" class="node"><title>RANDOM_VARIABLES</title>
<a xlink:href="RANDOM_VARIABLES.html" xlink:title="Random variables" target="_top">
<polyline fill="none" stroke="black" points="258,-252 164,-252 "/>
<path fill="none" stroke="black" d="M164,-252C158,-252 152,-246 152,-240"/>
<polyline fill="none" stroke="black" points="152,-240 152,-228 "/>
<path fill="none" stroke="black" d="M152,-228C152,-222 158,-216 164,-216"/>
<polyline fill="none" stroke="black" points="164,-216 258,-216 "/>
<path fill="none" stroke="black" d="M258,-216C264,-216 270,-222 270,-228"/>
<polyline fill="none" stroke="black" points="270,-228 270,-240 "/>
<path fill="none" stroke="black" d="M270,-240C270,-246 264,-252 258,-252"/>
<text text-anchor="start" x="160.5" y="-228.5" font-family="Times,serif" font-size="14.00">Random variables</text>
</a>
</g>
<!-- RANDOM_VARIABLES&#45;&gt;CONDITIONAL_PROBABILITY -->
<g id="edge10" class="edge"><title>RANDOM_VARIABLES&#45;&gt;CONDITIONAL_PROBABILITY</title>
<path fill="none" stroke="black" d="M211,-215.697C211,-207.983 211,-198.712 211,-190.112"/>
<polygon fill="black" stroke="black" points="214.5,-190.104 211,-180.104 207.5,-190.104 214.5,-190.104"/>
</g>
</g>
</svg>
