<?xml version="1.0" encoding="UTF-8" standalone="no"?>
<!DOCTYPE svg PUBLIC "-//W3C//DTD SVG 1.1//EN"
 "http://www.w3.org/Graphics/SVG/1.1/DTD/svg11.dtd">
<!-- Generated by graphviz version 2.26.3 (20100126.1600)
 -->
<!-- Title: _anonymous_0 Pages: 1 -->
<svg width="583pt" height="332pt"
 viewBox="0.00 0.00 583.00 332.00" xmlns="http://www.w3.org/2000/svg" xmlns:xlink="http://www.w3.org/1999/xlink">
<g id="graph1" class="graph" transform="scale(1 1) rotate(0) translate(4 328)">
<title>_anonymous_0</title>
<!-- CONTINUOUS_TIME_MARKOV_CHAIN -->
<g id="node1" class="node"><title>CONTINUOUS_TIME_MARKOV_CHAIN</title>
<a xlink:href="CONTINUOUS_TIME_MARKOV_CHAIN.html" xlink:title=" Markov chains in continuous time " target="_top">
<polyline fill="none" stroke="blue" stroke-width="2" points="435,-180 201,-180 "/>
<path fill="none" stroke="blue" stroke-width="2" d="M201,-180C195,-180 189,-174 189,-168"/>
<polyline fill="none" stroke="blue" stroke-width="2" points="189,-168 189,-156 "/>
<path fill="none" stroke="blue" stroke-width="2" d="M189,-156C189,-150 195,-144 201,-144"/>
<polyline fill="none" stroke="blue" stroke-width="2" points="201,-144 435,-144 "/>
<path fill="none" stroke="blue" stroke-width="2" d="M435,-144C441,-144 447,-150 447,-156"/>
<polyline fill="none" stroke="blue" stroke-width="2" points="447,-156 447,-168 "/>
<path fill="none" stroke="blue" stroke-width="2" d="M447,-168C447,-174 441,-180 435,-180"/>
<text text-anchor="start" x="197.5" y="-159.233" font-family="Times Roman,serif" font-size="14.00"> Markov chains in continuous time </text>
</a>
</g>
<!-- MM1_QUEUE -->
<g id="node2" class="node"><title>MM1_QUEUE</title>
<a xlink:href="MM1_QUEUE.html" xlink:title=" The M/M/1 Queue &#160;" target="_top">
<polyline fill="none" stroke="black" points="185,-108 55,-108 "/>
<path fill="none" stroke="black" d="M55,-108C49,-108 43,-102 43,-96"/>
<polyline fill="none" stroke="black" points="43,-96 43,-84 "/>
<path fill="none" stroke="black" d="M43,-84C43,-78 49,-72 55,-72"/>
<polyline fill="none" stroke="black" points="55,-72 185,-72 "/>
<path fill="none" stroke="black" d="M185,-72C191,-72 197,-78 197,-84"/>
<polyline fill="none" stroke="black" points="197,-84 197,-96 "/>
<path fill="none" stroke="black" d="M197,-96C197,-102 191,-108 185,-108"/>
<text text-anchor="start" x="51.5" y="-87.2333" font-family="Times Roman,serif" font-size="14.00"> The M/M/1 Queue &#160;</text>
</a>
</g>
<!-- CONTINUOUS_TIME_MARKOV_CHAIN&#45;&gt;MM1_QUEUE -->
<g id="edge2" class="edge"><title>CONTINUOUS_TIME_MARKOV_CHAIN&#45;&gt;MM1_QUEUE</title>
<path fill="none" stroke="black" d="M268.292,-143.924C241.224,-134.081 207.556,-121.839 179.145,-111.507"/>
<polygon fill="black" stroke="black" points="180.323,-108.211 169.729,-108.083 177.93,-114.79 180.323,-108.211"/>
</g>
<!-- EXPONENTIAL_GROWTH_DECAY -->
<g id="node4" class="node"><title>EXPONENTIAL_GROWTH_DECAY</title>
<a xlink:href="EXPONENTIAL_GROWTH_DECAY.html" xlink:title=" Exponential growth/decay " target="_top">
<polyline fill="none" stroke="black" points="409,-108 227,-108 "/>
<path fill="none" stroke="black" d="M227,-108C221,-108 215,-102 215,-96"/>
<polyline fill="none" stroke="black" points="215,-96 215,-84 "/>
<path fill="none" stroke="black" d="M215,-84C215,-78 221,-72 227,-72"/>
<polyline fill="none" stroke="black" points="227,-72 409,-72 "/>
<path fill="none" stroke="black" d="M409,-72C415,-72 421,-78 421,-84"/>
<polyline fill="none" stroke="black" points="421,-84 421,-96 "/>
<path fill="none" stroke="black" d="M421,-96C421,-102 415,-108 409,-108"/>
<text text-anchor="start" x="223" y="-87.2333" font-family="Times Roman,serif" font-size="14.00"> Exponential growth/decay </text>
</a>
</g>
<!-- CONTINUOUS_TIME_MARKOV_CHAIN&#45;&gt;EXPONENTIAL_GROWTH_DECAY -->
<g id="edge4" class="edge"><title>CONTINUOUS_TIME_MARKOV_CHAIN&#45;&gt;EXPONENTIAL_GROWTH_DECAY</title>
<path fill="none" stroke="black" d="M318,-143.831C318,-136.131 318,-126.974 318,-118.417"/>
<polygon fill="black" stroke="black" points="321.5,-118.413 318,-108.413 314.5,-118.413 321.5,-118.413"/>
</g>
<!-- POISSON_PROCESS -->
<g id="node6" class="node"><title>POISSON_PROCESS</title>
<a xlink:href="POISSON_PROCESS.html" xlink:title=" Poisson Process " target="_top">
<polyline fill="none" stroke="black" points="339,-36 229,-36 "/>
<path fill="none" stroke="black" d="M229,-36C223,-36 217,-30 217,-24"/>
<polyline fill="none" stroke="black" points="217,-24 217,-12 "/>
<path fill="none" stroke="black" d="M217,-12C217,-6 223,-1.71273e-14 229,-1.6491e-14"/>
<polyline fill="none" stroke="black" points="229,-1.6491e-14 339,-4.82533e-15 "/>
<path fill="none" stroke="black" d="M339,-4.82533e-15C345,-4.18902e-15 351,-6 351,-12"/>
<polyline fill="none" stroke="black" points="351,-12 351,-24 "/>
<path fill="none" stroke="black" d="M351,-24C351,-30 345,-36 339,-36"/>
<text text-anchor="start" x="225.5" y="-15.2333" font-family="Times Roman,serif" font-size="14.00"> Poisson Process </text>
</a>
</g>
<!-- CONTINUOUS_TIME_MARKOV_CHAIN&#45;&gt;POISSON_PROCESS -->
<g id="edge6" class="edge"><title>CONTINUOUS_TIME_MARKOV_CHAIN&#45;&gt;POISSON_PROCESS</title>
<path fill="none" stroke="black" d="M385.464,-143.948C402.945,-135.882 419.725,-124.361 430,-108 438.509,-94.4505 439.143,-85.1302 430,-72 421.221,-59.3923 391.442,-47.3321 361.048,-37.8199"/>
<polygon fill="black" stroke="black" points="361.769,-34.3812 351.184,-34.8236 359.735,-41.0791 361.769,-34.3812"/>
</g>
<!-- MM1_QUEUE&#45;&gt;POISSON_PROCESS -->
<!-- TAYLOR_SERIES -->
<g id="node9" class="node"><title>TAYLOR_SERIES</title>
<a xlink:href="TAYLOR_SERIES.html" xlink:title=" One dimensional Taylor Series " target="_top">
<polyline fill="none" stroke="black" points="222,-324 12,-324 "/>
<path fill="none" stroke="black" d="M12,-324C6,-324 9.71075e-14,-318 8.05282e-14,-312"/>
<polyline fill="none" stroke="black" points="8.05282e-14,-312 4.73695e-14,-300 "/>
<path fill="none" stroke="black" d="M4.73695e-14,-300C3.07902e-14,-294 6,-288 12,-288"/>
<polyline fill="none" stroke="black" points="12,-288 222,-288 "/>
<path fill="none" stroke="black" d="M222,-288C228,-288 234,-294 234,-300"/>
<polyline fill="none" stroke="black" points="234,-300 234,-312 "/>
<path fill="none" stroke="black" d="M234,-312C234,-318 228,-324 222,-324"/>
<text text-anchor="start" x="8.5" y="-303.233" font-family="Times Roman,serif" font-size="14.00"> One dimensional Taylor Series </text>
</a>
</g>
<!-- TAYLOR_SERIES&#45;&gt;CONTINUOUS_TIME_MARKOV_CHAIN -->
<g id="edge10" class="edge"><title>TAYLOR_SERIES&#45;&gt;CONTINUOUS_TIME_MARKOV_CHAIN</title>
<path fill="none" stroke="black" d="M127.607,-287.867C140.081,-267.907 162.482,-236.003 189,-216 206.653,-202.684 228.073,-192.008 248.345,-183.779"/>
<polygon fill="black" stroke="black" points="249.833,-186.955 257.871,-180.053 247.283,-180.436 249.833,-186.955"/>
</g>
<!-- DEFINITION_OF_DERIVATIVE -->
<g id="node13" class="node"><title>DEFINITION_OF_DERIVATIVE</title>
<a xlink:href="DEFINITION_OF_DERIVATIVE.html" xlink:title=" Differentiation " target="_top">
<polyline fill="none" stroke="black" points="314,-252 210,-252 "/>
<path fill="none" stroke="black" d="M210,-252C204,-252 198,-246 198,-240"/>
<polyline fill="none" stroke="black" points="198,-240 198,-228 "/>
<path fill="none" stroke="black" d="M198,-228C198,-222 204,-216 210,-216"/>
<polyline fill="none" stroke="black" points="210,-216 314,-216 "/>
<path fill="none" stroke="black" d="M314,-216C320,-216 326,-222 326,-228"/>
<polyline fill="none" stroke="black" points="326,-228 326,-240 "/>
<path fill="none" stroke="black" d="M326,-240C326,-246 320,-252 314,-252"/>
<text text-anchor="start" x="206.5" y="-231.233" font-family="Times Roman,serif" font-size="14.00"> Differentiation </text>
</a>
</g>
<!-- TAYLOR_SERIES&#45;&gt;DEFINITION_OF_DERIVATIVE -->
<!-- CHAPMAN_KOLMOGOROV_RELATION -->
<g id="node11" class="node"><title>CHAPMAN_KOLMOGOROV_RELATION</title>
<a xlink:href="CHAPMAN_KOLMOGOROV_RELATION.html" xlink:title=" The Chapman Kolmogorov Relation " target="_top">
<polyline fill="none" stroke="black" points="508,-324 264,-324 "/>
<path fill="none" stroke="black" d="M264,-324C258,-324 252,-318 252,-312"/>
<polyline fill="none" stroke="black" points="252,-312 252,-300 "/>
<path fill="none" stroke="black" d="M252,-300C252,-294 258,-288 264,-288"/>
<polyline fill="none" stroke="black" points="264,-288 508,-288 "/>
<path fill="none" stroke="black" d="M508,-288C514,-288 520,-294 520,-300"/>
<polyline fill="none" stroke="black" points="520,-300 520,-312 "/>
<path fill="none" stroke="black" d="M520,-312C520,-318 514,-324 508,-324"/>
<text text-anchor="start" x="260.5" y="-303.233" font-family="Times Roman,serif" font-size="14.00"> The Chapman Kolmogorov Relation </text>
</a>
</g>
<!-- CHAPMAN_KOLMOGOROV_RELATION&#45;&gt;CONTINUOUS_TIME_MARKOV_CHAIN -->
<g id="edge12" class="edge"><title>CHAPMAN_KOLMOGOROV_RELATION&#45;&gt;CONTINUOUS_TIME_MARKOV_CHAIN</title>
<path fill="none" stroke="black" d="M377.388,-287.762C365.636,-262.876 344.483,-218.082 330.852,-189.216"/>
<polygon fill="black" stroke="black" points="333.977,-187.638 326.542,-180.09 327.648,-190.627 333.977,-187.638"/>
</g>
<!-- DEFINITION_OF_DERIVATIVE&#45;&gt;CONTINUOUS_TIME_MARKOV_CHAIN -->
<g id="edge14" class="edge"><title>DEFINITION_OF_DERIVATIVE&#45;&gt;CONTINUOUS_TIME_MARKOV_CHAIN</title>
<path fill="none" stroke="black" d="M276.131,-215.831C282.581,-207.539 290.345,-197.557 297.425,-188.453"/>
<polygon fill="black" stroke="black" points="300.302,-190.456 303.679,-180.413 294.776,-186.158 300.302,-190.456"/>
</g>
<!-- MARKOV_PROPERTY -->
<g id="node16" class="node"><title>MARKOV_PROPERTY</title>
<a xlink:href="MARKOV_PROPERTY.html" xlink:title=" The Markov Property " target="_top">
<polyline fill="none" stroke="black" points="563,-252 415,-252 "/>
<path fill="none" stroke="black" d="M415,-252C409,-252 403,-246 403,-240"/>
<polyline fill="none" stroke="black" points="403,-240 403,-228 "/>
<path fill="none" stroke="black" d="M403,-228C403,-222 409,-216 415,-216"/>
<polyline fill="none" stroke="black" points="415,-216 563,-216 "/>
<path fill="none" stroke="black" d="M563,-216C569,-216 575,-222 575,-228"/>
<polyline fill="none" stroke="black" points="575,-228 575,-240 "/>
<path fill="none" stroke="black" d="M575,-240C575,-246 569,-252 563,-252"/>
<text text-anchor="start" x="411.5" y="-231.233" font-family="Times Roman,serif" font-size="14.00"> The Markov Property </text>
</a>
</g>
<!-- MARKOV_PROPERTY&#45;&gt;CONTINUOUS_TIME_MARKOV_CHAIN -->
<g id="edge18" class="edge"><title>MARKOV_PROPERTY&#45;&gt;CONTINUOUS_TIME_MARKOV_CHAIN</title>
<path fill="none" stroke="black" d="M445.849,-215.831C422.878,-206.159 394.449,-194.189 370.237,-183.994"/>
<polygon fill="black" stroke="black" points="371.415,-180.693 360.84,-180.038 368.698,-187.144 371.415,-180.693"/>
</g>
</g>
</svg>
