<?xml version="1.0" encoding="UTF-8" standalone="no"?>
<!DOCTYPE svg PUBLIC "-//W3C//DTD SVG 1.1//EN"
 "http://www.w3.org/Graphics/SVG/1.1/DTD/svg11.dtd">
<!-- Generated by graphviz version 2.28.0 (20110509.1545)
 -->
<!-- Title: _anonymous_0 Pages: 1 -->
<svg width="521pt" height="260pt"
 viewBox="0.00 0.00 521.00 260.00" xmlns="http://www.w3.org/2000/svg" xmlns:xlink="http://www.w3.org/1999/xlink">
<g id="graph1" class="graph" transform="scale(1 1) rotate(0) translate(4 256)">
<title>_anonymous_0</title>
<!-- CONTINUOUS_TIME_MARKOV_CHAIN -->
<g id="node1" class="node"><title>CONTINUOUS_TIME_MARKOV_CHAIN</title>
<a xlink:href="CONTINUOUS_TIME_MARKOV_CHAIN.html" xlink:title="Markov chains in continuous time" target="_top">
<polyline fill="none" stroke="blue" stroke-width="2" points="339,-108 155,-108 "/>
<path fill="none" stroke="blue" stroke-width="2" d="M155,-108C149,-108 143,-102 143,-96"/>
<polyline fill="none" stroke="blue" stroke-width="2" points="143,-96 143,-84 "/>
<path fill="none" stroke="blue" stroke-width="2" d="M143,-84C143,-78 149,-72 155,-72"/>
<polyline fill="none" stroke="blue" stroke-width="2" points="155,-72 339,-72 "/>
<path fill="none" stroke="blue" stroke-width="2" d="M339,-72C345,-72 351,-78 351,-84"/>
<polyline fill="none" stroke="blue" stroke-width="2" points="351,-84 351,-96 "/>
<path fill="none" stroke="blue" stroke-width="2" d="M351,-96C351,-102 345,-108 339,-108"/>
<text text-anchor="start" x="151.5" y="-84.5" font-family="Times,serif" font-size="14.00">Markov chains in continuous time</text>
</a>
</g>
<!-- MM1_QUEUE -->
<g id="node9" class="node"><title>MM1_QUEUE</title>
<a xlink:href="MM1_QUEUE.html" xlink:title="The M/M/1 Queue " target="_top">
<polyline fill="none" stroke="black" points="230.25,-36 129.75,-36 "/>
<path fill="none" stroke="black" d="M129.75,-36C123.75,-36 117.75,-30 117.75,-24"/>
<polyline fill="none" stroke="black" points="117.75,-24 117.75,-12 "/>
<path fill="none" stroke="black" d="M117.75,-12C117.75,-6 123.75,-0 129.75,-0"/>
<polyline fill="none" stroke="black" points="129.75,-0 230.25,-0 "/>
<path fill="none" stroke="black" d="M230.25,-0C236.25,-0 242.25,-6 242.25,-12"/>
<polyline fill="none" stroke="black" points="242.25,-12 242.25,-24 "/>
<path fill="none" stroke="black" d="M242.25,-24C242.25,-30 236.25,-36 230.25,-36"/>
<text text-anchor="start" x="126" y="-12.5" font-family="Times,serif" font-size="14.00">The M/M/1 Queue </text>
</a>
</g>
<!-- CONTINUOUS_TIME_MARKOV_CHAIN&#45;&gt;MM1_QUEUE -->
<g id="edge10" class="edge"><title>CONTINUOUS_TIME_MARKOV_CHAIN&#45;&gt;MM1_QUEUE</title>
<path fill="none" stroke="black" d="M230.438,-71.6966C222.325,-63.2198 212.412,-52.8636 203.529,-43.5826"/>
<polygon fill="black" stroke="black" points="205.814,-40.9084 196.371,-36.1043 200.757,-45.7486 205.814,-40.9084"/>
</g>
<!-- POISSON_PROCESS -->
<g id="node11" class="node"><title>POISSON_PROCESS</title>
<a xlink:href="POISSON_PROCESS.html" xlink:title="Poisson Process" target="_top">
<polyline fill="none" stroke="black" points="355,-36 273,-36 "/>
<path fill="none" stroke="black" d="M273,-36C267,-36 261,-30 261,-24"/>
<polyline fill="none" stroke="black" points="261,-24 261,-12 "/>
<path fill="none" stroke="black" d="M261,-12C261,-6 267,-0 273,-0"/>
<polyline fill="none" stroke="black" points="273,-0 355,-0 "/>
<path fill="none" stroke="black" d="M355,-0C361,-0 367,-6 367,-12"/>
<polyline fill="none" stroke="black" points="367,-12 367,-24 "/>
<path fill="none" stroke="black" d="M367,-24C367,-30 361,-36 355,-36"/>
<text text-anchor="start" x="269.5" y="-12.5" font-family="Times,serif" font-size="14.00">Poisson Process</text>
</a>
</g>
<!-- CONTINUOUS_TIME_MARKOV_CHAIN&#45;&gt;POISSON_PROCESS -->
<g id="edge12" class="edge"><title>CONTINUOUS_TIME_MARKOV_CHAIN&#45;&gt;POISSON_PROCESS</title>
<path fill="none" stroke="black" d="M263.562,-71.6966C271.675,-63.2198 281.588,-52.8636 290.471,-43.5826"/>
<polygon fill="black" stroke="black" points="293.243,-45.7486 297.629,-36.1043 288.186,-40.9084 293.243,-45.7486"/>
</g>
<!-- CHAPMAN_KOLMOGOROV_RELATION -->
<g id="node2" class="node"><title>CHAPMAN_KOLMOGOROV_RELATION</title>
<a xlink:href="CHAPMAN_KOLMOGOROV_RELATION.html" xlink:title="The Chapman Kolmogorov Relation" target="_top">
<polyline fill="none" stroke="black" points="208.25,-252 11.75,-252 "/>
<path fill="none" stroke="black" d="M11.75,-252C5.75,-252 -0.25,-246 -0.25,-240"/>
<polyline fill="none" stroke="black" points="-0.25,-240 -0.25,-228 "/>
<path fill="none" stroke="black" d="M-0.25,-228C-0.25,-222 5.75,-216 11.75,-216"/>
<polyline fill="none" stroke="black" points="11.75,-216 208.25,-216 "/>
<path fill="none" stroke="black" d="M208.25,-216C214.25,-216 220.25,-222 220.25,-228"/>
<polyline fill="none" stroke="black" points="220.25,-228 220.25,-240 "/>
<path fill="none" stroke="black" d="M220.25,-240C220.25,-246 214.25,-252 208.25,-252"/>
<text text-anchor="start" x="8" y="-228.5" font-family="Times,serif" font-size="14.00">The Chapman Kolmogorov Relation</text>
</a>
</g>
<!-- CHAPMAN_KOLMOGOROV_RELATION&#45;&gt;CONTINUOUS_TIME_MARKOV_CHAIN -->
<g id="edge2" class="edge"><title>CHAPMAN_KOLMOGOROV_RELATION&#45;&gt;CONTINUOUS_TIME_MARKOV_CHAIN</title>
<path fill="none" stroke="black" d="M107.375,-215.726C105.41,-196.29 105.311,-164.733 121,-144 131.534,-130.079 146.419,-119.782 162.283,-112.176"/>
<polygon fill="black" stroke="black" points="163.985,-115.251 171.712,-108.002 161.151,-108.85 163.985,-115.251"/>
</g>
<!-- MARKOV_PROPERTY -->
<g id="node6" class="node"><title>MARKOV_PROPERTY</title>
<a xlink:href="MARKOV_PROPERTY.html" xlink:title="The Markov Property" target="_top">
<polyline fill="none" stroke="black" points="256,-180 142,-180 "/>
<path fill="none" stroke="black" d="M142,-180C136,-180 130,-174 130,-168"/>
<polyline fill="none" stroke="black" points="130,-168 130,-156 "/>
<path fill="none" stroke="black" d="M130,-156C130,-150 136,-144 142,-144"/>
<polyline fill="none" stroke="black" points="142,-144 256,-144 "/>
<path fill="none" stroke="black" d="M256,-144C262,-144 268,-150 268,-156"/>
<polyline fill="none" stroke="black" points="268,-156 268,-168 "/>
<path fill="none" stroke="black" d="M268,-168C268,-174 262,-180 256,-180"/>
<text text-anchor="start" x="138.5" y="-156.5" font-family="Times,serif" font-size="14.00">The Markov Property</text>
</a>
</g>
<!-- CHAPMAN_KOLMOGOROV_RELATION&#45;&gt;MARKOV_PROPERTY -->
<!-- DEFINITION_OF_DERIVATIVE -->
<g id="node4" class="node"><title>DEFINITION_OF_DERIVATIVE</title>
<a xlink:href="DEFINITION_OF_DERIVATIVE.html" xlink:title="Differentiation" target="_top">
<polyline fill="none" stroke="black" points="333.25,-252 258.75,-252 "/>
<path fill="none" stroke="black" d="M258.75,-252C252.75,-252 246.75,-246 246.75,-240"/>
<polyline fill="none" stroke="black" points="246.75,-240 246.75,-228 "/>
<path fill="none" stroke="black" d="M246.75,-228C246.75,-222 252.75,-216 258.75,-216"/>
<polyline fill="none" stroke="black" points="258.75,-216 333.25,-216 "/>
<path fill="none" stroke="black" d="M333.25,-216C339.25,-216 345.25,-222 345.25,-228"/>
<polyline fill="none" stroke="black" points="345.25,-228 345.25,-240 "/>
<path fill="none" stroke="black" d="M345.25,-240C345.25,-246 339.25,-252 333.25,-252"/>
<text text-anchor="start" x="255" y="-228.5" font-family="Times,serif" font-size="14.00">Differentiation</text>
</a>
</g>
<!-- DEFINITION_OF_DERIVATIVE&#45;&gt;CONTINUOUS_TIME_MARKOV_CHAIN -->
<g id="edge4" class="edge"><title>DEFINITION_OF_DERIVATIVE&#45;&gt;CONTINUOUS_TIME_MARKOV_CHAIN</title>
<path fill="none" stroke="black" d="M293.917,-215.83C291.342,-197.576 286.137,-168.078 277,-144 273.474,-134.708 268.492,-125.094 263.6,-116.647"/>
<polygon fill="black" stroke="black" points="266.556,-114.771 258.399,-108.01 260.559,-118.382 266.556,-114.771"/>
</g>
<!-- MARKOV_PROPERTY&#45;&gt;CONTINUOUS_TIME_MARKOV_CHAIN -->
<g id="edge6" class="edge"><title>MARKOV_PROPERTY&#45;&gt;CONTINUOUS_TIME_MARKOV_CHAIN</title>
<path fill="none" stroke="black" d="M210.865,-143.697C216.503,-135.474 223.354,-125.483 229.569,-116.421"/>
<polygon fill="black" stroke="black" points="232.503,-118.331 235.271,-108.104 226.729,-114.372 232.503,-118.331"/>
</g>
<!-- TAYLOR_SERIES -->
<g id="node13" class="node"><title>TAYLOR_SERIES</title>
<a xlink:href="TAYLOR_SERIES.html" xlink:title="One dimensional Taylor Series" target="_top">
<polyline fill="none" stroke="black" points="501.25,-180 336.75,-180 "/>
<path fill="none" stroke="black" d="M336.75,-180C330.75,-180 324.75,-174 324.75,-168"/>
<polyline fill="none" stroke="black" points="324.75,-168 324.75,-156 "/>
<path fill="none" stroke="black" d="M324.75,-156C324.75,-150 330.75,-144 336.75,-144"/>
<polyline fill="none" stroke="black" points="336.75,-144 501.25,-144 "/>
<path fill="none" stroke="black" d="M501.25,-144C507.25,-144 513.25,-150 513.25,-156"/>
<polyline fill="none" stroke="black" points="513.25,-156 513.25,-168 "/>
<path fill="none" stroke="black" d="M513.25,-168C513.25,-174 507.25,-180 501.25,-180"/>
<text text-anchor="start" x="333" y="-156.5" font-family="Times,serif" font-size="14.00">One dimensional Taylor Series</text>
</a>
</g>
<!-- TAYLOR_SERIES&#45;&gt;CONTINUOUS_TIME_MARKOV_CHAIN -->
<g id="edge14" class="edge"><title>TAYLOR_SERIES&#45;&gt;CONTINUOUS_TIME_MARKOV_CHAIN</title>
<path fill="none" stroke="black" d="M376.924,-143.876C353.202,-134.222 323.384,-122.087 298.299,-111.878"/>
<polygon fill="black" stroke="black" points="299.521,-108.596 288.939,-108.068 296.882,-115.08 299.521,-108.596"/>
</g>
</g>
</svg>
