<?xml version="1.0" encoding="UTF-8" standalone="no"?>
<!DOCTYPE svg PUBLIC "-//W3C//DTD SVG 1.1//EN"
 "http://www.w3.org/Graphics/SVG/1.1/DTD/svg11.dtd">
<!-- Generated by graphviz version 2.28.0 (20110509.1545)
 -->
<!-- Title: _anonymous_0 Pages: 1 -->
<svg width="521pt" height="332pt"
 viewBox="0.00 0.00 521.00 332.00" xmlns="http://www.w3.org/2000/svg" xmlns:xlink="http://www.w3.org/1999/xlink">
<g id="graph1" class="graph" transform="scale(1 1) rotate(0) translate(4 328)">
<title>_anonymous_0</title>
<!-- CONTINUOUS_TIME_MARKOV_CHAIN -->
<g id="node1" class="node"><title>CONTINUOUS_TIME_MARKOV_CHAIN</title>
<a xlink:href="CONTINUOUS_TIME_MARKOV_CHAIN.html" xlink:title="Markov chains in continuous time" target="_top">
<polyline fill="none" stroke="blue" stroke-width="2" points="339,-180 155,-180 "/>
<path fill="none" stroke="blue" stroke-width="2" d="M155,-180C149,-180 143,-174 143,-168"/>
<polyline fill="none" stroke="blue" stroke-width="2" points="143,-168 143,-156 "/>
<path fill="none" stroke="blue" stroke-width="2" d="M143,-156C143,-150 149,-144 155,-144"/>
<polyline fill="none" stroke="blue" stroke-width="2" points="155,-144 339,-144 "/>
<path fill="none" stroke="blue" stroke-width="2" d="M339,-144C345,-144 351,-150 351,-156"/>
<polyline fill="none" stroke="blue" stroke-width="2" points="351,-156 351,-168 "/>
<path fill="none" stroke="blue" stroke-width="2" d="M351,-168C351,-174 345,-180 339,-180"/>
<text text-anchor="start" x="151.5" y="-156.5" font-family="Times,serif" font-size="14.00">Markov chains in continuous time</text>
</a>
</g>
<!-- EXPONENTIAL_GROWTH_DECAY -->
<g id="node6" class="node"><title>EXPONENTIAL_GROWTH_DECAY</title>
<a xlink:href="EXPONENTIAL_GROWTH_DECAY.html" xlink:title="Exponential growth/decay" target="_top">
<polyline fill="none" stroke="black" points="154,-108 14,-108 "/>
<path fill="none" stroke="black" d="M14,-108C8,-108 2,-102 2,-96"/>
<polyline fill="none" stroke="black" points="2,-96 2,-84 "/>
<path fill="none" stroke="black" d="M2,-84C2,-78 8,-72 14,-72"/>
<polyline fill="none" stroke="black" points="14,-72 154,-72 "/>
<path fill="none" stroke="black" d="M154,-72C160,-72 166,-78 166,-84"/>
<polyline fill="none" stroke="black" points="166,-84 166,-96 "/>
<path fill="none" stroke="black" d="M166,-96C166,-102 160,-108 154,-108"/>
<text text-anchor="start" x="10.5" y="-84.5" font-family="Times,serif" font-size="14.00">Exponential growth/decay</text>
</a>
</g>
<!-- CONTINUOUS_TIME_MARKOV_CHAIN&#45;&gt;EXPONENTIAL_GROWTH_DECAY -->
<g id="edge6" class="edge"><title>CONTINUOUS_TIME_MARKOV_CHAIN&#45;&gt;EXPONENTIAL_GROWTH_DECAY</title>
<path fill="none" stroke="black" d="M207.126,-143.876C184.843,-134.307 156.885,-122.3 133.244,-112.148"/>
<polygon fill="black" stroke="black" points="134.314,-108.798 123.745,-108.068 131.552,-115.23 134.314,-108.798"/>
</g>
<!-- MM1_QUEUE -->
<g id="node11" class="node"><title>MM1_QUEUE</title>
<a xlink:href="MM1_QUEUE.html" xlink:title="The M/M/1 Queue " target="_top">
<polyline fill="none" stroke="black" points="297.25,-108 196.75,-108 "/>
<path fill="none" stroke="black" d="M196.75,-108C190.75,-108 184.75,-102 184.75,-96"/>
<polyline fill="none" stroke="black" points="184.75,-96 184.75,-84 "/>
<path fill="none" stroke="black" d="M184.75,-84C184.75,-78 190.75,-72 196.75,-72"/>
<polyline fill="none" stroke="black" points="196.75,-72 297.25,-72 "/>
<path fill="none" stroke="black" d="M297.25,-72C303.25,-72 309.25,-78 309.25,-84"/>
<polyline fill="none" stroke="black" points="309.25,-84 309.25,-96 "/>
<path fill="none" stroke="black" d="M309.25,-96C309.25,-102 303.25,-108 297.25,-108"/>
<text text-anchor="start" x="193" y="-84.5" font-family="Times,serif" font-size="14.00">The M/M/1 Queue </text>
</a>
</g>
<!-- CONTINUOUS_TIME_MARKOV_CHAIN&#45;&gt;MM1_QUEUE -->
<g id="edge12" class="edge"><title>CONTINUOUS_TIME_MARKOV_CHAIN&#45;&gt;MM1_QUEUE</title>
<path fill="none" stroke="black" d="M247,-143.697C247,-135.983 247,-126.712 247,-118.112"/>
<polygon fill="black" stroke="black" points="250.5,-118.104 247,-108.104 243.5,-118.104 250.5,-118.104"/>
</g>
<!-- POISSON_PROCESS -->
<g id="node13" class="node"><title>POISSON_PROCESS</title>
<a xlink:href="POISSON_PROCESS.html" xlink:title="Poisson Process" target="_top">
<polyline fill="none" stroke="black" points="252,-36 170,-36 "/>
<path fill="none" stroke="black" d="M170,-36C164,-36 158,-30 158,-24"/>
<polyline fill="none" stroke="black" points="158,-24 158,-12 "/>
<path fill="none" stroke="black" d="M158,-12C158,-6 164,-0 170,-0"/>
<polyline fill="none" stroke="black" points="170,-0 252,-0 "/>
<path fill="none" stroke="black" d="M252,-0C258,-0 264,-6 264,-12"/>
<polyline fill="none" stroke="black" points="264,-12 264,-24 "/>
<path fill="none" stroke="black" d="M264,-24C264,-30 258,-36 252,-36"/>
<text text-anchor="start" x="166.5" y="-12.5" font-family="Times,serif" font-size="14.00">Poisson Process</text>
</a>
</g>
<!-- CONTINUOUS_TIME_MARKOV_CHAIN&#45;&gt;POISSON_PROCESS -->
<g id="edge14" class="edge"><title>CONTINUOUS_TIME_MARKOV_CHAIN&#45;&gt;POISSON_PROCESS</title>
<path fill="none" stroke="black" d="M282.165,-143.941C295.982,-135.254 310.347,-123.263 318,-108 325.172,-93.6973 326.437,-85.5946 318,-72 307.9,-55.7264 291.154,-44.296 273.874,-36.3324"/>
<polygon fill="black" stroke="black" points="274.831,-32.9366 264.258,-32.2562 272.099,-39.3815 274.831,-32.9366"/>
</g>
<!-- CHAPMAN_KOLMOGOROV_RELATION -->
<g id="node2" class="node"><title>CHAPMAN_KOLMOGOROV_RELATION</title>
<a xlink:href="CHAPMAN_KOLMOGOROV_RELATION.html" xlink:title="The Chapman Kolmogorov Relation" target="_top">
<polyline fill="none" stroke="black" points="208.25,-324 11.75,-324 "/>
<path fill="none" stroke="black" d="M11.75,-324C5.75,-324 -0.25,-318 -0.25,-312"/>
<polyline fill="none" stroke="black" points="-0.25,-312 -0.25,-300 "/>
<path fill="none" stroke="black" d="M-0.25,-300C-0.25,-294 5.75,-288 11.75,-288"/>
<polyline fill="none" stroke="black" points="11.75,-288 208.25,-288 "/>
<path fill="none" stroke="black" d="M208.25,-288C214.25,-288 220.25,-294 220.25,-300"/>
<polyline fill="none" stroke="black" points="220.25,-300 220.25,-312 "/>
<path fill="none" stroke="black" d="M220.25,-312C220.25,-318 214.25,-324 208.25,-324"/>
<text text-anchor="start" x="8" y="-300.5" font-family="Times,serif" font-size="14.00">The Chapman Kolmogorov Relation</text>
</a>
</g>
<!-- CHAPMAN_KOLMOGOROV_RELATION&#45;&gt;CONTINUOUS_TIME_MARKOV_CHAIN -->
<g id="edge2" class="edge"><title>CHAPMAN_KOLMOGOROV_RELATION&#45;&gt;CONTINUOUS_TIME_MARKOV_CHAIN</title>
<path fill="none" stroke="black" d="M107.375,-287.726C105.41,-268.29 105.311,-236.733 121,-216 131.534,-202.079 146.419,-191.782 162.283,-184.176"/>
<polygon fill="black" stroke="black" points="163.985,-187.251 171.712,-180.002 161.151,-180.85 163.985,-187.251"/>
</g>
<!-- MARKOV_PROPERTY -->
<g id="node8" class="node"><title>MARKOV_PROPERTY</title>
<a xlink:href="MARKOV_PROPERTY.html" xlink:title="The Markov Property" target="_top">
<polyline fill="none" stroke="black" points="256,-252 142,-252 "/>
<path fill="none" stroke="black" d="M142,-252C136,-252 130,-246 130,-240"/>
<polyline fill="none" stroke="black" points="130,-240 130,-228 "/>
<path fill="none" stroke="black" d="M130,-228C130,-222 136,-216 142,-216"/>
<polyline fill="none" stroke="black" points="142,-216 256,-216 "/>
<path fill="none" stroke="black" d="M256,-216C262,-216 268,-222 268,-228"/>
<polyline fill="none" stroke="black" points="268,-228 268,-240 "/>
<path fill="none" stroke="black" d="M268,-240C268,-246 262,-252 256,-252"/>
<text text-anchor="start" x="138.5" y="-228.5" font-family="Times,serif" font-size="14.00">The Markov Property</text>
</a>
</g>
<!-- CHAPMAN_KOLMOGOROV_RELATION&#45;&gt;MARKOV_PROPERTY -->
<!-- DEFINITION_OF_DERIVATIVE -->
<g id="node4" class="node"><title>DEFINITION_OF_DERIVATIVE</title>
<a xlink:href="DEFINITION_OF_DERIVATIVE.html" xlink:title="Differentiation" target="_top">
<polyline fill="none" stroke="black" points="333.25,-324 258.75,-324 "/>
<path fill="none" stroke="black" d="M258.75,-324C252.75,-324 246.75,-318 246.75,-312"/>
<polyline fill="none" stroke="black" points="246.75,-312 246.75,-300 "/>
<path fill="none" stroke="black" d="M246.75,-300C246.75,-294 252.75,-288 258.75,-288"/>
<polyline fill="none" stroke="black" points="258.75,-288 333.25,-288 "/>
<path fill="none" stroke="black" d="M333.25,-288C339.25,-288 345.25,-294 345.25,-300"/>
<polyline fill="none" stroke="black" points="345.25,-300 345.25,-312 "/>
<path fill="none" stroke="black" d="M345.25,-312C345.25,-318 339.25,-324 333.25,-324"/>
<text text-anchor="start" x="255" y="-300.5" font-family="Times,serif" font-size="14.00">Differentiation</text>
</a>
</g>
<!-- DEFINITION_OF_DERIVATIVE&#45;&gt;CONTINUOUS_TIME_MARKOV_CHAIN -->
<g id="edge4" class="edge"><title>DEFINITION_OF_DERIVATIVE&#45;&gt;CONTINUOUS_TIME_MARKOV_CHAIN</title>
<path fill="none" stroke="black" d="M293.917,-287.83C291.342,-269.576 286.137,-240.078 277,-216 273.474,-206.708 268.492,-197.094 263.6,-188.647"/>
<polygon fill="black" stroke="black" points="266.556,-186.771 258.399,-180.01 260.559,-190.382 266.556,-186.771"/>
</g>
<!-- EXPONENTIAL_GROWTH_DECAY&#45;&gt;POISSON_PROCESS -->
<!-- MARKOV_PROPERTY&#45;&gt;CONTINUOUS_TIME_MARKOV_CHAIN -->
<g id="edge8" class="edge"><title>MARKOV_PROPERTY&#45;&gt;CONTINUOUS_TIME_MARKOV_CHAIN</title>
<path fill="none" stroke="black" d="M210.865,-215.697C216.503,-207.474 223.354,-197.483 229.569,-188.421"/>
<polygon fill="black" stroke="black" points="232.503,-190.331 235.271,-180.104 226.729,-186.372 232.503,-190.331"/>
</g>
<!-- TAYLOR_SERIES -->
<g id="node16" class="node"><title>TAYLOR_SERIES</title>
<a xlink:href="TAYLOR_SERIES.html" xlink:title="One dimensional Taylor Series" target="_top">
<polyline fill="none" stroke="black" points="501.25,-252 336.75,-252 "/>
<path fill="none" stroke="black" d="M336.75,-252C330.75,-252 324.75,-246 324.75,-240"/>
<polyline fill="none" stroke="black" points="324.75,-240 324.75,-228 "/>
<path fill="none" stroke="black" d="M324.75,-228C324.75,-222 330.75,-216 336.75,-216"/>
<polyline fill="none" stroke="black" points="336.75,-216 501.25,-216 "/>
<path fill="none" stroke="black" d="M501.25,-216C507.25,-216 513.25,-222 513.25,-228"/>
<polyline fill="none" stroke="black" points="513.25,-228 513.25,-240 "/>
<path fill="none" stroke="black" d="M513.25,-240C513.25,-246 507.25,-252 501.25,-252"/>
<text text-anchor="start" x="333" y="-228.5" font-family="Times,serif" font-size="14.00">One dimensional Taylor Series</text>
</a>
</g>
<!-- TAYLOR_SERIES&#45;&gt;CONTINUOUS_TIME_MARKOV_CHAIN -->
<g id="edge18" class="edge"><title>TAYLOR_SERIES&#45;&gt;CONTINUOUS_TIME_MARKOV_CHAIN</title>
<path fill="none" stroke="black" d="M376.924,-215.876C353.202,-206.222 323.384,-194.087 298.299,-183.878"/>
<polygon fill="black" stroke="black" points="299.521,-180.596 288.939,-180.068 296.882,-187.08 299.521,-180.596"/>
</g>
</g>
</svg>
