<?xml version="1.0" encoding="UTF-8" standalone="no"?>
<!DOCTYPE svg PUBLIC "-//W3C//DTD SVG 1.1//EN"
 "http://www.w3.org/Graphics/SVG/1.1/DTD/svg11.dtd">
<!-- Generated by graphviz version 2.28.0 (20110509.1545)
 -->
<!-- Title: _anonymous_0 Pages: 1 -->
<svg width="380pt" height="332pt"
 viewBox="0.00 0.00 380.00 332.00" xmlns="http://www.w3.org/2000/svg" xmlns:xlink="http://www.w3.org/1999/xlink">
<g id="graph1" class="graph" transform="scale(1 1) rotate(0) translate(4 328)">
<title>_anonymous_0</title>
<!-- CONTINUOUS_TIME_MARKOV_CHAIN -->
<g id="node1" class="node"><title>CONTINUOUS_TIME_MARKOV_CHAIN</title>
<a xlink:href="CONTINUOUS_TIME_MARKOV_CHAIN.html" xlink:title="TITLE:" target="_top">
<polyline fill="none" stroke="blue" stroke-width="2" points="243.25,-180 208.75,-180 "/>
<path fill="none" stroke="blue" stroke-width="2" d="M208.75,-180C202.75,-180 196.75,-174 196.75,-168"/>
<polyline fill="none" stroke="blue" stroke-width="2" points="196.75,-168 196.75,-156 "/>
<path fill="none" stroke="blue" stroke-width="2" d="M196.75,-156C196.75,-150 202.75,-144 208.75,-144"/>
<polyline fill="none" stroke="blue" stroke-width="2" points="208.75,-144 243.25,-144 "/>
<path fill="none" stroke="blue" stroke-width="2" d="M243.25,-144C249.25,-144 255.25,-150 255.25,-156"/>
<polyline fill="none" stroke="blue" stroke-width="2" points="255.25,-156 255.25,-168 "/>
<path fill="none" stroke="blue" stroke-width="2" d="M255.25,-168C255.25,-174 249.25,-180 243.25,-180"/>
<text text-anchor="start" x="205" y="-156.5" font-family="Times,serif" font-size="14.00">TITLE:</text>
</a>
</g>
<!-- EXPONENTIAL_RANDOM_VARIABLE -->
<g id="node6" class="node"><title>EXPONENTIAL_RANDOM_VARIABLE</title>
<a xlink:href="EXPONENTIAL_RANDOM_VARIABLE.html" xlink:title="Exponential random variable" target="_top">
<polyline fill="none" stroke="black" points="166.25,-108 11.75,-108 "/>
<path fill="none" stroke="black" d="M11.75,-108C5.75,-108 -0.25,-102 -0.25,-96"/>
<polyline fill="none" stroke="black" points="-0.25,-96 -0.25,-84 "/>
<path fill="none" stroke="black" d="M-0.25,-84C-0.25,-78 5.75,-72 11.75,-72"/>
<polyline fill="none" stroke="black" points="11.75,-72 166.25,-72 "/>
<path fill="none" stroke="black" d="M166.25,-72C172.25,-72 178.25,-78 178.25,-84"/>
<polyline fill="none" stroke="black" points="178.25,-84 178.25,-96 "/>
<path fill="none" stroke="black" d="M178.25,-96C178.25,-102 172.25,-108 166.25,-108"/>
<text text-anchor="start" x="8" y="-84.5" font-family="Times,serif" font-size="14.00">Exponential random variable</text>
</a>
</g>
<!-- CONTINUOUS_TIME_MARKOV_CHAIN&#45;&gt;EXPONENTIAL_RANDOM_VARIABLE -->
<g id="edge6" class="edge"><title>CONTINUOUS_TIME_MARKOV_CHAIN&#45;&gt;EXPONENTIAL_RANDOM_VARIABLE</title>
<path fill="none" stroke="black" d="M196.61,-145.983C177.707,-136.325 152.829,-123.613 131.755,-112.846"/>
<polygon fill="black" stroke="black" points="133.179,-109.643 122.681,-108.209 129.994,-115.876 133.179,-109.643"/>
</g>
<!-- MM1_QUEUE -->
<g id="node11" class="node"><title>MM1_QUEUE</title>
<a xlink:href="MM1_QUEUE.html" xlink:title="TITLE:" target="_top">
<polyline fill="none" stroke="black" points="243.25,-108 208.75,-108 "/>
<path fill="none" stroke="black" d="M208.75,-108C202.75,-108 196.75,-102 196.75,-96"/>
<polyline fill="none" stroke="black" points="196.75,-96 196.75,-84 "/>
<path fill="none" stroke="black" d="M196.75,-84C196.75,-78 202.75,-72 208.75,-72"/>
<polyline fill="none" stroke="black" points="208.75,-72 243.25,-72 "/>
<path fill="none" stroke="black" d="M243.25,-72C249.25,-72 255.25,-78 255.25,-84"/>
<polyline fill="none" stroke="black" points="255.25,-84 255.25,-96 "/>
<path fill="none" stroke="black" d="M255.25,-96C255.25,-102 249.25,-108 243.25,-108"/>
<text text-anchor="start" x="205" y="-84.5" font-family="Times,serif" font-size="14.00">TITLE:</text>
</a>
</g>
<!-- CONTINUOUS_TIME_MARKOV_CHAIN&#45;&gt;MM1_QUEUE -->
<g id="edge12" class="edge"><title>CONTINUOUS_TIME_MARKOV_CHAIN&#45;&gt;MM1_QUEUE</title>
<path fill="none" stroke="black" d="M226,-143.697C226,-135.983 226,-126.712 226,-118.112"/>
<polygon fill="black" stroke="black" points="229.5,-118.104 226,-108.104 222.5,-118.104 229.5,-118.104"/>
</g>
<!-- POISSON_PROCESS -->
<g id="node13" class="node"><title>POISSON_PROCESS</title>
<a xlink:href="POISSON_PROCESS.html" xlink:title="TITLE:" target="_top">
<polyline fill="none" stroke="black" points="203.25,-36 168.75,-36 "/>
<path fill="none" stroke="black" d="M168.75,-36C162.75,-36 156.75,-30 156.75,-24"/>
<polyline fill="none" stroke="black" points="156.75,-24 156.75,-12 "/>
<path fill="none" stroke="black" d="M156.75,-12C156.75,-6 162.75,-0 168.75,-0"/>
<polyline fill="none" stroke="black" points="168.75,-0 203.25,-0 "/>
<path fill="none" stroke="black" d="M203.25,-0C209.25,-0 215.25,-6 215.25,-12"/>
<polyline fill="none" stroke="black" points="215.25,-12 215.25,-24 "/>
<path fill="none" stroke="black" d="M215.25,-24C215.25,-30 209.25,-36 203.25,-36"/>
<text text-anchor="start" x="165" y="-12.5" font-family="Times,serif" font-size="14.00">TITLE:</text>
</a>
</g>
<!-- CONTINUOUS_TIME_MARKOV_CHAIN&#45;&gt;POISSON_PROCESS -->
<g id="edge14" class="edge"><title>CONTINUOUS_TIME_MARKOV_CHAIN&#45;&gt;POISSON_PROCESS</title>
<path fill="none" stroke="black" d="M242.475,-143.879C257.906,-125.666 276.815,-96.2018 264,-72 255.498,-55.9442 239.711,-43.8493 224.552,-35.2983"/>
<polygon fill="black" stroke="black" points="225.747,-31.9729 215.265,-30.4283 222.496,-38.1722 225.747,-31.9729"/>
</g>
<!-- CHAPMAN_KOLMOGOROV_RELATION -->
<g id="node2" class="node"><title>CHAPMAN_KOLMOGOROV_RELATION</title>
<a xlink:href="CHAPMAN_KOLMOGOROV_RELATION.html" xlink:title="The Chapman Kolmogorov Relation" target="_top">
<polyline fill="none" stroke="black" points="235.25,-324 38.75,-324 "/>
<path fill="none" stroke="black" d="M38.75,-324C32.75,-324 26.75,-318 26.75,-312"/>
<polyline fill="none" stroke="black" points="26.75,-312 26.75,-300 "/>
<path fill="none" stroke="black" d="M26.75,-300C26.75,-294 32.75,-288 38.75,-288"/>
<polyline fill="none" stroke="black" points="38.75,-288 235.25,-288 "/>
<path fill="none" stroke="black" d="M235.25,-288C241.25,-288 247.25,-294 247.25,-300"/>
<polyline fill="none" stroke="black" points="247.25,-300 247.25,-312 "/>
<path fill="none" stroke="black" d="M247.25,-312C247.25,-318 241.25,-324 235.25,-324"/>
<text text-anchor="start" x="35" y="-300.5" font-family="Times,serif" font-size="14.00">The Chapman Kolmogorov Relation</text>
</a>
</g>
<!-- CHAPMAN_KOLMOGOROV_RELATION&#45;&gt;CONTINUOUS_TIME_MARKOV_CHAIN -->
<g id="edge2" class="edge"><title>CHAPMAN_KOLMOGOROV_RELATION&#45;&gt;CONTINUOUS_TIME_MARKOV_CHAIN</title>
<path fill="none" stroke="black" d="M135.126,-287.911C133.9,-268.928 134.525,-238.054 148,-216 157.26,-200.844 172.679,-189.016 187.374,-180.416"/>
<polygon fill="black" stroke="black" points="189.287,-183.359 196.369,-175.478 185.919,-177.223 189.287,-183.359"/>
</g>
<!-- MARKOV_PROPERTY -->
<g id="node8" class="node"><title>MARKOV_PROPERTY</title>
<a xlink:href="MARKOV_PROPERTY.html" xlink:title="The Markov Property" target="_top">
<polyline fill="none" stroke="black" points="283,-252 169,-252 "/>
<path fill="none" stroke="black" d="M169,-252C163,-252 157,-246 157,-240"/>
<polyline fill="none" stroke="black" points="157,-240 157,-228 "/>
<path fill="none" stroke="black" d="M157,-228C157,-222 163,-216 169,-216"/>
<polyline fill="none" stroke="black" points="169,-216 283,-216 "/>
<path fill="none" stroke="black" d="M283,-216C289,-216 295,-222 295,-228"/>
<polyline fill="none" stroke="black" points="295,-228 295,-240 "/>
<path fill="none" stroke="black" d="M295,-240C295,-246 289,-252 283,-252"/>
<text text-anchor="start" x="165.5" y="-228.5" font-family="Times,serif" font-size="14.00">The Markov Property</text>
</a>
</g>
<!-- CHAPMAN_KOLMOGOROV_RELATION&#45;&gt;MARKOV_PROPERTY -->
<!-- DEFINITION_OF_DERIVATIVE -->
<g id="node4" class="node"><title>DEFINITION_OF_DERIVATIVE</title>
<a xlink:href="DEFINITION_OF_DERIVATIVE.html" xlink:title="Differentiation" target="_top">
<polyline fill="none" stroke="black" points="360.25,-324 285.75,-324 "/>
<path fill="none" stroke="black" d="M285.75,-324C279.75,-324 273.75,-318 273.75,-312"/>
<polyline fill="none" stroke="black" points="273.75,-312 273.75,-300 "/>
<path fill="none" stroke="black" d="M273.75,-300C273.75,-294 279.75,-288 285.75,-288"/>
<polyline fill="none" stroke="black" points="285.75,-288 360.25,-288 "/>
<path fill="none" stroke="black" d="M360.25,-288C366.25,-288 372.25,-294 372.25,-300"/>
<polyline fill="none" stroke="black" points="372.25,-300 372.25,-312 "/>
<path fill="none" stroke="black" d="M372.25,-312C372.25,-318 366.25,-324 360.25,-324"/>
<text text-anchor="start" x="282" y="-300.5" font-family="Times,serif" font-size="14.00">Differentiation</text>
</a>
</g>
<!-- DEFINITION_OF_DERIVATIVE&#45;&gt;CONTINUOUS_TIME_MARKOV_CHAIN -->
<g id="edge4" class="edge"><title>DEFINITION_OF_DERIVATIVE&#45;&gt;CONTINUOUS_TIME_MARKOV_CHAIN</title>
<path fill="none" stroke="black" d="M323.034,-287.803C322.282,-268.723 318.639,-237.762 304,-216 294.162,-201.375 278.805,-189.678 264.31,-181.032"/>
<polygon fill="black" stroke="black" points="265.884,-177.902 255.453,-176.045 262.449,-184.001 265.884,-177.902"/>
</g>
<!-- EXPONENTIAL_RANDOM_VARIABLE&#45;&gt;POISSON_PROCESS -->
<!-- MARKOV_PROPERTY&#45;&gt;CONTINUOUS_TIME_MARKOV_CHAIN -->
<g id="edge8" class="edge"><title>MARKOV_PROPERTY&#45;&gt;CONTINUOUS_TIME_MARKOV_CHAIN</title>
<path fill="none" stroke="black" d="M226,-215.697C226,-207.983 226,-198.712 226,-190.112"/>
<polygon fill="black" stroke="black" points="229.5,-190.104 226,-180.104 222.5,-190.104 229.5,-190.104"/>
</g>
</g>
</svg>
