<?xml version="1.0" encoding="UTF-8" standalone="no"?>
<!DOCTYPE svg PUBLIC "-//W3C//DTD SVG 1.1//EN"
 "http://www.w3.org/Graphics/SVG/1.1/DTD/svg11.dtd">
<!-- Generated by graphviz version 2.36.0 (20140111.2315)
 -->
<!-- Title: %3 Pages: 1 -->
<svg width="540pt" height="332pt"
 viewBox="0.00 0.00 540.00 332.00" xmlns="http://www.w3.org/2000/svg" xmlns:xlink="http://www.w3.org/1999/xlink">
<g id="graph0" class="graph" transform="scale(1 1) rotate(0) translate(4 328)">
<title>%3</title>
<!-- CONTINUOUS_TIME_MARKOV_CHAIN -->
<g id="node1" class="node"><title>CONTINUOUS_TIME_MARKOV_CHAIN</title>
<g id="a_node1"><a xlink:href="CONTINUOUS_TIME_MARKOV_CHAIN.html" xlink:title=" Markov chains in continuous time " target="_top">
<path fill="none" stroke="blue" stroke-width="2" d="M329.5,-180C329.5,-180 142.5,-180 142.5,-180 136.5,-180 130.5,-174 130.5,-168 130.5,-168 130.5,-156 130.5,-156 130.5,-150 136.5,-144 142.5,-144 142.5,-144 329.5,-144 329.5,-144 335.5,-144 341.5,-150 341.5,-156 341.5,-156 341.5,-168 341.5,-168 341.5,-174 335.5,-180 329.5,-180"/>
<text text-anchor="start" x="138" y="-158.3" font-family="Times,serif" font-size="14.00"> Markov chains in continuous time </text>
</a>
</g>
</g>
<!-- MM1_QUEUE -->
<g id="node3" class="node"><title>MM1_QUEUE</title>
<g id="a_node3"><a xlink:href="MM1_QUEUE.html" xlink:title=" The M/M/1 Queue &#160;" target="_top">
<path fill="none" stroke="black" d="M150.25,-108C150.25,-108 43.75,-108 43.75,-108 37.75,-108 31.75,-102 31.75,-96 31.75,-96 31.75,-84 31.75,-84 31.75,-78 37.75,-72 43.75,-72 43.75,-72 150.25,-72 150.25,-72 156.25,-72 162.25,-78 162.25,-84 162.25,-84 162.25,-96 162.25,-96 162.25,-102 156.25,-108 150.25,-108"/>
<text text-anchor="start" x="39.5" y="-86.3" font-family="Times,serif" font-size="14.00"> The M/M/1 Queue &#160;</text>
</a>
</g>
</g>
<!-- CONTINUOUS_TIME_MARKOV_CHAIN&#45;&gt;MM1_QUEUE -->
<g id="edge2" class="edge"><title>CONTINUOUS_TIME_MARKOV_CHAIN&#45;&gt;MM1_QUEUE</title>
<path fill="none" stroke="black" d="M201.997,-143.876C183.402,-134.512 160.173,-122.814 140.294,-112.803"/>
<polygon fill="black" stroke="black" points="141.64,-109.562 131.134,-108.19 138.491,-115.814 141.64,-109.562"/>
</g>
<!-- POISSON_PROCESS -->
<g id="node6" class="node"><title>POISSON_PROCESS</title>
<g id="a_node6"><a xlink:href="POISSON_PROCESS.html" xlink:title=" Poisson Process " target="_top">
<path fill="none" stroke="black" d="M279.25,-108C279.25,-108 192.75,-108 192.75,-108 186.75,-108 180.75,-102 180.75,-96 180.75,-96 180.75,-84 180.75,-84 180.75,-78 186.75,-72 192.75,-72 192.75,-72 279.25,-72 279.25,-72 285.25,-72 291.25,-78 291.25,-84 291.25,-84 291.25,-96 291.25,-96 291.25,-102 285.25,-108 279.25,-108"/>
<text text-anchor="start" x="188.5" y="-86.3" font-family="Times,serif" font-size="14.00"> Poisson Process </text>
</a>
</g>
</g>
<!-- CONTINUOUS_TIME_MARKOV_CHAIN&#45;&gt;POISSON_PROCESS -->
<g id="edge6" class="edge"><title>CONTINUOUS_TIME_MARKOV_CHAIN&#45;&gt;POISSON_PROCESS</title>
<path fill="none" stroke="black" d="M236,-143.697C236,-135.983 236,-126.712 236,-118.112"/>
<polygon fill="black" stroke="black" points="239.5,-118.104 236,-108.104 232.5,-118.104 239.5,-118.104"/>
</g>
<!-- EXPONENTIAL_GROWTH_DECAY -->
<g id="node8" class="node"><title>EXPONENTIAL_GROWTH_DECAY</title>
<g id="a_node8"><a xlink:href="EXPONENTIAL_GROWTH_DECAY.html" xlink:title=" Exponential growth/decay " target="_top">
<path fill="none" stroke="black" d="M279.25,-36C279.25,-36 136.75,-36 136.75,-36 130.75,-36 124.75,-30 124.75,-24 124.75,-24 124.75,-12 124.75,-12 124.75,-6 130.75,-0 136.75,-0 136.75,-0 279.25,-0 279.25,-0 285.25,-0 291.25,-6 291.25,-12 291.25,-12 291.25,-24 291.25,-24 291.25,-30 285.25,-36 279.25,-36"/>
<text text-anchor="start" x="132.5" y="-14.3" font-family="Times,serif" font-size="14.00"> Exponential growth/decay </text>
</a>
</g>
</g>
<!-- CONTINUOUS_TIME_MARKOV_CHAIN&#45;&gt;EXPONENTIAL_GROWTH_DECAY -->
<g id="edge8" class="edge"><title>CONTINUOUS_TIME_MARKOV_CHAIN&#45;&gt;EXPONENTIAL_GROWTH_DECAY</title>
<path fill="none" stroke="black" d="M266.769,-143.907C279.544,-135.021 293.001,-122.883 300,-108 306.809,-93.521 308.007,-85.8526 300,-72 292.43,-58.9035 280.26,-48.7573 267.217,-41.0156"/>
<polygon fill="black" stroke="black" points="268.547,-37.7542 258.093,-36.0334 265.192,-43.898 268.547,-37.7542"/>
</g>
<!-- TAYLOR_SERIES -->
<g id="node2" class="node"><title>TAYLOR_SERIES</title>
<g id="a_node2"><a xlink:href="TAYLOR_SERIES.html" xlink:title=" One dimensional Taylor Series " target="_top">
<path fill="none" stroke="black" d="M181.5,-324C181.5,-324 12.5,-324 12.5,-324 6.5,-324 0.5,-318 0.5,-312 0.5,-312 0.5,-300 0.5,-300 0.5,-294 6.5,-288 12.5,-288 12.5,-288 181.5,-288 181.5,-288 187.5,-288 193.5,-294 193.5,-300 193.5,-300 193.5,-312 193.5,-312 193.5,-318 187.5,-324 181.5,-324"/>
<text text-anchor="start" x="8" y="-302.3" font-family="Times,serif" font-size="14.00"> One dimensional Taylor Series </text>
</a>
</g>
</g>
<!-- TAYLOR_SERIES&#45;&gt;CONTINUOUS_TIME_MARKOV_CHAIN -->
<g id="edge1" class="edge"><title>TAYLOR_SERIES&#45;&gt;CONTINUOUS_TIME_MARKOV_CHAIN</title>
<path fill="none" stroke="black" d="M99.992,-287.653C104.147,-268.149 113.364,-236.53 132,-216 144.012,-202.767 160.091,-192.362 176.008,-184.406"/>
<polygon fill="black" stroke="black" points="177.783,-187.438 185.33,-180.002 174.793,-181.109 177.783,-187.438"/>
</g>
<!-- DEFINITION_OF_DERIVATIVE -->
<g id="node5" class="node"><title>DEFINITION_OF_DERIVATIVE</title>
<g id="a_node5"><a xlink:href="DEFINITION_OF_DERIVATIVE.html" xlink:title=" Differentiation " target="_top">
<path fill="none" stroke="black" d="M233,-252C233,-252 153,-252 153,-252 147,-252 141,-246 141,-240 141,-240 141,-228 141,-228 141,-222 147,-216 153,-216 153,-216 233,-216 233,-216 239,-216 245,-222 245,-228 245,-228 245,-240 245,-240 245,-246 239,-252 233,-252"/>
<text text-anchor="start" x="149" y="-230.3" font-family="Times,serif" font-size="14.00"> Differentiation </text>
</a>
</g>
</g>
<!-- TAYLOR_SERIES&#45;&gt;DEFINITION_OF_DERIVATIVE -->
<!-- MM1_QUEUE&#45;&gt;EXPONENTIAL_GROWTH_DECAY -->
<!-- MARKOV_PROPERTY -->
<g id="node4" class="node"><title>MARKOV_PROPERTY</title>
<g id="a_node4"><a xlink:href="MARKOV_PROPERTY.html" xlink:title=" The Markov Property " target="_top">
<path fill="none" stroke="black" d="M343.25,-324C343.25,-324 224.75,-324 224.75,-324 218.75,-324 212.75,-318 212.75,-312 212.75,-312 212.75,-300 212.75,-300 212.75,-294 218.75,-288 224.75,-288 224.75,-288 343.25,-288 343.25,-288 349.25,-288 355.25,-294 355.25,-300 355.25,-300 355.25,-312 355.25,-312 355.25,-318 349.25,-324 343.25,-324"/>
<text text-anchor="start" x="220.5" y="-302.3" font-family="Times,serif" font-size="14.00"> The Markov Property </text>
</a>
</g>
</g>
<!-- MARKOV_PROPERTY&#45;&gt;CONTINUOUS_TIME_MARKOV_CHAIN -->
<g id="edge3" class="edge"><title>MARKOV_PROPERTY&#45;&gt;CONTINUOUS_TIME_MARKOV_CHAIN</title>
<path fill="none" stroke="black" d="M278.26,-287.934C272.231,-270.015 262.466,-241.022 254,-216 251.122,-207.493 247.975,-198.22 245.13,-189.844"/>
<polygon fill="black" stroke="black" points="248.378,-188.524 241.847,-180.182 241.751,-190.777 248.378,-188.524"/>
</g>
<!-- DEFINITION_OF_DERIVATIVE&#45;&gt;CONTINUOUS_TIME_MARKOV_CHAIN -->
<g id="edge4" class="edge"><title>DEFINITION_OF_DERIVATIVE&#45;&gt;CONTINUOUS_TIME_MARKOV_CHAIN</title>
<path fill="none" stroke="black" d="M203.629,-215.697C208.628,-207.559 214.691,-197.689 220.212,-188.701"/>
<polygon fill="black" stroke="black" points="223.241,-190.457 225.493,-180.104 217.277,-186.793 223.241,-190.457"/>
</g>
<!-- CHAPMAN_KOLMOGOROV_RELATION -->
<g id="node7" class="node"><title>CHAPMAN_KOLMOGOROV_RELATION</title>
<g id="a_node7"><a xlink:href="CHAPMAN_KOLMOGOROV_RELATION.html" xlink:title=" The Chapman Kolmogorov Relation " target="_top">
<path fill="none" stroke="black" d="M519.5,-252C519.5,-252 320.5,-252 320.5,-252 314.5,-252 308.5,-246 308.5,-240 308.5,-240 308.5,-228 308.5,-228 308.5,-222 314.5,-216 320.5,-216 320.5,-216 519.5,-216 519.5,-216 525.5,-216 531.5,-222 531.5,-228 531.5,-228 531.5,-240 531.5,-240 531.5,-246 525.5,-252 519.5,-252"/>
<text text-anchor="start" x="316" y="-230.3" font-family="Times,serif" font-size="14.00"> The Chapman Kolmogorov Relation </text>
</a>
</g>
</g>
<!-- CHAPMAN_KOLMOGOROV_RELATION&#45;&gt;CONTINUOUS_TIME_MARKOV_CHAIN -->
<g id="edge7" class="edge"><title>CHAPMAN_KOLMOGOROV_RELATION&#45;&gt;CONTINUOUS_TIME_MARKOV_CHAIN</title>
<path fill="none" stroke="black" d="M374.989,-215.876C349.499,-206.179 317.432,-193.98 290.524,-183.743"/>
<polygon fill="black" stroke="black" points="291.456,-180.353 280.865,-180.068 288.967,-186.895 291.456,-180.353"/>
</g>
</g>
</svg>
