<?xml version="1.0" encoding="UTF-8" standalone="no"?>
<!DOCTYPE svg PUBLIC "-//W3C//DTD SVG 1.1//EN"
 "http://www.w3.org/Graphics/SVG/1.1/DTD/svg11.dtd">
<!-- Generated by graphviz version 2.26.3 (20100126.1600)
 -->
<!-- Title: _anonymous_0 Pages: 1 -->
<svg width="627pt" height="332pt"
 viewBox="0.00 0.00 627.00 332.00" xmlns="http://www.w3.org/2000/svg" xmlns:xlink="http://www.w3.org/1999/xlink">
<g id="graph1" class="graph" transform="scale(1 1) rotate(0) translate(4 328)">
<title>_anonymous_0</title>
<!-- CONTINUOUS_TIME_MARKOV_CHAIN -->
<g id="node1" class="node"><title>CONTINUOUS_TIME_MARKOV_CHAIN</title>
<a xlink:href="CONTINUOUS_TIME_MARKOV_CHAIN.html" xlink:title="Markov chains in continuous time" target="_top">
<polyline fill="none" stroke="blue" stroke-width="2" points="390,-180 166,-180 "/>
<path fill="none" stroke="blue" stroke-width="2" d="M166,-180C160,-180 154,-174 154,-168"/>
<polyline fill="none" stroke="blue" stroke-width="2" points="154,-168 154,-156 "/>
<path fill="none" stroke="blue" stroke-width="2" d="M154,-156C154,-150 160,-144 166,-144"/>
<polyline fill="none" stroke="blue" stroke-width="2" points="166,-144 390,-144 "/>
<path fill="none" stroke="blue" stroke-width="2" d="M390,-144C396,-144 402,-150 402,-156"/>
<polyline fill="none" stroke="blue" stroke-width="2" points="402,-156 402,-168 "/>
<path fill="none" stroke="blue" stroke-width="2" d="M402,-168C402,-174 396,-180 390,-180"/>
<text text-anchor="start" x="162" y="-159.233" font-family="Times Roman,serif" font-size="14.00">Markov chains in continuous time</text>
</a>
</g>
<!-- EXPONENTIAL_GROWTH_DECAY -->
<g id="node4" class="node"><title>EXPONENTIAL_GROWTH_DECAY</title>
<a xlink:href="EXPONENTIAL_GROWTH_DECAY.html" xlink:title="Exponential growth/decay" target="_top">
<polyline fill="none" stroke="black" points="186,-108 12,-108 "/>
<path fill="none" stroke="black" d="M12,-108C6,-108 5.92119e-14,-102 4.73695e-14,-96"/>
<polyline fill="none" stroke="black" points="4.73695e-14,-96 2.36848e-14,-84 "/>
<path fill="none" stroke="black" d="M2.36848e-14,-84C1.18424e-14,-78 6,-72 12,-72"/>
<polyline fill="none" stroke="black" points="12,-72 186,-72 "/>
<path fill="none" stroke="black" d="M186,-72C192,-72 198,-78 198,-84"/>
<polyline fill="none" stroke="black" points="198,-84 198,-96 "/>
<path fill="none" stroke="black" d="M198,-96C198,-102 192,-108 186,-108"/>
<text text-anchor="start" x="8.5" y="-87.2333" font-family="Times Roman,serif" font-size="14.00">Exponential growth/decay</text>
</a>
</g>
<!-- CONTINUOUS_TIME_MARKOV_CHAIN&#45;&gt;EXPONENTIAL_GROWTH_DECAY -->
<g id="edge4" class="edge"><title>CONTINUOUS_TIME_MARKOV_CHAIN&#45;&gt;EXPONENTIAL_GROWTH_DECAY</title>
<path fill="none" stroke="black" d="M232.831,-143.831C208.678,-134.116 178.762,-122.083 153.344,-111.859"/>
<polygon fill="black" stroke="black" points="154.428,-108.523 143.844,-108.038 151.816,-115.017 154.428,-108.523"/>
</g>
<!-- POISSON_PROCESS -->
<g id="node11" class="node"><title>POISSON_PROCESS</title>
<a xlink:href="POISSON_PROCESS.html" xlink:title="Poisson Process" target="_top">
<polyline fill="none" stroke="black" points="328,-108 228,-108 "/>
<path fill="none" stroke="black" d="M228,-108C222,-108 216,-102 216,-96"/>
<polyline fill="none" stroke="black" points="216,-96 216,-84 "/>
<path fill="none" stroke="black" d="M216,-84C216,-78 222,-72 228,-72"/>
<polyline fill="none" stroke="black" points="228,-72 328,-72 "/>
<path fill="none" stroke="black" d="M328,-72C334,-72 340,-78 340,-84"/>
<polyline fill="none" stroke="black" points="340,-84 340,-96 "/>
<path fill="none" stroke="black" d="M340,-96C340,-102 334,-108 328,-108"/>
<text text-anchor="start" x="224" y="-87.2333" font-family="Times Roman,serif" font-size="14.00">Poisson Process</text>
</a>
</g>
<!-- CONTINUOUS_TIME_MARKOV_CHAIN&#45;&gt;POISSON_PROCESS -->
<g id="edge12" class="edge"><title>CONTINUOUS_TIME_MARKOV_CHAIN&#45;&gt;POISSON_PROCESS</title>
<path fill="none" stroke="black" d="M278,-143.831C278,-136.131 278,-126.974 278,-118.417"/>
<polygon fill="black" stroke="black" points="281.5,-118.413 278,-108.413 274.5,-118.413 281.5,-118.413"/>
</g>
<!-- MM1_QUEUE -->
<g id="node15" class="node"><title>MM1_QUEUE</title>
<a xlink:href="MM1_QUEUE.html" xlink:title="The M/M/1 Queue " target="_top">
<polyline fill="none" stroke="black" points="293,-36 173,-36 "/>
<path fill="none" stroke="black" d="M173,-36C167,-36 161,-30 161,-24"/>
<polyline fill="none" stroke="black" points="161,-24 161,-12 "/>
<path fill="none" stroke="black" d="M161,-12C161,-6 167,-1.71714e-14 173,-1.65793e-14"/>
<polyline fill="none" stroke="black" points="173,-1.65793e-14 293,-4.73695e-15 "/>
<path fill="none" stroke="black" d="M293,-4.73695e-15C299,-4.14483e-15 305,-6 305,-12"/>
<polyline fill="none" stroke="black" points="305,-12 305,-24 "/>
<path fill="none" stroke="black" d="M305,-24C305,-30 299,-36 293,-36"/>
<text text-anchor="start" x="169" y="-15.2333" font-family="Times Roman,serif" font-size="14.00">The M/M/1 Queue </text>
</a>
</g>
<!-- CONTINUOUS_TIME_MARKOV_CHAIN&#45;&gt;MM1_QUEUE -->
<g id="edge16" class="edge"><title>CONTINUOUS_TIME_MARKOV_CHAIN&#45;&gt;MM1_QUEUE</title>
<path fill="none" stroke="black" d="M313.929,-143.992C327.517,-135.158 341.502,-123.123 349,-108 356.107,-93.6652 357.601,-85.4915 349,-72 340.347,-58.4271 327.299,-48.2115 313.037,-40.5401"/>
<polygon fill="black" stroke="black" points="314.544,-37.3807 304.028,-36.085 311.44,-43.6553 314.544,-37.3807"/>
</g>
<!-- TAYLOR_SERIES -->
<g id="node2" class="node"><title>TAYLOR_SERIES</title>
<a xlink:href="TAYLOR_SERIES.html" xlink:title="One dimensional Taylor Series" target="_top">
<polyline fill="none" stroke="black" points="230,-324 30,-324 "/>
<path fill="none" stroke="black" d="M30,-324C24,-324 18,-318 18,-312"/>
<polyline fill="none" stroke="black" points="18,-312 18,-300 "/>
<path fill="none" stroke="black" d="M18,-300C18,-294 24,-288 30,-288"/>
<polyline fill="none" stroke="black" points="30,-288 230,-288 "/>
<path fill="none" stroke="black" d="M230,-288C236,-288 242,-294 242,-300"/>
<polyline fill="none" stroke="black" points="242,-300 242,-312 "/>
<path fill="none" stroke="black" d="M242,-312C242,-318 236,-324 230,-324"/>
<text text-anchor="start" x="26" y="-303.233" font-family="Times Roman,serif" font-size="14.00">One dimensional Taylor Series</text>
</a>
</g>
<!-- TAYLOR_SERIES&#45;&gt;CONTINUOUS_TIME_MARKOV_CHAIN -->
<g id="edge2" class="edge"><title>TAYLOR_SERIES&#45;&gt;CONTINUOUS_TIME_MARKOV_CHAIN</title>
<path fill="none" stroke="black" d="M125.408,-287.883C121.556,-268.232 118.833,-236.88 134,-216 142.6,-204.161 170.234,-192.561 199.026,-183.165"/>
<polygon fill="black" stroke="black" points="200.333,-186.422 208.809,-180.066 198.219,-179.749 200.333,-186.422"/>
</g>
<!-- MARKOV_PROPERTY -->
<g id="node8" class="node"><title>MARKOV_PROPERTY</title>
<a xlink:href="MARKOV_PROPERTY.html" xlink:title="The Markov Property" target="_top">
<polyline fill="none" stroke="black" points="293,-252 155,-252 "/>
<path fill="none" stroke="black" d="M155,-252C149,-252 143,-246 143,-240"/>
<polyline fill="none" stroke="black" points="143,-240 143,-228 "/>
<path fill="none" stroke="black" d="M143,-228C143,-222 149,-216 155,-216"/>
<polyline fill="none" stroke="black" points="155,-216 293,-216 "/>
<path fill="none" stroke="black" d="M293,-216C299,-216 305,-222 305,-228"/>
<polyline fill="none" stroke="black" points="305,-228 305,-240 "/>
<path fill="none" stroke="black" d="M305,-240C305,-246 299,-252 293,-252"/>
<text text-anchor="start" x="151" y="-231.233" font-family="Times Roman,serif" font-size="14.00">The Markov Property</text>
</a>
</g>
<!-- TAYLOR_SERIES&#45;&gt;MARKOV_PROPERTY -->
<!-- EXPONENTIAL_GROWTH_DECAY&#45;&gt;MM1_QUEUE -->
<!-- DEFINITION_OF_DERIVATIVE -->
<g id="node6" class="node"><title>DEFINITION_OF_DERIVATIVE</title>
<a xlink:href="DEFINITION_OF_DERIVATIVE.html" xlink:title="Differentiation" target="_top">
<polyline fill="none" stroke="black" points="380,-324 286,-324 "/>
<path fill="none" stroke="black" d="M286,-324C280,-324 274,-318 274,-312"/>
<polyline fill="none" stroke="black" points="274,-312 274,-300 "/>
<path fill="none" stroke="black" d="M274,-300C274,-294 280,-288 286,-288"/>
<polyline fill="none" stroke="black" points="286,-288 380,-288 "/>
<path fill="none" stroke="black" d="M380,-288C386,-288 392,-294 392,-300"/>
<polyline fill="none" stroke="black" points="392,-300 392,-312 "/>
<path fill="none" stroke="black" d="M392,-312C392,-318 386,-324 380,-324"/>
<text text-anchor="start" x="282" y="-303.233" font-family="Times Roman,serif" font-size="14.00">Differentiation</text>
</a>
</g>
<!-- DEFINITION_OF_DERIVATIVE&#45;&gt;CONTINUOUS_TIME_MARKOV_CHAIN -->
<g id="edge6" class="edge"><title>DEFINITION_OF_DERIVATIVE&#45;&gt;CONTINUOUS_TIME_MARKOV_CHAIN</title>
<path fill="none" stroke="black" d="M331.21,-287.808C328.911,-269.188 323.966,-239.701 314,-216 310.046,-206.595 304.385,-197.088 298.719,-188.727"/>
<polygon fill="black" stroke="black" points="301.518,-186.623 292.885,-180.482 295.804,-190.666 301.518,-186.623"/>
</g>
<!-- MARKOV_PROPERTY&#45;&gt;CONTINUOUS_TIME_MARKOV_CHAIN -->
<g id="edge8" class="edge"><title>MARKOV_PROPERTY&#45;&gt;CONTINUOUS_TIME_MARKOV_CHAIN</title>
<path fill="none" stroke="black" d="M237.626,-215.831C243.846,-207.539 251.332,-197.557 258.16,-188.453"/>
<polygon fill="black" stroke="black" points="260.99,-190.513 264.19,-180.413 255.39,-186.313 260.99,-190.513"/>
</g>
<!-- CHAPMAN_KOLMOGOROV_RELATION -->
<g id="node13" class="node"><title>CHAPMAN_KOLMOGOROV_RELATION</title>
<a xlink:href="CHAPMAN_KOLMOGOROV_RELATION.html" xlink:title="The Chapman Kolmogorov Relation" target="_top">
<polyline fill="none" stroke="black" points="607,-252 373,-252 "/>
<path fill="none" stroke="black" d="M373,-252C367,-252 361,-246 361,-240"/>
<polyline fill="none" stroke="black" points="361,-240 361,-228 "/>
<path fill="none" stroke="black" d="M361,-228C361,-222 367,-216 373,-216"/>
<polyline fill="none" stroke="black" points="373,-216 607,-216 "/>
<path fill="none" stroke="black" d="M607,-216C613,-216 619,-222 619,-228"/>
<polyline fill="none" stroke="black" points="619,-228 619,-240 "/>
<path fill="none" stroke="black" d="M619,-240C619,-246 613,-252 607,-252"/>
<text text-anchor="start" x="369" y="-231.233" font-family="Times Roman,serif" font-size="14.00">The Chapman Kolmogorov Relation</text>
</a>
</g>
<!-- CHAPMAN_KOLMOGOROV_RELATION&#45;&gt;CONTINUOUS_TIME_MARKOV_CHAIN -->
<g id="edge14" class="edge"><title>CHAPMAN_KOLMOGOROV_RELATION&#45;&gt;CONTINUOUS_TIME_MARKOV_CHAIN</title>
<path fill="none" stroke="black" d="M436.777,-215.924C407.669,-206.039 371.433,-193.732 340.931,-183.373"/>
<polygon fill="black" stroke="black" points="341.839,-179.985 331.245,-180.083 339.588,-186.613 341.839,-179.985"/>
</g>
</g>
</svg>
