<?xml version="1.0" encoding="UTF-8" standalone="no"?>
<!DOCTYPE svg PUBLIC "-//W3C//DTD SVG 1.1//EN"
 "http://www.w3.org/Graphics/SVG/1.1/DTD/svg11.dtd">
<!-- Generated by graphviz version 2.36.0 (20140111.2315)
 -->
<!-- Title: %3 Pages: 1 -->
<svg width="537pt" height="332pt"
 viewBox="0.00 0.00 537.00 332.00" xmlns="http://www.w3.org/2000/svg" xmlns:xlink="http://www.w3.org/1999/xlink">
<g id="graph0" class="graph" transform="scale(1 1) rotate(0) translate(4 328)">
<title>%3</title>
<!-- CONTINUOUS_TIME_MARKOV_CHAIN -->
<g id="node1" class="node"><title>CONTINUOUS_TIME_MARKOV_CHAIN</title>
<g id="a_node1"><a xlink:href="CONTINUOUS_TIME_MARKOV_CHAIN.html" xlink:title=" Markov chains in continuous time " target="_top">
<path fill="none" stroke="blue" stroke-width="2" d="M356.5,-180C356.5,-180 169.5,-180 169.5,-180 163.5,-180 157.5,-174 157.5,-168 157.5,-168 157.5,-156 157.5,-156 157.5,-150 163.5,-144 169.5,-144 169.5,-144 356.5,-144 356.5,-144 362.5,-144 368.5,-150 368.5,-156 368.5,-156 368.5,-168 368.5,-168 368.5,-174 362.5,-180 356.5,-180"/>
<text text-anchor="start" x="165" y="-158.3" font-family="Times,serif" font-size="14.00"> Markov chains in continuous time </text>
</a>
</g>
</g>
<!-- EXPONENTIAL_GROWTH_DECAY -->
<g id="node2" class="node"><title>EXPONENTIAL_GROWTH_DECAY</title>
<g id="a_node2"><a xlink:href="EXPONENTIAL_GROWTH_DECAY.html" xlink:title=" Exponential growth/decay " target="_top">
<path fill="none" stroke="black" d="M177.25,-108C177.25,-108 34.75,-108 34.75,-108 28.75,-108 22.75,-102 22.75,-96 22.75,-96 22.75,-84 22.75,-84 22.75,-78 28.75,-72 34.75,-72 34.75,-72 177.25,-72 177.25,-72 183.25,-72 189.25,-78 189.25,-84 189.25,-84 189.25,-96 189.25,-96 189.25,-102 183.25,-108 177.25,-108"/>
<text text-anchor="start" x="30.5" y="-86.3" font-family="Times,serif" font-size="14.00"> Exponential growth/decay </text>
</a>
</g>
</g>
<!-- CONTINUOUS_TIME_MARKOV_CHAIN&#45;&gt;EXPONENTIAL_GROWTH_DECAY -->
<g id="edge1" class="edge"><title>CONTINUOUS_TIME_MARKOV_CHAIN&#45;&gt;EXPONENTIAL_GROWTH_DECAY</title>
<path fill="none" stroke="black" d="M224.593,-143.876C203.131,-134.307 176.202,-122.3 153.432,-112.148"/>
<polygon fill="black" stroke="black" points="154.84,-108.944 144.282,-108.068 151.99,-115.337 154.84,-108.944"/>
</g>
<!-- POISSON_PROCESS -->
<g id="node7" class="node"><title>POISSON_PROCESS</title>
<g id="a_node7"><a xlink:href="POISSON_PROCESS.html" xlink:title=" Poisson Process " target="_top">
<path fill="none" stroke="black" d="M306.25,-108C306.25,-108 219.75,-108 219.75,-108 213.75,-108 207.75,-102 207.75,-96 207.75,-96 207.75,-84 207.75,-84 207.75,-78 213.75,-72 219.75,-72 219.75,-72 306.25,-72 306.25,-72 312.25,-72 318.25,-78 318.25,-84 318.25,-84 318.25,-96 318.25,-96 318.25,-102 312.25,-108 306.25,-108"/>
<text text-anchor="start" x="215.5" y="-86.3" font-family="Times,serif" font-size="14.00"> Poisson Process </text>
</a>
</g>
</g>
<!-- CONTINUOUS_TIME_MARKOV_CHAIN&#45;&gt;POISSON_PROCESS -->
<g id="edge7" class="edge"><title>CONTINUOUS_TIME_MARKOV_CHAIN&#45;&gt;POISSON_PROCESS</title>
<path fill="none" stroke="black" d="M263,-143.697C263,-135.983 263,-126.712 263,-118.112"/>
<polygon fill="black" stroke="black" points="266.5,-118.104 263,-108.104 259.5,-118.104 266.5,-118.104"/>
</g>
<!-- MM1_QUEUE -->
<g id="node8" class="node"><title>MM1_QUEUE</title>
<g id="a_node8"><a xlink:href="MM1_QUEUE.html" xlink:title=" The M/M/1 Queue &#160;" target="_top">
<path fill="none" stroke="black" d="M279.25,-36C279.25,-36 172.75,-36 172.75,-36 166.75,-36 160.75,-30 160.75,-24 160.75,-24 160.75,-12 160.75,-12 160.75,-6 166.75,-0 172.75,-0 172.75,-0 279.25,-0 279.25,-0 285.25,-0 291.25,-6 291.25,-12 291.25,-12 291.25,-24 291.25,-24 291.25,-30 285.25,-36 279.25,-36"/>
<text text-anchor="start" x="168.5" y="-14.3" font-family="Times,serif" font-size="14.00"> The M/M/1 Queue &#160;</text>
</a>
</g>
</g>
<!-- CONTINUOUS_TIME_MARKOV_CHAIN&#45;&gt;MM1_QUEUE -->
<g id="edge8" class="edge"><title>CONTINUOUS_TIME_MARKOV_CHAIN&#45;&gt;MM1_QUEUE</title>
<path fill="none" stroke="black" d="M293.769,-143.907C306.544,-135.021 320.001,-122.883 327,-108 333.809,-93.521 335.278,-85.6922 327,-72 318.89,-58.5854 306.138,-48.3993 292.391,-40.7276"/>
<polygon fill="black" stroke="black" points="293.747,-37.4898 283.252,-36.0407 290.553,-43.7184 293.747,-37.4898"/>
</g>
<!-- EXPONENTIAL_GROWTH_DECAY&#45;&gt;MM1_QUEUE -->
<!-- CHAPMAN_KOLMOGOROV_RELATION -->
<g id="node3" class="node"><title>CHAPMAN_KOLMOGOROV_RELATION</title>
<g id="a_node3"><a xlink:href="CHAPMAN_KOLMOGOROV_RELATION.html" xlink:title=" The Chapman Kolmogorov Relation " target="_top">
<path fill="none" stroke="black" d="M211.5,-324C211.5,-324 12.5,-324 12.5,-324 6.5,-324 0.5,-318 0.5,-312 0.5,-312 0.5,-300 0.5,-300 0.5,-294 6.5,-288 12.5,-288 12.5,-288 211.5,-288 211.5,-288 217.5,-288 223.5,-294 223.5,-300 223.5,-300 223.5,-312 223.5,-312 223.5,-318 217.5,-324 211.5,-324"/>
<text text-anchor="start" x="8" y="-302.3" font-family="Times,serif" font-size="14.00"> The Chapman Kolmogorov Relation </text>
</a>
</g>
</g>
<!-- CHAPMAN_KOLMOGOROV_RELATION&#45;&gt;CONTINUOUS_TIME_MARKOV_CHAIN -->
<g id="edge2" class="edge"><title>CHAPMAN_KOLMOGOROV_RELATION&#45;&gt;CONTINUOUS_TIME_MARKOV_CHAIN</title>
<path fill="none" stroke="black" d="M116.989,-287.955C123.448,-268.438 136.386,-236.522 157,-216 170.226,-202.834 187.386,-192.344 204.033,-184.287"/>
<polygon fill="black" stroke="black" points="205.585,-187.425 213.2,-180.059 202.653,-181.069 205.585,-187.425"/>
</g>
<!-- DEFINITION_OF_DERIVATIVE -->
<g id="node5" class="node"><title>DEFINITION_OF_DERIVATIVE</title>
<g id="a_node5"><a xlink:href="DEFINITION_OF_DERIVATIVE.html" xlink:title=" Differentiation " target="_top">
<path fill="none" stroke="black" d="M258,-252C258,-252 178,-252 178,-252 172,-252 166,-246 166,-240 166,-240 166,-228 166,-228 166,-222 172,-216 178,-216 178,-216 258,-216 258,-216 264,-216 270,-222 270,-228 270,-228 270,-240 270,-240 270,-246 264,-252 258,-252"/>
<text text-anchor="start" x="174" y="-230.3" font-family="Times,serif" font-size="14.00"> Differentiation </text>
</a>
</g>
</g>
<!-- CHAPMAN_KOLMOGOROV_RELATION&#45;&gt;DEFINITION_OF_DERIVATIVE -->
<!-- MARKOV_PROPERTY -->
<g id="node4" class="node"><title>MARKOV_PROPERTY</title>
<g id="a_node4"><a xlink:href="MARKOV_PROPERTY.html" xlink:title=" The Markov Property " target="_top">
<path fill="none" stroke="black" d="M373.25,-324C373.25,-324 254.75,-324 254.75,-324 248.75,-324 242.75,-318 242.75,-312 242.75,-312 242.75,-300 242.75,-300 242.75,-294 248.75,-288 254.75,-288 254.75,-288 373.25,-288 373.25,-288 379.25,-288 385.25,-294 385.25,-300 385.25,-300 385.25,-312 385.25,-312 385.25,-318 379.25,-324 373.25,-324"/>
<text text-anchor="start" x="250.5" y="-302.3" font-family="Times,serif" font-size="14.00"> The Markov Property </text>
</a>
</g>
</g>
<!-- MARKOV_PROPERTY&#45;&gt;CONTINUOUS_TIME_MARKOV_CHAIN -->
<g id="edge3" class="edge"><title>MARKOV_PROPERTY&#45;&gt;CONTINUOUS_TIME_MARKOV_CHAIN</title>
<path fill="none" stroke="black" d="M307.848,-287.871C299.08,-263.457 282.906,-218.426 272.566,-189.635"/>
<polygon fill="black" stroke="black" points="275.848,-188.418 269.174,-180.189 269.26,-190.784 275.848,-188.418"/>
</g>
<!-- DEFINITION_OF_DERIVATIVE&#45;&gt;CONTINUOUS_TIME_MARKOV_CHAIN -->
<g id="edge4" class="edge"><title>DEFINITION_OF_DERIVATIVE&#45;&gt;CONTINUOUS_TIME_MARKOV_CHAIN</title>
<path fill="none" stroke="black" d="M229.124,-215.697C234.355,-207.559 240.7,-197.689 246.478,-188.701"/>
<polygon fill="black" stroke="black" points="249.541,-190.409 252.004,-180.104 243.653,-186.623 249.541,-190.409"/>
</g>
<!-- TAYLOR_SERIES -->
<g id="node6" class="node"><title>TAYLOR_SERIES</title>
<g id="a_node6"><a xlink:href="TAYLOR_SERIES.html" xlink:title=" One dimensional Taylor Series " target="_top">
<path fill="none" stroke="black" d="M517.5,-252C517.5,-252 348.5,-252 348.5,-252 342.5,-252 336.5,-246 336.5,-240 336.5,-240 336.5,-228 336.5,-228 336.5,-222 342.5,-216 348.5,-216 348.5,-216 517.5,-216 517.5,-216 523.5,-216 529.5,-222 529.5,-228 529.5,-228 529.5,-240 529.5,-240 529.5,-246 523.5,-252 517.5,-252"/>
<text text-anchor="start" x="344" y="-230.3" font-family="Times,serif" font-size="14.00"> One dimensional Taylor Series </text>
</a>
</g>
</g>
<!-- TAYLOR_SERIES&#45;&gt;CONTINUOUS_TIME_MARKOV_CHAIN -->
<g id="edge6" class="edge"><title>TAYLOR_SERIES&#45;&gt;CONTINUOUS_TIME_MARKOV_CHAIN</title>
<path fill="none" stroke="black" d="M391.413,-215.876C367.967,-206.222 338.496,-194.087 313.703,-183.878"/>
<polygon fill="black" stroke="black" points="315.031,-180.639 304.452,-180.068 312.366,-187.112 315.031,-180.639"/>
</g>
</g>
</svg>
