<?xml version="1.0" encoding="UTF-8" standalone="no"?>
<!DOCTYPE svg PUBLIC "-//W3C//DTD SVG 1.1//EN"
 "http://www.w3.org/Graphics/SVG/1.1/DTD/svg11.dtd">
<!-- Generated by graphviz version 2.26.3 (20100126.1600)
 -->
<!-- Title: _anonymous_0 Pages: 1 -->
<svg width="610pt" height="332pt"
 viewBox="0.00 0.00 610.00 332.00" xmlns="http://www.w3.org/2000/svg" xmlns:xlink="http://www.w3.org/1999/xlink">
<g id="graph1" class="graph" transform="scale(1 1) rotate(0) translate(4 328)">
<title>_anonymous_0</title>
<!-- CONTINUOUS_TIME_MARKOV_CHAIN -->
<g id="node1" class="node"><title>CONTINUOUS_TIME_MARKOV_CHAIN</title>
<a xlink:href="CONTINUOUS_TIME_MARKOV_CHAIN.html" xlink:title="Markov chains in continuous time" target="_top">
<polyline fill="none" stroke="blue" stroke-width="2" points="412,-180 188,-180 "/>
<path fill="none" stroke="blue" stroke-width="2" d="M188,-180C182,-180 176,-174 176,-168"/>
<polyline fill="none" stroke="blue" stroke-width="2" points="176,-168 176,-156 "/>
<path fill="none" stroke="blue" stroke-width="2" d="M176,-156C176,-150 182,-144 188,-144"/>
<polyline fill="none" stroke="blue" stroke-width="2" points="188,-144 412,-144 "/>
<path fill="none" stroke="blue" stroke-width="2" d="M412,-144C418,-144 424,-150 424,-156"/>
<polyline fill="none" stroke="blue" stroke-width="2" points="424,-156 424,-168 "/>
<path fill="none" stroke="blue" stroke-width="2" d="M424,-168C424,-174 418,-180 412,-180"/>
<text text-anchor="start" x="184" y="-159.233" font-family="Times Roman,serif" font-size="14.00">Markov chains in continuous time</text>
</a>
</g>
<!-- MM1_QUEUE -->
<g id="node6" class="node"><title>MM1_QUEUE</title>
<a xlink:href="MM1_QUEUE.html" xlink:title="The M/M/1 Queue " target="_top">
<polyline fill="none" stroke="black" points="171,-108 51,-108 "/>
<path fill="none" stroke="black" d="M51,-108C45,-108 39,-102 39,-96"/>
<polyline fill="none" stroke="black" points="39,-96 39,-84 "/>
<path fill="none" stroke="black" d="M39,-84C39,-78 45,-72 51,-72"/>
<polyline fill="none" stroke="black" points="51,-72 171,-72 "/>
<path fill="none" stroke="black" d="M171,-72C177,-72 183,-78 183,-84"/>
<polyline fill="none" stroke="black" points="183,-84 183,-96 "/>
<path fill="none" stroke="black" d="M183,-96C183,-102 177,-108 171,-108"/>
<text text-anchor="start" x="47" y="-87.2333" font-family="Times Roman,serif" font-size="14.00">The M/M/1 Queue </text>
</a>
</g>
<!-- CONTINUOUS_TIME_MARKOV_CHAIN&#45;&gt;MM1_QUEUE -->
<g id="edge6" class="edge"><title>CONTINUOUS_TIME_MARKOV_CHAIN&#45;&gt;MM1_QUEUE</title>
<path fill="none" stroke="black" d="M252.307,-143.831C226.693,-134.073 194.94,-121.977 168.026,-111.724"/>
<polygon fill="black" stroke="black" points="168.941,-108.327 158.35,-108.038 166.449,-114.869 168.941,-108.327"/>
</g>
<!-- EXPONENTIAL_GROWTH_DECAY -->
<g id="node11" class="node"><title>EXPONENTIAL_GROWTH_DECAY</title>
<a xlink:href="EXPONENTIAL_GROWTH_DECAY.html" xlink:title="Exponential growth/decay" target="_top">
<polyline fill="none" stroke="black" points="387,-108 213,-108 "/>
<path fill="none" stroke="black" d="M213,-108C207,-108 201,-102 201,-96"/>
<polyline fill="none" stroke="black" points="201,-96 201,-84 "/>
<path fill="none" stroke="black" d="M201,-84C201,-78 207,-72 213,-72"/>
<polyline fill="none" stroke="black" points="213,-72 387,-72 "/>
<path fill="none" stroke="black" d="M387,-72C393,-72 399,-78 399,-84"/>
<polyline fill="none" stroke="black" points="399,-84 399,-96 "/>
<path fill="none" stroke="black" d="M399,-96C399,-102 393,-108 387,-108"/>
<text text-anchor="start" x="209.5" y="-87.2333" font-family="Times Roman,serif" font-size="14.00">Exponential growth/decay</text>
</a>
</g>
<!-- CONTINUOUS_TIME_MARKOV_CHAIN&#45;&gt;EXPONENTIAL_GROWTH_DECAY -->
<g id="edge12" class="edge"><title>CONTINUOUS_TIME_MARKOV_CHAIN&#45;&gt;EXPONENTIAL_GROWTH_DECAY</title>
<path fill="none" stroke="black" d="M300,-143.831C300,-136.131 300,-126.974 300,-118.417"/>
<polygon fill="black" stroke="black" points="303.5,-118.413 300,-108.413 296.5,-118.413 303.5,-118.413"/>
</g>
<!-- POISSON_PROCESS -->
<g id="node13" class="node"><title>POISSON_PROCESS</title>
<a xlink:href="POISSON_PROCESS.html" xlink:title="Poisson Process" target="_top">
<polyline fill="none" stroke="black" points="319,-36 219,-36 "/>
<path fill="none" stroke="black" d="M219,-36C213,-36 207,-30 207,-24"/>
<polyline fill="none" stroke="black" points="207,-24 207,-12 "/>
<path fill="none" stroke="black" d="M207,-12C207,-6 213,-1.70759e-14 219,-1.63883e-14"/>
<polyline fill="none" stroke="black" points="219,-1.63883e-14 319,-4.92796e-15 "/>
<path fill="none" stroke="black" d="M319,-4.92796e-15C325,-4.24034e-15 331,-6 331,-12"/>
<polyline fill="none" stroke="black" points="331,-12 331,-24 "/>
<path fill="none" stroke="black" d="M331,-24C331,-30 325,-36 319,-36"/>
<text text-anchor="start" x="215" y="-15.2333" font-family="Times Roman,serif" font-size="14.00">Poisson Process</text>
</a>
</g>
<!-- CONTINUOUS_TIME_MARKOV_CHAIN&#45;&gt;POISSON_PROCESS -->
<g id="edge14" class="edge"><title>CONTINUOUS_TIME_MARKOV_CHAIN&#45;&gt;POISSON_PROCESS</title>
<path fill="none" stroke="black" d="M363.98,-143.976C381.243,-135.868 397.916,-124.317 408,-108 416.412,-94.3896 417.036,-85.2042 408,-72 399.524,-59.6133 370.21,-47.3693 340.674,-37.6798"/>
<polygon fill="black" stroke="black" points="341.693,-34.3313 331.102,-34.6267 339.566,-41.0002 341.693,-34.3313"/>
</g>
<!-- CHAPMAN_KOLMOGOROV_RELATION -->
<g id="node2" class="node"><title>CHAPMAN_KOLMOGOROV_RELATION</title>
<a xlink:href="CHAPMAN_KOLMOGOROV_RELATION.html" xlink:title="The Chapman Kolmogorov Relation" target="_top">
<polyline fill="none" stroke="black" points="246,-324 12,-324 "/>
<path fill="none" stroke="black" d="M12,-324C6,-324 9.4739e-14,-318 7.57912e-14,-312"/>
<polyline fill="none" stroke="black" points="7.57912e-14,-312 3.78956e-14,-300 "/>
<path fill="none" stroke="black" d="M3.78956e-14,-300C1.89478e-14,-294 6,-288 12,-288"/>
<polyline fill="none" stroke="black" points="12,-288 246,-288 "/>
<path fill="none" stroke="black" d="M246,-288C252,-288 258,-294 258,-300"/>
<polyline fill="none" stroke="black" points="258,-300 258,-312 "/>
<path fill="none" stroke="black" d="M258,-312C258,-318 252,-324 246,-324"/>
<text text-anchor="start" x="8" y="-303.233" font-family="Times Roman,serif" font-size="14.00">The Chapman Kolmogorov Relation</text>
</a>
</g>
<!-- CHAPMAN_KOLMOGOROV_RELATION&#45;&gt;CONTINUOUS_TIME_MARKOV_CHAIN -->
<g id="edge2" class="edge"><title>CHAPMAN_KOLMOGOROV_RELATION&#45;&gt;CONTINUOUS_TIME_MARKOV_CHAIN</title>
<path fill="none" stroke="black" d="M135.758,-287.926C143.999,-268.018 159.648,-236.16 182,-216 196.745,-202.701 215.324,-192.158 233.349,-184.051"/>
<polygon fill="black" stroke="black" points="234.896,-187.196 242.701,-180.031 232.132,-180.764 234.896,-187.196"/>
</g>
<!-- DEFINITION_OF_DERIVATIVE -->
<g id="node8" class="node"><title>DEFINITION_OF_DERIVATIVE</title>
<a xlink:href="DEFINITION_OF_DERIVATIVE.html" xlink:title="Differentiation" target="_top">
<polyline fill="none" stroke="black" points="297,-252 203,-252 "/>
<path fill="none" stroke="black" d="M203,-252C197,-252 191,-246 191,-240"/>
<polyline fill="none" stroke="black" points="191,-240 191,-228 "/>
<path fill="none" stroke="black" d="M191,-228C191,-222 197,-216 203,-216"/>
<polyline fill="none" stroke="black" points="203,-216 297,-216 "/>
<path fill="none" stroke="black" d="M297,-216C303,-216 309,-222 309,-228"/>
<polyline fill="none" stroke="black" points="309,-228 309,-240 "/>
<path fill="none" stroke="black" d="M309,-240C309,-246 303,-252 297,-252"/>
<text text-anchor="start" x="199" y="-231.233" font-family="Times Roman,serif" font-size="14.00">Differentiation</text>
</a>
</g>
<!-- CHAPMAN_KOLMOGOROV_RELATION&#45;&gt;DEFINITION_OF_DERIVATIVE -->
<!-- MARKOV_PROPERTY -->
<g id="node4" class="node"><title>MARKOV_PROPERTY</title>
<a xlink:href="MARKOV_PROPERTY.html" xlink:title="The Markov Property" target="_top">
<polyline fill="none" stroke="black" points="426,-324 288,-324 "/>
<path fill="none" stroke="black" d="M288,-324C282,-324 276,-318 276,-312"/>
<polyline fill="none" stroke="black" points="276,-312 276,-300 "/>
<path fill="none" stroke="black" d="M276,-300C276,-294 282,-288 288,-288"/>
<polyline fill="none" stroke="black" points="288,-288 426,-288 "/>
<path fill="none" stroke="black" d="M426,-288C432,-288 438,-294 438,-300"/>
<polyline fill="none" stroke="black" points="438,-300 438,-312 "/>
<path fill="none" stroke="black" d="M438,-312C438,-318 432,-324 426,-324"/>
<text text-anchor="start" x="284" y="-303.233" font-family="Times Roman,serif" font-size="14.00">The Markov Property</text>
</a>
</g>
<!-- MARKOV_PROPERTY&#45;&gt;CONTINUOUS_TIME_MARKOV_CHAIN -->
<g id="edge4" class="edge"><title>MARKOV_PROPERTY&#45;&gt;CONTINUOUS_TIME_MARKOV_CHAIN</title>
<path fill="none" stroke="black" d="M349.781,-287.762C339.973,-262.985 322.353,-218.471 310.923,-189.594"/>
<polygon fill="black" stroke="black" points="314.095,-188.099 307.16,-180.09 307.587,-190.676 314.095,-188.099"/>
</g>
<!-- MM1_QUEUE&#45;&gt;POISSON_PROCESS -->
<!-- DEFINITION_OF_DERIVATIVE&#45;&gt;CONTINUOUS_TIME_MARKOV_CHAIN -->
<g id="edge8" class="edge"><title>DEFINITION_OF_DERIVATIVE&#45;&gt;CONTINUOUS_TIME_MARKOV_CHAIN</title>
<path fill="none" stroke="black" d="M262.617,-215.831C268.317,-207.623 275.166,-197.761 281.436,-188.732"/>
<polygon fill="black" stroke="black" points="284.384,-190.623 287.213,-180.413 278.634,-186.631 284.384,-190.623"/>
</g>
<!-- TAYLOR_SERIES -->
<g id="node16" class="node"><title>TAYLOR_SERIES</title>
<a xlink:href="TAYLOR_SERIES.html" xlink:title="One dimensional Taylor Series" target="_top">
<polyline fill="none" stroke="black" points="590,-252 390,-252 "/>
<path fill="none" stroke="black" d="M390,-252C384,-252 378,-246 378,-240"/>
<polyline fill="none" stroke="black" points="378,-240 378,-228 "/>
<path fill="none" stroke="black" d="M378,-228C378,-222 384,-216 390,-216"/>
<polyline fill="none" stroke="black" points="390,-216 590,-216 "/>
<path fill="none" stroke="black" d="M590,-216C596,-216 602,-222 602,-228"/>
<polyline fill="none" stroke="black" points="602,-228 602,-240 "/>
<path fill="none" stroke="black" d="M602,-240C602,-246 596,-252 590,-252"/>
<text text-anchor="start" x="386" y="-231.233" font-family="Times Roman,serif" font-size="14.00">One dimensional Taylor Series</text>
</a>
</g>
<!-- TAYLOR_SERIES&#45;&gt;CONTINUOUS_TIME_MARKOV_CHAIN -->
<g id="edge18" class="edge"><title>TAYLOR_SERIES&#45;&gt;CONTINUOUS_TIME_MARKOV_CHAIN</title>
<path fill="none" stroke="black" d="M442.055,-215.831C416.192,-206.031 384.104,-193.871 356.972,-183.589"/>
<polygon fill="black" stroke="black" points="358.192,-180.309 347.6,-180.038 355.711,-186.855 358.192,-180.309"/>
</g>
</g>
</svg>
