<?xml version="1.0" encoding="UTF-8" standalone="no"?>
<!DOCTYPE svg PUBLIC "-//W3C//DTD SVG 1.1//EN"
 "http://www.w3.org/Graphics/SVG/1.1/DTD/svg11.dtd">
<!-- Generated by graphviz version 2.26.3 (20100126.1600)
 -->
<!-- Title: _anonymous_0 Pages: 1 -->
<svg width="603pt" height="332pt"
 viewBox="0.00 0.00 603.00 332.00" xmlns="http://www.w3.org/2000/svg" xmlns:xlink="http://www.w3.org/1999/xlink">
<g id="graph1" class="graph" transform="scale(1 1) rotate(0) translate(4 328)">
<title>_anonymous_0</title>
<!-- CONTINUOUS_TIME_MARKOV_CHAIN -->
<g id="node1" class="node"><title>CONTINUOUS_TIME_MARKOV_CHAIN</title>
<a xlink:href="CONTINUOUS_TIME_MARKOV_CHAIN.html" xlink:title="Markov chains in continuous time" target="_top">
<polyline fill="none" stroke="blue" stroke-width="2" points="400,-180 176,-180 "/>
<path fill="none" stroke="blue" stroke-width="2" d="M176,-180C170,-180 164,-174 164,-168"/>
<polyline fill="none" stroke="blue" stroke-width="2" points="164,-168 164,-156 "/>
<path fill="none" stroke="blue" stroke-width="2" d="M164,-156C164,-150 170,-144 176,-144"/>
<polyline fill="none" stroke="blue" stroke-width="2" points="176,-144 400,-144 "/>
<path fill="none" stroke="blue" stroke-width="2" d="M400,-144C406,-144 412,-150 412,-156"/>
<polyline fill="none" stroke="blue" stroke-width="2" points="412,-156 412,-168 "/>
<path fill="none" stroke="blue" stroke-width="2" d="M412,-168C412,-174 406,-180 400,-180"/>
<text text-anchor="start" x="172" y="-159.233" font-family="Times Roman,serif" font-size="14.00">Markov chains in continuous time</text>
</a>
</g>
<!-- EXPONENTIAL_GROWTH_DECAY -->
<g id="node2" class="node"><title>EXPONENTIAL_GROWTH_DECAY</title>
<a xlink:href="EXPONENTIAL_GROWTH_DECAY.html" xlink:title="Exponential growth/decay" target="_top">
<polyline fill="none" stroke="black" points="186,-108 12,-108 "/>
<path fill="none" stroke="black" d="M12,-108C6,-108 5.92119e-14,-102 4.73695e-14,-96"/>
<polyline fill="none" stroke="black" points="4.73695e-14,-96 2.36848e-14,-84 "/>
<path fill="none" stroke="black" d="M2.36848e-14,-84C1.18424e-14,-78 6,-72 12,-72"/>
<polyline fill="none" stroke="black" points="12,-72 186,-72 "/>
<path fill="none" stroke="black" d="M186,-72C192,-72 198,-78 198,-84"/>
<polyline fill="none" stroke="black" points="198,-84 198,-96 "/>
<path fill="none" stroke="black" d="M198,-96C198,-102 192,-108 186,-108"/>
<text text-anchor="start" x="8.5" y="-87.2333" font-family="Times Roman,serif" font-size="14.00">Exponential growth/decay</text>
</a>
</g>
<!-- CONTINUOUS_TIME_MARKOV_CHAIN&#45;&gt;EXPONENTIAL_GROWTH_DECAY -->
<g id="edge2" class="edge"><title>CONTINUOUS_TIME_MARKOV_CHAIN&#45;&gt;EXPONENTIAL_GROWTH_DECAY</title>
<path fill="none" stroke="black" d="M240.307,-143.831C214.693,-134.073 182.94,-121.977 156.026,-111.724"/>
<polygon fill="black" stroke="black" points="156.941,-108.327 146.35,-108.038 154.449,-114.869 156.941,-108.327"/>
</g>
<!-- MM1_QUEUE -->
<g id="node11" class="node"><title>MM1_QUEUE</title>
<a xlink:href="MM1_QUEUE.html" xlink:title="The M/M/1 Queue " target="_top">
<polyline fill="none" stroke="black" points="348,-108 228,-108 "/>
<path fill="none" stroke="black" d="M228,-108C222,-108 216,-102 216,-96"/>
<polyline fill="none" stroke="black" points="216,-96 216,-84 "/>
<path fill="none" stroke="black" d="M216,-84C216,-78 222,-72 228,-72"/>
<polyline fill="none" stroke="black" points="228,-72 348,-72 "/>
<path fill="none" stroke="black" d="M348,-72C354,-72 360,-78 360,-84"/>
<polyline fill="none" stroke="black" points="360,-84 360,-96 "/>
<path fill="none" stroke="black" d="M360,-96C360,-102 354,-108 348,-108"/>
<text text-anchor="start" x="224" y="-87.2333" font-family="Times Roman,serif" font-size="14.00">The M/M/1 Queue </text>
</a>
</g>
<!-- CONTINUOUS_TIME_MARKOV_CHAIN&#45;&gt;MM1_QUEUE -->
<g id="edge12" class="edge"><title>CONTINUOUS_TIME_MARKOV_CHAIN&#45;&gt;MM1_QUEUE</title>
<path fill="none" stroke="black" d="M288,-143.831C288,-136.131 288,-126.974 288,-118.417"/>
<polygon fill="black" stroke="black" points="291.5,-118.413 288,-108.413 284.5,-118.413 291.5,-118.413"/>
</g>
<!-- POISSON_PROCESS -->
<g id="node15" class="node"><title>POISSON_PROCESS</title>
<a xlink:href="POISSON_PROCESS.html" xlink:title="Poisson Process" target="_top">
<polyline fill="none" stroke="black" points="293,-36 193,-36 "/>
<path fill="none" stroke="black" d="M193,-36C187,-36 181,-30 181,-24"/>
<polyline fill="none" stroke="black" points="181,-24 181,-12 "/>
<path fill="none" stroke="black" d="M181,-12C181,-6 187,-1.70759e-14 193,-1.63883e-14"/>
<polyline fill="none" stroke="black" points="193,-1.63883e-14 293,-4.92796e-15 "/>
<path fill="none" stroke="black" d="M293,-4.92796e-15C299,-4.24034e-15 305,-6 305,-12"/>
<polyline fill="none" stroke="black" points="305,-12 305,-24 "/>
<path fill="none" stroke="black" d="M305,-24C305,-30 299,-36 293,-36"/>
<text text-anchor="start" x="189" y="-15.2333" font-family="Times Roman,serif" font-size="14.00">Poisson Process</text>
</a>
</g>
<!-- CONTINUOUS_TIME_MARKOV_CHAIN&#45;&gt;POISSON_PROCESS -->
<g id="edge16" class="edge"><title>CONTINUOUS_TIME_MARKOV_CHAIN&#45;&gt;POISSON_PROCESS</title>
<path fill="none" stroke="black" d="M330.985,-143.885C345.783,-135.315 360.706,-123.497 369,-108 376.55,-93.8932 377.808,-85.3575 369,-72 356.503,-53.0472 335.824,-40.7211 314.797,-32.7148"/>
<polygon fill="black" stroke="black" points="315.734,-29.3346 305.139,-29.3319 313.42,-35.941 315.734,-29.3346"/>
</g>
<!-- EXPONENTIAL_GROWTH_DECAY&#45;&gt;POISSON_PROCESS -->
<!-- DEFINITION_OF_DERIVATIVE -->
<g id="node4" class="node"><title>DEFINITION_OF_DERIVATIVE</title>
<a xlink:href="DEFINITION_OF_DERIVATIVE.html" xlink:title="Differentiation" target="_top">
<polyline fill="none" stroke="black" points="178,-324 84,-324 "/>
<path fill="none" stroke="black" d="M84,-324C78,-324 72,-318 72,-312"/>
<polyline fill="none" stroke="black" points="72,-312 72,-300 "/>
<path fill="none" stroke="black" d="M72,-300C72,-294 78,-288 84,-288"/>
<polyline fill="none" stroke="black" points="84,-288 178,-288 "/>
<path fill="none" stroke="black" d="M178,-288C184,-288 190,-294 190,-300"/>
<polyline fill="none" stroke="black" points="190,-300 190,-312 "/>
<path fill="none" stroke="black" d="M190,-312C190,-318 184,-324 178,-324"/>
<text text-anchor="start" x="80" y="-303.233" font-family="Times Roman,serif" font-size="14.00">Differentiation</text>
</a>
</g>
<!-- DEFINITION_OF_DERIVATIVE&#45;&gt;CONTINUOUS_TIME_MARKOV_CHAIN -->
<g id="edge4" class="edge"><title>DEFINITION_OF_DERIVATIVE&#45;&gt;CONTINUOUS_TIME_MARKOV_CHAIN</title>
<path fill="none" stroke="black" d="M128.569,-287.66C126.987,-267.814 127.667,-236.292 144,-216 155.23,-202.048 170.462,-191.701 186.827,-184.026"/>
<polygon fill="black" stroke="black" points="188.241,-187.228 196.017,-180.031 185.45,-180.808 188.241,-187.228"/>
</g>
<!-- MARKOV_PROPERTY -->
<g id="node8" class="node"><title>MARKOV_PROPERTY</title>
<a xlink:href="MARKOV_PROPERTY.html" xlink:title="The Markov Property" target="_top">
<polyline fill="none" stroke="black" points="303,-252 165,-252 "/>
<path fill="none" stroke="black" d="M165,-252C159,-252 153,-246 153,-240"/>
<polyline fill="none" stroke="black" points="153,-240 153,-228 "/>
<path fill="none" stroke="black" d="M153,-228C153,-222 159,-216 165,-216"/>
<polyline fill="none" stroke="black" points="165,-216 303,-216 "/>
<path fill="none" stroke="black" d="M303,-216C309,-216 315,-222 315,-228"/>
<polyline fill="none" stroke="black" points="315,-228 315,-240 "/>
<path fill="none" stroke="black" d="M315,-240C315,-246 309,-252 303,-252"/>
<text text-anchor="start" x="161" y="-231.233" font-family="Times Roman,serif" font-size="14.00">The Markov Property</text>
</a>
</g>
<!-- DEFINITION_OF_DERIVATIVE&#45;&gt;MARKOV_PROPERTY -->
<!-- CHAPMAN_KOLMOGOROV_RELATION -->
<g id="node6" class="node"><title>CHAPMAN_KOLMOGOROV_RELATION</title>
<a xlink:href="CHAPMAN_KOLMOGOROV_RELATION.html" xlink:title="The Chapman Kolmogorov Relation" target="_top">
<polyline fill="none" stroke="black" points="460,-324 226,-324 "/>
<path fill="none" stroke="black" d="M226,-324C220,-324 214,-318 214,-312"/>
<polyline fill="none" stroke="black" points="214,-312 214,-300 "/>
<path fill="none" stroke="black" d="M214,-300C214,-294 220,-288 226,-288"/>
<polyline fill="none" stroke="black" points="226,-288 460,-288 "/>
<path fill="none" stroke="black" d="M460,-288C466,-288 472,-294 472,-300"/>
<polyline fill="none" stroke="black" points="472,-300 472,-312 "/>
<path fill="none" stroke="black" d="M472,-312C472,-318 466,-324 460,-324"/>
<text text-anchor="start" x="222" y="-303.233" font-family="Times Roman,serif" font-size="14.00">The Chapman Kolmogorov Relation</text>
</a>
</g>
<!-- CHAPMAN_KOLMOGOROV_RELATION&#45;&gt;CONTINUOUS_TIME_MARKOV_CHAIN -->
<g id="edge6" class="edge"><title>CHAPMAN_KOLMOGOROV_RELATION&#45;&gt;CONTINUOUS_TIME_MARKOV_CHAIN</title>
<path fill="none" stroke="black" d="M341.21,-287.808C338.911,-269.188 333.966,-239.701 324,-216 320.046,-206.595 314.385,-197.088 308.719,-188.727"/>
<polygon fill="black" stroke="black" points="311.518,-186.623 302.885,-180.482 305.804,-190.666 311.518,-186.623"/>
</g>
<!-- MARKOV_PROPERTY&#45;&gt;CONTINUOUS_TIME_MARKOV_CHAIN -->
<g id="edge8" class="edge"><title>MARKOV_PROPERTY&#45;&gt;CONTINUOUS_TIME_MARKOV_CHAIN</title>
<path fill="none" stroke="black" d="M247.626,-215.831C253.846,-207.539 261.332,-197.557 268.16,-188.453"/>
<polygon fill="black" stroke="black" points="270.99,-190.513 274.19,-180.413 265.39,-186.313 270.99,-190.513"/>
</g>
<!-- TAYLOR_SERIES -->
<g id="node13" class="node"><title>TAYLOR_SERIES</title>
<a xlink:href="TAYLOR_SERIES.html" xlink:title="One dimensional Taylor Series" target="_top">
<polyline fill="none" stroke="black" points="583,-252 383,-252 "/>
<path fill="none" stroke="black" d="M383,-252C377,-252 371,-246 371,-240"/>
<polyline fill="none" stroke="black" points="371,-240 371,-228 "/>
<path fill="none" stroke="black" d="M371,-228C371,-222 377,-216 383,-216"/>
<polyline fill="none" stroke="black" points="383,-216 583,-216 "/>
<path fill="none" stroke="black" d="M583,-216C589,-216 595,-222 595,-228"/>
<polyline fill="none" stroke="black" points="595,-228 595,-240 "/>
<path fill="none" stroke="black" d="M595,-240C595,-246 589,-252 583,-252"/>
<text text-anchor="start" x="379" y="-231.233" font-family="Times Roman,serif" font-size="14.00">One dimensional Taylor Series</text>
</a>
</g>
<!-- TAYLOR_SERIES&#45;&gt;CONTINUOUS_TIME_MARKOV_CHAIN -->
<g id="edge14" class="edge"><title>TAYLOR_SERIES&#45;&gt;CONTINUOUS_TIME_MARKOV_CHAIN</title>
<path fill="none" stroke="black" d="M434.045,-215.924C407.503,-206.124 374.518,-193.945 346.614,-183.642"/>
<polygon fill="black" stroke="black" points="347.568,-180.264 336.975,-180.083 345.144,-186.83 347.568,-180.264"/>
</g>
</g>
</svg>
