<?xml version="1.0" encoding="UTF-8" standalone="no"?>
<!DOCTYPE svg PUBLIC "-//W3C//DTD SVG 1.1//EN"
 "http://www.w3.org/Graphics/SVG/1.1/DTD/svg11.dtd">
<!-- Generated by graphviz version 2.26.3 (20100126.1600)
 -->
<!-- Title: _anonymous_0 Pages: 1 -->
<svg width="744pt" height="404pt"
 viewBox="0.00 0.00 744.05 404.00" xmlns="http://www.w3.org/2000/svg" xmlns:xlink="http://www.w3.org/1999/xlink">
<g id="graph1" class="graph" transform="scale(1 1) rotate(0) translate(4 400)">
<title>_anonymous_0</title>
<!-- DEFINITION_OF_DERIVATIVE -->
<g id="node1" class="node"><title>DEFINITION_OF_DERIVATIVE</title>
<a xlink:href="DEFINITION_OF_DERIVATIVE.html" xlink:title=" Differentiation " target="_top">
<polyline fill="none" stroke="blue" stroke-width="2" points="568,-324 464,-324 "/>
<path fill="none" stroke="blue" stroke-width="2" d="M464,-324C458,-324 452,-318 452,-312"/>
<polyline fill="none" stroke="blue" stroke-width="2" points="452,-312 452,-300 "/>
<path fill="none" stroke="blue" stroke-width="2" d="M452,-300C452,-294 458,-288 464,-288"/>
<polyline fill="none" stroke="blue" stroke-width="2" points="464,-288 568,-288 "/>
<path fill="none" stroke="blue" stroke-width="2" d="M568,-288C574,-288 580,-294 580,-300"/>
<polyline fill="none" stroke="blue" stroke-width="2" points="580,-300 580,-312 "/>
<path fill="none" stroke="blue" stroke-width="2" d="M580,-312C580,-318 574,-324 568,-324"/>
<text text-anchor="start" x="460.5" y="-303.233" font-family="Times Roman,serif" font-size="14.00"> Differentiation </text>
</a>
</g>
<!-- TAYLOR_SERIES -->
<g id="node4" class="node"><title>TAYLOR_SERIES</title>
<a xlink:href="TAYLOR_SERIES.html" xlink:title=" One dimensional Taylor Series " target="_top">
<polyline fill="none" stroke="black" points="222,-252 12,-252 "/>
<path fill="none" stroke="black" d="M12,-252C6,-252 9.71075e-14,-246 8.05282e-14,-240"/>
<polyline fill="none" stroke="black" points="8.05282e-14,-240 4.73695e-14,-228 "/>
<path fill="none" stroke="black" d="M4.73695e-14,-228C3.07902e-14,-222 6,-216 12,-216"/>
<polyline fill="none" stroke="black" points="12,-216 222,-216 "/>
<path fill="none" stroke="black" d="M222,-216C228,-216 234,-222 234,-228"/>
<polyline fill="none" stroke="black" points="234,-228 234,-240 "/>
<path fill="none" stroke="black" d="M234,-240C234,-246 228,-252 222,-252"/>
<text text-anchor="start" x="8.5" y="-231.233" font-family="Times Roman,serif" font-size="14.00"> One dimensional Taylor Series </text>
</a>
</g>
<!-- DEFINITION_OF_DERIVATIVE&#45;&gt;TAYLOR_SERIES -->
<g id="edge4" class="edge"><title>DEFINITION_OF_DERIVATIVE&#45;&gt;TAYLOR_SERIES</title>
<path fill="none" stroke="black" d="M451.894,-294.432C391.3,-283.498 299.156,-266.87 226.85,-253.822"/>
<polygon fill="black" stroke="black" points="227.246,-250.338 216.784,-252.006 226.003,-257.226 227.246,-250.338"/>
</g>
<!-- NEWTONS_LAWS -->
<g id="node6" class="node"><title>NEWTONS_LAWS</title>
<a xlink:href="NEWTONS_LAWS.html" xlink:title=" Newtons Laws of Motion " target="_top">
<polyline fill="none" stroke="black" points="438,-252 264,-252 "/>
<path fill="none" stroke="black" d="M264,-252C258,-252 252,-246 252,-240"/>
<polyline fill="none" stroke="black" points="252,-240 252,-228 "/>
<path fill="none" stroke="black" d="M252,-228C252,-222 258,-216 264,-216"/>
<polyline fill="none" stroke="black" points="264,-216 438,-216 "/>
<path fill="none" stroke="black" d="M438,-216C444,-216 450,-222 450,-228"/>
<polyline fill="none" stroke="black" points="450,-228 450,-240 "/>
<path fill="none" stroke="black" d="M450,-240C450,-246 444,-252 438,-252"/>
<text text-anchor="start" x="260.5" y="-231.233" font-family="Times Roman,serif" font-size="14.00"> Newtons Laws of Motion </text>
</a>
</g>
<!-- DEFINITION_OF_DERIVATIVE&#45;&gt;NEWTONS_LAWS -->
<g id="edge6" class="edge"><title>DEFINITION_OF_DERIVATIVE&#45;&gt;NEWTONS_LAWS</title>
<path fill="none" stroke="black" d="M474.364,-287.831C452.296,-278.202 425.009,-266.295 401.714,-256.13"/>
<polygon fill="black" stroke="black" points="402.902,-252.83 392.337,-252.038 400.103,-259.245 402.902,-252.83"/>
</g>
<!-- PRODUCT_RULE -->
<g id="node8" class="node"><title>PRODUCT_RULE</title>
<a xlink:href="PRODUCT_RULE.html" xlink:title=" Product Rule " target="_top">
<polyline fill="none" stroke="black" points="276,-180 186,-180 "/>
<path fill="none" stroke="black" d="M186,-180C180,-180 174,-174 174,-168"/>
<polyline fill="none" stroke="black" points="174,-168 174,-156 "/>
<path fill="none" stroke="black" d="M174,-156C174,-150 180,-144 186,-144"/>
<polyline fill="none" stroke="black" points="186,-144 276,-144 "/>
<path fill="none" stroke="black" d="M276,-144C282,-144 288,-150 288,-156"/>
<polyline fill="none" stroke="black" points="288,-156 288,-168 "/>
<path fill="none" stroke="black" d="M288,-168C288,-174 282,-180 276,-180"/>
<text text-anchor="start" x="182.5" y="-159.233" font-family="Times Roman,serif" font-size="14.00"> Product Rule </text>
</a>
</g>
<!-- DEFINITION_OF_DERIVATIVE&#45;&gt;PRODUCT_RULE -->
<g id="edge8" class="edge"><title>DEFINITION_OF_DERIVATIVE&#45;&gt;PRODUCT_RULE</title>
<path fill="none" stroke="black" d="M509.437,-287.739C501.027,-267.04 484.424,-233.862 459,-216 401.243,-175.421 371.237,-195.759 298.286,-180.111"/>
<polygon fill="black" stroke="black" points="298.726,-176.621 288.194,-177.777 297.148,-183.441 298.726,-176.621"/>
</g>
<!-- EXACT_DIFFERENTIALS -->
<g id="node11" class="node"><title>EXACT_DIFFERENTIALS</title>
<a xlink:href="EXACT_DIFFERENTIALS.html" xlink:title=" Theory of exact differentials " target="_top">
<polyline fill="none" stroke="black" points="514,-180 318,-180 "/>
<path fill="none" stroke="black" d="M318,-180C312,-180 306,-174 306,-168"/>
<polyline fill="none" stroke="black" points="306,-168 306,-156 "/>
<path fill="none" stroke="black" d="M306,-156C306,-150 312,-144 318,-144"/>
<polyline fill="none" stroke="black" points="318,-144 514,-144 "/>
<path fill="none" stroke="black" d="M514,-144C520,-144 526,-150 526,-156"/>
<polyline fill="none" stroke="black" points="526,-156 526,-168 "/>
<path fill="none" stroke="black" d="M526,-168C526,-174 520,-180 514,-180"/>
<text text-anchor="start" x="314" y="-159.233" font-family="Times Roman,serif" font-size="14.00"> Theory of exact differentials </text>
</a>
</g>
<!-- DEFINITION_OF_DERIVATIVE&#45;&gt;EXACT_DIFFERENTIALS -->
<g id="edge12" class="edge"><title>DEFINITION_OF_DERIVATIVE&#45;&gt;EXACT_DIFFERENTIALS</title>
<path fill="none" stroke="black" d="M514.789,-287.925C512.72,-268.594 507.124,-237.786 492,-216 483.756,-204.124 472.012,-193.961 460.215,-185.762"/>
<polygon fill="black" stroke="black" points="461.944,-182.71 451.665,-180.143 458.099,-188.56 461.944,-182.71"/>
</g>
<!-- LAGRANGE_MULTIPLIERS -->
<g id="node13" class="node"><title>LAGRANGE_MULTIPLIERS</title>
<a xlink:href="LAGRANGE_MULTIPLIERS.html" xlink:title=" Lagrange multipliers " target="_top">
<polyline fill="none" stroke="black" points="433,-108 289,-108 "/>
<path fill="none" stroke="black" d="M289,-108C283,-108 277,-102 277,-96"/>
<polyline fill="none" stroke="black" points="277,-96 277,-84 "/>
<path fill="none" stroke="black" d="M277,-84C277,-78 283,-72 289,-72"/>
<polyline fill="none" stroke="black" points="289,-72 433,-72 "/>
<path fill="none" stroke="black" d="M433,-72C439,-72 445,-78 445,-84"/>
<polyline fill="none" stroke="black" points="445,-84 445,-96 "/>
<path fill="none" stroke="black" d="M445,-96C445,-102 439,-108 433,-108"/>
<text text-anchor="start" x="285.5" y="-87.2333" font-family="Times Roman,serif" font-size="14.00"> Lagrange multipliers </text>
</a>
</g>
<!-- DEFINITION_OF_DERIVATIVE&#45;&gt;LAGRANGE_MULTIPLIERS -->
<g id="edge14" class="edge"><title>DEFINITION_OF_DERIVATIVE&#45;&gt;LAGRANGE_MULTIPLIERS</title>
<path fill="none" stroke="black" d="M525.501,-287.887C540.989,-255.572 566.913,-187.318 535,-144 524.582,-129.859 490.457,-117.825 455.153,-108.73"/>
<polygon fill="black" stroke="black" points="455.733,-105.268 445.183,-106.244 454.039,-112.06 455.733,-105.268"/>
</g>
<!-- CONTINUOUS_TIME_MARKOV_CHAIN -->
<g id="node16" class="node"><title>CONTINUOUS_TIME_MARKOV_CHAIN</title>
<a xlink:href="CONTINUOUS_TIME_MARKOV_CHAIN.html" xlink:title=" Markov chains in continuous time " target="_top">
<polyline fill="none" stroke="black" points="709,-108 475,-108 "/>
<path fill="none" stroke="black" d="M475,-108C469,-108 463,-102 463,-96"/>
<polyline fill="none" stroke="black" points="463,-96 463,-84 "/>
<path fill="none" stroke="black" d="M463,-84C463,-78 469,-72 475,-72"/>
<polyline fill="none" stroke="black" points="475,-72 709,-72 "/>
<path fill="none" stroke="black" d="M709,-72C715,-72 721,-78 721,-84"/>
<polyline fill="none" stroke="black" points="721,-84 721,-96 "/>
<path fill="none" stroke="black" d="M721,-96C721,-102 715,-108 709,-108"/>
<text text-anchor="start" x="471.5" y="-87.2333" font-family="Times Roman,serif" font-size="14.00"> Markov chains in continuous time </text>
</a>
</g>
<!-- DEFINITION_OF_DERIVATIVE&#45;&gt;CONTINUOUS_TIME_MARKOV_CHAIN -->
<g id="edge18" class="edge"><title>DEFINITION_OF_DERIVATIVE&#45;&gt;CONTINUOUS_TIME_MARKOV_CHAIN</title>
<path fill="none" stroke="black" d="M539.135,-287.858C549.649,-278.333 561.226,-265.783 568,-252 589.274,-208.713 592.892,-151.658 592.912,-118.09"/>
<polygon fill="black" stroke="black" points="596.412,-118.028 592.81,-108.064 589.412,-118.099 596.412,-118.028"/>
</g>
<!-- CHAIN_RULE -->
<g id="node18" class="node"><title>CHAIN_RULE</title>
<a xlink:href="CHAIN_RULE.html" xlink:title=" Chain Rule " target="_top">
<polyline fill="none" stroke="black" points="593,-36 517,-36 "/>
<path fill="none" stroke="black" d="M517,-36C511,-36 505,-30 505,-24"/>
<polyline fill="none" stroke="black" points="505,-24 505,-12 "/>
<path fill="none" stroke="black" d="M505,-12C505,-6 511,-1.69109e-14 517,-1.60583e-14"/>
<polyline fill="none" stroke="black" points="517,-1.60583e-14 593,-5.25802e-15 "/>
<path fill="none" stroke="black" d="M593,-5.25802e-15C599,-4.40536e-15 605,-6 605,-12"/>
<polyline fill="none" stroke="black" points="605,-12 605,-24 "/>
<path fill="none" stroke="black" d="M605,-24C605,-30 599,-36 593,-36"/>
<text text-anchor="start" x="513" y="-15.2333" font-family="Times Roman,serif" font-size="14.00"> Chain Rule </text>
</a>
</g>
<!-- DEFINITION_OF_DERIVATIVE&#45;&gt;CHAIN_RULE -->
<g id="edge20" class="edge"><title>DEFINITION_OF_DERIVATIVE&#45;&gt;CHAIN_RULE</title>
<path fill="none" stroke="black" d="M549.706,-287.787C600.601,-258.054 694.853,-193.7 730,-108 736.071,-93.1966 739.5,-84.8741 730,-72 716.09,-53.1506 660.212,-38.1094 615.288,-28.7376"/>
<polygon fill="black" stroke="black" points="615.803,-25.2708 605.307,-26.7094 614.409,-32.1306 615.803,-25.2708"/>
</g>
<!-- LIMITS -->
<g id="node2" class="node"><title>LIMITS</title>
<a xlink:href="LIMITS.html" xlink:title=" Limit of a function " target="_top">
<polyline fill="none" stroke="black" points="580,-396 452,-396 "/>
<path fill="none" stroke="black" d="M452,-396C446,-396 440,-390 440,-384"/>
<polyline fill="none" stroke="black" points="440,-384 440,-372 "/>
<path fill="none" stroke="black" d="M440,-372C440,-366 446,-360 452,-360"/>
<polyline fill="none" stroke="black" points="452,-360 580,-360 "/>
<path fill="none" stroke="black" d="M580,-360C586,-360 592,-366 592,-372"/>
<polyline fill="none" stroke="black" points="592,-372 592,-384 "/>
<path fill="none" stroke="black" d="M592,-384C592,-390 586,-396 580,-396"/>
<text text-anchor="start" x="448.5" y="-375.233" font-family="Times Roman,serif" font-size="14.00"> Limit of a function </text>
</a>
</g>
<!-- LIMITS&#45;&gt;DEFINITION_OF_DERIVATIVE -->
<g id="edge2" class="edge"><title>LIMITS&#45;&gt;DEFINITION_OF_DERIVATIVE</title>
<path fill="none" stroke="black" d="M516,-359.831C516,-352.131 516,-342.974 516,-334.417"/>
<polygon fill="black" stroke="black" points="519.5,-334.413 516,-324.413 512.5,-334.413 519.5,-334.413"/>
</g>
<!-- TAYLOR_SERIES&#45;&gt;PRODUCT_RULE -->
<!-- PRODUCT_RULE&#45;&gt;LAGRANGE_MULTIPLIERS -->
<!-- LAGRANGE_MULTIPLIERS&#45;&gt;CHAIN_RULE -->
</g>
</svg>
