<?xml version="1.0" encoding="UTF-8" standalone="no"?>
<!DOCTYPE svg PUBLIC "-//W3C//DTD SVG 1.1//EN"
 "http://www.w3.org/Graphics/SVG/1.1/DTD/svg11.dtd">
<!-- Generated by graphviz version 2.28.0 (20110509.1545)
 -->
<!-- Title: _anonymous_0 Pages: 1 -->
<svg width="559pt" height="260pt"
 viewBox="0.00 0.00 559.00 260.00" xmlns="http://www.w3.org/2000/svg" xmlns:xlink="http://www.w3.org/1999/xlink">
<g id="graph1" class="graph" transform="scale(1 1) rotate(0) translate(4 256)">
<title>_anonymous_0</title>
<!-- DEFINITION_OF_DERIVATIVE -->
<g id="node1" class="node"><title>DEFINITION_OF_DERIVATIVE</title>
<a xlink:href="DEFINITION_OF_DERIVATIVE.html" xlink:title="Differentiation" target="_top">
<polyline fill="none" stroke="blue" stroke-width="2" points="305.25,-180 230.75,-180 "/>
<path fill="none" stroke="blue" stroke-width="2" d="M230.75,-180C224.75,-180 218.75,-174 218.75,-168"/>
<polyline fill="none" stroke="blue" stroke-width="2" points="218.75,-168 218.75,-156 "/>
<path fill="none" stroke="blue" stroke-width="2" d="M218.75,-156C218.75,-150 224.75,-144 230.75,-144"/>
<polyline fill="none" stroke="blue" stroke-width="2" points="230.75,-144 305.25,-144 "/>
<path fill="none" stroke="blue" stroke-width="2" d="M305.25,-144C311.25,-144 317.25,-150 317.25,-156"/>
<polyline fill="none" stroke="blue" stroke-width="2" points="317.25,-156 317.25,-168 "/>
<path fill="none" stroke="blue" stroke-width="2" d="M317.25,-168C317.25,-174 311.25,-180 305.25,-180"/>
<text text-anchor="start" x="227" y="-156.5" font-family="Times,serif" font-size="14.00">Differentiation</text>
</a>
</g>
<!-- CHAIN_RULE -->
<g id="node2" class="node"><title>CHAIN_RULE</title>
<a xlink:href="CHAIN_RULE.html" xlink:title="Chain Rule" target="_top">
<polyline fill="none" stroke="black" points="68,-108 12,-108 "/>
<path fill="none" stroke="black" d="M12,-108C6,-108 0,-102 0,-96"/>
<polyline fill="none" stroke="black" points="0,-96 0,-84 "/>
<path fill="none" stroke="black" d="M0,-84C0,-78 6,-72 12,-72"/>
<polyline fill="none" stroke="black" points="12,-72 68,-72 "/>
<path fill="none" stroke="black" d="M68,-72C74,-72 80,-78 80,-84"/>
<polyline fill="none" stroke="black" points="80,-84 80,-96 "/>
<path fill="none" stroke="black" d="M80,-96C80,-102 74,-108 68,-108"/>
<text text-anchor="start" x="8.5" y="-84.5" font-family="Times,serif" font-size="14.00">Chain Rule</text>
</a>
</g>
<!-- DEFINITION_OF_DERIVATIVE&#45;&gt;CHAIN_RULE -->
<g id="edge2" class="edge"><title>DEFINITION_OF_DERIVATIVE&#45;&gt;CHAIN_RULE</title>
<path fill="none" stroke="black" d="M218.427,-146.987C184.642,-137.285 138.688,-123.795 89.8618,-108.211"/>
<polygon fill="black" stroke="black" points="90.6521,-104.789 80.0609,-105.067 88.5137,-111.455 90.6521,-104.789"/>
</g>
<!-- CONTINUOUS_TIME_MARKOV_CHAIN -->
<g id="node4" class="node"><title>CONTINUOUS_TIME_MARKOV_CHAIN</title>
<a xlink:href="CONTINUOUS_TIME_MARKOV_CHAIN.html" xlink:title="Markov chains in continuous time" target="_top">
<polyline fill="none" stroke="black" points="294,-108 110,-108 "/>
<path fill="none" stroke="black" d="M110,-108C104,-108 98,-102 98,-96"/>
<polyline fill="none" stroke="black" points="98,-96 98,-84 "/>
<path fill="none" stroke="black" d="M98,-84C98,-78 104,-72 110,-72"/>
<polyline fill="none" stroke="black" points="110,-72 294,-72 "/>
<path fill="none" stroke="black" d="M294,-72C300,-72 306,-78 306,-84"/>
<polyline fill="none" stroke="black" points="306,-84 306,-96 "/>
<path fill="none" stroke="black" d="M306,-96C306,-102 300,-108 294,-108"/>
<text text-anchor="start" x="106.5" y="-84.5" font-family="Times,serif" font-size="14.00">Markov chains in continuous time</text>
</a>
</g>
<!-- DEFINITION_OF_DERIVATIVE&#45;&gt;CONTINUOUS_TIME_MARKOV_CHAIN -->
<g id="edge4" class="edge"><title>DEFINITION_OF_DERIVATIVE&#45;&gt;CONTINUOUS_TIME_MARKOV_CHAIN</title>
<path fill="none" stroke="black" d="M251.685,-143.697C243.693,-135.22 233.928,-124.864 225.178,-115.583"/>
<polygon fill="black" stroke="black" points="227.534,-112.979 218.127,-108.104 222.441,-117.781 227.534,-112.979"/>
</g>
<!-- PRODUCT_RULE -->
<g id="node8" class="node"><title>PRODUCT_RULE</title>
<a xlink:href="PRODUCT_RULE.html" xlink:title="Product Rule" target="_top">
<polyline fill="none" stroke="black" points="220,-36 154,-36 "/>
<path fill="none" stroke="black" d="M154,-36C148,-36 142,-30 142,-24"/>
<polyline fill="none" stroke="black" points="142,-24 142,-12 "/>
<path fill="none" stroke="black" d="M142,-12C142,-6 148,-0 154,-0"/>
<polyline fill="none" stroke="black" points="154,-0 220,-0 "/>
<path fill="none" stroke="black" d="M220,-0C226,-0 232,-6 232,-12"/>
<polyline fill="none" stroke="black" points="232,-12 232,-24 "/>
<path fill="none" stroke="black" d="M232,-24C232,-30 226,-36 220,-36"/>
<text text-anchor="start" x="150.5" y="-12.5" font-family="Times,serif" font-size="14.00">Product Rule</text>
</a>
</g>
<!-- DEFINITION_OF_DERIVATIVE&#45;&gt;PRODUCT_RULE -->
<g id="edge8" class="edge"><title>DEFINITION_OF_DERIVATIVE&#45;&gt;PRODUCT_RULE</title>
<path fill="none" stroke="black" d="M288.367,-143.673C307.444,-125.287 330.825,-95.6809 315,-72 298.706,-47.6182 268.899,-34.4389 242.146,-27.3219"/>
<polygon fill="black" stroke="black" points="242.62,-23.8354 232.076,-24.8803 240.97,-30.6383 242.62,-23.8354"/>
</g>
<!-- TAYLOR_SERIES -->
<g id="node11" class="node"><title>TAYLOR_SERIES</title>
<a xlink:href="TAYLOR_SERIES.html" xlink:title="One dimensional Taylor Series" target="_top">
<polyline fill="none" stroke="black" points="539.25,-108 374.75,-108 "/>
<path fill="none" stroke="black" d="M374.75,-108C368.75,-108 362.75,-102 362.75,-96"/>
<polyline fill="none" stroke="black" points="362.75,-96 362.75,-84 "/>
<path fill="none" stroke="black" d="M362.75,-84C362.75,-78 368.75,-72 374.75,-72"/>
<polyline fill="none" stroke="black" points="374.75,-72 539.25,-72 "/>
<path fill="none" stroke="black" d="M539.25,-72C545.25,-72 551.25,-78 551.25,-84"/>
<polyline fill="none" stroke="black" points="551.25,-84 551.25,-96 "/>
<path fill="none" stroke="black" d="M551.25,-96C551.25,-102 545.25,-108 539.25,-108"/>
<text text-anchor="start" x="371" y="-84.5" font-family="Times,serif" font-size="14.00">One dimensional Taylor Series</text>
</a>
</g>
<!-- DEFINITION_OF_DERIVATIVE&#45;&gt;TAYLOR_SERIES -->
<g id="edge12" class="edge"><title>DEFINITION_OF_DERIVATIVE&#45;&gt;TAYLOR_SERIES</title>
<path fill="none" stroke="black" d="M314.235,-143.876C340.531,-134.137 373.644,-121.872 401.358,-111.608"/>
<polygon fill="black" stroke="black" points="402.754,-114.824 410.916,-108.068 400.322,-108.259 402.754,-114.824"/>
</g>
<!-- CHAIN_RULE&#45;&gt;PRODUCT_RULE -->
<!-- LIMITS -->
<g id="node6" class="node"><title>LIMITS</title>
<a xlink:href="LIMITS.html" xlink:title="Limit of a function" target="_top">
<polyline fill="none" stroke="black" points="317.25,-252 218.75,-252 "/>
<path fill="none" stroke="black" d="M218.75,-252C212.75,-252 206.75,-246 206.75,-240"/>
<polyline fill="none" stroke="black" points="206.75,-240 206.75,-228 "/>
<path fill="none" stroke="black" d="M206.75,-228C206.75,-222 212.75,-216 218.75,-216"/>
<polyline fill="none" stroke="black" points="218.75,-216 317.25,-216 "/>
<path fill="none" stroke="black" d="M317.25,-216C323.25,-216 329.25,-222 329.25,-228"/>
<polyline fill="none" stroke="black" points="329.25,-228 329.25,-240 "/>
<path fill="none" stroke="black" d="M329.25,-240C329.25,-246 323.25,-252 317.25,-252"/>
<text text-anchor="start" x="215" y="-228.5" font-family="Times,serif" font-size="14.00">Limit of a function</text>
</a>
</g>
<!-- LIMITS&#45;&gt;DEFINITION_OF_DERIVATIVE -->
<g id="edge6" class="edge"><title>LIMITS&#45;&gt;DEFINITION_OF_DERIVATIVE</title>
<path fill="none" stroke="black" d="M268,-215.697C268,-207.983 268,-198.712 268,-190.112"/>
<polygon fill="black" stroke="black" points="271.5,-190.104 268,-180.104 264.5,-190.104 271.5,-190.104"/>
</g>
</g>
</svg>
