<?xml version="1.0" encoding="UTF-8" standalone="no"?>
<!DOCTYPE svg PUBLIC "-//W3C//DTD SVG 1.1//EN"
 "http://www.w3.org/Graphics/SVG/1.1/DTD/svg11.dtd">
<!-- Generated by graphviz version 2.26.3 (20100126.1600)
 -->
<!-- Title: _anonymous_0 Pages: 1 -->
<svg width="646pt" height="260pt"
 viewBox="0.00 0.00 646.00 260.00" xmlns="http://www.w3.org/2000/svg" xmlns:xlink="http://www.w3.org/1999/xlink">
<g id="graph1" class="graph" transform="scale(1 1) rotate(0) translate(4 256)">
<title>_anonymous_0</title>
<!-- DEFINITION_OF_DERIVATIVE -->
<g id="node1" class="node"><title>DEFINITION_OF_DERIVATIVE</title>
<a xlink:href="DEFINITION_OF_DERIVATIVE.html" xlink:title="Differentiation" target="_top">
<polyline fill="none" stroke="blue" stroke-width="2" points="495,-180 401,-180 "/>
<path fill="none" stroke="blue" stroke-width="2" d="M401,-180C395,-180 389,-174 389,-168"/>
<polyline fill="none" stroke="blue" stroke-width="2" points="389,-168 389,-156 "/>
<path fill="none" stroke="blue" stroke-width="2" d="M389,-156C389,-150 395,-144 401,-144"/>
<polyline fill="none" stroke="blue" stroke-width="2" points="401,-144 495,-144 "/>
<path fill="none" stroke="blue" stroke-width="2" d="M495,-144C501,-144 507,-150 507,-156"/>
<polyline fill="none" stroke="blue" stroke-width="2" points="507,-156 507,-168 "/>
<path fill="none" stroke="blue" stroke-width="2" d="M507,-168C507,-174 501,-180 495,-180"/>
<text text-anchor="start" x="397" y="-159.233" font-family="Times Roman,serif" font-size="14.00">Differentiation</text>
</a>
</g>
<!-- CONTINUOUS_TIME_MARKOV_CHAIN -->
<g id="node4" class="node"><title>CONTINUOUS_TIME_MARKOV_CHAIN</title>
<a xlink:href="CONTINUOUS_TIME_MARKOV_CHAIN.html" xlink:title="Markov chains in continuous time" target="_top">
<polyline fill="none" stroke="black" points="236,-108 12,-108 "/>
<path fill="none" stroke="black" d="M12,-108C6,-108 6.86858e-14,-102 5.21065e-14,-96"/>
<polyline fill="none" stroke="black" points="5.21065e-14,-96 1.89478e-14,-84 "/>
<path fill="none" stroke="black" d="M1.89478e-14,-84C2.36848e-15,-78 6,-72 12,-72"/>
<polyline fill="none" stroke="black" points="12,-72 236,-72 "/>
<path fill="none" stroke="black" d="M236,-72C242,-72 248,-78 248,-84"/>
<polyline fill="none" stroke="black" points="248,-84 248,-96 "/>
<path fill="none" stroke="black" d="M248,-96C248,-102 242,-108 236,-108"/>
<text text-anchor="start" x="8" y="-87.2333" font-family="Times Roman,serif" font-size="14.00">Markov chains in continuous time</text>
</a>
</g>
<!-- DEFINITION_OF_DERIVATIVE&#45;&gt;CONTINUOUS_TIME_MARKOV_CHAIN -->
<g id="edge4" class="edge"><title>DEFINITION_OF_DERIVATIVE&#45;&gt;CONTINUOUS_TIME_MARKOV_CHAIN</title>
<path fill="none" stroke="black" d="M388.95,-148.878C340.394,-138.087 270.767,-122.615 215.075,-110.239"/>
<polygon fill="black" stroke="black" points="215.723,-106.798 205.202,-108.045 214.205,-113.631 215.723,-106.798"/>
</g>
<!-- TAYLOR_SERIES -->
<g id="node6" class="node"><title>TAYLOR_SERIES</title>
<a xlink:href="TAYLOR_SERIES.html" xlink:title="One dimensional Taylor Series" target="_top">
<polyline fill="none" stroke="black" points="478,-108 278,-108 "/>
<path fill="none" stroke="black" d="M278,-108C272,-108 266,-102 266,-96"/>
<polyline fill="none" stroke="black" points="266,-96 266,-84 "/>
<path fill="none" stroke="black" d="M266,-84C266,-78 272,-72 278,-72"/>
<polyline fill="none" stroke="black" points="278,-72 478,-72 "/>
<path fill="none" stroke="black" d="M478,-72C484,-72 490,-78 490,-84"/>
<polyline fill="none" stroke="black" points="490,-84 490,-96 "/>
<path fill="none" stroke="black" d="M490,-96C490,-102 484,-108 478,-108"/>
<text text-anchor="start" x="274" y="-87.2333" font-family="Times Roman,serif" font-size="14.00">One dimensional Taylor Series</text>
</a>
</g>
<!-- DEFINITION_OF_DERIVATIVE&#45;&gt;TAYLOR_SERIES -->
<g id="edge6" class="edge"><title>DEFINITION_OF_DERIVATIVE&#45;&gt;TAYLOR_SERIES</title>
<path fill="none" stroke="black" d="M430.336,-143.831C422.027,-135.285 411.974,-124.944 402.908,-115.62"/>
<polygon fill="black" stroke="black" points="405.382,-113.143 395.902,-108.413 400.363,-118.023 405.382,-113.143"/>
</g>
<!-- PRODUCT_RULE -->
<g id="node8" class="node"><title>PRODUCT_RULE</title>
<a xlink:href="PRODUCT_RULE.html" xlink:title="Product Rule" target="_top">
<polyline fill="none" stroke="black" points="361,-36 281,-36 "/>
<path fill="none" stroke="black" d="M281,-36C275,-36 269,-30 269,-24"/>
<polyline fill="none" stroke="black" points="269,-24 269,-12 "/>
<path fill="none" stroke="black" d="M269,-12C269,-6 275,-1.69437e-14 281,-1.61239e-14"/>
<polyline fill="none" stroke="black" points="281,-1.61239e-14 361,-5.19243e-15 "/>
<path fill="none" stroke="black" d="M361,-5.19243e-15C367,-4.37257e-15 373,-6 373,-12"/>
<polyline fill="none" stroke="black" points="373,-12 373,-24 "/>
<path fill="none" stroke="black" d="M373,-24C373,-30 367,-36 361,-36"/>
<text text-anchor="start" x="277" y="-15.2333" font-family="Times Roman,serif" font-size="14.00">Product Rule</text>
</a>
</g>
<!-- DEFINITION_OF_DERIVATIVE&#45;&gt;PRODUCT_RULE -->
<g id="edge8" class="edge"><title>DEFINITION_OF_DERIVATIVE&#45;&gt;PRODUCT_RULE</title>
<path fill="none" stroke="black" d="M470.589,-143.96C491.304,-125.202 516.331,-95.3688 499,-72 484.886,-52.9697 428.473,-38.0141 382.888,-28.7143"/>
<polygon fill="black" stroke="black" points="383.539,-25.2754 373.049,-26.7591 382.175,-32.1412 383.539,-25.2754"/>
</g>
<!-- CHAIN_RULE -->
<g id="node11" class="node"><title>CHAIN_RULE</title>
<a xlink:href="CHAIN_RULE.html" xlink:title="Chain Rule" target="_top">
<polyline fill="none" stroke="black" points="626,-108 558,-108 "/>
<path fill="none" stroke="black" d="M558,-108C552,-108 546,-102 546,-96"/>
<polyline fill="none" stroke="black" points="546,-96 546,-84 "/>
<path fill="none" stroke="black" d="M546,-84C546,-78 552,-72 558,-72"/>
<polyline fill="none" stroke="black" points="558,-72 626,-72 "/>
<path fill="none" stroke="black" d="M626,-72C632,-72 638,-78 638,-84"/>
<polyline fill="none" stroke="black" points="638,-84 638,-96 "/>
<path fill="none" stroke="black" d="M638,-96C638,-102 632,-108 626,-108"/>
<text text-anchor="start" x="554.5" y="-87.2333" font-family="Times Roman,serif" font-size="14.00">Chain Rule</text>
</a>
</g>
<!-- DEFINITION_OF_DERIVATIVE&#45;&gt;CHAIN_RULE -->
<g id="edge12" class="edge"><title>DEFINITION_OF_DERIVATIVE&#45;&gt;CHAIN_RULE</title>
<path fill="none" stroke="black" d="M484.337,-143.831C503.34,-134.33 526.776,-122.612 546.925,-112.537"/>
<polygon fill="black" stroke="black" points="548.545,-115.641 555.924,-108.038 545.414,-109.38 548.545,-115.641"/>
</g>
<!-- LIMITS -->
<g id="node2" class="node"><title>LIMITS</title>
<a xlink:href="LIMITS.html" xlink:title="Limit of a function" target="_top">
<polyline fill="none" stroke="black" points="507,-252 389,-252 "/>
<path fill="none" stroke="black" d="M389,-252C383,-252 377,-246 377,-240"/>
<polyline fill="none" stroke="black" points="377,-240 377,-228 "/>
<path fill="none" stroke="black" d="M377,-228C377,-222 383,-216 389,-216"/>
<polyline fill="none" stroke="black" points="389,-216 507,-216 "/>
<path fill="none" stroke="black" d="M507,-216C513,-216 519,-222 519,-228"/>
<polyline fill="none" stroke="black" points="519,-228 519,-240 "/>
<path fill="none" stroke="black" d="M519,-240C519,-246 513,-252 507,-252"/>
<text text-anchor="start" x="385" y="-231.233" font-family="Times Roman,serif" font-size="14.00">Limit of a function</text>
</a>
</g>
<!-- LIMITS&#45;&gt;DEFINITION_OF_DERIVATIVE -->
<g id="edge2" class="edge"><title>LIMITS&#45;&gt;DEFINITION_OF_DERIVATIVE</title>
<path fill="none" stroke="black" d="M448,-215.831C448,-208.131 448,-198.974 448,-190.417"/>
<polygon fill="black" stroke="black" points="451.5,-190.413 448,-180.413 444.5,-190.413 451.5,-190.413"/>
</g>
<!-- CONTINUOUS_TIME_MARKOV_CHAIN&#45;&gt;PRODUCT_RULE -->
</g>
</svg>
