<?xml version="1.0" encoding="UTF-8" standalone="no"?>
<!DOCTYPE svg PUBLIC "-//W3C//DTD SVG 1.1//EN"
 "http://www.w3.org/Graphics/SVG/1.1/DTD/svg11.dtd">
<!-- Generated by graphviz version 2.26.3 (20100126.1600)
 -->
<!-- Title: _anonymous_0 Pages: 1 -->
<svg width="764pt" height="332pt"
 viewBox="0.00 0.00 764.00 332.00" xmlns="http://www.w3.org/2000/svg" xmlns:xlink="http://www.w3.org/1999/xlink">
<g id="graph1" class="graph" transform="scale(1 1) rotate(0) translate(4 328)">
<title>_anonymous_0</title>
<!-- DEFINITION_OF_DERIVATIVE -->
<g id="node1" class="node"><title>DEFINITION_OF_DERIVATIVE</title>
<a xlink:href="DEFINITION_OF_DERIVATIVE.html" xlink:title="Differentiation" target="_top">
<polyline fill="none" stroke="blue" stroke-width="2" points="584,-252 490,-252 "/>
<path fill="none" stroke="blue" stroke-width="2" d="M490,-252C484,-252 478,-246 478,-240"/>
<polyline fill="none" stroke="blue" stroke-width="2" points="478,-240 478,-228 "/>
<path fill="none" stroke="blue" stroke-width="2" d="M478,-228C478,-222 484,-216 490,-216"/>
<polyline fill="none" stroke="blue" stroke-width="2" points="490,-216 584,-216 "/>
<path fill="none" stroke="blue" stroke-width="2" d="M584,-216C590,-216 596,-222 596,-228"/>
<polyline fill="none" stroke="blue" stroke-width="2" points="596,-228 596,-240 "/>
<path fill="none" stroke="blue" stroke-width="2" d="M596,-240C596,-246 590,-252 584,-252"/>
<text text-anchor="start" x="486" y="-231.233" font-family="Times Roman,serif" font-size="14.00">Differentiation</text>
</a>
</g>
<!-- CONTINUOUS_TIME_MARKOV_CHAIN -->
<g id="node4" class="node"><title>CONTINUOUS_TIME_MARKOV_CHAIN</title>
<a xlink:href="CONTINUOUS_TIME_MARKOV_CHAIN.html" xlink:title="Markov chains in continuous time" target="_top">
<polyline fill="none" stroke="black" points="236,-180 12,-180 "/>
<path fill="none" stroke="black" d="M12,-180C6,-180 6.86858e-14,-174 5.21065e-14,-168"/>
<polyline fill="none" stroke="black" points="5.21065e-14,-168 1.89478e-14,-156 "/>
<path fill="none" stroke="black" d="M1.89478e-14,-156C2.36848e-15,-150 6,-144 12,-144"/>
<polyline fill="none" stroke="black" points="12,-144 236,-144 "/>
<path fill="none" stroke="black" d="M236,-144C242,-144 248,-150 248,-156"/>
<polyline fill="none" stroke="black" points="248,-156 248,-168 "/>
<path fill="none" stroke="black" d="M248,-168C248,-174 242,-180 236,-180"/>
<text text-anchor="start" x="8" y="-159.233" font-family="Times Roman,serif" font-size="14.00">Markov chains in continuous time</text>
</a>
</g>
<!-- DEFINITION_OF_DERIVATIVE&#45;&gt;CONTINUOUS_TIME_MARKOV_CHAIN -->
<g id="edge4" class="edge"><title>DEFINITION_OF_DERIVATIVE&#45;&gt;CONTINUOUS_TIME_MARKOV_CHAIN</title>
<path fill="none" stroke="black" d="M477.827,-223.684C415.263,-212.777 315.051,-195.307 237.221,-181.738"/>
<polygon fill="black" stroke="black" points="237.814,-178.289 227.362,-180.02 236.612,-185.185 237.814,-178.289"/>
</g>
<!-- TAYLOR_SERIES -->
<g id="node6" class="node"><title>TAYLOR_SERIES</title>
<a xlink:href="TAYLOR_SERIES.html" xlink:title="One dimensional Taylor Series" target="_top">
<polyline fill="none" stroke="black" points="478,-180 278,-180 "/>
<path fill="none" stroke="black" d="M278,-180C272,-180 266,-174 266,-168"/>
<polyline fill="none" stroke="black" points="266,-168 266,-156 "/>
<path fill="none" stroke="black" d="M266,-156C266,-150 272,-144 278,-144"/>
<polyline fill="none" stroke="black" points="278,-144 478,-144 "/>
<path fill="none" stroke="black" d="M478,-144C484,-144 490,-150 490,-156"/>
<polyline fill="none" stroke="black" points="490,-156 490,-168 "/>
<path fill="none" stroke="black" d="M490,-168C490,-174 484,-180 478,-180"/>
<text text-anchor="start" x="274" y="-159.233" font-family="Times Roman,serif" font-size="14.00">One dimensional Taylor Series</text>
</a>
</g>
<!-- DEFINITION_OF_DERIVATIVE&#45;&gt;TAYLOR_SERIES -->
<g id="edge6" class="edge"><title>DEFINITION_OF_DERIVATIVE&#45;&gt;TAYLOR_SERIES</title>
<path fill="none" stroke="black" d="M496.878,-215.831C475.707,-206.245 449.552,-194.401 427.17,-184.266"/>
<polygon fill="black" stroke="black" points="428.387,-180.975 417.834,-180.038 425.5,-187.351 428.387,-180.975"/>
</g>
<!-- PRODUCT_RULE -->
<g id="node8" class="node"><title>PRODUCT_RULE</title>
<a xlink:href="PRODUCT_RULE.html" xlink:title="Product Rule" target="_top">
<polyline fill="none" stroke="black" points="390,-108 310,-108 "/>
<path fill="none" stroke="black" d="M310,-108C304,-108 298,-102 298,-96"/>
<polyline fill="none" stroke="black" points="298,-96 298,-84 "/>
<path fill="none" stroke="black" d="M298,-84C298,-78 304,-72 310,-72"/>
<polyline fill="none" stroke="black" points="310,-72 390,-72 "/>
<path fill="none" stroke="black" d="M390,-72C396,-72 402,-78 402,-84"/>
<polyline fill="none" stroke="black" points="402,-84 402,-96 "/>
<path fill="none" stroke="black" d="M402,-96C402,-102 396,-108 390,-108"/>
<text text-anchor="start" x="306" y="-87.2333" font-family="Times Roman,serif" font-size="14.00">Product Rule</text>
</a>
</g>
<!-- DEFINITION_OF_DERIVATIVE&#45;&gt;PRODUCT_RULE -->
<g id="edge8" class="edge"><title>DEFINITION_OF_DERIVATIVE&#45;&gt;PRODUCT_RULE</title>
<path fill="none" stroke="black" d="M533.783,-215.638C529.334,-195.473 519.417,-163.386 499,-144 492.125,-137.472 449.468,-122.322 411.548,-109.726"/>
<polygon fill="black" stroke="black" points="412.627,-106.396 402.034,-106.585 410.433,-113.043 412.627,-106.396"/>
</g>
<!-- NEWTONS_LAWS -->
<g id="node11" class="node"><title>NEWTONS_LAWS</title>
<a xlink:href="NEWTONS_LAWS.html" xlink:title="Newtons Laws of Motion" target="_top">
<polyline fill="none" stroke="black" points="596,-108 432,-108 "/>
<path fill="none" stroke="black" d="M432,-108C426,-108 420,-102 420,-96"/>
<polyline fill="none" stroke="black" points="420,-96 420,-84 "/>
<path fill="none" stroke="black" d="M420,-84C420,-78 426,-72 432,-72"/>
<polyline fill="none" stroke="black" points="432,-72 596,-72 "/>
<path fill="none" stroke="black" d="M596,-72C602,-72 608,-78 608,-84"/>
<polyline fill="none" stroke="black" points="608,-84 608,-96 "/>
<path fill="none" stroke="black" d="M608,-96C608,-102 602,-108 596,-108"/>
<text text-anchor="start" x="428" y="-87.2333" font-family="Times Roman,serif" font-size="14.00">Newtons Laws of Motion</text>
</a>
</g>
<!-- DEFINITION_OF_DERIVATIVE&#45;&gt;NEWTONS_LAWS -->
<g id="edge12" class="edge"><title>DEFINITION_OF_DERIVATIVE&#45;&gt;NEWTONS_LAWS</title>
<path fill="none" stroke="black" d="M537.399,-215.899C537.474,-197.602 536.695,-168.594 532,-144 530.34,-135.305 527.638,-126.083 524.826,-117.768"/>
<polygon fill="black" stroke="black" points="528.06,-116.415 521.405,-108.171 521.466,-118.766 528.06,-116.415"/>
</g>
<!-- LAGRANGE_MULTIPLIERS -->
<g id="node13" class="node"><title>LAGRANGE_MULTIPLIERS</title>
<a xlink:href="LAGRANGE_MULTIPLIERS.html" xlink:title="Lagrange multipliers" target="_top">
<polyline fill="none" stroke="black" points="560,-36 426,-36 "/>
<path fill="none" stroke="black" d="M426,-36C420,-36 414,-30 414,-24"/>
<polyline fill="none" stroke="black" points="414,-24 414,-12 "/>
<path fill="none" stroke="black" d="M414,-12C414,-6 420,-1.72239e-14 426,-1.66843e-14"/>
<polyline fill="none" stroke="black" points="426,-1.66843e-14 560,-4.63202e-15 "/>
<path fill="none" stroke="black" d="M560,-4.63202e-15C566,-4.09237e-15 572,-6 572,-12"/>
<polyline fill="none" stroke="black" points="572,-12 572,-24 "/>
<path fill="none" stroke="black" d="M572,-24C572,-30 566,-36 560,-36"/>
<text text-anchor="start" x="422" y="-15.2333" font-family="Times Roman,serif" font-size="14.00">Lagrange multipliers</text>
</a>
</g>
<!-- DEFINITION_OF_DERIVATIVE&#45;&gt;LAGRANGE_MULTIPLIERS -->
<g id="edge14" class="edge"><title>DEFINITION_OF_DERIVATIVE&#45;&gt;LAGRANGE_MULTIPLIERS</title>
<path fill="none" stroke="black" d="M558.042,-215.977C591.335,-185.23 649.233,-121.194 617,-72 608.048,-58.3379 594.806,-48.1133 580.265,-40.467"/>
<polygon fill="black" stroke="black" points="581.598,-37.2241 571.071,-36.0316 578.557,-43.5289 581.598,-37.2241"/>
</g>
<!-- CHAIN_RULE -->
<g id="node16" class="node"><title>CHAIN_RULE</title>
<a xlink:href="CHAIN_RULE.html" xlink:title="Chain Rule" target="_top">
<polyline fill="none" stroke="black" points="744,-180 676,-180 "/>
<path fill="none" stroke="black" d="M676,-180C670,-180 664,-174 664,-168"/>
<polyline fill="none" stroke="black" points="664,-168 664,-156 "/>
<path fill="none" stroke="black" d="M664,-156C664,-150 670,-144 676,-144"/>
<polyline fill="none" stroke="black" points="676,-144 744,-144 "/>
<path fill="none" stroke="black" d="M744,-144C750,-144 756,-150 756,-156"/>
<polyline fill="none" stroke="black" points="756,-156 756,-168 "/>
<path fill="none" stroke="black" d="M756,-168C756,-174 750,-180 744,-180"/>
<text text-anchor="start" x="672.5" y="-159.233" font-family="Times Roman,serif" font-size="14.00">Chain Rule</text>
</a>
</g>
<!-- DEFINITION_OF_DERIVATIVE&#45;&gt;CHAIN_RULE -->
<g id="edge18" class="edge"><title>DEFINITION_OF_DERIVATIVE&#45;&gt;CHAIN_RULE</title>
<path fill="none" stroke="black" d="M580.655,-215.831C603.896,-206.159 632.657,-194.189 657.152,-183.994"/>
<polygon fill="black" stroke="black" points="658.771,-187.112 666.659,-180.038 656.082,-180.649 658.771,-187.112"/>
</g>
<!-- LIMITS -->
<g id="node2" class="node"><title>LIMITS</title>
<a xlink:href="LIMITS.html" xlink:title="Limit of a function" target="_top">
<polyline fill="none" stroke="black" points="596,-324 478,-324 "/>
<path fill="none" stroke="black" d="M478,-324C472,-324 466,-318 466,-312"/>
<polyline fill="none" stroke="black" points="466,-312 466,-300 "/>
<path fill="none" stroke="black" d="M466,-300C466,-294 472,-288 478,-288"/>
<polyline fill="none" stroke="black" points="478,-288 596,-288 "/>
<path fill="none" stroke="black" d="M596,-288C602,-288 608,-294 608,-300"/>
<polyline fill="none" stroke="black" points="608,-300 608,-312 "/>
<path fill="none" stroke="black" d="M608,-312C608,-318 602,-324 596,-324"/>
<text text-anchor="start" x="474" y="-303.233" font-family="Times Roman,serif" font-size="14.00">Limit of a function</text>
</a>
</g>
<!-- LIMITS&#45;&gt;DEFINITION_OF_DERIVATIVE -->
<g id="edge2" class="edge"><title>LIMITS&#45;&gt;DEFINITION_OF_DERIVATIVE</title>
<path fill="none" stroke="black" d="M537,-287.831C537,-280.131 537,-270.974 537,-262.417"/>
<polygon fill="black" stroke="black" points="540.5,-262.413 537,-252.413 533.5,-262.413 540.5,-262.413"/>
</g>
<!-- CONTINUOUS_TIME_MARKOV_CHAIN&#45;&gt;PRODUCT_RULE -->
<!-- PRODUCT_RULE&#45;&gt;LAGRANGE_MULTIPLIERS -->
</g>
</svg>
