<?xml version="1.0" encoding="UTF-8" standalone="no"?>
<!DOCTYPE svg PUBLIC "-//W3C//DTD SVG 1.1//EN"
 "http://www.w3.org/Graphics/SVG/1.1/DTD/svg11.dtd">
<!-- Generated by graphviz version 2.36.0 (20140111.2315)
 -->
<!-- Title: %3 Pages: 1 -->
<svg width="602pt" height="404pt"
 viewBox="0.00 0.00 601.62 404.00" xmlns="http://www.w3.org/2000/svg" xmlns:xlink="http://www.w3.org/1999/xlink">
<g id="graph0" class="graph" transform="scale(1 1) rotate(0) translate(4 400)">
<title>%3</title>
<!-- DEFINITION_OF_DERIVATIVE -->
<g id="node1" class="node"><title>DEFINITION_OF_DERIVATIVE</title>
<g id="a_node1"><a xlink:href="DEFINITION_OF_DERIVATIVE.html" xlink:title=" Differentiation " target="_top">
<path fill="none" stroke="blue" stroke-width="2" d="M497,-324C497,-324 417,-324 417,-324 411,-324 405,-318 405,-312 405,-312 405,-300 405,-300 405,-294 411,-288 417,-288 417,-288 497,-288 497,-288 503,-288 509,-294 509,-300 509,-300 509,-312 509,-312 509,-318 503,-324 497,-324"/>
<text text-anchor="start" x="413" y="-302.3" font-family="Times,serif" font-size="14.00"> Differentiation </text>
</a>
</g>
</g>
<!-- EXACT_DIFFERENTIALS -->
<g id="node2" class="node"><title>EXACT_DIFFERENTIALS</title>
<g id="a_node2"><a xlink:href="EXACT_DIFFERENTIALS.html" xlink:title=" Theory of exact differentials " target="_top">
<path fill="none" stroke="black" d="M166.25,-252C166.25,-252 11.75,-252 11.75,-252 5.75,-252 -0.25,-246 -0.25,-240 -0.25,-240 -0.25,-228 -0.25,-228 -0.25,-222 5.75,-216 11.75,-216 11.75,-216 166.25,-216 166.25,-216 172.25,-216 178.25,-222 178.25,-228 178.25,-228 178.25,-240 178.25,-240 178.25,-246 172.25,-252 166.25,-252"/>
<text text-anchor="start" x="7.5" y="-230.3" font-family="Times,serif" font-size="14.00"> Theory of exact differentials </text>
</a>
</g>
</g>
<!-- DEFINITION_OF_DERIVATIVE&#45;&gt;EXACT_DIFFERENTIALS -->
<g id="edge1" class="edge"><title>DEFINITION_OF_DERIVATIVE&#45;&gt;EXACT_DIFFERENTIALS</title>
<path fill="none" stroke="black" d="M404.665,-295.045C348.588,-284.378 258.246,-267.193 188.548,-253.936"/>
<polygon fill="black" stroke="black" points="188.899,-250.44 178.422,-252.01 187.591,-257.317 188.899,-250.44"/>
</g>
<!-- TAYLOR_SERIES -->
<g id="node3" class="node"><title>TAYLOR_SERIES</title>
<g id="a_node3"><a xlink:href="TAYLOR_SERIES.html" xlink:title=" One dimensional Taylor Series " target="_top">
<path fill="none" stroke="black" d="M378.5,-252C378.5,-252 209.5,-252 209.5,-252 203.5,-252 197.5,-246 197.5,-240 197.5,-240 197.5,-228 197.5,-228 197.5,-222 203.5,-216 209.5,-216 209.5,-216 378.5,-216 378.5,-216 384.5,-216 390.5,-222 390.5,-228 390.5,-228 390.5,-240 390.5,-240 390.5,-246 384.5,-252 378.5,-252"/>
<text text-anchor="start" x="205" y="-230.3" font-family="Times,serif" font-size="14.00"> One dimensional Taylor Series </text>
</a>
</g>
</g>
<!-- DEFINITION_OF_DERIVATIVE&#45;&gt;TAYLOR_SERIES -->
<g id="edge2" class="edge"><title>DEFINITION_OF_DERIVATIVE&#45;&gt;TAYLOR_SERIES</title>
<path fill="none" stroke="black" d="M417.126,-287.876C394.843,-278.307 366.885,-266.3 343.244,-256.148"/>
<polygon fill="black" stroke="black" points="344.314,-252.798 333.745,-252.068 341.552,-259.23 344.314,-252.798"/>
</g>
<!-- LAGRANGE_MULTIPLIERS -->
<g id="node4" class="node"><title>LAGRANGE_MULTIPLIERS</title>
<g id="a_node4"><a xlink:href="LAGRANGE_MULTIPLIERS.html" xlink:title=" Lagrange multipliers " target="_top">
<path fill="none" stroke="black" d="M273,-180C273,-180 159,-180 159,-180 153,-180 147,-174 147,-168 147,-168 147,-156 147,-156 147,-150 153,-144 159,-144 159,-144 273,-144 273,-144 279,-144 285,-150 285,-156 285,-156 285,-168 285,-168 285,-174 279,-180 273,-180"/>
<text text-anchor="start" x="155" y="-158.3" font-family="Times,serif" font-size="14.00"> Lagrange multipliers </text>
</a>
</g>
</g>
<!-- DEFINITION_OF_DERIVATIVE&#45;&gt;LAGRANGE_MULTIPLIERS -->
<g id="edge3" class="edge"><title>DEFINITION_OF_DERIVATIVE&#45;&gt;LAGRANGE_MULTIPLIERS</title>
<path fill="none" stroke="black" d="M450.291,-287.935C441.504,-267.786 424.193,-234.663 399,-216 389.974,-209.314 339.002,-194.801 293.14,-182.65"/>
<polygon fill="black" stroke="black" points="294.01,-179.26 283.448,-180.096 292.227,-186.029 294.01,-179.26"/>
</g>
<!-- NEWTONS_LAWS -->
<g id="node5" class="node"><title>NEWTONS_LAWS</title>
<g id="a_node5"><a xlink:href="NEWTONS_LAWS.html" xlink:title=" Newtons Laws of Motion " target="_top">
<path fill="none" stroke="black" d="M455,-180C455,-180 315,-180 315,-180 309,-180 303,-174 303,-168 303,-168 303,-156 303,-156 303,-150 309,-144 315,-144 315,-144 455,-144 455,-144 461,-144 467,-150 467,-156 467,-156 467,-168 467,-168 467,-174 461,-180 455,-180"/>
<text text-anchor="start" x="311" y="-158.3" font-family="Times,serif" font-size="14.00"> Newtons Laws of Motion </text>
</a>
</g>
</g>
<!-- DEFINITION_OF_DERIVATIVE&#45;&gt;NEWTONS_LAWS -->
<g id="edge5" class="edge"><title>DEFINITION_OF_DERIVATIVE&#45;&gt;NEWTONS_LAWS</title>
<path fill="none" stroke="black" d="M454.801,-287.704C451.888,-269.083 445.575,-239.037 433,-216 427.444,-205.822 419.552,-196.016 411.769,-187.664"/>
<polygon fill="black" stroke="black" points="414.208,-185.152 404.722,-180.435 409.196,-190.039 414.208,-185.152"/>
</g>
<!-- CONTINUOUS_TIME_MARKOV_CHAIN -->
<g id="node7" class="node"><title>CONTINUOUS_TIME_MARKOV_CHAIN</title>
<g id="a_node7"><a xlink:href="CONTINUOUS_TIME_MARKOV_CHAIN.html" xlink:title=" Markov chains in continuous time " target="_top">
<path fill="none" stroke="black" d="M454.5,-108C454.5,-108 267.5,-108 267.5,-108 261.5,-108 255.5,-102 255.5,-96 255.5,-96 255.5,-84 255.5,-84 255.5,-78 261.5,-72 267.5,-72 267.5,-72 454.5,-72 454.5,-72 460.5,-72 466.5,-78 466.5,-84 466.5,-84 466.5,-96 466.5,-96 466.5,-102 460.5,-108 454.5,-108"/>
<text text-anchor="start" x="263" y="-86.3" font-family="Times,serif" font-size="14.00"> Markov chains in continuous time </text>
</a>
</g>
</g>
<!-- DEFINITION_OF_DERIVATIVE&#45;&gt;CONTINUOUS_TIME_MARKOV_CHAIN -->
<g id="edge7" class="edge"><title>DEFINITION_OF_DERIVATIVE&#45;&gt;CONTINUOUS_TIME_MARKOV_CHAIN</title>
<path fill="none" stroke="black" d="M465.659,-287.889C480.143,-256.612 504.985,-189.274 476,-144 467.215,-130.278 453.877,-120.059 439.359,-112.464"/>
<polygon fill="black" stroke="black" points="440.727,-109.239 430.197,-108.067 437.698,-115.55 440.727,-109.239"/>
</g>
<!-- PRODUCT_RULE -->
<g id="node8" class="node"><title>PRODUCT_RULE</title>
<g id="a_node8"><a xlink:href="PRODUCT_RULE.html" xlink:title=" Product Rule " target="_top">
<path fill="none" stroke="black" d="M568.25,-108C568.25,-108 497.75,-108 497.75,-108 491.75,-108 485.75,-102 485.75,-96 485.75,-96 485.75,-84 485.75,-84 485.75,-78 491.75,-72 497.75,-72 497.75,-72 568.25,-72 568.25,-72 574.25,-72 580.25,-78 580.25,-84 580.25,-84 580.25,-96 580.25,-96 580.25,-102 574.25,-108 568.25,-108"/>
<text text-anchor="start" x="493.5" y="-86.3" font-family="Times,serif" font-size="14.00"> Product Rule </text>
</a>
</g>
</g>
<!-- DEFINITION_OF_DERIVATIVE&#45;&gt;PRODUCT_RULE -->
<g id="edge9" class="edge"><title>DEFINITION_OF_DERIVATIVE&#45;&gt;PRODUCT_RULE</title>
<path fill="none" stroke="black" d="M479.331,-287.977C490.051,-278.567 502.049,-265.963 509,-252 530.5,-208.815 533.998,-151.636 533.943,-118.327"/>
<polygon fill="black" stroke="black" points="537.438,-117.955 533.809,-108.001 530.439,-118.046 537.438,-117.955"/>
</g>
<!-- CHAIN_RULE -->
<g id="node9" class="node"><title>CHAIN_RULE</title>
<g id="a_node9"><a xlink:href="CHAIN_RULE.html" xlink:title=" Chain Rule " target="_top">
<path fill="none" stroke="black" d="M516,-36C516,-36 454,-36 454,-36 448,-36 442,-30 442,-24 442,-24 442,-12 442,-12 442,-6 448,-0 454,-0 454,-0 516,-0 516,-0 522,-0 528,-6 528,-12 528,-12 528,-24 528,-24 528,-30 522,-36 516,-36"/>
<text text-anchor="start" x="450" y="-14.3" font-family="Times,serif" font-size="14.00"> Chain Rule </text>
</a>
</g>
</g>
<!-- DEFINITION_OF_DERIVATIVE&#45;&gt;CHAIN_RULE -->
<g id="edge10" class="edge"><title>DEFINITION_OF_DERIVATIVE&#45;&gt;CHAIN_RULE</title>
<path fill="none" stroke="black" d="M488.182,-287.837C502.46,-278.719 518.681,-266.41 530,-252 572.724,-197.61 575.637,-175.86 589,-108 592.091,-92.3015 597.359,-85.6425 589,-72 577.581,-53.3642 557.324,-41.0238 537.704,-32.982"/>
<polygon fill="black" stroke="black" points="538.756,-29.638 528.164,-29.3708 536.278,-36.1846 538.756,-29.638"/>
</g>
<!-- EXACT_DIFFERENTIALS&#45;&gt;LAGRANGE_MULTIPLIERS -->
<!-- LAGRANGE_MULTIPLIERS&#45;&gt;CONTINUOUS_TIME_MARKOV_CHAIN -->
<!-- LIMITS -->
<g id="node6" class="node"><title>LIMITS</title>
<g id="a_node6"><a xlink:href="LIMITS.html" xlink:title=" Limit of a function " target="_top">
<path fill="none" stroke="black" d="M509,-396C509,-396 405,-396 405,-396 399,-396 393,-390 393,-384 393,-384 393,-372 393,-372 393,-366 399,-360 405,-360 405,-360 509,-360 509,-360 515,-360 521,-366 521,-372 521,-372 521,-384 521,-384 521,-390 515,-396 509,-396"/>
<text text-anchor="start" x="401" y="-374.3" font-family="Times,serif" font-size="14.00"> Limit of a function </text>
</a>
</g>
</g>
<!-- LIMITS&#45;&gt;DEFINITION_OF_DERIVATIVE -->
<g id="edge6" class="edge"><title>LIMITS&#45;&gt;DEFINITION_OF_DERIVATIVE</title>
<path fill="none" stroke="black" d="M457,-359.697C457,-351.983 457,-342.712 457,-334.112"/>
<polygon fill="black" stroke="black" points="460.5,-334.104 457,-324.104 453.5,-334.104 460.5,-334.104"/>
</g>
<!-- CONTINUOUS_TIME_MARKOV_CHAIN&#45;&gt;CHAIN_RULE -->
</g>
</svg>
