<?xml version="1.0" encoding="UTF-8" standalone="no"?>
<!DOCTYPE svg PUBLIC "-//W3C//DTD SVG 1.1//EN"
 "http://www.w3.org/Graphics/SVG/1.1/DTD/svg11.dtd">
<!-- Generated by graphviz version 2.36.0 (20140111.2315)
 -->
<!-- Title: %3 Pages: 1 -->
<svg width="594pt" height="404pt"
 viewBox="0.00 0.00 593.67 404.00" xmlns="http://www.w3.org/2000/svg" xmlns:xlink="http://www.w3.org/1999/xlink">
<g id="graph0" class="graph" transform="scale(1 1) rotate(0) translate(4 400)">
<title>%3</title>
<!-- DEFINITION_OF_DERIVATIVE -->
<g id="node1" class="node"><title>DEFINITION_OF_DERIVATIVE</title>
<g id="a_node1"><a xlink:href="DEFINITION_OF_DERIVATIVE.html" xlink:title=" Differentiation " target="_top">
<path fill="none" stroke="blue" stroke-width="2" d="M391,-324C391,-324 311,-324 311,-324 305,-324 299,-318 299,-312 299,-312 299,-300 299,-300 299,-294 305,-288 311,-288 311,-288 391,-288 391,-288 397,-288 403,-294 403,-300 403,-300 403,-312 403,-312 403,-318 397,-324 391,-324"/>
<text text-anchor="start" x="307" y="-302.3" font-family="Times,serif" font-size="14.00"> Differentiation </text>
</a>
</g>
</g>
<!-- NEWTONS_LAWS -->
<g id="node2" class="node"><title>NEWTONS_LAWS</title>
<g id="a_node2"><a xlink:href="NEWTONS_LAWS.html" xlink:title=" Newtons Laws of Motion " target="_top">
<path fill="none" stroke="black" d="M159,-252C159,-252 19,-252 19,-252 13,-252 7,-246 7,-240 7,-240 7,-228 7,-228 7,-222 13,-216 19,-216 19,-216 159,-216 159,-216 165,-216 171,-222 171,-228 171,-228 171,-240 171,-240 171,-246 165,-252 159,-252"/>
<text text-anchor="start" x="15" y="-230.3" font-family="Times,serif" font-size="14.00"> Newtons Laws of Motion </text>
</a>
</g>
</g>
<!-- DEFINITION_OF_DERIVATIVE&#45;&gt;NEWTONS_LAWS -->
<g id="edge1" class="edge"><title>DEFINITION_OF_DERIVATIVE&#45;&gt;NEWTONS_LAWS</title>
<path fill="none" stroke="black" d="M298.924,-291.087C260.02,-280.692 206.31,-266.342 162.958,-254.76"/>
<polygon fill="black" stroke="black" points="163.592,-251.307 153.028,-252.107 161.785,-258.069 163.592,-251.307"/>
</g>
<!-- PRODUCT_RULE -->
<g id="node3" class="node"><title>PRODUCT_RULE</title>
<g id="a_node3"><a xlink:href="PRODUCT_RULE.html" xlink:title=" Product Rule " target="_top">
<path fill="none" stroke="black" d="M272.25,-252C272.25,-252 201.75,-252 201.75,-252 195.75,-252 189.75,-246 189.75,-240 189.75,-240 189.75,-228 189.75,-228 189.75,-222 195.75,-216 201.75,-216 201.75,-216 272.25,-216 272.25,-216 278.25,-216 284.25,-222 284.25,-228 284.25,-228 284.25,-240 284.25,-240 284.25,-246 278.25,-252 272.25,-252"/>
<text text-anchor="start" x="197.5" y="-230.3" font-family="Times,serif" font-size="14.00"> Product Rule </text>
</a>
</g>
</g>
<!-- DEFINITION_OF_DERIVATIVE&#45;&gt;PRODUCT_RULE -->
<g id="edge2" class="edge"><title>DEFINITION_OF_DERIVATIVE&#45;&gt;PRODUCT_RULE</title>
<path fill="none" stroke="black" d="M323.112,-287.876C308.207,-278.724 289.671,-267.342 273.618,-257.485"/>
<polygon fill="black" stroke="black" points="275.348,-254.44 264.995,-252.19 271.685,-260.405 275.348,-254.44"/>
</g>
<!-- EXACT_DIFFERENTIALS -->
<g id="node4" class="node"><title>EXACT_DIFFERENTIALS</title>
<g id="a_node4"><a xlink:href="EXACT_DIFFERENTIALS.html" xlink:title=" Theory of exact differentials " target="_top">
<path fill="none" stroke="black" d="M166.25,-180C166.25,-180 11.75,-180 11.75,-180 5.75,-180 -0.25,-174 -0.25,-168 -0.25,-168 -0.25,-156 -0.25,-156 -0.25,-150 5.75,-144 11.75,-144 11.75,-144 166.25,-144 166.25,-144 172.25,-144 178.25,-150 178.25,-156 178.25,-156 178.25,-168 178.25,-168 178.25,-174 172.25,-180 166.25,-180"/>
<text text-anchor="start" x="7.5" y="-158.3" font-family="Times,serif" font-size="14.00"> Theory of exact differentials </text>
</a>
</g>
</g>
<!-- DEFINITION_OF_DERIVATIVE&#45;&gt;EXACT_DIFFERENTIALS -->
<g id="edge3" class="edge"><title>DEFINITION_OF_DERIVATIVE&#45;&gt;EXACT_DIFFERENTIALS</title>
<path fill="none" stroke="black" d="M344.377,-287.816C335.676,-267.55 318.45,-234.312 293,-216 275.571,-203.459 231.249,-191.278 188.355,-181.763"/>
<polygon fill="black" stroke="black" points="188.886,-178.296 178.37,-179.589 187.397,-185.136 188.886,-178.296"/>
</g>
<!-- CONTINUOUS_TIME_MARKOV_CHAIN -->
<g id="node5" class="node"><title>CONTINUOUS_TIME_MARKOV_CHAIN</title>
<g id="a_node5"><a xlink:href="CONTINUOUS_TIME_MARKOV_CHAIN.html" xlink:title=" Markov chains in continuous time " target="_top">
<path fill="none" stroke="black" d="M396.5,-180C396.5,-180 209.5,-180 209.5,-180 203.5,-180 197.5,-174 197.5,-168 197.5,-168 197.5,-156 197.5,-156 197.5,-150 203.5,-144 209.5,-144 209.5,-144 396.5,-144 396.5,-144 402.5,-144 408.5,-150 408.5,-156 408.5,-156 408.5,-168 408.5,-168 408.5,-174 402.5,-180 396.5,-180"/>
<text text-anchor="start" x="205" y="-158.3" font-family="Times,serif" font-size="14.00"> Markov chains in continuous time </text>
</a>
</g>
</g>
<!-- DEFINITION_OF_DERIVATIVE&#45;&gt;CONTINUOUS_TIME_MARKOV_CHAIN -->
<g id="edge5" class="edge"><title>DEFINITION_OF_DERIVATIVE&#45;&gt;CONTINUOUS_TIME_MARKOV_CHAIN</title>
<path fill="none" stroke="black" d="M347.208,-287.684C343.037,-269.562 335.751,-240.404 327,-216 323.863,-207.253 319.882,-197.947 316.067,-189.615"/>
<polygon fill="black" stroke="black" points="319.146,-187.936 311.727,-180.372 312.809,-190.912 319.146,-187.936"/>
</g>
<!-- CHAIN_RULE -->
<g id="node6" class="node"><title>CHAIN_RULE</title>
<g id="a_node6"><a xlink:href="CHAIN_RULE.html" xlink:title=" Chain Rule " target="_top">
<path fill="none" stroke="black" d="M348,-108C348,-108 286,-108 286,-108 280,-108 274,-102 274,-96 274,-96 274,-84 274,-84 274,-78 280,-72 286,-72 286,-72 348,-72 348,-72 354,-72 360,-78 360,-84 360,-84 360,-96 360,-96 360,-102 354,-108 348,-108"/>
<text text-anchor="start" x="282" y="-86.3" font-family="Times,serif" font-size="14.00"> Chain Rule </text>
</a>
</g>
</g>
<!-- DEFINITION_OF_DERIVATIVE&#45;&gt;CHAIN_RULE -->
<g id="edge6" class="edge"><title>DEFINITION_OF_DERIVATIVE&#45;&gt;CHAIN_RULE</title>
<path fill="none" stroke="black" d="M368.245,-287.741C396.435,-257.361 446.439,-192.92 417,-144 411.083,-134.167 389.745,-122.273 368.291,-112.245"/>
<polygon fill="black" stroke="black" points="369.685,-109.034 359.134,-108.074 366.783,-115.404 369.685,-109.034"/>
</g>
<!-- TAYLOR_SERIES -->
<g id="node7" class="node"><title>TAYLOR_SERIES</title>
<g id="a_node7"><a xlink:href="TAYLOR_SERIES.html" xlink:title=" One dimensional Taylor Series " target="_top">
<path fill="none" stroke="black" d="M559.5,-108C559.5,-108 390.5,-108 390.5,-108 384.5,-108 378.5,-102 378.5,-96 378.5,-96 378.5,-84 378.5,-84 378.5,-78 384.5,-72 390.5,-72 390.5,-72 559.5,-72 559.5,-72 565.5,-72 571.5,-78 571.5,-84 571.5,-84 571.5,-96 571.5,-96 571.5,-102 565.5,-108 559.5,-108"/>
<text text-anchor="start" x="386" y="-86.3" font-family="Times,serif" font-size="14.00"> One dimensional Taylor Series </text>
</a>
</g>
</g>
<!-- DEFINITION_OF_DERIVATIVE&#45;&gt;TAYLOR_SERIES -->
<g id="edge8" class="edge"><title>DEFINITION_OF_DERIVATIVE&#45;&gt;TAYLOR_SERIES</title>
<path fill="none" stroke="black" d="M382.126,-287.779C396.023,-278.723 411.578,-266.483 422,-252 451.624,-210.835 465.382,-152.125 471.21,-118.152"/>
<polygon fill="black" stroke="black" points="474.704,-118.473 472.834,-108.044 467.792,-117.362 474.704,-118.473"/>
</g>
<!-- LAGRANGE_MULTIPLIERS -->
<g id="node9" class="node"><title>LAGRANGE_MULTIPLIERS</title>
<g id="a_node9"><a xlink:href="LAGRANGE_MULTIPLIERS.html" xlink:title=" Lagrange multipliers " target="_top">
<path fill="none" stroke="black" d="M515,-36C515,-36 401,-36 401,-36 395,-36 389,-30 389,-24 389,-24 389,-12 389,-12 389,-6 395,-0 401,-0 401,-0 515,-0 515,-0 521,-0 527,-6 527,-12 527,-12 527,-24 527,-24 527,-30 521,-36 515,-36"/>
<text text-anchor="start" x="397" y="-14.3" font-family="Times,serif" font-size="14.00"> Lagrange multipliers </text>
</a>
</g>
</g>
<!-- DEFINITION_OF_DERIVATIVE&#45;&gt;LAGRANGE_MULTIPLIERS -->
<g id="edge10" class="edge"><title>DEFINITION_OF_DERIVATIVE&#45;&gt;LAGRANGE_MULTIPLIERS</title>
<path fill="none" stroke="black" d="M387.674,-287.866C442.947,-259.603 544.873,-197.313 580,-108 585.856,-93.1102 588.775,-85.3792 580,-72 569.742,-56.3587 553.761,-45.3095 536.706,-37.5122"/>
<polygon fill="black" stroke="black" points="537.726,-34.1447 527.151,-33.5065 535.02,-40.6004 537.726,-34.1447"/>
</g>
<!-- NEWTONS_LAWS&#45;&gt;EXACT_DIFFERENTIALS -->
<!-- EXACT_DIFFERENTIALS&#45;&gt;CHAIN_RULE -->
<!-- CHAIN_RULE&#45;&gt;LAGRANGE_MULTIPLIERS -->
<!-- LIMITS -->
<g id="node8" class="node"><title>LIMITS</title>
<g id="a_node8"><a xlink:href="LIMITS.html" xlink:title=" Limit of a function " target="_top">
<path fill="none" stroke="black" d="M403,-396C403,-396 299,-396 299,-396 293,-396 287,-390 287,-384 287,-384 287,-372 287,-372 287,-366 293,-360 299,-360 299,-360 403,-360 403,-360 409,-360 415,-366 415,-372 415,-372 415,-384 415,-384 415,-390 409,-396 403,-396"/>
<text text-anchor="start" x="295" y="-374.3" font-family="Times,serif" font-size="14.00"> Limit of a function </text>
</a>
</g>
</g>
<!-- LIMITS&#45;&gt;DEFINITION_OF_DERIVATIVE -->
<g id="edge9" class="edge"><title>LIMITS&#45;&gt;DEFINITION_OF_DERIVATIVE</title>
<path fill="none" stroke="black" d="M351,-359.697C351,-351.983 351,-342.712 351,-334.112"/>
<polygon fill="black" stroke="black" points="354.5,-334.104 351,-324.104 347.5,-334.104 354.5,-334.104"/>
</g>
</g>
</svg>
