<?xml version="1.0" encoding="UTF-8" standalone="no"?>
<!DOCTYPE svg PUBLIC "-//W3C//DTD SVG 1.1//EN"
 "http://www.w3.org/Graphics/SVG/1.1/DTD/svg11.dtd">
<!-- Generated by graphviz version 2.28.0 (20110509.1545)
 -->
<!-- Title: _anonymous_0 Pages: 1 -->
<svg width="411pt" height="260pt"
 viewBox="0.00 0.00 411.00 260.00" xmlns="http://www.w3.org/2000/svg" xmlns:xlink="http://www.w3.org/1999/xlink">
<g id="graph1" class="graph" transform="scale(1 1) rotate(0) translate(4 256)">
<title>_anonymous_0</title>
<!-- DEFINITION_OF_DERIVATIVE -->
<g id="node1" class="node"><title>DEFINITION_OF_DERIVATIVE</title>
<a xlink:href="DEFINITION_OF_DERIVATIVE.html" xlink:title="Differentiation" target="_top">
<polyline fill="none" stroke="blue" stroke-width="2" points="194.25,-180 119.75,-180 "/>
<path fill="none" stroke="blue" stroke-width="2" d="M119.75,-180C113.75,-180 107.75,-174 107.75,-168"/>
<polyline fill="none" stroke="blue" stroke-width="2" points="107.75,-168 107.75,-156 "/>
<path fill="none" stroke="blue" stroke-width="2" d="M107.75,-156C107.75,-150 113.75,-144 119.75,-144"/>
<polyline fill="none" stroke="blue" stroke-width="2" points="119.75,-144 194.25,-144 "/>
<path fill="none" stroke="blue" stroke-width="2" d="M194.25,-144C200.25,-144 206.25,-150 206.25,-156"/>
<polyline fill="none" stroke="blue" stroke-width="2" points="206.25,-156 206.25,-168 "/>
<path fill="none" stroke="blue" stroke-width="2" d="M206.25,-168C206.25,-174 200.25,-180 194.25,-180"/>
<text text-anchor="start" x="116" y="-156.5" font-family="Times,serif" font-size="14.00">Differentiation</text>
</a>
</g>
<!-- CHAIN_RULE -->
<g id="node2" class="node"><title>CHAIN_RULE</title>
<a xlink:href="CHAIN_RULE.html" xlink:title="Chain Rule" target="_top">
<polyline fill="none" stroke="black" points="68,-108 12,-108 "/>
<path fill="none" stroke="black" d="M12,-108C6,-108 0,-102 0,-96"/>
<polyline fill="none" stroke="black" points="0,-96 0,-84 "/>
<path fill="none" stroke="black" d="M0,-84C0,-78 6,-72 12,-72"/>
<polyline fill="none" stroke="black" points="12,-72 68,-72 "/>
<path fill="none" stroke="black" d="M68,-72C74,-72 80,-78 80,-84"/>
<polyline fill="none" stroke="black" points="80,-84 80,-96 "/>
<path fill="none" stroke="black" d="M80,-96C80,-102 74,-108 68,-108"/>
<text text-anchor="start" x="8.5" y="-84.5" font-family="Times,serif" font-size="14.00">Chain Rule</text>
</a>
</g>
<!-- DEFINITION_OF_DERIVATIVE&#45;&gt;CHAIN_RULE -->
<g id="edge2" class="edge"><title>DEFINITION_OF_DERIVATIVE&#45;&gt;CHAIN_RULE</title>
<path fill="none" stroke="black" d="M128.379,-143.876C113.081,-134.724 94.0569,-123.342 77.582,-113.485"/>
<polygon fill="black" stroke="black" points="79.1098,-110.32 68.7314,-108.19 75.5159,-116.327 79.1098,-110.32"/>
</g>
<!-- CONTINUOUS_TIME_MARKOV_CHAIN -->
<g id="node4" class="node"><title>CONTINUOUS_TIME_MARKOV_CHAIN</title>
<a xlink:href="CONTINUOUS_TIME_MARKOV_CHAIN.html" xlink:title="TITLE:" target="_top">
<polyline fill="none" stroke="black" points="145.25,-108 110.75,-108 "/>
<path fill="none" stroke="black" d="M110.75,-108C104.75,-108 98.75,-102 98.75,-96"/>
<polyline fill="none" stroke="black" points="98.75,-96 98.75,-84 "/>
<path fill="none" stroke="black" d="M98.75,-84C98.75,-78 104.75,-72 110.75,-72"/>
<polyline fill="none" stroke="black" points="110.75,-72 145.25,-72 "/>
<path fill="none" stroke="black" d="M145.25,-72C151.25,-72 157.25,-78 157.25,-84"/>
<polyline fill="none" stroke="black" points="157.25,-84 157.25,-96 "/>
<path fill="none" stroke="black" d="M157.25,-96C157.25,-102 151.25,-108 145.25,-108"/>
<text text-anchor="start" x="107" y="-84.5" font-family="Times,serif" font-size="14.00">TITLE:</text>
</a>
</g>
<!-- DEFINITION_OF_DERIVATIVE&#45;&gt;CONTINUOUS_TIME_MARKOV_CHAIN -->
<g id="edge4" class="edge"><title>DEFINITION_OF_DERIVATIVE&#45;&gt;CONTINUOUS_TIME_MARKOV_CHAIN</title>
<path fill="none" stroke="black" d="M149.831,-143.697C146.565,-135.813 142.626,-126.304 138.998,-117.546"/>
<polygon fill="black" stroke="black" points="142.147,-116.003 135.086,-108.104 135.68,-118.683 142.147,-116.003"/>
</g>
<!-- PRODUCT_RULE -->
<g id="node8" class="node"><title>PRODUCT_RULE</title>
<a xlink:href="PRODUCT_RULE.html" xlink:title="Product Rule" target="_top">
<polyline fill="none" stroke="black" points="146,-36 80,-36 "/>
<path fill="none" stroke="black" d="M80,-36C74,-36 68,-30 68,-24"/>
<polyline fill="none" stroke="black" points="68,-24 68,-12 "/>
<path fill="none" stroke="black" d="M68,-12C68,-6 74,-0 80,-0"/>
<polyline fill="none" stroke="black" points="80,-0 146,-0 "/>
<path fill="none" stroke="black" d="M146,-0C152,-0 158,-6 158,-12"/>
<polyline fill="none" stroke="black" points="158,-12 158,-24 "/>
<path fill="none" stroke="black" d="M158,-24C158,-30 152,-36 146,-36"/>
<text text-anchor="start" x="76.5" y="-12.5" font-family="Times,serif" font-size="14.00">Product Rule</text>
</a>
</g>
<!-- DEFINITION_OF_DERIVATIVE&#45;&gt;PRODUCT_RULE -->
<g id="edge8" class="edge"><title>DEFINITION_OF_DERIVATIVE&#45;&gt;PRODUCT_RULE</title>
<path fill="none" stroke="black" d="M163.428,-143.895C169.312,-125.438 175.747,-95.5308 166,-72 161.455,-61.0279 153.415,-51.1429 144.949,-42.9644"/>
<polygon fill="black" stroke="black" points="147.249,-40.3255 137.477,-36.2321 142.563,-45.5261 147.249,-40.3255"/>
</g>
<!-- TAYLOR_SERIES -->
<g id="node11" class="node"><title>TAYLOR_SERIES</title>
<a xlink:href="TAYLOR_SERIES.html" xlink:title="One dimensional Taylor Series" target="_top">
<polyline fill="none" stroke="black" points="391.25,-108 226.75,-108 "/>
<path fill="none" stroke="black" d="M226.75,-108C220.75,-108 214.75,-102 214.75,-96"/>
<polyline fill="none" stroke="black" points="214.75,-96 214.75,-84 "/>
<path fill="none" stroke="black" d="M214.75,-84C214.75,-78 220.75,-72 226.75,-72"/>
<polyline fill="none" stroke="black" points="226.75,-72 391.25,-72 "/>
<path fill="none" stroke="black" d="M391.25,-72C397.25,-72 403.25,-78 403.25,-84"/>
<polyline fill="none" stroke="black" points="403.25,-84 403.25,-96 "/>
<path fill="none" stroke="black" d="M403.25,-96C403.25,-102 397.25,-108 391.25,-108"/>
<text text-anchor="start" x="223" y="-84.5" font-family="Times,serif" font-size="14.00">One dimensional Taylor Series</text>
</a>
</g>
<!-- DEFINITION_OF_DERIVATIVE&#45;&gt;TAYLOR_SERIES -->
<g id="edge12" class="edge"><title>DEFINITION_OF_DERIVATIVE&#45;&gt;TAYLOR_SERIES</title>
<path fill="none" stroke="black" d="M194.183,-143.876C214.87,-134.349 240.802,-122.407 262.785,-112.283"/>
<polygon fill="black" stroke="black" points="264.318,-115.43 271.937,-108.068 261.39,-109.072 264.318,-115.43"/>
</g>
<!-- CHAIN_RULE&#45;&gt;PRODUCT_RULE -->
<!-- LIMITS -->
<g id="node6" class="node"><title>LIMITS</title>
<a xlink:href="LIMITS.html" xlink:title="Limit of a function" target="_top">
<polyline fill="none" stroke="black" points="206.25,-252 107.75,-252 "/>
<path fill="none" stroke="black" d="M107.75,-252C101.75,-252 95.75,-246 95.75,-240"/>
<polyline fill="none" stroke="black" points="95.75,-240 95.75,-228 "/>
<path fill="none" stroke="black" d="M95.75,-228C95.75,-222 101.75,-216 107.75,-216"/>
<polyline fill="none" stroke="black" points="107.75,-216 206.25,-216 "/>
<path fill="none" stroke="black" d="M206.25,-216C212.25,-216 218.25,-222 218.25,-228"/>
<polyline fill="none" stroke="black" points="218.25,-228 218.25,-240 "/>
<path fill="none" stroke="black" d="M218.25,-240C218.25,-246 212.25,-252 206.25,-252"/>
<text text-anchor="start" x="104" y="-228.5" font-family="Times,serif" font-size="14.00">Limit of a function</text>
</a>
</g>
<!-- LIMITS&#45;&gt;DEFINITION_OF_DERIVATIVE -->
<g id="edge6" class="edge"><title>LIMITS&#45;&gt;DEFINITION_OF_DERIVATIVE</title>
<path fill="none" stroke="black" d="M157,-215.697C157,-207.983 157,-198.712 157,-190.112"/>
<polygon fill="black" stroke="black" points="160.5,-190.104 157,-180.104 153.5,-190.104 160.5,-190.104"/>
</g>
</g>
</svg>
