<?xml version="1.0" encoding="UTF-8" standalone="no"?>
<!DOCTYPE svg PUBLIC "-//W3C//DTD SVG 1.1//EN"
 "http://www.w3.org/Graphics/SVG/1.1/DTD/svg11.dtd">
<!-- Generated by graphviz version 2.26.3 (20100126.1600)
 -->
<!-- Title: _anonymous_0 Pages: 1 -->
<svg width="695pt" height="404pt"
 viewBox="0.00 0.00 694.60 404.00" xmlns="http://www.w3.org/2000/svg" xmlns:xlink="http://www.w3.org/1999/xlink">
<g id="graph1" class="graph" transform="scale(1 1) rotate(0) translate(4 400)">
<title>_anonymous_0</title>
<!-- DEFINITION_OF_DERIVATIVE -->
<g id="node1" class="node"><title>DEFINITION_OF_DERIVATIVE</title>
<a xlink:href="DEFINITION_OF_DERIVATIVE.html" xlink:title="Differentiation" target="_top">
<polyline fill="none" stroke="blue" stroke-width="2" points="537,-324 443,-324 "/>
<path fill="none" stroke="blue" stroke-width="2" d="M443,-324C437,-324 431,-318 431,-312"/>
<polyline fill="none" stroke="blue" stroke-width="2" points="431,-312 431,-300 "/>
<path fill="none" stroke="blue" stroke-width="2" d="M431,-300C431,-294 437,-288 443,-288"/>
<polyline fill="none" stroke="blue" stroke-width="2" points="443,-288 537,-288 "/>
<path fill="none" stroke="blue" stroke-width="2" d="M537,-288C543,-288 549,-294 549,-300"/>
<polyline fill="none" stroke="blue" stroke-width="2" points="549,-300 549,-312 "/>
<path fill="none" stroke="blue" stroke-width="2" d="M549,-312C549,-318 543,-324 537,-324"/>
<text text-anchor="start" x="439" y="-303.233" font-family="Times Roman,serif" font-size="14.00">Differentiation</text>
</a>
</g>
<!-- CONTINUOUS_TIME_MARKOV_CHAIN -->
<g id="node2" class="node"><title>CONTINUOUS_TIME_MARKOV_CHAIN</title>
<a xlink:href="CONTINUOUS_TIME_MARKOV_CHAIN.html" xlink:title="Markov chains in continuous time" target="_top">
<polyline fill="none" stroke="black" points="236,-252 12,-252 "/>
<path fill="none" stroke="black" d="M12,-252C6,-252 6.86858e-14,-246 5.21065e-14,-240"/>
<polyline fill="none" stroke="black" points="5.21065e-14,-240 1.89478e-14,-228 "/>
<path fill="none" stroke="black" d="M1.89478e-14,-228C2.36848e-15,-222 6,-216 12,-216"/>
<polyline fill="none" stroke="black" points="12,-216 236,-216 "/>
<path fill="none" stroke="black" d="M236,-216C242,-216 248,-222 248,-228"/>
<polyline fill="none" stroke="black" points="248,-228 248,-240 "/>
<path fill="none" stroke="black" d="M248,-240C248,-246 242,-252 236,-252"/>
<text text-anchor="start" x="8" y="-231.233" font-family="Times Roman,serif" font-size="14.00">Markov chains in continuous time</text>
</a>
</g>
<!-- DEFINITION_OF_DERIVATIVE&#45;&gt;CONTINUOUS_TIME_MARKOV_CHAIN -->
<g id="edge2" class="edge"><title>DEFINITION_OF_DERIVATIVE&#45;&gt;CONTINUOUS_TIME_MARKOV_CHAIN</title>
<path fill="none" stroke="black" d="M430.789,-294.352C375.463,-283.468 291.72,-266.994 225.697,-254.006"/>
<polygon fill="black" stroke="black" points="226.164,-250.531 215.676,-252.035 224.812,-257.399 226.164,-250.531"/>
</g>
<!-- LAGRANGE_MULTIPLIERS -->
<g id="node4" class="node"><title>LAGRANGE_MULTIPLIERS</title>
<a xlink:href="LAGRANGE_MULTIPLIERS.html" xlink:title="Lagrange multipliers" target="_top">
<polyline fill="none" stroke="black" points="412,-252 278,-252 "/>
<path fill="none" stroke="black" d="M278,-252C272,-252 266,-246 266,-240"/>
<polyline fill="none" stroke="black" points="266,-240 266,-228 "/>
<path fill="none" stroke="black" d="M266,-228C266,-222 272,-216 278,-216"/>
<polyline fill="none" stroke="black" points="278,-216 412,-216 "/>
<path fill="none" stroke="black" d="M412,-216C418,-216 424,-222 424,-228"/>
<polyline fill="none" stroke="black" points="424,-228 424,-240 "/>
<path fill="none" stroke="black" d="M424,-240C424,-246 418,-252 412,-252"/>
<text text-anchor="start" x="274" y="-231.233" font-family="Times Roman,serif" font-size="14.00">Lagrange multipliers</text>
</a>
</g>
<!-- DEFINITION_OF_DERIVATIVE&#45;&gt;LAGRANGE_MULTIPLIERS -->
<g id="edge4" class="edge"><title>DEFINITION_OF_DERIVATIVE&#45;&gt;LAGRANGE_MULTIPLIERS</title>
<path fill="none" stroke="black" d="M453.41,-287.831C434.276,-278.33 410.677,-266.612 390.388,-256.537"/>
<polygon fill="black" stroke="black" points="391.84,-253.351 381.327,-252.038 388.726,-259.62 391.84,-253.351"/>
</g>
<!-- NEWTONS_LAWS -->
<g id="node6" class="node"><title>NEWTONS_LAWS</title>
<a xlink:href="NEWTONS_LAWS.html" xlink:title="Newtons Laws of Motion" target="_top">
<polyline fill="none" stroke="black" points="366,-180 202,-180 "/>
<path fill="none" stroke="black" d="M202,-180C196,-180 190,-174 190,-168"/>
<polyline fill="none" stroke="black" points="190,-168 190,-156 "/>
<path fill="none" stroke="black" d="M190,-156C190,-150 196,-144 202,-144"/>
<polyline fill="none" stroke="black" points="202,-144 366,-144 "/>
<path fill="none" stroke="black" d="M366,-144C372,-144 378,-150 378,-156"/>
<polyline fill="none" stroke="black" points="378,-156 378,-168 "/>
<path fill="none" stroke="black" d="M378,-168C378,-174 372,-180 366,-180"/>
<text text-anchor="start" x="198" y="-159.233" font-family="Times Roman,serif" font-size="14.00">Newtons Laws of Motion</text>
</a>
</g>
<!-- DEFINITION_OF_DERIVATIVE&#45;&gt;NEWTONS_LAWS -->
<g id="edge6" class="edge"><title>DEFINITION_OF_DERIVATIVE&#45;&gt;NEWTONS_LAWS</title>
<path fill="none" stroke="black" d="M482.852,-287.946C473.997,-267.753 457.076,-235.348 433,-216 415.517,-201.95 394.061,-191.373 372.934,-183.481"/>
<polygon fill="black" stroke="black" points="373.861,-180.095 363.266,-180.041 371.514,-186.69 373.861,-180.095"/>
</g>
<!-- PRODUCT_RULE -->
<g id="node11" class="node"><title>PRODUCT_RULE</title>
<a xlink:href="PRODUCT_RULE.html" xlink:title="Product Rule" target="_top">
<polyline fill="none" stroke="black" points="488,-180 408,-180 "/>
<path fill="none" stroke="black" d="M408,-180C402,-180 396,-174 396,-168"/>
<polyline fill="none" stroke="black" points="396,-168 396,-156 "/>
<path fill="none" stroke="black" d="M396,-156C396,-150 402,-144 408,-144"/>
<polyline fill="none" stroke="black" points="408,-144 488,-144 "/>
<path fill="none" stroke="black" d="M488,-144C494,-144 500,-150 500,-156"/>
<polyline fill="none" stroke="black" points="500,-156 500,-168 "/>
<path fill="none" stroke="black" d="M500,-168C500,-174 494,-180 488,-180"/>
<text text-anchor="start" x="404" y="-159.233" font-family="Times Roman,serif" font-size="14.00">Product Rule</text>
</a>
</g>
<!-- DEFINITION_OF_DERIVATIVE&#45;&gt;PRODUCT_RULE -->
<g id="edge12" class="edge"><title>DEFINITION_OF_DERIVATIVE&#45;&gt;PRODUCT_RULE</title>
<path fill="none" stroke="black" d="M485.54,-287.979C480.946,-269.745 473.428,-240.785 466,-216 463.459,-207.52 460.492,-198.363 457.709,-190.041"/>
<polygon fill="black" stroke="black" points="460.968,-188.754 454.446,-180.406 454.338,-191 460.968,-188.754"/>
</g>
<!-- CHAIN_RULE -->
<g id="node13" class="node"><title>CHAIN_RULE</title>
<a xlink:href="CHAIN_RULE.html" xlink:title="Chain Rule" target="_top">
<polyline fill="none" stroke="black" points="430,-108 362,-108 "/>
<path fill="none" stroke="black" d="M362,-108C356,-108 350,-102 350,-96"/>
<polyline fill="none" stroke="black" points="350,-96 350,-84 "/>
<path fill="none" stroke="black" d="M350,-84C350,-78 356,-72 362,-72"/>
<polyline fill="none" stroke="black" points="362,-72 430,-72 "/>
<path fill="none" stroke="black" d="M430,-72C436,-72 442,-78 442,-84"/>
<polyline fill="none" stroke="black" points="442,-84 442,-96 "/>
<path fill="none" stroke="black" d="M442,-96C442,-102 436,-108 430,-108"/>
<text text-anchor="start" x="358.5" y="-87.2333" font-family="Times Roman,serif" font-size="14.00">Chain Rule</text>
</a>
</g>
<!-- DEFINITION_OF_DERIVATIVE&#45;&gt;CHAIN_RULE -->
<g id="edge14" class="edge"><title>DEFINITION_OF_DERIVATIVE&#45;&gt;CHAIN_RULE</title>
<path fill="none" stroke="black" d="M499.088,-287.822C513.584,-255.998 537.543,-189.274 509,-144 502.008,-132.91 476.528,-120.285 451.53,-110.033"/>
<polygon fill="black" stroke="black" points="452.597,-106.69 442.012,-106.228 449.999,-113.19 452.597,-106.69"/>
</g>
<!-- EXACT_DIFFERENTIALS -->
<g id="node16" class="node"><title>EXACT_DIFFERENTIALS</title>
<a xlink:href="EXACT_DIFFERENTIALS.html" xlink:title="Theory of exact differentials" target="_top">
<polyline fill="none" stroke="black" points="660,-108 472,-108 "/>
<path fill="none" stroke="black" d="M472,-108C466,-108 460,-102 460,-96"/>
<polyline fill="none" stroke="black" points="460,-96 460,-84 "/>
<path fill="none" stroke="black" d="M460,-84C460,-78 466,-72 472,-72"/>
<polyline fill="none" stroke="black" points="472,-72 660,-72 "/>
<path fill="none" stroke="black" d="M660,-72C666,-72 672,-78 672,-84"/>
<polyline fill="none" stroke="black" points="672,-84 672,-96 "/>
<path fill="none" stroke="black" d="M672,-96C672,-102 666,-108 660,-108"/>
<text text-anchor="start" x="468.5" y="-87.2333" font-family="Times Roman,serif" font-size="14.00">Theory of exact differentials</text>
</a>
</g>
<!-- DEFINITION_OF_DERIVATIVE&#45;&gt;EXACT_DIFFERENTIALS -->
<g id="edge18" class="edge"><title>DEFINITION_OF_DERIVATIVE&#45;&gt;EXACT_DIFFERENTIALS</title>
<path fill="none" stroke="black" d="M513.135,-287.858C523.649,-278.333 535.226,-265.783 542,-252 563.274,-208.713 566.892,-151.658 566.912,-118.09"/>
<polygon fill="black" stroke="black" points="570.412,-118.028 566.81,-108.064 563.412,-118.099 570.412,-118.028"/>
</g>
<!-- TAYLOR_SERIES -->
<g id="node18" class="node"><title>TAYLOR_SERIES</title>
<a xlink:href="TAYLOR_SERIES.html" xlink:title="One dimensional Taylor Series" target="_top">
<polyline fill="none" stroke="black" points="648,-36 448,-36 "/>
<path fill="none" stroke="black" d="M448,-36C442,-36 436,-30 436,-24"/>
<polyline fill="none" stroke="black" points="436,-24 436,-12 "/>
<path fill="none" stroke="black" d="M436,-12C436,-6 442,-1.73829e-14 448,-1.70023e-14"/>
<polyline fill="none" stroke="black" points="448,-1.70023e-14 648,-4.31401e-15 "/>
<path fill="none" stroke="black" d="M648,-4.31401e-15C654,-3.93336e-15 660,-6 660,-12"/>
<polyline fill="none" stroke="black" points="660,-12 660,-24 "/>
<path fill="none" stroke="black" d="M660,-24C660,-30 654,-36 648,-36"/>
<text text-anchor="start" x="444" y="-15.2333" font-family="Times Roman,serif" font-size="14.00">One dimensional Taylor Series</text>
</a>
</g>
<!-- DEFINITION_OF_DERIVATIVE&#45;&gt;TAYLOR_SERIES -->
<g id="edge20" class="edge"><title>DEFINITION_OF_DERIVATIVE&#45;&gt;TAYLOR_SERIES</title>
<path fill="none" stroke="black" d="M519.024,-287.944C564.664,-257.521 651.091,-191.144 681,-108 686.416,-92.9445 689.936,-85.2722 681,-72 671.779,-58.3046 658.424,-48.0812 643.691,-40.4499"/>
<polygon fill="black" stroke="black" points="644.9,-37.1494 634.365,-36.0255 641.899,-43.4739 644.9,-37.1494"/>
</g>
<!-- CONTINUOUS_TIME_MARKOV_CHAIN&#45;&gt;NEWTONS_LAWS -->
<!-- NEWTONS_LAWS&#45;&gt;CHAIN_RULE -->
<!-- LIMITS -->
<g id="node9" class="node"><title>LIMITS</title>
<a xlink:href="LIMITS.html" xlink:title="Limit of a function" target="_top">
<polyline fill="none" stroke="black" points="549,-396 431,-396 "/>
<path fill="none" stroke="black" d="M431,-396C425,-396 419,-390 419,-384"/>
<polyline fill="none" stroke="black" points="419,-384 419,-372 "/>
<path fill="none" stroke="black" d="M419,-372C419,-366 425,-360 431,-360"/>
<polyline fill="none" stroke="black" points="431,-360 549,-360 "/>
<path fill="none" stroke="black" d="M549,-360C555,-360 561,-366 561,-372"/>
<polyline fill="none" stroke="black" points="561,-372 561,-384 "/>
<path fill="none" stroke="black" d="M561,-384C561,-390 555,-396 549,-396"/>
<text text-anchor="start" x="427" y="-375.233" font-family="Times Roman,serif" font-size="14.00">Limit of a function</text>
</a>
</g>
<!-- LIMITS&#45;&gt;DEFINITION_OF_DERIVATIVE -->
<g id="edge10" class="edge"><title>LIMITS&#45;&gt;DEFINITION_OF_DERIVATIVE</title>
<path fill="none" stroke="black" d="M490,-359.831C490,-352.131 490,-342.974 490,-334.417"/>
<polygon fill="black" stroke="black" points="493.5,-334.413 490,-324.413 486.5,-334.413 493.5,-334.413"/>
</g>
<!-- CHAIN_RULE&#45;&gt;TAYLOR_SERIES -->
</g>
</svg>
