<?xml version="1.0" encoding="UTF-8" standalone="no"?>
<!DOCTYPE svg PUBLIC "-//W3C//DTD SVG 1.1//EN"
 "http://www.w3.org/Graphics/SVG/1.1/DTD/svg11.dtd">
<!-- Generated by graphviz version 2.26.3 (20100126.1600)
 -->
<!-- Title: _anonymous_0 Pages: 1 -->
<svg width="719pt" height="404pt"
 viewBox="0.00 0.00 718.98 404.00" xmlns="http://www.w3.org/2000/svg" xmlns:xlink="http://www.w3.org/1999/xlink">
<g id="graph1" class="graph" transform="scale(1 1) rotate(0) translate(4 400)">
<title>_anonymous_0</title>
<!-- DEFINITION_OF_DERIVATIVE -->
<g id="node1" class="node"><title>DEFINITION_OF_DERIVATIVE</title>
<a xlink:href="DEFINITION_OF_DERIVATIVE.html" xlink:title="Differentiation" target="_top">
<polyline fill="none" stroke="blue" stroke-width="2" points="543,-324 449,-324 "/>
<path fill="none" stroke="blue" stroke-width="2" d="M449,-324C443,-324 437,-318 437,-312"/>
<polyline fill="none" stroke="blue" stroke-width="2" points="437,-312 437,-300 "/>
<path fill="none" stroke="blue" stroke-width="2" d="M437,-300C437,-294 443,-288 449,-288"/>
<polyline fill="none" stroke="blue" stroke-width="2" points="449,-288 543,-288 "/>
<path fill="none" stroke="blue" stroke-width="2" d="M543,-288C549,-288 555,-294 555,-300"/>
<polyline fill="none" stroke="blue" stroke-width="2" points="555,-300 555,-312 "/>
<path fill="none" stroke="blue" stroke-width="2" d="M555,-312C555,-318 549,-324 543,-324"/>
<text text-anchor="start" x="445" y="-303.233" font-family="Times Roman,serif" font-size="14.00">Differentiation</text>
</a>
</g>
<!-- TAYLOR_SERIES -->
<g id="node2" class="node"><title>TAYLOR_SERIES</title>
<a xlink:href="TAYLOR_SERIES.html" xlink:title="One dimensional Taylor Series" target="_top">
<polyline fill="none" stroke="black" points="212,-252 12,-252 "/>
<path fill="none" stroke="black" d="M12,-252C6,-252 8.28967e-14,-246 6.63173e-14,-240"/>
<polyline fill="none" stroke="black" points="6.63173e-14,-240 3.31587e-14,-228 "/>
<path fill="none" stroke="black" d="M3.31587e-14,-228C1.65793e-14,-222 6,-216 12,-216"/>
<polyline fill="none" stroke="black" points="12,-216 212,-216 "/>
<path fill="none" stroke="black" d="M212,-216C218,-216 224,-222 224,-228"/>
<polyline fill="none" stroke="black" points="224,-228 224,-240 "/>
<path fill="none" stroke="black" d="M224,-240C224,-246 218,-252 212,-252"/>
<text text-anchor="start" x="8" y="-231.233" font-family="Times Roman,serif" font-size="14.00">One dimensional Taylor Series</text>
</a>
</g>
<!-- DEFINITION_OF_DERIVATIVE&#45;&gt;TAYLOR_SERIES -->
<g id="edge2" class="edge"><title>DEFINITION_OF_DERIVATIVE&#45;&gt;TAYLOR_SERIES</title>
<path fill="none" stroke="black" d="M436.842,-294.908C378.791,-284.023 288.963,-267.181 218.47,-253.963"/>
<polygon fill="black" stroke="black" points="218.689,-250.443 208.215,-252.04 217.399,-257.323 218.689,-250.443"/>
</g>
<!-- NEWTONS_LAWS -->
<g id="node4" class="node"><title>NEWTONS_LAWS</title>
<a xlink:href="NEWTONS_LAWS.html" xlink:title="Newtons Laws of Motion" target="_top">
<polyline fill="none" stroke="black" points="418,-252 254,-252 "/>
<path fill="none" stroke="black" d="M254,-252C248,-252 242,-246 242,-240"/>
<polyline fill="none" stroke="black" points="242,-240 242,-228 "/>
<path fill="none" stroke="black" d="M242,-228C242,-222 248,-216 254,-216"/>
<polyline fill="none" stroke="black" points="254,-216 418,-216 "/>
<path fill="none" stroke="black" d="M418,-216C424,-216 430,-222 430,-228"/>
<polyline fill="none" stroke="black" points="430,-228 430,-240 "/>
<path fill="none" stroke="black" d="M430,-240C430,-246 424,-252 418,-252"/>
<text text-anchor="start" x="250" y="-231.233" font-family="Times Roman,serif" font-size="14.00">Newtons Laws of Motion</text>
</a>
</g>
<!-- DEFINITION_OF_DERIVATIVE&#45;&gt;NEWTONS_LAWS -->
<g id="edge4" class="edge"><title>DEFINITION_OF_DERIVATIVE&#45;&gt;NEWTONS_LAWS</title>
<path fill="none" stroke="black" d="M455.625,-287.831C434.321,-278.245 408.002,-266.401 385.479,-256.266"/>
<polygon fill="black" stroke="black" points="386.64,-252.95 376.084,-252.038 383.767,-259.333 386.64,-252.95"/>
</g>
<!-- PRODUCT_RULE -->
<g id="node6" class="node"><title>PRODUCT_RULE</title>
<a xlink:href="PRODUCT_RULE.html" xlink:title="Product Rule" target="_top">
<polyline fill="none" stroke="black" points="264,-180 184,-180 "/>
<path fill="none" stroke="black" d="M184,-180C178,-180 172,-174 172,-168"/>
<polyline fill="none" stroke="black" points="172,-168 172,-156 "/>
<path fill="none" stroke="black" d="M172,-156C172,-150 178,-144 184,-144"/>
<polyline fill="none" stroke="black" points="184,-144 264,-144 "/>
<path fill="none" stroke="black" d="M264,-144C270,-144 276,-150 276,-156"/>
<polyline fill="none" stroke="black" points="276,-156 276,-168 "/>
<path fill="none" stroke="black" d="M276,-168C276,-174 270,-180 264,-180"/>
<text text-anchor="start" x="180" y="-159.233" font-family="Times Roman,serif" font-size="14.00">Product Rule</text>
</a>
</g>
<!-- DEFINITION_OF_DERIVATIVE&#45;&gt;PRODUCT_RULE -->
<g id="edge6" class="edge"><title>DEFINITION_OF_DERIVATIVE&#45;&gt;PRODUCT_RULE</title>
<path fill="none" stroke="black" d="M489.402,-287.788C480.959,-267.136 464.326,-234.002 439,-216 384.282,-177.107 355.599,-196.045 286.25,-180.104"/>
<polygon fill="black" stroke="black" points="286.736,-176.619 276.188,-177.614 285.054,-183.414 286.736,-176.619"/>
</g>
<!-- EXACT_DIFFERENTIALS -->
<g id="node9" class="node"><title>EXACT_DIFFERENTIALS</title>
<a xlink:href="EXACT_DIFFERENTIALS.html" xlink:title="Theory of exact differentials" target="_top">
<polyline fill="none" stroke="black" points="494,-180 306,-180 "/>
<path fill="none" stroke="black" d="M306,-180C300,-180 294,-174 294,-168"/>
<polyline fill="none" stroke="black" points="294,-168 294,-156 "/>
<path fill="none" stroke="black" d="M294,-156C294,-150 300,-144 306,-144"/>
<polyline fill="none" stroke="black" points="306,-144 494,-144 "/>
<path fill="none" stroke="black" d="M494,-144C500,-144 506,-150 506,-156"/>
<polyline fill="none" stroke="black" points="506,-156 506,-168 "/>
<path fill="none" stroke="black" d="M506,-168C506,-174 500,-180 494,-180"/>
<text text-anchor="start" x="302.5" y="-159.233" font-family="Times Roman,serif" font-size="14.00">Theory of exact differentials</text>
</a>
</g>
<!-- DEFINITION_OF_DERIVATIVE&#45;&gt;EXACT_DIFFERENTIALS -->
<g id="edge10" class="edge"><title>DEFINITION_OF_DERIVATIVE&#45;&gt;EXACT_DIFFERENTIALS</title>
<path fill="none" stroke="black" d="M494.68,-287.999C492.517,-268.733 486.842,-237.978 472,-216 464.049,-204.225 452.662,-194.003 441.284,-185.715"/>
<polygon fill="black" stroke="black" points="443.267,-182.831 433.05,-180.027 439.289,-188.59 443.267,-182.831"/>
</g>
<!-- LAGRANGE_MULTIPLIERS -->
<g id="node13" class="node"><title>LAGRANGE_MULTIPLIERS</title>
<a xlink:href="LAGRANGE_MULTIPLIERS.html" xlink:title="Lagrange multipliers" target="_top">
<polyline fill="none" stroke="black" points="418,-108 284,-108 "/>
<path fill="none" stroke="black" d="M284,-108C278,-108 272,-102 272,-96"/>
<polyline fill="none" stroke="black" points="272,-96 272,-84 "/>
<path fill="none" stroke="black" d="M272,-84C272,-78 278,-72 284,-72"/>
<polyline fill="none" stroke="black" points="284,-72 418,-72 "/>
<path fill="none" stroke="black" d="M418,-72C424,-72 430,-78 430,-84"/>
<polyline fill="none" stroke="black" points="430,-84 430,-96 "/>
<path fill="none" stroke="black" d="M430,-96C430,-102 424,-108 418,-108"/>
<text text-anchor="start" x="280" y="-87.2333" font-family="Times Roman,serif" font-size="14.00">Lagrange multipliers</text>
</a>
</g>
<!-- DEFINITION_OF_DERIVATIVE&#45;&gt;LAGRANGE_MULTIPLIERS -->
<g id="edge14" class="edge"><title>DEFINITION_OF_DERIVATIVE&#45;&gt;LAGRANGE_MULTIPLIERS</title>
<path fill="none" stroke="black" d="M505.427,-287.941C520.797,-255.713 546.54,-187.59 515,-144 505.284,-130.572 473.36,-118.669 440.228,-109.479"/>
<polygon fill="black" stroke="black" points="440.967,-106.053 430.401,-106.837 439.15,-112.813 440.967,-106.053"/>
</g>
<!-- CONTINUOUS_TIME_MARKOV_CHAIN -->
<g id="node16" class="node"><title>CONTINUOUS_TIME_MARKOV_CHAIN</title>
<a xlink:href="CONTINUOUS_TIME_MARKOV_CHAIN.html" xlink:title="Markov chains in continuous time" target="_top">
<polyline fill="none" stroke="black" points="684,-108 460,-108 "/>
<path fill="none" stroke="black" d="M460,-108C454,-108 448,-102 448,-96"/>
<polyline fill="none" stroke="black" points="448,-96 448,-84 "/>
<path fill="none" stroke="black" d="M448,-84C448,-78 454,-72 460,-72"/>
<polyline fill="none" stroke="black" points="460,-72 684,-72 "/>
<path fill="none" stroke="black" d="M684,-72C690,-72 696,-78 696,-84"/>
<polyline fill="none" stroke="black" points="696,-84 696,-96 "/>
<path fill="none" stroke="black" d="M696,-96C696,-102 690,-108 684,-108"/>
<text text-anchor="start" x="456" y="-87.2333" font-family="Times Roman,serif" font-size="14.00">Markov chains in continuous time</text>
</a>
</g>
<!-- DEFINITION_OF_DERIVATIVE&#45;&gt;CONTINUOUS_TIME_MARKOV_CHAIN -->
<g id="edge18" class="edge"><title>DEFINITION_OF_DERIVATIVE&#45;&gt;CONTINUOUS_TIME_MARKOV_CHAIN</title>
<path fill="none" stroke="black" d="M519.135,-287.858C529.649,-278.333 541.226,-265.783 548,-252 569.274,-208.713 572.892,-151.658 572.912,-118.09"/>
<polygon fill="black" stroke="black" points="576.412,-118.028 572.81,-108.064 569.412,-118.099 576.412,-118.028"/>
</g>
<!-- CHAIN_RULE -->
<g id="node18" class="node"><title>CHAIN_RULE</title>
<a xlink:href="CHAIN_RULE.html" xlink:title="Chain Rule" target="_top">
<polyline fill="none" stroke="black" points="571,-36 503,-36 "/>
<path fill="none" stroke="black" d="M503,-36C497,-36 491,-30 491,-24"/>
<polyline fill="none" stroke="black" points="491,-24 491,-12 "/>
<path fill="none" stroke="black" d="M491,-12C491,-6 497,-1.68368e-14 503,-1.591e-14"/>
<polyline fill="none" stroke="black" points="503,-1.591e-14 571,-5.4063e-15 "/>
<path fill="none" stroke="black" d="M571,-5.4063e-15C577,-4.47951e-15 583,-6 583,-12"/>
<polyline fill="none" stroke="black" points="583,-12 583,-24 "/>
<path fill="none" stroke="black" d="M583,-24C583,-30 577,-36 571,-36"/>
<text text-anchor="start" x="499.5" y="-15.2333" font-family="Times Roman,serif" font-size="14.00">Chain Rule</text>
</a>
</g>
<!-- DEFINITION_OF_DERIVATIVE&#45;&gt;CHAIN_RULE -->
<g id="edge20" class="edge"><title>DEFINITION_OF_DERIVATIVE&#45;&gt;CHAIN_RULE</title>
<path fill="none" stroke="black" d="M528.603,-287.846C578.335,-257.971 670.959,-193.166 705,-108 710.938,-93.1428 714.425,-84.9294 705,-72 691.522,-53.511 636.581,-38.2142 593.148,-28.6787"/>
<polygon fill="black" stroke="black" points="593.745,-25.2271 583.234,-26.5565 592.279,-32.0721 593.745,-25.2271"/>
</g>
<!-- TAYLOR_SERIES&#45;&gt;PRODUCT_RULE -->
<!-- PRODUCT_RULE&#45;&gt;LAGRANGE_MULTIPLIERS -->
<!-- LIMITS -->
<g id="node11" class="node"><title>LIMITS</title>
<a xlink:href="LIMITS.html" xlink:title="Limit of a function" target="_top">
<polyline fill="none" stroke="black" points="555,-396 437,-396 "/>
<path fill="none" stroke="black" d="M437,-396C431,-396 425,-390 425,-384"/>
<polyline fill="none" stroke="black" points="425,-384 425,-372 "/>
<path fill="none" stroke="black" d="M425,-372C425,-366 431,-360 437,-360"/>
<polyline fill="none" stroke="black" points="437,-360 555,-360 "/>
<path fill="none" stroke="black" d="M555,-360C561,-360 567,-366 567,-372"/>
<polyline fill="none" stroke="black" points="567,-372 567,-384 "/>
<path fill="none" stroke="black" d="M567,-384C567,-390 561,-396 555,-396"/>
<text text-anchor="start" x="433" y="-375.233" font-family="Times Roman,serif" font-size="14.00">Limit of a function</text>
</a>
</g>
<!-- LIMITS&#45;&gt;DEFINITION_OF_DERIVATIVE -->
<g id="edge12" class="edge"><title>LIMITS&#45;&gt;DEFINITION_OF_DERIVATIVE</title>
<path fill="none" stroke="black" d="M496,-359.831C496,-352.131 496,-342.974 496,-334.417"/>
<polygon fill="black" stroke="black" points="499.5,-334.413 496,-324.413 492.5,-334.413 499.5,-334.413"/>
</g>
<!-- LAGRANGE_MULTIPLIERS&#45;&gt;CHAIN_RULE -->
</g>
</svg>
