<?xml version="1.0" encoding="UTF-8" standalone="no"?>
<!DOCTYPE svg PUBLIC "-//W3C//DTD SVG 1.1//EN"
 "http://www.w3.org/Graphics/SVG/1.1/DTD/svg11.dtd">
<!-- Generated by graphviz version 2.26.3 (20100126.1600)
 -->
<!-- Title: _anonymous_0 Pages: 1 -->
<svg width="761pt" height="404pt"
 viewBox="0.00 0.00 760.72 404.00" xmlns="http://www.w3.org/2000/svg" xmlns:xlink="http://www.w3.org/1999/xlink">
<g id="graph1" class="graph" transform="scale(1 1) rotate(0) translate(4 400)">
<title>_anonymous_0</title>
<!-- DEFINITION_OF_DERIVATIVE -->
<g id="node1" class="node"><title>DEFINITION_OF_DERIVATIVE</title>
<a xlink:href="DEFINITION_OF_DERIVATIVE.html" xlink:title="Differentiation" target="_top">
<polyline fill="none" stroke="blue" stroke-width="2" points="603,-324 509,-324 "/>
<path fill="none" stroke="blue" stroke-width="2" d="M509,-324C503,-324 497,-318 497,-312"/>
<polyline fill="none" stroke="blue" stroke-width="2" points="497,-312 497,-300 "/>
<path fill="none" stroke="blue" stroke-width="2" d="M497,-300C497,-294 503,-288 509,-288"/>
<polyline fill="none" stroke="blue" stroke-width="2" points="509,-288 603,-288 "/>
<path fill="none" stroke="blue" stroke-width="2" d="M603,-288C609,-288 615,-294 615,-300"/>
<polyline fill="none" stroke="blue" stroke-width="2" points="615,-300 615,-312 "/>
<path fill="none" stroke="blue" stroke-width="2" d="M615,-312C615,-318 609,-324 603,-324"/>
<text text-anchor="start" x="505" y="-303.233" font-family="Times Roman,serif" font-size="14.00">Differentiation</text>
</a>
</g>
<!-- CONTINUOUS_TIME_MARKOV_CHAIN -->
<g id="node4" class="node"><title>CONTINUOUS_TIME_MARKOV_CHAIN</title>
<a xlink:href="CONTINUOUS_TIME_MARKOV_CHAIN.html" xlink:title="Markov chains in continuous time" target="_top">
<polyline fill="none" stroke="black" points="236,-252 12,-252 "/>
<path fill="none" stroke="black" d="M12,-252C6,-252 6.86858e-14,-246 5.21065e-14,-240"/>
<polyline fill="none" stroke="black" points="5.21065e-14,-240 1.89478e-14,-228 "/>
<path fill="none" stroke="black" d="M1.89478e-14,-228C2.36848e-15,-222 6,-216 12,-216"/>
<polyline fill="none" stroke="black" points="12,-216 236,-216 "/>
<path fill="none" stroke="black" d="M236,-216C242,-216 248,-222 248,-228"/>
<polyline fill="none" stroke="black" points="248,-228 248,-240 "/>
<path fill="none" stroke="black" d="M248,-240C248,-246 242,-252 236,-252"/>
<text text-anchor="start" x="8" y="-231.233" font-family="Times Roman,serif" font-size="14.00">Markov chains in continuous time</text>
</a>
</g>
<!-- DEFINITION_OF_DERIVATIVE&#45;&gt;CONTINUOUS_TIME_MARKOV_CHAIN -->
<g id="edge4" class="edge"><title>DEFINITION_OF_DERIVATIVE&#45;&gt;CONTINUOUS_TIME_MARKOV_CHAIN</title>
<path fill="none" stroke="black" d="M496.838,-296.14C431.554,-285.259 324.798,-267.466 242.214,-253.702"/>
<polygon fill="black" stroke="black" points="242.706,-250.236 232.267,-252.045 241.556,-257.141 242.706,-250.236"/>
</g>
<!-- TAYLOR_SERIES -->
<g id="node6" class="node"><title>TAYLOR_SERIES</title>
<a xlink:href="TAYLOR_SERIES.html" xlink:title="One dimensional Taylor Series" target="_top">
<polyline fill="none" stroke="black" points="478,-252 278,-252 "/>
<path fill="none" stroke="black" d="M278,-252C272,-252 266,-246 266,-240"/>
<polyline fill="none" stroke="black" points="266,-240 266,-228 "/>
<path fill="none" stroke="black" d="M266,-228C266,-222 272,-216 278,-216"/>
<polyline fill="none" stroke="black" points="278,-216 478,-216 "/>
<path fill="none" stroke="black" d="M478,-216C484,-216 490,-222 490,-228"/>
<polyline fill="none" stroke="black" points="490,-228 490,-240 "/>
<path fill="none" stroke="black" d="M490,-240C490,-246 484,-252 478,-252"/>
<text text-anchor="start" x="274" y="-231.233" font-family="Times Roman,serif" font-size="14.00">One dimensional Taylor Series</text>
</a>
</g>
<!-- DEFINITION_OF_DERIVATIVE&#45;&gt;TAYLOR_SERIES -->
<g id="edge6" class="edge"><title>DEFINITION_OF_DERIVATIVE&#45;&gt;TAYLOR_SERIES</title>
<path fill="none" stroke="black" d="M511.083,-287.831C487.065,-278.116 457.317,-266.083 432.041,-255.859"/>
<polygon fill="black" stroke="black" points="433.177,-252.543 422.594,-252.038 430.552,-259.032 433.177,-252.543"/>
</g>
<!-- PRODUCT_RULE -->
<g id="node8" class="node"><title>PRODUCT_RULE</title>
<a xlink:href="PRODUCT_RULE.html" xlink:title="Product Rule" target="_top">
<polyline fill="none" stroke="black" points="348,-180 268,-180 "/>
<path fill="none" stroke="black" d="M268,-180C262,-180 256,-174 256,-168"/>
<polyline fill="none" stroke="black" points="256,-168 256,-156 "/>
<path fill="none" stroke="black" d="M256,-156C256,-150 262,-144 268,-144"/>
<polyline fill="none" stroke="black" points="268,-144 348,-144 "/>
<path fill="none" stroke="black" d="M348,-144C354,-144 360,-150 360,-156"/>
<polyline fill="none" stroke="black" points="360,-156 360,-168 "/>
<path fill="none" stroke="black" d="M360,-168C360,-174 354,-180 348,-180"/>
<text text-anchor="start" x="264" y="-159.233" font-family="Times Roman,serif" font-size="14.00">Product Rule</text>
</a>
</g>
<!-- DEFINITION_OF_DERIVATIVE&#45;&gt;PRODUCT_RULE -->
<g id="edge8" class="edge"><title>DEFINITION_OF_DERIVATIVE&#45;&gt;PRODUCT_RULE</title>
<path fill="none" stroke="black" d="M549.271,-287.969C540.705,-267.486 523.956,-234.511 499,-216 453.293,-182.098 429.162,-194.973 370.027,-180.109"/>
<polygon fill="black" stroke="black" points="370.792,-176.691 360.227,-177.474 368.975,-183.45 370.792,-176.691"/>
</g>
<!-- NEWTONS_LAWS -->
<g id="node11" class="node"><title>NEWTONS_LAWS</title>
<a xlink:href="NEWTONS_LAWS.html" xlink:title="Newtons Laws of Motion" target="_top">
<polyline fill="none" stroke="black" points="554,-180 390,-180 "/>
<path fill="none" stroke="black" d="M390,-180C384,-180 378,-174 378,-168"/>
<polyline fill="none" stroke="black" points="378,-168 378,-156 "/>
<path fill="none" stroke="black" d="M378,-156C378,-150 384,-144 390,-144"/>
<polyline fill="none" stroke="black" points="390,-144 554,-144 "/>
<path fill="none" stroke="black" d="M554,-144C560,-144 566,-150 566,-156"/>
<polyline fill="none" stroke="black" points="566,-156 566,-168 "/>
<path fill="none" stroke="black" d="M566,-168C566,-174 560,-180 554,-180"/>
<text text-anchor="start" x="386" y="-159.233" font-family="Times Roman,serif" font-size="14.00">Newtons Laws of Motion</text>
</a>
</g>
<!-- DEFINITION_OF_DERIVATIVE&#45;&gt;NEWTONS_LAWS -->
<g id="edge12" class="edge"><title>DEFINITION_OF_DERIVATIVE&#45;&gt;NEWTONS_LAWS</title>
<path fill="none" stroke="black" d="M554.248,-287.898C551.728,-268.821 545.761,-238.481 532,-216 525.312,-205.075 515.751,-195.067 506.221,-186.714"/>
<polygon fill="black" stroke="black" points="508.21,-183.816 498.286,-180.103 503.729,-189.194 508.21,-183.816"/>
</g>
<!-- LAGRANGE_MULTIPLIERS -->
<g id="node13" class="node"><title>LAGRANGE_MULTIPLIERS</title>
<a xlink:href="LAGRANGE_MULTIPLIERS.html" xlink:title="Lagrange multipliers" target="_top">
<polyline fill="none" stroke="black" points="496,-108 362,-108 "/>
<path fill="none" stroke="black" d="M362,-108C356,-108 350,-102 350,-96"/>
<polyline fill="none" stroke="black" points="350,-96 350,-84 "/>
<path fill="none" stroke="black" d="M350,-84C350,-78 356,-72 362,-72"/>
<polyline fill="none" stroke="black" points="362,-72 496,-72 "/>
<path fill="none" stroke="black" d="M496,-72C502,-72 508,-78 508,-84"/>
<polyline fill="none" stroke="black" points="508,-84 508,-96 "/>
<path fill="none" stroke="black" d="M508,-96C508,-102 502,-108 496,-108"/>
<text text-anchor="start" x="358" y="-87.2333" font-family="Times Roman,serif" font-size="14.00">Lagrange multipliers</text>
</a>
</g>
<!-- DEFINITION_OF_DERIVATIVE&#45;&gt;LAGRANGE_MULTIPLIERS -->
<g id="edge14" class="edge"><title>DEFINITION_OF_DERIVATIVE&#45;&gt;LAGRANGE_MULTIPLIERS</title>
<path fill="none" stroke="black" d="M565.388,-287.8C580.52,-255.646 605.665,-188.037 575,-144 566.606,-131.945 539.012,-120.391 510.04,-111.085"/>
<polygon fill="black" stroke="black" points="510.776,-107.649 500.187,-108.019 508.695,-114.333 510.776,-107.649"/>
</g>
<!-- EXACT_DIFFERENTIALS -->
<g id="node16" class="node"><title>EXACT_DIFFERENTIALS</title>
<a xlink:href="EXACT_DIFFERENTIALS.html" xlink:title="Theory of exact differentials" target="_top">
<polyline fill="none" stroke="black" points="726,-108 538,-108 "/>
<path fill="none" stroke="black" d="M538,-108C532,-108 526,-102 526,-96"/>
<polyline fill="none" stroke="black" points="526,-96 526,-84 "/>
<path fill="none" stroke="black" d="M526,-84C526,-78 532,-72 538,-72"/>
<polyline fill="none" stroke="black" points="538,-72 726,-72 "/>
<path fill="none" stroke="black" d="M726,-72C732,-72 738,-78 738,-84"/>
<polyline fill="none" stroke="black" points="738,-84 738,-96 "/>
<path fill="none" stroke="black" d="M738,-96C738,-102 732,-108 726,-108"/>
<text text-anchor="start" x="534.5" y="-87.2333" font-family="Times Roman,serif" font-size="14.00">Theory of exact differentials</text>
</a>
</g>
<!-- DEFINITION_OF_DERIVATIVE&#45;&gt;EXACT_DIFFERENTIALS -->
<g id="edge18" class="edge"><title>DEFINITION_OF_DERIVATIVE&#45;&gt;EXACT_DIFFERENTIALS</title>
<path fill="none" stroke="black" d="M579.135,-287.858C589.649,-278.333 601.226,-265.783 608,-252 629.274,-208.713 632.892,-151.658 632.912,-118.09"/>
<polygon fill="black" stroke="black" points="636.412,-118.028 632.81,-108.064 629.412,-118.099 636.412,-118.028"/>
</g>
<!-- CHAIN_RULE -->
<g id="node18" class="node"><title>CHAIN_RULE</title>
<a xlink:href="CHAIN_RULE.html" xlink:title="Chain Rule" target="_top">
<polyline fill="none" stroke="black" points="631,-36 563,-36 "/>
<path fill="none" stroke="black" d="M563,-36C557,-36 551,-30 551,-24"/>
<polyline fill="none" stroke="black" points="551,-24 551,-12 "/>
<path fill="none" stroke="black" d="M551,-12C551,-6 557,-1.68368e-14 563,-1.591e-14"/>
<polyline fill="none" stroke="black" points="563,-1.591e-14 631,-5.4063e-15 "/>
<path fill="none" stroke="black" d="M631,-5.4063e-15C637,-4.47951e-15 643,-6 643,-12"/>
<polyline fill="none" stroke="black" points="643,-12 643,-24 "/>
<path fill="none" stroke="black" d="M643,-24C643,-30 637,-36 631,-36"/>
<text text-anchor="start" x="559.5" y="-15.2333" font-family="Times Roman,serif" font-size="14.00">Chain Rule</text>
</a>
</g>
<!-- DEFINITION_OF_DERIVATIVE&#45;&gt;CHAIN_RULE -->
<g id="edge20" class="edge"><title>DEFINITION_OF_DERIVATIVE&#45;&gt;CHAIN_RULE</title>
<path fill="none" stroke="black" d="M585.024,-287.944C630.664,-257.521 717.091,-191.144 747,-108 752.416,-92.9445 756.2,-85.0903 747,-72 735.714,-55.9422 690.894,-41.1027 653.161,-31.0602"/>
<polygon fill="black" stroke="black" points="653.802,-27.6108 643.244,-28.4854 652.043,-34.3862 653.802,-27.6108"/>
</g>
<!-- LIMITS -->
<g id="node2" class="node"><title>LIMITS</title>
<a xlink:href="LIMITS.html" xlink:title="Limit of a function" target="_top">
<polyline fill="none" stroke="black" points="615,-396 497,-396 "/>
<path fill="none" stroke="black" d="M497,-396C491,-396 485,-390 485,-384"/>
<polyline fill="none" stroke="black" points="485,-384 485,-372 "/>
<path fill="none" stroke="black" d="M485,-372C485,-366 491,-360 497,-360"/>
<polyline fill="none" stroke="black" points="497,-360 615,-360 "/>
<path fill="none" stroke="black" d="M615,-360C621,-360 627,-366 627,-372"/>
<polyline fill="none" stroke="black" points="627,-372 627,-384 "/>
<path fill="none" stroke="black" d="M627,-384C627,-390 621,-396 615,-396"/>
<text text-anchor="start" x="493" y="-375.233" font-family="Times Roman,serif" font-size="14.00">Limit of a function</text>
</a>
</g>
<!-- LIMITS&#45;&gt;DEFINITION_OF_DERIVATIVE -->
<g id="edge2" class="edge"><title>LIMITS&#45;&gt;DEFINITION_OF_DERIVATIVE</title>
<path fill="none" stroke="black" d="M556,-359.831C556,-352.131 556,-342.974 556,-334.417"/>
<polygon fill="black" stroke="black" points="559.5,-334.413 556,-324.413 552.5,-334.413 559.5,-334.413"/>
</g>
<!-- CONTINUOUS_TIME_MARKOV_CHAIN&#45;&gt;PRODUCT_RULE -->
<!-- PRODUCT_RULE&#45;&gt;LAGRANGE_MULTIPLIERS -->
<!-- LAGRANGE_MULTIPLIERS&#45;&gt;CHAIN_RULE -->
</g>
</svg>
