<?xml version="1.0" encoding="UTF-8" standalone="no"?>
<!DOCTYPE svg PUBLIC "-//W3C//DTD SVG 1.1//EN"
 "http://www.w3.org/Graphics/SVG/1.1/DTD/svg11.dtd">
<!-- Generated by graphviz version 2.26.3 (20100126.1600)
 -->
<!-- Title: _anonymous_0 Pages: 1 -->
<svg width="178pt" height="116pt"
 viewBox="0.00 0.00 178.00 116.00" xmlns="http://www.w3.org/2000/svg" xmlns:xlink="http://www.w3.org/1999/xlink">
<g id="graph1" class="graph" transform="scale(1 1) rotate(0) translate(4 112)">
<title>_anonymous_0</title>
<!-- DETAILED_BALANCE -->
<g id="node1" class="node"><title>DETAILED_BALANCE</title>
<a xlink:href="DETAILED_BALANCE.html" xlink:title="Detailed balance" target="_top">
<polyline fill="none" stroke="blue" stroke-width="2" points="139,-36 31,-36 "/>
<path fill="none" stroke="blue" stroke-width="2" d="M31,-36C25,-36 19,-30 19,-24"/>
<polyline fill="none" stroke="blue" stroke-width="2" points="19,-24 19,-12 "/>
<path fill="none" stroke="blue" stroke-width="2" d="M19,-12C19,-6 25,-1.71176e-14 31,-1.64717e-14"/>
<polyline fill="none" stroke="blue" stroke-width="2" points="31,-1.64717e-14 139,-4.84461e-15 "/>
<path fill="none" stroke="blue" stroke-width="2" d="M139,-4.84461e-15C145,-4.19866e-15 151,-6 151,-12"/>
<polyline fill="none" stroke="blue" stroke-width="2" points="151,-12 151,-24 "/>
<path fill="none" stroke="blue" stroke-width="2" d="M151,-24C151,-30 145,-36 139,-36"/>
<text text-anchor="start" x="27.5" y="-15.2333" font-family="Times Roman,serif" font-size="14.00">Detailed balance</text>
</a>
</g>
<!-- STATIONARY_DIST_MARKOV -->
<g id="node2" class="node"><title>STATIONARY_DIST_MARKOV</title>
<a xlink:href="STATIONARY_DIST_MARKOV.html" xlink:title="Ergodic Markov chains" target="_top">
<polyline fill="none" stroke="black" points="158,-108 12,-108 "/>
<path fill="none" stroke="black" d="M12,-108C6,-108 7.10543e-14,-102 5.68434e-14,-96"/>
<polyline fill="none" stroke="black" points="5.68434e-14,-96 2.84217e-14,-84 "/>
<path fill="none" stroke="black" d="M2.84217e-14,-84C1.42109e-14,-78 6,-72 12,-72"/>
<polyline fill="none" stroke="black" points="12,-72 158,-72 "/>
<path fill="none" stroke="black" d="M158,-72C164,-72 170,-78 170,-84"/>
<polyline fill="none" stroke="black" points="170,-84 170,-96 "/>
<path fill="none" stroke="black" d="M170,-96C170,-102 164,-108 158,-108"/>
<text text-anchor="start" x="8" y="-87.2333" font-family="Times Roman,serif" font-size="14.00">Ergodic Markov chains</text>
</a>
</g>
<!-- STATIONARY_DIST_MARKOV&#45;&gt;DETAILED_BALANCE -->
<g id="edge2" class="edge"><title>STATIONARY_DIST_MARKOV&#45;&gt;DETAILED_BALANCE</title>
<path fill="none" stroke="black" d="M85,-71.8314C85,-64.131 85,-54.9743 85,-46.4166"/>
<polygon fill="black" stroke="black" points="88.5001,-46.4132 85,-36.4133 81.5001,-46.4133 88.5001,-46.4132"/>
</g>
</g>
</svg>
