<?xml version="1.0" encoding="UTF-8" standalone="no"?>
<!DOCTYPE svg PUBLIC "-//W3C//DTD SVG 1.1//EN"
 "http://www.w3.org/Graphics/SVG/1.1/DTD/svg11.dtd">
<!-- Generated by graphviz version 2.36.0 (20140111.2315)
 -->
<!-- Title: %3 Pages: 1 -->
<svg width="160pt" height="116pt"
 viewBox="0.00 0.00 160.00 116.00" xmlns="http://www.w3.org/2000/svg" xmlns:xlink="http://www.w3.org/1999/xlink">
<g id="graph0" class="graph" transform="scale(1 1) rotate(0) translate(4 112)">
<title>%3</title>
<!-- DETAILED_BALANCE -->
<g id="node1" class="node"><title>DETAILED_BALANCE</title>
<g id="a_node1"><a xlink:href="DETAILED_BALANCE.html" xlink:title=" Detailed balance " target="_top">
<path fill="none" stroke="blue" stroke-width="2" d="M121.25,-36C121.25,-36 30.75,-36 30.75,-36 24.75,-36 18.75,-30 18.75,-24 18.75,-24 18.75,-12 18.75,-12 18.75,-6 24.75,-0 30.75,-0 30.75,-0 121.25,-0 121.25,-0 127.25,-0 133.25,-6 133.25,-12 133.25,-12 133.25,-24 133.25,-24 133.25,-30 127.25,-36 121.25,-36"/>
<text text-anchor="start" x="26.5" y="-14.3" font-family="Times,serif" font-size="14.00"> Detailed balance </text>
</a>
</g>
</g>
<!-- STATIONARY_DIST_MARKOV -->
<g id="node2" class="node"><title>STATIONARY_DIST_MARKOV</title>
<g id="a_node2"><a xlink:href="STATIONARY_DIST_MARKOV.html" xlink:title=" Ergodic Markov chains " target="_top">
<path fill="none" stroke="black" d="M140,-108C140,-108 12,-108 12,-108 6,-108 0,-102 0,-96 0,-96 0,-84 0,-84 0,-78 6,-72 12,-72 12,-72 140,-72 140,-72 146,-72 152,-78 152,-84 152,-84 152,-96 152,-96 152,-102 146,-108 140,-108"/>
<text text-anchor="start" x="8" y="-86.3" font-family="Times,serif" font-size="14.00"> Ergodic Markov chains </text>
</a>
</g>
</g>
<!-- STATIONARY_DIST_MARKOV&#45;&gt;DETAILED_BALANCE -->
<g id="edge1" class="edge"><title>STATIONARY_DIST_MARKOV&#45;&gt;DETAILED_BALANCE</title>
<path fill="none" stroke="black" d="M76,-71.6966C76,-63.9827 76,-54.7125 76,-46.1124"/>
<polygon fill="black" stroke="black" points="79.5001,-46.1043 76,-36.1043 72.5001,-46.1044 79.5001,-46.1043"/>
</g>
</g>
</svg>
