<?xml version="1.0" encoding="UTF-8" standalone="no"?>
<!DOCTYPE svg PUBLIC "-//W3C//DTD SVG 1.1//EN"
 "http://www.w3.org/Graphics/SVG/1.1/DTD/svg11.dtd">
<!-- Generated by graphviz version 2.26.3 (20100126.1600)
 -->
<!-- Title: _anonymous_0 Pages: 1 -->
<svg width="188pt" height="116pt"
 viewBox="0.00 0.00 188.00 116.00" xmlns="http://www.w3.org/2000/svg" xmlns:xlink="http://www.w3.org/1999/xlink">
<g id="graph1" class="graph" transform="scale(1 1) rotate(0) translate(4 112)">
<title>_anonymous_0</title>
<!-- DETAILED_BALANCE -->
<g id="node1" class="node"><title>DETAILED_BALANCE</title>
<a xlink:href="DETAILED_BALANCE.html" xlink:title=" Detailed balance " target="_top">
<polyline fill="none" stroke="blue" stroke-width="2" points="148,-36 32,-36 "/>
<path fill="none" stroke="blue" stroke-width="2" d="M32,-36C26,-36 20,-30 20,-24"/>
<polyline fill="none" stroke="blue" stroke-width="2" points="20,-24 20,-12 "/>
<path fill="none" stroke="blue" stroke-width="2" d="M20,-12C20,-6 26,-1.71545e-14 32,-1.65455e-14"/>
<polyline fill="none" stroke="blue" stroke-width="2" points="32,-1.65455e-14 148,-4.77079e-15 "/>
<path fill="none" stroke="blue" stroke-width="2" d="M148,-4.77079e-15C154,-4.16175e-15 160,-6 160,-12"/>
<polyline fill="none" stroke="blue" stroke-width="2" points="160,-12 160,-24 "/>
<path fill="none" stroke="blue" stroke-width="2" d="M160,-24C160,-30 154,-36 148,-36"/>
<text text-anchor="start" x="28" y="-15.2333" font-family="Times Roman,serif" font-size="14.00"> Detailed balance </text>
</a>
</g>
<!-- STATIONARY_DIST_MARKOV -->
<g id="node2" class="node"><title>STATIONARY_DIST_MARKOV</title>
<a xlink:href="STATIONARY_DIST_MARKOV.html" xlink:title=" Ergodic Markov chains " target="_top">
<polyline fill="none" stroke="black" points="168,-108 12,-108 "/>
<path fill="none" stroke="black" d="M12,-108C6,-108 7.10543e-14,-102 5.68434e-14,-96"/>
<polyline fill="none" stroke="black" points="5.68434e-14,-96 2.84217e-14,-84 "/>
<path fill="none" stroke="black" d="M2.84217e-14,-84C1.42109e-14,-78 6,-72 12,-72"/>
<polyline fill="none" stroke="black" points="12,-72 168,-72 "/>
<path fill="none" stroke="black" d="M168,-72C174,-72 180,-78 180,-84"/>
<polyline fill="none" stroke="black" points="180,-84 180,-96 "/>
<path fill="none" stroke="black" d="M180,-96C180,-102 174,-108 168,-108"/>
<text text-anchor="start" x="8.5" y="-87.2333" font-family="Times Roman,serif" font-size="14.00"> Ergodic Markov chains </text>
</a>
</g>
<!-- STATIONARY_DIST_MARKOV&#45;&gt;DETAILED_BALANCE -->
<g id="edge2" class="edge"><title>STATIONARY_DIST_MARKOV&#45;&gt;DETAILED_BALANCE</title>
<path fill="none" stroke="black" d="M90,-71.8314C90,-64.131 90,-54.9743 90,-46.4166"/>
<polygon fill="black" stroke="black" points="93.5001,-46.4132 90,-36.4133 86.5001,-46.4133 93.5001,-46.4132"/>
</g>
</g>
</svg>
