<?xml version="1.0" encoding="UTF-8" standalone="no"?>
<!DOCTYPE svg PUBLIC "-//W3C//DTD SVG 1.1//EN"
 "http://www.w3.org/Graphics/SVG/1.1/DTD/svg11.dtd">
<!-- Generated by graphviz version 2.28.0 (20110509.1545)
 -->
<!-- Title: _anonymous_0 Pages: 1 -->
<svg width="156pt" height="116pt"
 viewBox="0.00 0.00 156.00 116.00" xmlns="http://www.w3.org/2000/svg" xmlns:xlink="http://www.w3.org/1999/xlink">
<g id="graph1" class="graph" transform="scale(1 1) rotate(0) translate(4 112)">
<title>_anonymous_0</title>
<!-- DETAILED_BALANCE -->
<g id="node1" class="node"><title>DETAILED_BALANCE</title>
<a xlink:href="DETAILED_BALANCE.html" xlink:title="Detailed balance" target="_top">
<polyline fill="none" stroke="blue" stroke-width="2" points="117,-36 31,-36 "/>
<path fill="none" stroke="blue" stroke-width="2" d="M31,-36C25,-36 19,-30 19,-24"/>
<polyline fill="none" stroke="blue" stroke-width="2" points="19,-24 19,-12 "/>
<path fill="none" stroke="blue" stroke-width="2" d="M19,-12C19,-6 25,-0 31,-0"/>
<polyline fill="none" stroke="blue" stroke-width="2" points="31,-0 117,-0 "/>
<path fill="none" stroke="blue" stroke-width="2" d="M117,-0C123,-0 129,-6 129,-12"/>
<polyline fill="none" stroke="blue" stroke-width="2" points="129,-12 129,-24 "/>
<path fill="none" stroke="blue" stroke-width="2" d="M129,-24C129,-30 123,-36 117,-36"/>
<text text-anchor="start" x="27.5" y="-12.5" font-family="Times,serif" font-size="14.00">Detailed balance</text>
</a>
</g>
<!-- STATIONARY_DIST_MARKOV -->
<g id="node2" class="node"><title>STATIONARY_DIST_MARKOV</title>
<a xlink:href="STATIONARY_DIST_MARKOV.html" xlink:title="Ergodic Markov chains" target="_top">
<polyline fill="none" stroke="black" points="136,-108 12,-108 "/>
<path fill="none" stroke="black" d="M12,-108C6,-108 0,-102 0,-96"/>
<polyline fill="none" stroke="black" points="0,-96 0,-84 "/>
<path fill="none" stroke="black" d="M0,-84C0,-78 6,-72 12,-72"/>
<polyline fill="none" stroke="black" points="12,-72 136,-72 "/>
<path fill="none" stroke="black" d="M136,-72C142,-72 148,-78 148,-84"/>
<polyline fill="none" stroke="black" points="148,-84 148,-96 "/>
<path fill="none" stroke="black" d="M148,-96C148,-102 142,-108 136,-108"/>
<text text-anchor="start" x="8.5" y="-84.5" font-family="Times,serif" font-size="14.00">Ergodic Markov chains</text>
</a>
</g>
<!-- STATIONARY_DIST_MARKOV&#45;&gt;DETAILED_BALANCE -->
<g id="edge2" class="edge"><title>STATIONARY_DIST_MARKOV&#45;&gt;DETAILED_BALANCE</title>
<path fill="none" stroke="black" d="M74,-71.6966C74,-63.9827 74,-54.7125 74,-46.1124"/>
<polygon fill="black" stroke="black" points="77.5001,-46.1043 74,-36.1043 70.5001,-46.1044 77.5001,-46.1043"/>
</g>
</g>
</svg>
