<?xml version="1.0" encoding="UTF-8" standalone="no"?>
<!DOCTYPE svg PUBLIC "-//W3C//DTD SVG 1.1//EN"
 "http://www.w3.org/Graphics/SVG/1.1/DTD/svg11.dtd">
<!-- Generated by graphviz version 2.28.0 (20110509.1545)
 -->
<!-- Title: _anonymous_0 Pages: 1 -->
<svg width="144pt" height="188pt"
 viewBox="0.00 0.00 144.00 188.00" xmlns="http://www.w3.org/2000/svg" xmlns:xlink="http://www.w3.org/1999/xlink">
<g id="graph1" class="graph" transform="scale(1 1) rotate(0) translate(4 184)">
<title>_anonymous_0</title>
<!-- DIFFERENCE_EQUATIONS -->
<g id="node1" class="node"><title>DIFFERENCE_EQUATIONS</title>
<a xlink:href="DIFFERENCE_EQUATIONS.html" xlink:title="Difference equations" target="_top">
<polyline fill="none" stroke="blue" stroke-width="2" points="122.25,-108 13.75,-108 "/>
<path fill="none" stroke="blue" stroke-width="2" d="M13.75,-108C7.75,-108 1.75,-102 1.75,-96"/>
<polyline fill="none" stroke="blue" stroke-width="2" points="1.75,-96 1.75,-84 "/>
<path fill="none" stroke="blue" stroke-width="2" d="M1.75,-84C1.75,-78 7.75,-72 13.75,-72"/>
<polyline fill="none" stroke="blue" stroke-width="2" points="13.75,-72 122.25,-72 "/>
<path fill="none" stroke="blue" stroke-width="2" d="M122.25,-72C128.25,-72 134.25,-78 134.25,-84"/>
<polyline fill="none" stroke="blue" stroke-width="2" points="134.25,-84 134.25,-96 "/>
<path fill="none" stroke="blue" stroke-width="2" d="M134.25,-96C134.25,-102 128.25,-108 122.25,-108"/>
<text text-anchor="start" x="10" y="-84.5" font-family="Times,serif" font-size="14.00">Difference equations</text>
</a>
</g>
<!-- GAMBLERS_RUIN -->
<g id="node2" class="node"><title>GAMBLERS_RUIN</title>
<a xlink:href="GAMBLERS_RUIN.html" xlink:title="Gamblers ruin" target="_top">
<polyline fill="none" stroke="black" points="104.25,-36 31.75,-36 "/>
<path fill="none" stroke="black" d="M31.75,-36C25.75,-36 19.75,-30 19.75,-24"/>
<polyline fill="none" stroke="black" points="19.75,-24 19.75,-12 "/>
<path fill="none" stroke="black" d="M19.75,-12C19.75,-6 25.75,-0 31.75,-0"/>
<polyline fill="none" stroke="black" points="31.75,-0 104.25,-0 "/>
<path fill="none" stroke="black" d="M104.25,-0C110.25,-0 116.25,-6 116.25,-12"/>
<polyline fill="none" stroke="black" points="116.25,-12 116.25,-24 "/>
<path fill="none" stroke="black" d="M116.25,-24C116.25,-30 110.25,-36 104.25,-36"/>
<text text-anchor="start" x="28" y="-12.5" font-family="Times,serif" font-size="14.00">Gamblers ruin</text>
</a>
</g>
<!-- DIFFERENCE_EQUATIONS&#45;&gt;GAMBLERS_RUIN -->
<g id="edge2" class="edge"><title>DIFFERENCE_EQUATIONS&#45;&gt;GAMBLERS_RUIN</title>
<path fill="none" stroke="black" d="M68,-71.6966C68,-63.9827 68,-54.7125 68,-46.1124"/>
<polygon fill="black" stroke="black" points="71.5001,-46.1043 68,-36.1043 64.5001,-46.1044 71.5001,-46.1043"/>
</g>
<!-- MATRIX_MULTIPLICATION -->
<g id="node4" class="node"><title>MATRIX_MULTIPLICATION</title>
<a xlink:href="MATRIX_MULTIPLICATION.html" xlink:title="Matrix multiplication" target="_top">
<polyline fill="none" stroke="black" points="124.25,-180 11.75,-180 "/>
<path fill="none" stroke="black" d="M11.75,-180C5.75,-180 -0.25,-174 -0.25,-168"/>
<polyline fill="none" stroke="black" points="-0.25,-168 -0.25,-156 "/>
<path fill="none" stroke="black" d="M-0.25,-156C-0.25,-150 5.75,-144 11.75,-144"/>
<polyline fill="none" stroke="black" points="11.75,-144 124.25,-144 "/>
<path fill="none" stroke="black" d="M124.25,-144C130.25,-144 136.25,-150 136.25,-156"/>
<polyline fill="none" stroke="black" points="136.25,-156 136.25,-168 "/>
<path fill="none" stroke="black" d="M136.25,-168C136.25,-174 130.25,-180 124.25,-180"/>
<text text-anchor="start" x="8" y="-156.5" font-family="Times,serif" font-size="14.00">Matrix multiplication</text>
</a>
</g>
<!-- MATRIX_MULTIPLICATION&#45;&gt;DIFFERENCE_EQUATIONS -->
<g id="edge4" class="edge"><title>MATRIX_MULTIPLICATION&#45;&gt;DIFFERENCE_EQUATIONS</title>
<path fill="none" stroke="black" d="M68,-143.697C68,-135.983 68,-126.712 68,-118.112"/>
<polygon fill="black" stroke="black" points="71.5001,-118.104 68,-108.104 64.5001,-118.104 71.5001,-118.104"/>
</g>
</g>
</svg>
