<?xml version="1.0" encoding="UTF-8" standalone="no"?>
<!DOCTYPE svg PUBLIC "-//W3C//DTD SVG 1.1//EN"
 "http://www.w3.org/Graphics/SVG/1.1/DTD/svg11.dtd">
<!-- Generated by graphviz version 2.26.3 (20100126.1600)
 -->
<!-- Title: _anonymous_0 Pages: 1 -->
<svg width="178pt" height="188pt"
 viewBox="0.00 0.00 178.00 188.00" xmlns="http://www.w3.org/2000/svg" xmlns:xlink="http://www.w3.org/1999/xlink">
<g id="graph1" class="graph" transform="scale(1 1) rotate(0) translate(4 184)">
<title>_anonymous_0</title>
<!-- DIFFERENCE_EQUATIONS -->
<g id="node1" class="node"><title>DIFFERENCE_EQUATIONS</title>
<a xlink:href="DIFFERENCE_EQUATIONS.html" xlink:title=" Difference equations " target="_top">
<polyline fill="none" stroke="blue" stroke-width="2" points="158,-108 12,-108 "/>
<path fill="none" stroke="blue" stroke-width="2" d="M12,-108C6,-108 5.92119e-14,-102 4.73695e-14,-96"/>
<polyline fill="none" stroke="blue" stroke-width="2" points="4.73695e-14,-96 2.36848e-14,-84 "/>
<path fill="none" stroke="blue" stroke-width="2" d="M2.36848e-14,-84C1.18424e-14,-78 6,-72 12,-72"/>
<polyline fill="none" stroke="blue" stroke-width="2" points="12,-72 158,-72 "/>
<path fill="none" stroke="blue" stroke-width="2" d="M158,-72C164,-72 170,-78 170,-84"/>
<polyline fill="none" stroke="blue" stroke-width="2" points="170,-84 170,-96 "/>
<path fill="none" stroke="blue" stroke-width="2" d="M170,-96C170,-102 164,-108 158,-108"/>
<text text-anchor="start" x="8.5" y="-87.2333" font-family="Times Roman,serif" font-size="14.00"> Difference equations </text>
</a>
</g>
<!-- GAMBLERS_RUIN -->
<g id="node2" class="node"><title>GAMBLERS_RUIN</title>
<a xlink:href="GAMBLERS_RUIN.html" xlink:title=" Gamblers ruin " target="_top">
<polyline fill="none" stroke="black" points="135,-36 35,-36 "/>
<path fill="none" stroke="black" d="M35,-36C29,-36 23,-30 23,-24"/>
<polyline fill="none" stroke="black" points="23,-24 23,-12 "/>
<path fill="none" stroke="black" d="M23,-12C23,-6 29,-1.70759e-14 35,-1.63883e-14"/>
<polyline fill="none" stroke="black" points="35,-1.63883e-14 135,-4.92796e-15 "/>
<path fill="none" stroke="black" d="M135,-4.92796e-15C141,-4.24034e-15 147,-6 147,-12"/>
<polyline fill="none" stroke="black" points="147,-12 147,-24 "/>
<path fill="none" stroke="black" d="M147,-24C147,-30 141,-36 135,-36"/>
<text text-anchor="start" x="31.5" y="-15.2333" font-family="Times Roman,serif" font-size="14.00"> Gamblers ruin </text>
</a>
</g>
<!-- DIFFERENCE_EQUATIONS&#45;&gt;GAMBLERS_RUIN -->
<g id="edge2" class="edge"><title>DIFFERENCE_EQUATIONS&#45;&gt;GAMBLERS_RUIN</title>
<path fill="none" stroke="black" d="M85,-71.8314C85,-64.131 85,-54.9743 85,-46.4166"/>
<polygon fill="black" stroke="black" points="88.5001,-46.4132 85,-36.4133 81.5001,-46.4133 88.5001,-46.4132"/>
</g>
<!-- MATRIX_MULTIPLICATION -->
<g id="node4" class="node"><title>MATRIX_MULTIPLICATION</title>
<a xlink:href="MATRIX_MULTIPLICATION.html" xlink:title=" Matrix multiplication " target="_top">
<polyline fill="none" stroke="black" points="157,-180 13,-180 "/>
<path fill="none" stroke="black" d="M13,-180C7,-180 1,-174 1,-168"/>
<polyline fill="none" stroke="black" points="1,-168 1,-156 "/>
<path fill="none" stroke="black" d="M1,-156C1,-150 7,-144 13,-144"/>
<polyline fill="none" stroke="black" points="13,-144 157,-144 "/>
<path fill="none" stroke="black" d="M157,-144C163,-144 169,-150 169,-156"/>
<polyline fill="none" stroke="black" points="169,-156 169,-168 "/>
<path fill="none" stroke="black" d="M169,-168C169,-174 163,-180 157,-180"/>
<text text-anchor="start" x="9.5" y="-159.233" font-family="Times Roman,serif" font-size="14.00"> Matrix multiplication </text>
</a>
</g>
<!-- MATRIX_MULTIPLICATION&#45;&gt;DIFFERENCE_EQUATIONS -->
<g id="edge4" class="edge"><title>MATRIX_MULTIPLICATION&#45;&gt;DIFFERENCE_EQUATIONS</title>
<path fill="none" stroke="black" d="M85,-143.831C85,-136.131 85,-126.974 85,-118.417"/>
<polygon fill="black" stroke="black" points="88.5001,-118.413 85,-108.413 81.5001,-118.413 88.5001,-118.413"/>
</g>
</g>
</svg>
