<?xml version="1.0" encoding="UTF-8" standalone="no"?>
<!DOCTYPE svg PUBLIC "-//W3C//DTD SVG 1.1//EN"
 "http://www.w3.org/Graphics/SVG/1.1/DTD/svg11.dtd">
<!-- Generated by graphviz version 2.36.0 (20140111.2315)
 -->
<!-- Title: %3 Pages: 1 -->
<svg width="150pt" height="188pt"
 viewBox="0.00 0.00 150.00 188.00" xmlns="http://www.w3.org/2000/svg" xmlns:xlink="http://www.w3.org/1999/xlink">
<g id="graph0" class="graph" transform="scale(1 1) rotate(0) translate(4 184)">
<title>%3</title>
<!-- DIFFERENCE_EQUATIONS -->
<g id="node1" class="node"><title>DIFFERENCE_EQUATIONS</title>
<g id="a_node1"><a xlink:href="DIFFERENCE_EQUATIONS.html" xlink:title=" Difference equations " target="_top">
<path fill="none" stroke="blue" stroke-width="2" d="M127.25,-108C127.25,-108 14.75,-108 14.75,-108 8.75,-108 2.75,-102 2.75,-96 2.75,-96 2.75,-84 2.75,-84 2.75,-78 8.75,-72 14.75,-72 14.75,-72 127.25,-72 127.25,-72 133.25,-72 139.25,-78 139.25,-84 139.25,-84 139.25,-96 139.25,-96 139.25,-102 133.25,-108 127.25,-108"/>
<text text-anchor="start" x="10.5" y="-86.3" font-family="Times,serif" font-size="14.00"> Difference equations </text>
</a>
</g>
</g>
<!-- GAMBLERS_RUIN -->
<g id="node3" class="node"><title>GAMBLERS_RUIN</title>
<g id="a_node3"><a xlink:href="GAMBLERS_RUIN.html" xlink:title=" Gamblers ruin " target="_top">
<path fill="none" stroke="black" d="M110.25,-36C110.25,-36 31.75,-36 31.75,-36 25.75,-36 19.75,-30 19.75,-24 19.75,-24 19.75,-12 19.75,-12 19.75,-6 25.75,-0 31.75,-0 31.75,-0 110.25,-0 110.25,-0 116.25,-0 122.25,-6 122.25,-12 122.25,-12 122.25,-24 122.25,-24 122.25,-30 116.25,-36 110.25,-36"/>
<text text-anchor="start" x="27.5" y="-14.3" font-family="Times,serif" font-size="14.00"> Gamblers ruin </text>
</a>
</g>
</g>
<!-- DIFFERENCE_EQUATIONS&#45;&gt;GAMBLERS_RUIN -->
<g id="edge2" class="edge"><title>DIFFERENCE_EQUATIONS&#45;&gt;GAMBLERS_RUIN</title>
<path fill="none" stroke="black" d="M71,-71.6966C71,-63.9827 71,-54.7125 71,-46.1124"/>
<polygon fill="black" stroke="black" points="74.5001,-46.1043 71,-36.1043 67.5001,-46.1044 74.5001,-46.1043"/>
</g>
<!-- MATRIX_MULTIPLICATION -->
<g id="node2" class="node"><title>MATRIX_MULTIPLICATION</title>
<g id="a_node2"><a xlink:href="MATRIX_MULTIPLICATION.html" xlink:title=" Matrix multiplication " target="_top">
<path fill="none" stroke="black" d="M130,-180C130,-180 12,-180 12,-180 6,-180 0,-174 0,-168 0,-168 0,-156 0,-156 0,-150 6,-144 12,-144 12,-144 130,-144 130,-144 136,-144 142,-150 142,-156 142,-156 142,-168 142,-168 142,-174 136,-180 130,-180"/>
<text text-anchor="start" x="8" y="-158.3" font-family="Times,serif" font-size="14.00"> Matrix multiplication </text>
</a>
</g>
</g>
<!-- MATRIX_MULTIPLICATION&#45;&gt;DIFFERENCE_EQUATIONS -->
<g id="edge1" class="edge"><title>MATRIX_MULTIPLICATION&#45;&gt;DIFFERENCE_EQUATIONS</title>
<path fill="none" stroke="black" d="M71,-143.697C71,-135.983 71,-126.712 71,-118.112"/>
<polygon fill="black" stroke="black" points="74.5001,-118.104 71,-108.104 67.5001,-118.104 74.5001,-118.104"/>
</g>
</g>
</svg>
