<?xml version="1.0" encoding="UTF-8" standalone="no"?>
<!DOCTYPE svg PUBLIC "-//W3C//DTD SVG 1.1//EN"
 "http://www.w3.org/Graphics/SVG/1.1/DTD/svg11.dtd">
<!-- Generated by graphviz version 2.28.0 (20110509.1545)
 -->
<!-- Title: _anonymous_0 Pages: 1 -->
<svg width="140pt" height="116pt"
 viewBox="0.00 0.00 140.00 116.00" xmlns="http://www.w3.org/2000/svg" xmlns:xlink="http://www.w3.org/1999/xlink">
<g id="graph1" class="graph" transform="scale(1 1) rotate(0) translate(4 112)">
<title>_anonymous_0</title>
<!-- DIFFERENCE_EQUATIONS -->
<g id="node1" class="node"><title>DIFFERENCE_EQUATIONS</title>
<a xlink:href="DIFFERENCE_EQUATIONS.html" xlink:title="Difference equations" target="_top">
<polyline fill="none" stroke="blue" stroke-width="2" points="120.25,-108 11.75,-108 "/>
<path fill="none" stroke="blue" stroke-width="2" d="M11.75,-108C5.75,-108 -0.25,-102 -0.25,-96"/>
<polyline fill="none" stroke="blue" stroke-width="2" points="-0.25,-96 -0.25,-84 "/>
<path fill="none" stroke="blue" stroke-width="2" d="M-0.25,-84C-0.25,-78 5.75,-72 11.75,-72"/>
<polyline fill="none" stroke="blue" stroke-width="2" points="11.75,-72 120.25,-72 "/>
<path fill="none" stroke="blue" stroke-width="2" d="M120.25,-72C126.25,-72 132.25,-78 132.25,-84"/>
<polyline fill="none" stroke="blue" stroke-width="2" points="132.25,-84 132.25,-96 "/>
<path fill="none" stroke="blue" stroke-width="2" d="M132.25,-96C132.25,-102 126.25,-108 120.25,-108"/>
<text text-anchor="start" x="8" y="-84.5" font-family="Times,serif" font-size="14.00">Difference equations</text>
</a>
</g>
<!-- GAMBLERS_RUIN -->
<g id="node2" class="node"><title>GAMBLERS_RUIN</title>
<a xlink:href="GAMBLERS_RUIN.html" xlink:title="TITLE:" target="_top">
<polyline fill="none" stroke="black" points="83.25,-36 48.75,-36 "/>
<path fill="none" stroke="black" d="M48.75,-36C42.75,-36 36.75,-30 36.75,-24"/>
<polyline fill="none" stroke="black" points="36.75,-24 36.75,-12 "/>
<path fill="none" stroke="black" d="M36.75,-12C36.75,-6 42.75,-0 48.75,-0"/>
<polyline fill="none" stroke="black" points="48.75,-0 83.25,-0 "/>
<path fill="none" stroke="black" d="M83.25,-0C89.25,-0 95.25,-6 95.25,-12"/>
<polyline fill="none" stroke="black" points="95.25,-12 95.25,-24 "/>
<path fill="none" stroke="black" d="M95.25,-24C95.25,-30 89.25,-36 83.25,-36"/>
<text text-anchor="start" x="45" y="-12.5" font-family="Times,serif" font-size="14.00">TITLE:</text>
</a>
</g>
<!-- DIFFERENCE_EQUATIONS&#45;&gt;GAMBLERS_RUIN -->
<g id="edge2" class="edge"><title>DIFFERENCE_EQUATIONS&#45;&gt;GAMBLERS_RUIN</title>
<path fill="none" stroke="black" d="M66,-71.6966C66,-63.9827 66,-54.7125 66,-46.1124"/>
<polygon fill="black" stroke="black" points="69.5001,-46.1043 66,-36.1043 62.5001,-46.1044 69.5001,-46.1043"/>
</g>
</g>
</svg>
