<?xml version="1.0" encoding="UTF-8" standalone="no"?>
<!DOCTYPE svg PUBLIC "-//W3C//DTD SVG 1.1//EN"
 "http://www.w3.org/Graphics/SVG/1.1/DTD/svg11.dtd">
<!-- Generated by graphviz version 2.26.3 (20100126.1600)
 -->
<!-- Title: _anonymous_0 Pages: 1 -->
<svg width="168pt" height="188pt"
 viewBox="0.00 0.00 168.00 188.00" xmlns="http://www.w3.org/2000/svg" xmlns:xlink="http://www.w3.org/1999/xlink">
<g id="graph1" class="graph" transform="scale(1 1) rotate(0) translate(4 184)">
<title>_anonymous_0</title>
<!-- DIFFERENCE_EQUATIONS -->
<g id="node1" class="node"><title>DIFFERENCE_EQUATIONS</title>
<a xlink:href="DIFFERENCE_EQUATIONS.html" xlink:title="Difference equations" target="_top">
<polyline fill="none" stroke="blue" stroke-width="2" points="148,-108 12,-108 "/>
<path fill="none" stroke="blue" stroke-width="2" d="M12,-108C6,-108 7.10543e-14,-102 5.68434e-14,-96"/>
<polyline fill="none" stroke="blue" stroke-width="2" points="5.68434e-14,-96 2.84217e-14,-84 "/>
<path fill="none" stroke="blue" stroke-width="2" d="M2.84217e-14,-84C1.42109e-14,-78 6,-72 12,-72"/>
<polyline fill="none" stroke="blue" stroke-width="2" points="12,-72 148,-72 "/>
<path fill="none" stroke="blue" stroke-width="2" d="M148,-72C154,-72 160,-78 160,-84"/>
<polyline fill="none" stroke="blue" stroke-width="2" points="160,-84 160,-96 "/>
<path fill="none" stroke="blue" stroke-width="2" d="M160,-96C160,-102 154,-108 148,-108"/>
<text text-anchor="start" x="8" y="-87.2333" font-family="Times Roman,serif" font-size="14.00">Difference equations</text>
</a>
</g>
<!-- GAMBLERS_RUIN -->
<g id="node4" class="node"><title>GAMBLERS_RUIN</title>
<a xlink:href="GAMBLERS_RUIN.html" xlink:title="Gamblers ruin" target="_top">
<polyline fill="none" stroke="black" points="125,-36 35,-36 "/>
<path fill="none" stroke="black" d="M35,-36C29,-36 23,-30 23,-24"/>
<polyline fill="none" stroke="black" points="23,-24 23,-12 "/>
<path fill="none" stroke="black" d="M23,-12C23,-6 29,-1.70156e-14 35,-1.62677e-14"/>
<polyline fill="none" stroke="black" points="35,-1.62677e-14 125,-5.04859e-15 "/>
<path fill="none" stroke="black" d="M125,-5.04859e-15C131,-4.30065e-15 137,-6 137,-12"/>
<polyline fill="none" stroke="black" points="137,-12 137,-24 "/>
<path fill="none" stroke="black" d="M137,-24C137,-30 131,-36 125,-36"/>
<text text-anchor="start" x="31" y="-15.2333" font-family="Times Roman,serif" font-size="14.00">Gamblers ruin</text>
</a>
</g>
<!-- DIFFERENCE_EQUATIONS&#45;&gt;GAMBLERS_RUIN -->
<g id="edge4" class="edge"><title>DIFFERENCE_EQUATIONS&#45;&gt;GAMBLERS_RUIN</title>
<path fill="none" stroke="black" d="M80,-71.8314C80,-64.131 80,-54.9743 80,-46.4166"/>
<polygon fill="black" stroke="black" points="83.5001,-46.4132 80,-36.4133 76.5001,-46.4133 83.5001,-46.4132"/>
</g>
<!-- MATRIX_MULTIPLICATION -->
<g id="node2" class="node"><title>MATRIX_MULTIPLICATION</title>
<a xlink:href="MATRIX_MULTIPLICATION.html" xlink:title="Matrix multiplication" target="_top">
<polyline fill="none" stroke="black" points="147,-180 13,-180 "/>
<path fill="none" stroke="black" d="M13,-180C7,-180 1,-174 1,-168"/>
<polyline fill="none" stroke="black" points="1,-168 1,-156 "/>
<path fill="none" stroke="black" d="M1,-156C1,-150 7,-144 13,-144"/>
<polyline fill="none" stroke="black" points="13,-144 147,-144 "/>
<path fill="none" stroke="black" d="M147,-144C153,-144 159,-150 159,-156"/>
<polyline fill="none" stroke="black" points="159,-156 159,-168 "/>
<path fill="none" stroke="black" d="M159,-168C159,-174 153,-180 147,-180"/>
<text text-anchor="start" x="9" y="-159.233" font-family="Times Roman,serif" font-size="14.00">Matrix multiplication</text>
</a>
</g>
<!-- MATRIX_MULTIPLICATION&#45;&gt;DIFFERENCE_EQUATIONS -->
<g id="edge2" class="edge"><title>MATRIX_MULTIPLICATION&#45;&gt;DIFFERENCE_EQUATIONS</title>
<path fill="none" stroke="black" d="M80,-143.831C80,-136.131 80,-126.974 80,-118.417"/>
<polygon fill="black" stroke="black" points="83.5001,-118.413 80,-108.413 76.5001,-118.413 83.5001,-118.413"/>
</g>
</g>
</svg>
