<?xml version="1.0" encoding="UTF-8" standalone="no"?>
<!DOCTYPE svg PUBLIC "-//W3C//DTD SVG 1.1//EN"
 "http://www.w3.org/Graphics/SVG/1.1/DTD/svg11.dtd">
<!-- Generated by graphviz version 2.28.0 (20110509.1545)
 -->
<!-- Title: _anonymous_0 Pages: 1 -->
<svg width="156pt" height="188pt"
 viewBox="0.00 0.00 156.00 188.00" xmlns="http://www.w3.org/2000/svg" xmlns:xlink="http://www.w3.org/1999/xlink">
<g id="graph1" class="graph" transform="scale(1 1) rotate(0) translate(4 184)">
<title>_anonymous_0</title>
<!-- EIGENVECTORS -->
<g id="node1" class="node"><title>EIGENVECTORS</title>
<a xlink:href="EIGENVECTORS.html" xlink:title="Eigendecomposition" target="_top">
<polyline fill="none" stroke="blue" stroke-width="2" points="128,-108 20,-108 "/>
<path fill="none" stroke="blue" stroke-width="2" d="M20,-108C14,-108 8,-102 8,-96"/>
<polyline fill="none" stroke="blue" stroke-width="2" points="8,-96 8,-84 "/>
<path fill="none" stroke="blue" stroke-width="2" d="M8,-84C8,-78 14,-72 20,-72"/>
<polyline fill="none" stroke="blue" stroke-width="2" points="20,-72 128,-72 "/>
<path fill="none" stroke="blue" stroke-width="2" d="M128,-72C134,-72 140,-78 140,-84"/>
<polyline fill="none" stroke="blue" stroke-width="2" points="140,-84 140,-96 "/>
<path fill="none" stroke="blue" stroke-width="2" d="M140,-96C140,-102 134,-108 128,-108"/>
<text text-anchor="start" x="16.5" y="-84.5" font-family="Times,serif" font-size="14.00">Eigendecomposition</text>
</a>
</g>
<!-- STATIONARY_DIST_MARKOV -->
<g id="node4" class="node"><title>STATIONARY_DIST_MARKOV</title>
<a xlink:href="STATIONARY_DIST_MARKOV.html" xlink:title="Ergodic Markov chains" target="_top">
<polyline fill="none" stroke="black" points="136,-36 12,-36 "/>
<path fill="none" stroke="black" d="M12,-36C6,-36 0,-30 0,-24"/>
<polyline fill="none" stroke="black" points="0,-24 0,-12 "/>
<path fill="none" stroke="black" d="M0,-12C0,-6 6,-0 12,-0"/>
<polyline fill="none" stroke="black" points="12,-0 136,-0 "/>
<path fill="none" stroke="black" d="M136,-0C142,-0 148,-6 148,-12"/>
<polyline fill="none" stroke="black" points="148,-12 148,-24 "/>
<path fill="none" stroke="black" d="M148,-24C148,-30 142,-36 136,-36"/>
<text text-anchor="start" x="8.5" y="-12.5" font-family="Times,serif" font-size="14.00">Ergodic Markov chains</text>
</a>
</g>
<!-- EIGENVECTORS&#45;&gt;STATIONARY_DIST_MARKOV -->
<g id="edge4" class="edge"><title>EIGENVECTORS&#45;&gt;STATIONARY_DIST_MARKOV</title>
<path fill="none" stroke="black" d="M74,-71.6966C74,-63.9827 74,-54.7125 74,-46.1124"/>
<polygon fill="black" stroke="black" points="77.5001,-46.1043 74,-36.1043 70.5001,-46.1044 77.5001,-46.1043"/>
</g>
<!-- GAUSSIAN_ELIMINATION -->
<g id="node2" class="node"><title>GAUSSIAN_ELIMINATION</title>
<a xlink:href="GAUSSIAN_ELIMINATION.html" xlink:title="Gaussian Elimination" target="_top">
<polyline fill="none" stroke="black" points="130.25,-180 17.75,-180 "/>
<path fill="none" stroke="black" d="M17.75,-180C11.75,-180 5.75,-174 5.75,-168"/>
<polyline fill="none" stroke="black" points="5.75,-168 5.75,-156 "/>
<path fill="none" stroke="black" d="M5.75,-156C5.75,-150 11.75,-144 17.75,-144"/>
<polyline fill="none" stroke="black" points="17.75,-144 130.25,-144 "/>
<path fill="none" stroke="black" d="M130.25,-144C136.25,-144 142.25,-150 142.25,-156"/>
<polyline fill="none" stroke="black" points="142.25,-156 142.25,-168 "/>
<path fill="none" stroke="black" d="M142.25,-168C142.25,-174 136.25,-180 130.25,-180"/>
<text text-anchor="start" x="14" y="-156.5" font-family="Times,serif" font-size="14.00">Gaussian Elimination</text>
</a>
</g>
<!-- GAUSSIAN_ELIMINATION&#45;&gt;EIGENVECTORS -->
<g id="edge2" class="edge"><title>GAUSSIAN_ELIMINATION&#45;&gt;EIGENVECTORS</title>
<path fill="none" stroke="black" d="M74,-143.697C74,-135.983 74,-126.712 74,-118.112"/>
<polygon fill="black" stroke="black" points="77.5001,-118.104 74,-108.104 70.5001,-118.104 77.5001,-118.104"/>
</g>
</g>
</svg>
