<?xml version="1.0" encoding="UTF-8" standalone="no"?>
<!DOCTYPE svg PUBLIC "-//W3C//DTD SVG 1.1//EN"
 "http://www.w3.org/Graphics/SVG/1.1/DTD/svg11.dtd">
<!-- Generated by graphviz version 2.26.3 (20100126.1600)
 -->
<!-- Title: _anonymous_0 Pages: 1 -->
<svg width="188pt" height="188pt"
 viewBox="0.00 0.00 188.00 188.00" xmlns="http://www.w3.org/2000/svg" xmlns:xlink="http://www.w3.org/1999/xlink">
<g id="graph1" class="graph" transform="scale(1 1) rotate(0) translate(4 184)">
<title>_anonymous_0</title>
<!-- EIGENVECTORS -->
<g id="node1" class="node"><title>EIGENVECTORS</title>
<a xlink:href="EIGENVECTORS.html" xlink:title=" Eigendecomposition " target="_top">
<polyline fill="none" stroke="blue" stroke-width="2" points="159,-108 21,-108 "/>
<path fill="none" stroke="blue" stroke-width="2" d="M21,-108C15,-108 9,-102 9,-96"/>
<polyline fill="none" stroke="blue" stroke-width="2" points="9,-96 9,-84 "/>
<path fill="none" stroke="blue" stroke-width="2" d="M9,-84C9,-78 15,-72 21,-72"/>
<polyline fill="none" stroke="blue" stroke-width="2" points="21,-72 159,-72 "/>
<path fill="none" stroke="blue" stroke-width="2" d="M159,-72C165,-72 171,-78 171,-84"/>
<polyline fill="none" stroke="blue" stroke-width="2" points="171,-84 171,-96 "/>
<path fill="none" stroke="blue" stroke-width="2" d="M171,-96C171,-102 165,-108 159,-108"/>
<text text-anchor="start" x="17" y="-87.2333" font-family="Times Roman,serif" font-size="14.00"> Eigendecomposition </text>
</a>
</g>
<!-- STATIONARY_DIST_MARKOV -->
<g id="node4" class="node"><title>STATIONARY_DIST_MARKOV</title>
<a xlink:href="STATIONARY_DIST_MARKOV.html" xlink:title=" Ergodic Markov chains " target="_top">
<polyline fill="none" stroke="black" points="168,-36 12,-36 "/>
<path fill="none" stroke="black" d="M12,-36C6,-36 7.10543e-14,-30 5.68434e-14,-24"/>
<polyline fill="none" stroke="black" points="5.68434e-14,-24 2.84217e-14,-12 "/>
<path fill="none" stroke="black" d="M2.84217e-14,-12C1.42109e-14,-6 6,-1.72899e-14 12,-1.68162e-14"/>
<polyline fill="none" stroke="black" points="12,-1.68162e-14 168,-4.5001e-15 "/>
<path fill="none" stroke="black" d="M168,-4.5001e-15C174,-4.02641e-15 180,-6 180,-12"/>
<polyline fill="none" stroke="black" points="180,-12 180,-24 "/>
<path fill="none" stroke="black" d="M180,-24C180,-30 174,-36 168,-36"/>
<text text-anchor="start" x="8.5" y="-15.2333" font-family="Times Roman,serif" font-size="14.00"> Ergodic Markov chains </text>
</a>
</g>
<!-- EIGENVECTORS&#45;&gt;STATIONARY_DIST_MARKOV -->
<g id="edge4" class="edge"><title>EIGENVECTORS&#45;&gt;STATIONARY_DIST_MARKOV</title>
<path fill="none" stroke="black" d="M90,-71.8314C90,-64.131 90,-54.9743 90,-46.4166"/>
<polygon fill="black" stroke="black" points="93.5001,-46.4132 90,-36.4133 86.5001,-46.4133 93.5001,-46.4132"/>
</g>
<!-- GAUSSIAN_ELIMINATION -->
<g id="node2" class="node"><title>GAUSSIAN_ELIMINATION</title>
<a xlink:href="GAUSSIAN_ELIMINATION.html" xlink:title=" Gaussian Elimination " target="_top">
<polyline fill="none" stroke="black" points="163,-180 17,-180 "/>
<path fill="none" stroke="black" d="M17,-180C11,-180 5,-174 5,-168"/>
<polyline fill="none" stroke="black" points="5,-168 5,-156 "/>
<path fill="none" stroke="black" d="M5,-156C5,-150 11,-144 17,-144"/>
<polyline fill="none" stroke="black" points="17,-144 163,-144 "/>
<path fill="none" stroke="black" d="M163,-144C169,-144 175,-150 175,-156"/>
<polyline fill="none" stroke="black" points="175,-156 175,-168 "/>
<path fill="none" stroke="black" d="M175,-168C175,-174 169,-180 163,-180"/>
<text text-anchor="start" x="13" y="-159.233" font-family="Times Roman,serif" font-size="14.00"> Gaussian Elimination </text>
</a>
</g>
<!-- GAUSSIAN_ELIMINATION&#45;&gt;EIGENVECTORS -->
<g id="edge2" class="edge"><title>GAUSSIAN_ELIMINATION&#45;&gt;EIGENVECTORS</title>
<path fill="none" stroke="black" d="M90,-143.831C90,-136.131 90,-126.974 90,-118.417"/>
<polygon fill="black" stroke="black" points="93.5001,-118.413 90,-108.413 86.5001,-118.413 93.5001,-118.413"/>
</g>
</g>
</svg>
