<?xml version="1.0" encoding="UTF-8" standalone="no"?>
<!DOCTYPE svg PUBLIC "-//W3C//DTD SVG 1.1//EN"
 "http://www.w3.org/Graphics/SVG/1.1/DTD/svg11.dtd">
<!-- Generated by graphviz version 2.26.3 (20100126.1600)
 -->
<!-- Title: _anonymous_0 Pages: 1 -->
<svg width="178pt" height="188pt"
 viewBox="0.00 0.00 178.00 188.00" xmlns="http://www.w3.org/2000/svg" xmlns:xlink="http://www.w3.org/1999/xlink">
<g id="graph1" class="graph" transform="scale(1 1) rotate(0) translate(4 184)">
<title>_anonymous_0</title>
<!-- EIGENVECTORS -->
<g id="node1" class="node"><title>EIGENVECTORS</title>
<a xlink:href="EIGENVECTORS.html" xlink:title="Eigendecomposition" target="_top">
<polyline fill="none" stroke="blue" stroke-width="2" points="150,-108 20,-108 "/>
<path fill="none" stroke="blue" stroke-width="2" d="M20,-108C14,-108 8,-102 8,-96"/>
<polyline fill="none" stroke="blue" stroke-width="2" points="8,-96 8,-84 "/>
<path fill="none" stroke="blue" stroke-width="2" d="M8,-84C8,-78 14,-72 20,-72"/>
<polyline fill="none" stroke="blue" stroke-width="2" points="20,-72 150,-72 "/>
<path fill="none" stroke="blue" stroke-width="2" d="M150,-72C156,-72 162,-78 162,-84"/>
<polyline fill="none" stroke="blue" stroke-width="2" points="162,-84 162,-96 "/>
<path fill="none" stroke="blue" stroke-width="2" d="M162,-96C162,-102 156,-108 150,-108"/>
<text text-anchor="start" x="16.5" y="-87.2333" font-family="Times Roman,serif" font-size="14.00">Eigendecomposition</text>
</a>
</g>
<!-- STATIONARY_DIST_MARKOV -->
<g id="node4" class="node"><title>STATIONARY_DIST_MARKOV</title>
<a xlink:href="STATIONARY_DIST_MARKOV.html" xlink:title="Ergodic Markov chains" target="_top">
<polyline fill="none" stroke="black" points="158,-36 12,-36 "/>
<path fill="none" stroke="black" d="M12,-36C6,-36 7.10543e-14,-30 5.68434e-14,-24"/>
<polyline fill="none" stroke="black" points="5.68434e-14,-24 2.84217e-14,-12 "/>
<path fill="none" stroke="black" d="M2.84217e-14,-12C1.42109e-14,-6 6,-1.7262e-14 12,-1.67604e-14"/>
<polyline fill="none" stroke="black" points="12,-1.67604e-14 158,-4.55583e-15 "/>
<path fill="none" stroke="black" d="M158,-4.55583e-15C164,-4.05427e-15 170,-6 170,-12"/>
<polyline fill="none" stroke="black" points="170,-12 170,-24 "/>
<path fill="none" stroke="black" d="M170,-24C170,-30 164,-36 158,-36"/>
<text text-anchor="start" x="8" y="-15.2333" font-family="Times Roman,serif" font-size="14.00">Ergodic Markov chains</text>
</a>
</g>
<!-- EIGENVECTORS&#45;&gt;STATIONARY_DIST_MARKOV -->
<g id="edge4" class="edge"><title>EIGENVECTORS&#45;&gt;STATIONARY_DIST_MARKOV</title>
<path fill="none" stroke="black" d="M85,-71.8314C85,-64.131 85,-54.9743 85,-46.4166"/>
<polygon fill="black" stroke="black" points="88.5001,-46.4132 85,-36.4133 81.5001,-46.4133 88.5001,-46.4132"/>
</g>
<!-- GAUSSIAN_ELIMINATION -->
<g id="node2" class="node"><title>GAUSSIAN_ELIMINATION</title>
<a xlink:href="GAUSSIAN_ELIMINATION.html" xlink:title="Gaussian Elimination" target="_top">
<polyline fill="none" stroke="black" points="154,-180 16,-180 "/>
<path fill="none" stroke="black" d="M16,-180C10,-180 4,-174 4,-168"/>
<polyline fill="none" stroke="black" points="4,-168 4,-156 "/>
<path fill="none" stroke="black" d="M4,-156C4,-150 10,-144 16,-144"/>
<polyline fill="none" stroke="black" points="16,-144 154,-144 "/>
<path fill="none" stroke="black" d="M154,-144C160,-144 166,-150 166,-156"/>
<polyline fill="none" stroke="black" points="166,-156 166,-168 "/>
<path fill="none" stroke="black" d="M166,-168C166,-174 160,-180 154,-180"/>
<text text-anchor="start" x="12.5" y="-159.233" font-family="Times Roman,serif" font-size="14.00">Gaussian Elimination</text>
</a>
</g>
<!-- GAUSSIAN_ELIMINATION&#45;&gt;EIGENVECTORS -->
<g id="edge2" class="edge"><title>GAUSSIAN_ELIMINATION&#45;&gt;EIGENVECTORS</title>
<path fill="none" stroke="black" d="M85,-143.831C85,-136.131 85,-126.974 85,-118.417"/>
<polygon fill="black" stroke="black" points="88.5001,-118.413 85,-108.413 81.5001,-118.413 88.5001,-118.413"/>
</g>
</g>
</svg>
