<?xml version="1.0" encoding="UTF-8" standalone="no"?>
<!DOCTYPE svg PUBLIC "-//W3C//DTD SVG 1.1//EN"
 "http://www.w3.org/Graphics/SVG/1.1/DTD/svg11.dtd">
<!-- Generated by graphviz version 2.36.0 (20140111.2315)
 -->
<!-- Title: %3 Pages: 1 -->
<svg width="160pt" height="188pt"
 viewBox="0.00 0.00 160.00 188.00" xmlns="http://www.w3.org/2000/svg" xmlns:xlink="http://www.w3.org/1999/xlink">
<g id="graph0" class="graph" transform="scale(1 1) rotate(0) translate(4 184)">
<title>%3</title>
<!-- EIGENVECTORS -->
<g id="node1" class="node"><title>EIGENVECTORS</title>
<g id="a_node1"><a xlink:href="EIGENVECTORS.html" xlink:title=" Eigendecomposition " target="_top">
<path fill="none" stroke="blue" stroke-width="2" d="M132,-108C132,-108 20,-108 20,-108 14,-108 8,-102 8,-96 8,-96 8,-84 8,-84 8,-78 14,-72 20,-72 20,-72 132,-72 132,-72 138,-72 144,-78 144,-84 144,-84 144,-96 144,-96 144,-102 138,-108 132,-108"/>
<text text-anchor="start" x="16" y="-86.3" font-family="Times,serif" font-size="14.00"> Eigendecomposition </text>
</a>
</g>
</g>
<!-- STATIONARY_DIST_MARKOV -->
<g id="node2" class="node"><title>STATIONARY_DIST_MARKOV</title>
<g id="a_node2"><a xlink:href="STATIONARY_DIST_MARKOV.html" xlink:title=" Ergodic Markov chains " target="_top">
<path fill="none" stroke="black" d="M140,-36C140,-36 12,-36 12,-36 6,-36 0,-30 0,-24 0,-24 0,-12 0,-12 0,-6 6,-0 12,-0 12,-0 140,-0 140,-0 146,-0 152,-6 152,-12 152,-12 152,-24 152,-24 152,-30 146,-36 140,-36"/>
<text text-anchor="start" x="8" y="-14.3" font-family="Times,serif" font-size="14.00"> Ergodic Markov chains </text>
</a>
</g>
</g>
<!-- EIGENVECTORS&#45;&gt;STATIONARY_DIST_MARKOV -->
<g id="edge1" class="edge"><title>EIGENVECTORS&#45;&gt;STATIONARY_DIST_MARKOV</title>
<path fill="none" stroke="black" d="M76,-71.6966C76,-63.9827 76,-54.7125 76,-46.1124"/>
<polygon fill="black" stroke="black" points="79.5001,-46.1043 76,-36.1043 72.5001,-46.1044 79.5001,-46.1043"/>
</g>
<!-- GAUSSIAN_ELIMINATION -->
<g id="node3" class="node"><title>GAUSSIAN_ELIMINATION</title>
<g id="a_node3"><a xlink:href="GAUSSIAN_ELIMINATION.html" xlink:title=" Gaussian Elimination " target="_top">
<path fill="none" stroke="black" d="M135,-180C135,-180 17,-180 17,-180 11,-180 5,-174 5,-168 5,-168 5,-156 5,-156 5,-150 11,-144 17,-144 17,-144 135,-144 135,-144 141,-144 147,-150 147,-156 147,-156 147,-168 147,-168 147,-174 141,-180 135,-180"/>
<text text-anchor="start" x="13" y="-158.3" font-family="Times,serif" font-size="14.00"> Gaussian Elimination </text>
</a>
</g>
</g>
<!-- GAUSSIAN_ELIMINATION&#45;&gt;EIGENVECTORS -->
<g id="edge2" class="edge"><title>GAUSSIAN_ELIMINATION&#45;&gt;EIGENVECTORS</title>
<path fill="none" stroke="black" d="M76,-143.697C76,-135.983 76,-126.712 76,-118.112"/>
<polygon fill="black" stroke="black" points="79.5001,-118.104 76,-108.104 72.5001,-118.104 79.5001,-118.104"/>
</g>
</g>
</svg>
