<?xml version="1.0" encoding="UTF-8" standalone="no"?>
<!DOCTYPE svg PUBLIC "-//W3C//DTD SVG 1.1//EN"
 "http://www.w3.org/Graphics/SVG/1.1/DTD/svg11.dtd">
<!-- Generated by graphviz version 2.36.0 (20140111.2315)
 -->
<!-- Title: %3 Pages: 1 -->
<svg width="382pt" height="116pt"
 viewBox="0.00 0.00 382.00 116.00" xmlns="http://www.w3.org/2000/svg" xmlns:xlink="http://www.w3.org/1999/xlink">
<g id="graph0" class="graph" transform="scale(1 1) rotate(0) translate(4 112)">
<title>%3</title>
<!-- ENHANCED_SAMPLING -->
<g id="node1" class="node"><title>ENHANCED_SAMPLING</title>
<g id="a_node1"><a xlink:href="ENHANCED_SAMPLING.html" xlink:title=" Enhanced sampling " target="_top">
<path fill="none" stroke="blue" stroke-width="2" d="M250.25,-36C250.25,-36 143.75,-36 143.75,-36 137.75,-36 131.75,-30 131.75,-24 131.75,-24 131.75,-12 131.75,-12 131.75,-6 137.75,-0 143.75,-0 143.75,-0 250.25,-0 250.25,-0 256.25,-0 262.25,-6 262.25,-12 262.25,-12 262.25,-24 262.25,-24 262.25,-30 256.25,-36 250.25,-36"/>
<text text-anchor="start" x="139.5" y="-14.3" font-family="Times,serif" font-size="14.00"> Enhanced sampling </text>
</a>
</g>
</g>
<!-- MOLECULAR_DYNAMICS -->
<g id="node2" class="node"><title>MOLECULAR_DYNAMICS</title>
<g id="a_node2"><a xlink:href="MOLECULAR_DYNAMICS.html" xlink:title=" Molecular dynamics simulation " target="_top">
<path fill="none" stroke="black" d="M186,-108C186,-108 12,-108 12,-108 6,-108 0,-102 0,-96 0,-96 0,-84 0,-84 0,-78 6,-72 12,-72 12,-72 186,-72 186,-72 192,-72 198,-78 198,-84 198,-84 198,-96 198,-96 198,-102 192,-108 186,-108"/>
<text text-anchor="start" x="8" y="-86.3" font-family="Times,serif" font-size="14.00"> Molecular dynamics simulation </text>
</a>
</g>
</g>
<!-- MOLECULAR_DYNAMICS&#45;&gt;ENHANCED_SAMPLING -->
<g id="edge1" class="edge"><title>MOLECULAR_DYNAMICS&#45;&gt;ENHANCED_SAMPLING</title>
<path fill="none" stroke="black" d="M122.973,-71.8761C135.55,-62.8931 151.132,-51.7625 164.752,-42.0341"/>
<polygon fill="black" stroke="black" points="166.831,-44.8502 172.934,-36.1898 162.763,-39.1541 166.831,-44.8502"/>
</g>
<!-- MONTE_CARLO -->
<g id="node3" class="node"><title>MONTE_CARLO</title>
<g id="a_node3"><a xlink:href="MONTE_CARLO.html" xlink:title=" Monte Carlo Simulation " target="_top">
<path fill="none" stroke="black" d="M361.5,-108C361.5,-108 228.5,-108 228.5,-108 222.5,-108 216.5,-102 216.5,-96 216.5,-96 216.5,-84 216.5,-84 216.5,-78 222.5,-72 228.5,-72 228.5,-72 361.5,-72 361.5,-72 367.5,-72 373.5,-78 373.5,-84 373.5,-84 373.5,-96 373.5,-96 373.5,-102 367.5,-108 361.5,-108"/>
<text text-anchor="start" x="224" y="-86.3" font-family="Times,serif" font-size="14.00"> Monte Carlo Simulation </text>
</a>
</g>
</g>
<!-- MONTE_CARLO&#45;&gt;ENHANCED_SAMPLING -->
<g id="edge2" class="edge"><title>MONTE_CARLO&#45;&gt;ENHANCED_SAMPLING</title>
<path fill="none" stroke="black" d="M271.027,-71.8761C258.45,-62.8931 242.868,-51.7625 229.248,-42.0341"/>
<polygon fill="black" stroke="black" points="231.237,-39.1541 221.066,-36.1898 227.169,-44.8502 231.237,-39.1541"/>
</g>
</g>
</svg>
