<?xml version="1.0" encoding="UTF-8" standalone="no"?>
<!DOCTYPE svg PUBLIC "-//W3C//DTD SVG 1.1//EN"
 "http://www.w3.org/Graphics/SVG/1.1/DTD/svg11.dtd">
<!-- Generated by graphviz version 2.26.3 (20100126.1600)
 -->
<!-- Title: _anonymous_0 Pages: 1 -->
<svg width="450pt" height="116pt"
 viewBox="0.00 0.00 450.00 116.00" xmlns="http://www.w3.org/2000/svg" xmlns:xlink="http://www.w3.org/1999/xlink">
<g id="graph1" class="graph" transform="scale(1 1) rotate(0) translate(4 112)">
<title>_anonymous_0</title>
<!-- ENHANCED_SAMPLING -->
<g id="node1" class="node"><title>ENHANCED_SAMPLING</title>
<a xlink:href="ENHANCED_SAMPLING.html" xlink:title=" Enhanced sampling " target="_top">
<polyline fill="none" stroke="blue" stroke-width="2" points="300,-36 166,-36 "/>
<path fill="none" stroke="blue" stroke-width="2" d="M166,-36C160,-36 154,-30 154,-24"/>
<polyline fill="none" stroke="blue" stroke-width="2" points="154,-24 154,-12 "/>
<path fill="none" stroke="blue" stroke-width="2" d="M154,-12C154,-6 160,-1.72239e-14 166,-1.66843e-14"/>
<polyline fill="none" stroke="blue" stroke-width="2" points="166,-1.66843e-14 300,-4.63202e-15 "/>
<path fill="none" stroke="blue" stroke-width="2" d="M300,-4.63202e-15C306,-4.09237e-15 312,-6 312,-12"/>
<polyline fill="none" stroke="blue" stroke-width="2" points="312,-12 312,-24 "/>
<path fill="none" stroke="blue" stroke-width="2" d="M312,-24C312,-30 306,-36 300,-36"/>
<text text-anchor="start" x="162" y="-15.2333" font-family="Times Roman,serif" font-size="14.00"> Enhanced sampling </text>
</a>
</g>
<!-- MOLECULAR_DYNAMICS -->
<g id="node2" class="node"><title>MOLECULAR_DYNAMICS</title>
<a xlink:href="MOLECULAR_DYNAMICS.html" xlink:title=" Molecular dynamics simulation " target="_top">
<polyline fill="none" stroke="black" points="224,-108 12,-108 "/>
<path fill="none" stroke="black" d="M12,-108C6,-108 8.28967e-14,-102 6.63173e-14,-96"/>
<polyline fill="none" stroke="black" points="6.63173e-14,-96 3.31587e-14,-84 "/>
<path fill="none" stroke="black" d="M3.31587e-14,-84C1.65793e-14,-78 6,-72 12,-72"/>
<polyline fill="none" stroke="black" points="12,-72 224,-72 "/>
<path fill="none" stroke="black" d="M224,-72C230,-72 236,-78 236,-84"/>
<polyline fill="none" stroke="black" points="236,-84 236,-96 "/>
<path fill="none" stroke="black" d="M236,-96C236,-102 230,-108 224,-108"/>
<text text-anchor="start" x="8" y="-87.2333" font-family="Times Roman,serif" font-size="14.00"> Molecular dynamics simulation </text>
</a>
</g>
<!-- MOLECULAR_DYNAMICS&#45;&gt;ENHANCED_SAMPLING -->
<g id="edge2" class="edge"><title>MOLECULAR_DYNAMICS&#45;&gt;ENHANCED_SAMPLING</title>
<path fill="none" stroke="black" d="M147.019,-71.8314C161.729,-62.6221 179.764,-51.3301 195.512,-41.4706"/>
<polygon fill="black" stroke="black" points="197.371,-44.436 203.99,-36.1628 193.657,-38.5029 197.371,-44.436"/>
</g>
<!-- MONTE_CARLO -->
<g id="node4" class="node"><title>MONTE_CARLO</title>
<a xlink:href="MONTE_CARLO.html" xlink:title=" Monte Carlo Simulation " target="_top">
<polyline fill="none" stroke="black" points="430,-108 266,-108 "/>
<path fill="none" stroke="black" d="M266,-108C260,-108 254,-102 254,-96"/>
<polyline fill="none" stroke="black" points="254,-96 254,-84 "/>
<path fill="none" stroke="black" d="M254,-84C254,-78 260,-72 266,-72"/>
<polyline fill="none" stroke="black" points="266,-72 430,-72 "/>
<path fill="none" stroke="black" d="M430,-72C436,-72 442,-78 442,-84"/>
<polyline fill="none" stroke="black" points="442,-84 442,-96 "/>
<path fill="none" stroke="black" d="M442,-96C442,-102 436,-108 430,-108"/>
<text text-anchor="start" x="262" y="-87.2333" font-family="Times Roman,serif" font-size="14.00"> Monte Carlo Simulation </text>
</a>
</g>
<!-- MONTE_CARLO&#45;&gt;ENHANCED_SAMPLING -->
<g id="edge4" class="edge"><title>MONTE_CARLO&#45;&gt;ENHANCED_SAMPLING</title>
<path fill="none" stroke="black" d="M318.981,-71.8314C304.271,-62.6221 286.236,-51.3301 270.488,-41.4706"/>
<polygon fill="black" stroke="black" points="272.343,-38.5029 262.01,-36.1628 268.629,-44.436 272.343,-38.5029"/>
</g>
</g>
</svg>
