<?xml version="1.0" encoding="UTF-8" standalone="no"?>
<!DOCTYPE svg PUBLIC "-//W3C//DTD SVG 1.1//EN"
 "http://www.w3.org/Graphics/SVG/1.1/DTD/svg11.dtd">
<!-- Generated by graphviz version 2.26.3 (20100126.1600)
 -->
<!-- Title: _anonymous_0 Pages: 1 -->
<svg width="434pt" height="116pt"
 viewBox="0.00 0.00 434.00 116.00" xmlns="http://www.w3.org/2000/svg" xmlns:xlink="http://www.w3.org/1999/xlink">
<g id="graph1" class="graph" transform="scale(1 1) rotate(0) translate(4 112)">
<title>_anonymous_0</title>
<!-- ENHANCED_SAMPLING -->
<g id="node1" class="node"><title>ENHANCED_SAMPLING</title>
<a xlink:href="ENHANCED_SAMPLING.html" xlink:title="Enhanced sampling" target="_top">
<polyline fill="none" stroke="blue" stroke-width="2" points="288,-36 162,-36 "/>
<path fill="none" stroke="blue" stroke-width="2" d="M162,-36C156,-36 150,-30 150,-24"/>
<polyline fill="none" stroke="blue" stroke-width="2" points="150,-24 150,-12 "/>
<path fill="none" stroke="blue" stroke-width="2" d="M150,-12C150,-6 156,-1.71951e-14 162,-1.66267e-14"/>
<polyline fill="none" stroke="blue" stroke-width="2" points="162,-1.66267e-14 288,-4.68958e-15 "/>
<path fill="none" stroke="blue" stroke-width="2" d="M288,-4.68958e-15C294,-4.12115e-15 300,-6 300,-12"/>
<polyline fill="none" stroke="blue" stroke-width="2" points="300,-12 300,-24 "/>
<path fill="none" stroke="blue" stroke-width="2" d="M300,-24C300,-30 294,-36 288,-36"/>
<text text-anchor="start" x="158.5" y="-15.2333" font-family="Times Roman,serif" font-size="14.00">Enhanced sampling</text>
</a>
</g>
<!-- MOLECULAR_DYNAMICS -->
<g id="node2" class="node"><title>MOLECULAR_DYNAMICS</title>
<a xlink:href="MOLECULAR_DYNAMICS.html" xlink:title="Molecular dynamics simulation" target="_top">
<polyline fill="none" stroke="black" points="216,-108 12,-108 "/>
<path fill="none" stroke="black" d="M12,-108C6,-108 8.28967e-14,-102 6.63173e-14,-96"/>
<polyline fill="none" stroke="black" points="6.63173e-14,-96 3.31587e-14,-84 "/>
<path fill="none" stroke="black" d="M3.31587e-14,-84C1.65793e-14,-78 6,-72 12,-72"/>
<polyline fill="none" stroke="black" points="12,-72 216,-72 "/>
<path fill="none" stroke="black" d="M216,-72C222,-72 228,-78 228,-84"/>
<polyline fill="none" stroke="black" points="228,-84 228,-96 "/>
<path fill="none" stroke="black" d="M228,-96C228,-102 222,-108 216,-108"/>
<text text-anchor="start" x="8.5" y="-87.2333" font-family="Times Roman,serif" font-size="14.00">Molecular dynamics simulation</text>
</a>
</g>
<!-- MOLECULAR_DYNAMICS&#45;&gt;ENHANCED_SAMPLING -->
<g id="edge2" class="edge"><title>MOLECULAR_DYNAMICS&#45;&gt;ENHANCED_SAMPLING</title>
<path fill="none" stroke="black" d="M142.01,-71.8314C156.076,-62.7074 173.294,-51.539 188.393,-41.7449"/>
<polygon fill="black" stroke="black" points="190.514,-44.5412 196.999,-36.1628 186.705,-38.6684 190.514,-44.5412"/>
</g>
<!-- MONTE_CARLO -->
<g id="node4" class="node"><title>MONTE_CARLO</title>
<a xlink:href="MONTE_CARLO.html" xlink:title="Monte Carlo Simulation" target="_top">
<polyline fill="none" stroke="black" points="414,-108 258,-108 "/>
<path fill="none" stroke="black" d="M258,-108C252,-108 246,-102 246,-96"/>
<polyline fill="none" stroke="black" points="246,-96 246,-84 "/>
<path fill="none" stroke="black" d="M246,-84C246,-78 252,-72 258,-72"/>
<polyline fill="none" stroke="black" points="258,-72 414,-72 "/>
<path fill="none" stroke="black" d="M414,-72C420,-72 426,-78 426,-84"/>
<polyline fill="none" stroke="black" points="426,-84 426,-96 "/>
<path fill="none" stroke="black" d="M426,-96C426,-102 420,-108 414,-108"/>
<text text-anchor="start" x="254.5" y="-87.2333" font-family="Times Roman,serif" font-size="14.00">Monte Carlo Simulation</text>
</a>
</g>
<!-- MONTE_CARLO&#45;&gt;ENHANCED_SAMPLING -->
<g id="edge4" class="edge"><title>MONTE_CARLO&#45;&gt;ENHANCED_SAMPLING</title>
<path fill="none" stroke="black" d="M307.99,-71.8314C293.924,-62.7074 276.706,-51.539 261.607,-41.7449"/>
<polygon fill="black" stroke="black" points="263.295,-38.6684 253.001,-36.1628 259.486,-44.5412 263.295,-38.6684"/>
</g>
</g>
</svg>
