<?xml version="1.0" encoding="UTF-8" standalone="no"?>
<!DOCTYPE svg PUBLIC "-//W3C//DTD SVG 1.1//EN"
 "http://www.w3.org/Graphics/SVG/1.1/DTD/svg11.dtd">
<!-- Generated by graphviz version 2.36.0 (20140111.2315)
 -->
<!-- Title: %3 Pages: 1 -->
<svg width="382pt" height="116pt"
 viewBox="0.00 0.00 382.00 116.00" xmlns="http://www.w3.org/2000/svg" xmlns:xlink="http://www.w3.org/1999/xlink">
<g id="graph0" class="graph" transform="scale(1 1) rotate(0) translate(4 112)">
<title>%3</title>
<!-- ENHANCED_SAMPLING -->
<g id="node1" class="node"><title>ENHANCED_SAMPLING</title>
<g id="a_node1"><a xlink:href="ENHANCED_SAMPLING.html" xlink:title=" Enhanced sampling " target="_top">
<path fill="none" stroke="blue" stroke-width="2" d="M230.25,-36C230.25,-36 123.75,-36 123.75,-36 117.75,-36 111.75,-30 111.75,-24 111.75,-24 111.75,-12 111.75,-12 111.75,-6 117.75,-0 123.75,-0 123.75,-0 230.25,-0 230.25,-0 236.25,-0 242.25,-6 242.25,-12 242.25,-12 242.25,-24 242.25,-24 242.25,-30 236.25,-36 230.25,-36"/>
<text text-anchor="start" x="119.5" y="-14.3" font-family="Times,serif" font-size="14.00"> Enhanced sampling </text>
</a>
</g>
</g>
<!-- MONTE_CARLO -->
<g id="node2" class="node"><title>MONTE_CARLO</title>
<g id="a_node2"><a xlink:href="MONTE_CARLO.html" xlink:title=" Monte Carlo Simulation " target="_top">
<path fill="none" stroke="black" d="M145.5,-108C145.5,-108 12.5,-108 12.5,-108 6.5,-108 0.5,-102 0.5,-96 0.5,-96 0.5,-84 0.5,-84 0.5,-78 6.5,-72 12.5,-72 12.5,-72 145.5,-72 145.5,-72 151.5,-72 157.5,-78 157.5,-84 157.5,-84 157.5,-96 157.5,-96 157.5,-102 151.5,-108 145.5,-108"/>
<text text-anchor="start" x="8" y="-86.3" font-family="Times,serif" font-size="14.00"> Monte Carlo Simulation </text>
</a>
</g>
</g>
<!-- MONTE_CARLO&#45;&gt;ENHANCED_SAMPLING -->
<g id="edge1" class="edge"><title>MONTE_CARLO&#45;&gt;ENHANCED_SAMPLING</title>
<path fill="none" stroke="black" d="M102.973,-71.8761C115.55,-62.8931 131.132,-51.7625 144.752,-42.0341"/>
<polygon fill="black" stroke="black" points="146.831,-44.8502 152.934,-36.1898 142.763,-39.1541 146.831,-44.8502"/>
</g>
<!-- MOLECULAR_DYNAMICS -->
<g id="node3" class="node"><title>MOLECULAR_DYNAMICS</title>
<g id="a_node3"><a xlink:href="MOLECULAR_DYNAMICS.html" xlink:title=" Molecular dynamics simulation " target="_top">
<path fill="none" stroke="black" d="M362,-108C362,-108 188,-108 188,-108 182,-108 176,-102 176,-96 176,-96 176,-84 176,-84 176,-78 182,-72 188,-72 188,-72 362,-72 362,-72 368,-72 374,-78 374,-84 374,-84 374,-96 374,-96 374,-102 368,-108 362,-108"/>
<text text-anchor="start" x="184" y="-86.3" font-family="Times,serif" font-size="14.00"> Molecular dynamics simulation </text>
</a>
</g>
</g>
<!-- MOLECULAR_DYNAMICS&#45;&gt;ENHANCED_SAMPLING -->
<g id="edge2" class="edge"><title>MOLECULAR_DYNAMICS&#45;&gt;ENHANCED_SAMPLING</title>
<path fill="none" stroke="black" d="M251.027,-71.8761C238.45,-62.8931 222.868,-51.7625 209.248,-42.0341"/>
<polygon fill="black" stroke="black" points="211.237,-39.1541 201.066,-36.1898 207.169,-44.8502 211.237,-39.1541"/>
</g>
</g>
</svg>
