<?xml version="1.0" encoding="UTF-8" standalone="no"?>
<!DOCTYPE svg PUBLIC "-//W3C//DTD SVG 1.1//EN"
 "http://www.w3.org/Graphics/SVG/1.1/DTD/svg11.dtd">
<!-- Generated by graphviz version 2.26.3 (20100126.1600)
 -->
<!-- Title: _anonymous_0 Pages: 1 -->
<svg width="228pt" height="188pt"
 viewBox="0.00 0.00 228.00 188.00" xmlns="http://www.w3.org/2000/svg" xmlns:xlink="http://www.w3.org/1999/xlink">
<g id="graph1" class="graph" transform="scale(1 1) rotate(0) translate(4 184)">
<title>_anonymous_0</title>
<!-- EXACT_DIFFERENTIALS -->
<g id="node1" class="node"><title>EXACT_DIFFERENTIALS</title>
<a xlink:href="EXACT_DIFFERENTIALS.html" xlink:title=" Theory of exact differentials " target="_top">
<polyline fill="none" stroke="blue" stroke-width="2" points="208,-108 12,-108 "/>
<path fill="none" stroke="blue" stroke-width="2" d="M12,-108C6,-108 7.10543e-14,-102 5.68434e-14,-96"/>
<polyline fill="none" stroke="blue" stroke-width="2" points="5.68434e-14,-96 2.84217e-14,-84 "/>
<path fill="none" stroke="blue" stroke-width="2" d="M2.84217e-14,-84C1.42109e-14,-78 6,-72 12,-72"/>
<polyline fill="none" stroke="blue" stroke-width="2" points="12,-72 208,-72 "/>
<path fill="none" stroke="blue" stroke-width="2" d="M208,-72C214,-72 220,-78 220,-84"/>
<polyline fill="none" stroke="blue" stroke-width="2" points="220,-84 220,-96 "/>
<path fill="none" stroke="blue" stroke-width="2" d="M220,-96C220,-102 214,-108 208,-108"/>
<text text-anchor="start" x="8" y="-87.2333" font-family="Times Roman,serif" font-size="14.00"> Theory of exact differentials </text>
</a>
</g>
<!-- THERMODYNAMIC_POTENTIALS -->
<g id="node2" class="node"><title>THERMODYNAMIC_POTENTIALS</title>
<a xlink:href="THERMODYNAMIC_POTENTIALS.html" xlink:title=" Thermodynamic Potentials " target="_top">
<polyline fill="none" stroke="black" points="203,-36 17,-36 "/>
<path fill="none" stroke="black" d="M17,-36C11,-36 5,-30 5,-24"/>
<polyline fill="none" stroke="black" points="5,-24 5,-12 "/>
<path fill="none" stroke="black" d="M5,-12C5,-6 11,-1.73575e-14 17,-1.69515e-14"/>
<polyline fill="none" stroke="black" points="17,-1.69515e-14 203,-4.36476e-15 "/>
<path fill="none" stroke="black" d="M203,-4.36476e-15C209,-3.95874e-15 215,-6 215,-12"/>
<polyline fill="none" stroke="black" points="215,-12 215,-24 "/>
<path fill="none" stroke="black" d="M215,-24C215,-30 209,-36 203,-36"/>
<text text-anchor="start" x="13.5" y="-15.2333" font-family="Times Roman,serif" font-size="14.00"> Thermodynamic Potentials </text>
</a>
</g>
<!-- EXACT_DIFFERENTIALS&#45;&gt;THERMODYNAMIC_POTENTIALS -->
<g id="edge2" class="edge"><title>EXACT_DIFFERENTIALS&#45;&gt;THERMODYNAMIC_POTENTIALS</title>
<path fill="none" stroke="black" d="M110,-71.8314C110,-64.131 110,-54.9743 110,-46.4166"/>
<polygon fill="black" stroke="black" points="113.5,-46.4132 110,-36.4133 106.5,-46.4133 113.5,-46.4132"/>
</g>
<!-- DEFINITION_OF_DERIVATIVE -->
<g id="node4" class="node"><title>DEFINITION_OF_DERIVATIVE</title>
<a xlink:href="DEFINITION_OF_DERIVATIVE.html" xlink:title=" Differentiation " target="_top">
<polyline fill="none" stroke="black" points="162,-180 58,-180 "/>
<path fill="none" stroke="black" d="M58,-180C52,-180 46,-174 46,-168"/>
<polyline fill="none" stroke="black" points="46,-168 46,-156 "/>
<path fill="none" stroke="black" d="M46,-156C46,-150 52,-144 58,-144"/>
<polyline fill="none" stroke="black" points="58,-144 162,-144 "/>
<path fill="none" stroke="black" d="M162,-144C168,-144 174,-150 174,-156"/>
<polyline fill="none" stroke="black" points="174,-156 174,-168 "/>
<path fill="none" stroke="black" d="M174,-168C174,-174 168,-180 162,-180"/>
<text text-anchor="start" x="54.5" y="-159.233" font-family="Times Roman,serif" font-size="14.00"> Differentiation </text>
</a>
</g>
<!-- DEFINITION_OF_DERIVATIVE&#45;&gt;EXACT_DIFFERENTIALS -->
<g id="edge4" class="edge"><title>DEFINITION_OF_DERIVATIVE&#45;&gt;EXACT_DIFFERENTIALS</title>
<path fill="none" stroke="black" d="M110,-143.831C110,-136.131 110,-126.974 110,-118.417"/>
<polygon fill="black" stroke="black" points="113.5,-118.413 110,-108.413 106.5,-118.413 113.5,-118.413"/>
</g>
</g>
</svg>
