<?xml version="1.0" encoding="UTF-8" standalone="no"?>
<!DOCTYPE svg PUBLIC "-//W3C//DTD SVG 1.1//EN"
 "http://www.w3.org/Graphics/SVG/1.1/DTD/svg11.dtd">
<!-- Generated by graphviz version 2.26.3 (20100126.1600)
 -->
<!-- Title: _anonymous_0 Pages: 1 -->
<svg width="220pt" height="188pt"
 viewBox="0.00 0.00 220.00 188.00" xmlns="http://www.w3.org/2000/svg" xmlns:xlink="http://www.w3.org/1999/xlink">
<g id="graph1" class="graph" transform="scale(1 1) rotate(0) translate(4 184)">
<title>_anonymous_0</title>
<!-- EXACT_DIFFERENTIALS -->
<g id="node1" class="node"><title>EXACT_DIFFERENTIALS</title>
<a xlink:href="EXACT_DIFFERENTIALS.html" xlink:title="Theory of exact differentials" target="_top">
<polyline fill="none" stroke="blue" stroke-width="2" points="200,-108 12,-108 "/>
<path fill="none" stroke="blue" stroke-width="2" d="M12,-108C6,-108 5.92119e-14,-102 4.73695e-14,-96"/>
<polyline fill="none" stroke="blue" stroke-width="2" points="4.73695e-14,-96 2.36848e-14,-84 "/>
<path fill="none" stroke="blue" stroke-width="2" d="M2.36848e-14,-84C1.18424e-14,-78 6,-72 12,-72"/>
<polyline fill="none" stroke="blue" stroke-width="2" points="12,-72 200,-72 "/>
<path fill="none" stroke="blue" stroke-width="2" d="M200,-72C206,-72 212,-78 212,-84"/>
<polyline fill="none" stroke="blue" stroke-width="2" points="212,-84 212,-96 "/>
<path fill="none" stroke="blue" stroke-width="2" d="M212,-96C212,-102 206,-108 200,-108"/>
<text text-anchor="start" x="8.5" y="-87.2333" font-family="Times Roman,serif" font-size="14.00">Theory of exact differentials</text>
</a>
</g>
<!-- THERMODYNAMIC_POTENTIALS -->
<g id="node4" class="node"><title>THERMODYNAMIC_POTENTIALS</title>
<a xlink:href="THERMODYNAMIC_POTENTIALS.html" xlink:title="Thermodynamic Potentials" target="_top">
<polyline fill="none" stroke="black" points="194,-36 18,-36 "/>
<path fill="none" stroke="black" d="M18,-36C12,-36 6,-30 6,-24"/>
<polyline fill="none" stroke="black" points="6,-24 6,-12 "/>
<path fill="none" stroke="black" d="M6,-12C6,-6 12,-1.73372e-14 18,-1.69109e-14"/>
<polyline fill="none" stroke="black" points="18,-1.69109e-14 194,-4.40536e-15 "/>
<path fill="none" stroke="black" d="M194,-4.40536e-15C200,-3.97904e-15 206,-6 206,-12"/>
<polyline fill="none" stroke="black" points="206,-12 206,-24 "/>
<path fill="none" stroke="black" d="M206,-24C206,-30 200,-36 194,-36"/>
<text text-anchor="start" x="14" y="-15.2333" font-family="Times Roman,serif" font-size="14.00">Thermodynamic Potentials</text>
</a>
</g>
<!-- EXACT_DIFFERENTIALS&#45;&gt;THERMODYNAMIC_POTENTIALS -->
<g id="edge4" class="edge"><title>EXACT_DIFFERENTIALS&#45;&gt;THERMODYNAMIC_POTENTIALS</title>
<path fill="none" stroke="black" d="M106,-71.8314C106,-64.131 106,-54.9743 106,-46.4166"/>
<polygon fill="black" stroke="black" points="109.5,-46.4132 106,-36.4133 102.5,-46.4133 109.5,-46.4132"/>
</g>
<!-- DEFINITION_OF_DERIVATIVE -->
<g id="node2" class="node"><title>DEFINITION_OF_DERIVATIVE</title>
<a xlink:href="DEFINITION_OF_DERIVATIVE.html" xlink:title="Differentiation" target="_top">
<polyline fill="none" stroke="black" points="153,-180 59,-180 "/>
<path fill="none" stroke="black" d="M59,-180C53,-180 47,-174 47,-168"/>
<polyline fill="none" stroke="black" points="47,-168 47,-156 "/>
<path fill="none" stroke="black" d="M47,-156C47,-150 53,-144 59,-144"/>
<polyline fill="none" stroke="black" points="59,-144 153,-144 "/>
<path fill="none" stroke="black" d="M153,-144C159,-144 165,-150 165,-156"/>
<polyline fill="none" stroke="black" points="165,-156 165,-168 "/>
<path fill="none" stroke="black" d="M165,-168C165,-174 159,-180 153,-180"/>
<text text-anchor="start" x="55" y="-159.233" font-family="Times Roman,serif" font-size="14.00">Differentiation</text>
</a>
</g>
<!-- DEFINITION_OF_DERIVATIVE&#45;&gt;EXACT_DIFFERENTIALS -->
<g id="edge2" class="edge"><title>DEFINITION_OF_DERIVATIVE&#45;&gt;EXACT_DIFFERENTIALS</title>
<path fill="none" stroke="black" d="M106,-143.831C106,-136.131 106,-126.974 106,-118.417"/>
<polygon fill="black" stroke="black" points="109.5,-118.413 106,-108.413 102.5,-118.413 109.5,-118.413"/>
</g>
</g>
</svg>
