<?xml version="1.0" encoding="UTF-8" standalone="no"?>
<!DOCTYPE svg PUBLIC "-//W3C//DTD SVG 1.1//EN"
 "http://www.w3.org/Graphics/SVG/1.1/DTD/svg11.dtd">
<!-- Generated by graphviz version 2.26.3 (20100126.1600)
 -->
<!-- Title: _anonymous_0 Pages: 1 -->
<svg width="585pt" height="332pt"
 viewBox="0.00 0.00 585.00 332.00" xmlns="http://www.w3.org/2000/svg" xmlns:xlink="http://www.w3.org/1999/xlink">
<g id="graph1" class="graph" transform="scale(1 1) rotate(0) translate(4 328)">
<title>_anonymous_0</title>
<!-- EXPECTATION -->
<g id="node1" class="node"><title>EXPECTATION</title>
<a xlink:href="EXPECTATION.html" xlink:title=" Expectation &#160;" target="_top">
<polyline fill="none" stroke="blue" stroke-width="2" points="384,-252 296,-252 "/>
<path fill="none" stroke="blue" stroke-width="2" d="M296,-252C290,-252 284,-246 284,-240"/>
<polyline fill="none" stroke="blue" stroke-width="2" points="284,-240 284,-228 "/>
<path fill="none" stroke="blue" stroke-width="2" d="M284,-228C284,-222 290,-216 296,-216"/>
<polyline fill="none" stroke="blue" stroke-width="2" points="296,-216 384,-216 "/>
<path fill="none" stroke="blue" stroke-width="2" d="M384,-216C390,-216 396,-222 396,-228"/>
<polyline fill="none" stroke="blue" stroke-width="2" points="396,-228 396,-240 "/>
<path fill="none" stroke="blue" stroke-width="2" d="M396,-240C396,-246 390,-252 384,-252"/>
<text text-anchor="start" x="292" y="-231.233" font-family="Times Roman,serif" font-size="14.00"> Expectation &#160;</text>
</a>
</g>
<!-- BERNOULI_RANDOM_VARIABLE -->
<g id="node4" class="node"><title>BERNOULI_RANDOM_VARIABLE</title>
<a xlink:href="BERNOULI_RANDOM_VARIABLE.html" xlink:title=" Bernoulli random variable " target="_top">
<polyline fill="none" stroke="black" points="192,-180 12,-180 "/>
<path fill="none" stroke="black" d="M12,-180C6,-180 8.28967e-14,-174 6.63173e-14,-168"/>
<polyline fill="none" stroke="black" points="6.63173e-14,-168 3.31587e-14,-156 "/>
<path fill="none" stroke="black" d="M3.31587e-14,-156C1.65793e-14,-150 6,-144 12,-144"/>
<polyline fill="none" stroke="black" points="12,-144 192,-144 "/>
<path fill="none" stroke="black" d="M192,-144C198,-144 204,-150 204,-156"/>
<polyline fill="none" stroke="black" points="204,-156 204,-168 "/>
<path fill="none" stroke="black" d="M204,-168C204,-174 198,-180 192,-180"/>
<text text-anchor="start" x="8.5" y="-159.233" font-family="Times Roman,serif" font-size="14.00"> Bernoulli random variable </text>
</a>
</g>
<!-- EXPECTATION&#45;&gt;BERNOULI_RANDOM_VARIABLE -->
<g id="edge4" class="edge"><title>EXPECTATION&#45;&gt;BERNOULI_RANDOM_VARIABLE</title>
<path fill="none" stroke="black" d="M283.899,-217.028C250.359,-206.882 207.464,-193.905 171.753,-183.102"/>
<polygon fill="black" stroke="black" points="172.47,-179.662 161.885,-180.117 170.443,-186.362 172.47,-179.662"/>
</g>
<!-- VARIANCE -->
<g id="node6" class="node"><title>VARIANCE</title>
<a xlink:href="VARIANCE.html" xlink:title=" Variance &#160;" target="_top">
<polyline fill="none" stroke="black" points="300,-180 234,-180 "/>
<path fill="none" stroke="black" d="M234,-180C228,-180 222,-174 222,-168"/>
<polyline fill="none" stroke="black" points="222,-168 222,-156 "/>
<path fill="none" stroke="black" d="M222,-156C222,-150 228,-144 234,-144"/>
<polyline fill="none" stroke="black" points="234,-144 300,-144 "/>
<path fill="none" stroke="black" d="M300,-144C306,-144 312,-150 312,-156"/>
<polyline fill="none" stroke="black" points="312,-156 312,-168 "/>
<path fill="none" stroke="black" d="M312,-168C312,-174 306,-180 300,-180"/>
<text text-anchor="start" x="230.5" y="-159.233" font-family="Times Roman,serif" font-size="14.00"> Variance &#160;</text>
</a>
</g>
<!-- EXPECTATION&#45;&gt;VARIANCE -->
<g id="edge6" class="edge"><title>EXPECTATION&#45;&gt;VARIANCE</title>
<path fill="none" stroke="black" d="M321.579,-215.831C312.847,-207.219 302.268,-196.785 292.758,-187.405"/>
<polygon fill="black" stroke="black" points="294.993,-184.693 285.415,-180.163 290.077,-189.677 294.993,-184.693"/>
</g>
<!-- CONDITIONAL_EXPECTATION -->
<g id="node8" class="node"><title>CONDITIONAL_EXPECTATION</title>
<a xlink:href="CONDITIONAL_EXPECTATION.html" xlink:title=" Conditional expectation " target="_top">
<polyline fill="none" stroke="black" points="247,-108 81,-108 "/>
<path fill="none" stroke="black" d="M81,-108C75,-108 69,-102 69,-96"/>
<polyline fill="none" stroke="black" points="69,-96 69,-84 "/>
<path fill="none" stroke="black" d="M69,-84C69,-78 75,-72 81,-72"/>
<polyline fill="none" stroke="black" points="81,-72 247,-72 "/>
<path fill="none" stroke="black" d="M247,-72C253,-72 259,-78 259,-84"/>
<polyline fill="none" stroke="black" points="259,-84 259,-96 "/>
<path fill="none" stroke="black" d="M259,-96C259,-102 253,-108 247,-108"/>
<text text-anchor="start" x="77.5" y="-87.2333" font-family="Times Roman,serif" font-size="14.00"> Conditional expectation </text>
</a>
</g>
<!-- EXPECTATION&#45;&gt;CONDITIONAL_EXPECTATION -->
<g id="edge8" class="edge"><title>EXPECTATION&#45;&gt;CONDITIONAL_EXPECTATION</title>
<path fill="none" stroke="black" d="M341.115,-215.815C341.332,-195.809 338.555,-163.863 321,-144 310.448,-132.06 279.726,-120.361 248.225,-110.922"/>
<polygon fill="black" stroke="black" points="249.025,-107.51 238.445,-108.068 247.064,-114.23 249.025,-107.51"/>
</g>
<!-- LAW_OF_LARGE_NUMBERS -->
<g id="node11" class="node"><title>LAW_OF_LARGE_NUMBERS</title>
<a xlink:href="LAW_OF_LARGE_NUMBERS.html" xlink:title=" The law of large numbers " target="_top">
<polyline fill="none" stroke="black" points="467,-108 289,-108 "/>
<path fill="none" stroke="black" d="M289,-108C283,-108 277,-102 277,-96"/>
<polyline fill="none" stroke="black" points="277,-96 277,-84 "/>
<path fill="none" stroke="black" d="M277,-84C277,-78 283,-72 289,-72"/>
<polyline fill="none" stroke="black" points="289,-72 467,-72 "/>
<path fill="none" stroke="black" d="M467,-72C473,-72 479,-78 479,-84"/>
<polyline fill="none" stroke="black" points="479,-84 479,-96 "/>
<path fill="none" stroke="black" d="M479,-96C479,-102 473,-108 467,-108"/>
<text text-anchor="start" x="285" y="-87.2333" font-family="Times Roman,serif" font-size="14.00"> The law of large numbers </text>
</a>
</g>
<!-- EXPECTATION&#45;&gt;LAW_OF_LARGE_NUMBERS -->
<g id="edge12" class="edge"><title>EXPECTATION&#45;&gt;LAW_OF_LARGE_NUMBERS</title>
<path fill="none" stroke="black" d="M344.813,-215.762C351.323,-191.093 362.995,-146.86 370.618,-117.973"/>
<polygon fill="black" stroke="black" points="374.059,-118.652 373.226,-108.09 367.291,-116.866 374.059,-118.652"/>
</g>
<!-- MOMENT_GENERATING_FUNCTION -->
<g id="node13" class="node"><title>MOMENT_GENERATING_FUNCTION</title>
<a xlink:href="MOMENT_GENERATING_FUNCTION.html" xlink:title=" The moment generating function " target="_top">
<polyline fill="none" stroke="black" points="450,-36 220,-36 "/>
<path fill="none" stroke="black" d="M220,-36C214,-36 208,-30 208,-24"/>
<polyline fill="none" stroke="black" points="208,-24 208,-12 "/>
<path fill="none" stroke="black" d="M208,-12C208,-6 214,-1.74279e-14 220,-1.70922e-14"/>
<polyline fill="none" stroke="black" points="220,-1.70922e-14 450,-4.22409e-15 "/>
<path fill="none" stroke="black" d="M450,-4.22409e-15C456,-3.8884e-15 462,-6 462,-12"/>
<polyline fill="none" stroke="black" points="462,-12 462,-24 "/>
<path fill="none" stroke="black" d="M462,-24C462,-30 456,-36 450,-36"/>
<text text-anchor="start" x="216" y="-15.2333" font-family="Times Roman,serif" font-size="14.00"> The moment generating function </text>
</a>
</g>
<!-- EXPECTATION&#45;&gt;MOMENT_GENERATING_FUNCTION -->
<g id="edge14" class="edge"><title>EXPECTATION&#45;&gt;MOMENT_GENERATING_FUNCTION</title>
<path fill="none" stroke="black" d="M379.062,-215.877C435.335,-187.239 528.265,-128.91 488,-72 479.265,-59.6541 450.939,-48.1646 420.995,-38.9851"/>
<polygon fill="black" stroke="black" points="421.821,-35.5794 411.238,-36.0877 419.828,-42.2897 421.821,-35.5794"/>
</g>
<!-- RANDOM_VARIABLES -->
<g id="node2" class="node"><title>RANDOM_VARIABLES</title>
<a xlink:href="RANDOM_VARIABLES.html" xlink:title=" Random variables " target="_top">
<polyline fill="none" stroke="black" points="293,-324 169,-324 "/>
<path fill="none" stroke="black" d="M169,-324C163,-324 157,-318 157,-312"/>
<polyline fill="none" stroke="black" points="157,-312 157,-300 "/>
<path fill="none" stroke="black" d="M157,-300C157,-294 163,-288 169,-288"/>
<polyline fill="none" stroke="black" points="169,-288 293,-288 "/>
<path fill="none" stroke="black" d="M293,-288C299,-288 305,-294 305,-300"/>
<polyline fill="none" stroke="black" points="305,-300 305,-312 "/>
<path fill="none" stroke="black" d="M305,-312C305,-318 299,-324 293,-324"/>
<text text-anchor="start" x="165" y="-303.233" font-family="Times Roman,serif" font-size="14.00"> Random variables </text>
</a>
</g>
<!-- RANDOM_VARIABLES&#45;&gt;EXPECTATION -->
<g id="edge2" class="edge"><title>RANDOM_VARIABLES&#45;&gt;EXPECTATION</title>
<path fill="none" stroke="black" d="M258.505,-287.831C272.318,-278.707 289.226,-267.539 304.053,-257.745"/>
<polygon fill="black" stroke="black" points="306.089,-260.595 312.503,-252.163 302.23,-254.754 306.089,-260.595"/>
</g>
<!-- BERNOULI_RANDOM_VARIABLE&#45;&gt;CONDITIONAL_EXPECTATION -->
<!-- CONDITIONAL_EXPECTATION&#45;&gt;MOMENT_GENERATING_FUNCTION -->
<!-- SUMMATIONS -->
<g id="node16" class="node"><title>SUMMATIONS</title>
<a xlink:href="SUMMATIONS.html" xlink:title=" Summation and product notation " target="_top">
<polyline fill="none" stroke="black" points="565,-324 335,-324 "/>
<path fill="none" stroke="black" d="M335,-324C329,-324 323,-318 323,-312"/>
<polyline fill="none" stroke="black" points="323,-312 323,-300 "/>
<path fill="none" stroke="black" d="M323,-300C323,-294 329,-288 335,-288"/>
<polyline fill="none" stroke="black" points="335,-288 565,-288 "/>
<path fill="none" stroke="black" d="M565,-288C571,-288 577,-294 577,-300"/>
<polyline fill="none" stroke="black" points="577,-300 577,-312 "/>
<path fill="none" stroke="black" d="M577,-312C577,-318 571,-324 565,-324"/>
<text text-anchor="start" x="331" y="-303.233" font-family="Times Roman,serif" font-size="14.00"> Summation and product notation </text>
</a>
</g>
<!-- SUMMATIONS&#45;&gt;EXPECTATION -->
<g id="edge18" class="edge"><title>SUMMATIONS&#45;&gt;EXPECTATION</title>
<path fill="none" stroke="black" d="M422.242,-287.831C408.303,-278.707 391.24,-267.539 376.277,-257.745"/>
<polygon fill="black" stroke="black" points="378.033,-254.711 367.749,-252.163 374.199,-260.568 378.033,-254.711"/>
</g>
</g>
</svg>
