<?xml version="1.0" encoding="UTF-8" standalone="no"?>
<!DOCTYPE svg PUBLIC "-//W3C//DTD SVG 1.1//EN"
 "http://www.w3.org/Graphics/SVG/1.1/DTD/svg11.dtd">
<!-- Generated by graphviz version 2.36.0 (20140111.2315)
 -->
<!-- Title: %3 Pages: 1 -->
<svg width="438pt" height="332pt"
 viewBox="0.00 0.00 438.00 332.00" xmlns="http://www.w3.org/2000/svg" xmlns:xlink="http://www.w3.org/1999/xlink">
<g id="graph0" class="graph" transform="scale(1 1) rotate(0) translate(4 328)">
<title>%3</title>
<!-- EXPECTATION -->
<g id="node1" class="node"><title>EXPECTATION</title>
<g id="a_node1"><a xlink:href="EXPECTATION.html" xlink:title=" Expectation &#160;" target="_top">
<path fill="none" stroke="blue" stroke-width="2" d="M311,-252C311,-252 243,-252 243,-252 237,-252 231,-246 231,-240 231,-240 231,-228 231,-228 231,-222 237,-216 243,-216 243,-216 311,-216 311,-216 317,-216 323,-222 323,-228 323,-228 323,-240 323,-240 323,-246 317,-252 311,-252"/>
<text text-anchor="start" x="239" y="-230.3" font-family="Times,serif" font-size="14.00"> Expectation &#160;</text>
</a>
</g>
</g>
<!-- VARIANCE -->
<g id="node2" class="node"><title>VARIANCE</title>
<g id="a_node2"><a xlink:href="VARIANCE.html" xlink:title=" Variance &#160;" target="_top">
<path fill="none" stroke="black" d="M64.25,-180C64.25,-180 11.75,-180 11.75,-180 5.75,-180 -0.25,-174 -0.25,-168 -0.25,-168 -0.25,-156 -0.25,-156 -0.25,-150 5.75,-144 11.75,-144 11.75,-144 64.25,-144 64.25,-144 70.25,-144 76.25,-150 76.25,-156 76.25,-156 76.25,-168 76.25,-168 76.25,-174 70.25,-180 64.25,-180"/>
<text text-anchor="start" x="7.5" y="-158.3" font-family="Times,serif" font-size="14.00"> Variance &#160;</text>
</a>
</g>
</g>
<!-- EXPECTATION&#45;&gt;VARIANCE -->
<g id="edge1" class="edge"><title>EXPECTATION&#45;&gt;VARIANCE</title>
<path fill="none" stroke="black" d="M230.81,-221.149C191.961,-210.951 135.064,-195.475 86,-180 85.9025,-179.969 85.8049,-179.938 85.7073,-179.908"/>
<polygon fill="black" stroke="black" points="87.0255,-176.656 76.433,-176.877 84.8513,-183.31 87.0255,-176.656"/>
</g>
<!-- CONDITIONAL_EXPECTATION -->
<g id="node4" class="node"><title>CONDITIONAL_EXPECTATION</title>
<g id="a_node4"><a xlink:href="CONDITIONAL_EXPECTATION.html" xlink:title=" Conditional expectation " target="_top">
<path fill="none" stroke="black" d="M237,-180C237,-180 107,-180 107,-180 101,-180 95,-174 95,-168 95,-168 95,-156 95,-156 95,-150 101,-144 107,-144 107,-144 237,-144 237,-144 243,-144 249,-150 249,-156 249,-156 249,-168 249,-168 249,-174 243,-180 237,-180"/>
<text text-anchor="start" x="103" y="-158.3" font-family="Times,serif" font-size="14.00"> Conditional expectation </text>
</a>
</g>
</g>
<!-- EXPECTATION&#45;&gt;CONDITIONAL_EXPECTATION -->
<g id="edge3" class="edge"><title>EXPECTATION&#45;&gt;CONDITIONAL_EXPECTATION</title>
<path fill="none" stroke="black" d="M251.314,-215.876C237.712,-206.808 220.828,-195.552 206.139,-185.759"/>
<polygon fill="black" stroke="black" points="208.047,-182.825 197.785,-180.19 204.164,-188.649 208.047,-182.825"/>
</g>
<!-- MOMENT_GENERATING_FUNCTION -->
<g id="node6" class="node"><title>MOMENT_GENERATING_FUNCTION</title>
<g id="a_node6"><a xlink:href="MOMENT_GENERATING_FUNCTION.html" xlink:title=" The moment generating function " target="_top">
<path fill="none" stroke="black" d="M200.5,-108C200.5,-108 21.5,-108 21.5,-108 15.5,-108 9.5,-102 9.5,-96 9.5,-96 9.5,-84 9.5,-84 9.5,-78 15.5,-72 21.5,-72 21.5,-72 200.5,-72 200.5,-72 206.5,-72 212.5,-78 212.5,-84 212.5,-84 212.5,-96 212.5,-96 212.5,-102 206.5,-108 200.5,-108"/>
<text text-anchor="start" x="17" y="-86.3" font-family="Times,serif" font-size="14.00"> The moment generating function </text>
</a>
</g>
</g>
<!-- EXPECTATION&#45;&gt;MOMENT_GENERATING_FUNCTION -->
<g id="edge5" class="edge"><title>EXPECTATION&#45;&gt;MOMENT_GENERATING_FUNCTION</title>
<path fill="none" stroke="black" d="M277.995,-215.77C278.182,-196.078 275.453,-163.998 258,-144 245.733,-129.945 229.45,-119.616 212.193,-112.026"/>
<polygon fill="black" stroke="black" points="213.106,-108.619 202.525,-108.085 210.464,-115.101 213.106,-108.619"/>
</g>
<!-- BERNOULI_RANDOM_VARIABLE -->
<g id="node7" class="node"><title>BERNOULI_RANDOM_VARIABLE</title>
<g id="a_node7"><a xlink:href="BERNOULI_RANDOM_VARIABLE.html" xlink:title=" Bernoulli random variable " target="_top">
<path fill="none" stroke="black" d="M386.5,-108C386.5,-108 243.5,-108 243.5,-108 237.5,-108 231.5,-102 231.5,-96 231.5,-96 231.5,-84 231.5,-84 231.5,-78 237.5,-72 243.5,-72 243.5,-72 386.5,-72 386.5,-72 392.5,-72 398.5,-78 398.5,-84 398.5,-84 398.5,-96 398.5,-96 398.5,-102 392.5,-108 386.5,-108"/>
<text text-anchor="start" x="239" y="-86.3" font-family="Times,serif" font-size="14.00"> Bernoulli random variable </text>
</a>
</g>
</g>
<!-- EXPECTATION&#45;&gt;BERNOULI_RANDOM_VARIABLE -->
<g id="edge7" class="edge"><title>EXPECTATION&#45;&gt;BERNOULI_RANDOM_VARIABLE</title>
<path fill="none" stroke="black" d="M281.584,-215.871C288.089,-191.564 300.063,-146.819 307.771,-118.013"/>
<polygon fill="black" stroke="black" points="311.196,-118.754 310.4,-108.189 304.434,-116.945 311.196,-118.754"/>
</g>
<!-- LAW_OF_LARGE_NUMBERS -->
<g id="node8" class="node"><title>LAW_OF_LARGE_NUMBERS</title>
<g id="a_node8"><a xlink:href="LAW_OF_LARGE_NUMBERS.html" xlink:title=" The law of large numbers " target="_top">
<path fill="none" stroke="black" d="M339.25,-36C339.25,-36 198.75,-36 198.75,-36 192.75,-36 186.75,-30 186.75,-24 186.75,-24 186.75,-12 186.75,-12 186.75,-6 192.75,-0 198.75,-0 198.75,-0 339.25,-0 339.25,-0 345.25,-0 351.25,-6 351.25,-12 351.25,-12 351.25,-24 351.25,-24 351.25,-30 345.25,-36 339.25,-36"/>
<text text-anchor="start" x="194.5" y="-14.3" font-family="Times,serif" font-size="14.00"> The law of large numbers </text>
</a>
</g>
</g>
<!-- EXPECTATION&#45;&gt;LAW_OF_LARGE_NUMBERS -->
<g id="edge8" class="edge"><title>EXPECTATION&#45;&gt;LAW_OF_LARGE_NUMBERS</title>
<path fill="none" stroke="black" d="M309.333,-215.823C359.07,-187.109 444.844,-127.073 407,-72 395.86,-55.789 379.022,-44.5341 360.896,-36.7209"/>
<polygon fill="black" stroke="black" points="361.91,-33.3582 351.323,-32.9408 359.339,-39.869 361.91,-33.3582"/>
</g>
<!-- VARIANCE&#45;&gt;MOMENT_GENERATING_FUNCTION -->
<!-- SUMMATIONS -->
<g id="node3" class="node"><title>SUMMATIONS</title>
<g id="a_node3"><a xlink:href="SUMMATIONS.html" xlink:title=" Summation and product notation " target="_top">
<path fill="none" stroke="black" d="M275.5,-324C275.5,-324 96.5,-324 96.5,-324 90.5,-324 84.5,-318 84.5,-312 84.5,-312 84.5,-300 84.5,-300 84.5,-294 90.5,-288 96.5,-288 96.5,-288 275.5,-288 275.5,-288 281.5,-288 287.5,-294 287.5,-300 287.5,-300 287.5,-312 287.5,-312 287.5,-318 281.5,-324 275.5,-324"/>
<text text-anchor="start" x="92" y="-302.3" font-family="Times,serif" font-size="14.00"> Summation and product notation </text>
</a>
</g>
</g>
<!-- SUMMATIONS&#45;&gt;EXPECTATION -->
<g id="edge2" class="edge"><title>SUMMATIONS&#45;&gt;EXPECTATION</title>
<path fill="none" stroke="black" d="M208.494,-287.697C219.955,-278.881 234.058,-268.032 246.484,-258.474"/>
<polygon fill="black" stroke="black" points="248.972,-260.976 254.764,-252.104 244.704,-255.427 248.972,-260.976"/>
</g>
<!-- RANDOM_VARIABLES -->
<g id="node5" class="node"><title>RANDOM_VARIABLES</title>
<g id="a_node5"><a xlink:href="RANDOM_VARIABLES.html" xlink:title=" Random variables " target="_top">
<path fill="none" stroke="black" d="M417.25,-324C417.25,-324 318.75,-324 318.75,-324 312.75,-324 306.75,-318 306.75,-312 306.75,-312 306.75,-300 306.75,-300 306.75,-294 312.75,-288 318.75,-288 318.75,-288 417.25,-288 417.25,-288 423.25,-288 429.25,-294 429.25,-300 429.25,-300 429.25,-312 429.25,-312 429.25,-318 423.25,-324 417.25,-324"/>
<text text-anchor="start" x="314.5" y="-302.3" font-family="Times,serif" font-size="14.00"> Random variables </text>
</a>
</g>
</g>
<!-- RANDOM_VARIABLES&#45;&gt;EXPECTATION -->
<g id="edge4" class="edge"><title>RANDOM_VARIABLES&#45;&gt;EXPECTATION</title>
<path fill="none" stroke="black" d="M345.506,-287.697C334.045,-278.881 319.942,-268.032 307.516,-258.474"/>
<polygon fill="black" stroke="black" points="309.296,-255.427 299.236,-252.104 305.028,-260.976 309.296,-255.427"/>
</g>
<!-- MOMENT_GENERATING_FUNCTION&#45;&gt;LAW_OF_LARGE_NUMBERS -->
</g>
</svg>
