<?xml version="1.0" encoding="UTF-8" standalone="no"?>
<!DOCTYPE svg PUBLIC "-//W3C//DTD SVG 1.1//EN"
 "http://www.w3.org/Graphics/SVG/1.1/DTD/svg11.dtd">
<!-- Generated by graphviz version 2.26.3 (20100126.1600)
 -->
<!-- Title: _anonymous_0 Pages: 1 -->
<svg width="671pt" height="332pt"
 viewBox="0.00 0.00 671.00 332.00" xmlns="http://www.w3.org/2000/svg" xmlns:xlink="http://www.w3.org/1999/xlink">
<g id="graph1" class="graph" transform="scale(1 1) rotate(0) translate(4 328)">
<title>_anonymous_0</title>
<!-- EXPECTATION -->
<g id="node1" class="node"><title>EXPECTATION</title>
<a xlink:href="EXPECTATION.html" xlink:title="Expectation " target="_top">
<polyline fill="none" stroke="blue" stroke-width="2" points="474,-252 394,-252 "/>
<path fill="none" stroke="blue" stroke-width="2" d="M394,-252C388,-252 382,-246 382,-240"/>
<polyline fill="none" stroke="blue" stroke-width="2" points="382,-240 382,-228 "/>
<path fill="none" stroke="blue" stroke-width="2" d="M382,-228C382,-222 388,-216 394,-216"/>
<polyline fill="none" stroke="blue" stroke-width="2" points="394,-216 474,-216 "/>
<path fill="none" stroke="blue" stroke-width="2" d="M474,-216C480,-216 486,-222 486,-228"/>
<polyline fill="none" stroke="blue" stroke-width="2" points="486,-228 486,-240 "/>
<path fill="none" stroke="blue" stroke-width="2" d="M486,-240C486,-246 480,-252 474,-252"/>
<text text-anchor="start" x="390.5" y="-231.233" font-family="Times Roman,serif" font-size="14.00">Expectation </text>
</a>
</g>
<!-- BERNOULI_RANDOM_VARIABLE -->
<g id="node2" class="node"><title>BERNOULI_RANDOM_VARIABLE</title>
<a xlink:href="BERNOULI_RANDOM_VARIABLE.html" xlink:title="Bernoulli random variable" target="_top">
<polyline fill="none" stroke="black" points="182,-180 12,-180 "/>
<path fill="none" stroke="black" d="M12,-180C6,-180 7.10543e-14,-174 5.68434e-14,-168"/>
<polyline fill="none" stroke="black" points="5.68434e-14,-168 2.84217e-14,-156 "/>
<path fill="none" stroke="black" d="M2.84217e-14,-156C1.42109e-14,-150 6,-144 12,-144"/>
<polyline fill="none" stroke="black" points="12,-144 182,-144 "/>
<path fill="none" stroke="black" d="M182,-144C188,-144 194,-150 194,-156"/>
<polyline fill="none" stroke="black" points="194,-156 194,-168 "/>
<path fill="none" stroke="black" d="M194,-168C194,-174 188,-180 182,-180"/>
<text text-anchor="start" x="8" y="-159.233" font-family="Times Roman,serif" font-size="14.00">Bernoulli random variable</text>
</a>
</g>
<!-- EXPECTATION&#45;&gt;BERNOULI_RANDOM_VARIABLE -->
<g id="edge2" class="edge"><title>EXPECTATION&#45;&gt;BERNOULI_RANDOM_VARIABLE</title>
<path fill="none" stroke="black" d="M381.714,-222.829C331.014,-211.997 252.946,-195.318 191.373,-182.163"/>
<polygon fill="black" stroke="black" points="191.761,-178.667 181.25,-180 190.298,-185.512 191.761,-178.667"/>
</g>
<!-- LAW_OF_LARGE_NUMBERS -->
<g id="node4" class="node"><title>LAW_OF_LARGE_NUMBERS</title>
<a xlink:href="LAW_OF_LARGE_NUMBERS.html" xlink:title="The law of large numbers" target="_top">
<polyline fill="none" stroke="black" points="394,-180 224,-180 "/>
<path fill="none" stroke="black" d="M224,-180C218,-180 212,-174 212,-168"/>
<polyline fill="none" stroke="black" points="212,-168 212,-156 "/>
<path fill="none" stroke="black" d="M212,-156C212,-150 218,-144 224,-144"/>
<polyline fill="none" stroke="black" points="224,-144 394,-144 "/>
<path fill="none" stroke="black" d="M394,-144C400,-144 406,-150 406,-156"/>
<polyline fill="none" stroke="black" points="406,-156 406,-168 "/>
<path fill="none" stroke="black" d="M406,-168C406,-174 400,-180 394,-180"/>
<text text-anchor="start" x="220.5" y="-159.233" font-family="Times Roman,serif" font-size="14.00">The law of large numbers</text>
</a>
</g>
<!-- EXPECTATION&#45;&gt;LAW_OF_LARGE_NUMBERS -->
<g id="edge4" class="edge"><title>EXPECTATION&#45;&gt;LAW_OF_LARGE_NUMBERS</title>
<path fill="none" stroke="black" d="M402.457,-215.831C386.321,-206.537 366.501,-195.121 349.273,-185.197"/>
<polygon fill="black" stroke="black" points="350.945,-182.121 340.533,-180.163 347.451,-188.187 350.945,-182.121"/>
</g>
<!-- CONDITIONAL_EXPECTATION -->
<g id="node8" class="node"><title>CONDITIONAL_EXPECTATION</title>
<a xlink:href="CONDITIONAL_EXPECTATION.html" xlink:title="Conditional expectation" target="_top">
<polyline fill="none" stroke="black" points="402,-108 246,-108 "/>
<path fill="none" stroke="black" d="M246,-108C240,-108 234,-102 234,-96"/>
<polyline fill="none" stroke="black" points="234,-96 234,-84 "/>
<path fill="none" stroke="black" d="M234,-84C234,-78 240,-72 246,-72"/>
<polyline fill="none" stroke="black" points="246,-72 402,-72 "/>
<path fill="none" stroke="black" d="M402,-72C408,-72 414,-78 414,-84"/>
<polyline fill="none" stroke="black" points="414,-84 414,-96 "/>
<path fill="none" stroke="black" d="M414,-96C414,-102 408,-108 402,-108"/>
<text text-anchor="start" x="242" y="-87.2333" font-family="Times Roman,serif" font-size="14.00">Conditional expectation</text>
</a>
</g>
<!-- EXPECTATION&#45;&gt;CONDITIONAL_EXPECTATION -->
<g id="edge8" class="edge"><title>EXPECTATION&#45;&gt;CONDITIONAL_EXPECTATION</title>
<path fill="none" stroke="black" d="M434.312,-215.733C433.76,-196.238 430.252,-165.29 415,-144 405.873,-131.259 392.723,-121.013 379.245,-113.014"/>
<polygon fill="black" stroke="black" points="380.819,-109.885 370.379,-108.079 377.414,-116.001 380.819,-109.885"/>
</g>
<!-- VARIANCE -->
<g id="node11" class="node"><title>VARIANCE</title>
<a xlink:href="VARIANCE.html" xlink:title="Variance " target="_top">
<polyline fill="none" stroke="black" points="500,-108 444,-108 "/>
<path fill="none" stroke="black" d="M444,-108C438,-108 432,-102 432,-96"/>
<polyline fill="none" stroke="black" points="432,-96 432,-84 "/>
<path fill="none" stroke="black" d="M432,-84C432,-78 438,-72 444,-72"/>
<polyline fill="none" stroke="black" points="444,-72 500,-72 "/>
<path fill="none" stroke="black" d="M500,-72C506,-72 512,-78 512,-84"/>
<polyline fill="none" stroke="black" points="512,-84 512,-96 "/>
<path fill="none" stroke="black" d="M512,-96C512,-102 506,-108 500,-108"/>
<text text-anchor="start" x="440" y="-87.2333" font-family="Times Roman,serif" font-size="14.00">Variance </text>
</a>
</g>
<!-- EXPECTATION&#45;&gt;VARIANCE -->
<g id="edge12" class="edge"><title>EXPECTATION&#45;&gt;VARIANCE</title>
<path fill="none" stroke="black" d="M438.813,-215.762C445.323,-191.093 456.995,-146.86 464.618,-117.973"/>
<polygon fill="black" stroke="black" points="468.059,-118.652 467.226,-108.09 461.291,-116.866 468.059,-118.652"/>
</g>
<!-- MOMENT_GENERATING_FUNCTION -->
<g id="node13" class="node"><title>MOMENT_GENERATING_FUNCTION</title>
<a xlink:href="MOMENT_GENERATING_FUNCTION.html" xlink:title="The moment generating function" target="_top">
<polyline fill="none" stroke="black" points="543,-36 321,-36 "/>
<path fill="none" stroke="black" d="M321,-36C315,-36 309,-30 309,-24"/>
<polyline fill="none" stroke="black" points="309,-24 309,-12 "/>
<path fill="none" stroke="black" d="M309,-12C309,-6 315,-1.7417e-14 321,-1.70704e-14"/>
<polyline fill="none" stroke="black" points="321,-1.70704e-14 543,-4.24593e-15 "/>
<path fill="none" stroke="black" d="M543,-4.24593e-15C549,-3.89932e-15 555,-6 555,-12"/>
<polyline fill="none" stroke="black" points="555,-12 555,-24 "/>
<path fill="none" stroke="black" d="M555,-24C555,-30 549,-36 543,-36"/>
<text text-anchor="start" x="317.5" y="-15.2333" font-family="Times Roman,serif" font-size="14.00">The moment generating function</text>
</a>
</g>
<!-- EXPECTATION&#45;&gt;MOMENT_GENERATING_FUNCTION -->
<g id="edge14" class="edge"><title>EXPECTATION&#45;&gt;MOMENT_GENERATING_FUNCTION</title>
<path fill="none" stroke="black" d="M456.491,-215.893C491.003,-185.816 550.128,-123.744 521,-72 513.797,-59.2038 502.201,-49.0907 489.726,-41.2465"/>
<polygon fill="black" stroke="black" points="491.397,-38.1698 480.992,-36.1733 487.881,-44.2227 491.397,-38.1698"/>
</g>
<!-- BERNOULI_RANDOM_VARIABLE&#45;&gt;CONDITIONAL_EXPECTATION -->
<!-- RANDOM_VARIABLES -->
<g id="node6" class="node"><title>RANDOM_VARIABLES</title>
<a xlink:href="RANDOM_VARIABLES.html" xlink:title="Random variables" target="_top">
<polyline fill="none" stroke="black" points="387,-324 271,-324 "/>
<path fill="none" stroke="black" d="M271,-324C265,-324 259,-318 259,-312"/>
<polyline fill="none" stroke="black" points="259,-312 259,-300 "/>
<path fill="none" stroke="black" d="M259,-300C259,-294 265,-288 271,-288"/>
<polyline fill="none" stroke="black" points="271,-288 387,-288 "/>
<path fill="none" stroke="black" d="M387,-288C393,-288 399,-294 399,-300"/>
<polyline fill="none" stroke="black" points="399,-300 399,-312 "/>
<path fill="none" stroke="black" d="M399,-312C399,-318 393,-324 387,-324"/>
<text text-anchor="start" x="267.5" y="-303.233" font-family="Times Roman,serif" font-size="14.00">Random variables</text>
</a>
</g>
<!-- RANDOM_VARIABLES&#45;&gt;EXPECTATION -->
<g id="edge6" class="edge"><title>RANDOM_VARIABLES&#45;&gt;EXPECTATION</title>
<path fill="none" stroke="black" d="M355.496,-287.831C368.677,-278.793 384.785,-267.748 398.971,-258.02"/>
<polygon fill="black" stroke="black" points="401.245,-260.705 407.513,-252.163 397.286,-254.932 401.245,-260.705"/>
</g>
<!-- CONDITIONAL_EXPECTATION&#45;&gt;MOMENT_GENERATING_FUNCTION -->
<!-- SUMMATIONS -->
<g id="node16" class="node"><title>SUMMATIONS</title>
<a xlink:href="SUMMATIONS.html" xlink:title="Summation and product notation" target="_top">
<polyline fill="none" stroke="black" points="651,-324 429,-324 "/>
<path fill="none" stroke="black" d="M429,-324C423,-324 417,-318 417,-312"/>
<polyline fill="none" stroke="black" points="417,-312 417,-300 "/>
<path fill="none" stroke="black" d="M417,-300C417,-294 423,-288 429,-288"/>
<polyline fill="none" stroke="black" points="429,-288 651,-288 "/>
<path fill="none" stroke="black" d="M651,-288C657,-288 663,-294 663,-300"/>
<polyline fill="none" stroke="black" points="663,-300 663,-312 "/>
<path fill="none" stroke="black" d="M663,-312C663,-318 657,-324 651,-324"/>
<text text-anchor="start" x="425.5" y="-303.233" font-family="Times Roman,serif" font-size="14.00">Summation and product notation</text>
</a>
</g>
<!-- SUMMATIONS&#45;&gt;EXPECTATION -->
<g id="edge18" class="edge"><title>SUMMATIONS&#45;&gt;EXPECTATION</title>
<path fill="none" stroke="black" d="M513.252,-287.831C499.945,-278.793 483.684,-267.748 469.363,-258.02"/>
<polygon fill="black" stroke="black" points="470.979,-254.886 460.74,-252.163 467.045,-260.677 470.979,-254.886"/>
</g>
</g>
</svg>
