<?xml version="1.0" encoding="UTF-8" standalone="no"?>
<!DOCTYPE svg PUBLIC "-//W3C//DTD SVG 1.1//EN"
 "http://www.w3.org/Graphics/SVG/1.1/DTD/svg11.dtd">
<!-- Generated by graphviz version 2.26.3 (20100126.1600)
 -->
<!-- Title: _anonymous_0 Pages: 1 -->
<svg width="657pt" height="332pt"
 viewBox="0.00 0.00 657.00 332.00" xmlns="http://www.w3.org/2000/svg" xmlns:xlink="http://www.w3.org/1999/xlink">
<g id="graph1" class="graph" transform="scale(1 1) rotate(0) translate(4 328)">
<title>_anonymous_0</title>
<!-- EXPECTATION -->
<g id="node1" class="node"><title>EXPECTATION</title>
<a xlink:href="EXPECTATION.html" xlink:title="Expectation " target="_top">
<polyline fill="none" stroke="blue" stroke-width="2" points="460,-252 380,-252 "/>
<path fill="none" stroke="blue" stroke-width="2" d="M380,-252C374,-252 368,-246 368,-240"/>
<polyline fill="none" stroke="blue" stroke-width="2" points="368,-240 368,-228 "/>
<path fill="none" stroke="blue" stroke-width="2" d="M368,-228C368,-222 374,-216 380,-216"/>
<polyline fill="none" stroke="blue" stroke-width="2" points="380,-216 460,-216 "/>
<path fill="none" stroke="blue" stroke-width="2" d="M460,-216C466,-216 472,-222 472,-228"/>
<polyline fill="none" stroke="blue" stroke-width="2" points="472,-228 472,-240 "/>
<path fill="none" stroke="blue" stroke-width="2" d="M472,-240C472,-246 466,-252 460,-252"/>
<text text-anchor="start" x="376.5" y="-231.233" font-family="Times Roman,serif" font-size="14.00">Expectation </text>
</a>
</g>
<!-- BERNOULI_RANDOM_VARIABLE -->
<g id="node4" class="node"><title>BERNOULI_RANDOM_VARIABLE</title>
<a xlink:href="BERNOULI_RANDOM_VARIABLE.html" xlink:title="Bernoulli random variable" target="_top">
<polyline fill="none" stroke="black" points="182,-180 12,-180 "/>
<path fill="none" stroke="black" d="M12,-180C6,-180 7.10543e-14,-174 5.68434e-14,-168"/>
<polyline fill="none" stroke="black" points="5.68434e-14,-168 2.84217e-14,-156 "/>
<path fill="none" stroke="black" d="M2.84217e-14,-156C1.42109e-14,-150 6,-144 12,-144"/>
<polyline fill="none" stroke="black" points="12,-144 182,-144 "/>
<path fill="none" stroke="black" d="M182,-144C188,-144 194,-150 194,-156"/>
<polyline fill="none" stroke="black" points="194,-156 194,-168 "/>
<path fill="none" stroke="black" d="M194,-168C194,-174 188,-180 182,-180"/>
<text text-anchor="start" x="8" y="-159.233" font-family="Times Roman,serif" font-size="14.00">Bernoulli random variable</text>
</a>
</g>
<!-- EXPECTATION&#45;&gt;BERNOULI_RANDOM_VARIABLE -->
<g id="edge4" class="edge"><title>EXPECTATION&#45;&gt;BERNOULI_RANDOM_VARIABLE</title>
<path fill="none" stroke="black" d="M367.745,-222.352C319.22,-211.535 245.925,-195.197 187.828,-182.246"/>
<polygon fill="black" stroke="black" points="188.427,-178.794 177.905,-180.035 186.904,-185.627 188.427,-178.794"/>
</g>
<!-- CONDITIONAL_EXPECTATION -->
<g id="node8" class="node"><title>CONDITIONAL_EXPECTATION</title>
<a xlink:href="CONDITIONAL_EXPECTATION.html" xlink:title="Conditional expectation" target="_top">
<polyline fill="none" stroke="black" points="380,-180 224,-180 "/>
<path fill="none" stroke="black" d="M224,-180C218,-180 212,-174 212,-168"/>
<polyline fill="none" stroke="black" points="212,-168 212,-156 "/>
<path fill="none" stroke="black" d="M212,-156C212,-150 218,-144 224,-144"/>
<polyline fill="none" stroke="black" points="224,-144 380,-144 "/>
<path fill="none" stroke="black" d="M380,-144C386,-144 392,-150 392,-156"/>
<polyline fill="none" stroke="black" points="392,-156 392,-168 "/>
<path fill="none" stroke="black" d="M392,-168C392,-174 386,-180 380,-180"/>
<text text-anchor="start" x="220" y="-159.233" font-family="Times Roman,serif" font-size="14.00">Conditional expectation</text>
</a>
</g>
<!-- EXPECTATION&#45;&gt;CONDITIONAL_EXPECTATION -->
<g id="edge8" class="edge"><title>EXPECTATION&#45;&gt;CONDITIONAL_EXPECTATION</title>
<path fill="none" stroke="black" d="M390.224,-215.831C375.131,-206.622 356.624,-195.33 340.466,-185.471"/>
<polygon fill="black" stroke="black" points="342.126,-182.384 331.767,-180.163 338.48,-188.359 342.126,-182.384"/>
</g>
<!-- LAW_OF_LARGE_NUMBERS -->
<g id="node10" class="node"><title>LAW_OF_LARGE_NUMBERS</title>
<a xlink:href="LAW_OF_LARGE_NUMBERS.html" xlink:title="The law of large numbers" target="_top">
<polyline fill="none" stroke="black" points="305,-108 135,-108 "/>
<path fill="none" stroke="black" d="M135,-108C129,-108 123,-102 123,-96"/>
<polyline fill="none" stroke="black" points="123,-96 123,-84 "/>
<path fill="none" stroke="black" d="M123,-84C123,-78 129,-72 135,-72"/>
<polyline fill="none" stroke="black" points="135,-72 305,-72 "/>
<path fill="none" stroke="black" d="M305,-72C311,-72 317,-78 317,-84"/>
<polyline fill="none" stroke="black" points="317,-84 317,-96 "/>
<path fill="none" stroke="black" d="M317,-96C317,-102 311,-108 305,-108"/>
<text text-anchor="start" x="131.5" y="-87.2333" font-family="Times Roman,serif" font-size="14.00">The law of large numbers</text>
</a>
</g>
<!-- EXPECTATION&#45;&gt;LAW_OF_LARGE_NUMBERS -->
<g id="edge10" class="edge"><title>EXPECTATION&#45;&gt;LAW_OF_LARGE_NUMBERS</title>
<path fill="none" stroke="black" d="M421.266,-215.679C421.618,-195.551 418.962,-163.496 401,-144 389.17,-131.159 355.863,-119.657 320.994,-110.602"/>
<polygon fill="black" stroke="black" points="321.686,-107.168 311.134,-108.114 319.974,-113.955 321.686,-107.168"/>
</g>
<!-- MOMENT_GENERATING_FUNCTION -->
<g id="node13" class="node"><title>MOMENT_GENERATING_FUNCTION</title>
<a xlink:href="MOMENT_GENERATING_FUNCTION.html" xlink:title="The moment generating function" target="_top">
<polyline fill="none" stroke="black" points="569,-108 347,-108 "/>
<path fill="none" stroke="black" d="M347,-108C341,-108 335,-102 335,-96"/>
<polyline fill="none" stroke="black" points="335,-96 335,-84 "/>
<path fill="none" stroke="black" d="M335,-84C335,-78 341,-72 347,-72"/>
<polyline fill="none" stroke="black" points="347,-72 569,-72 "/>
<path fill="none" stroke="black" d="M569,-72C575,-72 581,-78 581,-84"/>
<polyline fill="none" stroke="black" points="581,-84 581,-96 "/>
<path fill="none" stroke="black" d="M581,-96C581,-102 575,-108 569,-108"/>
<text text-anchor="start" x="343.5" y="-87.2333" font-family="Times Roman,serif" font-size="14.00">The moment generating function</text>
</a>
</g>
<!-- EXPECTATION&#45;&gt;MOMENT_GENERATING_FUNCTION -->
<g id="edge14" class="edge"><title>EXPECTATION&#45;&gt;MOMENT_GENERATING_FUNCTION</title>
<path fill="none" stroke="black" d="M424.813,-215.762C431.323,-191.093 442.995,-146.86 450.618,-117.973"/>
<polygon fill="black" stroke="black" points="454.059,-118.652 453.226,-108.09 447.291,-116.866 454.059,-118.652"/>
</g>
<!-- VARIANCE -->
<g id="node15" class="node"><title>VARIANCE</title>
<a xlink:href="VARIANCE.html" xlink:title="Variance " target="_top">
<polyline fill="none" stroke="black" points="442,-36 386,-36 "/>
<path fill="none" stroke="black" d="M386,-36C380,-36 374,-30 374,-24"/>
<polyline fill="none" stroke="black" points="374,-24 374,-12 "/>
<path fill="none" stroke="black" d="M374,-12C374,-6 380,-1.66978e-14 386,-1.56319e-14"/>
<polyline fill="none" stroke="black" points="386,-1.56319e-14 442,-5.68434e-15 "/>
<path fill="none" stroke="black" d="M442,-5.68434e-15C448,-4.61853e-15 454,-6 454,-12"/>
<polyline fill="none" stroke="black" points="454,-12 454,-24 "/>
<path fill="none" stroke="black" d="M454,-24C454,-30 448,-36 442,-36"/>
<text text-anchor="start" x="382" y="-15.2333" font-family="Times Roman,serif" font-size="14.00">Variance </text>
</a>
</g>
<!-- EXPECTATION&#45;&gt;VARIANCE -->
<g id="edge16" class="edge"><title>EXPECTATION&#45;&gt;VARIANCE</title>
<path fill="none" stroke="black" d="M465.987,-215.944C530.148,-188.064 633.984,-131.503 590,-72 574.911,-51.587 510.786,-35.7158 464.287,-26.6092"/>
<polygon fill="black" stroke="black" points="464.842,-23.1519 454.363,-24.7147 463.529,-30.0277 464.842,-23.1519"/>
</g>
<!-- RANDOM_VARIABLES -->
<g id="node2" class="node"><title>RANDOM_VARIABLES</title>
<a xlink:href="RANDOM_VARIABLES.html" xlink:title="Random variables" target="_top">
<polyline fill="none" stroke="black" points="373,-324 257,-324 "/>
<path fill="none" stroke="black" d="M257,-324C251,-324 245,-318 245,-312"/>
<polyline fill="none" stroke="black" points="245,-312 245,-300 "/>
<path fill="none" stroke="black" d="M245,-300C245,-294 251,-288 257,-288"/>
<polyline fill="none" stroke="black" points="257,-288 373,-288 "/>
<path fill="none" stroke="black" d="M373,-288C379,-288 385,-294 385,-300"/>
<polyline fill="none" stroke="black" points="385,-300 385,-312 "/>
<path fill="none" stroke="black" d="M385,-312C385,-318 379,-324 373,-324"/>
<text text-anchor="start" x="253.5" y="-303.233" font-family="Times Roman,serif" font-size="14.00">Random variables</text>
</a>
</g>
<!-- RANDOM_VARIABLES&#45;&gt;EXPECTATION -->
<g id="edge2" class="edge"><title>RANDOM_VARIABLES&#45;&gt;EXPECTATION</title>
<path fill="none" stroke="black" d="M341.496,-287.831C354.677,-278.793 370.785,-267.748 384.971,-258.02"/>
<polygon fill="black" stroke="black" points="387.245,-260.705 393.513,-252.163 383.286,-254.932 387.245,-260.705"/>
</g>
<!-- BERNOULI_RANDOM_VARIABLE&#45;&gt;LAW_OF_LARGE_NUMBERS -->
<!-- SUMMATIONS -->
<g id="node6" class="node"><title>SUMMATIONS</title>
<a xlink:href="SUMMATIONS.html" xlink:title="Summation and product notation" target="_top">
<polyline fill="none" stroke="black" points="637,-324 415,-324 "/>
<path fill="none" stroke="black" d="M415,-324C409,-324 403,-318 403,-312"/>
<polyline fill="none" stroke="black" points="403,-312 403,-300 "/>
<path fill="none" stroke="black" d="M403,-300C403,-294 409,-288 415,-288"/>
<polyline fill="none" stroke="black" points="415,-288 637,-288 "/>
<path fill="none" stroke="black" d="M637,-288C643,-288 649,-294 649,-300"/>
<polyline fill="none" stroke="black" points="649,-300 649,-312 "/>
<path fill="none" stroke="black" d="M649,-312C649,-318 643,-324 637,-324"/>
<text text-anchor="start" x="411.5" y="-303.233" font-family="Times Roman,serif" font-size="14.00">Summation and product notation</text>
</a>
</g>
<!-- SUMMATIONS&#45;&gt;EXPECTATION -->
<g id="edge6" class="edge"><title>SUMMATIONS&#45;&gt;EXPECTATION</title>
<path fill="none" stroke="black" d="M499.252,-287.831C485.945,-278.793 469.684,-267.748 455.363,-258.02"/>
<polygon fill="black" stroke="black" points="456.979,-254.886 446.74,-252.163 453.045,-260.677 456.979,-254.886"/>
</g>
<!-- LAW_OF_LARGE_NUMBERS&#45;&gt;VARIANCE -->
</g>
</svg>
