<?xml version="1.0" encoding="UTF-8" standalone="no"?>
<!DOCTYPE svg PUBLIC "-//W3C//DTD SVG 1.1//EN"
 "http://www.w3.org/Graphics/SVG/1.1/DTD/svg11.dtd">
<!-- Generated by graphviz version 2.26.3 (20100126.1600)
 -->
<!-- Title: _anonymous_0 Pages: 1 -->
<svg width="557pt" height="332pt"
 viewBox="0.00 0.00 557.00 332.00" xmlns="http://www.w3.org/2000/svg" xmlns:xlink="http://www.w3.org/1999/xlink">
<g id="graph1" class="graph" transform="scale(1 1) rotate(0) translate(4 328)">
<title>_anonymous_0</title>
<!-- EXPECTATION -->
<g id="node1" class="node"><title>EXPECTATION</title>
<a xlink:href="EXPECTATION.html" xlink:title="Expectation " target="_top">
<polyline fill="none" stroke="blue" stroke-width="2" points="360,-252 280,-252 "/>
<path fill="none" stroke="blue" stroke-width="2" d="M280,-252C274,-252 268,-246 268,-240"/>
<polyline fill="none" stroke="blue" stroke-width="2" points="268,-240 268,-228 "/>
<path fill="none" stroke="blue" stroke-width="2" d="M268,-228C268,-222 274,-216 280,-216"/>
<polyline fill="none" stroke="blue" stroke-width="2" points="280,-216 360,-216 "/>
<path fill="none" stroke="blue" stroke-width="2" d="M360,-216C366,-216 372,-222 372,-228"/>
<polyline fill="none" stroke="blue" stroke-width="2" points="372,-228 372,-240 "/>
<path fill="none" stroke="blue" stroke-width="2" d="M372,-240C372,-246 366,-252 360,-252"/>
<text text-anchor="start" x="276.5" y="-231.233" font-family="Times Roman,serif" font-size="14.00">Expectation </text>
</a>
</g>
<!-- VARIANCE -->
<g id="node2" class="node"><title>VARIANCE</title>
<a xlink:href="VARIANCE.html" xlink:title="Variance " target="_top">
<polyline fill="none" stroke="black" points="68,-180 12,-180 "/>
<path fill="none" stroke="black" d="M12,-180C6,-180 3.55271e-14,-174 2.84217e-14,-168"/>
<polyline fill="none" stroke="black" points="2.84217e-14,-168 1.42109e-14,-156 "/>
<path fill="none" stroke="black" d="M1.42109e-14,-156C7.10543e-15,-150 6,-144 12,-144"/>
<polyline fill="none" stroke="black" points="12,-144 68,-144 "/>
<path fill="none" stroke="black" d="M68,-144C74,-144 80,-150 80,-156"/>
<polyline fill="none" stroke="black" points="80,-156 80,-168 "/>
<path fill="none" stroke="black" d="M80,-168C80,-174 74,-180 68,-180"/>
<text text-anchor="start" x="8" y="-159.233" font-family="Times Roman,serif" font-size="14.00">Variance </text>
</a>
</g>
<!-- EXPECTATION&#45;&gt;VARIANCE -->
<g id="edge2" class="edge"><title>EXPECTATION&#45;&gt;VARIANCE</title>
<path fill="none" stroke="black" d="M267.686,-223.68C222.76,-214.389 156.167,-199.597 90.0015,-180.133"/>
<polygon fill="black" stroke="black" points="90.8281,-176.727 80.2451,-177.228 88.8301,-183.436 90.8281,-176.727"/>
</g>
<!-- LAW_OF_LARGE_NUMBERS -->
<g id="node6" class="node"><title>LAW_OF_LARGE_NUMBERS</title>
<a xlink:href="LAW_OF_LARGE_NUMBERS.html" xlink:title="The law of large numbers" target="_top">
<polyline fill="none" stroke="black" points="280,-180 110,-180 "/>
<path fill="none" stroke="black" d="M110,-180C104,-180 98,-174 98,-168"/>
<polyline fill="none" stroke="black" points="98,-168 98,-156 "/>
<path fill="none" stroke="black" d="M98,-156C98,-150 104,-144 110,-144"/>
<polyline fill="none" stroke="black" points="110,-144 280,-144 "/>
<path fill="none" stroke="black" d="M280,-144C286,-144 292,-150 292,-156"/>
<polyline fill="none" stroke="black" points="292,-156 292,-168 "/>
<path fill="none" stroke="black" d="M292,-168C292,-174 286,-180 280,-180"/>
<text text-anchor="start" x="106.5" y="-159.233" font-family="Times Roman,serif" font-size="14.00">The law of large numbers</text>
</a>
</g>
<!-- EXPECTATION&#45;&gt;LAW_OF_LARGE_NUMBERS -->
<g id="edge6" class="edge"><title>EXPECTATION&#45;&gt;LAW_OF_LARGE_NUMBERS</title>
<path fill="none" stroke="black" d="M288.457,-215.831C272.321,-206.537 252.501,-195.121 235.273,-185.197"/>
<polygon fill="black" stroke="black" points="236.945,-182.121 226.533,-180.163 233.451,-188.187 236.945,-182.121"/>
</g>
<!-- MOMENT_GENERATING_FUNCTION -->
<g id="node10" class="node"><title>MOMENT_GENERATING_FUNCTION</title>
<a xlink:href="MOMENT_GENERATING_FUNCTION.html" xlink:title="The moment generating function" target="_top">
<polyline fill="none" stroke="black" points="238,-108 16,-108 "/>
<path fill="none" stroke="black" d="M16,-108C10,-108 4,-102 4,-96"/>
<polyline fill="none" stroke="black" points="4,-96 4,-84 "/>
<path fill="none" stroke="black" d="M4,-84C4,-78 10,-72 16,-72"/>
<polyline fill="none" stroke="black" points="16,-72 238,-72 "/>
<path fill="none" stroke="black" d="M238,-72C244,-72 250,-78 250,-84"/>
<polyline fill="none" stroke="black" points="250,-84 250,-96 "/>
<path fill="none" stroke="black" d="M250,-96C250,-102 244,-108 238,-108"/>
<text text-anchor="start" x="12.5" y="-87.2333" font-family="Times Roman,serif" font-size="14.00">The moment generating function</text>
</a>
</g>
<!-- EXPECTATION&#45;&gt;MOMENT_GENERATING_FUNCTION -->
<g id="edge10" class="edge"><title>EXPECTATION&#45;&gt;MOMENT_GENERATING_FUNCTION</title>
<path fill="none" stroke="black" d="M321.226,-215.716C321.543,-195.62 318.855,-163.595 301,-144 289.512,-131.392 256.819,-119.823 222.829,-110.655"/>
<polygon fill="black" stroke="black" points="223.304,-107.162 212.744,-108.012 221.529,-113.933 223.304,-107.162"/>
</g>
<!-- CONDITIONAL_EXPECTATION -->
<g id="node13" class="node"><title>CONDITIONAL_EXPECTATION</title>
<a xlink:href="CONDITIONAL_EXPECTATION.html" xlink:title="Conditional expectation" target="_top">
<polyline fill="none" stroke="black" points="436,-108 280,-108 "/>
<path fill="none" stroke="black" d="M280,-108C274,-108 268,-102 268,-96"/>
<polyline fill="none" stroke="black" points="268,-96 268,-84 "/>
<path fill="none" stroke="black" d="M268,-84C268,-78 274,-72 280,-72"/>
<polyline fill="none" stroke="black" points="280,-72 436,-72 "/>
<path fill="none" stroke="black" d="M436,-72C442,-72 448,-78 448,-84"/>
<polyline fill="none" stroke="black" points="448,-84 448,-96 "/>
<path fill="none" stroke="black" d="M448,-96C448,-102 442,-108 436,-108"/>
<text text-anchor="start" x="276" y="-87.2333" font-family="Times Roman,serif" font-size="14.00">Conditional expectation</text>
</a>
</g>
<!-- EXPECTATION&#45;&gt;CONDITIONAL_EXPECTATION -->
<g id="edge14" class="edge"><title>EXPECTATION&#45;&gt;CONDITIONAL_EXPECTATION</title>
<path fill="none" stroke="black" d="M324.813,-215.762C331.323,-191.093 342.995,-146.86 350.618,-117.973"/>
<polygon fill="black" stroke="black" points="354.059,-118.652 353.226,-108.09 347.291,-116.866 354.059,-118.652"/>
</g>
<!-- BERNOULI_RANDOM_VARIABLE -->
<g id="node15" class="node"><title>BERNOULI_RANDOM_VARIABLE</title>
<a xlink:href="BERNOULI_RANDOM_VARIABLE.html" xlink:title="Bernoulli random variable" target="_top">
<polyline fill="none" stroke="black" points="386,-36 216,-36 "/>
<path fill="none" stroke="black" d="M216,-36C210,-36 204,-30 204,-24"/>
<polyline fill="none" stroke="black" points="204,-24 204,-12 "/>
<path fill="none" stroke="black" d="M204,-12C204,-6 210,-1.73241e-14 216,-1.68845e-14"/>
<polyline fill="none" stroke="black" points="216,-1.68845e-14 386,-4.43174e-15 "/>
<path fill="none" stroke="black" d="M386,-4.43174e-15C392,-3.99222e-15 398,-6 398,-12"/>
<polyline fill="none" stroke="black" points="398,-12 398,-24 "/>
<path fill="none" stroke="black" d="M398,-24C398,-30 392,-36 386,-36"/>
<text text-anchor="start" x="212" y="-15.2333" font-family="Times Roman,serif" font-size="14.00">Bernoulli random variable</text>
</a>
</g>
<!-- EXPECTATION&#45;&gt;BERNOULI_RANDOM_VARIABLE -->
<g id="edge16" class="edge"><title>EXPECTATION&#45;&gt;BERNOULI_RANDOM_VARIABLE</title>
<path fill="none" stroke="black" d="M355.744,-215.866C408.338,-186.744 496.312,-127.208 457,-72 448.112,-59.5182 419.433,-48.0425 389.046,-38.9099"/>
<polygon fill="black" stroke="black" points="389.723,-35.4617 379.143,-36.0288 387.767,-42.183 389.723,-35.4617"/>
</g>
<!-- VARIANCE&#45;&gt;MOMENT_GENERATING_FUNCTION -->
<!-- RANDOM_VARIABLES -->
<g id="node4" class="node"><title>RANDOM_VARIABLES</title>
<a xlink:href="RANDOM_VARIABLES.html" xlink:title="Random variables" target="_top">
<polyline fill="none" stroke="black" points="273,-324 157,-324 "/>
<path fill="none" stroke="black" d="M157,-324C151,-324 145,-318 145,-312"/>
<polyline fill="none" stroke="black" points="145,-312 145,-300 "/>
<path fill="none" stroke="black" d="M145,-300C145,-294 151,-288 157,-288"/>
<polyline fill="none" stroke="black" points="157,-288 273,-288 "/>
<path fill="none" stroke="black" d="M273,-288C279,-288 285,-294 285,-300"/>
<polyline fill="none" stroke="black" points="285,-300 285,-312 "/>
<path fill="none" stroke="black" d="M285,-312C285,-318 279,-324 273,-324"/>
<text text-anchor="start" x="153.5" y="-303.233" font-family="Times Roman,serif" font-size="14.00">Random variables</text>
</a>
</g>
<!-- RANDOM_VARIABLES&#45;&gt;EXPECTATION -->
<g id="edge4" class="edge"><title>RANDOM_VARIABLES&#45;&gt;EXPECTATION</title>
<path fill="none" stroke="black" d="M241.496,-287.831C254.677,-278.793 270.785,-267.748 284.971,-258.02"/>
<polygon fill="black" stroke="black" points="287.245,-260.705 293.513,-252.163 283.286,-254.932 287.245,-260.705"/>
</g>
<!-- SUMMATIONS -->
<g id="node8" class="node"><title>SUMMATIONS</title>
<a xlink:href="SUMMATIONS.html" xlink:title="Summation and product notation" target="_top">
<polyline fill="none" stroke="black" points="537,-324 315,-324 "/>
<path fill="none" stroke="black" d="M315,-324C309,-324 303,-318 303,-312"/>
<polyline fill="none" stroke="black" points="303,-312 303,-300 "/>
<path fill="none" stroke="black" d="M303,-300C303,-294 309,-288 315,-288"/>
<polyline fill="none" stroke="black" points="315,-288 537,-288 "/>
<path fill="none" stroke="black" d="M537,-288C543,-288 549,-294 549,-300"/>
<polyline fill="none" stroke="black" points="549,-300 549,-312 "/>
<path fill="none" stroke="black" d="M549,-312C549,-318 543,-324 537,-324"/>
<text text-anchor="start" x="311.5" y="-303.233" font-family="Times Roman,serif" font-size="14.00">Summation and product notation</text>
</a>
</g>
<!-- SUMMATIONS&#45;&gt;EXPECTATION -->
<g id="edge8" class="edge"><title>SUMMATIONS&#45;&gt;EXPECTATION</title>
<path fill="none" stroke="black" d="M399.252,-287.831C385.945,-278.793 369.684,-267.748 355.363,-258.02"/>
<polygon fill="black" stroke="black" points="356.979,-254.886 346.74,-252.163 353.045,-260.677 356.979,-254.886"/>
</g>
<!-- MOMENT_GENERATING_FUNCTION&#45;&gt;BERNOULI_RANDOM_VARIABLE -->
</g>
</svg>
