<?xml version="1.0" encoding="UTF-8" standalone="no"?>
<!DOCTYPE svg PUBLIC "-//W3C//DTD SVG 1.1//EN"
 "http://www.w3.org/Graphics/SVG/1.1/DTD/svg11.dtd">
<!-- Generated by graphviz version 2.36.0 (20140111.2315)
 -->
<!-- Title: %3 Pages: 1 -->
<svg width="449pt" height="332pt"
 viewBox="0.00 0.00 449.00 332.00" xmlns="http://www.w3.org/2000/svg" xmlns:xlink="http://www.w3.org/1999/xlink">
<g id="graph0" class="graph" transform="scale(1 1) rotate(0) translate(4 328)">
<title>%3</title>
<!-- EXPECTATION -->
<g id="node1" class="node"><title>EXPECTATION</title>
<g id="a_node1"><a xlink:href="EXPECTATION.html" xlink:title=" Expectation &#160;" target="_top">
<path fill="none" stroke="blue" stroke-width="2" d="M322,-252C322,-252 254,-252 254,-252 248,-252 242,-246 242,-240 242,-240 242,-228 242,-228 242,-222 248,-216 254,-216 254,-216 322,-216 322,-216 328,-216 334,-222 334,-228 334,-228 334,-240 334,-240 334,-246 328,-252 322,-252"/>
<text text-anchor="start" x="250" y="-230.3" font-family="Times,serif" font-size="14.00"> Expectation &#160;</text>
</a>
</g>
</g>
<!-- VARIANCE -->
<g id="node2" class="node"><title>VARIANCE</title>
<g id="a_node2"><a xlink:href="VARIANCE.html" xlink:title=" Variance &#160;" target="_top">
<path fill="none" stroke="black" d="M64.25,-180C64.25,-180 11.75,-180 11.75,-180 5.75,-180 -0.25,-174 -0.25,-168 -0.25,-168 -0.25,-156 -0.25,-156 -0.25,-150 5.75,-144 11.75,-144 11.75,-144 64.25,-144 64.25,-144 70.25,-144 76.25,-150 76.25,-156 76.25,-156 76.25,-168 76.25,-168 76.25,-174 70.25,-180 64.25,-180"/>
<text text-anchor="start" x="7.5" y="-158.3" font-family="Times,serif" font-size="14.00"> Variance &#160;</text>
</a>
</g>
</g>
<!-- EXPECTATION&#45;&gt;VARIANCE -->
<g id="edge1" class="edge"><title>EXPECTATION&#45;&gt;VARIANCE</title>
<path fill="none" stroke="black" d="M241.704,-222.195C202.517,-212.761 144.714,-198.174 86.1599,-180.233"/>
<polygon fill="black" stroke="black" points="86.9647,-176.818 76.377,-177.205 84.8954,-183.505 86.9647,-176.818"/>
</g>
<!-- LAW_OF_LARGE_NUMBERS -->
<g id="node4" class="node"><title>LAW_OF_LARGE_NUMBERS</title>
<g id="a_node4"><a xlink:href="LAW_OF_LARGE_NUMBERS.html" xlink:title=" The law of large numbers " target="_top">
<path fill="none" stroke="black" d="M247.25,-180C247.25,-180 106.75,-180 106.75,-180 100.75,-180 94.75,-174 94.75,-168 94.75,-168 94.75,-156 94.75,-156 94.75,-150 100.75,-144 106.75,-144 106.75,-144 247.25,-144 247.25,-144 253.25,-144 259.25,-150 259.25,-156 259.25,-156 259.25,-168 259.25,-168 259.25,-174 253.25,-180 247.25,-180"/>
<text text-anchor="start" x="102.5" y="-158.3" font-family="Times,serif" font-size="14.00"> The law of large numbers </text>
</a>
</g>
</g>
<!-- EXPECTATION&#45;&gt;LAW_OF_LARGE_NUMBERS -->
<g id="edge3" class="edge"><title>EXPECTATION&#45;&gt;LAW_OF_LARGE_NUMBERS</title>
<path fill="none" stroke="black" d="M260.846,-215.876C246.467,-206.808 228.619,-195.552 213.09,-185.759"/>
<polygon fill="black" stroke="black" points="214.584,-182.564 204.258,-180.19 210.85,-188.484 214.584,-182.564"/>
</g>
<!-- BERNOULI_RANDOM_VARIABLE -->
<g id="node5" class="node"><title>BERNOULI_RANDOM_VARIABLE</title>
<g id="a_node5"><a xlink:href="BERNOULI_RANDOM_VARIABLE.html" xlink:title=" Bernoulli random variable " target="_top">
<path fill="none" stroke="black" d="M218.5,-108C218.5,-108 75.5,-108 75.5,-108 69.5,-108 63.5,-102 63.5,-96 63.5,-96 63.5,-84 63.5,-84 63.5,-78 69.5,-72 75.5,-72 75.5,-72 218.5,-72 218.5,-72 224.5,-72 230.5,-78 230.5,-84 230.5,-84 230.5,-96 230.5,-96 230.5,-102 224.5,-108 218.5,-108"/>
<text text-anchor="start" x="71" y="-86.3" font-family="Times,serif" font-size="14.00"> Bernoulli random variable </text>
</a>
</g>
</g>
<!-- EXPECTATION&#45;&gt;BERNOULI_RANDOM_VARIABLE -->
<g id="edge4" class="edge"><title>EXPECTATION&#45;&gt;BERNOULI_RANDOM_VARIABLE</title>
<path fill="none" stroke="black" d="M288.535,-215.957C288.249,-196.442 284.925,-164.528 268,-144 256.658,-130.244 241.046,-119.955 224.803,-112.296"/>
<polygon fill="black" stroke="black" points="225.758,-108.893 215.194,-108.084 222.948,-115.304 225.758,-108.893"/>
</g>
<!-- CONDITIONAL_EXPECTATION -->
<g id="node6" class="node"><title>CONDITIONAL_EXPECTATION</title>
<g id="a_node6"><a xlink:href="CONDITIONAL_EXPECTATION.html" xlink:title=" Conditional expectation " target="_top">
<path fill="none" stroke="black" d="M391,-108C391,-108 261,-108 261,-108 255,-108 249,-102 249,-96 249,-96 249,-84 249,-84 249,-78 255,-72 261,-72 261,-72 391,-72 391,-72 397,-72 403,-78 403,-84 403,-84 403,-96 403,-96 403,-102 397,-108 391,-108"/>
<text text-anchor="start" x="257" y="-86.3" font-family="Times,serif" font-size="14.00"> Conditional expectation </text>
</a>
</g>
</g>
<!-- EXPECTATION&#45;&gt;CONDITIONAL_EXPECTATION -->
<g id="edge6" class="edge"><title>EXPECTATION&#45;&gt;CONDITIONAL_EXPECTATION</title>
<path fill="none" stroke="black" d="M292.584,-215.871C299.089,-191.564 311.063,-146.819 318.771,-118.013"/>
<polygon fill="black" stroke="black" points="322.196,-118.754 321.4,-108.189 315.434,-116.945 322.196,-118.754"/>
</g>
<!-- MOMENT_GENERATING_FUNCTION -->
<g id="node8" class="node"><title>MOMENT_GENERATING_FUNCTION</title>
<g id="a_node8"><a xlink:href="MOMENT_GENERATING_FUNCTION.html" xlink:title=" The moment generating function " target="_top">
<path fill="none" stroke="black" d="M378.5,-36C378.5,-36 199.5,-36 199.5,-36 193.5,-36 187.5,-30 187.5,-24 187.5,-24 187.5,-12 187.5,-12 187.5,-6 193.5,-0 199.5,-0 199.5,-0 378.5,-0 378.5,-0 384.5,-0 390.5,-6 390.5,-12 390.5,-12 390.5,-24 390.5,-24 390.5,-30 384.5,-36 378.5,-36"/>
<text text-anchor="start" x="195" y="-14.3" font-family="Times,serif" font-size="14.00"> The moment generating function </text>
</a>
</g>
</g>
<!-- EXPECTATION&#45;&gt;MOMENT_GENERATING_FUNCTION -->
<g id="edge8" class="edge"><title>EXPECTATION&#45;&gt;MOMENT_GENERATING_FUNCTION</title>
<path fill="none" stroke="black" d="M318.453,-215.998C365.827,-187.294 448.168,-126.967 412,-72 402.95,-58.2466 389.498,-48.0467 374.769,-40.4867"/>
<polygon fill="black" stroke="black" points="376.001,-37.1985 365.462,-36.1126 373.024,-43.5337 376.001,-37.1985"/>
</g>
<!-- VARIANCE&#45;&gt;BERNOULI_RANDOM_VARIABLE -->
<!-- SUMMATIONS -->
<g id="node3" class="node"><title>SUMMATIONS</title>
<g id="a_node3"><a xlink:href="SUMMATIONS.html" xlink:title=" Summation and product notation " target="_top">
<path fill="none" stroke="black" d="M286.5,-324C286.5,-324 107.5,-324 107.5,-324 101.5,-324 95.5,-318 95.5,-312 95.5,-312 95.5,-300 95.5,-300 95.5,-294 101.5,-288 107.5,-288 107.5,-288 286.5,-288 286.5,-288 292.5,-288 298.5,-294 298.5,-300 298.5,-300 298.5,-312 298.5,-312 298.5,-318 292.5,-324 286.5,-324"/>
<text text-anchor="start" x="103" y="-302.3" font-family="Times,serif" font-size="14.00"> Summation and product notation </text>
</a>
</g>
</g>
<!-- SUMMATIONS&#45;&gt;EXPECTATION -->
<g id="edge2" class="edge"><title>SUMMATIONS&#45;&gt;EXPECTATION</title>
<path fill="none" stroke="black" d="M219.494,-287.697C230.955,-278.881 245.058,-268.032 257.484,-258.474"/>
<polygon fill="black" stroke="black" points="259.972,-260.976 265.764,-252.104 255.704,-255.427 259.972,-260.976"/>
</g>
<!-- BERNOULI_RANDOM_VARIABLE&#45;&gt;MOMENT_GENERATING_FUNCTION -->
<!-- RANDOM_VARIABLES -->
<g id="node7" class="node"><title>RANDOM_VARIABLES</title>
<g id="a_node7"><a xlink:href="RANDOM_VARIABLES.html" xlink:title=" Random variables " target="_top">
<path fill="none" stroke="black" d="M428.25,-324C428.25,-324 329.75,-324 329.75,-324 323.75,-324 317.75,-318 317.75,-312 317.75,-312 317.75,-300 317.75,-300 317.75,-294 323.75,-288 329.75,-288 329.75,-288 428.25,-288 428.25,-288 434.25,-288 440.25,-294 440.25,-300 440.25,-300 440.25,-312 440.25,-312 440.25,-318 434.25,-324 428.25,-324"/>
<text text-anchor="start" x="325.5" y="-302.3" font-family="Times,serif" font-size="14.00"> Random variables </text>
</a>
</g>
</g>
<!-- RANDOM_VARIABLES&#45;&gt;EXPECTATION -->
<g id="edge7" class="edge"><title>RANDOM_VARIABLES&#45;&gt;EXPECTATION</title>
<path fill="none" stroke="black" d="M356.506,-287.697C345.045,-278.881 330.942,-268.032 318.516,-258.474"/>
<polygon fill="black" stroke="black" points="320.296,-255.427 310.236,-252.104 316.028,-260.976 320.296,-255.427"/>
</g>
</g>
</svg>
