<?xml version="1.0" encoding="UTF-8" standalone="no"?>
<!DOCTYPE svg PUBLIC "-//W3C//DTD SVG 1.1//EN"
 "http://www.w3.org/Graphics/SVG/1.1/DTD/svg11.dtd">
<!-- Generated by graphviz version 2.28.0 (20110509.1545)
 -->
<!-- Title: _anonymous_0 Pages: 1 -->
<svg width="356pt" height="260pt"
 viewBox="0.00 0.00 356.30 260.00" xmlns="http://www.w3.org/2000/svg" xmlns:xlink="http://www.w3.org/1999/xlink">
<g id="graph1" class="graph" transform="scale(1 1) rotate(0) translate(4 256)">
<title>_anonymous_0</title>
<!-- EXPECTATION -->
<g id="node1" class="node"><title>EXPECTATION</title>
<a xlink:href="EXPECTATION.html" xlink:title="Expectation " target="_top">
<polyline fill="none" stroke="blue" stroke-width="2" points="289.25,-180 226.75,-180 "/>
<path fill="none" stroke="blue" stroke-width="2" d="M226.75,-180C220.75,-180 214.75,-174 214.75,-168"/>
<polyline fill="none" stroke="blue" stroke-width="2" points="214.75,-168 214.75,-156 "/>
<path fill="none" stroke="blue" stroke-width="2" d="M214.75,-156C214.75,-150 220.75,-144 226.75,-144"/>
<polyline fill="none" stroke="blue" stroke-width="2" points="226.75,-144 289.25,-144 "/>
<path fill="none" stroke="blue" stroke-width="2" d="M289.25,-144C295.25,-144 301.25,-150 301.25,-156"/>
<polyline fill="none" stroke="blue" stroke-width="2" points="301.25,-156 301.25,-168 "/>
<path fill="none" stroke="blue" stroke-width="2" d="M301.25,-168C301.25,-174 295.25,-180 289.25,-180"/>
<text text-anchor="start" x="223" y="-156.5" font-family="Times,serif" font-size="14.00">Expectation </text>
</a>
</g>
<!-- BERNOULI_RANDOM_VARIABLE -->
<g id="node2" class="node"><title>BERNOULI_RANDOM_VARIABLE</title>
<a xlink:href="BERNOULI_RANDOM_VARIABLE.html" xlink:title="Bernoulli random variable" target="_top">
<polyline fill="none" stroke="black" points="152,-108 12,-108 "/>
<path fill="none" stroke="black" d="M12,-108C6,-108 0,-102 0,-96"/>
<polyline fill="none" stroke="black" points="0,-96 0,-84 "/>
<path fill="none" stroke="black" d="M0,-84C0,-78 6,-72 12,-72"/>
<polyline fill="none" stroke="black" points="12,-72 152,-72 "/>
<path fill="none" stroke="black" d="M152,-72C158,-72 164,-78 164,-84"/>
<polyline fill="none" stroke="black" points="164,-84 164,-96 "/>
<path fill="none" stroke="black" d="M164,-96C164,-102 158,-108 152,-108"/>
<text text-anchor="start" x="8.5" y="-84.5" font-family="Times,serif" font-size="14.00">Bernoulli random variable</text>
</a>
</g>
<!-- EXPECTATION&#45;&gt;BERNOULI_RANDOM_VARIABLE -->
<g id="edge2" class="edge"><title>EXPECTATION&#45;&gt;BERNOULI_RANDOM_VARIABLE</title>
<path fill="none" stroke="black" d="M214.946,-143.876C190.671,-134.222 160.16,-122.087 134.492,-111.878"/>
<polygon fill="black" stroke="black" points="135.5,-108.512 124.915,-108.068 132.913,-115.016 135.5,-108.512"/>
</g>
<!-- CONDITIONAL_EXPECTATION -->
<g id="node4" class="node"><title>CONDITIONAL_EXPECTATION</title>
<a xlink:href="CONDITIONAL_EXPECTATION.html" xlink:title="Conditional expectation" target="_top">
<polyline fill="none" stroke="black" points="321.25,-108 194.75,-108 "/>
<path fill="none" stroke="black" d="M194.75,-108C188.75,-108 182.75,-102 182.75,-96"/>
<polyline fill="none" stroke="black" points="182.75,-96 182.75,-84 "/>
<path fill="none" stroke="black" d="M182.75,-84C182.75,-78 188.75,-72 194.75,-72"/>
<polyline fill="none" stroke="black" points="194.75,-72 321.25,-72 "/>
<path fill="none" stroke="black" d="M321.25,-72C327.25,-72 333.25,-78 333.25,-84"/>
<polyline fill="none" stroke="black" points="333.25,-84 333.25,-96 "/>
<path fill="none" stroke="black" d="M333.25,-96C333.25,-102 327.25,-108 321.25,-108"/>
<text text-anchor="start" x="191" y="-84.5" font-family="Times,serif" font-size="14.00">Conditional expectation</text>
</a>
</g>
<!-- EXPECTATION&#45;&gt;CONDITIONAL_EXPECTATION -->
<g id="edge4" class="edge"><title>EXPECTATION&#45;&gt;CONDITIONAL_EXPECTATION</title>
<path fill="none" stroke="black" d="M258,-143.697C258,-135.983 258,-126.712 258,-118.112"/>
<polygon fill="black" stroke="black" points="261.5,-118.104 258,-108.104 254.5,-118.104 261.5,-118.104"/>
</g>
<!-- LAW_OF_LARGE_NUMBERS -->
<g id="node6" class="node"><title>LAW_OF_LARGE_NUMBERS</title>
<a xlink:href="LAW_OF_LARGE_NUMBERS.html" xlink:title="The law of large numbers" target="_top">
<polyline fill="none" stroke="black" points="290,-36 154,-36 "/>
<path fill="none" stroke="black" d="M154,-36C148,-36 142,-30 142,-24"/>
<polyline fill="none" stroke="black" points="142,-24 142,-12 "/>
<path fill="none" stroke="black" d="M142,-12C142,-6 148,-0 154,-0"/>
<polyline fill="none" stroke="black" points="154,-0 290,-0 "/>
<path fill="none" stroke="black" d="M290,-0C296,-0 302,-6 302,-12"/>
<polyline fill="none" stroke="black" points="302,-12 302,-24 "/>
<path fill="none" stroke="black" d="M302,-24C302,-30 296,-36 290,-36"/>
<text text-anchor="start" x="150.5" y="-12.5" font-family="Times,serif" font-size="14.00">The law of large numbers</text>
</a>
</g>
<!-- EXPECTATION&#45;&gt;LAW_OF_LARGE_NUMBERS -->
<g id="edge6" class="edge"><title>EXPECTATION&#45;&gt;LAW_OF_LARGE_NUMBERS</title>
<path fill="none" stroke="black" d="M301.63,-144.221C317.255,-135.843 333.173,-124.006 342,-108 349.726,-93.9892 350.734,-85.4057 342,-72 333.043,-58.2519 319.623,-48.0444 304.961,-40.4733"/>
<polygon fill="black" stroke="black" points="306.237,-37.205 295.701,-36.0919 303.243,-43.5325 306.237,-37.205"/>
</g>
<!-- BERNOULI_RANDOM_VARIABLE&#45;&gt;LAW_OF_LARGE_NUMBERS -->
<!-- RANDOM_VARIABLES -->
<g id="node9" class="node"><title>RANDOM_VARIABLES</title>
<a xlink:href="RANDOM_VARIABLES.html" xlink:title="Random variables" target="_top">
<polyline fill="none" stroke="black" points="305,-252 211,-252 "/>
<path fill="none" stroke="black" d="M211,-252C205,-252 199,-246 199,-240"/>
<polyline fill="none" stroke="black" points="199,-240 199,-228 "/>
<path fill="none" stroke="black" d="M199,-228C199,-222 205,-216 211,-216"/>
<polyline fill="none" stroke="black" points="211,-216 305,-216 "/>
<path fill="none" stroke="black" d="M305,-216C311,-216 317,-222 317,-228"/>
<polyline fill="none" stroke="black" points="317,-228 317,-240 "/>
<path fill="none" stroke="black" d="M317,-240C317,-246 311,-252 305,-252"/>
<text text-anchor="start" x="207.5" y="-228.5" font-family="Times,serif" font-size="14.00">Random variables</text>
</a>
</g>
<!-- RANDOM_VARIABLES&#45;&gt;EXPECTATION -->
<g id="edge10" class="edge"><title>RANDOM_VARIABLES&#45;&gt;EXPECTATION</title>
<path fill="none" stroke="black" d="M258,-215.697C258,-207.983 258,-198.712 258,-190.112"/>
<polygon fill="black" stroke="black" points="261.5,-190.104 258,-180.104 254.5,-190.104 261.5,-190.104"/>
</g>
</g>
</svg>
