<?xml version="1.0" encoding="UTF-8" standalone="no"?>
<!DOCTYPE svg PUBLIC "-//W3C//DTD SVG 1.1//EN"
 "http://www.w3.org/Graphics/SVG/1.1/DTD/svg11.dtd">
<!-- Generated by graphviz version 2.28.0 (20110509.1545)
 -->
<!-- Title: _anonymous_0 Pages: 1 -->
<svg width="559pt" height="332pt"
 viewBox="0.00 0.00 559.00 332.00" xmlns="http://www.w3.org/2000/svg" xmlns:xlink="http://www.w3.org/1999/xlink">
<g id="graph1" class="graph" transform="scale(1 1) rotate(0) translate(4 328)">
<title>_anonymous_0</title>
<!-- EXPECTATION -->
<g id="node1" class="node"><title>EXPECTATION</title>
<a xlink:href="EXPECTATION.html" xlink:title="Expectation " target="_top">
<polyline fill="none" stroke="blue" stroke-width="2" points="393.25,-252 330.75,-252 "/>
<path fill="none" stroke="blue" stroke-width="2" d="M330.75,-252C324.75,-252 318.75,-246 318.75,-240"/>
<polyline fill="none" stroke="blue" stroke-width="2" points="318.75,-240 318.75,-228 "/>
<path fill="none" stroke="blue" stroke-width="2" d="M318.75,-228C318.75,-222 324.75,-216 330.75,-216"/>
<polyline fill="none" stroke="blue" stroke-width="2" points="330.75,-216 393.25,-216 "/>
<path fill="none" stroke="blue" stroke-width="2" d="M393.25,-216C399.25,-216 405.25,-222 405.25,-228"/>
<polyline fill="none" stroke="blue" stroke-width="2" points="405.25,-228 405.25,-240 "/>
<path fill="none" stroke="blue" stroke-width="2" d="M405.25,-240C405.25,-246 399.25,-252 393.25,-252"/>
<text text-anchor="start" x="327" y="-228.5" font-family="Times,serif" font-size="14.00">Expectation </text>
</a>
</g>
<!-- BERNOULI_RANDOM_VARIABLE -->
<g id="node2" class="node"><title>BERNOULI_RANDOM_VARIABLE</title>
<a xlink:href="BERNOULI_RANDOM_VARIABLE.html" xlink:title="Bernoulli random variable" target="_top">
<polyline fill="none" stroke="black" points="152,-180 12,-180 "/>
<path fill="none" stroke="black" d="M12,-180C6,-180 0,-174 0,-168"/>
<polyline fill="none" stroke="black" points="0,-168 0,-156 "/>
<path fill="none" stroke="black" d="M0,-156C0,-150 6,-144 12,-144"/>
<polyline fill="none" stroke="black" points="12,-144 152,-144 "/>
<path fill="none" stroke="black" d="M152,-144C158,-144 164,-150 164,-156"/>
<polyline fill="none" stroke="black" points="164,-156 164,-168 "/>
<path fill="none" stroke="black" d="M164,-168C164,-174 158,-180 152,-180"/>
<text text-anchor="start" x="8.5" y="-156.5" font-family="Times,serif" font-size="14.00">Bernoulli random variable</text>
</a>
</g>
<!-- EXPECTATION&#45;&gt;BERNOULI_RANDOM_VARIABLE -->
<g id="edge2" class="edge"><title>EXPECTATION&#45;&gt;BERNOULI_RANDOM_VARIABLE</title>
<path fill="none" stroke="black" d="M318.557,-222.139C276.275,-211.569 211.084,-195.271 159.837,-182.459"/>
<polygon fill="black" stroke="black" points="160.662,-179.058 150.112,-180.028 158.964,-185.849 160.662,-179.058"/>
</g>
<!-- CONDITIONAL_EXPECTATION -->
<g id="node4" class="node"><title>CONDITIONAL_EXPECTATION</title>
<a xlink:href="CONDITIONAL_EXPECTATION.html" xlink:title="Conditional expectation" target="_top">
<polyline fill="none" stroke="black" points="321.25,-180 194.75,-180 "/>
<path fill="none" stroke="black" d="M194.75,-180C188.75,-180 182.75,-174 182.75,-168"/>
<polyline fill="none" stroke="black" points="182.75,-168 182.75,-156 "/>
<path fill="none" stroke="black" d="M182.75,-156C182.75,-150 188.75,-144 194.75,-144"/>
<polyline fill="none" stroke="black" points="194.75,-144 321.25,-144 "/>
<path fill="none" stroke="black" d="M321.25,-144C327.25,-144 333.25,-150 333.25,-156"/>
<polyline fill="none" stroke="black" points="333.25,-156 333.25,-168 "/>
<path fill="none" stroke="black" d="M333.25,-168C333.25,-174 327.25,-180 321.25,-180"/>
<text text-anchor="start" x="191" y="-156.5" font-family="Times,serif" font-size="14.00">Conditional expectation</text>
</a>
</g>
<!-- EXPECTATION&#45;&gt;CONDITIONAL_EXPECTATION -->
<g id="edge4" class="edge"><title>EXPECTATION&#45;&gt;CONDITIONAL_EXPECTATION</title>
<path fill="none" stroke="black" d="M336.559,-215.876C323.213,-206.893 306.676,-195.763 292.222,-186.034"/>
<polygon fill="black" stroke="black" points="293.789,-182.87 283.539,-180.19 289.881,-188.677 293.789,-182.87"/>
</g>
<!-- LAW_OF_LARGE_NUMBERS -->
<g id="node6" class="node"><title>LAW_OF_LARGE_NUMBERS</title>
<a xlink:href="LAW_OF_LARGE_NUMBERS.html" xlink:title="The law of large numbers" target="_top">
<polyline fill="none" stroke="black" points="270,-108 134,-108 "/>
<path fill="none" stroke="black" d="M134,-108C128,-108 122,-102 122,-96"/>
<polyline fill="none" stroke="black" points="122,-96 122,-84 "/>
<path fill="none" stroke="black" d="M122,-84C122,-78 128,-72 134,-72"/>
<polyline fill="none" stroke="black" points="134,-72 270,-72 "/>
<path fill="none" stroke="black" d="M270,-72C276,-72 282,-78 282,-84"/>
<polyline fill="none" stroke="black" points="282,-84 282,-96 "/>
<path fill="none" stroke="black" d="M282,-96C282,-102 276,-108 270,-108"/>
<text text-anchor="start" x="130.5" y="-84.5" font-family="Times,serif" font-size="14.00">The law of large numbers</text>
</a>
</g>
<!-- EXPECTATION&#45;&gt;LAW_OF_LARGE_NUMBERS -->
<g id="edge6" class="edge"><title>EXPECTATION&#45;&gt;LAW_OF_LARGE_NUMBERS</title>
<path fill="none" stroke="black" d="M362.718,-215.802C362.605,-196.141 359.443,-164.09 342,-144 328.736,-128.723 310.593,-117.836 291.765,-110.082"/>
<polygon fill="black" stroke="black" points="292.774,-106.72 282.183,-106.414 290.271,-113.258 292.774,-106.72"/>
</g>
<!-- MOMENT_GENERATING_FUNCTION -->
<g id="node9" class="node"><title>MOMENT_GENERATING_FUNCTION</title>
<a xlink:href="MOMENT_GENERATING_FUNCTION.html" xlink:title="The moment generating function" target="_top">
<polyline fill="none" stroke="black" points="488,-108 312,-108 "/>
<path fill="none" stroke="black" d="M312,-108C306,-108 300,-102 300,-96"/>
<polyline fill="none" stroke="black" points="300,-96 300,-84 "/>
<path fill="none" stroke="black" d="M300,-84C300,-78 306,-72 312,-72"/>
<polyline fill="none" stroke="black" points="312,-72 488,-72 "/>
<path fill="none" stroke="black" d="M488,-72C494,-72 500,-78 500,-84"/>
<polyline fill="none" stroke="black" points="500,-84 500,-96 "/>
<path fill="none" stroke="black" d="M500,-96C500,-102 494,-108 488,-108"/>
<text text-anchor="start" x="308.5" y="-84.5" font-family="Times,serif" font-size="14.00">The moment generating function</text>
</a>
</g>
<!-- EXPECTATION&#45;&gt;MOMENT_GENERATING_FUNCTION -->
<g id="edge10" class="edge"><title>EXPECTATION&#45;&gt;MOMENT_GENERATING_FUNCTION</title>
<path fill="none" stroke="black" d="M366.584,-215.871C373.089,-191.564 385.063,-146.819 392.771,-118.013"/>
<polygon fill="black" stroke="black" points="396.196,-118.754 395.4,-108.189 389.434,-116.945 396.196,-118.754"/>
</g>
<!-- VARIANCE -->
<g id="node15" class="node"><title>VARIANCE</title>
<a xlink:href="VARIANCE.html" xlink:title="Variance " target="_top">
<polyline fill="none" stroke="black" points="387.25,-36 342.75,-36 "/>
<path fill="none" stroke="black" d="M342.75,-36C336.75,-36 330.75,-30 330.75,-24"/>
<polyline fill="none" stroke="black" points="330.75,-24 330.75,-12 "/>
<path fill="none" stroke="black" d="M330.75,-12C330.75,-6 336.75,-0 342.75,-0"/>
<polyline fill="none" stroke="black" points="342.75,-0 387.25,-0 "/>
<path fill="none" stroke="black" d="M387.25,-0C393.25,-0 399.25,-6 399.25,-12"/>
<polyline fill="none" stroke="black" points="399.25,-12 399.25,-24 "/>
<path fill="none" stroke="black" d="M399.25,-24C399.25,-30 393.25,-36 387.25,-36"/>
<text text-anchor="start" x="339" y="-12.5" font-family="Times,serif" font-size="14.00">Variance </text>
</a>
</g>
<!-- EXPECTATION&#45;&gt;VARIANCE -->
<g id="edge16" class="edge"><title>EXPECTATION&#45;&gt;VARIANCE</title>
<path fill="none" stroke="black" d="M398.894,-215.97C454.452,-187.935 549.059,-129.431 509,-72 486.694,-40.0215 442.826,-27.2847 409.341,-22.2405"/>
<polygon fill="black" stroke="black" points="409.692,-18.7564 399.318,-20.9092 408.77,-25.6955 409.692,-18.7564"/>
</g>
<!-- BERNOULI_RANDOM_VARIABLE&#45;&gt;LAW_OF_LARGE_NUMBERS -->
<!-- LAW_OF_LARGE_NUMBERS&#45;&gt;VARIANCE -->
<!-- RANDOM_VARIABLES -->
<g id="node11" class="node"><title>RANDOM_VARIABLES</title>
<a xlink:href="RANDOM_VARIABLES.html" xlink:title="Random variables" target="_top">
<polyline fill="none" stroke="black" points="321,-324 227,-324 "/>
<path fill="none" stroke="black" d="M227,-324C221,-324 215,-318 215,-312"/>
<polyline fill="none" stroke="black" points="215,-312 215,-300 "/>
<path fill="none" stroke="black" d="M215,-300C215,-294 221,-288 227,-288"/>
<polyline fill="none" stroke="black" points="227,-288 321,-288 "/>
<path fill="none" stroke="black" d="M321,-288C327,-288 333,-294 333,-300"/>
<polyline fill="none" stroke="black" points="333,-300 333,-312 "/>
<path fill="none" stroke="black" d="M333,-312C333,-318 327,-324 321,-324"/>
<text text-anchor="start" x="223.5" y="-300.5" font-family="Times,serif" font-size="14.00">Random variables</text>
</a>
</g>
<!-- RANDOM_VARIABLES&#45;&gt;EXPECTATION -->
<g id="edge12" class="edge"><title>RANDOM_VARIABLES&#45;&gt;EXPECTATION</title>
<path fill="none" stroke="black" d="M295.753,-287.697C306.836,-278.881 320.474,-268.032 332.49,-258.474"/>
<polygon fill="black" stroke="black" points="334.85,-261.069 340.497,-252.104 330.493,-255.59 334.85,-261.069"/>
</g>
<!-- SUMMATIONS -->
<g id="node13" class="node"><title>SUMMATIONS</title>
<a xlink:href="SUMMATIONS.html" xlink:title="Summation and product notation" target="_top">
<polyline fill="none" stroke="black" points="539,-324 363,-324 "/>
<path fill="none" stroke="black" d="M363,-324C357,-324 351,-318 351,-312"/>
<polyline fill="none" stroke="black" points="351,-312 351,-300 "/>
<path fill="none" stroke="black" d="M351,-300C351,-294 357,-288 363,-288"/>
<polyline fill="none" stroke="black" points="363,-288 539,-288 "/>
<path fill="none" stroke="black" d="M539,-288C545,-288 551,-294 551,-300"/>
<polyline fill="none" stroke="black" points="551,-300 551,-312 "/>
<path fill="none" stroke="black" d="M551,-312C551,-318 545,-324 539,-324"/>
<text text-anchor="start" x="359.5" y="-300.5" font-family="Times,serif" font-size="14.00">Summation and product notation</text>
</a>
</g>
<!-- SUMMATIONS&#45;&gt;EXPECTATION -->
<g id="edge14" class="edge"><title>SUMMATIONS&#45;&gt;EXPECTATION</title>
<path fill="none" stroke="black" d="M429,-287.697C417.791,-278.881 403.998,-268.032 391.846,-258.474"/>
<polygon fill="black" stroke="black" points="393.771,-255.535 383.747,-252.104 389.443,-261.038 393.771,-255.535"/>
</g>
</g>
</svg>
