<?xml version="1.0" encoding="UTF-8" standalone="no"?>
<!DOCTYPE svg PUBLIC "-//W3C//DTD SVG 1.1//EN"
 "http://www.w3.org/Graphics/SVG/1.1/DTD/svg11.dtd">
<!-- Generated by graphviz version 2.26.3 (20100126.1600)
 -->
<!-- Title: _anonymous_0 Pages: 1 -->
<svg width="509pt" height="332pt"
 viewBox="0.00 0.00 509.18 332.00" xmlns="http://www.w3.org/2000/svg" xmlns:xlink="http://www.w3.org/1999/xlink">
<g id="graph1" class="graph" transform="scale(1 1) rotate(0) translate(4 328)">
<title>_anonymous_0</title>
<!-- EXPECTATION -->
<g id="node1" class="node"><title>EXPECTATION</title>
<a xlink:href="EXPECTATION.html" xlink:title="Expectation " target="_top">
<polyline fill="none" stroke="blue" stroke-width="2" points="360,-252 280,-252 "/>
<path fill="none" stroke="blue" stroke-width="2" d="M280,-252C274,-252 268,-246 268,-240"/>
<polyline fill="none" stroke="blue" stroke-width="2" points="268,-240 268,-228 "/>
<path fill="none" stroke="blue" stroke-width="2" d="M268,-228C268,-222 274,-216 280,-216"/>
<polyline fill="none" stroke="blue" stroke-width="2" points="280,-216 360,-216 "/>
<path fill="none" stroke="blue" stroke-width="2" d="M360,-216C366,-216 372,-222 372,-228"/>
<polyline fill="none" stroke="blue" stroke-width="2" points="372,-228 372,-240 "/>
<path fill="none" stroke="blue" stroke-width="2" d="M372,-240C372,-246 366,-252 360,-252"/>
<text text-anchor="start" x="276.5" y="-231.233" font-family="Times Roman,serif" font-size="14.00">Expectation </text>
</a>
</g>
<!-- BERNOULI_RANDOM_VARIABLE -->
<g id="node2" class="node"><title>BERNOULI_RANDOM_VARIABLE</title>
<a xlink:href="BERNOULI_RANDOM_VARIABLE.html" xlink:title="Bernoulli random variable" target="_top">
<polyline fill="none" stroke="black" points="182,-180 12,-180 "/>
<path fill="none" stroke="black" d="M12,-180C6,-180 7.10543e-14,-174 5.68434e-14,-168"/>
<polyline fill="none" stroke="black" points="5.68434e-14,-168 2.84217e-14,-156 "/>
<path fill="none" stroke="black" d="M2.84217e-14,-156C1.42109e-14,-150 6,-144 12,-144"/>
<polyline fill="none" stroke="black" points="12,-144 182,-144 "/>
<path fill="none" stroke="black" d="M182,-144C188,-144 194,-150 194,-156"/>
<polyline fill="none" stroke="black" points="194,-156 194,-168 "/>
<path fill="none" stroke="black" d="M194,-168C194,-174 188,-180 182,-180"/>
<text text-anchor="start" x="8" y="-159.233" font-family="Times Roman,serif" font-size="14.00">Bernoulli random variable</text>
</a>
</g>
<!-- EXPECTATION&#45;&gt;BERNOULI_RANDOM_VARIABLE -->
<g id="edge2" class="edge"><title>EXPECTATION&#45;&gt;BERNOULI_RANDOM_VARIABLE</title>
<path fill="none" stroke="black" d="M267.998,-217.21C236.605,-207.074 196.313,-194.065 162.726,-183.221"/>
<polygon fill="black" stroke="black" points="163.583,-179.82 152.991,-180.078 161.432,-186.481 163.583,-179.82"/>
</g>
<!-- VARIANCE -->
<g id="node4" class="node"><title>VARIANCE</title>
<a xlink:href="VARIANCE.html" xlink:title="Variance " target="_top">
<polyline fill="none" stroke="black" points="280,-180 224,-180 "/>
<path fill="none" stroke="black" d="M224,-180C218,-180 212,-174 212,-168"/>
<polyline fill="none" stroke="black" points="212,-168 212,-156 "/>
<path fill="none" stroke="black" d="M212,-156C212,-150 218,-144 224,-144"/>
<polyline fill="none" stroke="black" points="224,-144 280,-144 "/>
<path fill="none" stroke="black" d="M280,-144C286,-144 292,-150 292,-156"/>
<polyline fill="none" stroke="black" points="292,-156 292,-168 "/>
<path fill="none" stroke="black" d="M292,-168C292,-174 286,-180 280,-180"/>
<text text-anchor="start" x="220" y="-159.233" font-family="Times Roman,serif" font-size="14.00">Variance </text>
</a>
</g>
<!-- EXPECTATION&#45;&gt;VARIANCE -->
<g id="edge4" class="edge"><title>EXPECTATION&#45;&gt;VARIANCE</title>
<path fill="none" stroke="black" d="M302.841,-215.831C294.849,-207.369 285.196,-197.149 276.458,-187.897"/>
<polygon fill="black" stroke="black" points="278.801,-185.28 269.39,-180.413 273.712,-190.087 278.801,-185.28"/>
</g>
<!-- LAW_OF_LARGE_NUMBERS -->
<g id="node8" class="node"><title>LAW_OF_LARGE_NUMBERS</title>
<a xlink:href="LAW_OF_LARGE_NUMBERS.html" xlink:title="The law of large numbers" target="_top">
<polyline fill="none" stroke="black" points="205,-108 35,-108 "/>
<path fill="none" stroke="black" d="M35,-108C29,-108 23,-102 23,-96"/>
<polyline fill="none" stroke="black" points="23,-96 23,-84 "/>
<path fill="none" stroke="black" d="M23,-84C23,-78 29,-72 35,-72"/>
<polyline fill="none" stroke="black" points="35,-72 205,-72 "/>
<path fill="none" stroke="black" d="M205,-72C211,-72 217,-78 217,-84"/>
<polyline fill="none" stroke="black" points="217,-84 217,-96 "/>
<path fill="none" stroke="black" d="M217,-96C217,-102 211,-108 205,-108"/>
<text text-anchor="start" x="31.5" y="-87.2333" font-family="Times Roman,serif" font-size="14.00">The law of large numbers</text>
</a>
</g>
<!-- EXPECTATION&#45;&gt;LAW_OF_LARGE_NUMBERS -->
<g id="edge8" class="edge"><title>EXPECTATION&#45;&gt;LAW_OF_LARGE_NUMBERS</title>
<path fill="none" stroke="black" d="M321.266,-215.679C321.618,-195.551 318.962,-163.496 301,-144 289.17,-131.159 255.863,-119.657 220.994,-110.602"/>
<polygon fill="black" stroke="black" points="221.686,-107.168 211.134,-108.114 219.974,-113.955 221.686,-107.168"/>
</g>
<!-- MOMENT_GENERATING_FUNCTION -->
<g id="node13" class="node"><title>MOMENT_GENERATING_FUNCTION</title>
<a xlink:href="MOMENT_GENERATING_FUNCTION.html" xlink:title="The moment generating function" target="_top">
<polyline fill="none" stroke="black" points="469,-108 247,-108 "/>
<path fill="none" stroke="black" d="M247,-108C241,-108 235,-102 235,-96"/>
<polyline fill="none" stroke="black" points="235,-96 235,-84 "/>
<path fill="none" stroke="black" d="M235,-84C235,-78 241,-72 247,-72"/>
<polyline fill="none" stroke="black" points="247,-72 469,-72 "/>
<path fill="none" stroke="black" d="M469,-72C475,-72 481,-78 481,-84"/>
<polyline fill="none" stroke="black" points="481,-84 481,-96 "/>
<path fill="none" stroke="black" d="M481,-96C481,-102 475,-108 469,-108"/>
<text text-anchor="start" x="243.5" y="-87.2333" font-family="Times Roman,serif" font-size="14.00">The moment generating function</text>
</a>
</g>
<!-- EXPECTATION&#45;&gt;MOMENT_GENERATING_FUNCTION -->
<g id="edge14" class="edge"><title>EXPECTATION&#45;&gt;MOMENT_GENERATING_FUNCTION</title>
<path fill="none" stroke="black" d="M324.813,-215.762C331.323,-191.093 342.995,-146.86 350.618,-117.973"/>
<polygon fill="black" stroke="black" points="354.059,-118.652 353.226,-108.09 347.291,-116.866 354.059,-118.652"/>
</g>
<!-- CONDITIONAL_EXPECTATION -->
<g id="node15" class="node"><title>CONDITIONAL_EXPECTATION</title>
<a xlink:href="CONDITIONAL_EXPECTATION.html" xlink:title="Conditional expectation" target="_top">
<polyline fill="none" stroke="black" points="392,-36 236,-36 "/>
<path fill="none" stroke="black" d="M236,-36C230,-36 224,-30 224,-24"/>
<polyline fill="none" stroke="black" points="224,-24 224,-12 "/>
<path fill="none" stroke="black" d="M224,-12C224,-6 230,-1.72899e-14 236,-1.68162e-14"/>
<polyline fill="none" stroke="black" points="236,-1.68162e-14 392,-4.5001e-15 "/>
<path fill="none" stroke="black" d="M392,-4.5001e-15C398,-4.02641e-15 404,-6 404,-12"/>
<polyline fill="none" stroke="black" points="404,-12 404,-24 "/>
<path fill="none" stroke="black" d="M404,-24C404,-30 398,-36 392,-36"/>
<text text-anchor="start" x="232" y="-15.2333" font-family="Times Roman,serif" font-size="14.00">Conditional expectation</text>
</a>
</g>
<!-- EXPECTATION&#45;&gt;CONDITIONAL_EXPECTATION -->
<g id="edge16" class="edge"><title>EXPECTATION&#45;&gt;CONDITIONAL_EXPECTATION</title>
<path fill="none" stroke="black" d="M365.987,-215.944C430.148,-188.064 533.984,-131.503 490,-72 479.971,-58.4322 448.279,-46.8709 414.498,-37.9688"/>
<polygon fill="black" stroke="black" points="415.007,-34.4866 404.452,-35.4109 413.279,-41.2702 415.007,-34.4866"/>
</g>
<!-- BERNOULI_RANDOM_VARIABLE&#45;&gt;LAW_OF_LARGE_NUMBERS -->
<!-- SUMMATIONS -->
<g id="node6" class="node"><title>SUMMATIONS</title>
<a xlink:href="SUMMATIONS.html" xlink:title="Summation and product notation" target="_top">
<polyline fill="none" stroke="black" points="326,-324 104,-324 "/>
<path fill="none" stroke="black" d="M104,-324C98,-324 92,-318 92,-312"/>
<polyline fill="none" stroke="black" points="92,-312 92,-300 "/>
<path fill="none" stroke="black" d="M92,-300C92,-294 98,-288 104,-288"/>
<polyline fill="none" stroke="black" points="104,-288 326,-288 "/>
<path fill="none" stroke="black" d="M326,-288C332,-288 338,-294 338,-300"/>
<polyline fill="none" stroke="black" points="338,-300 338,-312 "/>
<path fill="none" stroke="black" d="M338,-312C338,-318 332,-324 326,-324"/>
<text text-anchor="start" x="100.5" y="-303.233" font-family="Times Roman,serif" font-size="14.00">Summation and product notation</text>
</a>
</g>
<!-- SUMMATIONS&#45;&gt;EXPECTATION -->
<g id="edge6" class="edge"><title>SUMMATIONS&#45;&gt;EXPECTATION</title>
<path fill="none" stroke="black" d="M241.496,-287.831C254.677,-278.793 270.785,-267.748 284.971,-258.02"/>
<polygon fill="black" stroke="black" points="287.245,-260.705 293.513,-252.163 283.286,-254.932 287.245,-260.705"/>
</g>
<!-- LAW_OF_LARGE_NUMBERS&#45;&gt;CONDITIONAL_EXPECTATION -->
<!-- RANDOM_VARIABLES -->
<g id="node11" class="node"><title>RANDOM_VARIABLES</title>
<a xlink:href="RANDOM_VARIABLES.html" xlink:title="Random variables" target="_top">
<polyline fill="none" stroke="black" points="484,-324 368,-324 "/>
<path fill="none" stroke="black" d="M368,-324C362,-324 356,-318 356,-312"/>
<polyline fill="none" stroke="black" points="356,-312 356,-300 "/>
<path fill="none" stroke="black" d="M356,-300C356,-294 362,-288 368,-288"/>
<polyline fill="none" stroke="black" points="368,-288 484,-288 "/>
<path fill="none" stroke="black" d="M484,-288C490,-288 496,-294 496,-300"/>
<polyline fill="none" stroke="black" points="496,-300 496,-312 "/>
<path fill="none" stroke="black" d="M496,-312C496,-318 490,-324 484,-324"/>
<text text-anchor="start" x="364.5" y="-303.233" font-family="Times Roman,serif" font-size="14.00">Random variables</text>
</a>
</g>
<!-- RANDOM_VARIABLES&#45;&gt;EXPECTATION -->
<g id="edge12" class="edge"><title>RANDOM_VARIABLES&#45;&gt;EXPECTATION</title>
<path fill="none" stroke="black" d="M399.252,-287.831C385.945,-278.793 369.684,-267.748 355.363,-258.02"/>
<polygon fill="black" stroke="black" points="356.979,-254.886 346.74,-252.163 353.045,-260.677 356.979,-254.886"/>
</g>
</g>
</svg>
