<?xml version="1.0" encoding="UTF-8" standalone="no"?>
<!DOCTYPE svg PUBLIC "-//W3C//DTD SVG 1.1//EN"
 "http://www.w3.org/Graphics/SVG/1.1/DTD/svg11.dtd">
<!-- Generated by graphviz version 2.28.0 (20110509.1545)
 -->
<!-- Title: _anonymous_0 Pages: 1 -->
<svg width="507pt" height="260pt"
 viewBox="0.00 0.00 507.00 260.00" xmlns="http://www.w3.org/2000/svg" xmlns:xlink="http://www.w3.org/1999/xlink">
<g id="graph1" class="graph" transform="scale(1 1) rotate(0) translate(4 256)">
<title>_anonymous_0</title>
<!-- EXPECTATION -->
<g id="node1" class="node"><title>EXPECTATION</title>
<a xlink:href="EXPECTATION.html" xlink:title="Expectation " target="_top">
<polyline fill="none" stroke="blue" stroke-width="2" points="341.25,-180 278.75,-180 "/>
<path fill="none" stroke="blue" stroke-width="2" d="M278.75,-180C272.75,-180 266.75,-174 266.75,-168"/>
<polyline fill="none" stroke="blue" stroke-width="2" points="266.75,-168 266.75,-156 "/>
<path fill="none" stroke="blue" stroke-width="2" d="M266.75,-156C266.75,-150 272.75,-144 278.75,-144"/>
<polyline fill="none" stroke="blue" stroke-width="2" points="278.75,-144 341.25,-144 "/>
<path fill="none" stroke="blue" stroke-width="2" d="M341.25,-144C347.25,-144 353.25,-150 353.25,-156"/>
<polyline fill="none" stroke="blue" stroke-width="2" points="353.25,-156 353.25,-168 "/>
<path fill="none" stroke="blue" stroke-width="2" d="M353.25,-168C353.25,-174 347.25,-180 341.25,-180"/>
<text text-anchor="start" x="275" y="-156.5" font-family="Times,serif" font-size="14.00">Expectation </text>
</a>
</g>
<!-- BERNOULI_RANDOM_VARIABLE -->
<g id="node2" class="node"><title>BERNOULI_RANDOM_VARIABLE</title>
<a xlink:href="BERNOULI_RANDOM_VARIABLE.html" xlink:title="Bernoulli random variable" target="_top">
<polyline fill="none" stroke="black" points="152,-108 12,-108 "/>
<path fill="none" stroke="black" d="M12,-108C6,-108 0,-102 0,-96"/>
<polyline fill="none" stroke="black" points="0,-96 0,-84 "/>
<path fill="none" stroke="black" d="M0,-84C0,-78 6,-72 12,-72"/>
<polyline fill="none" stroke="black" points="12,-72 152,-72 "/>
<path fill="none" stroke="black" d="M152,-72C158,-72 164,-78 164,-84"/>
<polyline fill="none" stroke="black" points="164,-84 164,-96 "/>
<path fill="none" stroke="black" d="M164,-96C164,-102 158,-108 152,-108"/>
<text text-anchor="start" x="8.5" y="-84.5" font-family="Times,serif" font-size="14.00">Bernoulli random variable</text>
</a>
</g>
<!-- EXPECTATION&#45;&gt;BERNOULI_RANDOM_VARIABLE -->
<g id="edge2" class="edge"><title>EXPECTATION&#45;&gt;BERNOULI_RANDOM_VARIABLE</title>
<path fill="none" stroke="black" d="M266.578,-147.669C232.895,-137.327 185.658,-122.825 147.403,-111.08"/>
<polygon fill="black" stroke="black" points="147.966,-107.591 137.379,-108.002 145.911,-114.283 147.966,-107.591"/>
</g>
<!-- CONDITIONAL_EXPECTATION -->
<g id="node4" class="node"><title>CONDITIONAL_EXPECTATION</title>
<a xlink:href="CONDITIONAL_EXPECTATION.html" xlink:title="Conditional expectation" target="_top">
<polyline fill="none" stroke="black" points="321.25,-108 194.75,-108 "/>
<path fill="none" stroke="black" d="M194.75,-108C188.75,-108 182.75,-102 182.75,-96"/>
<polyline fill="none" stroke="black" points="182.75,-96 182.75,-84 "/>
<path fill="none" stroke="black" d="M182.75,-84C182.75,-78 188.75,-72 194.75,-72"/>
<polyline fill="none" stroke="black" points="194.75,-72 321.25,-72 "/>
<path fill="none" stroke="black" d="M321.25,-72C327.25,-72 333.25,-78 333.25,-84"/>
<polyline fill="none" stroke="black" points="333.25,-84 333.25,-96 "/>
<path fill="none" stroke="black" d="M333.25,-96C333.25,-102 327.25,-108 321.25,-108"/>
<text text-anchor="start" x="191" y="-84.5" font-family="Times,serif" font-size="14.00">Conditional expectation</text>
</a>
</g>
<!-- EXPECTATION&#45;&gt;CONDITIONAL_EXPECTATION -->
<g id="edge4" class="edge"><title>EXPECTATION&#45;&gt;CONDITIONAL_EXPECTATION</title>
<path fill="none" stroke="black" d="M297.146,-143.697C290.975,-135.389 283.463,-125.277 276.676,-116.141"/>
<polygon fill="black" stroke="black" points="279.479,-114.045 270.706,-108.104 273.86,-118.219 279.479,-114.045"/>
</g>
<!-- LAW_OF_LARGE_NUMBERS -->
<g id="node6" class="node"><title>LAW_OF_LARGE_NUMBERS</title>
<a xlink:href="LAW_OF_LARGE_NUMBERS.html" xlink:title="The law of large numbers" target="_top">
<polyline fill="none" stroke="black" points="290,-36 154,-36 "/>
<path fill="none" stroke="black" d="M154,-36C148,-36 142,-30 142,-24"/>
<polyline fill="none" stroke="black" points="142,-24 142,-12 "/>
<path fill="none" stroke="black" d="M142,-12C142,-6 148,-0 154,-0"/>
<polyline fill="none" stroke="black" points="154,-0 290,-0 "/>
<path fill="none" stroke="black" d="M290,-0C296,-0 302,-6 302,-12"/>
<polyline fill="none" stroke="black" points="302,-12 302,-24 "/>
<path fill="none" stroke="black" d="M302,-24C302,-30 296,-36 290,-36"/>
<text text-anchor="start" x="150.5" y="-12.5" font-family="Times,serif" font-size="14.00">The law of large numbers</text>
</a>
</g>
<!-- EXPECTATION&#45;&gt;LAW_OF_LARGE_NUMBERS -->
<g id="edge6" class="edge"><title>EXPECTATION&#45;&gt;LAW_OF_LARGE_NUMBERS</title>
<path fill="none" stroke="black" d="M324.862,-143.862C339.221,-125.111 356.79,-94.6998 342,-72 333.043,-58.2519 319.623,-48.0444 304.961,-40.4733"/>
<polygon fill="black" stroke="black" points="306.237,-37.205 295.701,-36.0919 303.243,-43.5325 306.237,-37.205"/>
</g>
<!-- VARIANCE -->
<g id="node13" class="node"><title>VARIANCE</title>
<a xlink:href="VARIANCE.html" xlink:title="Variance " target="_top">
<polyline fill="none" stroke="black" points="447.25,-108 402.75,-108 "/>
<path fill="none" stroke="black" d="M402.75,-108C396.75,-108 390.75,-102 390.75,-96"/>
<polyline fill="none" stroke="black" points="390.75,-96 390.75,-84 "/>
<path fill="none" stroke="black" d="M390.75,-84C390.75,-78 396.75,-72 402.75,-72"/>
<polyline fill="none" stroke="black" points="402.75,-72 447.25,-72 "/>
<path fill="none" stroke="black" d="M447.25,-72C453.25,-72 459.25,-78 459.25,-84"/>
<polyline fill="none" stroke="black" points="459.25,-84 459.25,-96 "/>
<path fill="none" stroke="black" d="M459.25,-96C459.25,-102 453.25,-108 447.25,-108"/>
<text text-anchor="start" x="399" y="-84.5" font-family="Times,serif" font-size="14.00">Variance </text>
</a>
</g>
<!-- EXPECTATION&#45;&gt;VARIANCE -->
<g id="edge14" class="edge"><title>EXPECTATION&#45;&gt;VARIANCE</title>
<path fill="none" stroke="black" d="M338.132,-143.876C353.168,-134.724 371.867,-123.342 388.06,-113.485"/>
<polygon fill="black" stroke="black" points="390.038,-116.379 396.76,-108.19 386.398,-110.4 390.038,-116.379"/>
</g>
<!-- BERNOULI_RANDOM_VARIABLE&#45;&gt;LAW_OF_LARGE_NUMBERS -->
<!-- RANDOM_VARIABLES -->
<g id="node9" class="node"><title>RANDOM_VARIABLES</title>
<a xlink:href="RANDOM_VARIABLES.html" xlink:title="Random variables" target="_top">
<polyline fill="none" stroke="black" points="269,-252 175,-252 "/>
<path fill="none" stroke="black" d="M175,-252C169,-252 163,-246 163,-240"/>
<polyline fill="none" stroke="black" points="163,-240 163,-228 "/>
<path fill="none" stroke="black" d="M163,-228C163,-222 169,-216 175,-216"/>
<polyline fill="none" stroke="black" points="175,-216 269,-216 "/>
<path fill="none" stroke="black" d="M269,-216C275,-216 281,-222 281,-228"/>
<polyline fill="none" stroke="black" points="281,-228 281,-240 "/>
<path fill="none" stroke="black" d="M281,-240C281,-246 275,-252 269,-252"/>
<text text-anchor="start" x="171.5" y="-228.5" font-family="Times,serif" font-size="14.00">Random variables</text>
</a>
</g>
<!-- RANDOM_VARIABLES&#45;&gt;EXPECTATION -->
<g id="edge10" class="edge"><title>RANDOM_VARIABLES&#45;&gt;EXPECTATION</title>
<path fill="none" stroke="black" d="M243.753,-215.697C254.836,-206.881 268.474,-196.032 280.49,-186.474"/>
<polygon fill="black" stroke="black" points="282.85,-189.069 288.497,-180.104 278.493,-183.59 282.85,-189.069"/>
</g>
<!-- SUMMATIONS -->
<g id="node11" class="node"><title>SUMMATIONS</title>
<a xlink:href="SUMMATIONS.html" xlink:title="Summation and product notation" target="_top">
<polyline fill="none" stroke="black" points="487,-252 311,-252 "/>
<path fill="none" stroke="black" d="M311,-252C305,-252 299,-246 299,-240"/>
<polyline fill="none" stroke="black" points="299,-240 299,-228 "/>
<path fill="none" stroke="black" d="M299,-228C299,-222 305,-216 311,-216"/>
<polyline fill="none" stroke="black" points="311,-216 487,-216 "/>
<path fill="none" stroke="black" d="M487,-216C493,-216 499,-222 499,-228"/>
<polyline fill="none" stroke="black" points="499,-228 499,-240 "/>
<path fill="none" stroke="black" d="M499,-240C499,-246 493,-252 487,-252"/>
<text text-anchor="start" x="307.5" y="-228.5" font-family="Times,serif" font-size="14.00">Summation and product notation</text>
</a>
</g>
<!-- SUMMATIONS&#45;&gt;EXPECTATION -->
<g id="edge12" class="edge"><title>SUMMATIONS&#45;&gt;EXPECTATION</title>
<path fill="none" stroke="black" d="M377,-215.697C365.791,-206.881 351.998,-196.032 339.846,-186.474"/>
<polygon fill="black" stroke="black" points="341.771,-183.535 331.747,-180.104 337.443,-189.038 341.771,-183.535"/>
</g>
</g>
</svg>
