<?xml version="1.0" encoding="UTF-8" standalone="no"?>
<!DOCTYPE svg PUBLIC "-//W3C//DTD SVG 1.1//EN"
 "http://www.w3.org/Graphics/SVG/1.1/DTD/svg11.dtd">
<!-- Generated by graphviz version 2.28.0 (20110509.1545)
 -->
<!-- Title: _anonymous_0 Pages: 1 -->
<svg width="473pt" height="260pt"
 viewBox="0.00 0.00 473.00 260.00" xmlns="http://www.w3.org/2000/svg" xmlns:xlink="http://www.w3.org/1999/xlink">
<g id="graph1" class="graph" transform="scale(1 1) rotate(0) translate(4 256)">
<title>_anonymous_0</title>
<!-- EXPONENTIAL_GROWTH_DECAY -->
<g id="node1" class="node"><title>EXPONENTIAL_GROWTH_DECAY</title>
<a xlink:href="EXPONENTIAL_GROWTH_DECAY.html" xlink:title="Exponential growth/decay" target="_top">
<polyline fill="none" stroke="blue" stroke-width="2" points="280,-108 140,-108 "/>
<path fill="none" stroke="blue" stroke-width="2" d="M140,-108C134,-108 128,-102 128,-96"/>
<polyline fill="none" stroke="blue" stroke-width="2" points="128,-96 128,-84 "/>
<path fill="none" stroke="blue" stroke-width="2" d="M128,-84C128,-78 134,-72 140,-72"/>
<polyline fill="none" stroke="blue" stroke-width="2" points="140,-72 280,-72 "/>
<path fill="none" stroke="blue" stroke-width="2" d="M280,-72C286,-72 292,-78 292,-84"/>
<polyline fill="none" stroke="blue" stroke-width="2" points="292,-84 292,-96 "/>
<path fill="none" stroke="blue" stroke-width="2" d="M292,-96C292,-102 286,-108 280,-108"/>
<text text-anchor="start" x="136.5" y="-84.5" font-family="Times,serif" font-size="14.00">Exponential growth/decay</text>
</a>
</g>
<!-- EXPONENTIAL_RANDOM_VARIABLE -->
<g id="node4" class="node"><title>EXPONENTIAL_RANDOM_VARIABLE</title>
<a xlink:href="EXPONENTIAL_RANDOM_VARIABLE.html" xlink:title="Exponential random variable" target="_top">
<polyline fill="none" stroke="black" points="166.25,-36 11.75,-36 "/>
<path fill="none" stroke="black" d="M11.75,-36C5.75,-36 -0.25,-30 -0.25,-24"/>
<polyline fill="none" stroke="black" points="-0.25,-24 -0.25,-12 "/>
<path fill="none" stroke="black" d="M-0.25,-12C-0.25,-6 5.75,-0 11.75,-0"/>
<polyline fill="none" stroke="black" points="11.75,-0 166.25,-0 "/>
<path fill="none" stroke="black" d="M166.25,-0C172.25,-0 178.25,-6 178.25,-12"/>
<polyline fill="none" stroke="black" points="178.25,-12 178.25,-24 "/>
<path fill="none" stroke="black" d="M178.25,-24C178.25,-30 172.25,-36 166.25,-36"/>
<text text-anchor="start" x="8" y="-12.5" font-family="Times,serif" font-size="14.00">Exponential random variable</text>
</a>
</g>
<!-- EXPONENTIAL_GROWTH_DECAY&#45;&gt;EXPONENTIAL_RANDOM_VARIABLE -->
<g id="edge4" class="edge"><title>EXPONENTIAL_GROWTH_DECAY&#45;&gt;EXPONENTIAL_RANDOM_VARIABLE</title>
<path fill="none" stroke="black" d="M180.4,-71.8761C164.433,-62.6388 144.54,-51.1308 127.394,-41.2116"/>
<polygon fill="black" stroke="black" points="129.122,-38.1678 118.714,-36.1898 125.617,-44.2269 129.122,-38.1678"/>
</g>
<!-- SOVING_DIFFERENTIAL_EQUATIONS_USING_INTEGRATING_FACTORS -->
<g id="node6" class="node"><title>SOVING_DIFFERENTIAL_EQUATIONS_USING_INTEGRATING_FACTORS</title>
<a xlink:href="SOVING_DIFFERENTIAL_EQUATIONS_USING_INTEGRATING_FACTORS.html" xlink:title="Differential equations and integrating factors" target="_top">
<polyline fill="none" stroke="black" points="453,-36 209,-36 "/>
<path fill="none" stroke="black" d="M209,-36C203,-36 197,-30 197,-24"/>
<polyline fill="none" stroke="black" points="197,-24 197,-12 "/>
<path fill="none" stroke="black" d="M197,-12C197,-6 203,-0 209,-0"/>
<polyline fill="none" stroke="black" points="209,-0 453,-0 "/>
<path fill="none" stroke="black" d="M453,-0C459,-0 465,-6 465,-12"/>
<polyline fill="none" stroke="black" points="465,-12 465,-24 "/>
<path fill="none" stroke="black" d="M465,-24C465,-30 459,-36 453,-36"/>
<text text-anchor="start" x="205.5" y="-12.5" font-family="Times,serif" font-size="14.00">Differential equations and integrating factors</text>
</a>
</g>
<!-- EXPONENTIAL_GROWTH_DECAY&#45;&gt;SOVING_DIFFERENTIAL_EQUATIONS_USING_INTEGRATING_FACTORS -->
<g id="edge6" class="edge"><title>EXPONENTIAL_GROWTH_DECAY&#45;&gt;SOVING_DIFFERENTIAL_EQUATIONS_USING_INTEGRATING_FACTORS</title>
<path fill="none" stroke="black" d="M239.6,-71.8761C255.567,-62.6388 275.46,-51.1308 292.606,-41.2116"/>
<polygon fill="black" stroke="black" points="294.383,-44.2269 301.286,-36.1898 290.878,-38.1678 294.383,-44.2269"/>
</g>
<!-- CONTINUOUS_TIME_MARKOV_CHAIN -->
<g id="node2" class="node"><title>CONTINUOUS_TIME_MARKOV_CHAIN</title>
<a xlink:href="CONTINUOUS_TIME_MARKOV_CHAIN.html" xlink:title="Markov chains in continuous time" target="_top">
<polyline fill="none" stroke="black" points="207,-252 23,-252 "/>
<path fill="none" stroke="black" d="M23,-252C17,-252 11,-246 11,-240"/>
<polyline fill="none" stroke="black" points="11,-240 11,-228 "/>
<path fill="none" stroke="black" d="M11,-228C11,-222 17,-216 23,-216"/>
<polyline fill="none" stroke="black" points="23,-216 207,-216 "/>
<path fill="none" stroke="black" d="M207,-216C213,-216 219,-222 219,-228"/>
<polyline fill="none" stroke="black" points="219,-228 219,-240 "/>
<path fill="none" stroke="black" d="M219,-240C219,-246 213,-252 207,-252"/>
<text text-anchor="start" x="19.5" y="-228.5" font-family="Times,serif" font-size="14.00">Markov chains in continuous time</text>
</a>
</g>
<!-- CONTINUOUS_TIME_MARKOV_CHAIN&#45;&gt;EXPONENTIAL_GROWTH_DECAY -->
<g id="edge2" class="edge"><title>CONTINUOUS_TIME_MARKOV_CHAIN&#45;&gt;EXPONENTIAL_GROWTH_DECAY</title>
<path fill="none" stroke="black" d="M115.015,-215.836C115.811,-196.785 119.494,-165.85 134,-144 142.019,-131.922 153.811,-121.779 165.726,-113.706"/>
<polygon fill="black" stroke="black" points="167.82,-116.522 174.371,-108.195 164.057,-110.619 167.82,-116.522"/>
</g>
<!-- THE_EXPONENTIAL_FUNCTION -->
<g id="node10" class="node"><title>THE_EXPONENTIAL_FUNCTION</title>
<a xlink:href="THE_EXPONENTIAL_FUNCTION.html" xlink:title="Exponential function" target="_top">
<polyline fill="none" stroke="black" points="265,-180 155,-180 "/>
<path fill="none" stroke="black" d="M155,-180C149,-180 143,-174 143,-168"/>
<polyline fill="none" stroke="black" points="143,-168 143,-156 "/>
<path fill="none" stroke="black" d="M143,-156C143,-150 149,-144 155,-144"/>
<polyline fill="none" stroke="black" points="155,-144 265,-144 "/>
<path fill="none" stroke="black" d="M265,-144C271,-144 277,-150 277,-156"/>
<polyline fill="none" stroke="black" points="277,-156 277,-168 "/>
<path fill="none" stroke="black" d="M277,-168C277,-174 271,-180 265,-180"/>
<text text-anchor="start" x="151.5" y="-156.5" font-family="Times,serif" font-size="14.00">Exponential function</text>
</a>
</g>
<!-- CONTINUOUS_TIME_MARKOV_CHAIN&#45;&gt;THE_EXPONENTIAL_FUNCTION -->
<!-- TAYLOR_SERIES -->
<g id="node8" class="node"><title>TAYLOR_SERIES</title>
<a xlink:href="TAYLOR_SERIES.html" xlink:title="One dimensional Taylor Series" target="_top">
<polyline fill="none" stroke="black" points="414.25,-252 249.75,-252 "/>
<path fill="none" stroke="black" d="M249.75,-252C243.75,-252 237.75,-246 237.75,-240"/>
<polyline fill="none" stroke="black" points="237.75,-240 237.75,-228 "/>
<path fill="none" stroke="black" d="M237.75,-228C237.75,-222 243.75,-216 249.75,-216"/>
<polyline fill="none" stroke="black" points="249.75,-216 414.25,-216 "/>
<path fill="none" stroke="black" d="M414.25,-216C420.25,-216 426.25,-222 426.25,-228"/>
<polyline fill="none" stroke="black" points="426.25,-228 426.25,-240 "/>
<path fill="none" stroke="black" d="M426.25,-240C426.25,-246 420.25,-252 414.25,-252"/>
<text text-anchor="start" x="246" y="-228.5" font-family="Times,serif" font-size="14.00">One dimensional Taylor Series</text>
</a>
</g>
<!-- TAYLOR_SERIES&#45;&gt;EXPONENTIAL_GROWTH_DECAY -->
<g id="edge8" class="edge"><title>TAYLOR_SERIES&#45;&gt;EXPONENTIAL_GROWTH_DECAY</title>
<path fill="none" stroke="black" d="M325.996,-215.787C318.719,-196.692 305.026,-165.717 286,-144 275.837,-132.4 262.627,-122.054 250.077,-113.651"/>
<polygon fill="black" stroke="black" points="251.842,-110.625 241.54,-108.153 248.052,-116.51 251.842,-110.625"/>
</g>
<!-- THE_EXPONENTIAL_FUNCTION&#45;&gt;EXPONENTIAL_GROWTH_DECAY -->
<g id="edge10" class="edge"><title>THE_EXPONENTIAL_FUNCTION&#45;&gt;EXPONENTIAL_GROWTH_DECAY</title>
<path fill="none" stroke="black" d="M210,-143.697C210,-135.983 210,-126.712 210,-118.112"/>
<polygon fill="black" stroke="black" points="213.5,-118.104 210,-108.104 206.5,-118.104 213.5,-118.104"/>
</g>
</g>
</svg>
