<?xml version="1.0" encoding="UTF-8" standalone="no"?>
<!DOCTYPE svg PUBLIC "-//W3C//DTD SVG 1.1//EN"
 "http://www.w3.org/Graphics/SVG/1.1/DTD/svg11.dtd">
<!-- Generated by graphviz version 2.28.0 (20110509.1545)
 -->
<!-- Title: _anonymous_0 Pages: 1 -->
<svg width="322pt" height="188pt"
 viewBox="0.00 0.00 322.00 188.00" xmlns="http://www.w3.org/2000/svg" xmlns:xlink="http://www.w3.org/1999/xlink">
<g id="graph1" class="graph" transform="scale(1 1) rotate(0) translate(4 184)">
<title>_anonymous_0</title>
<!-- EXPONENTIAL_RANDOM_VARIABLE -->
<g id="node1" class="node"><title>EXPONENTIAL_RANDOM_VARIABLE</title>
<a xlink:href="EXPONENTIAL_RANDOM_VARIABLE.html" xlink:title="Exponential random variable" target="_top">
<polyline fill="none" stroke="blue" stroke-width="2" points="241.25,-36 86.75,-36 "/>
<path fill="none" stroke="blue" stroke-width="2" d="M86.75,-36C80.75,-36 74.75,-30 74.75,-24"/>
<polyline fill="none" stroke="blue" stroke-width="2" points="74.75,-24 74.75,-12 "/>
<path fill="none" stroke="blue" stroke-width="2" d="M74.75,-12C74.75,-6 80.75,-0 86.75,-0"/>
<polyline fill="none" stroke="blue" stroke-width="2" points="86.75,-0 241.25,-0 "/>
<path fill="none" stroke="blue" stroke-width="2" d="M241.25,-0C247.25,-0 253.25,-6 253.25,-12"/>
<polyline fill="none" stroke="blue" stroke-width="2" points="253.25,-12 253.25,-24 "/>
<path fill="none" stroke="blue" stroke-width="2" d="M253.25,-24C253.25,-30 247.25,-36 241.25,-36"/>
<text text-anchor="start" x="83" y="-12.5" font-family="Times,serif" font-size="14.00">Exponential random variable</text>
</a>
</g>
<!-- EXPONENTIAL_GROWTH_DECAY -->
<g id="node2" class="node"><title>EXPONENTIAL_GROWTH_DECAY</title>
<a xlink:href="EXPONENTIAL_GROWTH_DECAY.html" xlink:title="Exponential growth/decay" target="_top">
<polyline fill="none" stroke="black" points="152,-180 12,-180 "/>
<path fill="none" stroke="black" d="M12,-180C6,-180 0,-174 0,-168"/>
<polyline fill="none" stroke="black" points="0,-168 0,-156 "/>
<path fill="none" stroke="black" d="M0,-156C0,-150 6,-144 12,-144"/>
<polyline fill="none" stroke="black" points="12,-144 152,-144 "/>
<path fill="none" stroke="black" d="M152,-144C158,-144 164,-150 164,-156"/>
<polyline fill="none" stroke="black" points="164,-156 164,-168 "/>
<path fill="none" stroke="black" d="M164,-168C164,-174 158,-180 152,-180"/>
<text text-anchor="start" x="8.5" y="-156.5" font-family="Times,serif" font-size="14.00">Exponential growth/decay</text>
</a>
</g>
<!-- EXPONENTIAL_GROWTH_DECAY&#45;&gt;EXPONENTIAL_RANDOM_VARIABLE -->
<g id="edge2" class="edge"><title>EXPONENTIAL_GROWTH_DECAY&#45;&gt;EXPONENTIAL_RANDOM_VARIABLE</title>
<path fill="none" stroke="black" d="M81.0835,-143.687C80.8709,-124.781 82.9001,-94.2365 96,-72 102.962,-60.1817 113.654,-50.0331 124.512,-41.8731"/>
<polygon fill="black" stroke="black" points="126.641,-44.6545 132.79,-36.026 122.602,-38.9371 126.641,-44.6545"/>
</g>
<!-- RANDOM_VARIABLES -->
<g id="node6" class="node"><title>RANDOM_VARIABLES</title>
<a xlink:href="RANDOM_VARIABLES.html" xlink:title="Random variables" target="_top">
<polyline fill="none" stroke="black" points="211,-108 117,-108 "/>
<path fill="none" stroke="black" d="M117,-108C111,-108 105,-102 105,-96"/>
<polyline fill="none" stroke="black" points="105,-96 105,-84 "/>
<path fill="none" stroke="black" d="M105,-84C105,-78 111,-72 117,-72"/>
<polyline fill="none" stroke="black" points="117,-72 211,-72 "/>
<path fill="none" stroke="black" d="M211,-72C217,-72 223,-78 223,-84"/>
<polyline fill="none" stroke="black" points="223,-84 223,-96 "/>
<path fill="none" stroke="black" d="M223,-96C223,-102 217,-108 211,-108"/>
<text text-anchor="start" x="113.5" y="-84.5" font-family="Times,serif" font-size="14.00">Random variables</text>
</a>
</g>
<!-- EXPONENTIAL_GROWTH_DECAY&#45;&gt;RANDOM_VARIABLES -->
<!-- INTEGRATION_BY_PARTS -->
<g id="node4" class="node"><title>INTEGRATION_BY_PARTS</title>
<a xlink:href="INTEGRATION_BY_PARTS.html" xlink:title="Integration by parts" target="_top">
<polyline fill="none" stroke="black" points="302,-180 200,-180 "/>
<path fill="none" stroke="black" d="M200,-180C194,-180 188,-174 188,-168"/>
<polyline fill="none" stroke="black" points="188,-168 188,-156 "/>
<path fill="none" stroke="black" d="M188,-156C188,-150 194,-144 200,-144"/>
<polyline fill="none" stroke="black" points="200,-144 302,-144 "/>
<path fill="none" stroke="black" d="M302,-144C308,-144 314,-150 314,-156"/>
<polyline fill="none" stroke="black" points="314,-156 314,-168 "/>
<path fill="none" stroke="black" d="M314,-168C314,-174 308,-180 302,-180"/>
<text text-anchor="start" x="196.5" y="-156.5" font-family="Times,serif" font-size="14.00">Integration by parts</text>
</a>
</g>
<!-- INTEGRATION_BY_PARTS&#45;&gt;EXPONENTIAL_RANDOM_VARIABLE -->
<g id="edge4" class="edge"><title>INTEGRATION_BY_PARTS&#45;&gt;EXPONENTIAL_RANDOM_VARIABLE</title>
<path fill="none" stroke="black" d="M250.768,-143.976C249.777,-125.051 245.921,-94.2277 232,-72 224.656,-60.274 213.75,-50.1059 202.811,-41.8995"/>
<polygon fill="black" stroke="black" points="204.682,-38.9359 194.499,-36.0131 200.637,-44.6486 204.682,-38.9359"/>
</g>
<!-- RANDOM_VARIABLES&#45;&gt;EXPONENTIAL_RANDOM_VARIABLE -->
<g id="edge6" class="edge"><title>RANDOM_VARIABLES&#45;&gt;EXPONENTIAL_RANDOM_VARIABLE</title>
<path fill="none" stroke="black" d="M164,-71.6966C164,-63.9827 164,-54.7125 164,-46.1124"/>
<polygon fill="black" stroke="black" points="167.5,-46.1043 164,-36.1043 160.5,-46.1044 167.5,-46.1043"/>
</g>
</g>
</svg>
