<?xml version="1.0" encoding="UTF-8" standalone="no"?>
<!DOCTYPE svg PUBLIC "-//W3C//DTD SVG 1.1//EN"
 "http://www.w3.org/Graphics/SVG/1.1/DTD/svg11.dtd">
<!-- Generated by graphviz version 2.26.3 (20100126.1600)
 -->
<!-- Title: _anonymous_0 Pages: 1 -->
<svg width="561pt" height="260pt"
 viewBox="0.00 0.00 561.00 260.00" xmlns="http://www.w3.org/2000/svg" xmlns:xlink="http://www.w3.org/1999/xlink">
<g id="graph1" class="graph" transform="scale(1 1) rotate(0) translate(4 256)">
<title>_anonymous_0</title>
<!-- EXPONENTIAL_GROWTH_DECAY -->
<g id="node1" class="node"><title>EXPONENTIAL_GROWTH_DECAY</title>
<a xlink:href="EXPONENTIAL_GROWTH_DECAY.html" xlink:title="Exponential growth/decay" target="_top">
<polyline fill="none" stroke="blue" stroke-width="2" points="370,-108 196,-108 "/>
<path fill="none" stroke="blue" stroke-width="2" d="M196,-108C190,-108 184,-102 184,-96"/>
<polyline fill="none" stroke="blue" stroke-width="2" points="184,-96 184,-84 "/>
<path fill="none" stroke="blue" stroke-width="2" d="M184,-84C184,-78 190,-72 196,-72"/>
<polyline fill="none" stroke="blue" stroke-width="2" points="196,-72 370,-72 "/>
<path fill="none" stroke="blue" stroke-width="2" d="M370,-72C376,-72 382,-78 382,-84"/>
<polyline fill="none" stroke="blue" stroke-width="2" points="382,-84 382,-96 "/>
<path fill="none" stroke="blue" stroke-width="2" d="M382,-96C382,-102 376,-108 370,-108"/>
<text text-anchor="start" x="192.5" y="-87.2333" font-family="Times Roman,serif" font-size="14.00">Exponential growth/decay</text>
</a>
</g>
<!-- VARIABLE_SEPARABLE_DIFFERENTIAL_EQUATIONS -->
<g id="node4" class="node"><title>VARIABLE_SEPARABLE_DIFFERENTIAL_EQUATIONS</title>
<a xlink:href="VARIABLE_SEPARABLE_DIFFERENTIAL_EQUATIONS.html" xlink:title="Variable separable differential equations" target="_top">
<polyline fill="none" stroke="black" points="282,-36 12,-36 "/>
<path fill="none" stroke="black" d="M12,-36C6,-36 1.18424e-13,-30 9.4739e-14,-24"/>
<polyline fill="none" stroke="black" points="9.4739e-14,-24 4.73695e-14,-12 "/>
<path fill="none" stroke="black" d="M4.73695e-14,-12C2.36848e-14,-6 6,-1.74736e-14 12,-1.71835e-14"/>
<polyline fill="none" stroke="black" points="12,-1.71835e-14 282,-4.13275e-15 "/>
<path fill="none" stroke="black" d="M282,-4.13275e-15C288,-3.84273e-15 294,-6 294,-12"/>
<polyline fill="none" stroke="black" points="294,-12 294,-24 "/>
<path fill="none" stroke="black" d="M294,-24C294,-30 288,-36 282,-36"/>
<text text-anchor="start" x="8" y="-15.2333" font-family="Times Roman,serif" font-size="14.00">Variable separable differential equations</text>
</a>
</g>
<!-- EXPONENTIAL_GROWTH_DECAY&#45;&gt;VARIABLE_SEPARABLE_DIFFERENTIAL_EQUATIONS -->
<g id="edge4" class="edge"><title>EXPONENTIAL_GROWTH_DECAY&#45;&gt;VARIABLE_SEPARABLE_DIFFERENTIAL_EQUATIONS</title>
<path fill="none" stroke="black" d="M248.681,-71.8314C230.964,-62.4516 209.166,-50.9112 190.302,-40.9244"/>
<polygon fill="black" stroke="black" points="191.783,-37.7485 181.308,-36.1628 188.508,-43.935 191.783,-37.7485"/>
</g>
<!-- EXPONENTIAL_RANDOM_VARIABLE -->
<g id="node6" class="node"><title>EXPONENTIAL_RANDOM_VARIABLE</title>
<a xlink:href="EXPONENTIAL_RANDOM_VARIABLE.html" xlink:title="Exponential random variable" target="_top">
<polyline fill="none" stroke="black" points="516,-36 324,-36 "/>
<path fill="none" stroke="black" d="M324,-36C318,-36 312,-30 312,-24"/>
<polyline fill="none" stroke="black" points="312,-24 312,-12 "/>
<path fill="none" stroke="black" d="M312,-12C312,-6 318,-1.73688e-14 324,-1.69741e-14"/>
<polyline fill="none" stroke="black" points="324,-1.69741e-14 516,-4.34221e-15 "/>
<path fill="none" stroke="black" d="M516,-4.34221e-15C522,-3.94746e-15 528,-6 528,-12"/>
<polyline fill="none" stroke="black" points="528,-12 528,-24 "/>
<path fill="none" stroke="black" d="M528,-24C528,-30 522,-36 516,-36"/>
<text text-anchor="start" x="320.5" y="-15.2333" font-family="Times Roman,serif" font-size="14.00">Exponential random variable</text>
</a>
</g>
<!-- EXPONENTIAL_GROWTH_DECAY&#45;&gt;EXPONENTIAL_RANDOM_VARIABLE -->
<g id="edge6" class="edge"><title>EXPONENTIAL_GROWTH_DECAY&#45;&gt;EXPONENTIAL_RANDOM_VARIABLE</title>
<path fill="none" stroke="black" d="M317.571,-71.8314C335.419,-62.4516 357.377,-50.9112 376.38,-40.9244"/>
<polygon fill="black" stroke="black" points="378.216,-43.9132 385.44,-36.1628 374.96,-37.7168 378.216,-43.9132"/>
</g>
<!-- TAYLOR_SERIES -->
<g id="node2" class="node"><title>TAYLOR_SERIES</title>
<a xlink:href="TAYLOR_SERIES.html" xlink:title="One dimensional Taylor Series" target="_top">
<polyline fill="none" stroke="black" points="275,-252 75,-252 "/>
<path fill="none" stroke="black" d="M75,-252C69,-252 63,-246 63,-240"/>
<polyline fill="none" stroke="black" points="63,-240 63,-228 "/>
<path fill="none" stroke="black" d="M63,-228C63,-222 69,-216 75,-216"/>
<polyline fill="none" stroke="black" points="75,-216 275,-216 "/>
<path fill="none" stroke="black" d="M275,-216C281,-216 287,-222 287,-228"/>
<polyline fill="none" stroke="black" points="287,-228 287,-240 "/>
<path fill="none" stroke="black" d="M287,-240C287,-246 281,-252 275,-252"/>
<text text-anchor="start" x="71" y="-231.233" font-family="Times Roman,serif" font-size="14.00">One dimensional Taylor Series</text>
</a>
</g>
<!-- TAYLOR_SERIES&#45;&gt;EXPONENTIAL_GROWTH_DECAY -->
<g id="edge2" class="edge"><title>TAYLOR_SERIES&#45;&gt;EXPONENTIAL_GROWTH_DECAY</title>
<path fill="none" stroke="black" d="M174.729,-215.762C175.315,-196.292 178.852,-165.365 194,-144 203.004,-131.301 216.024,-121.035 229.338,-113.001"/>
<polygon fill="black" stroke="black" points="231.116,-116.016 238.091,-108.041 227.665,-109.926 231.116,-116.016"/>
</g>
<!-- THE_EXPONENTIAL_FUNCTION -->
<g id="node10" class="node"><title>THE_EXPONENTIAL_FUNCTION</title>
<a xlink:href="THE_EXPONENTIAL_FUNCTION.html" xlink:title="Exponential function" target="_top">
<polyline fill="none" stroke="black" points="351,-180 215,-180 "/>
<path fill="none" stroke="black" d="M215,-180C209,-180 203,-174 203,-168"/>
<polyline fill="none" stroke="black" points="203,-168 203,-156 "/>
<path fill="none" stroke="black" d="M203,-156C203,-150 209,-144 215,-144"/>
<polyline fill="none" stroke="black" points="215,-144 351,-144 "/>
<path fill="none" stroke="black" d="M351,-144C357,-144 363,-150 363,-156"/>
<polyline fill="none" stroke="black" points="363,-156 363,-168 "/>
<path fill="none" stroke="black" d="M363,-168C363,-174 357,-180 351,-180"/>
<text text-anchor="start" x="211.5" y="-159.233" font-family="Times Roman,serif" font-size="14.00">Exponential function</text>
</a>
</g>
<!-- TAYLOR_SERIES&#45;&gt;THE_EXPONENTIAL_FUNCTION -->
<!-- CONTINUOUS_TIME_MARKOV_CHAIN -->
<g id="node8" class="node"><title>CONTINUOUS_TIME_MARKOV_CHAIN</title>
<a xlink:href="CONTINUOUS_TIME_MARKOV_CHAIN.html" xlink:title="Markov chains in continuous time" target="_top">
<polyline fill="none" stroke="black" points="541,-252 317,-252 "/>
<path fill="none" stroke="black" d="M317,-252C311,-252 305,-246 305,-240"/>
<polyline fill="none" stroke="black" points="305,-240 305,-228 "/>
<path fill="none" stroke="black" d="M305,-228C305,-222 311,-216 317,-216"/>
<polyline fill="none" stroke="black" points="317,-216 541,-216 "/>
<path fill="none" stroke="black" d="M541,-216C547,-216 553,-222 553,-228"/>
<polyline fill="none" stroke="black" points="553,-228 553,-240 "/>
<path fill="none" stroke="black" d="M553,-240C553,-246 547,-252 541,-252"/>
<text text-anchor="start" x="313" y="-231.233" font-family="Times Roman,serif" font-size="14.00">Markov chains in continuous time</text>
</a>
</g>
<!-- CONTINUOUS_TIME_MARKOV_CHAIN&#45;&gt;EXPONENTIAL_GROWTH_DECAY -->
<g id="edge8" class="edge"><title>CONTINUOUS_TIME_MARKOV_CHAIN&#45;&gt;EXPONENTIAL_GROWTH_DECAY</title>
<path fill="none" stroke="black" d="M420.596,-215.714C410.956,-196.203 393.653,-165.241 372,-144 359.82,-132.052 344.52,-121.572 330.057,-113.103"/>
<polygon fill="black" stroke="black" points="331.624,-109.968 321.196,-108.094 328.179,-116.062 331.624,-109.968"/>
</g>
<!-- THE_EXPONENTIAL_FUNCTION&#45;&gt;EXPONENTIAL_GROWTH_DECAY -->
<g id="edge10" class="edge"><title>THE_EXPONENTIAL_FUNCTION&#45;&gt;EXPONENTIAL_GROWTH_DECAY</title>
<path fill="none" stroke="black" d="M283,-143.831C283,-136.131 283,-126.974 283,-118.417"/>
<polygon fill="black" stroke="black" points="286.5,-118.413 283,-108.413 279.5,-118.413 286.5,-118.413"/>
</g>
</g>
</svg>
