<?xml version="1.0" encoding="UTF-8" standalone="no"?>
<!DOCTYPE svg PUBLIC "-//W3C//DTD SVG 1.1//EN"
 "http://www.w3.org/Graphics/SVG/1.1/DTD/svg11.dtd">
<!-- Generated by graphviz version 2.26.3 (20100126.1600)
 -->
<!-- Title: _anonymous_0 Pages: 1 -->
<svg width="393pt" height="260pt"
 viewBox="0.00 0.00 393.00 260.00" xmlns="http://www.w3.org/2000/svg" xmlns:xlink="http://www.w3.org/1999/xlink">
<g id="graph1" class="graph" transform="scale(1 1) rotate(0) translate(4 256)">
<title>_anonymous_0</title>
<!-- EXPONENTIAL_RANDOM_VARIABLE -->
<g id="node1" class="node"><title>EXPONENTIAL_RANDOM_VARIABLE</title>
<a xlink:href="EXPONENTIAL_RANDOM_VARIABLE.html" xlink:title=" Exponential random variable " target="_top">
<polyline fill="none" stroke="blue" stroke-width="2" points="272,-108 72,-108 "/>
<path fill="none" stroke="blue" stroke-width="2" d="M72,-108C66,-108 60,-102 60,-96"/>
<polyline fill="none" stroke="blue" stroke-width="2" points="60,-96 60,-84 "/>
<path fill="none" stroke="blue" stroke-width="2" d="M60,-84C60,-78 66,-72 72,-72"/>
<polyline fill="none" stroke="blue" stroke-width="2" points="72,-72 272,-72 "/>
<path fill="none" stroke="blue" stroke-width="2" d="M272,-72C278,-72 284,-78 284,-84"/>
<polyline fill="none" stroke="blue" stroke-width="2" points="284,-84 284,-96 "/>
<path fill="none" stroke="blue" stroke-width="2" d="M284,-96C284,-102 278,-108 272,-108"/>
<text text-anchor="start" x="68" y="-87.2333" font-family="Times Roman,serif" font-size="14.00"> Exponential random variable </text>
</a>
</g>
<!-- MM1_QUEUE -->
<g id="node4" class="node"><title>MM1_QUEUE</title>
<a xlink:href="MM1_QUEUE.html" xlink:title=" The M/M/1 Queue &#160;" target="_top">
<polyline fill="none" stroke="black" points="156,-36 26,-36 "/>
<path fill="none" stroke="black" d="M26,-36C20,-36 14,-30 14,-24"/>
<polyline fill="none" stroke="black" points="14,-24 14,-12 "/>
<path fill="none" stroke="black" d="M14,-12C14,-6 20,-1.72099e-14 26,-1.66562e-14"/>
<polyline fill="none" stroke="black" points="26,-1.66562e-14 156,-4.66005e-15 "/>
<path fill="none" stroke="black" d="M156,-4.66005e-15C162,-4.10638e-15 168,-6 168,-12"/>
<polyline fill="none" stroke="black" points="168,-12 168,-24 "/>
<path fill="none" stroke="black" d="M168,-24C168,-30 162,-36 156,-36"/>
<text text-anchor="start" x="22.5" y="-15.2333" font-family="Times Roman,serif" font-size="14.00"> The M/M/1 Queue &#160;</text>
</a>
</g>
<!-- EXPONENTIAL_RANDOM_VARIABLE&#45;&gt;MM1_QUEUE -->
<g id="edge4" class="edge"><title>EXPONENTIAL_RANDOM_VARIABLE&#45;&gt;MM1_QUEUE</title>
<path fill="none" stroke="black" d="M151.56,-71.8314C141.68,-63.0485 129.668,-52.3712 118.955,-42.8489"/>
<polygon fill="black" stroke="black" points="121.233,-40.1906 111.433,-36.1628 116.582,-45.4224 121.233,-40.1906"/>
</g>
<!-- POISSON_PROCESS -->
<g id="node8" class="node"><title>POISSON_PROCESS</title>
<a xlink:href="POISSON_PROCESS.html" xlink:title=" Poisson Process " target="_top">
<polyline fill="none" stroke="black" points="308,-36 198,-36 "/>
<path fill="none" stroke="black" d="M198,-36C192,-36 186,-30 186,-24"/>
<polyline fill="none" stroke="black" points="186,-24 186,-12 "/>
<path fill="none" stroke="black" d="M186,-12C186,-6 192,-1.71273e-14 198,-1.6491e-14"/>
<polyline fill="none" stroke="black" points="198,-1.6491e-14 308,-4.82533e-15 "/>
<path fill="none" stroke="black" d="M308,-4.82533e-15C314,-4.18902e-15 320,-6 320,-12"/>
<polyline fill="none" stroke="black" points="320,-12 320,-24 "/>
<path fill="none" stroke="black" d="M320,-24C320,-30 314,-36 308,-36"/>
<text text-anchor="start" x="194.5" y="-15.2333" font-family="Times Roman,serif" font-size="14.00"> Poisson Process </text>
</a>
</g>
<!-- EXPONENTIAL_RANDOM_VARIABLE&#45;&gt;POISSON_PROCESS -->
<g id="edge8" class="edge"><title>EXPONENTIAL_RANDOM_VARIABLE&#45;&gt;POISSON_PROCESS</title>
<path fill="none" stroke="black" d="M192.44,-71.8314C202.32,-63.0485 214.332,-52.3712 225.045,-42.8489"/>
<polygon fill="black" stroke="black" points="227.418,-45.4224 232.567,-36.1628 222.767,-40.1906 227.418,-45.4224"/>
</g>
<!-- RANDOM_VARIABLES -->
<g id="node2" class="node"><title>RANDOM_VARIABLES</title>
<a xlink:href="RANDOM_VARIABLES.html" xlink:title=" Random variables " target="_top">
<polyline fill="none" stroke="black" points="136,-252 12,-252 "/>
<path fill="none" stroke="black" d="M12,-252C6,-252 5.92119e-14,-246 4.73695e-14,-240"/>
<polyline fill="none" stroke="black" points="4.73695e-14,-240 2.36848e-14,-228 "/>
<path fill="none" stroke="black" d="M2.36848e-14,-228C1.18424e-14,-222 6,-216 12,-216"/>
<polyline fill="none" stroke="black" points="12,-216 136,-216 "/>
<path fill="none" stroke="black" d="M136,-216C142,-216 148,-222 148,-228"/>
<polyline fill="none" stroke="black" points="148,-228 148,-240 "/>
<path fill="none" stroke="black" d="M148,-240C148,-246 142,-252 136,-252"/>
<text text-anchor="start" x="8" y="-231.233" font-family="Times Roman,serif" font-size="14.00"> Random variables </text>
</a>
</g>
<!-- RANDOM_VARIABLES&#45;&gt;EXPONENTIAL_RANDOM_VARIABLE -->
<g id="edge2" class="edge"><title>RANDOM_VARIABLES&#45;&gt;EXPONENTIAL_RANDOM_VARIABLE</title>
<path fill="none" stroke="black" d="M70.8027,-215.94C68.3702,-196.623 67.4251,-165.825 81,-144 88.9623,-131.199 101.171,-121.056 114.085,-113.182"/>
<polygon fill="black" stroke="black" points="116.112,-116.057 123.095,-108.089 112.667,-109.963 116.112,-116.057"/>
</g>
<!-- INTEGRATION_BY_PARTS -->
<g id="node10" class="node"><title>INTEGRATION_BY_PARTS</title>
<a xlink:href="INTEGRATION_BY_PARTS.html" xlink:title=" Integration by parts " target="_top">
<polyline fill="none" stroke="black" points="242,-180 102,-180 "/>
<path fill="none" stroke="black" d="M102,-180C96,-180 90,-174 90,-168"/>
<polyline fill="none" stroke="black" points="90,-168 90,-156 "/>
<path fill="none" stroke="black" d="M90,-156C90,-150 96,-144 102,-144"/>
<polyline fill="none" stroke="black" points="102,-144 242,-144 "/>
<path fill="none" stroke="black" d="M242,-144C248,-144 254,-150 254,-156"/>
<polyline fill="none" stroke="black" points="254,-156 254,-168 "/>
<path fill="none" stroke="black" d="M254,-168C254,-174 248,-180 242,-180"/>
<text text-anchor="start" x="98" y="-159.233" font-family="Times Roman,serif" font-size="14.00"> Integration by parts </text>
</a>
</g>
<!-- RANDOM_VARIABLES&#45;&gt;INTEGRATION_BY_PARTS -->
<!-- EXPONENTIAL_GROWTH_DECAY -->
<g id="node6" class="node"><title>EXPONENTIAL_GROWTH_DECAY</title>
<a xlink:href="EXPONENTIAL_GROWTH_DECAY.html" xlink:title=" Exponential growth/decay " target="_top">
<polyline fill="none" stroke="black" points="373,-252 191,-252 "/>
<path fill="none" stroke="black" d="M191,-252C185,-252 179,-246 179,-240"/>
<polyline fill="none" stroke="black" points="179,-240 179,-228 "/>
<path fill="none" stroke="black" d="M179,-228C179,-222 185,-216 191,-216"/>
<polyline fill="none" stroke="black" points="191,-216 373,-216 "/>
<path fill="none" stroke="black" d="M373,-216C379,-216 385,-222 385,-228"/>
<polyline fill="none" stroke="black" points="385,-228 385,-240 "/>
<path fill="none" stroke="black" d="M385,-240C385,-246 379,-252 373,-252"/>
<text text-anchor="start" x="187" y="-231.233" font-family="Times Roman,serif" font-size="14.00"> Exponential growth/decay </text>
</a>
</g>
<!-- EXPONENTIAL_GROWTH_DECAY&#45;&gt;EXPONENTIAL_RANDOM_VARIABLE -->
<g id="edge6" class="edge"><title>EXPONENTIAL_GROWTH_DECAY&#45;&gt;EXPONENTIAL_RANDOM_VARIABLE</title>
<path fill="none" stroke="black" d="M282.312,-215.733C281.76,-196.238 278.252,-165.29 263,-144 253.873,-131.259 240.723,-121.013 227.245,-113.014"/>
<polygon fill="black" stroke="black" points="228.819,-109.885 218.379,-108.079 225.414,-116.001 228.819,-109.885"/>
</g>
<!-- INTEGRATION_BY_PARTS&#45;&gt;EXPONENTIAL_RANDOM_VARIABLE -->
<g id="edge10" class="edge"><title>INTEGRATION_BY_PARTS&#45;&gt;EXPONENTIAL_RANDOM_VARIABLE</title>
<path fill="none" stroke="black" d="M172,-143.831C172,-136.131 172,-126.974 172,-118.417"/>
<polygon fill="black" stroke="black" points="175.5,-118.413 172,-108.413 168.5,-118.413 175.5,-118.413"/>
</g>
</g>
</svg>
