<?xml version="1.0" encoding="UTF-8" standalone="no"?>
<!DOCTYPE svg PUBLIC "-//W3C//DTD SVG 1.1//EN"
 "http://www.w3.org/Graphics/SVG/1.1/DTD/svg11.dtd">
<!-- Generated by graphviz version 2.28.0 (20110509.1545)
 -->
<!-- Title: _anonymous_0 Pages: 1 -->
<svg width="447pt" height="260pt"
 viewBox="0.00 0.00 447.00 260.00" xmlns="http://www.w3.org/2000/svg" xmlns:xlink="http://www.w3.org/1999/xlink">
<g id="graph1" class="graph" transform="scale(1 1) rotate(0) translate(4 256)">
<title>_anonymous_0</title>
<!-- EXPONENTIAL_GROWTH_DECAY -->
<g id="node1" class="node"><title>EXPONENTIAL_GROWTH_DECAY</title>
<a xlink:href="EXPONENTIAL_GROWTH_DECAY.html" xlink:title="Exponential growth/decay" target="_top">
<polyline fill="none" stroke="blue" stroke-width="2" points="273,-108 133,-108 "/>
<path fill="none" stroke="blue" stroke-width="2" d="M133,-108C127,-108 121,-102 121,-96"/>
<polyline fill="none" stroke="blue" stroke-width="2" points="121,-96 121,-84 "/>
<path fill="none" stroke="blue" stroke-width="2" d="M121,-84C121,-78 127,-72 133,-72"/>
<polyline fill="none" stroke="blue" stroke-width="2" points="133,-72 273,-72 "/>
<path fill="none" stroke="blue" stroke-width="2" d="M273,-72C279,-72 285,-78 285,-84"/>
<polyline fill="none" stroke="blue" stroke-width="2" points="285,-84 285,-96 "/>
<path fill="none" stroke="blue" stroke-width="2" d="M285,-96C285,-102 279,-108 273,-108"/>
<text text-anchor="start" x="129.5" y="-84.5" font-family="Times,serif" font-size="14.00">Exponential growth/decay</text>
</a>
</g>
<!-- EXPONENTIAL_RANDOM_VARIABLE -->
<g id="node4" class="node"><title>EXPONENTIAL_RANDOM_VARIABLE</title>
<a xlink:href="EXPONENTIAL_RANDOM_VARIABLE.html" xlink:title="Exponential random variable" target="_top">
<polyline fill="none" stroke="black" points="166.25,-36 11.75,-36 "/>
<path fill="none" stroke="black" d="M11.75,-36C5.75,-36 -0.25,-30 -0.25,-24"/>
<polyline fill="none" stroke="black" points="-0.25,-24 -0.25,-12 "/>
<path fill="none" stroke="black" d="M-0.25,-12C-0.25,-6 5.75,-0 11.75,-0"/>
<polyline fill="none" stroke="black" points="11.75,-0 166.25,-0 "/>
<path fill="none" stroke="black" d="M166.25,-0C172.25,-0 178.25,-6 178.25,-12"/>
<polyline fill="none" stroke="black" points="178.25,-12 178.25,-24 "/>
<path fill="none" stroke="black" d="M178.25,-24C178.25,-30 172.25,-36 166.25,-36"/>
<text text-anchor="start" x="8" y="-12.5" font-family="Times,serif" font-size="14.00">Exponential random variable</text>
</a>
</g>
<!-- EXPONENTIAL_GROWTH_DECAY&#45;&gt;EXPONENTIAL_RANDOM_VARIABLE -->
<g id="edge4" class="edge"><title>EXPONENTIAL_GROWTH_DECAY&#45;&gt;EXPONENTIAL_RANDOM_VARIABLE</title>
<path fill="none" stroke="black" d="M175.112,-71.8761C160.207,-62.7236 141.671,-51.3417 125.618,-41.485"/>
<polygon fill="black" stroke="black" points="127.348,-38.4398 116.995,-36.1898 123.685,-44.405 127.348,-38.4398"/>
</g>
<!-- VARIABLE_SEPARABLE_DIFFERENTIAL_EQUATIONS -->
<g id="node11" class="node"><title>VARIABLE_SEPARABLE_DIFFERENTIAL_EQUATIONS</title>
<a xlink:href="VARIABLE_SEPARABLE_DIFFERENTIAL_EQUATIONS.html" xlink:title="Variable separable differential equations" target="_top">
<polyline fill="none" stroke="black" points="427,-36 209,-36 "/>
<path fill="none" stroke="black" d="M209,-36C203,-36 197,-30 197,-24"/>
<polyline fill="none" stroke="black" points="197,-24 197,-12 "/>
<path fill="none" stroke="black" d="M197,-12C197,-6 203,-0 209,-0"/>
<polyline fill="none" stroke="black" points="209,-0 427,-0 "/>
<path fill="none" stroke="black" d="M427,-0C433,-0 439,-6 439,-12"/>
<polyline fill="none" stroke="black" points="439,-12 439,-24 "/>
<path fill="none" stroke="black" d="M439,-24C439,-30 433,-36 427,-36"/>
<text text-anchor="start" x="205.5" y="-12.5" font-family="Times,serif" font-size="14.00">Variable separable differential equations</text>
</a>
</g>
<!-- EXPONENTIAL_GROWTH_DECAY&#45;&gt;VARIABLE_SEPARABLE_DIFFERENTIAL_EQUATIONS -->
<g id="edge12" class="edge"><title>EXPONENTIAL_GROWTH_DECAY&#45;&gt;VARIABLE_SEPARABLE_DIFFERENTIAL_EQUATIONS</title>
<path fill="none" stroke="black" d="M231.132,-71.8761C246.168,-62.7236 264.867,-51.3417 281.06,-41.485"/>
<polygon fill="black" stroke="black" points="283.038,-44.379 289.76,-36.1898 279.398,-38.3996 283.038,-44.379"/>
</g>
<!-- CONTINUOUS_TIME_MARKOV_CHAIN -->
<g id="node2" class="node"><title>CONTINUOUS_TIME_MARKOV_CHAIN</title>
<a xlink:href="CONTINUOUS_TIME_MARKOV_CHAIN.html" xlink:title="Markov chains in continuous time" target="_top">
<polyline fill="none" stroke="black" points="200,-252 16,-252 "/>
<path fill="none" stroke="black" d="M16,-252C10,-252 4,-246 4,-240"/>
<polyline fill="none" stroke="black" points="4,-240 4,-228 "/>
<path fill="none" stroke="black" d="M4,-228C4,-222 10,-216 16,-216"/>
<polyline fill="none" stroke="black" points="16,-216 200,-216 "/>
<path fill="none" stroke="black" d="M200,-216C206,-216 212,-222 212,-228"/>
<polyline fill="none" stroke="black" points="212,-228 212,-240 "/>
<path fill="none" stroke="black" d="M212,-240C212,-246 206,-252 200,-252"/>
<text text-anchor="start" x="12.5" y="-228.5" font-family="Times,serif" font-size="14.00">Markov chains in continuous time</text>
</a>
</g>
<!-- CONTINUOUS_TIME_MARKOV_CHAIN&#45;&gt;EXPONENTIAL_GROWTH_DECAY -->
<g id="edge2" class="edge"><title>CONTINUOUS_TIME_MARKOV_CHAIN&#45;&gt;EXPONENTIAL_GROWTH_DECAY</title>
<path fill="none" stroke="black" d="M108.015,-215.836C108.811,-196.785 112.494,-165.85 127,-144 135.019,-131.922 146.811,-121.779 158.726,-113.706"/>
<polygon fill="black" stroke="black" points="160.82,-116.522 167.371,-108.195 157.057,-110.619 160.82,-116.522"/>
</g>
<!-- THE_EXPONENTIAL_FUNCTION -->
<g id="node8" class="node"><title>THE_EXPONENTIAL_FUNCTION</title>
<a xlink:href="THE_EXPONENTIAL_FUNCTION.html" xlink:title="Exponential function" target="_top">
<polyline fill="none" stroke="black" points="258,-180 148,-180 "/>
<path fill="none" stroke="black" d="M148,-180C142,-180 136,-174 136,-168"/>
<polyline fill="none" stroke="black" points="136,-168 136,-156 "/>
<path fill="none" stroke="black" d="M136,-156C136,-150 142,-144 148,-144"/>
<polyline fill="none" stroke="black" points="148,-144 258,-144 "/>
<path fill="none" stroke="black" d="M258,-144C264,-144 270,-150 270,-156"/>
<polyline fill="none" stroke="black" points="270,-156 270,-168 "/>
<path fill="none" stroke="black" d="M270,-168C270,-174 264,-180 258,-180"/>
<text text-anchor="start" x="144.5" y="-156.5" font-family="Times,serif" font-size="14.00">Exponential function</text>
</a>
</g>
<!-- CONTINUOUS_TIME_MARKOV_CHAIN&#45;&gt;THE_EXPONENTIAL_FUNCTION -->
<!-- TAYLOR_SERIES -->
<g id="node6" class="node"><title>TAYLOR_SERIES</title>
<a xlink:href="TAYLOR_SERIES.html" xlink:title="One dimensional Taylor Series" target="_top">
<polyline fill="none" stroke="black" points="407.25,-252 242.75,-252 "/>
<path fill="none" stroke="black" d="M242.75,-252C236.75,-252 230.75,-246 230.75,-240"/>
<polyline fill="none" stroke="black" points="230.75,-240 230.75,-228 "/>
<path fill="none" stroke="black" d="M230.75,-228C230.75,-222 236.75,-216 242.75,-216"/>
<polyline fill="none" stroke="black" points="242.75,-216 407.25,-216 "/>
<path fill="none" stroke="black" d="M407.25,-216C413.25,-216 419.25,-222 419.25,-228"/>
<polyline fill="none" stroke="black" points="419.25,-228 419.25,-240 "/>
<path fill="none" stroke="black" d="M419.25,-240C419.25,-246 413.25,-252 407.25,-252"/>
<text text-anchor="start" x="239" y="-228.5" font-family="Times,serif" font-size="14.00">One dimensional Taylor Series</text>
</a>
</g>
<!-- TAYLOR_SERIES&#45;&gt;EXPONENTIAL_GROWTH_DECAY -->
<g id="edge6" class="edge"><title>TAYLOR_SERIES&#45;&gt;EXPONENTIAL_GROWTH_DECAY</title>
<path fill="none" stroke="black" d="M318.996,-215.787C311.719,-196.692 298.026,-165.717 279,-144 268.837,-132.4 255.627,-122.054 243.077,-113.651"/>
<polygon fill="black" stroke="black" points="244.842,-110.625 234.54,-108.153 241.052,-116.51 244.842,-110.625"/>
</g>
<!-- THE_EXPONENTIAL_FUNCTION&#45;&gt;EXPONENTIAL_GROWTH_DECAY -->
<g id="edge8" class="edge"><title>THE_EXPONENTIAL_FUNCTION&#45;&gt;EXPONENTIAL_GROWTH_DECAY</title>
<path fill="none" stroke="black" d="M203,-143.697C203,-135.983 203,-126.712 203,-118.112"/>
<polygon fill="black" stroke="black" points="206.5,-118.104 203,-108.104 199.5,-118.104 206.5,-118.104"/>
</g>
</g>
</svg>
