<?xml version="1.0" encoding="UTF-8" standalone="no"?>
<!DOCTYPE svg PUBLIC "-//W3C//DTD SVG 1.1//EN"
 "http://www.w3.org/Graphics/SVG/1.1/DTD/svg11.dtd">
<!-- Generated by graphviz version 2.26.3 (20100126.1600)
 -->
<!-- Title: _anonymous_0 Pages: 1 -->
<svg width="381pt" height="260pt"
 viewBox="0.00 0.00 381.00 260.00" xmlns="http://www.w3.org/2000/svg" xmlns:xlink="http://www.w3.org/1999/xlink">
<g id="graph1" class="graph" transform="scale(1 1) rotate(0) translate(4 256)">
<title>_anonymous_0</title>
<!-- EXPONENTIAL_RANDOM_VARIABLE -->
<g id="node1" class="node"><title>EXPONENTIAL_RANDOM_VARIABLE</title>
<a xlink:href="EXPONENTIAL_RANDOM_VARIABLE.html" xlink:title="Exponential random variable" target="_top">
<polyline fill="none" stroke="blue" stroke-width="2" points="293,-108 101,-108 "/>
<path fill="none" stroke="blue" stroke-width="2" d="M101,-108C95,-108 89,-102 89,-96"/>
<polyline fill="none" stroke="blue" stroke-width="2" points="89,-96 89,-84 "/>
<path fill="none" stroke="blue" stroke-width="2" d="M89,-84C89,-78 95,-72 101,-72"/>
<polyline fill="none" stroke="blue" stroke-width="2" points="101,-72 293,-72 "/>
<path fill="none" stroke="blue" stroke-width="2" d="M293,-72C299,-72 305,-78 305,-84"/>
<polyline fill="none" stroke="blue" stroke-width="2" points="305,-84 305,-96 "/>
<path fill="none" stroke="blue" stroke-width="2" d="M305,-96C305,-102 299,-108 293,-108"/>
<text text-anchor="start" x="97.5" y="-87.2333" font-family="Times Roman,serif" font-size="14.00">Exponential random variable</text>
</a>
</g>
<!-- MM1_QUEUE -->
<g id="node9" class="node"><title>MM1_QUEUE</title>
<a xlink:href="MM1_QUEUE.html" xlink:title="The M/M/1 Queue " target="_top">
<polyline fill="none" stroke="black" points="257,-36 137,-36 "/>
<path fill="none" stroke="black" d="M137,-36C131,-36 125,-30 125,-24"/>
<polyline fill="none" stroke="black" points="125,-24 125,-12 "/>
<path fill="none" stroke="black" d="M125,-12C125,-6 131,-1.71714e-14 137,-1.65793e-14"/>
<polyline fill="none" stroke="black" points="137,-1.65793e-14 257,-4.73695e-15 "/>
<path fill="none" stroke="black" d="M257,-4.73695e-15C263,-4.14483e-15 269,-6 269,-12"/>
<polyline fill="none" stroke="black" points="269,-12 269,-24 "/>
<path fill="none" stroke="black" d="M269,-24C269,-30 263,-36 257,-36"/>
<text text-anchor="start" x="133" y="-15.2333" font-family="Times Roman,serif" font-size="14.00">The M/M/1 Queue </text>
</a>
</g>
<!-- EXPONENTIAL_RANDOM_VARIABLE&#45;&gt;MM1_QUEUE -->
<g id="edge10" class="edge"><title>EXPONENTIAL_RANDOM_VARIABLE&#45;&gt;MM1_QUEUE</title>
<path fill="none" stroke="black" d="M197,-71.8314C197,-64.131 197,-54.9743 197,-46.4166"/>
<polygon fill="black" stroke="black" points="200.5,-46.4132 197,-36.4133 193.5,-46.4133 200.5,-46.4132"/>
</g>
<!-- EXPONENTIAL_GROWTH_DECAY -->
<g id="node2" class="node"><title>EXPONENTIAL_GROWTH_DECAY</title>
<a xlink:href="EXPONENTIAL_GROWTH_DECAY.html" xlink:title="Exponential growth/decay" target="_top">
<polyline fill="none" stroke="black" points="186,-252 12,-252 "/>
<path fill="none" stroke="black" d="M12,-252C6,-252 5.92119e-14,-246 4.73695e-14,-240"/>
<polyline fill="none" stroke="black" points="4.73695e-14,-240 2.36848e-14,-228 "/>
<path fill="none" stroke="black" d="M2.36848e-14,-228C1.18424e-14,-222 6,-216 12,-216"/>
<polyline fill="none" stroke="black" points="12,-216 186,-216 "/>
<path fill="none" stroke="black" d="M186,-216C192,-216 198,-222 198,-228"/>
<polyline fill="none" stroke="black" points="198,-228 198,-240 "/>
<path fill="none" stroke="black" d="M198,-240C198,-246 192,-252 186,-252"/>
<text text-anchor="start" x="8.5" y="-231.233" font-family="Times Roman,serif" font-size="14.00">Exponential growth/decay</text>
</a>
</g>
<!-- EXPONENTIAL_GROWTH_DECAY&#45;&gt;EXPONENTIAL_RANDOM_VARIABLE -->
<g id="edge2" class="edge"><title>EXPONENTIAL_GROWTH_DECAY&#45;&gt;EXPONENTIAL_RANDOM_VARIABLE</title>
<path fill="none" stroke="black" d="M98.9555,-215.918C99.7353,-196.581 103.437,-165.768 118,-144 126.103,-131.889 137.927,-121.738 149.971,-113.625"/>
<polygon fill="black" stroke="black" points="152.153,-116.386 158.73,-108.08 148.409,-110.472 152.153,-116.386"/>
</g>
<!-- RANDOM_VARIABLES -->
<g id="node6" class="node"><title>RANDOM_VARIABLES</title>
<a xlink:href="RANDOM_VARIABLES.html" xlink:title="Random variables" target="_top">
<polyline fill="none" stroke="black" points="255,-180 139,-180 "/>
<path fill="none" stroke="black" d="M139,-180C133,-180 127,-174 127,-168"/>
<polyline fill="none" stroke="black" points="127,-168 127,-156 "/>
<path fill="none" stroke="black" d="M127,-156C127,-150 133,-144 139,-144"/>
<polyline fill="none" stroke="black" points="139,-144 255,-144 "/>
<path fill="none" stroke="black" d="M255,-144C261,-144 267,-150 267,-156"/>
<polyline fill="none" stroke="black" points="267,-156 267,-168 "/>
<path fill="none" stroke="black" d="M267,-168C267,-174 261,-180 255,-180"/>
<text text-anchor="start" x="135.5" y="-159.233" font-family="Times Roman,serif" font-size="14.00">Random variables</text>
</a>
</g>
<!-- EXPONENTIAL_GROWTH_DECAY&#45;&gt;RANDOM_VARIABLES -->
<!-- INTEGRATION_BY_PARTS -->
<g id="node4" class="node"><title>INTEGRATION_BY_PARTS</title>
<a xlink:href="INTEGRATION_BY_PARTS.html" xlink:title="Integration by parts" target="_top">
<polyline fill="none" stroke="black" points="361,-252 229,-252 "/>
<path fill="none" stroke="black" d="M229,-252C223,-252 217,-246 217,-240"/>
<polyline fill="none" stroke="black" points="217,-240 217,-228 "/>
<path fill="none" stroke="black" d="M217,-228C217,-222 223,-216 229,-216"/>
<polyline fill="none" stroke="black" points="229,-216 361,-216 "/>
<path fill="none" stroke="black" d="M361,-216C367,-216 373,-222 373,-228"/>
<polyline fill="none" stroke="black" points="373,-228 373,-240 "/>
<path fill="none" stroke="black" d="M373,-240C373,-246 367,-252 361,-252"/>
<text text-anchor="start" x="225.5" y="-231.233" font-family="Times Roman,serif" font-size="14.00">Integration by parts</text>
</a>
</g>
<!-- INTEGRATION_BY_PARTS&#45;&gt;EXPONENTIAL_RANDOM_VARIABLE -->
<g id="edge4" class="edge"><title>INTEGRATION_BY_PARTS&#45;&gt;EXPONENTIAL_RANDOM_VARIABLE</title>
<path fill="none" stroke="black" d="M295.045,-215.918C294.265,-196.581 290.563,-165.768 276,-144 267.897,-131.889 256.073,-121.738 244.029,-113.625"/>
<polygon fill="black" stroke="black" points="245.591,-110.472 235.27,-108.08 241.847,-116.386 245.591,-110.472"/>
</g>
<!-- RANDOM_VARIABLES&#45;&gt;EXPONENTIAL_RANDOM_VARIABLE -->
<g id="edge6" class="edge"><title>RANDOM_VARIABLES&#45;&gt;EXPONENTIAL_RANDOM_VARIABLE</title>
<path fill="none" stroke="black" d="M197,-143.831C197,-136.131 197,-126.974 197,-118.417"/>
<polygon fill="black" stroke="black" points="200.5,-118.413 197,-108.413 193.5,-118.413 200.5,-118.413"/>
</g>
</g>
</svg>
