<?xml version="1.0" encoding="UTF-8" standalone="no"?>
<!DOCTYPE svg PUBLIC "-//W3C//DTD SVG 1.1//EN"
 "http://www.w3.org/Graphics/SVG/1.1/DTD/svg11.dtd">
<!-- Generated by graphviz version 2.26.3 (20100126.1600)
 -->
<!-- Title: _anonymous_0 Pages: 1 -->
<svg width="366pt" height="188pt"
 viewBox="0.00 0.00 366.00 188.00" xmlns="http://www.w3.org/2000/svg" xmlns:xlink="http://www.w3.org/1999/xlink">
<g id="graph1" class="graph" transform="scale(1 1) rotate(0) translate(4 184)">
<title>_anonymous_0</title>
<!-- EXPONENTIAL_RANDOM_VARIABLE -->
<g id="node1" class="node"><title>EXPONENTIAL_RANDOM_VARIABLE</title>
<a xlink:href="EXPONENTIAL_RANDOM_VARIABLE.html" xlink:title="Exponential random variable" target="_top">
<polyline fill="none" stroke="blue" stroke-width="2" points="249,-36 57,-36 "/>
<path fill="none" stroke="blue" stroke-width="2" d="M57,-36C51,-36 45,-30 45,-24"/>
<polyline fill="none" stroke="blue" stroke-width="2" points="45,-24 45,-12 "/>
<path fill="none" stroke="blue" stroke-width="2" d="M45,-12C45,-6 51,-1.73688e-14 57,-1.69741e-14"/>
<polyline fill="none" stroke="blue" stroke-width="2" points="57,-1.69741e-14 249,-4.34221e-15 "/>
<path fill="none" stroke="blue" stroke-width="2" d="M249,-4.34221e-15C255,-3.94746e-15 261,-6 261,-12"/>
<polyline fill="none" stroke="blue" stroke-width="2" points="261,-12 261,-24 "/>
<path fill="none" stroke="blue" stroke-width="2" d="M261,-24C261,-30 255,-36 249,-36"/>
<text text-anchor="start" x="53.5" y="-15.2333" font-family="Times Roman,serif" font-size="14.00">Exponential random variable</text>
</a>
</g>
<!-- RANDOM_VARIABLES -->
<g id="node2" class="node"><title>RANDOM_VARIABLES</title>
<a xlink:href="RANDOM_VARIABLES.html" xlink:title="Random variables" target="_top">
<polyline fill="none" stroke="black" points="128,-180 12,-180 "/>
<path fill="none" stroke="black" d="M12,-180C6,-180 5.92119e-14,-174 4.73695e-14,-168"/>
<polyline fill="none" stroke="black" points="4.73695e-14,-168 2.36848e-14,-156 "/>
<path fill="none" stroke="black" d="M2.36848e-14,-156C1.18424e-14,-150 6,-144 12,-144"/>
<polyline fill="none" stroke="black" points="12,-144 128,-144 "/>
<path fill="none" stroke="black" d="M128,-144C134,-144 140,-150 140,-156"/>
<polyline fill="none" stroke="black" points="140,-156 140,-168 "/>
<path fill="none" stroke="black" d="M140,-168C140,-174 134,-180 128,-180"/>
<text text-anchor="start" x="8.5" y="-159.233" font-family="Times Roman,serif" font-size="14.00">Random variables</text>
</a>
</g>
<!-- RANDOM_VARIABLES&#45;&gt;EXPONENTIAL_RANDOM_VARIABLE -->
<g id="edge2" class="edge"><title>RANDOM_VARIABLES&#45;&gt;EXPONENTIAL_RANDOM_VARIABLE</title>
<path fill="none" stroke="black" d="M56.9972,-143.899C45.0385,-124.824 31.1033,-94.4853 45,-72 53.2722,-58.6153 65.9778,-48.4372 79.806,-40.7361"/>
<polygon fill="black" stroke="black" points="81.7101,-43.6935 89.0199,-36.0241 78.5229,-37.4611 81.7101,-43.6935"/>
</g>
<!-- EXPONENTIAL_GROWTH_DECAY -->
<g id="node6" class="node"><title>EXPONENTIAL_GROWTH_DECAY</title>
<a xlink:href="EXPONENTIAL_GROWTH_DECAY.html" xlink:title="Exponential growth/decay" target="_top">
<polyline fill="none" stroke="black" points="240,-108 66,-108 "/>
<path fill="none" stroke="black" d="M66,-108C60,-108 54,-102 54,-96"/>
<polyline fill="none" stroke="black" points="54,-96 54,-84 "/>
<path fill="none" stroke="black" d="M54,-84C54,-78 60,-72 66,-72"/>
<polyline fill="none" stroke="black" points="66,-72 240,-72 "/>
<path fill="none" stroke="black" d="M240,-72C246,-72 252,-78 252,-84"/>
<polyline fill="none" stroke="black" points="252,-84 252,-96 "/>
<path fill="none" stroke="black" d="M252,-96C252,-102 246,-108 240,-108"/>
<text text-anchor="start" x="62.5" y="-87.2333" font-family="Times Roman,serif" font-size="14.00">Exponential growth/decay</text>
</a>
</g>
<!-- RANDOM_VARIABLES&#45;&gt;EXPONENTIAL_GROWTH_DECAY -->
<!-- INTEGRATION_BY_PARTS -->
<g id="node4" class="node"><title>INTEGRATION_BY_PARTS</title>
<a xlink:href="INTEGRATION_BY_PARTS.html" xlink:title="Integration by parts" target="_top">
<polyline fill="none" stroke="black" points="346,-180 214,-180 "/>
<path fill="none" stroke="black" d="M214,-180C208,-180 202,-174 202,-168"/>
<polyline fill="none" stroke="black" points="202,-168 202,-156 "/>
<path fill="none" stroke="black" d="M202,-156C202,-150 208,-144 214,-144"/>
<polyline fill="none" stroke="black" points="214,-144 346,-144 "/>
<path fill="none" stroke="black" d="M346,-144C352,-144 358,-150 358,-156"/>
<polyline fill="none" stroke="black" points="358,-156 358,-168 "/>
<path fill="none" stroke="black" d="M358,-168C358,-174 352,-180 346,-180"/>
<text text-anchor="start" x="210.5" y="-159.233" font-family="Times Roman,serif" font-size="14.00">Integration by parts</text>
</a>
</g>
<!-- INTEGRATION_BY_PARTS&#45;&gt;EXPONENTIAL_RANDOM_VARIABLE -->
<g id="edge4" class="edge"><title>INTEGRATION_BY_PARTS&#45;&gt;EXPONENTIAL_RANDOM_VARIABLE</title>
<path fill="none" stroke="black" d="M280.61,-143.874C280.343,-124.214 277.105,-92.8546 261,-72 250.761,-58.7411 236.39,-48.498 221.464,-40.6798"/>
<polygon fill="black" stroke="black" points="222.653,-37.3653 212.132,-36.12 219.58,-43.6547 222.653,-37.3653"/>
</g>
<!-- EXPONENTIAL_GROWTH_DECAY&#45;&gt;EXPONENTIAL_RANDOM_VARIABLE -->
<g id="edge6" class="edge"><title>EXPONENTIAL_GROWTH_DECAY&#45;&gt;EXPONENTIAL_RANDOM_VARIABLE</title>
<path fill="none" stroke="black" d="M153,-71.8314C153,-64.131 153,-54.9743 153,-46.4166"/>
<polygon fill="black" stroke="black" points="156.5,-46.4132 153,-36.4133 149.5,-46.4133 156.5,-46.4132"/>
</g>
</g>
</svg>
