<?xml version="1.0" encoding="UTF-8" standalone="no"?>
<!DOCTYPE svg PUBLIC "-//W3C//DTD SVG 1.1//EN"
 "http://www.w3.org/Graphics/SVG/1.1/DTD/svg11.dtd">
<!-- Generated by graphviz version 2.36.0 (20140111.2315)
 -->
<!-- Title: %3 Pages: 1 -->
<svg width="475pt" height="260pt"
 viewBox="0.00 0.00 475.00 260.00" xmlns="http://www.w3.org/2000/svg" xmlns:xlink="http://www.w3.org/1999/xlink">
<g id="graph0" class="graph" transform="scale(1 1) rotate(0) translate(4 256)">
<title>%3</title>
<!-- EXPONENTIAL_GROWTH_DECAY -->
<g id="node1" class="node"><title>EXPONENTIAL_GROWTH_DECAY</title>
<g id="a_node1"><a xlink:href="EXPONENTIAL_GROWTH_DECAY.html" xlink:title=" Exponential growth/decay " target="_top">
<path fill="none" stroke="blue" stroke-width="2" d="M309.25,-108C309.25,-108 166.75,-108 166.75,-108 160.75,-108 154.75,-102 154.75,-96 154.75,-96 154.75,-84 154.75,-84 154.75,-78 160.75,-72 166.75,-72 166.75,-72 309.25,-72 309.25,-72 315.25,-72 321.25,-78 321.25,-84 321.25,-84 321.25,-96 321.25,-96 321.25,-102 315.25,-108 309.25,-108"/>
<text text-anchor="start" x="162.5" y="-86.3" font-family="Times,serif" font-size="14.00"> Exponential growth/decay </text>
</a>
</g>
</g>
<!-- VARIABLE_SEPARABLE_DIFFERENTIAL_EQUATIONS -->
<g id="node2" class="node"><title>VARIABLE_SEPARABLE_DIFFERENTIAL_EQUATIONS</title>
<g id="a_node2"><a xlink:href="VARIABLE_SEPARABLE_DIFFERENTIAL_EQUATIONS.html" xlink:title=" Variable separable differential equations " target="_top">
<path fill="none" stroke="black" d="M232.25,-36C232.25,-36 11.75,-36 11.75,-36 5.75,-36 -0.25,-30 -0.25,-24 -0.25,-24 -0.25,-12 -0.25,-12 -0.25,-6 5.75,-0 11.75,-0 11.75,-0 232.25,-0 232.25,-0 238.25,-0 244.25,-6 244.25,-12 244.25,-12 244.25,-24 244.25,-24 244.25,-30 238.25,-36 232.25,-36"/>
<text text-anchor="start" x="7.5" y="-14.3" font-family="Times,serif" font-size="14.00"> Variable separable differential equations </text>
</a>
</g>
</g>
<!-- EXPONENTIAL_GROWTH_DECAY&#45;&gt;VARIABLE_SEPARABLE_DIFFERENTIAL_EQUATIONS -->
<g id="edge1" class="edge"><title>EXPONENTIAL_GROWTH_DECAY&#45;&gt;VARIABLE_SEPARABLE_DIFFERENTIAL_EQUATIONS</title>
<path fill="none" stroke="black" d="M209.623,-71.8761C194.456,-62.7236 175.595,-51.3417 159.261,-41.485"/>
<polygon fill="black" stroke="black" points="160.856,-38.3598 150.486,-36.1898 157.239,-44.3531 160.856,-38.3598"/>
</g>
<!-- EXPONENTIAL_RANDOM_VARIABLE -->
<g id="node4" class="node"><title>EXPONENTIAL_RANDOM_VARIABLE</title>
<g id="a_node4"><a xlink:href="EXPONENTIAL_RANDOM_VARIABLE.html" xlink:title=" Exponential random variable " target="_top">
<path fill="none" stroke="black" d="M433,-36C433,-36 275,-36 275,-36 269,-36 263,-30 263,-24 263,-24 263,-12 263,-12 263,-6 269,-0 275,-0 275,-0 433,-0 433,-0 439,-0 445,-6 445,-12 445,-12 445,-24 445,-24 445,-30 439,-36 433,-36"/>
<text text-anchor="start" x="271" y="-14.3" font-family="Times,serif" font-size="14.00"> Exponential random variable </text>
</a>
</g>
</g>
<!-- EXPONENTIAL_GROWTH_DECAY&#45;&gt;EXPONENTIAL_RANDOM_VARIABLE -->
<g id="edge3" class="edge"><title>EXPONENTIAL_GROWTH_DECAY&#45;&gt;EXPONENTIAL_RANDOM_VARIABLE</title>
<path fill="none" stroke="black" d="M266.377,-71.8761C281.544,-62.7236 300.405,-51.3417 316.739,-41.485"/>
<polygon fill="black" stroke="black" points="318.761,-44.3531 325.514,-36.1898 315.144,-38.3598 318.761,-44.3531"/>
</g>
<!-- TAYLOR_SERIES -->
<g id="node3" class="node"><title>TAYLOR_SERIES</title>
<g id="a_node3"><a xlink:href="TAYLOR_SERIES.html" xlink:title=" One dimensional Taylor Series " target="_top">
<path fill="none" stroke="black" d="M225.5,-252C225.5,-252 56.5,-252 56.5,-252 50.5,-252 44.5,-246 44.5,-240 44.5,-240 44.5,-228 44.5,-228 44.5,-222 50.5,-216 56.5,-216 56.5,-216 225.5,-216 225.5,-216 231.5,-216 237.5,-222 237.5,-228 237.5,-228 237.5,-240 237.5,-240 237.5,-246 231.5,-252 225.5,-252"/>
<text text-anchor="start" x="52" y="-230.3" font-family="Times,serif" font-size="14.00"> One dimensional Taylor Series </text>
</a>
</g>
</g>
<!-- TAYLOR_SERIES&#45;&gt;EXPONENTIAL_GROWTH_DECAY -->
<g id="edge2" class="edge"><title>TAYLOR_SERIES&#45;&gt;EXPONENTIAL_GROWTH_DECAY</title>
<path fill="none" stroke="black" d="M140.966,-215.803C141.718,-196.723 145.361,-165.762 160,-144 168.316,-131.638 180.575,-121.368 192.924,-113.264"/>
<polygon fill="black" stroke="black" points="194.774,-116.235 201.44,-108.001 191.094,-110.281 194.774,-116.235"/>
</g>
<!-- THE_EXPONENTIAL_FUNCTION -->
<g id="node6" class="node"><title>THE_EXPONENTIAL_FUNCTION</title>
<g id="a_node6"><a xlink:href="THE_EXPONENTIAL_FUNCTION.html" xlink:title=" Exponential function " target="_top">
<path fill="none" stroke="black" d="M295,-180C295,-180 181,-180 181,-180 175,-180 169,-174 169,-168 169,-168 169,-156 169,-156 169,-150 175,-144 181,-144 181,-144 295,-144 295,-144 301,-144 307,-150 307,-156 307,-156 307,-168 307,-168 307,-174 301,-180 295,-180"/>
<text text-anchor="start" x="177" y="-158.3" font-family="Times,serif" font-size="14.00"> Exponential function </text>
</a>
</g>
</g>
<!-- TAYLOR_SERIES&#45;&gt;THE_EXPONENTIAL_FUNCTION -->
<!-- CONTINUOUS_TIME_MARKOV_CHAIN -->
<g id="node5" class="node"><title>CONTINUOUS_TIME_MARKOV_CHAIN</title>
<g id="a_node5"><a xlink:href="CONTINUOUS_TIME_MARKOV_CHAIN.html" xlink:title=" Markov chains in continuous time " target="_top">
<path fill="none" stroke="black" d="M455.5,-252C455.5,-252 268.5,-252 268.5,-252 262.5,-252 256.5,-246 256.5,-240 256.5,-240 256.5,-228 256.5,-228 256.5,-222 262.5,-216 268.5,-216 268.5,-216 455.5,-216 455.5,-216 461.5,-216 467.5,-222 467.5,-228 467.5,-228 467.5,-240 467.5,-240 467.5,-246 461.5,-252 455.5,-252"/>
<text text-anchor="start" x="264" y="-230.3" font-family="Times,serif" font-size="14.00"> Markov chains in continuous time </text>
</a>
</g>
</g>
<!-- CONTINUOUS_TIME_MARKOV_CHAIN&#45;&gt;EXPONENTIAL_GROWTH_DECAY -->
<g id="edge4" class="edge"><title>CONTINUOUS_TIME_MARKOV_CHAIN&#45;&gt;EXPONENTIAL_GROWTH_DECAY</title>
<path fill="none" stroke="black" d="M356.045,-215.744C348.812,-196.611 335.157,-165.602 316,-144 305.673,-132.356 292.26,-122.051 279.477,-113.697"/>
<polygon fill="black" stroke="black" points="281.104,-110.586 270.774,-108.232 277.382,-116.514 281.104,-110.586"/>
</g>
<!-- THE_EXPONENTIAL_FUNCTION&#45;&gt;EXPONENTIAL_GROWTH_DECAY -->
<g id="edge5" class="edge"><title>THE_EXPONENTIAL_FUNCTION&#45;&gt;EXPONENTIAL_GROWTH_DECAY</title>
<path fill="none" stroke="black" d="M238,-143.697C238,-135.983 238,-126.712 238,-118.112"/>
<polygon fill="black" stroke="black" points="241.5,-118.104 238,-108.104 234.5,-118.104 241.5,-118.104"/>
</g>
</g>
</svg>
