<?xml version="1.0" encoding="UTF-8" standalone="no"?>
<!DOCTYPE svg PUBLIC "-//W3C//DTD SVG 1.1//EN"
 "http://www.w3.org/Graphics/SVG/1.1/DTD/svg11.dtd">
<!-- Generated by graphviz version 2.36.0 (20140111.2315)
 -->
<!-- Title: %3 Pages: 1 -->
<svg width="476pt" height="260pt"
 viewBox="0.00 0.00 476.00 260.00" xmlns="http://www.w3.org/2000/svg" xmlns:xlink="http://www.w3.org/1999/xlink">
<g id="graph0" class="graph" transform="scale(1 1) rotate(0) translate(4 256)">
<title>%3</title>
<!-- EXPONENTIAL_GROWTH_DECAY -->
<g id="node1" class="node"><title>EXPONENTIAL_GROWTH_DECAY</title>
<g id="a_node1"><a xlink:href="EXPONENTIAL_GROWTH_DECAY.html" xlink:title=" Exponential growth/decay " target="_top">
<path fill="none" stroke="blue" stroke-width="2" d="M309.25,-108C309.25,-108 166.75,-108 166.75,-108 160.75,-108 154.75,-102 154.75,-96 154.75,-96 154.75,-84 154.75,-84 154.75,-78 160.75,-72 166.75,-72 166.75,-72 309.25,-72 309.25,-72 315.25,-72 321.25,-78 321.25,-84 321.25,-84 321.25,-96 321.25,-96 321.25,-102 315.25,-108 309.25,-108"/>
<text text-anchor="start" x="162.5" y="-86.3" font-family="Times,serif" font-size="14.00"> Exponential growth/decay </text>
</a>
</g>
</g>
<!-- VARIABLE_SEPARABLE_DIFFERENTIAL_EQUATIONS -->
<g id="node2" class="node"><title>VARIABLE_SEPARABLE_DIFFERENTIAL_EQUATIONS</title>
<g id="a_node2"><a xlink:href="VARIABLE_SEPARABLE_DIFFERENTIAL_EQUATIONS.html" xlink:title=" Variable separable differential equations " target="_top">
<path fill="none" stroke="black" d="M232.25,-36C232.25,-36 11.75,-36 11.75,-36 5.75,-36 -0.25,-30 -0.25,-24 -0.25,-24 -0.25,-12 -0.25,-12 -0.25,-6 5.75,-0 11.75,-0 11.75,-0 232.25,-0 232.25,-0 238.25,-0 244.25,-6 244.25,-12 244.25,-12 244.25,-24 244.25,-24 244.25,-30 238.25,-36 232.25,-36"/>
<text text-anchor="start" x="7.5" y="-14.3" font-family="Times,serif" font-size="14.00"> Variable separable differential equations </text>
</a>
</g>
</g>
<!-- EXPONENTIAL_GROWTH_DECAY&#45;&gt;VARIABLE_SEPARABLE_DIFFERENTIAL_EQUATIONS -->
<g id="edge1" class="edge"><title>EXPONENTIAL_GROWTH_DECAY&#45;&gt;VARIABLE_SEPARABLE_DIFFERENTIAL_EQUATIONS</title>
<path fill="none" stroke="black" d="M209.623,-71.8761C194.456,-62.7236 175.595,-51.3417 159.261,-41.485"/>
<polygon fill="black" stroke="black" points="160.856,-38.3598 150.486,-36.1898 157.239,-44.3531 160.856,-38.3598"/>
</g>
<!-- EXPONENTIAL_RANDOM_VARIABLE -->
<g id="node6" class="node"><title>EXPONENTIAL_RANDOM_VARIABLE</title>
<g id="a_node6"><a xlink:href="EXPONENTIAL_RANDOM_VARIABLE.html" xlink:title=" Exponential random variable " target="_top">
<path fill="none" stroke="black" d="M433,-36C433,-36 275,-36 275,-36 269,-36 263,-30 263,-24 263,-24 263,-12 263,-12 263,-6 269,-0 275,-0 275,-0 433,-0 433,-0 439,-0 445,-6 445,-12 445,-12 445,-24 445,-24 445,-30 439,-36 433,-36"/>
<text text-anchor="start" x="271" y="-14.3" font-family="Times,serif" font-size="14.00"> Exponential random variable </text>
</a>
</g>
</g>
<!-- EXPONENTIAL_GROWTH_DECAY&#45;&gt;EXPONENTIAL_RANDOM_VARIABLE -->
<g id="edge6" class="edge"><title>EXPONENTIAL_GROWTH_DECAY&#45;&gt;EXPONENTIAL_RANDOM_VARIABLE</title>
<path fill="none" stroke="black" d="M266.377,-71.8761C281.544,-62.7236 300.405,-51.3417 316.739,-41.485"/>
<polygon fill="black" stroke="black" points="318.761,-44.3531 325.514,-36.1898 315.144,-38.3598 318.761,-44.3531"/>
</g>
<!-- THE_EXPONENTIAL_FUNCTION -->
<g id="node3" class="node"><title>THE_EXPONENTIAL_FUNCTION</title>
<g id="a_node3"><a xlink:href="THE_EXPONENTIAL_FUNCTION.html" xlink:title=" Exponential function " target="_top">
<path fill="none" stroke="black" d="M198,-252C198,-252 84,-252 84,-252 78,-252 72,-246 72,-240 72,-240 72,-228 72,-228 72,-222 78,-216 84,-216 84,-216 198,-216 198,-216 204,-216 210,-222 210,-228 210,-228 210,-240 210,-240 210,-246 204,-252 198,-252"/>
<text text-anchor="start" x="80" y="-230.3" font-family="Times,serif" font-size="14.00"> Exponential function </text>
</a>
</g>
</g>
<!-- THE_EXPONENTIAL_FUNCTION&#45;&gt;EXPONENTIAL_GROWTH_DECAY -->
<g id="edge2" class="edge"><title>THE_EXPONENTIAL_FUNCTION&#45;&gt;EXPONENTIAL_GROWTH_DECAY</title>
<path fill="none" stroke="black" d="M133.42,-215.866C126.254,-196.841 118.447,-165.93 132,-144 140.341,-130.504 153.274,-120.33 167.276,-112.701"/>
<polygon fill="black" stroke="black" points="169.213,-115.646 176.595,-108.046 166.085,-109.384 169.213,-115.646"/>
</g>
<!-- TAYLOR_SERIES -->
<g id="node5" class="node"><title>TAYLOR_SERIES</title>
<g id="a_node5"><a xlink:href="TAYLOR_SERIES.html" xlink:title=" One dimensional Taylor Series " target="_top">
<path fill="none" stroke="black" d="M322.5,-180C322.5,-180 153.5,-180 153.5,-180 147.5,-180 141.5,-174 141.5,-168 141.5,-168 141.5,-156 141.5,-156 141.5,-150 147.5,-144 153.5,-144 153.5,-144 322.5,-144 322.5,-144 328.5,-144 334.5,-150 334.5,-156 334.5,-156 334.5,-168 334.5,-168 334.5,-174 328.5,-180 322.5,-180"/>
<text text-anchor="start" x="149" y="-158.3" font-family="Times,serif" font-size="14.00"> One dimensional Taylor Series </text>
</a>
</g>
</g>
<!-- THE_EXPONENTIAL_FUNCTION&#45;&gt;TAYLOR_SERIES -->
<!-- CONTINUOUS_TIME_MARKOV_CHAIN -->
<g id="node4" class="node"><title>CONTINUOUS_TIME_MARKOV_CHAIN</title>
<g id="a_node4"><a xlink:href="CONTINUOUS_TIME_MARKOV_CHAIN.html" xlink:title=" Markov chains in continuous time " target="_top">
<path fill="none" stroke="black" d="M456.5,-252C456.5,-252 269.5,-252 269.5,-252 263.5,-252 257.5,-246 257.5,-240 257.5,-240 257.5,-228 257.5,-228 257.5,-222 263.5,-216 269.5,-216 269.5,-216 456.5,-216 456.5,-216 462.5,-216 468.5,-222 468.5,-228 468.5,-228 468.5,-240 468.5,-240 468.5,-246 462.5,-252 456.5,-252"/>
<text text-anchor="start" x="265" y="-230.3" font-family="Times,serif" font-size="14.00"> Markov chains in continuous time </text>
</a>
</g>
</g>
<!-- CONTINUOUS_TIME_MARKOV_CHAIN&#45;&gt;EXPONENTIAL_GROWTH_DECAY -->
<g id="edge3" class="edge"><title>CONTINUOUS_TIME_MARKOV_CHAIN&#45;&gt;EXPONENTIAL_GROWTH_DECAY</title>
<path fill="none" stroke="black" d="M363.325,-215.771C362.818,-196.377 359.261,-164.858 343,-144 332.603,-130.664 317.945,-120.41 302.87,-112.639"/>
<polygon fill="black" stroke="black" points="303.994,-109.296 293.465,-108.117 300.961,-115.605 303.994,-109.296"/>
</g>
<!-- TAYLOR_SERIES&#45;&gt;EXPONENTIAL_GROWTH_DECAY -->
<g id="edge4" class="edge"><title>TAYLOR_SERIES&#45;&gt;EXPONENTIAL_GROWTH_DECAY</title>
<path fill="none" stroke="black" d="M238,-143.697C238,-135.983 238,-126.712 238,-118.112"/>
<polygon fill="black" stroke="black" points="241.5,-118.104 238,-108.104 234.5,-118.104 241.5,-118.104"/>
</g>
</g>
</svg>
