<?xml version="1.0" encoding="UTF-8" standalone="no"?>
<!DOCTYPE svg PUBLIC "-//W3C//DTD SVG 1.1//EN"
 "http://www.w3.org/Graphics/SVG/1.1/DTD/svg11.dtd">
<!-- Generated by graphviz version 2.26.3 (20100126.1600)
 -->
<!-- Title: _anonymous_0 Pages: 1 -->
<svg width="381pt" height="260pt"
 viewBox="0.00 0.00 381.00 260.00" xmlns="http://www.w3.org/2000/svg" xmlns:xlink="http://www.w3.org/1999/xlink">
<g id="graph1" class="graph" transform="scale(1 1) rotate(0) translate(4 256)">
<title>_anonymous_0</title>
<!-- EXPONENTIAL_RANDOM_VARIABLE -->
<g id="node1" class="node"><title>EXPONENTIAL_RANDOM_VARIABLE</title>
<a xlink:href="EXPONENTIAL_RANDOM_VARIABLE.html" xlink:title="Exponential random variable" target="_top">
<polyline fill="none" stroke="blue" stroke-width="2" points="272,-108 80,-108 "/>
<path fill="none" stroke="blue" stroke-width="2" d="M80,-108C74,-108 68,-102 68,-96"/>
<polyline fill="none" stroke="blue" stroke-width="2" points="68,-96 68,-84 "/>
<path fill="none" stroke="blue" stroke-width="2" d="M68,-84C68,-78 74,-72 80,-72"/>
<polyline fill="none" stroke="blue" stroke-width="2" points="80,-72 272,-72 "/>
<path fill="none" stroke="blue" stroke-width="2" d="M272,-72C278,-72 284,-78 284,-84"/>
<polyline fill="none" stroke="blue" stroke-width="2" points="284,-84 284,-96 "/>
<path fill="none" stroke="blue" stroke-width="2" d="M284,-96C284,-102 278,-108 272,-108"/>
<text text-anchor="start" x="76.5" y="-87.2333" font-family="Times Roman,serif" font-size="14.00">Exponential random variable</text>
</a>
</g>
<!-- MM1_QUEUE -->
<g id="node9" class="node"><title>MM1_QUEUE</title>
<a xlink:href="MM1_QUEUE.html" xlink:title="The M/M/1 Queue " target="_top">
<polyline fill="none" stroke="black" points="236,-36 116,-36 "/>
<path fill="none" stroke="black" d="M116,-36C110,-36 104,-30 104,-24"/>
<polyline fill="none" stroke="black" points="104,-24 104,-12 "/>
<path fill="none" stroke="black" d="M104,-12C104,-6 110,-1.71714e-14 116,-1.65793e-14"/>
<polyline fill="none" stroke="black" points="116,-1.65793e-14 236,-4.73695e-15 "/>
<path fill="none" stroke="black" d="M236,-4.73695e-15C242,-4.14483e-15 248,-6 248,-12"/>
<polyline fill="none" stroke="black" points="248,-12 248,-24 "/>
<path fill="none" stroke="black" d="M248,-24C248,-30 242,-36 236,-36"/>
<text text-anchor="start" x="112" y="-15.2333" font-family="Times Roman,serif" font-size="14.00">The M/M/1 Queue </text>
</a>
</g>
<!-- EXPONENTIAL_RANDOM_VARIABLE&#45;&gt;MM1_QUEUE -->
<g id="edge10" class="edge"><title>EXPONENTIAL_RANDOM_VARIABLE&#45;&gt;MM1_QUEUE</title>
<path fill="none" stroke="black" d="M176,-71.8314C176,-64.131 176,-54.9743 176,-46.4166"/>
<polygon fill="black" stroke="black" points="179.5,-46.4132 176,-36.4133 172.5,-46.4133 179.5,-46.4132"/>
</g>
<!-- INTEGRATION_BY_PARTS -->
<g id="node2" class="node"><title>INTEGRATION_BY_PARTS</title>
<a xlink:href="INTEGRATION_BY_PARTS.html" xlink:title="Integration by parts" target="_top">
<polyline fill="none" stroke="black" points="144,-252 12,-252 "/>
<path fill="none" stroke="black" d="M12,-252C6,-252 5.92119e-14,-246 4.73695e-14,-240"/>
<polyline fill="none" stroke="black" points="4.73695e-14,-240 2.36848e-14,-228 "/>
<path fill="none" stroke="black" d="M2.36848e-14,-228C1.18424e-14,-222 6,-216 12,-216"/>
<polyline fill="none" stroke="black" points="12,-216 144,-216 "/>
<path fill="none" stroke="black" d="M144,-216C150,-216 156,-222 156,-228"/>
<polyline fill="none" stroke="black" points="156,-228 156,-240 "/>
<path fill="none" stroke="black" d="M156,-240C156,-246 150,-252 144,-252"/>
<text text-anchor="start" x="8.5" y="-231.233" font-family="Times Roman,serif" font-size="14.00">Integration by parts</text>
</a>
</g>
<!-- INTEGRATION_BY_PARTS&#45;&gt;EXPONENTIAL_RANDOM_VARIABLE -->
<g id="edge2" class="edge"><title>INTEGRATION_BY_PARTS&#45;&gt;EXPONENTIAL_RANDOM_VARIABLE</title>
<path fill="none" stroke="black" d="M77.9555,-215.918C78.7353,-196.581 82.4371,-165.768 97,-144 105.103,-131.889 116.927,-121.738 128.971,-113.625"/>
<polygon fill="black" stroke="black" points="131.153,-116.386 137.73,-108.08 127.409,-110.472 131.153,-116.386"/>
</g>
<!-- RANDOM_VARIABLES -->
<g id="node6" class="node"><title>RANDOM_VARIABLES</title>
<a xlink:href="RANDOM_VARIABLES.html" xlink:title="Random variables" target="_top">
<polyline fill="none" stroke="black" points="234,-180 118,-180 "/>
<path fill="none" stroke="black" d="M118,-180C112,-180 106,-174 106,-168"/>
<polyline fill="none" stroke="black" points="106,-168 106,-156 "/>
<path fill="none" stroke="black" d="M106,-156C106,-150 112,-144 118,-144"/>
<polyline fill="none" stroke="black" points="118,-144 234,-144 "/>
<path fill="none" stroke="black" d="M234,-144C240,-144 246,-150 246,-156"/>
<polyline fill="none" stroke="black" points="246,-156 246,-168 "/>
<path fill="none" stroke="black" d="M246,-168C246,-174 240,-180 234,-180"/>
<text text-anchor="start" x="114.5" y="-159.233" font-family="Times Roman,serif" font-size="14.00">Random variables</text>
</a>
</g>
<!-- INTEGRATION_BY_PARTS&#45;&gt;RANDOM_VARIABLES -->
<!-- EXPONENTIAL_GROWTH_DECAY -->
<g id="node4" class="node"><title>EXPONENTIAL_GROWTH_DECAY</title>
<a xlink:href="EXPONENTIAL_GROWTH_DECAY.html" xlink:title="Exponential growth/decay" target="_top">
<polyline fill="none" stroke="black" points="361,-252 187,-252 "/>
<path fill="none" stroke="black" d="M187,-252C181,-252 175,-246 175,-240"/>
<polyline fill="none" stroke="black" points="175,-240 175,-228 "/>
<path fill="none" stroke="black" d="M175,-228C175,-222 181,-216 187,-216"/>
<polyline fill="none" stroke="black" points="187,-216 361,-216 "/>
<path fill="none" stroke="black" d="M361,-216C367,-216 373,-222 373,-228"/>
<polyline fill="none" stroke="black" points="373,-228 373,-240 "/>
<path fill="none" stroke="black" d="M373,-240C373,-246 367,-252 361,-252"/>
<text text-anchor="start" x="183.5" y="-231.233" font-family="Times Roman,serif" font-size="14.00">Exponential growth/decay</text>
</a>
</g>
<!-- EXPONENTIAL_GROWTH_DECAY&#45;&gt;EXPONENTIAL_RANDOM_VARIABLE -->
<g id="edge4" class="edge"><title>EXPONENTIAL_GROWTH_DECAY&#45;&gt;EXPONENTIAL_RANDOM_VARIABLE</title>
<path fill="none" stroke="black" d="M274.045,-215.918C273.265,-196.581 269.563,-165.768 255,-144 246.897,-131.889 235.073,-121.738 223.029,-113.625"/>
<polygon fill="black" stroke="black" points="224.591,-110.472 214.27,-108.08 220.847,-116.386 224.591,-110.472"/>
</g>
<!-- RANDOM_VARIABLES&#45;&gt;EXPONENTIAL_RANDOM_VARIABLE -->
<g id="edge6" class="edge"><title>RANDOM_VARIABLES&#45;&gt;EXPONENTIAL_RANDOM_VARIABLE</title>
<path fill="none" stroke="black" d="M176,-143.831C176,-136.131 176,-126.974 176,-118.417"/>
<polygon fill="black" stroke="black" points="179.5,-118.413 176,-108.413 172.5,-118.413 179.5,-118.413"/>
</g>
</g>
</svg>
