<?xml version="1.0" encoding="UTF-8" standalone="no"?>
<!DOCTYPE svg PUBLIC "-//W3C//DTD SVG 1.1//EN"
 "http://www.w3.org/Graphics/SVG/1.1/DTD/svg11.dtd">
<!-- Generated by graphviz version 2.36.0 (20140111.2315)
 -->
<!-- Title: %3 Pages: 1 -->
<svg width="328pt" height="260pt"
 viewBox="0.00 0.00 328.00 260.00" xmlns="http://www.w3.org/2000/svg" xmlns:xlink="http://www.w3.org/1999/xlink">
<g id="graph0" class="graph" transform="scale(1 1) rotate(0) translate(4 256)">
<title>%3</title>
<!-- EXPONENTIAL_RANDOM_VARIABLE -->
<g id="node1" class="node"><title>EXPONENTIAL_RANDOM_VARIABLE</title>
<g id="a_node1"><a xlink:href="EXPONENTIAL_RANDOM_VARIABLE.html" xlink:title=" Exponential random variable " target="_top">
<path fill="none" stroke="blue" stroke-width="2" d="M244,-108C244,-108 86,-108 86,-108 80,-108 74,-102 74,-96 74,-96 74,-84 74,-84 74,-78 80,-72 86,-72 86,-72 244,-72 244,-72 250,-72 256,-78 256,-84 256,-84 256,-96 256,-96 256,-102 250,-108 244,-108"/>
<text text-anchor="start" x="82" y="-86.3" font-family="Times,serif" font-size="14.00"> Exponential random variable </text>
</a>
</g>
</g>
<!-- POISSON_PROCESS -->
<g id="node4" class="node"><title>POISSON_PROCESS</title>
<g id="a_node4"><a xlink:href="POISSON_PROCESS.html" xlink:title=" Poisson Process " target="_top">
<path fill="none" stroke="black" d="M139.25,-36C139.25,-36 52.75,-36 52.75,-36 46.75,-36 40.75,-30 40.75,-24 40.75,-24 40.75,-12 40.75,-12 40.75,-6 46.75,-0 52.75,-0 52.75,-0 139.25,-0 139.25,-0 145.25,-0 151.25,-6 151.25,-12 151.25,-12 151.25,-24 151.25,-24 151.25,-30 145.25,-36 139.25,-36"/>
<text text-anchor="start" x="48.5" y="-14.3" font-family="Times,serif" font-size="14.00"> Poisson Process </text>
</a>
</g>
</g>
<!-- EXPONENTIAL_RANDOM_VARIABLE&#45;&gt;POISSON_PROCESS -->
<g id="edge3" class="edge"><title>EXPONENTIAL_RANDOM_VARIABLE&#45;&gt;POISSON_PROCESS</title>
<path fill="none" stroke="black" d="M147.944,-71.6966C139.505,-63.135 129.175,-52.6562 119.957,-43.3045"/>
<polygon fill="black" stroke="black" points="122.373,-40.7691 112.86,-36.1043 117.387,-45.6831 122.373,-40.7691"/>
</g>
<!-- MM1_QUEUE -->
<g id="node5" class="node"><title>MM1_QUEUE</title>
<g id="a_node5"><a xlink:href="MM1_QUEUE.html" xlink:title=" The M/M/1 Queue &#160;" target="_top">
<path fill="none" stroke="black" d="M288.25,-36C288.25,-36 181.75,-36 181.75,-36 175.75,-36 169.75,-30 169.75,-24 169.75,-24 169.75,-12 169.75,-12 169.75,-6 175.75,-0 181.75,-0 181.75,-0 288.25,-0 288.25,-0 294.25,-0 300.25,-6 300.25,-12 300.25,-12 300.25,-24 300.25,-24 300.25,-30 294.25,-36 288.25,-36"/>
<text text-anchor="start" x="177.5" y="-14.3" font-family="Times,serif" font-size="14.00"> The M/M/1 Queue &#160;</text>
</a>
</g>
</g>
<!-- EXPONENTIAL_RANDOM_VARIABLE&#45;&gt;MM1_QUEUE -->
<g id="edge4" class="edge"><title>EXPONENTIAL_RANDOM_VARIABLE&#45;&gt;MM1_QUEUE</title>
<path fill="none" stroke="black" d="M182.303,-71.6966C190.865,-63.135 201.344,-52.6562 210.696,-43.3045"/>
<polygon fill="black" stroke="black" points="213.299,-45.6503 217.896,-36.1043 208.35,-40.7005 213.299,-45.6503"/>
</g>
<!-- EXPONENTIAL_GROWTH_DECAY -->
<g id="node2" class="node"><title>EXPONENTIAL_GROWTH_DECAY</title>
<g id="a_node2"><a xlink:href="EXPONENTIAL_GROWTH_DECAY.html" xlink:title=" Exponential growth/decay " target="_top">
<path fill="none" stroke="black" d="M154.25,-252C154.25,-252 11.75,-252 11.75,-252 5.75,-252 -0.25,-246 -0.25,-240 -0.25,-240 -0.25,-228 -0.25,-228 -0.25,-222 5.75,-216 11.75,-216 11.75,-216 154.25,-216 154.25,-216 160.25,-216 166.25,-222 166.25,-228 166.25,-228 166.25,-240 166.25,-240 166.25,-246 160.25,-252 154.25,-252"/>
<text text-anchor="start" x="7.5" y="-230.3" font-family="Times,serif" font-size="14.00"> Exponential growth/decay </text>
</a>
</g>
</g>
<!-- EXPONENTIAL_GROWTH_DECAY&#45;&gt;EXPONENTIAL_RANDOM_VARIABLE -->
<g id="edge1" class="edge"><title>EXPONENTIAL_GROWTH_DECAY&#45;&gt;EXPONENTIAL_RANDOM_VARIABLE</title>
<path fill="none" stroke="black" d="M80.2326,-215.685C78.1048,-196.777 77.3585,-166.231 90,-144 96.9762,-131.732 108.095,-121.611 119.657,-113.62"/>
<polygon fill="black" stroke="black" points="121.592,-116.536 128.101,-108.177 117.8,-110.653 121.592,-116.536"/>
</g>
<!-- INTEGRATION_BY_PARTS -->
<g id="node6" class="node"><title>INTEGRATION_BY_PARTS</title>
<g id="a_node6"><a xlink:href="INTEGRATION_BY_PARTS.html" xlink:title=" Integration by parts " target="_top">
<path fill="none" stroke="black" d="M218.25,-180C218.25,-180 111.75,-180 111.75,-180 105.75,-180 99.75,-174 99.75,-168 99.75,-168 99.75,-156 99.75,-156 99.75,-150 105.75,-144 111.75,-144 111.75,-144 218.25,-144 218.25,-144 224.25,-144 230.25,-150 230.25,-156 230.25,-156 230.25,-168 230.25,-168 230.25,-174 224.25,-180 218.25,-180"/>
<text text-anchor="start" x="107.5" y="-158.3" font-family="Times,serif" font-size="14.00"> Integration by parts </text>
</a>
</g>
</g>
<!-- EXPONENTIAL_GROWTH_DECAY&#45;&gt;INTEGRATION_BY_PARTS -->
<!-- RANDOM_VARIABLES -->
<g id="node3" class="node"><title>RANDOM_VARIABLES</title>
<g id="a_node3"><a xlink:href="RANDOM_VARIABLES.html" xlink:title=" Random variables " target="_top">
<path fill="none" stroke="black" d="M308.25,-252C308.25,-252 209.75,-252 209.75,-252 203.75,-252 197.75,-246 197.75,-240 197.75,-240 197.75,-228 197.75,-228 197.75,-222 203.75,-216 209.75,-216 209.75,-216 308.25,-216 308.25,-216 314.25,-216 320.25,-222 320.25,-228 320.25,-228 320.25,-240 320.25,-240 320.25,-246 314.25,-252 308.25,-252"/>
<text text-anchor="start" x="205.5" y="-230.3" font-family="Times,serif" font-size="14.00"> Random variables </text>
</a>
</g>
</g>
<!-- RANDOM_VARIABLES&#45;&gt;EXPONENTIAL_RANDOM_VARIABLE -->
<g id="edge2" class="edge"><title>RANDOM_VARIABLES&#45;&gt;EXPONENTIAL_RANDOM_VARIABLE</title>
<path fill="none" stroke="black" d="M258.706,-215.86C257.619,-196.831 253.52,-165.915 239,-144 231.063,-132.022 219.429,-121.866 207.725,-113.749"/>
<polygon fill="black" stroke="black" points="209.527,-110.746 199.242,-108.203 205.696,-116.605 209.527,-110.746"/>
</g>
<!-- INTEGRATION_BY_PARTS&#45;&gt;EXPONENTIAL_RANDOM_VARIABLE -->
<g id="edge5" class="edge"><title>INTEGRATION_BY_PARTS&#45;&gt;EXPONENTIAL_RANDOM_VARIABLE</title>
<path fill="none" stroke="black" d="M165,-143.697C165,-135.983 165,-126.712 165,-118.112"/>
<polygon fill="black" stroke="black" points="168.5,-118.104 165,-108.104 161.5,-118.104 168.5,-118.104"/>
</g>
</g>
</svg>
