<?xml version="1.0" encoding="UTF-8" standalone="no"?>
<!DOCTYPE svg PUBLIC "-//W3C//DTD SVG 1.1//EN"
 "http://www.w3.org/Graphics/SVG/1.1/DTD/svg11.dtd">
<!-- Generated by graphviz version 2.26.3 (20100126.1600)
 -->
<!-- Title: _anonymous_0 Pages: 1 -->
<svg width="381pt" height="188pt"
 viewBox="0.00 0.00 381.00 188.00" xmlns="http://www.w3.org/2000/svg" xmlns:xlink="http://www.w3.org/1999/xlink">
<g id="graph1" class="graph" transform="scale(1 1) rotate(0) translate(4 184)">
<title>_anonymous_0</title>
<!-- EXPONENTIAL_RANDOM_VARIABLE -->
<g id="node1" class="node"><title>EXPONENTIAL_RANDOM_VARIABLE</title>
<a xlink:href="EXPONENTIAL_RANDOM_VARIABLE.html" xlink:title="Exponential random variable" target="_top">
<polyline fill="none" stroke="blue" stroke-width="2" points="293,-36 101,-36 "/>
<path fill="none" stroke="blue" stroke-width="2" d="M101,-36C95,-36 89,-30 89,-24"/>
<polyline fill="none" stroke="blue" stroke-width="2" points="89,-24 89,-12 "/>
<path fill="none" stroke="blue" stroke-width="2" d="M89,-12C89,-6 95,-1.73688e-14 101,-1.69741e-14"/>
<polyline fill="none" stroke="blue" stroke-width="2" points="101,-1.69741e-14 293,-4.34221e-15 "/>
<path fill="none" stroke="blue" stroke-width="2" d="M293,-4.34221e-15C299,-3.94746e-15 305,-6 305,-12"/>
<polyline fill="none" stroke="blue" stroke-width="2" points="305,-12 305,-24 "/>
<path fill="none" stroke="blue" stroke-width="2" d="M305,-24C305,-30 299,-36 293,-36"/>
<text text-anchor="start" x="97.5" y="-15.2333" font-family="Times Roman,serif" font-size="14.00">Exponential random variable</text>
</a>
</g>
<!-- EXPONENTIAL_GROWTH_DECAY -->
<g id="node2" class="node"><title>EXPONENTIAL_GROWTH_DECAY</title>
<a xlink:href="EXPONENTIAL_GROWTH_DECAY.html" xlink:title="Exponential growth/decay" target="_top">
<polyline fill="none" stroke="black" points="186,-180 12,-180 "/>
<path fill="none" stroke="black" d="M12,-180C6,-180 5.92119e-14,-174 4.73695e-14,-168"/>
<polyline fill="none" stroke="black" points="4.73695e-14,-168 2.36848e-14,-156 "/>
<path fill="none" stroke="black" d="M2.36848e-14,-156C1.18424e-14,-150 6,-144 12,-144"/>
<polyline fill="none" stroke="black" points="12,-144 186,-144 "/>
<path fill="none" stroke="black" d="M186,-144C192,-144 198,-150 198,-156"/>
<polyline fill="none" stroke="black" points="198,-156 198,-168 "/>
<path fill="none" stroke="black" d="M198,-168C198,-174 192,-180 186,-180"/>
<text text-anchor="start" x="8.5" y="-159.233" font-family="Times Roman,serif" font-size="14.00">Exponential growth/decay</text>
</a>
</g>
<!-- EXPONENTIAL_GROWTH_DECAY&#45;&gt;EXPONENTIAL_RANDOM_VARIABLE -->
<g id="edge2" class="edge"><title>EXPONENTIAL_GROWTH_DECAY&#45;&gt;EXPONENTIAL_RANDOM_VARIABLE</title>
<path fill="none" stroke="black" d="M98.9555,-143.918C99.7353,-124.581 103.437,-93.7676 118,-72 126.103,-59.8888 137.927,-49.7377 149.971,-41.6253"/>
<polygon fill="black" stroke="black" points="152.153,-44.3862 158.73,-36.0796 148.409,-38.4719 152.153,-44.3862"/>
</g>
<!-- RANDOM_VARIABLES -->
<g id="node6" class="node"><title>RANDOM_VARIABLES</title>
<a xlink:href="RANDOM_VARIABLES.html" xlink:title="Random variables" target="_top">
<polyline fill="none" stroke="black" points="255,-108 139,-108 "/>
<path fill="none" stroke="black" d="M139,-108C133,-108 127,-102 127,-96"/>
<polyline fill="none" stroke="black" points="127,-96 127,-84 "/>
<path fill="none" stroke="black" d="M127,-84C127,-78 133,-72 139,-72"/>
<polyline fill="none" stroke="black" points="139,-72 255,-72 "/>
<path fill="none" stroke="black" d="M255,-72C261,-72 267,-78 267,-84"/>
<polyline fill="none" stroke="black" points="267,-84 267,-96 "/>
<path fill="none" stroke="black" d="M267,-96C267,-102 261,-108 255,-108"/>
<text text-anchor="start" x="135.5" y="-87.2333" font-family="Times Roman,serif" font-size="14.00">Random variables</text>
</a>
</g>
<!-- EXPONENTIAL_GROWTH_DECAY&#45;&gt;RANDOM_VARIABLES -->
<!-- INTEGRATION_BY_PARTS -->
<g id="node4" class="node"><title>INTEGRATION_BY_PARTS</title>
<a xlink:href="INTEGRATION_BY_PARTS.html" xlink:title="Integration by parts" target="_top">
<polyline fill="none" stroke="black" points="361,-180 229,-180 "/>
<path fill="none" stroke="black" d="M229,-180C223,-180 217,-174 217,-168"/>
<polyline fill="none" stroke="black" points="217,-168 217,-156 "/>
<path fill="none" stroke="black" d="M217,-156C217,-150 223,-144 229,-144"/>
<polyline fill="none" stroke="black" points="229,-144 361,-144 "/>
<path fill="none" stroke="black" d="M361,-144C367,-144 373,-150 373,-156"/>
<polyline fill="none" stroke="black" points="373,-156 373,-168 "/>
<path fill="none" stroke="black" d="M373,-168C373,-174 367,-180 361,-180"/>
<text text-anchor="start" x="225.5" y="-159.233" font-family="Times Roman,serif" font-size="14.00">Integration by parts</text>
</a>
</g>
<!-- INTEGRATION_BY_PARTS&#45;&gt;EXPONENTIAL_RANDOM_VARIABLE -->
<g id="edge4" class="edge"><title>INTEGRATION_BY_PARTS&#45;&gt;EXPONENTIAL_RANDOM_VARIABLE</title>
<path fill="none" stroke="black" d="M295.045,-143.918C294.265,-124.581 290.563,-93.7676 276,-72 267.897,-59.8888 256.073,-49.7377 244.029,-41.6253"/>
<polygon fill="black" stroke="black" points="245.591,-38.4719 235.27,-36.0796 241.847,-44.3862 245.591,-38.4719"/>
</g>
<!-- RANDOM_VARIABLES&#45;&gt;EXPONENTIAL_RANDOM_VARIABLE -->
<g id="edge6" class="edge"><title>RANDOM_VARIABLES&#45;&gt;EXPONENTIAL_RANDOM_VARIABLE</title>
<path fill="none" stroke="black" d="M197,-71.8314C197,-64.131 197,-54.9743 197,-46.4166"/>
<polygon fill="black" stroke="black" points="200.5,-46.4132 197,-36.4133 193.5,-46.4133 200.5,-46.4132"/>
</g>
</g>
</svg>
