<?xml version="1.0" encoding="UTF-8" standalone="no"?>
<!DOCTYPE svg PUBLIC "-//W3C//DTD SVG 1.1//EN"
 "http://www.w3.org/Graphics/SVG/1.1/DTD/svg11.dtd">
<!-- Generated by graphviz version 2.26.3 (20100126.1600)
 -->
<!-- Title: _anonymous_0 Pages: 1 -->
<svg width="536pt" height="260pt"
 viewBox="0.00 0.00 536.00 260.00" xmlns="http://www.w3.org/2000/svg" xmlns:xlink="http://www.w3.org/1999/xlink">
<g id="graph1" class="graph" transform="scale(1 1) rotate(0) translate(4 256)">
<title>_anonymous_0</title>
<!-- EXPONENTIAL_GROWTH_DECAY -->
<g id="node1" class="node"><title>EXPONENTIAL_GROWTH_DECAY</title>
<a xlink:href="EXPONENTIAL_GROWTH_DECAY.html" xlink:title="Exponential growth/decay" target="_top">
<polyline fill="none" stroke="blue" stroke-width="2" points="331,-108 157,-108 "/>
<path fill="none" stroke="blue" stroke-width="2" d="M157,-108C151,-108 145,-102 145,-96"/>
<polyline fill="none" stroke="blue" stroke-width="2" points="145,-96 145,-84 "/>
<path fill="none" stroke="blue" stroke-width="2" d="M145,-84C145,-78 151,-72 157,-72"/>
<polyline fill="none" stroke="blue" stroke-width="2" points="157,-72 331,-72 "/>
<path fill="none" stroke="blue" stroke-width="2" d="M331,-72C337,-72 343,-78 343,-84"/>
<polyline fill="none" stroke="blue" stroke-width="2" points="343,-84 343,-96 "/>
<path fill="none" stroke="blue" stroke-width="2" d="M343,-96C343,-102 337,-108 331,-108"/>
<text text-anchor="start" x="153.5" y="-87.2333" font-family="Times Roman,serif" font-size="14.00">Exponential growth/decay</text>
</a>
</g>
<!-- EXPONENTIAL_RANDOM_VARIABLE -->
<g id="node6" class="node"><title>EXPONENTIAL_RANDOM_VARIABLE</title>
<a xlink:href="EXPONENTIAL_RANDOM_VARIABLE.html" xlink:title="Exponential random variable" target="_top">
<polyline fill="none" stroke="black" points="204,-36 12,-36 "/>
<path fill="none" stroke="black" d="M12,-36C6,-36 7.10543e-14,-30 5.68434e-14,-24"/>
<polyline fill="none" stroke="black" points="5.68434e-14,-24 2.84217e-14,-12 "/>
<path fill="none" stroke="black" d="M2.84217e-14,-12C1.42109e-14,-6 6,-1.73688e-14 12,-1.69741e-14"/>
<polyline fill="none" stroke="black" points="12,-1.69741e-14 204,-4.34221e-15 "/>
<path fill="none" stroke="black" d="M204,-4.34221e-15C210,-3.94746e-15 216,-6 216,-12"/>
<polyline fill="none" stroke="black" points="216,-12 216,-24 "/>
<path fill="none" stroke="black" d="M216,-24C216,-30 210,-36 204,-36"/>
<text text-anchor="start" x="8.5" y="-15.2333" font-family="Times Roman,serif" font-size="14.00">Exponential random variable</text>
</a>
</g>
<!-- EXPONENTIAL_GROWTH_DECAY&#45;&gt;EXPONENTIAL_RANDOM_VARIABLE -->
<g id="edge6" class="edge"><title>EXPONENTIAL_GROWTH_DECAY&#45;&gt;EXPONENTIAL_RANDOM_VARIABLE</title>
<path fill="none" stroke="black" d="M209.681,-71.8314C191.964,-62.4516 170.166,-50.9112 151.302,-40.9244"/>
<polygon fill="black" stroke="black" points="152.783,-37.7485 142.308,-36.1628 149.508,-43.935 152.783,-37.7485"/>
</g>
<!-- VARIABLE_SEPARABLE_DIFFERENTIAL_EQUATIONS -->
<g id="node8" class="node"><title>VARIABLE_SEPARABLE_DIFFERENTIAL_EQUATIONS</title>
<a xlink:href="VARIABLE_SEPARABLE_DIFFERENTIAL_EQUATIONS.html" xlink:title="Variable separable differential equations" target="_top">
<polyline fill="none" stroke="black" points="516,-36 246,-36 "/>
<path fill="none" stroke="black" d="M246,-36C240,-36 234,-30 234,-24"/>
<polyline fill="none" stroke="black" points="234,-24 234,-12 "/>
<path fill="none" stroke="black" d="M234,-12C234,-6 240,-1.74736e-14 246,-1.71835e-14"/>
<polyline fill="none" stroke="black" points="246,-1.71835e-14 516,-4.13275e-15 "/>
<path fill="none" stroke="black" d="M516,-4.13275e-15C522,-3.84273e-15 528,-6 528,-12"/>
<polyline fill="none" stroke="black" points="528,-12 528,-24 "/>
<path fill="none" stroke="black" d="M528,-24C528,-30 522,-36 516,-36"/>
<text text-anchor="start" x="242" y="-15.2333" font-family="Times Roman,serif" font-size="14.00">Variable separable differential equations</text>
</a>
</g>
<!-- EXPONENTIAL_GROWTH_DECAY&#45;&gt;VARIABLE_SEPARABLE_DIFFERENTIAL_EQUATIONS -->
<g id="edge8" class="edge"><title>EXPONENTIAL_GROWTH_DECAY&#45;&gt;VARIABLE_SEPARABLE_DIFFERENTIAL_EQUATIONS</title>
<path fill="none" stroke="black" d="M278.571,-71.8314C296.419,-62.4516 318.377,-50.9112 337.38,-40.9244"/>
<polygon fill="black" stroke="black" points="339.216,-43.9132 346.44,-36.1628 335.96,-37.7168 339.216,-43.9132"/>
</g>
<!-- CONTINUOUS_TIME_MARKOV_CHAIN -->
<g id="node2" class="node"><title>CONTINUOUS_TIME_MARKOV_CHAIN</title>
<a xlink:href="CONTINUOUS_TIME_MARKOV_CHAIN.html" xlink:title="Markov chains in continuous time" target="_top">
<polyline fill="none" stroke="black" points="245,-252 21,-252 "/>
<path fill="none" stroke="black" d="M21,-252C15,-252 9,-246 9,-240"/>
<polyline fill="none" stroke="black" points="9,-240 9,-228 "/>
<path fill="none" stroke="black" d="M9,-228C9,-222 15,-216 21,-216"/>
<polyline fill="none" stroke="black" points="21,-216 245,-216 "/>
<path fill="none" stroke="black" d="M245,-216C251,-216 257,-222 257,-228"/>
<polyline fill="none" stroke="black" points="257,-228 257,-240 "/>
<path fill="none" stroke="black" d="M257,-240C257,-246 251,-252 245,-252"/>
<text text-anchor="start" x="17" y="-231.233" font-family="Times Roman,serif" font-size="14.00">Markov chains in continuous time</text>
</a>
</g>
<!-- CONTINUOUS_TIME_MARKOV_CHAIN&#45;&gt;EXPONENTIAL_GROWTH_DECAY -->
<g id="edge2" class="edge"><title>CONTINUOUS_TIME_MARKOV_CHAIN&#45;&gt;EXPONENTIAL_GROWTH_DECAY</title>
<path fill="none" stroke="black" d="M124.617,-215.864C117.018,-196.482 108.967,-165.629 123,-144 131.813,-130.416 144.928,-120.219 159.312,-112.574"/>
<polygon fill="black" stroke="black" points="160.954,-115.668 168.406,-108.137 157.884,-109.377 160.954,-115.668"/>
</g>
<!-- TAYLOR_SERIES -->
<g id="node10" class="node"><title>TAYLOR_SERIES</title>
<a xlink:href="TAYLOR_SERIES.html" xlink:title="One dimensional Taylor Series" target="_top">
<polyline fill="none" stroke="black" points="344,-180 144,-180 "/>
<path fill="none" stroke="black" d="M144,-180C138,-180 132,-174 132,-168"/>
<polyline fill="none" stroke="black" points="132,-168 132,-156 "/>
<path fill="none" stroke="black" d="M132,-156C132,-150 138,-144 144,-144"/>
<polyline fill="none" stroke="black" points="144,-144 344,-144 "/>
<path fill="none" stroke="black" d="M344,-144C350,-144 356,-150 356,-156"/>
<polyline fill="none" stroke="black" points="356,-156 356,-168 "/>
<path fill="none" stroke="black" d="M356,-168C356,-174 350,-180 344,-180"/>
<text text-anchor="start" x="140" y="-159.233" font-family="Times Roman,serif" font-size="14.00">One dimensional Taylor Series</text>
</a>
</g>
<!-- CONTINUOUS_TIME_MARKOV_CHAIN&#45;&gt;TAYLOR_SERIES -->
<!-- THE_EXPONENTIAL_FUNCTION -->
<g id="node4" class="node"><title>THE_EXPONENTIAL_FUNCTION</title>
<a xlink:href="THE_EXPONENTIAL_FUNCTION.html" xlink:title="Exponential function" target="_top">
<polyline fill="none" stroke="black" points="452,-252 316,-252 "/>
<path fill="none" stroke="black" d="M316,-252C310,-252 304,-246 304,-240"/>
<polyline fill="none" stroke="black" points="304,-240 304,-228 "/>
<path fill="none" stroke="black" d="M304,-228C304,-222 310,-216 316,-216"/>
<polyline fill="none" stroke="black" points="316,-216 452,-216 "/>
<path fill="none" stroke="black" d="M452,-216C458,-216 464,-222 464,-228"/>
<polyline fill="none" stroke="black" points="464,-228 464,-240 "/>
<path fill="none" stroke="black" d="M464,-240C464,-246 458,-252 452,-252"/>
<text text-anchor="start" x="312.5" y="-231.233" font-family="Times Roman,serif" font-size="14.00">Exponential function</text>
</a>
</g>
<!-- THE_EXPONENTIAL_FUNCTION&#45;&gt;EXPONENTIAL_GROWTH_DECAY -->
<g id="edge4" class="edge"><title>THE_EXPONENTIAL_FUNCTION&#45;&gt;EXPONENTIAL_GROWTH_DECAY</title>
<path fill="none" stroke="black" d="M384.782,-215.738C384.665,-195.959 381.559,-164.496 365,-144 354.003,-130.388 338.857,-120.098 323,-112.357"/>
<polygon fill="black" stroke="black" points="324.159,-109.039 313.607,-108.088 321.262,-115.412 324.159,-109.039"/>
</g>
<!-- TAYLOR_SERIES&#45;&gt;EXPONENTIAL_GROWTH_DECAY -->
<g id="edge10" class="edge"><title>TAYLOR_SERIES&#45;&gt;EXPONENTIAL_GROWTH_DECAY</title>
<path fill="none" stroke="black" d="M244,-143.831C244,-136.131 244,-126.974 244,-118.417"/>
<polygon fill="black" stroke="black" points="247.5,-118.413 244,-108.413 240.5,-118.413 247.5,-118.413"/>
</g>
</g>
</svg>
