<?xml version="1.0" encoding="UTF-8" standalone="no"?>
<!DOCTYPE svg PUBLIC "-//W3C//DTD SVG 1.1//EN"
 "http://www.w3.org/Graphics/SVG/1.1/DTD/svg11.dtd">
<!-- Generated by graphviz version 2.36.0 (20140111.2315)
 -->
<!-- Title: %3 Pages: 1 -->
<svg width="318pt" height="260pt"
 viewBox="0.00 0.00 318.00 260.00" xmlns="http://www.w3.org/2000/svg" xmlns:xlink="http://www.w3.org/1999/xlink">
<g id="graph0" class="graph" transform="scale(1 1) rotate(0) translate(4 256)">
<title>%3</title>
<!-- EXPONENTIAL_RANDOM_VARIABLE -->
<g id="node1" class="node"><title>EXPONENTIAL_RANDOM_VARIABLE</title>
<g id="a_node1"><a xlink:href="EXPONENTIAL_RANDOM_VARIABLE.html" xlink:title=" Exponential random variable " target="_top">
<path fill="none" stroke="blue" stroke-width="2" d="M217,-108C217,-108 59,-108 59,-108 53,-108 47,-102 47,-96 47,-96 47,-84 47,-84 47,-78 53,-72 59,-72 59,-72 217,-72 217,-72 223,-72 229,-78 229,-84 229,-84 229,-96 229,-96 229,-102 223,-108 217,-108"/>
<text text-anchor="start" x="55" y="-86.3" font-family="Times,serif" font-size="14.00"> Exponential random variable </text>
</a>
</g>
</g>
<!-- MM1_QUEUE -->
<g id="node3" class="node"><title>MM1_QUEUE</title>
<g id="a_node3"><a xlink:href="MM1_QUEUE.html" xlink:title=" The M/M/1 Queue &#160;" target="_top">
<path fill="none" stroke="black" d="M122.25,-36C122.25,-36 15.75,-36 15.75,-36 9.75,-36 3.75,-30 3.75,-24 3.75,-24 3.75,-12 3.75,-12 3.75,-6 9.75,-0 15.75,-0 15.75,-0 122.25,-0 122.25,-0 128.25,-0 134.25,-6 134.25,-12 134.25,-12 134.25,-24 134.25,-24 134.25,-30 128.25,-36 122.25,-36"/>
<text text-anchor="start" x="11.5" y="-14.3" font-family="Times,serif" font-size="14.00"> The M/M/1 Queue &#160;</text>
</a>
</g>
</g>
<!-- EXPONENTIAL_RANDOM_VARIABLE&#45;&gt;MM1_QUEUE -->
<g id="edge2" class="edge"><title>EXPONENTIAL_RANDOM_VARIABLE&#45;&gt;MM1_QUEUE</title>
<path fill="none" stroke="black" d="M120.944,-71.6966C112.505,-63.135 102.175,-52.6562 92.9573,-43.3045"/>
<polygon fill="black" stroke="black" points="95.3727,-40.7691 85.86,-36.1043 90.3874,-45.6831 95.3727,-40.7691"/>
</g>
<!-- POISSON_PROCESS -->
<g id="node5" class="node"><title>POISSON_PROCESS</title>
<g id="a_node5"><a xlink:href="POISSON_PROCESS.html" xlink:title=" Poisson Process " target="_top">
<path fill="none" stroke="black" d="M251.25,-36C251.25,-36 164.75,-36 164.75,-36 158.75,-36 152.75,-30 152.75,-24 152.75,-24 152.75,-12 152.75,-12 152.75,-6 158.75,-0 164.75,-0 164.75,-0 251.25,-0 251.25,-0 257.25,-0 263.25,-6 263.25,-12 263.25,-12 263.25,-24 263.25,-24 263.25,-30 257.25,-36 251.25,-36"/>
<text text-anchor="start" x="160.5" y="-14.3" font-family="Times,serif" font-size="14.00"> Poisson Process </text>
</a>
</g>
</g>
<!-- EXPONENTIAL_RANDOM_VARIABLE&#45;&gt;POISSON_PROCESS -->
<g id="edge4" class="edge"><title>EXPONENTIAL_RANDOM_VARIABLE&#45;&gt;POISSON_PROCESS</title>
<path fill="none" stroke="black" d="M155.303,-71.6966C163.865,-63.135 174.344,-52.6562 183.696,-43.3045"/>
<polygon fill="black" stroke="black" points="186.299,-45.6503 190.896,-36.1043 181.35,-40.7005 186.299,-45.6503"/>
</g>
<!-- INTEGRATION_BY_PARTS -->
<g id="node2" class="node"><title>INTEGRATION_BY_PARTS</title>
<g id="a_node2"><a xlink:href="INTEGRATION_BY_PARTS.html" xlink:title=" Integration by parts " target="_top">
<path fill="none" stroke="black" d="M118.25,-252C118.25,-252 11.75,-252 11.75,-252 5.75,-252 -0.25,-246 -0.25,-240 -0.25,-240 -0.25,-228 -0.25,-228 -0.25,-222 5.75,-216 11.75,-216 11.75,-216 118.25,-216 118.25,-216 124.25,-216 130.25,-222 130.25,-228 130.25,-228 130.25,-240 130.25,-240 130.25,-246 124.25,-252 118.25,-252"/>
<text text-anchor="start" x="7.5" y="-230.3" font-family="Times,serif" font-size="14.00"> Integration by parts </text>
</a>
</g>
</g>
<!-- INTEGRATION_BY_PARTS&#45;&gt;EXPONENTIAL_RANDOM_VARIABLE -->
<g id="edge1" class="edge"><title>INTEGRATION_BY_PARTS&#45;&gt;EXPONENTIAL_RANDOM_VARIABLE</title>
<path fill="none" stroke="black" d="M54.5593,-215.813C44.6186,-197.019 32.9547,-166.57 46,-144 53.5695,-130.904 65.7397,-120.757 78.7832,-113.016"/>
<polygon fill="black" stroke="black" points="80.8078,-115.898 87.9071,-108.033 77.4529,-109.754 80.8078,-115.898"/>
</g>
<!-- EXPONENTIAL_GROWTH_DECAY -->
<g id="node6" class="node"><title>EXPONENTIAL_GROWTH_DECAY</title>
<g id="a_node6"><a xlink:href="EXPONENTIAL_GROWTH_DECAY.html" xlink:title=" Exponential growth/decay " target="_top">
<path fill="none" stroke="black" d="M209.25,-180C209.25,-180 66.75,-180 66.75,-180 60.75,-180 54.75,-174 54.75,-168 54.75,-168 54.75,-156 54.75,-156 54.75,-150 60.75,-144 66.75,-144 66.75,-144 209.25,-144 209.25,-144 215.25,-144 221.25,-150 221.25,-156 221.25,-156 221.25,-168 221.25,-168 221.25,-174 215.25,-180 209.25,-180"/>
<text text-anchor="start" x="62.5" y="-158.3" font-family="Times,serif" font-size="14.00"> Exponential growth/decay </text>
</a>
</g>
</g>
<!-- INTEGRATION_BY_PARTS&#45;&gt;EXPONENTIAL_GROWTH_DECAY -->
<!-- RANDOM_VARIABLES -->
<g id="node4" class="node"><title>RANDOM_VARIABLES</title>
<g id="a_node4"><a xlink:href="RANDOM_VARIABLES.html" xlink:title=" Random variables " target="_top">
<path fill="none" stroke="black" d="M298.25,-252C298.25,-252 199.75,-252 199.75,-252 193.75,-252 187.75,-246 187.75,-240 187.75,-240 187.75,-228 187.75,-228 187.75,-222 193.75,-216 199.75,-216 199.75,-216 298.25,-216 298.25,-216 304.25,-216 310.25,-222 310.25,-228 310.25,-228 310.25,-240 310.25,-240 310.25,-246 304.25,-252 298.25,-252"/>
<text text-anchor="start" x="195.5" y="-230.3" font-family="Times,serif" font-size="14.00"> Random variables </text>
</a>
</g>
</g>
<!-- RANDOM_VARIABLES&#45;&gt;EXPONENTIAL_RANDOM_VARIABLE -->
<g id="edge3" class="edge"><title>RANDOM_VARIABLES&#45;&gt;EXPONENTIAL_RANDOM_VARIABLE</title>
<path fill="none" stroke="black" d="M249.338,-215.943C248.883,-196.706 245.528,-165.332 230,-144 220.656,-131.164 207.185,-120.966 193.422,-113.083"/>
<polygon fill="black" stroke="black" points="194.843,-109.874 184.376,-108.233 191.535,-116.043 194.843,-109.874"/>
</g>
<!-- EXPONENTIAL_GROWTH_DECAY&#45;&gt;EXPONENTIAL_RANDOM_VARIABLE -->
<g id="edge5" class="edge"><title>EXPONENTIAL_GROWTH_DECAY&#45;&gt;EXPONENTIAL_RANDOM_VARIABLE</title>
<path fill="none" stroke="black" d="M138,-143.697C138,-135.983 138,-126.712 138,-118.112"/>
<polygon fill="black" stroke="black" points="141.5,-118.104 138,-108.104 134.5,-118.104 141.5,-118.104"/>
</g>
</g>
</svg>
