<?xml version="1.0" encoding="UTF-8" standalone="no"?>
<!DOCTYPE svg PUBLIC "-//W3C//DTD SVG 1.1//EN"
 "http://www.w3.org/Graphics/SVG/1.1/DTD/svg11.dtd">
<!-- Generated by graphviz version 2.26.3 (20100126.1600)
 -->
<!-- Title: _anonymous_0 Pages: 1 -->
<svg width="536pt" height="260pt"
 viewBox="0.00 0.00 536.00 260.00" xmlns="http://www.w3.org/2000/svg" xmlns:xlink="http://www.w3.org/1999/xlink">
<g id="graph1" class="graph" transform="scale(1 1) rotate(0) translate(4 256)">
<title>_anonymous_0</title>
<!-- EXPONENTIAL_GROWTH_DECAY -->
<g id="node1" class="node"><title>EXPONENTIAL_GROWTH_DECAY</title>
<a xlink:href="EXPONENTIAL_GROWTH_DECAY.html" xlink:title="Exponential growth/decay" target="_top">
<polyline fill="none" stroke="blue" stroke-width="2" points="331,-108 157,-108 "/>
<path fill="none" stroke="blue" stroke-width="2" d="M157,-108C151,-108 145,-102 145,-96"/>
<polyline fill="none" stroke="blue" stroke-width="2" points="145,-96 145,-84 "/>
<path fill="none" stroke="blue" stroke-width="2" d="M145,-84C145,-78 151,-72 157,-72"/>
<polyline fill="none" stroke="blue" stroke-width="2" points="157,-72 331,-72 "/>
<path fill="none" stroke="blue" stroke-width="2" d="M331,-72C337,-72 343,-78 343,-84"/>
<polyline fill="none" stroke="blue" stroke-width="2" points="343,-84 343,-96 "/>
<path fill="none" stroke="blue" stroke-width="2" d="M343,-96C343,-102 337,-108 331,-108"/>
<text text-anchor="start" x="153.5" y="-87.2333" font-family="Times Roman,serif" font-size="14.00">Exponential growth/decay</text>
</a>
</g>
<!-- EXPONENTIAL_RANDOM_VARIABLE -->
<g id="node4" class="node"><title>EXPONENTIAL_RANDOM_VARIABLE</title>
<a xlink:href="EXPONENTIAL_RANDOM_VARIABLE.html" xlink:title="Exponential random variable" target="_top">
<polyline fill="none" stroke="black" points="204,-36 12,-36 "/>
<path fill="none" stroke="black" d="M12,-36C6,-36 7.10543e-14,-30 5.68434e-14,-24"/>
<polyline fill="none" stroke="black" points="5.68434e-14,-24 2.84217e-14,-12 "/>
<path fill="none" stroke="black" d="M2.84217e-14,-12C1.42109e-14,-6 6,-1.73688e-14 12,-1.69741e-14"/>
<polyline fill="none" stroke="black" points="12,-1.69741e-14 204,-4.34221e-15 "/>
<path fill="none" stroke="black" d="M204,-4.34221e-15C210,-3.94746e-15 216,-6 216,-12"/>
<polyline fill="none" stroke="black" points="216,-12 216,-24 "/>
<path fill="none" stroke="black" d="M216,-24C216,-30 210,-36 204,-36"/>
<text text-anchor="start" x="8.5" y="-15.2333" font-family="Times Roman,serif" font-size="14.00">Exponential random variable</text>
</a>
</g>
<!-- EXPONENTIAL_GROWTH_DECAY&#45;&gt;EXPONENTIAL_RANDOM_VARIABLE -->
<g id="edge4" class="edge"><title>EXPONENTIAL_GROWTH_DECAY&#45;&gt;EXPONENTIAL_RANDOM_VARIABLE</title>
<path fill="none" stroke="black" d="M209.681,-71.8314C191.964,-62.4516 170.166,-50.9112 151.302,-40.9244"/>
<polygon fill="black" stroke="black" points="152.783,-37.7485 142.308,-36.1628 149.508,-43.935 152.783,-37.7485"/>
</g>
<!-- VARIABLE_SEPARABLE_DIFFERENTIAL_EQUATIONS -->
<g id="node6" class="node"><title>VARIABLE_SEPARABLE_DIFFERENTIAL_EQUATIONS</title>
<a xlink:href="VARIABLE_SEPARABLE_DIFFERENTIAL_EQUATIONS.html" xlink:title="Variable separable differential equations" target="_top">
<polyline fill="none" stroke="black" points="516,-36 246,-36 "/>
<path fill="none" stroke="black" d="M246,-36C240,-36 234,-30 234,-24"/>
<polyline fill="none" stroke="black" points="234,-24 234,-12 "/>
<path fill="none" stroke="black" d="M234,-12C234,-6 240,-1.74736e-14 246,-1.71835e-14"/>
<polyline fill="none" stroke="black" points="246,-1.71835e-14 516,-4.13275e-15 "/>
<path fill="none" stroke="black" d="M516,-4.13275e-15C522,-3.84273e-15 528,-6 528,-12"/>
<polyline fill="none" stroke="black" points="528,-12 528,-24 "/>
<path fill="none" stroke="black" d="M528,-24C528,-30 522,-36 516,-36"/>
<text text-anchor="start" x="242" y="-15.2333" font-family="Times Roman,serif" font-size="14.00">Variable separable differential equations</text>
</a>
</g>
<!-- EXPONENTIAL_GROWTH_DECAY&#45;&gt;VARIABLE_SEPARABLE_DIFFERENTIAL_EQUATIONS -->
<g id="edge6" class="edge"><title>EXPONENTIAL_GROWTH_DECAY&#45;&gt;VARIABLE_SEPARABLE_DIFFERENTIAL_EQUATIONS</title>
<path fill="none" stroke="black" d="M278.571,-71.8314C296.419,-62.4516 318.377,-50.9112 337.38,-40.9244"/>
<polygon fill="black" stroke="black" points="339.216,-43.9132 346.44,-36.1628 335.96,-37.7168 339.216,-43.9132"/>
</g>
<!-- CONTINUOUS_TIME_MARKOV_CHAIN -->
<g id="node2" class="node"><title>CONTINUOUS_TIME_MARKOV_CHAIN</title>
<a xlink:href="CONTINUOUS_TIME_MARKOV_CHAIN.html" xlink:title="Markov chains in continuous time" target="_top">
<polyline fill="none" stroke="black" points="248,-252 24,-252 "/>
<path fill="none" stroke="black" d="M24,-252C18,-252 12,-246 12,-240"/>
<polyline fill="none" stroke="black" points="12,-240 12,-228 "/>
<path fill="none" stroke="black" d="M12,-228C12,-222 18,-216 24,-216"/>
<polyline fill="none" stroke="black" points="24,-216 248,-216 "/>
<path fill="none" stroke="black" d="M248,-216C254,-216 260,-222 260,-228"/>
<polyline fill="none" stroke="black" points="260,-228 260,-240 "/>
<path fill="none" stroke="black" d="M260,-240C260,-246 254,-252 248,-252"/>
<text text-anchor="start" x="20" y="-231.233" font-family="Times Roman,serif" font-size="14.00">Markov chains in continuous time</text>
</a>
</g>
<!-- CONTINUOUS_TIME_MARKOV_CHAIN&#45;&gt;EXPONENTIAL_GROWTH_DECAY -->
<g id="edge2" class="edge"><title>CONTINUOUS_TIME_MARKOV_CHAIN&#45;&gt;EXPONENTIAL_GROWTH_DECAY</title>
<path fill="none" stroke="black" d="M135.729,-215.762C136.315,-196.292 139.852,-165.365 155,-144 164.004,-131.301 177.024,-121.035 190.338,-113.001"/>
<polygon fill="black" stroke="black" points="192.116,-116.016 199.091,-108.041 188.665,-109.926 192.116,-116.016"/>
</g>
<!-- THE_EXPONENTIAL_FUNCTION -->
<g id="node10" class="node"><title>THE_EXPONENTIAL_FUNCTION</title>
<a xlink:href="THE_EXPONENTIAL_FUNCTION.html" xlink:title="Exponential function" target="_top">
<polyline fill="none" stroke="black" points="312,-180 176,-180 "/>
<path fill="none" stroke="black" d="M176,-180C170,-180 164,-174 164,-168"/>
<polyline fill="none" stroke="black" points="164,-168 164,-156 "/>
<path fill="none" stroke="black" d="M164,-156C164,-150 170,-144 176,-144"/>
<polyline fill="none" stroke="black" points="176,-144 312,-144 "/>
<path fill="none" stroke="black" d="M312,-144C318,-144 324,-150 324,-156"/>
<polyline fill="none" stroke="black" points="324,-156 324,-168 "/>
<path fill="none" stroke="black" d="M324,-168C324,-174 318,-180 312,-180"/>
<text text-anchor="start" x="172.5" y="-159.233" font-family="Times Roman,serif" font-size="14.00">Exponential function</text>
</a>
</g>
<!-- CONTINUOUS_TIME_MARKOV_CHAIN&#45;&gt;THE_EXPONENTIAL_FUNCTION -->
<!-- TAYLOR_SERIES -->
<g id="node8" class="node"><title>TAYLOR_SERIES</title>
<a xlink:href="TAYLOR_SERIES.html" xlink:title="One dimensional Taylor Series" target="_top">
<polyline fill="none" stroke="black" points="490,-252 290,-252 "/>
<path fill="none" stroke="black" d="M290,-252C284,-252 278,-246 278,-240"/>
<polyline fill="none" stroke="black" points="278,-240 278,-228 "/>
<path fill="none" stroke="black" d="M278,-228C278,-222 284,-216 290,-216"/>
<polyline fill="none" stroke="black" points="290,-216 490,-216 "/>
<path fill="none" stroke="black" d="M490,-216C496,-216 502,-222 502,-228"/>
<polyline fill="none" stroke="black" points="502,-228 502,-240 "/>
<path fill="none" stroke="black" d="M502,-240C502,-246 496,-252 490,-252"/>
<text text-anchor="start" x="286" y="-231.233" font-family="Times Roman,serif" font-size="14.00">One dimensional Taylor Series</text>
</a>
</g>
<!-- TAYLOR_SERIES&#45;&gt;EXPONENTIAL_GROWTH_DECAY -->
<g id="edge8" class="edge"><title>TAYLOR_SERIES&#45;&gt;EXPONENTIAL_GROWTH_DECAY</title>
<path fill="none" stroke="black" d="M381.596,-215.714C371.956,-196.203 354.653,-165.241 333,-144 320.82,-132.052 305.52,-121.572 291.057,-113.103"/>
<polygon fill="black" stroke="black" points="292.624,-109.968 282.196,-108.094 289.179,-116.062 292.624,-109.968"/>
</g>
<!-- THE_EXPONENTIAL_FUNCTION&#45;&gt;EXPONENTIAL_GROWTH_DECAY -->
<g id="edge10" class="edge"><title>THE_EXPONENTIAL_FUNCTION&#45;&gt;EXPONENTIAL_GROWTH_DECAY</title>
<path fill="none" stroke="black" d="M244,-143.831C244,-136.131 244,-126.974 244,-118.417"/>
<polygon fill="black" stroke="black" points="247.5,-118.413 244,-108.413 240.5,-118.413 247.5,-118.413"/>
</g>
</g>
</svg>
