<?xml version="1.0" encoding="UTF-8" standalone="no"?>
<!DOCTYPE svg PUBLIC "-//W3C//DTD SVG 1.1//EN"
 "http://www.w3.org/Graphics/SVG/1.1/DTD/svg11.dtd">
<!-- Generated by graphviz version 2.28.0 (20110509.1545)
 -->
<!-- Title: _anonymous_0 Pages: 1 -->
<svg width="271pt" height="188pt"
 viewBox="0.00 0.00 271.00 188.00" xmlns="http://www.w3.org/2000/svg" xmlns:xlink="http://www.w3.org/1999/xlink">
<g id="graph1" class="graph" transform="scale(1 1) rotate(0) translate(4 184)">
<title>_anonymous_0</title>
<!-- EXPONENTIAL_RANDOM_VARIABLE -->
<g id="node1" class="node"><title>EXPONENTIAL_RANDOM_VARIABLE</title>
<a xlink:href="EXPONENTIAL_RANDOM_VARIABLE.html" xlink:title="Exponential random variable" target="_top">
<polyline fill="none" stroke="blue" stroke-width="2" points="171.25,-36 16.75,-36 "/>
<path fill="none" stroke="blue" stroke-width="2" d="M16.75,-36C10.75,-36 4.75,-30 4.75,-24"/>
<polyline fill="none" stroke="blue" stroke-width="2" points="4.75,-24 4.75,-12 "/>
<path fill="none" stroke="blue" stroke-width="2" d="M4.75,-12C4.75,-6 10.75,-0 16.75,-0"/>
<polyline fill="none" stroke="blue" stroke-width="2" points="16.75,-0 171.25,-0 "/>
<path fill="none" stroke="blue" stroke-width="2" d="M171.25,-0C177.25,-0 183.25,-6 183.25,-12"/>
<polyline fill="none" stroke="blue" stroke-width="2" points="183.25,-12 183.25,-24 "/>
<path fill="none" stroke="blue" stroke-width="2" d="M183.25,-24C183.25,-30 177.25,-36 171.25,-36"/>
<text text-anchor="start" x="13" y="-12.5" font-family="Times,serif" font-size="14.00">Exponential random variable</text>
</a>
</g>
<!-- CONTINUOUS_TIME_MARKOV_CHAIN -->
<g id="node2" class="node"><title>CONTINUOUS_TIME_MARKOV_CHAIN</title>
<a xlink:href="CONTINUOUS_TIME_MARKOV_CHAIN.html" xlink:title="TITLE:" target="_top">
<polyline fill="none" stroke="black" points="46.25,-180 11.75,-180 "/>
<path fill="none" stroke="black" d="M11.75,-180C5.75,-180 -0.25,-174 -0.25,-168"/>
<polyline fill="none" stroke="black" points="-0.25,-168 -0.25,-156 "/>
<path fill="none" stroke="black" d="M-0.25,-156C-0.25,-150 5.75,-144 11.75,-144"/>
<polyline fill="none" stroke="black" points="11.75,-144 46.25,-144 "/>
<path fill="none" stroke="black" d="M46.25,-144C52.25,-144 58.25,-150 58.25,-156"/>
<polyline fill="none" stroke="black" points="58.25,-156 58.25,-168 "/>
<path fill="none" stroke="black" d="M58.25,-168C58.25,-174 52.25,-180 46.25,-180"/>
<text text-anchor="start" x="8" y="-156.5" font-family="Times,serif" font-size="14.00">TITLE:</text>
</a>
</g>
<!-- CONTINUOUS_TIME_MARKOV_CHAIN&#45;&gt;EXPONENTIAL_RANDOM_VARIABLE -->
<g id="edge2" class="edge"><title>CONTINUOUS_TIME_MARKOV_CHAIN&#45;&gt;EXPONENTIAL_RANDOM_VARIABLE</title>
<path fill="none" stroke="black" d="M23.8882,-143.946C19.2867,-125.268 14.8041,-94.9211 26,-72 31.8056,-60.1143 41.7067,-50.1186 52.1836,-42.1245"/>
<polygon fill="black" stroke="black" points="54.4971,-44.7754 60.6422,-36.1447 50.4562,-39.0595 54.4971,-44.7754"/>
</g>
<!-- RANDOM_VARIABLES -->
<g id="node6" class="node"><title>RANDOM_VARIABLES</title>
<a xlink:href="RANDOM_VARIABLES.html" xlink:title="Random variables" target="_top">
<polyline fill="none" stroke="black" points="141,-108 47,-108 "/>
<path fill="none" stroke="black" d="M47,-108C41,-108 35,-102 35,-96"/>
<polyline fill="none" stroke="black" points="35,-96 35,-84 "/>
<path fill="none" stroke="black" d="M35,-84C35,-78 41,-72 47,-72"/>
<polyline fill="none" stroke="black" points="47,-72 141,-72 "/>
<path fill="none" stroke="black" d="M141,-72C147,-72 153,-78 153,-84"/>
<polyline fill="none" stroke="black" points="153,-84 153,-96 "/>
<path fill="none" stroke="black" d="M153,-96C153,-102 147,-108 141,-108"/>
<text text-anchor="start" x="43.5" y="-84.5" font-family="Times,serif" font-size="14.00">Random variables</text>
</a>
</g>
<!-- CONTINUOUS_TIME_MARKOV_CHAIN&#45;&gt;RANDOM_VARIABLES -->
<!-- EXPONENTIAL_GROWTH_DECAY -->
<g id="node4" class="node"><title>EXPONENTIAL_GROWTH_DECAY</title>
<a xlink:href="EXPONENTIAL_GROWTH_DECAY.html" xlink:title="Exponential growth/decay" target="_top">
<polyline fill="none" stroke="black" points="251,-180 111,-180 "/>
<path fill="none" stroke="black" d="M111,-180C105,-180 99,-174 99,-168"/>
<polyline fill="none" stroke="black" points="99,-168 99,-156 "/>
<path fill="none" stroke="black" d="M99,-156C99,-150 105,-144 111,-144"/>
<polyline fill="none" stroke="black" points="111,-144 251,-144 "/>
<path fill="none" stroke="black" d="M251,-144C257,-144 263,-150 263,-156"/>
<polyline fill="none" stroke="black" points="263,-156 263,-168 "/>
<path fill="none" stroke="black" d="M263,-168C263,-174 257,-180 251,-180"/>
<text text-anchor="start" x="107.5" y="-156.5" font-family="Times,serif" font-size="14.00">Exponential growth/decay</text>
</a>
</g>
<!-- EXPONENTIAL_GROWTH_DECAY&#45;&gt;EXPONENTIAL_RANDOM_VARIABLE -->
<g id="edge4" class="edge"><title>EXPONENTIAL_GROWTH_DECAY&#45;&gt;EXPONENTIAL_RANDOM_VARIABLE</title>
<path fill="none" stroke="black" d="M180.768,-143.976C179.777,-125.051 175.921,-94.2277 162,-72 154.656,-60.274 143.75,-50.1059 132.811,-41.8995"/>
<polygon fill="black" stroke="black" points="134.682,-38.9359 124.499,-36.0131 130.637,-44.6486 134.682,-38.9359"/>
</g>
<!-- RANDOM_VARIABLES&#45;&gt;EXPONENTIAL_RANDOM_VARIABLE -->
<g id="edge6" class="edge"><title>RANDOM_VARIABLES&#45;&gt;EXPONENTIAL_RANDOM_VARIABLE</title>
<path fill="none" stroke="black" d="M94,-71.6966C94,-63.9827 94,-54.7125 94,-46.1124"/>
<polygon fill="black" stroke="black" points="97.5001,-46.1043 94,-36.1043 90.5001,-46.1044 97.5001,-46.1043"/>
</g>
</g>
</svg>
