<?xml version="1.0" encoding="UTF-8" standalone="no"?>
<!DOCTYPE svg PUBLIC "-//W3C//DTD SVG 1.1//EN"
 "http://www.w3.org/Graphics/SVG/1.1/DTD/svg11.dtd">
<!-- Generated by graphviz version 2.26.3 (20100126.1600)
 -->
<!-- Title: _anonymous_0 Pages: 1 -->
<svg width="554pt" height="260pt"
 viewBox="0.00 0.00 554.00 260.00" xmlns="http://www.w3.org/2000/svg" xmlns:xlink="http://www.w3.org/1999/xlink">
<g id="graph1" class="graph" transform="scale(1 1) rotate(0) translate(4 256)">
<title>_anonymous_0</title>
<!-- EXPONENTIAL_GROWTH_DECAY -->
<g id="node1" class="node"><title>EXPONENTIAL_GROWTH_DECAY</title>
<a xlink:href="EXPONENTIAL_GROWTH_DECAY.html" xlink:title=" Exponential growth/decay " target="_top">
<polyline fill="none" stroke="blue" stroke-width="2" points="344,-108 162,-108 "/>
<path fill="none" stroke="blue" stroke-width="2" d="M162,-108C156,-108 150,-102 150,-96"/>
<polyline fill="none" stroke="blue" stroke-width="2" points="150,-96 150,-84 "/>
<path fill="none" stroke="blue" stroke-width="2" d="M150,-84C150,-78 156,-72 162,-72"/>
<polyline fill="none" stroke="blue" stroke-width="2" points="162,-72 344,-72 "/>
<path fill="none" stroke="blue" stroke-width="2" d="M344,-72C350,-72 356,-78 356,-84"/>
<polyline fill="none" stroke="blue" stroke-width="2" points="356,-84 356,-96 "/>
<path fill="none" stroke="blue" stroke-width="2" d="M356,-96C356,-102 350,-108 344,-108"/>
<text text-anchor="start" x="158" y="-87.2333" font-family="Times Roman,serif" font-size="14.00"> Exponential growth/decay </text>
</a>
</g>
<!-- EXPONENTIAL_RANDOM_VARIABLE -->
<g id="node4" class="node"><title>EXPONENTIAL_RANDOM_VARIABLE</title>
<a xlink:href="EXPONENTIAL_RANDOM_VARIABLE.html" xlink:title=" Exponential random variable " target="_top">
<polyline fill="none" stroke="black" points="212,-36 12,-36 "/>
<path fill="none" stroke="black" d="M12,-36C6,-36 8.28967e-14,-30 6.63173e-14,-24"/>
<polyline fill="none" stroke="black" points="6.63173e-14,-24 3.31587e-14,-12 "/>
<path fill="none" stroke="black" d="M3.31587e-14,-12C1.65793e-14,-6 6,-1.73829e-14 12,-1.70023e-14"/>
<polyline fill="none" stroke="black" points="12,-1.70023e-14 212,-4.31401e-15 "/>
<path fill="none" stroke="black" d="M212,-4.31401e-15C218,-3.93336e-15 224,-6 224,-12"/>
<polyline fill="none" stroke="black" points="224,-12 224,-24 "/>
<path fill="none" stroke="black" d="M224,-24C224,-30 218,-36 212,-36"/>
<text text-anchor="start" x="8" y="-15.2333" font-family="Times Roman,serif" font-size="14.00"> Exponential random variable </text>
</a>
</g>
<!-- EXPONENTIAL_GROWTH_DECAY&#45;&gt;EXPONENTIAL_RANDOM_VARIABLE -->
<g id="edge4" class="edge"><title>EXPONENTIAL_GROWTH_DECAY&#45;&gt;EXPONENTIAL_RANDOM_VARIABLE</title>
<path fill="none" stroke="black" d="M217.42,-71.8314C198.968,-62.4089 176.245,-50.8062 156.627,-40.7883"/>
<polygon fill="black" stroke="black" points="158.067,-37.5935 147.569,-36.1628 154.883,-43.8278 158.067,-37.5935"/>
</g>
<!-- VARIABLE_SEPARABLE_DIFFERENTIAL_EQUATIONS -->
<g id="node6" class="node"><title>VARIABLE_SEPARABLE_DIFFERENTIAL_EQUATIONS</title>
<a xlink:href="VARIABLE_SEPARABLE_DIFFERENTIAL_EQUATIONS.html" xlink:title=" Variable separable differential equations " target="_top">
<polyline fill="none" stroke="black" points="534,-36 254,-36 "/>
<path fill="none" stroke="black" d="M254,-36C248,-36 242,-30 242,-24"/>
<polyline fill="none" stroke="black" points="242,-24 242,-12 "/>
<path fill="none" stroke="black" d="M242,-12C242,-6 248,-1.74831e-14 254,-1.72026e-14"/>
<polyline fill="none" stroke="black" points="254,-1.72026e-14 534,-4.11367e-15 "/>
<path fill="none" stroke="black" d="M534,-4.11367e-15C540,-3.83319e-15 546,-6 546,-12"/>
<polyline fill="none" stroke="black" points="546,-12 546,-24 "/>
<path fill="none" stroke="black" d="M546,-24C546,-30 540,-36 534,-36"/>
<text text-anchor="start" x="250.5" y="-15.2333" font-family="Times Roman,serif" font-size="14.00"> Variable separable differential equations </text>
</a>
</g>
<!-- EXPONENTIAL_GROWTH_DECAY&#45;&gt;VARIABLE_SEPARABLE_DIFFERENTIAL_EQUATIONS -->
<g id="edge6" class="edge"><title>EXPONENTIAL_GROWTH_DECAY&#45;&gt;VARIABLE_SEPARABLE_DIFFERENTIAL_EQUATIONS</title>
<path fill="none" stroke="black" d="M288.58,-71.8314C307.032,-62.4089 329.755,-50.8062 349.373,-40.7883"/>
<polygon fill="black" stroke="black" points="351.117,-43.8278 358.431,-36.1628 347.933,-37.5935 351.117,-43.8278"/>
</g>
<!-- TAYLOR_SERIES -->
<g id="node2" class="node"><title>TAYLOR_SERIES</title>
<a xlink:href="TAYLOR_SERIES.html" xlink:title=" One dimensional Taylor Series " target="_top">
<polyline fill="none" stroke="black" points="246,-252 36,-252 "/>
<path fill="none" stroke="black" d="M36,-252C30,-252 24,-246 24,-240"/>
<polyline fill="none" stroke="black" points="24,-240 24,-228 "/>
<path fill="none" stroke="black" d="M24,-228C24,-222 30,-216 36,-216"/>
<polyline fill="none" stroke="black" points="36,-216 246,-216 "/>
<path fill="none" stroke="black" d="M246,-216C252,-216 258,-222 258,-228"/>
<polyline fill="none" stroke="black" points="258,-228 258,-240 "/>
<path fill="none" stroke="black" d="M258,-240C258,-246 252,-252 246,-252"/>
<text text-anchor="start" x="32.5" y="-231.233" font-family="Times Roman,serif" font-size="14.00"> One dimensional Taylor Series </text>
</a>
</g>
<!-- TAYLOR_SERIES&#45;&gt;EXPONENTIAL_GROWTH_DECAY -->
<g id="edge2" class="edge"><title>TAYLOR_SERIES&#45;&gt;EXPONENTIAL_GROWTH_DECAY</title>
<path fill="none" stroke="black" d="M140.649,-215.705C141.167,-196.186 144.647,-165.218 160,-144 169.248,-131.22 182.522,-120.994 196.157,-113.028"/>
<polygon fill="black" stroke="black" points="198.04,-115.987 205.13,-108.115 194.678,-109.847 198.04,-115.987"/>
</g>
<!-- THE_EXPONENTIAL_FUNCTION -->
<g id="node10" class="node"><title>THE_EXPONENTIAL_FUNCTION</title>
<a xlink:href="THE_EXPONENTIAL_FUNCTION.html" xlink:title=" Exponential function " target="_top">
<polyline fill="none" stroke="black" points="325,-180 181,-180 "/>
<path fill="none" stroke="black" d="M181,-180C175,-180 169,-174 169,-168"/>
<polyline fill="none" stroke="black" points="169,-168 169,-156 "/>
<path fill="none" stroke="black" d="M169,-156C169,-150 175,-144 181,-144"/>
<polyline fill="none" stroke="black" points="181,-144 325,-144 "/>
<path fill="none" stroke="black" d="M325,-144C331,-144 337,-150 337,-156"/>
<polyline fill="none" stroke="black" points="337,-156 337,-168 "/>
<path fill="none" stroke="black" d="M337,-168C337,-174 331,-180 325,-180"/>
<text text-anchor="start" x="177" y="-159.233" font-family="Times Roman,serif" font-size="14.00"> Exponential function </text>
</a>
</g>
<!-- TAYLOR_SERIES&#45;&gt;THE_EXPONENTIAL_FUNCTION -->
<!-- CONTINUOUS_TIME_MARKOV_CHAIN -->
<g id="node8" class="node"><title>CONTINUOUS_TIME_MARKOV_CHAIN</title>
<a xlink:href="CONTINUOUS_TIME_MARKOV_CHAIN.html" xlink:title=" Markov chains in continuous time " target="_top">
<polyline fill="none" stroke="black" points="522,-252 288,-252 "/>
<path fill="none" stroke="black" d="M288,-252C282,-252 276,-246 276,-240"/>
<polyline fill="none" stroke="black" points="276,-240 276,-228 "/>
<path fill="none" stroke="black" d="M276,-228C276,-222 282,-216 288,-216"/>
<polyline fill="none" stroke="black" points="288,-216 522,-216 "/>
<path fill="none" stroke="black" d="M522,-216C528,-216 534,-222 534,-228"/>
<polyline fill="none" stroke="black" points="534,-228 534,-240 "/>
<path fill="none" stroke="black" d="M534,-240C534,-246 528,-252 522,-252"/>
<text text-anchor="start" x="284.5" y="-231.233" font-family="Times Roman,serif" font-size="14.00"> Markov chains in continuous time </text>
</a>
</g>
<!-- CONTINUOUS_TIME_MARKOV_CHAIN&#45;&gt;EXPONENTIAL_GROWTH_DECAY -->
<g id="edge8" class="edge"><title>CONTINUOUS_TIME_MARKOV_CHAIN&#45;&gt;EXPONENTIAL_GROWTH_DECAY</title>
<path fill="none" stroke="black" d="M396.236,-215.648C386.202,-196.081 368.245,-165.071 346,-144 333.316,-131.985 317.478,-121.539 302.487,-113.12"/>
<polygon fill="black" stroke="black" points="303.759,-109.828 293.299,-108.143 300.425,-115.983 303.759,-109.828"/>
</g>
<!-- THE_EXPONENTIAL_FUNCTION&#45;&gt;EXPONENTIAL_GROWTH_DECAY -->
<g id="edge10" class="edge"><title>THE_EXPONENTIAL_FUNCTION&#45;&gt;EXPONENTIAL_GROWTH_DECAY</title>
<path fill="none" stroke="black" d="M253,-143.831C253,-136.131 253,-126.974 253,-118.417"/>
<polygon fill="black" stroke="black" points="256.5,-118.413 253,-108.413 249.5,-118.413 256.5,-118.413"/>
</g>
</g>
</svg>
