<?xml version="1.0" encoding="UTF-8" standalone="no"?>
<!DOCTYPE svg PUBLIC "-//W3C//DTD SVG 1.1//EN"
 "http://www.w3.org/Graphics/SVG/1.1/DTD/svg11.dtd">
<!-- Generated by graphviz version 2.28.0 (20110509.1545)
 -->
<!-- Title: _anonymous_0 Pages: 1 -->
<svg width="473pt" height="188pt"
 viewBox="0.00 0.00 473.00 188.00" xmlns="http://www.w3.org/2000/svg" xmlns:xlink="http://www.w3.org/1999/xlink">
<g id="graph1" class="graph" transform="scale(1 1) rotate(0) translate(4 184)">
<title>_anonymous_0</title>
<!-- EXPONENTIAL_GROWTH_DECAY -->
<g id="node1" class="node"><title>EXPONENTIAL_GROWTH_DECAY</title>
<a xlink:href="EXPONENTIAL_GROWTH_DECAY.html" xlink:title="Exponential growth/decay" target="_top">
<polyline fill="none" stroke="blue" stroke-width="2" points="280,-108 140,-108 "/>
<path fill="none" stroke="blue" stroke-width="2" d="M140,-108C134,-108 128,-102 128,-96"/>
<polyline fill="none" stroke="blue" stroke-width="2" points="128,-96 128,-84 "/>
<path fill="none" stroke="blue" stroke-width="2" d="M128,-84C128,-78 134,-72 140,-72"/>
<polyline fill="none" stroke="blue" stroke-width="2" points="140,-72 280,-72 "/>
<path fill="none" stroke="blue" stroke-width="2" d="M280,-72C286,-72 292,-78 292,-84"/>
<polyline fill="none" stroke="blue" stroke-width="2" points="292,-84 292,-96 "/>
<path fill="none" stroke="blue" stroke-width="2" d="M292,-96C292,-102 286,-108 280,-108"/>
<text text-anchor="start" x="136.5" y="-84.5" font-family="Times,serif" font-size="14.00">Exponential growth/decay</text>
</a>
</g>
<!-- EXPONENTIAL_RANDOM_VARIABLE -->
<g id="node2" class="node"><title>EXPONENTIAL_RANDOM_VARIABLE</title>
<a xlink:href="EXPONENTIAL_RANDOM_VARIABLE.html" xlink:title="Exponential random variable" target="_top">
<polyline fill="none" stroke="black" points="166.25,-36 11.75,-36 "/>
<path fill="none" stroke="black" d="M11.75,-36C5.75,-36 -0.25,-30 -0.25,-24"/>
<polyline fill="none" stroke="black" points="-0.25,-24 -0.25,-12 "/>
<path fill="none" stroke="black" d="M-0.25,-12C-0.25,-6 5.75,-0 11.75,-0"/>
<polyline fill="none" stroke="black" points="11.75,-0 166.25,-0 "/>
<path fill="none" stroke="black" d="M166.25,-0C172.25,-0 178.25,-6 178.25,-12"/>
<polyline fill="none" stroke="black" points="178.25,-12 178.25,-24 "/>
<path fill="none" stroke="black" d="M178.25,-24C178.25,-30 172.25,-36 166.25,-36"/>
<text text-anchor="start" x="8" y="-12.5" font-family="Times,serif" font-size="14.00">Exponential random variable</text>
</a>
</g>
<!-- EXPONENTIAL_GROWTH_DECAY&#45;&gt;EXPONENTIAL_RANDOM_VARIABLE -->
<g id="edge2" class="edge"><title>EXPONENTIAL_GROWTH_DECAY&#45;&gt;EXPONENTIAL_RANDOM_VARIABLE</title>
<path fill="none" stroke="black" d="M180.4,-71.8761C164.433,-62.6388 144.54,-51.1308 127.394,-41.2116"/>
<polygon fill="black" stroke="black" points="129.122,-38.1678 118.714,-36.1898 125.617,-44.2269 129.122,-38.1678"/>
</g>
<!-- SOVING_DIFFERENTIAL_EQUATIONS_USING_INTEGRATING_FACTORS -->
<g id="node4" class="node"><title>SOVING_DIFFERENTIAL_EQUATIONS_USING_INTEGRATING_FACTORS</title>
<a xlink:href="SOVING_DIFFERENTIAL_EQUATIONS_USING_INTEGRATING_FACTORS.html" xlink:title="Differential equations and integrating factors" target="_top">
<polyline fill="none" stroke="black" points="453,-36 209,-36 "/>
<path fill="none" stroke="black" d="M209,-36C203,-36 197,-30 197,-24"/>
<polyline fill="none" stroke="black" points="197,-24 197,-12 "/>
<path fill="none" stroke="black" d="M197,-12C197,-6 203,-0 209,-0"/>
<polyline fill="none" stroke="black" points="209,-0 453,-0 "/>
<path fill="none" stroke="black" d="M453,-0C459,-0 465,-6 465,-12"/>
<polyline fill="none" stroke="black" points="465,-12 465,-24 "/>
<path fill="none" stroke="black" d="M465,-24C465,-30 459,-36 453,-36"/>
<text text-anchor="start" x="205.5" y="-12.5" font-family="Times,serif" font-size="14.00">Differential equations and integrating factors</text>
</a>
</g>
<!-- EXPONENTIAL_GROWTH_DECAY&#45;&gt;SOVING_DIFFERENTIAL_EQUATIONS_USING_INTEGRATING_FACTORS -->
<g id="edge4" class="edge"><title>EXPONENTIAL_GROWTH_DECAY&#45;&gt;SOVING_DIFFERENTIAL_EQUATIONS_USING_INTEGRATING_FACTORS</title>
<path fill="none" stroke="black" d="M239.6,-71.8761C255.567,-62.6388 275.46,-51.1308 292.606,-41.2116"/>
<polygon fill="black" stroke="black" points="294.383,-44.2269 301.286,-36.1898 290.878,-38.1678 294.383,-44.2269"/>
</g>
<!-- TAYLOR_SERIES -->
<g id="node6" class="node"><title>TAYLOR_SERIES</title>
<a xlink:href="TAYLOR_SERIES.html" xlink:title="One dimensional Taylor Series" target="_top">
<polyline fill="none" stroke="black" points="202.25,-180 37.75,-180 "/>
<path fill="none" stroke="black" d="M37.75,-180C31.75,-180 25.75,-174 25.75,-168"/>
<polyline fill="none" stroke="black" points="25.75,-168 25.75,-156 "/>
<path fill="none" stroke="black" d="M25.75,-156C25.75,-150 31.75,-144 37.75,-144"/>
<polyline fill="none" stroke="black" points="37.75,-144 202.25,-144 "/>
<path fill="none" stroke="black" d="M202.25,-144C208.25,-144 214.25,-150 214.25,-156"/>
<polyline fill="none" stroke="black" points="214.25,-156 214.25,-168 "/>
<path fill="none" stroke="black" d="M214.25,-168C214.25,-174 208.25,-180 202.25,-180"/>
<text text-anchor="start" x="34" y="-156.5" font-family="Times,serif" font-size="14.00">One dimensional Taylor Series</text>
</a>
</g>
<!-- TAYLOR_SERIES&#45;&gt;EXPONENTIAL_GROWTH_DECAY -->
<g id="edge6" class="edge"><title>TAYLOR_SERIES&#45;&gt;EXPONENTIAL_GROWTH_DECAY</title>
<path fill="none" stroke="black" d="M142.247,-143.697C153.582,-134.881 167.53,-124.032 179.819,-114.474"/>
<polygon fill="black" stroke="black" points="182.264,-117.007 188.009,-108.104 177.966,-111.481 182.264,-117.007"/>
</g>
<!-- THE_EXPONENTIAL_FUNCTION -->
<g id="node8" class="node"><title>THE_EXPONENTIAL_FUNCTION</title>
<a xlink:href="THE_EXPONENTIAL_FUNCTION.html" xlink:title="Exponential function" target="_top">
<polyline fill="none" stroke="black" points="355,-180 245,-180 "/>
<path fill="none" stroke="black" d="M245,-180C239,-180 233,-174 233,-168"/>
<polyline fill="none" stroke="black" points="233,-168 233,-156 "/>
<path fill="none" stroke="black" d="M233,-156C233,-150 239,-144 245,-144"/>
<polyline fill="none" stroke="black" points="245,-144 355,-144 "/>
<path fill="none" stroke="black" d="M355,-144C361,-144 367,-150 367,-156"/>
<polyline fill="none" stroke="black" points="367,-156 367,-168 "/>
<path fill="none" stroke="black" d="M367,-168C367,-174 361,-180 355,-180"/>
<text text-anchor="start" x="241.5" y="-156.5" font-family="Times,serif" font-size="14.00">Exponential function</text>
</a>
</g>
<!-- THE_EXPONENTIAL_FUNCTION&#45;&gt;EXPONENTIAL_GROWTH_DECAY -->
<g id="edge8" class="edge"><title>THE_EXPONENTIAL_FUNCTION&#45;&gt;EXPONENTIAL_GROWTH_DECAY</title>
<path fill="none" stroke="black" d="M277.753,-143.697C266.418,-134.881 252.47,-124.032 240.181,-114.474"/>
<polygon fill="black" stroke="black" points="242.034,-111.481 231.991,-108.104 237.736,-117.007 242.034,-111.481"/>
</g>
</g>
</svg>
