<?xml version="1.0" encoding="UTF-8" standalone="no"?>
<!DOCTYPE svg PUBLIC "-//W3C//DTD SVG 1.1//EN"
 "http://www.w3.org/Graphics/SVG/1.1/DTD/svg11.dtd">
<!-- Generated by graphviz version 2.28.0 (20110509.1545)
 -->
<!-- Title: _anonymous_0 Pages: 1 -->
<svg width="335pt" height="260pt"
 viewBox="0.00 0.00 335.00 260.00" xmlns="http://www.w3.org/2000/svg" xmlns:xlink="http://www.w3.org/1999/xlink">
<g id="graph1" class="graph" transform="scale(1 1) rotate(0) translate(4 256)">
<title>_anonymous_0</title>
<!-- FUNDAMENTAL_THEOREM_OF_CALCULUS -->
<g id="node1" class="node"><title>FUNDAMENTAL_THEOREM_OF_CALCULUS</title>
<a xlink:href="FUNDAMENTAL_THEOREM_OF_CALCULUS.html" xlink:title="Fundamental theorem of calculus" target="_top">
<polyline fill="none" stroke="blue" stroke-width="2" points="315.25,-180 136.75,-180 "/>
<path fill="none" stroke="blue" stroke-width="2" d="M136.75,-180C130.75,-180 124.75,-174 124.75,-168"/>
<polyline fill="none" stroke="blue" stroke-width="2" points="124.75,-168 124.75,-156 "/>
<path fill="none" stroke="blue" stroke-width="2" d="M124.75,-156C124.75,-150 130.75,-144 136.75,-144"/>
<polyline fill="none" stroke="blue" stroke-width="2" points="136.75,-144 315.25,-144 "/>
<path fill="none" stroke="blue" stroke-width="2" d="M315.25,-144C321.25,-144 327.25,-150 327.25,-156"/>
<polyline fill="none" stroke="blue" stroke-width="2" points="327.25,-156 327.25,-168 "/>
<path fill="none" stroke="blue" stroke-width="2" d="M327.25,-168C327.25,-174 321.25,-180 315.25,-180"/>
<text text-anchor="start" x="133" y="-156.5" font-family="Times,serif" font-size="14.00">Fundamental theorem of calculus</text>
</a>
</g>
<!-- INTEGRATION_BY_PARTS -->
<g id="node2" class="node"><title>INTEGRATION_BY_PARTS</title>
<a xlink:href="INTEGRATION_BY_PARTS.html" xlink:title="Integration by parts" target="_top">
<polyline fill="none" stroke="black" points="114,-108 12,-108 "/>
<path fill="none" stroke="black" d="M12,-108C6,-108 0,-102 0,-96"/>
<polyline fill="none" stroke="black" points="0,-96 0,-84 "/>
<path fill="none" stroke="black" d="M0,-84C0,-78 6,-72 12,-72"/>
<polyline fill="none" stroke="black" points="12,-72 114,-72 "/>
<path fill="none" stroke="black" d="M114,-72C120,-72 126,-78 126,-84"/>
<polyline fill="none" stroke="black" points="126,-84 126,-96 "/>
<path fill="none" stroke="black" d="M126,-96C126,-102 120,-108 114,-108"/>
<text text-anchor="start" x="8.5" y="-84.5" font-family="Times,serif" font-size="14.00">Integration by parts</text>
</a>
</g>
<!-- FUNDAMENTAL_THEOREM_OF_CALCULUS&#45;&gt;INTEGRATION_BY_PARTS -->
<g id="edge2" class="edge"><title>FUNDAMENTAL_THEOREM_OF_CALCULUS&#45;&gt;INTEGRATION_BY_PARTS</title>
<path fill="none" stroke="black" d="M186.126,-143.876C163.843,-134.307 135.885,-122.3 112.244,-112.148"/>
<polygon fill="black" stroke="black" points="113.314,-108.798 102.745,-108.068 110.552,-115.23 113.314,-108.798"/>
</g>
<!-- INTEGRATION_BY_SUBSTITUTION -->
<g id="node4" class="node"><title>INTEGRATION_BY_SUBSTITUTION</title>
<a xlink:href="INTEGRATION_BY_SUBSTITUTION.html" xlink:title="Integration by substitution" target="_top">
<polyline fill="none" stroke="black" points="296,-108 156,-108 "/>
<path fill="none" stroke="black" d="M156,-108C150,-108 144,-102 144,-96"/>
<polyline fill="none" stroke="black" points="144,-96 144,-84 "/>
<path fill="none" stroke="black" d="M144,-84C144,-78 150,-72 156,-72"/>
<polyline fill="none" stroke="black" points="156,-72 296,-72 "/>
<path fill="none" stroke="black" d="M296,-72C302,-72 308,-78 308,-84"/>
<polyline fill="none" stroke="black" points="308,-84 308,-96 "/>
<path fill="none" stroke="black" d="M308,-96C308,-102 302,-108 296,-108"/>
<text text-anchor="start" x="152.5" y="-84.5" font-family="Times,serif" font-size="14.00">Integration by substitution</text>
</a>
</g>
<!-- FUNDAMENTAL_THEOREM_OF_CALCULUS&#45;&gt;INTEGRATION_BY_SUBSTITUTION -->
<g id="edge4" class="edge"><title>FUNDAMENTAL_THEOREM_OF_CALCULUS&#45;&gt;INTEGRATION_BY_SUBSTITUTION</title>
<path fill="none" stroke="black" d="M226,-143.697C226,-135.983 226,-126.712 226,-118.112"/>
<polygon fill="black" stroke="black" points="229.5,-118.104 226,-108.104 222.5,-118.104 229.5,-118.104"/>
</g>
<!-- UNIFORM_RANDOM_VARIABLE -->
<g id="node8" class="node"><title>UNIFORM_RANDOM_VARIABLE</title>
<a xlink:href="UNIFORM_RANDOM_VARIABLE.html" xlink:title="Uniform Random Variable" target="_top">
<polyline fill="none" stroke="black" points="270,-36 128,-36 "/>
<path fill="none" stroke="black" d="M128,-36C122,-36 116,-30 116,-24"/>
<polyline fill="none" stroke="black" points="116,-24 116,-12 "/>
<path fill="none" stroke="black" d="M116,-12C116,-6 122,-0 128,-0"/>
<polyline fill="none" stroke="black" points="128,-0 270,-0 "/>
<path fill="none" stroke="black" d="M270,-0C276,-0 282,-6 282,-12"/>
<polyline fill="none" stroke="black" points="282,-12 282,-24 "/>
<path fill="none" stroke="black" d="M282,-24C282,-30 276,-36 270,-36"/>
<text text-anchor="start" x="124.5" y="-12.5" font-family="Times,serif" font-size="14.00">Uniform Random Variable</text>
</a>
</g>
<!-- FUNDAMENTAL_THEOREM_OF_CALCULUS&#45;&gt;UNIFORM_RANDOM_VARIABLE -->
<g id="edge8" class="edge"><title>FUNDAMENTAL_THEOREM_OF_CALCULUS&#45;&gt;UNIFORM_RANDOM_VARIABLE</title>
<path fill="none" stroke="black" d="M275.562,-143.846C291.692,-135.636 307.798,-124.009 317,-108 324.974,-94.1284 325.692,-85.433 317,-72 308.109,-58.2597 294.718,-48.0474 280.109,-40.4679"/>
<polygon fill="black" stroke="black" points="281.419,-37.2152 270.885,-36.0808 278.412,-43.5366 281.419,-37.2152"/>
</g>
<!-- INTEGRATION_BY_PARTS&#45;&gt;UNIFORM_RANDOM_VARIABLE -->
<!-- TAYLOR_SERIES -->
<g id="node6" class="node"><title>TAYLOR_SERIES</title>
<a xlink:href="TAYLOR_SERIES.html" xlink:title="One dimensional Taylor Series" target="_top">
<polyline fill="none" stroke="black" points="308.25,-252 143.75,-252 "/>
<path fill="none" stroke="black" d="M143.75,-252C137.75,-252 131.75,-246 131.75,-240"/>
<polyline fill="none" stroke="black" points="131.75,-240 131.75,-228 "/>
<path fill="none" stroke="black" d="M131.75,-228C131.75,-222 137.75,-216 143.75,-216"/>
<polyline fill="none" stroke="black" points="143.75,-216 308.25,-216 "/>
<path fill="none" stroke="black" d="M308.25,-216C314.25,-216 320.25,-222 320.25,-228"/>
<polyline fill="none" stroke="black" points="320.25,-228 320.25,-240 "/>
<path fill="none" stroke="black" d="M320.25,-240C320.25,-246 314.25,-252 308.25,-252"/>
<text text-anchor="start" x="140" y="-228.5" font-family="Times,serif" font-size="14.00">One dimensional Taylor Series</text>
</a>
</g>
<!-- TAYLOR_SERIES&#45;&gt;FUNDAMENTAL_THEOREM_OF_CALCULUS -->
<g id="edge6" class="edge"><title>TAYLOR_SERIES&#45;&gt;FUNDAMENTAL_THEOREM_OF_CALCULUS</title>
<path fill="none" stroke="black" d="M226,-215.697C226,-207.983 226,-198.712 226,-190.112"/>
<polygon fill="black" stroke="black" points="229.5,-190.104 226,-180.104 222.5,-190.104 229.5,-190.104"/>
</g>
</g>
</svg>
