<?xml version="1.0" encoding="UTF-8" standalone="no"?>
<!DOCTYPE svg PUBLIC "-//W3C//DTD SVG 1.1//EN"
 "http://www.w3.org/Graphics/SVG/1.1/DTD/svg11.dtd">
<!-- Generated by graphviz version 2.36.0 (20140111.2315)
 -->
<!-- Title: %3 Pages: 1 -->
<svg width="385pt" height="260pt"
 viewBox="0.00 0.00 385.00 260.00" xmlns="http://www.w3.org/2000/svg" xmlns:xlink="http://www.w3.org/1999/xlink">
<g id="graph0" class="graph" transform="scale(1 1) rotate(0) translate(4 256)">
<title>%3</title>
<!-- FUNDAMENTAL_THEOREM_OF_CALCULUS -->
<g id="node1" class="node"><title>FUNDAMENTAL_THEOREM_OF_CALCULUS</title>
<g id="a_node1"><a xlink:href="FUNDAMENTAL_THEOREM_OF_CALCULUS.html" xlink:title=" Fundamental theorem of calculus " target="_top">
<path fill="none" stroke="blue" stroke-width="2" d="M365.25,-180C365.25,-180 182.75,-180 182.75,-180 176.75,-180 170.75,-174 170.75,-168 170.75,-168 170.75,-156 170.75,-156 170.75,-150 176.75,-144 182.75,-144 182.75,-144 365.25,-144 365.25,-144 371.25,-144 377.25,-150 377.25,-156 377.25,-156 377.25,-168 377.25,-168 377.25,-174 371.25,-180 365.25,-180"/>
<text text-anchor="start" x="178.5" y="-158.3" font-family="Times,serif" font-size="14.00"> Fundamental theorem of calculus </text>
</a>
</g>
</g>
<!-- UNIFORM_RANDOM_VARIABLE -->
<g id="node2" class="node"><title>UNIFORM_RANDOM_VARIABLE</title>
<g id="a_node2"><a xlink:href="UNIFORM_RANDOM_VARIABLE.html" xlink:title=" Uniform Random Variable " target="_top">
<path fill="none" stroke="black" d="M160,-108C160,-108 12,-108 12,-108 6,-108 0,-102 0,-96 0,-96 0,-84 0,-84 0,-78 6,-72 12,-72 12,-72 160,-72 160,-72 166,-72 172,-78 172,-84 172,-84 172,-96 172,-96 172,-102 166,-108 160,-108"/>
<text text-anchor="start" x="8" y="-86.3" font-family="Times,serif" font-size="14.00"> Uniform Random Variable </text>
</a>
</g>
</g>
<!-- FUNDAMENTAL_THEOREM_OF_CALCULUS&#45;&gt;UNIFORM_RANDOM_VARIABLE -->
<g id="edge1" class="edge"><title>FUNDAMENTAL_THEOREM_OF_CALCULUS&#45;&gt;UNIFORM_RANDOM_VARIABLE</title>
<path fill="none" stroke="black" d="M228.01,-143.876C201.852,-134.137 168.915,-121.872 141.348,-111.608"/>
<polygon fill="black" stroke="black" points="142.433,-108.278 131.841,-108.068 139.991,-114.838 142.433,-108.278"/>
</g>
<!-- INTEGRATION_BY_SUBSTITUTION -->
<g id="node3" class="node"><title>INTEGRATION_BY_SUBSTITUTION</title>
<g id="a_node3"><a xlink:href="INTEGRATION_BY_SUBSTITUTION.html" xlink:title=" Integration by substitution " target="_top">
<path fill="none" stroke="black" d="M345.25,-108C345.25,-108 202.75,-108 202.75,-108 196.75,-108 190.75,-102 190.75,-96 190.75,-96 190.75,-84 190.75,-84 190.75,-78 196.75,-72 202.75,-72 202.75,-72 345.25,-72 345.25,-72 351.25,-72 357.25,-78 357.25,-84 357.25,-84 357.25,-96 357.25,-96 357.25,-102 351.25,-108 345.25,-108"/>
<text text-anchor="start" x="198.5" y="-86.3" font-family="Times,serif" font-size="14.00"> Integration by substitution </text>
</a>
</g>
</g>
<!-- FUNDAMENTAL_THEOREM_OF_CALCULUS&#45;&gt;INTEGRATION_BY_SUBSTITUTION -->
<g id="edge2" class="edge"><title>FUNDAMENTAL_THEOREM_OF_CALCULUS&#45;&gt;INTEGRATION_BY_SUBSTITUTION</title>
<path fill="none" stroke="black" d="M274,-143.697C274,-135.983 274,-126.712 274,-118.112"/>
<polygon fill="black" stroke="black" points="277.5,-118.104 274,-108.104 270.5,-118.104 277.5,-118.104"/>
</g>
<!-- INTEGRATION_BY_PARTS -->
<g id="node5" class="node"><title>INTEGRATION_BY_PARTS</title>
<g id="a_node5"><a xlink:href="INTEGRATION_BY_PARTS.html" xlink:title=" Integration by parts " target="_top">
<path fill="none" stroke="black" d="M288.25,-36C288.25,-36 181.75,-36 181.75,-36 175.75,-36 169.75,-30 169.75,-24 169.75,-24 169.75,-12 169.75,-12 169.75,-6 175.75,-0 181.75,-0 181.75,-0 288.25,-0 288.25,-0 294.25,-0 300.25,-6 300.25,-12 300.25,-12 300.25,-24 300.25,-24 300.25,-30 294.25,-36 288.25,-36"/>
<text text-anchor="start" x="177.5" y="-14.3" font-family="Times,serif" font-size="14.00"> Integration by parts </text>
</a>
</g>
</g>
<!-- FUNDAMENTAL_THEOREM_OF_CALCULUS&#45;&gt;INTEGRATION_BY_PARTS -->
<g id="edge4" class="edge"><title>FUNDAMENTAL_THEOREM_OF_CALCULUS&#45;&gt;INTEGRATION_BY_PARTS</title>
<path fill="none" stroke="black" d="M324.093,-143.967C340.398,-135.768 356.684,-124.119 366,-108 374.007,-94.1474 374.944,-85.2667 366,-72 353.038,-52.7733 331.791,-40.5192 310.144,-32.71"/>
<polygon fill="black" stroke="black" points="311.126,-29.3484 300.533,-29.5269 308.925,-35.9934 311.126,-29.3484"/>
</g>
<!-- UNIFORM_RANDOM_VARIABLE&#45;&gt;INTEGRATION_BY_PARTS -->
<!-- TAYLOR_SERIES -->
<g id="node4" class="node"><title>TAYLOR_SERIES</title>
<g id="a_node4"><a xlink:href="TAYLOR_SERIES.html" xlink:title=" One dimensional Taylor Series " target="_top">
<path fill="none" stroke="black" d="M358.5,-252C358.5,-252 189.5,-252 189.5,-252 183.5,-252 177.5,-246 177.5,-240 177.5,-240 177.5,-228 177.5,-228 177.5,-222 183.5,-216 189.5,-216 189.5,-216 358.5,-216 358.5,-216 364.5,-216 370.5,-222 370.5,-228 370.5,-228 370.5,-240 370.5,-240 370.5,-246 364.5,-252 358.5,-252"/>
<text text-anchor="start" x="185" y="-230.3" font-family="Times,serif" font-size="14.00"> One dimensional Taylor Series </text>
</a>
</g>
</g>
<!-- TAYLOR_SERIES&#45;&gt;FUNDAMENTAL_THEOREM_OF_CALCULUS -->
<g id="edge3" class="edge"><title>TAYLOR_SERIES&#45;&gt;FUNDAMENTAL_THEOREM_OF_CALCULUS</title>
<path fill="none" stroke="black" d="M274,-215.697C274,-207.983 274,-198.712 274,-190.112"/>
<polygon fill="black" stroke="black" points="277.5,-190.104 274,-180.104 270.5,-190.104 277.5,-190.104"/>
</g>
</g>
</svg>
