<?xml version="1.0" encoding="UTF-8" standalone="no"?>
<!DOCTYPE svg PUBLIC "-//W3C//DTD SVG 1.1//EN"
 "http://www.w3.org/Graphics/SVG/1.1/DTD/svg11.dtd">
<!-- Generated by graphviz version 2.26.3 (20100126.1600)
 -->
<!-- Title: _anonymous_0 Pages: 1 -->
<svg width="401pt" height="260pt"
 viewBox="0.00 0.00 401.00 260.00" xmlns="http://www.w3.org/2000/svg" xmlns:xlink="http://www.w3.org/1999/xlink">
<g id="graph1" class="graph" transform="scale(1 1) rotate(0) translate(4 256)">
<title>_anonymous_0</title>
<!-- FUNDAMENTAL_THEOREM_OF_CALCULUS -->
<g id="node1" class="node"><title>FUNDAMENTAL_THEOREM_OF_CALCULUS</title>
<a xlink:href="FUNDAMENTAL_THEOREM_OF_CALCULUS.html" xlink:title="Fundamental theorem of calculus" target="_top">
<polyline fill="none" stroke="blue" stroke-width="2" points="381,-180 159,-180 "/>
<path fill="none" stroke="blue" stroke-width="2" d="M159,-180C153,-180 147,-174 147,-168"/>
<polyline fill="none" stroke="blue" stroke-width="2" points="147,-168 147,-156 "/>
<path fill="none" stroke="blue" stroke-width="2" d="M147,-156C147,-150 153,-144 159,-144"/>
<polyline fill="none" stroke="blue" stroke-width="2" points="159,-144 381,-144 "/>
<path fill="none" stroke="blue" stroke-width="2" d="M381,-144C387,-144 393,-150 393,-156"/>
<polyline fill="none" stroke="blue" stroke-width="2" points="393,-156 393,-168 "/>
<path fill="none" stroke="blue" stroke-width="2" d="M393,-168C393,-174 387,-180 381,-180"/>
<text text-anchor="start" x="155.5" y="-159.233" font-family="Times Roman,serif" font-size="14.00">Fundamental theorem of calculus</text>
</a>
</g>
<!-- INTEGRATION_BY_PARTS -->
<g id="node2" class="node"><title>INTEGRATION_BY_PARTS</title>
<a xlink:href="INTEGRATION_BY_PARTS.html" xlink:title="Integration by parts" target="_top">
<polyline fill="none" stroke="black" points="144,-108 12,-108 "/>
<path fill="none" stroke="black" d="M12,-108C6,-108 5.92119e-14,-102 4.73695e-14,-96"/>
<polyline fill="none" stroke="black" points="4.73695e-14,-96 2.36848e-14,-84 "/>
<path fill="none" stroke="black" d="M2.36848e-14,-84C1.18424e-14,-78 6,-72 12,-72"/>
<polyline fill="none" stroke="black" points="12,-72 144,-72 "/>
<path fill="none" stroke="black" d="M144,-72C150,-72 156,-78 156,-84"/>
<polyline fill="none" stroke="black" points="156,-84 156,-96 "/>
<path fill="none" stroke="black" d="M156,-96C156,-102 150,-108 144,-108"/>
<text text-anchor="start" x="8.5" y="-87.2333" font-family="Times Roman,serif" font-size="14.00">Integration by parts</text>
</a>
</g>
<!-- FUNDAMENTAL_THEOREM_OF_CALCULUS&#45;&gt;INTEGRATION_BY_PARTS -->
<g id="edge2" class="edge"><title>FUNDAMENTAL_THEOREM_OF_CALCULUS&#45;&gt;INTEGRATION_BY_PARTS</title>
<path fill="none" stroke="black" d="M221.55,-143.831C195.415,-134.031 162.989,-121.871 135.572,-111.589"/>
<polygon fill="black" stroke="black" points="136.694,-108.272 126.101,-108.038 134.236,-114.826 136.694,-108.272"/>
</g>
<!-- UNIFORM_RANDOM_VARIABLE -->
<g id="node4" class="node"><title>UNIFORM_RANDOM_VARIABLE</title>
<a xlink:href="UNIFORM_RANDOM_VARIABLE.html" xlink:title="Uniform Random Variable" target="_top">
<polyline fill="none" stroke="black" points="354,-108 186,-108 "/>
<path fill="none" stroke="black" d="M186,-108C180,-108 174,-102 174,-96"/>
<polyline fill="none" stroke="black" points="174,-96 174,-84 "/>
<path fill="none" stroke="black" d="M174,-84C174,-78 180,-72 186,-72"/>
<polyline fill="none" stroke="black" points="186,-72 354,-72 "/>
<path fill="none" stroke="black" d="M354,-72C360,-72 366,-78 366,-84"/>
<polyline fill="none" stroke="black" points="366,-84 366,-96 "/>
<path fill="none" stroke="black" d="M366,-96C366,-102 360,-108 354,-108"/>
<text text-anchor="start" x="182" y="-87.2333" font-family="Times Roman,serif" font-size="14.00">Uniform Random Variable</text>
</a>
</g>
<!-- FUNDAMENTAL_THEOREM_OF_CALCULUS&#45;&gt;UNIFORM_RANDOM_VARIABLE -->
<g id="edge4" class="edge"><title>FUNDAMENTAL_THEOREM_OF_CALCULUS&#45;&gt;UNIFORM_RANDOM_VARIABLE</title>
<path fill="none" stroke="black" d="M270,-143.831C270,-136.131 270,-126.974 270,-118.417"/>
<polygon fill="black" stroke="black" points="273.5,-118.413 270,-108.413 266.5,-118.413 273.5,-118.413"/>
</g>
<!-- INTEGRATION_BY_SUBSTITUTION -->
<g id="node6" class="node"><title>INTEGRATION_BY_SUBSTITUTION</title>
<a xlink:href="INTEGRATION_BY_SUBSTITUTION.html" xlink:title="Integration by substitution" target="_top">
<polyline fill="none" stroke="black" points="325,-36 147,-36 "/>
<path fill="none" stroke="black" d="M147,-36C141,-36 135,-30 135,-24"/>
<polyline fill="none" stroke="black" points="135,-24 135,-12 "/>
<path fill="none" stroke="black" d="M135,-12C135,-6 141,-1.73415e-14 147,-1.69194e-14"/>
<polyline fill="none" stroke="black" points="147,-1.69194e-14 325,-4.39692e-15 "/>
<path fill="none" stroke="black" d="M325,-4.39692e-15C331,-3.97482e-15 337,-6 337,-12"/>
<polyline fill="none" stroke="black" points="337,-12 337,-24 "/>
<path fill="none" stroke="black" d="M337,-24C337,-30 331,-36 325,-36"/>
<text text-anchor="start" x="143" y="-15.2333" font-family="Times Roman,serif" font-size="14.00">Integration by substitution</text>
</a>
</g>
<!-- FUNDAMENTAL_THEOREM_OF_CALCULUS&#45;&gt;INTEGRATION_BY_SUBSTITUTION -->
<g id="edge6" class="edge"><title>FUNDAMENTAL_THEOREM_OF_CALCULUS&#45;&gt;INTEGRATION_BY_SUBSTITUTION</title>
<path fill="none" stroke="black" d="M331.419,-143.994C348.497,-135.85 365.07,-124.273 375,-108 383.334,-94.342 384.036,-85.2042 375,-72 366.989,-60.294 340.368,-48.7153 312.537,-39.2997"/>
<polygon fill="black" stroke="black" points="313.264,-35.8546 302.671,-36.0629 311.081,-42.5058 313.264,-35.8546"/>
</g>
<!-- INTEGRATION_BY_PARTS&#45;&gt;INTEGRATION_BY_SUBSTITUTION -->
<!-- TAYLOR_SERIES -->
<g id="node9" class="node"><title>TAYLOR_SERIES</title>
<a xlink:href="TAYLOR_SERIES.html" xlink:title="One dimensional Taylor Series" target="_top">
<polyline fill="none" stroke="black" points="370,-252 170,-252 "/>
<path fill="none" stroke="black" d="M170,-252C164,-252 158,-246 158,-240"/>
<polyline fill="none" stroke="black" points="158,-240 158,-228 "/>
<path fill="none" stroke="black" d="M158,-228C158,-222 164,-216 170,-216"/>
<polyline fill="none" stroke="black" points="170,-216 370,-216 "/>
<path fill="none" stroke="black" d="M370,-216C376,-216 382,-222 382,-228"/>
<polyline fill="none" stroke="black" points="382,-228 382,-240 "/>
<path fill="none" stroke="black" d="M382,-240C382,-246 376,-252 370,-252"/>
<text text-anchor="start" x="166" y="-231.233" font-family="Times Roman,serif" font-size="14.00">One dimensional Taylor Series</text>
</a>
</g>
<!-- TAYLOR_SERIES&#45;&gt;FUNDAMENTAL_THEOREM_OF_CALCULUS -->
<g id="edge10" class="edge"><title>TAYLOR_SERIES&#45;&gt;FUNDAMENTAL_THEOREM_OF_CALCULUS</title>
<path fill="none" stroke="black" d="M270,-215.831C270,-208.131 270,-198.974 270,-190.417"/>
<polygon fill="black" stroke="black" points="273.5,-190.413 270,-180.413 266.5,-190.413 273.5,-190.413"/>
</g>
</g>
</svg>
