<?xml version="1.0" encoding="UTF-8" standalone="no"?>
<!DOCTYPE svg PUBLIC "-//W3C//DTD SVG 1.1//EN"
 "http://www.w3.org/Graphics/SVG/1.1/DTD/svg11.dtd">
<!-- Generated by graphviz version 2.36.0 (20140111.2315)
 -->
<!-- Title: %3 Pages: 1 -->
<svg width="346pt" height="260pt"
 viewBox="0.00 0.00 346.00 260.00" xmlns="http://www.w3.org/2000/svg" xmlns:xlink="http://www.w3.org/1999/xlink">
<g id="graph0" class="graph" transform="scale(1 1) rotate(0) translate(4 256)">
<title>%3</title>
<!-- FUNDAMENTAL_THEOREM_OF_CALCULUS -->
<g id="node1" class="node"><title>FUNDAMENTAL_THEOREM_OF_CALCULUS</title>
<g id="a_node1"><a xlink:href="FUNDAMENTAL_THEOREM_OF_CALCULUS.html" xlink:title=" Fundamental theorem of calculus " target="_top">
<path fill="none" stroke="blue" stroke-width="2" d="M326.25,-180C326.25,-180 143.75,-180 143.75,-180 137.75,-180 131.75,-174 131.75,-168 131.75,-168 131.75,-156 131.75,-156 131.75,-150 137.75,-144 143.75,-144 143.75,-144 326.25,-144 326.25,-144 332.25,-144 338.25,-150 338.25,-156 338.25,-156 338.25,-168 338.25,-168 338.25,-174 332.25,-180 326.25,-180"/>
<text text-anchor="start" x="139.5" y="-158.3" font-family="Times,serif" font-size="14.00"> Fundamental theorem of calculus </text>
</a>
</g>
</g>
<!-- INTEGRATION_BY_PARTS -->
<g id="node2" class="node"><title>INTEGRATION_BY_PARTS</title>
<g id="a_node2"><a xlink:href="INTEGRATION_BY_PARTS.html" xlink:title=" Integration by parts " target="_top">
<path fill="none" stroke="black" d="M118.25,-108C118.25,-108 11.75,-108 11.75,-108 5.75,-108 -0.25,-102 -0.25,-96 -0.25,-96 -0.25,-84 -0.25,-84 -0.25,-78 5.75,-72 11.75,-72 11.75,-72 118.25,-72 118.25,-72 124.25,-72 130.25,-78 130.25,-84 130.25,-84 130.25,-96 130.25,-96 130.25,-102 124.25,-108 118.25,-108"/>
<text text-anchor="start" x="7.5" y="-86.3" font-family="Times,serif" font-size="14.00"> Integration by parts </text>
</a>
</g>
</g>
<!-- FUNDAMENTAL_THEOREM_OF_CALCULUS&#45;&gt;INTEGRATION_BY_PARTS -->
<g id="edge1" class="edge"><title>FUNDAMENTAL_THEOREM_OF_CALCULUS&#45;&gt;INTEGRATION_BY_PARTS</title>
<path fill="none" stroke="black" d="M193.413,-143.876C169.967,-134.222 140.496,-122.087 115.703,-111.878"/>
<polygon fill="black" stroke="black" points="117.031,-108.639 106.452,-108.068 114.366,-115.112 117.031,-108.639"/>
</g>
<!-- UNIFORM_RANDOM_VARIABLE -->
<g id="node4" class="node"><title>UNIFORM_RANDOM_VARIABLE</title>
<g id="a_node4"><a xlink:href="UNIFORM_RANDOM_VARIABLE.html" xlink:title=" Uniform Random Variable " target="_top">
<path fill="none" stroke="black" d="M309,-108C309,-108 161,-108 161,-108 155,-108 149,-102 149,-96 149,-96 149,-84 149,-84 149,-78 155,-72 161,-72 161,-72 309,-72 309,-72 315,-72 321,-78 321,-84 321,-84 321,-96 321,-96 321,-102 315,-108 309,-108"/>
<text text-anchor="start" x="157" y="-86.3" font-family="Times,serif" font-size="14.00"> Uniform Random Variable </text>
</a>
</g>
</g>
<!-- FUNDAMENTAL_THEOREM_OF_CALCULUS&#45;&gt;UNIFORM_RANDOM_VARIABLE -->
<g id="edge3" class="edge"><title>FUNDAMENTAL_THEOREM_OF_CALCULUS&#45;&gt;UNIFORM_RANDOM_VARIABLE</title>
<path fill="none" stroke="black" d="M235,-143.697C235,-135.983 235,-126.712 235,-118.112"/>
<polygon fill="black" stroke="black" points="238.5,-118.104 235,-108.104 231.5,-118.104 238.5,-118.104"/>
</g>
<!-- INTEGRATION_BY_SUBSTITUTION -->
<g id="node5" class="node"><title>INTEGRATION_BY_SUBSTITUTION</title>
<g id="a_node5"><a xlink:href="INTEGRATION_BY_SUBSTITUTION.html" xlink:title=" Integration by substitution " target="_top">
<path fill="none" stroke="black" d="M278.25,-36C278.25,-36 135.75,-36 135.75,-36 129.75,-36 123.75,-30 123.75,-24 123.75,-24 123.75,-12 123.75,-12 123.75,-6 129.75,-0 135.75,-0 135.75,-0 278.25,-0 278.25,-0 284.25,-0 290.25,-6 290.25,-12 290.25,-12 290.25,-24 290.25,-24 290.25,-30 284.25,-36 278.25,-36"/>
<text text-anchor="start" x="131.5" y="-14.3" font-family="Times,serif" font-size="14.00"> Integration by substitution </text>
</a>
</g>
</g>
<!-- FUNDAMENTAL_THEOREM_OF_CALCULUS&#45;&gt;INTEGRATION_BY_SUBSTITUTION -->
<g id="edge4" class="edge"><title>FUNDAMENTAL_THEOREM_OF_CALCULUS&#45;&gt;INTEGRATION_BY_SUBSTITUTION</title>
<path fill="none" stroke="black" d="M287.684,-143.841C304.18,-135.702 320.532,-124.123 330,-108 338.102,-94.2028 338.795,-85.3661 330,-72 320.95,-58.2466 307.498,-48.0467 292.769,-40.4867"/>
<polygon fill="black" stroke="black" points="294.001,-37.1985 283.462,-36.1126 291.024,-43.5337 294.001,-37.1985"/>
</g>
<!-- INTEGRATION_BY_PARTS&#45;&gt;INTEGRATION_BY_SUBSTITUTION -->
<!-- TAYLOR_SERIES -->
<g id="node3" class="node"><title>TAYLOR_SERIES</title>
<g id="a_node3"><a xlink:href="TAYLOR_SERIES.html" xlink:title=" One dimensional Taylor Series " target="_top">
<path fill="none" stroke="black" d="M319.5,-252C319.5,-252 150.5,-252 150.5,-252 144.5,-252 138.5,-246 138.5,-240 138.5,-240 138.5,-228 138.5,-228 138.5,-222 144.5,-216 150.5,-216 150.5,-216 319.5,-216 319.5,-216 325.5,-216 331.5,-222 331.5,-228 331.5,-228 331.5,-240 331.5,-240 331.5,-246 325.5,-252 319.5,-252"/>
<text text-anchor="start" x="146" y="-230.3" font-family="Times,serif" font-size="14.00"> One dimensional Taylor Series </text>
</a>
</g>
</g>
<!-- TAYLOR_SERIES&#45;&gt;FUNDAMENTAL_THEOREM_OF_CALCULUS -->
<g id="edge2" class="edge"><title>TAYLOR_SERIES&#45;&gt;FUNDAMENTAL_THEOREM_OF_CALCULUS</title>
<path fill="none" stroke="black" d="M235,-215.697C235,-207.983 235,-198.712 235,-190.112"/>
<polygon fill="black" stroke="black" points="238.5,-190.104 235,-180.104 231.5,-190.104 238.5,-190.104"/>
</g>
</g>
</svg>
