<?xml version="1.0" encoding="UTF-8" standalone="no"?>
<!DOCTYPE svg PUBLIC "-//W3C//DTD SVG 1.1//EN"
 "http://www.w3.org/Graphics/SVG/1.1/DTD/svg11.dtd">
<!-- Generated by graphviz version 2.26.3 (20100126.1600)
 -->
<!-- Title: _anonymous_0 Pages: 1 -->
<svg width="466pt" height="260pt"
 viewBox="0.00 0.00 466.00 260.00" xmlns="http://www.w3.org/2000/svg" xmlns:xlink="http://www.w3.org/1999/xlink">
<g id="graph1" class="graph" transform="scale(1 1) rotate(0) translate(4 256)">
<title>_anonymous_0</title>
<!-- FUNDAMENTAL_THEOREM_OF_CALCULUS -->
<g id="node1" class="node"><title>FUNDAMENTAL_THEOREM_OF_CALCULUS</title>
<a xlink:href="FUNDAMENTAL_THEOREM_OF_CALCULUS.html" xlink:title=" Fundamental theorem of calculus " target="_top">
<polyline fill="none" stroke="blue" stroke-width="2" points="446,-180 216,-180 "/>
<path fill="none" stroke="blue" stroke-width="2" d="M216,-180C210,-180 204,-174 204,-168"/>
<polyline fill="none" stroke="blue" stroke-width="2" points="204,-168 204,-156 "/>
<path fill="none" stroke="blue" stroke-width="2" d="M204,-156C204,-150 210,-144 216,-144"/>
<polyline fill="none" stroke="blue" stroke-width="2" points="216,-144 446,-144 "/>
<path fill="none" stroke="blue" stroke-width="2" d="M446,-144C452,-144 458,-150 458,-156"/>
<polyline fill="none" stroke="blue" stroke-width="2" points="458,-156 458,-168 "/>
<path fill="none" stroke="blue" stroke-width="2" d="M458,-168C458,-174 452,-180 446,-180"/>
<text text-anchor="start" x="212" y="-159.233" font-family="Times Roman,serif" font-size="14.00"> Fundamental theorem of calculus </text>
</a>
</g>
<!-- INTEGRATION_BY_SUBSTITUTION -->
<g id="node2" class="node"><title>INTEGRATION_BY_SUBSTITUTION</title>
<a xlink:href="INTEGRATION_BY_SUBSTITUTION.html" xlink:title=" Integration by substitution " target="_top">
<polyline fill="none" stroke="black" points="200,-108 12,-108 "/>
<path fill="none" stroke="black" d="M12,-108C6,-108 5.92119e-14,-102 4.73695e-14,-96"/>
<polyline fill="none" stroke="black" points="4.73695e-14,-96 2.36848e-14,-84 "/>
<path fill="none" stroke="black" d="M2.36848e-14,-84C1.18424e-14,-78 6,-72 12,-72"/>
<polyline fill="none" stroke="black" points="12,-72 200,-72 "/>
<path fill="none" stroke="black" d="M200,-72C206,-72 212,-78 212,-84"/>
<polyline fill="none" stroke="black" points="212,-84 212,-96 "/>
<path fill="none" stroke="black" d="M212,-96C212,-102 206,-108 200,-108"/>
<text text-anchor="start" x="8.5" y="-87.2333" font-family="Times Roman,serif" font-size="14.00"> Integration by substitution </text>
</a>
</g>
<!-- FUNDAMENTAL_THEOREM_OF_CALCULUS&#45;&gt;INTEGRATION_BY_SUBSTITUTION -->
<g id="edge2" class="edge"><title>FUNDAMENTAL_THEOREM_OF_CALCULUS&#45;&gt;INTEGRATION_BY_SUBSTITUTION</title>
<path fill="none" stroke="black" d="M274.513,-143.924C243.487,-133.996 204.83,-121.625 172.369,-111.238"/>
<polygon fill="black" stroke="black" points="173.101,-107.797 162.51,-108.083 170.967,-114.464 173.101,-107.797"/>
</g>
<!-- UNIFORM_RANDOM_VARIABLE -->
<g id="node6" class="node"><title>UNIFORM_RANDOM_VARIABLE</title>
<a xlink:href="UNIFORM_RANDOM_VARIABLE.html" xlink:title=" Uniform Random Variable " target="_top">
<polyline fill="none" stroke="black" points="420,-108 242,-108 "/>
<path fill="none" stroke="black" d="M242,-108C236,-108 230,-102 230,-96"/>
<polyline fill="none" stroke="black" points="230,-96 230,-84 "/>
<path fill="none" stroke="black" d="M230,-84C230,-78 236,-72 242,-72"/>
<polyline fill="none" stroke="black" points="242,-72 420,-72 "/>
<path fill="none" stroke="black" d="M420,-72C426,-72 432,-78 432,-84"/>
<polyline fill="none" stroke="black" points="432,-84 432,-96 "/>
<path fill="none" stroke="black" d="M432,-96C432,-102 426,-108 420,-108"/>
<text text-anchor="start" x="238.5" y="-87.2333" font-family="Times Roman,serif" font-size="14.00"> Uniform Random Variable </text>
</a>
</g>
<!-- FUNDAMENTAL_THEOREM_OF_CALCULUS&#45;&gt;UNIFORM_RANDOM_VARIABLE -->
<g id="edge6" class="edge"><title>FUNDAMENTAL_THEOREM_OF_CALCULUS&#45;&gt;UNIFORM_RANDOM_VARIABLE</title>
<path fill="none" stroke="black" d="M331,-143.831C331,-136.131 331,-126.974 331,-118.417"/>
<polygon fill="black" stroke="black" points="334.5,-118.413 331,-108.413 327.5,-118.413 334.5,-118.413"/>
</g>
<!-- INTEGRATION_BY_PARTS -->
<g id="node8" class="node"><title>INTEGRATION_BY_PARTS</title>
<a xlink:href="INTEGRATION_BY_PARTS.html" xlink:title=" Integration by parts " target="_top">
<polyline fill="none" stroke="black" points="353,-36 213,-36 "/>
<path fill="none" stroke="black" d="M213,-36C207,-36 201,-30 201,-24"/>
<polyline fill="none" stroke="black" points="201,-24 201,-12 "/>
<path fill="none" stroke="black" d="M201,-12C201,-6 207,-1.72437e-14 213,-1.67237e-14"/>
<polyline fill="none" stroke="black" points="213,-1.67237e-14 353,-4.59253e-15 "/>
<path fill="none" stroke="black" d="M353,-4.59253e-15C359,-4.07262e-15 365,-6 365,-12"/>
<polyline fill="none" stroke="black" points="365,-12 365,-24 "/>
<path fill="none" stroke="black" d="M365,-24C365,-30 359,-36 353,-36"/>
<text text-anchor="start" x="209" y="-15.2333" font-family="Times Roman,serif" font-size="14.00"> Integration by parts </text>
</a>
</g>
<!-- FUNDAMENTAL_THEOREM_OF_CALCULUS&#45;&gt;INTEGRATION_BY_PARTS -->
<g id="edge8" class="edge"><title>FUNDAMENTAL_THEOREM_OF_CALCULUS&#45;&gt;INTEGRATION_BY_PARTS</title>
<path fill="none" stroke="black" d="M396.712,-143.963C414.088,-135.877 430.818,-124.341 441,-108 449.461,-94.4204 450.306,-85.0152 441,-72 432.024,-59.4461 403.181,-47.9935 372.552,-38.8979"/>
<polygon fill="black" stroke="black" points="373.145,-35.4267 362.567,-36.0291 371.212,-42.1545 373.145,-35.4267"/>
</g>
<!-- INTEGRATION_BY_SUBSTITUTION&#45;&gt;INTEGRATION_BY_PARTS -->
<!-- TAYLOR_SERIES -->
<g id="node4" class="node"><title>TAYLOR_SERIES</title>
<a xlink:href="TAYLOR_SERIES.html" xlink:title=" One dimensional Taylor Series " target="_top">
<polyline fill="none" stroke="black" points="436,-252 226,-252 "/>
<path fill="none" stroke="black" d="M226,-252C220,-252 214,-246 214,-240"/>
<polyline fill="none" stroke="black" points="214,-240 214,-228 "/>
<path fill="none" stroke="black" d="M214,-228C214,-222 220,-216 226,-216"/>
<polyline fill="none" stroke="black" points="226,-216 436,-216 "/>
<path fill="none" stroke="black" d="M436,-216C442,-216 448,-222 448,-228"/>
<polyline fill="none" stroke="black" points="448,-228 448,-240 "/>
<path fill="none" stroke="black" d="M448,-240C448,-246 442,-252 436,-252"/>
<text text-anchor="start" x="222.5" y="-231.233" font-family="Times Roman,serif" font-size="14.00"> One dimensional Taylor Series </text>
</a>
</g>
<!-- TAYLOR_SERIES&#45;&gt;FUNDAMENTAL_THEOREM_OF_CALCULUS -->
<g id="edge4" class="edge"><title>TAYLOR_SERIES&#45;&gt;FUNDAMENTAL_THEOREM_OF_CALCULUS</title>
<path fill="none" stroke="black" d="M331,-215.831C331,-208.131 331,-198.974 331,-190.417"/>
<polygon fill="black" stroke="black" points="334.5,-190.413 331,-180.413 327.5,-190.413 334.5,-190.413"/>
</g>
</g>
</svg>
