<?xml version="1.0" encoding="UTF-8" standalone="no"?>
<!DOCTYPE svg PUBLIC "-//W3C//DTD SVG 1.1//EN"
 "http://www.w3.org/Graphics/SVG/1.1/DTD/svg11.dtd">
<!-- Generated by graphviz version 2.26.3 (20100126.1600)
 -->
<!-- Title: _anonymous_0 Pages: 1 -->
<svg width="406pt" height="260pt"
 viewBox="0.00 0.00 406.00 260.00" xmlns="http://www.w3.org/2000/svg" xmlns:xlink="http://www.w3.org/1999/xlink">
<g id="graph1" class="graph" transform="scale(1 1) rotate(0) translate(4 256)">
<title>_anonymous_0</title>
<!-- FUNDAMENTAL_THEOREM_OF_CALCULUS -->
<g id="node1" class="node"><title>FUNDAMENTAL_THEOREM_OF_CALCULUS</title>
<a xlink:href="FUNDAMENTAL_THEOREM_OF_CALCULUS.html" xlink:title="Fundamental theorem of calculus" target="_top">
<polyline fill="none" stroke="blue" stroke-width="2" points="386,-180 164,-180 "/>
<path fill="none" stroke="blue" stroke-width="2" d="M164,-180C158,-180 152,-174 152,-168"/>
<polyline fill="none" stroke="blue" stroke-width="2" points="152,-168 152,-156 "/>
<path fill="none" stroke="blue" stroke-width="2" d="M152,-156C152,-150 158,-144 164,-144"/>
<polyline fill="none" stroke="blue" stroke-width="2" points="164,-144 386,-144 "/>
<path fill="none" stroke="blue" stroke-width="2" d="M386,-144C392,-144 398,-150 398,-156"/>
<polyline fill="none" stroke="blue" stroke-width="2" points="398,-156 398,-168 "/>
<path fill="none" stroke="blue" stroke-width="2" d="M398,-168C398,-174 392,-180 386,-180"/>
<text text-anchor="start" x="160.5" y="-159.233" font-family="Times Roman,serif" font-size="14.00">Fundamental theorem of calculus</text>
</a>
</g>
<!-- INTEGRATION_BY_PARTS -->
<g id="node2" class="node"><title>INTEGRATION_BY_PARTS</title>
<a xlink:href="INTEGRATION_BY_PARTS.html" xlink:title="Integration by parts" target="_top">
<polyline fill="none" stroke="black" points="144,-108 12,-108 "/>
<path fill="none" stroke="black" d="M12,-108C6,-108 5.92119e-14,-102 4.73695e-14,-96"/>
<polyline fill="none" stroke="black" points="4.73695e-14,-96 2.36848e-14,-84 "/>
<path fill="none" stroke="black" d="M2.36848e-14,-84C1.18424e-14,-78 6,-72 12,-72"/>
<polyline fill="none" stroke="black" points="12,-72 144,-72 "/>
<path fill="none" stroke="black" d="M144,-72C150,-72 156,-78 156,-84"/>
<polyline fill="none" stroke="black" points="156,-84 156,-96 "/>
<path fill="none" stroke="black" d="M156,-96C156,-102 150,-108 144,-108"/>
<text text-anchor="start" x="8.5" y="-87.2333" font-family="Times Roman,serif" font-size="14.00">Integration by parts</text>
</a>
</g>
<!-- FUNDAMENTAL_THEOREM_OF_CALCULUS&#45;&gt;INTEGRATION_BY_PARTS -->
<g id="edge2" class="edge"><title>FUNDAMENTAL_THEOREM_OF_CALCULUS&#45;&gt;INTEGRATION_BY_PARTS</title>
<path fill="none" stroke="black" d="M225.543,-143.924C198.729,-134.124 165.405,-121.945 137.215,-111.642"/>
<polygon fill="black" stroke="black" points="138.071,-108.229 127.477,-108.083 135.668,-114.803 138.071,-108.229"/>
</g>
<!-- INTEGRATION_BY_SUBSTITUTION -->
<g id="node6" class="node"><title>INTEGRATION_BY_SUBSTITUTION</title>
<a xlink:href="INTEGRATION_BY_SUBSTITUTION.html" xlink:title="Integration by substitution" target="_top">
<polyline fill="none" stroke="black" points="364,-108 186,-108 "/>
<path fill="none" stroke="black" d="M186,-108C180,-108 174,-102 174,-96"/>
<polyline fill="none" stroke="black" points="174,-96 174,-84 "/>
<path fill="none" stroke="black" d="M174,-84C174,-78 180,-72 186,-72"/>
<polyline fill="none" stroke="black" points="186,-72 364,-72 "/>
<path fill="none" stroke="black" d="M364,-72C370,-72 376,-78 376,-84"/>
<polyline fill="none" stroke="black" points="376,-84 376,-96 "/>
<path fill="none" stroke="black" d="M376,-96C376,-102 370,-108 364,-108"/>
<text text-anchor="start" x="182" y="-87.2333" font-family="Times Roman,serif" font-size="14.00">Integration by substitution</text>
</a>
</g>
<!-- FUNDAMENTAL_THEOREM_OF_CALCULUS&#45;&gt;INTEGRATION_BY_SUBSTITUTION -->
<g id="edge6" class="edge"><title>FUNDAMENTAL_THEOREM_OF_CALCULUS&#45;&gt;INTEGRATION_BY_SUBSTITUTION</title>
<path fill="none" stroke="black" d="M275,-143.831C275,-136.131 275,-126.974 275,-118.417"/>
<polygon fill="black" stroke="black" points="278.5,-118.413 275,-108.413 271.5,-118.413 278.5,-118.413"/>
</g>
<!-- UNIFORM_RANDOM_VARIABLE -->
<g id="node8" class="node"><title>UNIFORM_RANDOM_VARIABLE</title>
<a xlink:href="UNIFORM_RANDOM_VARIABLE.html" xlink:title="Uniform Random Variable" target="_top">
<polyline fill="none" stroke="black" points="325,-36 157,-36 "/>
<path fill="none" stroke="black" d="M157,-36C151,-36 145,-30 145,-24"/>
<polyline fill="none" stroke="black" points="145,-24 145,-12 "/>
<path fill="none" stroke="black" d="M145,-12C145,-6 151,-1.73195e-14 157,-1.68754e-14"/>
<polyline fill="none" stroke="black" points="157,-1.68754e-14 325,-4.44089e-15 "/>
<path fill="none" stroke="black" d="M325,-4.44089e-15C331,-3.9968e-15 337,-6 337,-12"/>
<polyline fill="none" stroke="black" points="337,-12 337,-24 "/>
<path fill="none" stroke="black" d="M337,-24C337,-30 331,-36 325,-36"/>
<text text-anchor="start" x="153" y="-15.2333" font-family="Times Roman,serif" font-size="14.00">Uniform Random Variable</text>
</a>
</g>
<!-- FUNDAMENTAL_THEOREM_OF_CALCULUS&#45;&gt;UNIFORM_RANDOM_VARIABLE -->
<g id="edge8" class="edge"><title>FUNDAMENTAL_THEOREM_OF_CALCULUS&#45;&gt;UNIFORM_RANDOM_VARIABLE</title>
<path fill="none" stroke="black" d="M340.712,-143.963C358.088,-135.877 374.818,-124.341 385,-108 393.461,-94.4204 394.114,-85.1508 385,-72 376.699,-60.0222 349.295,-48.4408 320.588,-39.0956"/>
<polygon fill="black" stroke="black" points="321.419,-35.6874 310.829,-36.0147 319.311,-42.3627 321.419,-35.6874"/>
</g>
<!-- INTEGRATION_BY_PARTS&#45;&gt;UNIFORM_RANDOM_VARIABLE -->
<!-- TAYLOR_SERIES -->
<g id="node4" class="node"><title>TAYLOR_SERIES</title>
<a xlink:href="TAYLOR_SERIES.html" xlink:title="One dimensional Taylor Series" target="_top">
<polyline fill="none" stroke="black" points="375,-252 175,-252 "/>
<path fill="none" stroke="black" d="M175,-252C169,-252 163,-246 163,-240"/>
<polyline fill="none" stroke="black" points="163,-240 163,-228 "/>
<path fill="none" stroke="black" d="M163,-228C163,-222 169,-216 175,-216"/>
<polyline fill="none" stroke="black" points="175,-216 375,-216 "/>
<path fill="none" stroke="black" d="M375,-216C381,-216 387,-222 387,-228"/>
<polyline fill="none" stroke="black" points="387,-228 387,-240 "/>
<path fill="none" stroke="black" d="M387,-240C387,-246 381,-252 375,-252"/>
<text text-anchor="start" x="171" y="-231.233" font-family="Times Roman,serif" font-size="14.00">One dimensional Taylor Series</text>
</a>
</g>
<!-- TAYLOR_SERIES&#45;&gt;FUNDAMENTAL_THEOREM_OF_CALCULUS -->
<g id="edge4" class="edge"><title>TAYLOR_SERIES&#45;&gt;FUNDAMENTAL_THEOREM_OF_CALCULUS</title>
<path fill="none" stroke="black" d="M275,-215.831C275,-208.131 275,-198.974 275,-190.417"/>
<polygon fill="black" stroke="black" points="278.5,-190.413 275,-180.413 271.5,-190.413 278.5,-190.413"/>
</g>
</g>
</svg>
