<?xml version="1.0" encoding="UTF-8" standalone="no"?>
<!DOCTYPE svg PUBLIC "-//W3C//DTD SVG 1.1//EN"
 "http://www.w3.org/Graphics/SVG/1.1/DTD/svg11.dtd">
<!-- Generated by graphviz version 2.26.3 (20100126.1600)
 -->
<!-- Title: _anonymous_0 Pages: 1 -->
<svg width="444pt" height="188pt"
 viewBox="0.00 0.00 444.00 188.00" xmlns="http://www.w3.org/2000/svg" xmlns:xlink="http://www.w3.org/1999/xlink">
<g id="graph1" class="graph" transform="scale(1 1) rotate(0) translate(4 184)">
<title>_anonymous_0</title>
<!-- GAMBLERS_RUIN -->
<g id="node1" class="node"><title>GAMBLERS_RUIN</title>
<a xlink:href="GAMBLERS_RUIN.html" xlink:title="Gamblers ruin" target="_top">
<polyline fill="none" stroke="blue" stroke-width="2" points="211,-36 121,-36 "/>
<path fill="none" stroke="blue" stroke-width="2" d="M121,-36C115,-36 109,-30 109,-24"/>
<polyline fill="none" stroke="blue" stroke-width="2" points="109,-24 109,-12 "/>
<path fill="none" stroke="blue" stroke-width="2" d="M109,-12C109,-6 115,-1.70156e-14 121,-1.62677e-14"/>
<polyline fill="none" stroke="blue" stroke-width="2" points="121,-1.62677e-14 211,-5.04859e-15 "/>
<path fill="none" stroke="blue" stroke-width="2" d="M211,-5.04859e-15C217,-4.30065e-15 223,-6 223,-12"/>
<polyline fill="none" stroke="blue" stroke-width="2" points="223,-12 223,-24 "/>
<path fill="none" stroke="blue" stroke-width="2" d="M223,-24C223,-30 217,-36 211,-36"/>
<text text-anchor="start" x="117" y="-15.2333" font-family="Times Roman,serif" font-size="14.00">Gamblers ruin</text>
</a>
</g>
<!-- DIFFERENCE_EQUATIONS -->
<g id="node2" class="node"><title>DIFFERENCE_EQUATIONS</title>
<a xlink:href="DIFFERENCE_EQUATIONS.html" xlink:title="Difference equations" target="_top">
<polyline fill="none" stroke="black" points="148,-180 12,-180 "/>
<path fill="none" stroke="black" d="M12,-180C6,-180 7.10543e-14,-174 5.68434e-14,-168"/>
<polyline fill="none" stroke="black" points="5.68434e-14,-168 2.84217e-14,-156 "/>
<path fill="none" stroke="black" d="M2.84217e-14,-156C1.42109e-14,-150 6,-144 12,-144"/>
<polyline fill="none" stroke="black" points="12,-144 148,-144 "/>
<path fill="none" stroke="black" d="M148,-144C154,-144 160,-150 160,-156"/>
<polyline fill="none" stroke="black" points="160,-156 160,-168 "/>
<path fill="none" stroke="black" d="M160,-168C160,-174 154,-180 148,-180"/>
<text text-anchor="start" x="8" y="-159.233" font-family="Times Roman,serif" font-size="14.00">Difference equations</text>
</a>
</g>
<!-- DIFFERENCE_EQUATIONS&#45;&gt;GAMBLERS_RUIN -->
<g id="edge2" class="edge"><title>DIFFERENCE_EQUATIONS&#45;&gt;GAMBLERS_RUIN</title>
<path fill="none" stroke="black" d="M80.3118,-143.782C81.408,-124.608 85.389,-94.188 99,-72 106.097,-60.4315 116.594,-50.2734 127.184,-41.9815"/>
<polygon fill="black" stroke="black" points="129.292,-44.7757 135.246,-36.012 125.126,-39.15 129.292,-44.7757"/>
</g>
<!-- LHOPITALS_RULE -->
<g id="node6" class="node"><title>LHOPITALS_RULE</title>
<a xlink:href="LHOPITALS_RULE.html" xlink:title="l&#39;Hopital&#39;s Rule" target="_top">
<polyline fill="none" stroke="black" points="212,-108 120,-108 "/>
<path fill="none" stroke="black" d="M120,-108C114,-108 108,-102 108,-96"/>
<polyline fill="none" stroke="black" points="108,-96 108,-84 "/>
<path fill="none" stroke="black" d="M108,-84C108,-78 114,-72 120,-72"/>
<polyline fill="none" stroke="black" points="120,-72 212,-72 "/>
<path fill="none" stroke="black" d="M212,-72C218,-72 224,-78 224,-84"/>
<polyline fill="none" stroke="black" points="224,-84 224,-96 "/>
<path fill="none" stroke="black" d="M224,-96C224,-102 218,-108 212,-108"/>
<text text-anchor="start" x="116" y="-87.2333" font-family="Times Roman,serif" font-size="14.00">l&#39;Hopital&#39;s Rule</text>
</a>
</g>
<!-- DIFFERENCE_EQUATIONS&#45;&gt;LHOPITALS_RULE -->
<!-- HITTING_PROBABILITIES -->
<g id="node4" class="node"><title>HITTING_PROBABILITIES</title>
<a xlink:href="HITTING_PROBABILITIES.html" xlink:title="Hitting time and hitting probability" target="_top">
<polyline fill="none" stroke="black" points="424,-180 190,-180 "/>
<path fill="none" stroke="black" d="M190,-180C184,-180 178,-174 178,-168"/>
<polyline fill="none" stroke="black" points="178,-168 178,-156 "/>
<path fill="none" stroke="black" d="M178,-156C178,-150 184,-144 190,-144"/>
<polyline fill="none" stroke="black" points="190,-144 424,-144 "/>
<path fill="none" stroke="black" d="M424,-144C430,-144 436,-150 436,-156"/>
<polyline fill="none" stroke="black" points="436,-156 436,-168 "/>
<path fill="none" stroke="black" d="M436,-168C436,-174 430,-180 424,-180"/>
<text text-anchor="start" x="186.5" y="-159.233" font-family="Times Roman,serif" font-size="14.00">Hitting time and hitting probability</text>
</a>
</g>
<!-- HITTING_PROBABILITIES&#45;&gt;GAMBLERS_RUIN -->
<g id="edge4" class="edge"><title>HITTING_PROBABILITIES&#45;&gt;GAMBLERS_RUIN</title>
<path fill="none" stroke="black" d="M293.814,-143.835C279.733,-124.974 256.285,-95.0585 233,-72 222.493,-61.5954 210.096,-51.1643 198.84,-42.2824"/>
<polygon fill="black" stroke="black" points="200.935,-39.4779 190.889,-36.1113 196.643,-45.0077 200.935,-39.4779"/>
</g>
<!-- LHOPITALS_RULE&#45;&gt;GAMBLERS_RUIN -->
<g id="edge6" class="edge"><title>LHOPITALS_RULE&#45;&gt;GAMBLERS_RUIN</title>
<path fill="none" stroke="black" d="M166,-71.8314C166,-64.131 166,-54.9743 166,-46.4166"/>
<polygon fill="black" stroke="black" points="169.5,-46.4132 166,-36.4133 162.5,-46.4133 169.5,-46.4132"/>
</g>
</g>
</svg>
