<?xml version="1.0" encoding="UTF-8" standalone="no"?>
<!DOCTYPE svg PUBLIC "-//W3C//DTD SVG 1.1//EN"
 "http://www.w3.org/Graphics/SVG/1.1/DTD/svg11.dtd">
<!-- Generated by graphviz version 2.28.0 (20110509.1545)
 -->
<!-- Title: _anonymous_0 Pages: 1 -->
<svg width="371pt" height="188pt"
 viewBox="0.00 0.00 371.00 188.00" xmlns="http://www.w3.org/2000/svg" xmlns:xlink="http://www.w3.org/1999/xlink">
<g id="graph1" class="graph" transform="scale(1 1) rotate(0) translate(4 184)">
<title>_anonymous_0</title>
<!-- GAMBLERS_RUIN -->
<g id="node1" class="node"><title>GAMBLERS_RUIN</title>
<a xlink:href="GAMBLERS_RUIN.html" xlink:title="Gamblers ruin" target="_top">
<polyline fill="none" stroke="blue" stroke-width="2" points="182.25,-36 109.75,-36 "/>
<path fill="none" stroke="blue" stroke-width="2" d="M109.75,-36C103.75,-36 97.75,-30 97.75,-24"/>
<polyline fill="none" stroke="blue" stroke-width="2" points="97.75,-24 97.75,-12 "/>
<path fill="none" stroke="blue" stroke-width="2" d="M97.75,-12C97.75,-6 103.75,-0 109.75,-0"/>
<polyline fill="none" stroke="blue" stroke-width="2" points="109.75,-0 182.25,-0 "/>
<path fill="none" stroke="blue" stroke-width="2" d="M182.25,-0C188.25,-0 194.25,-6 194.25,-12"/>
<polyline fill="none" stroke="blue" stroke-width="2" points="194.25,-12 194.25,-24 "/>
<path fill="none" stroke="blue" stroke-width="2" d="M194.25,-24C194.25,-30 188.25,-36 182.25,-36"/>
<text text-anchor="start" x="106" y="-12.5" font-family="Times,serif" font-size="14.00">Gamblers ruin</text>
</a>
</g>
<!-- DIFFERENCE_EQUATIONS -->
<g id="node2" class="node"><title>DIFFERENCE_EQUATIONS</title>
<a xlink:href="DIFFERENCE_EQUATIONS.html" xlink:title="Difference equations" target="_top">
<polyline fill="none" stroke="black" points="120.25,-180 11.75,-180 "/>
<path fill="none" stroke="black" d="M11.75,-180C5.75,-180 -0.25,-174 -0.25,-168"/>
<polyline fill="none" stroke="black" points="-0.25,-168 -0.25,-156 "/>
<path fill="none" stroke="black" d="M-0.25,-156C-0.25,-150 5.75,-144 11.75,-144"/>
<polyline fill="none" stroke="black" points="11.75,-144 120.25,-144 "/>
<path fill="none" stroke="black" d="M120.25,-144C126.25,-144 132.25,-150 132.25,-156"/>
<polyline fill="none" stroke="black" points="132.25,-156 132.25,-168 "/>
<path fill="none" stroke="black" d="M132.25,-168C132.25,-174 126.25,-180 120.25,-180"/>
<text text-anchor="start" x="8" y="-156.5" font-family="Times,serif" font-size="14.00">Difference equations</text>
</a>
</g>
<!-- DIFFERENCE_EQUATIONS&#45;&gt;GAMBLERS_RUIN -->
<g id="edge2" class="edge"><title>DIFFERENCE_EQUATIONS&#45;&gt;GAMBLERS_RUIN</title>
<path fill="none" stroke="black" d="M66.4752,-143.769C67.6914,-124.936 71.7561,-94.4545 85,-72 91.6361,-60.7487 101.514,-50.6707 111.398,-42.401"/>
<polygon fill="black" stroke="black" points="113.6,-45.122 119.265,-36.1686 109.253,-39.6353 113.6,-45.122"/>
</g>
<!-- LHOPITALS_RULE -->
<g id="node6" class="node"><title>LHOPITALS_RULE</title>
<a xlink:href="LHOPITALS_RULE.html" xlink:title="l&#39;Hopital&#39;s Rule" target="_top">
<polyline fill="none" stroke="black" points="185.25,-108 106.75,-108 "/>
<path fill="none" stroke="black" d="M106.75,-108C100.75,-108 94.75,-102 94.75,-96"/>
<polyline fill="none" stroke="black" points="94.75,-96 94.75,-84 "/>
<path fill="none" stroke="black" d="M94.75,-84C94.75,-78 100.75,-72 106.75,-72"/>
<polyline fill="none" stroke="black" points="106.75,-72 185.25,-72 "/>
<path fill="none" stroke="black" d="M185.25,-72C191.25,-72 197.25,-78 197.25,-84"/>
<polyline fill="none" stroke="black" points="197.25,-84 197.25,-96 "/>
<path fill="none" stroke="black" d="M197.25,-96C197.25,-102 191.25,-108 185.25,-108"/>
<text text-anchor="start" x="103" y="-84.5" font-family="Times,serif" font-size="14.00">l&#39;Hopital&#39;s Rule</text>
</a>
</g>
<!-- DIFFERENCE_EQUATIONS&#45;&gt;LHOPITALS_RULE -->
<!-- HITTING_PROBABILITIES -->
<g id="node4" class="node"><title>HITTING_PROBABILITIES</title>
<a xlink:href="HITTING_PROBABILITIES.html" xlink:title="Hitting time and hitting probability" target="_top">
<polyline fill="none" stroke="black" points="351.25,-180 162.75,-180 "/>
<path fill="none" stroke="black" d="M162.75,-180C156.75,-180 150.75,-174 150.75,-168"/>
<polyline fill="none" stroke="black" points="150.75,-168 150.75,-156 "/>
<path fill="none" stroke="black" d="M150.75,-156C150.75,-150 156.75,-144 162.75,-144"/>
<polyline fill="none" stroke="black" points="162.75,-144 351.25,-144 "/>
<path fill="none" stroke="black" d="M351.25,-144C357.25,-144 363.25,-150 363.25,-156"/>
<polyline fill="none" stroke="black" points="363.25,-156 363.25,-168 "/>
<path fill="none" stroke="black" d="M363.25,-168C363.25,-174 357.25,-180 351.25,-180"/>
<text text-anchor="start" x="159" y="-156.5" font-family="Times,serif" font-size="14.00">Hitting time and hitting probability</text>
</a>
</g>
<!-- HITTING_PROBABILITIES&#45;&gt;GAMBLERS_RUIN -->
<g id="edge4" class="edge"><title>HITTING_PROBABILITIES&#45;&gt;GAMBLERS_RUIN</title>
<path fill="none" stroke="black" d="M249.286,-143.892C240.384,-125.166 224.563,-94.7776 206,-72 197.409,-61.4585 186.62,-51.2328 176.569,-42.6214"/>
<polygon fill="black" stroke="black" points="178.646,-39.7963 168.722,-36.0861 174.166,-45.1752 178.646,-39.7963"/>
</g>
<!-- LHOPITALS_RULE&#45;&gt;GAMBLERS_RUIN -->
<g id="edge6" class="edge"><title>LHOPITALS_RULE&#45;&gt;GAMBLERS_RUIN</title>
<path fill="none" stroke="black" d="M146,-71.6966C146,-63.9827 146,-54.7125 146,-46.1124"/>
<polygon fill="black" stroke="black" points="149.5,-46.1043 146,-36.1043 142.5,-46.1044 149.5,-46.1043"/>
</g>
</g>
</svg>
