<?xml version="1.0" encoding="UTF-8" standalone="no"?>
<!DOCTYPE svg PUBLIC "-//W3C//DTD SVG 1.1//EN"
 "http://www.w3.org/Graphics/SVG/1.1/DTD/svg11.dtd">
<!-- Generated by graphviz version 2.36.0 (20140111.2315)
 -->
<!-- Title: %3 Pages: 1 -->
<svg width="356pt" height="188pt"
 viewBox="0.00 0.00 356.00 188.00" xmlns="http://www.w3.org/2000/svg" xmlns:xlink="http://www.w3.org/1999/xlink">
<g id="graph0" class="graph" transform="scale(1 1) rotate(0) translate(4 184)">
<title>%3</title>
<!-- GAMBLERS_RUIN -->
<g id="node1" class="node"><title>GAMBLERS_RUIN</title>
<g id="a_node1"><a xlink:href="GAMBLERS_RUIN.html" xlink:title=" Gamblers ruin " target="_top">
<path fill="none" stroke="blue" stroke-width="2" d="M237.25,-36C237.25,-36 158.75,-36 158.75,-36 152.75,-36 146.75,-30 146.75,-24 146.75,-24 146.75,-12 146.75,-12 146.75,-6 152.75,-0 158.75,-0 158.75,-0 237.25,-0 237.25,-0 243.25,-0 249.25,-6 249.25,-12 249.25,-12 249.25,-24 249.25,-24 249.25,-30 243.25,-36 237.25,-36"/>
<text text-anchor="start" x="154.5" y="-14.3" font-family="Times,serif" font-size="14.00"> Gamblers ruin </text>
</a>
</g>
</g>
<!-- HITTING_PROBABILITIES -->
<g id="node2" class="node"><title>HITTING_PROBABILITIES</title>
<g id="a_node2"><a xlink:href="HITTING_PROBABILITIES.html" xlink:title=" Hitting time and hitting probability " target="_top">
<path fill="none" stroke="black" d="M204,-180C204,-180 12,-180 12,-180 6,-180 0,-174 0,-168 0,-168 0,-156 0,-156 0,-150 6,-144 12,-144 12,-144 204,-144 204,-144 210,-144 216,-150 216,-156 216,-156 216,-168 216,-168 216,-174 210,-180 204,-180"/>
<text text-anchor="start" x="8" y="-158.3" font-family="Times,serif" font-size="14.00"> Hitting time and hitting probability </text>
</a>
</g>
</g>
<!-- HITTING_PROBABILITIES&#45;&gt;GAMBLERS_RUIN -->
<g id="edge1" class="edge"><title>HITTING_PROBABILITIES&#45;&gt;GAMBLERS_RUIN</title>
<path fill="none" stroke="black" d="M106.358,-143.895C105.381,-124.898 106.384,-94.0103 120,-72 127.624,-59.6758 139.301,-49.5378 151.317,-41.5476"/>
<polygon fill="black" stroke="black" points="153.425,-44.3583 160.073,-36.1086 149.731,-38.4121 153.425,-44.3583"/>
</g>
<!-- DIFFERENCE_EQUATIONS -->
<g id="node4" class="node"><title>DIFFERENCE_EQUATIONS</title>
<g id="a_node4"><a xlink:href="DIFFERENCE_EQUATIONS.html" xlink:title=" Difference equations " target="_top">
<path fill="none" stroke="black" d="M254.25,-108C254.25,-108 141.75,-108 141.75,-108 135.75,-108 129.75,-102 129.75,-96 129.75,-96 129.75,-84 129.75,-84 129.75,-78 135.75,-72 141.75,-72 141.75,-72 254.25,-72 254.25,-72 260.25,-72 266.25,-78 266.25,-84 266.25,-84 266.25,-96 266.25,-96 266.25,-102 260.25,-108 254.25,-108"/>
<text text-anchor="start" x="137.5" y="-86.3" font-family="Times,serif" font-size="14.00"> Difference equations </text>
</a>
</g>
</g>
<!-- HITTING_PROBABILITIES&#45;&gt;DIFFERENCE_EQUATIONS -->
<!-- LHOPITALS_RULE -->
<g id="node3" class="node"><title>LHOPITALS_RULE</title>
<g id="a_node3"><a xlink:href="LHOPITALS_RULE.html" xlink:title=" l&#39;Hopital&#39;s Rule " target="_top">
<path fill="none" stroke="black" d="M336.25,-180C336.25,-180 253.75,-180 253.75,-180 247.75,-180 241.75,-174 241.75,-168 241.75,-168 241.75,-156 241.75,-156 241.75,-150 247.75,-144 253.75,-144 253.75,-144 336.25,-144 336.25,-144 342.25,-144 348.25,-150 348.25,-156 348.25,-156 348.25,-168 348.25,-168 348.25,-174 342.25,-180 336.25,-180"/>
<text text-anchor="start" x="249.5" y="-158.3" font-family="Times,serif" font-size="14.00"> l&#39;Hopital&#39;s Rule </text>
</a>
</g>
</g>
<!-- LHOPITALS_RULE&#45;&gt;GAMBLERS_RUIN -->
<g id="edge2" class="edge"><title>LHOPITALS_RULE&#45;&gt;GAMBLERS_RUIN</title>
<path fill="none" stroke="black" d="M294.782,-143.809C293.762,-124.735 289.724,-93.7785 275,-72 266.808,-59.8833 254.841,-49.7292 242.771,-41.6576"/>
<polygon fill="black" stroke="black" points="244.346,-38.5129 234.018,-36.1499 240.618,-44.4378 244.346,-38.5129"/>
</g>
<!-- DIFFERENCE_EQUATIONS&#45;&gt;GAMBLERS_RUIN -->
<g id="edge3" class="edge"><title>DIFFERENCE_EQUATIONS&#45;&gt;GAMBLERS_RUIN</title>
<path fill="none" stroke="black" d="M198,-71.6966C198,-63.9827 198,-54.7125 198,-46.1124"/>
<polygon fill="black" stroke="black" points="201.5,-46.1043 198,-36.1043 194.5,-46.1044 201.5,-46.1043"/>
</g>
</g>
</svg>
