<?xml version="1.0" encoding="UTF-8" standalone="no"?>
<!DOCTYPE svg PUBLIC "-//W3C//DTD SVG 1.1//EN"
 "http://www.w3.org/Graphics/SVG/1.1/DTD/svg11.dtd">
<!-- Generated by graphviz version 2.26.3 (20100126.1600)
 -->
<!-- Title: _anonymous_0 Pages: 1 -->
<svg width="462pt" height="188pt"
 viewBox="0.00 0.00 462.00 188.00" xmlns="http://www.w3.org/2000/svg" xmlns:xlink="http://www.w3.org/1999/xlink">
<g id="graph1" class="graph" transform="scale(1 1) rotate(0) translate(4 184)">
<title>_anonymous_0</title>
<!-- GAMBLERS_RUIN -->
<g id="node1" class="node"><title>GAMBLERS_RUIN</title>
<a xlink:href="GAMBLERS_RUIN.html" xlink:title=" Gamblers ruin " target="_top">
<polyline fill="none" stroke="blue" stroke-width="2" points="274,-36 174,-36 "/>
<path fill="none" stroke="blue" stroke-width="2" d="M174,-36C168,-36 162,-30 162,-24"/>
<polyline fill="none" stroke="blue" stroke-width="2" points="162,-24 162,-12 "/>
<path fill="none" stroke="blue" stroke-width="2" d="M162,-12C162,-6 168,-1.70759e-14 174,-1.63883e-14"/>
<polyline fill="none" stroke="blue" stroke-width="2" points="174,-1.63883e-14 274,-4.92796e-15 "/>
<path fill="none" stroke="blue" stroke-width="2" d="M274,-4.92796e-15C280,-4.24034e-15 286,-6 286,-12"/>
<polyline fill="none" stroke="blue" stroke-width="2" points="286,-12 286,-24 "/>
<path fill="none" stroke="blue" stroke-width="2" d="M286,-24C286,-30 280,-36 274,-36"/>
<text text-anchor="start" x="170.5" y="-15.2333" font-family="Times Roman,serif" font-size="14.00"> Gamblers ruin </text>
</a>
</g>
<!-- HITTING_PROBABILITIES -->
<g id="node2" class="node"><title>HITTING_PROBABILITIES</title>
<a xlink:href="HITTING_PROBABILITIES.html" xlink:title=" Hitting time and hitting probability " target="_top">
<polyline fill="none" stroke="black" points="254,-180 12,-180 "/>
<path fill="none" stroke="black" d="M12,-180C6,-180 9.4739e-14,-174 7.57912e-14,-168"/>
<polyline fill="none" stroke="black" points="7.57912e-14,-168 3.78956e-14,-156 "/>
<path fill="none" stroke="black" d="M3.78956e-14,-156C1.89478e-14,-150 6,-144 12,-144"/>
<polyline fill="none" stroke="black" points="12,-144 254,-144 "/>
<path fill="none" stroke="black" d="M254,-144C260,-144 266,-150 266,-156"/>
<polyline fill="none" stroke="black" points="266,-156 266,-168 "/>
<path fill="none" stroke="black" d="M266,-168C266,-174 260,-180 254,-180"/>
<text text-anchor="start" x="8" y="-159.233" font-family="Times Roman,serif" font-size="14.00"> Hitting time and hitting probability </text>
</a>
</g>
<!-- HITTING_PROBABILITIES&#45;&gt;GAMBLERS_RUIN -->
<g id="edge2" class="edge"><title>HITTING_PROBABILITIES&#45;&gt;GAMBLERS_RUIN</title>
<path fill="none" stroke="black" d="M133.159,-143.686C134.128,-124.433 138.004,-93.9474 152,-72 159.498,-60.242 170.519,-50.119 181.696,-41.9201"/>
<polygon fill="black" stroke="black" points="183.981,-44.5954 190.217,-36.0302 180,-38.8371 183.981,-44.5954"/>
</g>
<!-- LHOPITALS_RULE -->
<g id="node6" class="node"><title>LHOPITALS_RULE</title>
<a xlink:href="LHOPITALS_RULE.html" xlink:title=" l&#39;Hopital&#39;s Rule " target="_top">
<polyline fill="none" stroke="black" points="275,-108 173,-108 "/>
<path fill="none" stroke="black" d="M173,-108C167,-108 161,-102 161,-96"/>
<polyline fill="none" stroke="black" points="161,-96 161,-84 "/>
<path fill="none" stroke="black" d="M161,-84C161,-78 167,-72 173,-72"/>
<polyline fill="none" stroke="black" points="173,-72 275,-72 "/>
<path fill="none" stroke="black" d="M275,-72C281,-72 287,-78 287,-84"/>
<polyline fill="none" stroke="black" points="287,-84 287,-96 "/>
<path fill="none" stroke="black" d="M287,-96C287,-102 281,-108 275,-108"/>
<text text-anchor="start" x="169.5" y="-87.2333" font-family="Times Roman,serif" font-size="14.00"> l&#39;Hopital&#39;s Rule </text>
</a>
</g>
<!-- HITTING_PROBABILITIES&#45;&gt;LHOPITALS_RULE -->
<!-- DIFFERENCE_EQUATIONS -->
<g id="node4" class="node"><title>DIFFERENCE_EQUATIONS</title>
<a xlink:href="DIFFERENCE_EQUATIONS.html" xlink:title=" Difference equations " target="_top">
<polyline fill="none" stroke="black" points="442,-180 296,-180 "/>
<path fill="none" stroke="black" d="M296,-180C290,-180 284,-174 284,-168"/>
<polyline fill="none" stroke="black" points="284,-168 284,-156 "/>
<path fill="none" stroke="black" d="M284,-156C284,-150 290,-144 296,-144"/>
<polyline fill="none" stroke="black" points="296,-144 442,-144 "/>
<path fill="none" stroke="black" d="M442,-144C448,-144 454,-150 454,-156"/>
<polyline fill="none" stroke="black" points="454,-156 454,-168 "/>
<path fill="none" stroke="black" d="M454,-168C454,-174 448,-180 442,-180"/>
<text text-anchor="start" x="292.5" y="-159.233" font-family="Times Roman,serif" font-size="14.00"> Difference equations </text>
</a>
</g>
<!-- DIFFERENCE_EQUATIONS&#45;&gt;GAMBLERS_RUIN -->
<g id="edge4" class="edge"><title>DIFFERENCE_EQUATIONS&#45;&gt;GAMBLERS_RUIN</title>
<path fill="none" stroke="black" d="M356.198,-143.651C342.476,-124.641 319.48,-94.6044 296,-72 284.842,-61.2581 271.53,-50.7386 259.405,-41.88"/>
<polygon fill="black" stroke="black" points="261.409,-39.0099 251.242,-36.03 257.331,-44.6998 261.409,-39.0099"/>
</g>
<!-- LHOPITALS_RULE&#45;&gt;GAMBLERS_RUIN -->
<g id="edge6" class="edge"><title>LHOPITALS_RULE&#45;&gt;GAMBLERS_RUIN</title>
<path fill="none" stroke="black" d="M224,-71.8314C224,-64.131 224,-54.9743 224,-46.4166"/>
<polygon fill="black" stroke="black" points="227.5,-46.4132 224,-36.4133 220.5,-46.4133 227.5,-46.4132"/>
</g>
</g>
</svg>
