<?xml version="1.0" encoding="UTF-8" standalone="no"?>
<!DOCTYPE svg PUBLIC "-//W3C//DTD SVG 1.1//EN"
 "http://www.w3.org/Graphics/SVG/1.1/DTD/svg11.dtd">
<!-- Generated by graphviz version 2.26.3 (20100126.1600)
 -->
<!-- Title: _anonymous_0 Pages: 1 -->
<svg width="389pt" height="188pt"
 viewBox="0.00 0.00 388.96 188.00" xmlns="http://www.w3.org/2000/svg" xmlns:xlink="http://www.w3.org/1999/xlink">
<g id="graph1" class="graph" transform="scale(1 1) rotate(0) translate(4 184)">
<title>_anonymous_0</title>
<!-- GAMBLERS_RUIN -->
<g id="node1" class="node"><title>GAMBLERS_RUIN</title>
<a xlink:href="GAMBLERS_RUIN.html" xlink:title="Gamblers ruin" target="_top">
<polyline fill="none" stroke="blue" stroke-width="2" points="188.961,-36 98.9612,-36 "/>
<path fill="none" stroke="blue" stroke-width="2" d="M98.9612,-36C92.9612,-36 86.9612,-30 86.9612,-24"/>
<polyline fill="none" stroke="blue" stroke-width="2" points="86.9612,-24 86.9612,-12 "/>
<path fill="none" stroke="blue" stroke-width="2" d="M86.9612,-12C86.9612,-6 92.9612,-1.70156e-14 98.9612,-1.62677e-14"/>
<polyline fill="none" stroke="blue" stroke-width="2" points="98.9612,-1.62677e-14 188.961,-5.04859e-15 "/>
<path fill="none" stroke="blue" stroke-width="2" d="M188.961,-5.04859e-15C194.961,-4.30065e-15 200.961,-6 200.961,-12"/>
<polyline fill="none" stroke="blue" stroke-width="2" points="200.961,-12 200.961,-24 "/>
<path fill="none" stroke="blue" stroke-width="2" d="M200.961,-24C200.961,-30 194.961,-36 188.961,-36"/>
<text text-anchor="start" x="94.9612" y="-15.2333" font-family="Times Roman,serif" font-size="14.00">Gamblers ruin</text>
</a>
</g>
<!-- LHOPITALS_RULE -->
<g id="node2" class="node"><title>LHOPITALS_RULE</title>
<a xlink:href="LHOPITALS_RULE.html" xlink:title="l&#39;Hopital&#39;s Rule" target="_top">
<polyline fill="none" stroke="black" points="110.961,-180 18.9612,-180 "/>
<path fill="none" stroke="black" d="M18.9612,-180C12.9612,-180 6.96124,-174 6.96124,-168"/>
<polyline fill="none" stroke="black" points="6.96124,-168 6.96124,-156 "/>
<path fill="none" stroke="black" d="M6.96124,-156C6.96124,-150 12.9612,-144 18.9612,-144"/>
<polyline fill="none" stroke="black" points="18.9612,-144 110.961,-144 "/>
<path fill="none" stroke="black" d="M110.961,-144C116.961,-144 122.961,-150 122.961,-156"/>
<polyline fill="none" stroke="black" points="122.961,-156 122.961,-168 "/>
<path fill="none" stroke="black" d="M122.961,-168C122.961,-174 116.961,-180 110.961,-180"/>
<text text-anchor="start" x="14.9612" y="-159.233" font-family="Times Roman,serif" font-size="14.00">l&#39;Hopital&#39;s Rule</text>
</a>
</g>
<!-- LHOPITALS_RULE&#45;&gt;GAMBLERS_RUIN -->
<g id="edge2" class="edge"><title>LHOPITALS_RULE&#45;&gt;GAMBLERS_RUIN</title>
<path fill="none" stroke="black" d="M36.5293,-143.96C24.7385,-134.78 12.3408,-122.487 5.96124,-108 -0.486997,-93.3569 -3.05857,-85.2153 5.96124,-72 14.7623,-59.1052 46.2346,-46.3001 76.904,-36.3978"/>
<polygon fill="black" stroke="black" points="78.3121,-39.6242 86.8037,-33.2883 76.2144,-32.9458 78.3121,-39.6242"/>
</g>
<!-- HITTING_PROBABILITIES -->
<g id="node6" class="node"><title>HITTING_PROBABILITIES</title>
<a xlink:href="HITTING_PROBABILITIES.html" xlink:title="Hitting time and hitting probability" target="_top">
<polyline fill="none" stroke="black" points="260.961,-108 26.9612,-108 "/>
<path fill="none" stroke="black" d="M26.9612,-108C20.9612,-108 14.9612,-102 14.9612,-96"/>
<polyline fill="none" stroke="black" points="14.9612,-96 14.9612,-84 "/>
<path fill="none" stroke="black" d="M14.9612,-84C14.9612,-78 20.9612,-72 26.9612,-72"/>
<polyline fill="none" stroke="black" points="26.9612,-72 260.961,-72 "/>
<path fill="none" stroke="black" d="M260.961,-72C266.961,-72 272.961,-78 272.961,-84"/>
<polyline fill="none" stroke="black" points="272.961,-84 272.961,-96 "/>
<path fill="none" stroke="black" d="M272.961,-96C272.961,-102 266.961,-108 260.961,-108"/>
<text text-anchor="start" x="23.4612" y="-87.2333" font-family="Times Roman,serif" font-size="14.00">Hitting time and hitting probability</text>
</a>
</g>
<!-- LHOPITALS_RULE&#45;&gt;HITTING_PROBABILITIES -->
<!-- DIFFERENCE_EQUATIONS -->
<g id="node4" class="node"><title>DIFFERENCE_EQUATIONS</title>
<a xlink:href="DIFFERENCE_EQUATIONS.html" xlink:title="Difference equations" target="_top">
<polyline fill="none" stroke="black" points="368.961,-180 232.961,-180 "/>
<path fill="none" stroke="black" d="M232.961,-180C226.961,-180 220.961,-174 220.961,-168"/>
<polyline fill="none" stroke="black" points="220.961,-168 220.961,-156 "/>
<path fill="none" stroke="black" d="M220.961,-156C220.961,-150 226.961,-144 232.961,-144"/>
<polyline fill="none" stroke="black" points="232.961,-144 368.961,-144 "/>
<path fill="none" stroke="black" d="M368.961,-144C374.961,-144 380.961,-150 380.961,-156"/>
<polyline fill="none" stroke="black" points="380.961,-156 380.961,-168 "/>
<path fill="none" stroke="black" d="M380.961,-168C380.961,-174 374.961,-180 368.961,-180"/>
<text text-anchor="start" x="228.961" y="-159.233" font-family="Times Roman,serif" font-size="14.00">Difference equations</text>
</a>
</g>
<!-- DIFFERENCE_EQUATIONS&#45;&gt;GAMBLERS_RUIN -->
<g id="edge4" class="edge"><title>DIFFERENCE_EQUATIONS&#45;&gt;GAMBLERS_RUIN</title>
<path fill="none" stroke="black" d="M301.922,-143.95C302,-124.063 299.098,-92.2252 281.961,-72 263.969,-50.7658 236.54,-37.8349 210.863,-29.9816"/>
<polygon fill="black" stroke="black" points="211.707,-26.5829 201.131,-27.2136 209.792,-33.3159 211.707,-26.5829"/>
</g>
<!-- HITTING_PROBABILITIES&#45;&gt;GAMBLERS_RUIN -->
<g id="edge6" class="edge"><title>HITTING_PROBABILITIES&#45;&gt;GAMBLERS_RUIN</title>
<path fill="none" stroke="black" d="M143.961,-71.8314C143.961,-64.131 143.961,-54.9743 143.961,-46.4166"/>
<polygon fill="black" stroke="black" points="147.461,-46.4132 143.961,-36.4133 140.461,-46.4133 147.461,-46.4132"/>
</g>
</g>
</svg>
