<?xml version="1.0" encoding="UTF-8" standalone="no"?>
<!DOCTYPE svg PUBLIC "-//W3C//DTD SVG 1.1//EN"
 "http://www.w3.org/Graphics/SVG/1.1/DTD/svg11.dtd">
<!-- Generated by graphviz version 2.36.0 (20140111.2315)
 -->
<!-- Title: %3 Pages: 1 -->
<svg width="379pt" height="188pt"
 viewBox="0.00 0.00 379.00 188.00" xmlns="http://www.w3.org/2000/svg" xmlns:xlink="http://www.w3.org/1999/xlink">
<g id="graph0" class="graph" transform="scale(1 1) rotate(0) translate(4 184)">
<title>%3</title>
<!-- GAMBLERS_RUIN -->
<g id="node1" class="node"><title>GAMBLERS_RUIN</title>
<g id="a_node1"><a xlink:href="GAMBLERS_RUIN.html" xlink:title=" Gamblers ruin " target="_top">
<path fill="none" stroke="blue" stroke-width="2" d="M229.25,-36C229.25,-36 150.75,-36 150.75,-36 144.75,-36 138.75,-30 138.75,-24 138.75,-24 138.75,-12 138.75,-12 138.75,-6 144.75,-0 150.75,-0 150.75,-0 229.25,-0 229.25,-0 235.25,-0 241.25,-6 241.25,-12 241.25,-12 241.25,-24 241.25,-24 241.25,-30 235.25,-36 229.25,-36"/>
<text text-anchor="start" x="146.5" y="-14.3" font-family="Times,serif" font-size="14.00"> Gamblers ruin </text>
</a>
</g>
</g>
<!-- HITTING_PROBABILITIES -->
<g id="node2" class="node"><title>HITTING_PROBABILITIES</title>
<g id="a_node2"><a xlink:href="HITTING_PROBABILITIES.html" xlink:title=" Hitting time and hitting probability " target="_top">
<path fill="none" stroke="black" d="M204,-180C204,-180 12,-180 12,-180 6,-180 0,-174 0,-168 0,-168 0,-156 0,-156 0,-150 6,-144 12,-144 12,-144 204,-144 204,-144 210,-144 216,-150 216,-156 216,-156 216,-168 216,-168 216,-174 210,-180 204,-180"/>
<text text-anchor="start" x="8" y="-158.3" font-family="Times,serif" font-size="14.00"> Hitting time and hitting probability </text>
</a>
</g>
</g>
<!-- HITTING_PROBABILITIES&#45;&gt;GAMBLERS_RUIN -->
<g id="edge1" class="edge"><title>HITTING_PROBABILITIES&#45;&gt;GAMBLERS_RUIN</title>
<path fill="none" stroke="black" d="M108.408,-143.729C109.565,-124.861 113.578,-94.3483 127,-72 133.794,-60.6879 143.881,-50.642 154.002,-42.4202"/>
<polygon fill="black" stroke="black" points="156.266,-45.0951 162.065,-36.2281 152.002,-39.5435 156.266,-45.0951"/>
</g>
<!-- LHOPITALS_RULE -->
<g id="node4" class="node"><title>LHOPITALS_RULE</title>
<g id="a_node4"><a xlink:href="LHOPITALS_RULE.html" xlink:title=" l&#39;Hopital&#39;s Rule " target="_top">
<path fill="none" stroke="black" d="M231.25,-108C231.25,-108 148.75,-108 148.75,-108 142.75,-108 136.75,-102 136.75,-96 136.75,-96 136.75,-84 136.75,-84 136.75,-78 142.75,-72 148.75,-72 148.75,-72 231.25,-72 231.25,-72 237.25,-72 243.25,-78 243.25,-84 243.25,-84 243.25,-96 243.25,-96 243.25,-102 237.25,-108 231.25,-108"/>
<text text-anchor="start" x="144.5" y="-86.3" font-family="Times,serif" font-size="14.00"> l&#39;Hopital&#39;s Rule </text>
</a>
</g>
</g>
<!-- HITTING_PROBABILITIES&#45;&gt;LHOPITALS_RULE -->
<!-- DIFFERENCE_EQUATIONS -->
<g id="node3" class="node"><title>DIFFERENCE_EQUATIONS</title>
<g id="a_node3"><a xlink:href="DIFFERENCE_EQUATIONS.html" xlink:title=" Difference equations " target="_top">
<path fill="none" stroke="black" d="M359.25,-180C359.25,-180 246.75,-180 246.75,-180 240.75,-180 234.75,-174 234.75,-168 234.75,-168 234.75,-156 234.75,-156 234.75,-150 240.75,-144 246.75,-144 246.75,-144 359.25,-144 359.25,-144 365.25,-144 371.25,-150 371.25,-156 371.25,-156 371.25,-168 371.25,-168 371.25,-174 365.25,-180 359.25,-180"/>
<text text-anchor="start" x="242.5" y="-158.3" font-family="Times,serif" font-size="14.00"> Difference equations </text>
</a>
</g>
</g>
<!-- DIFFERENCE_EQUATIONS&#45;&gt;GAMBLERS_RUIN -->
<g id="edge2" class="edge"><title>DIFFERENCE_EQUATIONS&#45;&gt;GAMBLERS_RUIN</title>
<path fill="none" stroke="black" d="M295.355,-143.835C286.515,-125.058 270.748,-94.6262 252,-72 243.231,-61.4171 232.2,-51.2408 221.882,-42.6839"/>
<polygon fill="black" stroke="black" points="223.801,-39.7359 213.817,-36.1918 219.412,-45.1888 223.801,-39.7359"/>
</g>
<!-- LHOPITALS_RULE&#45;&gt;GAMBLERS_RUIN -->
<g id="edge3" class="edge"><title>LHOPITALS_RULE&#45;&gt;GAMBLERS_RUIN</title>
<path fill="none" stroke="black" d="M190,-71.6966C190,-63.9827 190,-54.7125 190,-46.1124"/>
<polygon fill="black" stroke="black" points="193.5,-46.1043 190,-36.1043 186.5,-46.1044 193.5,-46.1043"/>
</g>
</g>
</svg>
