<?xml version="1.0" encoding="UTF-8" standalone="no"?>
<!DOCTYPE svg PUBLIC "-//W3C//DTD SVG 1.1//EN"
 "http://www.w3.org/Graphics/SVG/1.1/DTD/svg11.dtd">
<!-- Generated by graphviz version 2.28.0 (20110509.1545)
 -->
<!-- Title: _anonymous_0 Pages: 1 -->
<svg width="187pt" height="116pt"
 viewBox="0.00 0.00 187.00 116.00" xmlns="http://www.w3.org/2000/svg" xmlns:xlink="http://www.w3.org/1999/xlink">
<g id="graph1" class="graph" transform="scale(1 1) rotate(0) translate(4 112)">
<title>_anonymous_0</title>
<!-- GAMBLERS_RUIN_FAIR_GAME -->
<g id="node1" class="node"><title>GAMBLERS_RUIN_FAIR_GAME</title>
<a xlink:href="GAMBLERS_RUIN_FAIR_GAME.html" xlink:title="TITLE:" target="_top">
<polyline fill="none" stroke="blue" stroke-width="2" points="95.25,-36 60.75,-36 "/>
<path fill="none" stroke="blue" stroke-width="2" d="M60.75,-36C54.75,-36 48.75,-30 48.75,-24"/>
<polyline fill="none" stroke="blue" stroke-width="2" points="48.75,-24 48.75,-12 "/>
<path fill="none" stroke="blue" stroke-width="2" d="M48.75,-12C48.75,-6 54.75,-0 60.75,-0"/>
<polyline fill="none" stroke="blue" stroke-width="2" points="60.75,-0 95.25,-0 "/>
<path fill="none" stroke="blue" stroke-width="2" d="M95.25,-0C101.25,-0 107.25,-6 107.25,-12"/>
<polyline fill="none" stroke="blue" stroke-width="2" points="107.25,-12 107.25,-24 "/>
<path fill="none" stroke="blue" stroke-width="2" d="M107.25,-24C107.25,-30 101.25,-36 95.25,-36"/>
<text text-anchor="start" x="57" y="-12.5" font-family="Times,serif" font-size="14.00">TITLE:</text>
</a>
</g>
<!-- GAMBLERS_RUIN -->
<g id="node2" class="node"><title>GAMBLERS_RUIN</title>
<a xlink:href="GAMBLERS_RUIN.html" xlink:title="TITLE:" target="_top">
<polyline fill="none" stroke="black" points="46.25,-108 11.75,-108 "/>
<path fill="none" stroke="black" d="M11.75,-108C5.75,-108 -0.25,-102 -0.25,-96"/>
<polyline fill="none" stroke="black" points="-0.25,-96 -0.25,-84 "/>
<path fill="none" stroke="black" d="M-0.25,-84C-0.25,-78 5.75,-72 11.75,-72"/>
<polyline fill="none" stroke="black" points="11.75,-72 46.25,-72 "/>
<path fill="none" stroke="black" d="M46.25,-72C52.25,-72 58.25,-78 58.25,-84"/>
<polyline fill="none" stroke="black" points="58.25,-84 58.25,-96 "/>
<path fill="none" stroke="black" d="M58.25,-96C58.25,-102 52.25,-108 46.25,-108"/>
<text text-anchor="start" x="8" y="-84.5" font-family="Times,serif" font-size="14.00">TITLE:</text>
</a>
</g>
<!-- GAMBLERS_RUIN&#45;&gt;GAMBLERS_RUIN_FAIR_GAME -->
<g id="edge2" class="edge"><title>GAMBLERS_RUIN&#45;&gt;GAMBLERS_RUIN_FAIR_GAME</title>
<path fill="none" stroke="black" d="M41.1124,-71.6966C46.8681,-63.4741 53.8617,-53.4832 60.2055,-44.4207"/>
<polygon fill="black" stroke="black" points="63.1596,-46.3038 66.027,-36.1043 57.425,-42.2895 63.1596,-46.3038"/>
</g>
<!-- LHOPITALS_RULE -->
<g id="node4" class="node"><title>LHOPITALS_RULE</title>
<a xlink:href="LHOPITALS_RULE.html" xlink:title="l&#39;Hopital&#39;s Rule" target="_top">
<polyline fill="none" stroke="black" points="167.25,-108 88.75,-108 "/>
<path fill="none" stroke="black" d="M88.75,-108C82.75,-108 76.75,-102 76.75,-96"/>
<polyline fill="none" stroke="black" points="76.75,-96 76.75,-84 "/>
<path fill="none" stroke="black" d="M76.75,-84C76.75,-78 82.75,-72 88.75,-72"/>
<polyline fill="none" stroke="black" points="88.75,-72 167.25,-72 "/>
<path fill="none" stroke="black" d="M167.25,-72C173.25,-72 179.25,-78 179.25,-84"/>
<polyline fill="none" stroke="black" points="179.25,-84 179.25,-96 "/>
<path fill="none" stroke="black" d="M179.25,-96C179.25,-102 173.25,-108 167.25,-108"/>
<text text-anchor="start" x="85" y="-84.5" font-family="Times,serif" font-size="14.00">l&#39;Hopital&#39;s Rule</text>
</a>
</g>
<!-- LHOPITALS_RULE&#45;&gt;GAMBLERS_RUIN_FAIR_GAME -->
<g id="edge4" class="edge"><title>LHOPITALS_RULE&#45;&gt;GAMBLERS_RUIN_FAIR_GAME</title>
<path fill="none" stroke="black" d="M115.64,-71.6966C109.767,-63.4741 102.631,-53.4832 96.1576,-44.4207"/>
<polygon fill="black" stroke="black" points="98.8779,-42.2073 90.2174,-36.1043 93.1817,-46.276 98.8779,-42.2073"/>
</g>
</g>
</svg>
