<?xml version="1.0" encoding="UTF-8" standalone="no"?>
<!DOCTYPE svg PUBLIC "-//W3C//DTD SVG 1.1//EN"
 "http://www.w3.org/Graphics/SVG/1.1/DTD/svg11.dtd">
<!-- Generated by graphviz version 2.28.0 (20110509.1545)
 -->
<!-- Title: _anonymous_0 Pages: 1 -->
<svg width="371pt" height="188pt"
 viewBox="0.00 0.00 371.00 188.00" xmlns="http://www.w3.org/2000/svg" xmlns:xlink="http://www.w3.org/1999/xlink">
<g id="graph1" class="graph" transform="scale(1 1) rotate(0) translate(4 184)">
<title>_anonymous_0</title>
<!-- GAMBLERS_RUIN -->
<g id="node1" class="node"><title>GAMBLERS_RUIN</title>
<a xlink:href="GAMBLERS_RUIN.html" xlink:title="TITLE:" target="_top">
<polyline fill="none" stroke="blue" stroke-width="2" points="178.25,-108 143.75,-108 "/>
<path fill="none" stroke="blue" stroke-width="2" d="M143.75,-108C137.75,-108 131.75,-102 131.75,-96"/>
<polyline fill="none" stroke="blue" stroke-width="2" points="131.75,-96 131.75,-84 "/>
<path fill="none" stroke="blue" stroke-width="2" d="M131.75,-84C131.75,-78 137.75,-72 143.75,-72"/>
<polyline fill="none" stroke="blue" stroke-width="2" points="143.75,-72 178.25,-72 "/>
<path fill="none" stroke="blue" stroke-width="2" d="M178.25,-72C184.25,-72 190.25,-78 190.25,-84"/>
<polyline fill="none" stroke="blue" stroke-width="2" points="190.25,-84 190.25,-96 "/>
<path fill="none" stroke="blue" stroke-width="2" d="M190.25,-96C190.25,-102 184.25,-108 178.25,-108"/>
<text text-anchor="start" x="140" y="-84.5" font-family="Times,serif" font-size="14.00">TITLE:</text>
</a>
</g>
<!-- GAMBLERS_RUIN_FAIR_GAME -->
<g id="node4" class="node"><title>GAMBLERS_RUIN_FAIR_GAME</title>
<a xlink:href="GAMBLERS_RUIN_FAIR_GAME.html" xlink:title="TITLE:" target="_top">
<polyline fill="none" stroke="black" points="129.25,-36 94.75,-36 "/>
<path fill="none" stroke="black" d="M94.75,-36C88.75,-36 82.75,-30 82.75,-24"/>
<polyline fill="none" stroke="black" points="82.75,-24 82.75,-12 "/>
<path fill="none" stroke="black" d="M82.75,-12C82.75,-6 88.75,-0 94.75,-0"/>
<polyline fill="none" stroke="black" points="94.75,-0 129.25,-0 "/>
<path fill="none" stroke="black" d="M129.25,-0C135.25,-0 141.25,-6 141.25,-12"/>
<polyline fill="none" stroke="black" points="141.25,-12 141.25,-24 "/>
<path fill="none" stroke="black" d="M141.25,-24C141.25,-30 135.25,-36 129.25,-36"/>
<text text-anchor="start" x="91" y="-12.5" font-family="Times,serif" font-size="14.00">TITLE:</text>
</a>
</g>
<!-- GAMBLERS_RUIN&#45;&gt;GAMBLERS_RUIN_FAIR_GAME -->
<g id="edge4" class="edge"><title>GAMBLERS_RUIN&#45;&gt;GAMBLERS_RUIN_FAIR_GAME</title>
<path fill="none" stroke="black" d="M148.888,-71.6966C143.132,-63.4741 136.138,-53.4832 129.794,-44.4207"/>
<polygon fill="black" stroke="black" points="132.575,-42.2895 123.973,-36.1043 126.84,-46.3038 132.575,-42.2895"/>
</g>
<!-- LHOPITALS_RULE -->
<g id="node8" class="node"><title>LHOPITALS_RULE</title>
<a xlink:href="LHOPITALS_RULE.html" xlink:title="l&#39;Hopital&#39;s Rule" target="_top">
<polyline fill="none" stroke="black" points="250.25,-36 171.75,-36 "/>
<path fill="none" stroke="black" d="M171.75,-36C165.75,-36 159.75,-30 159.75,-24"/>
<polyline fill="none" stroke="black" points="159.75,-24 159.75,-12 "/>
<path fill="none" stroke="black" d="M159.75,-12C159.75,-6 165.75,-0 171.75,-0"/>
<polyline fill="none" stroke="black" points="171.75,-0 250.25,-0 "/>
<path fill="none" stroke="black" d="M250.25,-0C256.25,-0 262.25,-6 262.25,-12"/>
<polyline fill="none" stroke="black" points="262.25,-12 262.25,-24 "/>
<path fill="none" stroke="black" d="M262.25,-24C262.25,-30 256.25,-36 250.25,-36"/>
<text text-anchor="start" x="168" y="-12.5" font-family="Times,serif" font-size="14.00">l&#39;Hopital&#39;s Rule</text>
</a>
</g>
<!-- GAMBLERS_RUIN&#45;&gt;LHOPITALS_RULE -->
<g id="edge8" class="edge"><title>GAMBLERS_RUIN&#45;&gt;LHOPITALS_RULE</title>
<path fill="none" stroke="black" d="M173.36,-71.6966C179.233,-63.4741 186.369,-53.4832 192.842,-44.4207"/>
<polygon fill="black" stroke="black" points="195.818,-46.276 198.783,-36.1043 190.122,-42.2073 195.818,-46.276"/>
</g>
<!-- DIFFERENCE_EQUATIONS -->
<g id="node2" class="node"><title>DIFFERENCE_EQUATIONS</title>
<a xlink:href="DIFFERENCE_EQUATIONS.html" xlink:title="Difference equations" target="_top">
<polyline fill="none" stroke="black" points="120.25,-180 11.75,-180 "/>
<path fill="none" stroke="black" d="M11.75,-180C5.75,-180 -0.25,-174 -0.25,-168"/>
<polyline fill="none" stroke="black" points="-0.25,-168 -0.25,-156 "/>
<path fill="none" stroke="black" d="M-0.25,-156C-0.25,-150 5.75,-144 11.75,-144"/>
<polyline fill="none" stroke="black" points="11.75,-144 120.25,-144 "/>
<path fill="none" stroke="black" d="M120.25,-144C126.25,-144 132.25,-150 132.25,-156"/>
<polyline fill="none" stroke="black" points="132.25,-156 132.25,-168 "/>
<path fill="none" stroke="black" d="M132.25,-168C132.25,-174 126.25,-180 120.25,-180"/>
<text text-anchor="start" x="8" y="-156.5" font-family="Times,serif" font-size="14.00">Difference equations</text>
</a>
</g>
<!-- DIFFERENCE_EQUATIONS&#45;&gt;GAMBLERS_RUIN -->
<g id="edge2" class="edge"><title>DIFFERENCE_EQUATIONS&#45;&gt;GAMBLERS_RUIN</title>
<path fill="none" stroke="black" d="M89.4832,-143.697C101.563,-134.796 116.454,-123.823 129.516,-114.199"/>
<polygon fill="black" stroke="black" points="131.813,-116.854 137.787,-108.104 127.66,-111.219 131.813,-116.854"/>
</g>
<!-- HITTING_PROBABILITIES -->
<g id="node6" class="node"><title>HITTING_PROBABILITIES</title>
<a xlink:href="HITTING_PROBABILITIES.html" xlink:title="Hitting time and hitting probability" target="_top">
<polyline fill="none" stroke="black" points="351.25,-180 162.75,-180 "/>
<path fill="none" stroke="black" d="M162.75,-180C156.75,-180 150.75,-174 150.75,-168"/>
<polyline fill="none" stroke="black" points="150.75,-168 150.75,-156 "/>
<path fill="none" stroke="black" d="M150.75,-156C150.75,-150 156.75,-144 162.75,-144"/>
<polyline fill="none" stroke="black" points="162.75,-144 351.25,-144 "/>
<path fill="none" stroke="black" d="M351.25,-144C357.25,-144 363.25,-150 363.25,-156"/>
<polyline fill="none" stroke="black" points="363.25,-156 363.25,-168 "/>
<path fill="none" stroke="black" d="M363.25,-168C363.25,-174 357.25,-180 351.25,-180"/>
<text text-anchor="start" x="159" y="-156.5" font-family="Times,serif" font-size="14.00">Hitting time and hitting probability</text>
</a>
</g>
<!-- HITTING_PROBABILITIES&#45;&gt;GAMBLERS_RUIN -->
<g id="edge6" class="edge"><title>HITTING_PROBABILITIES&#45;&gt;GAMBLERS_RUIN</title>
<path fill="none" stroke="black" d="M233.27,-143.697C221.063,-134.796 206.015,-123.823 192.816,-114.199"/>
<polygon fill="black" stroke="black" points="194.6,-111.168 184.457,-108.104 190.475,-116.824 194.6,-111.168"/>
</g>
</g>
</svg>
