<?xml version="1.0" encoding="UTF-8" standalone="no"?>
<!DOCTYPE svg PUBLIC "-//W3C//DTD SVG 1.1//EN"
 "http://www.w3.org/Graphics/SVG/1.1/DTD/svg11.dtd">
<!-- Generated by graphviz version 2.28.0 (20110509.1545)
 -->
<!-- Title: _anonymous_0 Pages: 1 -->
<svg width="144pt" height="116pt"
 viewBox="0.00 0.00 144.00 116.00" xmlns="http://www.w3.org/2000/svg" xmlns:xlink="http://www.w3.org/1999/xlink">
<g id="graph1" class="graph" transform="scale(1 1) rotate(0) translate(4 112)">
<title>_anonymous_0</title>
<!-- GAUSSIAN_ELIMINATION -->
<g id="node1" class="node"><title>GAUSSIAN_ELIMINATION</title>
<a xlink:href="GAUSSIAN_ELIMINATION.html" xlink:title="Gaussian Elimination" target="_top">
<polyline fill="none" stroke="blue" stroke-width="2" points="124.25,-108 11.75,-108 "/>
<path fill="none" stroke="blue" stroke-width="2" d="M11.75,-108C5.75,-108 -0.25,-102 -0.25,-96"/>
<polyline fill="none" stroke="blue" stroke-width="2" points="-0.25,-96 -0.25,-84 "/>
<path fill="none" stroke="blue" stroke-width="2" d="M-0.25,-84C-0.25,-78 5.75,-72 11.75,-72"/>
<polyline fill="none" stroke="blue" stroke-width="2" points="11.75,-72 124.25,-72 "/>
<path fill="none" stroke="blue" stroke-width="2" d="M124.25,-72C130.25,-72 136.25,-78 136.25,-84"/>
<polyline fill="none" stroke="blue" stroke-width="2" points="136.25,-84 136.25,-96 "/>
<path fill="none" stroke="blue" stroke-width="2" d="M136.25,-96C136.25,-102 130.25,-108 124.25,-108"/>
<text text-anchor="start" x="8" y="-84.5" font-family="Times,serif" font-size="14.00">Gaussian Elimination</text>
</a>
</g>
<!-- EIGENVECTORS -->
<g id="node2" class="node"><title>EIGENVECTORS</title>
<a xlink:href="EIGENVECTORS.html" xlink:title="Eigendecomposition" target="_top">
<polyline fill="none" stroke="black" points="122,-36 14,-36 "/>
<path fill="none" stroke="black" d="M14,-36C8,-36 2,-30 2,-24"/>
<polyline fill="none" stroke="black" points="2,-24 2,-12 "/>
<path fill="none" stroke="black" d="M2,-12C2,-6 8,-0 14,-0"/>
<polyline fill="none" stroke="black" points="14,-0 122,-0 "/>
<path fill="none" stroke="black" d="M122,-0C128,-0 134,-6 134,-12"/>
<polyline fill="none" stroke="black" points="134,-12 134,-24 "/>
<path fill="none" stroke="black" d="M134,-24C134,-30 128,-36 122,-36"/>
<text text-anchor="start" x="10.5" y="-12.5" font-family="Times,serif" font-size="14.00">Eigendecomposition</text>
</a>
</g>
<!-- GAUSSIAN_ELIMINATION&#45;&gt;EIGENVECTORS -->
<g id="edge2" class="edge"><title>GAUSSIAN_ELIMINATION&#45;&gt;EIGENVECTORS</title>
<path fill="none" stroke="black" d="M68,-71.6966C68,-63.9827 68,-54.7125 68,-46.1124"/>
<polygon fill="black" stroke="black" points="71.5001,-46.1043 68,-36.1043 64.5001,-46.1044 71.5001,-46.1043"/>
</g>
</g>
</svg>
