<?xml version="1.0" encoding="UTF-8" standalone="no"?>
<!DOCTYPE svg PUBLIC "-//W3C//DTD SVG 1.1//EN"
 "http://www.w3.org/Graphics/SVG/1.1/DTD/svg11.dtd">
<!-- Generated by graphviz version 2.26.3 (20100126.1600)
 -->
<!-- Title: _anonymous_0 Pages: 1 -->
<svg width="170pt" height="116pt"
 viewBox="0.00 0.00 170.00 116.00" xmlns="http://www.w3.org/2000/svg" xmlns:xlink="http://www.w3.org/1999/xlink">
<g id="graph1" class="graph" transform="scale(1 1) rotate(0) translate(4 112)">
<title>_anonymous_0</title>
<!-- GAUSSIAN_ELIMINATION -->
<g id="node1" class="node"><title>GAUSSIAN_ELIMINATION</title>
<a xlink:href="GAUSSIAN_ELIMINATION.html" xlink:title="Gaussian Elimination" target="_top">
<polyline fill="none" stroke="blue" stroke-width="2" points="150,-108 12,-108 "/>
<path fill="none" stroke="blue" stroke-width="2" d="M12,-108C6,-108 7.10543e-14,-102 5.68434e-14,-96"/>
<polyline fill="none" stroke="blue" stroke-width="2" points="5.68434e-14,-96 2.84217e-14,-84 "/>
<path fill="none" stroke="blue" stroke-width="2" d="M2.84217e-14,-84C1.42109e-14,-78 6,-72 12,-72"/>
<polyline fill="none" stroke="blue" stroke-width="2" points="12,-72 150,-72 "/>
<path fill="none" stroke="blue" stroke-width="2" d="M150,-72C156,-72 162,-78 162,-84"/>
<polyline fill="none" stroke="blue" stroke-width="2" points="162,-84 162,-96 "/>
<path fill="none" stroke="blue" stroke-width="2" d="M162,-96C162,-102 156,-108 150,-108"/>
<text text-anchor="start" x="8.5" y="-87.2333" font-family="Times Roman,serif" font-size="14.00">Gaussian Elimination</text>
</a>
</g>
<!-- EIGENVECTORS -->
<g id="node2" class="node"><title>EIGENVECTORS</title>
<a xlink:href="EIGENVECTORS.html" xlink:title="Eigendecomposition" target="_top">
<polyline fill="none" stroke="black" points="146,-36 16,-36 "/>
<path fill="none" stroke="black" d="M16,-36C10,-36 4,-30 4,-24"/>
<polyline fill="none" stroke="black" points="4,-24 4,-12 "/>
<path fill="none" stroke="black" d="M4,-12C4,-6 10,-1.72099e-14 16,-1.66562e-14"/>
<polyline fill="none" stroke="black" points="16,-1.66562e-14 146,-4.66005e-15 "/>
<path fill="none" stroke="black" d="M146,-4.66005e-15C152,-4.10638e-15 158,-6 158,-12"/>
<polyline fill="none" stroke="black" points="158,-12 158,-24 "/>
<path fill="none" stroke="black" d="M158,-24C158,-30 152,-36 146,-36"/>
<text text-anchor="start" x="12.5" y="-15.2333" font-family="Times Roman,serif" font-size="14.00">Eigendecomposition</text>
</a>
</g>
<!-- GAUSSIAN_ELIMINATION&#45;&gt;EIGENVECTORS -->
<g id="edge2" class="edge"><title>GAUSSIAN_ELIMINATION&#45;&gt;EIGENVECTORS</title>
<path fill="none" stroke="black" d="M81,-71.8314C81,-64.131 81,-54.9743 81,-46.4166"/>
<polygon fill="black" stroke="black" points="84.5001,-46.4132 81,-36.4133 77.5001,-46.4133 84.5001,-46.4132"/>
</g>
</g>
</svg>
