<?xml version="1.0" encoding="UTF-8" standalone="no"?>
<!DOCTYPE svg PUBLIC "-//W3C//DTD SVG 1.1//EN"
 "http://www.w3.org/Graphics/SVG/1.1/DTD/svg11.dtd">
<!-- Generated by graphviz version 2.36.0 (20140111.2315)
 -->
<!-- Title: %3 Pages: 1 -->
<svg width="150pt" height="116pt"
 viewBox="0.00 0.00 150.00 116.00" xmlns="http://www.w3.org/2000/svg" xmlns:xlink="http://www.w3.org/1999/xlink">
<g id="graph0" class="graph" transform="scale(1 1) rotate(0) translate(4 112)">
<title>%3</title>
<!-- GAUSSIAN_ELIMINATION -->
<g id="node1" class="node"><title>GAUSSIAN_ELIMINATION</title>
<g id="a_node1"><a xlink:href="GAUSSIAN_ELIMINATION.html" xlink:title=" Gaussian Elimination " target="_top">
<path fill="none" stroke="blue" stroke-width="2" d="M130,-108C130,-108 12,-108 12,-108 6,-108 0,-102 0,-96 0,-96 0,-84 0,-84 0,-78 6,-72 12,-72 12,-72 130,-72 130,-72 136,-72 142,-78 142,-84 142,-84 142,-96 142,-96 142,-102 136,-108 130,-108"/>
<text text-anchor="start" x="8" y="-86.3" font-family="Times,serif" font-size="14.00"> Gaussian Elimination </text>
</a>
</g>
</g>
<!-- EIGENVECTORS -->
<g id="node2" class="node"><title>EIGENVECTORS</title>
<g id="a_node2"><a xlink:href="EIGENVECTORS.html" xlink:title=" Eigendecomposition " target="_top">
<path fill="none" stroke="black" d="M127,-36C127,-36 15,-36 15,-36 9,-36 3,-30 3,-24 3,-24 3,-12 3,-12 3,-6 9,-0 15,-0 15,-0 127,-0 127,-0 133,-0 139,-6 139,-12 139,-12 139,-24 139,-24 139,-30 133,-36 127,-36"/>
<text text-anchor="start" x="11" y="-14.3" font-family="Times,serif" font-size="14.00"> Eigendecomposition </text>
</a>
</g>
</g>
<!-- GAUSSIAN_ELIMINATION&#45;&gt;EIGENVECTORS -->
<g id="edge1" class="edge"><title>GAUSSIAN_ELIMINATION&#45;&gt;EIGENVECTORS</title>
<path fill="none" stroke="black" d="M71,-71.6966C71,-63.9827 71,-54.7125 71,-46.1124"/>
<polygon fill="black" stroke="black" points="74.5001,-46.1043 71,-36.1043 67.5001,-46.1044 74.5001,-46.1043"/>
</g>
</g>
</svg>
