<?xml version="1.0" encoding="UTF-8" standalone="no"?>
<!DOCTYPE svg PUBLIC "-//W3C//DTD SVG 1.1//EN"
 "http://www.w3.org/Graphics/SVG/1.1/DTD/svg11.dtd">
<!-- Generated by graphviz version 2.26.3 (20100126.1600)
 -->
<!-- Title: _anonymous_0 Pages: 1 -->
<svg width="178pt" height="116pt"
 viewBox="0.00 0.00 178.00 116.00" xmlns="http://www.w3.org/2000/svg" xmlns:xlink="http://www.w3.org/1999/xlink">
<g id="graph1" class="graph" transform="scale(1 1) rotate(0) translate(4 112)">
<title>_anonymous_0</title>
<!-- GAUSSIAN_ELIMINATION -->
<g id="node1" class="node"><title>GAUSSIAN_ELIMINATION</title>
<a xlink:href="GAUSSIAN_ELIMINATION.html" xlink:title=" Gaussian Elimination " target="_top">
<polyline fill="none" stroke="blue" stroke-width="2" points="158,-108 12,-108 "/>
<path fill="none" stroke="blue" stroke-width="2" d="M12,-108C6,-108 7.10543e-14,-102 5.68434e-14,-96"/>
<polyline fill="none" stroke="blue" stroke-width="2" points="5.68434e-14,-96 2.84217e-14,-84 "/>
<path fill="none" stroke="blue" stroke-width="2" d="M2.84217e-14,-84C1.42109e-14,-78 6,-72 12,-72"/>
<polyline fill="none" stroke="blue" stroke-width="2" points="12,-72 158,-72 "/>
<path fill="none" stroke="blue" stroke-width="2" d="M158,-72C164,-72 170,-78 170,-84"/>
<polyline fill="none" stroke="blue" stroke-width="2" points="170,-84 170,-96 "/>
<path fill="none" stroke="blue" stroke-width="2" d="M170,-96C170,-102 164,-108 158,-108"/>
<text text-anchor="start" x="8" y="-87.2333" font-family="Times Roman,serif" font-size="14.00"> Gaussian Elimination </text>
</a>
</g>
<!-- EIGENVECTORS -->
<g id="node2" class="node"><title>EIGENVECTORS</title>
<a xlink:href="EIGENVECTORS.html" xlink:title=" Eigendecomposition " target="_top">
<polyline fill="none" stroke="black" points="154,-36 16,-36 "/>
<path fill="none" stroke="black" d="M16,-36C10,-36 4,-30 4,-24"/>
<polyline fill="none" stroke="black" points="4,-24 4,-12 "/>
<path fill="none" stroke="black" d="M4,-12C4,-6 10,-1.72372e-14 16,-1.67109e-14"/>
<polyline fill="none" stroke="black" points="16,-1.67109e-14 154,-4.60537e-15 "/>
<path fill="none" stroke="black" d="M154,-4.60537e-15C160,-4.07904e-15 166,-6 166,-12"/>
<polyline fill="none" stroke="black" points="166,-12 166,-24 "/>
<path fill="none" stroke="black" d="M166,-24C166,-30 160,-36 154,-36"/>
<text text-anchor="start" x="12" y="-15.2333" font-family="Times Roman,serif" font-size="14.00"> Eigendecomposition </text>
</a>
</g>
<!-- GAUSSIAN_ELIMINATION&#45;&gt;EIGENVECTORS -->
<g id="edge2" class="edge"><title>GAUSSIAN_ELIMINATION&#45;&gt;EIGENVECTORS</title>
<path fill="none" stroke="black" d="M85,-71.8314C85,-64.131 85,-54.9743 85,-46.4166"/>
<polygon fill="black" stroke="black" points="88.5001,-46.4132 85,-36.4133 81.5001,-46.4133 88.5001,-46.4132"/>
</g>
</g>
</svg>
