<?xml version="1.0" encoding="UTF-8" standalone="no"?>
<!DOCTYPE svg PUBLIC "-//W3C//DTD SVG 1.1//EN"
 "http://www.w3.org/Graphics/SVG/1.1/DTD/svg11.dtd">
<!-- Generated by graphviz version 2.26.3 (20100126.1600)
 -->
<!-- Title: _anonymous_0 Pages: 1 -->
<svg width="686pt" height="404pt"
 viewBox="0.00 0.00 686.00 404.00" xmlns="http://www.w3.org/2000/svg" xmlns:xlink="http://www.w3.org/1999/xlink">
<g id="graph1" class="graph" transform="scale(1 1) rotate(0) translate(4 400)">
<title>_anonymous_0</title>
<!-- GENERALIZED_PARTITION_FUNCTION -->
<g id="node1" class="node"><title>GENERALIZED_PARTITION_FUNCTION</title>
<a xlink:href="GENERALIZED_PARTITION_FUNCTION.html" xlink:title="The generalized partition function" target="_top">
<polyline fill="none" stroke="blue" stroke-width="2" points="427,-180 199,-180 "/>
<path fill="none" stroke="blue" stroke-width="2" d="M199,-180C193,-180 187,-174 187,-168"/>
<polyline fill="none" stroke="blue" stroke-width="2" points="187,-168 187,-156 "/>
<path fill="none" stroke="blue" stroke-width="2" d="M187,-156C187,-150 193,-144 199,-144"/>
<polyline fill="none" stroke="blue" stroke-width="2" points="199,-144 427,-144 "/>
<path fill="none" stroke="blue" stroke-width="2" d="M427,-144C433,-144 439,-150 439,-156"/>
<polyline fill="none" stroke="blue" stroke-width="2" points="439,-156 439,-168 "/>
<path fill="none" stroke="blue" stroke-width="2" d="M439,-168C439,-174 433,-180 427,-180"/>
<text text-anchor="start" x="195" y="-159.233" font-family="Times Roman,serif" font-size="14.00">The generalized partition function</text>
</a>
</g>
<!-- CANONICAL_ENSEMBLE -->
<g id="node2" class="node"><title>CANONICAL_ENSEMBLE</title>
<a xlink:href="CANONICAL_ENSEMBLE.html" xlink:title="The canonical ensemble" target="_top">
<polyline fill="none" stroke="black" points="170,-108 12,-108 "/>
<path fill="none" stroke="black" d="M12,-108C6,-108 5.92119e-14,-102 4.73695e-14,-96"/>
<polyline fill="none" stroke="black" points="4.73695e-14,-96 2.36848e-14,-84 "/>
<path fill="none" stroke="black" d="M2.36848e-14,-84C1.18424e-14,-78 6,-72 12,-72"/>
<polyline fill="none" stroke="black" points="12,-72 170,-72 "/>
<path fill="none" stroke="black" d="M170,-72C176,-72 182,-78 182,-84"/>
<polyline fill="none" stroke="black" points="182,-84 182,-96 "/>
<path fill="none" stroke="black" d="M182,-96C182,-102 176,-108 170,-108"/>
<text text-anchor="start" x="8.5" y="-87.2333" font-family="Times Roman,serif" font-size="14.00">The canonical ensemble</text>
</a>
</g>
<!-- GENERALIZED_PARTITION_FUNCTION&#45;&gt;CANONICAL_ENSEMBLE -->
<g id="edge2" class="edge"><title>GENERALIZED_PARTITION_FUNCTION&#45;&gt;CANONICAL_ENSEMBLE</title>
<path fill="none" stroke="black" d="M257.267,-143.924C226.654,-133.996 188.512,-121.625 156.484,-111.238"/>
<polygon fill="black" stroke="black" points="157.348,-107.839 146.756,-108.083 155.189,-114.498 157.348,-107.839"/>
</g>
<!-- GRAND_CANONICAL_ENSEMBLE -->
<g id="node6" class="node"><title>GRAND_CANONICAL_ENSEMBLE</title>
<a xlink:href="GRAND_CANONICAL_ENSEMBLE.html" xlink:title="The grand canonical ensemble" target="_top">
<polyline fill="none" stroke="black" points="414,-108 212,-108 "/>
<path fill="none" stroke="black" d="M212,-108C206,-108 200,-102 200,-96"/>
<polyline fill="none" stroke="black" points="200,-96 200,-84 "/>
<path fill="none" stroke="black" d="M200,-84C200,-78 206,-72 212,-72"/>
<polyline fill="none" stroke="black" points="212,-72 414,-72 "/>
<path fill="none" stroke="black" d="M414,-72C420,-72 426,-78 426,-84"/>
<polyline fill="none" stroke="black" points="426,-84 426,-96 "/>
<path fill="none" stroke="black" d="M426,-96C426,-102 420,-108 414,-108"/>
<text text-anchor="start" x="208.5" y="-87.2333" font-family="Times Roman,serif" font-size="14.00">The grand canonical ensemble</text>
</a>
</g>
<!-- GENERALIZED_PARTITION_FUNCTION&#45;&gt;GRAND_CANONICAL_ENSEMBLE -->
<g id="edge6" class="edge"><title>GENERALIZED_PARTITION_FUNCTION&#45;&gt;GRAND_CANONICAL_ENSEMBLE</title>
<path fill="none" stroke="black" d="M313,-143.831C313,-136.131 313,-126.974 313,-118.417"/>
<polygon fill="black" stroke="black" points="316.5,-118.413 313,-108.413 309.5,-118.413 316.5,-118.413"/>
</g>
<!-- ISOTHERMAL_ISOBARIC_ENSEMBLE -->
<g id="node15" class="node"><title>ISOTHERMAL_ISOBARIC_ENSEMBLE</title>
<a xlink:href="ISOTHERMAL_ISOBARIC_ENSEMBLE.html" xlink:title="The isothermal isobaric ensemble" target="_top">
<polyline fill="none" stroke="black" points="383,-36 161,-36 "/>
<path fill="none" stroke="black" d="M161,-36C155,-36 149,-30 149,-24"/>
<polyline fill="none" stroke="black" points="149,-24 149,-12 "/>
<path fill="none" stroke="black" d="M149,-12C149,-6 155,-1.7417e-14 161,-1.70704e-14"/>
<polyline fill="none" stroke="black" points="161,-1.70704e-14 383,-4.24593e-15 "/>
<path fill="none" stroke="black" d="M383,-4.24593e-15C389,-3.89932e-15 395,-6 395,-12"/>
<polyline fill="none" stroke="black" points="395,-12 395,-24 "/>
<path fill="none" stroke="black" d="M395,-24C395,-30 389,-36 383,-36"/>
<text text-anchor="start" x="157" y="-15.2333" font-family="Times Roman,serif" font-size="14.00">The isothermal isobaric ensemble</text>
</a>
</g>
<!-- GENERALIZED_PARTITION_FUNCTION&#45;&gt;ISOTHERMAL_ISOBARIC_ENSEMBLE -->
<g id="edge16" class="edge"><title>GENERALIZED_PARTITION_FUNCTION&#45;&gt;ISOTHERMAL_ISOBARIC_ENSEMBLE</title>
<path fill="none" stroke="black" d="M389.205,-143.993C407.201,-135.997 424.259,-124.5 435,-108 443.729,-94.5908 444.367,-84.9713 435,-72 425.787,-59.242 396.449,-47.8225 365.153,-38.8075"/>
<polygon fill="black" stroke="black" points="365.97,-35.4019 355.397,-36.0881 364.09,-42.1448 365.97,-35.4019"/>
</g>
<!-- CANONICAL_ENSEMBLE&#45;&gt;ISOTHERMAL_ISOBARIC_ENSEMBLE -->
<!-- RANDOM_VARIABLES -->
<g id="node4" class="node"><title>RANDOM_VARIABLES</title>
<a xlink:href="RANDOM_VARIABLES.html" xlink:title="Random variables" target="_top">
<polyline fill="none" stroke="black" points="206,-396 90,-396 "/>
<path fill="none" stroke="black" d="M90,-396C84,-396 78,-390 78,-384"/>
<polyline fill="none" stroke="black" points="78,-384 78,-372 "/>
<path fill="none" stroke="black" d="M78,-372C78,-366 84,-360 90,-360"/>
<polyline fill="none" stroke="black" points="90,-360 206,-360 "/>
<path fill="none" stroke="black" d="M206,-360C212,-360 218,-366 218,-372"/>
<polyline fill="none" stroke="black" points="218,-372 218,-384 "/>
<path fill="none" stroke="black" d="M218,-384C218,-390 212,-396 206,-396"/>
<text text-anchor="start" x="86.5" y="-375.233" font-family="Times Roman,serif" font-size="14.00">Random variables</text>
</a>
</g>
<!-- RANDOM_VARIABLES&#45;&gt;GENERALIZED_PARTITION_FUNCTION -->
<g id="edge4" class="edge"><title>RANDOM_VARIABLES&#45;&gt;GENERALIZED_PARTITION_FUNCTION</title>
<path fill="none" stroke="black" d="M133.325,-359.709C126.295,-349.772 118.63,-336.903 115,-324 101.539,-276.157 107.587,-249.826 144,-216 159.293,-201.793 178.332,-191.324 198.062,-183.609"/>
<polygon fill="black" stroke="black" points="199.299,-186.884 207.476,-180.147 196.883,-180.314 199.299,-186.884"/>
</g>
<!-- INFORMATION_THEORY -->
<g id="node10" class="node"><title>INFORMATION_THEORY</title>
<a xlink:href="INFORMATION_THEORY.html" xlink:title="Information theory " target="_top">
<polyline fill="none" stroke="black" points="264,-324 136,-324 "/>
<path fill="none" stroke="black" d="M136,-324C130,-324 124,-318 124,-312"/>
<polyline fill="none" stroke="black" points="124,-312 124,-300 "/>
<path fill="none" stroke="black" d="M124,-300C124,-294 130,-288 136,-288"/>
<polyline fill="none" stroke="black" points="136,-288 264,-288 "/>
<path fill="none" stroke="black" d="M264,-288C270,-288 276,-294 276,-300"/>
<polyline fill="none" stroke="black" points="276,-300 276,-312 "/>
<path fill="none" stroke="black" d="M276,-312C276,-318 270,-324 264,-324"/>
<text text-anchor="start" x="132" y="-303.233" font-family="Times Roman,serif" font-size="14.00">Information theory </text>
</a>
</g>
<!-- RANDOM_VARIABLES&#45;&gt;INFORMATION_THEORY -->
<!-- LAWS_OF_THERMODYNAMICS -->
<g id="node8" class="node"><title>LAWS_OF_THERMODYNAMICS</title>
<a xlink:href="LAWS_OF_THERMODYNAMICS.html" xlink:title="The first and second laws of thermodynamics" target="_top">
<polyline fill="none" stroke="black" points="644,-396 340,-396 "/>
<path fill="none" stroke="black" d="M340,-396C334,-396 328,-390 328,-384"/>
<polyline fill="none" stroke="black" points="328,-384 328,-372 "/>
<path fill="none" stroke="black" d="M328,-372C328,-366 334,-360 340,-360"/>
<polyline fill="none" stroke="black" points="340,-360 644,-360 "/>
<path fill="none" stroke="black" d="M644,-360C650,-360 656,-366 656,-372"/>
<polyline fill="none" stroke="black" points="656,-372 656,-384 "/>
<path fill="none" stroke="black" d="M656,-384C656,-390 650,-396 644,-396"/>
<text text-anchor="start" x="336" y="-375.233" font-family="Times Roman,serif" font-size="14.00">The first and second laws of thermodynamics</text>
</a>
</g>
<!-- LAWS_OF_THERMODYNAMICS&#45;&gt;GENERALIZED_PARTITION_FUNCTION -->
<g id="edge8" class="edge"><title>LAWS_OF_THERMODYNAMICS&#45;&gt;GENERALIZED_PARTITION_FUNCTION</title>
<path fill="none" stroke="black" d="M495.575,-359.842C500.901,-327.154 506.963,-257.912 473,-216 463.005,-203.666 432.834,-192.104 401.345,-182.868"/>
<polygon fill="black" stroke="black" points="402.127,-179.452 391.551,-180.078 400.209,-186.184 402.127,-179.452"/>
</g>
<!-- INFORMATION_THEORY&#45;&gt;GENERALIZED_PARTITION_FUNCTION -->
<g id="edge10" class="edge"><title>INFORMATION_THEORY&#45;&gt;GENERALIZED_PARTITION_FUNCTION</title>
<path fill="none" stroke="black" d="M178.907,-287.891C159.591,-269.076 136.346,-239.197 153,-216 162.103,-203.32 191.316,-191.846 222.334,-182.768"/>
<polygon fill="black" stroke="black" points="223.332,-186.123 231.999,-180.029 221.423,-179.388 223.332,-186.123"/>
</g>
<!-- PRINCIPLE_OF_EQUAL_APRIORI_PROBABILITIES -->
<g id="node18" class="node"><title>PRINCIPLE_OF_EQUAL_APRIORI_PROBABILITIES</title>
<a xlink:href="PRINCIPLE_OF_EQUAL_APRIORI_PROBABILITIES.html" xlink:title="The principle of equal apriori probabilities" target="_top">
<polyline fill="none" stroke="black" points="452,-252 174,-252 "/>
<path fill="none" stroke="black" d="M174,-252C168,-252 162,-246 162,-240"/>
<polyline fill="none" stroke="black" points="162,-240 162,-228 "/>
<path fill="none" stroke="black" d="M162,-228C162,-222 168,-216 174,-216"/>
<polyline fill="none" stroke="black" points="174,-216 452,-216 "/>
<path fill="none" stroke="black" d="M452,-216C458,-216 464,-222 464,-228"/>
<polyline fill="none" stroke="black" points="464,-228 464,-240 "/>
<path fill="none" stroke="black" d="M464,-240C464,-246 458,-252 452,-252"/>
<text text-anchor="start" x="170.5" y="-231.233" font-family="Times Roman,serif" font-size="14.00">The principle of equal apriori probabilities</text>
</a>
</g>
<!-- INFORMATION_THEORY&#45;&gt;PRINCIPLE_OF_EQUAL_APRIORI_PROBABILITIES -->
<!-- LAGRANGE_MULTIPLIERS -->
<g id="node13" class="node"><title>LAGRANGE_MULTIPLIERS</title>
<a xlink:href="LAGRANGE_MULTIPLIERS.html" xlink:title="Lagrange multipliers" target="_top">
<polyline fill="none" stroke="black" points="666,-324 532,-324 "/>
<path fill="none" stroke="black" d="M532,-324C526,-324 520,-318 520,-312"/>
<polyline fill="none" stroke="black" points="520,-312 520,-300 "/>
<path fill="none" stroke="black" d="M520,-300C520,-294 526,-288 532,-288"/>
<polyline fill="none" stroke="black" points="532,-288 666,-288 "/>
<path fill="none" stroke="black" d="M666,-288C672,-288 678,-294 678,-300"/>
<polyline fill="none" stroke="black" points="678,-300 678,-312 "/>
<path fill="none" stroke="black" d="M678,-312C678,-318 672,-324 666,-324"/>
<text text-anchor="start" x="528" y="-303.233" font-family="Times Roman,serif" font-size="14.00">Lagrange multipliers</text>
</a>
</g>
<!-- LAGRANGE_MULTIPLIERS&#45;&gt;GENERALIZED_PARTITION_FUNCTION -->
<g id="edge14" class="edge"><title>LAGRANGE_MULTIPLIERS&#45;&gt;GENERALIZED_PARTITION_FUNCTION</title>
<path fill="none" stroke="black" d="M584.895,-287.701C568.206,-267.284 538.545,-234.674 506,-216 480.759,-201.517 451.41,-190.734 423.331,-182.779"/>
<polygon fill="black" stroke="black" points="424.03,-179.341 413.461,-180.081 422.185,-186.094 424.03,-179.341"/>
</g>
<!-- PRINCIPLE_OF_EQUAL_APRIORI_PROBABILITIES&#45;&gt;GENERALIZED_PARTITION_FUNCTION -->
<g id="edge20" class="edge"><title>PRINCIPLE_OF_EQUAL_APRIORI_PROBABILITIES&#45;&gt;GENERALIZED_PARTITION_FUNCTION</title>
<path fill="none" stroke="black" d="M313,-215.831C313,-208.131 313,-198.974 313,-190.417"/>
<polygon fill="black" stroke="black" points="316.5,-190.413 313,-180.413 309.5,-190.413 316.5,-190.413"/>
</g>
</g>
</svg>
