<?xml version="1.0" encoding="UTF-8" standalone="no"?>
<!DOCTYPE svg PUBLIC "-//W3C//DTD SVG 1.1//EN"
 "http://www.w3.org/Graphics/SVG/1.1/DTD/svg11.dtd">
<!-- Generated by graphviz version 2.36.0 (20140111.2315)
 -->
<!-- Title: %3 Pages: 1 -->
<svg width="526pt" height="404pt"
 viewBox="0.00 0.00 526.00 404.00" xmlns="http://www.w3.org/2000/svg" xmlns:xlink="http://www.w3.org/1999/xlink">
<g id="graph0" class="graph" transform="scale(1 1) rotate(0) translate(4 400)">
<title>%3</title>
<!-- GENERALIZED_PARTITION_FUNCTION -->
<g id="node1" class="node"><title>GENERALIZED_PARTITION_FUNCTION</title>
<g id="a_node1"><a xlink:href="GENERALIZED_PARTITION_FUNCTION.html" xlink:title=" The generalized partition function " target="_top">
<path fill="none" stroke="blue" stroke-width="2" d="M362.25,-180C362.25,-180 177.75,-180 177.75,-180 171.75,-180 165.75,-174 165.75,-168 165.75,-168 165.75,-156 165.75,-156 165.75,-150 171.75,-144 177.75,-144 177.75,-144 362.25,-144 362.25,-144 368.25,-144 374.25,-150 374.25,-156 374.25,-156 374.25,-168 374.25,-168 374.25,-174 368.25,-180 362.25,-180"/>
<text text-anchor="start" x="173.5" y="-158.3" font-family="Times,serif" font-size="14.00"> The generalized partition function </text>
</a>
</g>
</g>
<!-- CANONICAL_ENSEMBLE -->
<g id="node3" class="node"><title>CANONICAL_ENSEMBLE</title>
<g id="a_node3"><a xlink:href="CANONICAL_ENSEMBLE.html" xlink:title=" The canonical ensemble " target="_top">
<path fill="none" stroke="black" d="M144,-108C144,-108 12,-108 12,-108 6,-108 0,-102 0,-96 0,-96 0,-84 0,-84 0,-78 6,-72 12,-72 12,-72 144,-72 144,-72 150,-72 156,-78 156,-84 156,-84 156,-96 156,-96 156,-102 150,-108 144,-108"/>
<text text-anchor="start" x="8" y="-86.3" font-family="Times,serif" font-size="14.00"> The canonical ensemble </text>
</a>
</g>
</g>
<!-- GENERALIZED_PARTITION_FUNCTION&#45;&gt;CANONICAL_ENSEMBLE -->
<g id="edge2" class="edge"><title>GENERALIZED_PARTITION_FUNCTION&#45;&gt;CANONICAL_ENSEMBLE</title>
<path fill="none" stroke="black" d="M223.032,-143.876C196.317,-134.137 162.679,-121.872 134.525,-111.608"/>
<polygon fill="black" stroke="black" points="135.41,-108.205 124.816,-108.068 133.012,-114.782 135.41,-108.205"/>
</g>
<!-- GRAND_CANONICAL_ENSEMBLE -->
<g id="node5" class="node"><title>GRAND_CANONICAL_ENSEMBLE</title>
<g id="a_node5"><a xlink:href="GRAND_CANONICAL_ENSEMBLE.html" xlink:title=" The grand canonical ensemble " target="_top">
<path fill="none" stroke="black" d="M353.25,-108C353.25,-108 186.75,-108 186.75,-108 180.75,-108 174.75,-102 174.75,-96 174.75,-96 174.75,-84 174.75,-84 174.75,-78 180.75,-72 186.75,-72 186.75,-72 353.25,-72 353.25,-72 359.25,-72 365.25,-78 365.25,-84 365.25,-84 365.25,-96 365.25,-96 365.25,-102 359.25,-108 353.25,-108"/>
<text text-anchor="start" x="182.5" y="-86.3" font-family="Times,serif" font-size="14.00"> The grand canonical ensemble </text>
</a>
</g>
</g>
<!-- GENERALIZED_PARTITION_FUNCTION&#45;&gt;GRAND_CANONICAL_ENSEMBLE -->
<g id="edge4" class="edge"><title>GENERALIZED_PARTITION_FUNCTION&#45;&gt;GRAND_CANONICAL_ENSEMBLE</title>
<path fill="none" stroke="black" d="M270,-143.697C270,-135.983 270,-126.712 270,-118.112"/>
<polygon fill="black" stroke="black" points="273.5,-118.104 270,-108.104 266.5,-118.104 273.5,-118.104"/>
</g>
<!-- ISOTHERMAL_ISOBARIC_ENSEMBLE -->
<g id="node9" class="node"><title>ISOTHERMAL_ISOBARIC_ENSEMBLE</title>
<g id="a_node9"><a xlink:href="ISOTHERMAL_ISOBARIC_ENSEMBLE.html" xlink:title=" The isothermal isobaric ensemble " target="_top">
<path fill="none" stroke="black" d="M328.25,-36C328.25,-36 143.75,-36 143.75,-36 137.75,-36 131.75,-30 131.75,-24 131.75,-24 131.75,-12 131.75,-12 131.75,-6 137.75,-0 143.75,-0 143.75,-0 328.25,-0 328.25,-0 334.25,-0 340.25,-6 340.25,-12 340.25,-12 340.25,-24 340.25,-24 340.25,-30 334.25,-36 328.25,-36"/>
<text text-anchor="start" x="139.5" y="-14.3" font-family="Times,serif" font-size="14.00"> The isothermal isobaric ensemble </text>
</a>
</g>
</g>
<!-- GENERALIZED_PARTITION_FUNCTION&#45;&gt;ISOTHERMAL_ISOBARIC_ENSEMBLE -->
<g id="edge10" class="edge"><title>GENERALIZED_PARTITION_FUNCTION&#45;&gt;ISOTHERMAL_ISOBARIC_ENSEMBLE</title>
<path fill="none" stroke="black" d="M329.729,-143.957C347.027,-135.946 363.942,-124.415 374,-108 382.359,-94.3575 383.061,-85.1868 374,-72 364.401,-58.0314 350.572,-47.7427 335.332,-40.1648"/>
<polygon fill="black" stroke="black" points="336.769,-36.9733 326.218,-36.0091 333.865,-43.3425 336.769,-36.9733"/>
</g>
<!-- INFORMATION_THEORY -->
<g id="node2" class="node"><title>INFORMATION_THEORY</title>
<g id="a_node2"><a xlink:href="INFORMATION_THEORY.html" xlink:title=" Information theory &#160;" target="_top">
<path fill="none" stroke="black" d="M149.25,-396C149.25,-396 42.75,-396 42.75,-396 36.75,-396 30.75,-390 30.75,-384 30.75,-384 30.75,-372 30.75,-372 30.75,-366 36.75,-360 42.75,-360 42.75,-360 149.25,-360 149.25,-360 155.25,-360 161.25,-366 161.25,-372 161.25,-372 161.25,-384 161.25,-384 161.25,-390 155.25,-396 149.25,-396"/>
<text text-anchor="start" x="38.5" y="-374.3" font-family="Times,serif" font-size="14.00"> Information theory &#160;</text>
</a>
</g>
</g>
<!-- INFORMATION_THEORY&#45;&gt;GENERALIZED_PARTITION_FUNCTION -->
<g id="edge1" class="edge"><title>INFORMATION_THEORY&#45;&gt;GENERALIZED_PARTITION_FUNCTION</title>
<path fill="none" stroke="black" d="M78.5565,-359.779C62.2293,-341.481 42.2542,-311.948 56,-288 86.5856,-234.713 149.634,-201.981 199.413,-183.452"/>
<polygon fill="black" stroke="black" points="200.641,-186.73 208.861,-180.044 198.266,-180.145 200.641,-186.73"/>
</g>
<!-- LAWS_OF_THERMODYNAMICS -->
<g id="node6" class="node"><title>LAWS_OF_THERMODYNAMICS</title>
<g id="a_node6"><a xlink:href="LAWS_OF_THERMODYNAMICS.html" xlink:title=" The first and second laws of thermodynamics " target="_top">
<path fill="none" stroke="black" d="M327,-324C327,-324 77,-324 77,-324 71,-324 65,-318 65,-312 65,-312 65,-300 65,-300 65,-294 71,-288 77,-288 77,-288 327,-288 327,-288 333,-288 339,-294 339,-300 339,-300 339,-312 339,-312 339,-318 333,-324 327,-324"/>
<text text-anchor="start" x="73" y="-302.3" font-family="Times,serif" font-size="14.00"> The first and second laws of thermodynamics </text>
</a>
</g>
</g>
<!-- INFORMATION_THEORY&#45;&gt;LAWS_OF_THERMODYNAMICS -->
<!-- CANONICAL_ENSEMBLE&#45;&gt;ISOTHERMAL_ISOBARIC_ENSEMBLE -->
<!-- PRINCIPLE_OF_EQUAL_APRIORI_PROBABILITIES -->
<g id="node4" class="node"><title>PRINCIPLE_OF_EQUAL_APRIORI_PROBABILITIES</title>
<g id="a_node4"><a xlink:href="PRINCIPLE_OF_EQUAL_APRIORI_PROBABILITIES.html" xlink:title=" The principle of equal apriori probabilities " target="_top">
<path fill="none" stroke="black" d="M483,-396C483,-396 251,-396 251,-396 245,-396 239,-390 239,-384 239,-384 239,-372 239,-372 239,-366 245,-360 251,-360 251,-360 483,-360 483,-360 489,-360 495,-366 495,-372 495,-372 495,-384 495,-384 495,-390 489,-396 483,-396"/>
<text text-anchor="start" x="247" y="-374.3" font-family="Times,serif" font-size="14.00"> The principle of equal apriori probabilities </text>
</a>
</g>
</g>
<!-- PRINCIPLE_OF_EQUAL_APRIORI_PROBABILITIES&#45;&gt;GENERALIZED_PARTITION_FUNCTION -->
<g id="edge3" class="edge"><title>PRINCIPLE_OF_EQUAL_APRIORI_PROBABILITIES&#45;&gt;GENERALIZED_PARTITION_FUNCTION</title>
<path fill="none" stroke="black" d="M369.397,-359.529C372.778,-328.254 375.756,-261.709 348,-216 340.478,-203.613 328.833,-193.456 316.815,-185.467"/>
<polygon fill="black" stroke="black" points="318.395,-182.328 308.051,-180.033 314.705,-188.277 318.395,-182.328"/>
</g>
<!-- LAWS_OF_THERMODYNAMICS&#45;&gt;GENERALIZED_PARTITION_FUNCTION -->
<g id="edge5" class="edge"><title>LAWS_OF_THERMODYNAMICS&#45;&gt;GENERALIZED_PARTITION_FUNCTION</title>
<path fill="none" stroke="black" d="M194.557,-287.852C187.619,-269.091 179.994,-238.673 192,-216 198.597,-203.542 209.579,-193.469 221.252,-185.586"/>
<polygon fill="black" stroke="black" points="223.195,-188.498 229.82,-180.229 219.485,-182.562 223.195,-188.498"/>
</g>
<!-- LAGRANGE_MULTIPLIERS -->
<g id="node8" class="node"><title>LAGRANGE_MULTIPLIERS</title>
<g id="a_node8"><a xlink:href="LAGRANGE_MULTIPLIERS.html" xlink:title=" Lagrange multipliers " target="_top">
<path fill="none" stroke="black" d="M327,-252C327,-252 213,-252 213,-252 207,-252 201,-246 201,-240 201,-240 201,-228 201,-228 201,-222 207,-216 213,-216 213,-216 327,-216 327,-216 333,-216 339,-222 339,-228 339,-228 339,-240 339,-240 339,-246 333,-252 327,-252"/>
<text text-anchor="start" x="209" y="-230.3" font-family="Times,serif" font-size="14.00"> Lagrange multipliers </text>
</a>
</g>
</g>
<!-- LAWS_OF_THERMODYNAMICS&#45;&gt;LAGRANGE_MULTIPLIERS -->
<!-- RANDOM_VARIABLES -->
<g id="node7" class="node"><title>RANDOM_VARIABLES</title>
<g id="a_node7"><a xlink:href="RANDOM_VARIABLES.html" xlink:title=" Random variables " target="_top">
<path fill="none" stroke="black" d="M506.25,-324C506.25,-324 407.75,-324 407.75,-324 401.75,-324 395.75,-318 395.75,-312 395.75,-312 395.75,-300 395.75,-300 395.75,-294 401.75,-288 407.75,-288 407.75,-288 506.25,-288 506.25,-288 512.25,-288 518.25,-294 518.25,-300 518.25,-300 518.25,-312 518.25,-312 518.25,-318 512.25,-324 506.25,-324"/>
<text text-anchor="start" x="403.5" y="-302.3" font-family="Times,serif" font-size="14.00"> Random variables </text>
</a>
</g>
</g>
<!-- RANDOM_VARIABLES&#45;&gt;GENERALIZED_PARTITION_FUNCTION -->
<g id="edge7" class="edge"><title>RANDOM_VARIABLES&#45;&gt;GENERALIZED_PARTITION_FUNCTION</title>
<path fill="none" stroke="black" d="M445.589,-287.701C432.056,-268.241 407.915,-236.663 381,-216 364.408,-203.262 344.263,-192.513 325.712,-184.095"/>
<polygon fill="black" stroke="black" points="327.034,-180.853 316.471,-180.03 324.215,-187.26 327.034,-180.853"/>
</g>
<!-- LAGRANGE_MULTIPLIERS&#45;&gt;GENERALIZED_PARTITION_FUNCTION -->
<g id="edge8" class="edge"><title>LAGRANGE_MULTIPLIERS&#45;&gt;GENERALIZED_PARTITION_FUNCTION</title>
<path fill="none" stroke="black" d="M270,-215.697C270,-207.983 270,-198.712 270,-190.112"/>
<polygon fill="black" stroke="black" points="273.5,-190.104 270,-180.104 266.5,-190.104 273.5,-190.104"/>
</g>
</g>
</svg>
