<?xml version="1.0" encoding="UTF-8" standalone="no"?>
<!DOCTYPE svg PUBLIC "-//W3C//DTD SVG 1.1//EN"
 "http://www.w3.org/Graphics/SVG/1.1/DTD/svg11.dtd">
<!-- Generated by graphviz version 2.26.3 (20100126.1600)
 -->
<!-- Title: _anonymous_0 Pages: 1 -->
<svg width="910pt" height="404pt"
 viewBox="0.00 0.00 910.00 404.00" xmlns="http://www.w3.org/2000/svg" xmlns:xlink="http://www.w3.org/1999/xlink">
<g id="graph1" class="graph" transform="scale(1 1) rotate(0) translate(4 400)">
<title>_anonymous_0</title>
<!-- GENERALIZED_PARTITION_FUNCTION -->
<g id="node1" class="node"><title>GENERALIZED_PARTITION_FUNCTION</title>
<a xlink:href="GENERALIZED_PARTITION_FUNCTION.html" xlink:title="The generalized partition function" target="_top">
<polyline fill="none" stroke="blue" stroke-width="2" points="481,-180 253,-180 "/>
<path fill="none" stroke="blue" stroke-width="2" d="M253,-180C247,-180 241,-174 241,-168"/>
<polyline fill="none" stroke="blue" stroke-width="2" points="241,-168 241,-156 "/>
<path fill="none" stroke="blue" stroke-width="2" d="M241,-156C241,-150 247,-144 253,-144"/>
<polyline fill="none" stroke="blue" stroke-width="2" points="253,-144 481,-144 "/>
<path fill="none" stroke="blue" stroke-width="2" d="M481,-144C487,-144 493,-150 493,-156"/>
<polyline fill="none" stroke="blue" stroke-width="2" points="493,-156 493,-168 "/>
<path fill="none" stroke="blue" stroke-width="2" d="M493,-168C493,-174 487,-180 481,-180"/>
<text text-anchor="start" x="249" y="-159.233" font-family="Times Roman,serif" font-size="14.00">The generalized partition function</text>
</a>
</g>
<!-- GRAND_CANONICAL_ENSEMBLE -->
<g id="node2" class="node"><title>GRAND_CANONICAL_ENSEMBLE</title>
<a xlink:href="GRAND_CANONICAL_ENSEMBLE.html" xlink:title="The grand canonical ensemble" target="_top">
<polyline fill="none" stroke="black" points="214,-108 12,-108 "/>
<path fill="none" stroke="black" d="M12,-108C6,-108 7.10543e-14,-102 5.68434e-14,-96"/>
<polyline fill="none" stroke="black" points="5.68434e-14,-96 2.84217e-14,-84 "/>
<path fill="none" stroke="black" d="M2.84217e-14,-84C1.42109e-14,-78 6,-72 12,-72"/>
<polyline fill="none" stroke="black" points="12,-72 214,-72 "/>
<path fill="none" stroke="black" d="M214,-72C220,-72 226,-78 226,-84"/>
<polyline fill="none" stroke="black" points="226,-84 226,-96 "/>
<path fill="none" stroke="black" d="M226,-96C226,-102 220,-108 214,-108"/>
<text text-anchor="start" x="8.5" y="-87.2333" font-family="Times Roman,serif" font-size="14.00">The grand canonical ensemble</text>
</a>
</g>
<!-- GENERALIZED_PARTITION_FUNCTION&#45;&gt;GRAND_CANONICAL_ENSEMBLE -->
<g id="edge2" class="edge"><title>GENERALIZED_PARTITION_FUNCTION&#45;&gt;GRAND_CANONICAL_ENSEMBLE</title>
<path fill="none" stroke="black" d="M303.233,-143.924C267.755,-133.868 223.438,-121.305 186.506,-110.836"/>
<polygon fill="black" stroke="black" points="187.369,-107.443 176.793,-108.083 185.46,-114.178 187.369,-107.443"/>
</g>
<!-- ISOTHERMAL_ISOBARIC_ENSEMBLE -->
<g id="node8" class="node"><title>ISOTHERMAL_ISOBARIC_ENSEMBLE</title>
<a xlink:href="ISOTHERMAL_ISOBARIC_ENSEMBLE.html" xlink:title="The isothermal isobaric ensemble" target="_top">
<polyline fill="none" stroke="black" points="478,-108 256,-108 "/>
<path fill="none" stroke="black" d="M256,-108C250,-108 244,-102 244,-96"/>
<polyline fill="none" stroke="black" points="244,-96 244,-84 "/>
<path fill="none" stroke="black" d="M244,-84C244,-78 250,-72 256,-72"/>
<polyline fill="none" stroke="black" points="256,-72 478,-72 "/>
<path fill="none" stroke="black" d="M478,-72C484,-72 490,-78 490,-84"/>
<polyline fill="none" stroke="black" points="490,-84 490,-96 "/>
<path fill="none" stroke="black" d="M490,-96C490,-102 484,-108 478,-108"/>
<text text-anchor="start" x="252" y="-87.2333" font-family="Times Roman,serif" font-size="14.00">The isothermal isobaric ensemble</text>
</a>
</g>
<!-- GENERALIZED_PARTITION_FUNCTION&#45;&gt;ISOTHERMAL_ISOBARIC_ENSEMBLE -->
<g id="edge8" class="edge"><title>GENERALIZED_PARTITION_FUNCTION&#45;&gt;ISOTHERMAL_ISOBARIC_ENSEMBLE</title>
<path fill="none" stroke="black" d="M367,-143.831C367,-136.131 367,-126.974 367,-118.417"/>
<polygon fill="black" stroke="black" points="370.5,-118.413 367,-108.413 363.5,-118.413 370.5,-118.413"/>
</g>
<!-- CANONICAL_ENSEMBLE -->
<g id="node15" class="node"><title>CANONICAL_ENSEMBLE</title>
<a xlink:href="CANONICAL_ENSEMBLE.html" xlink:title="The canonical ensemble" target="_top">
<polyline fill="none" stroke="black" points="394,-36 236,-36 "/>
<path fill="none" stroke="black" d="M236,-36C230,-36 224,-30 224,-24"/>
<polyline fill="none" stroke="black" points="224,-24 224,-12 "/>
<path fill="none" stroke="black" d="M224,-12C224,-6 230,-1.72951e-14 236,-1.68266e-14"/>
<polyline fill="none" stroke="black" points="236,-1.68266e-14 394,-4.48969e-15 "/>
<path fill="none" stroke="black" d="M394,-4.48969e-15C400,-4.0212e-15 406,-6 406,-12"/>
<polyline fill="none" stroke="black" points="406,-12 406,-24 "/>
<path fill="none" stroke="black" d="M406,-24C406,-30 400,-36 394,-36"/>
<text text-anchor="start" x="232.5" y="-15.2333" font-family="Times Roman,serif" font-size="14.00">The canonical ensemble</text>
</a>
</g>
<!-- GENERALIZED_PARTITION_FUNCTION&#45;&gt;CANONICAL_ENSEMBLE -->
<g id="edge16" class="edge"><title>GENERALIZED_PARTITION_FUNCTION&#45;&gt;CANONICAL_ENSEMBLE</title>
<path fill="none" stroke="black" d="M452.388,-143.993C470.715,-136.029 487.89,-124.548 499,-108 507.918,-94.716 508.589,-84.808 499,-72 488.079,-57.4134 452.854,-45.4277 416.106,-36.4856"/>
<polygon fill="black" stroke="black" points="416.771,-33.0464 406.235,-34.1616 415.166,-39.8601 416.771,-33.0464"/>
</g>
<!-- GRAND_CANONICAL_ENSEMBLE&#45;&gt;CANONICAL_ENSEMBLE -->
<!-- RANDOM_VARIABLES -->
<g id="node4" class="node"><title>RANDOM_VARIABLES</title>
<a xlink:href="RANDOM_VARIABLES.html" xlink:title="Random variables" target="_top">
<polyline fill="none" stroke="black" points="262,-396 146,-396 "/>
<path fill="none" stroke="black" d="M146,-396C140,-396 134,-390 134,-384"/>
<polyline fill="none" stroke="black" points="134,-384 134,-372 "/>
<path fill="none" stroke="black" d="M134,-372C134,-366 140,-360 146,-360"/>
<polyline fill="none" stroke="black" points="146,-360 262,-360 "/>
<path fill="none" stroke="black" d="M262,-360C268,-360 274,-366 274,-372"/>
<polyline fill="none" stroke="black" points="274,-372 274,-384 "/>
<path fill="none" stroke="black" d="M274,-384C274,-390 268,-396 262,-396"/>
<text text-anchor="start" x="142.5" y="-375.233" font-family="Times Roman,serif" font-size="14.00">Random variables</text>
</a>
</g>
<!-- RANDOM_VARIABLES&#45;&gt;GENERALIZED_PARTITION_FUNCTION -->
<g id="edge4" class="edge"><title>RANDOM_VARIABLES&#45;&gt;GENERALIZED_PARTITION_FUNCTION</title>
<path fill="none" stroke="black" d="M188.448,-359.846C180.995,-349.947 172.865,-337.07 169,-324 154.905,-276.34 161.587,-249.826 198,-216 213.293,-201.793 232.332,-191.324 252.062,-183.609"/>
<polygon fill="black" stroke="black" points="253.299,-186.884 261.476,-180.147 250.883,-180.314 253.299,-186.884"/>
</g>
<!-- LAGRANGE_MULTIPLIERS -->
<g id="node10" class="node"><title>LAGRANGE_MULTIPLIERS</title>
<a xlink:href="LAGRANGE_MULTIPLIERS.html" xlink:title="Lagrange multipliers" target="_top">
<polyline fill="none" stroke="black" points="324,-324 190,-324 "/>
<path fill="none" stroke="black" d="M190,-324C184,-324 178,-318 178,-312"/>
<polyline fill="none" stroke="black" points="178,-312 178,-300 "/>
<path fill="none" stroke="black" d="M178,-300C178,-294 184,-288 190,-288"/>
<polyline fill="none" stroke="black" points="190,-288 324,-288 "/>
<path fill="none" stroke="black" d="M324,-288C330,-288 336,-294 336,-300"/>
<polyline fill="none" stroke="black" points="336,-300 336,-312 "/>
<path fill="none" stroke="black" d="M336,-312C336,-318 330,-324 324,-324"/>
<text text-anchor="start" x="186" y="-303.233" font-family="Times Roman,serif" font-size="14.00">Lagrange multipliers</text>
</a>
</g>
<!-- RANDOM_VARIABLES&#45;&gt;LAGRANGE_MULTIPLIERS -->
<!-- INFORMATION_THEORY -->
<g id="node6" class="node"><title>INFORMATION_THEORY</title>
<a xlink:href="INFORMATION_THEORY.html" xlink:title="Information theory " target="_top">
<polyline fill="none" stroke="black" points="610,-396 482,-396 "/>
<path fill="none" stroke="black" d="M482,-396C476,-396 470,-390 470,-384"/>
<polyline fill="none" stroke="black" points="470,-384 470,-372 "/>
<path fill="none" stroke="black" d="M470,-372C470,-366 476,-360 482,-360"/>
<polyline fill="none" stroke="black" points="482,-360 610,-360 "/>
<path fill="none" stroke="black" d="M610,-360C616,-360 622,-366 622,-372"/>
<polyline fill="none" stroke="black" points="622,-372 622,-384 "/>
<path fill="none" stroke="black" d="M622,-384C622,-390 616,-396 610,-396"/>
<text text-anchor="start" x="478" y="-375.233" font-family="Times Roman,serif" font-size="14.00">Information theory </text>
</a>
</g>
<!-- INFORMATION_THEORY&#45;&gt;GENERALIZED_PARTITION_FUNCTION -->
<g id="edge6" class="edge"><title>INFORMATION_THEORY&#45;&gt;GENERALIZED_PARTITION_FUNCTION</title>
<path fill="none" stroke="black" d="M549.575,-359.842C554.901,-327.154 560.963,-257.912 527,-216 517.005,-203.666 486.834,-192.104 455.345,-182.868"/>
<polygon fill="black" stroke="black" points="456.127,-179.452 445.551,-180.078 454.209,-186.184 456.127,-179.452"/>
</g>
<!-- LAGRANGE_MULTIPLIERS&#45;&gt;GENERALIZED_PARTITION_FUNCTION -->
<g id="edge10" class="edge"><title>LAGRANGE_MULTIPLIERS&#45;&gt;GENERALIZED_PARTITION_FUNCTION</title>
<path fill="none" stroke="black" d="M234.52,-287.675C214.32,-268.947 190.217,-239.377 207,-216 216.103,-203.32 245.316,-191.846 276.334,-182.768"/>
<polygon fill="black" stroke="black" points="277.332,-186.123 285.999,-180.029 275.423,-179.388 277.332,-186.123"/>
</g>
<!-- PRINCIPLE_OF_EQUAL_APRIORI_PROBABILITIES -->
<g id="node18" class="node"><title>PRINCIPLE_OF_EQUAL_APRIORI_PROBABILITIES</title>
<a xlink:href="PRINCIPLE_OF_EQUAL_APRIORI_PROBABILITIES.html" xlink:title="The principle of equal apriori probabilities" target="_top">
<polyline fill="none" stroke="black" points="506,-252 228,-252 "/>
<path fill="none" stroke="black" d="M228,-252C222,-252 216,-246 216,-240"/>
<polyline fill="none" stroke="black" points="216,-240 216,-228 "/>
<path fill="none" stroke="black" d="M216,-228C216,-222 222,-216 228,-216"/>
<polyline fill="none" stroke="black" points="228,-216 506,-216 "/>
<path fill="none" stroke="black" d="M506,-216C512,-216 518,-222 518,-228"/>
<polyline fill="none" stroke="black" points="518,-228 518,-240 "/>
<path fill="none" stroke="black" d="M518,-240C518,-246 512,-252 506,-252"/>
<text text-anchor="start" x="224.5" y="-231.233" font-family="Times Roman,serif" font-size="14.00">The principle of equal apriori probabilities</text>
</a>
</g>
<!-- LAGRANGE_MULTIPLIERS&#45;&gt;PRINCIPLE_OF_EQUAL_APRIORI_PROBABILITIES -->
<!-- LAWS_OF_THERMODYNAMICS -->
<g id="node13" class="node"><title>LAWS_OF_THERMODYNAMICS</title>
<a xlink:href="LAWS_OF_THERMODYNAMICS.html" xlink:title="The first and second laws of thermodynamics" target="_top">
<polyline fill="none" stroke="black" points="890,-324 586,-324 "/>
<path fill="none" stroke="black" d="M586,-324C580,-324 574,-318 574,-312"/>
<polyline fill="none" stroke="black" points="574,-312 574,-300 "/>
<path fill="none" stroke="black" d="M574,-300C574,-294 580,-288 586,-288"/>
<polyline fill="none" stroke="black" points="586,-288 890,-288 "/>
<path fill="none" stroke="black" d="M890,-288C896,-288 902,-294 902,-300"/>
<polyline fill="none" stroke="black" points="902,-300 902,-312 "/>
<path fill="none" stroke="black" d="M902,-312C902,-318 896,-324 890,-324"/>
<text text-anchor="start" x="582" y="-303.233" font-family="Times Roman,serif" font-size="14.00">The first and second laws of thermodynamics</text>
</a>
</g>
<!-- LAWS_OF_THERMODYNAMICS&#45;&gt;GENERALIZED_PARTITION_FUNCTION -->
<g id="edge14" class="edge"><title>LAWS_OF_THERMODYNAMICS&#45;&gt;GENERALIZED_PARTITION_FUNCTION</title>
<path fill="none" stroke="black" d="M707.021,-287.989C672.165,-268.285 613.422,-236.749 560,-216 526.2,-202.872 487.936,-191.484 454.443,-182.594"/>
<polygon fill="black" stroke="black" points="455.234,-179.183 444.673,-180.035 453.46,-185.955 455.234,-179.183"/>
</g>
<!-- PRINCIPLE_OF_EQUAL_APRIORI_PROBABILITIES&#45;&gt;GENERALIZED_PARTITION_FUNCTION -->
<g id="edge20" class="edge"><title>PRINCIPLE_OF_EQUAL_APRIORI_PROBABILITIES&#45;&gt;GENERALIZED_PARTITION_FUNCTION</title>
<path fill="none" stroke="black" d="M367,-215.831C367,-208.131 367,-198.974 367,-190.417"/>
<polygon fill="black" stroke="black" points="370.5,-190.413 367,-180.413 363.5,-190.413 370.5,-190.413"/>
</g>
</g>
</svg>
