<?xml version="1.0" encoding="UTF-8" standalone="no"?>
<!DOCTYPE svg PUBLIC "-//W3C//DTD SVG 1.1//EN"
 "http://www.w3.org/Graphics/SVG/1.1/DTD/svg11.dtd">
<!-- Generated by graphviz version 2.26.3 (20100126.1600)
 -->
<!-- Title: _anonymous_0 Pages: 1 -->
<svg width="343pt" height="260pt"
 viewBox="0.00 0.00 343.00 260.00" xmlns="http://www.w3.org/2000/svg" xmlns:xlink="http://www.w3.org/1999/xlink">
<g id="graph1" class="graph" transform="scale(1 1) rotate(0) translate(4 256)">
<title>_anonymous_0</title>
<!-- GENERALIZED_PARTITION_FUNCTION -->
<g id="node1" class="node"><title>GENERALIZED_PARTITION_FUNCTION</title>
<a xlink:href="GENERALIZED_PARTITION_FUNCTION.html" xlink:title="The generalized partition function" target="_top">
<polyline fill="none" stroke="blue" stroke-width="2" points="266,-108 38,-108 "/>
<path fill="none" stroke="blue" stroke-width="2" d="M38,-108C32,-108 26,-102 26,-96"/>
<polyline fill="none" stroke="blue" stroke-width="2" points="26,-96 26,-84 "/>
<path fill="none" stroke="blue" stroke-width="2" d="M26,-84C26,-78 32,-72 38,-72"/>
<polyline fill="none" stroke="blue" stroke-width="2" points="38,-72 266,-72 "/>
<path fill="none" stroke="blue" stroke-width="2" d="M266,-72C272,-72 278,-78 278,-84"/>
<polyline fill="none" stroke="blue" stroke-width="2" points="278,-84 278,-96 "/>
<path fill="none" stroke="blue" stroke-width="2" d="M278,-96C278,-102 272,-108 266,-108"/>
<text text-anchor="start" x="34" y="-87.2333" font-family="Times Roman,serif" font-size="14.00">The generalized partition function</text>
</a>
</g>
<!-- CANONICAL_ENSEMBLE -->
<g id="node2" class="node"><title>CANONICAL_ENSEMBLE</title>
<a xlink:href="CANONICAL_ENSEMBLE.html" xlink:title="The canonical ensemble" target="_top">
<polyline fill="none" stroke="black" points="231,-36 73,-36 "/>
<path fill="none" stroke="black" d="M73,-36C67,-36 61,-30 61,-24"/>
<polyline fill="none" stroke="black" points="61,-24 61,-12 "/>
<path fill="none" stroke="black" d="M61,-12C61,-6 67,-1.72951e-14 73,-1.68266e-14"/>
<polyline fill="none" stroke="black" points="73,-1.68266e-14 231,-4.48969e-15 "/>
<path fill="none" stroke="black" d="M231,-4.48969e-15C237,-4.0212e-15 243,-6 243,-12"/>
<polyline fill="none" stroke="black" points="243,-12 243,-24 "/>
<path fill="none" stroke="black" d="M243,-24C243,-30 237,-36 231,-36"/>
<text text-anchor="start" x="69.5" y="-15.2333" font-family="Times Roman,serif" font-size="14.00">The canonical ensemble</text>
</a>
</g>
<!-- GENERALIZED_PARTITION_FUNCTION&#45;&gt;CANONICAL_ENSEMBLE -->
<g id="edge2" class="edge"><title>GENERALIZED_PARTITION_FUNCTION&#45;&gt;CANONICAL_ENSEMBLE</title>
<path fill="none" stroke="black" d="M152,-71.8314C152,-64.131 152,-54.9743 152,-46.4166"/>
<polygon fill="black" stroke="black" points="155.5,-46.4132 152,-36.4133 148.5,-46.4133 155.5,-46.4132"/>
</g>
<!-- RANDOM_VARIABLES -->
<g id="node4" class="node"><title>RANDOM_VARIABLES</title>
<a xlink:href="RANDOM_VARIABLES.html" xlink:title="Random variables" target="_top">
<polyline fill="none" stroke="black" points="128,-252 12,-252 "/>
<path fill="none" stroke="black" d="M12,-252C6,-252 5.92119e-14,-246 4.73695e-14,-240"/>
<polyline fill="none" stroke="black" points="4.73695e-14,-240 2.36848e-14,-228 "/>
<path fill="none" stroke="black" d="M2.36848e-14,-228C1.18424e-14,-222 6,-216 12,-216"/>
<polyline fill="none" stroke="black" points="12,-216 128,-216 "/>
<path fill="none" stroke="black" d="M128,-216C134,-216 140,-222 140,-228"/>
<polyline fill="none" stroke="black" points="140,-228 140,-240 "/>
<path fill="none" stroke="black" d="M140,-240C140,-246 134,-252 128,-252"/>
<text text-anchor="start" x="8.5" y="-231.233" font-family="Times Roman,serif" font-size="14.00">Random variables</text>
</a>
</g>
<!-- RANDOM_VARIABLES&#45;&gt;GENERALIZED_PARTITION_FUNCTION -->
<g id="edge4" class="edge"><title>RANDOM_VARIABLES&#45;&gt;GENERALIZED_PARTITION_FUNCTION</title>
<path fill="none" stroke="black" d="M63.2645,-215.816C57.3755,-196.671 51.5346,-166.274 64,-144 71.1835,-131.164 82.8042,-121.008 95.2791,-113.134"/>
<polygon fill="black" stroke="black" points="97.1339,-116.104 104.008,-108.041 93.6067,-110.057 97.1339,-116.104"/>
</g>
<!-- LAGRANGE_MULTIPLIERS -->
<g id="node8" class="node"><title>LAGRANGE_MULTIPLIERS</title>
<a xlink:href="LAGRANGE_MULTIPLIERS.html" xlink:title="Lagrange multipliers" target="_top">
<polyline fill="none" stroke="black" points="219,-180 85,-180 "/>
<path fill="none" stroke="black" d="M85,-180C79,-180 73,-174 73,-168"/>
<polyline fill="none" stroke="black" points="73,-168 73,-156 "/>
<path fill="none" stroke="black" d="M73,-156C73,-150 79,-144 85,-144"/>
<polyline fill="none" stroke="black" points="85,-144 219,-144 "/>
<path fill="none" stroke="black" d="M219,-144C225,-144 231,-150 231,-156"/>
<polyline fill="none" stroke="black" points="231,-156 231,-168 "/>
<path fill="none" stroke="black" d="M231,-168C231,-174 225,-180 219,-180"/>
<text text-anchor="start" x="81" y="-159.233" font-family="Times Roman,serif" font-size="14.00">Lagrange multipliers</text>
</a>
</g>
<!-- RANDOM_VARIABLES&#45;&gt;LAGRANGE_MULTIPLIERS -->
<!-- INFORMATION_THEORY -->
<g id="node6" class="node"><title>INFORMATION_THEORY</title>
<a xlink:href="INFORMATION_THEORY.html" xlink:title="Information theory " target="_top">
<polyline fill="none" stroke="black" points="323,-252 195,-252 "/>
<path fill="none" stroke="black" d="M195,-252C189,-252 183,-246 183,-240"/>
<polyline fill="none" stroke="black" points="183,-240 183,-228 "/>
<path fill="none" stroke="black" d="M183,-228C183,-222 189,-216 195,-216"/>
<polyline fill="none" stroke="black" points="195,-216 323,-216 "/>
<path fill="none" stroke="black" d="M323,-216C329,-216 335,-222 335,-228"/>
<polyline fill="none" stroke="black" points="335,-228 335,-240 "/>
<path fill="none" stroke="black" d="M335,-240C335,-246 329,-252 323,-252"/>
<text text-anchor="start" x="191" y="-231.233" font-family="Times Roman,serif" font-size="14.00">Information theory </text>
</a>
</g>
<!-- INFORMATION_THEORY&#45;&gt;GENERALIZED_PARTITION_FUNCTION -->
<g id="edge6" class="edge"><title>INFORMATION_THEORY&#45;&gt;GENERALIZED_PARTITION_FUNCTION</title>
<path fill="none" stroke="black" d="M259.25,-215.776C258.646,-196.319 255.094,-165.403 240,-144 231.187,-131.503 218.474,-121.338 205.441,-113.339"/>
<polygon fill="black" stroke="black" points="206.824,-110.097 196.41,-108.145 203.334,-116.165 206.824,-110.097"/>
</g>
<!-- LAGRANGE_MULTIPLIERS&#45;&gt;GENERALIZED_PARTITION_FUNCTION -->
<g id="edge8" class="edge"><title>LAGRANGE_MULTIPLIERS&#45;&gt;GENERALIZED_PARTITION_FUNCTION</title>
<path fill="none" stroke="black" d="M152,-143.831C152,-136.131 152,-126.974 152,-118.417"/>
<polygon fill="black" stroke="black" points="155.5,-118.413 152,-108.413 148.5,-118.413 155.5,-118.413"/>
</g>
</g>
</svg>
