<?xml version="1.0" encoding="UTF-8" standalone="no"?>
<!DOCTYPE svg PUBLIC "-//W3C//DTD SVG 1.1//EN"
 "http://www.w3.org/Graphics/SVG/1.1/DTD/svg11.dtd">
<!-- Generated by graphviz version 2.26.3 (20100126.1600)
 -->
<!-- Title: _anonymous_0 Pages: 1 -->
<svg width="657pt" height="404pt"
 viewBox="0.00 0.00 657.00 404.00" xmlns="http://www.w3.org/2000/svg" xmlns:xlink="http://www.w3.org/1999/xlink">
<g id="graph1" class="graph" transform="scale(1 1) rotate(0) translate(4 400)">
<title>_anonymous_0</title>
<!-- GENERALIZED_PARTITION_FUNCTION -->
<g id="node1" class="node"><title>GENERALIZED_PARTITION_FUNCTION</title>
<a xlink:href="GENERALIZED_PARTITION_FUNCTION.html" xlink:title=" The generalized partition function " target="_top">
<polyline fill="none" stroke="blue" stroke-width="2" points="466,-180 228,-180 "/>
<path fill="none" stroke="blue" stroke-width="2" d="M228,-180C222,-180 216,-174 216,-168"/>
<polyline fill="none" stroke="blue" stroke-width="2" points="216,-168 216,-156 "/>
<path fill="none" stroke="blue" stroke-width="2" d="M216,-156C216,-150 222,-144 228,-144"/>
<polyline fill="none" stroke="blue" stroke-width="2" points="228,-144 466,-144 "/>
<path fill="none" stroke="blue" stroke-width="2" d="M466,-144C472,-144 478,-150 478,-156"/>
<polyline fill="none" stroke="blue" stroke-width="2" points="478,-156 478,-168 "/>
<path fill="none" stroke="blue" stroke-width="2" d="M478,-168C478,-174 472,-180 466,-180"/>
<text text-anchor="start" x="224.5" y="-159.233" font-family="Times Roman,serif" font-size="14.00"> The generalized partition function </text>
</a>
</g>
<!-- GRAND_CANONICAL_ENSEMBLE -->
<g id="node4" class="node"><title>GRAND_CANONICAL_ENSEMBLE</title>
<a xlink:href="GRAND_CANONICAL_ENSEMBLE.html" xlink:title=" The grand canonical ensemble " target="_top">
<polyline fill="none" stroke="black" points="222,-108 12,-108 "/>
<path fill="none" stroke="black" d="M12,-108C6,-108 8.28967e-14,-102 6.63173e-14,-96"/>
<polyline fill="none" stroke="black" points="6.63173e-14,-96 3.31587e-14,-84 "/>
<path fill="none" stroke="black" d="M3.31587e-14,-84C1.65793e-14,-78 6,-72 12,-72"/>
<polyline fill="none" stroke="black" points="12,-72 222,-72 "/>
<path fill="none" stroke="black" d="M222,-72C228,-72 234,-78 234,-84"/>
<polyline fill="none" stroke="black" points="234,-84 234,-96 "/>
<path fill="none" stroke="black" d="M234,-96C234,-102 228,-108 222,-108"/>
<text text-anchor="start" x="8" y="-87.2333" font-family="Times Roman,serif" font-size="14.00"> The grand canonical ensemble </text>
</a>
</g>
<!-- GENERALIZED_PARTITION_FUNCTION&#45;&gt;GRAND_CANONICAL_ENSEMBLE -->
<g id="edge4" class="edge"><title>GENERALIZED_PARTITION_FUNCTION&#45;&gt;GRAND_CANONICAL_ENSEMBLE</title>
<path fill="none" stroke="black" d="M289.258,-143.924C257.406,-133.953 217.685,-121.519 184.416,-111.104"/>
<polygon fill="black" stroke="black" points="185.355,-107.731 174.766,-108.083 183.263,-114.411 185.355,-107.731"/>
</g>
<!-- CANONICAL_ENSEMBLE -->
<g id="node13" class="node"><title>CANONICAL_ENSEMBLE</title>
<a xlink:href="CANONICAL_ENSEMBLE.html" xlink:title=" The canonical ensemble " target="_top">
<polyline fill="none" stroke="black" points="430,-108 264,-108 "/>
<path fill="none" stroke="black" d="M264,-108C258,-108 252,-102 252,-96"/>
<polyline fill="none" stroke="black" points="252,-96 252,-84 "/>
<path fill="none" stroke="black" d="M252,-84C252,-78 258,-72 264,-72"/>
<polyline fill="none" stroke="black" points="264,-72 430,-72 "/>
<path fill="none" stroke="black" d="M430,-72C436,-72 442,-78 442,-84"/>
<polyline fill="none" stroke="black" points="442,-84 442,-96 "/>
<path fill="none" stroke="black" d="M442,-96C442,-102 436,-108 430,-108"/>
<text text-anchor="start" x="260" y="-87.2333" font-family="Times Roman,serif" font-size="14.00"> The canonical ensemble </text>
</a>
</g>
<!-- GENERALIZED_PARTITION_FUNCTION&#45;&gt;CANONICAL_ENSEMBLE -->
<g id="edge14" class="edge"><title>GENERALIZED_PARTITION_FUNCTION&#45;&gt;CANONICAL_ENSEMBLE</title>
<path fill="none" stroke="black" d="M347,-143.831C347,-136.131 347,-126.974 347,-118.417"/>
<polygon fill="black" stroke="black" points="350.5,-118.413 347,-108.413 343.5,-118.413 350.5,-118.413"/>
</g>
<!-- ISOTHERMAL_ISOBARIC_ENSEMBLE -->
<g id="node18" class="node"><title>ISOTHERMAL_ISOBARIC_ENSEMBLE</title>
<a xlink:href="ISOTHERMAL_ISOBARIC_ENSEMBLE.html" xlink:title=" The isothermal isobaric ensemble " target="_top">
<polyline fill="none" stroke="black" points="409,-36 177,-36 "/>
<path fill="none" stroke="black" d="M177,-36C171,-36 165,-30 165,-24"/>
<polyline fill="none" stroke="black" points="165,-24 165,-12 "/>
<path fill="none" stroke="black" d="M165,-12C165,-6 171,-1.74305e-14 177,-1.70974e-14"/>
<polyline fill="none" stroke="black" points="177,-1.70974e-14 409,-4.21885e-15 "/>
<path fill="none" stroke="black" d="M409,-4.21885e-15C415,-3.88578e-15 421,-6 421,-12"/>
<polyline fill="none" stroke="black" points="421,-12 421,-24 "/>
<path fill="none" stroke="black" d="M421,-24C421,-30 415,-36 409,-36"/>
<text text-anchor="start" x="173.5" y="-15.2333" font-family="Times Roman,serif" font-size="14.00"> The isothermal isobaric ensemble </text>
</a>
</g>
<!-- GENERALIZED_PARTITION_FUNCTION&#45;&gt;ISOTHERMAL_ISOBARIC_ENSEMBLE -->
<g id="edge20" class="edge"><title>GENERALIZED_PARTITION_FUNCTION&#45;&gt;ISOTHERMAL_ISOBARIC_ENSEMBLE</title>
<path fill="none" stroke="black" d="M407.576,-143.999C424.588,-135.842 441.123,-124.257 451,-108 459.308,-94.3258 460.306,-85.0152 451,-72 442.024,-59.4461 413.181,-47.9935 382.552,-38.8979"/>
<polygon fill="black" stroke="black" points="383.145,-35.4267 372.567,-36.0291 381.212,-42.1545 383.145,-35.4267"/>
</g>
<!-- RANDOM_VARIABLES -->
<g id="node2" class="node"><title>RANDOM_VARIABLES</title>
<a xlink:href="RANDOM_VARIABLES.html" xlink:title=" Random variables " target="_top">
<polyline fill="none" stroke="black" points="208,-396 84,-396 "/>
<path fill="none" stroke="black" d="M84,-396C78,-396 72,-390 72,-384"/>
<polyline fill="none" stroke="black" points="72,-384 72,-372 "/>
<path fill="none" stroke="black" d="M72,-372C72,-366 78,-360 84,-360"/>
<polyline fill="none" stroke="black" points="84,-360 208,-360 "/>
<path fill="none" stroke="black" d="M208,-360C214,-360 220,-366 220,-372"/>
<polyline fill="none" stroke="black" points="220,-372 220,-384 "/>
<path fill="none" stroke="black" d="M220,-384C220,-390 214,-396 208,-396"/>
<text text-anchor="start" x="80" y="-375.233" font-family="Times Roman,serif" font-size="14.00"> Random variables </text>
</a>
</g>
<!-- RANDOM_VARIABLES&#45;&gt;GENERALIZED_PARTITION_FUNCTION -->
<g id="edge2" class="edge"><title>RANDOM_VARIABLES&#45;&gt;GENERALIZED_PARTITION_FUNCTION</title>
<path fill="none" stroke="black" d="M130.012,-359.91C115.445,-341.112 98.1508,-311.246 112,-288 144.287,-233.806 208.787,-201.606 262.058,-183.34"/>
<polygon fill="black" stroke="black" points="263.473,-186.559 271.863,-180.09 261.27,-179.914 263.473,-186.559"/>
</g>
<!-- PRINCIPLE_OF_EQUAL_APRIORI_PROBABILITIES -->
<g id="node8" class="node"><title>PRINCIPLE_OF_EQUAL_APRIORI_PROBABILITIES</title>
<a xlink:href="PRINCIPLE_OF_EQUAL_APRIORI_PROBABILITIES.html" xlink:title=" The principle of equal apriori probabilities " target="_top">
<polyline fill="none" stroke="black" points="419,-324 133,-324 "/>
<path fill="none" stroke="black" d="M133,-324C127,-324 121,-318 121,-312"/>
<polyline fill="none" stroke="black" points="121,-312 121,-300 "/>
<path fill="none" stroke="black" d="M121,-300C121,-294 127,-288 133,-288"/>
<polyline fill="none" stroke="black" points="133,-288 419,-288 "/>
<path fill="none" stroke="black" d="M419,-288C425,-288 431,-294 431,-300"/>
<polyline fill="none" stroke="black" points="431,-300 431,-312 "/>
<path fill="none" stroke="black" d="M431,-312C431,-318 425,-324 419,-324"/>
<text text-anchor="start" x="129" y="-303.233" font-family="Times Roman,serif" font-size="14.00"> The principle of equal apriori probabilities </text>
</a>
</g>
<!-- RANDOM_VARIABLES&#45;&gt;PRINCIPLE_OF_EQUAL_APRIORI_PROBABILITIES -->
<!-- GRAND_CANONICAL_ENSEMBLE&#45;&gt;ISOTHERMAL_ISOBARIC_ENSEMBLE -->
<!-- LAWS_OF_THERMODYNAMICS -->
<g id="node6" class="node"><title>LAWS_OF_THERMODYNAMICS</title>
<a xlink:href="LAWS_OF_THERMODYNAMICS.html" xlink:title=" The first and second laws of thermodynamics " target="_top">
<polyline fill="none" stroke="black" points="616,-396 302,-396 "/>
<path fill="none" stroke="black" d="M302,-396C296,-396 290,-390 290,-384"/>
<polyline fill="none" stroke="black" points="290,-384 290,-372 "/>
<path fill="none" stroke="black" d="M290,-372C290,-366 296,-360 302,-360"/>
<polyline fill="none" stroke="black" points="302,-360 616,-360 "/>
<path fill="none" stroke="black" d="M616,-360C622,-360 628,-366 628,-372"/>
<polyline fill="none" stroke="black" points="628,-372 628,-384 "/>
<path fill="none" stroke="black" d="M628,-384C628,-390 622,-396 616,-396"/>
<text text-anchor="start" x="298.5" y="-375.233" font-family="Times Roman,serif" font-size="14.00"> The first and second laws of thermodynamics </text>
</a>
</g>
<!-- LAWS_OF_THERMODYNAMICS&#45;&gt;GENERALIZED_PARTITION_FUNCTION -->
<g id="edge6" class="edge"><title>LAWS_OF_THERMODYNAMICS&#45;&gt;GENERALIZED_PARTITION_FUNCTION</title>
<path fill="none" stroke="black" d="M461.78,-359.967C465.707,-328.076 469.441,-260.865 440,-216 431.513,-203.067 418.779,-192.85 405.435,-184.944"/>
<polygon fill="black" stroke="black" points="407.063,-181.845 396.617,-180.078 403.681,-187.974 407.063,-181.845"/>
</g>
<!-- PRINCIPLE_OF_EQUAL_APRIORI_PROBABILITIES&#45;&gt;GENERALIZED_PARTITION_FUNCTION -->
<g id="edge8" class="edge"><title>PRINCIPLE_OF_EQUAL_APRIORI_PROBABILITIES&#45;&gt;GENERALIZED_PARTITION_FUNCTION</title>
<path fill="none" stroke="black" d="M264.22,-287.993C253.415,-268.996 240.919,-238.722 254,-216 261.417,-203.116 273.217,-193.023 285.957,-185.231"/>
<polygon fill="black" stroke="black" points="287.892,-188.158 294.884,-180.198 284.454,-182.06 287.892,-188.158"/>
</g>
<!-- LAGRANGE_MULTIPLIERS -->
<g id="node15" class="node"><title>LAGRANGE_MULTIPLIERS</title>
<a xlink:href="LAGRANGE_MULTIPLIERS.html" xlink:title=" Lagrange multipliers " target="_top">
<polyline fill="none" stroke="black" points="419,-252 275,-252 "/>
<path fill="none" stroke="black" d="M275,-252C269,-252 263,-246 263,-240"/>
<polyline fill="none" stroke="black" points="263,-240 263,-228 "/>
<path fill="none" stroke="black" d="M263,-228C263,-222 269,-216 275,-216"/>
<polyline fill="none" stroke="black" points="275,-216 419,-216 "/>
<path fill="none" stroke="black" d="M419,-216C425,-216 431,-222 431,-228"/>
<polyline fill="none" stroke="black" points="431,-228 431,-240 "/>
<path fill="none" stroke="black" d="M431,-240C431,-246 425,-252 419,-252"/>
<text text-anchor="start" x="271.5" y="-231.233" font-family="Times Roman,serif" font-size="14.00"> Lagrange multipliers </text>
</a>
</g>
<!-- PRINCIPLE_OF_EQUAL_APRIORI_PROBABILITIES&#45;&gt;LAGRANGE_MULTIPLIERS -->
<!-- INFORMATION_THEORY -->
<g id="node11" class="node"><title>INFORMATION_THEORY</title>
<a xlink:href="INFORMATION_THEORY.html" xlink:title=" Information theory &#160;" target="_top">
<polyline fill="none" stroke="black" points="637,-324 499,-324 "/>
<path fill="none" stroke="black" d="M499,-324C493,-324 487,-318 487,-312"/>
<polyline fill="none" stroke="black" points="487,-312 487,-300 "/>
<path fill="none" stroke="black" d="M487,-300C487,-294 493,-288 499,-288"/>
<polyline fill="none" stroke="black" points="499,-288 637,-288 "/>
<path fill="none" stroke="black" d="M637,-288C643,-288 649,-294 649,-300"/>
<polyline fill="none" stroke="black" points="649,-300 649,-312 "/>
<path fill="none" stroke="black" d="M649,-312C649,-318 643,-324 637,-324"/>
<text text-anchor="start" x="495.5" y="-303.233" font-family="Times Roman,serif" font-size="14.00"> Information theory &#160;</text>
</a>
</g>
<!-- INFORMATION_THEORY&#45;&gt;GENERALIZED_PARTITION_FUNCTION -->
<g id="edge12" class="edge"><title>INFORMATION_THEORY&#45;&gt;GENERALIZED_PARTITION_FUNCTION</title>
<path fill="none" stroke="black" d="M552.396,-287.775C534.733,-268.029 504.323,-236.595 473,-216 453.6,-203.244 430.687,-192.368 409.757,-183.792"/>
<polygon fill="black" stroke="black" points="410.884,-180.473 400.299,-180.015 408.288,-186.974 410.884,-180.473"/>
</g>
<!-- LAGRANGE_MULTIPLIERS&#45;&gt;GENERALIZED_PARTITION_FUNCTION -->
<g id="edge16" class="edge"><title>LAGRANGE_MULTIPLIERS&#45;&gt;GENERALIZED_PARTITION_FUNCTION</title>
<path fill="none" stroke="black" d="M347,-215.831C347,-208.131 347,-198.974 347,-190.417"/>
<polygon fill="black" stroke="black" points="350.5,-190.413 347,-180.413 343.5,-190.413 350.5,-190.413"/>
</g>
</g>
</svg>
