<?xml version="1.0" encoding="UTF-8" standalone="no"?>
<!DOCTYPE svg PUBLIC "-//W3C//DTD SVG 1.1//EN"
 "http://www.w3.org/Graphics/SVG/1.1/DTD/svg11.dtd">
<!-- Generated by graphviz version 2.26.3 (20100126.1600)
 -->
<!-- Title: _anonymous_0 Pages: 1 -->
<svg width="853pt" height="404pt"
 viewBox="0.00 0.00 853.00 404.00" xmlns="http://www.w3.org/2000/svg" xmlns:xlink="http://www.w3.org/1999/xlink">
<g id="graph1" class="graph" transform="scale(1 1) rotate(0) translate(4 400)">
<title>_anonymous_0</title>
<!-- GENERALIZED_PARTITION_FUNCTION -->
<g id="node1" class="node"><title>GENERALIZED_PARTITION_FUNCTION</title>
<a xlink:href="GENERALIZED_PARTITION_FUNCTION.html" xlink:title="The generalized partition function" target="_top">
<polyline fill="none" stroke="blue" stroke-width="2" points="437,-180 209,-180 "/>
<path fill="none" stroke="blue" stroke-width="2" d="M209,-180C203,-180 197,-174 197,-168"/>
<polyline fill="none" stroke="blue" stroke-width="2" points="197,-168 197,-156 "/>
<path fill="none" stroke="blue" stroke-width="2" d="M197,-156C197,-150 203,-144 209,-144"/>
<polyline fill="none" stroke="blue" stroke-width="2" points="209,-144 437,-144 "/>
<path fill="none" stroke="blue" stroke-width="2" d="M437,-144C443,-144 449,-150 449,-156"/>
<polyline fill="none" stroke="blue" stroke-width="2" points="449,-156 449,-168 "/>
<path fill="none" stroke="blue" stroke-width="2" d="M449,-168C449,-174 443,-180 437,-180"/>
<text text-anchor="start" x="205" y="-159.233" font-family="Times Roman,serif" font-size="14.00">The generalized partition function</text>
</a>
</g>
<!-- CANONICAL_ENSEMBLE -->
<g id="node4" class="node"><title>CANONICAL_ENSEMBLE</title>
<a xlink:href="CANONICAL_ENSEMBLE.html" xlink:title="The canonical ensemble" target="_top">
<polyline fill="none" stroke="black" points="170,-108 12,-108 "/>
<path fill="none" stroke="black" d="M12,-108C6,-108 5.92119e-14,-102 4.73695e-14,-96"/>
<polyline fill="none" stroke="black" points="4.73695e-14,-96 2.36848e-14,-84 "/>
<path fill="none" stroke="black" d="M2.36848e-14,-84C1.18424e-14,-78 6,-72 12,-72"/>
<polyline fill="none" stroke="black" points="12,-72 170,-72 "/>
<path fill="none" stroke="black" d="M170,-72C176,-72 182,-78 182,-84"/>
<polyline fill="none" stroke="black" points="182,-84 182,-96 "/>
<path fill="none" stroke="black" d="M182,-96C182,-102 176,-108 170,-108"/>
<text text-anchor="start" x="8.5" y="-87.2333" font-family="Times Roman,serif" font-size="14.00">The canonical ensemble</text>
</a>
</g>
<!-- GENERALIZED_PARTITION_FUNCTION&#45;&gt;CANONICAL_ENSEMBLE -->
<g id="edge4" class="edge"><title>GENERALIZED_PARTITION_FUNCTION&#45;&gt;CANONICAL_ENSEMBLE</title>
<path fill="none" stroke="black" d="M264.756,-143.924C232.627,-133.953 192.561,-121.519 159.002,-111.104"/>
<polygon fill="black" stroke="black" points="159.856,-107.704 149.268,-108.083 157.781,-114.39 159.856,-107.704"/>
</g>
<!-- ISOTHERMAL_ISOBARIC_ENSEMBLE -->
<g id="node11" class="node"><title>ISOTHERMAL_ISOBARIC_ENSEMBLE</title>
<a xlink:href="ISOTHERMAL_ISOBARIC_ENSEMBLE.html" xlink:title="The isothermal isobaric ensemble" target="_top">
<polyline fill="none" stroke="black" points="434,-108 212,-108 "/>
<path fill="none" stroke="black" d="M212,-108C206,-108 200,-102 200,-96"/>
<polyline fill="none" stroke="black" points="200,-96 200,-84 "/>
<path fill="none" stroke="black" d="M200,-84C200,-78 206,-72 212,-72"/>
<polyline fill="none" stroke="black" points="212,-72 434,-72 "/>
<path fill="none" stroke="black" d="M434,-72C440,-72 446,-78 446,-84"/>
<polyline fill="none" stroke="black" points="446,-84 446,-96 "/>
<path fill="none" stroke="black" d="M446,-96C446,-102 440,-108 434,-108"/>
<text text-anchor="start" x="208" y="-87.2333" font-family="Times Roman,serif" font-size="14.00">The isothermal isobaric ensemble</text>
</a>
</g>
<!-- GENERALIZED_PARTITION_FUNCTION&#45;&gt;ISOTHERMAL_ISOBARIC_ENSEMBLE -->
<g id="edge12" class="edge"><title>GENERALIZED_PARTITION_FUNCTION&#45;&gt;ISOTHERMAL_ISOBARIC_ENSEMBLE</title>
<path fill="none" stroke="black" d="M323,-143.831C323,-136.131 323,-126.974 323,-118.417"/>
<polygon fill="black" stroke="black" points="326.5,-118.413 323,-108.413 319.5,-118.413 326.5,-118.413"/>
</g>
<!-- GRAND_CANONICAL_ENSEMBLE -->
<g id="node13" class="node"><title>GRAND_CANONICAL_ENSEMBLE</title>
<a xlink:href="GRAND_CANONICAL_ENSEMBLE.html" xlink:title="The grand canonical ensemble" target="_top">
<polyline fill="none" stroke="black" points="383,-36 181,-36 "/>
<path fill="none" stroke="black" d="M181,-36C175,-36 169,-30 169,-24"/>
<polyline fill="none" stroke="black" points="169,-24 169,-12 "/>
<path fill="none" stroke="black" d="M169,-12C169,-6 175,-1.73863e-14 181,-1.7009e-14"/>
<polyline fill="none" stroke="black" points="181,-1.7009e-14 383,-4.30727e-15 "/>
<path fill="none" stroke="black" d="M383,-4.30727e-15C389,-3.92999e-15 395,-6 395,-12"/>
<polyline fill="none" stroke="black" points="395,-12 395,-24 "/>
<path fill="none" stroke="black" d="M395,-24C395,-30 389,-36 383,-36"/>
<text text-anchor="start" x="177.5" y="-15.2333" font-family="Times Roman,serif" font-size="14.00">The grand canonical ensemble</text>
</a>
</g>
<!-- GENERALIZED_PARTITION_FUNCTION&#45;&gt;GRAND_CANONICAL_ENSEMBLE -->
<g id="edge14" class="edge"><title>GENERALIZED_PARTITION_FUNCTION&#45;&gt;GRAND_CANONICAL_ENSEMBLE</title>
<path fill="none" stroke="black" d="M408.388,-143.993C426.715,-136.029 443.89,-124.548 455,-108 463.918,-94.716 464.48,-84.8895 455,-72 445.329,-58.8502 415.079,-47.4891 382.519,-38.6269"/>
<polygon fill="black" stroke="black" points="383.389,-35.2366 372.827,-36.0762 381.607,-42.0061 383.389,-35.2366"/>
</g>
<!-- INFORMATION_THEORY -->
<g id="node2" class="node"><title>INFORMATION_THEORY</title>
<a xlink:href="INFORMATION_THEORY.html" xlink:title="Information theory " target="_top">
<polyline fill="none" stroke="black" points="211,-396 83,-396 "/>
<path fill="none" stroke="black" d="M83,-396C77,-396 71,-390 71,-384"/>
<polyline fill="none" stroke="black" points="71,-384 71,-372 "/>
<path fill="none" stroke="black" d="M71,-372C71,-366 77,-360 83,-360"/>
<polyline fill="none" stroke="black" points="83,-360 211,-360 "/>
<path fill="none" stroke="black" d="M211,-360C217,-360 223,-366 223,-372"/>
<polyline fill="none" stroke="black" points="223,-372 223,-384 "/>
<path fill="none" stroke="black" d="M223,-384C223,-390 217,-396 211,-396"/>
<text text-anchor="start" x="79" y="-375.233" font-family="Times Roman,serif" font-size="14.00">Information theory </text>
</a>
</g>
<!-- INFORMATION_THEORY&#45;&gt;GENERALIZED_PARTITION_FUNCTION -->
<g id="edge2" class="edge"><title>INFORMATION_THEORY&#45;&gt;GENERALIZED_PARTITION_FUNCTION</title>
<path fill="none" stroke="black" d="M131.448,-359.846C123.995,-349.947 115.865,-337.07 112,-324 97.9055,-276.34 104.236,-249.445 141,-216 154.54,-203.682 190.593,-191.888 227.073,-182.481"/>
<polygon fill="black" stroke="black" points="228.006,-185.856 236.848,-180.018 226.296,-179.068 228.006,-185.856"/>
</g>
<!-- LAGRANGE_MULTIPLIERS -->
<g id="node8" class="node"><title>LAGRANGE_MULTIPLIERS</title>
<a xlink:href="LAGRANGE_MULTIPLIERS.html" xlink:title="Lagrange multipliers" target="_top">
<polyline fill="none" stroke="black" points="267,-324 133,-324 "/>
<path fill="none" stroke="black" d="M133,-324C127,-324 121,-318 121,-312"/>
<polyline fill="none" stroke="black" points="121,-312 121,-300 "/>
<path fill="none" stroke="black" d="M121,-300C121,-294 127,-288 133,-288"/>
<polyline fill="none" stroke="black" points="133,-288 267,-288 "/>
<path fill="none" stroke="black" d="M267,-288C273,-288 279,-294 279,-300"/>
<polyline fill="none" stroke="black" points="279,-300 279,-312 "/>
<path fill="none" stroke="black" d="M279,-312C279,-318 273,-324 267,-324"/>
<text text-anchor="start" x="129" y="-303.233" font-family="Times Roman,serif" font-size="14.00">Lagrange multipliers</text>
</a>
</g>
<!-- INFORMATION_THEORY&#45;&gt;LAGRANGE_MULTIPLIERS -->
<!-- CANONICAL_ENSEMBLE&#45;&gt;GRAND_CANONICAL_ENSEMBLE -->
<!-- RANDOM_VARIABLES -->
<g id="node6" class="node"><title>RANDOM_VARIABLES</title>
<a xlink:href="RANDOM_VARIABLES.html" xlink:title="Random variables" target="_top">
<polyline fill="none" stroke="black" points="573,-396 457,-396 "/>
<path fill="none" stroke="black" d="M457,-396C451,-396 445,-390 445,-384"/>
<polyline fill="none" stroke="black" points="445,-384 445,-372 "/>
<path fill="none" stroke="black" d="M445,-372C445,-366 451,-360 457,-360"/>
<polyline fill="none" stroke="black" points="457,-360 573,-360 "/>
<path fill="none" stroke="black" d="M573,-360C579,-360 585,-366 585,-372"/>
<polyline fill="none" stroke="black" points="585,-372 585,-384 "/>
<path fill="none" stroke="black" d="M585,-384C585,-390 579,-396 573,-396"/>
<text text-anchor="start" x="453.5" y="-375.233" font-family="Times Roman,serif" font-size="14.00">Random variables</text>
</a>
</g>
<!-- RANDOM_VARIABLES&#45;&gt;GENERALIZED_PARTITION_FUNCTION -->
<g id="edge6" class="edge"><title>RANDOM_VARIABLES&#45;&gt;GENERALIZED_PARTITION_FUNCTION</title>
<path fill="none" stroke="black" d="M518.669,-359.765C524.146,-326.953 530.442,-257.519 496,-216 485.35,-203.161 453.843,-191.694 420.584,-182.665"/>
<polygon fill="black" stroke="black" points="421.264,-179.224 410.702,-180.063 419.481,-185.994 421.264,-179.224"/>
</g>
<!-- LAGRANGE_MULTIPLIERS&#45;&gt;GENERALIZED_PARTITION_FUNCTION -->
<g id="edge8" class="edge"><title>LAGRANGE_MULTIPLIERS&#45;&gt;GENERALIZED_PARTITION_FUNCTION</title>
<path fill="none" stroke="black" d="M177.787,-287.943C157.424,-269.172 132.844,-239.327 150,-216 159.671,-202.85 189.921,-191.489 222.481,-182.627"/>
<polygon fill="black" stroke="black" points="223.393,-186.006 232.173,-180.076 221.611,-179.237 223.393,-186.006"/>
</g>
<!-- LAWS_OF_THERMODYNAMICS -->
<g id="node18" class="node"><title>LAWS_OF_THERMODYNAMICS</title>
<a xlink:href="LAWS_OF_THERMODYNAMICS.html" xlink:title="The first and second laws of thermodynamics" target="_top">
<polyline fill="none" stroke="black" points="475,-252 171,-252 "/>
<path fill="none" stroke="black" d="M171,-252C165,-252 159,-246 159,-240"/>
<polyline fill="none" stroke="black" points="159,-240 159,-228 "/>
<path fill="none" stroke="black" d="M159,-228C159,-222 165,-216 171,-216"/>
<polyline fill="none" stroke="black" points="171,-216 475,-216 "/>
<path fill="none" stroke="black" d="M475,-216C481,-216 487,-222 487,-228"/>
<polyline fill="none" stroke="black" points="487,-228 487,-240 "/>
<path fill="none" stroke="black" d="M487,-240C487,-246 481,-252 475,-252"/>
<text text-anchor="start" x="167" y="-231.233" font-family="Times Roman,serif" font-size="14.00">The first and second laws of thermodynamics</text>
</a>
</g>
<!-- LAGRANGE_MULTIPLIERS&#45;&gt;LAWS_OF_THERMODYNAMICS -->
<!-- PRINCIPLE_OF_EQUAL_APRIORI_PROBABILITIES -->
<g id="node16" class="node"><title>PRINCIPLE_OF_EQUAL_APRIORI_PROBABILITIES</title>
<a xlink:href="PRINCIPLE_OF_EQUAL_APRIORI_PROBABILITIES.html" xlink:title="The principle of equal apriori probabilities" target="_top">
<polyline fill="none" stroke="black" points="833,-324 555,-324 "/>
<path fill="none" stroke="black" d="M555,-324C549,-324 543,-318 543,-312"/>
<polyline fill="none" stroke="black" points="543,-312 543,-300 "/>
<path fill="none" stroke="black" d="M543,-300C543,-294 549,-288 555,-288"/>
<polyline fill="none" stroke="black" points="555,-288 833,-288 "/>
<path fill="none" stroke="black" d="M833,-288C839,-288 845,-294 845,-300"/>
<polyline fill="none" stroke="black" points="845,-300 845,-312 "/>
<path fill="none" stroke="black" d="M845,-312C845,-318 839,-324 833,-324"/>
<text text-anchor="start" x="551.5" y="-303.233" font-family="Times Roman,serif" font-size="14.00">The principle of equal apriori probabilities</text>
</a>
</g>
<!-- PRINCIPLE_OF_EQUAL_APRIORI_PROBABILITIES&#45;&gt;GENERALIZED_PARTITION_FUNCTION -->
<g id="edge18" class="edge"><title>PRINCIPLE_OF_EQUAL_APRIORI_PROBABILITIES&#45;&gt;GENERALIZED_PARTITION_FUNCTION</title>
<path fill="none" stroke="black" d="M665.826,-287.86C633.777,-267.893 579.345,-235.983 529,-216 494.596,-202.344 455.594,-191.11 420.854,-182.492"/>
<polygon fill="black" stroke="black" points="421.243,-178.985 410.699,-180.017 419.585,-185.786 421.243,-178.985"/>
</g>
<!-- LAWS_OF_THERMODYNAMICS&#45;&gt;GENERALIZED_PARTITION_FUNCTION -->
<g id="edge20" class="edge"><title>LAWS_OF_THERMODYNAMICS&#45;&gt;GENERALIZED_PARTITION_FUNCTION</title>
<path fill="none" stroke="black" d="M323,-215.831C323,-208.131 323,-198.974 323,-190.417"/>
<polygon fill="black" stroke="black" points="326.5,-190.413 323,-180.413 319.5,-190.413 326.5,-190.413"/>
</g>
</g>
</svg>
