<?xml version="1.0" encoding="UTF-8" standalone="no"?>
<!DOCTYPE svg PUBLIC "-//W3C//DTD SVG 1.1//EN"
 "http://www.w3.org/Graphics/SVG/1.1/DTD/svg11.dtd">
<!-- Generated by graphviz version 2.26.3 (20100126.1600)
 -->
<!-- Title: _anonymous_0 Pages: 1 -->
<svg width="705pt" height="332pt"
 viewBox="0.00 0.00 705.00 332.00" xmlns="http://www.w3.org/2000/svg" xmlns:xlink="http://www.w3.org/1999/xlink">
<g id="graph1" class="graph" transform="scale(1 1) rotate(0) translate(4 328)">
<title>_anonymous_0</title>
<!-- GENERALIZED_PARTITION_FUNCTION -->
<g id="node1" class="node"><title>GENERALIZED_PARTITION_FUNCTION</title>
<a xlink:href="GENERALIZED_PARTITION_FUNCTION.html" xlink:title="The generalized partition function" target="_top">
<polyline fill="none" stroke="blue" stroke-width="2" points="427,-180 199,-180 "/>
<path fill="none" stroke="blue" stroke-width="2" d="M199,-180C193,-180 187,-174 187,-168"/>
<polyline fill="none" stroke="blue" stroke-width="2" points="187,-168 187,-156 "/>
<path fill="none" stroke="blue" stroke-width="2" d="M187,-156C187,-150 193,-144 199,-144"/>
<polyline fill="none" stroke="blue" stroke-width="2" points="199,-144 427,-144 "/>
<path fill="none" stroke="blue" stroke-width="2" d="M427,-144C433,-144 439,-150 439,-156"/>
<polyline fill="none" stroke="blue" stroke-width="2" points="439,-156 439,-168 "/>
<path fill="none" stroke="blue" stroke-width="2" d="M439,-168C439,-174 433,-180 427,-180"/>
<text text-anchor="start" x="195" y="-159.233" font-family="Times Roman,serif" font-size="14.00">The generalized partition function</text>
</a>
</g>
<!-- CANONICAL_ENSEMBLE -->
<g id="node2" class="node"><title>CANONICAL_ENSEMBLE</title>
<a xlink:href="CANONICAL_ENSEMBLE.html" xlink:title="The canonical ensemble" target="_top">
<polyline fill="none" stroke="black" points="170,-108 12,-108 "/>
<path fill="none" stroke="black" d="M12,-108C6,-108 5.92119e-14,-102 4.73695e-14,-96"/>
<polyline fill="none" stroke="black" points="4.73695e-14,-96 2.36848e-14,-84 "/>
<path fill="none" stroke="black" d="M2.36848e-14,-84C1.18424e-14,-78 6,-72 12,-72"/>
<polyline fill="none" stroke="black" points="12,-72 170,-72 "/>
<path fill="none" stroke="black" d="M170,-72C176,-72 182,-78 182,-84"/>
<polyline fill="none" stroke="black" points="182,-84 182,-96 "/>
<path fill="none" stroke="black" d="M182,-96C182,-102 176,-108 170,-108"/>
<text text-anchor="start" x="8.5" y="-87.2333" font-family="Times Roman,serif" font-size="14.00">The canonical ensemble</text>
</a>
</g>
<!-- GENERALIZED_PARTITION_FUNCTION&#45;&gt;CANONICAL_ENSEMBLE -->
<g id="edge2" class="edge"><title>GENERALIZED_PARTITION_FUNCTION&#45;&gt;CANONICAL_ENSEMBLE</title>
<path fill="none" stroke="black" d="M257.267,-143.924C226.654,-133.996 188.512,-121.625 156.484,-111.238"/>
<polygon fill="black" stroke="black" points="157.348,-107.839 146.756,-108.083 155.189,-114.498 157.348,-107.839"/>
</g>
<!-- GRAND_CANONICAL_ENSEMBLE -->
<g id="node6" class="node"><title>GRAND_CANONICAL_ENSEMBLE</title>
<a xlink:href="GRAND_CANONICAL_ENSEMBLE.html" xlink:title="The grand canonical ensemble" target="_top">
<polyline fill="none" stroke="black" points="414,-108 212,-108 "/>
<path fill="none" stroke="black" d="M212,-108C206,-108 200,-102 200,-96"/>
<polyline fill="none" stroke="black" points="200,-96 200,-84 "/>
<path fill="none" stroke="black" d="M200,-84C200,-78 206,-72 212,-72"/>
<polyline fill="none" stroke="black" points="212,-72 414,-72 "/>
<path fill="none" stroke="black" d="M414,-72C420,-72 426,-78 426,-84"/>
<polyline fill="none" stroke="black" points="426,-84 426,-96 "/>
<path fill="none" stroke="black" d="M426,-96C426,-102 420,-108 414,-108"/>
<text text-anchor="start" x="208.5" y="-87.2333" font-family="Times Roman,serif" font-size="14.00">The grand canonical ensemble</text>
</a>
</g>
<!-- GENERALIZED_PARTITION_FUNCTION&#45;&gt;GRAND_CANONICAL_ENSEMBLE -->
<g id="edge6" class="edge"><title>GENERALIZED_PARTITION_FUNCTION&#45;&gt;GRAND_CANONICAL_ENSEMBLE</title>
<path fill="none" stroke="black" d="M313,-143.831C313,-136.131 313,-126.974 313,-118.417"/>
<polygon fill="black" stroke="black" points="316.5,-118.413 313,-108.413 309.5,-118.413 316.5,-118.413"/>
</g>
<!-- ISOTHERMAL_ISOBARIC_ENSEMBLE -->
<g id="node13" class="node"><title>ISOTHERMAL_ISOBARIC_ENSEMBLE</title>
<a xlink:href="ISOTHERMAL_ISOBARIC_ENSEMBLE.html" xlink:title="The isothermal isobaric ensemble" target="_top">
<polyline fill="none" stroke="black" points="383,-36 161,-36 "/>
<path fill="none" stroke="black" d="M161,-36C155,-36 149,-30 149,-24"/>
<polyline fill="none" stroke="black" points="149,-24 149,-12 "/>
<path fill="none" stroke="black" d="M149,-12C149,-6 155,-1.7417e-14 161,-1.70704e-14"/>
<polyline fill="none" stroke="black" points="161,-1.70704e-14 383,-4.24593e-15 "/>
<path fill="none" stroke="black" d="M383,-4.24593e-15C389,-3.89932e-15 395,-6 395,-12"/>
<polyline fill="none" stroke="black" points="395,-12 395,-24 "/>
<path fill="none" stroke="black" d="M395,-24C395,-30 389,-36 383,-36"/>
<text text-anchor="start" x="157" y="-15.2333" font-family="Times Roman,serif" font-size="14.00">The isothermal isobaric ensemble</text>
</a>
</g>
<!-- GENERALIZED_PARTITION_FUNCTION&#45;&gt;ISOTHERMAL_ISOBARIC_ENSEMBLE -->
<g id="edge14" class="edge"><title>GENERALIZED_PARTITION_FUNCTION&#45;&gt;ISOTHERMAL_ISOBARIC_ENSEMBLE</title>
<path fill="none" stroke="black" d="M389.205,-143.993C407.201,-135.997 424.259,-124.5 435,-108 443.729,-94.5908 444.367,-84.9713 435,-72 425.787,-59.242 396.449,-47.8225 365.153,-38.8075"/>
<polygon fill="black" stroke="black" points="365.97,-35.4019 355.397,-36.0881 364.09,-42.1448 365.97,-35.4019"/>
</g>
<!-- CANONICAL_ENSEMBLE&#45;&gt;ISOTHERMAL_ISOBARIC_ENSEMBLE -->
<!-- RANDOM_VARIABLES -->
<g id="node4" class="node"><title>RANDOM_VARIABLES</title>
<a xlink:href="RANDOM_VARIABLES.html" xlink:title="Random variables" target="_top">
<polyline fill="none" stroke="black" points="236,-324 120,-324 "/>
<path fill="none" stroke="black" d="M120,-324C114,-324 108,-318 108,-312"/>
<polyline fill="none" stroke="black" points="108,-312 108,-300 "/>
<path fill="none" stroke="black" d="M108,-300C108,-294 114,-288 120,-288"/>
<polyline fill="none" stroke="black" points="120,-288 236,-288 "/>
<path fill="none" stroke="black" d="M236,-288C242,-288 248,-294 248,-300"/>
<polyline fill="none" stroke="black" points="248,-300 248,-312 "/>
<path fill="none" stroke="black" d="M248,-312C248,-318 242,-324 236,-324"/>
<text text-anchor="start" x="116.5" y="-303.233" font-family="Times Roman,serif" font-size="14.00">Random variables</text>
</a>
</g>
<!-- RANDOM_VARIABLES&#45;&gt;GENERALIZED_PARTITION_FUNCTION -->
<g id="edge4" class="edge"><title>RANDOM_VARIABLES&#45;&gt;GENERALIZED_PARTITION_FUNCTION</title>
<path fill="none" stroke="black" d="M170.593,-287.682C164.001,-268.144 157.445,-237.159 172,-216 180.142,-204.164 207.16,-192.564 235.398,-183.168"/>
<polygon fill="black" stroke="black" points="236.554,-186.472 244.995,-180.068 234.403,-179.811 236.554,-186.472"/>
</g>
<!-- LAGRANGE_MULTIPLIERS -->
<g id="node10" class="node"><title>LAGRANGE_MULTIPLIERS</title>
<a xlink:href="LAGRANGE_MULTIPLIERS.html" xlink:title="Lagrange multipliers" target="_top">
<polyline fill="none" stroke="black" points="327,-252 193,-252 "/>
<path fill="none" stroke="black" d="M193,-252C187,-252 181,-246 181,-240"/>
<polyline fill="none" stroke="black" points="181,-240 181,-228 "/>
<path fill="none" stroke="black" d="M181,-228C181,-222 187,-216 193,-216"/>
<polyline fill="none" stroke="black" points="193,-216 327,-216 "/>
<path fill="none" stroke="black" d="M327,-216C333,-216 339,-222 339,-228"/>
<polyline fill="none" stroke="black" points="339,-228 339,-240 "/>
<path fill="none" stroke="black" d="M339,-240C339,-246 333,-252 327,-252"/>
<text text-anchor="start" x="189" y="-231.233" font-family="Times Roman,serif" font-size="14.00">Lagrange multipliers</text>
</a>
</g>
<!-- RANDOM_VARIABLES&#45;&gt;LAGRANGE_MULTIPLIERS -->
<!-- INFORMATION_THEORY -->
<g id="node8" class="node"><title>INFORMATION_THEORY</title>
<a xlink:href="INFORMATION_THEORY.html" xlink:title="Information theory " target="_top">
<polyline fill="none" stroke="black" points="431,-324 303,-324 "/>
<path fill="none" stroke="black" d="M303,-324C297,-324 291,-318 291,-312"/>
<polyline fill="none" stroke="black" points="291,-312 291,-300 "/>
<path fill="none" stroke="black" d="M291,-300C291,-294 297,-288 303,-288"/>
<polyline fill="none" stroke="black" points="303,-288 431,-288 "/>
<path fill="none" stroke="black" d="M431,-288C437,-288 443,-294 443,-300"/>
<polyline fill="none" stroke="black" points="443,-300 443,-312 "/>
<path fill="none" stroke="black" d="M443,-312C443,-318 437,-324 431,-324"/>
<text text-anchor="start" x="299" y="-303.233" font-family="Times Roman,serif" font-size="14.00">Information theory </text>
</a>
</g>
<!-- INFORMATION_THEORY&#45;&gt;GENERALIZED_PARTITION_FUNCTION -->
<g id="edge8" class="edge"><title>INFORMATION_THEORY&#45;&gt;GENERALIZED_PARTITION_FUNCTION</title>
<path fill="none" stroke="black" d="M365.146,-287.835C362.797,-269.235 357.812,-239.765 348,-216 344.076,-206.496 338.45,-196.847 332.853,-188.385"/>
<polygon fill="black" stroke="black" points="335.663,-186.295 327.103,-180.052 329.902,-190.271 335.663,-186.295"/>
</g>
<!-- LAGRANGE_MULTIPLIERS&#45;&gt;GENERALIZED_PARTITION_FUNCTION -->
<g id="edge10" class="edge"><title>LAGRANGE_MULTIPLIERS&#45;&gt;GENERALIZED_PARTITION_FUNCTION</title>
<path fill="none" stroke="black" d="M273.374,-215.831C279.416,-207.623 286.676,-197.761 293.322,-188.732"/>
<polygon fill="black" stroke="black" points="296.336,-190.542 299.446,-180.413 290.699,-186.392 296.336,-190.542"/>
</g>
<!-- PRINCIPLE_OF_EQUAL_APRIORI_PROBABILITIES -->
<g id="node16" class="node"><title>PRINCIPLE_OF_EQUAL_APRIORI_PROBABILITIES</title>
<a xlink:href="PRINCIPLE_OF_EQUAL_APRIORI_PROBABILITIES.html" xlink:title="The principle of equal apriori probabilities" target="_top">
<polyline fill="none" stroke="black" points="685,-252 407,-252 "/>
<path fill="none" stroke="black" d="M407,-252C401,-252 395,-246 395,-240"/>
<polyline fill="none" stroke="black" points="395,-240 395,-228 "/>
<path fill="none" stroke="black" d="M395,-228C395,-222 401,-216 407,-216"/>
<polyline fill="none" stroke="black" points="407,-216 685,-216 "/>
<path fill="none" stroke="black" d="M685,-216C691,-216 697,-222 697,-228"/>
<polyline fill="none" stroke="black" points="697,-228 697,-240 "/>
<path fill="none" stroke="black" d="M697,-240C697,-246 691,-252 685,-252"/>
<text text-anchor="start" x="403.5" y="-231.233" font-family="Times Roman,serif" font-size="14.00">The principle of equal apriori probabilities</text>
</a>
</g>
<!-- PRINCIPLE_OF_EQUAL_APRIORI_PROBABILITIES&#45;&gt;GENERALIZED_PARTITION_FUNCTION -->
<g id="edge18" class="edge"><title>PRINCIPLE_OF_EQUAL_APRIORI_PROBABILITIES&#45;&gt;GENERALIZED_PARTITION_FUNCTION</title>
<path fill="none" stroke="black" d="M487.505,-215.924C455.237,-205.953 414.998,-193.519 381.295,-183.104"/>
<polygon fill="black" stroke="black" points="382.107,-179.692 371.519,-180.083 380.04,-186.38 382.107,-179.692"/>
</g>
</g>
</svg>
