<?xml version="1.0" encoding="UTF-8" standalone="no"?>
<!DOCTYPE svg PUBLIC "-//W3C//DTD SVG 1.1//EN"
 "http://www.w3.org/Graphics/SVG/1.1/DTD/svg11.dtd">
<!-- Generated by graphviz version 2.36.0 (20140111.2315)
 -->
<!-- Title: %3 Pages: 1 -->
<svg width="673pt" height="404pt"
 viewBox="0.00 0.00 673.00 404.00" xmlns="http://www.w3.org/2000/svg" xmlns:xlink="http://www.w3.org/1999/xlink">
<g id="graph0" class="graph" transform="scale(1 1) rotate(0) translate(4 400)">
<title>%3</title>
<!-- GENERALIZED_PARTITION_FUNCTION -->
<g id="node1" class="node"><title>GENERALIZED_PARTITION_FUNCTION</title>
<g id="a_node1"><a xlink:href="GENERALIZED_PARTITION_FUNCTION.html" xlink:title=" The generalized partition function " target="_top">
<path fill="none" stroke="blue" stroke-width="2" d="M379.25,-180C379.25,-180 194.75,-180 194.75,-180 188.75,-180 182.75,-174 182.75,-168 182.75,-168 182.75,-156 182.75,-156 182.75,-150 188.75,-144 194.75,-144 194.75,-144 379.25,-144 379.25,-144 385.25,-144 391.25,-150 391.25,-156 391.25,-156 391.25,-168 391.25,-168 391.25,-174 385.25,-180 379.25,-180"/>
<text text-anchor="start" x="190.5" y="-158.3" font-family="Times,serif" font-size="14.00"> The generalized partition function </text>
</a>
</g>
</g>
<!-- GRAND_CANONICAL_ENSEMBLE -->
<g id="node4" class="node"><title>GRAND_CANONICAL_ENSEMBLE</title>
<g id="a_node4"><a xlink:href="GRAND_CANONICAL_ENSEMBLE.html" xlink:title=" The grand canonical ensemble " target="_top">
<path fill="none" stroke="black" d="M178.25,-108C178.25,-108 11.75,-108 11.75,-108 5.75,-108 -0.25,-102 -0.25,-96 -0.25,-96 -0.25,-84 -0.25,-84 -0.25,-78 5.75,-72 11.75,-72 11.75,-72 178.25,-72 178.25,-72 184.25,-72 190.25,-78 190.25,-84 190.25,-84 190.25,-96 190.25,-96 190.25,-102 184.25,-108 178.25,-108"/>
<text text-anchor="start" x="7.5" y="-86.3" font-family="Times,serif" font-size="14.00"> The grand canonical ensemble </text>
</a>
</g>
</g>
<!-- GENERALIZED_PARTITION_FUNCTION&#45;&gt;GRAND_CANONICAL_ENSEMBLE -->
<g id="edge3" class="edge"><title>GENERALIZED_PARTITION_FUNCTION&#45;&gt;GRAND_CANONICAL_ENSEMBLE</title>
<path fill="none" stroke="black" d="M240.032,-143.876C213.317,-134.137 179.679,-121.872 151.525,-111.608"/>
<polygon fill="black" stroke="black" points="152.41,-108.205 141.816,-108.068 150.012,-114.782 152.41,-108.205"/>
</g>
<!-- CANONICAL_ENSEMBLE -->
<g id="node5" class="node"><title>CANONICAL_ENSEMBLE</title>
<g id="a_node5"><a xlink:href="CANONICAL_ENSEMBLE.html" xlink:title=" The canonical ensemble " target="_top">
<path fill="none" stroke="black" d="M353,-108C353,-108 221,-108 221,-108 215,-108 209,-102 209,-96 209,-96 209,-84 209,-84 209,-78 215,-72 221,-72 221,-72 353,-72 353,-72 359,-72 365,-78 365,-84 365,-84 365,-96 365,-96 365,-102 359,-108 353,-108"/>
<text text-anchor="start" x="217" y="-86.3" font-family="Times,serif" font-size="14.00"> The canonical ensemble </text>
</a>
</g>
</g>
<!-- GENERALIZED_PARTITION_FUNCTION&#45;&gt;CANONICAL_ENSEMBLE -->
<g id="edge4" class="edge"><title>GENERALIZED_PARTITION_FUNCTION&#45;&gt;CANONICAL_ENSEMBLE</title>
<path fill="none" stroke="black" d="M287,-143.697C287,-135.983 287,-126.712 287,-118.112"/>
<polygon fill="black" stroke="black" points="290.5,-118.104 287,-108.104 283.5,-118.104 290.5,-118.104"/>
</g>
<!-- ISOTHERMAL_ISOBARIC_ENSEMBLE -->
<g id="node7" class="node"><title>ISOTHERMAL_ISOBARIC_ENSEMBLE</title>
<g id="a_node7"><a xlink:href="ISOTHERMAL_ISOBARIC_ENSEMBLE.html" xlink:title=" The isothermal isobaric ensemble " target="_top">
<path fill="none" stroke="black" d="M336.25,-36C336.25,-36 151.75,-36 151.75,-36 145.75,-36 139.75,-30 139.75,-24 139.75,-24 139.75,-12 139.75,-12 139.75,-6 145.75,-0 151.75,-0 151.75,-0 336.25,-0 336.25,-0 342.25,-0 348.25,-6 348.25,-12 348.25,-12 348.25,-24 348.25,-24 348.25,-30 342.25,-36 336.25,-36"/>
<text text-anchor="start" x="147.5" y="-14.3" font-family="Times,serif" font-size="14.00"> The isothermal isobaric ensemble </text>
</a>
</g>
</g>
<!-- GENERALIZED_PARTITION_FUNCTION&#45;&gt;ISOTHERMAL_ISOBARIC_ENSEMBLE -->
<g id="edge7" class="edge"><title>GENERALIZED_PARTITION_FUNCTION&#45;&gt;ISOTHERMAL_ISOBARIC_ENSEMBLE</title>
<path fill="none" stroke="black" d="M333.522,-143.854C349.252,-135.564 365.078,-123.882 374,-108 381.836,-94.0503 382.926,-85.2787 374,-72 364.71,-58.1804 351.12,-47.9623 336.186,-40.4076"/>
<polygon fill="black" stroke="black" points="337.286,-37.0602 326.741,-36.0395 334.348,-43.4137 337.286,-37.0602"/>
</g>
<!-- LAWS_OF_THERMODYNAMICS -->
<g id="node2" class="node"><title>LAWS_OF_THERMODYNAMICS</title>
<g id="a_node2"><a xlink:href="LAWS_OF_THERMODYNAMICS.html" xlink:title=" The first and second laws of thermodynamics " target="_top">
<path fill="none" stroke="black" d="M281,-396C281,-396 31,-396 31,-396 25,-396 19,-390 19,-384 19,-384 19,-372 19,-372 19,-366 25,-360 31,-360 31,-360 281,-360 281,-360 287,-360 293,-366 293,-372 293,-372 293,-384 293,-384 293,-390 287,-396 281,-396"/>
<text text-anchor="start" x="27" y="-374.3" font-family="Times,serif" font-size="14.00"> The first and second laws of thermodynamics </text>
</a>
</g>
</g>
<!-- LAWS_OF_THERMODYNAMICS&#45;&gt;GENERALIZED_PARTITION_FUNCTION -->
<g id="edge1" class="edge"><title>LAWS_OF_THERMODYNAMICS&#45;&gt;GENERALIZED_PARTITION_FUNCTION</title>
<path fill="none" stroke="black" d="M156.746,-359.884C158.991,-328.003 167.981,-258.881 204,-216 214.283,-203.758 228.129,-193.387 241.563,-185.154"/>
<polygon fill="black" stroke="black" points="243.422,-188.122 250.29,-180.055 239.89,-182.078 243.422,-188.122"/>
</g>
<!-- RANDOM_VARIABLES -->
<g id="node6" class="node"><title>RANDOM_VARIABLES</title>
<g id="a_node6"><a xlink:href="RANDOM_VARIABLES.html" xlink:title=" Random variables " target="_top">
<path fill="none" stroke="black" d="M294.25,-324C294.25,-324 195.75,-324 195.75,-324 189.75,-324 183.75,-318 183.75,-312 183.75,-312 183.75,-300 183.75,-300 183.75,-294 189.75,-288 195.75,-288 195.75,-288 294.25,-288 294.25,-288 300.25,-288 306.25,-294 306.25,-300 306.25,-300 306.25,-312 306.25,-312 306.25,-318 300.25,-324 294.25,-324"/>
<text text-anchor="start" x="191.5" y="-302.3" font-family="Times,serif" font-size="14.00"> Random variables </text>
</a>
</g>
</g>
<!-- LAWS_OF_THERMODYNAMICS&#45;&gt;RANDOM_VARIABLES -->
<!-- LAGRANGE_MULTIPLIERS -->
<g id="node3" class="node"><title>LAGRANGE_MULTIPLIERS</title>
<g id="a_node3"><a xlink:href="LAGRANGE_MULTIPLIERS.html" xlink:title=" Lagrange multipliers " target="_top">
<path fill="none" stroke="black" d="M438,-396C438,-396 324,-396 324,-396 318,-396 312,-390 312,-384 312,-384 312,-372 312,-372 312,-366 318,-360 324,-360 324,-360 438,-360 438,-360 444,-360 450,-366 450,-372 450,-372 450,-384 450,-384 450,-390 444,-396 438,-396"/>
<text text-anchor="start" x="320" y="-374.3" font-family="Times,serif" font-size="14.00"> Lagrange multipliers </text>
</a>
</g>
</g>
<!-- LAGRANGE_MULTIPLIERS&#45;&gt;GENERALIZED_PARTITION_FUNCTION -->
<g id="edge2" class="edge"><title>LAGRANGE_MULTIPLIERS&#45;&gt;GENERALIZED_PARTITION_FUNCTION</title>
<path fill="none" stroke="black" d="M383.151,-359.586C386.119,-328.404 388.35,-261.999 361,-216 353.721,-203.759 342.396,-193.567 330.776,-185.5"/>
<polygon fill="black" stroke="black" points="332.608,-182.517 322.315,-180.003 328.793,-188.386 332.608,-182.517"/>
</g>
<!-- GRAND_CANONICAL_ENSEMBLE&#45;&gt;ISOTHERMAL_ISOBARIC_ENSEMBLE -->
<!-- RANDOM_VARIABLES&#45;&gt;GENERALIZED_PARTITION_FUNCTION -->
<g id="edge5" class="edge"><title>RANDOM_VARIABLES&#45;&gt;GENERALIZED_PARTITION_FUNCTION</title>
<path fill="none" stroke="black" d="M230.209,-287.741C216.404,-269.412 199.648,-239.853 212,-216 218.368,-203.702 229.049,-193.648 240.383,-185.731"/>
<polygon fill="black" stroke="black" points="242.614,-188.456 249.117,-180.091 238.817,-182.576 242.614,-188.456"/>
</g>
<!-- INFORMATION_THEORY -->
<g id="node9" class="node"><title>INFORMATION_THEORY</title>
<g id="a_node9"><a xlink:href="INFORMATION_THEORY.html" xlink:title=" Information theory &#160;" target="_top">
<path fill="none" stroke="black" d="M340.25,-252C340.25,-252 233.75,-252 233.75,-252 227.75,-252 221.75,-246 221.75,-240 221.75,-240 221.75,-228 221.75,-228 221.75,-222 227.75,-216 233.75,-216 233.75,-216 340.25,-216 340.25,-216 346.25,-216 352.25,-222 352.25,-228 352.25,-228 352.25,-240 352.25,-240 352.25,-246 346.25,-252 340.25,-252"/>
<text text-anchor="start" x="229.5" y="-230.3" font-family="Times,serif" font-size="14.00"> Information theory &#160;</text>
</a>
</g>
</g>
<!-- RANDOM_VARIABLES&#45;&gt;INFORMATION_THEORY -->
<!-- PRINCIPLE_OF_EQUAL_APRIORI_PROBABILITIES -->
<g id="node8" class="node"><title>PRINCIPLE_OF_EQUAL_APRIORI_PROBABILITIES</title>
<g id="a_node8"><a xlink:href="PRINCIPLE_OF_EQUAL_APRIORI_PROBABILITIES.html" xlink:title=" The principle of equal apriori probabilities " target="_top">
<path fill="none" stroke="black" d="M653,-324C653,-324 421,-324 421,-324 415,-324 409,-318 409,-312 409,-312 409,-300 409,-300 409,-294 415,-288 421,-288 421,-288 653,-288 653,-288 659,-288 665,-294 665,-300 665,-300 665,-312 665,-312 665,-318 659,-324 653,-324"/>
<text text-anchor="start" x="417" y="-302.3" font-family="Times,serif" font-size="14.00"> The principle of equal apriori probabilities </text>
</a>
</g>
</g>
<!-- PRINCIPLE_OF_EQUAL_APRIORI_PROBABILITIES&#45;&gt;GENERALIZED_PARTITION_FUNCTION -->
<g id="edge9" class="edge"><title>PRINCIPLE_OF_EQUAL_APRIORI_PROBABILITIES&#45;&gt;GENERALIZED_PARTITION_FUNCTION</title>
<path fill="none" stroke="black" d="M511.572,-287.941C483.525,-269.392 436.816,-239.283 395,-216 375.241,-204.998 352.875,-193.821 333.642,-184.586"/>
<polygon fill="black" stroke="black" points="335.011,-181.361 324.478,-180.217 331.999,-187.68 335.011,-181.361"/>
</g>
<!-- INFORMATION_THEORY&#45;&gt;GENERALIZED_PARTITION_FUNCTION -->
<g id="edge10" class="edge"><title>INFORMATION_THEORY&#45;&gt;GENERALIZED_PARTITION_FUNCTION</title>
<path fill="none" stroke="black" d="M287,-215.697C287,-207.983 287,-198.712 287,-190.112"/>
<polygon fill="black" stroke="black" points="290.5,-190.104 287,-180.104 283.5,-190.104 290.5,-190.104"/>
</g>
</g>
</svg>
