<?xml version="1.0" encoding="UTF-8" standalone="no"?>
<!DOCTYPE svg PUBLIC "-//W3C//DTD SVG 1.1//EN"
 "http://www.w3.org/Graphics/SVG/1.1/DTD/svg11.dtd">
<!-- Generated by graphviz version 2.28.0 (20110509.1545)
 -->
<!-- Title: _anonymous_0 Pages: 1 -->
<svg width="208pt" height="188pt"
 viewBox="0.00 0.00 208.00 188.00" xmlns="http://www.w3.org/2000/svg" xmlns:xlink="http://www.w3.org/1999/xlink">
<g id="graph1" class="graph" transform="scale(1 1) rotate(0) translate(4 184)">
<title>_anonymous_0</title>
<!-- GEOMETRIC_SERIES -->
<g id="node1" class="node"><title>GEOMETRIC_SERIES</title>
<a xlink:href="GEOMETRIC_SERIES.html" xlink:title="Geometric series" target="_top">
<polyline fill="none" stroke="blue" stroke-width="2" points="143.25,-108 56.75,-108 "/>
<path fill="none" stroke="blue" stroke-width="2" d="M56.75,-108C50.75,-108 44.75,-102 44.75,-96"/>
<polyline fill="none" stroke="blue" stroke-width="2" points="44.75,-96 44.75,-84 "/>
<path fill="none" stroke="blue" stroke-width="2" d="M44.75,-84C44.75,-78 50.75,-72 56.75,-72"/>
<polyline fill="none" stroke="blue" stroke-width="2" points="56.75,-72 143.25,-72 "/>
<path fill="none" stroke="blue" stroke-width="2" d="M143.25,-72C149.25,-72 155.25,-78 155.25,-84"/>
<polyline fill="none" stroke="blue" stroke-width="2" points="155.25,-84 155.25,-96 "/>
<path fill="none" stroke="blue" stroke-width="2" d="M155.25,-96C155.25,-102 149.25,-108 143.25,-108"/>
<text text-anchor="start" x="53" y="-84.5" font-family="Times,serif" font-size="14.00">Geometric series</text>
</a>
</g>
<!-- GEOMETRIC_RANDOM_VARIABLE -->
<g id="node2" class="node"><title>GEOMETRIC_RANDOM_VARIABLE</title>
<a xlink:href="GEOMETRIC_RANDOM_VARIABLE.html" xlink:title="The geometric random variable" target="_top">
<polyline fill="none" stroke="black" points="184.25,-36 15.75,-36 "/>
<path fill="none" stroke="black" d="M15.75,-36C9.75,-36 3.75,-30 3.75,-24"/>
<polyline fill="none" stroke="black" points="3.75,-24 3.75,-12 "/>
<path fill="none" stroke="black" d="M3.75,-12C3.75,-6 9.75,-0 15.75,-0"/>
<polyline fill="none" stroke="black" points="15.75,-0 184.25,-0 "/>
<path fill="none" stroke="black" d="M184.25,-0C190.25,-0 196.25,-6 196.25,-12"/>
<polyline fill="none" stroke="black" points="196.25,-12 196.25,-24 "/>
<path fill="none" stroke="black" d="M196.25,-24C196.25,-30 190.25,-36 184.25,-36"/>
<text text-anchor="start" x="12" y="-12.5" font-family="Times,serif" font-size="14.00">The geometric random variable</text>
</a>
</g>
<!-- GEOMETRIC_SERIES&#45;&gt;GEOMETRIC_RANDOM_VARIABLE -->
<g id="edge2" class="edge"><title>GEOMETRIC_SERIES&#45;&gt;GEOMETRIC_RANDOM_VARIABLE</title>
<path fill="none" stroke="black" d="M100,-71.6966C100,-63.9827 100,-54.7125 100,-46.1124"/>
<polygon fill="black" stroke="black" points="103.5,-46.1043 100,-36.1043 96.5001,-46.1044 103.5,-46.1043"/>
</g>
<!-- SUMMATIONS -->
<g id="node4" class="node"><title>SUMMATIONS</title>
<a xlink:href="SUMMATIONS.html" xlink:title="Summation and product notation" target="_top">
<polyline fill="none" stroke="black" points="188,-180 12,-180 "/>
<path fill="none" stroke="black" d="M12,-180C6,-180 0,-174 0,-168"/>
<polyline fill="none" stroke="black" points="0,-168 0,-156 "/>
<path fill="none" stroke="black" d="M0,-156C0,-150 6,-144 12,-144"/>
<polyline fill="none" stroke="black" points="12,-144 188,-144 "/>
<path fill="none" stroke="black" d="M188,-144C194,-144 200,-150 200,-156"/>
<polyline fill="none" stroke="black" points="200,-156 200,-168 "/>
<path fill="none" stroke="black" d="M200,-168C200,-174 194,-180 188,-180"/>
<text text-anchor="start" x="8.5" y="-156.5" font-family="Times,serif" font-size="14.00">Summation and product notation</text>
</a>
</g>
<!-- SUMMATIONS&#45;&gt;GEOMETRIC_SERIES -->
<g id="edge4" class="edge"><title>SUMMATIONS&#45;&gt;GEOMETRIC_SERIES</title>
<path fill="none" stroke="black" d="M100,-143.697C100,-135.983 100,-126.712 100,-118.112"/>
<polygon fill="black" stroke="black" points="103.5,-118.104 100,-108.104 96.5001,-118.104 103.5,-118.104"/>
</g>
</g>
</svg>
