<?xml version="1.0" encoding="UTF-8" standalone="no"?>
<!DOCTYPE svg PUBLIC "-//W3C//DTD SVG 1.1//EN"
 "http://www.w3.org/Graphics/SVG/1.1/DTD/svg11.dtd">
<!-- Generated by graphviz version 2.26.3 (20100126.1600)
 -->
<!-- Title: _anonymous_0 Pages: 1 -->
<svg width="499pt" height="188pt"
 viewBox="0.00 0.00 499.00 188.00" xmlns="http://www.w3.org/2000/svg" xmlns:xlink="http://www.w3.org/1999/xlink">
<g id="graph1" class="graph" transform="scale(1 1) rotate(0) translate(4 184)">
<title>_anonymous_0</title>
<!-- GEOMETRIC_RANDOM_VARIABLE -->
<g id="node1" class="node"><title>GEOMETRIC_RANDOM_VARIABLE</title>
<a xlink:href="GEOMETRIC_RANDOM_VARIABLE.html" xlink:title="The geometric random variable" target="_top">
<polyline fill="none" stroke="blue" stroke-width="2" points="340,-36 132,-36 "/>
<path fill="none" stroke="blue" stroke-width="2" d="M132,-36C126,-36 120,-30 120,-24"/>
<polyline fill="none" stroke="blue" stroke-width="2" points="120,-24 120,-12 "/>
<path fill="none" stroke="blue" stroke-width="2" d="M120,-12C120,-6 126,-1.7396e-14 132,-1.70285e-14"/>
<polyline fill="none" stroke="blue" stroke-width="2" points="132,-1.70285e-14 340,-4.28776e-15 "/>
<path fill="none" stroke="blue" stroke-width="2" d="M340,-4.28776e-15C346,-3.92024e-15 352,-6 352,-12"/>
<polyline fill="none" stroke="blue" stroke-width="2" points="352,-12 352,-24 "/>
<path fill="none" stroke="blue" stroke-width="2" d="M352,-24C352,-30 346,-36 340,-36"/>
<text text-anchor="start" x="128" y="-15.2333" font-family="Times Roman,serif" font-size="14.00">The geometric random variable</text>
</a>
</g>
<!-- BERNOULI_RANDOM_VARIABLE -->
<g id="node2" class="node"><title>BERNOULI_RANDOM_VARIABLE</title>
<a xlink:href="BERNOULI_RANDOM_VARIABLE.html" xlink:title="Bernoulli random variable" target="_top">
<polyline fill="none" stroke="black" points="182,-180 12,-180 "/>
<path fill="none" stroke="black" d="M12,-180C6,-180 7.10543e-14,-174 5.68434e-14,-168"/>
<polyline fill="none" stroke="black" points="5.68434e-14,-168 2.84217e-14,-156 "/>
<path fill="none" stroke="black" d="M2.84217e-14,-156C1.42109e-14,-150 6,-144 12,-144"/>
<polyline fill="none" stroke="black" points="12,-144 182,-144 "/>
<path fill="none" stroke="black" d="M182,-144C188,-144 194,-150 194,-156"/>
<polyline fill="none" stroke="black" points="194,-156 194,-168 "/>
<path fill="none" stroke="black" d="M194,-168C194,-174 188,-180 182,-180"/>
<text text-anchor="start" x="8" y="-159.233" font-family="Times Roman,serif" font-size="14.00">Bernoulli random variable</text>
</a>
</g>
<!-- BERNOULI_RANDOM_VARIABLE&#45;&gt;GEOMETRIC_RANDOM_VARIABLE -->
<g id="edge2" class="edge"><title>BERNOULI_RANDOM_VARIABLE&#45;&gt;GEOMETRIC_RANDOM_VARIABLE</title>
<path fill="none" stroke="black" d="M95.7378,-143.762C95.3489,-124.004 97.699,-92.5589 114,-72 124.827,-58.3452 139.827,-48.0524 155.612,-40.3248"/>
<polygon fill="black" stroke="black" points="157.319,-43.3933 164.971,-36.0653 154.42,-37.022 157.319,-43.3933"/>
</g>
<!-- GEOMETRIC_SERIES -->
<g id="node6" class="node"><title>GEOMETRIC_SERIES</title>
<a xlink:href="GEOMETRIC_SERIES.html" xlink:title="Geometric series" target="_top">
<polyline fill="none" stroke="black" points="243,-108 135,-108 "/>
<path fill="none" stroke="black" d="M135,-108C129,-108 123,-102 123,-96"/>
<polyline fill="none" stroke="black" points="123,-96 123,-84 "/>
<path fill="none" stroke="black" d="M123,-84C123,-78 129,-72 135,-72"/>
<polyline fill="none" stroke="black" points="135,-72 243,-72 "/>
<path fill="none" stroke="black" d="M243,-72C249,-72 255,-78 255,-84"/>
<polyline fill="none" stroke="black" points="255,-84 255,-96 "/>
<path fill="none" stroke="black" d="M255,-96C255,-102 249,-108 243,-108"/>
<text text-anchor="start" x="131" y="-87.2333" font-family="Times Roman,serif" font-size="14.00">Geometric series</text>
</a>
</g>
<!-- BERNOULI_RANDOM_VARIABLE&#45;&gt;GEOMETRIC_SERIES -->
<!-- RANDOM_VARIABLES -->
<g id="node4" class="node"><title>RANDOM_VARIABLES</title>
<a xlink:href="RANDOM_VARIABLES.html" xlink:title="Random variables" target="_top">
<polyline fill="none" stroke="black" points="341,-180 225,-180 "/>
<path fill="none" stroke="black" d="M225,-180C219,-180 213,-174 213,-168"/>
<polyline fill="none" stroke="black" points="213,-168 213,-156 "/>
<path fill="none" stroke="black" d="M213,-156C213,-150 219,-144 225,-144"/>
<polyline fill="none" stroke="black" points="225,-144 341,-144 "/>
<path fill="none" stroke="black" d="M341,-144C347,-144 353,-150 353,-156"/>
<polyline fill="none" stroke="black" points="353,-156 353,-168 "/>
<path fill="none" stroke="black" d="M353,-168C353,-174 347,-180 341,-180"/>
<text text-anchor="start" x="221.5" y="-159.233" font-family="Times Roman,serif" font-size="14.00">Random variables</text>
</a>
</g>
<!-- RANDOM_VARIABLES&#45;&gt;GEOMETRIC_RANDOM_VARIABLE -->
<g id="edge4" class="edge"><title>RANDOM_VARIABLES&#45;&gt;GEOMETRIC_RANDOM_VARIABLE</title>
<path fill="none" stroke="black" d="M280.616,-143.674C277.87,-125.202 272.598,-96.0609 264,-72 260.798,-63.0406 256.382,-53.6993 252.003,-45.3545"/>
<polygon fill="black" stroke="black" points="254.999,-43.5369 247.141,-36.4298 248.852,-46.8857 254.999,-43.5369"/>
</g>
<!-- GEOMETRIC_SERIES&#45;&gt;GEOMETRIC_RANDOM_VARIABLE -->
<g id="edge6" class="edge"><title>GEOMETRIC_SERIES&#45;&gt;GEOMETRIC_RANDOM_VARIABLE</title>
<path fill="none" stroke="black" d="M200.86,-71.8314C206.163,-63.7079 212.524,-53.9637 218.367,-45.0118"/>
<polygon fill="black" stroke="black" points="221.445,-46.7003 223.98,-36.4133 215.583,-42.8739 221.445,-46.7003"/>
</g>
<!-- CONDITIONAL_EXPECTATION -->
<g id="node9" class="node"><title>CONDITIONAL_EXPECTATION</title>
<a xlink:href="CONDITIONAL_EXPECTATION.html" xlink:title="Conditional expectation" target="_top">
<polyline fill="none" stroke="black" points="479,-108 323,-108 "/>
<path fill="none" stroke="black" d="M323,-108C317,-108 311,-102 311,-96"/>
<polyline fill="none" stroke="black" points="311,-96 311,-84 "/>
<path fill="none" stroke="black" d="M311,-84C311,-78 317,-72 323,-72"/>
<polyline fill="none" stroke="black" points="323,-72 479,-72 "/>
<path fill="none" stroke="black" d="M479,-72C485,-72 491,-78 491,-84"/>
<polyline fill="none" stroke="black" points="491,-84 491,-96 "/>
<path fill="none" stroke="black" d="M491,-96C491,-102 485,-108 479,-108"/>
<text text-anchor="start" x="319" y="-87.2333" font-family="Times Roman,serif" font-size="14.00">Conditional expectation</text>
</a>
</g>
<!-- CONDITIONAL_EXPECTATION&#45;&gt;GEOMETRIC_RANDOM_VARIABLE -->
<g id="edge10" class="edge"><title>CONDITIONAL_EXPECTATION&#45;&gt;GEOMETRIC_RANDOM_VARIABLE</title>
<path fill="none" stroke="black" d="M359.364,-71.8314C337.296,-62.2018 310.009,-50.295 286.714,-40.1299"/>
<polygon fill="black" stroke="black" points="287.902,-36.8296 277.337,-36.038 285.103,-43.2454 287.902,-36.8296"/>
</g>
</g>
</svg>
