<?xml version="1.0" encoding="UTF-8" standalone="no"?>
<!DOCTYPE svg PUBLIC "-//W3C//DTD SVG 1.1//EN"
 "http://www.w3.org/Graphics/SVG/1.1/DTD/svg11.dtd">
<!-- Generated by graphviz version 2.28.0 (20110509.1545)
 -->
<!-- Title: _anonymous_0 Pages: 1 -->
<svg width="411pt" height="188pt"
 viewBox="0.00 0.00 411.00 188.00" xmlns="http://www.w3.org/2000/svg" xmlns:xlink="http://www.w3.org/1999/xlink">
<g id="graph1" class="graph" transform="scale(1 1) rotate(0) translate(4 184)">
<title>_anonymous_0</title>
<!-- GEOMETRIC_RANDOM_VARIABLE -->
<g id="node1" class="node"><title>GEOMETRIC_RANDOM_VARIABLE</title>
<a xlink:href="GEOMETRIC_RANDOM_VARIABLE.html" xlink:title="The geometric random variable" target="_top">
<polyline fill="none" stroke="blue" stroke-width="2" points="298.25,-36 129.75,-36 "/>
<path fill="none" stroke="blue" stroke-width="2" d="M129.75,-36C123.75,-36 117.75,-30 117.75,-24"/>
<polyline fill="none" stroke="blue" stroke-width="2" points="117.75,-24 117.75,-12 "/>
<path fill="none" stroke="blue" stroke-width="2" d="M117.75,-12C117.75,-6 123.75,-0 129.75,-0"/>
<polyline fill="none" stroke="blue" stroke-width="2" points="129.75,-0 298.25,-0 "/>
<path fill="none" stroke="blue" stroke-width="2" d="M298.25,-0C304.25,-0 310.25,-6 310.25,-12"/>
<polyline fill="none" stroke="blue" stroke-width="2" points="310.25,-12 310.25,-24 "/>
<path fill="none" stroke="blue" stroke-width="2" d="M310.25,-24C310.25,-30 304.25,-36 298.25,-36"/>
<text text-anchor="start" x="126" y="-12.5" font-family="Times,serif" font-size="14.00">The geometric random variable</text>
</a>
</g>
<!-- BERNOULI_RANDOM_VARIABLE -->
<g id="node2" class="node"><title>BERNOULI_RANDOM_VARIABLE</title>
<a xlink:href="BERNOULI_RANDOM_VARIABLE.html" xlink:title="Bernoulli random variable" target="_top">
<polyline fill="none" stroke="black" points="152,-180 12,-180 "/>
<path fill="none" stroke="black" d="M12,-180C6,-180 0,-174 0,-168"/>
<polyline fill="none" stroke="black" points="0,-168 0,-156 "/>
<path fill="none" stroke="black" d="M0,-156C0,-150 6,-144 12,-144"/>
<polyline fill="none" stroke="black" points="12,-144 152,-144 "/>
<path fill="none" stroke="black" d="M152,-144C158,-144 164,-150 164,-156"/>
<polyline fill="none" stroke="black" points="164,-156 164,-168 "/>
<path fill="none" stroke="black" d="M164,-168C164,-174 158,-180 152,-180"/>
<text text-anchor="start" x="8.5" y="-156.5" font-family="Times,serif" font-size="14.00">Bernoulli random variable</text>
</a>
</g>
<!-- BERNOULI_RANDOM_VARIABLE&#45;&gt;GEOMETRIC_RANDOM_VARIABLE -->
<g id="edge2" class="edge"><title>BERNOULI_RANDOM_VARIABLE&#45;&gt;GEOMETRIC_RANDOM_VARIABLE</title>
<path fill="none" stroke="black" d="M82.5245,-143.689C83.9727,-124.218 89.009,-92.6291 106,-72 117.1,-58.5233 132.467,-48.1966 148.13,-40.3998"/>
<polygon fill="black" stroke="black" points="149.773,-43.4955 157.356,-36.0968 146.814,-37.1515 149.773,-43.4955"/>
</g>
<!-- GEOMETRIC_SERIES -->
<g id="node6" class="node"><title>GEOMETRIC_SERIES</title>
<a xlink:href="GEOMETRIC_SERIES.html" xlink:title="Geometric series" target="_top">
<polyline fill="none" stroke="black" points="214.25,-108 127.75,-108 "/>
<path fill="none" stroke="black" d="M127.75,-108C121.75,-108 115.75,-102 115.75,-96"/>
<polyline fill="none" stroke="black" points="115.75,-96 115.75,-84 "/>
<path fill="none" stroke="black" d="M115.75,-84C115.75,-78 121.75,-72 127.75,-72"/>
<polyline fill="none" stroke="black" points="127.75,-72 214.25,-72 "/>
<path fill="none" stroke="black" d="M214.25,-72C220.25,-72 226.25,-78 226.25,-84"/>
<polyline fill="none" stroke="black" points="226.25,-84 226.25,-96 "/>
<path fill="none" stroke="black" d="M226.25,-96C226.25,-102 220.25,-108 214.25,-108"/>
<text text-anchor="start" x="124" y="-84.5" font-family="Times,serif" font-size="14.00">Geometric series</text>
</a>
</g>
<!-- BERNOULI_RANDOM_VARIABLE&#45;&gt;GEOMETRIC_SERIES -->
<!-- CONDITIONAL_EXPECTATION -->
<g id="node4" class="node"><title>CONDITIONAL_EXPECTATION</title>
<a xlink:href="CONDITIONAL_EXPECTATION.html" xlink:title="Conditional expectation" target="_top">
<polyline fill="none" stroke="black" points="321.25,-180 194.75,-180 "/>
<path fill="none" stroke="black" d="M194.75,-180C188.75,-180 182.75,-174 182.75,-168"/>
<polyline fill="none" stroke="black" points="182.75,-168 182.75,-156 "/>
<path fill="none" stroke="black" d="M182.75,-156C182.75,-150 188.75,-144 194.75,-144"/>
<polyline fill="none" stroke="black" points="194.75,-144 321.25,-144 "/>
<path fill="none" stroke="black" d="M321.25,-144C327.25,-144 333.25,-150 333.25,-156"/>
<polyline fill="none" stroke="black" points="333.25,-156 333.25,-168 "/>
<path fill="none" stroke="black" d="M333.25,-168C333.25,-174 327.25,-180 321.25,-180"/>
<text text-anchor="start" x="191" y="-156.5" font-family="Times,serif" font-size="14.00">Conditional expectation</text>
</a>
</g>
<!-- CONDITIONAL_EXPECTATION&#45;&gt;GEOMETRIC_RANDOM_VARIABLE -->
<g id="edge4" class="edge"><title>CONDITIONAL_EXPECTATION&#45;&gt;GEOMETRIC_RANDOM_VARIABLE</title>
<path fill="none" stroke="black" d="M254.215,-143.756C250.094,-125.692 243.012,-96.5809 235,-72 232.178,-63.3427 228.673,-54.0628 225.339,-45.726"/>
<polygon fill="black" stroke="black" points="228.578,-44.3997 221.556,-36.4663 222.098,-47.0472 228.578,-44.3997"/>
</g>
<!-- GEOMETRIC_SERIES&#45;&gt;GEOMETRIC_RANDOM_VARIABLE -->
<g id="edge6" class="edge"><title>GEOMETRIC_SERIES&#45;&gt;GEOMETRIC_RANDOM_VARIABLE</title>
<path fill="none" stroke="black" d="M181.629,-71.6966C186.628,-63.5589 192.691,-53.689 198.212,-44.7013"/>
<polygon fill="black" stroke="black" points="201.241,-46.4571 203.493,-36.1043 195.277,-42.7931 201.241,-46.4571"/>
</g>
<!-- RANDOM_VARIABLES -->
<g id="node9" class="node"><title>RANDOM_VARIABLES</title>
<a xlink:href="RANDOM_VARIABLES.html" xlink:title="Random variables" target="_top">
<polyline fill="none" stroke="black" points="391,-108 297,-108 "/>
<path fill="none" stroke="black" d="M297,-108C291,-108 285,-102 285,-96"/>
<polyline fill="none" stroke="black" points="285,-96 285,-84 "/>
<path fill="none" stroke="black" d="M285,-84C285,-78 291,-72 297,-72"/>
<polyline fill="none" stroke="black" points="297,-72 391,-72 "/>
<path fill="none" stroke="black" d="M391,-72C397,-72 403,-78 403,-84"/>
<polyline fill="none" stroke="black" points="403,-84 403,-96 "/>
<path fill="none" stroke="black" d="M403,-96C403,-102 397,-108 391,-108"/>
<text text-anchor="start" x="293.5" y="-84.5" font-family="Times,serif" font-size="14.00">Random variables</text>
</a>
</g>
<!-- RANDOM_VARIABLES&#45;&gt;GEOMETRIC_RANDOM_VARIABLE -->
<g id="edge10" class="edge"><title>RANDOM_VARIABLES&#45;&gt;GEOMETRIC_RANDOM_VARIABLE</title>
<path fill="none" stroke="black" d="M312.198,-71.8761C294.886,-62.5541 273.279,-50.9194 254.744,-40.939"/>
<polygon fill="black" stroke="black" points="256.388,-37.8491 245.924,-36.1898 253.069,-44.0125 256.388,-37.8491"/>
</g>
</g>
</svg>
