<?xml version="1.0" encoding="UTF-8" standalone="no"?>
<!DOCTYPE svg PUBLIC "-//W3C//DTD SVG 1.1//EN"
 "http://www.w3.org/Graphics/SVG/1.1/DTD/svg11.dtd">
<!-- Generated by graphviz version 2.26.3 (20100126.1600)
 -->
<!-- Title: _anonymous_0 Pages: 1 -->
<svg width="402pt" height="188pt"
 viewBox="0.00 0.00 402.00 188.00" xmlns="http://www.w3.org/2000/svg" xmlns:xlink="http://www.w3.org/1999/xlink">
<g id="graph1" class="graph" transform="scale(1 1) rotate(0) translate(4 184)">
<title>_anonymous_0</title>
<!-- GEOMETRIC_SERIES -->
<g id="node1" class="node"><title>GEOMETRIC_SERIES</title>
<a xlink:href="GEOMETRIC_SERIES.html" xlink:title="Geometric series" target="_top">
<polyline fill="none" stroke="blue" stroke-width="2" points="273,-108 165,-108 "/>
<path fill="none" stroke="blue" stroke-width="2" d="M165,-108C159,-108 153,-102 153,-96"/>
<polyline fill="none" stroke="blue" stroke-width="2" points="153,-96 153,-84 "/>
<path fill="none" stroke="blue" stroke-width="2" d="M153,-84C153,-78 159,-72 165,-72"/>
<polyline fill="none" stroke="blue" stroke-width="2" points="165,-72 273,-72 "/>
<path fill="none" stroke="blue" stroke-width="2" d="M273,-72C279,-72 285,-78 285,-84"/>
<polyline fill="none" stroke="blue" stroke-width="2" points="285,-84 285,-96 "/>
<path fill="none" stroke="blue" stroke-width="2" d="M285,-96C285,-102 279,-108 273,-108"/>
<text text-anchor="start" x="161" y="-87.2333" font-family="Times Roman,serif" font-size="14.00">Geometric series</text>
</a>
</g>
<!-- GEOMETRIC_RANDOM_VARIABLE -->
<g id="node4" class="node"><title>GEOMETRIC_RANDOM_VARIABLE</title>
<a xlink:href="GEOMETRIC_RANDOM_VARIABLE.html" xlink:title="The geometric random variable" target="_top">
<polyline fill="none" stroke="black" points="220,-36 12,-36 "/>
<path fill="none" stroke="black" d="M12,-36C6,-36 8.28967e-14,-30 6.63173e-14,-24"/>
<polyline fill="none" stroke="black" points="6.63173e-14,-24 3.31587e-14,-12 "/>
<path fill="none" stroke="black" d="M3.31587e-14,-12C1.65793e-14,-6 6,-1.7396e-14 12,-1.70285e-14"/>
<polyline fill="none" stroke="black" points="12,-1.70285e-14 220,-4.28776e-15 "/>
<path fill="none" stroke="black" d="M220,-4.28776e-15C226,-3.92024e-15 232,-6 232,-12"/>
<polyline fill="none" stroke="black" points="232,-12 232,-24 "/>
<path fill="none" stroke="black" d="M232,-24C232,-30 226,-36 220,-36"/>
<text text-anchor="start" x="8" y="-15.2333" font-family="Times Roman,serif" font-size="14.00">The geometric random variable</text>
</a>
</g>
<!-- GEOMETRIC_SERIES&#45;&gt;GEOMETRIC_RANDOM_VARIABLE -->
<g id="edge4" class="edge"><title>GEOMETRIC_SERIES&#45;&gt;GEOMETRIC_RANDOM_VARIABLE</title>
<path fill="none" stroke="black" d="M193.009,-71.8314C180.078,-62.7927 164.278,-51.7476 150.362,-42.0198"/>
<polygon fill="black" stroke="black" points="152.184,-39.0235 141.983,-36.1628 148.174,-44.7608 152.184,-39.0235"/>
</g>
<!-- MM1_QUEUE -->
<g id="node6" class="node"><title>MM1_QUEUE</title>
<a xlink:href="MM1_QUEUE.html" xlink:title="The M/M/1 Queue " target="_top">
<polyline fill="none" stroke="black" points="382,-36 262,-36 "/>
<path fill="none" stroke="black" d="M262,-36C256,-36 250,-30 250,-24"/>
<polyline fill="none" stroke="black" points="250,-24 250,-12 "/>
<path fill="none" stroke="black" d="M250,-12C250,-6 256,-1.71714e-14 262,-1.65793e-14"/>
<polyline fill="none" stroke="black" points="262,-1.65793e-14 382,-4.73695e-15 "/>
<path fill="none" stroke="black" d="M382,-4.73695e-15C388,-4.14483e-15 394,-6 394,-12"/>
<polyline fill="none" stroke="black" points="394,-12 394,-24 "/>
<path fill="none" stroke="black" d="M394,-24C394,-30 388,-36 382,-36"/>
<text text-anchor="start" x="258" y="-15.2333" font-family="Times Roman,serif" font-size="14.00">The M/M/1 Queue </text>
</a>
</g>
<!-- GEOMETRIC_SERIES&#45;&gt;MM1_QUEUE -->
<g id="edge6" class="edge"><title>GEOMETRIC_SERIES&#45;&gt;MM1_QUEUE</title>
<path fill="none" stroke="black" d="M244.991,-71.8314C257.922,-62.7927 273.722,-51.7476 287.638,-42.0198"/>
<polygon fill="black" stroke="black" points="289.826,-44.7608 296.017,-36.1628 285.816,-39.0235 289.826,-44.7608"/>
</g>
<!-- SUMMATIONS -->
<g id="node2" class="node"><title>SUMMATIONS</title>
<a xlink:href="SUMMATIONS.html" xlink:title="Summation and product notation" target="_top">
<polyline fill="none" stroke="black" points="330,-180 108,-180 "/>
<path fill="none" stroke="black" d="M108,-180C102,-180 96,-174 96,-168"/>
<polyline fill="none" stroke="black" points="96,-168 96,-156 "/>
<path fill="none" stroke="black" d="M96,-156C96,-150 102,-144 108,-144"/>
<polyline fill="none" stroke="black" points="108,-144 330,-144 "/>
<path fill="none" stroke="black" d="M330,-144C336,-144 342,-150 342,-156"/>
<polyline fill="none" stroke="black" points="342,-156 342,-168 "/>
<path fill="none" stroke="black" d="M342,-168C342,-174 336,-180 330,-180"/>
<text text-anchor="start" x="104.5" y="-159.233" font-family="Times Roman,serif" font-size="14.00">Summation and product notation</text>
</a>
</g>
<!-- SUMMATIONS&#45;&gt;GEOMETRIC_SERIES -->
<g id="edge2" class="edge"><title>SUMMATIONS&#45;&gt;GEOMETRIC_SERIES</title>
<path fill="none" stroke="black" d="M219,-143.831C219,-136.131 219,-126.974 219,-118.417"/>
<polygon fill="black" stroke="black" points="222.5,-118.413 219,-108.413 215.5,-118.413 222.5,-118.413"/>
</g>
</g>
</svg>
