<?xml version="1.0" encoding="UTF-8" standalone="no"?>
<!DOCTYPE svg PUBLIC "-//W3C//DTD SVG 1.1//EN"
 "http://www.w3.org/Graphics/SVG/1.1/DTD/svg11.dtd">
<!-- Generated by graphviz version 2.26.3 (20100126.1600)
 -->
<!-- Title: _anonymous_0 Pages: 1 -->
<svg width="495pt" height="188pt"
 viewBox="0.00 0.00 495.00 188.00" xmlns="http://www.w3.org/2000/svg" xmlns:xlink="http://www.w3.org/1999/xlink">
<g id="graph1" class="graph" transform="scale(1 1) rotate(0) translate(4 184)">
<title>_anonymous_0</title>
<!-- GEOMETRIC_RANDOM_VARIABLE -->
<g id="node1" class="node"><title>GEOMETRIC_RANDOM_VARIABLE</title>
<a xlink:href="GEOMETRIC_RANDOM_VARIABLE.html" xlink:title="The geometric random variable" target="_top">
<polyline fill="none" stroke="blue" stroke-width="2" points="310,-36 102,-36 "/>
<path fill="none" stroke="blue" stroke-width="2" d="M102,-36C96,-36 90,-30 90,-24"/>
<polyline fill="none" stroke="blue" stroke-width="2" points="90,-24 90,-12 "/>
<path fill="none" stroke="blue" stroke-width="2" d="M90,-12C90,-6 96,-1.7396e-14 102,-1.70285e-14"/>
<polyline fill="none" stroke="blue" stroke-width="2" points="102,-1.70285e-14 310,-4.28776e-15 "/>
<path fill="none" stroke="blue" stroke-width="2" d="M310,-4.28776e-15C316,-3.92024e-15 322,-6 322,-12"/>
<polyline fill="none" stroke="blue" stroke-width="2" points="322,-12 322,-24 "/>
<path fill="none" stroke="blue" stroke-width="2" d="M322,-24C322,-30 316,-36 310,-36"/>
<text text-anchor="start" x="98" y="-15.2333" font-family="Times Roman,serif" font-size="14.00">The geometric random variable</text>
</a>
</g>
<!-- RANDOM_VARIABLES -->
<g id="node2" class="node"><title>RANDOM_VARIABLES</title>
<a xlink:href="RANDOM_VARIABLES.html" xlink:title="Random variables" target="_top">
<polyline fill="none" stroke="black" points="128,-180 12,-180 "/>
<path fill="none" stroke="black" d="M12,-180C6,-180 5.92119e-14,-174 4.73695e-14,-168"/>
<polyline fill="none" stroke="black" points="4.73695e-14,-168 2.36848e-14,-156 "/>
<path fill="none" stroke="black" d="M2.36848e-14,-156C1.18424e-14,-150 6,-144 12,-144"/>
<polyline fill="none" stroke="black" points="12,-144 128,-144 "/>
<path fill="none" stroke="black" d="M128,-144C134,-144 140,-150 140,-156"/>
<polyline fill="none" stroke="black" points="140,-156 140,-168 "/>
<path fill="none" stroke="black" d="M140,-168C140,-174 134,-180 128,-180"/>
<text text-anchor="start" x="8.5" y="-159.233" font-family="Times Roman,serif" font-size="14.00">Random variables</text>
</a>
</g>
<!-- RANDOM_VARIABLES&#45;&gt;GEOMETRIC_RANDOM_VARIABLE -->
<g id="edge2" class="edge"><title>RANDOM_VARIABLES&#45;&gt;GEOMETRIC_RANDOM_VARIABLE</title>
<path fill="none" stroke="black" d="M57.5735,-143.798C46.0009,-124.359 32.6568,-93.4584 48,-72 56.9763,-59.4461 85.8185,-47.9935 116.448,-38.8979"/>
<polygon fill="black" stroke="black" points="117.788,-42.1545 126.433,-36.0291 115.855,-35.4267 117.788,-42.1545"/>
</g>
<!-- CONDITIONAL_EXPECTATION -->
<g id="node6" class="node"><title>CONDITIONAL_EXPECTATION</title>
<a xlink:href="CONDITIONAL_EXPECTATION.html" xlink:title="Conditional expectation" target="_top">
<polyline fill="none" stroke="black" points="225,-108 69,-108 "/>
<path fill="none" stroke="black" d="M69,-108C63,-108 57,-102 57,-96"/>
<polyline fill="none" stroke="black" points="57,-96 57,-84 "/>
<path fill="none" stroke="black" d="M57,-84C57,-78 63,-72 69,-72"/>
<polyline fill="none" stroke="black" points="69,-72 225,-72 "/>
<path fill="none" stroke="black" d="M225,-72C231,-72 237,-78 237,-84"/>
<polyline fill="none" stroke="black" points="237,-84 237,-96 "/>
<path fill="none" stroke="black" d="M237,-96C237,-102 231,-108 225,-108"/>
<text text-anchor="start" x="65" y="-87.2333" font-family="Times Roman,serif" font-size="14.00">Conditional expectation</text>
</a>
</g>
<!-- RANDOM_VARIABLES&#45;&gt;CONDITIONAL_EXPECTATION -->
<!-- GEOMETRIC_SERIES -->
<g id="node4" class="node"><title>GEOMETRIC_SERIES</title>
<a xlink:href="GEOMETRIC_SERIES.html" xlink:title="Geometric series" target="_top">
<polyline fill="none" stroke="black" points="319,-180 211,-180 "/>
<path fill="none" stroke="black" d="M211,-180C205,-180 199,-174 199,-168"/>
<polyline fill="none" stroke="black" points="199,-168 199,-156 "/>
<path fill="none" stroke="black" d="M199,-156C199,-150 205,-144 211,-144"/>
<polyline fill="none" stroke="black" points="211,-144 319,-144 "/>
<path fill="none" stroke="black" d="M319,-144C325,-144 331,-150 331,-156"/>
<polyline fill="none" stroke="black" points="331,-156 331,-168 "/>
<path fill="none" stroke="black" d="M331,-168C331,-174 325,-180 319,-180"/>
<text text-anchor="start" x="207" y="-159.233" font-family="Times Roman,serif" font-size="14.00">Geometric series</text>
</a>
</g>
<!-- GEOMETRIC_SERIES&#45;&gt;GEOMETRIC_RANDOM_VARIABLE -->
<g id="edge4" class="edge"><title>GEOMETRIC_SERIES&#45;&gt;GEOMETRIC_RANDOM_VARIABLE</title>
<path fill="none" stroke="black" d="M263.451,-143.703C261.345,-124.999 256.55,-95.4467 246,-72 241.62,-62.2648 235.261,-52.5903 228.897,-44.1767"/>
<polygon fill="black" stroke="black" points="231.556,-41.8963 222.605,-36.2278 226.067,-46.2409 231.556,-41.8963"/>
</g>
<!-- CONDITIONAL_EXPECTATION&#45;&gt;GEOMETRIC_RANDOM_VARIABLE -->
<g id="edge6" class="edge"><title>CONDITIONAL_EXPECTATION&#45;&gt;GEOMETRIC_RANDOM_VARIABLE</title>
<path fill="none" stroke="black" d="M161.888,-71.8314C168.753,-63.454 177.03,-53.3531 184.551,-44.1749"/>
<polygon fill="black" stroke="black" points="187.28,-46.3665 190.911,-36.4133 181.866,-41.9297 187.28,-46.3665"/>
</g>
<!-- BERNOULI_RANDOM_VARIABLE -->
<g id="node9" class="node"><title>BERNOULI_RANDOM_VARIABLE</title>
<a xlink:href="BERNOULI_RANDOM_VARIABLE.html" xlink:title="Bernoulli random variable" target="_top">
<polyline fill="none" stroke="black" points="475,-108 305,-108 "/>
<path fill="none" stroke="black" d="M305,-108C299,-108 293,-102 293,-96"/>
<polyline fill="none" stroke="black" points="293,-96 293,-84 "/>
<path fill="none" stroke="black" d="M293,-84C293,-78 299,-72 305,-72"/>
<polyline fill="none" stroke="black" points="305,-72 475,-72 "/>
<path fill="none" stroke="black" d="M475,-72C481,-72 487,-78 487,-84"/>
<polyline fill="none" stroke="black" points="487,-84 487,-96 "/>
<path fill="none" stroke="black" d="M487,-96C487,-102 481,-108 475,-108"/>
<text text-anchor="start" x="301" y="-87.2333" font-family="Times Roman,serif" font-size="14.00">Bernoulli random variable</text>
</a>
</g>
<!-- BERNOULI_RANDOM_VARIABLE&#45;&gt;GEOMETRIC_RANDOM_VARIABLE -->
<g id="edge10" class="edge"><title>BERNOULI_RANDOM_VARIABLE&#45;&gt;GEOMETRIC_RANDOM_VARIABLE</title>
<path fill="none" stroke="black" d="M343.569,-71.8314C318.632,-62.0734 287.719,-49.977 261.517,-39.7242"/>
<polygon fill="black" stroke="black" points="262.685,-36.4227 252.097,-36.038 260.134,-42.9414 262.685,-36.4227"/>
</g>
</g>
</svg>
