<?xml version="1.0" encoding="UTF-8" standalone="no"?>
<!DOCTYPE svg PUBLIC "-//W3C//DTD SVG 1.1//EN"
 "http://www.w3.org/Graphics/SVG/1.1/DTD/svg11.dtd">
<!-- Generated by graphviz version 2.36.0 (20140111.2315)
 -->
<!-- Title: %3 Pages: 1 -->
<svg width="427pt" height="188pt"
 viewBox="0.00 0.00 427.00 188.00" xmlns="http://www.w3.org/2000/svg" xmlns:xlink="http://www.w3.org/1999/xlink">
<g id="graph0" class="graph" transform="scale(1 1) rotate(0) translate(4 184)">
<title>%3</title>
<!-- GEOMETRIC_RANDOM_VARIABLE -->
<g id="node1" class="node"><title>GEOMETRIC_RANDOM_VARIABLE</title>
<g id="a_node1"><a xlink:href="GEOMETRIC_RANDOM_VARIABLE.html" xlink:title=" The geometric random variable " target="_top">
<path fill="none" stroke="blue" stroke-width="2" d="M265.25,-36C265.25,-36 92.75,-36 92.75,-36 86.75,-36 80.75,-30 80.75,-24 80.75,-24 80.75,-12 80.75,-12 80.75,-6 86.75,-0 92.75,-0 92.75,-0 265.25,-0 265.25,-0 271.25,-0 277.25,-6 277.25,-12 277.25,-12 277.25,-24 277.25,-24 277.25,-30 271.25,-36 265.25,-36"/>
<text text-anchor="start" x="88.5" y="-14.3" font-family="Times,serif" font-size="14.00"> The geometric random variable </text>
</a>
</g>
</g>
<!-- GEOMETRIC_SERIES -->
<g id="node2" class="node"><title>GEOMETRIC_SERIES</title>
<g id="a_node2"><a xlink:href="GEOMETRIC_SERIES.html" xlink:title=" Geometric series " target="_top">
<path fill="none" stroke="black" d="M103.5,-180C103.5,-180 12.5,-180 12.5,-180 6.5,-180 0.5,-174 0.5,-168 0.5,-168 0.5,-156 0.5,-156 0.5,-150 6.5,-144 12.5,-144 12.5,-144 103.5,-144 103.5,-144 109.5,-144 115.5,-150 115.5,-156 115.5,-156 115.5,-168 115.5,-168 115.5,-174 109.5,-180 103.5,-180"/>
<text text-anchor="start" x="8" y="-158.3" font-family="Times,serif" font-size="14.00"> Geometric series </text>
</a>
</g>
</g>
<!-- GEOMETRIC_SERIES&#45;&gt;GEOMETRIC_RANDOM_VARIABLE -->
<g id="edge1" class="edge"><title>GEOMETRIC_SERIES&#45;&gt;GEOMETRIC_RANDOM_VARIABLE</title>
<path fill="none" stroke="black" d="M54.1079,-143.947C50.7379,-124.714 48.4248,-93.3425 63,-72 72.3583,-58.2967 86.179,-48.0744 101.047,-40.4694"/>
<polygon fill="black" stroke="black" points="102.851,-43.4889 110.41,-36.0648 99.8713,-37.1548 102.851,-43.4889"/>
</g>
<!-- RANDOM_VARIABLES -->
<g id="node4" class="node"><title>RANDOM_VARIABLES</title>
<g id="a_node4"><a xlink:href="RANDOM_VARIABLES.html" xlink:title=" Random variables " target="_top">
<path fill="none" stroke="black" d="M183.25,-108C183.25,-108 84.75,-108 84.75,-108 78.75,-108 72.75,-102 72.75,-96 72.75,-96 72.75,-84 72.75,-84 72.75,-78 78.75,-72 84.75,-72 84.75,-72 183.25,-72 183.25,-72 189.25,-72 195.25,-78 195.25,-84 195.25,-84 195.25,-96 195.25,-96 195.25,-102 189.25,-108 183.25,-108"/>
<text text-anchor="start" x="80.5" y="-86.3" font-family="Times,serif" font-size="14.00"> Random variables </text>
</a>
</g>
</g>
<!-- GEOMETRIC_SERIES&#45;&gt;RANDOM_VARIABLES -->
<!-- CONDITIONAL_EXPECTATION -->
<g id="node3" class="node"><title>CONDITIONAL_EXPECTATION</title>
<g id="a_node3"><a xlink:href="CONDITIONAL_EXPECTATION.html" xlink:title=" Conditional expectation " target="_top">
<path fill="none" stroke="black" d="M289,-180C289,-180 159,-180 159,-180 153,-180 147,-174 147,-168 147,-168 147,-156 147,-156 147,-150 153,-144 159,-144 159,-144 289,-144 289,-144 295,-144 301,-150 301,-156 301,-156 301,-168 301,-168 301,-174 295,-180 289,-180"/>
<text text-anchor="start" x="155" y="-158.3" font-family="Times,serif" font-size="14.00"> Conditional expectation </text>
</a>
</g>
</g>
<!-- CONDITIONAL_EXPECTATION&#45;&gt;GEOMETRIC_RANDOM_VARIABLE -->
<g id="edge2" class="edge"><title>CONDITIONAL_EXPECTATION&#45;&gt;GEOMETRIC_RANDOM_VARIABLE</title>
<path fill="none" stroke="black" d="M221.32,-143.963C218.202,-125.819 212.387,-96.4135 204,-72 200.959,-63.148 196.875,-53.8134 192.89,-45.4863"/>
<polygon fill="black" stroke="black" points="195.899,-43.6738 188.327,-36.2631 189.625,-46.7782 195.899,-43.6738"/>
</g>
<!-- RANDOM_VARIABLES&#45;&gt;GEOMETRIC_RANDOM_VARIABLE -->
<g id="edge3" class="edge"><title>RANDOM_VARIABLES&#45;&gt;GEOMETRIC_RANDOM_VARIABLE</title>
<path fill="none" stroke="black" d="M145.124,-71.6966C150.355,-63.5589 156.7,-53.689 162.478,-44.7013"/>
<polygon fill="black" stroke="black" points="165.541,-46.4088 168.004,-36.1043 159.653,-42.6235 165.541,-46.4088"/>
</g>
<!-- BERNOULI_RANDOM_VARIABLE -->
<g id="node5" class="node"><title>BERNOULI_RANDOM_VARIABLE</title>
<g id="a_node5"><a xlink:href="BERNOULI_RANDOM_VARIABLE.html" xlink:title=" Bernoulli random variable " target="_top">
<path fill="none" stroke="black" d="M407.5,-108C407.5,-108 264.5,-108 264.5,-108 258.5,-108 252.5,-102 252.5,-96 252.5,-96 252.5,-84 252.5,-84 252.5,-78 258.5,-72 264.5,-72 264.5,-72 407.5,-72 407.5,-72 413.5,-72 419.5,-78 419.5,-84 419.5,-84 419.5,-96 419.5,-96 419.5,-102 413.5,-108 407.5,-108"/>
<text text-anchor="start" x="260" y="-86.3" font-family="Times,serif" font-size="14.00"> Bernoulli random variable </text>
</a>
</g>
</g>
<!-- BERNOULI_RANDOM_VARIABLE&#45;&gt;GEOMETRIC_RANDOM_VARIABLE -->
<g id="edge5" class="edge"><title>BERNOULI_RANDOM_VARIABLE&#45;&gt;GEOMETRIC_RANDOM_VARIABLE</title>
<path fill="none" stroke="black" d="M297.593,-71.8761C276.131,-62.3066 249.202,-50.3001 226.432,-40.1478"/>
<polygon fill="black" stroke="black" points="227.84,-36.9439 217.282,-36.0683 224.99,-43.3372 227.84,-36.9439"/>
</g>
</g>
</svg>
