<?xml version="1.0" encoding="UTF-8" standalone="no"?>
<!DOCTYPE svg PUBLIC "-//W3C//DTD SVG 1.1//EN"
 "http://www.w3.org/Graphics/SVG/1.1/DTD/svg11.dtd">
<!-- Generated by graphviz version 2.26.3 (20100126.1600)
 -->
<!-- Title: _anonymous_0 Pages: 1 -->
<svg width="501pt" height="188pt"
 viewBox="0.00 0.00 501.00 188.00" xmlns="http://www.w3.org/2000/svg" xmlns:xlink="http://www.w3.org/1999/xlink">
<g id="graph1" class="graph" transform="scale(1 1) rotate(0) translate(4 184)">
<title>_anonymous_0</title>
<!-- GEOMETRIC_RANDOM_VARIABLE -->
<g id="node1" class="node"><title>GEOMETRIC_RANDOM_VARIABLE</title>
<a xlink:href="GEOMETRIC_RANDOM_VARIABLE.html" xlink:title="The geometric random variable" target="_top">
<polyline fill="none" stroke="blue" stroke-width="2" points="340,-36 132,-36 "/>
<path fill="none" stroke="blue" stroke-width="2" d="M132,-36C126,-36 120,-30 120,-24"/>
<polyline fill="none" stroke="blue" stroke-width="2" points="120,-24 120,-12 "/>
<path fill="none" stroke="blue" stroke-width="2" d="M120,-12C120,-6 126,-1.7396e-14 132,-1.70285e-14"/>
<polyline fill="none" stroke="blue" stroke-width="2" points="132,-1.70285e-14 340,-4.28776e-15 "/>
<path fill="none" stroke="blue" stroke-width="2" d="M340,-4.28776e-15C346,-3.92024e-15 352,-6 352,-12"/>
<polyline fill="none" stroke="blue" stroke-width="2" points="352,-12 352,-24 "/>
<path fill="none" stroke="blue" stroke-width="2" d="M352,-24C352,-30 346,-36 340,-36"/>
<text text-anchor="start" x="128" y="-15.2333" font-family="Times Roman,serif" font-size="14.00">The geometric random variable</text>
</a>
</g>
<!-- BERNOULI_RANDOM_VARIABLE -->
<g id="node2" class="node"><title>BERNOULI_RANDOM_VARIABLE</title>
<a xlink:href="BERNOULI_RANDOM_VARIABLE.html" xlink:title="Bernoulli random variable" target="_top">
<polyline fill="none" stroke="black" points="182,-180 12,-180 "/>
<path fill="none" stroke="black" d="M12,-180C6,-180 7.10543e-14,-174 5.68434e-14,-168"/>
<polyline fill="none" stroke="black" points="5.68434e-14,-168 2.84217e-14,-156 "/>
<path fill="none" stroke="black" d="M2.84217e-14,-156C1.42109e-14,-150 6,-144 12,-144"/>
<polyline fill="none" stroke="black" points="12,-144 182,-144 "/>
<path fill="none" stroke="black" d="M182,-144C188,-144 194,-150 194,-156"/>
<polyline fill="none" stroke="black" points="194,-156 194,-168 "/>
<path fill="none" stroke="black" d="M194,-168C194,-174 188,-180 182,-180"/>
<text text-anchor="start" x="8" y="-159.233" font-family="Times Roman,serif" font-size="14.00">Bernoulli random variable</text>
</a>
</g>
<!-- BERNOULI_RANDOM_VARIABLE&#45;&gt;GEOMETRIC_RANDOM_VARIABLE -->
<g id="edge2" class="edge"><title>BERNOULI_RANDOM_VARIABLE&#45;&gt;GEOMETRIC_RANDOM_VARIABLE</title>
<path fill="none" stroke="black" d="M94.2499,-143.827C92.3055,-124.126 92.3519,-92.7301 108,-72 118.386,-58.2414 132.949,-47.9562 148.549,-40.2773"/>
<polygon fill="black" stroke="black" points="150.179,-43.3807 157.829,-36.0508 147.278,-37.0102 150.179,-43.3807"/>
</g>
<!-- RANDOM_VARIABLES -->
<g id="node6" class="node"><title>RANDOM_VARIABLES</title>
<a xlink:href="RANDOM_VARIABLES.html" xlink:title="Random variables" target="_top">
<polyline fill="none" stroke="black" points="245,-108 129,-108 "/>
<path fill="none" stroke="black" d="M129,-108C123,-108 117,-102 117,-96"/>
<polyline fill="none" stroke="black" points="117,-96 117,-84 "/>
<path fill="none" stroke="black" d="M117,-84C117,-78 123,-72 129,-72"/>
<polyline fill="none" stroke="black" points="129,-72 245,-72 "/>
<path fill="none" stroke="black" d="M245,-72C251,-72 257,-78 257,-84"/>
<polyline fill="none" stroke="black" points="257,-84 257,-96 "/>
<path fill="none" stroke="black" d="M257,-96C257,-102 251,-108 245,-108"/>
<text text-anchor="start" x="125.5" y="-87.2333" font-family="Times Roman,serif" font-size="14.00">Random variables</text>
</a>
</g>
<!-- BERNOULI_RANDOM_VARIABLE&#45;&gt;RANDOM_VARIABLES -->
<!-- GEOMETRIC_SERIES -->
<g id="node4" class="node"><title>GEOMETRIC_SERIES</title>
<a xlink:href="GEOMETRIC_SERIES.html" xlink:title="Geometric series" target="_top">
<polyline fill="none" stroke="black" points="339,-180 231,-180 "/>
<path fill="none" stroke="black" d="M231,-180C225,-180 219,-174 219,-168"/>
<polyline fill="none" stroke="black" points="219,-168 219,-156 "/>
<path fill="none" stroke="black" d="M219,-156C219,-150 225,-144 231,-144"/>
<polyline fill="none" stroke="black" points="231,-144 339,-144 "/>
<path fill="none" stroke="black" d="M339,-144C345,-144 351,-150 351,-156"/>
<polyline fill="none" stroke="black" points="351,-156 351,-168 "/>
<path fill="none" stroke="black" d="M351,-168C351,-174 345,-180 339,-180"/>
<text text-anchor="start" x="227" y="-159.233" font-family="Times Roman,serif" font-size="14.00">Geometric series</text>
</a>
</g>
<!-- GEOMETRIC_SERIES&#45;&gt;GEOMETRIC_RANDOM_VARIABLE -->
<g id="edge4" class="edge"><title>GEOMETRIC_SERIES&#45;&gt;GEOMETRIC_RANDOM_VARIABLE</title>
<path fill="none" stroke="black" d="M282.81,-143.967C280.194,-125.472 274.999,-96.0845 266,-72 262.582,-62.8516 257.799,-53.3789 253.056,-44.9702"/>
<polygon fill="black" stroke="black" points="256.067,-43.186 247.99,-36.3291 250.028,-46.7261 256.067,-43.186"/>
</g>
<!-- RANDOM_VARIABLES&#45;&gt;GEOMETRIC_RANDOM_VARIABLE -->
<g id="edge6" class="edge"><title>RANDOM_VARIABLES&#45;&gt;GEOMETRIC_RANDOM_VARIABLE</title>
<path fill="none" stroke="black" d="M199.365,-71.8314C204.951,-63.6232 211.663,-53.7606 217.807,-44.7323"/>
<polygon fill="black" stroke="black" points="220.736,-46.6496 223.469,-36.4133 214.949,-42.7112 220.736,-46.6496"/>
</g>
<!-- CONDITIONAL_EXPECTATION -->
<g id="node9" class="node"><title>CONDITIONAL_EXPECTATION</title>
<a xlink:href="CONDITIONAL_EXPECTATION.html" xlink:title="Conditional expectation" target="_top">
<polyline fill="none" stroke="black" points="481,-108 325,-108 "/>
<path fill="none" stroke="black" d="M325,-108C319,-108 313,-102 313,-96"/>
<polyline fill="none" stroke="black" points="313,-96 313,-84 "/>
<path fill="none" stroke="black" d="M313,-84C313,-78 319,-72 325,-72"/>
<polyline fill="none" stroke="black" points="325,-72 481,-72 "/>
<path fill="none" stroke="black" d="M481,-72C487,-72 493,-78 493,-84"/>
<polyline fill="none" stroke="black" points="493,-84 493,-96 "/>
<path fill="none" stroke="black" d="M493,-96C493,-102 487,-108 481,-108"/>
<text text-anchor="start" x="321" y="-87.2333" font-family="Times Roman,serif" font-size="14.00">Conditional expectation</text>
</a>
</g>
<!-- CONDITIONAL_EXPECTATION&#45;&gt;GEOMETRIC_RANDOM_VARIABLE -->
<g id="edge10" class="edge"><title>CONDITIONAL_EXPECTATION&#45;&gt;GEOMETRIC_RANDOM_VARIABLE</title>
<path fill="none" stroke="black" d="M360.859,-71.8314C338.524,-62.2018 310.906,-50.295 287.329,-40.1299"/>
<polygon fill="black" stroke="black" points="288.407,-36.7831 277.838,-36.038 285.635,-43.2112 288.407,-36.7831"/>
</g>
</g>
</svg>
