<?xml version="1.0" encoding="UTF-8" standalone="no"?>
<!DOCTYPE svg PUBLIC "-//W3C//DTD SVG 1.1//EN"
 "http://www.w3.org/Graphics/SVG/1.1/DTD/svg11.dtd">
<!-- Generated by graphviz version 2.28.0 (20110509.1545)
 -->
<!-- Title: _anonymous_0 Pages: 1 -->
<svg width="343pt" height="188pt"
 viewBox="0.00 0.00 343.00 188.00" xmlns="http://www.w3.org/2000/svg" xmlns:xlink="http://www.w3.org/1999/xlink">
<g id="graph1" class="graph" transform="scale(1 1) rotate(0) translate(4 184)">
<title>_anonymous_0</title>
<!-- GEOMETRIC_SERIES -->
<g id="node1" class="node"><title>GEOMETRIC_SERIES</title>
<a xlink:href="GEOMETRIC_SERIES.html" xlink:title="Geometric series" target="_top">
<polyline fill="none" stroke="blue" stroke-width="2" points="227.25,-108 140.75,-108 "/>
<path fill="none" stroke="blue" stroke-width="2" d="M140.75,-108C134.75,-108 128.75,-102 128.75,-96"/>
<polyline fill="none" stroke="blue" stroke-width="2" points="128.75,-96 128.75,-84 "/>
<path fill="none" stroke="blue" stroke-width="2" d="M128.75,-84C128.75,-78 134.75,-72 140.75,-72"/>
<polyline fill="none" stroke="blue" stroke-width="2" points="140.75,-72 227.25,-72 "/>
<path fill="none" stroke="blue" stroke-width="2" d="M227.25,-72C233.25,-72 239.25,-78 239.25,-84"/>
<polyline fill="none" stroke="blue" stroke-width="2" points="239.25,-84 239.25,-96 "/>
<path fill="none" stroke="blue" stroke-width="2" d="M239.25,-96C239.25,-102 233.25,-108 227.25,-108"/>
<text text-anchor="start" x="137" y="-84.5" font-family="Times,serif" font-size="14.00">Geometric series</text>
</a>
</g>
<!-- GEOMETRIC_RANDOM_VARIABLE -->
<g id="node2" class="node"><title>GEOMETRIC_RANDOM_VARIABLE</title>
<a xlink:href="GEOMETRIC_RANDOM_VARIABLE.html" xlink:title="The geometric random variable" target="_top">
<polyline fill="none" stroke="black" points="180.25,-36 11.75,-36 "/>
<path fill="none" stroke="black" d="M11.75,-36C5.75,-36 -0.25,-30 -0.25,-24"/>
<polyline fill="none" stroke="black" points="-0.25,-24 -0.25,-12 "/>
<path fill="none" stroke="black" d="M-0.25,-12C-0.25,-6 5.75,-0 11.75,-0"/>
<polyline fill="none" stroke="black" points="11.75,-0 180.25,-0 "/>
<path fill="none" stroke="black" d="M180.25,-0C186.25,-0 192.25,-6 192.25,-12"/>
<polyline fill="none" stroke="black" points="192.25,-12 192.25,-24 "/>
<path fill="none" stroke="black" d="M192.25,-24C192.25,-30 186.25,-36 180.25,-36"/>
<text text-anchor="start" x="8" y="-12.5" font-family="Times,serif" font-size="14.00">The geometric random variable</text>
</a>
</g>
<!-- GEOMETRIC_SERIES&#45;&gt;GEOMETRIC_RANDOM_VARIABLE -->
<g id="edge2" class="edge"><title>GEOMETRIC_SERIES&#45;&gt;GEOMETRIC_RANDOM_VARIABLE</title>
<path fill="none" stroke="black" d="M162.247,-71.6966C151.164,-62.8807 137.526,-52.0321 125.51,-42.4742"/>
<polygon fill="black" stroke="black" points="127.507,-39.5905 117.503,-36.1043 123.15,-45.0687 127.507,-39.5905"/>
</g>
<!-- MM1_QUEUE -->
<g id="node4" class="node"><title>MM1_QUEUE</title>
<a xlink:href="MM1_QUEUE.html" xlink:title="The M/M/1 Queue " target="_top">
<polyline fill="none" stroke="black" points="323.25,-36 222.75,-36 "/>
<path fill="none" stroke="black" d="M222.75,-36C216.75,-36 210.75,-30 210.75,-24"/>
<polyline fill="none" stroke="black" points="210.75,-24 210.75,-12 "/>
<path fill="none" stroke="black" d="M210.75,-12C210.75,-6 216.75,-0 222.75,-0"/>
<polyline fill="none" stroke="black" points="222.75,-0 323.25,-0 "/>
<path fill="none" stroke="black" d="M323.25,-0C329.25,-0 335.25,-6 335.25,-12"/>
<polyline fill="none" stroke="black" points="335.25,-12 335.25,-24 "/>
<path fill="none" stroke="black" d="M335.25,-24C335.25,-30 329.25,-36 323.25,-36"/>
<text text-anchor="start" x="219" y="-12.5" font-family="Times,serif" font-size="14.00">The M/M/1 Queue </text>
</a>
</g>
<!-- GEOMETRIC_SERIES&#45;&gt;MM1_QUEUE -->
<g id="edge4" class="edge"><title>GEOMETRIC_SERIES&#45;&gt;MM1_QUEUE</title>
<path fill="none" stroke="black" d="M206,-71.6966C217.209,-62.8807 231.002,-52.0321 243.154,-42.4742"/>
<polygon fill="black" stroke="black" points="245.557,-45.0375 251.253,-36.1043 241.229,-39.5354 245.557,-45.0375"/>
</g>
<!-- SUMMATIONS -->
<g id="node6" class="node"><title>SUMMATIONS</title>
<a xlink:href="SUMMATIONS.html" xlink:title="Summation and product notation" target="_top">
<polyline fill="none" stroke="black" points="272,-180 96,-180 "/>
<path fill="none" stroke="black" d="M96,-180C90,-180 84,-174 84,-168"/>
<polyline fill="none" stroke="black" points="84,-168 84,-156 "/>
<path fill="none" stroke="black" d="M84,-156C84,-150 90,-144 96,-144"/>
<polyline fill="none" stroke="black" points="96,-144 272,-144 "/>
<path fill="none" stroke="black" d="M272,-144C278,-144 284,-150 284,-156"/>
<polyline fill="none" stroke="black" points="284,-156 284,-168 "/>
<path fill="none" stroke="black" d="M284,-168C284,-174 278,-180 272,-180"/>
<text text-anchor="start" x="92.5" y="-156.5" font-family="Times,serif" font-size="14.00">Summation and product notation</text>
</a>
</g>
<!-- SUMMATIONS&#45;&gt;GEOMETRIC_SERIES -->
<g id="edge6" class="edge"><title>SUMMATIONS&#45;&gt;GEOMETRIC_SERIES</title>
<path fill="none" stroke="black" d="M184,-143.697C184,-135.983 184,-126.712 184,-118.112"/>
<polygon fill="black" stroke="black" points="187.5,-118.104 184,-108.104 180.5,-118.104 187.5,-118.104"/>
</g>
</g>
</svg>
