<?xml version="1.0" encoding="UTF-8" standalone="no"?>
<!DOCTYPE svg PUBLIC "-//W3C//DTD SVG 1.1//EN"
 "http://www.w3.org/Graphics/SVG/1.1/DTD/svg11.dtd">
<!-- Generated by graphviz version 2.28.0 (20110509.1545)
 -->
<!-- Title: _anonymous_0 Pages: 1 -->
<svg width="300pt" height="188pt"
 viewBox="0.00 0.00 300.00 188.00" xmlns="http://www.w3.org/2000/svg" xmlns:xlink="http://www.w3.org/1999/xlink">
<g id="graph1" class="graph" transform="scale(1 1) rotate(0) translate(4 184)">
<title>_anonymous_0</title>
<!-- GEOMETRIC_RANDOM_VARIABLE -->
<g id="node1" class="node"><title>GEOMETRIC_RANDOM_VARIABLE</title>
<a xlink:href="GEOMETRIC_RANDOM_VARIABLE.html" xlink:title="The geometric random variable" target="_top">
<polyline fill="none" stroke="blue" stroke-width="2" points="234.25,-36 65.75,-36 "/>
<path fill="none" stroke="blue" stroke-width="2" d="M65.75,-36C59.75,-36 53.75,-30 53.75,-24"/>
<polyline fill="none" stroke="blue" stroke-width="2" points="53.75,-24 53.75,-12 "/>
<path fill="none" stroke="blue" stroke-width="2" d="M53.75,-12C53.75,-6 59.75,-0 65.75,-0"/>
<polyline fill="none" stroke="blue" stroke-width="2" points="65.75,-0 234.25,-0 "/>
<path fill="none" stroke="blue" stroke-width="2" d="M234.25,-0C240.25,-0 246.25,-6 246.25,-12"/>
<polyline fill="none" stroke="blue" stroke-width="2" points="246.25,-12 246.25,-24 "/>
<path fill="none" stroke="blue" stroke-width="2" d="M246.25,-24C246.25,-30 240.25,-36 234.25,-36"/>
<text text-anchor="start" x="62" y="-12.5" font-family="Times,serif" font-size="14.00">The geometric random variable</text>
</a>
</g>
<!-- CONDITIONAL_EXPECTATION -->
<g id="node2" class="node"><title>CONDITIONAL_EXPECTATION</title>
<a xlink:href="CONDITIONAL_EXPECTATION.html" xlink:title="Conditional expectation" target="_top">
<polyline fill="none" stroke="black" points="138.25,-180 11.75,-180 "/>
<path fill="none" stroke="black" d="M11.75,-180C5.75,-180 -0.25,-174 -0.25,-168"/>
<polyline fill="none" stroke="black" points="-0.25,-168 -0.25,-156 "/>
<path fill="none" stroke="black" d="M-0.25,-156C-0.25,-150 5.75,-144 11.75,-144"/>
<polyline fill="none" stroke="black" points="11.75,-144 138.25,-144 "/>
<path fill="none" stroke="black" d="M138.25,-144C144.25,-144 150.25,-150 150.25,-156"/>
<polyline fill="none" stroke="black" points="150.25,-156 150.25,-168 "/>
<path fill="none" stroke="black" d="M150.25,-168C150.25,-174 144.25,-180 138.25,-180"/>
<text text-anchor="start" x="8" y="-156.5" font-family="Times,serif" font-size="14.00">Conditional expectation</text>
</a>
</g>
<!-- CONDITIONAL_EXPECTATION&#45;&gt;GEOMETRIC_RANDOM_VARIABLE -->
<g id="edge2" class="edge"><title>CONDITIONAL_EXPECTATION&#45;&gt;GEOMETRIC_RANDOM_VARIABLE</title>
<path fill="none" stroke="black" d="M72.4314,-143.795C70.4776,-124.983 69.883,-94.5207 82,-72 88.3861,-60.1308 98.6929,-50.0541 109.372,-41.9774"/>
<polygon fill="black" stroke="black" points="111.407,-44.8249 117.552,-36.1943 107.366,-39.109 111.407,-44.8249"/>
</g>
<!-- RANDOM_VARIABLES -->
<g id="node6" class="node"><title>RANDOM_VARIABLES</title>
<a xlink:href="RANDOM_VARIABLES.html" xlink:title="Random variables" target="_top">
<polyline fill="none" stroke="black" points="197,-108 103,-108 "/>
<path fill="none" stroke="black" d="M103,-108C97,-108 91,-102 91,-96"/>
<polyline fill="none" stroke="black" points="91,-96 91,-84 "/>
<path fill="none" stroke="black" d="M91,-84C91,-78 97,-72 103,-72"/>
<polyline fill="none" stroke="black" points="103,-72 197,-72 "/>
<path fill="none" stroke="black" d="M197,-72C203,-72 209,-78 209,-84"/>
<polyline fill="none" stroke="black" points="209,-84 209,-96 "/>
<path fill="none" stroke="black" d="M209,-96C209,-102 203,-108 197,-108"/>
<text text-anchor="start" x="99.5" y="-84.5" font-family="Times,serif" font-size="14.00">Random variables</text>
</a>
</g>
<!-- CONDITIONAL_EXPECTATION&#45;&gt;RANDOM_VARIABLES -->
<!-- GEOMETRIC_SERIES -->
<g id="node4" class="node"><title>GEOMETRIC_SERIES</title>
<a xlink:href="GEOMETRIC_SERIES.html" xlink:title="Geometric series" target="_top">
<polyline fill="none" stroke="black" points="280.25,-180 193.75,-180 "/>
<path fill="none" stroke="black" d="M193.75,-180C187.75,-180 181.75,-174 181.75,-168"/>
<polyline fill="none" stroke="black" points="181.75,-168 181.75,-156 "/>
<path fill="none" stroke="black" d="M181.75,-156C181.75,-150 187.75,-144 193.75,-144"/>
<polyline fill="none" stroke="black" points="193.75,-144 280.25,-144 "/>
<path fill="none" stroke="black" d="M280.25,-144C286.25,-144 292.25,-150 292.25,-156"/>
<polyline fill="none" stroke="black" points="292.25,-156 292.25,-168 "/>
<path fill="none" stroke="black" d="M292.25,-168C292.25,-174 286.25,-180 280.25,-180"/>
<text text-anchor="start" x="190" y="-156.5" font-family="Times,serif" font-size="14.00">Geometric series</text>
</a>
</g>
<!-- GEOMETRIC_SERIES&#45;&gt;GEOMETRIC_RANDOM_VARIABLE -->
<g id="edge4" class="edge"><title>GEOMETRIC_SERIES&#45;&gt;GEOMETRIC_RANDOM_VARIABLE</title>
<path fill="none" stroke="black" d="M236.768,-143.976C235.777,-125.051 231.921,-94.2277 218,-72 210.656,-60.274 199.75,-50.1059 188.811,-41.8995"/>
<polygon fill="black" stroke="black" points="190.682,-38.9359 180.499,-36.0131 186.637,-44.6486 190.682,-38.9359"/>
</g>
<!-- RANDOM_VARIABLES&#45;&gt;GEOMETRIC_RANDOM_VARIABLE -->
<g id="edge6" class="edge"><title>RANDOM_VARIABLES&#45;&gt;GEOMETRIC_RANDOM_VARIABLE</title>
<path fill="none" stroke="black" d="M150,-71.6966C150,-63.9827 150,-54.7125 150,-46.1124"/>
<polygon fill="black" stroke="black" points="153.5,-46.1043 150,-36.1043 146.5,-46.1044 153.5,-46.1043"/>
</g>
</g>
</svg>
