<?xml version="1.0" encoding="UTF-8" standalone="no"?>
<!DOCTYPE svg PUBLIC "-//W3C//DTD SVG 1.1//EN"
 "http://www.w3.org/Graphics/SVG/1.1/DTD/svg11.dtd">
<!-- Generated by graphviz version 2.36.0 (20140111.2315)
 -->
<!-- Title: %3 Pages: 1 -->
<svg width="353pt" height="188pt"
 viewBox="0.00 0.00 353.00 188.00" xmlns="http://www.w3.org/2000/svg" xmlns:xlink="http://www.w3.org/1999/xlink">
<g id="graph0" class="graph" transform="scale(1 1) rotate(0) translate(4 184)">
<title>%3</title>
<!-- GEOMETRIC_SERIES -->
<g id="node1" class="node"><title>GEOMETRIC_SERIES</title>
<g id="a_node1"><a xlink:href="GEOMETRIC_SERIES.html" xlink:title=" Geometric series " target="_top">
<path fill="none" stroke="blue" stroke-width="2" d="M234.5,-108C234.5,-108 143.5,-108 143.5,-108 137.5,-108 131.5,-102 131.5,-96 131.5,-96 131.5,-84 131.5,-84 131.5,-78 137.5,-72 143.5,-72 143.5,-72 234.5,-72 234.5,-72 240.5,-72 246.5,-78 246.5,-84 246.5,-84 246.5,-96 246.5,-96 246.5,-102 240.5,-108 234.5,-108"/>
<text text-anchor="start" x="139" y="-86.3" font-family="Times,serif" font-size="14.00"> Geometric series </text>
</a>
</g>
</g>
<!-- GEOMETRIC_RANDOM_VARIABLE -->
<g id="node2" class="node"><title>GEOMETRIC_RANDOM_VARIABLE</title>
<g id="a_node2"><a xlink:href="GEOMETRIC_RANDOM_VARIABLE.html" xlink:title=" The geometric random variable " target="_top">
<path fill="none" stroke="black" d="M184.25,-36C184.25,-36 11.75,-36 11.75,-36 5.75,-36 -0.25,-30 -0.25,-24 -0.25,-24 -0.25,-12 -0.25,-12 -0.25,-6 5.75,-0 11.75,-0 11.75,-0 184.25,-0 184.25,-0 190.25,-0 196.25,-6 196.25,-12 196.25,-12 196.25,-24 196.25,-24 196.25,-30 190.25,-36 184.25,-36"/>
<text text-anchor="start" x="7.5" y="-14.3" font-family="Times,serif" font-size="14.00"> The geometric random variable </text>
</a>
</g>
</g>
<!-- GEOMETRIC_SERIES&#45;&gt;GEOMETRIC_RANDOM_VARIABLE -->
<g id="edge1" class="edge"><title>GEOMETRIC_SERIES&#45;&gt;GEOMETRIC_RANDOM_VARIABLE</title>
<path fill="none" stroke="black" d="M166.506,-71.6966C155.045,-62.8807 140.942,-52.0321 128.516,-42.4742"/>
<polygon fill="black" stroke="black" points="130.296,-39.4273 120.236,-36.1043 126.028,-44.9757 130.296,-39.4273"/>
</g>
<!-- MM1_QUEUE -->
<g id="node4" class="node"><title>MM1_QUEUE</title>
<g id="a_node4"><a xlink:href="MM1_QUEUE.html" xlink:title=" The M/M/1 Queue &#160;" target="_top">
<path fill="none" stroke="black" d="M333.25,-36C333.25,-36 226.75,-36 226.75,-36 220.75,-36 214.75,-30 214.75,-24 214.75,-24 214.75,-12 214.75,-12 214.75,-6 220.75,-0 226.75,-0 226.75,-0 333.25,-0 333.25,-0 339.25,-0 345.25,-6 345.25,-12 345.25,-12 345.25,-24 345.25,-24 345.25,-30 339.25,-36 333.25,-36"/>
<text text-anchor="start" x="222.5" y="-14.3" font-family="Times,serif" font-size="14.00"> The M/M/1 Queue &#160;</text>
</a>
</g>
</g>
<!-- GEOMETRIC_SERIES&#45;&gt;MM1_QUEUE -->
<g id="edge3" class="edge"><title>GEOMETRIC_SERIES&#45;&gt;MM1_QUEUE</title>
<path fill="none" stroke="black" d="M211.494,-71.6966C222.955,-62.8807 237.058,-52.0321 249.484,-42.4742"/>
<polygon fill="black" stroke="black" points="251.972,-44.9757 257.764,-36.1043 247.704,-39.4273 251.972,-44.9757"/>
</g>
<!-- SUMMATIONS -->
<g id="node3" class="node"><title>SUMMATIONS</title>
<g id="a_node3"><a xlink:href="SUMMATIONS.html" xlink:title=" Summation and product notation " target="_top">
<path fill="none" stroke="black" d="M278.5,-180C278.5,-180 99.5,-180 99.5,-180 93.5,-180 87.5,-174 87.5,-168 87.5,-168 87.5,-156 87.5,-156 87.5,-150 93.5,-144 99.5,-144 99.5,-144 278.5,-144 278.5,-144 284.5,-144 290.5,-150 290.5,-156 290.5,-156 290.5,-168 290.5,-168 290.5,-174 284.5,-180 278.5,-180"/>
<text text-anchor="start" x="95" y="-158.3" font-family="Times,serif" font-size="14.00"> Summation and product notation </text>
</a>
</g>
</g>
<!-- SUMMATIONS&#45;&gt;GEOMETRIC_SERIES -->
<g id="edge2" class="edge"><title>SUMMATIONS&#45;&gt;GEOMETRIC_SERIES</title>
<path fill="none" stroke="black" d="M189,-143.697C189,-135.983 189,-126.712 189,-118.112"/>
<polygon fill="black" stroke="black" points="192.5,-118.104 189,-108.104 185.5,-118.104 192.5,-118.104"/>
</g>
</g>
</svg>
