<?xml version="1.0" encoding="UTF-8" standalone="no"?>
<!DOCTYPE svg PUBLIC "-//W3C//DTD SVG 1.1//EN"
 "http://www.w3.org/Graphics/SVG/1.1/DTD/svg11.dtd">
<!-- Generated by graphviz version 2.26.3 (20100126.1600)
 -->
<!-- Title: _anonymous_0 Pages: 1 -->
<svg width="402pt" height="188pt"
 viewBox="0.00 0.00 402.00 188.00" xmlns="http://www.w3.org/2000/svg" xmlns:xlink="http://www.w3.org/1999/xlink">
<g id="graph1" class="graph" transform="scale(1 1) rotate(0) translate(4 184)">
<title>_anonymous_0</title>
<!-- GEOMETRIC_SERIES -->
<g id="node1" class="node"><title>GEOMETRIC_SERIES</title>
<a xlink:href="GEOMETRIC_SERIES.html" xlink:title="Geometric series" target="_top">
<polyline fill="none" stroke="blue" stroke-width="2" points="229,-108 121,-108 "/>
<path fill="none" stroke="blue" stroke-width="2" d="M121,-108C115,-108 109,-102 109,-96"/>
<polyline fill="none" stroke="blue" stroke-width="2" points="109,-96 109,-84 "/>
<path fill="none" stroke="blue" stroke-width="2" d="M109,-84C109,-78 115,-72 121,-72"/>
<polyline fill="none" stroke="blue" stroke-width="2" points="121,-72 229,-72 "/>
<path fill="none" stroke="blue" stroke-width="2" d="M229,-72C235,-72 241,-78 241,-84"/>
<polyline fill="none" stroke="blue" stroke-width="2" points="241,-84 241,-96 "/>
<path fill="none" stroke="blue" stroke-width="2" d="M241,-96C241,-102 235,-108 229,-108"/>
<text text-anchor="start" x="117" y="-87.2333" font-family="Times Roman,serif" font-size="14.00">Geometric series</text>
</a>
</g>
<!-- MM1_QUEUE -->
<g id="node2" class="node"><title>MM1_QUEUE</title>
<a xlink:href="MM1_QUEUE.html" xlink:title="The M/M/1 Queue " target="_top">
<polyline fill="none" stroke="black" points="132,-36 12,-36 "/>
<path fill="none" stroke="black" d="M12,-36C6,-36 5.92119e-14,-30 4.73695e-14,-24"/>
<polyline fill="none" stroke="black" points="4.73695e-14,-24 2.36848e-14,-12 "/>
<path fill="none" stroke="black" d="M2.36848e-14,-12C1.18424e-14,-6 6,-1.71714e-14 12,-1.65793e-14"/>
<polyline fill="none" stroke="black" points="12,-1.65793e-14 132,-4.73695e-15 "/>
<path fill="none" stroke="black" d="M132,-4.73695e-15C138,-4.14483e-15 144,-6 144,-12"/>
<polyline fill="none" stroke="black" points="144,-12 144,-24 "/>
<path fill="none" stroke="black" d="M144,-24C144,-30 138,-36 132,-36"/>
<text text-anchor="start" x="8" y="-15.2333" font-family="Times Roman,serif" font-size="14.00">The M/M/1 Queue </text>
</a>
</g>
<!-- GEOMETRIC_SERIES&#45;&gt;MM1_QUEUE -->
<g id="edge2" class="edge"><title>GEOMETRIC_SERIES&#45;&gt;MM1_QUEUE</title>
<path fill="none" stroke="black" d="M149.009,-71.8314C136.078,-62.7927 120.278,-51.7476 106.362,-42.0198"/>
<polygon fill="black" stroke="black" points="108.184,-39.0235 97.9829,-36.1628 104.174,-44.7608 108.184,-39.0235"/>
</g>
<!-- GEOMETRIC_RANDOM_VARIABLE -->
<g id="node6" class="node"><title>GEOMETRIC_RANDOM_VARIABLE</title>
<a xlink:href="GEOMETRIC_RANDOM_VARIABLE.html" xlink:title="The geometric random variable" target="_top">
<polyline fill="none" stroke="black" points="382,-36 174,-36 "/>
<path fill="none" stroke="black" d="M174,-36C168,-36 162,-30 162,-24"/>
<polyline fill="none" stroke="black" points="162,-24 162,-12 "/>
<path fill="none" stroke="black" d="M162,-12C162,-6 168,-1.7396e-14 174,-1.70285e-14"/>
<polyline fill="none" stroke="black" points="174,-1.70285e-14 382,-4.28776e-15 "/>
<path fill="none" stroke="black" d="M382,-4.28776e-15C388,-3.92024e-15 394,-6 394,-12"/>
<polyline fill="none" stroke="black" points="394,-12 394,-24 "/>
<path fill="none" stroke="black" d="M394,-24C394,-30 388,-36 382,-36"/>
<text text-anchor="start" x="170" y="-15.2333" font-family="Times Roman,serif" font-size="14.00">The geometric random variable</text>
</a>
</g>
<!-- GEOMETRIC_SERIES&#45;&gt;GEOMETRIC_RANDOM_VARIABLE -->
<g id="edge6" class="edge"><title>GEOMETRIC_SERIES&#45;&gt;GEOMETRIC_RANDOM_VARIABLE</title>
<path fill="none" stroke="black" d="M200.991,-71.8314C213.922,-62.7927 229.722,-51.7476 243.638,-42.0198"/>
<polygon fill="black" stroke="black" points="245.826,-44.7608 252.017,-36.1628 241.816,-39.0235 245.826,-44.7608"/>
</g>
<!-- SUMMATIONS -->
<g id="node4" class="node"><title>SUMMATIONS</title>
<a xlink:href="SUMMATIONS.html" xlink:title="Summation and product notation" target="_top">
<polyline fill="none" stroke="black" points="286,-180 64,-180 "/>
<path fill="none" stroke="black" d="M64,-180C58,-180 52,-174 52,-168"/>
<polyline fill="none" stroke="black" points="52,-168 52,-156 "/>
<path fill="none" stroke="black" d="M52,-156C52,-150 58,-144 64,-144"/>
<polyline fill="none" stroke="black" points="64,-144 286,-144 "/>
<path fill="none" stroke="black" d="M286,-144C292,-144 298,-150 298,-156"/>
<polyline fill="none" stroke="black" points="298,-156 298,-168 "/>
<path fill="none" stroke="black" d="M298,-168C298,-174 292,-180 286,-180"/>
<text text-anchor="start" x="60.5" y="-159.233" font-family="Times Roman,serif" font-size="14.00">Summation and product notation</text>
</a>
</g>
<!-- SUMMATIONS&#45;&gt;GEOMETRIC_SERIES -->
<g id="edge4" class="edge"><title>SUMMATIONS&#45;&gt;GEOMETRIC_SERIES</title>
<path fill="none" stroke="black" d="M175,-143.831C175,-136.131 175,-126.974 175,-118.417"/>
<polygon fill="black" stroke="black" points="178.5,-118.413 175,-108.413 171.5,-118.413 178.5,-118.413"/>
</g>
</g>
</svg>
