<?xml version="1.0" encoding="UTF-8" standalone="no"?>
<!DOCTYPE svg PUBLIC "-//W3C//DTD SVG 1.1//EN"
 "http://www.w3.org/Graphics/SVG/1.1/DTD/svg11.dtd">
<!-- Generated by graphviz version 2.26.3 (20100126.1600)
 -->
<!-- Title: _anonymous_0 Pages: 1 -->
<svg width="472pt" height="188pt"
 viewBox="0.00 0.00 472.00 188.00" xmlns="http://www.w3.org/2000/svg" xmlns:xlink="http://www.w3.org/1999/xlink">
<g id="graph1" class="graph" transform="scale(1 1) rotate(0) translate(4 184)">
<title>_anonymous_0</title>
<!-- GEOMETRIC_RANDOM_VARIABLE -->
<g id="node1" class="node"><title>GEOMETRIC_RANDOM_VARIABLE</title>
<a xlink:href="GEOMETRIC_RANDOM_VARIABLE.html" xlink:title=" The geometric random variable " target="_top">
<polyline fill="none" stroke="blue" stroke-width="2" points="341,-36 123,-36 "/>
<path fill="none" stroke="blue" stroke-width="2" d="M123,-36C117,-36 111,-30 111,-24"/>
<polyline fill="none" stroke="blue" stroke-width="2" points="111,-24 111,-12 "/>
<path fill="none" stroke="blue" stroke-width="2" d="M111,-12C111,-6 117,-1.74112e-14 123,-1.70589e-14"/>
<polyline fill="none" stroke="blue" stroke-width="2" points="123,-1.70589e-14 341,-4.25738e-15 "/>
<path fill="none" stroke="blue" stroke-width="2" d="M341,-4.25738e-15C347,-3.90505e-15 353,-6 353,-12"/>
<polyline fill="none" stroke="blue" stroke-width="2" points="353,-12 353,-24 "/>
<path fill="none" stroke="blue" stroke-width="2" d="M353,-24C353,-30 347,-36 341,-36"/>
<text text-anchor="start" x="119.5" y="-15.2333" font-family="Times Roman,serif" font-size="14.00"> The geometric random variable </text>
</a>
</g>
<!-- RANDOM_VARIABLES -->
<g id="node2" class="node"><title>RANDOM_VARIABLES</title>
<a xlink:href="RANDOM_VARIABLES.html" xlink:title=" Random variables " target="_top">
<polyline fill="none" stroke="black" points="136,-180 12,-180 "/>
<path fill="none" stroke="black" d="M12,-180C6,-180 5.92119e-14,-174 4.73695e-14,-168"/>
<polyline fill="none" stroke="black" points="4.73695e-14,-168 2.36848e-14,-156 "/>
<path fill="none" stroke="black" d="M2.36848e-14,-156C1.18424e-14,-150 6,-144 12,-144"/>
<polyline fill="none" stroke="black" points="12,-144 136,-144 "/>
<path fill="none" stroke="black" d="M136,-144C142,-144 148,-150 148,-156"/>
<polyline fill="none" stroke="black" points="148,-156 148,-168 "/>
<path fill="none" stroke="black" d="M148,-168C148,-174 142,-180 136,-180"/>
<text text-anchor="start" x="8" y="-159.233" font-family="Times Roman,serif" font-size="14.00"> Random variables </text>
</a>
</g>
<!-- RANDOM_VARIABLES&#45;&gt;GEOMETRIC_RANDOM_VARIABLE -->
<g id="edge2" class="edge"><title>RANDOM_VARIABLES&#45;&gt;GEOMETRIC_RANDOM_VARIABLE</title>
<path fill="none" stroke="black" d="M66.222,-143.905C59.1178,-124.272 51.8227,-92.9366 67,-72 76.2985,-59.173 105.784,-47.7747 137.309,-38.7948"/>
<polygon fill="black" stroke="black" points="138.427,-42.1172 147.138,-36.0866 136.568,-35.3687 138.427,-42.1172"/>
</g>
<!-- CONDITIONAL_EXPECTATION -->
<g id="node6" class="node"><title>CONDITIONAL_EXPECTATION</title>
<a xlink:href="CONDITIONAL_EXPECTATION.html" xlink:title=" Conditional expectation " target="_top">
<polyline fill="none" stroke="black" points="254,-108 88,-108 "/>
<path fill="none" stroke="black" d="M88,-108C82,-108 76,-102 76,-96"/>
<polyline fill="none" stroke="black" points="76,-96 76,-84 "/>
<path fill="none" stroke="black" d="M76,-84C76,-78 82,-72 88,-72"/>
<polyline fill="none" stroke="black" points="88,-72 254,-72 "/>
<path fill="none" stroke="black" d="M254,-72C260,-72 266,-78 266,-84"/>
<polyline fill="none" stroke="black" points="266,-84 266,-96 "/>
<path fill="none" stroke="black" d="M266,-96C266,-102 260,-108 254,-108"/>
<text text-anchor="start" x="84.5" y="-87.2333" font-family="Times Roman,serif" font-size="14.00"> Conditional expectation </text>
</a>
</g>
<!-- RANDOM_VARIABLES&#45;&gt;CONDITIONAL_EXPECTATION -->
<!-- BERNOULI_RANDOM_VARIABLE -->
<g id="node4" class="node"><title>BERNOULI_RANDOM_VARIABLE</title>
<a xlink:href="BERNOULI_RANDOM_VARIABLE.html" xlink:title=" Bernoulli random variable " target="_top">
<polyline fill="none" stroke="black" points="384,-180 204,-180 "/>
<path fill="none" stroke="black" d="M204,-180C198,-180 192,-174 192,-168"/>
<polyline fill="none" stroke="black" points="192,-168 192,-156 "/>
<path fill="none" stroke="black" d="M192,-156C192,-150 198,-144 204,-144"/>
<polyline fill="none" stroke="black" points="204,-144 384,-144 "/>
<path fill="none" stroke="black" d="M384,-144C390,-144 396,-150 396,-156"/>
<polyline fill="none" stroke="black" points="396,-156 396,-168 "/>
<path fill="none" stroke="black" d="M396,-168C396,-174 390,-180 384,-180"/>
<text text-anchor="start" x="200.5" y="-159.233" font-family="Times Roman,serif" font-size="14.00"> Bernoulli random variable </text>
</a>
</g>
<!-- BERNOULI_RANDOM_VARIABLE&#45;&gt;GEOMETRIC_RANDOM_VARIABLE -->
<g id="edge4" class="edge"><title>BERNOULI_RANDOM_VARIABLE&#45;&gt;GEOMETRIC_RANDOM_VARIABLE</title>
<path fill="none" stroke="black" d="M292.656,-143.974C290.705,-125.227 286.025,-95.4034 275,-72 270.278,-61.9768 263.358,-52.1503 256.444,-43.6857"/>
<polygon fill="black" stroke="black" points="259.05,-41.3475 249.889,-36.0254 253.732,-45.8989 259.05,-41.3475"/>
</g>
<!-- CONDITIONAL_EXPECTATION&#45;&gt;GEOMETRIC_RANDOM_VARIABLE -->
<g id="edge6" class="edge"><title>CONDITIONAL_EXPECTATION&#45;&gt;GEOMETRIC_RANDOM_VARIABLE</title>
<path fill="none" stroke="black" d="M186.393,-71.8314C193.49,-63.454 202.048,-53.3531 209.824,-44.1749"/>
<polygon fill="black" stroke="black" points="212.606,-46.3056 216.4,-36.4133 207.265,-41.7807 212.606,-46.3056"/>
</g>
<!-- GEOMETRIC_SERIES -->
<g id="node9" class="node"><title>GEOMETRIC_SERIES</title>
<a xlink:href="GEOMETRIC_SERIES.html" xlink:title=" Geometric series " target="_top">
<polyline fill="none" stroke="black" points="452,-108 334,-108 "/>
<path fill="none" stroke="black" d="M334,-108C328,-108 322,-102 322,-96"/>
<polyline fill="none" stroke="black" points="322,-96 322,-84 "/>
<path fill="none" stroke="black" d="M322,-84C322,-78 328,-72 334,-72"/>
<polyline fill="none" stroke="black" points="334,-72 452,-72 "/>
<path fill="none" stroke="black" d="M452,-72C458,-72 464,-78 464,-84"/>
<polyline fill="none" stroke="black" points="464,-84 464,-96 "/>
<path fill="none" stroke="black" d="M464,-96C464,-102 458,-108 452,-108"/>
<text text-anchor="start" x="330.5" y="-87.2333" font-family="Times Roman,serif" font-size="14.00"> Geometric series </text>
</a>
</g>
<!-- GEOMETRIC_SERIES&#45;&gt;GEOMETRIC_RANDOM_VARIABLE -->
<g id="edge10" class="edge"><title>GEOMETRIC_SERIES&#45;&gt;GEOMETRIC_RANDOM_VARIABLE</title>
<path fill="none" stroke="black" d="M352.373,-71.8314C330.84,-62.2018 304.215,-50.295 281.485,-40.1299"/>
<polygon fill="black" stroke="black" points="282.893,-36.9254 272.335,-36.038 280.035,-43.3155 282.893,-36.9254"/>
</g>
</g>
</svg>
