<?xml version="1.0" encoding="UTF-8" standalone="no"?>
<!DOCTYPE svg PUBLIC "-//W3C//DTD SVG 1.1//EN"
 "http://www.w3.org/Graphics/SVG/1.1/DTD/svg11.dtd">
<!-- Generated by graphviz version 2.26.3 (20100126.1600)
 -->
<!-- Title: _anonymous_0 Pages: 1 -->
<svg width="448pt" height="188pt"
 viewBox="0.00 0.00 448.00 188.00" xmlns="http://www.w3.org/2000/svg" xmlns:xlink="http://www.w3.org/1999/xlink">
<g id="graph1" class="graph" transform="scale(1 1) rotate(0) translate(4 184)">
<title>_anonymous_0</title>
<!-- GEOMETRIC_RANDOM_VARIABLE -->
<g id="node1" class="node"><title>GEOMETRIC_RANDOM_VARIABLE</title>
<a xlink:href="GEOMETRIC_RANDOM_VARIABLE.html" xlink:title="The geometric random variable" target="_top">
<polyline fill="none" stroke="blue" stroke-width="2" points="325,-36 117,-36 "/>
<path fill="none" stroke="blue" stroke-width="2" d="M117,-36C111,-36 105,-30 105,-24"/>
<polyline fill="none" stroke="blue" stroke-width="2" points="105,-24 105,-12 "/>
<path fill="none" stroke="blue" stroke-width="2" d="M105,-12C105,-6 111,-1.7396e-14 117,-1.70285e-14"/>
<polyline fill="none" stroke="blue" stroke-width="2" points="117,-1.70285e-14 325,-4.28776e-15 "/>
<path fill="none" stroke="blue" stroke-width="2" d="M325,-4.28776e-15C331,-3.92024e-15 337,-6 337,-12"/>
<polyline fill="none" stroke="blue" stroke-width="2" points="337,-12 337,-24 "/>
<path fill="none" stroke="blue" stroke-width="2" d="M337,-24C337,-30 331,-36 325,-36"/>
<text text-anchor="start" x="113" y="-15.2333" font-family="Times Roman,serif" font-size="14.00">The geometric random variable</text>
</a>
</g>
<!-- RANDOM_VARIABLES -->
<g id="node2" class="node"><title>RANDOM_VARIABLES</title>
<a xlink:href="RANDOM_VARIABLES.html" xlink:title="Random variables" target="_top">
<polyline fill="none" stroke="black" points="128,-180 12,-180 "/>
<path fill="none" stroke="black" d="M12,-180C6,-180 5.92119e-14,-174 4.73695e-14,-168"/>
<polyline fill="none" stroke="black" points="4.73695e-14,-168 2.36848e-14,-156 "/>
<path fill="none" stroke="black" d="M2.36848e-14,-156C1.18424e-14,-150 6,-144 12,-144"/>
<polyline fill="none" stroke="black" points="12,-144 128,-144 "/>
<path fill="none" stroke="black" d="M128,-144C134,-144 140,-150 140,-156"/>
<polyline fill="none" stroke="black" points="140,-156 140,-168 "/>
<path fill="none" stroke="black" d="M140,-168C140,-174 134,-180 128,-180"/>
<text text-anchor="start" x="8.5" y="-159.233" font-family="Times Roman,serif" font-size="14.00">Random variables</text>
</a>
</g>
<!-- RANDOM_VARIABLES&#45;&gt;GEOMETRIC_RANDOM_VARIABLE -->
<g id="edge2" class="edge"><title>RANDOM_VARIABLES&#45;&gt;GEOMETRIC_RANDOM_VARIABLE</title>
<path fill="none" stroke="black" d="M62.2738,-143.942C55.2151,-124.343 47.9595,-93.0351 63,-72 71.9763,-59.4461 100.819,-47.9935 131.448,-38.8979"/>
<polygon fill="black" stroke="black" points="132.788,-42.1545 141.433,-36.0291 130.855,-35.4267 132.788,-42.1545"/>
</g>
<!-- CONDITIONAL_EXPECTATION -->
<g id="node6" class="node"><title>CONDITIONAL_EXPECTATION</title>
<a xlink:href="CONDITIONAL_EXPECTATION.html" xlink:title="Conditional expectation" target="_top">
<polyline fill="none" stroke="black" points="240,-108 84,-108 "/>
<path fill="none" stroke="black" d="M84,-108C78,-108 72,-102 72,-96"/>
<polyline fill="none" stroke="black" points="72,-96 72,-84 "/>
<path fill="none" stroke="black" d="M72,-84C72,-78 78,-72 84,-72"/>
<polyline fill="none" stroke="black" points="84,-72 240,-72 "/>
<path fill="none" stroke="black" d="M240,-72C246,-72 252,-78 252,-84"/>
<polyline fill="none" stroke="black" points="252,-84 252,-96 "/>
<path fill="none" stroke="black" d="M252,-96C252,-102 246,-108 240,-108"/>
<text text-anchor="start" x="80" y="-87.2333" font-family="Times Roman,serif" font-size="14.00">Conditional expectation</text>
</a>
</g>
<!-- RANDOM_VARIABLES&#45;&gt;CONDITIONAL_EXPECTATION -->
<!-- BERNOULI_RANDOM_VARIABLE -->
<g id="node4" class="node"><title>BERNOULI_RANDOM_VARIABLE</title>
<a xlink:href="BERNOULI_RANDOM_VARIABLE.html" xlink:title="Bernoulli random variable" target="_top">
<polyline fill="none" stroke="black" points="365,-180 195,-180 "/>
<path fill="none" stroke="black" d="M195,-180C189,-180 183,-174 183,-168"/>
<polyline fill="none" stroke="black" points="183,-168 183,-156 "/>
<path fill="none" stroke="black" d="M183,-156C183,-150 189,-144 195,-144"/>
<polyline fill="none" stroke="black" points="195,-144 365,-144 "/>
<path fill="none" stroke="black" d="M365,-144C371,-144 377,-150 377,-156"/>
<polyline fill="none" stroke="black" points="377,-156 377,-168 "/>
<path fill="none" stroke="black" d="M377,-168C377,-174 371,-180 365,-180"/>
<text text-anchor="start" x="191" y="-159.233" font-family="Times Roman,serif" font-size="14.00">Bernoulli random variable</text>
</a>
</g>
<!-- BERNOULI_RANDOM_VARIABLE&#45;&gt;GEOMETRIC_RANDOM_VARIABLE -->
<g id="edge4" class="edge"><title>BERNOULI_RANDOM_VARIABLE&#45;&gt;GEOMETRIC_RANDOM_VARIABLE</title>
<path fill="none" stroke="black" d="M278.451,-143.703C276.345,-124.999 271.55,-95.4467 261,-72 256.62,-62.2648 250.261,-52.5903 243.897,-44.1767"/>
<polygon fill="black" stroke="black" points="246.556,-41.8963 237.605,-36.2278 241.067,-46.2409 246.556,-41.8963"/>
</g>
<!-- CONDITIONAL_EXPECTATION&#45;&gt;GEOMETRIC_RANDOM_VARIABLE -->
<g id="edge6" class="edge"><title>CONDITIONAL_EXPECTATION&#45;&gt;GEOMETRIC_RANDOM_VARIABLE</title>
<path fill="none" stroke="black" d="M176.888,-71.8314C183.753,-63.454 192.03,-53.3531 199.551,-44.1749"/>
<polygon fill="black" stroke="black" points="202.28,-46.3665 205.911,-36.4133 196.866,-41.9297 202.28,-46.3665"/>
</g>
<!-- GEOMETRIC_SERIES -->
<g id="node9" class="node"><title>GEOMETRIC_SERIES</title>
<a xlink:href="GEOMETRIC_SERIES.html" xlink:title="Geometric series" target="_top">
<polyline fill="none" stroke="black" points="428,-108 320,-108 "/>
<path fill="none" stroke="black" d="M320,-108C314,-108 308,-102 308,-96"/>
<polyline fill="none" stroke="black" points="308,-96 308,-84 "/>
<path fill="none" stroke="black" d="M308,-84C308,-78 314,-72 320,-72"/>
<polyline fill="none" stroke="black" points="320,-72 428,-72 "/>
<path fill="none" stroke="black" d="M428,-72C434,-72 440,-78 440,-84"/>
<polyline fill="none" stroke="black" points="440,-84 440,-96 "/>
<path fill="none" stroke="black" d="M440,-96C440,-102 434,-108 428,-108"/>
<text text-anchor="start" x="316" y="-87.2333" font-family="Times Roman,serif" font-size="14.00">Geometric series</text>
</a>
</g>
<!-- GEOMETRIC_SERIES&#45;&gt;GEOMETRIC_RANDOM_VARIABLE -->
<g id="edge10" class="edge"><title>GEOMETRIC_SERIES&#45;&gt;GEOMETRIC_RANDOM_VARIABLE</title>
<path fill="none" stroke="black" d="M335.392,-71.8314C315.111,-62.2874 290.076,-50.5065 268.603,-40.4013"/>
<polygon fill="black" stroke="black" points="269.869,-37.1291 259.331,-36.038 266.889,-43.4629 269.869,-37.1291"/>
</g>
</g>
</svg>
