<?xml version="1.0" encoding="UTF-8" standalone="no"?>
<!DOCTYPE svg PUBLIC "-//W3C//DTD SVG 1.1//EN"
 "http://www.w3.org/Graphics/SVG/1.1/DTD/svg11.dtd">
<!-- Generated by graphviz version 2.36.0 (20140111.2315)
 -->
<!-- Title: %3 Pages: 1 -->
<svg width="414pt" height="188pt"
 viewBox="0.00 0.00 414.00 188.00" xmlns="http://www.w3.org/2000/svg" xmlns:xlink="http://www.w3.org/1999/xlink">
<g id="graph0" class="graph" transform="scale(1 1) rotate(0) translate(4 184)">
<title>%3</title>
<!-- GEOMETRIC_RANDOM_VARIABLE -->
<g id="node1" class="node"><title>GEOMETRIC_RANDOM_VARIABLE</title>
<g id="a_node1"><a xlink:href="GEOMETRIC_RANDOM_VARIABLE.html" xlink:title=" The geometric random variable " target="_top">
<path fill="none" stroke="blue" stroke-width="2" d="M304.25,-36C304.25,-36 131.75,-36 131.75,-36 125.75,-36 119.75,-30 119.75,-24 119.75,-24 119.75,-12 119.75,-12 119.75,-6 125.75,-0 131.75,-0 131.75,-0 304.25,-0 304.25,-0 310.25,-0 316.25,-6 316.25,-12 316.25,-12 316.25,-24 316.25,-24 316.25,-30 310.25,-36 304.25,-36"/>
<text text-anchor="start" x="127.5" y="-14.3" font-family="Times,serif" font-size="14.00"> The geometric random variable </text>
</a>
</g>
</g>
<!-- BERNOULI_RANDOM_VARIABLE -->
<g id="node2" class="node"><title>BERNOULI_RANDOM_VARIABLE</title>
<g id="a_node2"><a xlink:href="BERNOULI_RANDOM_VARIABLE.html" xlink:title=" Bernoulli random variable " target="_top">
<path fill="none" stroke="black" d="M155.5,-180C155.5,-180 12.5,-180 12.5,-180 6.5,-180 0.5,-174 0.5,-168 0.5,-168 0.5,-156 0.5,-156 0.5,-150 6.5,-144 12.5,-144 12.5,-144 155.5,-144 155.5,-144 161.5,-144 167.5,-150 167.5,-156 167.5,-156 167.5,-168 167.5,-168 167.5,-174 161.5,-180 155.5,-180"/>
<text text-anchor="start" x="8" y="-158.3" font-family="Times,serif" font-size="14.00"> Bernoulli random variable </text>
</a>
</g>
</g>
<!-- BERNOULI_RANDOM_VARIABLE&#45;&gt;GEOMETRIC_RANDOM_VARIABLE -->
<g id="edge1" class="edge"><title>BERNOULI_RANDOM_VARIABLE&#45;&gt;GEOMETRIC_RANDOM_VARIABLE</title>
<path fill="none" stroke="black" d="M83.0796,-143.685C82.9602,-124.212 85.6334,-92.6206 102,-72 112.874,-58.3 128.082,-48.0083 143.915,-40.3261"/>
<polygon fill="black" stroke="black" points="145.607,-43.4026 153.281,-36.0984 142.727,-37.0225 145.607,-43.4026"/>
</g>
<!-- RANDOM_VARIABLES -->
<g id="node4" class="node"><title>RANDOM_VARIABLES</title>
<g id="a_node4"><a xlink:href="RANDOM_VARIABLES.html" xlink:title=" Random variables " target="_top">
<path fill="none" stroke="black" d="M222.25,-108C222.25,-108 123.75,-108 123.75,-108 117.75,-108 111.75,-102 111.75,-96 111.75,-96 111.75,-84 111.75,-84 111.75,-78 117.75,-72 123.75,-72 123.75,-72 222.25,-72 222.25,-72 228.25,-72 234.25,-78 234.25,-84 234.25,-84 234.25,-96 234.25,-96 234.25,-102 228.25,-108 222.25,-108"/>
<text text-anchor="start" x="119.5" y="-86.3" font-family="Times,serif" font-size="14.00"> Random variables </text>
</a>
</g>
</g>
<!-- BERNOULI_RANDOM_VARIABLE&#45;&gt;RANDOM_VARIABLES -->
<!-- CONDITIONAL_EXPECTATION -->
<g id="node3" class="node"><title>CONDITIONAL_EXPECTATION</title>
<g id="a_node3"><a xlink:href="CONDITIONAL_EXPECTATION.html" xlink:title=" Conditional expectation " target="_top">
<path fill="none" stroke="black" d="M328,-180C328,-180 198,-180 198,-180 192,-180 186,-174 186,-168 186,-168 186,-156 186,-156 186,-150 192,-144 198,-144 198,-144 328,-144 328,-144 334,-144 340,-150 340,-156 340,-156 340,-168 340,-168 340,-174 334,-180 328,-180"/>
<text text-anchor="start" x="194" y="-158.3" font-family="Times,serif" font-size="14.00"> Conditional expectation </text>
</a>
</g>
</g>
<!-- CONDITIONAL_EXPECTATION&#45;&gt;GEOMETRIC_RANDOM_VARIABLE -->
<g id="edge2" class="edge"><title>CONDITIONAL_EXPECTATION&#45;&gt;GEOMETRIC_RANDOM_VARIABLE</title>
<path fill="none" stroke="black" d="M260.32,-143.963C257.202,-125.819 251.387,-96.4135 243,-72 239.959,-63.148 235.875,-53.8134 231.89,-45.4863"/>
<polygon fill="black" stroke="black" points="234.899,-43.6738 227.327,-36.2631 228.625,-46.7782 234.899,-43.6738"/>
</g>
<!-- RANDOM_VARIABLES&#45;&gt;GEOMETRIC_RANDOM_VARIABLE -->
<g id="edge3" class="edge"><title>RANDOM_VARIABLES&#45;&gt;GEOMETRIC_RANDOM_VARIABLE</title>
<path fill="none" stroke="black" d="M184.124,-71.6966C189.355,-63.5589 195.7,-53.689 201.478,-44.7013"/>
<polygon fill="black" stroke="black" points="204.541,-46.4088 207.004,-36.1043 198.653,-42.6235 204.541,-46.4088"/>
</g>
<!-- GEOMETRIC_SERIES -->
<g id="node5" class="node"><title>GEOMETRIC_SERIES</title>
<g id="a_node5"><a xlink:href="GEOMETRIC_SERIES.html" xlink:title=" Geometric series " target="_top">
<path fill="none" stroke="black" d="M394.5,-108C394.5,-108 303.5,-108 303.5,-108 297.5,-108 291.5,-102 291.5,-96 291.5,-96 291.5,-84 291.5,-84 291.5,-78 297.5,-72 303.5,-72 303.5,-72 394.5,-72 394.5,-72 400.5,-72 406.5,-78 406.5,-84 406.5,-84 406.5,-96 406.5,-96 406.5,-102 400.5,-108 394.5,-108"/>
<text text-anchor="start" x="299" y="-86.3" font-family="Times,serif" font-size="14.00"> Geometric series </text>
</a>
</g>
</g>
<!-- GEOMETRIC_SERIES&#45;&gt;GEOMETRIC_RANDOM_VARIABLE -->
<g id="edge5" class="edge"><title>GEOMETRIC_SERIES&#45;&gt;GEOMETRIC_RANDOM_VARIABLE</title>
<path fill="none" stroke="black" d="M316.954,-71.8761C299.508,-62.5541 277.735,-50.9194 259.057,-40.939"/>
<polygon fill="black" stroke="black" points="260.639,-37.8157 250.169,-36.1898 257.34,-43.9896 260.639,-37.8157"/>
</g>
</g>
</svg>
