<?xml version="1.0" encoding="UTF-8" standalone="no"?>
<!DOCTYPE svg PUBLIC "-//W3C//DTD SVG 1.1//EN"
 "http://www.w3.org/Graphics/SVG/1.1/DTD/svg11.dtd">
<!-- Generated by graphviz version 2.26.3 (20100126.1600)
 -->
<!-- Title: _anonymous_0 Pages: 1 -->
<svg width="422pt" height="188pt"
 viewBox="0.00 0.00 422.00 188.00" xmlns="http://www.w3.org/2000/svg" xmlns:xlink="http://www.w3.org/1999/xlink">
<g id="graph1" class="graph" transform="scale(1 1) rotate(0) translate(4 184)">
<title>_anonymous_0</title>
<!-- GEOMETRIC_SERIES -->
<g id="node1" class="node"><title>GEOMETRIC_SERIES</title>
<a xlink:href="GEOMETRIC_SERIES.html" xlink:title=" Geometric series " target="_top">
<polyline fill="none" stroke="blue" stroke-width="2" points="244,-108 126,-108 "/>
<path fill="none" stroke="blue" stroke-width="2" d="M126,-108C120,-108 114,-102 114,-96"/>
<polyline fill="none" stroke="blue" stroke-width="2" points="114,-96 114,-84 "/>
<path fill="none" stroke="blue" stroke-width="2" d="M114,-84C114,-78 120,-72 126,-72"/>
<polyline fill="none" stroke="blue" stroke-width="2" points="126,-72 244,-72 "/>
<path fill="none" stroke="blue" stroke-width="2" d="M244,-72C250,-72 256,-78 256,-84"/>
<polyline fill="none" stroke="blue" stroke-width="2" points="256,-84 256,-96 "/>
<path fill="none" stroke="blue" stroke-width="2" d="M256,-96C256,-102 250,-108 244,-108"/>
<text text-anchor="start" x="122.5" y="-87.2333" font-family="Times Roman,serif" font-size="14.00"> Geometric series </text>
</a>
</g>
<!-- MM1_QUEUE -->
<g id="node2" class="node"><title>MM1_QUEUE</title>
<a xlink:href="MM1_QUEUE.html" xlink:title=" The M/M/1 Queue &#160;" target="_top">
<polyline fill="none" stroke="black" points="142,-36 12,-36 "/>
<path fill="none" stroke="black" d="M12,-36C6,-36 7.10543e-14,-30 5.68434e-14,-24"/>
<polyline fill="none" stroke="black" points="5.68434e-14,-24 2.84217e-14,-12 "/>
<path fill="none" stroke="black" d="M2.84217e-14,-12C1.42109e-14,-6 6,-1.72099e-14 12,-1.66562e-14"/>
<polyline fill="none" stroke="black" points="12,-1.66562e-14 142,-4.66005e-15 "/>
<path fill="none" stroke="black" d="M142,-4.66005e-15C148,-4.10638e-15 154,-6 154,-12"/>
<polyline fill="none" stroke="black" points="154,-12 154,-24 "/>
<path fill="none" stroke="black" d="M154,-24C154,-30 148,-36 142,-36"/>
<text text-anchor="start" x="8.5" y="-15.2333" font-family="Times Roman,serif" font-size="14.00"> The M/M/1 Queue &#160;</text>
</a>
</g>
<!-- GEOMETRIC_SERIES&#45;&gt;MM1_QUEUE -->
<g id="edge2" class="edge"><title>GEOMETRIC_SERIES&#45;&gt;MM1_QUEUE</title>
<path fill="none" stroke="black" d="M157.747,-71.8314C144.061,-62.7074 127.309,-51.539 112.617,-41.7449"/>
<polygon fill="black" stroke="black" points="114.506,-38.7977 104.244,-36.1628 110.623,-44.6221 114.506,-38.7977"/>
</g>
<!-- GEOMETRIC_RANDOM_VARIABLE -->
<g id="node4" class="node"><title>GEOMETRIC_RANDOM_VARIABLE</title>
<a xlink:href="GEOMETRIC_RANDOM_VARIABLE.html" xlink:title=" The geometric random variable " target="_top">
<polyline fill="none" stroke="black" points="402,-36 184,-36 "/>
<path fill="none" stroke="black" d="M184,-36C178,-36 172,-30 172,-24"/>
<polyline fill="none" stroke="black" points="172,-24 172,-12 "/>
<path fill="none" stroke="black" d="M172,-12C172,-6 178,-1.74112e-14 184,-1.70589e-14"/>
<polyline fill="none" stroke="black" points="184,-1.70589e-14 402,-4.25738e-15 "/>
<path fill="none" stroke="black" d="M402,-4.25738e-15C408,-3.90505e-15 414,-6 414,-12"/>
<polyline fill="none" stroke="black" points="414,-12 414,-24 "/>
<path fill="none" stroke="black" d="M414,-24C414,-30 408,-36 402,-36"/>
<text text-anchor="start" x="180.5" y="-15.2333" font-family="Times Roman,serif" font-size="14.00"> The geometric random variable </text>
</a>
</g>
<!-- GEOMETRIC_SERIES&#45;&gt;GEOMETRIC_RANDOM_VARIABLE -->
<g id="edge4" class="edge"><title>GEOMETRIC_SERIES&#45;&gt;GEOMETRIC_RANDOM_VARIABLE</title>
<path fill="none" stroke="black" d="M212.253,-71.8314C225.939,-62.7074 242.691,-51.539 257.383,-41.7449"/>
<polygon fill="black" stroke="black" points="259.377,-44.6221 265.756,-36.1628 255.494,-38.7977 259.377,-44.6221"/>
</g>
<!-- SUMMATIONS -->
<g id="node6" class="node"><title>SUMMATIONS</title>
<a xlink:href="SUMMATIONS.html" xlink:title=" Summation and product notation " target="_top">
<polyline fill="none" stroke="black" points="300,-180 70,-180 "/>
<path fill="none" stroke="black" d="M70,-180C64,-180 58,-174 58,-168"/>
<polyline fill="none" stroke="black" points="58,-168 58,-156 "/>
<path fill="none" stroke="black" d="M58,-156C58,-150 64,-144 70,-144"/>
<polyline fill="none" stroke="black" points="70,-144 300,-144 "/>
<path fill="none" stroke="black" d="M300,-144C306,-144 312,-150 312,-156"/>
<polyline fill="none" stroke="black" points="312,-156 312,-168 "/>
<path fill="none" stroke="black" d="M312,-168C312,-174 306,-180 300,-180"/>
<text text-anchor="start" x="66" y="-159.233" font-family="Times Roman,serif" font-size="14.00"> Summation and product notation </text>
</a>
</g>
<!-- SUMMATIONS&#45;&gt;GEOMETRIC_SERIES -->
<g id="edge6" class="edge"><title>SUMMATIONS&#45;&gt;GEOMETRIC_SERIES</title>
<path fill="none" stroke="black" d="M185,-143.831C185,-136.131 185,-126.974 185,-118.417"/>
<polygon fill="black" stroke="black" points="188.5,-118.413 185,-108.413 181.5,-118.413 188.5,-118.413"/>
</g>
</g>
</svg>
