<?xml version="1.0" encoding="UTF-8" standalone="no"?>
<!DOCTYPE svg PUBLIC "-//W3C//DTD SVG 1.1//EN"
 "http://www.w3.org/Graphics/SVG/1.1/DTD/svg11.dtd">
<!-- Generated by graphviz version 2.26.3 (20100126.1600)
 -->
<!-- Title: _anonymous_0 Pages: 1 -->
<svg width="202pt" height="116pt"
 viewBox="0.00 0.00 202.00 116.00" xmlns="http://www.w3.org/2000/svg" xmlns:xlink="http://www.w3.org/1999/xlink">
<g id="graph1" class="graph" transform="scale(1 1) rotate(0) translate(4 112)">
<title>_anonymous_0</title>
<!-- GIBBS_PHASE_RULE -->
<g id="node1" class="node"><title>GIBBS_PHASE_RULE</title>
<a xlink:href="GIBBS_PHASE_RULE.html" xlink:title="Gibbs Phase rule" target="_top">
<polyline fill="none" stroke="blue" stroke-width="2" points="151,-36 43,-36 "/>
<path fill="none" stroke="blue" stroke-width="2" d="M43,-36C37,-36 31,-30 31,-24"/>
<polyline fill="none" stroke="blue" stroke-width="2" points="31,-24 31,-12 "/>
<path fill="none" stroke="blue" stroke-width="2" d="M31,-12C31,-6 37,-1.71176e-14 43,-1.64717e-14"/>
<polyline fill="none" stroke="blue" stroke-width="2" points="43,-1.64717e-14 151,-4.84461e-15 "/>
<path fill="none" stroke="blue" stroke-width="2" d="M151,-4.84461e-15C157,-4.19866e-15 163,-6 163,-12"/>
<polyline fill="none" stroke="blue" stroke-width="2" points="163,-12 163,-24 "/>
<path fill="none" stroke="blue" stroke-width="2" d="M163,-24C163,-30 157,-36 151,-36"/>
<text text-anchor="start" x="39" y="-15.2333" font-family="Times Roman,serif" font-size="14.00">Gibbs Phase rule</text>
</a>
</g>
<!-- THERMODYNAMIC_VARIABLES -->
<g id="node2" class="node"><title>THERMODYNAMIC_VARIABLES</title>
<a xlink:href="THERMODYNAMIC_VARIABLES.html" xlink:title="Thermodynamic variables" target="_top">
<polyline fill="none" stroke="black" points="182,-108 12,-108 "/>
<path fill="none" stroke="black" d="M12,-108C6,-108 4.73695e-14,-102 3.78956e-14,-96"/>
<polyline fill="none" stroke="black" points="3.78956e-14,-96 1.89478e-14,-84 "/>
<path fill="none" stroke="black" d="M1.89478e-14,-84C9.4739e-15,-78 6,-72 12,-72"/>
<polyline fill="none" stroke="black" points="12,-72 182,-72 "/>
<path fill="none" stroke="black" d="M182,-72C188,-72 194,-78 194,-84"/>
<polyline fill="none" stroke="black" points="194,-84 194,-96 "/>
<path fill="none" stroke="black" d="M194,-96C194,-102 188,-108 182,-108"/>
<text text-anchor="start" x="8.5" y="-87.2333" font-family="Times Roman,serif" font-size="14.00">Thermodynamic variables</text>
</a>
</g>
<!-- THERMODYNAMIC_VARIABLES&#45;&gt;GIBBS_PHASE_RULE -->
<g id="edge2" class="edge"><title>THERMODYNAMIC_VARIABLES&#45;&gt;GIBBS_PHASE_RULE</title>
<path fill="none" stroke="black" d="M97,-71.8314C97,-64.131 97,-54.9743 97,-46.4166"/>
<polygon fill="black" stroke="black" points="100.5,-46.4132 97,-36.4133 93.5001,-46.4133 100.5,-46.4132"/>
</g>
</g>
</svg>
