<?xml version="1.0" encoding="UTF-8" standalone="no"?>
<!DOCTYPE svg PUBLIC "-//W3C//DTD SVG 1.1//EN"
 "http://www.w3.org/Graphics/SVG/1.1/DTD/svg11.dtd">
<!-- Generated by graphviz version 2.26.3 (20100126.1600)
 -->
<!-- Title: _anonymous_0 Pages: 1 -->
<svg width="208pt" height="116pt"
 viewBox="0.00 0.00 208.00 116.00" xmlns="http://www.w3.org/2000/svg" xmlns:xlink="http://www.w3.org/1999/xlink">
<g id="graph1" class="graph" transform="scale(1 1) rotate(0) translate(4 112)">
<title>_anonymous_0</title>
<!-- GIBBS_PHASE_RULE -->
<g id="node1" class="node"><title>GIBBS_PHASE_RULE</title>
<a xlink:href="GIBBS_PHASE_RULE.html" xlink:title="Gibbs Phase rule" target="_top">
<polyline fill="none" stroke="blue" stroke-width="2" points="154,-36 46,-36 "/>
<path fill="none" stroke="blue" stroke-width="2" d="M46,-36C40,-36 34,-30 34,-24"/>
<polyline fill="none" stroke="blue" stroke-width="2" points="34,-24 34,-12 "/>
<path fill="none" stroke="blue" stroke-width="2" d="M34,-12C34,-6 40,-1.71176e-14 46,-1.64717e-14"/>
<polyline fill="none" stroke="blue" stroke-width="2" points="46,-1.64717e-14 154,-4.84461e-15 "/>
<path fill="none" stroke="blue" stroke-width="2" d="M154,-4.84461e-15C160,-4.19866e-15 166,-6 166,-12"/>
<polyline fill="none" stroke="blue" stroke-width="2" points="166,-12 166,-24 "/>
<path fill="none" stroke="blue" stroke-width="2" d="M166,-24C166,-30 160,-36 154,-36"/>
<text text-anchor="start" x="42" y="-15.2333" font-family="Times Roman,serif" font-size="14.00">Gibbs Phase rule</text>
</a>
</g>
<!-- THERMODYNAMIC_POTENTIALS -->
<g id="node2" class="node"><title>THERMODYNAMIC_POTENTIALS</title>
<a xlink:href="THERMODYNAMIC_POTENTIALS.html" xlink:title="Thermodynamic Potentials" target="_top">
<polyline fill="none" stroke="black" points="188,-108 12,-108 "/>
<path fill="none" stroke="black" d="M12,-108C6,-108 7.10543e-14,-102 5.68434e-14,-96"/>
<polyline fill="none" stroke="black" points="5.68434e-14,-96 2.84217e-14,-84 "/>
<path fill="none" stroke="black" d="M2.84217e-14,-84C1.42109e-14,-78 6,-72 12,-72"/>
<polyline fill="none" stroke="black" points="12,-72 188,-72 "/>
<path fill="none" stroke="black" d="M188,-72C194,-72 200,-78 200,-84"/>
<polyline fill="none" stroke="black" points="200,-84 200,-96 "/>
<path fill="none" stroke="black" d="M200,-96C200,-102 194,-108 188,-108"/>
<text text-anchor="start" x="8" y="-87.2333" font-family="Times Roman,serif" font-size="14.00">Thermodynamic Potentials</text>
</a>
</g>
<!-- THERMODYNAMIC_POTENTIALS&#45;&gt;GIBBS_PHASE_RULE -->
<g id="edge2" class="edge"><title>THERMODYNAMIC_POTENTIALS&#45;&gt;GIBBS_PHASE_RULE</title>
<path fill="none" stroke="black" d="M100,-71.8314C100,-64.131 100,-54.9743 100,-46.4166"/>
<polygon fill="black" stroke="black" points="103.5,-46.4132 100,-36.4133 96.5001,-46.4133 103.5,-46.4132"/>
</g>
</g>
</svg>
