<?xml version="1.0" encoding="UTF-8" standalone="no"?>
<!DOCTYPE svg PUBLIC "-//W3C//DTD SVG 1.1//EN"
 "http://www.w3.org/Graphics/SVG/1.1/DTD/svg11.dtd">
<!-- Generated by graphviz version 2.26.3 (20100126.1600)
 -->
<!-- Title: _anonymous_0 Pages: 1 -->
<svg width="210pt" height="116pt"
 viewBox="0.00 0.00 210.00 116.00" xmlns="http://www.w3.org/2000/svg" xmlns:xlink="http://www.w3.org/1999/xlink">
<g id="graph1" class="graph" transform="scale(1 1) rotate(0) translate(4 112)">
<title>_anonymous_0</title>
<!-- GIBBS_PHASE_RULE -->
<g id="node1" class="node"><title>GIBBS_PHASE_RULE</title>
<a xlink:href="GIBBS_PHASE_RULE.html" xlink:title=" Gibbs Phase rule " target="_top">
<polyline fill="none" stroke="blue" stroke-width="2" points="160,-36 42,-36 "/>
<path fill="none" stroke="blue" stroke-width="2" d="M42,-36C36,-36 30,-30 30,-24"/>
<polyline fill="none" stroke="blue" stroke-width="2" points="30,-24 30,-12 "/>
<path fill="none" stroke="blue" stroke-width="2" d="M30,-12C30,-6 36,-1.71631e-14 42,-1.65627e-14"/>
<polyline fill="none" stroke="blue" stroke-width="2" points="42,-1.65627e-14 160,-4.75363e-15 "/>
<path fill="none" stroke="blue" stroke-width="2" d="M160,-4.75363e-15C166,-4.15317e-15 172,-6 172,-12"/>
<polyline fill="none" stroke="blue" stroke-width="2" points="172,-12 172,-24 "/>
<path fill="none" stroke="blue" stroke-width="2" d="M172,-24C172,-30 166,-36 160,-36"/>
<text text-anchor="start" x="38.5" y="-15.2333" font-family="Times Roman,serif" font-size="14.00"> Gibbs Phase rule </text>
</a>
</g>
<!-- THERMODYNAMIC_VARIABLES -->
<g id="node2" class="node"><title>THERMODYNAMIC_VARIABLES</title>
<a xlink:href="THERMODYNAMIC_VARIABLES.html" xlink:title=" Thermodynamic variables " target="_top">
<polyline fill="none" stroke="black" points="190,-108 12,-108 "/>
<path fill="none" stroke="black" d="M12,-108C6,-108 5.92119e-14,-102 4.73695e-14,-96"/>
<polyline fill="none" stroke="black" points="4.73695e-14,-96 2.36848e-14,-84 "/>
<path fill="none" stroke="black" d="M2.36848e-14,-84C1.18424e-14,-78 6,-72 12,-72"/>
<polyline fill="none" stroke="black" points="12,-72 190,-72 "/>
<path fill="none" stroke="black" d="M190,-72C196,-72 202,-78 202,-84"/>
<polyline fill="none" stroke="black" points="202,-84 202,-96 "/>
<path fill="none" stroke="black" d="M202,-96C202,-102 196,-108 190,-108"/>
<text text-anchor="start" x="8" y="-87.2333" font-family="Times Roman,serif" font-size="14.00"> Thermodynamic variables </text>
</a>
</g>
<!-- THERMODYNAMIC_VARIABLES&#45;&gt;GIBBS_PHASE_RULE -->
<g id="edge2" class="edge"><title>THERMODYNAMIC_VARIABLES&#45;&gt;GIBBS_PHASE_RULE</title>
<path fill="none" stroke="black" d="M101,-71.8314C101,-64.131 101,-54.9743 101,-46.4166"/>
<polygon fill="black" stroke="black" points="104.5,-46.4132 101,-36.4133 97.5001,-46.4133 104.5,-46.4132"/>
</g>
</g>
</svg>
