<?xml version="1.0" encoding="UTF-8" standalone="no"?>
<!DOCTYPE svg PUBLIC "-//W3C//DTD SVG 1.1//EN"
 "http://www.w3.org/Graphics/SVG/1.1/DTD/svg11.dtd">
<!-- Generated by graphviz version 2.36.0 (20140111.2315)
 -->
<!-- Title: %3 Pages: 1 -->
<svg width="174pt" height="116pt"
 viewBox="0.00 0.00 174.00 116.00" xmlns="http://www.w3.org/2000/svg" xmlns:xlink="http://www.w3.org/1999/xlink">
<g id="graph0" class="graph" transform="scale(1 1) rotate(0) translate(4 112)">
<title>%3</title>
<!-- GIBBS_PHASE_RULE -->
<g id="node1" class="node"><title>GIBBS_PHASE_RULE</title>
<g id="a_node1"><a xlink:href="GIBBS_PHASE_RULE.html" xlink:title=" Gibbs Phase rule " target="_top">
<path fill="none" stroke="blue" stroke-width="2" d="M128.5,-36C128.5,-36 37.5,-36 37.5,-36 31.5,-36 25.5,-30 25.5,-24 25.5,-24 25.5,-12 25.5,-12 25.5,-6 31.5,-0 37.5,-0 37.5,-0 128.5,-0 128.5,-0 134.5,-0 140.5,-6 140.5,-12 140.5,-12 140.5,-24 140.5,-24 140.5,-30 134.5,-36 128.5,-36"/>
<text text-anchor="start" x="33" y="-14.3" font-family="Times,serif" font-size="14.00"> Gibbs Phase rule </text>
</a>
</g>
</g>
<!-- THERMODYNAMIC_VARIABLES -->
<g id="node2" class="node"><title>THERMODYNAMIC_VARIABLES</title>
<g id="a_node2"><a xlink:href="THERMODYNAMIC_VARIABLES.html" xlink:title=" Thermodynamic variables " target="_top">
<path fill="none" stroke="black" d="M154.25,-108C154.25,-108 11.75,-108 11.75,-108 5.75,-108 -0.25,-102 -0.25,-96 -0.25,-96 -0.25,-84 -0.25,-84 -0.25,-78 5.75,-72 11.75,-72 11.75,-72 154.25,-72 154.25,-72 160.25,-72 166.25,-78 166.25,-84 166.25,-84 166.25,-96 166.25,-96 166.25,-102 160.25,-108 154.25,-108"/>
<text text-anchor="start" x="7.5" y="-86.3" font-family="Times,serif" font-size="14.00"> Thermodynamic variables </text>
</a>
</g>
</g>
<!-- THERMODYNAMIC_VARIABLES&#45;&gt;GIBBS_PHASE_RULE -->
<g id="edge1" class="edge"><title>THERMODYNAMIC_VARIABLES&#45;&gt;GIBBS_PHASE_RULE</title>
<path fill="none" stroke="black" d="M83,-71.6966C83,-63.9827 83,-54.7125 83,-46.1124"/>
<polygon fill="black" stroke="black" points="86.5001,-46.1043 83,-36.1043 79.5001,-46.1044 86.5001,-46.1043"/>
</g>
</g>
</svg>
