<?xml version="1.0" encoding="UTF-8" standalone="no"?>
<!DOCTYPE svg PUBLIC "-//W3C//DTD SVG 1.1//EN"
 "http://www.w3.org/Graphics/SVG/1.1/DTD/svg11.dtd">
<!-- Generated by graphviz version 2.26.3 (20100126.1600)
 -->
<!-- Title: _anonymous_0 Pages: 1 -->
<svg width="428pt" height="188pt"
 viewBox="0.00 0.00 428.00 188.00" xmlns="http://www.w3.org/2000/svg" xmlns:xlink="http://www.w3.org/1999/xlink">
<g id="graph1" class="graph" transform="scale(1 1) rotate(0) translate(4 184)">
<title>_anonymous_0</title>
<!-- GRAND_CANONICAL_ENSEMBLE -->
<g id="node1" class="node"><title>GRAND_CANONICAL_ENSEMBLE</title>
<a xlink:href="GRAND_CANONICAL_ENSEMBLE.html" xlink:title="The grand canonical ensemble" target="_top">
<polyline fill="none" stroke="blue" stroke-width="2" points="285,-108 83,-108 "/>
<path fill="none" stroke="blue" stroke-width="2" d="M83,-108C77,-108 71,-102 71,-96"/>
<polyline fill="none" stroke="blue" stroke-width="2" points="71,-96 71,-84 "/>
<path fill="none" stroke="blue" stroke-width="2" d="M71,-84C71,-78 77,-72 83,-72"/>
<polyline fill="none" stroke="blue" stroke-width="2" points="83,-72 285,-72 "/>
<path fill="none" stroke="blue" stroke-width="2" d="M285,-72C291,-72 297,-78 297,-84"/>
<polyline fill="none" stroke="blue" stroke-width="2" points="297,-84 297,-96 "/>
<path fill="none" stroke="blue" stroke-width="2" d="M297,-96C297,-102 291,-108 285,-108"/>
<text text-anchor="start" x="79.5" y="-87.2333" font-family="Times Roman,serif" font-size="14.00">The grand canonical ensemble</text>
</a>
</g>
<!-- ADSORPTION -->
<g id="node6" class="node"><title>ADSORPTION</title>
<a xlink:href="ADSORPTION.html" xlink:title="Statistical mechanics of adsorption" target="_top">
<polyline fill="none" stroke="black" points="300,-36 68,-36 "/>
<path fill="none" stroke="black" d="M68,-36C62,-36 56,-30 56,-24"/>
<polyline fill="none" stroke="black" points="56,-24 56,-12 "/>
<path fill="none" stroke="black" d="M56,-12C56,-6 62,-1.74305e-14 68,-1.70974e-14"/>
<polyline fill="none" stroke="black" points="68,-1.70974e-14 300,-4.21885e-15 "/>
<path fill="none" stroke="black" d="M300,-4.21885e-15C306,-3.88578e-15 312,-6 312,-12"/>
<polyline fill="none" stroke="black" points="312,-12 312,-24 "/>
<path fill="none" stroke="black" d="M312,-24C312,-30 306,-36 300,-36"/>
<text text-anchor="start" x="64.5" y="-15.2333" font-family="Times Roman,serif" font-size="14.00">Statistical mechanics of adsorption</text>
</a>
</g>
<!-- GRAND_CANONICAL_ENSEMBLE&#45;&gt;ADSORPTION -->
<g id="edge6" class="edge"><title>GRAND_CANONICAL_ENSEMBLE&#45;&gt;ADSORPTION</title>
<path fill="none" stroke="black" d="M184,-71.8314C184,-64.131 184,-54.9743 184,-46.4166"/>
<polygon fill="black" stroke="black" points="187.5,-46.4132 184,-36.4133 180.5,-46.4133 187.5,-46.4132"/>
</g>
<!-- RESPONSE_FUNCTIONS -->
<g id="node2" class="node"><title>RESPONSE_FUNCTIONS</title>
<a xlink:href="RESPONSE_FUNCTIONS.html" xlink:title="Response functions" target="_top">
<polyline fill="none" stroke="black" points="138,-180 12,-180 "/>
<path fill="none" stroke="black" d="M12,-180C6,-180 5.92119e-14,-174 4.73695e-14,-168"/>
<polyline fill="none" stroke="black" points="4.73695e-14,-168 2.36848e-14,-156 "/>
<path fill="none" stroke="black" d="M2.36848e-14,-156C1.18424e-14,-150 6,-144 12,-144"/>
<polyline fill="none" stroke="black" points="12,-144 138,-144 "/>
<path fill="none" stroke="black" d="M138,-144C144,-144 150,-150 150,-156"/>
<polyline fill="none" stroke="black" points="150,-156 150,-168 "/>
<path fill="none" stroke="black" d="M150,-168C150,-174 144,-180 138,-180"/>
<text text-anchor="start" x="8.5" y="-159.233" font-family="Times Roman,serif" font-size="14.00">Response functions</text>
</a>
</g>
<!-- RESPONSE_FUNCTIONS&#45;&gt;GRAND_CANONICAL_ENSEMBLE -->
<g id="edge2" class="edge"><title>RESPONSE_FUNCTIONS&#45;&gt;GRAND_CANONICAL_ENSEMBLE</title>
<path fill="none" stroke="black" d="M102.505,-143.831C116.318,-134.707 133.226,-123.539 148.053,-113.745"/>
<polygon fill="black" stroke="black" points="150.089,-116.595 156.503,-108.163 146.23,-110.754 150.089,-116.595"/>
</g>
<!-- GENERALIZED_PARTITION_FUNCTION -->
<g id="node4" class="node"><title>GENERALIZED_PARTITION_FUNCTION</title>
<a xlink:href="GENERALIZED_PARTITION_FUNCTION.html" xlink:title="The generalized partition function" target="_top">
<polyline fill="none" stroke="black" points="408,-180 180,-180 "/>
<path fill="none" stroke="black" d="M180,-180C174,-180 168,-174 168,-168"/>
<polyline fill="none" stroke="black" points="168,-168 168,-156 "/>
<path fill="none" stroke="black" d="M168,-156C168,-150 174,-144 180,-144"/>
<polyline fill="none" stroke="black" points="180,-144 408,-144 "/>
<path fill="none" stroke="black" d="M408,-144C414,-144 420,-150 420,-156"/>
<polyline fill="none" stroke="black" points="420,-156 420,-168 "/>
<path fill="none" stroke="black" d="M420,-168C420,-174 414,-180 408,-180"/>
<text text-anchor="start" x="176" y="-159.233" font-family="Times Roman,serif" font-size="14.00">The generalized partition function</text>
</a>
</g>
<!-- GENERALIZED_PARTITION_FUNCTION&#45;&gt;GRAND_CANONICAL_ENSEMBLE -->
<g id="edge4" class="edge"><title>GENERALIZED_PARTITION_FUNCTION&#45;&gt;GRAND_CANONICAL_ENSEMBLE</title>
<path fill="none" stroke="black" d="M266.242,-143.831C252.303,-134.707 235.24,-123.539 220.277,-113.745"/>
<polygon fill="black" stroke="black" points="222.033,-110.711 211.749,-108.163 218.199,-116.568 222.033,-110.711"/>
</g>
</g>
</svg>
