<?xml version="1.0" encoding="UTF-8" standalone="no"?>
<!DOCTYPE svg PUBLIC "-//W3C//DTD SVG 1.1//EN"
 "http://www.w3.org/Graphics/SVG/1.1/DTD/svg11.dtd">
<!-- Generated by graphviz version 2.36.0 (20140111.2315)
 -->
<!-- Title: %3 Pages: 1 -->
<svg width="413pt" height="188pt"
 viewBox="0.00 0.00 413.00 188.00" xmlns="http://www.w3.org/2000/svg" xmlns:xlink="http://www.w3.org/1999/xlink">
<g id="graph0" class="graph" transform="scale(1 1) rotate(0) translate(4 184)">
<title>%3</title>
<!-- GRAND_CANONICAL_ENSEMBLE -->
<g id="node1" class="node"><title>GRAND_CANONICAL_ENSEMBLE</title>
<g id="a_node1"><a xlink:href="GRAND_CANONICAL_ENSEMBLE.html" xlink:title=" The grand canonical ensemble " target="_top">
<path fill="none" stroke="blue" stroke-width="2" d="M275.25,-108C275.25,-108 108.75,-108 108.75,-108 102.75,-108 96.75,-102 96.75,-96 96.75,-96 96.75,-84 96.75,-84 96.75,-78 102.75,-72 108.75,-72 108.75,-72 275.25,-72 275.25,-72 281.25,-72 287.25,-78 287.25,-84 287.25,-84 287.25,-96 287.25,-96 287.25,-102 281.25,-108 275.25,-108"/>
<text text-anchor="start" x="104.5" y="-86.3" font-family="Times,serif" font-size="14.00"> The grand canonical ensemble </text>
</a>
</g>
</g>
<!-- THERMODYNAMIC_POTENTIALS -->
<g id="node2" class="node"><title>THERMODYNAMIC_POTENTIALS</title>
<g id="a_node2"><a xlink:href="THERMODYNAMIC_POTENTIALS.html" xlink:title=" Thermodynamic Potentials " target="_top">
<path fill="none" stroke="black" d="M160,-36C160,-36 12,-36 12,-36 6,-36 0,-30 0,-24 0,-24 0,-12 0,-12 0,-6 6,-0 12,-0 12,-0 160,-0 160,-0 166,-0 172,-6 172,-12 172,-12 172,-24 172,-24 172,-30 166,-36 160,-36"/>
<text text-anchor="start" x="8" y="-14.3" font-family="Times,serif" font-size="14.00"> Thermodynamic Potentials </text>
</a>
</g>
</g>
<!-- GRAND_CANONICAL_ENSEMBLE&#45;&gt;THERMODYNAMIC_POTENTIALS -->
<g id="edge1" class="edge"><title>GRAND_CANONICAL_ENSEMBLE&#45;&gt;THERMODYNAMIC_POTENTIALS</title>
<path fill="none" stroke="black" d="M166.069,-71.8761C152.338,-62.8083 135.294,-51.5523 120.464,-41.7592"/>
<polygon fill="black" stroke="black" points="122.304,-38.7798 112.03,-36.1898 118.446,-44.621 122.304,-38.7798"/>
</g>
<!-- ADSORPTION -->
<g id="node4" class="node"><title>ADSORPTION</title>
<g id="a_node4"><a xlink:href="ADSORPTION.html" xlink:title=" Statistical mechanics of adsorption " target="_top">
<path fill="none" stroke="black" d="M393.25,-36C393.25,-36 202.75,-36 202.75,-36 196.75,-36 190.75,-30 190.75,-24 190.75,-24 190.75,-12 190.75,-12 190.75,-6 196.75,-0 202.75,-0 202.75,-0 393.25,-0 393.25,-0 399.25,-0 405.25,-6 405.25,-12 405.25,-12 405.25,-24 405.25,-24 405.25,-30 399.25,-36 393.25,-36"/>
<text text-anchor="start" x="198.5" y="-14.3" font-family="Times,serif" font-size="14.00"> Statistical mechanics of adsorption </text>
</a>
</g>
</g>
<!-- GRAND_CANONICAL_ENSEMBLE&#45;&gt;ADSORPTION -->
<g id="edge3" class="edge"><title>GRAND_CANONICAL_ENSEMBLE&#45;&gt;ADSORPTION</title>
<path fill="none" stroke="black" d="M217.931,-71.8761C231.662,-62.8083 248.706,-51.5523 263.536,-41.7592"/>
<polygon fill="black" stroke="black" points="265.554,-44.621 271.97,-36.1898 261.696,-38.7798 265.554,-44.621"/>
</g>
<!-- RESPONSE_FUNCTIONS -->
<g id="node3" class="node"><title>RESPONSE_FUNCTIONS</title>
<g id="a_node3"><a xlink:href="RESPONSE_FUNCTIONS.html" xlink:title=" Response functions " target="_top">
<path fill="none" stroke="black" d="M151,-180C151,-180 45,-180 45,-180 39,-180 33,-174 33,-168 33,-168 33,-156 33,-156 33,-150 39,-144 45,-144 45,-144 151,-144 151,-144 157,-144 163,-150 163,-156 163,-156 163,-168 163,-168 163,-174 157,-180 151,-180"/>
<text text-anchor="start" x="41" y="-158.3" font-family="Times,serif" font-size="14.00"> Response functions </text>
</a>
</g>
</g>
<!-- RESPONSE_FUNCTIONS&#45;&gt;GRAND_CANONICAL_ENSEMBLE -->
<g id="edge2" class="edge"><title>RESPONSE_FUNCTIONS&#45;&gt;GRAND_CANONICAL_ENSEMBLE</title>
<path fill="none" stroke="black" d="M121.236,-143.697C133.188,-134.796 147.923,-123.823 160.847,-114.199"/>
<polygon fill="black" stroke="black" points="163.101,-116.884 169.031,-108.104 158.92,-111.27 163.101,-116.884"/>
</g>
<!-- GENERALIZED_PARTITION_FUNCTION -->
<g id="node5" class="node"><title>GENERALIZED_PARTITION_FUNCTION</title>
<g id="a_node5"><a xlink:href="GENERALIZED_PARTITION_FUNCTION.html" xlink:title=" The generalized partition function " target="_top">
<path fill="none" stroke="black" d="M378.25,-180C378.25,-180 193.75,-180 193.75,-180 187.75,-180 181.75,-174 181.75,-168 181.75,-168 181.75,-156 181.75,-156 181.75,-150 187.75,-144 193.75,-144 193.75,-144 378.25,-144 378.25,-144 384.25,-144 390.25,-150 390.25,-156 390.25,-156 390.25,-168 390.25,-168 390.25,-174 384.25,-180 378.25,-180"/>
<text text-anchor="start" x="189.5" y="-158.3" font-family="Times,serif" font-size="14.00"> The generalized partition function </text>
</a>
</g>
</g>
<!-- GENERALIZED_PARTITION_FUNCTION&#45;&gt;GRAND_CANONICAL_ENSEMBLE -->
<g id="edge4" class="edge"><title>GENERALIZED_PARTITION_FUNCTION&#45;&gt;GRAND_CANONICAL_ENSEMBLE</title>
<path fill="none" stroke="black" d="M262.764,-143.697C250.812,-134.796 236.077,-123.823 223.153,-114.199"/>
<polygon fill="black" stroke="black" points="225.08,-111.27 214.969,-108.104 220.899,-116.884 225.08,-111.27"/>
</g>
</g>
</svg>
