<?xml version="1.0" encoding="UTF-8" standalone="no"?>
<!DOCTYPE svg PUBLIC "-//W3C//DTD SVG 1.1//EN"
 "http://www.w3.org/Graphics/SVG/1.1/DTD/svg11.dtd">
<!-- Generated by graphviz version 2.26.3 (20100126.1600)
 -->
<!-- Title: _anonymous_0 Pages: 1 -->
<svg width="513pt" height="188pt"
 viewBox="0.00 0.00 513.00 188.00" xmlns="http://www.w3.org/2000/svg" xmlns:xlink="http://www.w3.org/1999/xlink">
<g id="graph1" class="graph" transform="scale(1 1) rotate(0) translate(4 184)">
<title>_anonymous_0</title>
<!-- GRAND_CANONICAL_ENSEMBLE -->
<g id="node1" class="node"><title>GRAND_CANONICAL_ENSEMBLE</title>
<a xlink:href="GRAND_CANONICAL_ENSEMBLE.html" xlink:title=" The grand canonical ensemble " target="_top">
<polyline fill="none" stroke="blue" stroke-width="2" points="350,-108 140,-108 "/>
<path fill="none" stroke="blue" stroke-width="2" d="M140,-108C134,-108 128,-102 128,-96"/>
<polyline fill="none" stroke="blue" stroke-width="2" points="128,-96 128,-84 "/>
<path fill="none" stroke="blue" stroke-width="2" d="M128,-84C128,-78 134,-72 140,-72"/>
<polyline fill="none" stroke="blue" stroke-width="2" points="140,-72 350,-72 "/>
<path fill="none" stroke="blue" stroke-width="2" d="M350,-72C356,-72 362,-78 362,-84"/>
<polyline fill="none" stroke="blue" stroke-width="2" points="362,-84 362,-96 "/>
<path fill="none" stroke="blue" stroke-width="2" d="M362,-96C362,-102 356,-108 350,-108"/>
<text text-anchor="start" x="136" y="-87.2333" font-family="Times Roman,serif" font-size="14.00"> The grand canonical ensemble </text>
</a>
</g>
<!-- THERMODYNAMIC_POTENTIALS -->
<g id="node2" class="node"><title>THERMODYNAMIC_POTENTIALS</title>
<a xlink:href="THERMODYNAMIC_POTENTIALS.html" xlink:title=" Thermodynamic Potentials " target="_top">
<polyline fill="none" stroke="black" points="211,-36 25,-36 "/>
<path fill="none" stroke="black" d="M25,-36C19,-36 13,-30 13,-24"/>
<polyline fill="none" stroke="black" points="13,-24 13,-12 "/>
<path fill="none" stroke="black" d="M13,-12C13,-6 19,-1.73575e-14 25,-1.69515e-14"/>
<polyline fill="none" stroke="black" points="25,-1.69515e-14 211,-4.36476e-15 "/>
<path fill="none" stroke="black" d="M211,-4.36476e-15C217,-3.95874e-15 223,-6 223,-12"/>
<polyline fill="none" stroke="black" points="223,-12 223,-24 "/>
<path fill="none" stroke="black" d="M223,-24C223,-30 217,-36 211,-36"/>
<text text-anchor="start" x="21.5" y="-15.2333" font-family="Times Roman,serif" font-size="14.00"> Thermodynamic Potentials </text>
</a>
</g>
<!-- GRAND_CANONICAL_ENSEMBLE&#45;&gt;THERMODYNAMIC_POTENTIALS -->
<g id="edge2" class="edge"><title>GRAND_CANONICAL_ENSEMBLE&#45;&gt;THERMODYNAMIC_POTENTIALS</title>
<path fill="none" stroke="black" d="M212.953,-71.8314C196.558,-62.5368 176.421,-51.1208 158.917,-41.1971"/>
<polygon fill="black" stroke="black" points="160.463,-38.05 150.037,-36.1628 157.01,-44.1395 160.463,-38.05"/>
</g>
<!-- ADSORPTION -->
<g id="node8" class="node"><title>ADSORPTION</title>
<a xlink:href="ADSORPTION.html" xlink:title=" Statistical mechanics of adsorption " target="_top">
<polyline fill="none" stroke="black" points="493,-36 253,-36 "/>
<path fill="none" stroke="black" d="M253,-36C247,-36 241,-30 241,-24"/>
<polyline fill="none" stroke="black" points="241,-24 241,-12 "/>
<path fill="none" stroke="black" d="M241,-12C241,-6 247,-1.74406e-14 253,-1.71176e-14"/>
<polyline fill="none" stroke="black" points="253,-1.71176e-14 493,-4.19866e-15 "/>
<path fill="none" stroke="black" d="M493,-4.19866e-15C499,-3.87569e-15 505,-6 505,-12"/>
<polyline fill="none" stroke="black" points="505,-12 505,-24 "/>
<path fill="none" stroke="black" d="M505,-24C505,-30 499,-36 493,-36"/>
<text text-anchor="start" x="249" y="-15.2333" font-family="Times Roman,serif" font-size="14.00"> Statistical mechanics of adsorption </text>
</a>
</g>
<!-- GRAND_CANONICAL_ENSEMBLE&#45;&gt;ADSORPTION -->
<g id="edge8" class="edge"><title>GRAND_CANONICAL_ENSEMBLE&#45;&gt;ADSORPTION</title>
<path fill="none" stroke="black" d="M277.3,-71.8314C293.823,-62.5368 314.119,-51.1208 331.761,-41.1971"/>
<polygon fill="black" stroke="black" points="333.711,-44.116 340.711,-36.1628 330.279,-38.015 333.711,-44.116"/>
</g>
<!-- GENERALIZED_PARTITION_FUNCTION -->
<g id="node4" class="node"><title>GENERALIZED_PARTITION_FUNCTION</title>
<a xlink:href="GENERALIZED_PARTITION_FUNCTION.html" xlink:title=" The generalized partition function " target="_top">
<polyline fill="none" stroke="black" points="250,-180 12,-180 "/>
<path fill="none" stroke="black" d="M12,-180C6,-180 9.4739e-14,-174 7.57912e-14,-168"/>
<polyline fill="none" stroke="black" points="7.57912e-14,-168 3.78956e-14,-156 "/>
<path fill="none" stroke="black" d="M3.78956e-14,-156C1.89478e-14,-150 6,-144 12,-144"/>
<polyline fill="none" stroke="black" points="12,-144 250,-144 "/>
<path fill="none" stroke="black" d="M250,-144C256,-144 262,-150 262,-156"/>
<polyline fill="none" stroke="black" points="262,-156 262,-168 "/>
<path fill="none" stroke="black" d="M262,-168C262,-174 256,-180 250,-180"/>
<text text-anchor="start" x="8.5" y="-159.233" font-family="Times Roman,serif" font-size="14.00"> The generalized partition function </text>
</a>
</g>
<!-- GENERALIZED_PARTITION_FUNCTION&#45;&gt;GRAND_CANONICAL_ENSEMBLE -->
<g id="edge4" class="edge"><title>GENERALIZED_PARTITION_FUNCTION&#45;&gt;GRAND_CANONICAL_ENSEMBLE</title>
<path fill="none" stroke="black" d="M159.767,-143.831C174.213,-134.707 191.897,-123.539 207.404,-113.745"/>
<polygon fill="black" stroke="black" points="209.656,-116.462 216.242,-108.163 205.918,-110.544 209.656,-116.462"/>
</g>
<!-- RESPONSE_FUNCTIONS -->
<g id="node6" class="node"><title>RESPONSE_FUNCTIONS</title>
<a xlink:href="RESPONSE_FUNCTIONS.html" xlink:title=" Response functions " target="_top">
<polyline fill="none" stroke="black" points="426,-180 292,-180 "/>
<path fill="none" stroke="black" d="M292,-180C286,-180 280,-174 280,-168"/>
<polyline fill="none" stroke="black" points="280,-168 280,-156 "/>
<path fill="none" stroke="black" d="M280,-156C280,-150 286,-144 292,-144"/>
<polyline fill="none" stroke="black" points="292,-144 426,-144 "/>
<path fill="none" stroke="black" d="M426,-144C432,-144 438,-150 438,-156"/>
<polyline fill="none" stroke="black" points="438,-156 438,-168 "/>
<path fill="none" stroke="black" d="M438,-168C438,-174 432,-180 426,-180"/>
<text text-anchor="start" x="288" y="-159.233" font-family="Times Roman,serif" font-size="14.00"> Response functions </text>
</a>
</g>
<!-- RESPONSE_FUNCTIONS&#45;&gt;GRAND_CANONICAL_ENSEMBLE -->
<g id="edge6" class="edge"><title>RESPONSE_FUNCTIONS&#45;&gt;GRAND_CANONICAL_ENSEMBLE</title>
<path fill="none" stroke="black" d="M330.233,-143.831C315.787,-134.707 298.103,-123.539 282.596,-113.745"/>
<polygon fill="black" stroke="black" points="284.082,-110.544 273.758,-108.163 280.344,-116.462 284.082,-110.544"/>
</g>
</g>
</svg>
