<?xml version="1.0" encoding="UTF-8" standalone="no"?>
<!DOCTYPE svg PUBLIC "-//W3C//DTD SVG 1.1//EN"
 "http://www.w3.org/Graphics/SVG/1.1/DTD/svg11.dtd">
<!-- Generated by graphviz version 2.26.3 (20100126.1600)
 -->
<!-- Title: _anonymous_0 Pages: 1 -->
<svg width="428pt" height="188pt"
 viewBox="0.00 0.00 428.00 188.00" xmlns="http://www.w3.org/2000/svg" xmlns:xlink="http://www.w3.org/1999/xlink">
<g id="graph1" class="graph" transform="scale(1 1) rotate(0) translate(4 184)">
<title>_anonymous_0</title>
<!-- GRAND_CANONICAL_ENSEMBLE -->
<g id="node1" class="node"><title>GRAND_CANONICAL_ENSEMBLE</title>
<a xlink:href="GRAND_CANONICAL_ENSEMBLE.html" xlink:title="The grand canonical ensemble" target="_top">
<polyline fill="none" stroke="blue" stroke-width="2" points="336,-108 134,-108 "/>
<path fill="none" stroke="blue" stroke-width="2" d="M134,-108C128,-108 122,-102 122,-96"/>
<polyline fill="none" stroke="blue" stroke-width="2" points="122,-96 122,-84 "/>
<path fill="none" stroke="blue" stroke-width="2" d="M122,-84C122,-78 128,-72 134,-72"/>
<polyline fill="none" stroke="blue" stroke-width="2" points="134,-72 336,-72 "/>
<path fill="none" stroke="blue" stroke-width="2" d="M336,-72C342,-72 348,-78 348,-84"/>
<polyline fill="none" stroke="blue" stroke-width="2" points="348,-84 348,-96 "/>
<path fill="none" stroke="blue" stroke-width="2" d="M348,-96C348,-102 342,-108 336,-108"/>
<text text-anchor="start" x="130.5" y="-87.2333" font-family="Times Roman,serif" font-size="14.00">The grand canonical ensemble</text>
</a>
</g>
<!-- ADSORPTION -->
<g id="node2" class="node"><title>ADSORPTION</title>
<a xlink:href="ADSORPTION.html" xlink:title="Statistical mechanics of adsorption" target="_top">
<polyline fill="none" stroke="black" points="351,-36 119,-36 "/>
<path fill="none" stroke="black" d="M119,-36C113,-36 107,-30 107,-24"/>
<polyline fill="none" stroke="black" points="107,-24 107,-12 "/>
<path fill="none" stroke="black" d="M107,-12C107,-6 113,-1.74305e-14 119,-1.70974e-14"/>
<polyline fill="none" stroke="black" points="119,-1.70974e-14 351,-4.21885e-15 "/>
<path fill="none" stroke="black" d="M351,-4.21885e-15C357,-3.88578e-15 363,-6 363,-12"/>
<polyline fill="none" stroke="black" points="363,-12 363,-24 "/>
<path fill="none" stroke="black" d="M363,-24C363,-30 357,-36 351,-36"/>
<text text-anchor="start" x="115.5" y="-15.2333" font-family="Times Roman,serif" font-size="14.00">Statistical mechanics of adsorption</text>
</a>
</g>
<!-- GRAND_CANONICAL_ENSEMBLE&#45;&gt;ADSORPTION -->
<g id="edge2" class="edge"><title>GRAND_CANONICAL_ENSEMBLE&#45;&gt;ADSORPTION</title>
<path fill="none" stroke="black" d="M235,-71.8314C235,-64.131 235,-54.9743 235,-46.4166"/>
<polygon fill="black" stroke="black" points="238.5,-46.4132 235,-36.4133 231.5,-46.4133 238.5,-46.4132"/>
</g>
<!-- GENERALIZED_PARTITION_FUNCTION -->
<g id="node4" class="node"><title>GENERALIZED_PARTITION_FUNCTION</title>
<a xlink:href="GENERALIZED_PARTITION_FUNCTION.html" xlink:title="The generalized partition function" target="_top">
<polyline fill="none" stroke="black" points="240,-180 12,-180 "/>
<path fill="none" stroke="black" d="M12,-180C6,-180 8.28967e-14,-174 6.63173e-14,-168"/>
<polyline fill="none" stroke="black" points="6.63173e-14,-168 3.31587e-14,-156 "/>
<path fill="none" stroke="black" d="M3.31587e-14,-156C1.65793e-14,-150 6,-144 12,-144"/>
<polyline fill="none" stroke="black" points="12,-144 240,-144 "/>
<path fill="none" stroke="black" d="M240,-144C246,-144 252,-150 252,-156"/>
<polyline fill="none" stroke="black" points="252,-156 252,-168 "/>
<path fill="none" stroke="black" d="M252,-168C252,-174 246,-180 240,-180"/>
<text text-anchor="start" x="8" y="-159.233" font-family="Times Roman,serif" font-size="14.00">The generalized partition function</text>
</a>
</g>
<!-- GENERALIZED_PARTITION_FUNCTION&#45;&gt;GRAND_CANONICAL_ENSEMBLE -->
<g id="edge4" class="edge"><title>GENERALIZED_PARTITION_FUNCTION&#45;&gt;GRAND_CANONICAL_ENSEMBLE</title>
<path fill="none" stroke="black" d="M153.505,-143.831C167.318,-134.707 184.226,-123.539 199.053,-113.745"/>
<polygon fill="black" stroke="black" points="201.089,-116.595 207.503,-108.163 197.23,-110.754 201.089,-116.595"/>
</g>
<!-- RESPONSE_FUNCTIONS -->
<g id="node6" class="node"><title>RESPONSE_FUNCTIONS</title>
<a xlink:href="RESPONSE_FUNCTIONS.html" xlink:title="Response functions" target="_top">
<polyline fill="none" stroke="black" points="408,-180 282,-180 "/>
<path fill="none" stroke="black" d="M282,-180C276,-180 270,-174 270,-168"/>
<polyline fill="none" stroke="black" points="270,-168 270,-156 "/>
<path fill="none" stroke="black" d="M270,-156C270,-150 276,-144 282,-144"/>
<polyline fill="none" stroke="black" points="282,-144 408,-144 "/>
<path fill="none" stroke="black" d="M408,-144C414,-144 420,-150 420,-156"/>
<polyline fill="none" stroke="black" points="420,-156 420,-168 "/>
<path fill="none" stroke="black" d="M420,-168C420,-174 414,-180 408,-180"/>
<text text-anchor="start" x="278.5" y="-159.233" font-family="Times Roman,serif" font-size="14.00">Response functions</text>
</a>
</g>
<!-- RESPONSE_FUNCTIONS&#45;&gt;GRAND_CANONICAL_ENSEMBLE -->
<g id="edge6" class="edge"><title>RESPONSE_FUNCTIONS&#45;&gt;GRAND_CANONICAL_ENSEMBLE</title>
<path fill="none" stroke="black" d="M317.242,-143.831C303.303,-134.707 286.24,-123.539 271.277,-113.745"/>
<polygon fill="black" stroke="black" points="273.033,-110.711 262.749,-108.163 269.199,-116.568 273.033,-110.711"/>
</g>
</g>
</svg>
