<?xml version="1.0" encoding="UTF-8" standalone="no"?>
<!DOCTYPE svg PUBLIC "-//W3C//DTD SVG 1.1//EN"
 "http://www.w3.org/Graphics/SVG/1.1/DTD/svg11.dtd">
<!-- Generated by graphviz version 2.26.3 (20100126.1600)
 -->
<!-- Title: _anonymous_0 Pages: 1 -->
<svg width="264pt" height="188pt"
 viewBox="0.00 0.00 264.00 188.00" xmlns="http://www.w3.org/2000/svg" xmlns:xlink="http://www.w3.org/1999/xlink">
<g id="graph1" class="graph" transform="scale(1 1) rotate(0) translate(4 184)">
<title>_anonymous_0</title>
<!-- GRAND_CANONICAL_ENSEMBLE -->
<g id="node1" class="node"><title>GRAND_CANONICAL_ENSEMBLE</title>
<a xlink:href="GRAND_CANONICAL_ENSEMBLE.html" xlink:title="The grand canonical ensemble" target="_top">
<polyline fill="none" stroke="blue" stroke-width="2" points="229,-108 27,-108 "/>
<path fill="none" stroke="blue" stroke-width="2" d="M27,-108C21,-108 15,-102 15,-96"/>
<polyline fill="none" stroke="blue" stroke-width="2" points="15,-96 15,-84 "/>
<path fill="none" stroke="blue" stroke-width="2" d="M15,-84C15,-78 21,-72 27,-72"/>
<polyline fill="none" stroke="blue" stroke-width="2" points="27,-72 229,-72 "/>
<path fill="none" stroke="blue" stroke-width="2" d="M229,-72C235,-72 241,-78 241,-84"/>
<polyline fill="none" stroke="blue" stroke-width="2" points="241,-84 241,-96 "/>
<path fill="none" stroke="blue" stroke-width="2" d="M241,-96C241,-102 235,-108 229,-108"/>
<text text-anchor="start" x="23.5" y="-87.2333" font-family="Times Roman,serif" font-size="14.00">The grand canonical ensemble</text>
</a>
</g>
<!-- ADSORPTION -->
<g id="node4" class="node"><title>ADSORPTION</title>
<a xlink:href="ADSORPTION.html" xlink:title="Statistical mechanics of adsorption" target="_top">
<polyline fill="none" stroke="black" points="244,-36 12,-36 "/>
<path fill="none" stroke="black" d="M12,-36C6,-36 1.06581e-13,-30 8.52651e-14,-24"/>
<polyline fill="none" stroke="black" points="8.52651e-14,-24 4.26326e-14,-12 "/>
<path fill="none" stroke="black" d="M4.26326e-14,-12C2.13163e-14,-6 6,-1.74305e-14 12,-1.70974e-14"/>
<polyline fill="none" stroke="black" points="12,-1.70974e-14 244,-4.21885e-15 "/>
<path fill="none" stroke="black" d="M244,-4.21885e-15C250,-3.88578e-15 256,-6 256,-12"/>
<polyline fill="none" stroke="black" points="256,-12 256,-24 "/>
<path fill="none" stroke="black" d="M256,-24C256,-30 250,-36 244,-36"/>
<text text-anchor="start" x="8.5" y="-15.2333" font-family="Times Roman,serif" font-size="14.00">Statistical mechanics of adsorption</text>
</a>
</g>
<!-- GRAND_CANONICAL_ENSEMBLE&#45;&gt;ADSORPTION -->
<g id="edge4" class="edge"><title>GRAND_CANONICAL_ENSEMBLE&#45;&gt;ADSORPTION</title>
<path fill="none" stroke="black" d="M128,-71.8314C128,-64.131 128,-54.9743 128,-46.4166"/>
<polygon fill="black" stroke="black" points="131.5,-46.4132 128,-36.4133 124.5,-46.4133 131.5,-46.4132"/>
</g>
<!-- GENERALIZED_PARTITION_FUNCTION -->
<g id="node2" class="node"><title>GENERALIZED_PARTITION_FUNCTION</title>
<a xlink:href="GENERALIZED_PARTITION_FUNCTION.html" xlink:title="The generalized partition function" target="_top">
<polyline fill="none" stroke="black" points="242,-180 14,-180 "/>
<path fill="none" stroke="black" d="M14,-180C8,-180 2,-174 2,-168"/>
<polyline fill="none" stroke="black" points="2,-168 2,-156 "/>
<path fill="none" stroke="black" d="M2,-156C2,-150 8,-144 14,-144"/>
<polyline fill="none" stroke="black" points="14,-144 242,-144 "/>
<path fill="none" stroke="black" d="M242,-144C248,-144 254,-150 254,-156"/>
<polyline fill="none" stroke="black" points="254,-156 254,-168 "/>
<path fill="none" stroke="black" d="M254,-168C254,-174 248,-180 242,-180"/>
<text text-anchor="start" x="10" y="-159.233" font-family="Times Roman,serif" font-size="14.00">The generalized partition function</text>
</a>
</g>
<!-- GENERALIZED_PARTITION_FUNCTION&#45;&gt;GRAND_CANONICAL_ENSEMBLE -->
<g id="edge2" class="edge"><title>GENERALIZED_PARTITION_FUNCTION&#45;&gt;GRAND_CANONICAL_ENSEMBLE</title>
<path fill="none" stroke="black" d="M128,-143.831C128,-136.131 128,-126.974 128,-118.417"/>
<polygon fill="black" stroke="black" points="131.5,-118.413 128,-108.413 124.5,-118.413 131.5,-118.413"/>
</g>
</g>
</svg>
