<?xml version="1.0" encoding="UTF-8" standalone="no"?>
<!DOCTYPE svg PUBLIC "-//W3C//DTD SVG 1.1//EN"
 "http://www.w3.org/Graphics/SVG/1.1/DTD/svg11.dtd">
<!-- Generated by graphviz version 2.36.0 (20140111.2315)
 -->
<!-- Title: %3 Pages: 1 -->
<svg width="419pt" height="188pt"
 viewBox="0.00 0.00 419.00 188.00" xmlns="http://www.w3.org/2000/svg" xmlns:xlink="http://www.w3.org/1999/xlink">
<g id="graph0" class="graph" transform="scale(1 1) rotate(0) translate(4 184)">
<title>%3</title>
<!-- GRAND_CANONICAL_ENSEMBLE -->
<g id="node1" class="node"><title>GRAND_CANONICAL_ENSEMBLE</title>
<g id="a_node1"><a xlink:href="GRAND_CANONICAL_ENSEMBLE.html" xlink:title=" The grand canonical ensemble " target="_top">
<path fill="none" stroke="blue" stroke-width="2" d="M281.25,-108C281.25,-108 114.75,-108 114.75,-108 108.75,-108 102.75,-102 102.75,-96 102.75,-96 102.75,-84 102.75,-84 102.75,-78 108.75,-72 114.75,-72 114.75,-72 281.25,-72 281.25,-72 287.25,-72 293.25,-78 293.25,-84 293.25,-84 293.25,-96 293.25,-96 293.25,-102 287.25,-108 281.25,-108"/>
<text text-anchor="start" x="110.5" y="-86.3" font-family="Times,serif" font-size="14.00"> The grand canonical ensemble </text>
</a>
</g>
</g>
<!-- THERMODYNAMIC_POTENTIALS -->
<g id="node2" class="node"><title>THERMODYNAMIC_POTENTIALS</title>
<g id="a_node2"><a xlink:href="THERMODYNAMIC_POTENTIALS.html" xlink:title=" Thermodynamic Potentials " target="_top">
<path fill="none" stroke="black" d="M166,-36C166,-36 18,-36 18,-36 12,-36 6,-30 6,-24 6,-24 6,-12 6,-12 6,-6 12,-0 18,-0 18,-0 166,-0 166,-0 172,-0 178,-6 178,-12 178,-12 178,-24 178,-24 178,-30 172,-36 166,-36"/>
<text text-anchor="start" x="14" y="-14.3" font-family="Times,serif" font-size="14.00"> Thermodynamic Potentials </text>
</a>
</g>
</g>
<!-- GRAND_CANONICAL_ENSEMBLE&#45;&gt;THERMODYNAMIC_POTENTIALS -->
<g id="edge1" class="edge"><title>GRAND_CANONICAL_ENSEMBLE&#45;&gt;THERMODYNAMIC_POTENTIALS</title>
<path fill="none" stroke="black" d="M172.069,-71.8761C158.338,-62.8083 141.294,-51.5523 126.464,-41.7592"/>
<polygon fill="black" stroke="black" points="128.304,-38.7798 118.03,-36.1898 124.446,-44.621 128.304,-38.7798"/>
</g>
<!-- ADSORPTION -->
<g id="node5" class="node"><title>ADSORPTION</title>
<g id="a_node5"><a xlink:href="ADSORPTION.html" xlink:title=" Statistical mechanics of adsorption " target="_top">
<path fill="none" stroke="black" d="M399.25,-36C399.25,-36 208.75,-36 208.75,-36 202.75,-36 196.75,-30 196.75,-24 196.75,-24 196.75,-12 196.75,-12 196.75,-6 202.75,-0 208.75,-0 208.75,-0 399.25,-0 399.25,-0 405.25,-0 411.25,-6 411.25,-12 411.25,-12 411.25,-24 411.25,-24 411.25,-30 405.25,-36 399.25,-36"/>
<text text-anchor="start" x="204.5" y="-14.3" font-family="Times,serif" font-size="14.00"> Statistical mechanics of adsorption </text>
</a>
</g>
</g>
<!-- GRAND_CANONICAL_ENSEMBLE&#45;&gt;ADSORPTION -->
<g id="edge4" class="edge"><title>GRAND_CANONICAL_ENSEMBLE&#45;&gt;ADSORPTION</title>
<path fill="none" stroke="black" d="M223.931,-71.8761C237.662,-62.8083 254.706,-51.5523 269.536,-41.7592"/>
<polygon fill="black" stroke="black" points="271.554,-44.621 277.97,-36.1898 267.696,-38.7798 271.554,-44.621"/>
</g>
<!-- GENERALIZED_PARTITION_FUNCTION -->
<g id="node3" class="node"><title>GENERALIZED_PARTITION_FUNCTION</title>
<g id="a_node3"><a xlink:href="GENERALIZED_PARTITION_FUNCTION.html" xlink:title=" The generalized partition function " target="_top">
<path fill="none" stroke="black" d="M196.25,-180C196.25,-180 11.75,-180 11.75,-180 5.75,-180 -0.25,-174 -0.25,-168 -0.25,-168 -0.25,-156 -0.25,-156 -0.25,-150 5.75,-144 11.75,-144 11.75,-144 196.25,-144 196.25,-144 202.25,-144 208.25,-150 208.25,-156 208.25,-156 208.25,-168 208.25,-168 208.25,-174 202.25,-180 196.25,-180"/>
<text text-anchor="start" x="7.5" y="-158.3" font-family="Times,serif" font-size="14.00"> The generalized partition function </text>
</a>
</g>
</g>
<!-- GENERALIZED_PARTITION_FUNCTION&#45;&gt;GRAND_CANONICAL_ENSEMBLE -->
<g id="edge2" class="edge"><title>GENERALIZED_PARTITION_FUNCTION&#45;&gt;GRAND_CANONICAL_ENSEMBLE</title>
<path fill="none" stroke="black" d="M127.236,-143.697C139.188,-134.796 153.923,-123.823 166.847,-114.199"/>
<polygon fill="black" stroke="black" points="169.101,-116.884 175.031,-108.104 164.92,-111.27 169.101,-116.884"/>
</g>
<!-- RESPONSE_FUNCTIONS -->
<g id="node4" class="node"><title>RESPONSE_FUNCTIONS</title>
<g id="a_node4"><a xlink:href="RESPONSE_FUNCTIONS.html" xlink:title=" Response functions " target="_top">
<path fill="none" stroke="black" d="M345,-180C345,-180 239,-180 239,-180 233,-180 227,-174 227,-168 227,-168 227,-156 227,-156 227,-150 233,-144 239,-144 239,-144 345,-144 345,-144 351,-144 357,-150 357,-156 357,-156 357,-168 357,-168 357,-174 351,-180 345,-180"/>
<text text-anchor="start" x="235" y="-158.3" font-family="Times,serif" font-size="14.00"> Response functions </text>
</a>
</g>
</g>
<!-- RESPONSE_FUNCTIONS&#45;&gt;GRAND_CANONICAL_ENSEMBLE -->
<g id="edge3" class="edge"><title>RESPONSE_FUNCTIONS&#45;&gt;GRAND_CANONICAL_ENSEMBLE</title>
<path fill="none" stroke="black" d="M268.764,-143.697C256.812,-134.796 242.077,-123.823 229.153,-114.199"/>
<polygon fill="black" stroke="black" points="231.08,-111.27 220.969,-108.104 226.899,-116.884 231.08,-111.27"/>
</g>
</g>
</svg>
