<?xml version="1.0" encoding="UTF-8" standalone="no"?>
<!DOCTYPE svg PUBLIC "-//W3C//DTD SVG 1.1//EN"
 "http://www.w3.org/Graphics/SVG/1.1/DTD/svg11.dtd">
<!-- Generated by graphviz version 2.26.3 (20100126.1600)
 -->
<!-- Title: _anonymous_0 Pages: 1 -->
<svg width="482pt" height="188pt"
 viewBox="0.00 0.00 482.00 188.00" xmlns="http://www.w3.org/2000/svg" xmlns:xlink="http://www.w3.org/1999/xlink">
<g id="graph1" class="graph" transform="scale(1 1) rotate(0) translate(4 184)">
<title>_anonymous_0</title>
<!-- GRAND_CANONICAL_ENSEMBLE -->
<g id="node1" class="node"><title>GRAND_CANONICAL_ENSEMBLE</title>
<a xlink:href="GRAND_CANONICAL_ENSEMBLE.html" xlink:title="The grand canonical ensemble" target="_top">
<polyline fill="none" stroke="blue" stroke-width="2" points="352,-108 150,-108 "/>
<path fill="none" stroke="blue" stroke-width="2" d="M150,-108C144,-108 138,-102 138,-96"/>
<polyline fill="none" stroke="blue" stroke-width="2" points="138,-96 138,-84 "/>
<path fill="none" stroke="blue" stroke-width="2" d="M138,-84C138,-78 144,-72 150,-72"/>
<polyline fill="none" stroke="blue" stroke-width="2" points="150,-72 352,-72 "/>
<path fill="none" stroke="blue" stroke-width="2" d="M352,-72C358,-72 364,-78 364,-84"/>
<polyline fill="none" stroke="blue" stroke-width="2" points="364,-84 364,-96 "/>
<path fill="none" stroke="blue" stroke-width="2" d="M364,-96C364,-102 358,-108 352,-108"/>
<text text-anchor="start" x="146.5" y="-87.2333" font-family="Times Roman,serif" font-size="14.00">The grand canonical ensemble</text>
</a>
</g>
<!-- ADSORPTION -->
<g id="node2" class="node"><title>ADSORPTION</title>
<a xlink:href="ADSORPTION.html" xlink:title="Statistical mechanics of adsorption" target="_top">
<polyline fill="none" stroke="black" points="244,-36 12,-36 "/>
<path fill="none" stroke="black" d="M12,-36C6,-36 1.06581e-13,-30 8.52651e-14,-24"/>
<polyline fill="none" stroke="black" points="8.52651e-14,-24 4.26326e-14,-12 "/>
<path fill="none" stroke="black" d="M4.26326e-14,-12C2.13163e-14,-6 6,-1.74305e-14 12,-1.70974e-14"/>
<polyline fill="none" stroke="black" points="12,-1.70974e-14 244,-4.21885e-15 "/>
<path fill="none" stroke="black" d="M244,-4.21885e-15C250,-3.88578e-15 256,-6 256,-12"/>
<polyline fill="none" stroke="black" points="256,-12 256,-24 "/>
<path fill="none" stroke="black" d="M256,-24C256,-30 250,-36 244,-36"/>
<text text-anchor="start" x="8.5" y="-15.2333" font-family="Times Roman,serif" font-size="14.00">Statistical mechanics of adsorption</text>
</a>
</g>
<!-- GRAND_CANONICAL_ENSEMBLE&#45;&gt;ADSORPTION -->
<g id="edge2" class="edge"><title>GRAND_CANONICAL_ENSEMBLE&#45;&gt;ADSORPTION</title>
<path fill="none" stroke="black" d="M219.962,-71.8314C204.229,-62.6221 184.939,-51.3301 168.096,-41.4706"/>
<polygon fill="black" stroke="black" points="169.426,-38.1941 159.028,-36.1628 165.89,-44.2352 169.426,-38.1941"/>
</g>
<!-- THERMODYNAMIC_POTENTIALS -->
<g id="node4" class="node"><title>THERMODYNAMIC_POTENTIALS</title>
<a xlink:href="THERMODYNAMIC_POTENTIALS.html" xlink:title="Thermodynamic Potentials" target="_top">
<polyline fill="none" stroke="black" points="462,-36 286,-36 "/>
<path fill="none" stroke="black" d="M286,-36C280,-36 274,-30 274,-24"/>
<polyline fill="none" stroke="black" points="274,-24 274,-12 "/>
<path fill="none" stroke="black" d="M274,-12C274,-6 280,-1.73372e-14 286,-1.69109e-14"/>
<polyline fill="none" stroke="black" points="286,-1.69109e-14 462,-4.40536e-15 "/>
<path fill="none" stroke="black" d="M462,-4.40536e-15C468,-3.97904e-15 474,-6 474,-12"/>
<polyline fill="none" stroke="black" points="474,-12 474,-24 "/>
<path fill="none" stroke="black" d="M474,-24C474,-30 468,-36 462,-36"/>
<text text-anchor="start" x="282" y="-15.2333" font-family="Times Roman,serif" font-size="14.00">Thermodynamic Potentials</text>
</a>
</g>
<!-- GRAND_CANONICAL_ENSEMBLE&#45;&gt;THERMODYNAMIC_POTENTIALS -->
<g id="edge4" class="edge"><title>GRAND_CANONICAL_ENSEMBLE&#45;&gt;THERMODYNAMIC_POTENTIALS</title>
<path fill="none" stroke="black" d="M282.038,-71.8314C297.771,-62.6221 317.061,-51.3301 333.904,-41.4706"/>
<polygon fill="black" stroke="black" points="336.11,-44.2352 342.972,-36.1628 332.574,-38.1941 336.11,-44.2352"/>
</g>
<!-- GENERALIZED_PARTITION_FUNCTION -->
<g id="node6" class="node"><title>GENERALIZED_PARTITION_FUNCTION</title>
<a xlink:href="GENERALIZED_PARTITION_FUNCTION.html" xlink:title="The generalized partition function" target="_top">
<polyline fill="none" stroke="black" points="256,-180 28,-180 "/>
<path fill="none" stroke="black" d="M28,-180C22,-180 16,-174 16,-168"/>
<polyline fill="none" stroke="black" points="16,-168 16,-156 "/>
<path fill="none" stroke="black" d="M16,-156C16,-150 22,-144 28,-144"/>
<polyline fill="none" stroke="black" points="28,-144 256,-144 "/>
<path fill="none" stroke="black" d="M256,-144C262,-144 268,-150 268,-156"/>
<polyline fill="none" stroke="black" points="268,-156 268,-168 "/>
<path fill="none" stroke="black" d="M268,-168C268,-174 262,-180 256,-180"/>
<text text-anchor="start" x="24" y="-159.233" font-family="Times Roman,serif" font-size="14.00">The generalized partition function</text>
</a>
</g>
<!-- GENERALIZED_PARTITION_FUNCTION&#45;&gt;GRAND_CANONICAL_ENSEMBLE -->
<g id="edge6" class="edge"><title>GENERALIZED_PARTITION_FUNCTION&#45;&gt;GRAND_CANONICAL_ENSEMBLE</title>
<path fill="none" stroke="black" d="M169.505,-143.831C183.318,-134.707 200.226,-123.539 215.053,-113.745"/>
<polygon fill="black" stroke="black" points="217.089,-116.595 223.503,-108.163 213.23,-110.754 217.089,-116.595"/>
</g>
<!-- RESPONSE_FUNCTIONS -->
<g id="node8" class="node"><title>RESPONSE_FUNCTIONS</title>
<a xlink:href="RESPONSE_FUNCTIONS.html" xlink:title="Response functions" target="_top">
<polyline fill="none" stroke="black" points="424,-180 298,-180 "/>
<path fill="none" stroke="black" d="M298,-180C292,-180 286,-174 286,-168"/>
<polyline fill="none" stroke="black" points="286,-168 286,-156 "/>
<path fill="none" stroke="black" d="M286,-156C286,-150 292,-144 298,-144"/>
<polyline fill="none" stroke="black" points="298,-144 424,-144 "/>
<path fill="none" stroke="black" d="M424,-144C430,-144 436,-150 436,-156"/>
<polyline fill="none" stroke="black" points="436,-156 436,-168 "/>
<path fill="none" stroke="black" d="M436,-168C436,-174 430,-180 424,-180"/>
<text text-anchor="start" x="294.5" y="-159.233" font-family="Times Roman,serif" font-size="14.00">Response functions</text>
</a>
</g>
<!-- RESPONSE_FUNCTIONS&#45;&gt;GRAND_CANONICAL_ENSEMBLE -->
<g id="edge8" class="edge"><title>RESPONSE_FUNCTIONS&#45;&gt;GRAND_CANONICAL_ENSEMBLE</title>
<path fill="none" stroke="black" d="M333.242,-143.831C319.303,-134.707 302.24,-123.539 287.277,-113.745"/>
<polygon fill="black" stroke="black" points="289.033,-110.711 278.749,-108.163 285.199,-116.568 289.033,-110.711"/>
</g>
</g>
</svg>
