<?xml version="1.0" encoding="UTF-8" standalone="no"?>
<!DOCTYPE svg PUBLIC "-//W3C//DTD SVG 1.1//EN"
 "http://www.w3.org/Graphics/SVG/1.1/DTD/svg11.dtd">
<!-- Generated by graphviz version 2.26.3 (20100126.1600)
 -->
<!-- Title: _anonymous_0 Pages: 1 -->
<svg width="522pt" height="188pt"
 viewBox="0.00 0.00 522.00 188.00" xmlns="http://www.w3.org/2000/svg" xmlns:xlink="http://www.w3.org/1999/xlink">
<g id="graph1" class="graph" transform="scale(1 1) rotate(0) translate(4 184)">
<title>_anonymous_0</title>
<!-- HITTING_PROBABILITIES -->
<g id="node1" class="node"><title>HITTING_PROBABILITIES</title>
<a xlink:href="HITTING_PROBABILITIES.html" xlink:title="Hitting time and hitting probability" target="_top">
<polyline fill="none" stroke="blue" stroke-width="2" points="424,-108 190,-108 "/>
<path fill="none" stroke="blue" stroke-width="2" d="M190,-108C184,-108 178,-102 178,-96"/>
<polyline fill="none" stroke="blue" stroke-width="2" points="178,-96 178,-84 "/>
<path fill="none" stroke="blue" stroke-width="2" d="M178,-84C178,-78 184,-72 190,-72"/>
<polyline fill="none" stroke="blue" stroke-width="2" points="190,-72 424,-72 "/>
<path fill="none" stroke="blue" stroke-width="2" d="M424,-72C430,-72 436,-78 436,-84"/>
<polyline fill="none" stroke="blue" stroke-width="2" points="436,-84 436,-96 "/>
<path fill="none" stroke="blue" stroke-width="2" d="M436,-96C436,-102 430,-108 424,-108"/>
<text text-anchor="start" x="186.5" y="-87.2333" font-family="Times Roman,serif" font-size="14.00">Hitting time and hitting probability</text>
</a>
</g>
<!-- GAMBLERS_RUIN -->
<g id="node2" class="node"><title>GAMBLERS_RUIN</title>
<a xlink:href="GAMBLERS_RUIN.html" xlink:title="Gamblers ruin" target="_top">
<polyline fill="none" stroke="black" points="352,-36 262,-36 "/>
<path fill="none" stroke="black" d="M262,-36C256,-36 250,-30 250,-24"/>
<polyline fill="none" stroke="black" points="250,-24 250,-12 "/>
<path fill="none" stroke="black" d="M250,-12C250,-6 256,-1.70156e-14 262,-1.62677e-14"/>
<polyline fill="none" stroke="black" points="262,-1.62677e-14 352,-5.04859e-15 "/>
<path fill="none" stroke="black" d="M352,-5.04859e-15C358,-4.30065e-15 364,-6 364,-12"/>
<polyline fill="none" stroke="black" points="364,-12 364,-24 "/>
<path fill="none" stroke="black" d="M364,-24C364,-30 358,-36 352,-36"/>
<text text-anchor="start" x="258" y="-15.2333" font-family="Times Roman,serif" font-size="14.00">Gamblers ruin</text>
</a>
</g>
<!-- HITTING_PROBABILITIES&#45;&gt;GAMBLERS_RUIN -->
<g id="edge2" class="edge"><title>HITTING_PROBABILITIES&#45;&gt;GAMBLERS_RUIN</title>
<path fill="none" stroke="black" d="M307,-71.8314C307,-64.131 307,-54.9743 307,-46.4166"/>
<polygon fill="black" stroke="black" points="310.5,-46.4132 307,-36.4133 303.5,-46.4133 310.5,-46.4132"/>
</g>
<!-- TRANSIENT_RECURRENT_STATES -->
<g id="node4" class="node"><title>TRANSIENT_RECURRENT_STATES</title>
<a xlink:href="TRANSIENT_RECURRENT_STATES.html" xlink:title="Transient and recurrent states in Markov chains" target="_top">
<polyline fill="none" stroke="black" points="336,-180 12,-180 "/>
<path fill="none" stroke="black" d="M12,-180C6,-180 1.42109e-13,-174 1.13687e-13,-168"/>
<polyline fill="none" stroke="black" points="1.13687e-13,-168 5.68434e-14,-156 "/>
<path fill="none" stroke="black" d="M5.68434e-14,-156C2.84217e-14,-150 6,-144 12,-144"/>
<polyline fill="none" stroke="black" points="12,-144 336,-144 "/>
<path fill="none" stroke="black" d="M336,-144C342,-144 348,-150 348,-156"/>
<polyline fill="none" stroke="black" points="348,-156 348,-168 "/>
<path fill="none" stroke="black" d="M348,-168C348,-174 342,-180 336,-180"/>
<text text-anchor="start" x="8.5" y="-159.233" font-family="Times Roman,serif" font-size="14.00">Transient and recurrent states in Markov chains</text>
</a>
</g>
<!-- TRANSIENT_RECURRENT_STATES&#45;&gt;HITTING_PROBABILITIES -->
<g id="edge4" class="edge"><title>TRANSIENT_RECURRENT_STATES&#45;&gt;HITTING_PROBABILITIES</title>
<path fill="none" stroke="black" d="M207.562,-143.831C224.888,-134.452 246.206,-122.911 264.654,-112.924"/>
<polygon fill="black" stroke="black" points="266.321,-116.002 273.449,-108.163 262.989,-109.846 266.321,-116.002"/>
</g>
<!-- MATRIX_INVERSE -->
<g id="node6" class="node"><title>MATRIX_INVERSE</title>
<a xlink:href="MATRIX_INVERSE.html" xlink:title="The matrix inverse" target="_top">
<polyline fill="none" stroke="black" points="502,-180 378,-180 "/>
<path fill="none" stroke="black" d="M378,-180C372,-180 366,-174 366,-168"/>
<polyline fill="none" stroke="black" points="366,-168 366,-156 "/>
<path fill="none" stroke="black" d="M366,-156C366,-150 372,-144 378,-144"/>
<polyline fill="none" stroke="black" points="378,-144 502,-144 "/>
<path fill="none" stroke="black" d="M502,-144C508,-144 514,-150 514,-156"/>
<polyline fill="none" stroke="black" points="514,-156 514,-168 "/>
<path fill="none" stroke="black" d="M514,-168C514,-174 508,-180 502,-180"/>
<text text-anchor="start" x="374.5" y="-159.233" font-family="Times Roman,serif" font-size="14.00">The matrix inverse</text>
</a>
</g>
<!-- MATRIX_INVERSE&#45;&gt;HITTING_PROBABILITIES -->
<g id="edge6" class="edge"><title>MATRIX_INVERSE&#45;&gt;HITTING_PROBABILITIES</title>
<path fill="none" stroke="black" d="M406.438,-143.831C389.112,-134.452 367.794,-122.911 349.346,-112.924"/>
<polygon fill="black" stroke="black" points="351.011,-109.846 340.551,-108.163 347.679,-116.002 351.011,-109.846"/>
</g>
</g>
</svg>
