<?xml version="1.0" encoding="UTF-8" standalone="no"?>
<!DOCTYPE svg PUBLIC "-//W3C//DTD SVG 1.1//EN"
 "http://www.w3.org/Graphics/SVG/1.1/DTD/svg11.dtd">
<!-- Generated by graphviz version 2.28.0 (20110509.1545)
 -->
<!-- Title: _anonymous_0 Pages: 1 -->
<svg width="220pt" height="188pt"
 viewBox="0.00 0.00 220.00 188.00" xmlns="http://www.w3.org/2000/svg" xmlns:xlink="http://www.w3.org/1999/xlink">
<g id="graph1" class="graph" transform="scale(1 1) rotate(0) translate(4 184)">
<title>_anonymous_0</title>
<!-- HITTING_PROBABILITIES -->
<g id="node1" class="node"><title>HITTING_PROBABILITIES</title>
<a xlink:href="HITTING_PROBABILITIES.html" xlink:title="Hitting time and hitting probability" target="_top">
<polyline fill="none" stroke="blue" stroke-width="2" points="200.25,-108 11.75,-108 "/>
<path fill="none" stroke="blue" stroke-width="2" d="M11.75,-108C5.75,-108 -0.25,-102 -0.25,-96"/>
<polyline fill="none" stroke="blue" stroke-width="2" points="-0.25,-96 -0.25,-84 "/>
<path fill="none" stroke="blue" stroke-width="2" d="M-0.25,-84C-0.25,-78 5.75,-72 11.75,-72"/>
<polyline fill="none" stroke="blue" stroke-width="2" points="11.75,-72 200.25,-72 "/>
<path fill="none" stroke="blue" stroke-width="2" d="M200.25,-72C206.25,-72 212.25,-78 212.25,-84"/>
<polyline fill="none" stroke="blue" stroke-width="2" points="212.25,-84 212.25,-96 "/>
<path fill="none" stroke="blue" stroke-width="2" d="M212.25,-96C212.25,-102 206.25,-108 200.25,-108"/>
<text text-anchor="start" x="8" y="-84.5" font-family="Times,serif" font-size="14.00">Hitting time and hitting probability</text>
</a>
</g>
<!-- GAMBLERS_RUIN -->
<g id="node2" class="node"><title>GAMBLERS_RUIN</title>
<a xlink:href="GAMBLERS_RUIN.html" xlink:title="TITLE:" target="_top">
<polyline fill="none" stroke="black" points="123.25,-36 88.75,-36 "/>
<path fill="none" stroke="black" d="M88.75,-36C82.75,-36 76.75,-30 76.75,-24"/>
<polyline fill="none" stroke="black" points="76.75,-24 76.75,-12 "/>
<path fill="none" stroke="black" d="M76.75,-12C76.75,-6 82.75,-0 88.75,-0"/>
<polyline fill="none" stroke="black" points="88.75,-0 123.25,-0 "/>
<path fill="none" stroke="black" d="M123.25,-0C129.25,-0 135.25,-6 135.25,-12"/>
<polyline fill="none" stroke="black" points="135.25,-12 135.25,-24 "/>
<path fill="none" stroke="black" d="M135.25,-24C135.25,-30 129.25,-36 123.25,-36"/>
<text text-anchor="start" x="85" y="-12.5" font-family="Times,serif" font-size="14.00">TITLE:</text>
</a>
</g>
<!-- HITTING_PROBABILITIES&#45;&gt;GAMBLERS_RUIN -->
<g id="edge2" class="edge"><title>HITTING_PROBABILITIES&#45;&gt;GAMBLERS_RUIN</title>
<path fill="none" stroke="black" d="M106,-71.6966C106,-63.9827 106,-54.7125 106,-46.1124"/>
<polygon fill="black" stroke="black" points="109.5,-46.1043 106,-36.1043 102.5,-46.1044 109.5,-46.1043"/>
</g>
<!-- MATRIX_INVERSE -->
<g id="node4" class="node"><title>MATRIX_INVERSE</title>
<a xlink:href="MATRIX_INVERSE.html" xlink:title="The matrix inverse" target="_top">
<polyline fill="none" stroke="black" points="155,-180 57,-180 "/>
<path fill="none" stroke="black" d="M57,-180C51,-180 45,-174 45,-168"/>
<polyline fill="none" stroke="black" points="45,-168 45,-156 "/>
<path fill="none" stroke="black" d="M45,-156C45,-150 51,-144 57,-144"/>
<polyline fill="none" stroke="black" points="57,-144 155,-144 "/>
<path fill="none" stroke="black" d="M155,-144C161,-144 167,-150 167,-156"/>
<polyline fill="none" stroke="black" points="167,-156 167,-168 "/>
<path fill="none" stroke="black" d="M167,-168C167,-174 161,-180 155,-180"/>
<text text-anchor="start" x="53.5" y="-156.5" font-family="Times,serif" font-size="14.00">The matrix inverse</text>
</a>
</g>
<!-- MATRIX_INVERSE&#45;&gt;HITTING_PROBABILITIES -->
<g id="edge4" class="edge"><title>MATRIX_INVERSE&#45;&gt;HITTING_PROBABILITIES</title>
<path fill="none" stroke="black" d="M106,-143.697C106,-135.983 106,-126.712 106,-118.112"/>
<polygon fill="black" stroke="black" points="109.5,-118.104 106,-108.104 102.5,-118.104 109.5,-118.104"/>
</g>
</g>
</svg>
