<?xml version="1.0" encoding="UTF-8" standalone="no"?>
<!DOCTYPE svg PUBLIC "-//W3C//DTD SVG 1.1//EN"
 "http://www.w3.org/Graphics/SVG/1.1/DTD/svg11.dtd">
<!-- Generated by graphviz version 2.26.3 (20100126.1600)
 -->
<!-- Title: _anonymous_0 Pages: 1 -->
<svg width="522pt" height="188pt"
 viewBox="0.00 0.00 522.00 188.00" xmlns="http://www.w3.org/2000/svg" xmlns:xlink="http://www.w3.org/1999/xlink">
<g id="graph1" class="graph" transform="scale(1 1) rotate(0) translate(4 184)">
<title>_anonymous_0</title>
<!-- HITTING_PROBABILITIES -->
<g id="node1" class="node"><title>HITTING_PROBABILITIES</title>
<a xlink:href="HITTING_PROBABILITIES.html" xlink:title="Hitting time and hitting probability" target="_top">
<polyline fill="none" stroke="blue" stroke-width="2" points="324,-108 90,-108 "/>
<path fill="none" stroke="blue" stroke-width="2" d="M90,-108C84,-108 78,-102 78,-96"/>
<polyline fill="none" stroke="blue" stroke-width="2" points="78,-96 78,-84 "/>
<path fill="none" stroke="blue" stroke-width="2" d="M78,-84C78,-78 84,-72 90,-72"/>
<polyline fill="none" stroke="blue" stroke-width="2" points="90,-72 324,-72 "/>
<path fill="none" stroke="blue" stroke-width="2" d="M324,-72C330,-72 336,-78 336,-84"/>
<polyline fill="none" stroke="blue" stroke-width="2" points="336,-84 336,-96 "/>
<path fill="none" stroke="blue" stroke-width="2" d="M336,-96C336,-102 330,-108 324,-108"/>
<text text-anchor="start" x="86.5" y="-87.2333" font-family="Times Roman,serif" font-size="14.00">Hitting time and hitting probability</text>
</a>
</g>
<!-- GAMBLERS_RUIN -->
<g id="node4" class="node"><title>GAMBLERS_RUIN</title>
<a xlink:href="GAMBLERS_RUIN.html" xlink:title="Gamblers ruin" target="_top">
<polyline fill="none" stroke="black" points="252,-36 162,-36 "/>
<path fill="none" stroke="black" d="M162,-36C156,-36 150,-30 150,-24"/>
<polyline fill="none" stroke="black" points="150,-24 150,-12 "/>
<path fill="none" stroke="black" d="M150,-12C150,-6 156,-1.70156e-14 162,-1.62677e-14"/>
<polyline fill="none" stroke="black" points="162,-1.62677e-14 252,-5.04859e-15 "/>
<path fill="none" stroke="black" d="M252,-5.04859e-15C258,-4.30065e-15 264,-6 264,-12"/>
<polyline fill="none" stroke="black" points="264,-12 264,-24 "/>
<path fill="none" stroke="black" d="M264,-24C264,-30 258,-36 252,-36"/>
<text text-anchor="start" x="158" y="-15.2333" font-family="Times Roman,serif" font-size="14.00">Gamblers ruin</text>
</a>
</g>
<!-- HITTING_PROBABILITIES&#45;&gt;GAMBLERS_RUIN -->
<g id="edge4" class="edge"><title>HITTING_PROBABILITIES&#45;&gt;GAMBLERS_RUIN</title>
<path fill="none" stroke="black" d="M207,-71.8314C207,-64.131 207,-54.9743 207,-46.4166"/>
<polygon fill="black" stroke="black" points="210.5,-46.4132 207,-36.4133 203.5,-46.4133 210.5,-46.4132"/>
</g>
<!-- MATRIX_INVERSE -->
<g id="node2" class="node"><title>MATRIX_INVERSE</title>
<a xlink:href="MATRIX_INVERSE.html" xlink:title="The matrix inverse" target="_top">
<polyline fill="none" stroke="black" points="136,-180 12,-180 "/>
<path fill="none" stroke="black" d="M12,-180C6,-180 5.92119e-14,-174 4.73695e-14,-168"/>
<polyline fill="none" stroke="black" points="4.73695e-14,-168 2.36848e-14,-156 "/>
<path fill="none" stroke="black" d="M2.36848e-14,-156C1.18424e-14,-150 6,-144 12,-144"/>
<polyline fill="none" stroke="black" points="12,-144 136,-144 "/>
<path fill="none" stroke="black" d="M136,-144C142,-144 148,-150 148,-156"/>
<polyline fill="none" stroke="black" points="148,-156 148,-168 "/>
<path fill="none" stroke="black" d="M148,-168C148,-174 142,-180 136,-180"/>
<text text-anchor="start" x="8.5" y="-159.233" font-family="Times Roman,serif" font-size="14.00">The matrix inverse</text>
</a>
</g>
<!-- MATRIX_INVERSE&#45;&gt;HITTING_PROBABILITIES -->
<g id="edge2" class="edge"><title>MATRIX_INVERSE&#45;&gt;HITTING_PROBABILITIES</title>
<path fill="none" stroke="black" d="M107.562,-143.831C124.888,-134.452 146.206,-122.911 164.654,-112.924"/>
<polygon fill="black" stroke="black" points="166.321,-116.002 173.449,-108.163 162.989,-109.846 166.321,-116.002"/>
</g>
<!-- TRANSIENT_RECURRENT_STATES -->
<g id="node6" class="node"><title>TRANSIENT_RECURRENT_STATES</title>
<a xlink:href="TRANSIENT_RECURRENT_STATES.html" xlink:title="Transient and recurrent states in Markov chains" target="_top">
<polyline fill="none" stroke="black" points="502,-180 178,-180 "/>
<path fill="none" stroke="black" d="M178,-180C172,-180 166,-174 166,-168"/>
<polyline fill="none" stroke="black" points="166,-168 166,-156 "/>
<path fill="none" stroke="black" d="M166,-156C166,-150 172,-144 178,-144"/>
<polyline fill="none" stroke="black" points="178,-144 502,-144 "/>
<path fill="none" stroke="black" d="M502,-144C508,-144 514,-150 514,-156"/>
<polyline fill="none" stroke="black" points="514,-156 514,-168 "/>
<path fill="none" stroke="black" d="M514,-168C514,-174 508,-180 502,-180"/>
<text text-anchor="start" x="174.5" y="-159.233" font-family="Times Roman,serif" font-size="14.00">Transient and recurrent states in Markov chains</text>
</a>
</g>
<!-- TRANSIENT_RECURRENT_STATES&#45;&gt;HITTING_PROBABILITIES -->
<g id="edge6" class="edge"><title>TRANSIENT_RECURRENT_STATES&#45;&gt;HITTING_PROBABILITIES</title>
<path fill="none" stroke="black" d="M306.438,-143.831C289.112,-134.452 267.794,-122.911 249.346,-112.924"/>
<polygon fill="black" stroke="black" points="251.011,-109.846 240.551,-108.163 247.679,-116.002 251.011,-109.846"/>
</g>
</g>
</svg>
