<?xml version="1.0" encoding="UTF-8" standalone="no"?>
<!DOCTYPE svg PUBLIC "-//W3C//DTD SVG 1.1//EN"
 "http://www.w3.org/Graphics/SVG/1.1/DTD/svg11.dtd">
<!-- Generated by graphviz version 2.26.3 (20100126.1600)
 -->
<!-- Title: _anonymous_0 Pages: 1 -->
<svg width="538pt" height="188pt"
 viewBox="0.00 0.00 538.00 188.00" xmlns="http://www.w3.org/2000/svg" xmlns:xlink="http://www.w3.org/1999/xlink">
<g id="graph1" class="graph" transform="scale(1 1) rotate(0) translate(4 184)">
<title>_anonymous_0</title>
<!-- HITTING_PROBABILITIES -->
<g id="node1" class="node"><title>HITTING_PROBABILITIES</title>
<a xlink:href="HITTING_PROBABILITIES.html" xlink:title=" Hitting time and hitting probability " target="_top">
<polyline fill="none" stroke="blue" stroke-width="2" points="436,-108 194,-108 "/>
<path fill="none" stroke="blue" stroke-width="2" d="M194,-108C188,-108 182,-102 182,-96"/>
<polyline fill="none" stroke="blue" stroke-width="2" points="182,-96 182,-84 "/>
<path fill="none" stroke="blue" stroke-width="2" d="M182,-84C182,-78 188,-72 194,-72"/>
<polyline fill="none" stroke="blue" stroke-width="2" points="194,-72 436,-72 "/>
<path fill="none" stroke="blue" stroke-width="2" d="M436,-72C442,-72 448,-78 448,-84"/>
<polyline fill="none" stroke="blue" stroke-width="2" points="448,-84 448,-96 "/>
<path fill="none" stroke="blue" stroke-width="2" d="M448,-96C448,-102 442,-108 436,-108"/>
<text text-anchor="start" x="190" y="-87.2333" font-family="Times Roman,serif" font-size="14.00"> Hitting time and hitting probability </text>
</a>
</g>
<!-- GAMBLERS_RUIN -->
<g id="node2" class="node"><title>GAMBLERS_RUIN</title>
<a xlink:href="GAMBLERS_RUIN.html" xlink:title=" Gamblers ruin " target="_top">
<polyline fill="none" stroke="black" points="365,-36 265,-36 "/>
<path fill="none" stroke="black" d="M265,-36C259,-36 253,-30 253,-24"/>
<polyline fill="none" stroke="black" points="253,-24 253,-12 "/>
<path fill="none" stroke="black" d="M253,-12C253,-6 259,-1.70759e-14 265,-1.63883e-14"/>
<polyline fill="none" stroke="black" points="265,-1.63883e-14 365,-4.92796e-15 "/>
<path fill="none" stroke="black" d="M365,-4.92796e-15C371,-4.24034e-15 377,-6 377,-12"/>
<polyline fill="none" stroke="black" points="377,-12 377,-24 "/>
<path fill="none" stroke="black" d="M377,-24C377,-30 371,-36 365,-36"/>
<text text-anchor="start" x="261.5" y="-15.2333" font-family="Times Roman,serif" font-size="14.00"> Gamblers ruin </text>
</a>
</g>
<!-- HITTING_PROBABILITIES&#45;&gt;GAMBLERS_RUIN -->
<g id="edge2" class="edge"><title>HITTING_PROBABILITIES&#45;&gt;GAMBLERS_RUIN</title>
<path fill="none" stroke="black" d="M315,-71.8314C315,-64.131 315,-54.9743 315,-46.4166"/>
<polygon fill="black" stroke="black" points="318.5,-46.4132 315,-36.4133 311.5,-46.4133 318.5,-46.4132"/>
</g>
<!-- TRANSIENT_RECURRENT_STATES -->
<g id="node4" class="node"><title>TRANSIENT_RECURRENT_STATES</title>
<a xlink:href="TRANSIENT_RECURRENT_STATES.html" xlink:title=" Transient and recurrent states in Markov chains " target="_top">
<polyline fill="none" stroke="black" points="344,-180 12,-180 "/>
<path fill="none" stroke="black" d="M12,-180C6,-180 1.42109e-13,-174 1.13687e-13,-168"/>
<polyline fill="none" stroke="black" points="1.13687e-13,-168 5.68434e-14,-156 "/>
<path fill="none" stroke="black" d="M5.68434e-14,-156C2.84217e-14,-150 6,-144 12,-144"/>
<polyline fill="none" stroke="black" points="12,-144 344,-144 "/>
<path fill="none" stroke="black" d="M344,-144C350,-144 356,-150 356,-156"/>
<polyline fill="none" stroke="black" points="356,-156 356,-168 "/>
<path fill="none" stroke="black" d="M356,-168C356,-174 350,-180 344,-180"/>
<text text-anchor="start" x="8" y="-159.233" font-family="Times Roman,serif" font-size="14.00"> Transient and recurrent states in Markov chains </text>
</a>
</g>
<!-- TRANSIENT_RECURRENT_STATES&#45;&gt;HITTING_PROBABILITIES -->
<g id="edge4" class="edge"><title>TRANSIENT_RECURRENT_STATES&#45;&gt;HITTING_PROBABILITIES</title>
<path fill="none" stroke="black" d="M212.571,-143.831C230.419,-134.452 252.377,-122.911 271.38,-112.924"/>
<polygon fill="black" stroke="black" points="273.216,-115.913 280.44,-108.163 269.96,-109.717 273.216,-115.913"/>
</g>
<!-- MATRIX_INVERSE -->
<g id="node6" class="node"><title>MATRIX_INVERSE</title>
<a xlink:href="MATRIX_INVERSE.html" xlink:title=" The matrix inverse " target="_top">
<polyline fill="none" stroke="black" points="518,-180 386,-180 "/>
<path fill="none" stroke="black" d="M386,-180C380,-180 374,-174 374,-168"/>
<polyline fill="none" stroke="black" points="374,-168 374,-156 "/>
<path fill="none" stroke="black" d="M374,-156C374,-150 380,-144 386,-144"/>
<polyline fill="none" stroke="black" points="386,-144 518,-144 "/>
<path fill="none" stroke="black" d="M518,-144C524,-144 530,-150 530,-156"/>
<polyline fill="none" stroke="black" points="530,-156 530,-168 "/>
<path fill="none" stroke="black" d="M530,-168C530,-174 524,-180 518,-180"/>
<text text-anchor="start" x="382" y="-159.233" font-family="Times Roman,serif" font-size="14.00"> The matrix inverse </text>
</a>
</g>
<!-- MATRIX_INVERSE&#45;&gt;HITTING_PROBABILITIES -->
<g id="edge6" class="edge"><title>MATRIX_INVERSE&#45;&gt;HITTING_PROBABILITIES</title>
<path fill="none" stroke="black" d="M417.429,-143.831C399.581,-134.452 377.623,-122.911 358.62,-112.924"/>
<polygon fill="black" stroke="black" points="360.04,-109.717 349.56,-108.163 356.784,-115.913 360.04,-109.717"/>
</g>
</g>
</svg>
