<?xml version="1.0" encoding="UTF-8" standalone="no"?>
<!DOCTYPE svg PUBLIC "-//W3C//DTD SVG 1.1//EN"
 "http://www.w3.org/Graphics/SVG/1.1/DTD/svg11.dtd">
<!-- Generated by graphviz version 2.28.0 (20110509.1545)
 -->
<!-- Title: _anonymous_0 Pages: 1 -->
<svg width="431pt" height="188pt"
 viewBox="0.00 0.00 431.00 188.00" xmlns="http://www.w3.org/2000/svg" xmlns:xlink="http://www.w3.org/1999/xlink">
<g id="graph1" class="graph" transform="scale(1 1) rotate(0) translate(4 184)">
<title>_anonymous_0</title>
<!-- HITTING_PROBABILITIES -->
<g id="node1" class="node"><title>HITTING_PROBABILITIES</title>
<a xlink:href="HITTING_PROBABILITIES.html" xlink:title="Hitting time and hitting probability" target="_top">
<polyline fill="none" stroke="blue" stroke-width="2" points="265.25,-108 76.75,-108 "/>
<path fill="none" stroke="blue" stroke-width="2" d="M76.75,-108C70.75,-108 64.75,-102 64.75,-96"/>
<polyline fill="none" stroke="blue" stroke-width="2" points="64.75,-96 64.75,-84 "/>
<path fill="none" stroke="blue" stroke-width="2" d="M64.75,-84C64.75,-78 70.75,-72 76.75,-72"/>
<polyline fill="none" stroke="blue" stroke-width="2" points="76.75,-72 265.25,-72 "/>
<path fill="none" stroke="blue" stroke-width="2" d="M265.25,-72C271.25,-72 277.25,-78 277.25,-84"/>
<polyline fill="none" stroke="blue" stroke-width="2" points="277.25,-84 277.25,-96 "/>
<path fill="none" stroke="blue" stroke-width="2" d="M277.25,-96C277.25,-102 271.25,-108 265.25,-108"/>
<text text-anchor="start" x="73" y="-84.5" font-family="Times,serif" font-size="14.00">Hitting time and hitting probability</text>
</a>
</g>
<!-- GAMBLERS_RUIN -->
<g id="node2" class="node"><title>GAMBLERS_RUIN</title>
<a xlink:href="GAMBLERS_RUIN.html" xlink:title="Gamblers ruin" target="_top">
<polyline fill="none" stroke="black" points="207.25,-36 134.75,-36 "/>
<path fill="none" stroke="black" d="M134.75,-36C128.75,-36 122.75,-30 122.75,-24"/>
<polyline fill="none" stroke="black" points="122.75,-24 122.75,-12 "/>
<path fill="none" stroke="black" d="M122.75,-12C122.75,-6 128.75,-0 134.75,-0"/>
<polyline fill="none" stroke="black" points="134.75,-0 207.25,-0 "/>
<path fill="none" stroke="black" d="M207.25,-0C213.25,-0 219.25,-6 219.25,-12"/>
<polyline fill="none" stroke="black" points="219.25,-12 219.25,-24 "/>
<path fill="none" stroke="black" d="M219.25,-24C219.25,-30 213.25,-36 207.25,-36"/>
<text text-anchor="start" x="131" y="-12.5" font-family="Times,serif" font-size="14.00">Gamblers ruin</text>
</a>
</g>
<!-- HITTING_PROBABILITIES&#45;&gt;GAMBLERS_RUIN -->
<g id="edge2" class="edge"><title>HITTING_PROBABILITIES&#45;&gt;GAMBLERS_RUIN</title>
<path fill="none" stroke="black" d="M171,-71.6966C171,-63.9827 171,-54.7125 171,-46.1124"/>
<polygon fill="black" stroke="black" points="174.5,-46.1043 171,-36.1043 167.5,-46.1044 174.5,-46.1043"/>
</g>
<!-- MATRIX_INVERSE -->
<g id="node4" class="node"><title>MATRIX_INVERSE</title>
<a xlink:href="MATRIX_INVERSE.html" xlink:title="The matrix inverse" target="_top">
<polyline fill="none" stroke="black" points="110,-180 12,-180 "/>
<path fill="none" stroke="black" d="M12,-180C6,-180 7.10543e-15,-174 7.10543e-15,-168"/>
<polyline fill="none" stroke="black" points="7.10543e-15,-168 7.10543e-15,-156 "/>
<path fill="none" stroke="black" d="M7.10543e-15,-156C7.10543e-15,-150 6,-144 12,-144"/>
<polyline fill="none" stroke="black" points="12,-144 110,-144 "/>
<path fill="none" stroke="black" d="M110,-144C116,-144 122,-150 122,-156"/>
<polyline fill="none" stroke="black" points="122,-156 122,-168 "/>
<path fill="none" stroke="black" d="M122,-168C122,-174 116,-180 110,-180"/>
<text text-anchor="start" x="8.5" y="-156.5" font-family="Times,serif" font-size="14.00">The matrix inverse</text>
</a>
</g>
<!-- MATRIX_INVERSE&#45;&gt;HITTING_PROBABILITIES -->
<g id="edge4" class="edge"><title>MATRIX_INVERSE&#45;&gt;HITTING_PROBABILITIES</title>
<path fill="none" stroke="black" d="M87.909,-143.876C102.158,-134.808 119.846,-123.552 135.236,-113.759"/>
<polygon fill="black" stroke="black" points="137.43,-116.511 143.988,-108.19 133.672,-110.606 137.43,-116.511"/>
</g>
<!-- TRANSIENT_RECURRENT_STATES -->
<g id="node6" class="node"><title>TRANSIENT_RECURRENT_STATES</title>
<a xlink:href="TRANSIENT_RECURRENT_STATES.html" xlink:title="Transient and recurrent states in Markov chains" target="_top">
<polyline fill="none" stroke="black" points="411.25,-180 152.75,-180 "/>
<path fill="none" stroke="black" d="M152.75,-180C146.75,-180 140.75,-174 140.75,-168"/>
<polyline fill="none" stroke="black" points="140.75,-168 140.75,-156 "/>
<path fill="none" stroke="black" d="M140.75,-156C140.75,-150 146.75,-144 152.75,-144"/>
<polyline fill="none" stroke="black" points="152.75,-144 411.25,-144 "/>
<path fill="none" stroke="black" d="M411.25,-144C417.25,-144 423.25,-150 423.25,-156"/>
<polyline fill="none" stroke="black" points="423.25,-156 423.25,-168 "/>
<path fill="none" stroke="black" d="M423.25,-168C423.25,-174 417.25,-180 411.25,-180"/>
<text text-anchor="start" x="149" y="-156.5" font-family="Times,serif" font-size="14.00">Transient and recurrent states in Markov chains</text>
</a>
</g>
<!-- TRANSIENT_RECURRENT_STATES&#45;&gt;HITTING_PROBABILITIES -->
<g id="edge6" class="edge"><title>TRANSIENT_RECURRENT_STATES&#45;&gt;HITTING_PROBABILITIES</title>
<path fill="none" stroke="black" d="M254.846,-143.876C240.467,-134.808 222.619,-123.552 207.09,-113.759"/>
<polygon fill="black" stroke="black" points="208.584,-110.564 198.258,-108.19 204.85,-116.484 208.584,-110.564"/>
</g>
</g>
</svg>
