<?xml version="1.0" encoding="UTF-8" standalone="no"?>
<!DOCTYPE svg PUBLIC "-//W3C//DTD SVG 1.1//EN"
 "http://www.w3.org/Graphics/SVG/1.1/DTD/svg11.dtd">
<!-- Generated by graphviz version 2.36.0 (20140111.2315)
 -->
<!-- Title: %3 Pages: 1 -->
<svg width="438pt" height="188pt"
 viewBox="0.00 0.00 438.00 188.00" xmlns="http://www.w3.org/2000/svg" xmlns:xlink="http://www.w3.org/1999/xlink">
<g id="graph0" class="graph" transform="scale(1 1) rotate(0) translate(4 184)">
<title>%3</title>
<!-- HITTING_PROBABILITIES -->
<g id="node1" class="node"><title>HITTING_PROBABILITIES</title>
<g id="a_node1"><a xlink:href="HITTING_PROBABILITIES.html" xlink:title=" Hitting time and hitting probability " target="_top">
<path fill="none" stroke="blue" stroke-width="2" d="M350,-108C350,-108 158,-108 158,-108 152,-108 146,-102 146,-96 146,-96 146,-84 146,-84 146,-78 152,-72 158,-72 158,-72 350,-72 350,-72 356,-72 362,-78 362,-84 362,-84 362,-96 362,-96 362,-102 356,-108 350,-108"/>
<text text-anchor="start" x="154" y="-86.3" font-family="Times,serif" font-size="14.00"> Hitting time and hitting probability </text>
</a>
</g>
</g>
<!-- GAMBLERS_RUIN -->
<g id="node4" class="node"><title>GAMBLERS_RUIN</title>
<g id="a_node4"><a xlink:href="GAMBLERS_RUIN.html" xlink:title=" Gamblers ruin " target="_top">
<path fill="none" stroke="black" d="M293.25,-36C293.25,-36 214.75,-36 214.75,-36 208.75,-36 202.75,-30 202.75,-24 202.75,-24 202.75,-12 202.75,-12 202.75,-6 208.75,-0 214.75,-0 214.75,-0 293.25,-0 293.25,-0 299.25,-0 305.25,-6 305.25,-12 305.25,-12 305.25,-24 305.25,-24 305.25,-30 299.25,-36 293.25,-36"/>
<text text-anchor="start" x="210.5" y="-14.3" font-family="Times,serif" font-size="14.00"> Gamblers ruin </text>
</a>
</g>
</g>
<!-- HITTING_PROBABILITIES&#45;&gt;GAMBLERS_RUIN -->
<g id="edge3" class="edge"><title>HITTING_PROBABILITIES&#45;&gt;GAMBLERS_RUIN</title>
<path fill="none" stroke="black" d="M254,-71.6966C254,-63.9827 254,-54.7125 254,-46.1124"/>
<polygon fill="black" stroke="black" points="257.5,-46.1043 254,-36.1043 250.5,-46.1044 257.5,-46.1043"/>
</g>
<!-- TRANSIENT_RECURRENT_STATES -->
<g id="node2" class="node"><title>TRANSIENT_RECURRENT_STATES</title>
<g id="a_node2"><a xlink:href="TRANSIENT_RECURRENT_STATES.html" xlink:title=" Transient and recurrent states in Markov chains " target="_top">
<path fill="none" stroke="black" d="M272,-180C272,-180 12,-180 12,-180 6,-180 0,-174 0,-168 0,-168 0,-156 0,-156 0,-150 6,-144 12,-144 12,-144 272,-144 272,-144 278,-144 284,-150 284,-156 284,-156 284,-168 284,-168 284,-174 278,-180 272,-180"/>
<text text-anchor="start" x="8" y="-158.3" font-family="Times,serif" font-size="14.00"> Transient and recurrent states in Markov chains </text>
</a>
</g>
</g>
<!-- TRANSIENT_RECURRENT_STATES&#45;&gt;HITTING_PROBABILITIES -->
<g id="edge1" class="edge"><title>TRANSIENT_RECURRENT_STATES&#45;&gt;HITTING_PROBABILITIES</title>
<path fill="none" stroke="black" d="M169.398,-143.876C183.907,-134.808 201.916,-123.552 217.585,-113.759"/>
<polygon fill="black" stroke="black" points="219.871,-116.458 226.496,-108.19 216.161,-110.522 219.871,-116.458"/>
</g>
<!-- MATRIX_INVERSE -->
<g id="node3" class="node"><title>MATRIX_INVERSE</title>
<g id="a_node3"><a xlink:href="MATRIX_INVERSE.html" xlink:title=" The matrix inverse " target="_top">
<path fill="none" stroke="black" d="M418,-180C418,-180 314,-180 314,-180 308,-180 302,-174 302,-168 302,-168 302,-156 302,-156 302,-150 308,-144 314,-144 314,-144 418,-144 418,-144 424,-144 430,-150 430,-156 430,-156 430,-168 430,-168 430,-174 424,-180 418,-180"/>
<text text-anchor="start" x="310" y="-158.3" font-family="Times,serif" font-size="14.00"> The matrix inverse </text>
</a>
</g>
</g>
<!-- MATRIX_INVERSE&#45;&gt;HITTING_PROBABILITIES -->
<g id="edge2" class="edge"><title>MATRIX_INVERSE&#45;&gt;HITTING_PROBABILITIES</title>
<path fill="none" stroke="black" d="M338.602,-143.876C324.093,-134.808 306.084,-123.552 290.415,-113.759"/>
<polygon fill="black" stroke="black" points="291.839,-110.522 281.504,-108.19 288.129,-116.458 291.839,-110.522"/>
</g>
</g>
</svg>
