<?xml version="1.0" encoding="UTF-8" standalone="no"?>
<!DOCTYPE svg PUBLIC "-//W3C//DTD SVG 1.1//EN"
 "http://www.w3.org/Graphics/SVG/1.1/DTD/svg11.dtd">
<!-- Generated by graphviz version 2.26.3 (20100126.1600)
 -->
<!-- Title: _anonymous_0 Pages: 1 -->
<svg width="190pt" height="116pt"
 viewBox="0.00 0.00 190.00 116.00" xmlns="http://www.w3.org/2000/svg" xmlns:xlink="http://www.w3.org/1999/xlink">
<g id="graph1" class="graph" transform="scale(1 1) rotate(0) translate(4 112)">
<title>_anonymous_0</title>
<!-- IDEAL_GAS -->
<g id="node1" class="node"><title>IDEAL_GAS</title>
<a xlink:href="IDEAL_GAS.html" xlink:title="The ideal gas model" target="_top">
<polyline fill="none" stroke="blue" stroke-width="2" points="156,-36 26,-36 "/>
<path fill="none" stroke="blue" stroke-width="2" d="M26,-36C20,-36 14,-30 14,-24"/>
<polyline fill="none" stroke="blue" stroke-width="2" points="14,-24 14,-12 "/>
<path fill="none" stroke="blue" stroke-width="2" d="M14,-12C14,-6 20,-1.72099e-14 26,-1.66562e-14"/>
<polyline fill="none" stroke="blue" stroke-width="2" points="26,-1.66562e-14 156,-4.66005e-15 "/>
<path fill="none" stroke="blue" stroke-width="2" d="M156,-4.66005e-15C162,-4.10638e-15 168,-6 168,-12"/>
<polyline fill="none" stroke="blue" stroke-width="2" points="168,-12 168,-24 "/>
<path fill="none" stroke="blue" stroke-width="2" d="M168,-24C168,-30 162,-36 156,-36"/>
<text text-anchor="start" x="22.5" y="-15.2333" font-family="Times Roman,serif" font-size="14.00">The ideal gas model</text>
</a>
</g>
<!-- CANONICAL_ENSEMBLE -->
<g id="node2" class="node"><title>CANONICAL_ENSEMBLE</title>
<a xlink:href="CANONICAL_ENSEMBLE.html" xlink:title="The canonical ensemble" target="_top">
<polyline fill="none" stroke="black" points="170,-108 12,-108 "/>
<path fill="none" stroke="black" d="M12,-108C6,-108 5.92119e-14,-102 4.73695e-14,-96"/>
<polyline fill="none" stroke="black" points="4.73695e-14,-96 2.36848e-14,-84 "/>
<path fill="none" stroke="black" d="M2.36848e-14,-84C1.18424e-14,-78 6,-72 12,-72"/>
<polyline fill="none" stroke="black" points="12,-72 170,-72 "/>
<path fill="none" stroke="black" d="M170,-72C176,-72 182,-78 182,-84"/>
<polyline fill="none" stroke="black" points="182,-84 182,-96 "/>
<path fill="none" stroke="black" d="M182,-96C182,-102 176,-108 170,-108"/>
<text text-anchor="start" x="8.5" y="-87.2333" font-family="Times Roman,serif" font-size="14.00">The canonical ensemble</text>
</a>
</g>
<!-- CANONICAL_ENSEMBLE&#45;&gt;IDEAL_GAS -->
<g id="edge2" class="edge"><title>CANONICAL_ENSEMBLE&#45;&gt;IDEAL_GAS</title>
<path fill="none" stroke="black" d="M91,-71.8314C91,-64.131 91,-54.9743 91,-46.4166"/>
<polygon fill="black" stroke="black" points="94.5001,-46.4132 91,-36.4133 87.5001,-46.4133 94.5001,-46.4132"/>
</g>
</g>
</svg>
