<?xml version="1.0" encoding="UTF-8" standalone="no"?>
<!DOCTYPE svg PUBLIC "-//W3C//DTD SVG 1.1//EN"
 "http://www.w3.org/Graphics/SVG/1.1/DTD/svg11.dtd">
<!-- Generated by graphviz version 2.26.3 (20100126.1600)
 -->
<!-- Title: _anonymous_0 Pages: 1 -->
<svg width="630pt" height="188pt"
 viewBox="0.00 0.00 630.00 188.00" xmlns="http://www.w3.org/2000/svg" xmlns:xlink="http://www.w3.org/1999/xlink">
<g id="graph1" class="graph" transform="scale(1 1) rotate(0) translate(4 184)">
<title>_anonymous_0</title>
<!-- IDEAL_GAS -->
<g id="node1" class="node"><title>IDEAL_GAS</title>
<a xlink:href="IDEAL_GAS.html" xlink:title=" The ideal gas model " target="_top">
<polyline fill="none" stroke="blue" stroke-width="2" points="371,-108 233,-108 "/>
<path fill="none" stroke="blue" stroke-width="2" d="M233,-108C227,-108 221,-102 221,-96"/>
<polyline fill="none" stroke="blue" stroke-width="2" points="221,-96 221,-84 "/>
<path fill="none" stroke="blue" stroke-width="2" d="M221,-84C221,-78 227,-72 233,-72"/>
<polyline fill="none" stroke="blue" stroke-width="2" points="233,-72 371,-72 "/>
<path fill="none" stroke="blue" stroke-width="2" d="M371,-72C377,-72 383,-78 383,-84"/>
<polyline fill="none" stroke="blue" stroke-width="2" points="383,-84 383,-96 "/>
<path fill="none" stroke="blue" stroke-width="2" d="M383,-96C383,-102 377,-108 371,-108"/>
<text text-anchor="start" x="229" y="-87.2333" font-family="Times Roman,serif" font-size="14.00"> The ideal gas model </text>
</a>
</g>
<!-- CLUSTER_EXPANSION -->
<g id="node2" class="node"><title>CLUSTER_EXPANSION</title>
<a xlink:href="CLUSTER_EXPANSION.html" xlink:title=" The Cluster expansion approximation " target="_top">
<polyline fill="none" stroke="black" points="272,-36 12,-36 "/>
<path fill="none" stroke="black" d="M12,-36C6,-36 9.4739e-14,-30 7.57912e-14,-24"/>
<polyline fill="none" stroke="black" points="7.57912e-14,-24 3.78956e-14,-12 "/>
<path fill="none" stroke="black" d="M3.78956e-14,-12C1.89478e-14,-6 6,-1.74633e-14 12,-1.71631e-14"/>
<polyline fill="none" stroke="black" points="12,-1.71631e-14 272,-4.15317e-15 "/>
<path fill="none" stroke="black" d="M272,-4.15317e-15C278,-3.85294e-15 284,-6 284,-12"/>
<polyline fill="none" stroke="black" points="284,-12 284,-24 "/>
<path fill="none" stroke="black" d="M284,-24C284,-30 278,-36 272,-36"/>
<text text-anchor="start" x="8.5" y="-15.2333" font-family="Times Roman,serif" font-size="14.00"> The Cluster expansion approximation </text>
</a>
</g>
<!-- IDEAL_GAS&#45;&gt;CLUSTER_EXPANSION -->
<g id="edge2" class="edge"><title>IDEAL_GAS&#45;&gt;CLUSTER_EXPANSION</title>
<path fill="none" stroke="black" d="M261.625,-71.8314C240.321,-62.2446 214.002,-50.4008 191.479,-40.2655"/>
<polygon fill="black" stroke="black" points="192.64,-36.95 182.084,-36.038 189.767,-43.3334 192.64,-36.95"/>
</g>
<!-- PARTITION_FUNCTION_FOR_MOLECULES -->
<g id="node6" class="node"><title>PARTITION_FUNCTION_FOR_MOLECULES</title>
<a xlink:href="PARTITION_FUNCTION_FOR_MOLECULES.html" xlink:title=" The partition function for molecular gasses " target="_top">
<polyline fill="none" stroke="black" points="610,-36 314,-36 "/>
<path fill="none" stroke="black" d="M314,-36C308,-36 302,-30 302,-24"/>
<polyline fill="none" stroke="black" points="302,-24 302,-12 "/>
<path fill="none" stroke="black" d="M302,-12C302,-6 308,-1.74971e-14 314,-1.72307e-14"/>
<polyline fill="none" stroke="black" points="314,-1.72307e-14 610,-4.08562e-15 "/>
<path fill="none" stroke="black" d="M610,-4.08562e-15C616,-3.81917e-15 622,-6 622,-12"/>
<polyline fill="none" stroke="black" points="622,-12 622,-24 "/>
<path fill="none" stroke="black" d="M622,-24C622,-30 616,-36 610,-36"/>
<text text-anchor="start" x="310" y="-15.2333" font-family="Times Roman,serif" font-size="14.00"> The partition function for molecular gasses </text>
</a>
</g>
<!-- IDEAL_GAS&#45;&gt;PARTITION_FUNCTION_FOR_MOLECULES -->
<g id="edge6" class="edge"><title>IDEAL_GAS&#45;&gt;PARTITION_FUNCTION_FOR_MOLECULES</title>
<path fill="none" stroke="black" d="M342.375,-71.8314C363.679,-62.2446 389.998,-50.4008 412.521,-40.2655"/>
<polygon fill="black" stroke="black" points="414.233,-43.3334 421.916,-36.038 411.36,-36.95 414.233,-43.3334"/>
</g>
<!-- CANONICAL_ENSEMBLE -->
<g id="node4" class="node"><title>CANONICAL_ENSEMBLE</title>
<a xlink:href="CANONICAL_ENSEMBLE.html" xlink:title=" The canonical ensemble " target="_top">
<polyline fill="none" stroke="black" points="385,-180 219,-180 "/>
<path fill="none" stroke="black" d="M219,-180C213,-180 207,-174 207,-168"/>
<polyline fill="none" stroke="black" points="207,-168 207,-156 "/>
<path fill="none" stroke="black" d="M207,-156C207,-150 213,-144 219,-144"/>
<polyline fill="none" stroke="black" points="219,-144 385,-144 "/>
<path fill="none" stroke="black" d="M385,-144C391,-144 397,-150 397,-156"/>
<polyline fill="none" stroke="black" points="397,-156 397,-168 "/>
<path fill="none" stroke="black" d="M397,-168C397,-174 391,-180 385,-180"/>
<text text-anchor="start" x="215" y="-159.233" font-family="Times Roman,serif" font-size="14.00"> The canonical ensemble </text>
</a>
</g>
<!-- CANONICAL_ENSEMBLE&#45;&gt;IDEAL_GAS -->
<g id="edge4" class="edge"><title>CANONICAL_ENSEMBLE&#45;&gt;IDEAL_GAS</title>
<path fill="none" stroke="black" d="M302,-143.831C302,-136.131 302,-126.974 302,-118.417"/>
<polygon fill="black" stroke="black" points="305.5,-118.413 302,-108.413 298.5,-118.413 305.5,-118.413"/>
</g>
</g>
</svg>
