<?xml version="1.0" encoding="UTF-8" standalone="no"?>
<!DOCTYPE svg PUBLIC "-//W3C//DTD SVG 1.1//EN"
 "http://www.w3.org/Graphics/SVG/1.1/DTD/svg11.dtd">
<!-- Generated by graphviz version 2.36.0 (20140111.2315)
 -->
<!-- Title: %3 Pages: 1 -->
<svg width="516pt" height="188pt"
 viewBox="0.00 0.00 516.00 188.00" xmlns="http://www.w3.org/2000/svg" xmlns:xlink="http://www.w3.org/1999/xlink">
<g id="graph0" class="graph" transform="scale(1 1) rotate(0) translate(4 184)">
<title>%3</title>
<!-- IDEAL_GAS -->
<g id="node1" class="node"><title>IDEAL_GAS</title>
<g id="a_node1"><a xlink:href="IDEAL_GAS.html" xlink:title=" The ideal gas model " target="_top">
<path fill="none" stroke="blue" stroke-width="2" d="M301.25,-108C301.25,-108 190.75,-108 190.75,-108 184.75,-108 178.75,-102 178.75,-96 178.75,-96 178.75,-84 178.75,-84 178.75,-78 184.75,-72 190.75,-72 190.75,-72 301.25,-72 301.25,-72 307.25,-72 313.25,-78 313.25,-84 313.25,-84 313.25,-96 313.25,-96 313.25,-102 307.25,-108 301.25,-108"/>
<text text-anchor="start" x="186.5" y="-86.3" font-family="Times,serif" font-size="14.00"> The ideal gas model </text>
</a>
</g>
</g>
<!-- CLUSTER_EXPANSION -->
<g id="node3" class="node"><title>CLUSTER_EXPANSION</title>
<g id="a_node3"><a xlink:href="CLUSTER_EXPANSION.html" xlink:title=" The Cluster expansion approximation " target="_top">
<path fill="none" stroke="black" d="M217.5,-36C217.5,-36 12.5,-36 12.5,-36 6.5,-36 0.5,-30 0.5,-24 0.5,-24 0.5,-12 0.5,-12 0.5,-6 6.5,-0 12.5,-0 12.5,-0 217.5,-0 217.5,-0 223.5,-0 229.5,-6 229.5,-12 229.5,-12 229.5,-24 229.5,-24 229.5,-30 223.5,-36 217.5,-36"/>
<text text-anchor="start" x="8" y="-14.3" font-family="Times,serif" font-size="14.00"> The Cluster expansion approximation </text>
</a>
</g>
</g>
<!-- IDEAL_GAS&#45;&gt;CLUSTER_EXPANSION -->
<g id="edge2" class="edge"><title>IDEAL_GAS&#45;&gt;CLUSTER_EXPANSION</title>
<path fill="none" stroke="black" d="M213.954,-71.8761C196.508,-62.5541 174.735,-50.9194 156.057,-40.939"/>
<polygon fill="black" stroke="black" points="157.639,-37.8157 147.169,-36.1898 154.34,-43.9896 157.639,-37.8157"/>
</g>
<!-- PARTITION_FUNCTION_FOR_MOLECULES -->
<g id="node4" class="node"><title>PARTITION_FUNCTION_FOR_MOLECULES</title>
<g id="a_node4"><a xlink:href="PARTITION_FUNCTION_FOR_MOLECULES.html" xlink:title=" The partition function for molecular gasses " target="_top">
<path fill="none" stroke="black" d="M496,-36C496,-36 260,-36 260,-36 254,-36 248,-30 248,-24 248,-24 248,-12 248,-12 248,-6 254,-0 260,-0 260,-0 496,-0 496,-0 502,-0 508,-6 508,-12 508,-12 508,-24 508,-24 508,-30 502,-36 496,-36"/>
<text text-anchor="start" x="256" y="-14.3" font-family="Times,serif" font-size="14.00"> The partition function for molecular gasses </text>
</a>
</g>
</g>
<!-- IDEAL_GAS&#45;&gt;PARTITION_FUNCTION_FOR_MOLECULES -->
<g id="edge3" class="edge"><title>IDEAL_GAS&#45;&gt;PARTITION_FUNCTION_FOR_MOLECULES</title>
<path fill="none" stroke="black" d="M278.291,-71.8761C295.869,-62.5541 317.809,-50.9194 336.629,-40.939"/>
<polygon fill="black" stroke="black" points="338.39,-43.967 345.585,-36.1898 335.111,-37.7827 338.39,-43.967"/>
</g>
<!-- CANONICAL_ENSEMBLE -->
<g id="node2" class="node"><title>CANONICAL_ENSEMBLE</title>
<g id="a_node2"><a xlink:href="CANONICAL_ENSEMBLE.html" xlink:title=" The canonical ensemble " target="_top">
<path fill="none" stroke="black" d="M312,-180C312,-180 180,-180 180,-180 174,-180 168,-174 168,-168 168,-168 168,-156 168,-156 168,-150 174,-144 180,-144 180,-144 312,-144 312,-144 318,-144 324,-150 324,-156 324,-156 324,-168 324,-168 324,-174 318,-180 312,-180"/>
<text text-anchor="start" x="176" y="-158.3" font-family="Times,serif" font-size="14.00"> The canonical ensemble </text>
</a>
</g>
</g>
<!-- CANONICAL_ENSEMBLE&#45;&gt;IDEAL_GAS -->
<g id="edge1" class="edge"><title>CANONICAL_ENSEMBLE&#45;&gt;IDEAL_GAS</title>
<path fill="none" stroke="black" d="M246,-143.697C246,-135.983 246,-126.712 246,-118.112"/>
<polygon fill="black" stroke="black" points="249.5,-118.104 246,-108.104 242.5,-118.104 249.5,-118.104"/>
</g>
</g>
</svg>
