<?xml version="1.0" encoding="UTF-8" standalone="no"?>
<!DOCTYPE svg PUBLIC "-//W3C//DTD SVG 1.1//EN"
 "http://www.w3.org/Graphics/SVG/1.1/DTD/svg11.dtd">
<!-- Generated by graphviz version 2.26.3 (20100126.1600)
 -->
<!-- Title: _anonymous_0 Pages: 1 -->
<svg width="612pt" height="188pt"
 viewBox="0.00 0.00 612.00 188.00" xmlns="http://www.w3.org/2000/svg" xmlns:xlink="http://www.w3.org/1999/xlink">
<g id="graph1" class="graph" transform="scale(1 1) rotate(0) translate(4 184)">
<title>_anonymous_0</title>
<!-- IDEAL_GAS -->
<g id="node1" class="node"><title>IDEAL_GAS</title>
<a xlink:href="IDEAL_GAS.html" xlink:title="The ideal gas model" target="_top">
<polyline fill="none" stroke="blue" stroke-width="2" points="357,-108 227,-108 "/>
<path fill="none" stroke="blue" stroke-width="2" d="M227,-108C221,-108 215,-102 215,-96"/>
<polyline fill="none" stroke="blue" stroke-width="2" points="215,-96 215,-84 "/>
<path fill="none" stroke="blue" stroke-width="2" d="M215,-84C215,-78 221,-72 227,-72"/>
<polyline fill="none" stroke="blue" stroke-width="2" points="227,-72 357,-72 "/>
<path fill="none" stroke="blue" stroke-width="2" d="M357,-72C363,-72 369,-78 369,-84"/>
<polyline fill="none" stroke="blue" stroke-width="2" points="369,-84 369,-96 "/>
<path fill="none" stroke="blue" stroke-width="2" d="M369,-96C369,-102 363,-108 357,-108"/>
<text text-anchor="start" x="223.5" y="-87.2333" font-family="Times Roman,serif" font-size="14.00">The ideal gas model</text>
</a>
</g>
<!-- CLUSTER_EXPANSION -->
<g id="node2" class="node"><title>CLUSTER_EXPANSION</title>
<a xlink:href="CLUSTER_EXPANSION.html" xlink:title="The Cluster expansion approximation" target="_top">
<polyline fill="none" stroke="black" points="262,-36 12,-36 "/>
<path fill="none" stroke="black" d="M12,-36C6,-36 1.18424e-13,-30 9.4739e-14,-24"/>
<polyline fill="none" stroke="black" points="9.4739e-14,-24 4.73695e-14,-12 "/>
<path fill="none" stroke="black" d="M4.73695e-14,-12C2.36848e-14,-6 6,-1.74524e-14 12,-1.71412e-14"/>
<polyline fill="none" stroke="black" points="12,-1.71412e-14 262,-4.17509e-15 "/>
<path fill="none" stroke="black" d="M262,-4.17509e-15C268,-3.8639e-15 274,-6 274,-12"/>
<polyline fill="none" stroke="black" points="274,-12 274,-24 "/>
<path fill="none" stroke="black" d="M274,-24C274,-30 268,-36 262,-36"/>
<text text-anchor="start" x="8" y="-15.2333" font-family="Times Roman,serif" font-size="14.00">The Cluster expansion approximation</text>
</a>
</g>
<!-- IDEAL_GAS&#45;&gt;CLUSTER_EXPANSION -->
<g id="edge2" class="edge"><title>IDEAL_GAS&#45;&gt;CLUSTER_EXPANSION</title>
<path fill="none" stroke="black" d="M252.887,-71.8314C232.249,-62.2446 206.752,-50.4008 184.933,-40.2655"/>
<polygon fill="black" stroke="black" points="186.376,-37.0766 175.832,-36.038 183.427,-43.4251 186.376,-37.0766"/>
</g>
<!-- PARTITION_FUNCTION_FOR_MOLECULES -->
<g id="node6" class="node"><title>PARTITION_FUNCTION_FOR_MOLECULES</title>
<a xlink:href="PARTITION_FUNCTION_FOR_MOLECULES.html" xlink:title="The partition function for molecular gasses" target="_top">
<polyline fill="none" stroke="black" points="592,-36 304,-36 "/>
<path fill="none" stroke="black" d="M304,-36C298,-36 292,-30 292,-24"/>
<polyline fill="none" stroke="black" points="292,-24 292,-12 "/>
<path fill="none" stroke="black" d="M292,-12C292,-6 298,-1.74903e-14 304,-1.7217e-14"/>
<polyline fill="none" stroke="black" points="304,-1.7217e-14 592,-4.09929e-15 "/>
<path fill="none" stroke="black" d="M592,-4.09929e-15C598,-3.826e-15 604,-6 604,-12"/>
<polyline fill="none" stroke="black" points="604,-12 604,-24 "/>
<path fill="none" stroke="black" d="M604,-24C604,-30 598,-36 592,-36"/>
<text text-anchor="start" x="300.5" y="-15.2333" font-family="Times Roman,serif" font-size="14.00">The partition function for molecular gasses</text>
</a>
</g>
<!-- IDEAL_GAS&#45;&gt;PARTITION_FUNCTION_FOR_MOLECULES -->
<g id="edge6" class="edge"><title>IDEAL_GAS&#45;&gt;PARTITION_FUNCTION_FOR_MOLECULES</title>
<path fill="none" stroke="black" d="M331.365,-71.8314C352.137,-62.2446 377.798,-50.4008 399.758,-40.2655"/>
<polygon fill="black" stroke="black" points="401.305,-43.4065 408.918,-36.038 398.371,-37.0508 401.305,-43.4065"/>
</g>
<!-- CANONICAL_ENSEMBLE -->
<g id="node4" class="node"><title>CANONICAL_ENSEMBLE</title>
<a xlink:href="CANONICAL_ENSEMBLE.html" xlink:title="The canonical ensemble" target="_top">
<polyline fill="none" stroke="black" points="371,-180 213,-180 "/>
<path fill="none" stroke="black" d="M213,-180C207,-180 201,-174 201,-168"/>
<polyline fill="none" stroke="black" points="201,-168 201,-156 "/>
<path fill="none" stroke="black" d="M201,-156C201,-150 207,-144 213,-144"/>
<polyline fill="none" stroke="black" points="213,-144 371,-144 "/>
<path fill="none" stroke="black" d="M371,-144C377,-144 383,-150 383,-156"/>
<polyline fill="none" stroke="black" points="383,-156 383,-168 "/>
<path fill="none" stroke="black" d="M383,-168C383,-174 377,-180 371,-180"/>
<text text-anchor="start" x="209.5" y="-159.233" font-family="Times Roman,serif" font-size="14.00">The canonical ensemble</text>
</a>
</g>
<!-- CANONICAL_ENSEMBLE&#45;&gt;IDEAL_GAS -->
<g id="edge4" class="edge"><title>CANONICAL_ENSEMBLE&#45;&gt;IDEAL_GAS</title>
<path fill="none" stroke="black" d="M292,-143.831C292,-136.131 292,-126.974 292,-118.417"/>
<polygon fill="black" stroke="black" points="295.5,-118.413 292,-108.413 288.5,-118.413 295.5,-118.413"/>
</g>
</g>
</svg>
