<?xml version="1.0" encoding="UTF-8" standalone="no"?>
<!DOCTYPE svg PUBLIC "-//W3C//DTD SVG 1.1//EN"
 "http://www.w3.org/Graphics/SVG/1.1/DTD/svg11.dtd">
<!-- Generated by graphviz version 2.26.3 (20100126.1600)
 -->
<!-- Title: _anonymous_0 Pages: 1 -->
<svg width="226pt" height="188pt"
 viewBox="0.00 0.00 226.00 188.00" xmlns="http://www.w3.org/2000/svg" xmlns:xlink="http://www.w3.org/1999/xlink">
<g id="graph1" class="graph" transform="scale(1 1) rotate(0) translate(4 184)">
<title>_anonymous_0</title>
<!-- INCLUSION_EXCLUSION -->
<g id="node1" class="node"><title>INCLUSION_EXCLUSION</title>
<a xlink:href="INCLUSION_EXCLUSION.html" xlink:title=" Inclusion&#45;exclusion principle " target="_top">
<polyline fill="none" stroke="blue" stroke-width="2" points="206,-108 12,-108 "/>
<path fill="none" stroke="blue" stroke-width="2" d="M12,-108C6,-108 9.4739e-14,-102 7.57912e-14,-96"/>
<polyline fill="none" stroke="blue" stroke-width="2" points="7.57912e-14,-96 3.78956e-14,-84 "/>
<path fill="none" stroke="blue" stroke-width="2" d="M3.78956e-14,-84C1.89478e-14,-78 6,-72 12,-72"/>
<polyline fill="none" stroke="blue" stroke-width="2" points="12,-72 206,-72 "/>
<path fill="none" stroke="blue" stroke-width="2" d="M206,-72C212,-72 218,-78 218,-84"/>
<polyline fill="none" stroke="blue" stroke-width="2" points="218,-84 218,-96 "/>
<path fill="none" stroke="blue" stroke-width="2" d="M218,-96C218,-102 212,-108 206,-108"/>
<text text-anchor="start" x="8" y="-87.2333" font-family="Times Roman,serif" font-size="14.00"> Inclusion&#45;exclusion principle </text>
</a>
</g>
<!-- SET_PARTITIONS -->
<g id="node2" class="node"><title>SET_PARTITIONS</title>
<a xlink:href="SET_PARTITIONS.html" xlink:title=" Partition (set theory) " target="_top">
<polyline fill="none" stroke="black" points="183,-36 35,-36 "/>
<path fill="none" stroke="black" d="M35,-36C29,-36 23,-30 23,-24"/>
<polyline fill="none" stroke="black" points="23,-24 23,-12 "/>
<path fill="none" stroke="black" d="M23,-12C23,-6 29,-1.72678e-14 35,-1.67721e-14"/>
<polyline fill="none" stroke="black" points="35,-1.67721e-14 183,-4.54417e-15 "/>
<path fill="none" stroke="black" d="M183,-4.54417e-15C189,-4.04844e-15 195,-6 195,-12"/>
<polyline fill="none" stroke="black" points="195,-12 195,-24 "/>
<path fill="none" stroke="black" d="M195,-24C195,-30 189,-36 183,-36"/>
<text text-anchor="start" x="31.5" y="-15.2333" font-family="Times Roman,serif" font-size="14.00"> Partition (set theory) </text>
</a>
</g>
<!-- INCLUSION_EXCLUSION&#45;&gt;SET_PARTITIONS -->
<g id="edge2" class="edge"><title>INCLUSION_EXCLUSION&#45;&gt;SET_PARTITIONS</title>
<path fill="none" stroke="black" d="M109,-71.8314C109,-64.131 109,-54.9743 109,-46.4166"/>
<polygon fill="black" stroke="black" points="112.5,-46.4132 109,-36.4133 105.5,-46.4133 112.5,-46.4132"/>
</g>
<!-- VENN_DIAGRAMS -->
<g id="node4" class="node"><title>VENN_DIAGRAMS</title>
<a xlink:href="VENN_DIAGRAMS.html" xlink:title=" Basic set theory " target="_top">
<polyline fill="none" stroke="black" points="166,-180 52,-180 "/>
<path fill="none" stroke="black" d="M52,-180C46,-180 40,-174 40,-168"/>
<polyline fill="none" stroke="black" points="40,-168 40,-156 "/>
<path fill="none" stroke="black" d="M40,-156C40,-150 46,-144 52,-144"/>
<polyline fill="none" stroke="black" points="52,-144 166,-144 "/>
<path fill="none" stroke="black" d="M166,-144C172,-144 178,-150 178,-156"/>
<polyline fill="none" stroke="black" points="178,-156 178,-168 "/>
<path fill="none" stroke="black" d="M178,-168C178,-174 172,-180 166,-180"/>
<text text-anchor="start" x="48.5" y="-159.233" font-family="Times Roman,serif" font-size="14.00"> Basic set theory </text>
</a>
</g>
<!-- VENN_DIAGRAMS&#45;&gt;INCLUSION_EXCLUSION -->
<g id="edge4" class="edge"><title>VENN_DIAGRAMS&#45;&gt;INCLUSION_EXCLUSION</title>
<path fill="none" stroke="black" d="M109,-143.831C109,-136.131 109,-126.974 109,-118.417"/>
<polygon fill="black" stroke="black" points="112.5,-118.413 109,-108.413 105.5,-118.413 112.5,-118.413"/>
</g>
</g>
</svg>
