<?xml version="1.0" encoding="UTF-8" standalone="no"?>
<!DOCTYPE svg PUBLIC "-//W3C//DTD SVG 1.1//EN"
 "http://www.w3.org/Graphics/SVG/1.1/DTD/svg11.dtd">
<!-- Generated by graphviz version 2.26.3 (20100126.1600)
 -->
<!-- Title: _anonymous_0 Pages: 1 -->
<svg width="218pt" height="188pt"
 viewBox="0.00 0.00 218.00 188.00" xmlns="http://www.w3.org/2000/svg" xmlns:xlink="http://www.w3.org/1999/xlink">
<g id="graph1" class="graph" transform="scale(1 1) rotate(0) translate(4 184)">
<title>_anonymous_0</title>
<!-- INCLUSION_EXCLUSION -->
<g id="node1" class="node"><title>INCLUSION_EXCLUSION</title>
<a xlink:href="INCLUSION_EXCLUSION.html" xlink:title="Inclusion&#45;exclusion principle" target="_top">
<polyline fill="none" stroke="blue" stroke-width="2" points="198,-108 12,-108 "/>
<path fill="none" stroke="blue" stroke-width="2" d="M12,-108C6,-108 7.10543e-14,-102 5.68434e-14,-96"/>
<polyline fill="none" stroke="blue" stroke-width="2" points="5.68434e-14,-96 2.84217e-14,-84 "/>
<path fill="none" stroke="blue" stroke-width="2" d="M2.84217e-14,-84C1.42109e-14,-78 6,-72 12,-72"/>
<polyline fill="none" stroke="blue" stroke-width="2" points="12,-72 198,-72 "/>
<path fill="none" stroke="blue" stroke-width="2" d="M198,-72C204,-72 210,-78 210,-84"/>
<polyline fill="none" stroke="blue" stroke-width="2" points="210,-84 210,-96 "/>
<path fill="none" stroke="blue" stroke-width="2" d="M210,-96C210,-102 204,-108 198,-108"/>
<text text-anchor="start" x="8.5" y="-87.2333" font-family="Times Roman,serif" font-size="14.00">Inclusion&#45;exclusion principle</text>
</a>
</g>
<!-- SET_PARTITIONS -->
<g id="node4" class="node"><title>SET_PARTITIONS</title>
<a xlink:href="SET_PARTITIONS.html" xlink:title="Partition (set theory)" target="_top">
<polyline fill="none" stroke="black" points="174,-36 36,-36 "/>
<path fill="none" stroke="black" d="M36,-36C30,-36 24,-30 24,-24"/>
<polyline fill="none" stroke="black" points="24,-24 24,-12 "/>
<path fill="none" stroke="black" d="M24,-12C24,-6 30,-1.72372e-14 36,-1.67109e-14"/>
<polyline fill="none" stroke="black" points="36,-1.67109e-14 174,-4.60537e-15 "/>
<path fill="none" stroke="black" d="M174,-4.60537e-15C180,-4.07904e-15 186,-6 186,-12"/>
<polyline fill="none" stroke="black" points="186,-12 186,-24 "/>
<path fill="none" stroke="black" d="M186,-24C186,-30 180,-36 174,-36"/>
<text text-anchor="start" x="32" y="-15.2333" font-family="Times Roman,serif" font-size="14.00">Partition (set theory)</text>
</a>
</g>
<!-- INCLUSION_EXCLUSION&#45;&gt;SET_PARTITIONS -->
<g id="edge4" class="edge"><title>INCLUSION_EXCLUSION&#45;&gt;SET_PARTITIONS</title>
<path fill="none" stroke="black" d="M105,-71.8314C105,-64.131 105,-54.9743 105,-46.4166"/>
<polygon fill="black" stroke="black" points="108.5,-46.4132 105,-36.4133 101.5,-46.4133 108.5,-46.4132"/>
</g>
<!-- VENN_DIAGRAMS -->
<g id="node2" class="node"><title>VENN_DIAGRAMS</title>
<a xlink:href="VENN_DIAGRAMS.html" xlink:title="Basic set theory" target="_top">
<polyline fill="none" stroke="black" points="157,-180 53,-180 "/>
<path fill="none" stroke="black" d="M53,-180C47,-180 41,-174 41,-168"/>
<polyline fill="none" stroke="black" points="41,-168 41,-156 "/>
<path fill="none" stroke="black" d="M41,-156C41,-150 47,-144 53,-144"/>
<polyline fill="none" stroke="black" points="53,-144 157,-144 "/>
<path fill="none" stroke="black" d="M157,-144C163,-144 169,-150 169,-156"/>
<polyline fill="none" stroke="black" points="169,-156 169,-168 "/>
<path fill="none" stroke="black" d="M169,-168C169,-174 163,-180 157,-180"/>
<text text-anchor="start" x="49" y="-159.233" font-family="Times Roman,serif" font-size="14.00">Basic set theory</text>
</a>
</g>
<!-- VENN_DIAGRAMS&#45;&gt;INCLUSION_EXCLUSION -->
<g id="edge2" class="edge"><title>VENN_DIAGRAMS&#45;&gt;INCLUSION_EXCLUSION</title>
<path fill="none" stroke="black" d="M105,-143.831C105,-136.131 105,-126.974 105,-118.417"/>
<polygon fill="black" stroke="black" points="108.5,-118.413 105,-108.413 101.5,-118.413 108.5,-118.413"/>
</g>
</g>
</svg>
