<?xml version="1.0" encoding="UTF-8" standalone="no"?>
<!DOCTYPE svg PUBLIC "-//W3C//DTD SVG 1.1//EN"
 "http://www.w3.org/Graphics/SVG/1.1/DTD/svg11.dtd">
<!-- Generated by graphviz version 2.28.0 (20110509.1545)
 -->
<!-- Title: _anonymous_0 Pages: 1 -->
<svg width="188pt" height="188pt"
 viewBox="0.00 0.00 188.00 188.00" xmlns="http://www.w3.org/2000/svg" xmlns:xlink="http://www.w3.org/1999/xlink">
<g id="graph1" class="graph" transform="scale(1 1) rotate(0) translate(4 184)">
<title>_anonymous_0</title>
<!-- INCLUSION_EXCLUSION -->
<g id="node1" class="node"><title>INCLUSION_EXCLUSION</title>
<a xlink:href="INCLUSION_EXCLUSION.html" xlink:title="Inclusion&#45;exclusion principle" target="_top">
<polyline fill="none" stroke="blue" stroke-width="2" points="168,-108 12,-108 "/>
<path fill="none" stroke="blue" stroke-width="2" d="M12,-108C6,-108 0,-102 0,-96"/>
<polyline fill="none" stroke="blue" stroke-width="2" points="0,-96 0,-84 "/>
<path fill="none" stroke="blue" stroke-width="2" d="M0,-84C0,-78 6,-72 12,-72"/>
<polyline fill="none" stroke="blue" stroke-width="2" points="12,-72 168,-72 "/>
<path fill="none" stroke="blue" stroke-width="2" d="M168,-72C174,-72 180,-78 180,-84"/>
<polyline fill="none" stroke="blue" stroke-width="2" points="180,-84 180,-96 "/>
<path fill="none" stroke="blue" stroke-width="2" d="M180,-96C180,-102 174,-108 168,-108"/>
<text text-anchor="start" x="8.5" y="-84.5" font-family="Times,serif" font-size="14.00">Inclusion&#45;exclusion principle</text>
</a>
</g>
<!-- SET_PARTITIONS -->
<g id="node2" class="node"><title>SET_PARTITIONS</title>
<a xlink:href="SET_PARTITIONS.html" xlink:title="Partition (set theory)" target="_top">
<polyline fill="none" stroke="black" points="144,-36 36,-36 "/>
<path fill="none" stroke="black" d="M36,-36C30,-36 24,-30 24,-24"/>
<polyline fill="none" stroke="black" points="24,-24 24,-12 "/>
<path fill="none" stroke="black" d="M24,-12C24,-6 30,-0 36,-0"/>
<polyline fill="none" stroke="black" points="36,-0 144,-0 "/>
<path fill="none" stroke="black" d="M144,-0C150,-0 156,-6 156,-12"/>
<polyline fill="none" stroke="black" points="156,-12 156,-24 "/>
<path fill="none" stroke="black" d="M156,-24C156,-30 150,-36 144,-36"/>
<text text-anchor="start" x="32.5" y="-12.5" font-family="Times,serif" font-size="14.00">Partition (set theory)</text>
</a>
</g>
<!-- INCLUSION_EXCLUSION&#45;&gt;SET_PARTITIONS -->
<g id="edge2" class="edge"><title>INCLUSION_EXCLUSION&#45;&gt;SET_PARTITIONS</title>
<path fill="none" stroke="black" d="M90,-71.6966C90,-63.9827 90,-54.7125 90,-46.1124"/>
<polygon fill="black" stroke="black" points="93.5001,-46.1043 90,-36.1043 86.5001,-46.1044 93.5001,-46.1043"/>
</g>
<!-- VENN_DIAGRAMS -->
<g id="node4" class="node"><title>VENN_DIAGRAMS</title>
<a xlink:href="VENN_DIAGRAMS.html" xlink:title="Basic set theory" target="_top">
<polyline fill="none" stroke="black" points="131,-180 49,-180 "/>
<path fill="none" stroke="black" d="M49,-180C43,-180 37,-174 37,-168"/>
<polyline fill="none" stroke="black" points="37,-168 37,-156 "/>
<path fill="none" stroke="black" d="M37,-156C37,-150 43,-144 49,-144"/>
<polyline fill="none" stroke="black" points="49,-144 131,-144 "/>
<path fill="none" stroke="black" d="M131,-144C137,-144 143,-150 143,-156"/>
<polyline fill="none" stroke="black" points="143,-156 143,-168 "/>
<path fill="none" stroke="black" d="M143,-168C143,-174 137,-180 131,-180"/>
<text text-anchor="start" x="45.5" y="-156.5" font-family="Times,serif" font-size="14.00">Basic set theory</text>
</a>
</g>
<!-- VENN_DIAGRAMS&#45;&gt;INCLUSION_EXCLUSION -->
<g id="edge4" class="edge"><title>VENN_DIAGRAMS&#45;&gt;INCLUSION_EXCLUSION</title>
<path fill="none" stroke="black" d="M90,-143.697C90,-135.983 90,-126.712 90,-118.112"/>
<polygon fill="black" stroke="black" points="93.5001,-118.104 90,-108.104 86.5001,-118.104 93.5001,-118.104"/>
</g>
</g>
</svg>
