<?xml version="1.0" encoding="UTF-8" standalone="no"?>
<!DOCTYPE svg PUBLIC "-//W3C//DTD SVG 1.1//EN"
 "http://www.w3.org/Graphics/SVG/1.1/DTD/svg11.dtd">
<!-- Generated by graphviz version 2.36.0 (20140111.2315)
 -->
<!-- Title: %3 Pages: 1 -->
<svg width="190pt" height="188pt"
 viewBox="0.00 0.00 190.00 188.00" xmlns="http://www.w3.org/2000/svg" xmlns:xlink="http://www.w3.org/1999/xlink">
<g id="graph0" class="graph" transform="scale(1 1) rotate(0) translate(4 184)">
<title>%3</title>
<!-- INCLUSION_EXCLUSION -->
<g id="node1" class="node"><title>INCLUSION_EXCLUSION</title>
<g id="a_node1"><a xlink:href="INCLUSION_EXCLUSION.html" xlink:title=" Inclusion&#45;exclusion principle " target="_top">
<path fill="none" stroke="blue" stroke-width="2" d="M170,-108C170,-108 12,-108 12,-108 6,-108 0,-102 0,-96 0,-96 0,-84 0,-84 0,-78 6,-72 12,-72 12,-72 170,-72 170,-72 176,-72 182,-78 182,-84 182,-84 182,-96 182,-96 182,-102 176,-108 170,-108"/>
<text text-anchor="start" x="8" y="-86.3" font-family="Times,serif" font-size="14.00"> Inclusion&#45;exclusion principle </text>
</a>
</g>
</g>
<!-- SET_PARTITIONS -->
<g id="node2" class="node"><title>SET_PARTITIONS</title>
<g id="a_node2"><a xlink:href="SET_PARTITIONS.html" xlink:title=" Partition (set theory) " target="_top">
<path fill="none" stroke="black" d="M147.25,-36C147.25,-36 34.75,-36 34.75,-36 28.75,-36 22.75,-30 22.75,-24 22.75,-24 22.75,-12 22.75,-12 22.75,-6 28.75,-0 34.75,-0 34.75,-0 147.25,-0 147.25,-0 153.25,-0 159.25,-6 159.25,-12 159.25,-12 159.25,-24 159.25,-24 159.25,-30 153.25,-36 147.25,-36"/>
<text text-anchor="start" x="30.5" y="-14.3" font-family="Times,serif" font-size="14.00"> Partition (set theory) </text>
</a>
</g>
</g>
<!-- INCLUSION_EXCLUSION&#45;&gt;SET_PARTITIONS -->
<g id="edge1" class="edge"><title>INCLUSION_EXCLUSION&#45;&gt;SET_PARTITIONS</title>
<path fill="none" stroke="black" d="M91,-71.6966C91,-63.9827 91,-54.7125 91,-46.1124"/>
<polygon fill="black" stroke="black" points="94.5001,-46.1043 91,-36.1043 87.5001,-46.1044 94.5001,-46.1043"/>
</g>
<!-- VENN_DIAGRAMS -->
<g id="node3" class="node"><title>VENN_DIAGRAMS</title>
<g id="a_node3"><a xlink:href="VENN_DIAGRAMS.html" xlink:title=" Basic set theory " target="_top">
<path fill="none" stroke="black" d="M134.25,-180C134.25,-180 47.75,-180 47.75,-180 41.75,-180 35.75,-174 35.75,-168 35.75,-168 35.75,-156 35.75,-156 35.75,-150 41.75,-144 47.75,-144 47.75,-144 134.25,-144 134.25,-144 140.25,-144 146.25,-150 146.25,-156 146.25,-156 146.25,-168 146.25,-168 146.25,-174 140.25,-180 134.25,-180"/>
<text text-anchor="start" x="43.5" y="-158.3" font-family="Times,serif" font-size="14.00"> Basic set theory </text>
</a>
</g>
</g>
<!-- VENN_DIAGRAMS&#45;&gt;INCLUSION_EXCLUSION -->
<g id="edge2" class="edge"><title>VENN_DIAGRAMS&#45;&gt;INCLUSION_EXCLUSION</title>
<path fill="none" stroke="black" d="M91,-143.697C91,-135.983 91,-126.712 91,-118.112"/>
<polygon fill="black" stroke="black" points="94.5001,-118.104 91,-108.104 87.5001,-118.104 94.5001,-118.104"/>
</g>
</g>
</svg>
