<?xml version="1.0" encoding="UTF-8" standalone="no"?>
<!DOCTYPE svg PUBLIC "-//W3C//DTD SVG 1.1//EN"
 "http://www.w3.org/Graphics/SVG/1.1/DTD/svg11.dtd">
<!-- Generated by graphviz version 2.28.0 (20110509.1545)
 -->
<!-- Title: _anonymous_0 Pages: 1 -->
<svg width="351pt" height="116pt"
 viewBox="0.00 0.00 351.00 116.00" xmlns="http://www.w3.org/2000/svg" xmlns:xlink="http://www.w3.org/1999/xlink">
<g id="graph1" class="graph" transform="scale(1 1) rotate(0) translate(4 112)">
<title>_anonymous_0</title>
<!-- INDEPENDENT_RANDOM_VARIABLES -->
<g id="node1" class="node"><title>INDEPENDENT_RANDOM_VARIABLES</title>
<a xlink:href="INDEPENDENT_RANDOM_VARIABLES.html" xlink:title="Independent random variables" target="_top">
<polyline fill="none" stroke="blue" stroke-width="2" points="245,-36 83,-36 "/>
<path fill="none" stroke="blue" stroke-width="2" d="M83,-36C77,-36 71,-30 71,-24"/>
<polyline fill="none" stroke="blue" stroke-width="2" points="71,-24 71,-12 "/>
<path fill="none" stroke="blue" stroke-width="2" d="M71,-12C71,-6 77,-0 83,-0"/>
<polyline fill="none" stroke="blue" stroke-width="2" points="83,-0 245,-0 "/>
<path fill="none" stroke="blue" stroke-width="2" d="M245,-0C251,-0 257,-6 257,-12"/>
<polyline fill="none" stroke="blue" stroke-width="2" points="257,-12 257,-24 "/>
<path fill="none" stroke="blue" stroke-width="2" d="M257,-24C257,-30 251,-36 245,-36"/>
<text text-anchor="start" x="79.5" y="-12.5" font-family="Times,serif" font-size="14.00">Independent random variables</text>
</a>
</g>
<!-- CONDITIONAL_PROBABILITY -->
<g id="node2" class="node"><title>CONDITIONAL_PROBABILITY</title>
<a xlink:href="CONDITIONAL_PROBABILITY.html" xlink:title="Conditional probability" target="_top">
<polyline fill="none" stroke="black" points="136,-108 12,-108 "/>
<path fill="none" stroke="black" d="M12,-108C6,-108 0,-102 0,-96"/>
<polyline fill="none" stroke="black" points="0,-96 0,-84 "/>
<path fill="none" stroke="black" d="M0,-84C0,-78 6,-72 12,-72"/>
<polyline fill="none" stroke="black" points="12,-72 136,-72 "/>
<path fill="none" stroke="black" d="M136,-72C142,-72 148,-78 148,-84"/>
<polyline fill="none" stroke="black" points="148,-84 148,-96 "/>
<path fill="none" stroke="black" d="M148,-96C148,-102 142,-108 136,-108"/>
<text text-anchor="start" x="8.5" y="-84.5" font-family="Times,serif" font-size="14.00">Conditional probability</text>
</a>
</g>
<!-- CONDITIONAL_PROBABILITY&#45;&gt;INDEPENDENT_RANDOM_VARIABLES -->
<g id="edge2" class="edge"><title>CONDITIONAL_PROBABILITY&#45;&gt;INDEPENDENT_RANDOM_VARIABLES</title>
<path fill="none" stroke="black" d="M96.2472,-71.6966C107.582,-62.8807 121.53,-52.0321 133.819,-42.4742"/>
<polygon fill="black" stroke="black" points="136.264,-45.0065 142.009,-36.1043 131.966,-39.481 136.264,-45.0065"/>
</g>
<!-- JOINT_PROBABILITY_DISTRIBUTION -->
<g id="node4" class="node"><title>JOINT_PROBABILITY_DISTRIBUTION</title>
<a xlink:href="JOINT_PROBABILITY_DISTRIBUTION.html" xlink:title="Joint probability distribution" target="_top">
<polyline fill="none" stroke="black" points="331.25,-108 178.75,-108 "/>
<path fill="none" stroke="black" d="M178.75,-108C172.75,-108 166.75,-102 166.75,-96"/>
<polyline fill="none" stroke="black" points="166.75,-96 166.75,-84 "/>
<path fill="none" stroke="black" d="M166.75,-84C166.75,-78 172.75,-72 178.75,-72"/>
<polyline fill="none" stroke="black" points="178.75,-72 331.25,-72 "/>
<path fill="none" stroke="black" d="M331.25,-72C337.25,-72 343.25,-78 343.25,-84"/>
<polyline fill="none" stroke="black" points="343.25,-84 343.25,-96 "/>
<path fill="none" stroke="black" d="M343.25,-96C343.25,-102 337.25,-108 331.25,-108"/>
<text text-anchor="start" x="175" y="-84.5" font-family="Times,serif" font-size="14.00">Joint probability distribution</text>
</a>
</g>
<!-- JOINT_PROBABILITY_DISTRIBUTION&#45;&gt;INDEPENDENT_RANDOM_VARIABLES -->
<g id="edge4" class="edge"><title>JOINT_PROBABILITY_DISTRIBUTION&#45;&gt;INDEPENDENT_RANDOM_VARIABLES</title>
<path fill="none" stroke="black" d="M232.506,-71.6966C221.045,-62.8807 206.942,-52.0321 194.516,-42.4742"/>
<polygon fill="black" stroke="black" points="196.296,-39.4273 186.236,-36.1043 192.028,-44.9757 196.296,-39.4273"/>
</g>
</g>
</svg>
