<?xml version="1.0" encoding="UTF-8" standalone="no"?>
<!DOCTYPE svg PUBLIC "-//W3C//DTD SVG 1.1//EN"
 "http://www.w3.org/Graphics/SVG/1.1/DTD/svg11.dtd">
<!-- Generated by graphviz version 2.26.3 (20100126.1600)
 -->
<!-- Title: _anonymous_0 Pages: 1 -->
<svg width="426pt" height="188pt"
 viewBox="0.00 0.00 426.00 188.00" xmlns="http://www.w3.org/2000/svg" xmlns:xlink="http://www.w3.org/1999/xlink">
<g id="graph1" class="graph" transform="scale(1 1) rotate(0) translate(4 184)">
<title>_anonymous_0</title>
<!-- INDEPENDENT_RANDOM_VARIABLES -->
<g id="node1" class="node"><title>INDEPENDENT_RANDOM_VARIABLES</title>
<a xlink:href="INDEPENDENT_RANDOM_VARIABLES.html" xlink:title=" Independent random variables " target="_top">
<polyline fill="none" stroke="blue" stroke-width="2" points="324,-108 112,-108 "/>
<path fill="none" stroke="blue" stroke-width="2" d="M112,-108C106,-108 100,-102 100,-96"/>
<polyline fill="none" stroke="blue" stroke-width="2" points="100,-96 100,-84 "/>
<path fill="none" stroke="blue" stroke-width="2" d="M100,-84C100,-78 106,-72 112,-72"/>
<polyline fill="none" stroke="blue" stroke-width="2" points="112,-72 324,-72 "/>
<path fill="none" stroke="blue" stroke-width="2" d="M324,-72C330,-72 336,-78 336,-84"/>
<polyline fill="none" stroke="blue" stroke-width="2" points="336,-84 336,-96 "/>
<path fill="none" stroke="blue" stroke-width="2" d="M336,-96C336,-102 330,-108 324,-108"/>
<text text-anchor="start" x="108" y="-87.2333" font-family="Times Roman,serif" font-size="14.00"> Independent random variables </text>
</a>
</g>
<!-- CENTRAL_LIMIT_THEOREM -->
<g id="node6" class="node"><title>CENTRAL_LIMIT_THEOREM</title>
<a xlink:href="CENTRAL_LIMIT_THEOREM.html" xlink:title=" The central limit theorem " target="_top">
<polyline fill="none" stroke="black" points="205,-36 27,-36 "/>
<path fill="none" stroke="black" d="M27,-36C21,-36 15,-30 15,-24"/>
<polyline fill="none" stroke="black" points="15,-24 15,-12 "/>
<path fill="none" stroke="black" d="M15,-12C15,-6 21,-1.73415e-14 27,-1.69194e-14"/>
<polyline fill="none" stroke="black" points="27,-1.69194e-14 205,-4.39692e-15 "/>
<path fill="none" stroke="black" d="M205,-4.39692e-15C211,-3.97482e-15 217,-6 217,-12"/>
<polyline fill="none" stroke="black" points="217,-12 217,-24 "/>
<path fill="none" stroke="black" d="M217,-24C217,-30 211,-36 205,-36"/>
<text text-anchor="start" x="23" y="-15.2333" font-family="Times Roman,serif" font-size="14.00"> The central limit theorem </text>
</a>
</g>
<!-- INDEPENDENT_RANDOM_VARIABLES&#45;&gt;CENTRAL_LIMIT_THEOREM -->
<g id="edge6" class="edge"><title>INDEPENDENT_RANDOM_VARIABLES&#45;&gt;CENTRAL_LIMIT_THEOREM</title>
<path fill="none" stroke="black" d="M192.261,-71.8314C179.456,-62.7927 163.809,-51.7476 150.028,-42.0198"/>
<polygon fill="black" stroke="black" points="151.919,-39.0703 141.731,-36.1628 147.882,-44.7891 151.919,-39.0703"/>
</g>
<!-- MARKOV_PROPERTY -->
<g id="node8" class="node"><title>MARKOV_PROPERTY</title>
<a xlink:href="MARKOV_PROPERTY.html" xlink:title=" The Markov Property " target="_top">
<polyline fill="none" stroke="black" points="395,-36 247,-36 "/>
<path fill="none" stroke="black" d="M247,-36C241,-36 235,-30 235,-24"/>
<polyline fill="none" stroke="black" points="235,-24 235,-12 "/>
<path fill="none" stroke="black" d="M235,-12C235,-6 241,-1.72678e-14 247,-1.67721e-14"/>
<polyline fill="none" stroke="black" points="247,-1.67721e-14 395,-4.54417e-15 "/>
<path fill="none" stroke="black" d="M395,-4.54417e-15C401,-4.04844e-15 407,-6 407,-12"/>
<polyline fill="none" stroke="black" points="407,-12 407,-24 "/>
<path fill="none" stroke="black" d="M407,-24C407,-30 401,-36 395,-36"/>
<text text-anchor="start" x="243.5" y="-15.2333" font-family="Times Roman,serif" font-size="14.00"> The Markov Property </text>
</a>
</g>
<!-- INDEPENDENT_RANDOM_VARIABLES&#45;&gt;MARKOV_PROPERTY -->
<g id="edge8" class="edge"><title>INDEPENDENT_RANDOM_VARIABLES&#45;&gt;MARKOV_PROPERTY</title>
<path fill="none" stroke="black" d="M243.991,-71.8314C256.922,-62.7927 272.722,-51.7476 286.638,-42.0198"/>
<polygon fill="black" stroke="black" points="288.826,-44.7608 295.017,-36.1628 284.816,-39.0235 288.826,-44.7608"/>
</g>
<!-- JOINT_PROBABILITY_DISTRIBUTION -->
<g id="node2" class="node"><title>JOINT_PROBABILITY_DISTRIBUTION</title>
<a xlink:href="JOINT_PROBABILITY_DISTRIBUTION.html" xlink:title=" Joint probability distribution " target="_top">
<polyline fill="none" stroke="black" points="206,-180 12,-180 "/>
<path fill="none" stroke="black" d="M12,-180C6,-180 9.4739e-14,-174 7.57912e-14,-168"/>
<polyline fill="none" stroke="black" points="7.57912e-14,-168 3.78956e-14,-156 "/>
<path fill="none" stroke="black" d="M3.78956e-14,-156C1.89478e-14,-150 6,-144 12,-144"/>
<polyline fill="none" stroke="black" points="12,-144 206,-144 "/>
<path fill="none" stroke="black" d="M206,-144C212,-144 218,-150 218,-156"/>
<polyline fill="none" stroke="black" points="218,-156 218,-168 "/>
<path fill="none" stroke="black" d="M218,-168C218,-174 212,-180 206,-180"/>
<text text-anchor="start" x="8" y="-159.233" font-family="Times Roman,serif" font-size="14.00"> Joint probability distribution </text>
</a>
</g>
<!-- JOINT_PROBABILITY_DISTRIBUTION&#45;&gt;INDEPENDENT_RANDOM_VARIABLES -->
<g id="edge2" class="edge"><title>JOINT_PROBABILITY_DISTRIBUTION&#45;&gt;INDEPENDENT_RANDOM_VARIABLES</title>
<path fill="none" stroke="black" d="M136.505,-143.831C150.318,-134.707 167.226,-123.539 182.053,-113.745"/>
<polygon fill="black" stroke="black" points="184.089,-116.595 190.503,-108.163 180.23,-110.754 184.089,-116.595"/>
</g>
<!-- CONDITIONAL_PROBABILITY -->
<g id="node4" class="node"><title>CONDITIONAL_PROBABILITY</title>
<a xlink:href="CONDITIONAL_PROBABILITY.html" xlink:title=" Conditional probability " target="_top">
<polyline fill="none" stroke="black" points="406,-180 248,-180 "/>
<path fill="none" stroke="black" d="M248,-180C242,-180 236,-174 236,-168"/>
<polyline fill="none" stroke="black" points="236,-168 236,-156 "/>
<path fill="none" stroke="black" d="M236,-156C236,-150 242,-144 248,-144"/>
<polyline fill="none" stroke="black" points="248,-144 406,-144 "/>
<path fill="none" stroke="black" d="M406,-144C412,-144 418,-150 418,-156"/>
<polyline fill="none" stroke="black" points="418,-156 418,-168 "/>
<path fill="none" stroke="black" d="M418,-168C418,-174 412,-180 406,-180"/>
<text text-anchor="start" x="244.5" y="-159.233" font-family="Times Roman,serif" font-size="14.00"> Conditional probability </text>
</a>
</g>
<!-- CONDITIONAL_PROBABILITY&#45;&gt;INDEPENDENT_RANDOM_VARIABLES -->
<g id="edge4" class="edge"><title>CONDITIONAL_PROBABILITY&#45;&gt;INDEPENDENT_RANDOM_VARIABLES</title>
<path fill="none" stroke="black" d="M299.495,-143.831C285.682,-134.707 268.774,-123.539 253.947,-113.745"/>
<polygon fill="black" stroke="black" points="255.77,-110.754 245.497,-108.163 251.911,-116.595 255.77,-110.754"/>
</g>
</g>
</svg>
