<?xml version="1.0" encoding="UTF-8" standalone="no"?>
<!DOCTYPE svg PUBLIC "-//W3C//DTD SVG 1.1//EN"
 "http://www.w3.org/Graphics/SVG/1.1/DTD/svg11.dtd">
<!-- Generated by graphviz version 2.36.0 (20140111.2315)
 -->
<!-- Title: %3 Pages: 1 -->
<svg width="356pt" height="188pt"
 viewBox="0.00 0.00 356.00 188.00" xmlns="http://www.w3.org/2000/svg" xmlns:xlink="http://www.w3.org/1999/xlink">
<g id="graph0" class="graph" transform="scale(1 1) rotate(0) translate(4 184)">
<title>%3</title>
<!-- INDEPENDENT_RANDOM_VARIABLES -->
<g id="node1" class="node"><title>INDEPENDENT_RANDOM_VARIABLES</title>
<g id="a_node1"><a xlink:href="INDEPENDENT_RANDOM_VARIABLES.html" xlink:title=" Independent random variables " target="_top">
<path fill="none" stroke="blue" stroke-width="2" d="M262.25,-108C262.25,-108 97.75,-108 97.75,-108 91.75,-108 85.75,-102 85.75,-96 85.75,-96 85.75,-84 85.75,-84 85.75,-78 91.75,-72 97.75,-72 97.75,-72 262.25,-72 262.25,-72 268.25,-72 274.25,-78 274.25,-84 274.25,-84 274.25,-96 274.25,-96 274.25,-102 268.25,-108 262.25,-108"/>
<text text-anchor="start" x="93.5" y="-86.3" font-family="Times,serif" font-size="14.00"> Independent random variables </text>
</a>
</g>
</g>
<!-- MARKOV_PROPERTY -->
<g id="node2" class="node"><title>MARKOV_PROPERTY</title>
<g id="a_node2"><a xlink:href="MARKOV_PROPERTY.html" xlink:title=" The Markov Property " target="_top">
<path fill="none" stroke="black" d="M153.25,-36C153.25,-36 34.75,-36 34.75,-36 28.75,-36 22.75,-30 22.75,-24 22.75,-24 22.75,-12 22.75,-12 22.75,-6 28.75,-0 34.75,-0 34.75,-0 153.25,-0 153.25,-0 159.25,-0 165.25,-6 165.25,-12 165.25,-12 165.25,-24 165.25,-24 165.25,-30 159.25,-36 153.25,-36"/>
<text text-anchor="start" x="30.5" y="-14.3" font-family="Times,serif" font-size="14.00"> The Markov Property </text>
</a>
</g>
</g>
<!-- INDEPENDENT_RANDOM_VARIABLES&#45;&gt;MARKOV_PROPERTY -->
<g id="edge1" class="edge"><title>INDEPENDENT_RANDOM_VARIABLES&#45;&gt;MARKOV_PROPERTY</title>
<path fill="none" stroke="black" d="M158.742,-71.6966C147.911,-62.8807 134.582,-52.0321 122.84,-42.4742"/>
<polygon fill="black" stroke="black" points="124.979,-39.7026 115.014,-36.1043 120.56,-45.1316 124.979,-39.7026"/>
</g>
<!-- CENTRAL_LIMIT_THEOREM -->
<g id="node3" class="node"><title>CENTRAL_LIMIT_THEOREM</title>
<g id="a_node3"><a xlink:href="CENTRAL_LIMIT_THEOREM.html" xlink:title=" The central limit theorem " target="_top">
<path fill="none" stroke="black" d="M336,-36C336,-36 196,-36 196,-36 190,-36 184,-30 184,-24 184,-24 184,-12 184,-12 184,-6 190,-0 196,-0 196,-0 336,-0 336,-0 342,-0 348,-6 348,-12 348,-12 348,-24 348,-24 348,-30 342,-36 336,-36"/>
<text text-anchor="start" x="192" y="-14.3" font-family="Times,serif" font-size="14.00"> The central limit theorem </text>
</a>
</g>
</g>
<!-- INDEPENDENT_RANDOM_VARIABLES&#45;&gt;CENTRAL_LIMIT_THEOREM -->
<g id="edge2" class="edge"><title>INDEPENDENT_RANDOM_VARIABLES&#45;&gt;CENTRAL_LIMIT_THEOREM</title>
<path fill="none" stroke="black" d="M201.258,-71.6966C212.089,-62.8807 225.418,-52.0321 237.16,-42.4742"/>
<polygon fill="black" stroke="black" points="239.44,-45.1316 244.986,-36.1043 235.021,-39.7026 239.44,-45.1316"/>
</g>
<!-- JOINT_PROBABILITY_DISTRIBUTION -->
<g id="node4" class="node"><title>JOINT_PROBABILITY_DISTRIBUTION</title>
<g id="a_node4"><a xlink:href="JOINT_PROBABILITY_DISTRIBUTION.html" xlink:title=" Joint probability distribution " target="_top">
<path fill="none" stroke="black" d="M166.25,-180C166.25,-180 11.75,-180 11.75,-180 5.75,-180 -0.25,-174 -0.25,-168 -0.25,-168 -0.25,-156 -0.25,-156 -0.25,-150 5.75,-144 11.75,-144 11.75,-144 166.25,-144 166.25,-144 172.25,-144 178.25,-150 178.25,-156 178.25,-156 178.25,-168 178.25,-168 178.25,-174 172.25,-180 166.25,-180"/>
<text text-anchor="start" x="7.5" y="-158.3" font-family="Times,serif" font-size="14.00"> Joint probability distribution </text>
</a>
</g>
</g>
<!-- JOINT_PROBABILITY_DISTRIBUTION&#45;&gt;INDEPENDENT_RANDOM_VARIABLES -->
<g id="edge3" class="edge"><title>JOINT_PROBABILITY_DISTRIBUTION&#45;&gt;INDEPENDENT_RANDOM_VARIABLES</title>
<path fill="none" stroke="black" d="M111.494,-143.697C122.955,-134.881 137.058,-124.032 149.484,-114.474"/>
<polygon fill="black" stroke="black" points="151.972,-116.976 157.764,-108.104 147.704,-111.427 151.972,-116.976"/>
</g>
<!-- CONDITIONAL_PROBABILITY -->
<g id="node5" class="node"><title>CONDITIONAL_PROBABILITY</title>
<g id="a_node5"><a xlink:href="CONDITIONAL_PROBABILITY.html" xlink:title=" Conditional probability " target="_top">
<path fill="none" stroke="black" d="M335.25,-180C335.25,-180 208.75,-180 208.75,-180 202.75,-180 196.75,-174 196.75,-168 196.75,-168 196.75,-156 196.75,-156 196.75,-150 202.75,-144 208.75,-144 208.75,-144 335.25,-144 335.25,-144 341.25,-144 347.25,-150 347.25,-156 347.25,-156 347.25,-168 347.25,-168 347.25,-174 341.25,-180 335.25,-180"/>
<text text-anchor="start" x="204.5" y="-158.3" font-family="Times,serif" font-size="14.00"> Conditional probability </text>
</a>
</g>
</g>
<!-- CONDITIONAL_PROBABILITY&#45;&gt;INDEPENDENT_RANDOM_VARIABLES -->
<g id="edge4" class="edge"><title>CONDITIONAL_PROBABILITY&#45;&gt;INDEPENDENT_RANDOM_VARIABLES</title>
<path fill="none" stroke="black" d="M249.258,-143.697C237.56,-134.796 223.139,-123.823 210.49,-114.199"/>
<polygon fill="black" stroke="black" points="212.558,-111.374 202.48,-108.104 208.319,-116.945 212.558,-111.374"/>
</g>
</g>
</svg>
