<?xml version="1.0" encoding="UTF-8" standalone="no"?>
<!DOCTYPE svg PUBLIC "-//W3C//DTD SVG 1.1//EN"
 "http://www.w3.org/Graphics/SVG/1.1/DTD/svg11.dtd">
<!-- Generated by graphviz version 2.26.3 (20100126.1600)
 -->
<!-- Title: _anonymous_0 Pages: 1 -->
<svg width="426pt" height="188pt"
 viewBox="0.00 0.00 426.00 188.00" xmlns="http://www.w3.org/2000/svg" xmlns:xlink="http://www.w3.org/1999/xlink">
<g id="graph1" class="graph" transform="scale(1 1) rotate(0) translate(4 184)">
<title>_anonymous_0</title>
<!-- INDEPENDENT_RANDOM_VARIABLES -->
<g id="node1" class="node"><title>INDEPENDENT_RANDOM_VARIABLES</title>
<a xlink:href="INDEPENDENT_RANDOM_VARIABLES.html" xlink:title=" Independent random variables " target="_top">
<polyline fill="none" stroke="blue" stroke-width="2" points="324,-108 112,-108 "/>
<path fill="none" stroke="blue" stroke-width="2" d="M112,-108C106,-108 100,-102 100,-96"/>
<polyline fill="none" stroke="blue" stroke-width="2" points="100,-96 100,-84 "/>
<path fill="none" stroke="blue" stroke-width="2" d="M100,-84C100,-78 106,-72 112,-72"/>
<polyline fill="none" stroke="blue" stroke-width="2" points="112,-72 324,-72 "/>
<path fill="none" stroke="blue" stroke-width="2" d="M324,-72C330,-72 336,-78 336,-84"/>
<polyline fill="none" stroke="blue" stroke-width="2" points="336,-84 336,-96 "/>
<path fill="none" stroke="blue" stroke-width="2" d="M336,-96C336,-102 330,-108 324,-108"/>
<text text-anchor="start" x="108" y="-87.2333" font-family="Times Roman,serif" font-size="14.00"> Independent random variables </text>
</a>
</g>
<!-- MARKOV_PROPERTY -->
<g id="node6" class="node"><title>MARKOV_PROPERTY</title>
<a xlink:href="MARKOV_PROPERTY.html" xlink:title=" The Markov Property " target="_top">
<polyline fill="none" stroke="black" points="292,-36 144,-36 "/>
<path fill="none" stroke="black" d="M144,-36C138,-36 132,-30 132,-24"/>
<polyline fill="none" stroke="black" points="132,-24 132,-12 "/>
<path fill="none" stroke="black" d="M132,-12C132,-6 138,-1.72678e-14 144,-1.67721e-14"/>
<polyline fill="none" stroke="black" points="144,-1.67721e-14 292,-4.54417e-15 "/>
<path fill="none" stroke="black" d="M292,-4.54417e-15C298,-4.04844e-15 304,-6 304,-12"/>
<polyline fill="none" stroke="black" points="304,-12 304,-24 "/>
<path fill="none" stroke="black" d="M304,-24C304,-30 298,-36 292,-36"/>
<text text-anchor="start" x="140.5" y="-15.2333" font-family="Times Roman,serif" font-size="14.00"> The Markov Property </text>
</a>
</g>
<!-- INDEPENDENT_RANDOM_VARIABLES&#45;&gt;MARKOV_PROPERTY -->
<g id="edge6" class="edge"><title>INDEPENDENT_RANDOM_VARIABLES&#45;&gt;MARKOV_PROPERTY</title>
<path fill="none" stroke="black" d="M218,-71.8314C218,-64.131 218,-54.9743 218,-46.4166"/>
<polygon fill="black" stroke="black" points="221.5,-46.4132 218,-36.4133 214.5,-46.4133 221.5,-46.4132"/>
</g>
<!-- JOINT_PROBABILITY_DISTRIBUTION -->
<g id="node2" class="node"><title>JOINT_PROBABILITY_DISTRIBUTION</title>
<a xlink:href="JOINT_PROBABILITY_DISTRIBUTION.html" xlink:title=" Joint probability distribution " target="_top">
<polyline fill="none" stroke="black" points="206,-180 12,-180 "/>
<path fill="none" stroke="black" d="M12,-180C6,-180 9.4739e-14,-174 7.57912e-14,-168"/>
<polyline fill="none" stroke="black" points="7.57912e-14,-168 3.78956e-14,-156 "/>
<path fill="none" stroke="black" d="M3.78956e-14,-156C1.89478e-14,-150 6,-144 12,-144"/>
<polyline fill="none" stroke="black" points="12,-144 206,-144 "/>
<path fill="none" stroke="black" d="M206,-144C212,-144 218,-150 218,-156"/>
<polyline fill="none" stroke="black" points="218,-156 218,-168 "/>
<path fill="none" stroke="black" d="M218,-168C218,-174 212,-180 206,-180"/>
<text text-anchor="start" x="8" y="-159.233" font-family="Times Roman,serif" font-size="14.00"> Joint probability distribution </text>
</a>
</g>
<!-- JOINT_PROBABILITY_DISTRIBUTION&#45;&gt;INDEPENDENT_RANDOM_VARIABLES -->
<g id="edge2" class="edge"><title>JOINT_PROBABILITY_DISTRIBUTION&#45;&gt;INDEPENDENT_RANDOM_VARIABLES</title>
<path fill="none" stroke="black" d="M136.505,-143.831C150.318,-134.707 167.226,-123.539 182.053,-113.745"/>
<polygon fill="black" stroke="black" points="184.089,-116.595 190.503,-108.163 180.23,-110.754 184.089,-116.595"/>
</g>
<!-- CONDITIONAL_PROBABILITY -->
<g id="node4" class="node"><title>CONDITIONAL_PROBABILITY</title>
<a xlink:href="CONDITIONAL_PROBABILITY.html" xlink:title=" Conditional probability " target="_top">
<polyline fill="none" stroke="black" points="406,-180 248,-180 "/>
<path fill="none" stroke="black" d="M248,-180C242,-180 236,-174 236,-168"/>
<polyline fill="none" stroke="black" points="236,-168 236,-156 "/>
<path fill="none" stroke="black" d="M236,-156C236,-150 242,-144 248,-144"/>
<polyline fill="none" stroke="black" points="248,-144 406,-144 "/>
<path fill="none" stroke="black" d="M406,-144C412,-144 418,-150 418,-156"/>
<polyline fill="none" stroke="black" points="418,-156 418,-168 "/>
<path fill="none" stroke="black" d="M418,-168C418,-174 412,-180 406,-180"/>
<text text-anchor="start" x="244.5" y="-159.233" font-family="Times Roman,serif" font-size="14.00"> Conditional probability </text>
</a>
</g>
<!-- CONDITIONAL_PROBABILITY&#45;&gt;INDEPENDENT_RANDOM_VARIABLES -->
<g id="edge4" class="edge"><title>CONDITIONAL_PROBABILITY&#45;&gt;INDEPENDENT_RANDOM_VARIABLES</title>
<path fill="none" stroke="black" d="M299.495,-143.831C285.682,-134.707 268.774,-123.539 253.947,-113.745"/>
<polygon fill="black" stroke="black" points="255.77,-110.754 245.497,-108.163 251.911,-116.595 255.77,-110.754"/>
</g>
</g>
</svg>
