<?xml version="1.0" encoding="UTF-8" standalone="no"?>
<!DOCTYPE svg PUBLIC "-//W3C//DTD SVG 1.1//EN"
 "http://www.w3.org/Graphics/SVG/1.1/DTD/svg11.dtd">
<!-- Generated by graphviz version 2.26.3 (20100126.1600)
 -->
<!-- Title: _anonymous_0 Pages: 1 -->
<svg width="408pt" height="188pt"
 viewBox="0.00 0.00 408.00 188.00" xmlns="http://www.w3.org/2000/svg" xmlns:xlink="http://www.w3.org/1999/xlink">
<g id="graph1" class="graph" transform="scale(1 1) rotate(0) translate(4 184)">
<title>_anonymous_0</title>
<!-- INDEPENDENT_RANDOM_VARIABLES -->
<g id="node1" class="node"><title>INDEPENDENT_RANDOM_VARIABLES</title>
<a xlink:href="INDEPENDENT_RANDOM_VARIABLES.html" xlink:title="Independent random variables" target="_top">
<polyline fill="none" stroke="blue" stroke-width="2" points="311,-108 107,-108 "/>
<path fill="none" stroke="blue" stroke-width="2" d="M107,-108C101,-108 95,-102 95,-96"/>
<polyline fill="none" stroke="blue" stroke-width="2" points="95,-96 95,-84 "/>
<path fill="none" stroke="blue" stroke-width="2" d="M95,-84C95,-78 101,-72 107,-72"/>
<polyline fill="none" stroke="blue" stroke-width="2" points="107,-72 311,-72 "/>
<path fill="none" stroke="blue" stroke-width="2" d="M311,-72C317,-72 323,-78 323,-84"/>
<polyline fill="none" stroke="blue" stroke-width="2" points="323,-84 323,-96 "/>
<path fill="none" stroke="blue" stroke-width="2" d="M323,-96C323,-102 317,-108 311,-108"/>
<text text-anchor="start" x="103.5" y="-87.2333" font-family="Times Roman,serif" font-size="14.00">Independent random variables</text>
</a>
</g>
<!-- MARKOV_PROPERTY -->
<g id="node6" class="node"><title>MARKOV_PROPERTY</title>
<a xlink:href="MARKOV_PROPERTY.html" xlink:title="The Markov Property" target="_top">
<polyline fill="none" stroke="black" points="278,-36 140,-36 "/>
<path fill="none" stroke="black" d="M140,-36C134,-36 128,-30 128,-24"/>
<polyline fill="none" stroke="black" points="128,-24 128,-12 "/>
<path fill="none" stroke="black" d="M128,-12C128,-6 134,-1.72372e-14 140,-1.67109e-14"/>
<polyline fill="none" stroke="black" points="140,-1.67109e-14 278,-4.60537e-15 "/>
<path fill="none" stroke="black" d="M278,-4.60537e-15C284,-4.07904e-15 290,-6 290,-12"/>
<polyline fill="none" stroke="black" points="290,-12 290,-24 "/>
<path fill="none" stroke="black" d="M290,-24C290,-30 284,-36 278,-36"/>
<text text-anchor="start" x="136" y="-15.2333" font-family="Times Roman,serif" font-size="14.00">The Markov Property</text>
</a>
</g>
<!-- INDEPENDENT_RANDOM_VARIABLES&#45;&gt;MARKOV_PROPERTY -->
<g id="edge6" class="edge"><title>INDEPENDENT_RANDOM_VARIABLES&#45;&gt;MARKOV_PROPERTY</title>
<path fill="none" stroke="black" d="M209,-71.8314C209,-64.131 209,-54.9743 209,-46.4166"/>
<polygon fill="black" stroke="black" points="212.5,-46.4132 209,-36.4133 205.5,-46.4133 212.5,-46.4132"/>
</g>
<!-- JOINT_PROBABILITY_DISTRIBUTION -->
<g id="node2" class="node"><title>JOINT_PROBABILITY_DISTRIBUTION</title>
<a xlink:href="JOINT_PROBABILITY_DISTRIBUTION.html" xlink:title="Joint probability distribution" target="_top">
<polyline fill="none" stroke="black" points="198,-180 12,-180 "/>
<path fill="none" stroke="black" d="M12,-180C6,-180 7.10543e-14,-174 5.68434e-14,-168"/>
<polyline fill="none" stroke="black" points="5.68434e-14,-168 2.84217e-14,-156 "/>
<path fill="none" stroke="black" d="M2.84217e-14,-156C1.42109e-14,-150 6,-144 12,-144"/>
<polyline fill="none" stroke="black" points="12,-144 198,-144 "/>
<path fill="none" stroke="black" d="M198,-144C204,-144 210,-150 210,-156"/>
<polyline fill="none" stroke="black" points="210,-156 210,-168 "/>
<path fill="none" stroke="black" d="M210,-168C210,-174 204,-180 198,-180"/>
<text text-anchor="start" x="8.5" y="-159.233" font-family="Times Roman,serif" font-size="14.00">Joint probability distribution</text>
</a>
</g>
<!-- JOINT_PROBABILITY_DISTRIBUTION&#45;&gt;INDEPENDENT_RANDOM_VARIABLES -->
<g id="edge2" class="edge"><title>JOINT_PROBABILITY_DISTRIBUTION&#45;&gt;INDEPENDENT_RANDOM_VARIABLES</title>
<path fill="none" stroke="black" d="M131.244,-143.831C144.299,-134.793 160.253,-123.748 174.305,-114.02"/>
<polygon fill="black" stroke="black" points="176.535,-116.733 182.765,-108.163 172.551,-110.977 176.535,-116.733"/>
</g>
<!-- CONDITIONAL_PROBABILITY -->
<g id="node4" class="node"><title>CONDITIONAL_PROBABILITY</title>
<a xlink:href="CONDITIONAL_PROBABILITY.html" xlink:title="Conditional probability" target="_top">
<polyline fill="none" stroke="black" points="388,-180 240,-180 "/>
<path fill="none" stroke="black" d="M240,-180C234,-180 228,-174 228,-168"/>
<polyline fill="none" stroke="black" points="228,-168 228,-156 "/>
<path fill="none" stroke="black" d="M228,-156C228,-150 234,-144 240,-144"/>
<polyline fill="none" stroke="black" points="240,-144 388,-144 "/>
<path fill="none" stroke="black" d="M388,-144C394,-144 400,-150 400,-156"/>
<polyline fill="none" stroke="black" points="400,-156 400,-168 "/>
<path fill="none" stroke="black" d="M400,-168C400,-174 394,-180 388,-180"/>
<text text-anchor="start" x="236" y="-159.233" font-family="Times Roman,serif" font-size="14.00">Conditional probability</text>
</a>
</g>
<!-- CONDITIONAL_PROBABILITY&#45;&gt;INDEPENDENT_RANDOM_VARIABLES -->
<g id="edge4" class="edge"><title>CONDITIONAL_PROBABILITY&#45;&gt;INDEPENDENT_RANDOM_VARIABLES</title>
<path fill="none" stroke="black" d="M287.504,-143.831C274.323,-134.793 258.215,-123.748 244.029,-114.02"/>
<polygon fill="black" stroke="black" points="245.714,-110.932 235.487,-108.163 241.755,-116.705 245.714,-110.932"/>
</g>
</g>
</svg>
