<?xml version="1.0" encoding="UTF-8" standalone="no"?>
<!DOCTYPE svg PUBLIC "-//W3C//DTD SVG 1.1//EN"
 "http://www.w3.org/Graphics/SVG/1.1/DTD/svg11.dtd">
<!-- Generated by graphviz version 2.28.0 (20110509.1545)
 -->
<!-- Title: _anonymous_0 Pages: 1 -->
<svg width="351pt" height="188pt"
 viewBox="0.00 0.00 351.00 188.00" xmlns="http://www.w3.org/2000/svg" xmlns:xlink="http://www.w3.org/1999/xlink">
<g id="graph1" class="graph" transform="scale(1 1) rotate(0) translate(4 184)">
<title>_anonymous_0</title>
<!-- INDEPENDENT_RANDOM_VARIABLES -->
<g id="node1" class="node"><title>INDEPENDENT_RANDOM_VARIABLES</title>
<a xlink:href="INDEPENDENT_RANDOM_VARIABLES.html" xlink:title="Independent random variables" target="_top">
<polyline fill="none" stroke="blue" stroke-width="2" points="245,-108 83,-108 "/>
<path fill="none" stroke="blue" stroke-width="2" d="M83,-108C77,-108 71,-102 71,-96"/>
<polyline fill="none" stroke="blue" stroke-width="2" points="71,-96 71,-84 "/>
<path fill="none" stroke="blue" stroke-width="2" d="M71,-84C71,-78 77,-72 83,-72"/>
<polyline fill="none" stroke="blue" stroke-width="2" points="83,-72 245,-72 "/>
<path fill="none" stroke="blue" stroke-width="2" d="M245,-72C251,-72 257,-78 257,-84"/>
<polyline fill="none" stroke="blue" stroke-width="2" points="257,-84 257,-96 "/>
<path fill="none" stroke="blue" stroke-width="2" d="M257,-96C257,-102 251,-108 245,-108"/>
<text text-anchor="start" x="79.5" y="-84.5" font-family="Times,serif" font-size="14.00">Independent random variables</text>
</a>
</g>
<!-- MARKOV_PROPERTY -->
<g id="node6" class="node"><title>MARKOV_PROPERTY</title>
<a xlink:href="MARKOV_PROPERTY.html" xlink:title="The Markov Property" target="_top">
<polyline fill="none" stroke="black" points="221,-36 107,-36 "/>
<path fill="none" stroke="black" d="M107,-36C101,-36 95,-30 95,-24"/>
<polyline fill="none" stroke="black" points="95,-24 95,-12 "/>
<path fill="none" stroke="black" d="M95,-12C95,-6 101,-0 107,-0"/>
<polyline fill="none" stroke="black" points="107,-0 221,-0 "/>
<path fill="none" stroke="black" d="M221,-0C227,-0 233,-6 233,-12"/>
<polyline fill="none" stroke="black" points="233,-12 233,-24 "/>
<path fill="none" stroke="black" d="M233,-24C233,-30 227,-36 221,-36"/>
<text text-anchor="start" x="103.5" y="-12.5" font-family="Times,serif" font-size="14.00">The Markov Property</text>
</a>
</g>
<!-- INDEPENDENT_RANDOM_VARIABLES&#45;&gt;MARKOV_PROPERTY -->
<g id="edge6" class="edge"><title>INDEPENDENT_RANDOM_VARIABLES&#45;&gt;MARKOV_PROPERTY</title>
<path fill="none" stroke="black" d="M164,-71.6966C164,-63.9827 164,-54.7125 164,-46.1124"/>
<polygon fill="black" stroke="black" points="167.5,-46.1043 164,-36.1043 160.5,-46.1044 167.5,-46.1043"/>
</g>
<!-- CONDITIONAL_PROBABILITY -->
<g id="node2" class="node"><title>CONDITIONAL_PROBABILITY</title>
<a xlink:href="CONDITIONAL_PROBABILITY.html" xlink:title="Conditional probability" target="_top">
<polyline fill="none" stroke="black" points="136,-180 12,-180 "/>
<path fill="none" stroke="black" d="M12,-180C6,-180 0,-174 0,-168"/>
<polyline fill="none" stroke="black" points="0,-168 0,-156 "/>
<path fill="none" stroke="black" d="M0,-156C0,-150 6,-144 12,-144"/>
<polyline fill="none" stroke="black" points="12,-144 136,-144 "/>
<path fill="none" stroke="black" d="M136,-144C142,-144 148,-150 148,-156"/>
<polyline fill="none" stroke="black" points="148,-156 148,-168 "/>
<path fill="none" stroke="black" d="M148,-168C148,-174 142,-180 136,-180"/>
<text text-anchor="start" x="8.5" y="-156.5" font-family="Times,serif" font-size="14.00">Conditional probability</text>
</a>
</g>
<!-- CONDITIONAL_PROBABILITY&#45;&gt;INDEPENDENT_RANDOM_VARIABLES -->
<g id="edge2" class="edge"><title>CONDITIONAL_PROBABILITY&#45;&gt;INDEPENDENT_RANDOM_VARIABLES</title>
<path fill="none" stroke="black" d="M96.2472,-143.697C107.582,-134.881 121.53,-124.032 133.819,-114.474"/>
<polygon fill="black" stroke="black" points="136.264,-117.007 142.009,-108.104 131.966,-111.481 136.264,-117.007"/>
</g>
<!-- JOINT_PROBABILITY_DISTRIBUTION -->
<g id="node4" class="node"><title>JOINT_PROBABILITY_DISTRIBUTION</title>
<a xlink:href="JOINT_PROBABILITY_DISTRIBUTION.html" xlink:title="Joint probability distribution" target="_top">
<polyline fill="none" stroke="black" points="331.25,-180 178.75,-180 "/>
<path fill="none" stroke="black" d="M178.75,-180C172.75,-180 166.75,-174 166.75,-168"/>
<polyline fill="none" stroke="black" points="166.75,-168 166.75,-156 "/>
<path fill="none" stroke="black" d="M166.75,-156C166.75,-150 172.75,-144 178.75,-144"/>
<polyline fill="none" stroke="black" points="178.75,-144 331.25,-144 "/>
<path fill="none" stroke="black" d="M331.25,-144C337.25,-144 343.25,-150 343.25,-156"/>
<polyline fill="none" stroke="black" points="343.25,-156 343.25,-168 "/>
<path fill="none" stroke="black" d="M343.25,-168C343.25,-174 337.25,-180 331.25,-180"/>
<text text-anchor="start" x="175" y="-156.5" font-family="Times,serif" font-size="14.00">Joint probability distribution</text>
</a>
</g>
<!-- JOINT_PROBABILITY_DISTRIBUTION&#45;&gt;INDEPENDENT_RANDOM_VARIABLES -->
<g id="edge4" class="edge"><title>JOINT_PROBABILITY_DISTRIBUTION&#45;&gt;INDEPENDENT_RANDOM_VARIABLES</title>
<path fill="none" stroke="black" d="M232.506,-143.697C221.045,-134.881 206.942,-124.032 194.516,-114.474"/>
<polygon fill="black" stroke="black" points="196.296,-111.427 186.236,-108.104 192.028,-116.976 196.296,-111.427"/>
</g>
</g>
</svg>
