<?xml version="1.0" encoding="UTF-8" standalone="no"?>
<!DOCTYPE svg PUBLIC "-//W3C//DTD SVG 1.1//EN"
 "http://www.w3.org/Graphics/SVG/1.1/DTD/svg11.dtd">
<!-- Generated by graphviz version 2.26.3 (20100126.1600)
 -->
<!-- Title: _anonymous_0 Pages: 1 -->
<svg width="408pt" height="188pt"
 viewBox="0.00 0.00 408.00 188.00" xmlns="http://www.w3.org/2000/svg" xmlns:xlink="http://www.w3.org/1999/xlink">
<g id="graph1" class="graph" transform="scale(1 1) rotate(0) translate(4 184)">
<title>_anonymous_0</title>
<!-- INDEPENDENT_RANDOM_VARIABLES -->
<g id="node1" class="node"><title>INDEPENDENT_RANDOM_VARIABLES</title>
<a xlink:href="INDEPENDENT_RANDOM_VARIABLES.html" xlink:title="Independent random variables" target="_top">
<polyline fill="none" stroke="blue" stroke-width="2" points="292,-108 88,-108 "/>
<path fill="none" stroke="blue" stroke-width="2" d="M88,-108C82,-108 76,-102 76,-96"/>
<polyline fill="none" stroke="blue" stroke-width="2" points="76,-96 76,-84 "/>
<path fill="none" stroke="blue" stroke-width="2" d="M76,-84C76,-78 82,-72 88,-72"/>
<polyline fill="none" stroke="blue" stroke-width="2" points="88,-72 292,-72 "/>
<path fill="none" stroke="blue" stroke-width="2" d="M292,-72C298,-72 304,-78 304,-84"/>
<polyline fill="none" stroke="blue" stroke-width="2" points="304,-84 304,-96 "/>
<path fill="none" stroke="blue" stroke-width="2" d="M304,-96C304,-102 298,-108 292,-108"/>
<text text-anchor="start" x="84.5" y="-87.2333" font-family="Times Roman,serif" font-size="14.00">Independent random variables</text>
</a>
</g>
<!-- MARKOV_PROPERTY -->
<g id="node2" class="node"><title>MARKOV_PROPERTY</title>
<a xlink:href="MARKOV_PROPERTY.html" xlink:title="The Markov Property" target="_top">
<polyline fill="none" stroke="black" points="259,-36 121,-36 "/>
<path fill="none" stroke="black" d="M121,-36C115,-36 109,-30 109,-24"/>
<polyline fill="none" stroke="black" points="109,-24 109,-12 "/>
<path fill="none" stroke="black" d="M109,-12C109,-6 115,-1.72372e-14 121,-1.67109e-14"/>
<polyline fill="none" stroke="black" points="121,-1.67109e-14 259,-4.60537e-15 "/>
<path fill="none" stroke="black" d="M259,-4.60537e-15C265,-4.07904e-15 271,-6 271,-12"/>
<polyline fill="none" stroke="black" points="271,-12 271,-24 "/>
<path fill="none" stroke="black" d="M271,-24C271,-30 265,-36 259,-36"/>
<text text-anchor="start" x="117" y="-15.2333" font-family="Times Roman,serif" font-size="14.00">The Markov Property</text>
</a>
</g>
<!-- INDEPENDENT_RANDOM_VARIABLES&#45;&gt;MARKOV_PROPERTY -->
<g id="edge2" class="edge"><title>INDEPENDENT_RANDOM_VARIABLES&#45;&gt;MARKOV_PROPERTY</title>
<path fill="none" stroke="black" d="M190,-71.8314C190,-64.131 190,-54.9743 190,-46.4166"/>
<polygon fill="black" stroke="black" points="193.5,-46.4132 190,-36.4133 186.5,-46.4133 193.5,-46.4132"/>
</g>
<!-- CONDITIONAL_PROBABILITY -->
<g id="node4" class="node"><title>CONDITIONAL_PROBABILITY</title>
<a xlink:href="CONDITIONAL_PROBABILITY.html" xlink:title="Conditional probability" target="_top">
<polyline fill="none" stroke="black" points="160,-180 12,-180 "/>
<path fill="none" stroke="black" d="M12,-180C6,-180 7.10543e-14,-174 5.68434e-14,-168"/>
<polyline fill="none" stroke="black" points="5.68434e-14,-168 2.84217e-14,-156 "/>
<path fill="none" stroke="black" d="M2.84217e-14,-156C1.42109e-14,-150 6,-144 12,-144"/>
<polyline fill="none" stroke="black" points="12,-144 160,-144 "/>
<path fill="none" stroke="black" d="M160,-144C166,-144 172,-150 172,-156"/>
<polyline fill="none" stroke="black" points="172,-156 172,-168 "/>
<path fill="none" stroke="black" d="M172,-168C172,-174 166,-180 160,-180"/>
<text text-anchor="start" x="8" y="-159.233" font-family="Times Roman,serif" font-size="14.00">Conditional probability</text>
</a>
</g>
<!-- CONDITIONAL_PROBABILITY&#45;&gt;INDEPENDENT_RANDOM_VARIABLES -->
<g id="edge4" class="edge"><title>CONDITIONAL_PROBABILITY&#45;&gt;INDEPENDENT_RANDOM_VARIABLES</title>
<path fill="none" stroke="black" d="M112.244,-143.831C125.299,-134.793 141.253,-123.748 155.305,-114.02"/>
<polygon fill="black" stroke="black" points="157.535,-116.733 163.765,-108.163 153.551,-110.977 157.535,-116.733"/>
</g>
<!-- JOINT_PROBABILITY_DISTRIBUTION -->
<g id="node6" class="node"><title>JOINT_PROBABILITY_DISTRIBUTION</title>
<a xlink:href="JOINT_PROBABILITY_DISTRIBUTION.html" xlink:title="Joint probability distribution" target="_top">
<polyline fill="none" stroke="black" points="388,-180 202,-180 "/>
<path fill="none" stroke="black" d="M202,-180C196,-180 190,-174 190,-168"/>
<polyline fill="none" stroke="black" points="190,-168 190,-156 "/>
<path fill="none" stroke="black" d="M190,-156C190,-150 196,-144 202,-144"/>
<polyline fill="none" stroke="black" points="202,-144 388,-144 "/>
<path fill="none" stroke="black" d="M388,-144C394,-144 400,-150 400,-156"/>
<polyline fill="none" stroke="black" points="400,-156 400,-168 "/>
<path fill="none" stroke="black" d="M400,-168C400,-174 394,-180 388,-180"/>
<text text-anchor="start" x="198.5" y="-159.233" font-family="Times Roman,serif" font-size="14.00">Joint probability distribution</text>
</a>
</g>
<!-- JOINT_PROBABILITY_DISTRIBUTION&#45;&gt;INDEPENDENT_RANDOM_VARIABLES -->
<g id="edge6" class="edge"><title>JOINT_PROBABILITY_DISTRIBUTION&#45;&gt;INDEPENDENT_RANDOM_VARIABLES</title>
<path fill="none" stroke="black" d="M268.504,-143.831C255.323,-134.793 239.215,-123.748 225.029,-114.02"/>
<polygon fill="black" stroke="black" points="226.714,-110.932 216.487,-108.163 222.755,-116.705 226.714,-110.932"/>
</g>
</g>
</svg>
