<?xml version="1.0" encoding="UTF-8" standalone="no"?>
<!DOCTYPE svg PUBLIC "-//W3C//DTD SVG 1.1//EN"
 "http://www.w3.org/Graphics/SVG/1.1/DTD/svg11.dtd">
<!-- Generated by graphviz version 2.26.3 (20100126.1600)
 -->
<!-- Title: _anonymous_0 Pages: 1 -->
<svg width="428pt" height="188pt"
 viewBox="0.00 0.00 428.00 188.00" xmlns="http://www.w3.org/2000/svg" xmlns:xlink="http://www.w3.org/1999/xlink">
<g id="graph1" class="graph" transform="scale(1 1) rotate(0) translate(4 184)">
<title>_anonymous_0</title>
<!-- INFORMATION_THEORY -->
<g id="node1" class="node"><title>INFORMATION_THEORY</title>
<a xlink:href="INFORMATION_THEORY.html" xlink:title=" Information theory &#160;" target="_top">
<polyline fill="none" stroke="blue" stroke-width="2" points="252,-108 114,-108 "/>
<path fill="none" stroke="blue" stroke-width="2" d="M114,-108C108,-108 102,-102 102,-96"/>
<polyline fill="none" stroke="blue" stroke-width="2" points="102,-96 102,-84 "/>
<path fill="none" stroke="blue" stroke-width="2" d="M102,-84C102,-78 108,-72 114,-72"/>
<polyline fill="none" stroke="blue" stroke-width="2" points="114,-72 252,-72 "/>
<path fill="none" stroke="blue" stroke-width="2" d="M252,-72C258,-72 264,-78 264,-84"/>
<polyline fill="none" stroke="blue" stroke-width="2" points="264,-84 264,-96 "/>
<path fill="none" stroke="blue" stroke-width="2" d="M264,-96C264,-102 258,-108 252,-108"/>
<text text-anchor="start" x="110.5" y="-87.2333" font-family="Times Roman,serif" font-size="14.00"> Information theory &#160;</text>
</a>
</g>
<!-- GENERALIZED_PARTITION_FUNCTION -->
<g id="node4" class="node"><title>GENERALIZED_PARTITION_FUNCTION</title>
<a xlink:href="GENERALIZED_PARTITION_FUNCTION.html" xlink:title=" The generalized partition function " target="_top">
<polyline fill="none" stroke="black" points="302,-36 64,-36 "/>
<path fill="none" stroke="black" d="M64,-36C58,-36 52,-30 52,-24"/>
<polyline fill="none" stroke="black" points="52,-24 52,-12 "/>
<path fill="none" stroke="black" d="M52,-12C52,-6 58,-1.74381e-14 64,-1.71127e-14"/>
<polyline fill="none" stroke="black" points="64,-1.71127e-14 302,-4.20359e-15 "/>
<path fill="none" stroke="black" d="M302,-4.20359e-15C308,-3.87815e-15 314,-6 314,-12"/>
<polyline fill="none" stroke="black" points="314,-12 314,-24 "/>
<path fill="none" stroke="black" d="M314,-24C314,-30 308,-36 302,-36"/>
<text text-anchor="start" x="60.5" y="-15.2333" font-family="Times Roman,serif" font-size="14.00"> The generalized partition function </text>
</a>
</g>
<!-- INFORMATION_THEORY&#45;&gt;GENERALIZED_PARTITION_FUNCTION -->
<g id="edge4" class="edge"><title>INFORMATION_THEORY&#45;&gt;GENERALIZED_PARTITION_FUNCTION</title>
<path fill="none" stroke="black" d="M183,-71.8314C183,-64.131 183,-54.9743 183,-46.4166"/>
<polygon fill="black" stroke="black" points="186.5,-46.4132 183,-36.4133 179.5,-46.4133 186.5,-46.4132"/>
</g>
<!-- RANDOM_VARIABLES -->
<g id="node2" class="node"><title>RANDOM_VARIABLES</title>
<a xlink:href="RANDOM_VARIABLES.html" xlink:title=" Random variables " target="_top">
<polyline fill="none" stroke="black" points="136,-180 12,-180 "/>
<path fill="none" stroke="black" d="M12,-180C6,-180 5.92119e-14,-174 4.73695e-14,-168"/>
<polyline fill="none" stroke="black" points="4.73695e-14,-168 2.36848e-14,-156 "/>
<path fill="none" stroke="black" d="M2.36848e-14,-156C1.18424e-14,-150 6,-144 12,-144"/>
<polyline fill="none" stroke="black" points="12,-144 136,-144 "/>
<path fill="none" stroke="black" d="M136,-144C142,-144 148,-150 148,-156"/>
<polyline fill="none" stroke="black" points="148,-156 148,-168 "/>
<path fill="none" stroke="black" d="M148,-168C148,-174 142,-180 136,-180"/>
<text text-anchor="start" x="8" y="-159.233" font-family="Times Roman,serif" font-size="14.00"> Random variables </text>
</a>
</g>
<!-- RANDOM_VARIABLES&#45;&gt;INFORMATION_THEORY -->
<g id="edge2" class="edge"><title>RANDOM_VARIABLES&#45;&gt;INFORMATION_THEORY</title>
<path fill="none" stroke="black" d="M101.505,-143.831C115.318,-134.707 132.226,-123.539 147.053,-113.745"/>
<polygon fill="black" stroke="black" points="149.089,-116.595 155.503,-108.163 145.23,-110.754 149.089,-116.595"/>
</g>
<!-- SUMMATIONS -->
<g id="node6" class="node"><title>SUMMATIONS</title>
<a xlink:href="SUMMATIONS.html" xlink:title=" Summation and product notation " target="_top">
<polyline fill="none" stroke="black" points="408,-180 178,-180 "/>
<path fill="none" stroke="black" d="M178,-180C172,-180 166,-174 166,-168"/>
<polyline fill="none" stroke="black" points="166,-168 166,-156 "/>
<path fill="none" stroke="black" d="M166,-156C166,-150 172,-144 178,-144"/>
<polyline fill="none" stroke="black" points="178,-144 408,-144 "/>
<path fill="none" stroke="black" d="M408,-144C414,-144 420,-150 420,-156"/>
<polyline fill="none" stroke="black" points="420,-156 420,-168 "/>
<path fill="none" stroke="black" d="M420,-168C420,-174 414,-180 408,-180"/>
<text text-anchor="start" x="174" y="-159.233" font-family="Times Roman,serif" font-size="14.00"> Summation and product notation </text>
</a>
</g>
<!-- SUMMATIONS&#45;&gt;INFORMATION_THEORY -->
<g id="edge6" class="edge"><title>SUMMATIONS&#45;&gt;INFORMATION_THEORY</title>
<path fill="none" stroke="black" d="M265.242,-143.831C251.303,-134.707 234.24,-123.539 219.277,-113.745"/>
<polygon fill="black" stroke="black" points="221.033,-110.711 210.749,-108.163 217.199,-116.568 221.033,-110.711"/>
</g>
</g>
</svg>
