<?xml version="1.0" encoding="UTF-8" standalone="no"?>
<!DOCTYPE svg PUBLIC "-//W3C//DTD SVG 1.1//EN"
 "http://www.w3.org/Graphics/SVG/1.1/DTD/svg11.dtd">
<!-- Generated by graphviz version 2.26.3 (20100126.1600)
 -->
<!-- Title: _anonymous_0 Pages: 1 -->
<svg width="412pt" height="188pt"
 viewBox="0.00 0.00 412.00 188.00" xmlns="http://www.w3.org/2000/svg" xmlns:xlink="http://www.w3.org/1999/xlink">
<g id="graph1" class="graph" transform="scale(1 1) rotate(0) translate(4 184)">
<title>_anonymous_0</title>
<!-- INFORMATION_THEORY -->
<g id="node1" class="node"><title>INFORMATION_THEORY</title>
<a xlink:href="INFORMATION_THEORY.html" xlink:title="Information theory " target="_top">
<polyline fill="none" stroke="blue" stroke-width="2" points="292,-108 164,-108 "/>
<path fill="none" stroke="blue" stroke-width="2" d="M164,-108C158,-108 152,-102 152,-96"/>
<polyline fill="none" stroke="blue" stroke-width="2" points="152,-96 152,-84 "/>
<path fill="none" stroke="blue" stroke-width="2" d="M152,-84C152,-78 158,-72 164,-72"/>
<polyline fill="none" stroke="blue" stroke-width="2" points="164,-72 292,-72 "/>
<path fill="none" stroke="blue" stroke-width="2" d="M292,-72C298,-72 304,-78 304,-84"/>
<polyline fill="none" stroke="blue" stroke-width="2" points="304,-84 304,-96 "/>
<path fill="none" stroke="blue" stroke-width="2" d="M304,-96C304,-102 298,-108 292,-108"/>
<text text-anchor="start" x="160" y="-87.2333" font-family="Times Roman,serif" font-size="14.00">Information theory </text>
</a>
</g>
<!-- GENERALIZED_PARTITION_FUNCTION -->
<g id="node4" class="node"><title>GENERALIZED_PARTITION_FUNCTION</title>
<a xlink:href="GENERALIZED_PARTITION_FUNCTION.html" xlink:title="The generalized partition function" target="_top">
<polyline fill="none" stroke="black" points="342,-36 114,-36 "/>
<path fill="none" stroke="black" d="M114,-36C108,-36 102,-30 102,-24"/>
<polyline fill="none" stroke="black" points="102,-24 102,-12 "/>
<path fill="none" stroke="black" d="M102,-12C102,-6 108,-1.74252e-14 114,-1.70869e-14"/>
<polyline fill="none" stroke="black" points="114,-1.70869e-14 342,-4.22942e-15 "/>
<path fill="none" stroke="black" d="M342,-4.22942e-15C348,-3.89107e-15 354,-6 354,-12"/>
<polyline fill="none" stroke="black" points="354,-12 354,-24 "/>
<path fill="none" stroke="black" d="M354,-24C354,-30 348,-36 342,-36"/>
<text text-anchor="start" x="110" y="-15.2333" font-family="Times Roman,serif" font-size="14.00">The generalized partition function</text>
</a>
</g>
<!-- INFORMATION_THEORY&#45;&gt;GENERALIZED_PARTITION_FUNCTION -->
<g id="edge4" class="edge"><title>INFORMATION_THEORY&#45;&gt;GENERALIZED_PARTITION_FUNCTION</title>
<path fill="none" stroke="black" d="M228,-71.8314C228,-64.131 228,-54.9743 228,-46.4166"/>
<polygon fill="black" stroke="black" points="231.5,-46.4132 228,-36.4133 224.5,-46.4133 231.5,-46.4132"/>
</g>
<!-- SUMMATIONS -->
<g id="node2" class="node"><title>SUMMATIONS</title>
<a xlink:href="SUMMATIONS.html" xlink:title="Summation and product notation" target="_top">
<polyline fill="none" stroke="black" points="234,-180 12,-180 "/>
<path fill="none" stroke="black" d="M12,-180C6,-180 8.28967e-14,-174 6.63173e-14,-168"/>
<polyline fill="none" stroke="black" points="6.63173e-14,-168 3.31587e-14,-156 "/>
<path fill="none" stroke="black" d="M3.31587e-14,-156C1.65793e-14,-150 6,-144 12,-144"/>
<polyline fill="none" stroke="black" points="12,-144 234,-144 "/>
<path fill="none" stroke="black" d="M234,-144C240,-144 246,-150 246,-156"/>
<polyline fill="none" stroke="black" points="246,-156 246,-168 "/>
<path fill="none" stroke="black" d="M246,-168C246,-174 240,-180 234,-180"/>
<text text-anchor="start" x="8.5" y="-159.233" font-family="Times Roman,serif" font-size="14.00">Summation and product notation</text>
</a>
</g>
<!-- SUMMATIONS&#45;&gt;INFORMATION_THEORY -->
<g id="edge2" class="edge"><title>SUMMATIONS&#45;&gt;INFORMATION_THEORY</title>
<path fill="none" stroke="black" d="M149.496,-143.831C162.677,-134.793 178.785,-123.748 192.971,-114.02"/>
<polygon fill="black" stroke="black" points="195.245,-116.705 201.513,-108.163 191.286,-110.932 195.245,-116.705"/>
</g>
<!-- RANDOM_VARIABLES -->
<g id="node6" class="node"><title>RANDOM_VARIABLES</title>
<a xlink:href="RANDOM_VARIABLES.html" xlink:title="Random variables" target="_top">
<polyline fill="none" stroke="black" points="392,-180 276,-180 "/>
<path fill="none" stroke="black" d="M276,-180C270,-180 264,-174 264,-168"/>
<polyline fill="none" stroke="black" points="264,-168 264,-156 "/>
<path fill="none" stroke="black" d="M264,-156C264,-150 270,-144 276,-144"/>
<polyline fill="none" stroke="black" points="276,-144 392,-144 "/>
<path fill="none" stroke="black" d="M392,-144C398,-144 404,-150 404,-156"/>
<polyline fill="none" stroke="black" points="404,-156 404,-168 "/>
<path fill="none" stroke="black" d="M404,-168C404,-174 398,-180 392,-180"/>
<text text-anchor="start" x="272.5" y="-159.233" font-family="Times Roman,serif" font-size="14.00">Random variables</text>
</a>
</g>
<!-- RANDOM_VARIABLES&#45;&gt;INFORMATION_THEORY -->
<g id="edge6" class="edge"><title>RANDOM_VARIABLES&#45;&gt;INFORMATION_THEORY</title>
<path fill="none" stroke="black" d="M307.252,-143.831C293.945,-134.793 277.684,-123.748 263.363,-114.02"/>
<polygon fill="black" stroke="black" points="264.979,-110.886 254.74,-108.163 261.045,-116.677 264.979,-110.886"/>
</g>
</g>
</svg>
