<?xml version="1.0" encoding="UTF-8" standalone="no"?>
<!DOCTYPE svg PUBLIC "-//W3C//DTD SVG 1.1//EN"
 "http://www.w3.org/Graphics/SVG/1.1/DTD/svg11.dtd">
<!-- Generated by graphviz version 2.36.0 (20140111.2315)
 -->
<!-- Title: %3 Pages: 1 -->
<svg width="353pt" height="188pt"
 viewBox="0.00 0.00 353.00 188.00" xmlns="http://www.w3.org/2000/svg" xmlns:xlink="http://www.w3.org/1999/xlink">
<g id="graph0" class="graph" transform="scale(1 1) rotate(0) translate(4 184)">
<title>%3</title>
<!-- INFORMATION_THEORY -->
<g id="node1" class="node"><title>INFORMATION_THEORY</title>
<g id="a_node1"><a xlink:href="INFORMATION_THEORY.html" xlink:title=" Information theory &#160;" target="_top">
<path fill="none" stroke="blue" stroke-width="2" d="M246.25,-108C246.25,-108 139.75,-108 139.75,-108 133.75,-108 127.75,-102 127.75,-96 127.75,-96 127.75,-84 127.75,-84 127.75,-78 133.75,-72 139.75,-72 139.75,-72 246.25,-72 246.25,-72 252.25,-72 258.25,-78 258.25,-84 258.25,-84 258.25,-96 258.25,-96 258.25,-102 252.25,-108 246.25,-108"/>
<text text-anchor="start" x="135.5" y="-86.3" font-family="Times,serif" font-size="14.00"> Information theory &#160;</text>
</a>
</g>
</g>
<!-- GENERALIZED_PARTITION_FUNCTION -->
<g id="node3" class="node"><title>GENERALIZED_PARTITION_FUNCTION</title>
<g id="a_node3"><a xlink:href="GENERALIZED_PARTITION_FUNCTION.html" xlink:title=" The generalized partition function " target="_top">
<path fill="none" stroke="black" d="M285.25,-36C285.25,-36 100.75,-36 100.75,-36 94.75,-36 88.75,-30 88.75,-24 88.75,-24 88.75,-12 88.75,-12 88.75,-6 94.75,-0 100.75,-0 100.75,-0 285.25,-0 285.25,-0 291.25,-0 297.25,-6 297.25,-12 297.25,-12 297.25,-24 297.25,-24 297.25,-30 291.25,-36 285.25,-36"/>
<text text-anchor="start" x="96.5" y="-14.3" font-family="Times,serif" font-size="14.00"> The generalized partition function </text>
</a>
</g>
</g>
<!-- INFORMATION_THEORY&#45;&gt;GENERALIZED_PARTITION_FUNCTION -->
<g id="edge2" class="edge"><title>INFORMATION_THEORY&#45;&gt;GENERALIZED_PARTITION_FUNCTION</title>
<path fill="none" stroke="black" d="M193,-71.6966C193,-63.9827 193,-54.7125 193,-46.1124"/>
<polygon fill="black" stroke="black" points="196.5,-46.1043 193,-36.1043 189.5,-46.1044 196.5,-46.1043"/>
</g>
<!-- SUMMATIONS -->
<g id="node2" class="node"><title>SUMMATIONS</title>
<g id="a_node2"><a xlink:href="SUMMATIONS.html" xlink:title=" Summation and product notation " target="_top">
<path fill="none" stroke="black" d="M191.5,-180C191.5,-180 12.5,-180 12.5,-180 6.5,-180 0.5,-174 0.5,-168 0.5,-168 0.5,-156 0.5,-156 0.5,-150 6.5,-144 12.5,-144 12.5,-144 191.5,-144 191.5,-144 197.5,-144 203.5,-150 203.5,-156 203.5,-156 203.5,-168 203.5,-168 203.5,-174 197.5,-180 191.5,-180"/>
<text text-anchor="start" x="8" y="-158.3" font-family="Times,serif" font-size="14.00"> Summation and product notation </text>
</a>
</g>
</g>
<!-- SUMMATIONS&#45;&gt;INFORMATION_THEORY -->
<g id="edge1" class="edge"><title>SUMMATIONS&#45;&gt;INFORMATION_THEORY</title>
<path fill="none" stroke="black" d="M124.494,-143.697C135.955,-134.881 150.058,-124.032 162.484,-114.474"/>
<polygon fill="black" stroke="black" points="164.972,-116.976 170.764,-108.104 160.704,-111.427 164.972,-116.976"/>
</g>
<!-- RANDOM_VARIABLES -->
<g id="node4" class="node"><title>RANDOM_VARIABLES</title>
<g id="a_node4"><a xlink:href="RANDOM_VARIABLES.html" xlink:title=" Random variables " target="_top">
<path fill="none" stroke="black" d="M333.25,-180C333.25,-180 234.75,-180 234.75,-180 228.75,-180 222.75,-174 222.75,-168 222.75,-168 222.75,-156 222.75,-156 222.75,-150 228.75,-144 234.75,-144 234.75,-144 333.25,-144 333.25,-144 339.25,-144 345.25,-150 345.25,-156 345.25,-156 345.25,-168 345.25,-168 345.25,-174 339.25,-180 333.25,-180"/>
<text text-anchor="start" x="230.5" y="-158.3" font-family="Times,serif" font-size="14.00"> Random variables </text>
</a>
</g>
</g>
<!-- RANDOM_VARIABLES&#45;&gt;INFORMATION_THEORY -->
<g id="edge3" class="edge"><title>RANDOM_VARIABLES&#45;&gt;INFORMATION_THEORY</title>
<path fill="none" stroke="black" d="M261.506,-143.697C250.045,-134.881 235.942,-124.032 223.516,-114.474"/>
<polygon fill="black" stroke="black" points="225.296,-111.427 215.236,-108.104 221.028,-116.976 225.296,-111.427"/>
</g>
</g>
</svg>
