<?xml version="1.0" encoding="UTF-8" standalone="no"?>
<!DOCTYPE svg PUBLIC "-//W3C//DTD SVG 1.1//EN"
 "http://www.w3.org/Graphics/SVG/1.1/DTD/svg11.dtd">
<!-- Generated by graphviz version 2.26.3 (20100126.1600)
 -->
<!-- Title: _anonymous_0 Pages: 1 -->
<svg width="412pt" height="188pt"
 viewBox="0.00 0.00 412.00 188.00" xmlns="http://www.w3.org/2000/svg" xmlns:xlink="http://www.w3.org/1999/xlink">
<g id="graph1" class="graph" transform="scale(1 1) rotate(0) translate(4 184)">
<title>_anonymous_0</title>
<!-- INFORMATION_THEORY -->
<g id="node1" class="node"><title>INFORMATION_THEORY</title>
<a xlink:href="INFORMATION_THEORY.html" xlink:title="Information theory " target="_top">
<polyline fill="none" stroke="blue" stroke-width="2" points="239,-108 111,-108 "/>
<path fill="none" stroke="blue" stroke-width="2" d="M111,-108C105,-108 99,-102 99,-96"/>
<polyline fill="none" stroke="blue" stroke-width="2" points="99,-96 99,-84 "/>
<path fill="none" stroke="blue" stroke-width="2" d="M99,-84C99,-78 105,-72 111,-72"/>
<polyline fill="none" stroke="blue" stroke-width="2" points="111,-72 239,-72 "/>
<path fill="none" stroke="blue" stroke-width="2" d="M239,-72C245,-72 251,-78 251,-84"/>
<polyline fill="none" stroke="blue" stroke-width="2" points="251,-84 251,-96 "/>
<path fill="none" stroke="blue" stroke-width="2" d="M251,-96C251,-102 245,-108 239,-108"/>
<text text-anchor="start" x="107" y="-87.2333" font-family="Times Roman,serif" font-size="14.00">Information theory </text>
</a>
</g>
<!-- GENERALIZED_PARTITION_FUNCTION -->
<g id="node6" class="node"><title>GENERALIZED_PARTITION_FUNCTION</title>
<a xlink:href="GENERALIZED_PARTITION_FUNCTION.html" xlink:title="The generalized partition function" target="_top">
<polyline fill="none" stroke="black" points="289,-36 61,-36 "/>
<path fill="none" stroke="black" d="M61,-36C55,-36 49,-30 49,-24"/>
<polyline fill="none" stroke="black" points="49,-24 49,-12 "/>
<path fill="none" stroke="black" d="M49,-12C49,-6 55,-1.74252e-14 61,-1.70869e-14"/>
<polyline fill="none" stroke="black" points="61,-1.70869e-14 289,-4.22942e-15 "/>
<path fill="none" stroke="black" d="M289,-4.22942e-15C295,-3.89107e-15 301,-6 301,-12"/>
<polyline fill="none" stroke="black" points="301,-12 301,-24 "/>
<path fill="none" stroke="black" d="M301,-24C301,-30 295,-36 289,-36"/>
<text text-anchor="start" x="57" y="-15.2333" font-family="Times Roman,serif" font-size="14.00">The generalized partition function</text>
</a>
</g>
<!-- INFORMATION_THEORY&#45;&gt;GENERALIZED_PARTITION_FUNCTION -->
<g id="edge6" class="edge"><title>INFORMATION_THEORY&#45;&gt;GENERALIZED_PARTITION_FUNCTION</title>
<path fill="none" stroke="black" d="M175,-71.8314C175,-64.131 175,-54.9743 175,-46.4166"/>
<polygon fill="black" stroke="black" points="178.5,-46.4132 175,-36.4133 171.5,-46.4133 178.5,-46.4132"/>
</g>
<!-- RANDOM_VARIABLES -->
<g id="node2" class="node"><title>RANDOM_VARIABLES</title>
<a xlink:href="RANDOM_VARIABLES.html" xlink:title="Random variables" target="_top">
<polyline fill="none" stroke="black" points="128,-180 12,-180 "/>
<path fill="none" stroke="black" d="M12,-180C6,-180 5.92119e-14,-174 4.73695e-14,-168"/>
<polyline fill="none" stroke="black" points="4.73695e-14,-168 2.36848e-14,-156 "/>
<path fill="none" stroke="black" d="M2.36848e-14,-156C1.18424e-14,-150 6,-144 12,-144"/>
<polyline fill="none" stroke="black" points="12,-144 128,-144 "/>
<path fill="none" stroke="black" d="M128,-144C134,-144 140,-150 140,-156"/>
<polyline fill="none" stroke="black" points="140,-156 140,-168 "/>
<path fill="none" stroke="black" d="M140,-168C140,-174 134,-180 128,-180"/>
<text text-anchor="start" x="8.5" y="-159.233" font-family="Times Roman,serif" font-size="14.00">Random variables</text>
</a>
</g>
<!-- RANDOM_VARIABLES&#45;&gt;INFORMATION_THEORY -->
<g id="edge2" class="edge"><title>RANDOM_VARIABLES&#45;&gt;INFORMATION_THEORY</title>
<path fill="none" stroke="black" d="M96.4959,-143.831C109.677,-134.793 125.785,-123.748 139.971,-114.02"/>
<polygon fill="black" stroke="black" points="142.245,-116.705 148.513,-108.163 138.286,-110.932 142.245,-116.705"/>
</g>
<!-- SUMMATIONS -->
<g id="node4" class="node"><title>SUMMATIONS</title>
<a xlink:href="SUMMATIONS.html" xlink:title="Summation and product notation" target="_top">
<polyline fill="none" stroke="black" points="392,-180 170,-180 "/>
<path fill="none" stroke="black" d="M170,-180C164,-180 158,-174 158,-168"/>
<polyline fill="none" stroke="black" points="158,-168 158,-156 "/>
<path fill="none" stroke="black" d="M158,-156C158,-150 164,-144 170,-144"/>
<polyline fill="none" stroke="black" points="170,-144 392,-144 "/>
<path fill="none" stroke="black" d="M392,-144C398,-144 404,-150 404,-156"/>
<polyline fill="none" stroke="black" points="404,-156 404,-168 "/>
<path fill="none" stroke="black" d="M404,-168C404,-174 398,-180 392,-180"/>
<text text-anchor="start" x="166.5" y="-159.233" font-family="Times Roman,serif" font-size="14.00">Summation and product notation</text>
</a>
</g>
<!-- SUMMATIONS&#45;&gt;INFORMATION_THEORY -->
<g id="edge4" class="edge"><title>SUMMATIONS&#45;&gt;INFORMATION_THEORY</title>
<path fill="none" stroke="black" d="M254.252,-143.831C240.945,-134.793 224.684,-123.748 210.363,-114.02"/>
<polygon fill="black" stroke="black" points="211.979,-110.886 201.74,-108.163 208.045,-116.677 211.979,-110.886"/>
</g>
</g>
</svg>
