<?xml version="1.0" encoding="UTF-8" standalone="no"?>
<!DOCTYPE svg PUBLIC "-//W3C//DTD SVG 1.1//EN"
 "http://www.w3.org/Graphics/SVG/1.1/DTD/svg11.dtd">
<!-- Generated by graphviz version 2.26.3 (20100126.1600)
 -->
<!-- Title: _anonymous_0 Pages: 1 -->
<svg width="256pt" height="116pt"
 viewBox="0.00 0.00 256.00 116.00" xmlns="http://www.w3.org/2000/svg" xmlns:xlink="http://www.w3.org/1999/xlink">
<g id="graph1" class="graph" transform="scale(1 1) rotate(0) translate(4 112)">
<title>_anonymous_0</title>
<!-- INHOMOGENEOUS_POISSON_PROCESS -->
<g id="node1" class="node"><title>INHOMOGENEOUS_POISSON_PROCESS</title>
<a xlink:href="INHOMOGENEOUS_POISSON_PROCESS.html" xlink:title=" Inhomogeneous Poisson Process " target="_top">
<polyline fill="none" stroke="blue" stroke-width="2" points="236,-36 12,-36 "/>
<path fill="none" stroke="blue" stroke-width="2" d="M12,-36C6,-36 8.28967e-14,-30 6.63173e-14,-24"/>
<polyline fill="none" stroke="blue" stroke-width="2" points="6.63173e-14,-24 3.31587e-14,-12 "/>
<path fill="none" stroke="blue" stroke-width="2" d="M3.31587e-14,-12C1.65793e-14,-6 6,-1.74198e-14 12,-1.70759e-14"/>
<polyline fill="none" stroke="blue" stroke-width="2" points="12,-1.70759e-14 236,-4.24034e-15 "/>
<path fill="none" stroke="blue" stroke-width="2" d="M236,-4.24034e-15C242,-3.89652e-15 248,-6 248,-12"/>
<polyline fill="none" stroke="blue" stroke-width="2" points="248,-12 248,-24 "/>
<path fill="none" stroke="blue" stroke-width="2" d="M248,-24C248,-30 242,-36 236,-36"/>
<text text-anchor="start" x="8.5" y="-15.2333" font-family="Times Roman,serif" font-size="14.00"> Inhomogeneous Poisson Process </text>
</a>
</g>
<!-- POISSON_PROCESS -->
<g id="node2" class="node"><title>POISSON_PROCESS</title>
<a xlink:href="POISSON_PROCESS.html" xlink:title=" Poisson Process " target="_top">
<polyline fill="none" stroke="black" points="179,-108 69,-108 "/>
<path fill="none" stroke="black" d="M69,-108C63,-108 57,-102 57,-96"/>
<polyline fill="none" stroke="black" points="57,-96 57,-84 "/>
<path fill="none" stroke="black" d="M57,-84C57,-78 63,-72 69,-72"/>
<polyline fill="none" stroke="black" points="69,-72 179,-72 "/>
<path fill="none" stroke="black" d="M179,-72C185,-72 191,-78 191,-84"/>
<polyline fill="none" stroke="black" points="191,-84 191,-96 "/>
<path fill="none" stroke="black" d="M191,-96C191,-102 185,-108 179,-108"/>
<text text-anchor="start" x="65.5" y="-87.2333" font-family="Times Roman,serif" font-size="14.00"> Poisson Process </text>
</a>
</g>
<!-- POISSON_PROCESS&#45;&gt;INHOMOGENEOUS_POISSON_PROCESS -->
<g id="edge2" class="edge"><title>POISSON_PROCESS&#45;&gt;INHOMOGENEOUS_POISSON_PROCESS</title>
<path fill="none" stroke="black" d="M124,-71.8314C124,-64.131 124,-54.9743 124,-46.4166"/>
<polygon fill="black" stroke="black" points="127.5,-46.4132 124,-36.4133 120.5,-46.4133 127.5,-46.4132"/>
</g>
</g>
</svg>
