<?xml version="1.0" encoding="UTF-8" standalone="no"?>
<!DOCTYPE svg PUBLIC "-//W3C//DTD SVG 1.1//EN"
 "http://www.w3.org/Graphics/SVG/1.1/DTD/svg11.dtd">
<!-- Generated by graphviz version 2.28.0 (20110509.1545)
 -->
<!-- Title: _anonymous_0 Pages: 1 -->
<svg width="66pt" height="116pt"
 viewBox="0.00 0.00 66.00 116.00" xmlns="http://www.w3.org/2000/svg" xmlns:xlink="http://www.w3.org/1999/xlink">
<g id="graph1" class="graph" transform="scale(1 1) rotate(0) translate(4 112)">
<title>_anonymous_0</title>
<!-- INHOMOGENEOUS_POISSON_PROCESS -->
<g id="node1" class="node"><title>INHOMOGENEOUS_POISSON_PROCESS</title>
<a xlink:href="INHOMOGENEOUS_POISSON_PROCESS.html" xlink:title="TITLE:" target="_top">
<polyline fill="none" stroke="blue" stroke-width="2" points="46.25,-36 11.75,-36 "/>
<path fill="none" stroke="blue" stroke-width="2" d="M11.75,-36C5.75,-36 -0.25,-30 -0.25,-24"/>
<polyline fill="none" stroke="blue" stroke-width="2" points="-0.25,-24 -0.25,-12 "/>
<path fill="none" stroke="blue" stroke-width="2" d="M-0.25,-12C-0.25,-6 5.75,-0 11.75,-0"/>
<polyline fill="none" stroke="blue" stroke-width="2" points="11.75,-0 46.25,-0 "/>
<path fill="none" stroke="blue" stroke-width="2" d="M46.25,-0C52.25,-0 58.25,-6 58.25,-12"/>
<polyline fill="none" stroke="blue" stroke-width="2" points="58.25,-12 58.25,-24 "/>
<path fill="none" stroke="blue" stroke-width="2" d="M58.25,-24C58.25,-30 52.25,-36 46.25,-36"/>
<text text-anchor="start" x="8" y="-12.5" font-family="Times,serif" font-size="14.00">TITLE:</text>
</a>
</g>
<!-- POISSON_PROCESS -->
<g id="node2" class="node"><title>POISSON_PROCESS</title>
<a xlink:href="POISSON_PROCESS.html" xlink:title="TITLE:" target="_top">
<polyline fill="none" stroke="black" points="46.25,-108 11.75,-108 "/>
<path fill="none" stroke="black" d="M11.75,-108C5.75,-108 -0.25,-102 -0.25,-96"/>
<polyline fill="none" stroke="black" points="-0.25,-96 -0.25,-84 "/>
<path fill="none" stroke="black" d="M-0.25,-84C-0.25,-78 5.75,-72 11.75,-72"/>
<polyline fill="none" stroke="black" points="11.75,-72 46.25,-72 "/>
<path fill="none" stroke="black" d="M46.25,-72C52.25,-72 58.25,-78 58.25,-84"/>
<polyline fill="none" stroke="black" points="58.25,-84 58.25,-96 "/>
<path fill="none" stroke="black" d="M58.25,-96C58.25,-102 52.25,-108 46.25,-108"/>
<text text-anchor="start" x="8" y="-84.5" font-family="Times,serif" font-size="14.00">TITLE:</text>
</a>
</g>
<!-- POISSON_PROCESS&#45;&gt;INHOMOGENEOUS_POISSON_PROCESS -->
<g id="edge2" class="edge"><title>POISSON_PROCESS&#45;&gt;INHOMOGENEOUS_POISSON_PROCESS</title>
<path fill="none" stroke="black" d="M29,-71.6966C29,-63.9827 29,-54.7125 29,-46.1124"/>
<polygon fill="black" stroke="black" points="32.5001,-46.1043 29,-36.1043 25.5001,-46.1044 32.5001,-46.1043"/>
</g>
</g>
</svg>
