<?xml version="1.0" encoding="UTF-8" standalone="no"?>
<!DOCTYPE svg PUBLIC "-//W3C//DTD SVG 1.1//EN"
 "http://www.w3.org/Graphics/SVG/1.1/DTD/svg11.dtd">
<!-- Generated by graphviz version 2.28.0 (20110509.1545)
 -->
<!-- Title: _anonymous_0 Pages: 1 -->
<svg width="206pt" height="116pt"
 viewBox="0.00 0.00 206.00 116.00" xmlns="http://www.w3.org/2000/svg" xmlns:xlink="http://www.w3.org/1999/xlink">
<g id="graph1" class="graph" transform="scale(1 1) rotate(0) translate(4 112)">
<title>_anonymous_0</title>
<!-- INHOMOGENEOUS_POISSON_PROCESS -->
<g id="node1" class="node"><title>INHOMOGENEOUS_POISSON_PROCESS</title>
<a xlink:href="INHOMOGENEOUS_POISSON_PROCESS.html" xlink:title="Inhomogeneous Poisson Process" target="_top">
<polyline fill="none" stroke="blue" stroke-width="2" points="186.25,-36 11.75,-36 "/>
<path fill="none" stroke="blue" stroke-width="2" d="M11.75,-36C5.75,-36 -0.25,-30 -0.25,-24"/>
<polyline fill="none" stroke="blue" stroke-width="2" points="-0.25,-24 -0.25,-12 "/>
<path fill="none" stroke="blue" stroke-width="2" d="M-0.25,-12C-0.25,-6 5.75,-0 11.75,-0"/>
<polyline fill="none" stroke="blue" stroke-width="2" points="11.75,-0 186.25,-0 "/>
<path fill="none" stroke="blue" stroke-width="2" d="M186.25,-0C192.25,-0 198.25,-6 198.25,-12"/>
<polyline fill="none" stroke="blue" stroke-width="2" points="198.25,-12 198.25,-24 "/>
<path fill="none" stroke="blue" stroke-width="2" d="M198.25,-24C198.25,-30 192.25,-36 186.25,-36"/>
<text text-anchor="start" x="8" y="-12.5" font-family="Times,serif" font-size="14.00">Inhomogeneous Poisson Process</text>
</a>
</g>
<!-- POISSON_PROCESS -->
<g id="node2" class="node"><title>POISSON_PROCESS</title>
<a xlink:href="POISSON_PROCESS.html" xlink:title="Poisson Process" target="_top">
<polyline fill="none" stroke="black" points="140,-108 58,-108 "/>
<path fill="none" stroke="black" d="M58,-108C52,-108 46,-102 46,-96"/>
<polyline fill="none" stroke="black" points="46,-96 46,-84 "/>
<path fill="none" stroke="black" d="M46,-84C46,-78 52,-72 58,-72"/>
<polyline fill="none" stroke="black" points="58,-72 140,-72 "/>
<path fill="none" stroke="black" d="M140,-72C146,-72 152,-78 152,-84"/>
<polyline fill="none" stroke="black" points="152,-84 152,-96 "/>
<path fill="none" stroke="black" d="M152,-96C152,-102 146,-108 140,-108"/>
<text text-anchor="start" x="54.5" y="-84.5" font-family="Times,serif" font-size="14.00">Poisson Process</text>
</a>
</g>
<!-- POISSON_PROCESS&#45;&gt;INHOMOGENEOUS_POISSON_PROCESS -->
<g id="edge2" class="edge"><title>POISSON_PROCESS&#45;&gt;INHOMOGENEOUS_POISSON_PROCESS</title>
<path fill="none" stroke="black" d="M99,-71.6966C99,-63.9827 99,-54.7125 99,-46.1124"/>
<polygon fill="black" stroke="black" points="102.5,-46.1043 99,-36.1043 95.5001,-46.1044 102.5,-46.1043"/>
</g>
</g>
</svg>
