<?xml version="1.0" encoding="UTF-8" standalone="no"?>
<!DOCTYPE svg PUBLIC "-//W3C//DTD SVG 1.1//EN"
 "http://www.w3.org/Graphics/SVG/1.1/DTD/svg11.dtd">
<!-- Generated by graphviz version 2.36.0 (20140111.2315)
 -->
<!-- Title: %3 Pages: 1 -->
<svg width="210pt" height="116pt"
 viewBox="0.00 0.00 210.00 116.00" xmlns="http://www.w3.org/2000/svg" xmlns:xlink="http://www.w3.org/1999/xlink">
<g id="graph0" class="graph" transform="scale(1 1) rotate(0) translate(4 112)">
<title>%3</title>
<!-- INHOMOGENEOUS_POISSON_PROCESS -->
<g id="node1" class="node"><title>INHOMOGENEOUS_POISSON_PROCESS</title>
<g id="a_node1"><a xlink:href="INHOMOGENEOUS_POISSON_PROCESS.html" xlink:title=" Inhomogeneous Poisson Process " target="_top">
<path fill="none" stroke="blue" stroke-width="2" d="M190,-36C190,-36 12,-36 12,-36 6,-36 0,-30 0,-24 0,-24 0,-12 0,-12 0,-6 6,-0 12,-0 12,-0 190,-0 190,-0 196,-0 202,-6 202,-12 202,-12 202,-24 202,-24 202,-30 196,-36 190,-36"/>
<text text-anchor="start" x="8" y="-14.3" font-family="Times,serif" font-size="14.00"> Inhomogeneous Poisson Process </text>
</a>
</g>
</g>
<!-- POISSON_PROCESS -->
<g id="node2" class="node"><title>POISSON_PROCESS</title>
<g id="a_node2"><a xlink:href="POISSON_PROCESS.html" xlink:title=" Poisson Process " target="_top">
<path fill="none" stroke="black" d="M144.25,-108C144.25,-108 57.75,-108 57.75,-108 51.75,-108 45.75,-102 45.75,-96 45.75,-96 45.75,-84 45.75,-84 45.75,-78 51.75,-72 57.75,-72 57.75,-72 144.25,-72 144.25,-72 150.25,-72 156.25,-78 156.25,-84 156.25,-84 156.25,-96 156.25,-96 156.25,-102 150.25,-108 144.25,-108"/>
<text text-anchor="start" x="53.5" y="-86.3" font-family="Times,serif" font-size="14.00"> Poisson Process </text>
</a>
</g>
</g>
<!-- POISSON_PROCESS&#45;&gt;INHOMOGENEOUS_POISSON_PROCESS -->
<g id="edge1" class="edge"><title>POISSON_PROCESS&#45;&gt;INHOMOGENEOUS_POISSON_PROCESS</title>
<path fill="none" stroke="black" d="M101,-71.6966C101,-63.9827 101,-54.7125 101,-46.1124"/>
<polygon fill="black" stroke="black" points="104.5,-46.1043 101,-36.1043 97.5001,-46.1044 104.5,-46.1043"/>
</g>
</g>
</svg>
