<?xml version="1.0" encoding="UTF-8" standalone="no"?>
<!DOCTYPE svg PUBLIC "-//W3C//DTD SVG 1.1//EN"
 "http://www.w3.org/Graphics/SVG/1.1/DTD/svg11.dtd">
<!-- Generated by graphviz version 2.26.3 (20100126.1600)
 -->
<!-- Title: _anonymous_0 Pages: 1 -->
<svg width="246pt" height="116pt"
 viewBox="0.00 0.00 246.00 116.00" xmlns="http://www.w3.org/2000/svg" xmlns:xlink="http://www.w3.org/1999/xlink">
<g id="graph1" class="graph" transform="scale(1 1) rotate(0) translate(4 112)">
<title>_anonymous_0</title>
<!-- INHOMOGENEOUS_POISSON_PROCESS -->
<g id="node1" class="node"><title>INHOMOGENEOUS_POISSON_PROCESS</title>
<a xlink:href="INHOMOGENEOUS_POISSON_PROCESS.html" xlink:title="Inhomogeneous Poisson Process" target="_top">
<polyline fill="none" stroke="blue" stroke-width="2" points="226,-36 12,-36 "/>
<path fill="none" stroke="blue" stroke-width="2" d="M12,-36C6,-36 9.71075e-14,-30 8.05282e-14,-24"/>
<polyline fill="none" stroke="blue" stroke-width="2" points="8.05282e-14,-24 4.73695e-14,-12 "/>
<path fill="none" stroke="blue" stroke-width="2" d="M4.73695e-14,-12C3.07902e-14,-6 6,-1.74053e-14 12,-1.70471e-14"/>
<polyline fill="none" stroke="blue" stroke-width="2" points="12,-1.70471e-14 226,-4.26923e-15 "/>
<path fill="none" stroke="blue" stroke-width="2" d="M226,-4.26923e-15C232,-3.91097e-15 238,-6 238,-12"/>
<polyline fill="none" stroke="blue" stroke-width="2" points="238,-12 238,-24 "/>
<path fill="none" stroke="blue" stroke-width="2" d="M238,-24C238,-30 232,-36 226,-36"/>
<text text-anchor="start" x="8" y="-15.2333" font-family="Times Roman,serif" font-size="14.00">Inhomogeneous Poisson Process</text>
</a>
</g>
<!-- POISSON_PROCESS -->
<g id="node2" class="node"><title>POISSON_PROCESS</title>
<a xlink:href="POISSON_PROCESS.html" xlink:title="Poisson Process" target="_top">
<polyline fill="none" stroke="black" points="169,-108 69,-108 "/>
<path fill="none" stroke="black" d="M69,-108C63,-108 57,-102 57,-96"/>
<polyline fill="none" stroke="black" points="57,-96 57,-84 "/>
<path fill="none" stroke="black" d="M57,-84C57,-78 63,-72 69,-72"/>
<polyline fill="none" stroke="black" points="69,-72 169,-72 "/>
<path fill="none" stroke="black" d="M169,-72C175,-72 181,-78 181,-84"/>
<polyline fill="none" stroke="black" points="181,-84 181,-96 "/>
<path fill="none" stroke="black" d="M181,-96C181,-102 175,-108 169,-108"/>
<text text-anchor="start" x="65" y="-87.2333" font-family="Times Roman,serif" font-size="14.00">Poisson Process</text>
</a>
</g>
<!-- POISSON_PROCESS&#45;&gt;INHOMOGENEOUS_POISSON_PROCESS -->
<g id="edge2" class="edge"><title>POISSON_PROCESS&#45;&gt;INHOMOGENEOUS_POISSON_PROCESS</title>
<path fill="none" stroke="black" d="M119,-71.8314C119,-64.131 119,-54.9743 119,-46.4166"/>
<polygon fill="black" stroke="black" points="122.5,-46.4132 119,-36.4133 115.5,-46.4133 122.5,-46.4132"/>
</g>
</g>
</svg>
