<?xml version="1.0" encoding="UTF-8" standalone="no"?>
<!DOCTYPE svg PUBLIC "-//W3C//DTD SVG 1.1//EN"
 "http://www.w3.org/Graphics/SVG/1.1/DTD/svg11.dtd">
<!-- Generated by graphviz version 2.26.3 (20100126.1600)
 -->
<!-- Title: _anonymous_0 Pages: 1 -->
<svg width="262pt" height="188pt"
 viewBox="0.00 0.00 262.00 188.00" xmlns="http://www.w3.org/2000/svg" xmlns:xlink="http://www.w3.org/1999/xlink">
<g id="graph1" class="graph" transform="scale(1 1) rotate(0) translate(4 184)">
<title>_anonymous_0</title>
<!-- INTEGRATION_BY_PARTS -->
<g id="node1" class="node"><title>INTEGRATION_BY_PARTS</title>
<a xlink:href="INTEGRATION_BY_PARTS.html" xlink:title=" Integration by parts " target="_top">
<polyline fill="none" stroke="blue" stroke-width="2" points="197,-108 57,-108 "/>
<path fill="none" stroke="blue" stroke-width="2" d="M57,-108C51,-108 45,-102 45,-96"/>
<polyline fill="none" stroke="blue" stroke-width="2" points="45,-96 45,-84 "/>
<path fill="none" stroke="blue" stroke-width="2" d="M45,-84C45,-78 51,-72 57,-72"/>
<polyline fill="none" stroke="blue" stroke-width="2" points="57,-72 197,-72 "/>
<path fill="none" stroke="blue" stroke-width="2" d="M197,-72C203,-72 209,-78 209,-84"/>
<polyline fill="none" stroke="blue" stroke-width="2" points="209,-84 209,-96 "/>
<path fill="none" stroke="blue" stroke-width="2" d="M209,-96C209,-102 203,-108 197,-108"/>
<text text-anchor="start" x="53" y="-87.2333" font-family="Times Roman,serif" font-size="14.00"> Integration by parts </text>
</a>
</g>
<!-- EXPONENTIAL_RANDOM_VARIABLE -->
<g id="node4" class="node"><title>EXPONENTIAL_RANDOM_VARIABLE</title>
<a xlink:href="EXPONENTIAL_RANDOM_VARIABLE.html" xlink:title=" Exponential random variable " target="_top">
<polyline fill="none" stroke="black" points="227,-36 27,-36 "/>
<path fill="none" stroke="black" d="M27,-36C21,-36 15,-30 15,-24"/>
<polyline fill="none" stroke="black" points="15,-24 15,-12 "/>
<path fill="none" stroke="black" d="M15,-12C15,-6 21,-1.73829e-14 27,-1.70023e-14"/>
<polyline fill="none" stroke="black" points="27,-1.70023e-14 227,-4.31401e-15 "/>
<path fill="none" stroke="black" d="M227,-4.31401e-15C233,-3.93336e-15 239,-6 239,-12"/>
<polyline fill="none" stroke="black" points="239,-12 239,-24 "/>
<path fill="none" stroke="black" d="M239,-24C239,-30 233,-36 227,-36"/>
<text text-anchor="start" x="23" y="-15.2333" font-family="Times Roman,serif" font-size="14.00"> Exponential random variable </text>
</a>
</g>
<!-- INTEGRATION_BY_PARTS&#45;&gt;EXPONENTIAL_RANDOM_VARIABLE -->
<g id="edge4" class="edge"><title>INTEGRATION_BY_PARTS&#45;&gt;EXPONENTIAL_RANDOM_VARIABLE</title>
<path fill="none" stroke="black" d="M127,-71.8314C127,-64.131 127,-54.9743 127,-46.4166"/>
<polygon fill="black" stroke="black" points="130.5,-46.4132 127,-36.4133 123.5,-46.4133 130.5,-46.4132"/>
</g>
<!-- FUNDAMENTAL_THEOREM_OF_CALCULUS -->
<g id="node2" class="node"><title>FUNDAMENTAL_THEOREM_OF_CALCULUS</title>
<a xlink:href="FUNDAMENTAL_THEOREM_OF_CALCULUS.html" xlink:title=" Fundamental theorem of calculus " target="_top">
<polyline fill="none" stroke="black" points="242,-180 12,-180 "/>
<path fill="none" stroke="black" d="M12,-180C6,-180 9.4739e-14,-174 7.57912e-14,-168"/>
<polyline fill="none" stroke="black" points="7.57912e-14,-168 3.78956e-14,-156 "/>
<path fill="none" stroke="black" d="M3.78956e-14,-156C1.89478e-14,-150 6,-144 12,-144"/>
<polyline fill="none" stroke="black" points="12,-144 242,-144 "/>
<path fill="none" stroke="black" d="M242,-144C248,-144 254,-150 254,-156"/>
<polyline fill="none" stroke="black" points="254,-156 254,-168 "/>
<path fill="none" stroke="black" d="M254,-168C254,-174 248,-180 242,-180"/>
<text text-anchor="start" x="8" y="-159.233" font-family="Times Roman,serif" font-size="14.00"> Fundamental theorem of calculus </text>
</a>
</g>
<!-- FUNDAMENTAL_THEOREM_OF_CALCULUS&#45;&gt;INTEGRATION_BY_PARTS -->
<g id="edge2" class="edge"><title>FUNDAMENTAL_THEOREM_OF_CALCULUS&#45;&gt;INTEGRATION_BY_PARTS</title>
<path fill="none" stroke="black" d="M127,-143.831C127,-136.131 127,-126.974 127,-118.417"/>
<polygon fill="black" stroke="black" points="130.5,-118.413 127,-108.413 123.5,-118.413 130.5,-118.413"/>
</g>
</g>
</svg>
