<?xml version="1.0" encoding="UTF-8" standalone="no"?>
<!DOCTYPE svg PUBLIC "-//W3C//DTD SVG 1.1//EN"
 "http://www.w3.org/Graphics/SVG/1.1/DTD/svg11.dtd">
<!-- Generated by graphviz version 2.28.0 (20110509.1545)
 -->
<!-- Title: _anonymous_0 Pages: 1 -->
<svg width="210pt" height="116pt"
 viewBox="0.00 0.00 210.00 116.00" xmlns="http://www.w3.org/2000/svg" xmlns:xlink="http://www.w3.org/1999/xlink">
<g id="graph1" class="graph" transform="scale(1 1) rotate(0) translate(4 112)">
<title>_anonymous_0</title>
<!-- INTEGRATION_BY_SUBSTITUTION -->
<g id="node1" class="node"><title>INTEGRATION_BY_SUBSTITUTION</title>
<a xlink:href="INTEGRATION_BY_SUBSTITUTION.html" xlink:title="Integration by substitution" target="_top">
<polyline fill="none" stroke="blue" stroke-width="2" points="171,-36 31,-36 "/>
<path fill="none" stroke="blue" stroke-width="2" d="M31,-36C25,-36 19,-30 19,-24"/>
<polyline fill="none" stroke="blue" stroke-width="2" points="19,-24 19,-12 "/>
<path fill="none" stroke="blue" stroke-width="2" d="M19,-12C19,-6 25,-0 31,-0"/>
<polyline fill="none" stroke="blue" stroke-width="2" points="31,-0 171,-0 "/>
<path fill="none" stroke="blue" stroke-width="2" d="M171,-0C177,-0 183,-6 183,-12"/>
<polyline fill="none" stroke="blue" stroke-width="2" points="183,-12 183,-24 "/>
<path fill="none" stroke="blue" stroke-width="2" d="M183,-24C183,-30 177,-36 171,-36"/>
<text text-anchor="start" x="27.5" y="-12.5" font-family="Times,serif" font-size="14.00">Integration by substitution</text>
</a>
</g>
<!-- FUNDAMENTAL_THEOREM_OF_CALCULUS -->
<g id="node2" class="node"><title>FUNDAMENTAL_THEOREM_OF_CALCULUS</title>
<a xlink:href="FUNDAMENTAL_THEOREM_OF_CALCULUS.html" xlink:title="Fundamental theorem of calculus" target="_top">
<polyline fill="none" stroke="black" points="190.25,-108 11.75,-108 "/>
<path fill="none" stroke="black" d="M11.75,-108C5.75,-108 -0.25,-102 -0.25,-96"/>
<polyline fill="none" stroke="black" points="-0.25,-96 -0.25,-84 "/>
<path fill="none" stroke="black" d="M-0.25,-84C-0.25,-78 5.75,-72 11.75,-72"/>
<polyline fill="none" stroke="black" points="11.75,-72 190.25,-72 "/>
<path fill="none" stroke="black" d="M190.25,-72C196.25,-72 202.25,-78 202.25,-84"/>
<polyline fill="none" stroke="black" points="202.25,-84 202.25,-96 "/>
<path fill="none" stroke="black" d="M202.25,-96C202.25,-102 196.25,-108 190.25,-108"/>
<text text-anchor="start" x="8" y="-84.5" font-family="Times,serif" font-size="14.00">Fundamental theorem of calculus</text>
</a>
</g>
<!-- FUNDAMENTAL_THEOREM_OF_CALCULUS&#45;&gt;INTEGRATION_BY_SUBSTITUTION -->
<g id="edge2" class="edge"><title>FUNDAMENTAL_THEOREM_OF_CALCULUS&#45;&gt;INTEGRATION_BY_SUBSTITUTION</title>
<path fill="none" stroke="black" d="M101,-71.6966C101,-63.9827 101,-54.7125 101,-46.1124"/>
<polygon fill="black" stroke="black" points="104.5,-46.1043 101,-36.1043 97.5001,-46.1044 104.5,-46.1043"/>
</g>
</g>
</svg>
