<?xml version="1.0" encoding="UTF-8" standalone="no"?>
<!DOCTYPE svg PUBLIC "-//W3C//DTD SVG 1.1//EN"
 "http://www.w3.org/Graphics/SVG/1.1/DTD/svg11.dtd">
<!-- Generated by graphviz version 2.26.3 (20100126.1600)
 -->
<!-- Title: _anonymous_0 Pages: 1 -->
<svg width="254pt" height="188pt"
 viewBox="0.00 0.00 254.00 188.00" xmlns="http://www.w3.org/2000/svg" xmlns:xlink="http://www.w3.org/1999/xlink">
<g id="graph1" class="graph" transform="scale(1 1) rotate(0) translate(4 184)">
<title>_anonymous_0</title>
<!-- INTEGRATION_BY_SUBSTITUTION -->
<g id="node1" class="node"><title>INTEGRATION_BY_SUBSTITUTION</title>
<a xlink:href="INTEGRATION_BY_SUBSTITUTION.html" xlink:title="Integration by substitution" target="_top">
<polyline fill="none" stroke="blue" stroke-width="2" points="212,-108 34,-108 "/>
<path fill="none" stroke="blue" stroke-width="2" d="M34,-108C28,-108 22,-102 22,-96"/>
<polyline fill="none" stroke="blue" stroke-width="2" points="22,-96 22,-84 "/>
<path fill="none" stroke="blue" stroke-width="2" d="M22,-84C22,-78 28,-72 34,-72"/>
<polyline fill="none" stroke="blue" stroke-width="2" points="34,-72 212,-72 "/>
<path fill="none" stroke="blue" stroke-width="2" d="M212,-72C218,-72 224,-78 224,-84"/>
<polyline fill="none" stroke="blue" stroke-width="2" points="224,-84 224,-96 "/>
<path fill="none" stroke="blue" stroke-width="2" d="M224,-96C224,-102 218,-108 212,-108"/>
<text text-anchor="start" x="30" y="-87.2333" font-family="Times Roman,serif" font-size="14.00">Integration by substitution</text>
</a>
</g>
<!-- NORMAL_RANDOM_VARIABLE -->
<g id="node4" class="node"><title>NORMAL_RANDOM_VARIABLE</title>
<a xlink:href="NORMAL_RANDOM_VARIABLE.html" xlink:title="Normal random variable" target="_top">
<polyline fill="none" stroke="black" points="202,-36 44,-36 "/>
<path fill="none" stroke="black" d="M44,-36C38,-36 32,-30 32,-24"/>
<polyline fill="none" stroke="black" points="32,-24 32,-12 "/>
<path fill="none" stroke="black" d="M32,-12C32,-6 38,-1.72951e-14 44,-1.68266e-14"/>
<polyline fill="none" stroke="black" points="44,-1.68266e-14 202,-4.48969e-15 "/>
<path fill="none" stroke="black" d="M202,-4.48969e-15C208,-4.0212e-15 214,-6 214,-12"/>
<polyline fill="none" stroke="black" points="214,-12 214,-24 "/>
<path fill="none" stroke="black" d="M214,-24C214,-30 208,-36 202,-36"/>
<text text-anchor="start" x="40" y="-15.2333" font-family="Times Roman,serif" font-size="14.00">Normal random variable</text>
</a>
</g>
<!-- INTEGRATION_BY_SUBSTITUTION&#45;&gt;NORMAL_RANDOM_VARIABLE -->
<g id="edge4" class="edge"><title>INTEGRATION_BY_SUBSTITUTION&#45;&gt;NORMAL_RANDOM_VARIABLE</title>
<path fill="none" stroke="black" d="M123,-71.8314C123,-64.131 123,-54.9743 123,-46.4166"/>
<polygon fill="black" stroke="black" points="126.5,-46.4132 123,-36.4133 119.5,-46.4133 126.5,-46.4132"/>
</g>
<!-- FUNDAMENTAL_THEOREM_OF_CALCULUS -->
<g id="node2" class="node"><title>FUNDAMENTAL_THEOREM_OF_CALCULUS</title>
<a xlink:href="FUNDAMENTAL_THEOREM_OF_CALCULUS.html" xlink:title="Fundamental theorem of calculus" target="_top">
<polyline fill="none" stroke="black" points="234,-180 12,-180 "/>
<path fill="none" stroke="black" d="M12,-180C6,-180 8.28967e-14,-174 6.63173e-14,-168"/>
<polyline fill="none" stroke="black" points="6.63173e-14,-168 3.31587e-14,-156 "/>
<path fill="none" stroke="black" d="M3.31587e-14,-156C1.65793e-14,-150 6,-144 12,-144"/>
<polyline fill="none" stroke="black" points="12,-144 234,-144 "/>
<path fill="none" stroke="black" d="M234,-144C240,-144 246,-150 246,-156"/>
<polyline fill="none" stroke="black" points="246,-156 246,-168 "/>
<path fill="none" stroke="black" d="M246,-168C246,-174 240,-180 234,-180"/>
<text text-anchor="start" x="8.5" y="-159.233" font-family="Times Roman,serif" font-size="14.00">Fundamental theorem of calculus</text>
</a>
</g>
<!-- FUNDAMENTAL_THEOREM_OF_CALCULUS&#45;&gt;INTEGRATION_BY_SUBSTITUTION -->
<g id="edge2" class="edge"><title>FUNDAMENTAL_THEOREM_OF_CALCULUS&#45;&gt;INTEGRATION_BY_SUBSTITUTION</title>
<path fill="none" stroke="black" d="M123,-143.831C123,-136.131 123,-126.974 123,-118.417"/>
<polygon fill="black" stroke="black" points="126.5,-118.413 123,-108.413 119.5,-118.413 126.5,-118.413"/>
</g>
</g>
</svg>
