<?xml version="1.0" encoding="UTF-8" standalone="no"?>
<!DOCTYPE svg PUBLIC "-//W3C//DTD SVG 1.1//EN"
 "http://www.w3.org/Graphics/SVG/1.1/DTD/svg11.dtd">
<!-- Generated by graphviz version 2.26.3 (20100126.1600)
 -->
<!-- Title: _anonymous_0 Pages: 1 -->
<svg width="240pt" height="188pt"
 viewBox="0.00 0.00 240.00 188.00" xmlns="http://www.w3.org/2000/svg" xmlns:xlink="http://www.w3.org/1999/xlink">
<g id="graph1" class="graph" transform="scale(1 1) rotate(0) translate(4 184)">
<title>_anonymous_0</title>
<!-- INTERATOMIC_FORCES -->
<g id="node1" class="node"><title>INTERATOMIC_FORCES</title>
<a xlink:href="INTERATOMIC_FORCES.html" xlink:title=" Interatomic forces " target="_top">
<polyline fill="none" stroke="blue" stroke-width="2" points="182,-108 56,-108 "/>
<path fill="none" stroke="blue" stroke-width="2" d="M56,-108C50,-108 44,-102 44,-96"/>
<polyline fill="none" stroke="blue" stroke-width="2" points="44,-96 44,-84 "/>
<path fill="none" stroke="blue" stroke-width="2" d="M44,-84C44,-78 50,-72 56,-72"/>
<polyline fill="none" stroke="blue" stroke-width="2" points="56,-72 182,-72 "/>
<path fill="none" stroke="blue" stroke-width="2" d="M182,-72C188,-72 194,-78 194,-84"/>
<polyline fill="none" stroke="blue" stroke-width="2" points="194,-84 194,-96 "/>
<path fill="none" stroke="blue" stroke-width="2" d="M194,-96C194,-102 188,-108 182,-108"/>
<text text-anchor="start" x="52" y="-87.2333" font-family="Times Roman,serif" font-size="14.00"> Interatomic forces </text>
</a>
</g>
<!-- MONTE_CARLO -->
<g id="node2" class="node"><title>MONTE_CARLO</title>
<a xlink:href="MONTE_CARLO.html" xlink:title=" Monte Carlo Simulation " target="_top">
<polyline fill="none" stroke="black" points="201,-36 37,-36 "/>
<path fill="none" stroke="black" d="M37,-36C31,-36 25,-30 25,-24"/>
<polyline fill="none" stroke="black" points="25,-24 25,-12 "/>
<path fill="none" stroke="black" d="M25,-12C25,-6 31,-1.731e-14 37,-1.68565e-14"/>
<polyline fill="none" stroke="black" points="37,-1.68565e-14 201,-4.45979e-15 "/>
<path fill="none" stroke="black" d="M201,-4.45979e-15C207,-4.00625e-15 213,-6 213,-12"/>
<polyline fill="none" stroke="black" points="213,-12 213,-24 "/>
<path fill="none" stroke="black" d="M213,-24C213,-30 207,-36 201,-36"/>
<text text-anchor="start" x="33" y="-15.2333" font-family="Times Roman,serif" font-size="14.00"> Monte Carlo Simulation </text>
</a>
</g>
<!-- INTERATOMIC_FORCES&#45;&gt;MONTE_CARLO -->
<g id="edge2" class="edge"><title>INTERATOMIC_FORCES&#45;&gt;MONTE_CARLO</title>
<path fill="none" stroke="black" d="M119,-71.8314C119,-64.131 119,-54.9743 119,-46.4166"/>
<polygon fill="black" stroke="black" points="122.5,-46.4132 119,-36.4133 115.5,-46.4133 122.5,-46.4132"/>
</g>
<!-- PRODUCT_RULE -->
<g id="node4" class="node"><title>PRODUCT_RULE</title>
<a xlink:href="PRODUCT_RULE.html" xlink:title=" Product Rule " target="_top">
<polyline fill="none" stroke="black" points="102,-180 12,-180 "/>
<path fill="none" stroke="black" d="M12,-180C6,-180 4.14483e-14,-174 3.31587e-14,-168"/>
<polyline fill="none" stroke="black" points="3.31587e-14,-168 1.65793e-14,-156 "/>
<path fill="none" stroke="black" d="M1.65793e-14,-156C8.28967e-15,-150 6,-144 12,-144"/>
<polyline fill="none" stroke="black" points="12,-144 102,-144 "/>
<path fill="none" stroke="black" d="M102,-144C108,-144 114,-150 114,-156"/>
<polyline fill="none" stroke="black" points="114,-156 114,-168 "/>
<path fill="none" stroke="black" d="M114,-168C114,-174 108,-180 102,-180"/>
<text text-anchor="start" x="8.5" y="-159.233" font-family="Times Roman,serif" font-size="14.00"> Product Rule </text>
</a>
</g>
<!-- PRODUCT_RULE&#45;&gt;INTERATOMIC_FORCES -->
<g id="edge4" class="edge"><title>PRODUCT_RULE&#45;&gt;INTERATOMIC_FORCES</title>
<path fill="none" stroke="black" d="M72.6452,-143.831C79.8591,-135.454 88.557,-125.353 96.4605,-116.175"/>
<polygon fill="black" stroke="black" points="99.2711,-118.275 103.144,-108.413 93.9667,-113.707 99.2711,-118.275"/>
</g>
<!-- CHAIN_RULE -->
<g id="node6" class="node"><title>CHAIN_RULE</title>
<a xlink:href="CHAIN_RULE.html" xlink:title=" Chain Rule " target="_top">
<polyline fill="none" stroke="black" points="220,-180 144,-180 "/>
<path fill="none" stroke="black" d="M144,-180C138,-180 132,-174 132,-168"/>
<polyline fill="none" stroke="black" points="132,-168 132,-156 "/>
<path fill="none" stroke="black" d="M132,-156C132,-150 138,-144 144,-144"/>
<polyline fill="none" stroke="black" points="144,-144 220,-144 "/>
<path fill="none" stroke="black" d="M220,-144C226,-144 232,-150 232,-156"/>
<polyline fill="none" stroke="black" points="232,-156 232,-168 "/>
<path fill="none" stroke="black" d="M232,-168C232,-174 226,-180 220,-180"/>
<text text-anchor="start" x="140" y="-159.233" font-family="Times Roman,serif" font-size="14.00"> Chain Rule </text>
</a>
</g>
<!-- CHAIN_RULE&#45;&gt;INTERATOMIC_FORCES -->
<g id="edge6" class="edge"><title>CHAIN_RULE&#45;&gt;INTERATOMIC_FORCES</title>
<path fill="none" stroke="black" d="M166.102,-143.831C158.772,-135.454 149.934,-125.353 141.903,-116.175"/>
<polygon fill="black" stroke="black" points="144.331,-113.634 135.112,-108.413 139.063,-118.244 144.331,-113.634"/>
</g>
</g>
</svg>
