<?xml version="1.0" encoding="UTF-8" standalone="no"?>
<!DOCTYPE svg PUBLIC "-//W3C//DTD SVG 1.1//EN"
 "http://www.w3.org/Graphics/SVG/1.1/DTD/svg11.dtd">
<!-- Generated by graphviz version 2.26.3 (20100126.1600)
 -->
<!-- Title: _anonymous_0 Pages: 1 -->
<svg width="222pt" height="188pt"
 viewBox="0.00 0.00 222.00 188.00" xmlns="http://www.w3.org/2000/svg" xmlns:xlink="http://www.w3.org/1999/xlink">
<g id="graph1" class="graph" transform="scale(1 1) rotate(0) translate(4 184)">
<title>_anonymous_0</title>
<!-- INTERATOMIC_FORCES -->
<g id="node1" class="node"><title>INTERATOMIC_FORCES</title>
<a xlink:href="INTERATOMIC_FORCES.html" xlink:title="Interatomic forces" target="_top">
<polyline fill="none" stroke="blue" stroke-width="2" points="169,-108 51,-108 "/>
<path fill="none" stroke="blue" stroke-width="2" d="M51,-108C45,-108 39,-102 39,-96"/>
<polyline fill="none" stroke="blue" stroke-width="2" points="39,-96 39,-84 "/>
<path fill="none" stroke="blue" stroke-width="2" d="M39,-84C39,-78 45,-72 51,-72"/>
<polyline fill="none" stroke="blue" stroke-width="2" points="51,-72 169,-72 "/>
<path fill="none" stroke="blue" stroke-width="2" d="M169,-72C175,-72 181,-78 181,-84"/>
<polyline fill="none" stroke="blue" stroke-width="2" points="181,-84 181,-96 "/>
<path fill="none" stroke="blue" stroke-width="2" d="M181,-96C181,-102 175,-108 169,-108"/>
<text text-anchor="start" x="47.5" y="-87.2333" font-family="Times Roman,serif" font-size="14.00">Interatomic forces</text>
</a>
</g>
<!-- MONTE_CARLO -->
<g id="node2" class="node"><title>MONTE_CARLO</title>
<a xlink:href="MONTE_CARLO.html" xlink:title="Monte Carlo Simulation" target="_top">
<polyline fill="none" stroke="black" points="188,-36 32,-36 "/>
<path fill="none" stroke="black" d="M32,-36C26,-36 20,-30 20,-24"/>
<polyline fill="none" stroke="black" points="20,-24 20,-12 "/>
<path fill="none" stroke="black" d="M20,-12C20,-6 26,-1.72899e-14 32,-1.68162e-14"/>
<polyline fill="none" stroke="black" points="32,-1.68162e-14 188,-4.5001e-15 "/>
<path fill="none" stroke="black" d="M188,-4.5001e-15C194,-4.02641e-15 200,-6 200,-12"/>
<polyline fill="none" stroke="black" points="200,-12 200,-24 "/>
<path fill="none" stroke="black" d="M200,-24C200,-30 194,-36 188,-36"/>
<text text-anchor="start" x="28.5" y="-15.2333" font-family="Times Roman,serif" font-size="14.00">Monte Carlo Simulation</text>
</a>
</g>
<!-- INTERATOMIC_FORCES&#45;&gt;MONTE_CARLO -->
<g id="edge2" class="edge"><title>INTERATOMIC_FORCES&#45;&gt;MONTE_CARLO</title>
<path fill="none" stroke="black" d="M110,-71.8314C110,-64.131 110,-54.9743 110,-46.4166"/>
<polygon fill="black" stroke="black" points="113.5,-46.4132 110,-36.4133 106.5,-46.4133 113.5,-46.4132"/>
</g>
<!-- PRODUCT_RULE -->
<g id="node4" class="node"><title>PRODUCT_RULE</title>
<a xlink:href="PRODUCT_RULE.html" xlink:title="Product Rule" target="_top">
<polyline fill="none" stroke="black" points="92,-180 12,-180 "/>
<path fill="none" stroke="black" d="M12,-180C6,-180 3.55271e-14,-174 2.84217e-14,-168"/>
<polyline fill="none" stroke="black" points="2.84217e-14,-168 1.42109e-14,-156 "/>
<path fill="none" stroke="black" d="M1.42109e-14,-156C7.10543e-15,-150 6,-144 12,-144"/>
<polyline fill="none" stroke="black" points="12,-144 92,-144 "/>
<path fill="none" stroke="black" d="M92,-144C98,-144 104,-150 104,-156"/>
<polyline fill="none" stroke="black" points="104,-156 104,-168 "/>
<path fill="none" stroke="black" d="M104,-168C104,-174 98,-180 92,-180"/>
<text text-anchor="start" x="8" y="-159.233" font-family="Times Roman,serif" font-size="14.00">Product Rule</text>
</a>
</g>
<!-- PRODUCT_RULE&#45;&gt;INTERATOMIC_FORCES -->
<g id="edge4" class="edge"><title>PRODUCT_RULE&#45;&gt;INTERATOMIC_FORCES</title>
<path fill="none" stroke="black" d="M66.6358,-143.831C73.3161,-135.539 81.3568,-125.557 88.6904,-116.453"/>
<polygon fill="black" stroke="black" points="91.6194,-118.396 95.1671,-108.413 86.1681,-114.005 91.6194,-118.396"/>
</g>
<!-- CHAIN_RULE -->
<g id="node6" class="node"><title>CHAIN_RULE</title>
<a xlink:href="CHAIN_RULE.html" xlink:title="Chain Rule" target="_top">
<polyline fill="none" stroke="black" points="202,-180 134,-180 "/>
<path fill="none" stroke="black" d="M134,-180C128,-180 122,-174 122,-168"/>
<polyline fill="none" stroke="black" points="122,-168 122,-156 "/>
<path fill="none" stroke="black" d="M122,-156C122,-150 128,-144 134,-144"/>
<polyline fill="none" stroke="black" points="134,-144 202,-144 "/>
<path fill="none" stroke="black" d="M202,-144C208,-144 214,-150 214,-156"/>
<polyline fill="none" stroke="black" points="214,-156 214,-168 "/>
<path fill="none" stroke="black" d="M214,-168C214,-174 208,-180 202,-180"/>
<text text-anchor="start" x="130.5" y="-159.233" font-family="Times Roman,serif" font-size="14.00">Chain Rule</text>
</a>
</g>
<!-- CHAIN_RULE&#45;&gt;INTERATOMIC_FORCES -->
<g id="edge6" class="edge"><title>CHAIN_RULE&#45;&gt;INTERATOMIC_FORCES</title>
<path fill="none" stroke="black" d="M153.364,-143.831C146.684,-135.539 138.643,-125.557 131.31,-116.453"/>
<polygon fill="black" stroke="black" points="133.832,-114.005 124.833,-108.413 128.381,-118.396 133.832,-114.005"/>
</g>
</g>
</svg>
