<?xml version="1.0" encoding="UTF-8" standalone="no"?>
<!DOCTYPE svg PUBLIC "-//W3C//DTD SVG 1.1//EN"
 "http://www.w3.org/Graphics/SVG/1.1/DTD/svg11.dtd">
<!-- Generated by graphviz version 2.28.0 (20110509.1545)
 -->
<!-- Title: _anonymous_0 Pages: 1 -->
<svg width="210pt" height="188pt"
 viewBox="0.00 0.00 210.00 188.00" xmlns="http://www.w3.org/2000/svg" xmlns:xlink="http://www.w3.org/1999/xlink">
<g id="graph1" class="graph" transform="scale(1 1) rotate(0) translate(4 184)">
<title>_anonymous_0</title>
<!-- INTEGRATION_BY_SUBSTITUTION -->
<g id="node1" class="node"><title>INTEGRATION_BY_SUBSTITUTION</title>
<a xlink:href="INTEGRATION_BY_SUBSTITUTION.html" xlink:title="Integration by substitution" target="_top">
<polyline fill="none" stroke="blue" stroke-width="2" points="171,-108 31,-108 "/>
<path fill="none" stroke="blue" stroke-width="2" d="M31,-108C25,-108 19,-102 19,-96"/>
<polyline fill="none" stroke="blue" stroke-width="2" points="19,-96 19,-84 "/>
<path fill="none" stroke="blue" stroke-width="2" d="M19,-84C19,-78 25,-72 31,-72"/>
<polyline fill="none" stroke="blue" stroke-width="2" points="31,-72 171,-72 "/>
<path fill="none" stroke="blue" stroke-width="2" d="M171,-72C177,-72 183,-78 183,-84"/>
<polyline fill="none" stroke="blue" stroke-width="2" points="183,-84 183,-96 "/>
<path fill="none" stroke="blue" stroke-width="2" d="M183,-96C183,-102 177,-108 171,-108"/>
<text text-anchor="start" x="27.5" y="-84.5" font-family="Times,serif" font-size="14.00">Integration by substitution</text>
</a>
</g>
<!-- NORMAL_RANDOM_VARIABLE -->
<g id="node4" class="node"><title>NORMAL_RANDOM_VARIABLE</title>
<a xlink:href="NORMAL_RANDOM_VARIABLE.html" xlink:title="Normal random variable" target="_top">
<polyline fill="none" stroke="black" points="166,-36 36,-36 "/>
<path fill="none" stroke="black" d="M36,-36C30,-36 24,-30 24,-24"/>
<polyline fill="none" stroke="black" points="24,-24 24,-12 "/>
<path fill="none" stroke="black" d="M24,-12C24,-6 30,-0 36,-0"/>
<polyline fill="none" stroke="black" points="36,-0 166,-0 "/>
<path fill="none" stroke="black" d="M166,-0C172,-0 178,-6 178,-12"/>
<polyline fill="none" stroke="black" points="178,-12 178,-24 "/>
<path fill="none" stroke="black" d="M178,-24C178,-30 172,-36 166,-36"/>
<text text-anchor="start" x="32.5" y="-12.5" font-family="Times,serif" font-size="14.00">Normal random variable</text>
</a>
</g>
<!-- INTEGRATION_BY_SUBSTITUTION&#45;&gt;NORMAL_RANDOM_VARIABLE -->
<g id="edge4" class="edge"><title>INTEGRATION_BY_SUBSTITUTION&#45;&gt;NORMAL_RANDOM_VARIABLE</title>
<path fill="none" stroke="black" d="M101,-71.6966C101,-63.9827 101,-54.7125 101,-46.1124"/>
<polygon fill="black" stroke="black" points="104.5,-46.1043 101,-36.1043 97.5001,-46.1044 104.5,-46.1043"/>
</g>
<!-- FUNDAMENTAL_THEOREM_OF_CALCULUS -->
<g id="node2" class="node"><title>FUNDAMENTAL_THEOREM_OF_CALCULUS</title>
<a xlink:href="FUNDAMENTAL_THEOREM_OF_CALCULUS.html" xlink:title="Fundamental theorem of calculus" target="_top">
<polyline fill="none" stroke="black" points="190.25,-180 11.75,-180 "/>
<path fill="none" stroke="black" d="M11.75,-180C5.75,-180 -0.25,-174 -0.25,-168"/>
<polyline fill="none" stroke="black" points="-0.25,-168 -0.25,-156 "/>
<path fill="none" stroke="black" d="M-0.25,-156C-0.25,-150 5.75,-144 11.75,-144"/>
<polyline fill="none" stroke="black" points="11.75,-144 190.25,-144 "/>
<path fill="none" stroke="black" d="M190.25,-144C196.25,-144 202.25,-150 202.25,-156"/>
<polyline fill="none" stroke="black" points="202.25,-156 202.25,-168 "/>
<path fill="none" stroke="black" d="M202.25,-168C202.25,-174 196.25,-180 190.25,-180"/>
<text text-anchor="start" x="8" y="-156.5" font-family="Times,serif" font-size="14.00">Fundamental theorem of calculus</text>
</a>
</g>
<!-- FUNDAMENTAL_THEOREM_OF_CALCULUS&#45;&gt;INTEGRATION_BY_SUBSTITUTION -->
<g id="edge2" class="edge"><title>FUNDAMENTAL_THEOREM_OF_CALCULUS&#45;&gt;INTEGRATION_BY_SUBSTITUTION</title>
<path fill="none" stroke="black" d="M101,-143.697C101,-135.983 101,-126.712 101,-118.112"/>
<polygon fill="black" stroke="black" points="104.5,-118.104 101,-108.104 97.5001,-118.104 104.5,-118.104"/>
</g>
</g>
</svg>
