<?xml version="1.0" encoding="UTF-8" standalone="no"?>
<!DOCTYPE svg PUBLIC "-//W3C//DTD SVG 1.1//EN"
 "http://www.w3.org/Graphics/SVG/1.1/DTD/svg11.dtd">
<!-- Generated by graphviz version 2.36.0 (20140111.2315)
 -->
<!-- Title: %3 Pages: 1 -->
<svg width="214pt" height="188pt"
 viewBox="0.00 0.00 214.00 188.00" xmlns="http://www.w3.org/2000/svg" xmlns:xlink="http://www.w3.org/1999/xlink">
<g id="graph0" class="graph" transform="scale(1 1) rotate(0) translate(4 184)">
<title>%3</title>
<!-- INTEGRATION_BY_PARTS -->
<g id="node1" class="node"><title>INTEGRATION_BY_PARTS</title>
<g id="a_node1"><a xlink:href="INTEGRATION_BY_PARTS.html" xlink:title=" Integration by parts " target="_top">
<path fill="none" stroke="blue" stroke-width="2" d="M156.25,-108C156.25,-108 49.75,-108 49.75,-108 43.75,-108 37.75,-102 37.75,-96 37.75,-96 37.75,-84 37.75,-84 37.75,-78 43.75,-72 49.75,-72 49.75,-72 156.25,-72 156.25,-72 162.25,-72 168.25,-78 168.25,-84 168.25,-84 168.25,-96 168.25,-96 168.25,-102 162.25,-108 156.25,-108"/>
<text text-anchor="start" x="45.5" y="-86.3" font-family="Times,serif" font-size="14.00"> Integration by parts </text>
</a>
</g>
</g>
<!-- EXPONENTIAL_RANDOM_VARIABLE -->
<g id="node3" class="node"><title>EXPONENTIAL_RANDOM_VARIABLE</title>
<g id="a_node3"><a xlink:href="EXPONENTIAL_RANDOM_VARIABLE.html" xlink:title=" Exponential random variable " target="_top">
<path fill="none" stroke="black" d="M182,-36C182,-36 24,-36 24,-36 18,-36 12,-30 12,-24 12,-24 12,-12 12,-12 12,-6 18,-0 24,-0 24,-0 182,-0 182,-0 188,-0 194,-6 194,-12 194,-12 194,-24 194,-24 194,-30 188,-36 182,-36"/>
<text text-anchor="start" x="20" y="-14.3" font-family="Times,serif" font-size="14.00"> Exponential random variable </text>
</a>
</g>
</g>
<!-- INTEGRATION_BY_PARTS&#45;&gt;EXPONENTIAL_RANDOM_VARIABLE -->
<g id="edge2" class="edge"><title>INTEGRATION_BY_PARTS&#45;&gt;EXPONENTIAL_RANDOM_VARIABLE</title>
<path fill="none" stroke="black" d="M103,-71.6966C103,-63.9827 103,-54.7125 103,-46.1124"/>
<polygon fill="black" stroke="black" points="106.5,-46.1043 103,-36.1043 99.5001,-46.1044 106.5,-46.1043"/>
</g>
<!-- FUNDAMENTAL_THEOREM_OF_CALCULUS -->
<g id="node2" class="node"><title>FUNDAMENTAL_THEOREM_OF_CALCULUS</title>
<g id="a_node2"><a xlink:href="FUNDAMENTAL_THEOREM_OF_CALCULUS.html" xlink:title=" Fundamental theorem of calculus " target="_top">
<path fill="none" stroke="black" d="M194.25,-180C194.25,-180 11.75,-180 11.75,-180 5.75,-180 -0.25,-174 -0.25,-168 -0.25,-168 -0.25,-156 -0.25,-156 -0.25,-150 5.75,-144 11.75,-144 11.75,-144 194.25,-144 194.25,-144 200.25,-144 206.25,-150 206.25,-156 206.25,-156 206.25,-168 206.25,-168 206.25,-174 200.25,-180 194.25,-180"/>
<text text-anchor="start" x="7.5" y="-158.3" font-family="Times,serif" font-size="14.00"> Fundamental theorem of calculus </text>
</a>
</g>
</g>
<!-- FUNDAMENTAL_THEOREM_OF_CALCULUS&#45;&gt;INTEGRATION_BY_PARTS -->
<g id="edge1" class="edge"><title>FUNDAMENTAL_THEOREM_OF_CALCULUS&#45;&gt;INTEGRATION_BY_PARTS</title>
<path fill="none" stroke="black" d="M103,-143.697C103,-135.983 103,-126.712 103,-118.112"/>
<polygon fill="black" stroke="black" points="106.5,-118.104 103,-108.104 99.5001,-118.104 106.5,-118.104"/>
</g>
</g>
</svg>
