<?xml version="1.0" encoding="UTF-8" standalone="no"?>
<!DOCTYPE svg PUBLIC "-//W3C//DTD SVG 1.1//EN"
 "http://www.w3.org/Graphics/SVG/1.1/DTD/svg11.dtd">
<!-- Generated by graphviz version 2.26.3 (20100126.1600)
 -->
<!-- Title: _anonymous_0 Pages: 1 -->
<svg width="254pt" height="188pt"
 viewBox="0.00 0.00 254.00 188.00" xmlns="http://www.w3.org/2000/svg" xmlns:xlink="http://www.w3.org/1999/xlink">
<g id="graph1" class="graph" transform="scale(1 1) rotate(0) translate(4 184)">
<title>_anonymous_0</title>
<!-- INTEGRATION_BY_PARTS -->
<g id="node1" class="node"><title>INTEGRATION_BY_PARTS</title>
<a xlink:href="INTEGRATION_BY_PARTS.html" xlink:title="Integration by parts" target="_top">
<polyline fill="none" stroke="blue" stroke-width="2" points="189,-108 57,-108 "/>
<path fill="none" stroke="blue" stroke-width="2" d="M57,-108C51,-108 45,-102 45,-96"/>
<polyline fill="none" stroke="blue" stroke-width="2" points="45,-96 45,-84 "/>
<path fill="none" stroke="blue" stroke-width="2" d="M45,-84C45,-78 51,-72 57,-72"/>
<polyline fill="none" stroke="blue" stroke-width="2" points="57,-72 189,-72 "/>
<path fill="none" stroke="blue" stroke-width="2" d="M189,-72C195,-72 201,-78 201,-84"/>
<polyline fill="none" stroke="blue" stroke-width="2" points="201,-84 201,-96 "/>
<path fill="none" stroke="blue" stroke-width="2" d="M201,-96C201,-102 195,-108 189,-108"/>
<text text-anchor="start" x="53.5" y="-87.2333" font-family="Times Roman,serif" font-size="14.00">Integration by parts</text>
</a>
</g>
<!-- EXPONENTIAL_RANDOM_VARIABLE -->
<g id="node4" class="node"><title>EXPONENTIAL_RANDOM_VARIABLE</title>
<a xlink:href="EXPONENTIAL_RANDOM_VARIABLE.html" xlink:title="Exponential random variable" target="_top">
<polyline fill="none" stroke="black" points="219,-36 27,-36 "/>
<path fill="none" stroke="black" d="M27,-36C21,-36 15,-30 15,-24"/>
<polyline fill="none" stroke="black" points="15,-24 15,-12 "/>
<path fill="none" stroke="black" d="M15,-12C15,-6 21,-1.73688e-14 27,-1.69741e-14"/>
<polyline fill="none" stroke="black" points="27,-1.69741e-14 219,-4.34221e-15 "/>
<path fill="none" stroke="black" d="M219,-4.34221e-15C225,-3.94746e-15 231,-6 231,-12"/>
<polyline fill="none" stroke="black" points="231,-12 231,-24 "/>
<path fill="none" stroke="black" d="M231,-24C231,-30 225,-36 219,-36"/>
<text text-anchor="start" x="23.5" y="-15.2333" font-family="Times Roman,serif" font-size="14.00">Exponential random variable</text>
</a>
</g>
<!-- INTEGRATION_BY_PARTS&#45;&gt;EXPONENTIAL_RANDOM_VARIABLE -->
<g id="edge4" class="edge"><title>INTEGRATION_BY_PARTS&#45;&gt;EXPONENTIAL_RANDOM_VARIABLE</title>
<path fill="none" stroke="black" d="M123,-71.8314C123,-64.131 123,-54.9743 123,-46.4166"/>
<polygon fill="black" stroke="black" points="126.5,-46.4132 123,-36.4133 119.5,-46.4133 126.5,-46.4132"/>
</g>
<!-- FUNDAMENTAL_THEOREM_OF_CALCULUS -->
<g id="node2" class="node"><title>FUNDAMENTAL_THEOREM_OF_CALCULUS</title>
<a xlink:href="FUNDAMENTAL_THEOREM_OF_CALCULUS.html" xlink:title="Fundamental theorem of calculus" target="_top">
<polyline fill="none" stroke="black" points="234,-180 12,-180 "/>
<path fill="none" stroke="black" d="M12,-180C6,-180 8.28967e-14,-174 6.63173e-14,-168"/>
<polyline fill="none" stroke="black" points="6.63173e-14,-168 3.31587e-14,-156 "/>
<path fill="none" stroke="black" d="M3.31587e-14,-156C1.65793e-14,-150 6,-144 12,-144"/>
<polyline fill="none" stroke="black" points="12,-144 234,-144 "/>
<path fill="none" stroke="black" d="M234,-144C240,-144 246,-150 246,-156"/>
<polyline fill="none" stroke="black" points="246,-156 246,-168 "/>
<path fill="none" stroke="black" d="M246,-168C246,-174 240,-180 234,-180"/>
<text text-anchor="start" x="8.5" y="-159.233" font-family="Times Roman,serif" font-size="14.00">Fundamental theorem of calculus</text>
</a>
</g>
<!-- FUNDAMENTAL_THEOREM_OF_CALCULUS&#45;&gt;INTEGRATION_BY_PARTS -->
<g id="edge2" class="edge"><title>FUNDAMENTAL_THEOREM_OF_CALCULUS&#45;&gt;INTEGRATION_BY_PARTS</title>
<path fill="none" stroke="black" d="M123,-143.831C123,-136.131 123,-126.974 123,-118.417"/>
<polygon fill="black" stroke="black" points="126.5,-118.413 123,-108.413 119.5,-118.413 126.5,-118.413"/>
</g>
</g>
</svg>
