<?xml version="1.0" encoding="UTF-8" standalone="no"?>
<!DOCTYPE svg PUBLIC "-//W3C//DTD SVG 1.1//EN"
 "http://www.w3.org/Graphics/SVG/1.1/DTD/svg11.dtd">
<!-- Generated by graphviz version 2.36.0 (20140111.2315)
 -->
<!-- Title: %3 Pages: 1 -->
<svg width="214pt" height="188pt"
 viewBox="0.00 0.00 214.00 188.00" xmlns="http://www.w3.org/2000/svg" xmlns:xlink="http://www.w3.org/1999/xlink">
<g id="graph0" class="graph" transform="scale(1 1) rotate(0) translate(4 184)">
<title>%3</title>
<!-- INTEGRATION_BY_SUBSTITUTION -->
<g id="node1" class="node"><title>INTEGRATION_BY_SUBSTITUTION</title>
<g id="a_node1"><a xlink:href="INTEGRATION_BY_SUBSTITUTION.html" xlink:title=" Integration by substitution " target="_top">
<path fill="none" stroke="blue" stroke-width="2" d="M174.25,-108C174.25,-108 31.75,-108 31.75,-108 25.75,-108 19.75,-102 19.75,-96 19.75,-96 19.75,-84 19.75,-84 19.75,-78 25.75,-72 31.75,-72 31.75,-72 174.25,-72 174.25,-72 180.25,-72 186.25,-78 186.25,-84 186.25,-84 186.25,-96 186.25,-96 186.25,-102 180.25,-108 174.25,-108"/>
<text text-anchor="start" x="27.5" y="-86.3" font-family="Times,serif" font-size="14.00"> Integration by substitution </text>
</a>
</g>
</g>
<!-- NORMAL_RANDOM_VARIABLE -->
<g id="node2" class="node"><title>NORMAL_RANDOM_VARIABLE</title>
<g id="a_node2"><a xlink:href="NORMAL_RANDOM_VARIABLE.html" xlink:title=" Normal random variable " target="_top">
<path fill="none" stroke="black" d="M170.25,-36C170.25,-36 35.75,-36 35.75,-36 29.75,-36 23.75,-30 23.75,-24 23.75,-24 23.75,-12 23.75,-12 23.75,-6 29.75,-0 35.75,-0 35.75,-0 170.25,-0 170.25,-0 176.25,-0 182.25,-6 182.25,-12 182.25,-12 182.25,-24 182.25,-24 182.25,-30 176.25,-36 170.25,-36"/>
<text text-anchor="start" x="31.5" y="-14.3" font-family="Times,serif" font-size="14.00"> Normal random variable </text>
</a>
</g>
</g>
<!-- INTEGRATION_BY_SUBSTITUTION&#45;&gt;NORMAL_RANDOM_VARIABLE -->
<g id="edge1" class="edge"><title>INTEGRATION_BY_SUBSTITUTION&#45;&gt;NORMAL_RANDOM_VARIABLE</title>
<path fill="none" stroke="black" d="M103,-71.6966C103,-63.9827 103,-54.7125 103,-46.1124"/>
<polygon fill="black" stroke="black" points="106.5,-46.1043 103,-36.1043 99.5001,-46.1044 106.5,-46.1043"/>
</g>
<!-- FUNDAMENTAL_THEOREM_OF_CALCULUS -->
<g id="node3" class="node"><title>FUNDAMENTAL_THEOREM_OF_CALCULUS</title>
<g id="a_node3"><a xlink:href="FUNDAMENTAL_THEOREM_OF_CALCULUS.html" xlink:title=" Fundamental theorem of calculus " target="_top">
<path fill="none" stroke="black" d="M194.25,-180C194.25,-180 11.75,-180 11.75,-180 5.75,-180 -0.25,-174 -0.25,-168 -0.25,-168 -0.25,-156 -0.25,-156 -0.25,-150 5.75,-144 11.75,-144 11.75,-144 194.25,-144 194.25,-144 200.25,-144 206.25,-150 206.25,-156 206.25,-156 206.25,-168 206.25,-168 206.25,-174 200.25,-180 194.25,-180"/>
<text text-anchor="start" x="7.5" y="-158.3" font-family="Times,serif" font-size="14.00"> Fundamental theorem of calculus </text>
</a>
</g>
</g>
<!-- FUNDAMENTAL_THEOREM_OF_CALCULUS&#45;&gt;INTEGRATION_BY_SUBSTITUTION -->
<g id="edge2" class="edge"><title>FUNDAMENTAL_THEOREM_OF_CALCULUS&#45;&gt;INTEGRATION_BY_SUBSTITUTION</title>
<path fill="none" stroke="black" d="M103,-143.697C103,-135.983 103,-126.712 103,-118.112"/>
<polygon fill="black" stroke="black" points="106.5,-118.104 103,-108.104 99.5001,-118.104 106.5,-118.104"/>
</g>
</g>
</svg>
