<?xml version="1.0" encoding="UTF-8" standalone="no"?>
<!DOCTYPE svg PUBLIC "-//W3C//DTD SVG 1.1//EN"
 "http://www.w3.org/Graphics/SVG/1.1/DTD/svg11.dtd">
<!-- Generated by graphviz version 2.36.0 (20140111.2315)
 -->
<!-- Title: %3 Pages: 1 -->
<svg width="207pt" height="188pt"
 viewBox="0.00 0.00 207.00 188.00" xmlns="http://www.w3.org/2000/svg" xmlns:xlink="http://www.w3.org/1999/xlink">
<g id="graph0" class="graph" transform="scale(1 1) rotate(0) translate(4 184)">
<title>%3</title>
<!-- INTERATOMIC_FORCES -->
<g id="node1" class="node"><title>INTERATOMIC_FORCES</title>
<g id="a_node1"><a xlink:href="INTERATOMIC_FORCES.html" xlink:title=" Interatomic forces " target="_top">
<path fill="none" stroke="blue" stroke-width="2" d="M150.5,-108C150.5,-108 51.5,-108 51.5,-108 45.5,-108 39.5,-102 39.5,-96 39.5,-96 39.5,-84 39.5,-84 39.5,-78 45.5,-72 51.5,-72 51.5,-72 150.5,-72 150.5,-72 156.5,-72 162.5,-78 162.5,-84 162.5,-84 162.5,-96 162.5,-96 162.5,-102 156.5,-108 150.5,-108"/>
<text text-anchor="start" x="47" y="-86.3" font-family="Times,serif" font-size="14.00"> Interatomic forces </text>
</a>
</g>
</g>
<!-- MONTE_CARLO -->
<g id="node2" class="node"><title>MONTE_CARLO</title>
<g id="a_node2"><a xlink:href="MONTE_CARLO.html" xlink:title=" Monte Carlo Simulation " target="_top">
<path fill="none" stroke="black" d="M167.5,-36C167.5,-36 34.5,-36 34.5,-36 28.5,-36 22.5,-30 22.5,-24 22.5,-24 22.5,-12 22.5,-12 22.5,-6 28.5,-0 34.5,-0 34.5,-0 167.5,-0 167.5,-0 173.5,-0 179.5,-6 179.5,-12 179.5,-12 179.5,-24 179.5,-24 179.5,-30 173.5,-36 167.5,-36"/>
<text text-anchor="start" x="30" y="-14.3" font-family="Times,serif" font-size="14.00"> Monte Carlo Simulation </text>
</a>
</g>
</g>
<!-- INTERATOMIC_FORCES&#45;&gt;MONTE_CARLO -->
<g id="edge1" class="edge"><title>INTERATOMIC_FORCES&#45;&gt;MONTE_CARLO</title>
<path fill="none" stroke="black" d="M101,-71.6966C101,-63.9827 101,-54.7125 101,-46.1124"/>
<polygon fill="black" stroke="black" points="104.5,-46.1043 101,-36.1043 97.5001,-46.1044 104.5,-46.1043"/>
</g>
<!-- PRODUCT_RULE -->
<g id="node3" class="node"><title>PRODUCT_RULE</title>
<g id="a_node3"><a xlink:href="PRODUCT_RULE.html" xlink:title=" Product Rule " target="_top">
<path fill="none" stroke="black" d="M82.25,-180C82.25,-180 11.75,-180 11.75,-180 5.75,-180 -0.25,-174 -0.25,-168 -0.25,-168 -0.25,-156 -0.25,-156 -0.25,-150 5.75,-144 11.75,-144 11.75,-144 82.25,-144 82.25,-144 88.25,-144 94.25,-150 94.25,-156 94.25,-156 94.25,-168 94.25,-168 94.25,-174 88.25,-180 82.25,-180"/>
<text text-anchor="start" x="7.5" y="-158.3" font-family="Times,serif" font-size="14.00"> Product Rule </text>
</a>
</g>
</g>
<!-- PRODUCT_RULE&#45;&gt;INTERATOMIC_FORCES -->
<g id="edge2" class="edge"><title>PRODUCT_RULE&#45;&gt;INTERATOMIC_FORCES</title>
<path fill="none" stroke="black" d="M60.3483,-143.697C66.7568,-135.389 74.5577,-125.277 81.6057,-116.141"/>
<polygon fill="black" stroke="black" points="84.4684,-118.16 87.8052,-108.104 78.9259,-113.884 84.4684,-118.16"/>
</g>
<!-- CHAIN_RULE -->
<g id="node4" class="node"><title>CHAIN_RULE</title>
<g id="a_node4"><a xlink:href="CHAIN_RULE.html" xlink:title=" Chain Rule " target="_top">
<path fill="none" stroke="black" d="M187,-180C187,-180 125,-180 125,-180 119,-180 113,-174 113,-168 113,-168 113,-156 113,-156 113,-150 119,-144 125,-144 125,-144 187,-144 187,-144 193,-144 199,-150 199,-156 199,-156 199,-168 199,-168 199,-174 193,-180 187,-180"/>
<text text-anchor="start" x="121" y="-158.3" font-family="Times,serif" font-size="14.00"> Chain Rule </text>
</a>
</g>
</g>
<!-- CHAIN_RULE&#45;&gt;INTERATOMIC_FORCES -->
<g id="edge3" class="edge"><title>CHAIN_RULE&#45;&gt;INTERATOMIC_FORCES</title>
<path fill="none" stroke="black" d="M142.404,-143.697C135.877,-135.389 127.932,-125.277 120.753,-116.141"/>
<polygon fill="black" stroke="black" points="123.369,-113.805 114.439,-108.104 117.865,-118.13 123.369,-113.805"/>
</g>
</g>
</svg>
