<?xml version="1.0" encoding="UTF-8" standalone="no"?>
<!DOCTYPE svg PUBLIC "-//W3C//DTD SVG 1.1//EN"
 "http://www.w3.org/Graphics/SVG/1.1/DTD/svg11.dtd">
<!-- Generated by graphviz version 2.26.3 (20100126.1600)
 -->
<!-- Title: _anonymous_0 Pages: 1 -->
<svg width="262pt" height="188pt"
 viewBox="0.00 0.00 262.00 188.00" xmlns="http://www.w3.org/2000/svg" xmlns:xlink="http://www.w3.org/1999/xlink">
<g id="graph1" class="graph" transform="scale(1 1) rotate(0) translate(4 184)">
<title>_anonymous_0</title>
<!-- INTEGRATION_BY_SUBSTITUTION -->
<g id="node1" class="node"><title>INTEGRATION_BY_SUBSTITUTION</title>
<a xlink:href="INTEGRATION_BY_SUBSTITUTION.html" xlink:title=" Integration by substitution " target="_top">
<polyline fill="none" stroke="blue" stroke-width="2" points="221,-108 33,-108 "/>
<path fill="none" stroke="blue" stroke-width="2" d="M33,-108C27,-108 21,-102 21,-96"/>
<polyline fill="none" stroke="blue" stroke-width="2" points="21,-96 21,-84 "/>
<path fill="none" stroke="blue" stroke-width="2" d="M21,-84C21,-78 27,-72 33,-72"/>
<polyline fill="none" stroke="blue" stroke-width="2" points="33,-72 221,-72 "/>
<path fill="none" stroke="blue" stroke-width="2" d="M221,-72C227,-72 233,-78 233,-84"/>
<polyline fill="none" stroke="blue" stroke-width="2" points="233,-84 233,-96 "/>
<path fill="none" stroke="blue" stroke-width="2" d="M233,-96C233,-102 227,-108 221,-108"/>
<text text-anchor="start" x="29.5" y="-87.2333" font-family="Times Roman,serif" font-size="14.00"> Integration by substitution </text>
</a>
</g>
<!-- NORMAL_RANDOM_VARIABLE -->
<g id="node4" class="node"><title>NORMAL_RANDOM_VARIABLE</title>
<a xlink:href="NORMAL_RANDOM_VARIABLE.html" xlink:title=" Normal random variable " target="_top">
<polyline fill="none" stroke="black" points="211,-36 43,-36 "/>
<path fill="none" stroke="black" d="M43,-36C37,-36 31,-30 31,-24"/>
<polyline fill="none" stroke="black" points="31,-24 31,-12 "/>
<path fill="none" stroke="black" d="M31,-12C31,-6 37,-1.73195e-14 43,-1.68754e-14"/>
<polyline fill="none" stroke="black" points="43,-1.68754e-14 211,-4.44089e-15 "/>
<path fill="none" stroke="black" d="M211,-4.44089e-15C217,-3.9968e-15 223,-6 223,-12"/>
<polyline fill="none" stroke="black" points="223,-12 223,-24 "/>
<path fill="none" stroke="black" d="M223,-24C223,-30 217,-36 211,-36"/>
<text text-anchor="start" x="39.5" y="-15.2333" font-family="Times Roman,serif" font-size="14.00"> Normal random variable </text>
</a>
</g>
<!-- INTEGRATION_BY_SUBSTITUTION&#45;&gt;NORMAL_RANDOM_VARIABLE -->
<g id="edge4" class="edge"><title>INTEGRATION_BY_SUBSTITUTION&#45;&gt;NORMAL_RANDOM_VARIABLE</title>
<path fill="none" stroke="black" d="M127,-71.8314C127,-64.131 127,-54.9743 127,-46.4166"/>
<polygon fill="black" stroke="black" points="130.5,-46.4132 127,-36.4133 123.5,-46.4133 130.5,-46.4132"/>
</g>
<!-- FUNDAMENTAL_THEOREM_OF_CALCULUS -->
<g id="node2" class="node"><title>FUNDAMENTAL_THEOREM_OF_CALCULUS</title>
<a xlink:href="FUNDAMENTAL_THEOREM_OF_CALCULUS.html" xlink:title=" Fundamental theorem of calculus " target="_top">
<polyline fill="none" stroke="black" points="242,-180 12,-180 "/>
<path fill="none" stroke="black" d="M12,-180C6,-180 9.4739e-14,-174 7.57912e-14,-168"/>
<polyline fill="none" stroke="black" points="7.57912e-14,-168 3.78956e-14,-156 "/>
<path fill="none" stroke="black" d="M3.78956e-14,-156C1.89478e-14,-150 6,-144 12,-144"/>
<polyline fill="none" stroke="black" points="12,-144 242,-144 "/>
<path fill="none" stroke="black" d="M242,-144C248,-144 254,-150 254,-156"/>
<polyline fill="none" stroke="black" points="254,-156 254,-168 "/>
<path fill="none" stroke="black" d="M254,-168C254,-174 248,-180 242,-180"/>
<text text-anchor="start" x="8" y="-159.233" font-family="Times Roman,serif" font-size="14.00"> Fundamental theorem of calculus </text>
</a>
</g>
<!-- FUNDAMENTAL_THEOREM_OF_CALCULUS&#45;&gt;INTEGRATION_BY_SUBSTITUTION -->
<g id="edge2" class="edge"><title>FUNDAMENTAL_THEOREM_OF_CALCULUS&#45;&gt;INTEGRATION_BY_SUBSTITUTION</title>
<path fill="none" stroke="black" d="M127,-143.831C127,-136.131 127,-126.974 127,-118.417"/>
<polygon fill="black" stroke="black" points="130.5,-118.413 127,-108.413 123.5,-118.413 130.5,-118.413"/>
</g>
</g>
</svg>
