<?xml version="1.0" encoding="UTF-8" standalone="no"?>
<!DOCTYPE svg PUBLIC "-//W3C//DTD SVG 1.1//EN"
 "http://www.w3.org/Graphics/SVG/1.1/DTD/svg11.dtd">
<!-- Generated by graphviz version 2.26.3 (20100126.1600)
 -->
<!-- Title: _anonymous_0 Pages: 1 -->
<svg width="232pt" height="188pt"
 viewBox="0.00 0.00 232.00 188.00" xmlns="http://www.w3.org/2000/svg" xmlns:xlink="http://www.w3.org/1999/xlink">
<g id="graph1" class="graph" transform="scale(1 1) rotate(0) translate(4 184)">
<title>_anonymous_0</title>
<!-- INTRODUCTION_TO_CONTINUITY -->
<g id="node1" class="node"><title>INTRODUCTION_TO_CONTINUITY</title>
<a xlink:href="INTRODUCTION_TO_CONTINUITY.html" xlink:title="Introduction to continuity" target="_top">
<polyline fill="none" stroke="blue" stroke-width="2" points="197,-108 27,-108 "/>
<path fill="none" stroke="blue" stroke-width="2" d="M27,-108C21,-108 15,-102 15,-96"/>
<polyline fill="none" stroke="blue" stroke-width="2" points="15,-96 15,-84 "/>
<path fill="none" stroke="blue" stroke-width="2" d="M15,-84C15,-78 21,-72 27,-72"/>
<polyline fill="none" stroke="blue" stroke-width="2" points="27,-72 197,-72 "/>
<path fill="none" stroke="blue" stroke-width="2" d="M197,-72C203,-72 209,-78 209,-84"/>
<polyline fill="none" stroke="blue" stroke-width="2" points="209,-84 209,-96 "/>
<path fill="none" stroke="blue" stroke-width="2" d="M209,-96C209,-102 203,-108 197,-108"/>
<text text-anchor="start" x="23" y="-87.2333" font-family="Times Roman,serif" font-size="14.00">Introduction to continuity</text>
</a>
</g>
<!-- TAYLOR_SERIES -->
<g id="node4" class="node"><title>TAYLOR_SERIES</title>
<a xlink:href="TAYLOR_SERIES.html" xlink:title="One dimensional Taylor Series" target="_top">
<polyline fill="none" stroke="black" points="212,-36 12,-36 "/>
<path fill="none" stroke="black" d="M12,-36C6,-36 8.28967e-14,-30 6.63173e-14,-24"/>
<polyline fill="none" stroke="black" points="6.63173e-14,-24 3.31587e-14,-12 "/>
<path fill="none" stroke="black" d="M3.31587e-14,-12C1.65793e-14,-6 6,-1.73829e-14 12,-1.70023e-14"/>
<polyline fill="none" stroke="black" points="12,-1.70023e-14 212,-4.31401e-15 "/>
<path fill="none" stroke="black" d="M212,-4.31401e-15C218,-3.93336e-15 224,-6 224,-12"/>
<polyline fill="none" stroke="black" points="224,-12 224,-24 "/>
<path fill="none" stroke="black" d="M224,-24C224,-30 218,-36 212,-36"/>
<text text-anchor="start" x="8" y="-15.2333" font-family="Times Roman,serif" font-size="14.00">One dimensional Taylor Series</text>
</a>
</g>
<!-- INTRODUCTION_TO_CONTINUITY&#45;&gt;TAYLOR_SERIES -->
<g id="edge4" class="edge"><title>INTRODUCTION_TO_CONTINUITY&#45;&gt;TAYLOR_SERIES</title>
<path fill="none" stroke="black" d="M112,-71.8314C112,-64.131 112,-54.9743 112,-46.4166"/>
<polygon fill="black" stroke="black" points="115.5,-46.4132 112,-36.4133 108.5,-46.4133 115.5,-46.4132"/>
</g>
<!-- LIMITS -->
<g id="node2" class="node"><title>LIMITS</title>
<a xlink:href="LIMITS.html" xlink:title="Limit of a function" target="_top">
<polyline fill="none" stroke="black" points="171,-180 53,-180 "/>
<path fill="none" stroke="black" d="M53,-180C47,-180 41,-174 41,-168"/>
<polyline fill="none" stroke="black" points="41,-168 41,-156 "/>
<path fill="none" stroke="black" d="M41,-156C41,-150 47,-144 53,-144"/>
<polyline fill="none" stroke="black" points="53,-144 171,-144 "/>
<path fill="none" stroke="black" d="M171,-144C177,-144 183,-150 183,-156"/>
<polyline fill="none" stroke="black" points="183,-156 183,-168 "/>
<path fill="none" stroke="black" d="M183,-168C183,-174 177,-180 171,-180"/>
<text text-anchor="start" x="49" y="-159.233" font-family="Times Roman,serif" font-size="14.00">Limit of a function</text>
</a>
</g>
<!-- LIMITS&#45;&gt;INTRODUCTION_TO_CONTINUITY -->
<g id="edge2" class="edge"><title>LIMITS&#45;&gt;INTRODUCTION_TO_CONTINUITY</title>
<path fill="none" stroke="black" d="M112,-143.831C112,-136.131 112,-126.974 112,-118.417"/>
<polygon fill="black" stroke="black" points="115.5,-118.413 112,-108.413 108.5,-118.413 115.5,-118.413"/>
</g>
</g>
</svg>
