<?xml version="1.0" encoding="UTF-8" standalone="no"?>
<!DOCTYPE svg PUBLIC "-//W3C//DTD SVG 1.1//EN"
 "http://www.w3.org/Graphics/SVG/1.1/DTD/svg11.dtd">
<!-- Generated by graphviz version 2.36.0 (20140111.2315)
 -->
<!-- Title: %3 Pages: 1 -->
<svg width="200pt" height="188pt"
 viewBox="0.00 0.00 200.00 188.00" xmlns="http://www.w3.org/2000/svg" xmlns:xlink="http://www.w3.org/1999/xlink">
<g id="graph0" class="graph" transform="scale(1 1) rotate(0) translate(4 184)">
<title>%3</title>
<!-- INTRODUCTION_TO_CONTINUITY -->
<g id="node1" class="node"><title>INTRODUCTION_TO_CONTINUITY</title>
<g id="a_node1"><a xlink:href="INTRODUCTION_TO_CONTINUITY.html" xlink:title=" Introduction to continuity " target="_top">
<path fill="none" stroke="blue" stroke-width="2" d="M166,-108C166,-108 26,-108 26,-108 20,-108 14,-102 14,-96 14,-96 14,-84 14,-84 14,-78 20,-72 26,-72 26,-72 166,-72 166,-72 172,-72 178,-78 178,-84 178,-84 178,-96 178,-96 178,-102 172,-108 166,-108"/>
<text text-anchor="start" x="22" y="-86.3" font-family="Times,serif" font-size="14.00"> Introduction to continuity </text>
</a>
</g>
</g>
<!-- TAYLOR_SERIES -->
<g id="node2" class="node"><title>TAYLOR_SERIES</title>
<g id="a_node2"><a xlink:href="TAYLOR_SERIES.html" xlink:title=" One dimensional Taylor Series " target="_top">
<path fill="none" stroke="black" d="M180.5,-36C180.5,-36 11.5,-36 11.5,-36 5.5,-36 -0.5,-30 -0.5,-24 -0.5,-24 -0.5,-12 -0.5,-12 -0.5,-6 5.5,-0 11.5,-0 11.5,-0 180.5,-0 180.5,-0 186.5,-0 192.5,-6 192.5,-12 192.5,-12 192.5,-24 192.5,-24 192.5,-30 186.5,-36 180.5,-36"/>
<text text-anchor="start" x="7" y="-14.3" font-family="Times,serif" font-size="14.00"> One dimensional Taylor Series </text>
</a>
</g>
</g>
<!-- INTRODUCTION_TO_CONTINUITY&#45;&gt;TAYLOR_SERIES -->
<g id="edge1" class="edge"><title>INTRODUCTION_TO_CONTINUITY&#45;&gt;TAYLOR_SERIES</title>
<path fill="none" stroke="black" d="M96,-71.6966C96,-63.9827 96,-54.7125 96,-46.1124"/>
<polygon fill="black" stroke="black" points="99.5001,-46.1043 96,-36.1043 92.5001,-46.1044 99.5001,-46.1043"/>
</g>
<!-- LIMITS -->
<g id="node3" class="node"><title>LIMITS</title>
<g id="a_node3"><a xlink:href="LIMITS.html" xlink:title=" Limit of a function " target="_top">
<path fill="none" stroke="black" d="M148,-180C148,-180 44,-180 44,-180 38,-180 32,-174 32,-168 32,-168 32,-156 32,-156 32,-150 38,-144 44,-144 44,-144 148,-144 148,-144 154,-144 160,-150 160,-156 160,-156 160,-168 160,-168 160,-174 154,-180 148,-180"/>
<text text-anchor="start" x="40" y="-158.3" font-family="Times,serif" font-size="14.00"> Limit of a function </text>
</a>
</g>
</g>
<!-- LIMITS&#45;&gt;INTRODUCTION_TO_CONTINUITY -->
<g id="edge2" class="edge"><title>LIMITS&#45;&gt;INTRODUCTION_TO_CONTINUITY</title>
<path fill="none" stroke="black" d="M96,-143.697C96,-135.983 96,-126.712 96,-118.112"/>
<polygon fill="black" stroke="black" points="99.5001,-118.104 96,-108.104 92.5001,-118.104 99.5001,-118.104"/>
</g>
</g>
</svg>
