<?xml version="1.0" encoding="UTF-8" standalone="no"?>
<!DOCTYPE svg PUBLIC "-//W3C//DTD SVG 1.1//EN"
 "http://www.w3.org/Graphics/SVG/1.1/DTD/svg11.dtd">
<!-- Generated by graphviz version 2.28.0 (20110509.1545)
 -->
<!-- Title: _anonymous_0 Pages: 1 -->
<svg width="196pt" height="188pt"
 viewBox="0.00 0.00 196.00 188.00" xmlns="http://www.w3.org/2000/svg" xmlns:xlink="http://www.w3.org/1999/xlink">
<g id="graph1" class="graph" transform="scale(1 1) rotate(0) translate(4 184)">
<title>_anonymous_0</title>
<!-- INTRODUCTION_TO_CONTINUITY -->
<g id="node1" class="node"><title>INTRODUCTION_TO_CONTINUITY</title>
<a xlink:href="INTRODUCTION_TO_CONTINUITY.html" xlink:title="Introduction to continuity" target="_top">
<polyline fill="none" stroke="blue" stroke-width="2" points="162,-108 26,-108 "/>
<path fill="none" stroke="blue" stroke-width="2" d="M26,-108C20,-108 14,-102 14,-96"/>
<polyline fill="none" stroke="blue" stroke-width="2" points="14,-96 14,-84 "/>
<path fill="none" stroke="blue" stroke-width="2" d="M14,-84C14,-78 20,-72 26,-72"/>
<polyline fill="none" stroke="blue" stroke-width="2" points="26,-72 162,-72 "/>
<path fill="none" stroke="blue" stroke-width="2" d="M162,-72C168,-72 174,-78 174,-84"/>
<polyline fill="none" stroke="blue" stroke-width="2" points="174,-84 174,-96 "/>
<path fill="none" stroke="blue" stroke-width="2" d="M174,-96C174,-102 168,-108 162,-108"/>
<text text-anchor="start" x="22.5" y="-84.5" font-family="Times,serif" font-size="14.00">Introduction to continuity</text>
</a>
</g>
<!-- TAYLOR_SERIES -->
<g id="node4" class="node"><title>TAYLOR_SERIES</title>
<a xlink:href="TAYLOR_SERIES.html" xlink:title="One dimensional Taylor Series" target="_top">
<polyline fill="none" stroke="black" points="176.25,-36 11.75,-36 "/>
<path fill="none" stroke="black" d="M11.75,-36C5.75,-36 -0.25,-30 -0.25,-24"/>
<polyline fill="none" stroke="black" points="-0.25,-24 -0.25,-12 "/>
<path fill="none" stroke="black" d="M-0.25,-12C-0.25,-6 5.75,-0 11.75,-0"/>
<polyline fill="none" stroke="black" points="11.75,-0 176.25,-0 "/>
<path fill="none" stroke="black" d="M176.25,-0C182.25,-0 188.25,-6 188.25,-12"/>
<polyline fill="none" stroke="black" points="188.25,-12 188.25,-24 "/>
<path fill="none" stroke="black" d="M188.25,-24C188.25,-30 182.25,-36 176.25,-36"/>
<text text-anchor="start" x="8" y="-12.5" font-family="Times,serif" font-size="14.00">One dimensional Taylor Series</text>
</a>
</g>
<!-- INTRODUCTION_TO_CONTINUITY&#45;&gt;TAYLOR_SERIES -->
<g id="edge4" class="edge"><title>INTRODUCTION_TO_CONTINUITY&#45;&gt;TAYLOR_SERIES</title>
<path fill="none" stroke="black" d="M94,-71.6966C94,-63.9827 94,-54.7125 94,-46.1124"/>
<polygon fill="black" stroke="black" points="97.5001,-46.1043 94,-36.1043 90.5001,-46.1044 97.5001,-46.1043"/>
</g>
<!-- LIMITS -->
<g id="node2" class="node"><title>LIMITS</title>
<a xlink:href="LIMITS.html" xlink:title="Limit of a function" target="_top">
<polyline fill="none" stroke="black" points="143.25,-180 44.75,-180 "/>
<path fill="none" stroke="black" d="M44.75,-180C38.75,-180 32.75,-174 32.75,-168"/>
<polyline fill="none" stroke="black" points="32.75,-168 32.75,-156 "/>
<path fill="none" stroke="black" d="M32.75,-156C32.75,-150 38.75,-144 44.75,-144"/>
<polyline fill="none" stroke="black" points="44.75,-144 143.25,-144 "/>
<path fill="none" stroke="black" d="M143.25,-144C149.25,-144 155.25,-150 155.25,-156"/>
<polyline fill="none" stroke="black" points="155.25,-156 155.25,-168 "/>
<path fill="none" stroke="black" d="M155.25,-168C155.25,-174 149.25,-180 143.25,-180"/>
<text text-anchor="start" x="41" y="-156.5" font-family="Times,serif" font-size="14.00">Limit of a function</text>
</a>
</g>
<!-- LIMITS&#45;&gt;INTRODUCTION_TO_CONTINUITY -->
<g id="edge2" class="edge"><title>LIMITS&#45;&gt;INTRODUCTION_TO_CONTINUITY</title>
<path fill="none" stroke="black" d="M94,-143.697C94,-135.983 94,-126.712 94,-118.112"/>
<polygon fill="black" stroke="black" points="97.5001,-118.104 94,-108.104 90.5001,-118.104 97.5001,-118.104"/>
</g>
</g>
</svg>
