<?xml version="1.0" encoding="UTF-8" standalone="no"?>
<!DOCTYPE svg PUBLIC "-//W3C//DTD SVG 1.1//EN"
 "http://www.w3.org/Graphics/SVG/1.1/DTD/svg11.dtd">
<!-- Generated by graphviz version 2.26.3 (20100126.1600)
 -->
<!-- Title: _anonymous_0 Pages: 1 -->
<svg width="242pt" height="188pt"
 viewBox="0.00 0.00 242.00 188.00" xmlns="http://www.w3.org/2000/svg" xmlns:xlink="http://www.w3.org/1999/xlink">
<g id="graph1" class="graph" transform="scale(1 1) rotate(0) translate(4 184)">
<title>_anonymous_0</title>
<!-- INTRODUCTION_TO_CONTINUITY -->
<g id="node1" class="node"><title>INTRODUCTION_TO_CONTINUITY</title>
<a xlink:href="INTRODUCTION_TO_CONTINUITY.html" xlink:title=" Introduction to continuity " target="_top">
<polyline fill="none" stroke="blue" stroke-width="2" points="207,-108 27,-108 "/>
<path fill="none" stroke="blue" stroke-width="2" d="M27,-108C21,-108 15,-102 15,-96"/>
<polyline fill="none" stroke="blue" stroke-width="2" points="15,-96 15,-84 "/>
<path fill="none" stroke="blue" stroke-width="2" d="M15,-84C15,-78 21,-72 27,-72"/>
<polyline fill="none" stroke="blue" stroke-width="2" points="27,-72 207,-72 "/>
<path fill="none" stroke="blue" stroke-width="2" d="M207,-72C213,-72 219,-78 219,-84"/>
<polyline fill="none" stroke="blue" stroke-width="2" points="219,-84 219,-96 "/>
<path fill="none" stroke="blue" stroke-width="2" d="M219,-96C219,-102 213,-108 207,-108"/>
<text text-anchor="start" x="23.5" y="-87.2333" font-family="Times Roman,serif" font-size="14.00"> Introduction to continuity </text>
</a>
</g>
<!-- TAYLOR_SERIES -->
<g id="node4" class="node"><title>TAYLOR_SERIES</title>
<a xlink:href="TAYLOR_SERIES.html" xlink:title=" One dimensional Taylor Series " target="_top">
<polyline fill="none" stroke="black" points="222,-36 12,-36 "/>
<path fill="none" stroke="black" d="M12,-36C6,-36 9.71075e-14,-30 8.05282e-14,-24"/>
<polyline fill="none" stroke="black" points="8.05282e-14,-24 4.73695e-14,-12 "/>
<path fill="none" stroke="black" d="M4.73695e-14,-12C3.07902e-14,-6 6,-1.73992e-14 12,-1.70348e-14"/>
<polyline fill="none" stroke="black" points="12,-1.70348e-14 222,-4.28148e-15 "/>
<path fill="none" stroke="black" d="M222,-4.28148e-15C228,-3.91709e-15 234,-6 234,-12"/>
<polyline fill="none" stroke="black" points="234,-12 234,-24 "/>
<path fill="none" stroke="black" d="M234,-24C234,-30 228,-36 222,-36"/>
<text text-anchor="start" x="8.5" y="-15.2333" font-family="Times Roman,serif" font-size="14.00"> One dimensional Taylor Series </text>
</a>
</g>
<!-- INTRODUCTION_TO_CONTINUITY&#45;&gt;TAYLOR_SERIES -->
<g id="edge4" class="edge"><title>INTRODUCTION_TO_CONTINUITY&#45;&gt;TAYLOR_SERIES</title>
<path fill="none" stroke="black" d="M117,-71.8314C117,-64.131 117,-54.9743 117,-46.4166"/>
<polygon fill="black" stroke="black" points="120.5,-46.4132 117,-36.4133 113.5,-46.4133 120.5,-46.4132"/>
</g>
<!-- LIMITS -->
<g id="node2" class="node"><title>LIMITS</title>
<a xlink:href="LIMITS.html" xlink:title=" Limit of a function " target="_top">
<polyline fill="none" stroke="black" points="181,-180 53,-180 "/>
<path fill="none" stroke="black" d="M53,-180C47,-180 41,-174 41,-168"/>
<polyline fill="none" stroke="black" points="41,-168 41,-156 "/>
<path fill="none" stroke="black" d="M41,-156C41,-150 47,-144 53,-144"/>
<polyline fill="none" stroke="black" points="53,-144 181,-144 "/>
<path fill="none" stroke="black" d="M181,-144C187,-144 193,-150 193,-156"/>
<polyline fill="none" stroke="black" points="193,-156 193,-168 "/>
<path fill="none" stroke="black" d="M193,-168C193,-174 187,-180 181,-180"/>
<text text-anchor="start" x="49.5" y="-159.233" font-family="Times Roman,serif" font-size="14.00"> Limit of a function </text>
</a>
</g>
<!-- LIMITS&#45;&gt;INTRODUCTION_TO_CONTINUITY -->
<g id="edge2" class="edge"><title>LIMITS&#45;&gt;INTRODUCTION_TO_CONTINUITY</title>
<path fill="none" stroke="black" d="M117,-143.831C117,-136.131 117,-126.974 117,-118.417"/>
<polygon fill="black" stroke="black" points="120.5,-118.413 117,-108.413 113.5,-118.413 120.5,-118.413"/>
</g>
</g>
</svg>
