<?xml version="1.0" encoding="UTF-8" standalone="no"?>
<!DOCTYPE svg PUBLIC "-//W3C//DTD SVG 1.1//EN"
 "http://www.w3.org/Graphics/SVG/1.1/DTD/svg11.dtd">
<!-- Generated by graphviz version 2.26.3 (20100126.1600)
 -->
<!-- Title: _anonymous_0 Pages: 1 -->
<svg width="498pt" height="188pt"
 viewBox="0.00 0.00 498.00 188.00" xmlns="http://www.w3.org/2000/svg" xmlns:xlink="http://www.w3.org/1999/xlink">
<g id="graph1" class="graph" transform="scale(1 1) rotate(0) translate(4 184)">
<title>_anonymous_0</title>
<!-- ISING_MODEL -->
<g id="node1" class="node"><title>ISING_MODEL</title>
<a xlink:href="ISING_MODEL.html" xlink:title=" The Ising Model " target="_top">
<polyline fill="none" stroke="blue" stroke-width="2" points="303,-108 193,-108 "/>
<path fill="none" stroke="blue" stroke-width="2" d="M193,-108C187,-108 181,-102 181,-96"/>
<polyline fill="none" stroke="blue" stroke-width="2" points="181,-96 181,-84 "/>
<path fill="none" stroke="blue" stroke-width="2" d="M181,-84C181,-78 187,-72 193,-72"/>
<polyline fill="none" stroke="blue" stroke-width="2" points="193,-72 303,-72 "/>
<path fill="none" stroke="blue" stroke-width="2" d="M303,-72C309,-72 315,-78 315,-84"/>
<polyline fill="none" stroke="blue" stroke-width="2" points="315,-84 315,-96 "/>
<path fill="none" stroke="blue" stroke-width="2" d="M315,-96C315,-102 309,-108 303,-108"/>
<text text-anchor="start" x="189" y="-87.2333" font-family="Times Roman,serif" font-size="14.00"> The Ising Model </text>
</a>
</g>
<!-- PHASE_TRANSITIONS -->
<g id="node2" class="node"><title>PHASE_TRANSITIONS</title>
<a xlink:href="PHASE_TRANSITIONS.html" xlink:title=" The theory of phase transitions " target="_top">
<polyline fill="none" stroke="black" points="230,-36 12,-36 "/>
<path fill="none" stroke="black" d="M12,-36C6,-36 8.28967e-14,-30 6.63173e-14,-24"/>
<polyline fill="none" stroke="black" points="6.63173e-14,-24 3.31587e-14,-12 "/>
<path fill="none" stroke="black" d="M3.31587e-14,-12C1.65793e-14,-6 6,-1.74112e-14 12,-1.70589e-14"/>
<polyline fill="none" stroke="black" points="12,-1.70589e-14 230,-4.25738e-15 "/>
<path fill="none" stroke="black" d="M230,-4.25738e-15C236,-3.90505e-15 242,-6 242,-12"/>
<polyline fill="none" stroke="black" points="242,-12 242,-24 "/>
<path fill="none" stroke="black" d="M242,-24C242,-30 236,-36 230,-36"/>
<text text-anchor="start" x="8" y="-15.2333" font-family="Times Roman,serif" font-size="14.00"> The theory of phase transitions </text>
</a>
</g>
<!-- ISING_MODEL&#45;&gt;PHASE_TRANSITIONS -->
<g id="edge2" class="edge"><title>ISING_MODEL&#45;&gt;PHASE_TRANSITIONS</title>
<path fill="none" stroke="black" d="M215.953,-71.8314C199.558,-62.5368 179.421,-51.1208 161.917,-41.1971"/>
<polygon fill="black" stroke="black" points="163.463,-38.05 153.037,-36.1628 160.01,-44.1395 163.463,-38.05"/>
</g>
<!-- MEAN_FIELD_MODELS -->
<g id="node4" class="node"><title>MEAN_FIELD_MODELS</title>
<a xlink:href="MEAN_FIELD_MODELS.html" xlink:title=" The mean field approximation " target="_top">
<polyline fill="none" stroke="black" points="478,-36 272,-36 "/>
<path fill="none" stroke="black" d="M272,-36C266,-36 260,-30 260,-24"/>
<polyline fill="none" stroke="black" points="260,-24 260,-12 "/>
<path fill="none" stroke="black" d="M260,-12C260,-6 266,-1.73929e-14 272,-1.70221e-14"/>
<polyline fill="none" stroke="black" points="272,-1.70221e-14 478,-4.29415e-15 "/>
<path fill="none" stroke="black" d="M478,-4.29415e-15C484,-3.92343e-15 490,-6 490,-12"/>
<polyline fill="none" stroke="black" points="490,-12 490,-24 "/>
<path fill="none" stroke="black" d="M490,-24C490,-30 484,-36 478,-36"/>
<text text-anchor="start" x="268" y="-15.2333" font-family="Times Roman,serif" font-size="14.00"> The mean field approximation </text>
</a>
</g>
<!-- ISING_MODEL&#45;&gt;MEAN_FIELD_MODELS -->
<g id="edge4" class="edge"><title>ISING_MODEL&#45;&gt;MEAN_FIELD_MODELS</title>
<path fill="none" stroke="black" d="M280.047,-71.8314C296.442,-62.5368 316.579,-51.1208 334.083,-41.1971"/>
<polygon fill="black" stroke="black" points="335.99,-44.1395 342.963,-36.1628 332.537,-38.05 335.99,-44.1395"/>
</g>
<!-- CANONICAL_ENSEMBLE -->
<g id="node6" class="node"><title>CANONICAL_ENSEMBLE</title>
<a xlink:href="CANONICAL_ENSEMBLE.html" xlink:title=" The canonical ensemble " target="_top">
<polyline fill="none" stroke="black" points="331,-180 165,-180 "/>
<path fill="none" stroke="black" d="M165,-180C159,-180 153,-174 153,-168"/>
<polyline fill="none" stroke="black" points="153,-168 153,-156 "/>
<path fill="none" stroke="black" d="M153,-156C153,-150 159,-144 165,-144"/>
<polyline fill="none" stroke="black" points="165,-144 331,-144 "/>
<path fill="none" stroke="black" d="M331,-144C337,-144 343,-150 343,-156"/>
<polyline fill="none" stroke="black" points="343,-156 343,-168 "/>
<path fill="none" stroke="black" d="M343,-168C343,-174 337,-180 331,-180"/>
<text text-anchor="start" x="161" y="-159.233" font-family="Times Roman,serif" font-size="14.00"> The canonical ensemble </text>
</a>
</g>
<!-- CANONICAL_ENSEMBLE&#45;&gt;ISING_MODEL -->
<g id="edge6" class="edge"><title>CANONICAL_ENSEMBLE&#45;&gt;ISING_MODEL</title>
<path fill="none" stroke="black" d="M248,-143.831C248,-136.131 248,-126.974 248,-118.417"/>
<polygon fill="black" stroke="black" points="251.5,-118.413 248,-108.413 244.5,-118.413 251.5,-118.413"/>
</g>
</g>
</svg>
