<?xml version="1.0" encoding="UTF-8" standalone="no"?>
<!DOCTYPE svg PUBLIC "-//W3C//DTD SVG 1.1//EN"
 "http://www.w3.org/Graphics/SVG/1.1/DTD/svg11.dtd">
<!-- Generated by graphviz version 2.26.3 (20100126.1600)
 -->
<!-- Title: _anonymous_0 Pages: 1 -->
<svg width="482pt" height="188pt"
 viewBox="0.00 0.00 482.00 188.00" xmlns="http://www.w3.org/2000/svg" xmlns:xlink="http://www.w3.org/1999/xlink">
<g id="graph1" class="graph" transform="scale(1 1) rotate(0) translate(4 184)">
<title>_anonymous_0</title>
<!-- ISING_MODEL -->
<g id="node1" class="node"><title>ISING_MODEL</title>
<a xlink:href="ISING_MODEL.html" xlink:title="The Ising Model" target="_top">
<polyline fill="none" stroke="blue" stroke-width="2" points="291,-108 189,-108 "/>
<path fill="none" stroke="blue" stroke-width="2" d="M189,-108C183,-108 177,-102 177,-96"/>
<polyline fill="none" stroke="blue" stroke-width="2" points="177,-96 177,-84 "/>
<path fill="none" stroke="blue" stroke-width="2" d="M177,-84C177,-78 183,-72 189,-72"/>
<polyline fill="none" stroke="blue" stroke-width="2" points="189,-72 291,-72 "/>
<path fill="none" stroke="blue" stroke-width="2" d="M291,-72C297,-72 303,-78 303,-84"/>
<polyline fill="none" stroke="blue" stroke-width="2" points="303,-84 303,-96 "/>
<path fill="none" stroke="blue" stroke-width="2" d="M303,-96C303,-102 297,-108 291,-108"/>
<text text-anchor="start" x="185.5" y="-87.2333" font-family="Times Roman,serif" font-size="14.00">The Ising Model</text>
</a>
</g>
<!-- PHASE_TRANSITIONS -->
<g id="node4" class="node"><title>PHASE_TRANSITIONS</title>
<a xlink:href="PHASE_TRANSITIONS.html" xlink:title="The theory of phase transitions" target="_top">
<polyline fill="none" stroke="black" points="222,-36 12,-36 "/>
<path fill="none" stroke="black" d="M12,-36C6,-36 9.71075e-14,-30 8.05282e-14,-24"/>
<polyline fill="none" stroke="black" points="8.05282e-14,-24 4.73695e-14,-12 "/>
<path fill="none" stroke="black" d="M4.73695e-14,-12C3.07902e-14,-6 6,-1.73992e-14 12,-1.70348e-14"/>
<polyline fill="none" stroke="black" points="12,-1.70348e-14 222,-4.28148e-15 "/>
<path fill="none" stroke="black" d="M222,-4.28148e-15C228,-3.91709e-15 234,-6 234,-12"/>
<polyline fill="none" stroke="black" points="234,-12 234,-24 "/>
<path fill="none" stroke="black" d="M234,-24C234,-30 228,-36 222,-36"/>
<text text-anchor="start" x="8.5" y="-15.2333" font-family="Times Roman,serif" font-size="14.00">The theory of phase transitions</text>
</a>
</g>
<!-- ISING_MODEL&#45;&gt;PHASE_TRANSITIONS -->
<g id="edge4" class="edge"><title>ISING_MODEL&#45;&gt;PHASE_TRANSITIONS</title>
<path fill="none" stroke="black" d="M208.962,-71.8314C193.229,-62.6221 173.939,-51.3301 157.096,-41.4706"/>
<polygon fill="black" stroke="black" points="158.426,-38.1941 148.028,-36.1628 154.89,-44.2352 158.426,-38.1941"/>
</g>
<!-- MEAN_FIELD_MODELS -->
<g id="node6" class="node"><title>MEAN_FIELD_MODELS</title>
<a xlink:href="MEAN_FIELD_MODELS.html" xlink:title="The mean field approximation" target="_top">
<polyline fill="none" stroke="black" points="462,-36 264,-36 "/>
<path fill="none" stroke="black" d="M264,-36C258,-36 252,-30 252,-24"/>
<polyline fill="none" stroke="black" points="252,-24 252,-12 "/>
<path fill="none" stroke="black" d="M252,-12C252,-6 258,-1.73795e-14 264,-1.69954e-14"/>
<polyline fill="none" stroke="black" points="264,-1.69954e-14 462,-4.32087e-15 "/>
<path fill="none" stroke="black" d="M462,-4.32087e-15C468,-3.93679e-15 474,-6 474,-12"/>
<polyline fill="none" stroke="black" points="474,-12 474,-24 "/>
<path fill="none" stroke="black" d="M474,-24C474,-30 468,-36 462,-36"/>
<text text-anchor="start" x="260.5" y="-15.2333" font-family="Times Roman,serif" font-size="14.00">The mean field approximation</text>
</a>
</g>
<!-- ISING_MODEL&#45;&gt;MEAN_FIELD_MODELS -->
<g id="edge6" class="edge"><title>ISING_MODEL&#45;&gt;MEAN_FIELD_MODELS</title>
<path fill="none" stroke="black" d="M271.038,-71.8314C286.771,-62.6221 306.061,-51.3301 322.904,-41.4706"/>
<polygon fill="black" stroke="black" points="325.11,-44.2352 331.972,-36.1628 321.574,-38.1941 325.11,-44.2352"/>
</g>
<!-- CANONICAL_ENSEMBLE -->
<g id="node2" class="node"><title>CANONICAL_ENSEMBLE</title>
<a xlink:href="CANONICAL_ENSEMBLE.html" xlink:title="The canonical ensemble" target="_top">
<polyline fill="none" stroke="black" points="319,-180 161,-180 "/>
<path fill="none" stroke="black" d="M161,-180C155,-180 149,-174 149,-168"/>
<polyline fill="none" stroke="black" points="149,-168 149,-156 "/>
<path fill="none" stroke="black" d="M149,-156C149,-150 155,-144 161,-144"/>
<polyline fill="none" stroke="black" points="161,-144 319,-144 "/>
<path fill="none" stroke="black" d="M319,-144C325,-144 331,-150 331,-156"/>
<polyline fill="none" stroke="black" points="331,-156 331,-168 "/>
<path fill="none" stroke="black" d="M331,-168C331,-174 325,-180 319,-180"/>
<text text-anchor="start" x="157.5" y="-159.233" font-family="Times Roman,serif" font-size="14.00">The canonical ensemble</text>
</a>
</g>
<!-- CANONICAL_ENSEMBLE&#45;&gt;ISING_MODEL -->
<g id="edge2" class="edge"><title>CANONICAL_ENSEMBLE&#45;&gt;ISING_MODEL</title>
<path fill="none" stroke="black" d="M240,-143.831C240,-136.131 240,-126.974 240,-118.417"/>
<polygon fill="black" stroke="black" points="243.5,-118.413 240,-108.413 236.5,-118.413 243.5,-118.413"/>
</g>
</g>
</svg>
