<?xml version="1.0" encoding="UTF-8" standalone="no"?>
<!DOCTYPE svg PUBLIC "-//W3C//DTD SVG 1.1//EN"
 "http://www.w3.org/Graphics/SVG/1.1/DTD/svg11.dtd">
<!-- Generated by graphviz version 2.26.3 (20100126.1600)
 -->
<!-- Title: _anonymous_0 Pages: 1 -->
<svg width="482pt" height="188pt"
 viewBox="0.00 0.00 482.00 188.00" xmlns="http://www.w3.org/2000/svg" xmlns:xlink="http://www.w3.org/1999/xlink">
<g id="graph1" class="graph" transform="scale(1 1) rotate(0) translate(4 184)">
<title>_anonymous_0</title>
<!-- ISING_MODEL -->
<g id="node1" class="node"><title>ISING_MODEL</title>
<a xlink:href="ISING_MODEL.html" xlink:title="The Ising Model" target="_top">
<polyline fill="none" stroke="blue" stroke-width="2" points="285,-108 183,-108 "/>
<path fill="none" stroke="blue" stroke-width="2" d="M183,-108C177,-108 171,-102 171,-96"/>
<polyline fill="none" stroke="blue" stroke-width="2" points="171,-96 171,-84 "/>
<path fill="none" stroke="blue" stroke-width="2" d="M171,-84C171,-78 177,-72 183,-72"/>
<polyline fill="none" stroke="blue" stroke-width="2" points="183,-72 285,-72 "/>
<path fill="none" stroke="blue" stroke-width="2" d="M285,-72C291,-72 297,-78 297,-84"/>
<polyline fill="none" stroke="blue" stroke-width="2" points="297,-84 297,-96 "/>
<path fill="none" stroke="blue" stroke-width="2" d="M297,-96C297,-102 291,-108 285,-108"/>
<text text-anchor="start" x="179.5" y="-87.2333" font-family="Times Roman,serif" font-size="14.00">The Ising Model</text>
</a>
</g>
<!-- MEAN_FIELD_MODELS -->
<g id="node2" class="node"><title>MEAN_FIELD_MODELS</title>
<a xlink:href="MEAN_FIELD_MODELS.html" xlink:title="The mean field approximation" target="_top">
<polyline fill="none" stroke="black" points="210,-36 12,-36 "/>
<path fill="none" stroke="black" d="M12,-36C6,-36 5.92119e-14,-30 4.73695e-14,-24"/>
<polyline fill="none" stroke="black" points="4.73695e-14,-24 2.36848e-14,-12 "/>
<path fill="none" stroke="black" d="M2.36848e-14,-12C1.18424e-14,-6 6,-1.73795e-14 12,-1.69954e-14"/>
<polyline fill="none" stroke="black" points="12,-1.69954e-14 210,-4.32087e-15 "/>
<path fill="none" stroke="black" d="M210,-4.32087e-15C216,-3.93679e-15 222,-6 222,-12"/>
<polyline fill="none" stroke="black" points="222,-12 222,-24 "/>
<path fill="none" stroke="black" d="M222,-24C222,-30 216,-36 210,-36"/>
<text text-anchor="start" x="8.5" y="-15.2333" font-family="Times Roman,serif" font-size="14.00">The mean field approximation</text>
</a>
</g>
<!-- ISING_MODEL&#45;&gt;MEAN_FIELD_MODELS -->
<g id="edge2" class="edge"><title>ISING_MODEL&#45;&gt;MEAN_FIELD_MODELS</title>
<path fill="none" stroke="black" d="M202.962,-71.8314C187.229,-62.6221 167.939,-51.3301 151.096,-41.4706"/>
<polygon fill="black" stroke="black" points="152.426,-38.1941 142.028,-36.1628 148.89,-44.2352 152.426,-38.1941"/>
</g>
<!-- PHASE_TRANSITIONS -->
<g id="node6" class="node"><title>PHASE_TRANSITIONS</title>
<a xlink:href="PHASE_TRANSITIONS.html" xlink:title="The theory of phase transitions" target="_top">
<polyline fill="none" stroke="black" points="462,-36 252,-36 "/>
<path fill="none" stroke="black" d="M252,-36C246,-36 240,-30 240,-24"/>
<polyline fill="none" stroke="black" points="240,-24 240,-12 "/>
<path fill="none" stroke="black" d="M240,-12C240,-6 246,-1.73992e-14 252,-1.70348e-14"/>
<polyline fill="none" stroke="black" points="252,-1.70348e-14 462,-4.28148e-15 "/>
<path fill="none" stroke="black" d="M462,-4.28148e-15C468,-3.91709e-15 474,-6 474,-12"/>
<polyline fill="none" stroke="black" points="474,-12 474,-24 "/>
<path fill="none" stroke="black" d="M474,-24C474,-30 468,-36 462,-36"/>
<text text-anchor="start" x="248.5" y="-15.2333" font-family="Times Roman,serif" font-size="14.00">The theory of phase transitions</text>
</a>
</g>
<!-- ISING_MODEL&#45;&gt;PHASE_TRANSITIONS -->
<g id="edge6" class="edge"><title>ISING_MODEL&#45;&gt;PHASE_TRANSITIONS</title>
<path fill="none" stroke="black" d="M265.038,-71.8314C280.771,-62.6221 300.061,-51.3301 316.904,-41.4706"/>
<polygon fill="black" stroke="black" points="319.11,-44.2352 325.972,-36.1628 315.574,-38.1941 319.11,-44.2352"/>
</g>
<!-- CANONICAL_ENSEMBLE -->
<g id="node4" class="node"><title>CANONICAL_ENSEMBLE</title>
<a xlink:href="CANONICAL_ENSEMBLE.html" xlink:title="The canonical ensemble" target="_top">
<polyline fill="none" stroke="black" points="313,-180 155,-180 "/>
<path fill="none" stroke="black" d="M155,-180C149,-180 143,-174 143,-168"/>
<polyline fill="none" stroke="black" points="143,-168 143,-156 "/>
<path fill="none" stroke="black" d="M143,-156C143,-150 149,-144 155,-144"/>
<polyline fill="none" stroke="black" points="155,-144 313,-144 "/>
<path fill="none" stroke="black" d="M313,-144C319,-144 325,-150 325,-156"/>
<polyline fill="none" stroke="black" points="325,-156 325,-168 "/>
<path fill="none" stroke="black" d="M325,-168C325,-174 319,-180 313,-180"/>
<text text-anchor="start" x="151.5" y="-159.233" font-family="Times Roman,serif" font-size="14.00">The canonical ensemble</text>
</a>
</g>
<!-- CANONICAL_ENSEMBLE&#45;&gt;ISING_MODEL -->
<g id="edge4" class="edge"><title>CANONICAL_ENSEMBLE&#45;&gt;ISING_MODEL</title>
<path fill="none" stroke="black" d="M234,-143.831C234,-136.131 234,-126.974 234,-118.417"/>
<polygon fill="black" stroke="black" points="237.5,-118.413 234,-108.413 230.5,-118.413 237.5,-118.413"/>
</g>
</g>
</svg>
