<?xml version="1.0" encoding="UTF-8" standalone="no"?>
<!DOCTYPE svg PUBLIC "-//W3C//DTD SVG 1.1//EN"
 "http://www.w3.org/Graphics/SVG/1.1/DTD/svg11.dtd">
<!-- Generated by graphviz version 2.36.0 (20140111.2315)
 -->
<!-- Title: %3 Pages: 1 -->
<svg width="365pt" height="188pt"
 viewBox="0.00 0.00 365.00 188.00" xmlns="http://www.w3.org/2000/svg" xmlns:xlink="http://www.w3.org/1999/xlink">
<g id="graph0" class="graph" transform="scale(1 1) rotate(0) translate(4 184)">
<title>%3</title>
<!-- ISOTHERMAL_ISOBARIC_ENSEMBLE -->
<g id="node1" class="node"><title>ISOTHERMAL_ISOBARIC_ENSEMBLE</title>
<g id="a_node1"><a xlink:href="ISOTHERMAL_ISOBARIC_ENSEMBLE.html" xlink:title=" The isothermal isobaric ensemble " target="_top">
<path fill="none" stroke="blue" stroke-width="2" d="M251.25,-108C251.25,-108 66.75,-108 66.75,-108 60.75,-108 54.75,-102 54.75,-96 54.75,-96 54.75,-84 54.75,-84 54.75,-78 60.75,-72 66.75,-72 66.75,-72 251.25,-72 251.25,-72 257.25,-72 263.25,-78 263.25,-84 263.25,-84 263.25,-96 263.25,-96 263.25,-102 257.25,-108 251.25,-108"/>
<text text-anchor="start" x="62.5" y="-86.3" font-family="Times,serif" font-size="14.00"> The isothermal isobaric ensemble </text>
</a>
</g>
</g>
<!-- THERMODYNAMIC_POTENTIALS -->
<g id="node2" class="node"><title>THERMODYNAMIC_POTENTIALS</title>
<g id="a_node2"><a xlink:href="THERMODYNAMIC_POTENTIALS.html" xlink:title=" Thermodynamic Potentials " target="_top">
<path fill="none" stroke="black" d="M233,-36C233,-36 85,-36 85,-36 79,-36 73,-30 73,-24 73,-24 73,-12 73,-12 73,-6 79,-0 85,-0 85,-0 233,-0 233,-0 239,-0 245,-6 245,-12 245,-12 245,-24 245,-24 245,-30 239,-36 233,-36"/>
<text text-anchor="start" x="81" y="-14.3" font-family="Times,serif" font-size="14.00"> Thermodynamic Potentials </text>
</a>
</g>
</g>
<!-- ISOTHERMAL_ISOBARIC_ENSEMBLE&#45;&gt;THERMODYNAMIC_POTENTIALS -->
<g id="edge1" class="edge"><title>ISOTHERMAL_ISOBARIC_ENSEMBLE&#45;&gt;THERMODYNAMIC_POTENTIALS</title>
<path fill="none" stroke="black" d="M159,-71.6966C159,-63.9827 159,-54.7125 159,-46.1124"/>
<polygon fill="black" stroke="black" points="162.5,-46.1043 159,-36.1043 155.5,-46.1044 162.5,-46.1043"/>
</g>
<!-- RESPONSE_FUNCTIONS -->
<g id="node3" class="node"><title>RESPONSE_FUNCTIONS</title>
<g id="a_node3"><a xlink:href="RESPONSE_FUNCTIONS.html" xlink:title=" Response functions " target="_top">
<path fill="none" stroke="black" d="M118,-180C118,-180 12,-180 12,-180 6,-180 0,-174 0,-168 0,-168 0,-156 0,-156 0,-150 6,-144 12,-144 12,-144 118,-144 118,-144 124,-144 130,-150 130,-156 130,-156 130,-168 130,-168 130,-174 124,-180 118,-180"/>
<text text-anchor="start" x="8" y="-158.3" font-family="Times,serif" font-size="14.00"> Response functions </text>
</a>
</g>
</g>
<!-- RESPONSE_FUNCTIONS&#45;&gt;ISOTHERMAL_ISOBARIC_ENSEMBLE -->
<g id="edge2" class="edge"><title>RESPONSE_FUNCTIONS&#45;&gt;ISOTHERMAL_ISOBARIC_ENSEMBLE</title>
<path fill="none" stroke="black" d="M88.236,-143.697C100.188,-134.796 114.923,-123.823 127.847,-114.199"/>
<polygon fill="black" stroke="black" points="130.101,-116.884 136.031,-108.104 125.92,-111.27 130.101,-116.884"/>
</g>
<!-- GENERALIZED_PARTITION_FUNCTION -->
<g id="node4" class="node"><title>GENERALIZED_PARTITION_FUNCTION</title>
<g id="a_node4"><a xlink:href="GENERALIZED_PARTITION_FUNCTION.html" xlink:title=" The generalized partition function " target="_top">
<path fill="none" stroke="black" d="M345.25,-180C345.25,-180 160.75,-180 160.75,-180 154.75,-180 148.75,-174 148.75,-168 148.75,-168 148.75,-156 148.75,-156 148.75,-150 154.75,-144 160.75,-144 160.75,-144 345.25,-144 345.25,-144 351.25,-144 357.25,-150 357.25,-156 357.25,-156 357.25,-168 357.25,-168 357.25,-174 351.25,-180 345.25,-180"/>
<text text-anchor="start" x="156.5" y="-158.3" font-family="Times,serif" font-size="14.00"> The generalized partition function </text>
</a>
</g>
</g>
<!-- GENERALIZED_PARTITION_FUNCTION&#45;&gt;ISOTHERMAL_ISOBARIC_ENSEMBLE -->
<g id="edge3" class="edge"><title>GENERALIZED_PARTITION_FUNCTION&#45;&gt;ISOTHERMAL_ISOBARIC_ENSEMBLE</title>
<path fill="none" stroke="black" d="M229.764,-143.697C217.812,-134.796 203.077,-123.823 190.153,-114.199"/>
<polygon fill="black" stroke="black" points="192.08,-111.27 181.969,-108.104 187.899,-116.884 192.08,-111.27"/>
</g>
</g>
</svg>
