<?xml version="1.0" encoding="UTF-8" standalone="no"?>
<!DOCTYPE svg PUBLIC "-//W3C//DTD SVG 1.1//EN"
 "http://www.w3.org/Graphics/SVG/1.1/DTD/svg11.dtd">
<!-- Generated by graphviz version 2.36.0 (20140111.2315)
 -->
<!-- Title: %3 Pages: 1 -->
<svg width="365pt" height="188pt"
 viewBox="0.00 0.00 365.00 188.00" xmlns="http://www.w3.org/2000/svg" xmlns:xlink="http://www.w3.org/1999/xlink">
<g id="graph0" class="graph" transform="scale(1 1) rotate(0) translate(4 184)">
<title>%3</title>
<!-- ISOTHERMAL_ISOBARIC_ENSEMBLE -->
<g id="node1" class="node"><title>ISOTHERMAL_ISOBARIC_ENSEMBLE</title>
<g id="a_node1"><a xlink:href="ISOTHERMAL_ISOBARIC_ENSEMBLE.html" xlink:title=" The isothermal isobaric ensemble " target="_top">
<path fill="none" stroke="blue" stroke-width="2" d="M290.25,-108C290.25,-108 105.75,-108 105.75,-108 99.75,-108 93.75,-102 93.75,-96 93.75,-96 93.75,-84 93.75,-84 93.75,-78 99.75,-72 105.75,-72 105.75,-72 290.25,-72 290.25,-72 296.25,-72 302.25,-78 302.25,-84 302.25,-84 302.25,-96 302.25,-96 302.25,-102 296.25,-108 290.25,-108"/>
<text text-anchor="start" x="101.5" y="-86.3" font-family="Times,serif" font-size="14.00"> The isothermal isobaric ensemble </text>
</a>
</g>
</g>
<!-- THERMODYNAMIC_POTENTIALS -->
<g id="node2" class="node"><title>THERMODYNAMIC_POTENTIALS</title>
<g id="a_node2"><a xlink:href="THERMODYNAMIC_POTENTIALS.html" xlink:title=" Thermodynamic Potentials " target="_top">
<path fill="none" stroke="black" d="M272,-36C272,-36 124,-36 124,-36 118,-36 112,-30 112,-24 112,-24 112,-12 112,-12 112,-6 118,-0 124,-0 124,-0 272,-0 272,-0 278,-0 284,-6 284,-12 284,-12 284,-24 284,-24 284,-30 278,-36 272,-36"/>
<text text-anchor="start" x="120" y="-14.3" font-family="Times,serif" font-size="14.00"> Thermodynamic Potentials </text>
</a>
</g>
</g>
<!-- ISOTHERMAL_ISOBARIC_ENSEMBLE&#45;&gt;THERMODYNAMIC_POTENTIALS -->
<g id="edge1" class="edge"><title>ISOTHERMAL_ISOBARIC_ENSEMBLE&#45;&gt;THERMODYNAMIC_POTENTIALS</title>
<path fill="none" stroke="black" d="M198,-71.6966C198,-63.9827 198,-54.7125 198,-46.1124"/>
<polygon fill="black" stroke="black" points="201.5,-46.1043 198,-36.1043 194.5,-46.1044 201.5,-46.1043"/>
</g>
<!-- GENERALIZED_PARTITION_FUNCTION -->
<g id="node3" class="node"><title>GENERALIZED_PARTITION_FUNCTION</title>
<g id="a_node3"><a xlink:href="GENERALIZED_PARTITION_FUNCTION.html" xlink:title=" The generalized partition function " target="_top">
<path fill="none" stroke="black" d="M196.25,-180C196.25,-180 11.75,-180 11.75,-180 5.75,-180 -0.25,-174 -0.25,-168 -0.25,-168 -0.25,-156 -0.25,-156 -0.25,-150 5.75,-144 11.75,-144 11.75,-144 196.25,-144 196.25,-144 202.25,-144 208.25,-150 208.25,-156 208.25,-156 208.25,-168 208.25,-168 208.25,-174 202.25,-180 196.25,-180"/>
<text text-anchor="start" x="7.5" y="-158.3" font-family="Times,serif" font-size="14.00"> The generalized partition function </text>
</a>
</g>
</g>
<!-- GENERALIZED_PARTITION_FUNCTION&#45;&gt;ISOTHERMAL_ISOBARIC_ENSEMBLE -->
<g id="edge2" class="edge"><title>GENERALIZED_PARTITION_FUNCTION&#45;&gt;ISOTHERMAL_ISOBARIC_ENSEMBLE</title>
<path fill="none" stroke="black" d="M127.236,-143.697C139.188,-134.796 153.923,-123.823 166.847,-114.199"/>
<polygon fill="black" stroke="black" points="169.101,-116.884 175.031,-108.104 164.92,-111.27 169.101,-116.884"/>
</g>
<!-- RESPONSE_FUNCTIONS -->
<g id="node4" class="node"><title>RESPONSE_FUNCTIONS</title>
<g id="a_node4"><a xlink:href="RESPONSE_FUNCTIONS.html" xlink:title=" Response functions " target="_top">
<path fill="none" stroke="black" d="M345,-180C345,-180 239,-180 239,-180 233,-180 227,-174 227,-168 227,-168 227,-156 227,-156 227,-150 233,-144 239,-144 239,-144 345,-144 345,-144 351,-144 357,-150 357,-156 357,-156 357,-168 357,-168 357,-174 351,-180 345,-180"/>
<text text-anchor="start" x="235" y="-158.3" font-family="Times,serif" font-size="14.00"> Response functions </text>
</a>
</g>
</g>
<!-- RESPONSE_FUNCTIONS&#45;&gt;ISOTHERMAL_ISOBARIC_ENSEMBLE -->
<g id="edge3" class="edge"><title>RESPONSE_FUNCTIONS&#45;&gt;ISOTHERMAL_ISOBARIC_ENSEMBLE</title>
<path fill="none" stroke="black" d="M268.764,-143.697C256.812,-134.796 242.077,-123.823 229.153,-114.199"/>
<polygon fill="black" stroke="black" points="231.08,-111.27 220.969,-108.104 226.899,-116.884 231.08,-111.27"/>
</g>
</g>
</svg>
