<?xml version="1.0" encoding="UTF-8" standalone="no"?>
<!DOCTYPE svg PUBLIC "-//W3C//DTD SVG 1.1//EN"
 "http://www.w3.org/Graphics/SVG/1.1/DTD/svg11.dtd">
<!-- Generated by graphviz version 2.26.3 (20100126.1600)
 -->
<!-- Title: _anonymous_0 Pages: 1 -->
<svg width="428pt" height="188pt"
 viewBox="0.00 0.00 428.00 188.00" xmlns="http://www.w3.org/2000/svg" xmlns:xlink="http://www.w3.org/1999/xlink">
<g id="graph1" class="graph" transform="scale(1 1) rotate(0) translate(4 184)">
<title>_anonymous_0</title>
<!-- ISOTHERMAL_ISOBARIC_ENSEMBLE -->
<g id="node1" class="node"><title>ISOTHERMAL_ISOBARIC_ENSEMBLE</title>
<a xlink:href="ISOTHERMAL_ISOBARIC_ENSEMBLE.html" xlink:title="The isothermal isobaric ensemble" target="_top">
<polyline fill="none" stroke="blue" stroke-width="2" points="346,-108 124,-108 "/>
<path fill="none" stroke="blue" stroke-width="2" d="M124,-108C118,-108 112,-102 112,-96"/>
<polyline fill="none" stroke="blue" stroke-width="2" points="112,-96 112,-84 "/>
<path fill="none" stroke="blue" stroke-width="2" d="M112,-84C112,-78 118,-72 124,-72"/>
<polyline fill="none" stroke="blue" stroke-width="2" points="124,-72 346,-72 "/>
<path fill="none" stroke="blue" stroke-width="2" d="M346,-72C352,-72 358,-78 358,-84"/>
<polyline fill="none" stroke="blue" stroke-width="2" points="358,-84 358,-96 "/>
<path fill="none" stroke="blue" stroke-width="2" d="M358,-96C358,-102 352,-108 346,-108"/>
<text text-anchor="start" x="120" y="-87.2333" font-family="Times Roman,serif" font-size="14.00">The isothermal isobaric ensemble</text>
</a>
</g>
<!-- THERMODYNAMIC_POTENTIALS -->
<g id="node2" class="node"><title>THERMODYNAMIC_POTENTIALS</title>
<a xlink:href="THERMODYNAMIC_POTENTIALS.html" xlink:title="Thermodynamic Potentials" target="_top">
<polyline fill="none" stroke="black" points="323,-36 147,-36 "/>
<path fill="none" stroke="black" d="M147,-36C141,-36 135,-30 135,-24"/>
<polyline fill="none" stroke="black" points="135,-24 135,-12 "/>
<path fill="none" stroke="black" d="M135,-12C135,-6 141,-1.73372e-14 147,-1.69109e-14"/>
<polyline fill="none" stroke="black" points="147,-1.69109e-14 323,-4.40536e-15 "/>
<path fill="none" stroke="black" d="M323,-4.40536e-15C329,-3.97904e-15 335,-6 335,-12"/>
<polyline fill="none" stroke="black" points="335,-12 335,-24 "/>
<path fill="none" stroke="black" d="M335,-24C335,-30 329,-36 323,-36"/>
<text text-anchor="start" x="143" y="-15.2333" font-family="Times Roman,serif" font-size="14.00">Thermodynamic Potentials</text>
</a>
</g>
<!-- ISOTHERMAL_ISOBARIC_ENSEMBLE&#45;&gt;THERMODYNAMIC_POTENTIALS -->
<g id="edge2" class="edge"><title>ISOTHERMAL_ISOBARIC_ENSEMBLE&#45;&gt;THERMODYNAMIC_POTENTIALS</title>
<path fill="none" stroke="black" d="M235,-71.8314C235,-64.131 235,-54.9743 235,-46.4166"/>
<polygon fill="black" stroke="black" points="238.5,-46.4132 235,-36.4133 231.5,-46.4133 238.5,-46.4132"/>
</g>
<!-- GENERALIZED_PARTITION_FUNCTION -->
<g id="node4" class="node"><title>GENERALIZED_PARTITION_FUNCTION</title>
<a xlink:href="GENERALIZED_PARTITION_FUNCTION.html" xlink:title="The generalized partition function" target="_top">
<polyline fill="none" stroke="black" points="240,-180 12,-180 "/>
<path fill="none" stroke="black" d="M12,-180C6,-180 8.28967e-14,-174 6.63173e-14,-168"/>
<polyline fill="none" stroke="black" points="6.63173e-14,-168 3.31587e-14,-156 "/>
<path fill="none" stroke="black" d="M3.31587e-14,-156C1.65793e-14,-150 6,-144 12,-144"/>
<polyline fill="none" stroke="black" points="12,-144 240,-144 "/>
<path fill="none" stroke="black" d="M240,-144C246,-144 252,-150 252,-156"/>
<polyline fill="none" stroke="black" points="252,-156 252,-168 "/>
<path fill="none" stroke="black" d="M252,-168C252,-174 246,-180 240,-180"/>
<text text-anchor="start" x="8" y="-159.233" font-family="Times Roman,serif" font-size="14.00">The generalized partition function</text>
</a>
</g>
<!-- GENERALIZED_PARTITION_FUNCTION&#45;&gt;ISOTHERMAL_ISOBARIC_ENSEMBLE -->
<g id="edge4" class="edge"><title>GENERALIZED_PARTITION_FUNCTION&#45;&gt;ISOTHERMAL_ISOBARIC_ENSEMBLE</title>
<path fill="none" stroke="black" d="M153.505,-143.831C167.318,-134.707 184.226,-123.539 199.053,-113.745"/>
<polygon fill="black" stroke="black" points="201.089,-116.595 207.503,-108.163 197.23,-110.754 201.089,-116.595"/>
</g>
<!-- RESPONSE_FUNCTIONS -->
<g id="node6" class="node"><title>RESPONSE_FUNCTIONS</title>
<a xlink:href="RESPONSE_FUNCTIONS.html" xlink:title="Response functions" target="_top">
<polyline fill="none" stroke="black" points="408,-180 282,-180 "/>
<path fill="none" stroke="black" d="M282,-180C276,-180 270,-174 270,-168"/>
<polyline fill="none" stroke="black" points="270,-168 270,-156 "/>
<path fill="none" stroke="black" d="M270,-156C270,-150 276,-144 282,-144"/>
<polyline fill="none" stroke="black" points="282,-144 408,-144 "/>
<path fill="none" stroke="black" d="M408,-144C414,-144 420,-150 420,-156"/>
<polyline fill="none" stroke="black" points="420,-156 420,-168 "/>
<path fill="none" stroke="black" d="M420,-168C420,-174 414,-180 408,-180"/>
<text text-anchor="start" x="278.5" y="-159.233" font-family="Times Roman,serif" font-size="14.00">Response functions</text>
</a>
</g>
<!-- RESPONSE_FUNCTIONS&#45;&gt;ISOTHERMAL_ISOBARIC_ENSEMBLE -->
<g id="edge6" class="edge"><title>RESPONSE_FUNCTIONS&#45;&gt;ISOTHERMAL_ISOBARIC_ENSEMBLE</title>
<path fill="none" stroke="black" d="M317.242,-143.831C303.303,-134.707 286.24,-123.539 271.277,-113.745"/>
<polygon fill="black" stroke="black" points="273.033,-110.711 262.749,-108.163 269.199,-116.568 273.033,-110.711"/>
</g>
</g>
</svg>
