<?xml version="1.0" encoding="UTF-8" standalone="no"?>
<!DOCTYPE svg PUBLIC "-//W3C//DTD SVG 1.1//EN"
 "http://www.w3.org/Graphics/SVG/1.1/DTD/svg11.dtd">
<!-- Generated by graphviz version 2.26.3 (20100126.1600)
 -->
<!-- Title: _anonymous_0 Pages: 1 -->
<svg width="446pt" height="188pt"
 viewBox="0.00 0.00 446.00 188.00" xmlns="http://www.w3.org/2000/svg" xmlns:xlink="http://www.w3.org/1999/xlink">
<g id="graph1" class="graph" transform="scale(1 1) rotate(0) translate(4 184)">
<title>_anonymous_0</title>
<!-- ISOTHERMAL_ISOBARIC_ENSEMBLE -->
<g id="node1" class="node"><title>ISOTHERMAL_ISOBARIC_ENSEMBLE</title>
<a xlink:href="ISOTHERMAL_ISOBARIC_ENSEMBLE.html" xlink:title=" The isothermal isobaric ensemble " target="_top">
<polyline fill="none" stroke="blue" stroke-width="2" points="361,-108 129,-108 "/>
<path fill="none" stroke="blue" stroke-width="2" d="M129,-108C123,-108 117,-102 117,-96"/>
<polyline fill="none" stroke="blue" stroke-width="2" points="117,-96 117,-84 "/>
<path fill="none" stroke="blue" stroke-width="2" d="M117,-84C117,-78 123,-72 129,-72"/>
<polyline fill="none" stroke="blue" stroke-width="2" points="129,-72 361,-72 "/>
<path fill="none" stroke="blue" stroke-width="2" d="M361,-72C367,-72 373,-78 373,-84"/>
<polyline fill="none" stroke="blue" stroke-width="2" points="373,-84 373,-96 "/>
<path fill="none" stroke="blue" stroke-width="2" d="M373,-96C373,-102 367,-108 361,-108"/>
<text text-anchor="start" x="125.5" y="-87.2333" font-family="Times Roman,serif" font-size="14.00"> The isothermal isobaric ensemble </text>
</a>
</g>
<!-- THERMODYNAMIC_POTENTIALS -->
<g id="node2" class="node"><title>THERMODYNAMIC_POTENTIALS</title>
<a xlink:href="THERMODYNAMIC_POTENTIALS.html" xlink:title=" Thermodynamic Potentials " target="_top">
<polyline fill="none" stroke="black" points="338,-36 152,-36 "/>
<path fill="none" stroke="black" d="M152,-36C146,-36 140,-30 140,-24"/>
<polyline fill="none" stroke="black" points="140,-24 140,-12 "/>
<path fill="none" stroke="black" d="M140,-12C140,-6 146,-1.73575e-14 152,-1.69515e-14"/>
<polyline fill="none" stroke="black" points="152,-1.69515e-14 338,-4.36476e-15 "/>
<path fill="none" stroke="black" d="M338,-4.36476e-15C344,-3.95874e-15 350,-6 350,-12"/>
<polyline fill="none" stroke="black" points="350,-12 350,-24 "/>
<path fill="none" stroke="black" d="M350,-24C350,-30 344,-36 338,-36"/>
<text text-anchor="start" x="148.5" y="-15.2333" font-family="Times Roman,serif" font-size="14.00"> Thermodynamic Potentials </text>
</a>
</g>
<!-- ISOTHERMAL_ISOBARIC_ENSEMBLE&#45;&gt;THERMODYNAMIC_POTENTIALS -->
<g id="edge2" class="edge"><title>ISOTHERMAL_ISOBARIC_ENSEMBLE&#45;&gt;THERMODYNAMIC_POTENTIALS</title>
<path fill="none" stroke="black" d="M245,-71.8314C245,-64.131 245,-54.9743 245,-46.4166"/>
<polygon fill="black" stroke="black" points="248.5,-46.4132 245,-36.4133 241.5,-46.4133 248.5,-46.4132"/>
</g>
<!-- GENERALIZED_PARTITION_FUNCTION -->
<g id="node4" class="node"><title>GENERALIZED_PARTITION_FUNCTION</title>
<a xlink:href="GENERALIZED_PARTITION_FUNCTION.html" xlink:title=" The generalized partition function " target="_top">
<polyline fill="none" stroke="black" points="250,-180 12,-180 "/>
<path fill="none" stroke="black" d="M12,-180C6,-180 9.4739e-14,-174 7.57912e-14,-168"/>
<polyline fill="none" stroke="black" points="7.57912e-14,-168 3.78956e-14,-156 "/>
<path fill="none" stroke="black" d="M3.78956e-14,-156C1.89478e-14,-150 6,-144 12,-144"/>
<polyline fill="none" stroke="black" points="12,-144 250,-144 "/>
<path fill="none" stroke="black" d="M250,-144C256,-144 262,-150 262,-156"/>
<polyline fill="none" stroke="black" points="262,-156 262,-168 "/>
<path fill="none" stroke="black" d="M262,-168C262,-174 256,-180 250,-180"/>
<text text-anchor="start" x="8.5" y="-159.233" font-family="Times Roman,serif" font-size="14.00"> The generalized partition function </text>
</a>
</g>
<!-- GENERALIZED_PARTITION_FUNCTION&#45;&gt;ISOTHERMAL_ISOBARIC_ENSEMBLE -->
<g id="edge4" class="edge"><title>GENERALIZED_PARTITION_FUNCTION&#45;&gt;ISOTHERMAL_ISOBARIC_ENSEMBLE</title>
<path fill="none" stroke="black" d="M159.767,-143.831C174.213,-134.707 191.897,-123.539 207.404,-113.745"/>
<polygon fill="black" stroke="black" points="209.656,-116.462 216.242,-108.163 205.918,-110.544 209.656,-116.462"/>
</g>
<!-- RESPONSE_FUNCTIONS -->
<g id="node6" class="node"><title>RESPONSE_FUNCTIONS</title>
<a xlink:href="RESPONSE_FUNCTIONS.html" xlink:title=" Response functions " target="_top">
<polyline fill="none" stroke="black" points="426,-180 292,-180 "/>
<path fill="none" stroke="black" d="M292,-180C286,-180 280,-174 280,-168"/>
<polyline fill="none" stroke="black" points="280,-168 280,-156 "/>
<path fill="none" stroke="black" d="M280,-156C280,-150 286,-144 292,-144"/>
<polyline fill="none" stroke="black" points="292,-144 426,-144 "/>
<path fill="none" stroke="black" d="M426,-144C432,-144 438,-150 438,-156"/>
<polyline fill="none" stroke="black" points="438,-156 438,-168 "/>
<path fill="none" stroke="black" d="M438,-168C438,-174 432,-180 426,-180"/>
<text text-anchor="start" x="288" y="-159.233" font-family="Times Roman,serif" font-size="14.00"> Response functions </text>
</a>
</g>
<!-- RESPONSE_FUNCTIONS&#45;&gt;ISOTHERMAL_ISOBARIC_ENSEMBLE -->
<g id="edge6" class="edge"><title>RESPONSE_FUNCTIONS&#45;&gt;ISOTHERMAL_ISOBARIC_ENSEMBLE</title>
<path fill="none" stroke="black" d="M330.233,-143.831C315.787,-134.707 298.103,-123.539 282.596,-113.745"/>
<polygon fill="black" stroke="black" points="284.082,-110.544 273.758,-108.163 280.344,-116.462 284.082,-110.544"/>
</g>
</g>
</svg>
