<?xml version="1.0" encoding="UTF-8" standalone="no"?>
<!DOCTYPE svg PUBLIC "-//W3C//DTD SVG 1.1//EN"
 "http://www.w3.org/Graphics/SVG/1.1/DTD/svg11.dtd">
<!-- Generated by graphviz version 2.26.3 (20100126.1600)
 -->
<!-- Title: _anonymous_0 Pages: 1 -->
<svg width="260pt" height="116pt"
 viewBox="0.00 0.00 260.00 116.00" xmlns="http://www.w3.org/2000/svg" xmlns:xlink="http://www.w3.org/1999/xlink">
<g id="graph1" class="graph" transform="scale(1 1) rotate(0) translate(4 112)">
<title>_anonymous_0</title>
<!-- ISOTHERMAL_ISOBARIC_ENSEMBLE -->
<g id="node1" class="node"><title>ISOTHERMAL_ISOBARIC_ENSEMBLE</title>
<a xlink:href="ISOTHERMAL_ISOBARIC_ENSEMBLE.html" xlink:title="The isothermal isobaric ensemble" target="_top">
<polyline fill="none" stroke="blue" stroke-width="2" points="237,-36 15,-36 "/>
<path fill="none" stroke="blue" stroke-width="2" d="M15,-36C9,-36 3,-30 3,-24"/>
<polyline fill="none" stroke="blue" stroke-width="2" points="3,-24 3,-12 "/>
<path fill="none" stroke="blue" stroke-width="2" d="M3,-12C3,-6 9,-1.7417e-14 15,-1.70704e-14"/>
<polyline fill="none" stroke="blue" stroke-width="2" points="15,-1.70704e-14 237,-4.24593e-15 "/>
<path fill="none" stroke="blue" stroke-width="2" d="M237,-4.24593e-15C243,-3.89932e-15 249,-6 249,-12"/>
<polyline fill="none" stroke="blue" stroke-width="2" points="249,-12 249,-24 "/>
<path fill="none" stroke="blue" stroke-width="2" d="M249,-24C249,-30 243,-36 237,-36"/>
<text text-anchor="start" x="11" y="-15.2333" font-family="Times Roman,serif" font-size="14.00">The isothermal isobaric ensemble</text>
</a>
</g>
<!-- GENERALIZED_PARTITION_FUNCTION -->
<g id="node2" class="node"><title>GENERALIZED_PARTITION_FUNCTION</title>
<a xlink:href="GENERALIZED_PARTITION_FUNCTION.html" xlink:title="The generalized partition function" target="_top">
<polyline fill="none" stroke="black" points="240,-108 12,-108 "/>
<path fill="none" stroke="black" d="M12,-108C6,-108 8.28967e-14,-102 6.63173e-14,-96"/>
<polyline fill="none" stroke="black" points="6.63173e-14,-96 3.31587e-14,-84 "/>
<path fill="none" stroke="black" d="M3.31587e-14,-84C1.65793e-14,-78 6,-72 12,-72"/>
<polyline fill="none" stroke="black" points="12,-72 240,-72 "/>
<path fill="none" stroke="black" d="M240,-72C246,-72 252,-78 252,-84"/>
<polyline fill="none" stroke="black" points="252,-84 252,-96 "/>
<path fill="none" stroke="black" d="M252,-96C252,-102 246,-108 240,-108"/>
<text text-anchor="start" x="8" y="-87.2333" font-family="Times Roman,serif" font-size="14.00">The generalized partition function</text>
</a>
</g>
<!-- GENERALIZED_PARTITION_FUNCTION&#45;&gt;ISOTHERMAL_ISOBARIC_ENSEMBLE -->
<g id="edge2" class="edge"><title>GENERALIZED_PARTITION_FUNCTION&#45;&gt;ISOTHERMAL_ISOBARIC_ENSEMBLE</title>
<path fill="none" stroke="black" d="M126,-71.8314C126,-64.131 126,-54.9743 126,-46.4166"/>
<polygon fill="black" stroke="black" points="129.5,-46.4132 126,-36.4133 122.5,-46.4133 129.5,-46.4132"/>
</g>
</g>
</svg>
