<?xml version="1.0" encoding="UTF-8" standalone="no"?>
<!DOCTYPE svg PUBLIC "-//W3C//DTD SVG 1.1//EN"
 "http://www.w3.org/Graphics/SVG/1.1/DTD/svg11.dtd">
<!-- Generated by graphviz version 2.26.3 (20100126.1600)
 -->
<!-- Title: _anonymous_0 Pages: 1 -->
<svg width="582pt" height="188pt"
 viewBox="0.00 0.00 582.00 188.00" xmlns="http://www.w3.org/2000/svg" xmlns:xlink="http://www.w3.org/1999/xlink">
<g id="graph1" class="graph" transform="scale(1 1) rotate(0) translate(4 184)">
<title>_anonymous_0</title>
<!-- JOINT_PROBABILITY_DISTRIBUTION -->
<g id="node1" class="node"><title>JOINT_PROBABILITY_DISTRIBUTION</title>
<a xlink:href="JOINT_PROBABILITY_DISTRIBUTION.html" xlink:title="Joint probability distribution" target="_top">
<polyline fill="none" stroke="blue" stroke-width="2" points="405,-108 219,-108 "/>
<path fill="none" stroke="blue" stroke-width="2" d="M219,-108C213,-108 207,-102 207,-96"/>
<polyline fill="none" stroke="blue" stroke-width="2" points="207,-96 207,-84 "/>
<path fill="none" stroke="blue" stroke-width="2" d="M207,-84C207,-78 213,-72 219,-72"/>
<polyline fill="none" stroke="blue" stroke-width="2" points="219,-72 405,-72 "/>
<path fill="none" stroke="blue" stroke-width="2" d="M405,-72C411,-72 417,-78 417,-84"/>
<polyline fill="none" stroke="blue" stroke-width="2" points="417,-84 417,-96 "/>
<path fill="none" stroke="blue" stroke-width="2" d="M417,-96C417,-102 411,-108 405,-108"/>
<text text-anchor="start" x="215.5" y="-87.2333" font-family="Times Roman,serif" font-size="14.00">Joint probability distribution</text>
</a>
</g>
<!-- CAUCHY_SCHWARTZ_INEQUALITY_STATS -->
<g id="node4" class="node"><title>CAUCHY_SCHWARTZ_INEQUALITY_STATS</title>
<a xlink:href="CAUCHY_SCHWARTZ_INEQUALITY_STATS.html" xlink:title="The Cauchy Schwartz Inequality in Statistics" target="_top">
<polyline fill="none" stroke="black" points="316,-36 12,-36 "/>
<path fill="none" stroke="black" d="M12,-36C6,-36 1.42109e-13,-30 1.13687e-13,-24"/>
<polyline fill="none" stroke="black" points="1.13687e-13,-24 5.68434e-14,-12 "/>
<path fill="none" stroke="black" d="M5.68434e-14,-12C2.84217e-14,-6 6,-1.75036e-14 12,-1.72437e-14"/>
<polyline fill="none" stroke="black" points="12,-1.72437e-14 316,-4.07262e-15 "/>
<path fill="none" stroke="black" d="M316,-4.07262e-15C322,-3.81267e-15 328,-6 328,-12"/>
<polyline fill="none" stroke="black" points="328,-12 328,-24 "/>
<path fill="none" stroke="black" d="M328,-24C328,-30 322,-36 316,-36"/>
<text text-anchor="start" x="8.5" y="-15.2333" font-family="Times Roman,serif" font-size="14.00">The Cauchy Schwartz Inequality in Statistics</text>
</a>
</g>
<!-- JOINT_PROBABILITY_DISTRIBUTION&#45;&gt;CAUCHY_SCHWARTZ_INEQUALITY_STATS -->
<g id="edge4" class="edge"><title>JOINT_PROBABILITY_DISTRIBUTION&#45;&gt;CAUCHY_SCHWARTZ_INEQUALITY_STATS</title>
<path fill="none" stroke="black" d="M274.653,-71.8314C255.123,-62.3302 231.036,-50.6121 210.327,-40.5374"/>
<polygon fill="black" stroke="black" points="211.602,-37.2654 201.078,-36.038 208.539,-43.56 211.602,-37.2654"/>
</g>
<!-- INDEPENDENT_RANDOM_VARIABLES -->
<g id="node6" class="node"><title>INDEPENDENT_RANDOM_VARIABLES</title>
<a xlink:href="INDEPENDENT_RANDOM_VARIABLES.html" xlink:title="Independent random variables" target="_top">
<polyline fill="none" stroke="black" points="562,-36 358,-36 "/>
<path fill="none" stroke="black" d="M358,-36C352,-36 346,-30 346,-24"/>
<polyline fill="none" stroke="black" points="346,-24 346,-12 "/>
<path fill="none" stroke="black" d="M346,-12C346,-6 352,-1.73896e-14 358,-1.70156e-14"/>
<polyline fill="none" stroke="black" points="358,-1.70156e-14 562,-4.30065e-15 "/>
<path fill="none" stroke="black" d="M562,-4.30065e-15C568,-3.92668e-15 574,-6 574,-12"/>
<polyline fill="none" stroke="black" points="574,-12 574,-24 "/>
<path fill="none" stroke="black" d="M574,-24C574,-30 568,-36 562,-36"/>
<text text-anchor="start" x="354.5" y="-15.2333" font-family="Times Roman,serif" font-size="14.00">Independent random variables</text>
</a>
</g>
<!-- JOINT_PROBABILITY_DISTRIBUTION&#45;&gt;INDEPENDENT_RANDOM_VARIABLES -->
<g id="edge6" class="edge"><title>JOINT_PROBABILITY_DISTRIBUTION&#45;&gt;INDEPENDENT_RANDOM_VARIABLES</title>
<path fill="none" stroke="black" d="M349.347,-71.8314C368.877,-62.3302 392.964,-50.6121 413.673,-40.5374"/>
<polygon fill="black" stroke="black" points="415.461,-43.56 422.922,-36.038 412.398,-37.2654 415.461,-43.56"/>
</g>
<!-- RANDOM_VARIABLES -->
<g id="node2" class="node"><title>RANDOM_VARIABLES</title>
<a xlink:href="RANDOM_VARIABLES.html" xlink:title="Random variables" target="_top">
<polyline fill="none" stroke="black" points="370,-180 254,-180 "/>
<path fill="none" stroke="black" d="M254,-180C248,-180 242,-174 242,-168"/>
<polyline fill="none" stroke="black" points="242,-168 242,-156 "/>
<path fill="none" stroke="black" d="M242,-156C242,-150 248,-144 254,-144"/>
<polyline fill="none" stroke="black" points="254,-144 370,-144 "/>
<path fill="none" stroke="black" d="M370,-144C376,-144 382,-150 382,-156"/>
<polyline fill="none" stroke="black" points="382,-156 382,-168 "/>
<path fill="none" stroke="black" d="M382,-168C382,-174 376,-180 370,-180"/>
<text text-anchor="start" x="250.5" y="-159.233" font-family="Times Roman,serif" font-size="14.00">Random variables</text>
</a>
</g>
<!-- RANDOM_VARIABLES&#45;&gt;JOINT_PROBABILITY_DISTRIBUTION -->
<g id="edge2" class="edge"><title>RANDOM_VARIABLES&#45;&gt;JOINT_PROBABILITY_DISTRIBUTION</title>
<path fill="none" stroke="black" d="M312,-143.831C312,-136.131 312,-126.974 312,-118.417"/>
<polygon fill="black" stroke="black" points="315.5,-118.413 312,-108.413 308.5,-118.413 315.5,-118.413"/>
</g>
</g>
</svg>
