<?xml version="1.0" encoding="UTF-8" standalone="no"?>
<!DOCTYPE svg PUBLIC "-//W3C//DTD SVG 1.1//EN"
 "http://www.w3.org/Graphics/SVG/1.1/DTD/svg11.dtd">
<!-- Generated by graphviz version 2.26.3 (20100126.1600)
 -->
<!-- Title: _anonymous_0 Pages: 1 -->
<svg width="598pt" height="188pt"
 viewBox="0.00 0.00 598.00 188.00" xmlns="http://www.w3.org/2000/svg" xmlns:xlink="http://www.w3.org/1999/xlink">
<g id="graph1" class="graph" transform="scale(1 1) rotate(0) translate(4 184)">
<title>_anonymous_0</title>
<!-- JOINT_PROBABILITY_DISTRIBUTION -->
<g id="node1" class="node"><title>JOINT_PROBABILITY_DISTRIBUTION</title>
<a xlink:href="JOINT_PROBABILITY_DISTRIBUTION.html" xlink:title=" Joint probability distribution " target="_top">
<polyline fill="none" stroke="blue" stroke-width="2" points="367,-108 173,-108 "/>
<path fill="none" stroke="blue" stroke-width="2" d="M173,-108C167,-108 161,-102 161,-96"/>
<polyline fill="none" stroke="blue" stroke-width="2" points="161,-96 161,-84 "/>
<path fill="none" stroke="blue" stroke-width="2" d="M161,-84C161,-78 167,-72 173,-72"/>
<polyline fill="none" stroke="blue" stroke-width="2" points="173,-72 367,-72 "/>
<path fill="none" stroke="blue" stroke-width="2" d="M367,-72C373,-72 379,-78 379,-84"/>
<polyline fill="none" stroke="blue" stroke-width="2" points="379,-84 379,-96 "/>
<path fill="none" stroke="blue" stroke-width="2" d="M379,-96C379,-102 373,-108 367,-108"/>
<text text-anchor="start" x="169" y="-87.2333" font-family="Times Roman,serif" font-size="14.00"> Joint probability distribution </text>
</a>
</g>
<!-- INDEPENDENT_RANDOM_VARIABLES -->
<g id="node4" class="node"><title>INDEPENDENT_RANDOM_VARIABLES</title>
<a xlink:href="INDEPENDENT_RANDOM_VARIABLES.html" xlink:title=" Independent random variables " target="_top">
<polyline fill="none" stroke="black" points="224,-36 12,-36 "/>
<path fill="none" stroke="black" d="M12,-36C6,-36 8.28967e-14,-30 6.63173e-14,-24"/>
<polyline fill="none" stroke="black" points="6.63173e-14,-24 3.31587e-14,-12 "/>
<path fill="none" stroke="black" d="M3.31587e-14,-12C1.65793e-14,-6 6,-1.74023e-14 12,-1.7041e-14"/>
<polyline fill="none" stroke="black" points="12,-1.7041e-14 224,-4.2753e-15 "/>
<path fill="none" stroke="black" d="M224,-4.2753e-15C230,-3.91401e-15 236,-6 236,-12"/>
<polyline fill="none" stroke="black" points="236,-12 236,-24 "/>
<path fill="none" stroke="black" d="M236,-24C236,-30 230,-36 224,-36"/>
<text text-anchor="start" x="8" y="-15.2333" font-family="Times Roman,serif" font-size="14.00"> Independent random variables </text>
</a>
</g>
<!-- JOINT_PROBABILITY_DISTRIBUTION&#45;&gt;INDEPENDENT_RANDOM_VARIABLES -->
<g id="edge4" class="edge"><title>JOINT_PROBABILITY_DISTRIBUTION&#45;&gt;INDEPENDENT_RANDOM_VARIABLES</title>
<path fill="none" stroke="black" d="M231.644,-71.8314C211.496,-62.2874 186.625,-50.5065 165.292,-40.4013"/>
<polygon fill="black" stroke="black" points="166.616,-37.1558 156.08,-36.038 163.619,-43.482 166.616,-37.1558"/>
</g>
<!-- CAUCHY_SCHWARTZ_INEQUALITY_STATS -->
<g id="node8" class="node"><title>CAUCHY_SCHWARTZ_INEQUALITY_STATS</title>
<a xlink:href="CAUCHY_SCHWARTZ_INEQUALITY_STATS.html" xlink:title=" The Cauchy Schwartz Inequality in Statistics " target="_top">
<polyline fill="none" stroke="black" points="578,-36 266,-36 "/>
<path fill="none" stroke="black" d="M266,-36C260,-36 254,-30 254,-24"/>
<polyline fill="none" stroke="black" points="254,-24 254,-12 "/>
<path fill="none" stroke="black" d="M254,-12C254,-6 260,-1.75098e-14 266,-1.7256e-14"/>
<polyline fill="none" stroke="black" points="266,-1.7256e-14 578,-4.06024e-15 "/>
<path fill="none" stroke="black" d="M578,-4.06024e-15C584,-3.80648e-15 590,-6 590,-12"/>
<polyline fill="none" stroke="black" points="590,-12 590,-24 "/>
<path fill="none" stroke="black" d="M590,-24C590,-30 584,-36 578,-36"/>
<text text-anchor="start" x="262" y="-15.2333" font-family="Times Roman,serif" font-size="14.00"> The Cauchy Schwartz Inequality in Statistics </text>
</a>
</g>
<!-- JOINT_PROBABILITY_DISTRIBUTION&#45;&gt;CAUCHY_SCHWARTZ_INEQUALITY_STATS -->
<g id="edge8" class="edge"><title>JOINT_PROBABILITY_DISTRIBUTION&#45;&gt;CAUCHY_SCHWARTZ_INEQUALITY_STATS</title>
<path fill="none" stroke="black" d="M308.356,-71.8314C328.504,-62.2874 353.375,-50.5065 374.708,-40.4013"/>
<polygon fill="black" stroke="black" points="376.381,-43.482 383.92,-36.038 373.384,-37.1558 376.381,-43.482"/>
</g>
<!-- RANDOM_VARIABLES -->
<g id="node2" class="node"><title>RANDOM_VARIABLES</title>
<a xlink:href="RANDOM_VARIABLES.html" xlink:title=" Random variables " target="_top">
<polyline fill="none" stroke="black" points="241,-180 117,-180 "/>
<path fill="none" stroke="black" d="M117,-180C111,-180 105,-174 105,-168"/>
<polyline fill="none" stroke="black" points="105,-168 105,-156 "/>
<path fill="none" stroke="black" d="M105,-156C105,-150 111,-144 117,-144"/>
<polyline fill="none" stroke="black" points="117,-144 241,-144 "/>
<path fill="none" stroke="black" d="M241,-144C247,-144 253,-150 253,-156"/>
<polyline fill="none" stroke="black" points="253,-156 253,-168 "/>
<path fill="none" stroke="black" d="M253,-168C253,-174 247,-180 241,-180"/>
<text text-anchor="start" x="113" y="-159.233" font-family="Times Roman,serif" font-size="14.00"> Random variables </text>
</a>
</g>
<!-- RANDOM_VARIABLES&#45;&gt;JOINT_PROBABILITY_DISTRIBUTION -->
<g id="edge2" class="edge"><title>RANDOM_VARIABLES&#45;&gt;JOINT_PROBABILITY_DISTRIBUTION</title>
<path fill="none" stroke="black" d="M201.963,-143.831C213.172,-134.963 226.821,-124.164 238.944,-114.572"/>
<polygon fill="black" stroke="black" points="241.374,-117.112 247.044,-108.163 237.03,-111.623 241.374,-117.112"/>
</g>
<!-- CONDITIONAL_PROBABILITY -->
<g id="node6" class="node"><title>CONDITIONAL_PROBABILITY</title>
<a xlink:href="CONDITIONAL_PROBABILITY.html" xlink:title=" Conditional probability " target="_top">
<polyline fill="none" stroke="black" points="441,-180 283,-180 "/>
<path fill="none" stroke="black" d="M283,-180C277,-180 271,-174 271,-168"/>
<polyline fill="none" stroke="black" points="271,-168 271,-156 "/>
<path fill="none" stroke="black" d="M271,-156C271,-150 277,-144 283,-144"/>
<polyline fill="none" stroke="black" points="283,-144 441,-144 "/>
<path fill="none" stroke="black" d="M441,-144C447,-144 453,-150 453,-156"/>
<polyline fill="none" stroke="black" points="453,-156 453,-168 "/>
<path fill="none" stroke="black" d="M453,-168C453,-174 447,-180 441,-180"/>
<text text-anchor="start" x="279.5" y="-159.233" font-family="Times Roman,serif" font-size="14.00"> Conditional probability </text>
</a>
</g>
<!-- CONDITIONAL_PROBABILITY&#45;&gt;JOINT_PROBABILITY_DISTRIBUTION -->
<g id="edge6" class="edge"><title>CONDITIONAL_PROBABILITY&#45;&gt;JOINT_PROBABILITY_DISTRIBUTION</title>
<path fill="none" stroke="black" d="M338.785,-143.831C327.453,-134.963 313.654,-124.164 301.397,-114.572"/>
<polygon fill="black" stroke="black" points="303.24,-111.57 293.208,-108.163 298.926,-117.082 303.24,-111.57"/>
</g>
</g>
</svg>
