<?xml version="1.0" encoding="UTF-8" standalone="no"?>
<!DOCTYPE svg PUBLIC "-//W3C//DTD SVG 1.1//EN"
 "http://www.w3.org/Graphics/SVG/1.1/DTD/svg11.dtd">
<!-- Generated by graphviz version 2.28.0 (20110509.1545)
 -->
<!-- Title: _anonymous_0 Pages: 1 -->
<svg width="481pt" height="188pt"
 viewBox="0.00 0.00 481.00 188.00" xmlns="http://www.w3.org/2000/svg" xmlns:xlink="http://www.w3.org/1999/xlink">
<g id="graph1" class="graph" transform="scale(1 1) rotate(0) translate(4 184)">
<title>_anonymous_0</title>
<!-- JOINT_PROBABILITY_DISTRIBUTION -->
<g id="node1" class="node"><title>JOINT_PROBABILITY_DISTRIBUTION</title>
<a xlink:href="JOINT_PROBABILITY_DISTRIBUTION.html" xlink:title="Joint probability distribution" target="_top">
<polyline fill="none" stroke="blue" stroke-width="2" points="333.25,-108 180.75,-108 "/>
<path fill="none" stroke="blue" stroke-width="2" d="M180.75,-108C174.75,-108 168.75,-102 168.75,-96"/>
<polyline fill="none" stroke="blue" stroke-width="2" points="168.75,-96 168.75,-84 "/>
<path fill="none" stroke="blue" stroke-width="2" d="M168.75,-84C168.75,-78 174.75,-72 180.75,-72"/>
<polyline fill="none" stroke="blue" stroke-width="2" points="180.75,-72 333.25,-72 "/>
<path fill="none" stroke="blue" stroke-width="2" d="M333.25,-72C339.25,-72 345.25,-78 345.25,-84"/>
<polyline fill="none" stroke="blue" stroke-width="2" points="345.25,-84 345.25,-96 "/>
<path fill="none" stroke="blue" stroke-width="2" d="M345.25,-96C345.25,-102 339.25,-108 333.25,-108"/>
<text text-anchor="start" x="177" y="-84.5" font-family="Times,serif" font-size="14.00">Joint probability distribution</text>
</a>
</g>
<!-- CAUCHY_SCHWARTZ_INEQUALITY_STATS -->
<g id="node2" class="node"><title>CAUCHY_SCHWARTZ_INEQUALITY_STATS</title>
<a xlink:href="CAUCHY_SCHWARTZ_INEQUALITY_STATS.html" xlink:title="The Cauchy Schwartz Inequality in Statistics" target="_top">
<polyline fill="none" stroke="black" points="256.25,-36 11.75,-36 "/>
<path fill="none" stroke="black" d="M11.75,-36C5.75,-36 -0.25,-30 -0.25,-24"/>
<polyline fill="none" stroke="black" points="-0.25,-24 -0.25,-12 "/>
<path fill="none" stroke="black" d="M-0.25,-12C-0.25,-6 5.75,-0 11.75,-0"/>
<polyline fill="none" stroke="black" points="11.75,-0 256.25,-0 "/>
<path fill="none" stroke="black" d="M256.25,-0C262.25,-0 268.25,-6 268.25,-12"/>
<polyline fill="none" stroke="black" points="268.25,-12 268.25,-24 "/>
<path fill="none" stroke="black" d="M268.25,-24C268.25,-30 262.25,-36 256.25,-36"/>
<text text-anchor="start" x="8" y="-12.5" font-family="Times,serif" font-size="14.00">The Cauchy Schwartz Inequality in Statistics</text>
</a>
</g>
<!-- JOINT_PROBABILITY_DISTRIBUTION&#45;&gt;CAUCHY_SCHWARTZ_INEQUALITY_STATS -->
<g id="edge2" class="edge"><title>JOINT_PROBABILITY_DISTRIBUTION&#45;&gt;CAUCHY_SCHWARTZ_INEQUALITY_STATS</title>
<path fill="none" stroke="black" d="M226.911,-71.8761C210.68,-62.6388 190.458,-51.1308 173.029,-41.2116"/>
<polygon fill="black" stroke="black" points="174.627,-38.0941 164.205,-36.1898 171.165,-44.1779 174.627,-38.0941"/>
</g>
<!-- INDEPENDENT_RANDOM_VARIABLES -->
<g id="node4" class="node"><title>INDEPENDENT_RANDOM_VARIABLES</title>
<a xlink:href="INDEPENDENT_RANDOM_VARIABLES.html" xlink:title="Independent random variables" target="_top">
<polyline fill="none" stroke="black" points="461,-36 299,-36 "/>
<path fill="none" stroke="black" d="M299,-36C293,-36 287,-30 287,-24"/>
<polyline fill="none" stroke="black" points="287,-24 287,-12 "/>
<path fill="none" stroke="black" d="M287,-12C287,-6 293,-0 299,-0"/>
<polyline fill="none" stroke="black" points="299,-0 461,-0 "/>
<path fill="none" stroke="black" d="M461,-0C467,-0 473,-6 473,-12"/>
<polyline fill="none" stroke="black" points="473,-12 473,-24 "/>
<path fill="none" stroke="black" d="M473,-24C473,-30 467,-36 461,-36"/>
<text text-anchor="start" x="295.5" y="-12.5" font-family="Times,serif" font-size="14.00">Independent random variables</text>
</a>
</g>
<!-- JOINT_PROBABILITY_DISTRIBUTION&#45;&gt;INDEPENDENT_RANDOM_VARIABLES -->
<g id="edge4" class="edge"><title>JOINT_PROBABILITY_DISTRIBUTION&#45;&gt;INDEPENDENT_RANDOM_VARIABLES</title>
<path fill="none" stroke="black" d="M287.089,-71.8761C303.32,-62.6388 323.542,-51.1308 340.971,-41.2116"/>
<polygon fill="black" stroke="black" points="342.835,-44.1779 349.795,-36.1898 339.373,-38.0941 342.835,-44.1779"/>
</g>
<!-- RANDOM_VARIABLES -->
<g id="node6" class="node"><title>RANDOM_VARIABLES</title>
<a xlink:href="RANDOM_VARIABLES.html" xlink:title="Random variables" target="_top">
<polyline fill="none" stroke="black" points="304,-180 210,-180 "/>
<path fill="none" stroke="black" d="M210,-180C204,-180 198,-174 198,-168"/>
<polyline fill="none" stroke="black" points="198,-168 198,-156 "/>
<path fill="none" stroke="black" d="M198,-156C198,-150 204,-144 210,-144"/>
<polyline fill="none" stroke="black" points="210,-144 304,-144 "/>
<path fill="none" stroke="black" d="M304,-144C310,-144 316,-150 316,-156"/>
<polyline fill="none" stroke="black" points="316,-156 316,-168 "/>
<path fill="none" stroke="black" d="M316,-168C316,-174 310,-180 304,-180"/>
<text text-anchor="start" x="206.5" y="-156.5" font-family="Times,serif" font-size="14.00">Random variables</text>
</a>
</g>
<!-- RANDOM_VARIABLES&#45;&gt;JOINT_PROBABILITY_DISTRIBUTION -->
<g id="edge6" class="edge"><title>RANDOM_VARIABLES&#45;&gt;JOINT_PROBABILITY_DISTRIBUTION</title>
<path fill="none" stroke="black" d="M257,-143.697C257,-135.983 257,-126.712 257,-118.112"/>
<polygon fill="black" stroke="black" points="260.5,-118.104 257,-108.104 253.5,-118.104 260.5,-118.104"/>
</g>
</g>
</svg>
