<?xml version="1.0" encoding="UTF-8" standalone="no"?>
<!DOCTYPE svg PUBLIC "-//W3C//DTD SVG 1.1//EN"
 "http://www.w3.org/Graphics/SVG/1.1/DTD/svg11.dtd">
<!-- Generated by graphviz version 2.36.0 (20140111.2315)
 -->
<!-- Title: %3 Pages: 1 -->
<svg width="216pt" height="188pt"
 viewBox="0.00 0.00 216.00 188.00" xmlns="http://www.w3.org/2000/svg" xmlns:xlink="http://www.w3.org/1999/xlink">
<g id="graph0" class="graph" transform="scale(1 1) rotate(0) translate(4 184)">
<title>%3</title>
<!-- LAGRANGE_MULTIPLIERS -->
<g id="node1" class="node"><title>LAGRANGE_MULTIPLIERS</title>
<g id="a_node1"><a xlink:href="LAGRANGE_MULTIPLIERS.html" xlink:title=" Lagrange multipliers " target="_top">
<path fill="none" stroke="blue" stroke-width="2" d="M161,-108C161,-108 47,-108 47,-108 41,-108 35,-102 35,-96 35,-96 35,-84 35,-84 35,-78 41,-72 47,-72 47,-72 161,-72 161,-72 167,-72 173,-78 173,-84 173,-84 173,-96 173,-96 173,-102 167,-108 161,-108"/>
<text text-anchor="start" x="43" y="-86.3" font-family="Times,serif" font-size="14.00"> Lagrange multipliers </text>
</a>
</g>
</g>
<!-- GENERALIZED_PARTITION_FUNCTION -->
<g id="node2" class="node"><title>GENERALIZED_PARTITION_FUNCTION</title>
<g id="a_node2"><a xlink:href="GENERALIZED_PARTITION_FUNCTION.html" xlink:title=" The generalized partition function " target="_top">
<path fill="none" stroke="black" d="M196.25,-36C196.25,-36 11.75,-36 11.75,-36 5.75,-36 -0.25,-30 -0.25,-24 -0.25,-24 -0.25,-12 -0.25,-12 -0.25,-6 5.75,-0 11.75,-0 11.75,-0 196.25,-0 196.25,-0 202.25,-0 208.25,-6 208.25,-12 208.25,-12 208.25,-24 208.25,-24 208.25,-30 202.25,-36 196.25,-36"/>
<text text-anchor="start" x="7.5" y="-14.3" font-family="Times,serif" font-size="14.00"> The generalized partition function </text>
</a>
</g>
</g>
<!-- LAGRANGE_MULTIPLIERS&#45;&gt;GENERALIZED_PARTITION_FUNCTION -->
<g id="edge1" class="edge"><title>LAGRANGE_MULTIPLIERS&#45;&gt;GENERALIZED_PARTITION_FUNCTION</title>
<path fill="none" stroke="black" d="M104,-71.6966C104,-63.9827 104,-54.7125 104,-46.1124"/>
<polygon fill="black" stroke="black" points="107.5,-46.1043 104,-36.1043 100.5,-46.1044 107.5,-46.1043"/>
</g>
<!-- DEFINITION_OF_DERIVATIVE -->
<g id="node3" class="node"><title>DEFINITION_OF_DERIVATIVE</title>
<g id="a_node3"><a xlink:href="DEFINITION_OF_DERIVATIVE.html" xlink:title=" Differentiation " target="_top">
<path fill="none" stroke="black" d="M144,-180C144,-180 64,-180 64,-180 58,-180 52,-174 52,-168 52,-168 52,-156 52,-156 52,-150 58,-144 64,-144 64,-144 144,-144 144,-144 150,-144 156,-150 156,-156 156,-156 156,-168 156,-168 156,-174 150,-180 144,-180"/>
<text text-anchor="start" x="60" y="-158.3" font-family="Times,serif" font-size="14.00"> Differentiation </text>
</a>
</g>
</g>
<!-- DEFINITION_OF_DERIVATIVE&#45;&gt;LAGRANGE_MULTIPLIERS -->
<g id="edge2" class="edge"><title>DEFINITION_OF_DERIVATIVE&#45;&gt;LAGRANGE_MULTIPLIERS</title>
<path fill="none" stroke="black" d="M104,-143.697C104,-135.983 104,-126.712 104,-118.112"/>
<polygon fill="black" stroke="black" points="107.5,-118.104 104,-108.104 100.5,-118.104 107.5,-118.104"/>
</g>
</g>
</svg>
