<?xml version="1.0" encoding="UTF-8" standalone="no"?>
<!DOCTYPE svg PUBLIC "-//W3C//DTD SVG 1.1//EN"
 "http://www.w3.org/Graphics/SVG/1.1/DTD/svg11.dtd">
<!-- Generated by graphviz version 2.26.3 (20100126.1600)
 -->
<!-- Title: _anonymous_0 Pages: 1 -->
<svg width="260pt" height="188pt"
 viewBox="0.00 0.00 260.00 188.00" xmlns="http://www.w3.org/2000/svg" xmlns:xlink="http://www.w3.org/1999/xlink">
<g id="graph1" class="graph" transform="scale(1 1) rotate(0) translate(4 184)">
<title>_anonymous_0</title>
<!-- LAGRANGE_MULTIPLIERS -->
<g id="node1" class="node"><title>LAGRANGE_MULTIPLIERS</title>
<a xlink:href="LAGRANGE_MULTIPLIERS.html" xlink:title="Lagrange multipliers" target="_top">
<polyline fill="none" stroke="blue" stroke-width="2" points="193,-108 59,-108 "/>
<path fill="none" stroke="blue" stroke-width="2" d="M59,-108C53,-108 47,-102 47,-96"/>
<polyline fill="none" stroke="blue" stroke-width="2" points="47,-96 47,-84 "/>
<path fill="none" stroke="blue" stroke-width="2" d="M47,-84C47,-78 53,-72 59,-72"/>
<polyline fill="none" stroke="blue" stroke-width="2" points="59,-72 193,-72 "/>
<path fill="none" stroke="blue" stroke-width="2" d="M193,-72C199,-72 205,-78 205,-84"/>
<polyline fill="none" stroke="blue" stroke-width="2" points="205,-84 205,-96 "/>
<path fill="none" stroke="blue" stroke-width="2" d="M205,-96C205,-102 199,-108 193,-108"/>
<text text-anchor="start" x="55" y="-87.2333" font-family="Times Roman,serif" font-size="14.00">Lagrange multipliers</text>
</a>
</g>
<!-- GENERALIZED_PARTITION_FUNCTION -->
<g id="node4" class="node"><title>GENERALIZED_PARTITION_FUNCTION</title>
<a xlink:href="GENERALIZED_PARTITION_FUNCTION.html" xlink:title="The generalized partition function" target="_top">
<polyline fill="none" stroke="black" points="240,-36 12,-36 "/>
<path fill="none" stroke="black" d="M12,-36C6,-36 8.28967e-14,-30 6.63173e-14,-24"/>
<polyline fill="none" stroke="black" points="6.63173e-14,-24 3.31587e-14,-12 "/>
<path fill="none" stroke="black" d="M3.31587e-14,-12C1.65793e-14,-6 6,-1.74252e-14 12,-1.70869e-14"/>
<polyline fill="none" stroke="black" points="12,-1.70869e-14 240,-4.22942e-15 "/>
<path fill="none" stroke="black" d="M240,-4.22942e-15C246,-3.89107e-15 252,-6 252,-12"/>
<polyline fill="none" stroke="black" points="252,-12 252,-24 "/>
<path fill="none" stroke="black" d="M252,-24C252,-30 246,-36 240,-36"/>
<text text-anchor="start" x="8" y="-15.2333" font-family="Times Roman,serif" font-size="14.00">The generalized partition function</text>
</a>
</g>
<!-- LAGRANGE_MULTIPLIERS&#45;&gt;GENERALIZED_PARTITION_FUNCTION -->
<g id="edge4" class="edge"><title>LAGRANGE_MULTIPLIERS&#45;&gt;GENERALIZED_PARTITION_FUNCTION</title>
<path fill="none" stroke="black" d="M126,-71.8314C126,-64.131 126,-54.9743 126,-46.4166"/>
<polygon fill="black" stroke="black" points="129.5,-46.4132 126,-36.4133 122.5,-46.4133 129.5,-46.4132"/>
</g>
<!-- DEFINITION_OF_DERIVATIVE -->
<g id="node2" class="node"><title>DEFINITION_OF_DERIVATIVE</title>
<a xlink:href="DEFINITION_OF_DERIVATIVE.html" xlink:title="Differentiation" target="_top">
<polyline fill="none" stroke="black" points="173,-180 79,-180 "/>
<path fill="none" stroke="black" d="M79,-180C73,-180 67,-174 67,-168"/>
<polyline fill="none" stroke="black" points="67,-168 67,-156 "/>
<path fill="none" stroke="black" d="M67,-156C67,-150 73,-144 79,-144"/>
<polyline fill="none" stroke="black" points="79,-144 173,-144 "/>
<path fill="none" stroke="black" d="M173,-144C179,-144 185,-150 185,-156"/>
<polyline fill="none" stroke="black" points="185,-156 185,-168 "/>
<path fill="none" stroke="black" d="M185,-168C185,-174 179,-180 173,-180"/>
<text text-anchor="start" x="75" y="-159.233" font-family="Times Roman,serif" font-size="14.00">Differentiation</text>
</a>
</g>
<!-- DEFINITION_OF_DERIVATIVE&#45;&gt;LAGRANGE_MULTIPLIERS -->
<g id="edge2" class="edge"><title>DEFINITION_OF_DERIVATIVE&#45;&gt;LAGRANGE_MULTIPLIERS</title>
<path fill="none" stroke="black" d="M126,-143.831C126,-136.131 126,-126.974 126,-118.417"/>
<polygon fill="black" stroke="black" points="129.5,-118.413 126,-108.413 122.5,-118.413 129.5,-118.413"/>
</g>
</g>
</svg>
