<?xml version="1.0" encoding="UTF-8" standalone="no"?>
<!DOCTYPE svg PUBLIC "-//W3C//DTD SVG 1.1//EN"
 "http://www.w3.org/Graphics/SVG/1.1/DTD/svg11.dtd">
<!-- Generated by graphviz version 2.26.3 (20100126.1600)
 -->
<!-- Title: _anonymous_0 Pages: 1 -->
<svg width="270pt" height="188pt"
 viewBox="0.00 0.00 270.00 188.00" xmlns="http://www.w3.org/2000/svg" xmlns:xlink="http://www.w3.org/1999/xlink">
<g id="graph1" class="graph" transform="scale(1 1) rotate(0) translate(4 184)">
<title>_anonymous_0</title>
<!-- LAGRANGE_MULTIPLIERS -->
<g id="node1" class="node"><title>LAGRANGE_MULTIPLIERS</title>
<a xlink:href="LAGRANGE_MULTIPLIERS.html" xlink:title=" Lagrange multipliers " target="_top">
<polyline fill="none" stroke="blue" stroke-width="2" points="203,-108 59,-108 "/>
<path fill="none" stroke="blue" stroke-width="2" d="M59,-108C53,-108 47,-102 47,-96"/>
<polyline fill="none" stroke="blue" stroke-width="2" points="47,-96 47,-84 "/>
<path fill="none" stroke="blue" stroke-width="2" d="M47,-84C47,-78 53,-72 59,-72"/>
<polyline fill="none" stroke="blue" stroke-width="2" points="59,-72 203,-72 "/>
<path fill="none" stroke="blue" stroke-width="2" d="M203,-72C209,-72 215,-78 215,-84"/>
<polyline fill="none" stroke="blue" stroke-width="2" points="215,-84 215,-96 "/>
<path fill="none" stroke="blue" stroke-width="2" d="M215,-96C215,-102 209,-108 203,-108"/>
<text text-anchor="start" x="55.5" y="-87.2333" font-family="Times Roman,serif" font-size="14.00"> Lagrange multipliers </text>
</a>
</g>
<!-- GENERALIZED_PARTITION_FUNCTION -->
<g id="node2" class="node"><title>GENERALIZED_PARTITION_FUNCTION</title>
<a xlink:href="GENERALIZED_PARTITION_FUNCTION.html" xlink:title=" The generalized partition function " target="_top">
<polyline fill="none" stroke="black" points="250,-36 12,-36 "/>
<path fill="none" stroke="black" d="M12,-36C6,-36 9.4739e-14,-30 7.57912e-14,-24"/>
<polyline fill="none" stroke="black" points="7.57912e-14,-24 3.78956e-14,-12 "/>
<path fill="none" stroke="black" d="M3.78956e-14,-12C1.89478e-14,-6 6,-1.74381e-14 12,-1.71127e-14"/>
<polyline fill="none" stroke="black" points="12,-1.71127e-14 250,-4.20359e-15 "/>
<path fill="none" stroke="black" d="M250,-4.20359e-15C256,-3.87815e-15 262,-6 262,-12"/>
<polyline fill="none" stroke="black" points="262,-12 262,-24 "/>
<path fill="none" stroke="black" d="M262,-24C262,-30 256,-36 250,-36"/>
<text text-anchor="start" x="8.5" y="-15.2333" font-family="Times Roman,serif" font-size="14.00"> The generalized partition function </text>
</a>
</g>
<!-- LAGRANGE_MULTIPLIERS&#45;&gt;GENERALIZED_PARTITION_FUNCTION -->
<g id="edge2" class="edge"><title>LAGRANGE_MULTIPLIERS&#45;&gt;GENERALIZED_PARTITION_FUNCTION</title>
<path fill="none" stroke="black" d="M131,-71.8314C131,-64.131 131,-54.9743 131,-46.4166"/>
<polygon fill="black" stroke="black" points="134.5,-46.4132 131,-36.4133 127.5,-46.4133 134.5,-46.4132"/>
</g>
<!-- DEFINITION_OF_DERIVATIVE -->
<g id="node4" class="node"><title>DEFINITION_OF_DERIVATIVE</title>
<a xlink:href="DEFINITION_OF_DERIVATIVE.html" xlink:title=" Differentiation " target="_top">
<polyline fill="none" stroke="black" points="183,-180 79,-180 "/>
<path fill="none" stroke="black" d="M79,-180C73,-180 67,-174 67,-168"/>
<polyline fill="none" stroke="black" points="67,-168 67,-156 "/>
<path fill="none" stroke="black" d="M67,-156C67,-150 73,-144 79,-144"/>
<polyline fill="none" stroke="black" points="79,-144 183,-144 "/>
<path fill="none" stroke="black" d="M183,-144C189,-144 195,-150 195,-156"/>
<polyline fill="none" stroke="black" points="195,-156 195,-168 "/>
<path fill="none" stroke="black" d="M195,-168C195,-174 189,-180 183,-180"/>
<text text-anchor="start" x="75.5" y="-159.233" font-family="Times Roman,serif" font-size="14.00"> Differentiation </text>
</a>
</g>
<!-- DEFINITION_OF_DERIVATIVE&#45;&gt;LAGRANGE_MULTIPLIERS -->
<g id="edge4" class="edge"><title>DEFINITION_OF_DERIVATIVE&#45;&gt;LAGRANGE_MULTIPLIERS</title>
<path fill="none" stroke="black" d="M131,-143.831C131,-136.131 131,-126.974 131,-118.417"/>
<polygon fill="black" stroke="black" points="134.5,-118.413 131,-108.413 127.5,-118.413 134.5,-118.413"/>
</g>
</g>
</svg>
