<?xml version="1.0" encoding="UTF-8" standalone="no"?>
<!DOCTYPE svg PUBLIC "-//W3C//DTD SVG 1.1//EN"
 "http://www.w3.org/Graphics/SVG/1.1/DTD/svg11.dtd">
<!-- Generated by graphviz version 2.26.3 (20100126.1600)
 -->
<!-- Title: _anonymous_0 Pages: 1 -->
<svg width="436pt" height="116pt"
 viewBox="0.00 0.00 436.00 116.00" xmlns="http://www.w3.org/2000/svg" xmlns:xlink="http://www.w3.org/1999/xlink">
<g id="graph1" class="graph" transform="scale(1 1) rotate(0) translate(4 112)">
<title>_anonymous_0</title>
<!-- LATTICE_GAS -->
<g id="node1" class="node"><title>LATTICE_GAS</title>
<a xlink:href="LATTICE_GAS.html" xlink:title="Statistical mechanics of independent&#45;distinguisable systems" target="_top">
<polyline fill="none" stroke="blue" stroke-width="2" points="416,-36 12,-36 "/>
<path fill="none" stroke="blue" stroke-width="2" d="M12,-36C6,-36 1.65793e-13,-30 1.32635e-13,-24"/>
<polyline fill="none" stroke="blue" stroke-width="2" points="1.32635e-13,-24 6.63173e-14,-12 "/>
<path fill="none" stroke="blue" stroke-width="2" d="M6.63173e-14,-12C3.31587e-14,-6 6,-1.75644e-14 12,-1.73651e-14"/>
<polyline fill="none" stroke="blue" stroke-width="2" points="12,-1.73651e-14 416,-3.95115e-15 "/>
<path fill="none" stroke="blue" stroke-width="2" d="M416,-3.95115e-15C422,-3.75193e-15 428,-6 428,-12"/>
<polyline fill="none" stroke="blue" stroke-width="2" points="428,-12 428,-24 "/>
<path fill="none" stroke="blue" stroke-width="2" d="M428,-24C428,-30 422,-36 416,-36"/>
<text text-anchor="start" x="8" y="-15.2333" font-family="Times Roman,serif" font-size="14.00">Statistical mechanics of independent&#45;distinguisable systems</text>
</a>
</g>
<!-- CANONICAL_ENSEMBLE -->
<g id="node2" class="node"><title>CANONICAL_ENSEMBLE</title>
<a xlink:href="CANONICAL_ENSEMBLE.html" xlink:title="The canonical ensemble" target="_top">
<polyline fill="none" stroke="black" points="293,-108 135,-108 "/>
<path fill="none" stroke="black" d="M135,-108C129,-108 123,-102 123,-96"/>
<polyline fill="none" stroke="black" points="123,-96 123,-84 "/>
<path fill="none" stroke="black" d="M123,-84C123,-78 129,-72 135,-72"/>
<polyline fill="none" stroke="black" points="135,-72 293,-72 "/>
<path fill="none" stroke="black" d="M293,-72C299,-72 305,-78 305,-84"/>
<polyline fill="none" stroke="black" points="305,-84 305,-96 "/>
<path fill="none" stroke="black" d="M305,-96C305,-102 299,-108 293,-108"/>
<text text-anchor="start" x="131.5" y="-87.2333" font-family="Times Roman,serif" font-size="14.00">The canonical ensemble</text>
</a>
</g>
<!-- CANONICAL_ENSEMBLE&#45;&gt;LATTICE_GAS -->
<g id="edge2" class="edge"><title>CANONICAL_ENSEMBLE&#45;&gt;LATTICE_GAS</title>
<path fill="none" stroke="black" d="M214,-71.8314C214,-64.131 214,-54.9743 214,-46.4166"/>
<polygon fill="black" stroke="black" points="217.5,-46.4132 214,-36.4133 210.5,-46.4133 217.5,-46.4132"/>
</g>
</g>
</svg>
