<?xml version="1.0" encoding="UTF-8" standalone="no"?>
<!DOCTYPE svg PUBLIC "-//W3C//DTD SVG 1.1//EN"
 "http://www.w3.org/Graphics/SVG/1.1/DTD/svg11.dtd">
<!-- Generated by graphviz version 2.26.3 (20100126.1600)
 -->
<!-- Title: _anonymous_0 Pages: 1 -->
<svg width="446pt" height="116pt"
 viewBox="0.00 0.00 446.00 116.00" xmlns="http://www.w3.org/2000/svg" xmlns:xlink="http://www.w3.org/1999/xlink">
<g id="graph1" class="graph" transform="scale(1 1) rotate(0) translate(4 112)">
<title>_anonymous_0</title>
<!-- LATTICE_GAS -->
<g id="node1" class="node"><title>LATTICE_GAS</title>
<a xlink:href="LATTICE_GAS.html" xlink:title=" Statistical mechanics of independent&#45;distinguisable systems " target="_top">
<polyline fill="none" stroke="blue" stroke-width="2" points="426,-36 12,-36 "/>
<path fill="none" stroke="blue" stroke-width="2" d="M12,-36C6,-36 1.89478e-13,-30 1.51582e-13,-24"/>
<polyline fill="none" stroke="blue" stroke-width="2" points="1.51582e-13,-24 7.57912e-14,-12 "/>
<path fill="none" stroke="blue" stroke-width="2" d="M7.57912e-14,-12C3.78956e-14,-6 6,-1.75689e-14 12,-1.73742e-14"/>
<polyline fill="none" stroke="blue" stroke-width="2" points="12,-1.73742e-14 426,-3.94205e-15 "/>
<path fill="none" stroke="blue" stroke-width="2" d="M426,-3.94205e-15C432,-3.74738e-15 438,-6 438,-12"/>
<polyline fill="none" stroke="blue" stroke-width="2" points="438,-12 438,-24 "/>
<path fill="none" stroke="blue" stroke-width="2" d="M438,-24C438,-30 432,-36 426,-36"/>
<text text-anchor="start" x="8.5" y="-15.2333" font-family="Times Roman,serif" font-size="14.00"> Statistical mechanics of independent&#45;distinguisable systems </text>
</a>
</g>
<!-- CANONICAL_ENSEMBLE -->
<g id="node2" class="node"><title>CANONICAL_ENSEMBLE</title>
<a xlink:href="CANONICAL_ENSEMBLE.html" xlink:title=" The canonical ensemble " target="_top">
<polyline fill="none" stroke="black" points="302,-108 136,-108 "/>
<path fill="none" stroke="black" d="M136,-108C130,-108 124,-102 124,-96"/>
<polyline fill="none" stroke="black" points="124,-96 124,-84 "/>
<path fill="none" stroke="black" d="M124,-84C124,-78 130,-72 136,-72"/>
<polyline fill="none" stroke="black" points="136,-72 302,-72 "/>
<path fill="none" stroke="black" d="M302,-72C308,-72 314,-78 314,-84"/>
<polyline fill="none" stroke="black" points="314,-84 314,-96 "/>
<path fill="none" stroke="black" d="M314,-96C314,-102 308,-108 302,-108"/>
<text text-anchor="start" x="132" y="-87.2333" font-family="Times Roman,serif" font-size="14.00"> The canonical ensemble </text>
</a>
</g>
<!-- CANONICAL_ENSEMBLE&#45;&gt;LATTICE_GAS -->
<g id="edge2" class="edge"><title>CANONICAL_ENSEMBLE&#45;&gt;LATTICE_GAS</title>
<path fill="none" stroke="black" d="M219,-71.8314C219,-64.131 219,-54.9743 219,-46.4166"/>
<polygon fill="black" stroke="black" points="222.5,-46.4132 219,-36.4133 215.5,-46.4133 222.5,-46.4132"/>
</g>
</g>
</svg>
