<?xml version="1.0" encoding="UTF-8" standalone="no"?>
<!DOCTYPE svg PUBLIC "-//W3C//DTD SVG 1.1//EN"
 "http://www.w3.org/Graphics/SVG/1.1/DTD/svg11.dtd">
<!-- Generated by graphviz version 2.26.3 (20100126.1600)
 -->
<!-- Title: _anonymous_0 Pages: 1 -->
<svg width="210pt" height="188pt"
 viewBox="0.00 0.00 210.00 188.00" xmlns="http://www.w3.org/2000/svg" xmlns:xlink="http://www.w3.org/1999/xlink">
<g id="graph1" class="graph" transform="scale(1 1) rotate(0) translate(4 184)">
<title>_anonymous_0</title>
<!-- LAW_OF_LARGE_NUMBERS -->
<g id="node1" class="node"><title>LAW_OF_LARGE_NUMBERS</title>
<a xlink:href="LAW_OF_LARGE_NUMBERS.html" xlink:title=" The law of large numbers " target="_top">
<polyline fill="none" stroke="blue" stroke-width="2" points="190,-108 12,-108 "/>
<path fill="none" stroke="blue" stroke-width="2" d="M12,-108C6,-108 5.92119e-14,-102 4.73695e-14,-96"/>
<polyline fill="none" stroke="blue" stroke-width="2" points="4.73695e-14,-96 2.36848e-14,-84 "/>
<path fill="none" stroke="blue" stroke-width="2" d="M2.36848e-14,-84C1.18424e-14,-78 6,-72 12,-72"/>
<polyline fill="none" stroke="blue" stroke-width="2" points="12,-72 190,-72 "/>
<path fill="none" stroke="blue" stroke-width="2" d="M190,-72C196,-72 202,-78 202,-84"/>
<polyline fill="none" stroke="blue" stroke-width="2" points="202,-84 202,-96 "/>
<path fill="none" stroke="blue" stroke-width="2" d="M202,-96C202,-102 196,-108 190,-108"/>
<text text-anchor="start" x="8" y="-87.2333" font-family="Times Roman,serif" font-size="14.00"> The law of large numbers </text>
</a>
</g>
<!-- CENTRAL_LIMIT_THEOREM -->
<g id="node4" class="node"><title>CENTRAL_LIMIT_THEOREM</title>
<a xlink:href="CENTRAL_LIMIT_THEOREM.html" xlink:title=" The central limit theorem " target="_top">
<polyline fill="none" stroke="black" points="190,-36 12,-36 "/>
<path fill="none" stroke="black" d="M12,-36C6,-36 5.92119e-14,-30 4.73695e-14,-24"/>
<polyline fill="none" stroke="black" points="4.73695e-14,-24 2.36848e-14,-12 "/>
<path fill="none" stroke="black" d="M2.36848e-14,-12C1.18424e-14,-6 6,-1.73415e-14 12,-1.69194e-14"/>
<polyline fill="none" stroke="black" points="12,-1.69194e-14 190,-4.39692e-15 "/>
<path fill="none" stroke="black" d="M190,-4.39692e-15C196,-3.97482e-15 202,-6 202,-12"/>
<polyline fill="none" stroke="black" points="202,-12 202,-24 "/>
<path fill="none" stroke="black" d="M202,-24C202,-30 196,-36 190,-36"/>
<text text-anchor="start" x="8" y="-15.2333" font-family="Times Roman,serif" font-size="14.00"> The central limit theorem </text>
</a>
</g>
<!-- LAW_OF_LARGE_NUMBERS&#45;&gt;CENTRAL_LIMIT_THEOREM -->
<g id="edge4" class="edge"><title>LAW_OF_LARGE_NUMBERS&#45;&gt;CENTRAL_LIMIT_THEOREM</title>
<path fill="none" stroke="black" d="M101,-71.8314C101,-64.131 101,-54.9743 101,-46.4166"/>
<polygon fill="black" stroke="black" points="104.5,-46.4132 101,-36.4133 97.5001,-46.4133 104.5,-46.4132"/>
</g>
<!-- EXPECTATION -->
<g id="node2" class="node"><title>EXPECTATION</title>
<a xlink:href="EXPECTATION.html" xlink:title=" Expectation &#160;" target="_top">
<polyline fill="none" stroke="black" points="145,-180 57,-180 "/>
<path fill="none" stroke="black" d="M57,-180C51,-180 45,-174 45,-168"/>
<polyline fill="none" stroke="black" points="45,-168 45,-156 "/>
<path fill="none" stroke="black" d="M45,-156C45,-150 51,-144 57,-144"/>
<polyline fill="none" stroke="black" points="57,-144 145,-144 "/>
<path fill="none" stroke="black" d="M145,-144C151,-144 157,-150 157,-156"/>
<polyline fill="none" stroke="black" points="157,-156 157,-168 "/>
<path fill="none" stroke="black" d="M157,-168C157,-174 151,-180 145,-180"/>
<text text-anchor="start" x="53" y="-159.233" font-family="Times Roman,serif" font-size="14.00"> Expectation &#160;</text>
</a>
</g>
<!-- EXPECTATION&#45;&gt;LAW_OF_LARGE_NUMBERS -->
<g id="edge2" class="edge"><title>EXPECTATION&#45;&gt;LAW_OF_LARGE_NUMBERS</title>
<path fill="none" stroke="black" d="M101,-143.831C101,-136.131 101,-126.974 101,-118.417"/>
<polygon fill="black" stroke="black" points="104.5,-118.413 101,-108.413 97.5001,-118.413 104.5,-118.413"/>
</g>
</g>
</svg>
