<?xml version="1.0" encoding="UTF-8" standalone="no"?>
<!DOCTYPE svg PUBLIC "-//W3C//DTD SVG 1.1//EN"
 "http://www.w3.org/Graphics/SVG/1.1/DTD/svg11.dtd">
<!-- Generated by graphviz version 2.28.0 (20110509.1545)
 -->
<!-- Title: _anonymous_0 Pages: 1 -->
<svg width="168pt" height="188pt"
 viewBox="0.00 0.00 168.00 188.00" xmlns="http://www.w3.org/2000/svg" xmlns:xlink="http://www.w3.org/1999/xlink">
<g id="graph1" class="graph" transform="scale(1 1) rotate(0) translate(4 184)">
<title>_anonymous_0</title>
<!-- LAW_OF_LARGE_NUMBERS -->
<g id="node1" class="node"><title>LAW_OF_LARGE_NUMBERS</title>
<a xlink:href="LAW_OF_LARGE_NUMBERS.html" xlink:title="The law of large numbers" target="_top">
<polyline fill="none" stroke="blue" stroke-width="2" points="148,-108 12,-108 "/>
<path fill="none" stroke="blue" stroke-width="2" d="M12,-108C6,-108 0,-102 0,-96"/>
<polyline fill="none" stroke="blue" stroke-width="2" points="0,-96 0,-84 "/>
<path fill="none" stroke="blue" stroke-width="2" d="M0,-84C0,-78 6,-72 12,-72"/>
<polyline fill="none" stroke="blue" stroke-width="2" points="12,-72 148,-72 "/>
<path fill="none" stroke="blue" stroke-width="2" d="M148,-72C154,-72 160,-78 160,-84"/>
<polyline fill="none" stroke="blue" stroke-width="2" points="160,-84 160,-96 "/>
<path fill="none" stroke="blue" stroke-width="2" d="M160,-96C160,-102 154,-108 148,-108"/>
<text text-anchor="start" x="8.5" y="-84.5" font-family="Times,serif" font-size="14.00">The law of large numbers</text>
</a>
</g>
<!-- CENTRAL_LIMIT_THEOREM -->
<g id="node2" class="node"><title>CENTRAL_LIMIT_THEOREM</title>
<a xlink:href="CENTRAL_LIMIT_THEOREM.html" xlink:title="The central limit theorem" target="_top">
<polyline fill="none" stroke="black" points="147.25,-36 12.75,-36 "/>
<path fill="none" stroke="black" d="M12.75,-36C6.75,-36 0.75,-30 0.75,-24"/>
<polyline fill="none" stroke="black" points="0.75,-24 0.75,-12 "/>
<path fill="none" stroke="black" d="M0.75,-12C0.75,-6 6.75,-0 12.75,-0"/>
<polyline fill="none" stroke="black" points="12.75,-0 147.25,-0 "/>
<path fill="none" stroke="black" d="M147.25,-0C153.25,-0 159.25,-6 159.25,-12"/>
<polyline fill="none" stroke="black" points="159.25,-12 159.25,-24 "/>
<path fill="none" stroke="black" d="M159.25,-24C159.25,-30 153.25,-36 147.25,-36"/>
<text text-anchor="start" x="9" y="-12.5" font-family="Times,serif" font-size="14.00">The central limit theorem</text>
</a>
</g>
<!-- LAW_OF_LARGE_NUMBERS&#45;&gt;CENTRAL_LIMIT_THEOREM -->
<g id="edge2" class="edge"><title>LAW_OF_LARGE_NUMBERS&#45;&gt;CENTRAL_LIMIT_THEOREM</title>
<path fill="none" stroke="black" d="M80,-71.6966C80,-63.9827 80,-54.7125 80,-46.1124"/>
<polygon fill="black" stroke="black" points="83.5001,-46.1043 80,-36.1043 76.5001,-46.1044 83.5001,-46.1043"/>
</g>
<!-- EXPECTATION -->
<g id="node4" class="node"><title>EXPECTATION</title>
<a xlink:href="EXPECTATION.html" xlink:title="Expectation " target="_top">
<polyline fill="none" stroke="black" points="111.25,-180 48.75,-180 "/>
<path fill="none" stroke="black" d="M48.75,-180C42.75,-180 36.75,-174 36.75,-168"/>
<polyline fill="none" stroke="black" points="36.75,-168 36.75,-156 "/>
<path fill="none" stroke="black" d="M36.75,-156C36.75,-150 42.75,-144 48.75,-144"/>
<polyline fill="none" stroke="black" points="48.75,-144 111.25,-144 "/>
<path fill="none" stroke="black" d="M111.25,-144C117.25,-144 123.25,-150 123.25,-156"/>
<polyline fill="none" stroke="black" points="123.25,-156 123.25,-168 "/>
<path fill="none" stroke="black" d="M123.25,-168C123.25,-174 117.25,-180 111.25,-180"/>
<text text-anchor="start" x="45" y="-156.5" font-family="Times,serif" font-size="14.00">Expectation </text>
</a>
</g>
<!-- EXPECTATION&#45;&gt;LAW_OF_LARGE_NUMBERS -->
<g id="edge4" class="edge"><title>EXPECTATION&#45;&gt;LAW_OF_LARGE_NUMBERS</title>
<path fill="none" stroke="black" d="M80,-143.697C80,-135.983 80,-126.712 80,-118.112"/>
<polygon fill="black" stroke="black" points="83.5001,-118.104 80,-108.104 76.5001,-118.104 83.5001,-118.104"/>
</g>
</g>
</svg>
