<?xml version="1.0" encoding="UTF-8" standalone="no"?>
<!DOCTYPE svg PUBLIC "-//W3C//DTD SVG 1.1//EN"
 "http://www.w3.org/Graphics/SVG/1.1/DTD/svg11.dtd">
<!-- Generated by graphviz version 2.26.3 (20100126.1600)
 -->
<!-- Title: _anonymous_0 Pages: 1 -->
<svg width="202pt" height="188pt"
 viewBox="0.00 0.00 202.00 188.00" xmlns="http://www.w3.org/2000/svg" xmlns:xlink="http://www.w3.org/1999/xlink">
<g id="graph1" class="graph" transform="scale(1 1) rotate(0) translate(4 184)">
<title>_anonymous_0</title>
<!-- LAW_OF_LARGE_NUMBERS -->
<g id="node1" class="node"><title>LAW_OF_LARGE_NUMBERS</title>
<a xlink:href="LAW_OF_LARGE_NUMBERS.html" xlink:title="The law of large numbers" target="_top">
<polyline fill="none" stroke="blue" stroke-width="2" points="182,-108 12,-108 "/>
<path fill="none" stroke="blue" stroke-width="2" d="M12,-108C6,-108 4.73695e-14,-102 3.78956e-14,-96"/>
<polyline fill="none" stroke="blue" stroke-width="2" points="3.78956e-14,-96 1.89478e-14,-84 "/>
<path fill="none" stroke="blue" stroke-width="2" d="M1.89478e-14,-84C9.4739e-15,-78 6,-72 12,-72"/>
<polyline fill="none" stroke="blue" stroke-width="2" points="12,-72 182,-72 "/>
<path fill="none" stroke="blue" stroke-width="2" d="M182,-72C188,-72 194,-78 194,-84"/>
<polyline fill="none" stroke="blue" stroke-width="2" points="194,-84 194,-96 "/>
<path fill="none" stroke="blue" stroke-width="2" d="M194,-96C194,-102 188,-108 182,-108"/>
<text text-anchor="start" x="8.5" y="-87.2333" font-family="Times Roman,serif" font-size="14.00">The law of large numbers</text>
</a>
</g>
<!-- CENTRAL_LIMIT_THEOREM -->
<g id="node4" class="node"><title>CENTRAL_LIMIT_THEOREM</title>
<a xlink:href="CENTRAL_LIMIT_THEOREM.html" xlink:title="The central limit theorem" target="_top">
<polyline fill="none" stroke="black" points="182,-36 12,-36 "/>
<path fill="none" stroke="black" d="M12,-36C6,-36 4.73695e-14,-30 3.78956e-14,-24"/>
<polyline fill="none" stroke="black" points="3.78956e-14,-24 1.89478e-14,-12 "/>
<path fill="none" stroke="black" d="M1.89478e-14,-12C9.4739e-15,-6 6,-1.73241e-14 12,-1.68845e-14"/>
<polyline fill="none" stroke="black" points="12,-1.68845e-14 182,-4.43174e-15 "/>
<path fill="none" stroke="black" d="M182,-4.43174e-15C188,-3.99222e-15 194,-6 194,-12"/>
<polyline fill="none" stroke="black" points="194,-12 194,-24 "/>
<path fill="none" stroke="black" d="M194,-24C194,-30 188,-36 182,-36"/>
<text text-anchor="start" x="8.5" y="-15.2333" font-family="Times Roman,serif" font-size="14.00">The central limit theorem</text>
</a>
</g>
<!-- LAW_OF_LARGE_NUMBERS&#45;&gt;CENTRAL_LIMIT_THEOREM -->
<g id="edge4" class="edge"><title>LAW_OF_LARGE_NUMBERS&#45;&gt;CENTRAL_LIMIT_THEOREM</title>
<path fill="none" stroke="black" d="M97,-71.8314C97,-64.131 97,-54.9743 97,-46.4166"/>
<polygon fill="black" stroke="black" points="100.5,-46.4132 97,-36.4133 93.5001,-46.4133 100.5,-46.4132"/>
</g>
<!-- EXPECTATION -->
<g id="node2" class="node"><title>EXPECTATION</title>
<a xlink:href="EXPECTATION.html" xlink:title="Expectation " target="_top">
<polyline fill="none" stroke="black" points="137,-180 57,-180 "/>
<path fill="none" stroke="black" d="M57,-180C51,-180 45,-174 45,-168"/>
<polyline fill="none" stroke="black" points="45,-168 45,-156 "/>
<path fill="none" stroke="black" d="M45,-156C45,-150 51,-144 57,-144"/>
<polyline fill="none" stroke="black" points="57,-144 137,-144 "/>
<path fill="none" stroke="black" d="M137,-144C143,-144 149,-150 149,-156"/>
<polyline fill="none" stroke="black" points="149,-156 149,-168 "/>
<path fill="none" stroke="black" d="M149,-168C149,-174 143,-180 137,-180"/>
<text text-anchor="start" x="53.5" y="-159.233" font-family="Times Roman,serif" font-size="14.00">Expectation </text>
</a>
</g>
<!-- EXPECTATION&#45;&gt;LAW_OF_LARGE_NUMBERS -->
<g id="edge2" class="edge"><title>EXPECTATION&#45;&gt;LAW_OF_LARGE_NUMBERS</title>
<path fill="none" stroke="black" d="M97,-143.831C97,-136.131 97,-126.974 97,-118.417"/>
<polygon fill="black" stroke="black" points="100.5,-118.413 97,-108.413 93.5001,-118.413 100.5,-118.413"/>
</g>
</g>
</svg>
