<?xml version="1.0" encoding="UTF-8" standalone="no"?>
<!DOCTYPE svg PUBLIC "-//W3C//DTD SVG 1.1//EN"
 "http://www.w3.org/Graphics/SVG/1.1/DTD/svg11.dtd">
<!-- Generated by graphviz version 2.36.0 (20140111.2315)
 -->
<!-- Title: %3 Pages: 1 -->
<svg width="172pt" height="188pt"
 viewBox="0.00 0.00 172.00 188.00" xmlns="http://www.w3.org/2000/svg" xmlns:xlink="http://www.w3.org/1999/xlink">
<g id="graph0" class="graph" transform="scale(1 1) rotate(0) translate(4 184)">
<title>%3</title>
<!-- LAW_OF_LARGE_NUMBERS -->
<g id="node1" class="node"><title>LAW_OF_LARGE_NUMBERS</title>
<g id="a_node1"><a xlink:href="LAW_OF_LARGE_NUMBERS.html" xlink:title=" The law of large numbers " target="_top">
<path fill="none" stroke="blue" stroke-width="2" d="M152.25,-108C152.25,-108 11.75,-108 11.75,-108 5.75,-108 -0.25,-102 -0.25,-96 -0.25,-96 -0.25,-84 -0.25,-84 -0.25,-78 5.75,-72 11.75,-72 11.75,-72 152.25,-72 152.25,-72 158.25,-72 164.25,-78 164.25,-84 164.25,-84 164.25,-96 164.25,-96 164.25,-102 158.25,-108 152.25,-108"/>
<text text-anchor="start" x="7.5" y="-86.3" font-family="Times,serif" font-size="14.00"> The law of large numbers </text>
</a>
</g>
</g>
<!-- CENTRAL_LIMIT_THEOREM -->
<g id="node3" class="node"><title>CENTRAL_LIMIT_THEOREM</title>
<g id="a_node3"><a xlink:href="CENTRAL_LIMIT_THEOREM.html" xlink:title=" The central limit theorem " target="_top">
<path fill="none" stroke="black" d="M152,-36C152,-36 12,-36 12,-36 6,-36 0,-30 0,-24 0,-24 0,-12 0,-12 0,-6 6,-0 12,-0 12,-0 152,-0 152,-0 158,-0 164,-6 164,-12 164,-12 164,-24 164,-24 164,-30 158,-36 152,-36"/>
<text text-anchor="start" x="8" y="-14.3" font-family="Times,serif" font-size="14.00"> The central limit theorem </text>
</a>
</g>
</g>
<!-- LAW_OF_LARGE_NUMBERS&#45;&gt;CENTRAL_LIMIT_THEOREM -->
<g id="edge2" class="edge"><title>LAW_OF_LARGE_NUMBERS&#45;&gt;CENTRAL_LIMIT_THEOREM</title>
<path fill="none" stroke="black" d="M82,-71.6966C82,-63.9827 82,-54.7125 82,-46.1124"/>
<polygon fill="black" stroke="black" points="85.5001,-46.1043 82,-36.1043 78.5001,-46.1044 85.5001,-46.1043"/>
</g>
<!-- EXPECTATION -->
<g id="node2" class="node"><title>EXPECTATION</title>
<g id="a_node2"><a xlink:href="EXPECTATION.html" xlink:title=" Expectation &#160;" target="_top">
<path fill="none" stroke="black" d="M116,-180C116,-180 48,-180 48,-180 42,-180 36,-174 36,-168 36,-168 36,-156 36,-156 36,-150 42,-144 48,-144 48,-144 116,-144 116,-144 122,-144 128,-150 128,-156 128,-156 128,-168 128,-168 128,-174 122,-180 116,-180"/>
<text text-anchor="start" x="44" y="-158.3" font-family="Times,serif" font-size="14.00"> Expectation &#160;</text>
</a>
</g>
</g>
<!-- EXPECTATION&#45;&gt;LAW_OF_LARGE_NUMBERS -->
<g id="edge1" class="edge"><title>EXPECTATION&#45;&gt;LAW_OF_LARGE_NUMBERS</title>
<path fill="none" stroke="black" d="M82,-143.697C82,-135.983 82,-126.712 82,-118.112"/>
<polygon fill="black" stroke="black" points="85.5001,-118.104 82,-108.104 78.5001,-118.104 85.5001,-118.104"/>
</g>
</g>
</svg>
