<?xml version="1.0" encoding="UTF-8" standalone="no"?>
<!DOCTYPE svg PUBLIC "-//W3C//DTD SVG 1.1//EN"
 "http://www.w3.org/Graphics/SVG/1.1/DTD/svg11.dtd">
<!-- Generated by graphviz version 2.26.3 (20100126.1600)
 -->
<!-- Title: _anonymous_0 Pages: 1 -->
<svg width="516pt" height="260pt"
 viewBox="0.00 0.00 516.00 260.00" xmlns="http://www.w3.org/2000/svg" xmlns:xlink="http://www.w3.org/1999/xlink">
<g id="graph1" class="graph" transform="scale(1 1) rotate(0) translate(4 256)">
<title>_anonymous_0</title>
<!-- LAWS_OF_THERMODYNAMICS -->
<g id="node1" class="node"><title>LAWS_OF_THERMODYNAMICS</title>
<a xlink:href="LAWS_OF_THERMODYNAMICS.html" xlink:title="The first and second laws of thermodynamics" target="_top">
<polyline fill="none" stroke="blue" stroke-width="2" points="496,-180 192,-180 "/>
<path fill="none" stroke="blue" stroke-width="2" d="M192,-180C186,-180 180,-174 180,-168"/>
<polyline fill="none" stroke="blue" stroke-width="2" points="180,-168 180,-156 "/>
<path fill="none" stroke="blue" stroke-width="2" d="M180,-156C180,-150 186,-144 192,-144"/>
<polyline fill="none" stroke="blue" stroke-width="2" points="192,-144 496,-144 "/>
<path fill="none" stroke="blue" stroke-width="2" d="M496,-144C502,-144 508,-150 508,-156"/>
<polyline fill="none" stroke="blue" stroke-width="2" points="508,-156 508,-168 "/>
<path fill="none" stroke="blue" stroke-width="2" d="M508,-168C508,-174 502,-180 496,-180"/>
<text text-anchor="start" x="188" y="-159.233" font-family="Times Roman,serif" font-size="14.00">The first and second laws of thermodynamics</text>
</a>
</g>
<!-- THERMODYNAMIC_POTENTIALS -->
<g id="node4" class="node"><title>THERMODYNAMIC_POTENTIALS</title>
<a xlink:href="THERMODYNAMIC_POTENTIALS.html" xlink:title="Thermodynamic Potentials" target="_top">
<polyline fill="none" stroke="black" points="188,-108 12,-108 "/>
<path fill="none" stroke="black" d="M12,-108C6,-108 7.10543e-14,-102 5.68434e-14,-96"/>
<polyline fill="none" stroke="black" points="5.68434e-14,-96 2.84217e-14,-84 "/>
<path fill="none" stroke="black" d="M2.84217e-14,-84C1.42109e-14,-78 6,-72 12,-72"/>
<polyline fill="none" stroke="black" points="12,-72 188,-72 "/>
<path fill="none" stroke="black" d="M188,-72C194,-72 200,-78 200,-84"/>
<polyline fill="none" stroke="black" points="200,-84 200,-96 "/>
<path fill="none" stroke="black" d="M200,-96C200,-102 194,-108 188,-108"/>
<text text-anchor="start" x="8" y="-87.2333" font-family="Times Roman,serif" font-size="14.00">Thermodynamic Potentials</text>
</a>
</g>
<!-- LAWS_OF_THERMODYNAMICS&#45;&gt;THERMODYNAMIC_POTENTIALS -->
<g id="edge4" class="edge"><title>LAWS_OF_THERMODYNAMICS&#45;&gt;THERMODYNAMIC_POTENTIALS</title>
<path fill="none" stroke="black" d="M282.743,-143.924C248.807,-133.91 206.452,-121.412 171.065,-110.97"/>
<polygon fill="black" stroke="black" points="171.863,-107.556 161.282,-108.083 169.882,-114.27 171.863,-107.556"/>
</g>
<!-- GENERALIZED_PARTITION_FUNCTION -->
<g id="node6" class="node"><title>GENERALIZED_PARTITION_FUNCTION</title>
<a xlink:href="GENERALIZED_PARTITION_FUNCTION.html" xlink:title="The generalized partition function" target="_top">
<polyline fill="none" stroke="black" points="458,-108 230,-108 "/>
<path fill="none" stroke="black" d="M230,-108C224,-108 218,-102 218,-96"/>
<polyline fill="none" stroke="black" points="218,-96 218,-84 "/>
<path fill="none" stroke="black" d="M218,-84C218,-78 224,-72 230,-72"/>
<polyline fill="none" stroke="black" points="230,-72 458,-72 "/>
<path fill="none" stroke="black" d="M458,-72C464,-72 470,-78 470,-84"/>
<polyline fill="none" stroke="black" points="470,-84 470,-96 "/>
<path fill="none" stroke="black" d="M470,-96C470,-102 464,-108 458,-108"/>
<text text-anchor="start" x="226" y="-87.2333" font-family="Times Roman,serif" font-size="14.00">The generalized partition function</text>
</a>
</g>
<!-- LAWS_OF_THERMODYNAMICS&#45;&gt;GENERALIZED_PARTITION_FUNCTION -->
<g id="edge6" class="edge"><title>LAWS_OF_THERMODYNAMICS&#45;&gt;GENERALIZED_PARTITION_FUNCTION</title>
<path fill="none" stroke="black" d="M344,-143.831C344,-136.131 344,-126.974 344,-118.417"/>
<polygon fill="black" stroke="black" points="347.5,-118.413 344,-108.413 340.5,-118.413 347.5,-118.413"/>
</g>
<!-- RESPONSE_FUNCTIONS -->
<g id="node8" class="node"><title>RESPONSE_FUNCTIONS</title>
<a xlink:href="RESPONSE_FUNCTIONS.html" xlink:title="Response functions" target="_top">
<polyline fill="none" stroke="black" points="362,-36 236,-36 "/>
<path fill="none" stroke="black" d="M236,-36C230,-36 224,-30 224,-24"/>
<polyline fill="none" stroke="black" points="224,-24 224,-12 "/>
<path fill="none" stroke="black" d="M224,-12C224,-6 230,-1.71951e-14 236,-1.66267e-14"/>
<polyline fill="none" stroke="black" points="236,-1.66267e-14 362,-4.68958e-15 "/>
<path fill="none" stroke="black" d="M362,-4.68958e-15C368,-4.12115e-15 374,-6 374,-12"/>
<polyline fill="none" stroke="black" points="374,-12 374,-24 "/>
<path fill="none" stroke="black" d="M374,-24C374,-30 368,-36 362,-36"/>
<text text-anchor="start" x="232.5" y="-15.2333" font-family="Times Roman,serif" font-size="14.00">Response functions</text>
</a>
</g>
<!-- LAWS_OF_THERMODYNAMICS&#45;&gt;RESPONSE_FUNCTIONS -->
<g id="edge8" class="edge"><title>LAWS_OF_THERMODYNAMICS&#45;&gt;RESPONSE_FUNCTIONS</title>
<path fill="none" stroke="black" d="M432.333,-143.936C450.684,-135.977 467.82,-124.513 479,-108 487.97,-94.7509 488.551,-84.8367 479,-72 466.99,-55.8587 424.775,-42.7368 384.246,-33.4714"/>
<polygon fill="black" stroke="black" points="384.794,-30.0079 374.273,-31.2586 383.277,-36.8417 384.794,-30.0079"/>
</g>
<!-- CARNOT_CYCLE -->
<g id="node2" class="node"><title>CARNOT_CYCLE</title>
<a xlink:href="CARNOT_CYCLE.html" xlink:title="The Carnot Cycle" target="_top">
<polyline fill="none" stroke="black" points="400,-252 288,-252 "/>
<path fill="none" stroke="black" d="M288,-252C282,-252 276,-246 276,-240"/>
<polyline fill="none" stroke="black" points="276,-240 276,-228 "/>
<path fill="none" stroke="black" d="M276,-228C276,-222 282,-216 288,-216"/>
<polyline fill="none" stroke="black" points="288,-216 400,-216 "/>
<path fill="none" stroke="black" d="M400,-216C406,-216 412,-222 412,-228"/>
<polyline fill="none" stroke="black" points="412,-228 412,-240 "/>
<path fill="none" stroke="black" d="M412,-240C412,-246 406,-252 400,-252"/>
<text text-anchor="start" x="284" y="-231.233" font-family="Times Roman,serif" font-size="14.00">The Carnot Cycle</text>
</a>
</g>
<!-- CARNOT_CYCLE&#45;&gt;LAWS_OF_THERMODYNAMICS -->
<g id="edge2" class="edge"><title>CARNOT_CYCLE&#45;&gt;LAWS_OF_THERMODYNAMICS</title>
<path fill="none" stroke="black" d="M344,-215.831C344,-208.131 344,-198.974 344,-190.417"/>
<polygon fill="black" stroke="black" points="347.5,-190.413 344,-180.413 340.5,-190.413 347.5,-190.413"/>
</g>
<!-- THERMODYNAMIC_POTENTIALS&#45;&gt;RESPONSE_FUNCTIONS -->
</g>
</svg>
