<?xml version="1.0" encoding="UTF-8" standalone="no"?>
<!DOCTYPE svg PUBLIC "-//W3C//DTD SVG 1.1//EN"
 "http://www.w3.org/Graphics/SVG/1.1/DTD/svg11.dtd">
<!-- Generated by graphviz version 2.36.0 (20140111.2315)
 -->
<!-- Title: %3 Pages: 1 -->
<svg width="400pt" height="260pt"
 viewBox="0.00 0.00 400.00 260.00" xmlns="http://www.w3.org/2000/svg" xmlns:xlink="http://www.w3.org/1999/xlink">
<g id="graph0" class="graph" transform="scale(1 1) rotate(0) translate(4 256)">
<title>%3</title>
<!-- LAWS_OF_THERMODYNAMICS -->
<g id="node1" class="node"><title>LAWS_OF_THERMODYNAMICS</title>
<g id="a_node1"><a xlink:href="LAWS_OF_THERMODYNAMICS.html" xlink:title=" The first and second laws of thermodynamics " target="_top">
<path fill="none" stroke="blue" stroke-width="2" d="M380,-180C380,-180 130,-180 130,-180 124,-180 118,-174 118,-168 118,-168 118,-156 118,-156 118,-150 124,-144 130,-144 130,-144 380,-144 380,-144 386,-144 392,-150 392,-156 392,-156 392,-168 392,-168 392,-174 386,-180 380,-180"/>
<text text-anchor="start" x="126" y="-158.3" font-family="Times,serif" font-size="14.00"> The first and second laws of thermodynamics </text>
</a>
</g>
</g>
<!-- THERMODYNAMIC_POTENTIALS -->
<g id="node2" class="node"><title>THERMODYNAMIC_POTENTIALS</title>
<g id="a_node2"><a xlink:href="THERMODYNAMIC_POTENTIALS.html" xlink:title=" Thermodynamic Potentials " target="_top">
<path fill="none" stroke="black" d="M160,-108C160,-108 12,-108 12,-108 6,-108 0,-102 0,-96 0,-96 0,-84 0,-84 0,-78 6,-72 12,-72 12,-72 160,-72 160,-72 166,-72 172,-78 172,-84 172,-84 172,-96 172,-96 172,-102 166,-108 160,-108"/>
<text text-anchor="start" x="8" y="-86.3" font-family="Times,serif" font-size="14.00"> Thermodynamic Potentials </text>
</a>
</g>
</g>
<!-- LAWS_OF_THERMODYNAMICS&#45;&gt;THERMODYNAMIC_POTENTIALS -->
<g id="edge1" class="edge"><title>LAWS_OF_THERMODYNAMICS&#45;&gt;THERMODYNAMIC_POTENTIALS</title>
<path fill="none" stroke="black" d="M213.658,-143.876C190.452,-134.264 161.31,-122.193 136.73,-112.013"/>
<polygon fill="black" stroke="black" points="137.786,-108.662 127.208,-108.068 135.107,-115.129 137.786,-108.662"/>
</g>
<!-- RESPONSE_FUNCTIONS -->
<g id="node3" class="node"><title>RESPONSE_FUNCTIONS</title>
<g id="a_node3"><a xlink:href="RESPONSE_FUNCTIONS.html" xlink:title=" Response functions " target="_top">
<path fill="none" stroke="black" d="M308,-108C308,-108 202,-108 202,-108 196,-108 190,-102 190,-96 190,-96 190,-84 190,-84 190,-78 196,-72 202,-72 202,-72 308,-72 308,-72 314,-72 320,-78 320,-84 320,-84 320,-96 320,-96 320,-102 314,-108 308,-108"/>
<text text-anchor="start" x="198" y="-86.3" font-family="Times,serif" font-size="14.00"> Response functions </text>
</a>
</g>
</g>
<!-- LAWS_OF_THERMODYNAMICS&#45;&gt;RESPONSE_FUNCTIONS -->
<g id="edge2" class="edge"><title>LAWS_OF_THERMODYNAMICS&#45;&gt;RESPONSE_FUNCTIONS</title>
<path fill="none" stroke="black" d="M255,-143.697C255,-135.983 255,-126.712 255,-118.112"/>
<polygon fill="black" stroke="black" points="258.5,-118.104 255,-108.104 251.5,-118.104 258.5,-118.104"/>
</g>
<!-- GENERALIZED_PARTITION_FUNCTION -->
<g id="node4" class="node"><title>GENERALIZED_PARTITION_FUNCTION</title>
<g id="a_node4"><a xlink:href="GENERALIZED_PARTITION_FUNCTION.html" xlink:title=" The generalized partition function " target="_top">
<path fill="none" stroke="black" d="M309.25,-36C309.25,-36 124.75,-36 124.75,-36 118.75,-36 112.75,-30 112.75,-24 112.75,-24 112.75,-12 112.75,-12 112.75,-6 118.75,-0 124.75,-0 124.75,-0 309.25,-0 309.25,-0 315.25,-0 321.25,-6 321.25,-12 321.25,-12 321.25,-24 321.25,-24 321.25,-30 315.25,-36 309.25,-36"/>
<text text-anchor="start" x="120.5" y="-14.3" font-family="Times,serif" font-size="14.00"> The generalized partition function </text>
</a>
</g>
</g>
<!-- LAWS_OF_THERMODYNAMICS&#45;&gt;GENERALIZED_PARTITION_FUNCTION -->
<g id="edge3" class="edge"><title>LAWS_OF_THERMODYNAMICS&#45;&gt;GENERALIZED_PARTITION_FUNCTION</title>
<path fill="none" stroke="black" d="M292.391,-143.798C306.544,-135.203 321.128,-123.321 329,-108 336.312,-93.7686 337.559,-85.5185 329,-72 320.329,-58.3031 307.057,-48.0775 292.645,-40.4664"/>
<polygon fill="black" stroke="black" points="294.08,-37.2725 283.555,-36.0575 291.025,-43.5707 294.08,-37.2725"/>
</g>
<!-- THERMODYNAMIC_POTENTIALS&#45;&gt;GENERALIZED_PARTITION_FUNCTION -->
<!-- CARNOT_CYCLE -->
<g id="node5" class="node"><title>CARNOT_CYCLE</title>
<g id="a_node5"><a xlink:href="CARNOT_CYCLE.html" xlink:title=" The Carnot Cycle " target="_top">
<path fill="none" stroke="black" d="M303.25,-252C303.25,-252 206.75,-252 206.75,-252 200.75,-252 194.75,-246 194.75,-240 194.75,-240 194.75,-228 194.75,-228 194.75,-222 200.75,-216 206.75,-216 206.75,-216 303.25,-216 303.25,-216 309.25,-216 315.25,-222 315.25,-228 315.25,-228 315.25,-240 315.25,-240 315.25,-246 309.25,-252 303.25,-252"/>
<text text-anchor="start" x="202.5" y="-230.3" font-family="Times,serif" font-size="14.00"> The Carnot Cycle </text>
</a>
</g>
</g>
<!-- CARNOT_CYCLE&#45;&gt;LAWS_OF_THERMODYNAMICS -->
<g id="edge5" class="edge"><title>CARNOT_CYCLE&#45;&gt;LAWS_OF_THERMODYNAMICS</title>
<path fill="none" stroke="black" d="M255,-215.697C255,-207.983 255,-198.712 255,-190.112"/>
<polygon fill="black" stroke="black" points="258.5,-190.104 255,-180.104 251.5,-190.104 258.5,-190.104"/>
</g>
</g>
</svg>
