<?xml version="1.0" encoding="UTF-8" standalone="no"?>
<!DOCTYPE svg PUBLIC "-//W3C//DTD SVG 1.1//EN"
 "http://www.w3.org/Graphics/SVG/1.1/DTD/svg11.dtd">
<!-- Generated by graphviz version 2.36.0 (20140111.2315)
 -->
<!-- Title: %3 Pages: 1 -->
<svg width="440pt" height="260pt"
 viewBox="0.00 0.00 440.00 260.00" xmlns="http://www.w3.org/2000/svg" xmlns:xlink="http://www.w3.org/1999/xlink">
<g id="graph0" class="graph" transform="scale(1 1) rotate(0) translate(4 256)">
<title>%3</title>
<!-- LAWS_OF_THERMODYNAMICS -->
<g id="node1" class="node"><title>LAWS_OF_THERMODYNAMICS</title>
<g id="a_node1"><a xlink:href="LAWS_OF_THERMODYNAMICS.html" xlink:title=" The first and second laws of thermodynamics " target="_top">
<path fill="none" stroke="blue" stroke-width="2" d="M420,-180C420,-180 170,-180 170,-180 164,-180 158,-174 158,-168 158,-168 158,-156 158,-156 158,-150 164,-144 170,-144 170,-144 420,-144 420,-144 426,-144 432,-150 432,-156 432,-156 432,-168 432,-168 432,-174 426,-180 420,-180"/>
<text text-anchor="start" x="166" y="-158.3" font-family="Times,serif" font-size="14.00"> The first and second laws of thermodynamics </text>
</a>
</g>
</g>
<!-- THERMODYNAMIC_POTENTIALS -->
<g id="node2" class="node"><title>THERMODYNAMIC_POTENTIALS</title>
<g id="a_node2"><a xlink:href="THERMODYNAMIC_POTENTIALS.html" xlink:title=" Thermodynamic Potentials " target="_top">
<path fill="none" stroke="black" d="M160,-108C160,-108 12,-108 12,-108 6,-108 0,-102 0,-96 0,-96 0,-84 0,-84 0,-78 6,-72 12,-72 12,-72 160,-72 160,-72 166,-72 172,-78 172,-84 172,-84 172,-96 172,-96 172,-102 166,-108 160,-108"/>
<text text-anchor="start" x="8" y="-86.3" font-family="Times,serif" font-size="14.00"> Thermodynamic Potentials </text>
</a>
</g>
</g>
<!-- LAWS_OF_THERMODYNAMICS&#45;&gt;THERMODYNAMIC_POTENTIALS -->
<g id="edge1" class="edge"><title>LAWS_OF_THERMODYNAMICS&#45;&gt;THERMODYNAMIC_POTENTIALS</title>
<path fill="none" stroke="black" d="M244.14,-143.966C214.811,-134.142 177.748,-121.729 146.876,-111.389"/>
<polygon fill="black" stroke="black" points="147.682,-107.968 137.088,-108.111 145.459,-114.606 147.682,-107.968"/>
</g>
<!-- GENERALIZED_PARTITION_FUNCTION -->
<g id="node4" class="node"><title>GENERALIZED_PARTITION_FUNCTION</title>
<g id="a_node4"><a xlink:href="GENERALIZED_PARTITION_FUNCTION.html" xlink:title=" The generalized partition function " target="_top">
<path fill="none" stroke="black" d="M387.25,-108C387.25,-108 202.75,-108 202.75,-108 196.75,-108 190.75,-102 190.75,-96 190.75,-96 190.75,-84 190.75,-84 190.75,-78 196.75,-72 202.75,-72 202.75,-72 387.25,-72 387.25,-72 393.25,-72 399.25,-78 399.25,-84 399.25,-84 399.25,-96 399.25,-96 399.25,-102 393.25,-108 387.25,-108"/>
<text text-anchor="start" x="198.5" y="-86.3" font-family="Times,serif" font-size="14.00"> The generalized partition function </text>
</a>
</g>
</g>
<!-- LAWS_OF_THERMODYNAMICS&#45;&gt;GENERALIZED_PARTITION_FUNCTION -->
<g id="edge3" class="edge"><title>LAWS_OF_THERMODYNAMICS&#45;&gt;GENERALIZED_PARTITION_FUNCTION</title>
<path fill="none" stroke="black" d="M295,-143.697C295,-135.983 295,-126.712 295,-118.112"/>
<polygon fill="black" stroke="black" points="298.5,-118.104 295,-108.104 291.5,-118.104 298.5,-118.104"/>
</g>
<!-- RESPONSE_FUNCTIONS -->
<g id="node5" class="node"><title>RESPONSE_FUNCTIONS</title>
<g id="a_node5"><a xlink:href="RESPONSE_FUNCTIONS.html" xlink:title=" Response functions " target="_top">
<path fill="none" stroke="black" d="M310,-36C310,-36 204,-36 204,-36 198,-36 192,-30 192,-24 192,-24 192,-12 192,-12 192,-6 198,-0 204,-0 204,-0 310,-0 310,-0 316,-0 322,-6 322,-12 322,-12 322,-24 322,-24 322,-30 316,-36 310,-36"/>
<text text-anchor="start" x="200" y="-14.3" font-family="Times,serif" font-size="14.00"> Response functions </text>
</a>
</g>
</g>
<!-- LAWS_OF_THERMODYNAMICS&#45;&gt;RESPONSE_FUNCTIONS -->
<g id="edge4" class="edge"><title>LAWS_OF_THERMODYNAMICS&#45;&gt;RESPONSE_FUNCTIONS</title>
<path fill="none" stroke="black" d="M362.431,-143.94C380.278,-136.023 397.482,-124.551 408,-108 416.582,-94.4962 417.252,-85.0534 408,-72 390.538,-47.3647 360.686,-34.0943 332.112,-26.9793"/>
<polygon fill="black" stroke="black" points="332.607,-23.5028 322.081,-24.7108 331.062,-30.3304 332.607,-23.5028"/>
</g>
<!-- THERMODYNAMIC_POTENTIALS&#45;&gt;RESPONSE_FUNCTIONS -->
<!-- CARNOT_CYCLE -->
<g id="node3" class="node"><title>CARNOT_CYCLE</title>
<g id="a_node3"><a xlink:href="CARNOT_CYCLE.html" xlink:title=" The Carnot Cycle " target="_top">
<path fill="none" stroke="black" d="M343.25,-252C343.25,-252 246.75,-252 246.75,-252 240.75,-252 234.75,-246 234.75,-240 234.75,-240 234.75,-228 234.75,-228 234.75,-222 240.75,-216 246.75,-216 246.75,-216 343.25,-216 343.25,-216 349.25,-216 355.25,-222 355.25,-228 355.25,-228 355.25,-240 355.25,-240 355.25,-246 349.25,-252 343.25,-252"/>
<text text-anchor="start" x="242.5" y="-230.3" font-family="Times,serif" font-size="14.00"> The Carnot Cycle </text>
</a>
</g>
</g>
<!-- CARNOT_CYCLE&#45;&gt;LAWS_OF_THERMODYNAMICS -->
<g id="edge2" class="edge"><title>CARNOT_CYCLE&#45;&gt;LAWS_OF_THERMODYNAMICS</title>
<path fill="none" stroke="black" d="M295,-215.697C295,-207.983 295,-198.712 295,-190.112"/>
<polygon fill="black" stroke="black" points="298.5,-190.104 295,-180.104 291.5,-190.104 298.5,-190.104"/>
</g>
</g>
</svg>
