<?xml version="1.0" encoding="UTF-8" standalone="no"?>
<!DOCTYPE svg PUBLIC "-//W3C//DTD SVG 1.1//EN"
 "http://www.w3.org/Graphics/SVG/1.1/DTD/svg11.dtd">
<!-- Generated by graphviz version 2.26.3 (20100126.1600)
 -->
<!-- Title: _anonymous_0 Pages: 1 -->
<svg width="376pt" height="188pt"
 viewBox="0.00 0.00 376.00 188.00" xmlns="http://www.w3.org/2000/svg" xmlns:xlink="http://www.w3.org/1999/xlink">
<g id="graph1" class="graph" transform="scale(1 1) rotate(0) translate(4 184)">
<title>_anonymous_0</title>
<!-- LAWS_OF_THERMODYNAMICS -->
<g id="node1" class="node"><title>LAWS_OF_THERMODYNAMICS</title>
<a xlink:href="LAWS_OF_THERMODYNAMICS.html" xlink:title="The first and second laws of thermodynamics" target="_top">
<polyline fill="none" stroke="blue" stroke-width="2" points="348,-108 44,-108 "/>
<path fill="none" stroke="blue" stroke-width="2" d="M44,-108C38,-108 32,-102 32,-96"/>
<polyline fill="none" stroke="blue" stroke-width="2" points="32,-96 32,-84 "/>
<path fill="none" stroke="blue" stroke-width="2" d="M32,-84C32,-78 38,-72 44,-72"/>
<polyline fill="none" stroke="blue" stroke-width="2" points="44,-72 348,-72 "/>
<path fill="none" stroke="blue" stroke-width="2" d="M348,-72C354,-72 360,-78 360,-84"/>
<polyline fill="none" stroke="blue" stroke-width="2" points="360,-84 360,-96 "/>
<path fill="none" stroke="blue" stroke-width="2" d="M360,-96C360,-102 354,-108 348,-108"/>
<text text-anchor="start" x="40" y="-87.2333" font-family="Times Roman,serif" font-size="14.00">The first and second laws of thermodynamics</text>
</a>
</g>
<!-- THERMODYNAMIC_POTENTIALS -->
<g id="node2" class="node"><title>THERMODYNAMIC_POTENTIALS</title>
<a xlink:href="THERMODYNAMIC_POTENTIALS.html" xlink:title="Thermodynamic Potentials" target="_top">
<polyline fill="none" stroke="black" points="188,-36 12,-36 "/>
<path fill="none" stroke="black" d="M12,-36C6,-36 7.10543e-14,-30 5.68434e-14,-24"/>
<polyline fill="none" stroke="black" points="5.68434e-14,-24 2.84217e-14,-12 "/>
<path fill="none" stroke="black" d="M2.84217e-14,-12C1.42109e-14,-6 6,-1.73372e-14 12,-1.69109e-14"/>
<polyline fill="none" stroke="black" points="12,-1.69109e-14 188,-4.40536e-15 "/>
<path fill="none" stroke="black" d="M188,-4.40536e-15C194,-3.97904e-15 200,-6 200,-12"/>
<polyline fill="none" stroke="black" points="200,-12 200,-24 "/>
<path fill="none" stroke="black" d="M200,-24C200,-30 194,-36 188,-36"/>
<text text-anchor="start" x="8" y="-15.2333" font-family="Times Roman,serif" font-size="14.00">Thermodynamic Potentials</text>
</a>
</g>
<!-- LAWS_OF_THERMODYNAMICS&#45;&gt;THERMODYNAMIC_POTENTIALS -->
<g id="edge2" class="edge"><title>LAWS_OF_THERMODYNAMICS&#45;&gt;THERMODYNAMIC_POTENTIALS</title>
<path fill="none" stroke="black" d="M171.775,-71.8314C159.837,-62.8779 145.274,-51.9558 132.394,-42.2955"/>
<polygon fill="black" stroke="black" points="134.317,-39.3629 124.217,-36.1628 130.117,-44.9629 134.317,-39.3629"/>
</g>
<!-- RESPONSE_FUNCTIONS -->
<g id="node4" class="node"><title>RESPONSE_FUNCTIONS</title>
<a xlink:href="RESPONSE_FUNCTIONS.html" xlink:title="Response functions" target="_top">
<polyline fill="none" stroke="black" points="356,-36 230,-36 "/>
<path fill="none" stroke="black" d="M230,-36C224,-36 218,-30 218,-24"/>
<polyline fill="none" stroke="black" points="218,-24 218,-12 "/>
<path fill="none" stroke="black" d="M218,-12C218,-6 224,-1.71951e-14 230,-1.66267e-14"/>
<polyline fill="none" stroke="black" points="230,-1.66267e-14 356,-4.68958e-15 "/>
<path fill="none" stroke="black" d="M356,-4.68958e-15C362,-4.12115e-15 368,-6 368,-12"/>
<polyline fill="none" stroke="black" points="368,-12 368,-24 "/>
<path fill="none" stroke="black" d="M368,-24C368,-30 362,-36 356,-36"/>
<text text-anchor="start" x="226.5" y="-15.2333" font-family="Times Roman,serif" font-size="14.00">Response functions</text>
</a>
</g>
<!-- LAWS_OF_THERMODYNAMICS&#45;&gt;RESPONSE_FUNCTIONS -->
<g id="edge4" class="edge"><title>LAWS_OF_THERMODYNAMICS&#45;&gt;RESPONSE_FUNCTIONS</title>
<path fill="none" stroke="black" d="M220.477,-71.8314C232.539,-62.8779 247.254,-51.9558 260.269,-42.2955"/>
<polygon fill="black" stroke="black" points="262.587,-44.9335 268.531,-36.1628 258.415,-39.3127 262.587,-44.9335"/>
</g>
<!-- CARNOT_CYCLE -->
<g id="node6" class="node"><title>CARNOT_CYCLE</title>
<a xlink:href="CARNOT_CYCLE.html" xlink:title="The Carnot Cycle" target="_top">
<polyline fill="none" stroke="black" points="252,-180 140,-180 "/>
<path fill="none" stroke="black" d="M140,-180C134,-180 128,-174 128,-168"/>
<polyline fill="none" stroke="black" points="128,-168 128,-156 "/>
<path fill="none" stroke="black" d="M128,-156C128,-150 134,-144 140,-144"/>
<polyline fill="none" stroke="black" points="140,-144 252,-144 "/>
<path fill="none" stroke="black" d="M252,-144C258,-144 264,-150 264,-156"/>
<polyline fill="none" stroke="black" points="264,-156 264,-168 "/>
<path fill="none" stroke="black" d="M264,-168C264,-174 258,-180 252,-180"/>
<text text-anchor="start" x="136" y="-159.233" font-family="Times Roman,serif" font-size="14.00">The Carnot Cycle</text>
</a>
</g>
<!-- CARNOT_CYCLE&#45;&gt;LAWS_OF_THERMODYNAMICS -->
<g id="edge6" class="edge"><title>CARNOT_CYCLE&#45;&gt;LAWS_OF_THERMODYNAMICS</title>
<path fill="none" stroke="black" d="M196,-143.831C196,-136.131 196,-126.974 196,-118.417"/>
<polygon fill="black" stroke="black" points="199.5,-118.413 196,-108.413 192.5,-118.413 199.5,-118.413"/>
</g>
</g>
</svg>
