<?xml version="1.0" encoding="UTF-8" standalone="no"?>
<!DOCTYPE svg PUBLIC "-//W3C//DTD SVG 1.1//EN"
 "http://www.w3.org/Graphics/SVG/1.1/DTD/svg11.dtd">
<!-- Generated by graphviz version 2.26.3 (20100126.1600)
 -->
<!-- Title: _anonymous_0 Pages: 1 -->
<svg width="536pt" height="260pt"
 viewBox="0.00 0.00 536.00 260.00" xmlns="http://www.w3.org/2000/svg" xmlns:xlink="http://www.w3.org/1999/xlink">
<g id="graph1" class="graph" transform="scale(1 1) rotate(0) translate(4 256)">
<title>_anonymous_0</title>
<!-- LAWS_OF_THERMODYNAMICS -->
<g id="node1" class="node"><title>LAWS_OF_THERMODYNAMICS</title>
<a xlink:href="LAWS_OF_THERMODYNAMICS.html" xlink:title=" The first and second laws of thermodynamics " target="_top">
<polyline fill="none" stroke="blue" stroke-width="2" points="516,-180 202,-180 "/>
<path fill="none" stroke="blue" stroke-width="2" d="M202,-180C196,-180 190,-174 190,-168"/>
<polyline fill="none" stroke="blue" stroke-width="2" points="190,-168 190,-156 "/>
<path fill="none" stroke="blue" stroke-width="2" d="M190,-156C190,-150 196,-144 202,-144"/>
<polyline fill="none" stroke="blue" stroke-width="2" points="202,-144 516,-144 "/>
<path fill="none" stroke="blue" stroke-width="2" d="M516,-144C522,-144 528,-150 528,-156"/>
<polyline fill="none" stroke="blue" stroke-width="2" points="528,-156 528,-168 "/>
<path fill="none" stroke="blue" stroke-width="2" d="M528,-168C528,-174 522,-180 516,-180"/>
<text text-anchor="start" x="198.5" y="-159.233" font-family="Times Roman,serif" font-size="14.00"> The first and second laws of thermodynamics </text>
</a>
</g>
<!-- THERMODYNAMIC_POTENTIALS -->
<g id="node4" class="node"><title>THERMODYNAMIC_POTENTIALS</title>
<a xlink:href="THERMODYNAMIC_POTENTIALS.html" xlink:title=" Thermodynamic Potentials " target="_top">
<polyline fill="none" stroke="black" points="198,-108 12,-108 "/>
<path fill="none" stroke="black" d="M12,-108C6,-108 7.10543e-14,-102 5.68434e-14,-96"/>
<polyline fill="none" stroke="black" points="5.68434e-14,-96 2.84217e-14,-84 "/>
<path fill="none" stroke="black" d="M2.84217e-14,-84C1.42109e-14,-78 6,-72 12,-72"/>
<polyline fill="none" stroke="black" points="12,-72 198,-72 "/>
<path fill="none" stroke="black" d="M198,-72C204,-72 210,-78 210,-84"/>
<polyline fill="none" stroke="black" points="210,-84 210,-96 "/>
<path fill="none" stroke="black" d="M210,-96C210,-102 204,-108 198,-108"/>
<text text-anchor="start" x="8.5" y="-87.2333" font-family="Times Roman,serif" font-size="14.00"> Thermodynamic Potentials </text>
</a>
</g>
<!-- LAWS_OF_THERMODYNAMICS&#45;&gt;THERMODYNAMIC_POTENTIALS -->
<g id="edge4" class="edge"><title>LAWS_OF_THERMODYNAMICS&#45;&gt;THERMODYNAMIC_POTENTIALS</title>
<path fill="none" stroke="black" d="M295.233,-143.924C259.755,-133.868 215.438,-121.305 178.506,-110.836"/>
<polygon fill="black" stroke="black" points="179.369,-107.443 168.793,-108.083 177.46,-114.178 179.369,-107.443"/>
</g>
<!-- GENERALIZED_PARTITION_FUNCTION -->
<g id="node6" class="node"><title>GENERALIZED_PARTITION_FUNCTION</title>
<a xlink:href="GENERALIZED_PARTITION_FUNCTION.html" xlink:title=" The generalized partition function " target="_top">
<polyline fill="none" stroke="black" points="478,-108 240,-108 "/>
<path fill="none" stroke="black" d="M240,-108C234,-108 228,-102 228,-96"/>
<polyline fill="none" stroke="black" points="228,-96 228,-84 "/>
<path fill="none" stroke="black" d="M228,-84C228,-78 234,-72 240,-72"/>
<polyline fill="none" stroke="black" points="240,-72 478,-72 "/>
<path fill="none" stroke="black" d="M478,-72C484,-72 490,-78 490,-84"/>
<polyline fill="none" stroke="black" points="490,-84 490,-96 "/>
<path fill="none" stroke="black" d="M490,-96C490,-102 484,-108 478,-108"/>
<text text-anchor="start" x="236.5" y="-87.2333" font-family="Times Roman,serif" font-size="14.00"> The generalized partition function </text>
</a>
</g>
<!-- LAWS_OF_THERMODYNAMICS&#45;&gt;GENERALIZED_PARTITION_FUNCTION -->
<g id="edge6" class="edge"><title>LAWS_OF_THERMODYNAMICS&#45;&gt;GENERALIZED_PARTITION_FUNCTION</title>
<path fill="none" stroke="black" d="M359,-143.831C359,-136.131 359,-126.974 359,-118.417"/>
<polygon fill="black" stroke="black" points="362.5,-118.413 359,-108.413 355.5,-118.413 362.5,-118.413"/>
</g>
<!-- RESPONSE_FUNCTIONS -->
<g id="node8" class="node"><title>RESPONSE_FUNCTIONS</title>
<a xlink:href="RESPONSE_FUNCTIONS.html" xlink:title=" Response functions " target="_top">
<polyline fill="none" stroke="black" points="378,-36 244,-36 "/>
<path fill="none" stroke="black" d="M244,-36C238,-36 232,-30 232,-24"/>
<polyline fill="none" stroke="black" points="232,-24 232,-12 "/>
<path fill="none" stroke="black" d="M232,-12C232,-6 238,-1.72239e-14 244,-1.66843e-14"/>
<polyline fill="none" stroke="black" points="244,-1.66843e-14 378,-4.63202e-15 "/>
<path fill="none" stroke="black" d="M378,-4.63202e-15C384,-4.09237e-15 390,-6 390,-12"/>
<polyline fill="none" stroke="black" points="390,-12 390,-24 "/>
<path fill="none" stroke="black" d="M390,-24C390,-30 384,-36 378,-36"/>
<text text-anchor="start" x="240" y="-15.2333" font-family="Times Roman,serif" font-size="14.00"> Response functions </text>
</a>
</g>
<!-- LAWS_OF_THERMODYNAMICS&#45;&gt;RESPONSE_FUNCTIONS -->
<g id="edge8" class="edge"><title>LAWS_OF_THERMODYNAMICS&#45;&gt;RESPONSE_FUNCTIONS</title>
<path fill="none" stroke="black" d="M426.144,-143.995C457.528,-134.087 489.973,-121.157 499,-108 508.052,-94.8067 508.626,-84.7803 499,-72 486.395,-55.2653 442.267,-42.1176 399.931,-32.9868"/>
<polygon fill="black" stroke="black" points="400.591,-29.5492 390.086,-30.9264 399.157,-36.4007 400.591,-29.5492"/>
</g>
<!-- CARNOT_CYCLE -->
<g id="node2" class="node"><title>CARNOT_CYCLE</title>
<a xlink:href="CARNOT_CYCLE.html" xlink:title=" The Carnot Cycle " target="_top">
<polyline fill="none" stroke="black" points="420,-252 298,-252 "/>
<path fill="none" stroke="black" d="M298,-252C292,-252 286,-246 286,-240"/>
<polyline fill="none" stroke="black" points="286,-240 286,-228 "/>
<path fill="none" stroke="black" d="M286,-228C286,-222 292,-216 298,-216"/>
<polyline fill="none" stroke="black" points="298,-216 420,-216 "/>
<path fill="none" stroke="black" d="M420,-216C426,-216 432,-222 432,-228"/>
<polyline fill="none" stroke="black" points="432,-228 432,-240 "/>
<path fill="none" stroke="black" d="M432,-240C432,-246 426,-252 420,-252"/>
<text text-anchor="start" x="294.5" y="-231.233" font-family="Times Roman,serif" font-size="14.00"> The Carnot Cycle </text>
</a>
</g>
<!-- CARNOT_CYCLE&#45;&gt;LAWS_OF_THERMODYNAMICS -->
<g id="edge2" class="edge"><title>CARNOT_CYCLE&#45;&gt;LAWS_OF_THERMODYNAMICS</title>
<path fill="none" stroke="black" d="M359,-215.831C359,-208.131 359,-198.974 359,-190.417"/>
<polygon fill="black" stroke="black" points="362.5,-190.413 359,-180.413 355.5,-190.413 362.5,-190.413"/>
</g>
<!-- THERMODYNAMIC_POTENTIALS&#45;&gt;RESPONSE_FUNCTIONS -->
</g>
</svg>
