<?xml version="1.0" encoding="UTF-8" standalone="no"?>
<!DOCTYPE svg PUBLIC "-//W3C//DTD SVG 1.1//EN"
 "http://www.w3.org/Graphics/SVG/1.1/DTD/svg11.dtd">
<!-- Generated by graphviz version 2.26.3 (20100126.1600)
 -->
<!-- Title: _anonymous_0 Pages: 1 -->
<svg width="465pt" height="260pt"
 viewBox="0.00 0.00 465.00 260.00" xmlns="http://www.w3.org/2000/svg" xmlns:xlink="http://www.w3.org/1999/xlink">
<g id="graph1" class="graph" transform="scale(1 1) rotate(0) translate(4 256)">
<title>_anonymous_0</title>
<!-- LAWS_OF_THERMODYNAMICS -->
<g id="node1" class="node"><title>LAWS_OF_THERMODYNAMICS</title>
<a xlink:href="LAWS_OF_THERMODYNAMICS.html" xlink:title="The first and second laws of thermodynamics" target="_top">
<polyline fill="none" stroke="blue" stroke-width="2" points="445,-180 141,-180 "/>
<path fill="none" stroke="blue" stroke-width="2" d="M141,-180C135,-180 129,-174 129,-168"/>
<polyline fill="none" stroke="blue" stroke-width="2" points="129,-168 129,-156 "/>
<path fill="none" stroke="blue" stroke-width="2" d="M129,-156C129,-150 135,-144 141,-144"/>
<polyline fill="none" stroke="blue" stroke-width="2" points="141,-144 445,-144 "/>
<path fill="none" stroke="blue" stroke-width="2" d="M445,-144C451,-144 457,-150 457,-156"/>
<polyline fill="none" stroke="blue" stroke-width="2" points="457,-156 457,-168 "/>
<path fill="none" stroke="blue" stroke-width="2" d="M457,-168C457,-174 451,-180 445,-180"/>
<text text-anchor="start" x="137" y="-159.233" font-family="Times Roman,serif" font-size="14.00">The first and second laws of thermodynamics</text>
</a>
</g>
<!-- THERMODYNAMIC_POTENTIALS -->
<g id="node2" class="node"><title>THERMODYNAMIC_POTENTIALS</title>
<a xlink:href="THERMODYNAMIC_POTENTIALS.html" xlink:title="Thermodynamic Potentials" target="_top">
<polyline fill="none" stroke="black" points="188,-108 12,-108 "/>
<path fill="none" stroke="black" d="M12,-108C6,-108 7.10543e-14,-102 5.68434e-14,-96"/>
<polyline fill="none" stroke="black" points="5.68434e-14,-96 2.84217e-14,-84 "/>
<path fill="none" stroke="black" d="M2.84217e-14,-84C1.42109e-14,-78 6,-72 12,-72"/>
<polyline fill="none" stroke="black" points="12,-72 188,-72 "/>
<path fill="none" stroke="black" d="M188,-72C194,-72 200,-78 200,-84"/>
<polyline fill="none" stroke="black" points="200,-84 200,-96 "/>
<path fill="none" stroke="black" d="M200,-96C200,-102 194,-108 188,-108"/>
<text text-anchor="start" x="8" y="-87.2333" font-family="Times Roman,serif" font-size="14.00">Thermodynamic Potentials</text>
</a>
</g>
<!-- LAWS_OF_THERMODYNAMICS&#45;&gt;THERMODYNAMIC_POTENTIALS -->
<g id="edge2" class="edge"><title>LAWS_OF_THERMODYNAMICS&#45;&gt;THERMODYNAMIC_POTENTIALS</title>
<path fill="none" stroke="black" d="M244.298,-143.831C218.026,-134.031 185.432,-121.871 157.872,-111.589"/>
<polygon fill="black" stroke="black" points="158.944,-108.254 148.352,-108.038 156.498,-114.813 158.944,-108.254"/>
</g>
<!-- RESPONSE_FUNCTIONS -->
<g id="node4" class="node"><title>RESPONSE_FUNCTIONS</title>
<a xlink:href="RESPONSE_FUNCTIONS.html" xlink:title="Response functions" target="_top">
<polyline fill="none" stroke="black" points="356,-108 230,-108 "/>
<path fill="none" stroke="black" d="M230,-108C224,-108 218,-102 218,-96"/>
<polyline fill="none" stroke="black" points="218,-96 218,-84 "/>
<path fill="none" stroke="black" d="M218,-84C218,-78 224,-72 230,-72"/>
<polyline fill="none" stroke="black" points="230,-72 356,-72 "/>
<path fill="none" stroke="black" d="M356,-72C362,-72 368,-78 368,-84"/>
<polyline fill="none" stroke="black" points="368,-84 368,-96 "/>
<path fill="none" stroke="black" d="M368,-96C368,-102 362,-108 356,-108"/>
<text text-anchor="start" x="226.5" y="-87.2333" font-family="Times Roman,serif" font-size="14.00">Response functions</text>
</a>
</g>
<!-- LAWS_OF_THERMODYNAMICS&#45;&gt;RESPONSE_FUNCTIONS -->
<g id="edge4" class="edge"><title>LAWS_OF_THERMODYNAMICS&#45;&gt;RESPONSE_FUNCTIONS</title>
<path fill="none" stroke="black" d="M293,-143.831C293,-136.131 293,-126.974 293,-118.417"/>
<polygon fill="black" stroke="black" points="296.5,-118.413 293,-108.413 289.5,-118.413 296.5,-118.413"/>
</g>
<!-- GENERALIZED_PARTITION_FUNCTION -->
<g id="node6" class="node"><title>GENERALIZED_PARTITION_FUNCTION</title>
<a xlink:href="GENERALIZED_PARTITION_FUNCTION.html" xlink:title="The generalized partition function" target="_top">
<polyline fill="none" stroke="black" points="362,-36 134,-36 "/>
<path fill="none" stroke="black" d="M134,-36C128,-36 122,-30 122,-24"/>
<polyline fill="none" stroke="black" points="122,-24 122,-12 "/>
<path fill="none" stroke="black" d="M122,-12C122,-6 128,-1.74252e-14 134,-1.70869e-14"/>
<polyline fill="none" stroke="black" points="134,-1.70869e-14 362,-4.22942e-15 "/>
<path fill="none" stroke="black" d="M362,-4.22942e-15C368,-3.89107e-15 374,-6 374,-12"/>
<polyline fill="none" stroke="black" points="374,-12 374,-24 "/>
<path fill="none" stroke="black" d="M374,-24C374,-30 368,-36 362,-36"/>
<text text-anchor="start" x="130" y="-15.2333" font-family="Times Roman,serif" font-size="14.00">The generalized partition function</text>
</a>
</g>
<!-- LAWS_OF_THERMODYNAMICS&#45;&gt;GENERALIZED_PARTITION_FUNCTION -->
<g id="edge6" class="edge"><title>LAWS_OF_THERMODYNAMICS&#45;&gt;GENERALIZED_PARTITION_FUNCTION</title>
<path fill="none" stroke="black" d="M337.979,-143.986C353.174,-135.476 368.443,-123.673 377,-108 384.667,-93.9566 385.864,-85.3201 377,-72 367.922,-58.3582 354.664,-48.1562 340.061,-40.5283"/>
<polygon fill="black" stroke="black" points="341.352,-37.2657 330.821,-36.1038 338.329,-43.5793 341.352,-37.2657"/>
</g>
<!-- THERMODYNAMIC_POTENTIALS&#45;&gt;GENERALIZED_PARTITION_FUNCTION -->
<!-- CARNOT_CYCLE -->
<g id="node9" class="node"><title>CARNOT_CYCLE</title>
<a xlink:href="CARNOT_CYCLE.html" xlink:title="The Carnot Cycle" target="_top">
<polyline fill="none" stroke="black" points="349,-252 237,-252 "/>
<path fill="none" stroke="black" d="M237,-252C231,-252 225,-246 225,-240"/>
<polyline fill="none" stroke="black" points="225,-240 225,-228 "/>
<path fill="none" stroke="black" d="M225,-228C225,-222 231,-216 237,-216"/>
<polyline fill="none" stroke="black" points="237,-216 349,-216 "/>
<path fill="none" stroke="black" d="M349,-216C355,-216 361,-222 361,-228"/>
<polyline fill="none" stroke="black" points="361,-228 361,-240 "/>
<path fill="none" stroke="black" d="M361,-240C361,-246 355,-252 349,-252"/>
<text text-anchor="start" x="233" y="-231.233" font-family="Times Roman,serif" font-size="14.00">The Carnot Cycle</text>
</a>
</g>
<!-- CARNOT_CYCLE&#45;&gt;LAWS_OF_THERMODYNAMICS -->
<g id="edge10" class="edge"><title>CARNOT_CYCLE&#45;&gt;LAWS_OF_THERMODYNAMICS</title>
<path fill="none" stroke="black" d="M293,-215.831C293,-208.131 293,-198.974 293,-190.417"/>
<polygon fill="black" stroke="black" points="296.5,-190.413 293,-180.413 289.5,-190.413 296.5,-190.413"/>
</g>
</g>
</svg>
