<?xml version="1.0" encoding="UTF-8" standalone="no"?>
<!DOCTYPE svg PUBLIC "-//W3C//DTD SVG 1.1//EN"
 "http://www.w3.org/Graphics/SVG/1.1/DTD/svg11.dtd">
<!-- Generated by graphviz version 2.26.3 (20100126.1600)
 -->
<!-- Title: _anonymous_0 Pages: 1 -->
<svg width="242pt" height="188pt"
 viewBox="0.00 0.00 242.00 188.00" xmlns="http://www.w3.org/2000/svg" xmlns:xlink="http://www.w3.org/1999/xlink">
<g id="graph1" class="graph" transform="scale(1 1) rotate(0) translate(4 184)">
<title>_anonymous_0</title>
<!-- LHOPITALS_RULE -->
<g id="node1" class="node"><title>LHOPITALS_RULE</title>
<a xlink:href="LHOPITALS_RULE.html" xlink:title=" l&#39;Hopital&#39;s Rule " target="_top">
<polyline fill="none" stroke="blue" stroke-width="2" points="168,-108 66,-108 "/>
<path fill="none" stroke="blue" stroke-width="2" d="M66,-108C60,-108 54,-102 54,-96"/>
<polyline fill="none" stroke="blue" stroke-width="2" points="54,-96 54,-84 "/>
<path fill="none" stroke="blue" stroke-width="2" d="M54,-84C54,-78 60,-72 66,-72"/>
<polyline fill="none" stroke="blue" stroke-width="2" points="66,-72 168,-72 "/>
<path fill="none" stroke="blue" stroke-width="2" d="M168,-72C174,-72 180,-78 180,-84"/>
<polyline fill="none" stroke="blue" stroke-width="2" points="180,-84 180,-96 "/>
<path fill="none" stroke="blue" stroke-width="2" d="M180,-96C180,-102 174,-108 168,-108"/>
<text text-anchor="start" x="62.5" y="-87.2333" font-family="Times Roman,serif" font-size="14.00"> l&#39;Hopital&#39;s Rule </text>
</a>
</g>
<!-- GAMBLERS_RUIN -->
<g id="node2" class="node"><title>GAMBLERS_RUIN</title>
<a xlink:href="GAMBLERS_RUIN.html" xlink:title=" Gamblers ruin " target="_top">
<polyline fill="none" stroke="black" points="167,-36 67,-36 "/>
<path fill="none" stroke="black" d="M67,-36C61,-36 55,-30 55,-24"/>
<polyline fill="none" stroke="black" points="55,-24 55,-12 "/>
<path fill="none" stroke="black" d="M55,-12C55,-6 61,-1.70759e-14 67,-1.63883e-14"/>
<polyline fill="none" stroke="black" points="67,-1.63883e-14 167,-4.92796e-15 "/>
<path fill="none" stroke="black" d="M167,-4.92796e-15C173,-4.24034e-15 179,-6 179,-12"/>
<polyline fill="none" stroke="black" points="179,-12 179,-24 "/>
<path fill="none" stroke="black" d="M179,-24C179,-30 173,-36 167,-36"/>
<text text-anchor="start" x="63.5" y="-15.2333" font-family="Times Roman,serif" font-size="14.00"> Gamblers ruin </text>
</a>
</g>
<!-- LHOPITALS_RULE&#45;&gt;GAMBLERS_RUIN -->
<g id="edge2" class="edge"><title>LHOPITALS_RULE&#45;&gt;GAMBLERS_RUIN</title>
<path fill="none" stroke="black" d="M117,-71.8314C117,-64.131 117,-54.9743 117,-46.4166"/>
<polygon fill="black" stroke="black" points="120.5,-46.4132 117,-36.4133 113.5,-46.4133 120.5,-46.4132"/>
</g>
<!-- TAYLOR_SERIES -->
<g id="node4" class="node"><title>TAYLOR_SERIES</title>
<a xlink:href="TAYLOR_SERIES.html" xlink:title=" One dimensional Taylor Series " target="_top">
<polyline fill="none" stroke="black" points="222,-180 12,-180 "/>
<path fill="none" stroke="black" d="M12,-180C6,-180 9.71075e-14,-174 8.05282e-14,-168"/>
<polyline fill="none" stroke="black" points="8.05282e-14,-168 4.73695e-14,-156 "/>
<path fill="none" stroke="black" d="M4.73695e-14,-156C3.07902e-14,-150 6,-144 12,-144"/>
<polyline fill="none" stroke="black" points="12,-144 222,-144 "/>
<path fill="none" stroke="black" d="M222,-144C228,-144 234,-150 234,-156"/>
<polyline fill="none" stroke="black" points="234,-156 234,-168 "/>
<path fill="none" stroke="black" d="M234,-168C234,-174 228,-180 222,-180"/>
<text text-anchor="start" x="8.5" y="-159.233" font-family="Times Roman,serif" font-size="14.00"> One dimensional Taylor Series </text>
</a>
</g>
<!-- TAYLOR_SERIES&#45;&gt;LHOPITALS_RULE -->
<g id="edge4" class="edge"><title>TAYLOR_SERIES&#45;&gt;LHOPITALS_RULE</title>
<path fill="none" stroke="black" d="M117,-143.831C117,-136.131 117,-126.974 117,-118.417"/>
<polygon fill="black" stroke="black" points="120.5,-118.413 117,-108.413 113.5,-118.413 120.5,-118.413"/>
</g>
</g>
</svg>
