<?xml version="1.0" encoding="UTF-8" standalone="no"?>
<!DOCTYPE svg PUBLIC "-//W3C//DTD SVG 1.1//EN"
 "http://www.w3.org/Graphics/SVG/1.1/DTD/svg11.dtd">
<!-- Generated by graphviz version 2.28.0 (20110509.1545)
 -->
<!-- Title: _anonymous_0 Pages: 1 -->
<svg width="110pt" height="188pt"
 viewBox="0.00 0.00 110.00 188.00" xmlns="http://www.w3.org/2000/svg" xmlns:xlink="http://www.w3.org/1999/xlink">
<g id="graph1" class="graph" transform="scale(1 1) rotate(0) translate(4 184)">
<title>_anonymous_0</title>
<!-- LHOPITALS_RULE -->
<g id="node1" class="node"><title>LHOPITALS_RULE</title>
<a xlink:href="LHOPITALS_RULE.html" xlink:title="l&#39;Hopital&#39;s Rule" target="_top">
<polyline fill="none" stroke="blue" stroke-width="2" points="90.25,-108 11.75,-108 "/>
<path fill="none" stroke="blue" stroke-width="2" d="M11.75,-108C5.75,-108 -0.25,-102 -0.25,-96"/>
<polyline fill="none" stroke="blue" stroke-width="2" points="-0.25,-96 -0.25,-84 "/>
<path fill="none" stroke="blue" stroke-width="2" d="M-0.25,-84C-0.25,-78 5.75,-72 11.75,-72"/>
<polyline fill="none" stroke="blue" stroke-width="2" points="11.75,-72 90.25,-72 "/>
<path fill="none" stroke="blue" stroke-width="2" d="M90.25,-72C96.25,-72 102.25,-78 102.25,-84"/>
<polyline fill="none" stroke="blue" stroke-width="2" points="102.25,-84 102.25,-96 "/>
<path fill="none" stroke="blue" stroke-width="2" d="M102.25,-96C102.25,-102 96.25,-108 90.25,-108"/>
<text text-anchor="start" x="8" y="-84.5" font-family="Times,serif" font-size="14.00">l&#39;Hopital&#39;s Rule</text>
</a>
</g>
<!-- GAMBLERS_RUIN_FAIR_GAME -->
<g id="node4" class="node"><title>GAMBLERS_RUIN_FAIR_GAME</title>
<a xlink:href="GAMBLERS_RUIN_FAIR_GAME.html" xlink:title="TITLE:" target="_top">
<polyline fill="none" stroke="black" points="68.25,-36 33.75,-36 "/>
<path fill="none" stroke="black" d="M33.75,-36C27.75,-36 21.75,-30 21.75,-24"/>
<polyline fill="none" stroke="black" points="21.75,-24 21.75,-12 "/>
<path fill="none" stroke="black" d="M21.75,-12C21.75,-6 27.75,-0 33.75,-0"/>
<polyline fill="none" stroke="black" points="33.75,-0 68.25,-0 "/>
<path fill="none" stroke="black" d="M68.25,-0C74.25,-0 80.25,-6 80.25,-12"/>
<polyline fill="none" stroke="black" points="80.25,-12 80.25,-24 "/>
<path fill="none" stroke="black" d="M80.25,-24C80.25,-30 74.25,-36 68.25,-36"/>
<text text-anchor="start" x="30" y="-12.5" font-family="Times,serif" font-size="14.00">TITLE:</text>
</a>
</g>
<!-- LHOPITALS_RULE&#45;&gt;GAMBLERS_RUIN_FAIR_GAME -->
<g id="edge4" class="edge"><title>LHOPITALS_RULE&#45;&gt;GAMBLERS_RUIN_FAIR_GAME</title>
<path fill="none" stroke="black" d="M51,-71.6966C51,-63.9827 51,-54.7125 51,-46.1124"/>
<polygon fill="black" stroke="black" points="54.5001,-46.1043 51,-36.1043 47.5001,-46.1044 54.5001,-46.1043"/>
</g>
<!-- GAMBLERS_RUIN -->
<g id="node2" class="node"><title>GAMBLERS_RUIN</title>
<a xlink:href="GAMBLERS_RUIN.html" xlink:title="TITLE:" target="_top">
<polyline fill="none" stroke="black" points="68.25,-180 33.75,-180 "/>
<path fill="none" stroke="black" d="M33.75,-180C27.75,-180 21.75,-174 21.75,-168"/>
<polyline fill="none" stroke="black" points="21.75,-168 21.75,-156 "/>
<path fill="none" stroke="black" d="M21.75,-156C21.75,-150 27.75,-144 33.75,-144"/>
<polyline fill="none" stroke="black" points="33.75,-144 68.25,-144 "/>
<path fill="none" stroke="black" d="M68.25,-144C74.25,-144 80.25,-150 80.25,-156"/>
<polyline fill="none" stroke="black" points="80.25,-156 80.25,-168 "/>
<path fill="none" stroke="black" d="M80.25,-168C80.25,-174 74.25,-180 68.25,-180"/>
<text text-anchor="start" x="30" y="-156.5" font-family="Times,serif" font-size="14.00">TITLE:</text>
</a>
</g>
<!-- GAMBLERS_RUIN&#45;&gt;LHOPITALS_RULE -->
<g id="edge2" class="edge"><title>GAMBLERS_RUIN&#45;&gt;LHOPITALS_RULE</title>
<path fill="none" stroke="black" d="M51,-143.697C51,-135.983 51,-126.712 51,-118.112"/>
<polygon fill="black" stroke="black" points="54.5001,-118.104 51,-108.104 47.5001,-118.104 54.5001,-118.104"/>
</g>
</g>
</svg>
