<?xml version="1.0" encoding="UTF-8" standalone="no"?>
<!DOCTYPE svg PUBLIC "-//W3C//DTD SVG 1.1//EN"
 "http://www.w3.org/Graphics/SVG/1.1/DTD/svg11.dtd">
<!-- Generated by graphviz version 2.26.3 (20100126.1600)
 -->
<!-- Title: _anonymous_0 Pages: 1 -->
<svg width="232pt" height="188pt"
 viewBox="0.00 0.00 232.00 188.00" xmlns="http://www.w3.org/2000/svg" xmlns:xlink="http://www.w3.org/1999/xlink">
<g id="graph1" class="graph" transform="scale(1 1) rotate(0) translate(4 184)">
<title>_anonymous_0</title>
<!-- LHOPITALS_RULE -->
<g id="node1" class="node"><title>LHOPITALS_RULE</title>
<a xlink:href="LHOPITALS_RULE.html" xlink:title="l&#39;Hopital&#39;s Rule" target="_top">
<polyline fill="none" stroke="blue" stroke-width="2" points="158,-108 66,-108 "/>
<path fill="none" stroke="blue" stroke-width="2" d="M66,-108C60,-108 54,-102 54,-96"/>
<polyline fill="none" stroke="blue" stroke-width="2" points="54,-96 54,-84 "/>
<path fill="none" stroke="blue" stroke-width="2" d="M54,-84C54,-78 60,-72 66,-72"/>
<polyline fill="none" stroke="blue" stroke-width="2" points="66,-72 158,-72 "/>
<path fill="none" stroke="blue" stroke-width="2" d="M158,-72C164,-72 170,-78 170,-84"/>
<polyline fill="none" stroke="blue" stroke-width="2" points="170,-84 170,-96 "/>
<path fill="none" stroke="blue" stroke-width="2" d="M170,-96C170,-102 164,-108 158,-108"/>
<text text-anchor="start" x="62" y="-87.2333" font-family="Times Roman,serif" font-size="14.00">l&#39;Hopital&#39;s Rule</text>
</a>
</g>
<!-- GAMBLERS_RUIN -->
<g id="node2" class="node"><title>GAMBLERS_RUIN</title>
<a xlink:href="GAMBLERS_RUIN.html" xlink:title="Gamblers ruin" target="_top">
<polyline fill="none" stroke="black" points="157,-36 67,-36 "/>
<path fill="none" stroke="black" d="M67,-36C61,-36 55,-30 55,-24"/>
<polyline fill="none" stroke="black" points="55,-24 55,-12 "/>
<path fill="none" stroke="black" d="M55,-12C55,-6 61,-1.70156e-14 67,-1.62677e-14"/>
<polyline fill="none" stroke="black" points="67,-1.62677e-14 157,-5.04859e-15 "/>
<path fill="none" stroke="black" d="M157,-5.04859e-15C163,-4.30065e-15 169,-6 169,-12"/>
<polyline fill="none" stroke="black" points="169,-12 169,-24 "/>
<path fill="none" stroke="black" d="M169,-24C169,-30 163,-36 157,-36"/>
<text text-anchor="start" x="63" y="-15.2333" font-family="Times Roman,serif" font-size="14.00">Gamblers ruin</text>
</a>
</g>
<!-- LHOPITALS_RULE&#45;&gt;GAMBLERS_RUIN -->
<g id="edge2" class="edge"><title>LHOPITALS_RULE&#45;&gt;GAMBLERS_RUIN</title>
<path fill="none" stroke="black" d="M112,-71.8314C112,-64.131 112,-54.9743 112,-46.4166"/>
<polygon fill="black" stroke="black" points="115.5,-46.4132 112,-36.4133 108.5,-46.4133 115.5,-46.4132"/>
</g>
<!-- TAYLOR_SERIES -->
<g id="node4" class="node"><title>TAYLOR_SERIES</title>
<a xlink:href="TAYLOR_SERIES.html" xlink:title="One dimensional Taylor Series" target="_top">
<polyline fill="none" stroke="black" points="212,-180 12,-180 "/>
<path fill="none" stroke="black" d="M12,-180C6,-180 8.28967e-14,-174 6.63173e-14,-168"/>
<polyline fill="none" stroke="black" points="6.63173e-14,-168 3.31587e-14,-156 "/>
<path fill="none" stroke="black" d="M3.31587e-14,-156C1.65793e-14,-150 6,-144 12,-144"/>
<polyline fill="none" stroke="black" points="12,-144 212,-144 "/>
<path fill="none" stroke="black" d="M212,-144C218,-144 224,-150 224,-156"/>
<polyline fill="none" stroke="black" points="224,-156 224,-168 "/>
<path fill="none" stroke="black" d="M224,-168C224,-174 218,-180 212,-180"/>
<text text-anchor="start" x="8" y="-159.233" font-family="Times Roman,serif" font-size="14.00">One dimensional Taylor Series</text>
</a>
</g>
<!-- TAYLOR_SERIES&#45;&gt;LHOPITALS_RULE -->
<g id="edge4" class="edge"><title>TAYLOR_SERIES&#45;&gt;LHOPITALS_RULE</title>
<path fill="none" stroke="black" d="M112,-143.831C112,-136.131 112,-126.974 112,-118.417"/>
<polygon fill="black" stroke="black" points="115.5,-118.413 112,-108.413 108.5,-118.413 115.5,-118.413"/>
</g>
</g>
</svg>
