<?xml version="1.0" encoding="UTF-8" standalone="no"?>
<!DOCTYPE svg PUBLIC "-//W3C//DTD SVG 1.1//EN"
 "http://www.w3.org/Graphics/SVG/1.1/DTD/svg11.dtd">
<!-- Generated by graphviz version 2.36.0 (20140111.2315)
 -->
<!-- Title: %3 Pages: 1 -->
<svg width="200pt" height="188pt"
 viewBox="0.00 0.00 200.00 188.00" xmlns="http://www.w3.org/2000/svg" xmlns:xlink="http://www.w3.org/1999/xlink">
<g id="graph0" class="graph" transform="scale(1 1) rotate(0) translate(4 184)">
<title>%3</title>
<!-- LHOPITALS_RULE -->
<g id="node1" class="node"><title>LHOPITALS_RULE</title>
<g id="a_node1"><a xlink:href="LHOPITALS_RULE.html" xlink:title=" l&#39;Hopital&#39;s Rule " target="_top">
<path fill="none" stroke="blue" stroke-width="2" d="M137.25,-108C137.25,-108 54.75,-108 54.75,-108 48.75,-108 42.75,-102 42.75,-96 42.75,-96 42.75,-84 42.75,-84 42.75,-78 48.75,-72 54.75,-72 54.75,-72 137.25,-72 137.25,-72 143.25,-72 149.25,-78 149.25,-84 149.25,-84 149.25,-96 149.25,-96 149.25,-102 143.25,-108 137.25,-108"/>
<text text-anchor="start" x="50.5" y="-86.3" font-family="Times,serif" font-size="14.00"> l&#39;Hopital&#39;s Rule </text>
</a>
</g>
</g>
<!-- GAMBLERS_RUIN -->
<g id="node3" class="node"><title>GAMBLERS_RUIN</title>
<g id="a_node3"><a xlink:href="GAMBLERS_RUIN.html" xlink:title=" Gamblers ruin " target="_top">
<path fill="none" stroke="black" d="M135.25,-36C135.25,-36 56.75,-36 56.75,-36 50.75,-36 44.75,-30 44.75,-24 44.75,-24 44.75,-12 44.75,-12 44.75,-6 50.75,-0 56.75,-0 56.75,-0 135.25,-0 135.25,-0 141.25,-0 147.25,-6 147.25,-12 147.25,-12 147.25,-24 147.25,-24 147.25,-30 141.25,-36 135.25,-36"/>
<text text-anchor="start" x="52.5" y="-14.3" font-family="Times,serif" font-size="14.00"> Gamblers ruin </text>
</a>
</g>
</g>
<!-- LHOPITALS_RULE&#45;&gt;GAMBLERS_RUIN -->
<g id="edge2" class="edge"><title>LHOPITALS_RULE&#45;&gt;GAMBLERS_RUIN</title>
<path fill="none" stroke="black" d="M96,-71.6966C96,-63.9827 96,-54.7125 96,-46.1124"/>
<polygon fill="black" stroke="black" points="99.5001,-46.1043 96,-36.1043 92.5001,-46.1044 99.5001,-46.1043"/>
</g>
<!-- TAYLOR_SERIES -->
<g id="node2" class="node"><title>TAYLOR_SERIES</title>
<g id="a_node2"><a xlink:href="TAYLOR_SERIES.html" xlink:title=" One dimensional Taylor Series " target="_top">
<path fill="none" stroke="black" d="M180.5,-180C180.5,-180 11.5,-180 11.5,-180 5.5,-180 -0.5,-174 -0.5,-168 -0.5,-168 -0.5,-156 -0.5,-156 -0.5,-150 5.5,-144 11.5,-144 11.5,-144 180.5,-144 180.5,-144 186.5,-144 192.5,-150 192.5,-156 192.5,-156 192.5,-168 192.5,-168 192.5,-174 186.5,-180 180.5,-180"/>
<text text-anchor="start" x="7" y="-158.3" font-family="Times,serif" font-size="14.00"> One dimensional Taylor Series </text>
</a>
</g>
</g>
<!-- TAYLOR_SERIES&#45;&gt;LHOPITALS_RULE -->
<g id="edge1" class="edge"><title>TAYLOR_SERIES&#45;&gt;LHOPITALS_RULE</title>
<path fill="none" stroke="black" d="M96,-143.697C96,-135.983 96,-126.712 96,-118.112"/>
<polygon fill="black" stroke="black" points="99.5001,-118.104 96,-108.104 92.5001,-118.104 99.5001,-118.104"/>
</g>
</g>
</svg>
