<?xml version="1.0" encoding="UTF-8" standalone="no"?>
<!DOCTYPE svg PUBLIC "-//W3C//DTD SVG 1.1//EN"
 "http://www.w3.org/Graphics/SVG/1.1/DTD/svg11.dtd">
<!-- Generated by graphviz version 2.28.0 (20110509.1545)
 -->
<!-- Title: _anonymous_0 Pages: 1 -->
<svg width="196pt" height="188pt"
 viewBox="0.00 0.00 196.00 188.00" xmlns="http://www.w3.org/2000/svg" xmlns:xlink="http://www.w3.org/1999/xlink">
<g id="graph1" class="graph" transform="scale(1 1) rotate(0) translate(4 184)">
<title>_anonymous_0</title>
<!-- LHOPITALS_RULE -->
<g id="node1" class="node"><title>LHOPITALS_RULE</title>
<a xlink:href="LHOPITALS_RULE.html" xlink:title="l&#39;Hopital&#39;s Rule" target="_top">
<polyline fill="none" stroke="blue" stroke-width="2" points="133.25,-108 54.75,-108 "/>
<path fill="none" stroke="blue" stroke-width="2" d="M54.75,-108C48.75,-108 42.75,-102 42.75,-96"/>
<polyline fill="none" stroke="blue" stroke-width="2" points="42.75,-96 42.75,-84 "/>
<path fill="none" stroke="blue" stroke-width="2" d="M42.75,-84C42.75,-78 48.75,-72 54.75,-72"/>
<polyline fill="none" stroke="blue" stroke-width="2" points="54.75,-72 133.25,-72 "/>
<path fill="none" stroke="blue" stroke-width="2" d="M133.25,-72C139.25,-72 145.25,-78 145.25,-84"/>
<polyline fill="none" stroke="blue" stroke-width="2" points="145.25,-84 145.25,-96 "/>
<path fill="none" stroke="blue" stroke-width="2" d="M145.25,-96C145.25,-102 139.25,-108 133.25,-108"/>
<text text-anchor="start" x="51" y="-84.5" font-family="Times,serif" font-size="14.00">l&#39;Hopital&#39;s Rule</text>
</a>
</g>
<!-- GAMBLERS_RUIN -->
<g id="node2" class="node"><title>GAMBLERS_RUIN</title>
<a xlink:href="GAMBLERS_RUIN.html" xlink:title="Gamblers ruin" target="_top">
<polyline fill="none" stroke="black" points="130.25,-36 57.75,-36 "/>
<path fill="none" stroke="black" d="M57.75,-36C51.75,-36 45.75,-30 45.75,-24"/>
<polyline fill="none" stroke="black" points="45.75,-24 45.75,-12 "/>
<path fill="none" stroke="black" d="M45.75,-12C45.75,-6 51.75,-0 57.75,-0"/>
<polyline fill="none" stroke="black" points="57.75,-0 130.25,-0 "/>
<path fill="none" stroke="black" d="M130.25,-0C136.25,-0 142.25,-6 142.25,-12"/>
<polyline fill="none" stroke="black" points="142.25,-12 142.25,-24 "/>
<path fill="none" stroke="black" d="M142.25,-24C142.25,-30 136.25,-36 130.25,-36"/>
<text text-anchor="start" x="54" y="-12.5" font-family="Times,serif" font-size="14.00">Gamblers ruin</text>
</a>
</g>
<!-- LHOPITALS_RULE&#45;&gt;GAMBLERS_RUIN -->
<g id="edge2" class="edge"><title>LHOPITALS_RULE&#45;&gt;GAMBLERS_RUIN</title>
<path fill="none" stroke="black" d="M94,-71.6966C94,-63.9827 94,-54.7125 94,-46.1124"/>
<polygon fill="black" stroke="black" points="97.5001,-46.1043 94,-36.1043 90.5001,-46.1044 97.5001,-46.1043"/>
</g>
<!-- TAYLOR_SERIES -->
<g id="node4" class="node"><title>TAYLOR_SERIES</title>
<a xlink:href="TAYLOR_SERIES.html" xlink:title="One dimensional Taylor Series" target="_top">
<polyline fill="none" stroke="black" points="176.25,-180 11.75,-180 "/>
<path fill="none" stroke="black" d="M11.75,-180C5.75,-180 -0.25,-174 -0.25,-168"/>
<polyline fill="none" stroke="black" points="-0.25,-168 -0.25,-156 "/>
<path fill="none" stroke="black" d="M-0.25,-156C-0.25,-150 5.75,-144 11.75,-144"/>
<polyline fill="none" stroke="black" points="11.75,-144 176.25,-144 "/>
<path fill="none" stroke="black" d="M176.25,-144C182.25,-144 188.25,-150 188.25,-156"/>
<polyline fill="none" stroke="black" points="188.25,-156 188.25,-168 "/>
<path fill="none" stroke="black" d="M188.25,-168C188.25,-174 182.25,-180 176.25,-180"/>
<text text-anchor="start" x="8" y="-156.5" font-family="Times,serif" font-size="14.00">One dimensional Taylor Series</text>
</a>
</g>
<!-- TAYLOR_SERIES&#45;&gt;LHOPITALS_RULE -->
<g id="edge4" class="edge"><title>TAYLOR_SERIES&#45;&gt;LHOPITALS_RULE</title>
<path fill="none" stroke="black" d="M94,-143.697C94,-135.983 94,-126.712 94,-118.112"/>
<polygon fill="black" stroke="black" points="97.5001,-118.104 94,-108.104 90.5001,-118.104 97.5001,-118.104"/>
</g>
</g>
</svg>
