<?xml version="1.0" encoding="UTF-8" standalone="no"?>
<!DOCTYPE svg PUBLIC "-//W3C//DTD SVG 1.1//EN"
 "http://www.w3.org/Graphics/SVG/1.1/DTD/svg11.dtd">
<!-- Generated by graphviz version 2.26.3 (20100126.1600)
 -->
<!-- Title: _anonymous_0 Pages: 1 -->
<svg width="383pt" height="188pt"
 viewBox="0.00 0.00 383.07 188.00" xmlns="http://www.w3.org/2000/svg" xmlns:xlink="http://www.w3.org/1999/xlink">
<g id="graph1" class="graph" transform="scale(1 1) rotate(0) translate(4 184)">
<title>_anonymous_0</title>
<!-- LIMITS -->
<g id="node1" class="node"><title>LIMITS</title>
<a xlink:href="LIMITS.html" xlink:title="Limit of a function" target="_top">
<polyline fill="none" stroke="blue" stroke-width="2" points="360,-180 242,-180 "/>
<path fill="none" stroke="blue" stroke-width="2" d="M242,-180C236,-180 230,-174 230,-168"/>
<polyline fill="none" stroke="blue" stroke-width="2" points="230,-168 230,-156 "/>
<path fill="none" stroke="blue" stroke-width="2" d="M230,-156C230,-150 236,-144 242,-144"/>
<polyline fill="none" stroke="blue" stroke-width="2" points="242,-144 360,-144 "/>
<path fill="none" stroke="blue" stroke-width="2" d="M360,-144C366,-144 372,-150 372,-156"/>
<polyline fill="none" stroke="blue" stroke-width="2" points="372,-156 372,-168 "/>
<path fill="none" stroke="blue" stroke-width="2" d="M372,-168C372,-174 366,-180 360,-180"/>
<text text-anchor="start" x="238" y="-159.233" font-family="Times Roman,serif" font-size="14.00">Limit of a function</text>
</a>
</g>
<!-- TAYLOR_SERIES -->
<g id="node2" class="node"><title>TAYLOR_SERIES</title>
<a xlink:href="TAYLOR_SERIES.html" xlink:title="One dimensional Taylor Series" target="_top">
<polyline fill="none" stroke="black" points="212,-108 12,-108 "/>
<path fill="none" stroke="black" d="M12,-108C6,-108 8.28967e-14,-102 6.63173e-14,-96"/>
<polyline fill="none" stroke="black" points="6.63173e-14,-96 3.31587e-14,-84 "/>
<path fill="none" stroke="black" d="M3.31587e-14,-84C1.65793e-14,-78 6,-72 12,-72"/>
<polyline fill="none" stroke="black" points="12,-72 212,-72 "/>
<path fill="none" stroke="black" d="M212,-72C218,-72 224,-78 224,-84"/>
<polyline fill="none" stroke="black" points="224,-84 224,-96 "/>
<path fill="none" stroke="black" d="M224,-96C224,-102 218,-108 212,-108"/>
<text text-anchor="start" x="8" y="-87.2333" font-family="Times Roman,serif" font-size="14.00">One dimensional Taylor Series</text>
</a>
</g>
<!-- LIMITS&#45;&gt;TAYLOR_SERIES -->
<g id="edge2" class="edge"><title>LIMITS&#45;&gt;TAYLOR_SERIES</title>
<path fill="none" stroke="black" d="M253.307,-143.831C227.693,-134.073 195.94,-121.977 169.026,-111.724"/>
<polygon fill="black" stroke="black" points="169.941,-108.327 159.35,-108.038 167.449,-114.869 169.941,-108.327"/>
</g>
<!-- DEFINITION_OF_DERIVATIVE -->
<g id="node4" class="node"><title>DEFINITION_OF_DERIVATIVE</title>
<a xlink:href="DEFINITION_OF_DERIVATIVE.html" xlink:title="Differentiation" target="_top">
<polyline fill="none" stroke="black" points="348,-108 254,-108 "/>
<path fill="none" stroke="black" d="M254,-108C248,-108 242,-102 242,-96"/>
<polyline fill="none" stroke="black" points="242,-96 242,-84 "/>
<path fill="none" stroke="black" d="M242,-84C242,-78 248,-72 254,-72"/>
<polyline fill="none" stroke="black" points="254,-72 348,-72 "/>
<path fill="none" stroke="black" d="M348,-72C354,-72 360,-78 360,-84"/>
<polyline fill="none" stroke="black" points="360,-84 360,-96 "/>
<path fill="none" stroke="black" d="M360,-96C360,-102 354,-108 348,-108"/>
<text text-anchor="start" x="250" y="-87.2333" font-family="Times Roman,serif" font-size="14.00">Differentiation</text>
</a>
</g>
<!-- LIMITS&#45;&gt;DEFINITION_OF_DERIVATIVE -->
<g id="edge4" class="edge"><title>LIMITS&#45;&gt;DEFINITION_OF_DERIVATIVE</title>
<path fill="none" stroke="black" d="M301,-143.831C301,-136.131 301,-126.974 301,-118.417"/>
<polygon fill="black" stroke="black" points="304.5,-118.413 301,-108.413 297.5,-118.413 304.5,-118.413"/>
</g>
<!-- INTRODUCTION_TO_CONTINUITY -->
<g id="node6" class="node"><title>INTRODUCTION_TO_CONTINUITY</title>
<a xlink:href="INTRODUCTION_TO_CONTINUITY.html" xlink:title="Introduction to continuity" target="_top">
<polyline fill="none" stroke="black" points="335,-36 165,-36 "/>
<path fill="none" stroke="black" d="M165,-36C159,-36 153,-30 153,-24"/>
<polyline fill="none" stroke="black" points="153,-24 153,-12 "/>
<path fill="none" stroke="black" d="M153,-12C153,-6 159,-1.73241e-14 165,-1.68845e-14"/>
<polyline fill="none" stroke="black" points="165,-1.68845e-14 335,-4.43174e-15 "/>
<path fill="none" stroke="black" d="M335,-4.43174e-15C341,-3.99222e-15 347,-6 347,-12"/>
<polyline fill="none" stroke="black" points="347,-12 347,-24 "/>
<path fill="none" stroke="black" d="M347,-24C347,-30 341,-36 335,-36"/>
<text text-anchor="start" x="161" y="-15.2333" font-family="Times Roman,serif" font-size="14.00">Introduction to continuity</text>
</a>
</g>
<!-- LIMITS&#45;&gt;INTRODUCTION_TO_CONTINUITY -->
<g id="edge6" class="edge"><title>LIMITS&#45;&gt;INTRODUCTION_TO_CONTINUITY</title>
<path fill="none" stroke="black" d="M335.089,-143.914C348.221,-135.003 361.79,-122.933 369,-108 375.957,-93.5916 377.666,-85.4496 369,-72 360.248,-58.4179 347.156,-48.2135 332.816,-40.5587"/>
<polygon fill="black" stroke="black" points="334.273,-37.375 323.753,-36.1145 331.191,-43.66 334.273,-37.375"/>
</g>
<!-- TAYLOR_SERIES&#45;&gt;INTRODUCTION_TO_CONTINUITY -->
</g>
</svg>
