<?xml version="1.0" encoding="UTF-8" standalone="no"?>
<!DOCTYPE svg PUBLIC "-//W3C//DTD SVG 1.1//EN"
 "http://www.w3.org/Graphics/SVG/1.1/DTD/svg11.dtd">
<!-- Generated by graphviz version 2.36.0 (20140111.2315)
 -->
<!-- Title: %3 Pages: 1 -->
<svg width="399pt" height="188pt"
 viewBox="0.00 0.00 398.61 188.00" xmlns="http://www.w3.org/2000/svg" xmlns:xlink="http://www.w3.org/1999/xlink">
<g id="graph0" class="graph" transform="scale(1 1) rotate(0) translate(4 184)">
<title>%3</title>
<!-- LIMITS -->
<g id="node1" class="node"><title>LIMITS</title>
<g id="a_node1"><a xlink:href="LIMITS.html" xlink:title=" Limit of a function " target="_top">
<path fill="none" stroke="blue" stroke-width="2" d="M331,-180C331,-180 227,-180 227,-180 221,-180 215,-174 215,-168 215,-168 215,-156 215,-156 215,-150 221,-144 227,-144 227,-144 331,-144 331,-144 337,-144 343,-150 343,-156 343,-156 343,-168 343,-168 343,-174 337,-180 331,-180"/>
<text text-anchor="start" x="223" y="-158.3" font-family="Times,serif" font-size="14.00"> Limit of a function </text>
</a>
</g>
</g>
<!-- INTRODUCTION_TO_CONTINUITY -->
<g id="node2" class="node"><title>INTRODUCTION_TO_CONTINUITY</title>
<g id="a_node2"><a xlink:href="INTRODUCTION_TO_CONTINUITY.html" xlink:title=" Introduction to continuity " target="_top">
<path fill="none" stroke="black" d="M152,-108C152,-108 12,-108 12,-108 6,-108 0,-102 0,-96 0,-96 0,-84 0,-84 0,-78 6,-72 12,-72 12,-72 152,-72 152,-72 158,-72 164,-78 164,-84 164,-84 164,-96 164,-96 164,-102 158,-108 152,-108"/>
<text text-anchor="start" x="8" y="-86.3" font-family="Times,serif" font-size="14.00"> Introduction to continuity </text>
</a>
</g>
</g>
<!-- LIMITS&#45;&gt;INTRODUCTION_TO_CONTINUITY -->
<g id="edge1" class="edge"><title>LIMITS&#45;&gt;INTRODUCTION_TO_CONTINUITY</title>
<path fill="none" stroke="black" d="M231.06,-143.966C203.535,-134.185 168.783,-121.836 139.759,-111.524"/>
<polygon fill="black" stroke="black" points="140.749,-108.161 130.155,-108.111 138.406,-114.757 140.749,-108.161"/>
</g>
<!-- TAYLOR_SERIES -->
<g id="node3" class="node"><title>TAYLOR_SERIES</title>
<g id="a_node3"><a xlink:href="TAYLOR_SERIES.html" xlink:title=" One dimensional Taylor Series " target="_top">
<path fill="none" stroke="black" d="M363.5,-108C363.5,-108 194.5,-108 194.5,-108 188.5,-108 182.5,-102 182.5,-96 182.5,-96 182.5,-84 182.5,-84 182.5,-78 188.5,-72 194.5,-72 194.5,-72 363.5,-72 363.5,-72 369.5,-72 375.5,-78 375.5,-84 375.5,-84 375.5,-96 375.5,-96 375.5,-102 369.5,-108 363.5,-108"/>
<text text-anchor="start" x="190" y="-86.3" font-family="Times,serif" font-size="14.00"> One dimensional Taylor Series </text>
</a>
</g>
</g>
<!-- LIMITS&#45;&gt;TAYLOR_SERIES -->
<g id="edge2" class="edge"><title>LIMITS&#45;&gt;TAYLOR_SERIES</title>
<path fill="none" stroke="black" d="M279,-143.697C279,-135.983 279,-126.712 279,-118.112"/>
<polygon fill="black" stroke="black" points="282.5,-118.104 279,-108.104 275.5,-118.104 282.5,-118.104"/>
</g>
<!-- DEFINITION_OF_DERIVATIVE -->
<g id="node4" class="node"><title>DEFINITION_OF_DERIVATIVE</title>
<g id="a_node4"><a xlink:href="DEFINITION_OF_DERIVATIVE.html" xlink:title=" Differentiation " target="_top">
<path fill="none" stroke="black" d="M283,-36C283,-36 203,-36 203,-36 197,-36 191,-30 191,-24 191,-24 191,-12 191,-12 191,-6 197,-0 203,-0 203,-0 283,-0 283,-0 289,-0 295,-6 295,-12 295,-12 295,-24 295,-24 295,-30 289,-36 283,-36"/>
<text text-anchor="start" x="199" y="-14.3" font-family="Times,serif" font-size="14.00"> Differentiation </text>
</a>
</g>
</g>
<!-- LIMITS&#45;&gt;DEFINITION_OF_DERIVATIVE -->
<g id="edge3" class="edge"><title>LIMITS&#45;&gt;DEFINITION_OF_DERIVATIVE</title>
<path fill="none" stroke="black" d="M339.565,-143.956C356.932,-135.957 373.886,-124.434 384,-108 392.386,-94.3736 393.108,-85.1543 384,-72 366.222,-46.3244 334.347,-33.0701 305.397,-26.2357"/>
<polygon fill="black" stroke="black" points="305.817,-22.7465 295.306,-24.0761 304.352,-29.5915 305.817,-22.7465"/>
</g>
<!-- INTRODUCTION_TO_CONTINUITY&#45;&gt;DEFINITION_OF_DERIVATIVE -->
</g>
</svg>
