<?xml version="1.0" encoding="UTF-8" standalone="no"?>
<!DOCTYPE svg PUBLIC "-//W3C//DTD SVG 1.1//EN"
 "http://www.w3.org/Graphics/SVG/1.1/DTD/svg11.dtd">
<!-- Generated by graphviz version 2.28.0 (20110509.1545)
 -->
<!-- Title: _anonymous_0 Pages: 1 -->
<svg width="300pt" height="188pt"
 viewBox="0.00 0.00 300.22 188.00" xmlns="http://www.w3.org/2000/svg" xmlns:xlink="http://www.w3.org/1999/xlink">
<g id="graph1" class="graph" transform="scale(1 1) rotate(0) translate(4 184)">
<title>_anonymous_0</title>
<!-- LIMITS -->
<g id="node1" class="node"><title>LIMITS</title>
<a xlink:href="LIMITS.html" xlink:title="Limit of a function" target="_top">
<polyline fill="none" stroke="blue" stroke-width="2" points="246.25,-180 147.75,-180 "/>
<path fill="none" stroke="blue" stroke-width="2" d="M147.75,-180C141.75,-180 135.75,-174 135.75,-168"/>
<polyline fill="none" stroke="blue" stroke-width="2" points="135.75,-168 135.75,-156 "/>
<path fill="none" stroke="blue" stroke-width="2" d="M135.75,-156C135.75,-150 141.75,-144 147.75,-144"/>
<polyline fill="none" stroke="blue" stroke-width="2" points="147.75,-144 246.25,-144 "/>
<path fill="none" stroke="blue" stroke-width="2" d="M246.25,-144C252.25,-144 258.25,-150 258.25,-156"/>
<polyline fill="none" stroke="blue" stroke-width="2" points="258.25,-156 258.25,-168 "/>
<path fill="none" stroke="blue" stroke-width="2" d="M258.25,-168C258.25,-174 252.25,-180 246.25,-180"/>
<text text-anchor="start" x="144" y="-156.5" font-family="Times,serif" font-size="14.00">Limit of a function</text>
</a>
</g>
<!-- DEFINITION_OF_DERIVATIVE -->
<g id="node2" class="node"><title>DEFINITION_OF_DERIVATIVE</title>
<a xlink:href="DEFINITION_OF_DERIVATIVE.html" xlink:title="Differentiation" target="_top">
<polyline fill="none" stroke="black" points="86.25,-108 11.75,-108 "/>
<path fill="none" stroke="black" d="M11.75,-108C5.75,-108 -0.25,-102 -0.25,-96"/>
<polyline fill="none" stroke="black" points="-0.25,-96 -0.25,-84 "/>
<path fill="none" stroke="black" d="M-0.25,-84C-0.25,-78 5.75,-72 11.75,-72"/>
<polyline fill="none" stroke="black" points="11.75,-72 86.25,-72 "/>
<path fill="none" stroke="black" d="M86.25,-72C92.25,-72 98.25,-78 98.25,-84"/>
<polyline fill="none" stroke="black" points="98.25,-84 98.25,-96 "/>
<path fill="none" stroke="black" d="M98.25,-96C98.25,-102 92.25,-108 86.25,-108"/>
<text text-anchor="start" x="8" y="-84.5" font-family="Times,serif" font-size="14.00">Differentiation</text>
</a>
</g>
<!-- LIMITS&#45;&gt;DEFINITION_OF_DERIVATIVE -->
<g id="edge2" class="edge"><title>LIMITS&#45;&gt;DEFINITION_OF_DERIVATIVE</title>
<path fill="none" stroke="black" d="M160.795,-143.876C140.742,-134.392 115.628,-122.513 94.2858,-112.419"/>
<polygon fill="black" stroke="black" points="95.6237,-109.18 85.0873,-108.068 92.6307,-115.508 95.6237,-109.18"/>
</g>
<!-- INTRODUCTION_TO_CONTINUITY -->
<g id="node4" class="node"><title>INTRODUCTION_TO_CONTINUITY</title>
<a xlink:href="INTRODUCTION_TO_CONTINUITY.html" xlink:title="Introduction to continuity" target="_top">
<polyline fill="none" stroke="black" points="265,-108 129,-108 "/>
<path fill="none" stroke="black" d="M129,-108C123,-108 117,-102 117,-96"/>
<polyline fill="none" stroke="black" points="117,-96 117,-84 "/>
<path fill="none" stroke="black" d="M117,-84C117,-78 123,-72 129,-72"/>
<polyline fill="none" stroke="black" points="129,-72 265,-72 "/>
<path fill="none" stroke="black" d="M265,-72C271,-72 277,-78 277,-84"/>
<polyline fill="none" stroke="black" points="277,-84 277,-96 "/>
<path fill="none" stroke="black" d="M277,-96C277,-102 271,-108 265,-108"/>
<text text-anchor="start" x="125.5" y="-84.5" font-family="Times,serif" font-size="14.00">Introduction to continuity</text>
</a>
</g>
<!-- LIMITS&#45;&gt;INTRODUCTION_TO_CONTINUITY -->
<g id="edge4" class="edge"><title>LIMITS&#45;&gt;INTRODUCTION_TO_CONTINUITY</title>
<path fill="none" stroke="black" d="M197,-143.697C197,-135.983 197,-126.712 197,-118.112"/>
<polygon fill="black" stroke="black" points="200.5,-118.104 197,-108.104 193.5,-118.104 200.5,-118.104"/>
</g>
<!-- TAYLOR_SERIES -->
<g id="node6" class="node"><title>TAYLOR_SERIES</title>
<a xlink:href="TAYLOR_SERIES.html" xlink:title="One dimensional Taylor Series" target="_top">
<polyline fill="none" stroke="black" points="259.25,-36 94.75,-36 "/>
<path fill="none" stroke="black" d="M94.75,-36C88.75,-36 82.75,-30 82.75,-24"/>
<polyline fill="none" stroke="black" points="82.75,-24 82.75,-12 "/>
<path fill="none" stroke="black" d="M82.75,-12C82.75,-6 88.75,-0 94.75,-0"/>
<polyline fill="none" stroke="black" points="94.75,-0 259.25,-0 "/>
<path fill="none" stroke="black" d="M259.25,-0C265.25,-0 271.25,-6 271.25,-12"/>
<polyline fill="none" stroke="black" points="271.25,-12 271.25,-24 "/>
<path fill="none" stroke="black" d="M271.25,-24C271.25,-30 265.25,-36 259.25,-36"/>
<text text-anchor="start" x="91" y="-12.5" font-family="Times,serif" font-size="14.00">One dimensional Taylor Series</text>
</a>
</g>
<!-- LIMITS&#45;&gt;TAYLOR_SERIES -->
<g id="edge6" class="edge"><title>LIMITS&#45;&gt;TAYLOR_SERIES</title>
<path fill="none" stroke="black" d="M245.032,-143.85C260.966,-135.601 276.936,-123.947 286,-108 293.906,-94.0899 294.487,-85.5636 286,-72 277.45,-58.3359 264.258,-48.1036 249.966,-40.4729"/>
<polygon fill="black" stroke="black" points="251.477,-37.3154 240.958,-36.0505 248.392,-43.5991 251.477,-37.3154"/>
</g>
<!-- DEFINITION_OF_DERIVATIVE&#45;&gt;TAYLOR_SERIES -->
</g>
</svg>
