<?xml version="1.0" encoding="UTF-8" standalone="no"?>
<!DOCTYPE svg PUBLIC "-//W3C//DTD SVG 1.1//EN"
 "http://www.w3.org/Graphics/SVG/1.1/DTD/svg11.dtd">
<!-- Generated by graphviz version 2.26.3 (20100126.1600)
 -->
<!-- Title: _anonymous_0 Pages: 1 -->
<svg width="480pt" height="188pt"
 viewBox="0.00 0.00 479.90 188.00" xmlns="http://www.w3.org/2000/svg" xmlns:xlink="http://www.w3.org/1999/xlink">
<g id="graph1" class="graph" transform="scale(1 1) rotate(0) translate(4 184)">
<title>_anonymous_0</title>
<!-- LIMITS -->
<g id="node1" class="node"><title>LIMITS</title>
<a xlink:href="LIMITS.html" xlink:title=" Limit of a function " target="_top">
<polyline fill="none" stroke="blue" stroke-width="2" points="403,-180 275,-180 "/>
<path fill="none" stroke="blue" stroke-width="2" d="M275,-180C269,-180 263,-174 263,-168"/>
<polyline fill="none" stroke="blue" stroke-width="2" points="263,-168 263,-156 "/>
<path fill="none" stroke="blue" stroke-width="2" d="M263,-156C263,-150 269,-144 275,-144"/>
<polyline fill="none" stroke="blue" stroke-width="2" points="275,-144 403,-144 "/>
<path fill="none" stroke="blue" stroke-width="2" d="M403,-144C409,-144 415,-150 415,-156"/>
<polyline fill="none" stroke="blue" stroke-width="2" points="415,-156 415,-168 "/>
<path fill="none" stroke="blue" stroke-width="2" d="M415,-168C415,-174 409,-180 403,-180"/>
<text text-anchor="start" x="271.5" y="-159.233" font-family="Times Roman,serif" font-size="14.00"> Limit of a function </text>
</a>
</g>
<!-- INTRODUCTION_TO_CONTINUITY -->
<g id="node2" class="node"><title>INTRODUCTION_TO_CONTINUITY</title>
<a xlink:href="INTRODUCTION_TO_CONTINUITY.html" xlink:title=" Introduction to continuity " target="_top">
<polyline fill="none" stroke="black" points="192,-108 12,-108 "/>
<path fill="none" stroke="black" d="M12,-108C6,-108 8.28967e-14,-102 6.63173e-14,-96"/>
<polyline fill="none" stroke="black" points="6.63173e-14,-96 3.31587e-14,-84 "/>
<path fill="none" stroke="black" d="M3.31587e-14,-84C1.65793e-14,-78 6,-72 12,-72"/>
<polyline fill="none" stroke="black" points="12,-72 192,-72 "/>
<path fill="none" stroke="black" d="M192,-72C198,-72 204,-78 204,-84"/>
<polyline fill="none" stroke="black" points="204,-84 204,-96 "/>
<path fill="none" stroke="black" d="M204,-96C204,-102 198,-108 192,-108"/>
<text text-anchor="start" x="8.5" y="-87.2333" font-family="Times Roman,serif" font-size="14.00"> Introduction to continuity </text>
</a>
</g>
<!-- LIMITS&#45;&gt;INTRODUCTION_TO_CONTINUITY -->
<g id="edge2" class="edge"><title>LIMITS&#45;&gt;INTRODUCTION_TO_CONTINUITY</title>
<path fill="none" stroke="black" d="M279.501,-143.924C246.679,-133.953 205.749,-121.519 171.467,-111.104"/>
<polygon fill="black" stroke="black" points="172.109,-107.641 161.524,-108.083 170.074,-114.339 172.109,-107.641"/>
</g>
<!-- TAYLOR_SERIES -->
<g id="node4" class="node"><title>TAYLOR_SERIES</title>
<a xlink:href="TAYLOR_SERIES.html" xlink:title=" One dimensional Taylor Series " target="_top">
<polyline fill="none" stroke="black" points="444,-108 234,-108 "/>
<path fill="none" stroke="black" d="M234,-108C228,-108 222,-102 222,-96"/>
<polyline fill="none" stroke="black" points="222,-96 222,-84 "/>
<path fill="none" stroke="black" d="M222,-84C222,-78 228,-72 234,-72"/>
<polyline fill="none" stroke="black" points="234,-72 444,-72 "/>
<path fill="none" stroke="black" d="M444,-72C450,-72 456,-78 456,-84"/>
<polyline fill="none" stroke="black" points="456,-84 456,-96 "/>
<path fill="none" stroke="black" d="M456,-96C456,-102 450,-108 444,-108"/>
<text text-anchor="start" x="230.5" y="-87.2333" font-family="Times Roman,serif" font-size="14.00"> One dimensional Taylor Series </text>
</a>
</g>
<!-- LIMITS&#45;&gt;TAYLOR_SERIES -->
<g id="edge4" class="edge"><title>LIMITS&#45;&gt;TAYLOR_SERIES</title>
<path fill="none" stroke="black" d="M339,-143.831C339,-136.131 339,-126.974 339,-118.417"/>
<polygon fill="black" stroke="black" points="342.5,-118.413 339,-108.413 335.5,-118.413 342.5,-118.413"/>
</g>
<!-- DEFINITION_OF_DERIVATIVE -->
<g id="node6" class="node"><title>DEFINITION_OF_DERIVATIVE</title>
<a xlink:href="DEFINITION_OF_DERIVATIVE.html" xlink:title=" Differentiation " target="_top">
<polyline fill="none" stroke="black" points="345,-36 241,-36 "/>
<path fill="none" stroke="black" d="M241,-36C235,-36 229,-30 229,-24"/>
<polyline fill="none" stroke="black" points="229,-24 229,-12 "/>
<path fill="none" stroke="black" d="M229,-12C229,-6 235,-1.70974e-14 241,-1.64313e-14"/>
<polyline fill="none" stroke="black" points="241,-1.64313e-14 345,-4.88498e-15 "/>
<path fill="none" stroke="black" d="M345,-4.88498e-15C351,-4.21885e-15 357,-6 357,-12"/>
<polyline fill="none" stroke="black" points="357,-12 357,-24 "/>
<path fill="none" stroke="black" d="M357,-24C357,-30 351,-36 345,-36"/>
<text text-anchor="start" x="237.5" y="-15.2333" font-family="Times Roman,serif" font-size="14.00"> Differentiation </text>
</a>
</g>
<!-- LIMITS&#45;&gt;DEFINITION_OF_DERIVATIVE -->
<g id="edge6" class="edge"><title>LIMITS&#45;&gt;DEFINITION_OF_DERIVATIVE</title>
<path fill="none" stroke="black" d="M415.016,-145.617C434.558,-137.598 453.34,-125.683 465,-108 473.808,-94.6425 474.469,-84.8973 465,-72 452.851,-55.4519 407.987,-41.6836 367.128,-32.1915"/>
<polygon fill="black" stroke="black" points="367.649,-28.721 357.123,-29.9316 366.106,-35.549 367.649,-28.721"/>
</g>
<!-- INTRODUCTION_TO_CONTINUITY&#45;&gt;DEFINITION_OF_DERIVATIVE -->
</g>
</svg>
