<?xml version="1.0" encoding="UTF-8" standalone="no"?>
<!DOCTYPE svg PUBLIC "-//W3C//DTD SVG 1.1//EN"
 "http://www.w3.org/Graphics/SVG/1.1/DTD/svg11.dtd">
<!-- Generated by graphviz version 2.26.3 (20100126.1600)
 -->
<!-- Title: _anonymous_0 Pages: 1 -->
<svg width="354pt" height="188pt"
 viewBox="0.00 0.00 353.54 188.00" xmlns="http://www.w3.org/2000/svg" xmlns:xlink="http://www.w3.org/1999/xlink">
<g id="graph1" class="graph" transform="scale(1 1) rotate(0) translate(4 184)">
<title>_anonymous_0</title>
<!-- LIMITS -->
<g id="node1" class="node"><title>LIMITS</title>
<a xlink:href="LIMITS.html" xlink:title="Limit of a function" target="_top">
<polyline fill="none" stroke="blue" stroke-width="2" points="292,-180 174,-180 "/>
<path fill="none" stroke="blue" stroke-width="2" d="M174,-180C168,-180 162,-174 162,-168"/>
<polyline fill="none" stroke="blue" stroke-width="2" points="162,-168 162,-156 "/>
<path fill="none" stroke="blue" stroke-width="2" d="M162,-156C162,-150 168,-144 174,-144"/>
<polyline fill="none" stroke="blue" stroke-width="2" points="174,-144 292,-144 "/>
<path fill="none" stroke="blue" stroke-width="2" d="M292,-144C298,-144 304,-150 304,-156"/>
<polyline fill="none" stroke="blue" stroke-width="2" points="304,-156 304,-168 "/>
<path fill="none" stroke="blue" stroke-width="2" d="M304,-168C304,-174 298,-180 292,-180"/>
<text text-anchor="start" x="170" y="-159.233" font-family="Times Roman,serif" font-size="14.00">Limit of a function</text>
</a>
</g>
<!-- DEFINITION_OF_DERIVATIVE -->
<g id="node2" class="node"><title>DEFINITION_OF_DERIVATIVE</title>
<a xlink:href="DEFINITION_OF_DERIVATIVE.html" xlink:title="Differentiation" target="_top">
<polyline fill="none" stroke="black" points="106,-108 12,-108 "/>
<path fill="none" stroke="black" d="M12,-108C6,-108 4.14483e-14,-102 3.31587e-14,-96"/>
<polyline fill="none" stroke="black" points="3.31587e-14,-96 1.65793e-14,-84 "/>
<path fill="none" stroke="black" d="M1.65793e-14,-84C8.28967e-15,-78 6,-72 12,-72"/>
<polyline fill="none" stroke="black" points="12,-72 106,-72 "/>
<path fill="none" stroke="black" d="M106,-72C112,-72 118,-78 118,-84"/>
<polyline fill="none" stroke="black" points="118,-84 118,-96 "/>
<path fill="none" stroke="black" d="M118,-96C118,-102 112,-108 106,-108"/>
<text text-anchor="start" x="8" y="-87.2333" font-family="Times Roman,serif" font-size="14.00">Differentiation</text>
</a>
</g>
<!-- LIMITS&#45;&gt;DEFINITION_OF_DERIVATIVE -->
<g id="edge2" class="edge"><title>LIMITS&#45;&gt;DEFINITION_OF_DERIVATIVE</title>
<path fill="none" stroke="black" d="M189.092,-143.831C165.718,-134.159 136.79,-122.189 112.153,-111.994"/>
<polygon fill="black" stroke="black" points="113.17,-108.628 102.592,-108.038 110.494,-115.096 113.17,-108.628"/>
</g>
<!-- INTRODUCTION_TO_CONTINUITY -->
<g id="node4" class="node"><title>INTRODUCTION_TO_CONTINUITY</title>
<a xlink:href="INTRODUCTION_TO_CONTINUITY.html" xlink:title="Introduction to continuity" target="_top">
<polyline fill="none" stroke="black" points="318,-108 148,-108 "/>
<path fill="none" stroke="black" d="M148,-108C142,-108 136,-102 136,-96"/>
<polyline fill="none" stroke="black" points="136,-96 136,-84 "/>
<path fill="none" stroke="black" d="M136,-84C136,-78 142,-72 148,-72"/>
<polyline fill="none" stroke="black" points="148,-72 318,-72 "/>
<path fill="none" stroke="black" d="M318,-72C324,-72 330,-78 330,-84"/>
<polyline fill="none" stroke="black" points="330,-84 330,-96 "/>
<path fill="none" stroke="black" d="M330,-96C330,-102 324,-108 318,-108"/>
<text text-anchor="start" x="144" y="-87.2333" font-family="Times Roman,serif" font-size="14.00">Introduction to continuity</text>
</a>
</g>
<!-- LIMITS&#45;&gt;INTRODUCTION_TO_CONTINUITY -->
<g id="edge4" class="edge"><title>LIMITS&#45;&gt;INTRODUCTION_TO_CONTINUITY</title>
<path fill="none" stroke="black" d="M233,-143.831C233,-136.131 233,-126.974 233,-118.417"/>
<polygon fill="black" stroke="black" points="236.5,-118.413 233,-108.413 229.5,-118.413 236.5,-118.413"/>
</g>
<!-- TAYLOR_SERIES -->
<g id="node6" class="node"><title>TAYLOR_SERIES</title>
<a xlink:href="TAYLOR_SERIES.html" xlink:title="One dimensional Taylor Series" target="_top">
<polyline fill="none" stroke="black" points="308,-36 108,-36 "/>
<path fill="none" stroke="black" d="M108,-36C102,-36 96,-30 96,-24"/>
<polyline fill="none" stroke="black" points="96,-24 96,-12 "/>
<path fill="none" stroke="black" d="M96,-12C96,-6 102,-1.73829e-14 108,-1.70023e-14"/>
<polyline fill="none" stroke="black" points="108,-1.70023e-14 308,-4.31401e-15 "/>
<path fill="none" stroke="black" d="M308,-4.31401e-15C314,-3.93336e-15 320,-6 320,-12"/>
<polyline fill="none" stroke="black" points="320,-12 320,-24 "/>
<path fill="none" stroke="black" d="M320,-24C320,-30 314,-36 308,-36"/>
<text text-anchor="start" x="104" y="-15.2333" font-family="Times Roman,serif" font-size="14.00">One dimensional Taylor Series</text>
</a>
</g>
<!-- LIMITS&#45;&gt;TAYLOR_SERIES -->
<g id="edge6" class="edge"><title>LIMITS&#45;&gt;TAYLOR_SERIES</title>
<path fill="none" stroke="black" d="M295.268,-143.988C312.41,-135.856 329.018,-124.289 339,-108 347.36,-94.3581 347.9,-85.2959 339,-72 329.878,-58.3725 316.623,-48.1805 302.007,-40.5589"/>
<polygon fill="black" stroke="black" points="303.287,-37.2916 292.755,-36.1379 300.269,-43.6075 303.287,-37.2916"/>
</g>
<!-- DEFINITION_OF_DERIVATIVE&#45;&gt;TAYLOR_SERIES -->
</g>
</svg>
