<?xml version="1.0" encoding="UTF-8" standalone="no"?>
<!DOCTYPE svg PUBLIC "-//W3C//DTD SVG 1.1//EN"
 "http://www.w3.org/Graphics/SVG/1.1/DTD/svg11.dtd">
<!-- Generated by graphviz version 2.36.0 (20140111.2315)
 -->
<!-- Title: %3 Pages: 1 -->
<svg width="309pt" height="188pt"
 viewBox="0.00 0.00 309.27 188.00" xmlns="http://www.w3.org/2000/svg" xmlns:xlink="http://www.w3.org/1999/xlink">
<g id="graph0" class="graph" transform="scale(1 1) rotate(0) translate(4 184)">
<title>%3</title>
<!-- LIMITS -->
<g id="node1" class="node"><title>LIMITS</title>
<g id="a_node1"><a xlink:href="LIMITS.html" xlink:title=" Limit of a function " target="_top">
<path fill="none" stroke="blue" stroke-width="2" d="M256,-180C256,-180 152,-180 152,-180 146,-180 140,-174 140,-168 140,-168 140,-156 140,-156 140,-150 146,-144 152,-144 152,-144 256,-144 256,-144 262,-144 268,-150 268,-156 268,-156 268,-168 268,-168 268,-174 262,-180 256,-180"/>
<text text-anchor="start" x="148" y="-158.3" font-family="Times,serif" font-size="14.00"> Limit of a function </text>
</a>
</g>
</g>
<!-- DEFINITION_OF_DERIVATIVE -->
<g id="node2" class="node"><title>DEFINITION_OF_DERIVATIVE</title>
<g id="a_node2"><a xlink:href="DEFINITION_OF_DERIVATIVE.html" xlink:title=" Differentiation " target="_top">
<path fill="none" stroke="black" d="M92,-108C92,-108 12,-108 12,-108 6,-108 0,-102 0,-96 0,-96 0,-84 0,-84 0,-78 6,-72 12,-72 12,-72 92,-72 92,-72 98,-72 104,-78 104,-84 104,-84 104,-96 104,-96 104,-102 98,-108 92,-108"/>
<text text-anchor="start" x="8" y="-86.3" font-family="Times,serif" font-size="14.00"> Differentiation </text>
</a>
</g>
</g>
<!-- LIMITS&#45;&gt;DEFINITION_OF_DERIVATIVE -->
<g id="edge1" class="edge"><title>LIMITS&#45;&gt;DEFINITION_OF_DERIVATIVE</title>
<path fill="none" stroke="black" d="M166.817,-143.876C146.13,-134.349 120.198,-122.407 98.2151,-112.283"/>
<polygon fill="black" stroke="black" points="99.6098,-109.072 89.0626,-108.068 96.6817,-115.43 99.6098,-109.072"/>
</g>
<!-- INTRODUCTION_TO_CONTINUITY -->
<g id="node3" class="node"><title>INTRODUCTION_TO_CONTINUITY</title>
<g id="a_node3"><a xlink:href="INTRODUCTION_TO_CONTINUITY.html" xlink:title=" Introduction to continuity " target="_top">
<path fill="none" stroke="black" d="M274,-108C274,-108 134,-108 134,-108 128,-108 122,-102 122,-96 122,-96 122,-84 122,-84 122,-78 128,-72 134,-72 134,-72 274,-72 274,-72 280,-72 286,-78 286,-84 286,-84 286,-96 286,-96 286,-102 280,-108 274,-108"/>
<text text-anchor="start" x="130" y="-86.3" font-family="Times,serif" font-size="14.00"> Introduction to continuity </text>
</a>
</g>
</g>
<!-- LIMITS&#45;&gt;INTRODUCTION_TO_CONTINUITY -->
<g id="edge2" class="edge"><title>LIMITS&#45;&gt;INTRODUCTION_TO_CONTINUITY</title>
<path fill="none" stroke="black" d="M204,-143.697C204,-135.983 204,-126.712 204,-118.112"/>
<polygon fill="black" stroke="black" points="207.5,-118.104 204,-108.104 200.5,-118.104 207.5,-118.104"/>
</g>
<!-- TAYLOR_SERIES -->
<g id="node4" class="node"><title>TAYLOR_SERIES</title>
<g id="a_node4"><a xlink:href="TAYLOR_SERIES.html" xlink:title=" One dimensional Taylor Series " target="_top">
<path fill="none" stroke="black" d="M267.5,-36C267.5,-36 98.5,-36 98.5,-36 92.5,-36 86.5,-30 86.5,-24 86.5,-24 86.5,-12 86.5,-12 86.5,-6 92.5,-0 98.5,-0 98.5,-0 267.5,-0 267.5,-0 273.5,-0 279.5,-6 279.5,-12 279.5,-12 279.5,-24 279.5,-24 279.5,-30 273.5,-36 267.5,-36"/>
<text text-anchor="start" x="94" y="-14.3" font-family="Times,serif" font-size="14.00"> One dimensional Taylor Series </text>
</a>
</g>
</g>
<!-- LIMITS&#45;&gt;TAYLOR_SERIES -->
<g id="edge3" class="edge"><title>LIMITS&#45;&gt;TAYLOR_SERIES</title>
<path fill="none" stroke="black" d="M253.562,-143.846C269.692,-135.636 285.798,-124.009 295,-108 302.974,-94.1284 303.559,-85.5185 295,-72 286.329,-58.3031 273.057,-48.0775 258.645,-40.4664"/>
<polygon fill="black" stroke="black" points="260.08,-37.2725 249.555,-36.0575 257.025,-43.5707 260.08,-37.2725"/>
</g>
<!-- DEFINITION_OF_DERIVATIVE&#45;&gt;TAYLOR_SERIES -->
</g>
</svg>
