<?xml version="1.0" encoding="UTF-8" standalone="no"?>
<!DOCTYPE svg PUBLIC "-//W3C//DTD SVG 1.1//EN"
 "http://www.w3.org/Graphics/SVG/1.1/DTD/svg11.dtd">
<!-- Generated by graphviz version 2.28.0 (20110509.1545)
 -->
<!-- Title: _anonymous_0 Pages: 1 -->
<svg width="285pt" height="116pt"
 viewBox="0.00 0.00 285.00 116.00" xmlns="http://www.w3.org/2000/svg" xmlns:xlink="http://www.w3.org/1999/xlink">
<g id="graph1" class="graph" transform="scale(1 1) rotate(0) translate(4 112)">
<title>_anonymous_0</title>
<!-- LIMITS -->
<g id="node1" class="node"><title>LIMITS</title>
<a xlink:href="LIMITS.html" xlink:title="Limit of a function" target="_top">
<polyline fill="none" stroke="blue" stroke-width="2" points="172.25,-108 73.75,-108 "/>
<path fill="none" stroke="blue" stroke-width="2" d="M73.75,-108C67.75,-108 61.75,-102 61.75,-96"/>
<polyline fill="none" stroke="blue" stroke-width="2" points="61.75,-96 61.75,-84 "/>
<path fill="none" stroke="blue" stroke-width="2" d="M61.75,-84C61.75,-78 67.75,-72 73.75,-72"/>
<polyline fill="none" stroke="blue" stroke-width="2" points="73.75,-72 172.25,-72 "/>
<path fill="none" stroke="blue" stroke-width="2" d="M172.25,-72C178.25,-72 184.25,-78 184.25,-84"/>
<polyline fill="none" stroke="blue" stroke-width="2" points="184.25,-84 184.25,-96 "/>
<path fill="none" stroke="blue" stroke-width="2" d="M184.25,-96C184.25,-102 178.25,-108 172.25,-108"/>
<text text-anchor="start" x="70" y="-84.5" font-family="Times,serif" font-size="14.00">Limit of a function</text>
</a>
</g>
<!-- DEFINITION_OF_DERIVATIVE -->
<g id="node2" class="node"><title>DEFINITION_OF_DERIVATIVE</title>
<a xlink:href="DEFINITION_OF_DERIVATIVE.html" xlink:title="Differentiation" target="_top">
<polyline fill="none" stroke="black" points="86.25,-36 11.75,-36 "/>
<path fill="none" stroke="black" d="M11.75,-36C5.75,-36 -0.25,-30 -0.25,-24"/>
<polyline fill="none" stroke="black" points="-0.25,-24 -0.25,-12 "/>
<path fill="none" stroke="black" d="M-0.25,-12C-0.25,-6 5.75,-0 11.75,-0"/>
<polyline fill="none" stroke="black" points="11.75,-0 86.25,-0 "/>
<path fill="none" stroke="black" d="M86.25,-0C92.25,-0 98.25,-6 98.25,-12"/>
<polyline fill="none" stroke="black" points="98.25,-12 98.25,-24 "/>
<path fill="none" stroke="black" d="M98.25,-24C98.25,-30 92.25,-36 86.25,-36"/>
<text text-anchor="start" x="8" y="-12.5" font-family="Times,serif" font-size="14.00">Differentiation</text>
</a>
</g>
<!-- LIMITS&#45;&gt;DEFINITION_OF_DERIVATIVE -->
<g id="edge2" class="edge"><title>LIMITS&#45;&gt;DEFINITION_OF_DERIVATIVE</title>
<path fill="none" stroke="black" d="M104.708,-71.6966C95.5674,-63.0503 84.3599,-52.4486 74.4,-43.027"/>
<polygon fill="black" stroke="black" points="76.7516,-40.4337 67.0817,-36.1043 71.9412,-45.519 76.7516,-40.4337"/>
</g>
<!-- INTRODUCTION_TO_CONTINUITY -->
<g id="node4" class="node"><title>INTRODUCTION_TO_CONTINUITY</title>
<a xlink:href="INTRODUCTION_TO_CONTINUITY.html" xlink:title="Introduction to continuity" target="_top">
<polyline fill="none" stroke="black" points="265,-36 129,-36 "/>
<path fill="none" stroke="black" d="M129,-36C123,-36 117,-30 117,-24"/>
<polyline fill="none" stroke="black" points="117,-24 117,-12 "/>
<path fill="none" stroke="black" d="M117,-12C117,-6 123,-0 129,-0"/>
<polyline fill="none" stroke="black" points="129,-0 265,-0 "/>
<path fill="none" stroke="black" d="M265,-0C271,-0 277,-6 277,-12"/>
<polyline fill="none" stroke="black" points="277,-12 277,-24 "/>
<path fill="none" stroke="black" d="M277,-24C277,-30 271,-36 265,-36"/>
<text text-anchor="start" x="125.5" y="-12.5" font-family="Times,serif" font-size="14.00">Introduction to continuity</text>
</a>
</g>
<!-- LIMITS&#45;&gt;INTRODUCTION_TO_CONTINUITY -->
<g id="edge4" class="edge"><title>LIMITS&#45;&gt;INTRODUCTION_TO_CONTINUITY</title>
<path fill="none" stroke="black" d="M141.292,-71.6966C150.433,-63.0503 161.64,-52.4486 171.6,-43.027"/>
<polygon fill="black" stroke="black" points="174.059,-45.519 178.918,-36.1043 169.248,-40.4337 174.059,-45.519"/>
</g>
</g>
</svg>
