<?xml version="1.0" encoding="UTF-8" standalone="no"?>
<!DOCTYPE svg PUBLIC "-//W3C//DTD SVG 1.1//EN"
 "http://www.w3.org/Graphics/SVG/1.1/DTD/svg11.dtd">
<!-- Generated by graphviz version 2.26.3 (20100126.1600)
 -->
<!-- Title: _anonymous_0 Pages: 1 -->
<svg width="384pt" height="188pt"
 viewBox="0.00 0.00 383.72 188.00" xmlns="http://www.w3.org/2000/svg" xmlns:xlink="http://www.w3.org/1999/xlink">
<g id="graph1" class="graph" transform="scale(1 1) rotate(0) translate(4 184)">
<title>_anonymous_0</title>
<!-- LIMITS -->
<g id="node1" class="node"><title>LIMITS</title>
<a xlink:href="LIMITS.html" xlink:title="Limit of a function" target="_top">
<polyline fill="none" stroke="blue" stroke-width="2" points="307,-180 189,-180 "/>
<path fill="none" stroke="blue" stroke-width="2" d="M189,-180C183,-180 177,-174 177,-168"/>
<polyline fill="none" stroke="blue" stroke-width="2" points="177,-168 177,-156 "/>
<path fill="none" stroke="blue" stroke-width="2" d="M177,-156C177,-150 183,-144 189,-144"/>
<polyline fill="none" stroke="blue" stroke-width="2" points="189,-144 307,-144 "/>
<path fill="none" stroke="blue" stroke-width="2" d="M307,-144C313,-144 319,-150 319,-156"/>
<polyline fill="none" stroke="blue" stroke-width="2" points="319,-156 319,-168 "/>
<path fill="none" stroke="blue" stroke-width="2" d="M319,-168C319,-174 313,-180 307,-180"/>
<text text-anchor="start" x="185" y="-159.233" font-family="Times Roman,serif" font-size="14.00">Limit of a function</text>
</a>
</g>
<!-- DEFINITION_OF_DERIVATIVE -->
<g id="node2" class="node"><title>DEFINITION_OF_DERIVATIVE</title>
<a xlink:href="DEFINITION_OF_DERIVATIVE.html" xlink:title="Differentiation" target="_top">
<polyline fill="none" stroke="black" points="106,-108 12,-108 "/>
<path fill="none" stroke="black" d="M12,-108C6,-108 4.14483e-14,-102 3.31587e-14,-96"/>
<polyline fill="none" stroke="black" points="3.31587e-14,-96 1.65793e-14,-84 "/>
<path fill="none" stroke="black" d="M1.65793e-14,-84C8.28967e-15,-78 6,-72 12,-72"/>
<polyline fill="none" stroke="black" points="12,-72 106,-72 "/>
<path fill="none" stroke="black" d="M106,-72C112,-72 118,-78 118,-84"/>
<polyline fill="none" stroke="black" points="118,-84 118,-96 "/>
<path fill="none" stroke="black" d="M118,-96C118,-102 112,-108 106,-108"/>
<text text-anchor="start" x="8" y="-87.2333" font-family="Times Roman,serif" font-size="14.00">Differentiation</text>
</a>
</g>
<!-- LIMITS&#45;&gt;DEFINITION_OF_DERIVATIVE -->
<g id="edge2" class="edge"><title>LIMITS&#45;&gt;DEFINITION_OF_DERIVATIVE</title>
<path fill="none" stroke="black" d="M200.307,-143.831C174.693,-134.073 142.94,-121.977 116.026,-111.724"/>
<polygon fill="black" stroke="black" points="116.941,-108.327 106.35,-108.038 114.449,-114.869 116.941,-108.327"/>
</g>
<!-- TAYLOR_SERIES -->
<g id="node4" class="node"><title>TAYLOR_SERIES</title>
<a xlink:href="TAYLOR_SERIES.html" xlink:title="One dimensional Taylor Series" target="_top">
<polyline fill="none" stroke="black" points="348,-108 148,-108 "/>
<path fill="none" stroke="black" d="M148,-108C142,-108 136,-102 136,-96"/>
<polyline fill="none" stroke="black" points="136,-96 136,-84 "/>
<path fill="none" stroke="black" d="M136,-84C136,-78 142,-72 148,-72"/>
<polyline fill="none" stroke="black" points="148,-72 348,-72 "/>
<path fill="none" stroke="black" d="M348,-72C354,-72 360,-78 360,-84"/>
<polyline fill="none" stroke="black" points="360,-84 360,-96 "/>
<path fill="none" stroke="black" d="M360,-96C360,-102 354,-108 348,-108"/>
<text text-anchor="start" x="144" y="-87.2333" font-family="Times Roman,serif" font-size="14.00">One dimensional Taylor Series</text>
</a>
</g>
<!-- LIMITS&#45;&gt;TAYLOR_SERIES -->
<g id="edge4" class="edge"><title>LIMITS&#45;&gt;TAYLOR_SERIES</title>
<path fill="none" stroke="black" d="M248,-143.831C248,-136.131 248,-126.974 248,-118.417"/>
<polygon fill="black" stroke="black" points="251.5,-118.413 248,-108.413 244.5,-118.413 251.5,-118.413"/>
</g>
<!-- INTRODUCTION_TO_CONTINUITY -->
<g id="node6" class="node"><title>INTRODUCTION_TO_CONTINUITY</title>
<a xlink:href="INTRODUCTION_TO_CONTINUITY.html" xlink:title="Introduction to continuity" target="_top">
<polyline fill="none" stroke="black" points="308,-36 138,-36 "/>
<path fill="none" stroke="black" d="M138,-36C132,-36 126,-30 126,-24"/>
<polyline fill="none" stroke="black" points="126,-24 126,-12 "/>
<path fill="none" stroke="black" d="M126,-12C126,-6 132,-1.73241e-14 138,-1.68845e-14"/>
<polyline fill="none" stroke="black" points="138,-1.68845e-14 308,-4.43174e-15 "/>
<path fill="none" stroke="black" d="M308,-4.43174e-15C314,-3.99222e-15 320,-6 320,-12"/>
<polyline fill="none" stroke="black" points="320,-12 320,-24 "/>
<path fill="none" stroke="black" d="M320,-24C320,-30 314,-36 308,-36"/>
<text text-anchor="start" x="134" y="-15.2333" font-family="Times Roman,serif" font-size="14.00">Introduction to continuity</text>
</a>
</g>
<!-- LIMITS&#45;&gt;INTRODUCTION_TO_CONTINUITY -->
<g id="edge6" class="edge"><title>LIMITS&#45;&gt;INTRODUCTION_TO_CONTINUITY</title>
<path fill="none" stroke="black" d="M319.169,-145.769C338.614,-137.722 357.481,-125.754 369,-108 377.708,-94.5774 378.143,-85.1302 369,-72 360.606,-59.945 333.012,-48.3906 304.04,-39.0854"/>
<polygon fill="black" stroke="black" points="304.776,-35.6489 294.187,-36.0186 302.695,-42.3326 304.776,-35.6489"/>
</g>
<!-- DEFINITION_OF_DERIVATIVE&#45;&gt;INTRODUCTION_TO_CONTINUITY -->
</g>
</svg>
