<?xml version="1.0" encoding="UTF-8" standalone="no"?>
<!DOCTYPE svg PUBLIC "-//W3C//DTD SVG 1.1//EN"
 "http://www.w3.org/Graphics/SVG/1.1/DTD/svg11.dtd">
<!-- Generated by graphviz version 2.26.3 (20100126.1600)
 -->
<!-- Title: _anonymous_0 Pages: 1 -->
<svg width="543pt" height="260pt"
 viewBox="0.00 0.00 543.00 260.00" xmlns="http://www.w3.org/2000/svg" xmlns:xlink="http://www.w3.org/1999/xlink">
<g id="graph1" class="graph" transform="scale(1 1) rotate(0) translate(4 256)">
<title>_anonymous_0</title>
<!-- MARKOV_PROPERTY -->
<g id="node1" class="node"><title>MARKOV_PROPERTY</title>
<a xlink:href="MARKOV_PROPERTY.html" xlink:title=" The Markov Property " target="_top">
<polyline fill="none" stroke="blue" stroke-width="2" points="404,-180 256,-180 "/>
<path fill="none" stroke="blue" stroke-width="2" d="M256,-180C250,-180 244,-174 244,-168"/>
<polyline fill="none" stroke="blue" stroke-width="2" points="244,-168 244,-156 "/>
<path fill="none" stroke="blue" stroke-width="2" d="M244,-156C244,-150 250,-144 256,-144"/>
<polyline fill="none" stroke="blue" stroke-width="2" points="256,-144 404,-144 "/>
<path fill="none" stroke="blue" stroke-width="2" d="M404,-144C410,-144 416,-150 416,-156"/>
<polyline fill="none" stroke="blue" stroke-width="2" points="416,-156 416,-168 "/>
<path fill="none" stroke="blue" stroke-width="2" d="M416,-168C416,-174 410,-180 404,-180"/>
<text text-anchor="start" x="252.5" y="-159.233" font-family="Times Roman,serif" font-size="14.00"> The Markov Property </text>
</a>
</g>
<!-- TRANSITION_MATRIX_OF_MARKOV_CHAIN -->
<g id="node2" class="node"><title>TRANSITION_MATRIX_OF_MARKOV_CHAIN</title>
<a xlink:href="TRANSITION_MATRIX_OF_MARKOV_CHAIN.html" xlink:title=" Markovian transition matrix " target="_top">
<polyline fill="none" stroke="black" points="206,-108 12,-108 "/>
<path fill="none" stroke="black" d="M12,-108C6,-108 9.4739e-14,-102 7.57912e-14,-96"/>
<polyline fill="none" stroke="black" points="7.57912e-14,-96 3.78956e-14,-84 "/>
<path fill="none" stroke="black" d="M3.78956e-14,-84C1.89478e-14,-78 6,-72 12,-72"/>
<polyline fill="none" stroke="black" points="12,-72 206,-72 "/>
<path fill="none" stroke="black" d="M206,-72C212,-72 218,-78 218,-84"/>
<polyline fill="none" stroke="black" points="218,-84 218,-96 "/>
<path fill="none" stroke="black" d="M218,-96C218,-102 212,-108 206,-108"/>
<text text-anchor="start" x="8" y="-87.2333" font-family="Times Roman,serif" font-size="14.00"> Markovian transition matrix </text>
</a>
</g>
<!-- MARKOV_PROPERTY&#45;&gt;TRANSITION_MATRIX_OF_MARKOV_CHAIN -->
<g id="edge2" class="edge"><title>MARKOV_PROPERTY&#45;&gt;TRANSITION_MATRIX_OF_MARKOV_CHAIN</title>
<path fill="none" stroke="black" d="M274.518,-143.924C244.043,-133.996 206.073,-121.625 174.19,-111.238"/>
<polygon fill="black" stroke="black" points="175.098,-107.853 164.505,-108.083 172.929,-114.509 175.098,-107.853"/>
</g>
<!-- MONTE_CARLO -->
<g id="node6" class="node"><title>MONTE_CARLO</title>
<a xlink:href="MONTE_CARLO.html" xlink:title=" Monte Carlo Simulation " target="_top">
<polyline fill="none" stroke="black" points="412,-108 248,-108 "/>
<path fill="none" stroke="black" d="M248,-108C242,-108 236,-102 236,-96"/>
<polyline fill="none" stroke="black" points="236,-96 236,-84 "/>
<path fill="none" stroke="black" d="M236,-84C236,-78 242,-72 248,-72"/>
<polyline fill="none" stroke="black" points="248,-72 412,-72 "/>
<path fill="none" stroke="black" d="M412,-72C418,-72 424,-78 424,-84"/>
<polyline fill="none" stroke="black" points="424,-84 424,-96 "/>
<path fill="none" stroke="black" d="M424,-96C424,-102 418,-108 412,-108"/>
<text text-anchor="start" x="244" y="-87.2333" font-family="Times Roman,serif" font-size="14.00"> Monte Carlo Simulation </text>
</a>
</g>
<!-- MARKOV_PROPERTY&#45;&gt;MONTE_CARLO -->
<g id="edge6" class="edge"><title>MARKOV_PROPERTY&#45;&gt;MONTE_CARLO</title>
<path fill="none" stroke="black" d="M330,-143.831C330,-136.131 330,-126.974 330,-118.417"/>
<polygon fill="black" stroke="black" points="333.5,-118.413 330,-108.413 326.5,-118.413 333.5,-118.413"/>
</g>
<!-- CONTINUOUS_TIME_MARKOV_CHAIN -->
<g id="node10" class="node"><title>CONTINUOUS_TIME_MARKOV_CHAIN</title>
<a xlink:href="CONTINUOUS_TIME_MARKOV_CHAIN.html" xlink:title=" Markov chains in continuous time " target="_top">
<polyline fill="none" stroke="black" points="397,-36 163,-36 "/>
<path fill="none" stroke="black" d="M163,-36C157,-36 151,-30 151,-24"/>
<polyline fill="none" stroke="black" points="151,-24 151,-12 "/>
<path fill="none" stroke="black" d="M151,-12C151,-6 157,-1.74331e-14 163,-1.71026e-14"/>
<polyline fill="none" stroke="black" points="163,-1.71026e-14 397,-4.21368e-15 "/>
<path fill="none" stroke="black" d="M397,-4.21368e-15C403,-3.8832e-15 409,-6 409,-12"/>
<polyline fill="none" stroke="black" points="409,-12 409,-24 "/>
<path fill="none" stroke="black" d="M409,-24C409,-30 403,-36 397,-36"/>
<text text-anchor="start" x="159.5" y="-15.2333" font-family="Times Roman,serif" font-size="14.00"> Markov chains in continuous time </text>
</a>
</g>
<!-- MARKOV_PROPERTY&#45;&gt;CONTINUOUS_TIME_MARKOV_CHAIN -->
<g id="edge10" class="edge"><title>MARKOV_PROPERTY&#45;&gt;CONTINUOUS_TIME_MARKOV_CHAIN</title>
<path fill="none" stroke="black" d="M390.007,-143.874C406.857,-135.711 423.23,-124.153 433,-108 441.28,-94.3093 442.241,-85.0614 433,-72 424.265,-59.6541 395.939,-48.1646 365.995,-38.9851"/>
<polygon fill="black" stroke="black" points="366.821,-35.5794 356.238,-36.0877 364.828,-42.2897 366.821,-35.5794"/>
</g>
<!-- TRANSITION_MATRIX_OF_MARKOV_CHAIN&#45;&gt;CONTINUOUS_TIME_MARKOV_CHAIN -->
<!-- INDEPENDENT_RANDOM_VARIABLES -->
<g id="node4" class="node"><title>INDEPENDENT_RANDOM_VARIABLES</title>
<a xlink:href="INDEPENDENT_RANDOM_VARIABLES.html" xlink:title=" Independent random variables " target="_top">
<polyline fill="none" stroke="black" points="323,-252 111,-252 "/>
<path fill="none" stroke="black" d="M111,-252C105,-252 99,-246 99,-240"/>
<polyline fill="none" stroke="black" points="99,-240 99,-228 "/>
<path fill="none" stroke="black" d="M99,-228C99,-222 105,-216 111,-216"/>
<polyline fill="none" stroke="black" points="111,-216 323,-216 "/>
<path fill="none" stroke="black" d="M323,-216C329,-216 335,-222 335,-228"/>
<polyline fill="none" stroke="black" points="335,-228 335,-240 "/>
<path fill="none" stroke="black" d="M335,-240C335,-246 329,-252 323,-252"/>
<text text-anchor="start" x="107" y="-231.233" font-family="Times Roman,serif" font-size="14.00"> Independent random variables </text>
</a>
</g>
<!-- INDEPENDENT_RANDOM_VARIABLES&#45;&gt;MARKOV_PROPERTY -->
<g id="edge4" class="edge"><title>INDEPENDENT_RANDOM_VARIABLES&#45;&gt;MARKOV_PROPERTY</title>
<path fill="none" stroke="black" d="M245.515,-215.831C259.834,-206.707 277.362,-195.539 292.734,-185.745"/>
<polygon fill="black" stroke="black" points="294.942,-188.488 301.494,-180.163 291.18,-182.585 294.942,-188.488"/>
</g>
<!-- CONDITIONAL_PROBABILITY -->
<g id="node8" class="node"><title>CONDITIONAL_PROBABILITY</title>
<a xlink:href="CONDITIONAL_PROBABILITY.html" xlink:title=" Conditional probability " target="_top">
<polyline fill="none" stroke="black" points="523,-252 365,-252 "/>
<path fill="none" stroke="black" d="M365,-252C359,-252 353,-246 353,-240"/>
<polyline fill="none" stroke="black" points="353,-240 353,-228 "/>
<path fill="none" stroke="black" d="M353,-228C353,-222 359,-216 365,-216"/>
<polyline fill="none" stroke="black" points="365,-216 523,-216 "/>
<path fill="none" stroke="black" d="M523,-216C529,-216 535,-222 535,-228"/>
<polyline fill="none" stroke="black" points="535,-228 535,-240 "/>
<path fill="none" stroke="black" d="M535,-240C535,-246 529,-252 523,-252"/>
<text text-anchor="start" x="361.5" y="-231.233" font-family="Times Roman,serif" font-size="14.00"> Conditional probability </text>
</a>
</g>
<!-- CONDITIONAL_PROBABILITY&#45;&gt;MARKOV_PROPERTY -->
<g id="edge8" class="edge"><title>CONDITIONAL_PROBABILITY&#45;&gt;MARKOV_PROPERTY</title>
<path fill="none" stroke="black" d="M415.233,-215.831C400.787,-206.707 383.103,-195.539 367.596,-185.745"/>
<polygon fill="black" stroke="black" points="369.082,-182.544 358.758,-180.163 365.344,-188.462 369.082,-182.544"/>
</g>
</g>
</svg>
