<?xml version="1.0" encoding="UTF-8" standalone="no"?>
<!DOCTYPE svg PUBLIC "-//W3C//DTD SVG 1.1//EN"
 "http://www.w3.org/Graphics/SVG/1.1/DTD/svg11.dtd">
<!-- Generated by graphviz version 2.28.0 (20110509.1545)
 -->
<!-- Title: _anonymous_0 Pages: 1 -->
<svg width="259pt" height="188pt"
 viewBox="0.00 0.00 259.00 188.00" xmlns="http://www.w3.org/2000/svg" xmlns:xlink="http://www.w3.org/1999/xlink">
<g id="graph1" class="graph" transform="scale(1 1) rotate(0) translate(4 184)">
<title>_anonymous_0</title>
<!-- MARKOV_PROPERTY -->
<g id="node1" class="node"><title>MARKOV_PROPERTY</title>
<a xlink:href="MARKOV_PROPERTY.html" xlink:title="The Markov Property" target="_top">
<polyline fill="none" stroke="blue" stroke-width="2" points="153,-108 39,-108 "/>
<path fill="none" stroke="blue" stroke-width="2" d="M39,-108C33,-108 27,-102 27,-96"/>
<polyline fill="none" stroke="blue" stroke-width="2" points="27,-96 27,-84 "/>
<path fill="none" stroke="blue" stroke-width="2" d="M27,-84C27,-78 33,-72 39,-72"/>
<polyline fill="none" stroke="blue" stroke-width="2" points="39,-72 153,-72 "/>
<path fill="none" stroke="blue" stroke-width="2" d="M153,-72C159,-72 165,-78 165,-84"/>
<polyline fill="none" stroke="blue" stroke-width="2" points="165,-84 165,-96 "/>
<path fill="none" stroke="blue" stroke-width="2" d="M165,-96C165,-102 159,-108 153,-108"/>
<text text-anchor="start" x="35.5" y="-84.5" font-family="Times,serif" font-size="14.00">The Markov Property</text>
</a>
</g>
<!-- CONTINUOUS_TIME_MARKOV_CHAIN -->
<g id="node4" class="node"><title>CONTINUOUS_TIME_MARKOV_CHAIN</title>
<a xlink:href="CONTINUOUS_TIME_MARKOV_CHAIN.html" xlink:title="TITLE:" target="_top">
<polyline fill="none" stroke="black" points="46.25,-36 11.75,-36 "/>
<path fill="none" stroke="black" d="M11.75,-36C5.75,-36 -0.25,-30 -0.25,-24"/>
<polyline fill="none" stroke="black" points="-0.25,-24 -0.25,-12 "/>
<path fill="none" stroke="black" d="M-0.25,-12C-0.25,-6 5.75,-0 11.75,-0"/>
<polyline fill="none" stroke="black" points="11.75,-0 46.25,-0 "/>
<path fill="none" stroke="black" d="M46.25,-0C52.25,-0 58.25,-6 58.25,-12"/>
<polyline fill="none" stroke="black" points="58.25,-12 58.25,-24 "/>
<path fill="none" stroke="black" d="M58.25,-24C58.25,-30 52.25,-36 46.25,-36"/>
<text text-anchor="start" x="8" y="-12.5" font-family="Times,serif" font-size="14.00">TITLE:</text>
</a>
</g>
<!-- MARKOV_PROPERTY&#45;&gt;CONTINUOUS_TIME_MARKOV_CHAIN -->
<g id="edge4" class="edge"><title>MARKOV_PROPERTY&#45;&gt;CONTINUOUS_TIME_MARKOV_CHAIN</title>
<path fill="none" stroke="black" d="M79.4382,-71.6966C71.3247,-63.2198 61.4123,-52.8636 52.529,-43.5826"/>
<polygon fill="black" stroke="black" points="54.8144,-40.9084 45.3713,-36.1043 49.7574,-45.7486 54.8144,-40.9084"/>
</g>
<!-- TRANSITION_MATRIX_OF_MARKOV_CHAIN -->
<g id="node6" class="node"><title>TRANSITION_MATRIX_OF_MARKOV_CHAIN</title>
<a xlink:href="TRANSITION_MATRIX_OF_MARKOV_CHAIN.html" xlink:title="Markovian transition matrix" target="_top">
<polyline fill="none" stroke="black" points="239,-36 89,-36 "/>
<path fill="none" stroke="black" d="M89,-36C83,-36 77,-30 77,-24"/>
<polyline fill="none" stroke="black" points="77,-24 77,-12 "/>
<path fill="none" stroke="black" d="M77,-12C77,-6 83,-0 89,-0"/>
<polyline fill="none" stroke="black" points="89,-0 239,-0 "/>
<path fill="none" stroke="black" d="M239,-0C245,-0 251,-6 251,-12"/>
<polyline fill="none" stroke="black" points="251,-12 251,-24 "/>
<path fill="none" stroke="black" d="M251,-24C251,-30 245,-36 239,-36"/>
<text text-anchor="start" x="85.5" y="-12.5" font-family="Times,serif" font-size="14.00">Markovian transition matrix</text>
</a>
</g>
<!-- MARKOV_PROPERTY&#45;&gt;TRANSITION_MATRIX_OF_MARKOV_CHAIN -->
<g id="edge6" class="edge"><title>MARKOV_PROPERTY&#45;&gt;TRANSITION_MATRIX_OF_MARKOV_CHAIN</title>
<path fill="none" stroke="black" d="M112.809,-71.6966C121.126,-63.135 131.305,-52.6562 140.39,-43.3045"/>
<polygon fill="black" stroke="black" points="142.927,-45.7159 147.384,-36.1043 137.906,-40.8384 142.927,-45.7159"/>
</g>
<!-- CONDITIONAL_PROBABILITY -->
<g id="node2" class="node"><title>CONDITIONAL_PROBABILITY</title>
<a xlink:href="CONDITIONAL_PROBABILITY.html" xlink:title="Conditional probability" target="_top">
<polyline fill="none" stroke="black" points="158,-180 34,-180 "/>
<path fill="none" stroke="black" d="M34,-180C28,-180 22,-174 22,-168"/>
<polyline fill="none" stroke="black" points="22,-168 22,-156 "/>
<path fill="none" stroke="black" d="M22,-156C22,-150 28,-144 34,-144"/>
<polyline fill="none" stroke="black" points="34,-144 158,-144 "/>
<path fill="none" stroke="black" d="M158,-144C164,-144 170,-150 170,-156"/>
<polyline fill="none" stroke="black" points="170,-156 170,-168 "/>
<path fill="none" stroke="black" d="M170,-168C170,-174 164,-180 158,-180"/>
<text text-anchor="start" x="30.5" y="-156.5" font-family="Times,serif" font-size="14.00">Conditional probability</text>
</a>
</g>
<!-- CONDITIONAL_PROBABILITY&#45;&gt;MARKOV_PROPERTY -->
<g id="edge2" class="edge"><title>CONDITIONAL_PROBABILITY&#45;&gt;MARKOV_PROPERTY</title>
<path fill="none" stroke="black" d="M96,-143.697C96,-135.983 96,-126.712 96,-118.112"/>
<polygon fill="black" stroke="black" points="99.5001,-118.104 96,-108.104 92.5001,-118.104 99.5001,-118.104"/>
</g>
</g>
</svg>
