<?xml version="1.0" encoding="UTF-8" standalone="no"?>
<!DOCTYPE svg PUBLIC "-//W3C//DTD SVG 1.1//EN"
 "http://www.w3.org/Graphics/SVG/1.1/DTD/svg11.dtd">
<!-- Generated by graphviz version 2.36.0 (20140111.2315)
 -->
<!-- Title: %3 Pages: 1 -->
<svg width="478pt" height="260pt"
 viewBox="0.00 0.00 478.00 260.00" xmlns="http://www.w3.org/2000/svg" xmlns:xlink="http://www.w3.org/1999/xlink">
<g id="graph0" class="graph" transform="scale(1 1) rotate(0) translate(4 256)">
<title>%3</title>
<!-- MARKOV_PROPERTY -->
<g id="node1" class="node"><title>MARKOV_PROPERTY</title>
<g id="a_node1"><a xlink:href="MARKOV_PROPERTY.html" xlink:title=" The Markov Property " target="_top">
<path fill="none" stroke="blue" stroke-width="2" d="M341.25,-180C341.25,-180 222.75,-180 222.75,-180 216.75,-180 210.75,-174 210.75,-168 210.75,-168 210.75,-156 210.75,-156 210.75,-150 216.75,-144 222.75,-144 222.75,-144 341.25,-144 341.25,-144 347.25,-144 353.25,-150 353.25,-156 353.25,-156 353.25,-168 353.25,-168 353.25,-174 347.25,-180 341.25,-180"/>
<text text-anchor="start" x="218.5" y="-158.3" font-family="Times,serif" font-size="14.00"> The Markov Property </text>
</a>
</g>
</g>
<!-- MONTE_CARLO -->
<g id="node2" class="node"><title>MONTE_CARLO</title>
<g id="a_node2"><a xlink:href="MONTE_CARLO.html" xlink:title=" Monte Carlo Simulation " target="_top">
<path fill="none" stroke="black" d="M145.5,-108C145.5,-108 12.5,-108 12.5,-108 6.5,-108 0.5,-102 0.5,-96 0.5,-96 0.5,-84 0.5,-84 0.5,-78 6.5,-72 12.5,-72 12.5,-72 145.5,-72 145.5,-72 151.5,-72 157.5,-78 157.5,-84 157.5,-84 157.5,-96 157.5,-96 157.5,-102 151.5,-108 145.5,-108"/>
<text text-anchor="start" x="8" y="-86.3" font-family="Times,serif" font-size="14.00"> Monte Carlo Simulation </text>
</a>
</g>
</g>
<!-- MARKOV_PROPERTY&#45;&gt;MONTE_CARLO -->
<g id="edge1" class="edge"><title>MARKOV_PROPERTY&#45;&gt;MONTE_CARLO</title>
<path fill="none" stroke="black" d="M232.6,-143.966C204.113,-134.142 168.114,-121.729 138.129,-111.389"/>
<polygon fill="black" stroke="black" points="139.216,-108.062 128.621,-108.111 136.934,-114.68 139.216,-108.062"/>
</g>
<!-- CONTINUOUS_TIME_MARKOV_CHAIN -->
<g id="node5" class="node"><title>CONTINUOUS_TIME_MARKOV_CHAIN</title>
<g id="a_node5"><a xlink:href="CONTINUOUS_TIME_MARKOV_CHAIN.html" xlink:title=" Markov chains in continuous time " target="_top">
<path fill="none" stroke="black" d="M375.5,-108C375.5,-108 188.5,-108 188.5,-108 182.5,-108 176.5,-102 176.5,-96 176.5,-96 176.5,-84 176.5,-84 176.5,-78 182.5,-72 188.5,-72 188.5,-72 375.5,-72 375.5,-72 381.5,-72 387.5,-78 387.5,-84 387.5,-84 387.5,-96 387.5,-96 387.5,-102 381.5,-108 375.5,-108"/>
<text text-anchor="start" x="184" y="-86.3" font-family="Times,serif" font-size="14.00"> Markov chains in continuous time </text>
</a>
</g>
</g>
<!-- MARKOV_PROPERTY&#45;&gt;CONTINUOUS_TIME_MARKOV_CHAIN -->
<g id="edge4" class="edge"><title>MARKOV_PROPERTY&#45;&gt;CONTINUOUS_TIME_MARKOV_CHAIN</title>
<path fill="none" stroke="black" d="M282,-143.697C282,-135.983 282,-126.712 282,-118.112"/>
<polygon fill="black" stroke="black" points="285.5,-118.104 282,-108.104 278.5,-118.104 285.5,-118.104"/>
</g>
<!-- TRANSITION_MATRIX_OF_MARKOV_CHAIN -->
<g id="node6" class="node"><title>TRANSITION_MATRIX_OF_MARKOV_CHAIN</title>
<g id="a_node6"><a xlink:href="TRANSITION_MATRIX_OF_MARKOV_CHAIN.html" xlink:title=" Markovian transition matrix " target="_top">
<path fill="none" stroke="black" d="M324.25,-36C324.25,-36 169.75,-36 169.75,-36 163.75,-36 157.75,-30 157.75,-24 157.75,-24 157.75,-12 157.75,-12 157.75,-6 163.75,-0 169.75,-0 169.75,-0 324.25,-0 324.25,-0 330.25,-0 336.25,-6 336.25,-12 336.25,-12 336.25,-24 336.25,-24 336.25,-30 330.25,-36 324.25,-36"/>
<text text-anchor="start" x="165.5" y="-14.3" font-family="Times,serif" font-size="14.00"> Markovian transition matrix </text>
</a>
</g>
</g>
<!-- MARKOV_PROPERTY&#45;&gt;TRANSITION_MATRIX_OF_MARKOV_CHAIN -->
<g id="edge5" class="edge"><title>MARKOV_PROPERTY&#45;&gt;TRANSITION_MATRIX_OF_MARKOV_CHAIN</title>
<path fill="none" stroke="black" d="M350.312,-143.936C368.21,-136.028 385.436,-124.561 396,-108 404.605,-94.5107 405.225,-85.0728 396,-72 383.837,-54.7645 365.554,-43.1006 345.92,-35.2165"/>
<polygon fill="black" stroke="black" points="347.102,-31.9221 336.509,-31.7479 344.681,-38.4902 347.102,-31.9221"/>
</g>
<!-- MONTE_CARLO&#45;&gt;TRANSITION_MATRIX_OF_MARKOV_CHAIN -->
<!-- CONDITIONAL_PROBABILITY -->
<g id="node3" class="node"><title>CONDITIONAL_PROBABILITY</title>
<g id="a_node3"><a xlink:href="CONDITIONAL_PROBABILITY.html" xlink:title=" Conditional probability " target="_top">
<path fill="none" stroke="black" d="M251.25,-252C251.25,-252 124.75,-252 124.75,-252 118.75,-252 112.75,-246 112.75,-240 112.75,-240 112.75,-228 112.75,-228 112.75,-222 118.75,-216 124.75,-216 124.75,-216 251.25,-216 251.25,-216 257.25,-216 263.25,-222 263.25,-228 263.25,-228 263.25,-240 263.25,-240 263.25,-246 257.25,-252 251.25,-252"/>
<text text-anchor="start" x="120.5" y="-230.3" font-family="Times,serif" font-size="14.00"> Conditional probability </text>
</a>
</g>
</g>
<!-- CONDITIONAL_PROBABILITY&#45;&gt;MARKOV_PROPERTY -->
<g id="edge2" class="edge"><title>CONDITIONAL_PROBABILITY&#45;&gt;MARKOV_PROPERTY</title>
<path fill="none" stroke="black" d="M211.236,-215.697C223.188,-206.796 237.923,-195.823 250.847,-186.199"/>
<polygon fill="black" stroke="black" points="253.101,-188.884 259.031,-180.104 248.92,-183.27 253.101,-188.884"/>
</g>
<!-- INDEPENDENT_RANDOM_VARIABLES -->
<g id="node4" class="node"><title>INDEPENDENT_RANDOM_VARIABLES</title>
<g id="a_node4"><a xlink:href="INDEPENDENT_RANDOM_VARIABLES.html" xlink:title=" Independent random variables " target="_top">
<path fill="none" stroke="black" d="M458.25,-252C458.25,-252 293.75,-252 293.75,-252 287.75,-252 281.75,-246 281.75,-240 281.75,-240 281.75,-228 281.75,-228 281.75,-222 287.75,-216 293.75,-216 293.75,-216 458.25,-216 458.25,-216 464.25,-216 470.25,-222 470.25,-228 470.25,-228 470.25,-240 470.25,-240 470.25,-246 464.25,-252 458.25,-252"/>
<text text-anchor="start" x="289.5" y="-230.3" font-family="Times,serif" font-size="14.00"> Independent random variables </text>
</a>
</g>
</g>
<!-- INDEPENDENT_RANDOM_VARIABLES&#45;&gt;MARKOV_PROPERTY -->
<g id="edge3" class="edge"><title>INDEPENDENT_RANDOM_VARIABLES&#45;&gt;MARKOV_PROPERTY</title>
<path fill="none" stroke="black" d="M352.764,-215.697C340.812,-206.796 326.077,-195.823 313.153,-186.199"/>
<polygon fill="black" stroke="black" points="315.08,-183.27 304.969,-180.104 310.899,-188.884 315.08,-183.27"/>
</g>
</g>
</svg>
