<?xml version="1.0" encoding="UTF-8" standalone="no"?>
<!DOCTYPE svg PUBLIC "-//W3C//DTD SVG 1.1//EN"
 "http://www.w3.org/Graphics/SVG/1.1/DTD/svg11.dtd">
<!-- Generated by graphviz version 2.26.3 (20100126.1600)
 -->
<!-- Title: _anonymous_0 Pages: 1 -->
<svg width="484pt" height="188pt"
 viewBox="0.00 0.00 484.00 188.00" xmlns="http://www.w3.org/2000/svg" xmlns:xlink="http://www.w3.org/1999/xlink">
<g id="graph1" class="graph" transform="scale(1 1) rotate(0) translate(4 184)">
<title>_anonymous_0</title>
<!-- MARKOV_PROPERTY -->
<g id="node1" class="node"><title>MARKOV_PROPERTY</title>
<a xlink:href="MARKOV_PROPERTY.html" xlink:title="The Markov Property" target="_top">
<polyline fill="none" stroke="blue" stroke-width="2" points="316,-108 178,-108 "/>
<path fill="none" stroke="blue" stroke-width="2" d="M178,-108C172,-108 166,-102 166,-96"/>
<polyline fill="none" stroke="blue" stroke-width="2" points="166,-96 166,-84 "/>
<path fill="none" stroke="blue" stroke-width="2" d="M166,-84C166,-78 172,-72 178,-72"/>
<polyline fill="none" stroke="blue" stroke-width="2" points="178,-72 316,-72 "/>
<path fill="none" stroke="blue" stroke-width="2" d="M316,-72C322,-72 328,-78 328,-84"/>
<polyline fill="none" stroke="blue" stroke-width="2" points="328,-84 328,-96 "/>
<path fill="none" stroke="blue" stroke-width="2" d="M328,-96C328,-102 322,-108 316,-108"/>
<text text-anchor="start" x="174" y="-87.2333" font-family="Times Roman,serif" font-size="14.00">The Markov Property</text>
</a>
</g>
<!-- CONTINUOUS_TIME_MARKOV_CHAIN -->
<g id="node2" class="node"><title>CONTINUOUS_TIME_MARKOV_CHAIN</title>
<a xlink:href="CONTINUOUS_TIME_MARKOV_CHAIN.html" xlink:title="Markov chains in continuous time" target="_top">
<polyline fill="none" stroke="black" points="236,-36 12,-36 "/>
<path fill="none" stroke="black" d="M12,-36C6,-36 6.86858e-14,-30 5.21065e-14,-24"/>
<polyline fill="none" stroke="black" points="5.21065e-14,-24 1.89478e-14,-12 "/>
<path fill="none" stroke="black" d="M1.89478e-14,-12C2.36848e-15,-6 6,-1.74198e-14 12,-1.70759e-14"/>
<polyline fill="none" stroke="black" points="12,-1.70759e-14 236,-4.24034e-15 "/>
<path fill="none" stroke="black" d="M236,-4.24034e-15C242,-3.89652e-15 248,-6 248,-12"/>
<polyline fill="none" stroke="black" points="248,-12 248,-24 "/>
<path fill="none" stroke="black" d="M248,-24C248,-30 242,-36 236,-36"/>
<text text-anchor="start" x="8" y="-15.2333" font-family="Times Roman,serif" font-size="14.00">Markov chains in continuous time</text>
</a>
</g>
<!-- MARKOV_PROPERTY&#45;&gt;CONTINUOUS_TIME_MARKOV_CHAIN -->
<g id="edge2" class="edge"><title>MARKOV_PROPERTY&#45;&gt;CONTINUOUS_TIME_MARKOV_CHAIN</title>
<path fill="none" stroke="black" d="M215.962,-71.8314C200.229,-62.6221 180.939,-51.3301 164.096,-41.4706"/>
<polygon fill="black" stroke="black" points="165.426,-38.1941 155.028,-36.1628 161.89,-44.2352 165.426,-38.1941"/>
</g>
<!-- TRANSITION_MATRIX_OF_MARKOV_CHAIN -->
<g id="node4" class="node"><title>TRANSITION_MATRIX_OF_MARKOV_CHAIN</title>
<a xlink:href="TRANSITION_MATRIX_OF_MARKOV_CHAIN.html" xlink:title="Markovian transition matrix" target="_top">
<polyline fill="none" stroke="black" points="464,-36 278,-36 "/>
<path fill="none" stroke="black" d="M278,-36C272,-36 266,-30 266,-24"/>
<polyline fill="none" stroke="black" points="266,-24 266,-12 "/>
<path fill="none" stroke="black" d="M266,-12C266,-6 272,-1.73575e-14 278,-1.69515e-14"/>
<polyline fill="none" stroke="black" points="278,-1.69515e-14 464,-4.36476e-15 "/>
<path fill="none" stroke="black" d="M464,-4.36476e-15C470,-3.95874e-15 476,-6 476,-12"/>
<polyline fill="none" stroke="black" points="476,-12 476,-24 "/>
<path fill="none" stroke="black" d="M476,-24C476,-30 470,-36 464,-36"/>
<text text-anchor="start" x="274.5" y="-15.2333" font-family="Times Roman,serif" font-size="14.00">Markovian transition matrix</text>
</a>
</g>
<!-- MARKOV_PROPERTY&#45;&gt;TRANSITION_MATRIX_OF_MARKOV_CHAIN -->
<g id="edge4" class="edge"><title>MARKOV_PROPERTY&#45;&gt;TRANSITION_MATRIX_OF_MARKOV_CHAIN</title>
<path fill="none" stroke="black" d="M278.29,-71.8314C294.298,-62.5368 313.959,-51.1208 331.049,-41.1971"/>
<polygon fill="black" stroke="black" points="332.829,-44.211 339.72,-36.1628 329.314,-38.1575 332.829,-44.211"/>
</g>
<!-- CONDITIONAL_PROBABILITY -->
<g id="node6" class="node"><title>CONDITIONAL_PROBABILITY</title>
<a xlink:href="CONDITIONAL_PROBABILITY.html" xlink:title="Conditional probability" target="_top">
<polyline fill="none" stroke="black" points="212,-180 64,-180 "/>
<path fill="none" stroke="black" d="M64,-180C58,-180 52,-174 52,-168"/>
<polyline fill="none" stroke="black" points="52,-168 52,-156 "/>
<path fill="none" stroke="black" d="M52,-156C52,-150 58,-144 64,-144"/>
<polyline fill="none" stroke="black" points="64,-144 212,-144 "/>
<path fill="none" stroke="black" d="M212,-144C218,-144 224,-150 224,-156"/>
<polyline fill="none" stroke="black" points="224,-156 224,-168 "/>
<path fill="none" stroke="black" d="M224,-168C224,-174 218,-180 212,-180"/>
<text text-anchor="start" x="60" y="-159.233" font-family="Times Roman,serif" font-size="14.00">Conditional probability</text>
</a>
</g>
<!-- CONDITIONAL_PROBABILITY&#45;&gt;MARKOV_PROPERTY -->
<g id="edge6" class="edge"><title>CONDITIONAL_PROBABILITY&#45;&gt;MARKOV_PROPERTY</title>
<path fill="none" stroke="black" d="M165.505,-143.831C179.318,-134.707 196.226,-123.539 211.053,-113.745"/>
<polygon fill="black" stroke="black" points="213.089,-116.595 219.503,-108.163 209.23,-110.754 213.089,-116.595"/>
</g>
<!-- INDEPENDENT_RANDOM_VARIABLES -->
<g id="node8" class="node"><title>INDEPENDENT_RANDOM_VARIABLES</title>
<a xlink:href="INDEPENDENT_RANDOM_VARIABLES.html" xlink:title="Independent random variables" target="_top">
<polyline fill="none" stroke="black" points="458,-180 254,-180 "/>
<path fill="none" stroke="black" d="M254,-180C248,-180 242,-174 242,-168"/>
<polyline fill="none" stroke="black" points="242,-168 242,-156 "/>
<path fill="none" stroke="black" d="M242,-156C242,-150 248,-144 254,-144"/>
<polyline fill="none" stroke="black" points="254,-144 458,-144 "/>
<path fill="none" stroke="black" d="M458,-144C464,-144 470,-150 470,-156"/>
<polyline fill="none" stroke="black" points="470,-156 470,-168 "/>
<path fill="none" stroke="black" d="M470,-168C470,-174 464,-180 458,-180"/>
<text text-anchor="start" x="250.5" y="-159.233" font-family="Times Roman,serif" font-size="14.00">Independent random variables</text>
</a>
</g>
<!-- INDEPENDENT_RANDOM_VARIABLES&#45;&gt;MARKOV_PROPERTY -->
<g id="edge8" class="edge"><title>INDEPENDENT_RANDOM_VARIABLES&#45;&gt;MARKOV_PROPERTY</title>
<path fill="none" stroke="black" d="M328.495,-143.831C314.682,-134.707 297.774,-123.539 282.947,-113.745"/>
<polygon fill="black" stroke="black" points="284.77,-110.754 274.497,-108.163 280.911,-116.595 284.77,-110.754"/>
</g>
</g>
</svg>
