<?xml version="1.0" encoding="UTF-8" standalone="no"?>
<!DOCTYPE svg PUBLIC "-//W3C//DTD SVG 1.1//EN"
 "http://www.w3.org/Graphics/SVG/1.1/DTD/svg11.dtd">
<!-- Generated by graphviz version 2.26.3 (20100126.1600)
 -->
<!-- Title: _anonymous_0 Pages: 1 -->
<svg width="574pt" height="260pt"
 viewBox="0.00 0.00 574.00 260.00" xmlns="http://www.w3.org/2000/svg" xmlns:xlink="http://www.w3.org/1999/xlink">
<g id="graph1" class="graph" transform="scale(1 1) rotate(0) translate(4 256)">
<title>_anonymous_0</title>
<!-- MARKOV_PROPERTY -->
<g id="node1" class="node"><title>MARKOV_PROPERTY</title>
<a xlink:href="MARKOV_PROPERTY.html" xlink:title="The Markov Property" target="_top">
<polyline fill="none" stroke="blue" stroke-width="2" points="440,-180 302,-180 "/>
<path fill="none" stroke="blue" stroke-width="2" d="M302,-180C296,-180 290,-174 290,-168"/>
<polyline fill="none" stroke="blue" stroke-width="2" points="290,-168 290,-156 "/>
<path fill="none" stroke="blue" stroke-width="2" d="M290,-156C290,-150 296,-144 302,-144"/>
<polyline fill="none" stroke="blue" stroke-width="2" points="302,-144 440,-144 "/>
<path fill="none" stroke="blue" stroke-width="2" d="M440,-144C446,-144 452,-150 452,-156"/>
<polyline fill="none" stroke="blue" stroke-width="2" points="452,-156 452,-168 "/>
<path fill="none" stroke="blue" stroke-width="2" d="M452,-168C452,-174 446,-180 440,-180"/>
<text text-anchor="start" x="298" y="-159.233" font-family="Times Roman,serif" font-size="14.00">The Markov Property</text>
</a>
</g>
<!-- CONTINUOUS_TIME_MARKOV_CHAIN -->
<g id="node2" class="node"><title>CONTINUOUS_TIME_MARKOV_CHAIN</title>
<a xlink:href="CONTINUOUS_TIME_MARKOV_CHAIN.html" xlink:title="Markov chains in continuous time" target="_top">
<polyline fill="none" stroke="black" points="236,-108 12,-108 "/>
<path fill="none" stroke="black" d="M12,-108C6,-108 6.86858e-14,-102 5.21065e-14,-96"/>
<polyline fill="none" stroke="black" points="5.21065e-14,-96 1.89478e-14,-84 "/>
<path fill="none" stroke="black" d="M1.89478e-14,-84C2.36848e-15,-78 6,-72 12,-72"/>
<polyline fill="none" stroke="black" points="12,-72 236,-72 "/>
<path fill="none" stroke="black" d="M236,-72C242,-72 248,-78 248,-84"/>
<polyline fill="none" stroke="black" points="248,-84 248,-96 "/>
<path fill="none" stroke="black" d="M248,-96C248,-102 242,-108 236,-108"/>
<text text-anchor="start" x="8" y="-87.2333" font-family="Times Roman,serif" font-size="14.00">Markov chains in continuous time</text>
</a>
</g>
<!-- MARKOV_PROPERTY&#45;&gt;CONTINUOUS_TIME_MARKOV_CHAIN -->
<g id="edge2" class="edge"><title>MARKOV_PROPERTY&#45;&gt;CONTINUOUS_TIME_MARKOV_CHAIN</title>
<path fill="none" stroke="black" d="M308.99,-143.924C274.637,-133.91 231.761,-121.412 195.939,-110.97"/>
<polygon fill="black" stroke="black" points="196.615,-107.522 186.035,-108.083 194.656,-114.242 196.615,-107.522"/>
</g>
<!-- TRANSITION_MATRIX_OF_MARKOV_CHAIN -->
<g id="node6" class="node"><title>TRANSITION_MATRIX_OF_MARKOV_CHAIN</title>
<a xlink:href="TRANSITION_MATRIX_OF_MARKOV_CHAIN.html" xlink:title="Markovian transition matrix" target="_top">
<polyline fill="none" stroke="black" points="464,-108 278,-108 "/>
<path fill="none" stroke="black" d="M278,-108C272,-108 266,-102 266,-96"/>
<polyline fill="none" stroke="black" points="266,-96 266,-84 "/>
<path fill="none" stroke="black" d="M266,-84C266,-78 272,-72 278,-72"/>
<polyline fill="none" stroke="black" points="278,-72 464,-72 "/>
<path fill="none" stroke="black" d="M464,-72C470,-72 476,-78 476,-84"/>
<polyline fill="none" stroke="black" points="476,-84 476,-96 "/>
<path fill="none" stroke="black" d="M476,-96C476,-102 470,-108 464,-108"/>
<text text-anchor="start" x="274.5" y="-87.2333" font-family="Times Roman,serif" font-size="14.00">Markovian transition matrix</text>
</a>
</g>
<!-- MARKOV_PROPERTY&#45;&gt;TRANSITION_MATRIX_OF_MARKOV_CHAIN -->
<g id="edge6" class="edge"><title>MARKOV_PROPERTY&#45;&gt;TRANSITION_MATRIX_OF_MARKOV_CHAIN</title>
<path fill="none" stroke="black" d="M371,-143.831C371,-136.131 371,-126.974 371,-118.417"/>
<polygon fill="black" stroke="black" points="374.5,-118.413 371,-108.413 367.5,-118.413 374.5,-118.413"/>
</g>
<!-- MONTE_CARLO -->
<g id="node8" class="node"><title>MONTE_CARLO</title>
<a xlink:href="MONTE_CARLO.html" xlink:title="Monte Carlo Simulation" target="_top">
<polyline fill="none" stroke="black" points="392,-36 236,-36 "/>
<path fill="none" stroke="black" d="M236,-36C230,-36 224,-30 224,-24"/>
<polyline fill="none" stroke="black" points="224,-24 224,-12 "/>
<path fill="none" stroke="black" d="M224,-12C224,-6 230,-1.72899e-14 236,-1.68162e-14"/>
<polyline fill="none" stroke="black" points="236,-1.68162e-14 392,-4.5001e-15 "/>
<path fill="none" stroke="black" d="M392,-4.5001e-15C398,-4.02641e-15 404,-6 404,-12"/>
<polyline fill="none" stroke="black" points="404,-12 404,-24 "/>
<path fill="none" stroke="black" d="M404,-24C404,-30 398,-36 392,-36"/>
<text text-anchor="start" x="232.5" y="-15.2333" font-family="Times Roman,serif" font-size="14.00">Monte Carlo Simulation</text>
</a>
</g>
<!-- MARKOV_PROPERTY&#45;&gt;MONTE_CARLO -->
<g id="edge8" class="edge"><title>MARKOV_PROPERTY&#45;&gt;MONTE_CARLO</title>
<path fill="none" stroke="black" d="M440.236,-143.932C457.813,-135.885 474.636,-124.377 485,-108 493.556,-94.4798 494.458,-84.9052 485,-72 475.452,-58.9718 445.549,-47.6332 413.362,-38.7549"/>
<polygon fill="black" stroke="black" points="413.884,-35.2718 403.32,-36.0794 412.081,-42.0359 413.884,-35.2718"/>
</g>
<!-- CONTINUOUS_TIME_MARKOV_CHAIN&#45;&gt;MONTE_CARLO -->
<!-- INDEPENDENT_RANDOM_VARIABLES -->
<g id="node4" class="node"><title>INDEPENDENT_RANDOM_VARIABLES</title>
<a xlink:href="INDEPENDENT_RANDOM_VARIABLES.html" xlink:title="Independent random variables" target="_top">
<polyline fill="none" stroke="black" points="364,-252 160,-252 "/>
<path fill="none" stroke="black" d="M160,-252C154,-252 148,-246 148,-240"/>
<polyline fill="none" stroke="black" points="148,-240 148,-228 "/>
<path fill="none" stroke="black" d="M148,-228C148,-222 154,-216 160,-216"/>
<polyline fill="none" stroke="black" points="160,-216 364,-216 "/>
<path fill="none" stroke="black" d="M364,-216C370,-216 376,-222 376,-228"/>
<polyline fill="none" stroke="black" points="376,-228 376,-240 "/>
<path fill="none" stroke="black" d="M376,-240C376,-246 370,-252 364,-252"/>
<text text-anchor="start" x="156.5" y="-231.233" font-family="Times Roman,serif" font-size="14.00">Independent random variables</text>
</a>
</g>
<!-- INDEPENDENT_RANDOM_VARIABLES&#45;&gt;MARKOV_PROPERTY -->
<g id="edge4" class="edge"><title>INDEPENDENT_RANDOM_VARIABLES&#45;&gt;MARKOV_PROPERTY</title>
<path fill="none" stroke="black" d="M289.505,-215.831C303.318,-206.707 320.226,-195.539 335.053,-185.745"/>
<polygon fill="black" stroke="black" points="337.089,-188.595 343.503,-180.163 333.23,-182.754 337.089,-188.595"/>
</g>
<!-- CONDITIONAL_PROBABILITY -->
<g id="node11" class="node"><title>CONDITIONAL_PROBABILITY</title>
<a xlink:href="CONDITIONAL_PROBABILITY.html" xlink:title="Conditional probability" target="_top">
<polyline fill="none" stroke="black" points="554,-252 406,-252 "/>
<path fill="none" stroke="black" d="M406,-252C400,-252 394,-246 394,-240"/>
<polyline fill="none" stroke="black" points="394,-240 394,-228 "/>
<path fill="none" stroke="black" d="M394,-228C394,-222 400,-216 406,-216"/>
<polyline fill="none" stroke="black" points="406,-216 554,-216 "/>
<path fill="none" stroke="black" d="M554,-216C560,-216 566,-222 566,-228"/>
<polyline fill="none" stroke="black" points="566,-228 566,-240 "/>
<path fill="none" stroke="black" d="M566,-240C566,-246 560,-252 554,-252"/>
<text text-anchor="start" x="402" y="-231.233" font-family="Times Roman,serif" font-size="14.00">Conditional probability</text>
</a>
</g>
<!-- CONDITIONAL_PROBABILITY&#45;&gt;MARKOV_PROPERTY -->
<g id="edge12" class="edge"><title>CONDITIONAL_PROBABILITY&#45;&gt;MARKOV_PROPERTY</title>
<path fill="none" stroke="black" d="M452.495,-215.831C438.682,-206.707 421.774,-195.539 406.947,-185.745"/>
<polygon fill="black" stroke="black" points="408.77,-182.754 398.497,-180.163 404.911,-188.595 408.77,-182.754"/>
</g>
</g>
</svg>
