<?xml version="1.0" encoding="UTF-8" standalone="no"?>
<!DOCTYPE svg PUBLIC "-//W3C//DTD SVG 1.1//EN"
 "http://www.w3.org/Graphics/SVG/1.1/DTD/svg11.dtd">
<!-- Generated by graphviz version 2.26.3 (20100126.1600)
 -->
<!-- Title: _anonymous_0 Pages: 1 -->
<svg width="555pt" height="260pt"
 viewBox="0.00 0.00 555.00 260.00" xmlns="http://www.w3.org/2000/svg" xmlns:xlink="http://www.w3.org/1999/xlink">
<g id="graph1" class="graph" transform="scale(1 1) rotate(0) translate(4 256)">
<title>_anonymous_0</title>
<!-- MARKOV_PROPERTY -->
<g id="node1" class="node"><title>MARKOV_PROPERTY</title>
<a xlink:href="MARKOV_PROPERTY.html" xlink:title="The Markov Property" target="_top">
<polyline fill="none" stroke="blue" stroke-width="2" points="421,-180 283,-180 "/>
<path fill="none" stroke="blue" stroke-width="2" d="M283,-180C277,-180 271,-174 271,-168"/>
<polyline fill="none" stroke="blue" stroke-width="2" points="271,-168 271,-156 "/>
<path fill="none" stroke="blue" stroke-width="2" d="M271,-156C271,-150 277,-144 283,-144"/>
<polyline fill="none" stroke="blue" stroke-width="2" points="283,-144 421,-144 "/>
<path fill="none" stroke="blue" stroke-width="2" d="M421,-144C427,-144 433,-150 433,-156"/>
<polyline fill="none" stroke="blue" stroke-width="2" points="433,-156 433,-168 "/>
<path fill="none" stroke="blue" stroke-width="2" d="M433,-168C433,-174 427,-180 421,-180"/>
<text text-anchor="start" x="279" y="-159.233" font-family="Times Roman,serif" font-size="14.00">The Markov Property</text>
</a>
</g>
<!-- TRANSITION_MATRIX_OF_MARKOV_CHAIN -->
<g id="node4" class="node"><title>TRANSITION_MATRIX_OF_MARKOV_CHAIN</title>
<a xlink:href="TRANSITION_MATRIX_OF_MARKOV_CHAIN.html" xlink:title="Markovian transition matrix" target="_top">
<polyline fill="none" stroke="black" points="198,-108 12,-108 "/>
<path fill="none" stroke="black" d="M12,-108C6,-108 7.10543e-14,-102 5.68434e-14,-96"/>
<polyline fill="none" stroke="black" points="5.68434e-14,-96 2.84217e-14,-84 "/>
<path fill="none" stroke="black" d="M2.84217e-14,-84C1.42109e-14,-78 6,-72 12,-72"/>
<polyline fill="none" stroke="black" points="12,-72 198,-72 "/>
<path fill="none" stroke="black" d="M198,-72C204,-72 210,-78 210,-84"/>
<polyline fill="none" stroke="black" points="210,-84 210,-96 "/>
<path fill="none" stroke="black" d="M210,-96C210,-102 204,-108 198,-108"/>
<text text-anchor="start" x="8.5" y="-87.2333" font-family="Times Roman,serif" font-size="14.00">Markovian transition matrix</text>
</a>
</g>
<!-- MARKOV_PROPERTY&#45;&gt;TRANSITION_MATRIX_OF_MARKOV_CHAIN -->
<g id="edge4" class="edge"><title>MARKOV_PROPERTY&#45;&gt;TRANSITION_MATRIX_OF_MARKOV_CHAIN</title>
<path fill="none" stroke="black" d="M289.99,-143.924C255.637,-133.91 212.761,-121.412 176.939,-110.97"/>
<polygon fill="black" stroke="black" points="177.615,-107.522 167.035,-108.083 175.656,-114.242 177.615,-107.522"/>
</g>
<!-- CONTINUOUS_TIME_MARKOV_CHAIN -->
<g id="node6" class="node"><title>CONTINUOUS_TIME_MARKOV_CHAIN</title>
<a xlink:href="CONTINUOUS_TIME_MARKOV_CHAIN.html" xlink:title="Markov chains in continuous time" target="_top">
<polyline fill="none" stroke="black" points="464,-108 240,-108 "/>
<path fill="none" stroke="black" d="M240,-108C234,-108 228,-102 228,-96"/>
<polyline fill="none" stroke="black" points="228,-96 228,-84 "/>
<path fill="none" stroke="black" d="M228,-84C228,-78 234,-72 240,-72"/>
<polyline fill="none" stroke="black" points="240,-72 464,-72 "/>
<path fill="none" stroke="black" d="M464,-72C470,-72 476,-78 476,-84"/>
<polyline fill="none" stroke="black" points="476,-84 476,-96 "/>
<path fill="none" stroke="black" d="M476,-96C476,-102 470,-108 464,-108"/>
<text text-anchor="start" x="236" y="-87.2333" font-family="Times Roman,serif" font-size="14.00">Markov chains in continuous time</text>
</a>
</g>
<!-- MARKOV_PROPERTY&#45;&gt;CONTINUOUS_TIME_MARKOV_CHAIN -->
<g id="edge6" class="edge"><title>MARKOV_PROPERTY&#45;&gt;CONTINUOUS_TIME_MARKOV_CHAIN</title>
<path fill="none" stroke="black" d="M352,-143.831C352,-136.131 352,-126.974 352,-118.417"/>
<polygon fill="black" stroke="black" points="355.5,-118.413 352,-108.413 348.5,-118.413 355.5,-118.413"/>
</g>
<!-- MONTE_CARLO -->
<g id="node8" class="node"><title>MONTE_CARLO</title>
<a xlink:href="MONTE_CARLO.html" xlink:title="Monte Carlo Simulation" target="_top">
<polyline fill="none" stroke="black" points="382,-36 226,-36 "/>
<path fill="none" stroke="black" d="M226,-36C220,-36 214,-30 214,-24"/>
<polyline fill="none" stroke="black" points="214,-24 214,-12 "/>
<path fill="none" stroke="black" d="M214,-12C214,-6 220,-1.72899e-14 226,-1.68162e-14"/>
<polyline fill="none" stroke="black" points="226,-1.68162e-14 382,-4.5001e-15 "/>
<path fill="none" stroke="black" d="M382,-4.5001e-15C388,-4.02641e-15 394,-6 394,-12"/>
<polyline fill="none" stroke="black" points="394,-12 394,-24 "/>
<path fill="none" stroke="black" d="M394,-24C394,-30 388,-36 382,-36"/>
<text text-anchor="start" x="222.5" y="-15.2333" font-family="Times Roman,serif" font-size="14.00">Monte Carlo Simulation</text>
</a>
</g>
<!-- MARKOV_PROPERTY&#45;&gt;MONTE_CARLO -->
<g id="edge8" class="edge"><title>MARKOV_PROPERTY&#45;&gt;MONTE_CARLO</title>
<path fill="none" stroke="black" d="M433.18,-146.122C453.431,-138.12 472.822,-126.088 485,-108 493.936,-94.7278 494.561,-84.8294 485,-72 474.343,-57.6995 440.065,-45.8025 404.163,-36.8482"/>
<polygon fill="black" stroke="black" points="404.554,-33.3422 394.012,-34.4011 402.913,-40.1473 404.554,-33.3422"/>
</g>
<!-- INDEPENDENT_RANDOM_VARIABLES -->
<g id="node2" class="node"><title>INDEPENDENT_RANDOM_VARIABLES</title>
<a xlink:href="INDEPENDENT_RANDOM_VARIABLES.html" xlink:title="Independent random variables" target="_top">
<polyline fill="none" stroke="black" points="345,-252 141,-252 "/>
<path fill="none" stroke="black" d="M141,-252C135,-252 129,-246 129,-240"/>
<polyline fill="none" stroke="black" points="129,-240 129,-228 "/>
<path fill="none" stroke="black" d="M129,-228C129,-222 135,-216 141,-216"/>
<polyline fill="none" stroke="black" points="141,-216 345,-216 "/>
<path fill="none" stroke="black" d="M345,-216C351,-216 357,-222 357,-228"/>
<polyline fill="none" stroke="black" points="357,-228 357,-240 "/>
<path fill="none" stroke="black" d="M357,-240C357,-246 351,-252 345,-252"/>
<text text-anchor="start" x="137.5" y="-231.233" font-family="Times Roman,serif" font-size="14.00">Independent random variables</text>
</a>
</g>
<!-- INDEPENDENT_RANDOM_VARIABLES&#45;&gt;MARKOV_PROPERTY -->
<g id="edge2" class="edge"><title>INDEPENDENT_RANDOM_VARIABLES&#45;&gt;MARKOV_PROPERTY</title>
<path fill="none" stroke="black" d="M270.505,-215.831C284.318,-206.707 301.226,-195.539 316.053,-185.745"/>
<polygon fill="black" stroke="black" points="318.089,-188.595 324.503,-180.163 314.23,-182.754 318.089,-188.595"/>
</g>
<!-- TRANSITION_MATRIX_OF_MARKOV_CHAIN&#45;&gt;MONTE_CARLO -->
<!-- CONDITIONAL_PROBABILITY -->
<g id="node11" class="node"><title>CONDITIONAL_PROBABILITY</title>
<a xlink:href="CONDITIONAL_PROBABILITY.html" xlink:title="Conditional probability" target="_top">
<polyline fill="none" stroke="black" points="535,-252 387,-252 "/>
<path fill="none" stroke="black" d="M387,-252C381,-252 375,-246 375,-240"/>
<polyline fill="none" stroke="black" points="375,-240 375,-228 "/>
<path fill="none" stroke="black" d="M375,-228C375,-222 381,-216 387,-216"/>
<polyline fill="none" stroke="black" points="387,-216 535,-216 "/>
<path fill="none" stroke="black" d="M535,-216C541,-216 547,-222 547,-228"/>
<polyline fill="none" stroke="black" points="547,-228 547,-240 "/>
<path fill="none" stroke="black" d="M547,-240C547,-246 541,-252 535,-252"/>
<text text-anchor="start" x="383" y="-231.233" font-family="Times Roman,serif" font-size="14.00">Conditional probability</text>
</a>
</g>
<!-- CONDITIONAL_PROBABILITY&#45;&gt;MARKOV_PROPERTY -->
<g id="edge12" class="edge"><title>CONDITIONAL_PROBABILITY&#45;&gt;MARKOV_PROPERTY</title>
<path fill="none" stroke="black" d="M433.495,-215.831C419.682,-206.707 402.774,-195.539 387.947,-185.745"/>
<polygon fill="black" stroke="black" points="389.77,-182.754 379.497,-180.163 385.911,-188.595 389.77,-182.754"/>
</g>
</g>
</svg>
