<?xml version="1.0" encoding="UTF-8" standalone="no"?>
<!DOCTYPE svg PUBLIC "-//W3C//DTD SVG 1.1//EN"
 "http://www.w3.org/Graphics/SVG/1.1/DTD/svg11.dtd">
<!-- Generated by graphviz version 2.36.0 (20140111.2315)
 -->
<!-- Title: %3 Pages: 1 -->
<svg width="497pt" height="260pt"
 viewBox="0.00 0.00 497.00 260.00" xmlns="http://www.w3.org/2000/svg" xmlns:xlink="http://www.w3.org/1999/xlink">
<g id="graph0" class="graph" transform="scale(1 1) rotate(0) translate(4 256)">
<title>%3</title>
<!-- MARKOV_PROPERTY -->
<g id="node1" class="node"><title>MARKOV_PROPERTY</title>
<g id="a_node1"><a xlink:href="MARKOV_PROPERTY.html" xlink:title=" The Markov Property " target="_top">
<path fill="none" stroke="blue" stroke-width="2" d="M379.25,-180C379.25,-180 260.75,-180 260.75,-180 254.75,-180 248.75,-174 248.75,-168 248.75,-168 248.75,-156 248.75,-156 248.75,-150 254.75,-144 260.75,-144 260.75,-144 379.25,-144 379.25,-144 385.25,-144 391.25,-150 391.25,-156 391.25,-156 391.25,-168 391.25,-168 391.25,-174 385.25,-180 379.25,-180"/>
<text text-anchor="start" x="256.5" y="-158.3" font-family="Times,serif" font-size="14.00"> The Markov Property </text>
</a>
</g>
</g>
<!-- CONTINUOUS_TIME_MARKOV_CHAIN -->
<g id="node2" class="node"><title>CONTINUOUS_TIME_MARKOV_CHAIN</title>
<g id="a_node2"><a xlink:href="CONTINUOUS_TIME_MARKOV_CHAIN.html" xlink:title=" Markov chains in continuous time " target="_top">
<path fill="none" stroke="black" d="M199.5,-108C199.5,-108 12.5,-108 12.5,-108 6.5,-108 0.5,-102 0.5,-96 0.5,-96 0.5,-84 0.5,-84 0.5,-78 6.5,-72 12.5,-72 12.5,-72 199.5,-72 199.5,-72 205.5,-72 211.5,-78 211.5,-84 211.5,-84 211.5,-96 211.5,-96 211.5,-102 205.5,-108 199.5,-108"/>
<text text-anchor="start" x="8" y="-86.3" font-family="Times,serif" font-size="14.00"> Markov chains in continuous time </text>
</a>
</g>
</g>
<!-- MARKOV_PROPERTY&#45;&gt;CONTINUOUS_TIME_MARKOV_CHAIN -->
<g id="edge1" class="edge"><title>MARKOV_PROPERTY&#45;&gt;CONTINUOUS_TIME_MARKOV_CHAIN</title>
<path fill="none" stroke="black" d="M267.923,-143.966C237.763,-134.1 199.614,-121.622 167.922,-111.255"/>
<polygon fill="black" stroke="black" points="168.903,-107.893 158.31,-108.111 166.726,-114.546 168.903,-107.893"/>
</g>
<!-- TRANSITION_MATRIX_OF_MARKOV_CHAIN -->
<g id="node4" class="node"><title>TRANSITION_MATRIX_OF_MARKOV_CHAIN</title>
<g id="a_node4"><a xlink:href="TRANSITION_MATRIX_OF_MARKOV_CHAIN.html" xlink:title=" Markovian transition matrix " target="_top">
<path fill="none" stroke="black" d="M397.25,-108C397.25,-108 242.75,-108 242.75,-108 236.75,-108 230.75,-102 230.75,-96 230.75,-96 230.75,-84 230.75,-84 230.75,-78 236.75,-72 242.75,-72 242.75,-72 397.25,-72 397.25,-72 403.25,-72 409.25,-78 409.25,-84 409.25,-84 409.25,-96 409.25,-96 409.25,-102 403.25,-108 397.25,-108"/>
<text text-anchor="start" x="238.5" y="-86.3" font-family="Times,serif" font-size="14.00"> Markovian transition matrix </text>
</a>
</g>
</g>
<!-- MARKOV_PROPERTY&#45;&gt;TRANSITION_MATRIX_OF_MARKOV_CHAIN -->
<g id="edge3" class="edge"><title>MARKOV_PROPERTY&#45;&gt;TRANSITION_MATRIX_OF_MARKOV_CHAIN</title>
<path fill="none" stroke="black" d="M320,-143.697C320,-135.983 320,-126.712 320,-118.112"/>
<polygon fill="black" stroke="black" points="323.5,-118.104 320,-108.104 316.5,-118.104 323.5,-118.104"/>
</g>
<!-- MONTE_CARLO -->
<g id="node6" class="node"><title>MONTE_CARLO</title>
<g id="a_node6"><a xlink:href="MONTE_CARLO.html" xlink:title=" Monte Carlo Simulation " target="_top">
<path fill="none" stroke="black" d="M338.5,-36C338.5,-36 205.5,-36 205.5,-36 199.5,-36 193.5,-30 193.5,-24 193.5,-24 193.5,-12 193.5,-12 193.5,-6 199.5,-0 205.5,-0 205.5,-0 338.5,-0 338.5,-0 344.5,-0 350.5,-6 350.5,-12 350.5,-12 350.5,-24 350.5,-24 350.5,-30 344.5,-36 338.5,-36"/>
<text text-anchor="start" x="201" y="-14.3" font-family="Times,serif" font-size="14.00"> Monte Carlo Simulation </text>
</a>
</g>
</g>
<!-- MARKOV_PROPERTY&#45;&gt;MONTE_CARLO -->
<g id="edge5" class="edge"><title>MARKOV_PROPERTY&#45;&gt;MONTE_CARLO</title>
<path fill="none" stroke="black" d="M374.82,-143.961C391.658,-135.866 408.295,-124.283 418,-108 426.192,-94.2563 427.183,-85.1026 418,-72 404.323,-52.4846 382.69,-40.1271 360.223,-32.3111"/>
<polygon fill="black" stroke="black" points="361.155,-28.9347 350.565,-29.2318 359.029,-35.604 361.155,-28.9347"/>
</g>
<!-- CONTINUOUS_TIME_MARKOV_CHAIN&#45;&gt;MONTE_CARLO -->
<!-- INDEPENDENT_RANDOM_VARIABLES -->
<g id="node3" class="node"><title>INDEPENDENT_RANDOM_VARIABLES</title>
<g id="a_node3"><a xlink:href="INDEPENDENT_RANDOM_VARIABLES.html" xlink:title=" Independent random variables " target="_top">
<path fill="none" stroke="black" d="M308.25,-252C308.25,-252 143.75,-252 143.75,-252 137.75,-252 131.75,-246 131.75,-240 131.75,-240 131.75,-228 131.75,-228 131.75,-222 137.75,-216 143.75,-216 143.75,-216 308.25,-216 308.25,-216 314.25,-216 320.25,-222 320.25,-228 320.25,-228 320.25,-240 320.25,-240 320.25,-246 314.25,-252 308.25,-252"/>
<text text-anchor="start" x="139.5" y="-230.3" font-family="Times,serif" font-size="14.00"> Independent random variables </text>
</a>
</g>
</g>
<!-- INDEPENDENT_RANDOM_VARIABLES&#45;&gt;MARKOV_PROPERTY -->
<g id="edge2" class="edge"><title>INDEPENDENT_RANDOM_VARIABLES&#45;&gt;MARKOV_PROPERTY</title>
<path fill="none" stroke="black" d="M249.236,-215.697C261.188,-206.796 275.923,-195.823 288.847,-186.199"/>
<polygon fill="black" stroke="black" points="291.101,-188.884 297.031,-180.104 286.92,-183.27 291.101,-188.884"/>
</g>
<!-- CONDITIONAL_PROBABILITY -->
<g id="node5" class="node"><title>CONDITIONAL_PROBABILITY</title>
<g id="a_node5"><a xlink:href="CONDITIONAL_PROBABILITY.html" xlink:title=" Conditional probability " target="_top">
<path fill="none" stroke="black" d="M477.25,-252C477.25,-252 350.75,-252 350.75,-252 344.75,-252 338.75,-246 338.75,-240 338.75,-240 338.75,-228 338.75,-228 338.75,-222 344.75,-216 350.75,-216 350.75,-216 477.25,-216 477.25,-216 483.25,-216 489.25,-222 489.25,-228 489.25,-228 489.25,-240 489.25,-240 489.25,-246 483.25,-252 477.25,-252"/>
<text text-anchor="start" x="346.5" y="-230.3" font-family="Times,serif" font-size="14.00"> Conditional probability </text>
</a>
</g>
</g>
<!-- CONDITIONAL_PROBABILITY&#45;&gt;MARKOV_PROPERTY -->
<g id="edge4" class="edge"><title>CONDITIONAL_PROBABILITY&#45;&gt;MARKOV_PROPERTY</title>
<path fill="none" stroke="black" d="M390.764,-215.697C378.812,-206.796 364.077,-195.823 351.153,-186.199"/>
<polygon fill="black" stroke="black" points="353.08,-183.27 342.969,-180.104 348.899,-188.884 353.08,-183.27"/>
</g>
</g>
</svg>
