<?xml version="1.0" encoding="UTF-8" standalone="no"?>
<!DOCTYPE svg PUBLIC "-//W3C//DTD SVG 1.1//EN"
 "http://www.w3.org/Graphics/SVG/1.1/DTD/svg11.dtd">
<!-- Generated by graphviz version 2.28.0 (20110509.1545)
 -->
<!-- Title: _anonymous_0 Pages: 1 -->
<svg width="408pt" height="188pt"
 viewBox="0.00 0.00 408.00 188.00" xmlns="http://www.w3.org/2000/svg" xmlns:xlink="http://www.w3.org/1999/xlink">
<g id="graph1" class="graph" transform="scale(1 1) rotate(0) translate(4 184)">
<title>_anonymous_0</title>
<!-- MARKOV_PROPERTY -->
<g id="node1" class="node"><title>MARKOV_PROPERTY</title>
<a xlink:href="MARKOV_PROPERTY.html" xlink:title="The Markov Property" target="_top">
<polyline fill="none" stroke="blue" stroke-width="2" points="265,-108 151,-108 "/>
<path fill="none" stroke="blue" stroke-width="2" d="M151,-108C145,-108 139,-102 139,-96"/>
<polyline fill="none" stroke="blue" stroke-width="2" points="139,-96 139,-84 "/>
<path fill="none" stroke="blue" stroke-width="2" d="M139,-84C139,-78 145,-72 151,-72"/>
<polyline fill="none" stroke="blue" stroke-width="2" points="151,-72 265,-72 "/>
<path fill="none" stroke="blue" stroke-width="2" d="M265,-72C271,-72 277,-78 277,-84"/>
<polyline fill="none" stroke="blue" stroke-width="2" points="277,-84 277,-96 "/>
<path fill="none" stroke="blue" stroke-width="2" d="M277,-96C277,-102 271,-108 265,-108"/>
<text text-anchor="start" x="147.5" y="-84.5" font-family="Times,serif" font-size="14.00">The Markov Property</text>
</a>
</g>
<!-- CONTINUOUS_TIME_MARKOV_CHAIN -->
<g id="node4" class="node"><title>CONTINUOUS_TIME_MARKOV_CHAIN</title>
<a xlink:href="CONTINUOUS_TIME_MARKOV_CHAIN.html" xlink:title="Markov chains in continuous time" target="_top">
<polyline fill="none" stroke="black" points="196,-36 12,-36 "/>
<path fill="none" stroke="black" d="M12,-36C6,-36 0,-30 0,-24"/>
<polyline fill="none" stroke="black" points="0,-24 0,-12 "/>
<path fill="none" stroke="black" d="M0,-12C0,-6 6,-0 12,-0"/>
<polyline fill="none" stroke="black" points="12,-0 196,-0 "/>
<path fill="none" stroke="black" d="M196,-0C202,-0 208,-6 208,-12"/>
<polyline fill="none" stroke="black" points="208,-12 208,-24 "/>
<path fill="none" stroke="black" d="M208,-24C208,-30 202,-36 196,-36"/>
<text text-anchor="start" x="8.5" y="-12.5" font-family="Times,serif" font-size="14.00">Markov chains in continuous time</text>
</a>
</g>
<!-- MARKOV_PROPERTY&#45;&gt;CONTINUOUS_TIME_MARKOV_CHAIN -->
<g id="edge4" class="edge"><title>MARKOV_PROPERTY&#45;&gt;CONTINUOUS_TIME_MARKOV_CHAIN</title>
<path fill="none" stroke="black" d="M182.559,-71.8761C169.213,-62.8931 152.676,-51.7625 138.222,-42.0341"/>
<polygon fill="black" stroke="black" points="139.789,-38.87 129.539,-36.1898 135.881,-44.6771 139.789,-38.87"/>
</g>
<!-- TRANSITION_MATRIX_OF_MARKOV_CHAIN -->
<g id="node6" class="node"><title>TRANSITION_MATRIX_OF_MARKOV_CHAIN</title>
<a xlink:href="TRANSITION_MATRIX_OF_MARKOV_CHAIN.html" xlink:title="Markovian transition matrix" target="_top">
<polyline fill="none" stroke="black" points="388,-36 238,-36 "/>
<path fill="none" stroke="black" d="M238,-36C232,-36 226,-30 226,-24"/>
<polyline fill="none" stroke="black" points="226,-24 226,-12 "/>
<path fill="none" stroke="black" d="M226,-12C226,-6 232,-0 238,-0"/>
<polyline fill="none" stroke="black" points="238,-0 388,-0 "/>
<path fill="none" stroke="black" d="M388,-0C394,-0 400,-6 400,-12"/>
<polyline fill="none" stroke="black" points="400,-12 400,-24 "/>
<path fill="none" stroke="black" d="M400,-24C400,-30 394,-36 388,-36"/>
<text text-anchor="start" x="234.5" y="-12.5" font-family="Times,serif" font-size="14.00">Markovian transition matrix</text>
</a>
</g>
<!-- MARKOV_PROPERTY&#45;&gt;TRANSITION_MATRIX_OF_MARKOV_CHAIN -->
<g id="edge6" class="edge"><title>MARKOV_PROPERTY&#45;&gt;TRANSITION_MATRIX_OF_MARKOV_CHAIN</title>
<path fill="none" stroke="black" d="M233.686,-71.8761C247.288,-62.8083 264.172,-51.5523 278.861,-41.7592"/>
<polygon fill="black" stroke="black" points="280.836,-44.649 287.215,-36.1898 276.953,-38.8246 280.836,-44.649"/>
</g>
<!-- CONDITIONAL_PROBABILITY -->
<g id="node2" class="node"><title>CONDITIONAL_PROBABILITY</title>
<a xlink:href="CONDITIONAL_PROBABILITY.html" xlink:title="Conditional probability" target="_top">
<polyline fill="none" stroke="black" points="270,-180 146,-180 "/>
<path fill="none" stroke="black" d="M146,-180C140,-180 134,-174 134,-168"/>
<polyline fill="none" stroke="black" points="134,-168 134,-156 "/>
<path fill="none" stroke="black" d="M134,-156C134,-150 140,-144 146,-144"/>
<polyline fill="none" stroke="black" points="146,-144 270,-144 "/>
<path fill="none" stroke="black" d="M270,-144C276,-144 282,-150 282,-156"/>
<polyline fill="none" stroke="black" points="282,-156 282,-168 "/>
<path fill="none" stroke="black" d="M282,-168C282,-174 276,-180 270,-180"/>
<text text-anchor="start" x="142.5" y="-156.5" font-family="Times,serif" font-size="14.00">Conditional probability</text>
</a>
</g>
<!-- CONDITIONAL_PROBABILITY&#45;&gt;MARKOV_PROPERTY -->
<g id="edge2" class="edge"><title>CONDITIONAL_PROBABILITY&#45;&gt;MARKOV_PROPERTY</title>
<path fill="none" stroke="black" d="M208,-143.697C208,-135.983 208,-126.712 208,-118.112"/>
<polygon fill="black" stroke="black" points="211.5,-118.104 208,-108.104 204.5,-118.104 211.5,-118.104"/>
</g>
</g>
</svg>
