<?xml version="1.0" encoding="UTF-8" standalone="no"?>
<!DOCTYPE svg PUBLIC "-//W3C//DTD SVG 1.1//EN"
 "http://www.w3.org/Graphics/SVG/1.1/DTD/svg11.dtd">
<!-- Generated by graphviz version 2.28.0 (20110509.1545)
 -->
<!-- Title: _anonymous_0 Pages: 1 -->
<svg width="410pt" height="260pt"
 viewBox="0.00 0.00 410.00 260.00" xmlns="http://www.w3.org/2000/svg" xmlns:xlink="http://www.w3.org/1999/xlink">
<g id="graph1" class="graph" transform="scale(1 1) rotate(0) translate(4 256)">
<title>_anonymous_0</title>
<!-- MATRIX_MULTIPLICATION -->
<g id="node1" class="node"><title>MATRIX_MULTIPLICATION</title>
<a xlink:href="MATRIX_MULTIPLICATION.html" xlink:title="Matrix multiplication" target="_top">
<polyline fill="none" stroke="blue" stroke-width="2" points="361.25,-180 248.75,-180 "/>
<path fill="none" stroke="blue" stroke-width="2" d="M248.75,-180C242.75,-180 236.75,-174 236.75,-168"/>
<polyline fill="none" stroke="blue" stroke-width="2" points="236.75,-168 236.75,-156 "/>
<path fill="none" stroke="blue" stroke-width="2" d="M236.75,-156C236.75,-150 242.75,-144 248.75,-144"/>
<polyline fill="none" stroke="blue" stroke-width="2" points="248.75,-144 361.25,-144 "/>
<path fill="none" stroke="blue" stroke-width="2" d="M361.25,-144C367.25,-144 373.25,-150 373.25,-156"/>
<polyline fill="none" stroke="blue" stroke-width="2" points="373.25,-156 373.25,-168 "/>
<path fill="none" stroke="blue" stroke-width="2" d="M373.25,-168C373.25,-174 367.25,-180 361.25,-180"/>
<text text-anchor="start" x="245" y="-156.5" font-family="Times,serif" font-size="14.00">Matrix multiplication</text>
</a>
</g>
<!-- CHAPMAN_KOLMOGOROV_RELATION -->
<g id="node2" class="node"><title>CHAPMAN_KOLMOGOROV_RELATION</title>
<a xlink:href="CHAPMAN_KOLMOGOROV_RELATION.html" xlink:title="The Chapman Kolmogorov Relation" target="_top">
<polyline fill="none" stroke="black" points="208.25,-108 11.75,-108 "/>
<path fill="none" stroke="black" d="M11.75,-108C5.75,-108 -0.25,-102 -0.25,-96"/>
<polyline fill="none" stroke="black" points="-0.25,-96 -0.25,-84 "/>
<path fill="none" stroke="black" d="M-0.25,-84C-0.25,-78 5.75,-72 11.75,-72"/>
<polyline fill="none" stroke="black" points="11.75,-72 208.25,-72 "/>
<path fill="none" stroke="black" d="M208.25,-72C214.25,-72 220.25,-78 220.25,-84"/>
<polyline fill="none" stroke="black" points="220.25,-84 220.25,-96 "/>
<path fill="none" stroke="black" d="M220.25,-96C220.25,-102 214.25,-108 208.25,-108"/>
<text text-anchor="start" x="8" y="-84.5" font-family="Times,serif" font-size="14.00">The Chapman Kolmogorov Relation</text>
</a>
</g>
<!-- MATRIX_MULTIPLICATION&#45;&gt;CHAPMAN_KOLMOGOROV_RELATION -->
<g id="edge2" class="edge"><title>MATRIX_MULTIPLICATION&#45;&gt;CHAPMAN_KOLMOGOROV_RELATION</title>
<path fill="none" stroke="black" d="M257.298,-143.876C230.048,-134.094 195.703,-121.765 167.034,-111.474"/>
<polygon fill="black" stroke="black" points="168.142,-108.153 157.547,-108.068 165.777,-114.741 168.142,-108.153"/>
</g>
<!-- DIFFERENCE_EQUATIONS -->
<g id="node4" class="node"><title>DIFFERENCE_EQUATIONS</title>
<a xlink:href="DIFFERENCE_EQUATIONS.html" xlink:title="Difference equations" target="_top">
<polyline fill="none" stroke="black" points="359.25,-108 250.75,-108 "/>
<path fill="none" stroke="black" d="M250.75,-108C244.75,-108 238.75,-102 238.75,-96"/>
<polyline fill="none" stroke="black" points="238.75,-96 238.75,-84 "/>
<path fill="none" stroke="black" d="M238.75,-84C238.75,-78 244.75,-72 250.75,-72"/>
<polyline fill="none" stroke="black" points="250.75,-72 359.25,-72 "/>
<path fill="none" stroke="black" d="M359.25,-72C365.25,-72 371.25,-78 371.25,-84"/>
<polyline fill="none" stroke="black" points="371.25,-84 371.25,-96 "/>
<path fill="none" stroke="black" d="M371.25,-96C371.25,-102 365.25,-108 359.25,-108"/>
<text text-anchor="start" x="247" y="-84.5" font-family="Times,serif" font-size="14.00">Difference equations</text>
</a>
</g>
<!-- MATRIX_MULTIPLICATION&#45;&gt;DIFFERENCE_EQUATIONS -->
<g id="edge4" class="edge"><title>MATRIX_MULTIPLICATION&#45;&gt;DIFFERENCE_EQUATIONS</title>
<path fill="none" stroke="black" d="M305,-143.697C305,-135.983 305,-126.712 305,-118.112"/>
<polygon fill="black" stroke="black" points="308.5,-118.104 305,-108.104 301.5,-118.104 308.5,-118.104"/>
</g>
<!-- MATRIX_POWERS -->
<g id="node8" class="node"><title>MATRIX_POWERS</title>
<a xlink:href="MATRIX_POWERS.html" xlink:title="Taking positive integer powers of a square matrix" target="_top">
<polyline fill="none" stroke="black" points="390,-36 120,-36 "/>
<path fill="none" stroke="black" d="M120,-36C114,-36 108,-30 108,-24"/>
<polyline fill="none" stroke="black" points="108,-24 108,-12 "/>
<path fill="none" stroke="black" d="M108,-12C108,-6 114,-0 120,-0"/>
<polyline fill="none" stroke="black" points="120,-0 390,-0 "/>
<path fill="none" stroke="black" d="M390,-0C396,-0 402,-6 402,-12"/>
<polyline fill="none" stroke="black" points="402,-12 402,-24 "/>
<path fill="none" stroke="black" d="M402,-24C402,-30 396,-36 390,-36"/>
<text text-anchor="start" x="116.5" y="-12.5" font-family="Times,serif" font-size="14.00">Taking positive integer powers of a square matrix</text>
</a>
</g>
<!-- MATRIX_MULTIPLICATION&#45;&gt;MATRIX_POWERS -->
<g id="edge8" class="edge"><title>MATRIX_MULTIPLICATION&#45;&gt;MATRIX_POWERS</title>
<path fill="none" stroke="black" d="M342.883,-143.909C357.226,-135.332 372.009,-123.433 380,-108 387.357,-93.7919 388.834,-85.3404 380,-72 370.893,-58.2473 357.425,-48.053 342.661,-40.4994"/>
<polygon fill="black" stroke="black" points="343.868,-37.2001 333.328,-36.1292 340.9,-43.5396 343.868,-37.2001"/>
</g>
<!-- CHAPMAN_KOLMOGOROV_RELATION&#45;&gt;MATRIX_POWERS -->
<!-- MATRIX_INTRO -->
<g id="node6" class="node"><title>MATRIX_INTRO</title>
<a xlink:href="MATRIX_INTRO.html" xlink:title="Introduction to matrices" target="_top">
<polyline fill="none" stroke="black" points="368.25,-252 241.75,-252 "/>
<path fill="none" stroke="black" d="M241.75,-252C235.75,-252 229.75,-246 229.75,-240"/>
<polyline fill="none" stroke="black" points="229.75,-240 229.75,-228 "/>
<path fill="none" stroke="black" d="M229.75,-228C229.75,-222 235.75,-216 241.75,-216"/>
<polyline fill="none" stroke="black" points="241.75,-216 368.25,-216 "/>
<path fill="none" stroke="black" d="M368.25,-216C374.25,-216 380.25,-222 380.25,-228"/>
<polyline fill="none" stroke="black" points="380.25,-228 380.25,-240 "/>
<path fill="none" stroke="black" d="M380.25,-240C380.25,-246 374.25,-252 368.25,-252"/>
<text text-anchor="start" x="238" y="-228.5" font-family="Times,serif" font-size="14.00">Introduction to matrices</text>
</a>
</g>
<!-- MATRIX_INTRO&#45;&gt;MATRIX_MULTIPLICATION -->
<g id="edge6" class="edge"><title>MATRIX_INTRO&#45;&gt;MATRIX_MULTIPLICATION</title>
<path fill="none" stroke="black" d="M305,-215.697C305,-207.983 305,-198.712 305,-190.112"/>
<polygon fill="black" stroke="black" points="308.5,-190.104 305,-180.104 301.5,-190.104 308.5,-190.104"/>
</g>
</g>
</svg>
