<?xml version="1.0" encoding="UTF-8" standalone="no"?>
<!DOCTYPE svg PUBLIC "-//W3C//DTD SVG 1.1//EN"
 "http://www.w3.org/Graphics/SVG/1.1/DTD/svg11.dtd">
<!-- Generated by graphviz version 2.28.0 (20110509.1545)
 -->
<!-- Title: _anonymous_0 Pages: 1 -->
<svg width="300pt" height="188pt"
 viewBox="0.00 0.00 300.03 188.00" xmlns="http://www.w3.org/2000/svg" xmlns:xlink="http://www.w3.org/1999/xlink">
<g id="graph1" class="graph" transform="scale(1 1) rotate(0) translate(4 184)">
<title>_anonymous_0</title>
<!-- MATRIX_INTRO -->
<g id="node1" class="node"><title>MATRIX_INTRO</title>
<a xlink:href="MATRIX_INTRO.html" xlink:title="Introduction to matrices" target="_top">
<polyline fill="none" stroke="blue" stroke-width="2" points="272.25,-180 145.75,-180 "/>
<path fill="none" stroke="blue" stroke-width="2" d="M145.75,-180C139.75,-180 133.75,-174 133.75,-168"/>
<polyline fill="none" stroke="blue" stroke-width="2" points="133.75,-168 133.75,-156 "/>
<path fill="none" stroke="blue" stroke-width="2" d="M133.75,-156C133.75,-150 139.75,-144 145.75,-144"/>
<polyline fill="none" stroke="blue" stroke-width="2" points="145.75,-144 272.25,-144 "/>
<path fill="none" stroke="blue" stroke-width="2" d="M272.25,-144C278.25,-144 284.25,-150 284.25,-156"/>
<polyline fill="none" stroke="blue" stroke-width="2" points="284.25,-156 284.25,-168 "/>
<path fill="none" stroke="blue" stroke-width="2" d="M284.25,-168C284.25,-174 278.25,-180 272.25,-180"/>
<text text-anchor="start" x="142" y="-156.5" font-family="Times,serif" font-size="14.00">Introduction to matrices</text>
</a>
</g>
<!-- MATRIX_INVERSE -->
<g id="node2" class="node"><title>MATRIX_INVERSE</title>
<a xlink:href="MATRIX_INVERSE.html" xlink:title="The matrix inverse" target="_top">
<polyline fill="none" stroke="black" points="110,-108 12,-108 "/>
<path fill="none" stroke="black" d="M12,-108C6,-108 7.10543e-15,-102 7.10543e-15,-96"/>
<polyline fill="none" stroke="black" points="7.10543e-15,-96 7.10543e-15,-84 "/>
<path fill="none" stroke="black" d="M7.10543e-15,-84C7.10543e-15,-78 6,-72 12,-72"/>
<polyline fill="none" stroke="black" points="12,-72 110,-72 "/>
<path fill="none" stroke="black" d="M110,-72C116,-72 122,-78 122,-84"/>
<polyline fill="none" stroke="black" points="122,-84 122,-96 "/>
<path fill="none" stroke="black" d="M122,-96C122,-102 116,-108 110,-108"/>
<text text-anchor="start" x="8.5" y="-84.5" font-family="Times,serif" font-size="14.00">The matrix inverse</text>
</a>
</g>
<!-- MATRIX_INTRO&#45;&gt;MATRIX_INVERSE -->
<g id="edge2" class="edge"><title>MATRIX_INTRO&#45;&gt;MATRIX_INVERSE</title>
<path fill="none" stroke="black" d="M172.795,-143.876C152.742,-134.392 127.628,-122.513 106.286,-112.419"/>
<polygon fill="black" stroke="black" points="107.624,-109.18 97.0873,-108.068 104.631,-115.508 107.624,-109.18"/>
</g>
<!-- MATRIX_MULTIPLICATION -->
<g id="node4" class="node"><title>MATRIX_MULTIPLICATION</title>
<a xlink:href="MATRIX_MULTIPLICATION.html" xlink:title="Matrix multiplication" target="_top">
<polyline fill="none" stroke="black" points="265.25,-108 152.75,-108 "/>
<path fill="none" stroke="black" d="M152.75,-108C146.75,-108 140.75,-102 140.75,-96"/>
<polyline fill="none" stroke="black" points="140.75,-96 140.75,-84 "/>
<path fill="none" stroke="black" d="M140.75,-84C140.75,-78 146.75,-72 152.75,-72"/>
<polyline fill="none" stroke="black" points="152.75,-72 265.25,-72 "/>
<path fill="none" stroke="black" d="M265.25,-72C271.25,-72 277.25,-78 277.25,-84"/>
<polyline fill="none" stroke="black" points="277.25,-84 277.25,-96 "/>
<path fill="none" stroke="black" d="M277.25,-96C277.25,-102 271.25,-108 265.25,-108"/>
<text text-anchor="start" x="149" y="-84.5" font-family="Times,serif" font-size="14.00">Matrix multiplication</text>
</a>
</g>
<!-- MATRIX_INTRO&#45;&gt;MATRIX_MULTIPLICATION -->
<g id="edge4" class="edge"><title>MATRIX_INTRO&#45;&gt;MATRIX_MULTIPLICATION</title>
<path fill="none" stroke="black" d="M209,-143.697C209,-135.983 209,-126.712 209,-118.112"/>
<polygon fill="black" stroke="black" points="212.5,-118.104 209,-108.104 205.5,-118.104 212.5,-118.104"/>
</g>
<!-- TRANSITION_MATRIX_OF_MARKOV_CHAIN -->
<g id="node6" class="node"><title>TRANSITION_MATRIX_OF_MARKOV_CHAIN</title>
<a xlink:href="TRANSITION_MATRIX_OF_MARKOV_CHAIN.html" xlink:title="Markovian transition matrix" target="_top">
<polyline fill="none" stroke="black" points="258,-36 108,-36 "/>
<path fill="none" stroke="black" d="M108,-36C102,-36 96,-30 96,-24"/>
<polyline fill="none" stroke="black" points="96,-24 96,-12 "/>
<path fill="none" stroke="black" d="M96,-12C96,-6 102,-0 108,-0"/>
<polyline fill="none" stroke="black" points="108,-0 258,-0 "/>
<path fill="none" stroke="black" d="M258,-0C264,-0 270,-6 270,-12"/>
<polyline fill="none" stroke="black" points="270,-12 270,-24 "/>
<path fill="none" stroke="black" d="M270,-24C270,-30 264,-36 258,-36"/>
<text text-anchor="start" x="104.5" y="-12.5" font-family="Times,serif" font-size="14.00">Markovian transition matrix</text>
</a>
</g>
<!-- MATRIX_INTRO&#45;&gt;TRANSITION_MATRIX_OF_MARKOV_CHAIN -->
<g id="edge6" class="edge"><title>MATRIX_INTRO&#45;&gt;TRANSITION_MATRIX_OF_MARKOV_CHAIN</title>
<path fill="none" stroke="black" d="M248.273,-143.895C262.866,-135.371 277.845,-123.514 286,-108 293.445,-93.8376 294.333,-85.6589 286,-72 277.795,-58.5507 264.966,-48.3696 251.112,-40.7159"/>
<polygon fill="black" stroke="black" points="252.4,-37.4445 241.898,-36.0423 249.233,-43.6874 252.4,-37.4445"/>
</g>
<!-- MATRIX_INVERSE&#45;&gt;TRANSITION_MATRIX_OF_MARKOV_CHAIN -->
</g>
</svg>
