<?xml version="1.0" encoding="UTF-8" standalone="no"?>
<!DOCTYPE svg PUBLIC "-//W3C//DTD SVG 1.1//EN"
 "http://www.w3.org/Graphics/SVG/1.1/DTD/svg11.dtd">
<!-- Generated by graphviz version 2.26.3 (20100126.1600)
 -->
<!-- Title: _anonymous_0 Pages: 1 -->
<svg width="366pt" height="188pt"
 viewBox="0.00 0.00 366.00 188.00" xmlns="http://www.w3.org/2000/svg" xmlns:xlink="http://www.w3.org/1999/xlink">
<g id="graph1" class="graph" transform="scale(1 1) rotate(0) translate(4 184)">
<title>_anonymous_0</title>
<!-- MATRIX_POWERS -->
<g id="node1" class="node"><title>MATRIX_POWERS</title>
<a xlink:href="MATRIX_POWERS.html" xlink:title="Taking positive integer powers of a square matrix" target="_top">
<polyline fill="none" stroke="blue" stroke-width="2" points="346,-108 12,-108 "/>
<path fill="none" stroke="blue" stroke-width="2" d="M12,-108C6,-108 1.42109e-13,-102 1.13687e-13,-96"/>
<polyline fill="none" stroke="blue" stroke-width="2" points="1.13687e-13,-96 5.68434e-14,-84 "/>
<path fill="none" stroke="blue" stroke-width="2" d="M5.68434e-14,-84C2.84217e-14,-78 6,-72 12,-72"/>
<polyline fill="none" stroke="blue" stroke-width="2" points="12,-72 346,-72 "/>
<path fill="none" stroke="blue" stroke-width="2" d="M346,-72C352,-72 358,-78 358,-84"/>
<polyline fill="none" stroke="blue" stroke-width="2" points="358,-84 358,-96 "/>
<path fill="none" stroke="blue" stroke-width="2" d="M358,-96C358,-102 352,-108 346,-108"/>
<text text-anchor="start" x="8" y="-87.2333" font-family="Times Roman,serif" font-size="14.00">Taking positive integer powers of a square matrix</text>
</a>
</g>
<!-- CHAPMAN_KOLMOGOROV_RELATION -->
<g id="node2" class="node"><title>CHAPMAN_KOLMOGOROV_RELATION</title>
<a xlink:href="CHAPMAN_KOLMOGOROV_RELATION.html" xlink:title="The Chapman Kolmogorov Relation" target="_top">
<polyline fill="none" stroke="black" points="296,-36 62,-36 "/>
<path fill="none" stroke="black" d="M62,-36C56,-36 50,-30 50,-24"/>
<polyline fill="none" stroke="black" points="50,-24 50,-12 "/>
<path fill="none" stroke="black" d="M50,-12C50,-6 56,-1.74331e-14 62,-1.71026e-14"/>
<polyline fill="none" stroke="black" points="62,-1.71026e-14 296,-4.21368e-15 "/>
<path fill="none" stroke="black" d="M296,-4.21368e-15C302,-3.8832e-15 308,-6 308,-12"/>
<polyline fill="none" stroke="black" points="308,-12 308,-24 "/>
<path fill="none" stroke="black" d="M308,-24C308,-30 302,-36 296,-36"/>
<text text-anchor="start" x="58" y="-15.2333" font-family="Times Roman,serif" font-size="14.00">The Chapman Kolmogorov Relation</text>
</a>
</g>
<!-- MATRIX_POWERS&#45;&gt;CHAPMAN_KOLMOGOROV_RELATION -->
<g id="edge2" class="edge"><title>MATRIX_POWERS&#45;&gt;CHAPMAN_KOLMOGOROV_RELATION</title>
<path fill="none" stroke="black" d="M179,-71.8314C179,-64.131 179,-54.9743 179,-46.4166"/>
<polygon fill="black" stroke="black" points="182.5,-46.4132 179,-36.4133 175.5,-46.4133 182.5,-46.4132"/>
</g>
<!-- MATRIX_MULTIPLICATION -->
<g id="node4" class="node"><title>MATRIX_MULTIPLICATION</title>
<a xlink:href="MATRIX_MULTIPLICATION.html" xlink:title="Matrix multiplication" target="_top">
<polyline fill="none" stroke="black" points="246,-180 112,-180 "/>
<path fill="none" stroke="black" d="M112,-180C106,-180 100,-174 100,-168"/>
<polyline fill="none" stroke="black" points="100,-168 100,-156 "/>
<path fill="none" stroke="black" d="M100,-156C100,-150 106,-144 112,-144"/>
<polyline fill="none" stroke="black" points="112,-144 246,-144 "/>
<path fill="none" stroke="black" d="M246,-144C252,-144 258,-150 258,-156"/>
<polyline fill="none" stroke="black" points="258,-156 258,-168 "/>
<path fill="none" stroke="black" d="M258,-168C258,-174 252,-180 246,-180"/>
<text text-anchor="start" x="108" y="-159.233" font-family="Times Roman,serif" font-size="14.00">Matrix multiplication</text>
</a>
</g>
<!-- MATRIX_MULTIPLICATION&#45;&gt;MATRIX_POWERS -->
<g id="edge4" class="edge"><title>MATRIX_MULTIPLICATION&#45;&gt;MATRIX_POWERS</title>
<path fill="none" stroke="black" d="M179,-143.831C179,-136.131 179,-126.974 179,-118.417"/>
<polygon fill="black" stroke="black" points="182.5,-118.413 179,-108.413 175.5,-118.413 182.5,-118.413"/>
</g>
</g>
</svg>
