<?xml version="1.0" encoding="UTF-8" standalone="no"?>
<!DOCTYPE svg PUBLIC "-//W3C//DTD SVG 1.1//EN"
 "http://www.w3.org/Graphics/SVG/1.1/DTD/svg11.dtd">
<!-- Generated by graphviz version 2.26.3 (20100126.1600)
 -->
<!-- Title: _anonymous_0 Pages: 1 -->
<svg width="410pt" height="188pt"
 viewBox="0.00 0.00 409.69 188.00" xmlns="http://www.w3.org/2000/svg" xmlns:xlink="http://www.w3.org/1999/xlink">
<g id="graph1" class="graph" transform="scale(1 1) rotate(0) translate(4 184)">
<title>_anonymous_0</title>
<!-- MATRIX_INTRO -->
<g id="node1" class="node"><title>MATRIX_INTRO</title>
<a xlink:href="MATRIX_INTRO.html" xlink:title="Introduction to matrices" target="_top">
<polyline fill="none" stroke="blue" stroke-width="2" points="361,-180 201,-180 "/>
<path fill="none" stroke="blue" stroke-width="2" d="M201,-180C195,-180 189,-174 189,-168"/>
<polyline fill="none" stroke="blue" stroke-width="2" points="189,-168 189,-156 "/>
<path fill="none" stroke="blue" stroke-width="2" d="M189,-156C189,-150 195,-144 201,-144"/>
<polyline fill="none" stroke="blue" stroke-width="2" points="201,-144 361,-144 "/>
<path fill="none" stroke="blue" stroke-width="2" d="M361,-144C367,-144 373,-150 373,-156"/>
<polyline fill="none" stroke="blue" stroke-width="2" points="373,-156 373,-168 "/>
<path fill="none" stroke="blue" stroke-width="2" d="M373,-168C373,-174 367,-180 361,-180"/>
<text text-anchor="start" x="197.5" y="-159.233" font-family="Times Roman,serif" font-size="14.00">Introduction to matrices</text>
</a>
</g>
<!-- MATRIX_MULTIPLICATION -->
<g id="node2" class="node"><title>MATRIX_MULTIPLICATION</title>
<a xlink:href="MATRIX_MULTIPLICATION.html" xlink:title="Matrix multiplication" target="_top">
<polyline fill="none" stroke="black" points="146,-108 12,-108 "/>
<path fill="none" stroke="black" d="M12,-108C6,-108 7.10543e-14,-102 5.68434e-14,-96"/>
<polyline fill="none" stroke="black" points="5.68434e-14,-96 2.84217e-14,-84 "/>
<path fill="none" stroke="black" d="M2.84217e-14,-84C1.42109e-14,-78 6,-72 12,-72"/>
<polyline fill="none" stroke="black" points="12,-72 146,-72 "/>
<path fill="none" stroke="black" d="M146,-72C152,-72 158,-78 158,-84"/>
<polyline fill="none" stroke="black" points="158,-84 158,-96 "/>
<path fill="none" stroke="black" d="M158,-96C158,-102 152,-108 146,-108"/>
<text text-anchor="start" x="8" y="-87.2333" font-family="Times Roman,serif" font-size="14.00">Matrix multiplication</text>
</a>
</g>
<!-- MATRIX_INTRO&#45;&gt;MATRIX_MULTIPLICATION -->
<g id="edge2" class="edge"><title>MATRIX_INTRO&#45;&gt;MATRIX_MULTIPLICATION</title>
<path fill="none" stroke="black" d="M230.288,-143.924C202.673,-134.081 168.325,-121.839 139.34,-111.507"/>
<polygon fill="black" stroke="black" points="140.328,-108.144 129.733,-108.083 137.978,-114.737 140.328,-108.144"/>
</g>
<!-- TRANSITION_MATRIX_OF_MARKOV_CHAIN -->
<g id="node4" class="node"><title>TRANSITION_MATRIX_OF_MARKOV_CHAIN</title>
<a xlink:href="TRANSITION_MATRIX_OF_MARKOV_CHAIN.html" xlink:title="Markovian transition matrix" target="_top">
<polyline fill="none" stroke="black" points="374,-108 188,-108 "/>
<path fill="none" stroke="black" d="M188,-108C182,-108 176,-102 176,-96"/>
<polyline fill="none" stroke="black" points="176,-96 176,-84 "/>
<path fill="none" stroke="black" d="M176,-84C176,-78 182,-72 188,-72"/>
<polyline fill="none" stroke="black" points="188,-72 374,-72 "/>
<path fill="none" stroke="black" d="M374,-72C380,-72 386,-78 386,-84"/>
<polyline fill="none" stroke="black" points="386,-84 386,-96 "/>
<path fill="none" stroke="black" d="M386,-96C386,-102 380,-108 374,-108"/>
<text text-anchor="start" x="184.5" y="-87.2333" font-family="Times Roman,serif" font-size="14.00">Markovian transition matrix</text>
</a>
</g>
<!-- MATRIX_INTRO&#45;&gt;TRANSITION_MATRIX_OF_MARKOV_CHAIN -->
<g id="edge4" class="edge"><title>MATRIX_INTRO&#45;&gt;TRANSITION_MATRIX_OF_MARKOV_CHAIN</title>
<path fill="none" stroke="black" d="M281,-143.831C281,-136.131 281,-126.974 281,-118.417"/>
<polygon fill="black" stroke="black" points="284.5,-118.413 281,-108.413 277.5,-118.413 284.5,-118.413"/>
</g>
<!-- MATRIX_INVERSE -->
<g id="node6" class="node"><title>MATRIX_INVERSE</title>
<a xlink:href="MATRIX_INVERSE.html" xlink:title="The matrix inverse" target="_top">
<polyline fill="none" stroke="black" points="308,-36 184,-36 "/>
<path fill="none" stroke="black" d="M184,-36C178,-36 172,-30 172,-24"/>
<polyline fill="none" stroke="black" points="172,-24 172,-12 "/>
<path fill="none" stroke="black" d="M172,-12C172,-6 178,-1.71875e-14 184,-1.66113e-14"/>
<polyline fill="none" stroke="black" points="184,-1.66113e-14 308,-4.70495e-15 "/>
<path fill="none" stroke="black" d="M308,-4.70495e-15C314,-4.12883e-15 320,-6 320,-12"/>
<polyline fill="none" stroke="black" points="320,-12 320,-24 "/>
<path fill="none" stroke="black" d="M320,-24C320,-30 314,-36 308,-36"/>
<text text-anchor="start" x="180.5" y="-15.2333" font-family="Times Roman,serif" font-size="14.00">The matrix inverse</text>
</a>
</g>
<!-- MATRIX_INTRO&#45;&gt;MATRIX_INVERSE -->
<g id="edge6" class="edge"><title>MATRIX_INTRO&#45;&gt;MATRIX_INVERSE</title>
<path fill="none" stroke="black" d="M350.236,-143.932C367.813,-135.885 384.636,-124.377 395,-108 403.556,-94.4798 404.186,-85.1001 395,-72 386.447,-59.8034 358.473,-48.2635 329.036,-39.0068"/>
<polygon fill="black" stroke="black" points="330.036,-35.6528 319.45,-36.0837 327.994,-42.3484 330.036,-35.6528"/>
</g>
<!-- MATRIX_MULTIPLICATION&#45;&gt;MATRIX_INVERSE -->
</g>
</svg>
