<?xml version="1.0" encoding="UTF-8" standalone="no"?>
<!DOCTYPE svg PUBLIC "-//W3C//DTD SVG 1.1//EN"
 "http://www.w3.org/Graphics/SVG/1.1/DTD/svg11.dtd">
<!-- Generated by graphviz version 2.36.0 (20140111.2315)
 -->
<!-- Title: %3 Pages: 1 -->
<svg width="311pt" height="188pt"
 viewBox="0.00 0.00 311.00 188.00" xmlns="http://www.w3.org/2000/svg" xmlns:xlink="http://www.w3.org/1999/xlink">
<g id="graph0" class="graph" transform="scale(1 1) rotate(0) translate(4 184)">
<title>%3</title>
<!-- MATRIX_INTRO -->
<g id="node1" class="node"><title>MATRIX_INTRO</title>
<g id="a_node1"><a xlink:href="MATRIX_INTRO.html" xlink:title=" Introduction to matrices " target="_top">
<path fill="none" stroke="blue" stroke-width="2" d="M289.25,-180C289.25,-180 158.75,-180 158.75,-180 152.75,-180 146.75,-174 146.75,-168 146.75,-168 146.75,-156 146.75,-156 146.75,-150 152.75,-144 158.75,-144 158.75,-144 289.25,-144 289.25,-144 295.25,-144 301.25,-150 301.25,-156 301.25,-156 301.25,-168 301.25,-168 301.25,-174 295.25,-180 289.25,-180"/>
<text text-anchor="start" x="154.5" y="-158.3" font-family="Times,serif" font-size="14.00"> Introduction to matrices </text>
</a>
</g>
</g>
<!-- MATRIX_MULTIPLICATION -->
<g id="node2" class="node"><title>MATRIX_MULTIPLICATION</title>
<g id="a_node2"><a xlink:href="MATRIX_MULTIPLICATION.html" xlink:title=" Matrix multiplication " target="_top">
<path fill="none" stroke="black" d="M130,-108C130,-108 12,-108 12,-108 6,-108 0,-102 0,-96 0,-96 0,-84 0,-84 0,-78 6,-72 12,-72 12,-72 130,-72 130,-72 136,-72 142,-78 142,-84 142,-84 142,-96 142,-96 142,-102 136,-108 130,-108"/>
<text text-anchor="start" x="8" y="-86.3" font-family="Times,serif" font-size="14.00"> Matrix multiplication </text>
</a>
</g>
</g>
<!-- MATRIX_INTRO&#45;&gt;MATRIX_MULTIPLICATION -->
<g id="edge1" class="edge"><title>MATRIX_INTRO&#45;&gt;MATRIX_MULTIPLICATION</title>
<path fill="none" stroke="black" d="M186.572,-143.876C165.749,-134.349 139.646,-122.407 117.519,-112.283"/>
<polygon fill="black" stroke="black" points="118.856,-109.046 108.306,-108.068 115.944,-115.411 118.856,-109.046"/>
</g>
<!-- MATRIX_INVERSE -->
<g id="node3" class="node"><title>MATRIX_INVERSE</title>
<g id="a_node3"><a xlink:href="MATRIX_INVERSE.html" xlink:title=" The matrix inverse " target="_top">
<path fill="none" stroke="black" d="M276,-108C276,-108 172,-108 172,-108 166,-108 160,-102 160,-96 160,-96 160,-84 160,-84 160,-78 166,-72 172,-72 172,-72 276,-72 276,-72 282,-72 288,-78 288,-84 288,-84 288,-96 288,-96 288,-102 282,-108 276,-108"/>
<text text-anchor="start" x="168" y="-86.3" font-family="Times,serif" font-size="14.00"> The matrix inverse </text>
</a>
</g>
</g>
<!-- MATRIX_INTRO&#45;&gt;MATRIX_INVERSE -->
<g id="edge2" class="edge"><title>MATRIX_INTRO&#45;&gt;MATRIX_INVERSE</title>
<path fill="none" stroke="black" d="M224,-143.697C224,-135.983 224,-126.712 224,-118.112"/>
<polygon fill="black" stroke="black" points="227.5,-118.104 224,-108.104 220.5,-118.104 227.5,-118.104"/>
</g>
<!-- TRANSITION_MATRIX_OF_MARKOV_CHAIN -->
<g id="node4" class="node"><title>TRANSITION_MATRIX_OF_MARKOV_CHAIN</title>
<g id="a_node4"><a xlink:href="TRANSITION_MATRIX_OF_MARKOV_CHAIN.html" xlink:title=" Markovian transition matrix " target="_top">
<path fill="none" stroke="black" d="M270.25,-36C270.25,-36 115.75,-36 115.75,-36 109.75,-36 103.75,-30 103.75,-24 103.75,-24 103.75,-12 103.75,-12 103.75,-6 109.75,-0 115.75,-0 115.75,-0 270.25,-0 270.25,-0 276.25,-0 282.25,-6 282.25,-12 282.25,-12 282.25,-24 282.25,-24 282.25,-30 276.25,-36 270.25,-36"/>
<text text-anchor="start" x="111.5" y="-14.3" font-family="Times,serif" font-size="14.00"> Markovian transition matrix </text>
</a>
</g>
</g>
<!-- MATRIX_INTRO&#45;&gt;TRANSITION_MATRIX_OF_MARKOV_CHAIN -->
<g id="edge3" class="edge"><title>MATRIX_INTRO&#45;&gt;TRANSITION_MATRIX_OF_MARKOV_CHAIN</title>
<path fill="none" stroke="black" d="M260.514,-143.924C274.598,-135.293 289.176,-123.349 297,-108 304.266,-93.7451 305.359,-85.6425 297,-72 288.749,-58.5345 275.884,-48.3557 261.979,-40.7105"/>
<polygon fill="black" stroke="black" points="263.233,-37.4233 252.729,-36.0433 260.08,-43.6729 263.233,-37.4233"/>
</g>
<!-- MATRIX_MULTIPLICATION&#45;&gt;TRANSITION_MATRIX_OF_MARKOV_CHAIN -->
</g>
</svg>
