<?xml version="1.0" encoding="UTF-8" standalone="no"?>
<!DOCTYPE svg PUBLIC "-//W3C//DTD SVG 1.1//EN"
 "http://www.w3.org/Graphics/SVG/1.1/DTD/svg11.dtd">
<!-- Generated by graphviz version 2.26.3 (20100126.1600)
 -->
<!-- Title: _anonymous_0 Pages: 1 -->
<svg width="480pt" height="260pt"
 viewBox="0.00 0.00 480.03 260.00" xmlns="http://www.w3.org/2000/svg" xmlns:xlink="http://www.w3.org/1999/xlink">
<g id="graph1" class="graph" transform="scale(1 1) rotate(0) translate(4 256)">
<title>_anonymous_0</title>
<!-- MATRIX_MULTIPLICATION -->
<g id="node1" class="node"><title>MATRIX_MULTIPLICATION</title>
<a xlink:href="MATRIX_MULTIPLICATION.html" xlink:title=" Matrix multiplication " target="_top">
<polyline fill="none" stroke="blue" stroke-width="2" points="394,-180 250,-180 "/>
<path fill="none" stroke="blue" stroke-width="2" d="M250,-180C244,-180 238,-174 238,-168"/>
<polyline fill="none" stroke="blue" stroke-width="2" points="238,-168 238,-156 "/>
<path fill="none" stroke="blue" stroke-width="2" d="M238,-156C238,-150 244,-144 250,-144"/>
<polyline fill="none" stroke="blue" stroke-width="2" points="250,-144 394,-144 "/>
<path fill="none" stroke="blue" stroke-width="2" d="M394,-144C400,-144 406,-150 406,-156"/>
<polyline fill="none" stroke="blue" stroke-width="2" points="406,-156 406,-168 "/>
<path fill="none" stroke="blue" stroke-width="2" d="M406,-168C406,-174 400,-180 394,-180"/>
<text text-anchor="start" x="246.5" y="-159.233" font-family="Times Roman,serif" font-size="14.00"> Matrix multiplication </text>
</a>
</g>
<!-- DIFFERENCE_EQUATIONS -->
<g id="node2" class="node"><title>DIFFERENCE_EQUATIONS</title>
<a xlink:href="DIFFERENCE_EQUATIONS.html" xlink:title=" Difference equations " target="_top">
<polyline fill="none" stroke="black" points="158,-108 12,-108 "/>
<path fill="none" stroke="black" d="M12,-108C6,-108 5.92119e-14,-102 4.73695e-14,-96"/>
<polyline fill="none" stroke="black" points="4.73695e-14,-96 2.36848e-14,-84 "/>
<path fill="none" stroke="black" d="M2.36848e-14,-84C1.18424e-14,-78 6,-72 12,-72"/>
<polyline fill="none" stroke="black" points="12,-72 158,-72 "/>
<path fill="none" stroke="black" d="M158,-72C164,-72 170,-78 170,-84"/>
<polyline fill="none" stroke="black" points="170,-84 170,-96 "/>
<path fill="none" stroke="black" d="M170,-96C170,-102 164,-108 158,-108"/>
<text text-anchor="start" x="8.5" y="-87.2333" font-family="Times Roman,serif" font-size="14.00"> Difference equations </text>
</a>
</g>
<!-- MATRIX_MULTIPLICATION&#45;&gt;DIFFERENCE_EQUATIONS -->
<g id="edge2" class="edge"><title>MATRIX_MULTIPLICATION&#45;&gt;DIFFERENCE_EQUATIONS</title>
<path fill="none" stroke="black" d="M262.501,-143.924C229.679,-133.953 188.749,-121.519 154.467,-111.104"/>
<polygon fill="black" stroke="black" points="155.109,-107.641 144.524,-108.083 153.074,-114.339 155.109,-107.641"/>
</g>
<!-- CHAPMAN_KOLMOGOROV_RELATION -->
<g id="node4" class="node"><title>CHAPMAN_KOLMOGOROV_RELATION</title>
<a xlink:href="CHAPMAN_KOLMOGOROV_RELATION.html" xlink:title=" The Chapman Kolmogorov Relation " target="_top">
<polyline fill="none" stroke="black" points="444,-108 200,-108 "/>
<path fill="none" stroke="black" d="M200,-108C194,-108 188,-102 188,-96"/>
<polyline fill="none" stroke="black" points="188,-96 188,-84 "/>
<path fill="none" stroke="black" d="M188,-84C188,-78 194,-72 200,-72"/>
<polyline fill="none" stroke="black" points="200,-72 444,-72 "/>
<path fill="none" stroke="black" d="M444,-72C450,-72 456,-78 456,-84"/>
<polyline fill="none" stroke="black" points="456,-84 456,-96 "/>
<path fill="none" stroke="black" d="M456,-96C456,-102 450,-108 444,-108"/>
<text text-anchor="start" x="196.5" y="-87.2333" font-family="Times Roman,serif" font-size="14.00"> The Chapman Kolmogorov Relation </text>
</a>
</g>
<!-- MATRIX_MULTIPLICATION&#45;&gt;CHAPMAN_KOLMOGOROV_RELATION -->
<g id="edge4" class="edge"><title>MATRIX_MULTIPLICATION&#45;&gt;CHAPMAN_KOLMOGOROV_RELATION</title>
<path fill="none" stroke="black" d="M322,-143.831C322,-136.131 322,-126.974 322,-118.417"/>
<polygon fill="black" stroke="black" points="325.5,-118.413 322,-108.413 318.5,-118.413 325.5,-118.413"/>
</g>
<!-- MATRIX_POWERS -->
<g id="node8" class="node"><title>MATRIX_POWERS</title>
<a xlink:href="MATRIX_POWERS.html" xlink:title=" Taking positive integer powers of a square matrix " target="_top">
<polyline fill="none" stroke="black" points="456,-36 112,-36 "/>
<path fill="none" stroke="black" d="M112,-36C106,-36 100,-30 100,-24"/>
<polyline fill="none" stroke="black" points="100,-24 100,-12 "/>
<path fill="none" stroke="black" d="M100,-12C100,-6 106,-1.75319e-14 112,-1.73002e-14"/>
<polyline fill="none" stroke="black" points="112,-1.73002e-14 456,-4.01611e-15 "/>
<path fill="none" stroke="black" d="M456,-4.01611e-15C462,-3.78441e-15 468,-6 468,-12"/>
<polyline fill="none" stroke="black" points="468,-12 468,-24 "/>
<path fill="none" stroke="black" d="M468,-24C468,-30 462,-36 456,-36"/>
<text text-anchor="start" x="108.5" y="-15.2333" font-family="Times Roman,serif" font-size="14.00"> Taking positive integer powers of a square matrix </text>
</a>
</g>
<!-- MATRIX_MULTIPLICATION&#45;&gt;MATRIX_POWERS -->
<g id="edge8" class="edge"><title>MATRIX_MULTIPLICATION&#45;&gt;MATRIX_POWERS</title>
<path fill="none" stroke="black" d="M391.35,-143.927C423.156,-134.098 455.832,-121.261 465,-108 474.098,-94.8387 474.561,-84.8294 465,-72 455.013,-58.5982 424.28,-47.3073 390.907,-38.5712"/>
<polygon fill="black" stroke="black" points="391.517,-35.1153 380.965,-36.0592 389.803,-41.9021 391.517,-35.1153"/>
</g>
<!-- DIFFERENCE_EQUATIONS&#45;&gt;MATRIX_POWERS -->
<!-- MATRIX_INTRO -->
<g id="node6" class="node"><title>MATRIX_INTRO</title>
<a xlink:href="MATRIX_INTRO.html" xlink:title=" Introduction to matrices " target="_top">
<polyline fill="none" stroke="black" points="406,-252 238,-252 "/>
<path fill="none" stroke="black" d="M238,-252C232,-252 226,-246 226,-240"/>
<polyline fill="none" stroke="black" points="226,-240 226,-228 "/>
<path fill="none" stroke="black" d="M226,-228C226,-222 232,-216 238,-216"/>
<polyline fill="none" stroke="black" points="238,-216 406,-216 "/>
<path fill="none" stroke="black" d="M406,-216C412,-216 418,-222 418,-228"/>
<polyline fill="none" stroke="black" points="418,-228 418,-240 "/>
<path fill="none" stroke="black" d="M418,-240C418,-246 412,-252 406,-252"/>
<text text-anchor="start" x="234" y="-231.233" font-family="Times Roman,serif" font-size="14.00"> Introduction to matrices </text>
</a>
</g>
<!-- MATRIX_INTRO&#45;&gt;MATRIX_MULTIPLICATION -->
<g id="edge6" class="edge"><title>MATRIX_INTRO&#45;&gt;MATRIX_MULTIPLICATION</title>
<path fill="none" stroke="black" d="M322,-215.831C322,-208.131 322,-198.974 322,-190.417"/>
<polygon fill="black" stroke="black" points="325.5,-190.413 322,-180.413 318.5,-190.413 325.5,-190.413"/>
</g>
</g>
</svg>
