<?xml version="1.0" encoding="UTF-8" standalone="no"?>
<!DOCTYPE svg PUBLIC "-//W3C//DTD SVG 1.1//EN"
 "http://www.w3.org/Graphics/SVG/1.1/DTD/svg11.dtd">
<!-- Generated by graphviz version 2.36.0 (20140111.2315)
 -->
<!-- Title: %3 Pages: 1 -->
<svg width="363pt" height="188pt"
 viewBox="0.00 0.00 362.50 188.00" xmlns="http://www.w3.org/2000/svg" xmlns:xlink="http://www.w3.org/1999/xlink">
<g id="graph0" class="graph" transform="scale(1 1) rotate(0) translate(4 184)">
<title>%3</title>
<!-- MATRIX_INTRO -->
<g id="node1" class="node"><title>MATRIX_INTRO</title>
<g id="a_node1"><a xlink:href="MATRIX_INTRO.html" xlink:title=" Introduction to matrices " target="_top">
<path fill="none" stroke="blue" stroke-width="2" d="M315.25,-180C315.25,-180 184.75,-180 184.75,-180 178.75,-180 172.75,-174 172.75,-168 172.75,-168 172.75,-156 172.75,-156 172.75,-150 178.75,-144 184.75,-144 184.75,-144 315.25,-144 315.25,-144 321.25,-144 327.25,-150 327.25,-156 327.25,-156 327.25,-168 327.25,-168 327.25,-174 321.25,-180 315.25,-180"/>
<text text-anchor="start" x="180.5" y="-158.3" font-family="Times,serif" font-size="14.00"> Introduction to matrices </text>
</a>
</g>
</g>
<!-- MATRIX_MULTIPLICATION -->
<g id="node2" class="node"><title>MATRIX_MULTIPLICATION</title>
<g id="a_node2"><a xlink:href="MATRIX_MULTIPLICATION.html" xlink:title=" Matrix multiplication " target="_top">
<path fill="none" stroke="black" d="M130,-108C130,-108 12,-108 12,-108 6,-108 0,-102 0,-96 0,-96 0,-84 0,-84 0,-78 6,-72 12,-72 12,-72 130,-72 130,-72 136,-72 142,-78 142,-84 142,-84 142,-96 142,-96 142,-102 136,-108 130,-108"/>
<text text-anchor="start" x="8" y="-86.3" font-family="Times,serif" font-size="14.00"> Matrix multiplication </text>
</a>
</g>
</g>
<!-- MATRIX_INTRO&#45;&gt;MATRIX_MULTIPLICATION -->
<g id="edge1" class="edge"><title>MATRIX_INTRO&#45;&gt;MATRIX_MULTIPLICATION</title>
<path fill="none" stroke="black" d="M206.212,-143.876C181.415,-134.179 150.219,-121.98 124.042,-111.743"/>
<polygon fill="black" stroke="black" points="125.234,-108.451 114.646,-108.068 122.685,-114.97 125.234,-108.451"/>
</g>
<!-- TRANSITION_MATRIX_OF_MARKOV_CHAIN -->
<g id="node3" class="node"><title>TRANSITION_MATRIX_OF_MARKOV_CHAIN</title>
<g id="a_node3"><a xlink:href="TRANSITION_MATRIX_OF_MARKOV_CHAIN.html" xlink:title=" Markovian transition matrix " target="_top">
<path fill="none" stroke="black" d="M327.25,-108C327.25,-108 172.75,-108 172.75,-108 166.75,-108 160.75,-102 160.75,-96 160.75,-96 160.75,-84 160.75,-84 160.75,-78 166.75,-72 172.75,-72 172.75,-72 327.25,-72 327.25,-72 333.25,-72 339.25,-78 339.25,-84 339.25,-84 339.25,-96 339.25,-96 339.25,-102 333.25,-108 327.25,-108"/>
<text text-anchor="start" x="168.5" y="-86.3" font-family="Times,serif" font-size="14.00"> Markovian transition matrix </text>
</a>
</g>
</g>
<!-- MATRIX_INTRO&#45;&gt;TRANSITION_MATRIX_OF_MARKOV_CHAIN -->
<g id="edge2" class="edge"><title>MATRIX_INTRO&#45;&gt;TRANSITION_MATRIX_OF_MARKOV_CHAIN</title>
<path fill="none" stroke="black" d="M250,-143.697C250,-135.983 250,-126.712 250,-118.112"/>
<polygon fill="black" stroke="black" points="253.5,-118.104 250,-108.104 246.5,-118.104 253.5,-118.104"/>
</g>
<!-- MATRIX_INVERSE -->
<g id="node4" class="node"><title>MATRIX_INVERSE</title>
<g id="a_node4"><a xlink:href="MATRIX_INVERSE.html" xlink:title=" The matrix inverse " target="_top">
<path fill="none" stroke="black" d="M271,-36C271,-36 167,-36 167,-36 161,-36 155,-30 155,-24 155,-24 155,-12 155,-12 155,-6 161,-0 167,-0 167,-0 271,-0 271,-0 277,-0 283,-6 283,-12 283,-12 283,-24 283,-24 283,-30 277,-36 271,-36"/>
<text text-anchor="start" x="163" y="-14.3" font-family="Times,serif" font-size="14.00"> The matrix inverse </text>
</a>
</g>
</g>
<!-- MATRIX_INTRO&#45;&gt;MATRIX_INVERSE -->
<g id="edge3" class="edge"><title>MATRIX_INTRO&#45;&gt;MATRIX_INVERSE</title>
<path fill="none" stroke="black" d="M304.82,-143.961C321.658,-135.866 338.295,-124.283 348,-108 356.192,-94.2563 356.908,-85.2907 348,-72 335.2,-52.9033 314.15,-40.6815 292.729,-32.8619"/>
<polygon fill="black" stroke="black" points="293.815,-29.5345 283.221,-29.6716 291.588,-36.1709 293.815,-29.5345"/>
</g>
<!-- MATRIX_MULTIPLICATION&#45;&gt;MATRIX_INVERSE -->
</g>
</svg>
