<?xml version="1.0" encoding="UTF-8" standalone="no"?>
<!DOCTYPE svg PUBLIC "-//W3C//DTD SVG 1.1//EN"
 "http://www.w3.org/Graphics/SVG/1.1/DTD/svg11.dtd">
<!-- Generated by graphviz version 2.36.0 (20140111.2315)
 -->
<!-- Title: %3 Pages: 1 -->
<svg width="561pt" height="260pt"
 viewBox="0.00 0.00 560.96 260.00" xmlns="http://www.w3.org/2000/svg" xmlns:xlink="http://www.w3.org/1999/xlink">
<g id="graph0" class="graph" transform="scale(1 1) rotate(0) translate(4 256)">
<title>%3</title>
<!-- MATRIX_MULTIPLICATION -->
<g id="node1" class="node"><title>MATRIX_MULTIPLICATION</title>
<g id="a_node1"><a xlink:href="MATRIX_MULTIPLICATION.html" xlink:title=" Matrix multiplication " target="_top">
<path fill="none" stroke="blue" stroke-width="2" d="M485,-180C485,-180 367,-180 367,-180 361,-180 355,-174 355,-168 355,-168 355,-156 355,-156 355,-150 361,-144 367,-144 367,-144 485,-144 485,-144 491,-144 497,-150 497,-156 497,-156 497,-168 497,-168 497,-174 491,-180 485,-180"/>
<text text-anchor="start" x="363" y="-158.3" font-family="Times,serif" font-size="14.00"> Matrix multiplication </text>
</a>
</g>
</g>
<!-- MATRIX_POWERS -->
<g id="node3" class="node"><title>MATRIX_POWERS</title>
<g id="a_node3"><a xlink:href="MATRIX_POWERS.html" xlink:title=" Taking positive integer powers of a square matrix " target="_top">
<path fill="none" stroke="black" d="M284,-108C284,-108 12,-108 12,-108 6,-108 0,-102 0,-96 0,-96 0,-84 0,-84 0,-78 6,-72 12,-72 12,-72 284,-72 284,-72 290,-72 296,-78 296,-84 296,-84 296,-96 296,-96 296,-102 290,-108 284,-108"/>
<text text-anchor="start" x="8" y="-86.3" font-family="Times,serif" font-size="14.00"> Taking positive integer powers of a square matrix </text>
</a>
</g>
</g>
<!-- MATRIX_MULTIPLICATION&#45;&gt;MATRIX_POWERS -->
<g id="edge2" class="edge"><title>MATRIX_MULTIPLICATION&#45;&gt;MATRIX_POWERS</title>
<path fill="none" stroke="black" d="M358.349,-143.966C318.324,-133.887 267.47,-121.082 225.791,-110.588"/>
<polygon fill="black" stroke="black" points="226.506,-107.159 215.954,-108.111 224.797,-113.947 226.506,-107.159"/>
</g>
<!-- CHAPMAN_KOLMOGOROV_RELATION -->
<g id="node4" class="node"><title>CHAPMAN_KOLMOGOROV_RELATION</title>
<g id="a_node4"><a xlink:href="CHAPMAN_KOLMOGOROV_RELATION.html" xlink:title=" The Chapman Kolmogorov Relation " target="_top">
<path fill="none" stroke="black" d="M525.5,-108C525.5,-108 326.5,-108 326.5,-108 320.5,-108 314.5,-102 314.5,-96 314.5,-96 314.5,-84 314.5,-84 314.5,-78 320.5,-72 326.5,-72 326.5,-72 525.5,-72 525.5,-72 531.5,-72 537.5,-78 537.5,-84 537.5,-84 537.5,-96 537.5,-96 537.5,-102 531.5,-108 525.5,-108"/>
<text text-anchor="start" x="322" y="-86.3" font-family="Times,serif" font-size="14.00"> The Chapman Kolmogorov Relation </text>
</a>
</g>
</g>
<!-- MATRIX_MULTIPLICATION&#45;&gt;CHAPMAN_KOLMOGOROV_RELATION -->
<g id="edge3" class="edge"><title>MATRIX_MULTIPLICATION&#45;&gt;CHAPMAN_KOLMOGOROV_RELATION</title>
<path fill="none" stroke="black" d="M426,-143.697C426,-135.983 426,-126.712 426,-118.112"/>
<polygon fill="black" stroke="black" points="429.5,-118.104 426,-108.104 422.5,-118.104 429.5,-118.104"/>
</g>
<!-- DIFFERENCE_EQUATIONS -->
<g id="node5" class="node"><title>DIFFERENCE_EQUATIONS</title>
<g id="a_node5"><a xlink:href="DIFFERENCE_EQUATIONS.html" xlink:title=" Difference equations " target="_top">
<path fill="none" stroke="black" d="M413.25,-36C413.25,-36 300.75,-36 300.75,-36 294.75,-36 288.75,-30 288.75,-24 288.75,-24 288.75,-12 288.75,-12 288.75,-6 294.75,-0 300.75,-0 300.75,-0 413.25,-0 413.25,-0 419.25,-0 425.25,-6 425.25,-12 425.25,-12 425.25,-24 425.25,-24 425.25,-30 419.25,-36 413.25,-36"/>
<text text-anchor="start" x="296.5" y="-14.3" font-family="Times,serif" font-size="14.00"> Difference equations </text>
</a>
</g>
</g>
<!-- MATRIX_MULTIPLICATION&#45;&gt;DIFFERENCE_EQUATIONS -->
<g id="edge4" class="edge"><title>MATRIX_MULTIPLICATION&#45;&gt;DIFFERENCE_EQUATIONS</title>
<path fill="none" stroke="black" d="M497.191,-144.971C516.253,-137.081 534.686,-125.365 546,-108 554.734,-94.5943 555.666,-84.7499 546,-72 532.19,-53.7843 480.95,-40.1052 435.302,-31.2104"/>
<polygon fill="black" stroke="black" points="435.838,-27.7497 425.362,-29.3298 434.537,-34.6277 435.838,-27.7497"/>
</g>
<!-- MATRIX_INTRO -->
<g id="node2" class="node"><title>MATRIX_INTRO</title>
<g id="a_node2"><a xlink:href="MATRIX_INTRO.html" xlink:title=" Introduction to matrices " target="_top">
<path fill="none" stroke="black" d="M491.25,-252C491.25,-252 360.75,-252 360.75,-252 354.75,-252 348.75,-246 348.75,-240 348.75,-240 348.75,-228 348.75,-228 348.75,-222 354.75,-216 360.75,-216 360.75,-216 491.25,-216 491.25,-216 497.25,-216 503.25,-222 503.25,-228 503.25,-228 503.25,-240 503.25,-240 503.25,-246 497.25,-252 491.25,-252"/>
<text text-anchor="start" x="356.5" y="-230.3" font-family="Times,serif" font-size="14.00"> Introduction to matrices </text>
</a>
</g>
</g>
<!-- MATRIX_INTRO&#45;&gt;MATRIX_MULTIPLICATION -->
<g id="edge1" class="edge"><title>MATRIX_INTRO&#45;&gt;MATRIX_MULTIPLICATION</title>
<path fill="none" stroke="black" d="M426,-215.697C426,-207.983 426,-198.712 426,-190.112"/>
<polygon fill="black" stroke="black" points="429.5,-190.104 426,-180.104 422.5,-190.104 429.5,-190.104"/>
</g>
<!-- MATRIX_POWERS&#45;&gt;DIFFERENCE_EQUATIONS -->
</g>
</svg>
