<?xml version="1.0" encoding="UTF-8" standalone="no"?>
<!DOCTYPE svg PUBLIC "-//W3C//DTD SVG 1.1//EN"
 "http://www.w3.org/Graphics/SVG/1.1/DTD/svg11.dtd">
<!-- Generated by graphviz version 2.26.3 (20100126.1600)
 -->
<!-- Title: _anonymous_0 Pages: 1 -->
<svg width="376pt" height="188pt"
 viewBox="0.00 0.00 376.00 188.00" xmlns="http://www.w3.org/2000/svg" xmlns:xlink="http://www.w3.org/1999/xlink">
<g id="graph1" class="graph" transform="scale(1 1) rotate(0) translate(4 184)">
<title>_anonymous_0</title>
<!-- MATRIX_POWERS -->
<g id="node1" class="node"><title>MATRIX_POWERS</title>
<a xlink:href="MATRIX_POWERS.html" xlink:title=" Taking positive integer powers of a square matrix " target="_top">
<polyline fill="none" stroke="blue" stroke-width="2" points="356,-108 12,-108 "/>
<path fill="none" stroke="blue" stroke-width="2" d="M12,-108C6,-108 1.42109e-13,-102 1.13687e-13,-96"/>
<polyline fill="none" stroke="blue" stroke-width="2" points="1.13687e-13,-96 5.68434e-14,-84 "/>
<path fill="none" stroke="blue" stroke-width="2" d="M5.68434e-14,-84C2.84217e-14,-78 6,-72 12,-72"/>
<polyline fill="none" stroke="blue" stroke-width="2" points="12,-72 356,-72 "/>
<path fill="none" stroke="blue" stroke-width="2" d="M356,-72C362,-72 368,-78 368,-84"/>
<polyline fill="none" stroke="blue" stroke-width="2" points="368,-84 368,-96 "/>
<path fill="none" stroke="blue" stroke-width="2" d="M368,-96C368,-102 362,-108 356,-108"/>
<text text-anchor="start" x="8.5" y="-87.2333" font-family="Times Roman,serif" font-size="14.00"> Taking positive integer powers of a square matrix </text>
</a>
</g>
<!-- CHAPMAN_KOLMOGOROV_RELATION -->
<g id="node2" class="node"><title>CHAPMAN_KOLMOGOROV_RELATION</title>
<a xlink:href="CHAPMAN_KOLMOGOROV_RELATION.html" xlink:title=" The Chapman Kolmogorov Relation " target="_top">
<polyline fill="none" stroke="black" points="306,-36 62,-36 "/>
<path fill="none" stroke="black" d="M62,-36C56,-36 50,-30 50,-24"/>
<polyline fill="none" stroke="black" points="50,-24 50,-12 "/>
<path fill="none" stroke="black" d="M50,-12C50,-6 56,-1.74454e-14 62,-1.71273e-14"/>
<polyline fill="none" stroke="black" points="62,-1.71273e-14 306,-4.18902e-15 "/>
<path fill="none" stroke="black" d="M306,-4.18902e-15C312,-3.87087e-15 318,-6 318,-12"/>
<polyline fill="none" stroke="black" points="318,-12 318,-24 "/>
<path fill="none" stroke="black" d="M318,-24C318,-30 312,-36 306,-36"/>
<text text-anchor="start" x="58.5" y="-15.2333" font-family="Times Roman,serif" font-size="14.00"> The Chapman Kolmogorov Relation </text>
</a>
</g>
<!-- MATRIX_POWERS&#45;&gt;CHAPMAN_KOLMOGOROV_RELATION -->
<g id="edge2" class="edge"><title>MATRIX_POWERS&#45;&gt;CHAPMAN_KOLMOGOROV_RELATION</title>
<path fill="none" stroke="black" d="M184,-71.8314C184,-64.131 184,-54.9743 184,-46.4166"/>
<polygon fill="black" stroke="black" points="187.5,-46.4132 184,-36.4133 180.5,-46.4133 187.5,-46.4132"/>
</g>
<!-- MATRIX_MULTIPLICATION -->
<g id="node4" class="node"><title>MATRIX_MULTIPLICATION</title>
<a xlink:href="MATRIX_MULTIPLICATION.html" xlink:title=" Matrix multiplication " target="_top">
<polyline fill="none" stroke="black" points="256,-180 112,-180 "/>
<path fill="none" stroke="black" d="M112,-180C106,-180 100,-174 100,-168"/>
<polyline fill="none" stroke="black" points="100,-168 100,-156 "/>
<path fill="none" stroke="black" d="M100,-156C100,-150 106,-144 112,-144"/>
<polyline fill="none" stroke="black" points="112,-144 256,-144 "/>
<path fill="none" stroke="black" d="M256,-144C262,-144 268,-150 268,-156"/>
<polyline fill="none" stroke="black" points="268,-156 268,-168 "/>
<path fill="none" stroke="black" d="M268,-168C268,-174 262,-180 256,-180"/>
<text text-anchor="start" x="108.5" y="-159.233" font-family="Times Roman,serif" font-size="14.00"> Matrix multiplication </text>
</a>
</g>
<!-- MATRIX_MULTIPLICATION&#45;&gt;MATRIX_POWERS -->
<g id="edge4" class="edge"><title>MATRIX_MULTIPLICATION&#45;&gt;MATRIX_POWERS</title>
<path fill="none" stroke="black" d="M184,-143.831C184,-136.131 184,-126.974 184,-118.417"/>
<polygon fill="black" stroke="black" points="187.5,-118.413 184,-108.413 180.5,-118.413 187.5,-118.413"/>
</g>
</g>
</svg>
