<?xml version="1.0" encoding="UTF-8" standalone="no"?>
<!DOCTYPE svg PUBLIC "-//W3C//DTD SVG 1.1//EN"
 "http://www.w3.org/Graphics/SVG/1.1/DTD/svg11.dtd">
<!-- Generated by graphviz version 2.36.0 (20140111.2315)
 -->
<!-- Title: %3 Pages: 1 -->
<svg width="402pt" height="260pt"
 viewBox="0.00 0.00 401.77 260.00" xmlns="http://www.w3.org/2000/svg" xmlns:xlink="http://www.w3.org/1999/xlink">
<g id="graph0" class="graph" transform="scale(1 1) rotate(0) translate(4 256)">
<title>%3</title>
<!-- MATRIX_MULTIPLICATION -->
<g id="node1" class="node"><title>MATRIX_MULTIPLICATION</title>
<g id="a_node1"><a xlink:href="MATRIX_MULTIPLICATION.html" xlink:title=" Matrix multiplication " target="_top">
<path fill="none" stroke="blue" stroke-width="2" d="M326,-180C326,-180 208,-180 208,-180 202,-180 196,-174 196,-168 196,-168 196,-156 196,-156 196,-150 202,-144 208,-144 208,-144 326,-144 326,-144 332,-144 338,-150 338,-156 338,-156 338,-168 338,-168 338,-174 332,-180 326,-180"/>
<text text-anchor="start" x="204" y="-158.3" font-family="Times,serif" font-size="14.00"> Matrix multiplication </text>
</a>
</g>
</g>
<!-- DIFFERENCE_EQUATIONS -->
<g id="node2" class="node"><title>DIFFERENCE_EQUATIONS</title>
<g id="a_node2"><a xlink:href="DIFFERENCE_EQUATIONS.html" xlink:title=" Difference equations " target="_top">
<path fill="none" stroke="black" d="M124.25,-108C124.25,-108 11.75,-108 11.75,-108 5.75,-108 -0.25,-102 -0.25,-96 -0.25,-96 -0.25,-84 -0.25,-84 -0.25,-78 5.75,-72 11.75,-72 11.75,-72 124.25,-72 124.25,-72 130.25,-72 136.25,-78 136.25,-84 136.25,-84 136.25,-96 136.25,-96 136.25,-102 130.25,-108 124.25,-108"/>
<text text-anchor="start" x="7.5" y="-86.3" font-family="Times,serif" font-size="14.00"> Difference equations </text>
</a>
</g>
</g>
<!-- MATRIX_MULTIPLICATION&#45;&gt;DIFFERENCE_EQUATIONS -->
<g id="edge1" class="edge"><title>MATRIX_MULTIPLICATION&#45;&gt;DIFFERENCE_EQUATIONS</title>
<path fill="none" stroke="black" d="M218.574,-143.966C190.769,-134.185 155.664,-121.836 126.346,-111.524"/>
<polygon fill="black" stroke="black" points="127.238,-108.127 116.644,-108.111 124.916,-114.731 127.238,-108.127"/>
</g>
<!-- CHAPMAN_KOLMOGOROV_RELATION -->
<g id="node3" class="node"><title>CHAPMAN_KOLMOGOROV_RELATION</title>
<g id="a_node3"><a xlink:href="CHAPMAN_KOLMOGOROV_RELATION.html" xlink:title=" The Chapman Kolmogorov Relation " target="_top">
<path fill="none" stroke="black" d="M366.5,-108C366.5,-108 167.5,-108 167.5,-108 161.5,-108 155.5,-102 155.5,-96 155.5,-96 155.5,-84 155.5,-84 155.5,-78 161.5,-72 167.5,-72 167.5,-72 366.5,-72 366.5,-72 372.5,-72 378.5,-78 378.5,-84 378.5,-84 378.5,-96 378.5,-96 378.5,-102 372.5,-108 366.5,-108"/>
<text text-anchor="start" x="163" y="-86.3" font-family="Times,serif" font-size="14.00"> The Chapman Kolmogorov Relation </text>
</a>
</g>
</g>
<!-- MATRIX_MULTIPLICATION&#45;&gt;CHAPMAN_KOLMOGOROV_RELATION -->
<g id="edge2" class="edge"><title>MATRIX_MULTIPLICATION&#45;&gt;CHAPMAN_KOLMOGOROV_RELATION</title>
<path fill="none" stroke="black" d="M267,-143.697C267,-135.983 267,-126.712 267,-118.112"/>
<polygon fill="black" stroke="black" points="270.5,-118.104 267,-108.104 263.5,-118.104 270.5,-118.104"/>
</g>
<!-- MATRIX_POWERS -->
<g id="node4" class="node"><title>MATRIX_POWERS</title>
<g id="a_node4"><a xlink:href="MATRIX_POWERS.html" xlink:title=" Taking positive integer powers of a square matrix " target="_top">
<path fill="none" stroke="black" d="M373,-36C373,-36 101,-36 101,-36 95,-36 89,-30 89,-24 89,-24 89,-12 89,-12 89,-6 95,-0 101,-0 101,-0 373,-0 373,-0 379,-0 385,-6 385,-12 385,-12 385,-24 385,-24 385,-30 379,-36 373,-36"/>
<text text-anchor="start" x="97" y="-14.3" font-family="Times,serif" font-size="14.00"> Taking positive integer powers of a square matrix </text>
</a>
</g>
</g>
<!-- MATRIX_MULTIPLICATION&#45;&gt;MATRIX_POWERS -->
<g id="edge3" class="edge"><title>MATRIX_MULTIPLICATION&#45;&gt;MATRIX_POWERS</title>
<path fill="none" stroke="black" d="M338.191,-144.971C357.253,-137.081 375.686,-125.365 387,-108 395.734,-94.5943 396.239,-85.063 387,-72 377.201,-58.1452 363.465,-47.8879 348.247,-40.2994"/>
<polygon fill="black" stroke="black" points="349.684,-37.1078 339.134,-36.1327 346.773,-43.474 349.684,-37.1078"/>
</g>
<!-- DIFFERENCE_EQUATIONS&#45;&gt;MATRIX_POWERS -->
<!-- MATRIX_INTRO -->
<g id="node5" class="node"><title>MATRIX_INTRO</title>
<g id="a_node5"><a xlink:href="MATRIX_INTRO.html" xlink:title=" Introduction to matrices " target="_top">
<path fill="none" stroke="black" d="M332.25,-252C332.25,-252 201.75,-252 201.75,-252 195.75,-252 189.75,-246 189.75,-240 189.75,-240 189.75,-228 189.75,-228 189.75,-222 195.75,-216 201.75,-216 201.75,-216 332.25,-216 332.25,-216 338.25,-216 344.25,-222 344.25,-228 344.25,-228 344.25,-240 344.25,-240 344.25,-246 338.25,-252 332.25,-252"/>
<text text-anchor="start" x="197.5" y="-230.3" font-family="Times,serif" font-size="14.00"> Introduction to matrices </text>
</a>
</g>
</g>
<!-- MATRIX_INTRO&#45;&gt;MATRIX_MULTIPLICATION -->
<g id="edge5" class="edge"><title>MATRIX_INTRO&#45;&gt;MATRIX_MULTIPLICATION</title>
<path fill="none" stroke="black" d="M267,-215.697C267,-207.983 267,-198.712 267,-190.112"/>
<polygon fill="black" stroke="black" points="270.5,-190.104 267,-180.104 263.5,-190.104 270.5,-190.104"/>
</g>
</g>
</svg>
