<?xml version="1.0" encoding="UTF-8" standalone="no"?>
<!DOCTYPE svg PUBLIC "-//W3C//DTD SVG 1.1//EN"
 "http://www.w3.org/Graphics/SVG/1.1/DTD/svg11.dtd">
<!-- Generated by graphviz version 2.26.3 (20100126.1600)
 -->
<!-- Title: _anonymous_0 Pages: 1 -->
<svg width="427pt" height="188pt"
 viewBox="0.00 0.00 427.48 188.00" xmlns="http://www.w3.org/2000/svg" xmlns:xlink="http://www.w3.org/1999/xlink">
<g id="graph1" class="graph" transform="scale(1 1) rotate(0) translate(4 184)">
<title>_anonymous_0</title>
<!-- MATRIX_INTRO -->
<g id="node1" class="node"><title>MATRIX_INTRO</title>
<a xlink:href="MATRIX_INTRO.html" xlink:title=" Introduction to matrices " target="_top">
<polyline fill="none" stroke="blue" stroke-width="2" points="404,-180 236,-180 "/>
<path fill="none" stroke="blue" stroke-width="2" d="M236,-180C230,-180 224,-174 224,-168"/>
<polyline fill="none" stroke="blue" stroke-width="2" points="224,-168 224,-156 "/>
<path fill="none" stroke="blue" stroke-width="2" d="M224,-156C224,-150 230,-144 236,-144"/>
<polyline fill="none" stroke="blue" stroke-width="2" points="236,-144 404,-144 "/>
<path fill="none" stroke="blue" stroke-width="2" d="M404,-144C410,-144 416,-150 416,-156"/>
<polyline fill="none" stroke="blue" stroke-width="2" points="416,-156 416,-168 "/>
<path fill="none" stroke="blue" stroke-width="2" d="M416,-168C416,-174 410,-180 404,-180"/>
<text text-anchor="start" x="232" y="-159.233" font-family="Times Roman,serif" font-size="14.00"> Introduction to matrices </text>
</a>
</g>
<!-- TRANSITION_MATRIX_OF_MARKOV_CHAIN -->
<g id="node2" class="node"><title>TRANSITION_MATRIX_OF_MARKOV_CHAIN</title>
<a xlink:href="TRANSITION_MATRIX_OF_MARKOV_CHAIN.html" xlink:title=" Markovian transition matrix " target="_top">
<polyline fill="none" stroke="black" points="206,-108 12,-108 "/>
<path fill="none" stroke="black" d="M12,-108C6,-108 9.4739e-14,-102 7.57912e-14,-96"/>
<polyline fill="none" stroke="black" points="7.57912e-14,-96 3.78956e-14,-84 "/>
<path fill="none" stroke="black" d="M3.78956e-14,-84C1.89478e-14,-78 6,-72 12,-72"/>
<polyline fill="none" stroke="black" points="12,-72 206,-72 "/>
<path fill="none" stroke="black" d="M206,-72C212,-72 218,-78 218,-84"/>
<polyline fill="none" stroke="black" points="218,-84 218,-96 "/>
<path fill="none" stroke="black" d="M218,-96C218,-102 212,-108 206,-108"/>
<text text-anchor="start" x="8" y="-87.2333" font-family="Times Roman,serif" font-size="14.00"> Markovian transition matrix </text>
</a>
</g>
<!-- MATRIX_INTRO&#45;&gt;TRANSITION_MATRIX_OF_MARKOV_CHAIN -->
<g id="edge2" class="edge"><title>MATRIX_INTRO&#45;&gt;TRANSITION_MATRIX_OF_MARKOV_CHAIN</title>
<path fill="none" stroke="black" d="M267.028,-143.924C238.058,-134.039 201.993,-121.732 171.634,-111.373"/>
<polygon fill="black" stroke="black" points="172.588,-108 161.994,-108.083 170.327,-114.625 172.588,-108"/>
</g>
<!-- MATRIX_MULTIPLICATION -->
<g id="node4" class="node"><title>MATRIX_MULTIPLICATION</title>
<a xlink:href="MATRIX_MULTIPLICATION.html" xlink:title=" Matrix multiplication " target="_top">
<polyline fill="none" stroke="black" points="392,-108 248,-108 "/>
<path fill="none" stroke="black" d="M248,-108C242,-108 236,-102 236,-96"/>
<polyline fill="none" stroke="black" points="236,-96 236,-84 "/>
<path fill="none" stroke="black" d="M236,-84C236,-78 242,-72 248,-72"/>
<polyline fill="none" stroke="black" points="248,-72 392,-72 "/>
<path fill="none" stroke="black" d="M392,-72C398,-72 404,-78 404,-84"/>
<polyline fill="none" stroke="black" points="404,-84 404,-96 "/>
<path fill="none" stroke="black" d="M404,-96C404,-102 398,-108 392,-108"/>
<text text-anchor="start" x="244.5" y="-87.2333" font-family="Times Roman,serif" font-size="14.00"> Matrix multiplication </text>
</a>
</g>
<!-- MATRIX_INTRO&#45;&gt;MATRIX_MULTIPLICATION -->
<g id="edge4" class="edge"><title>MATRIX_INTRO&#45;&gt;MATRIX_MULTIPLICATION</title>
<path fill="none" stroke="black" d="M320,-143.831C320,-136.131 320,-126.974 320,-118.417"/>
<polygon fill="black" stroke="black" points="323.5,-118.413 320,-108.413 316.5,-118.413 323.5,-118.413"/>
</g>
<!-- MATRIX_INVERSE -->
<g id="node6" class="node"><title>MATRIX_INVERSE</title>
<a xlink:href="MATRIX_INVERSE.html" xlink:title=" The matrix inverse " target="_top">
<polyline fill="none" stroke="black" points="336,-36 204,-36 "/>
<path fill="none" stroke="black" d="M204,-36C198,-36 192,-30 192,-24"/>
<polyline fill="none" stroke="black" points="192,-24 192,-12 "/>
<path fill="none" stroke="black" d="M192,-12C192,-6 198,-1.7217e-14 204,-1.66704e-14"/>
<polyline fill="none" stroke="black" points="204,-1.66704e-14 336,-4.64586e-15 "/>
<path fill="none" stroke="black" d="M336,-4.64586e-15C342,-4.09929e-15 348,-6 348,-12"/>
<polyline fill="none" stroke="black" points="348,-12 348,-24 "/>
<path fill="none" stroke="black" d="M348,-24C348,-30 342,-36 336,-36"/>
<text text-anchor="start" x="200" y="-15.2333" font-family="Times Roman,serif" font-size="14.00"> The matrix inverse </text>
</a>
</g>
<!-- MATRIX_INTRO&#45;&gt;MATRIX_INVERSE -->
<g id="edge6" class="edge"><title>MATRIX_INTRO&#45;&gt;MATRIX_INVERSE</title>
<path fill="none" stroke="black" d="M372.116,-143.802C388.103,-135.487 403.871,-123.857 413,-108 420.983,-94.1337 422.098,-85.1613 413,-72 404.764,-60.0856 377.551,-48.5135 349.042,-39.1582"/>
<polygon fill="black" stroke="black" points="349.94,-35.7711 339.35,-36.0732 347.817,-42.4414 349.94,-35.7711"/>
</g>
<!-- TRANSITION_MATRIX_OF_MARKOV_CHAIN&#45;&gt;MATRIX_INVERSE -->
</g>
</svg>
