<?xml version="1.0" encoding="UTF-8" standalone="no"?>
<!DOCTYPE svg PUBLIC "-//W3C//DTD SVG 1.1//EN"
 "http://www.w3.org/Graphics/SVG/1.1/DTD/svg11.dtd">
<!-- Generated by graphviz version 2.26.3 (20100126.1600)
 -->
<!-- Title: _anonymous_0 Pages: 1 -->
<svg width="266pt" height="188pt"
 viewBox="0.00 0.00 266.00 188.00" xmlns="http://www.w3.org/2000/svg" xmlns:xlink="http://www.w3.org/1999/xlink">
<g id="graph1" class="graph" transform="scale(1 1) rotate(0) translate(4 184)">
<title>_anonymous_0</title>
<!-- MATRIX_INVERSE -->
<g id="node1" class="node"><title>MATRIX_INVERSE</title>
<a xlink:href="MATRIX_INVERSE.html" xlink:title="The matrix inverse" target="_top">
<polyline fill="none" stroke="blue" stroke-width="2" points="191,-108 67,-108 "/>
<path fill="none" stroke="blue" stroke-width="2" d="M67,-108C61,-108 55,-102 55,-96"/>
<polyline fill="none" stroke="blue" stroke-width="2" points="55,-96 55,-84 "/>
<path fill="none" stroke="blue" stroke-width="2" d="M55,-84C55,-78 61,-72 67,-72"/>
<polyline fill="none" stroke="blue" stroke-width="2" points="67,-72 191,-72 "/>
<path fill="none" stroke="blue" stroke-width="2" d="M191,-72C197,-72 203,-78 203,-84"/>
<polyline fill="none" stroke="blue" stroke-width="2" points="203,-84 203,-96 "/>
<path fill="none" stroke="blue" stroke-width="2" d="M203,-96C203,-102 197,-108 191,-108"/>
<text text-anchor="start" x="63.5" y="-87.2333" font-family="Times Roman,serif" font-size="14.00">The matrix inverse</text>
</a>
</g>
<!-- HITTING_PROBABILITIES -->
<g id="node4" class="node"><title>HITTING_PROBABILITIES</title>
<a xlink:href="HITTING_PROBABILITIES.html" xlink:title="Hitting time and hitting probability" target="_top">
<polyline fill="none" stroke="black" points="246,-36 12,-36 "/>
<path fill="none" stroke="black" d="M12,-36C6,-36 9.4739e-14,-30 7.57912e-14,-24"/>
<polyline fill="none" stroke="black" points="7.57912e-14,-24 3.78956e-14,-12 "/>
<path fill="none" stroke="black" d="M3.78956e-14,-12C1.89478e-14,-6 6,-1.74331e-14 12,-1.71026e-14"/>
<polyline fill="none" stroke="black" points="12,-1.71026e-14 246,-4.21368e-15 "/>
<path fill="none" stroke="black" d="M246,-4.21368e-15C252,-3.8832e-15 258,-6 258,-12"/>
<polyline fill="none" stroke="black" points="258,-12 258,-24 "/>
<path fill="none" stroke="black" d="M258,-24C258,-30 252,-36 246,-36"/>
<text text-anchor="start" x="8.5" y="-15.2333" font-family="Times Roman,serif" font-size="14.00">Hitting time and hitting probability</text>
</a>
</g>
<!-- MATRIX_INVERSE&#45;&gt;HITTING_PROBABILITIES -->
<g id="edge4" class="edge"><title>MATRIX_INVERSE&#45;&gt;HITTING_PROBABILITIES</title>
<path fill="none" stroke="black" d="M129,-71.8314C129,-64.131 129,-54.9743 129,-46.4166"/>
<polygon fill="black" stroke="black" points="132.5,-46.4132 129,-36.4133 125.5,-46.4133 132.5,-46.4132"/>
</g>
<!-- MATRIX_INTRO -->
<g id="node2" class="node"><title>MATRIX_INTRO</title>
<a xlink:href="MATRIX_INTRO.html" xlink:title="Introduction to matrices" target="_top">
<polyline fill="none" stroke="black" points="209,-180 49,-180 "/>
<path fill="none" stroke="black" d="M49,-180C43,-180 37,-174 37,-168"/>
<polyline fill="none" stroke="black" points="37,-168 37,-156 "/>
<path fill="none" stroke="black" d="M37,-156C37,-150 43,-144 49,-144"/>
<polyline fill="none" stroke="black" points="49,-144 209,-144 "/>
<path fill="none" stroke="black" d="M209,-144C215,-144 221,-150 221,-156"/>
<polyline fill="none" stroke="black" points="221,-156 221,-168 "/>
<path fill="none" stroke="black" d="M221,-168C221,-174 215,-180 209,-180"/>
<text text-anchor="start" x="45.5" y="-159.233" font-family="Times Roman,serif" font-size="14.00">Introduction to matrices</text>
</a>
</g>
<!-- MATRIX_INTRO&#45;&gt;MATRIX_INVERSE -->
<g id="edge2" class="edge"><title>MATRIX_INTRO&#45;&gt;MATRIX_INVERSE</title>
<path fill="none" stroke="black" d="M129,-143.831C129,-136.131 129,-126.974 129,-118.417"/>
<polygon fill="black" stroke="black" points="132.5,-118.413 129,-108.413 125.5,-118.413 132.5,-118.413"/>
</g>
</g>
</svg>
