<?xml version="1.0" encoding="UTF-8" standalone="no"?>
<!DOCTYPE svg PUBLIC "-//W3C//DTD SVG 1.1//EN"
 "http://www.w3.org/Graphics/SVG/1.1/DTD/svg11.dtd">
<!-- Generated by graphviz version 2.26.3 (20100126.1600)
 -->
<!-- Title: _anonymous_0 Pages: 1 -->
<svg width="402pt" height="188pt"
 viewBox="0.00 0.00 402.00 188.00" xmlns="http://www.w3.org/2000/svg" xmlns:xlink="http://www.w3.org/1999/xlink">
<g id="graph1" class="graph" transform="scale(1 1) rotate(0) translate(4 184)">
<title>_anonymous_0</title>
<!-- MATRIX_INTRO -->
<g id="node1" class="node"><title>MATRIX_INTRO</title>
<a xlink:href="MATRIX_INTRO.html" xlink:title="Introduction to matrices" target="_top">
<polyline fill="none" stroke="blue" stroke-width="2" points="382,-180 222,-180 "/>
<path fill="none" stroke="blue" stroke-width="2" d="M222,-180C216,-180 210,-174 210,-168"/>
<polyline fill="none" stroke="blue" stroke-width="2" points="210,-168 210,-156 "/>
<path fill="none" stroke="blue" stroke-width="2" d="M210,-156C210,-150 216,-144 222,-144"/>
<polyline fill="none" stroke="blue" stroke-width="2" points="222,-144 382,-144 "/>
<path fill="none" stroke="blue" stroke-width="2" d="M382,-144C388,-144 394,-150 394,-156"/>
<polyline fill="none" stroke="blue" stroke-width="2" points="394,-156 394,-168 "/>
<path fill="none" stroke="blue" stroke-width="2" d="M394,-168C394,-174 388,-180 382,-180"/>
<text text-anchor="start" x="218.5" y="-159.233" font-family="Times Roman,serif" font-size="14.00">Introduction to matrices</text>
</a>
</g>
<!-- TRANSITION_MATRIX_OF_MARKOV_CHAIN -->
<g id="node2" class="node"><title>TRANSITION_MATRIX_OF_MARKOV_CHAIN</title>
<a xlink:href="TRANSITION_MATRIX_OF_MARKOV_CHAIN.html" xlink:title="Markovian transition matrix" target="_top">
<polyline fill="none" stroke="black" points="198,-108 12,-108 "/>
<path fill="none" stroke="black" d="M12,-108C6,-108 7.10543e-14,-102 5.68434e-14,-96"/>
<polyline fill="none" stroke="black" points="5.68434e-14,-96 2.84217e-14,-84 "/>
<path fill="none" stroke="black" d="M2.84217e-14,-84C1.42109e-14,-78 6,-72 12,-72"/>
<polyline fill="none" stroke="black" points="12,-72 198,-72 "/>
<path fill="none" stroke="black" d="M198,-72C204,-72 210,-78 210,-84"/>
<polyline fill="none" stroke="black" points="210,-84 210,-96 "/>
<path fill="none" stroke="black" d="M210,-96C210,-102 204,-108 198,-108"/>
<text text-anchor="start" x="8.5" y="-87.2333" font-family="Times Roman,serif" font-size="14.00">Markovian transition matrix</text>
</a>
</g>
<!-- MATRIX_INTRO&#45;&gt;TRANSITION_MATRIX_OF_MARKOV_CHAIN -->
<g id="edge2" class="edge"><title>MATRIX_INTRO&#45;&gt;TRANSITION_MATRIX_OF_MARKOV_CHAIN</title>
<path fill="none" stroke="black" d="M252.543,-143.924C225.729,-134.124 192.405,-121.945 164.215,-111.642"/>
<polygon fill="black" stroke="black" points="165.071,-108.229 154.477,-108.083 162.668,-114.803 165.071,-108.229"/>
</g>
<!-- MATRIX_INVERSE -->
<g id="node4" class="node"><title>MATRIX_INVERSE</title>
<a xlink:href="MATRIX_INVERSE.html" xlink:title="The matrix inverse" target="_top">
<polyline fill="none" stroke="black" points="364,-108 240,-108 "/>
<path fill="none" stroke="black" d="M240,-108C234,-108 228,-102 228,-96"/>
<polyline fill="none" stroke="black" points="228,-96 228,-84 "/>
<path fill="none" stroke="black" d="M228,-84C228,-78 234,-72 240,-72"/>
<polyline fill="none" stroke="black" points="240,-72 364,-72 "/>
<path fill="none" stroke="black" d="M364,-72C370,-72 376,-78 376,-84"/>
<polyline fill="none" stroke="black" points="376,-84 376,-96 "/>
<path fill="none" stroke="black" d="M376,-96C376,-102 370,-108 364,-108"/>
<text text-anchor="start" x="236.5" y="-87.2333" font-family="Times Roman,serif" font-size="14.00">The matrix inverse</text>
</a>
</g>
<!-- MATRIX_INTRO&#45;&gt;MATRIX_INVERSE -->
<g id="edge4" class="edge"><title>MATRIX_INTRO&#45;&gt;MATRIX_INVERSE</title>
<path fill="none" stroke="black" d="M302,-143.831C302,-136.131 302,-126.974 302,-118.417"/>
<polygon fill="black" stroke="black" points="305.5,-118.413 302,-108.413 298.5,-118.413 305.5,-118.413"/>
</g>
<!-- MATRIX_MULTIPLICATION -->
<g id="node6" class="node"><title>MATRIX_MULTIPLICATION</title>
<a xlink:href="MATRIX_MULTIPLICATION.html" xlink:title="Matrix multiplication" target="_top">
<polyline fill="none" stroke="black" points="321,-36 187,-36 "/>
<path fill="none" stroke="black" d="M187,-36C181,-36 175,-30 175,-24"/>
<polyline fill="none" stroke="black" points="175,-24 175,-12 "/>
<path fill="none" stroke="black" d="M175,-12C175,-6 181,-1.72239e-14 187,-1.66843e-14"/>
<polyline fill="none" stroke="black" points="187,-1.66843e-14 321,-4.63202e-15 "/>
<path fill="none" stroke="black" d="M321,-4.63202e-15C327,-4.09237e-15 333,-6 333,-12"/>
<polyline fill="none" stroke="black" points="333,-12 333,-24 "/>
<path fill="none" stroke="black" d="M333,-24C333,-30 327,-36 321,-36"/>
<text text-anchor="start" x="183" y="-15.2333" font-family="Times Roman,serif" font-size="14.00">Matrix multiplication</text>
</a>
</g>
<!-- MATRIX_INTRO&#45;&gt;MATRIX_MULTIPLICATION -->
<g id="edge6" class="edge"><title>MATRIX_INTRO&#45;&gt;MATRIX_MULTIPLICATION</title>
<path fill="none" stroke="black" d="M346.457,-143.869C361.473,-135.346 376.558,-123.565 385,-108 392.629,-93.9357 393.9,-85.2959 385,-72 374.782,-56.7355 359.379,-45.7815 342.685,-37.9222"/>
<polygon fill="black" stroke="black" points="343.871,-34.6217 333.303,-33.8665 341.094,-41.0471 343.871,-34.6217"/>
</g>
<!-- TRANSITION_MATRIX_OF_MARKOV_CHAIN&#45;&gt;MATRIX_MULTIPLICATION -->
</g>
</svg>
