<?xml version="1.0" encoding="UTF-8" standalone="no"?>
<!DOCTYPE svg PUBLIC "-//W3C//DTD SVG 1.1//EN"
 "http://www.w3.org/Graphics/SVG/1.1/DTD/svg11.dtd">
<!-- Generated by graphviz version 2.26.3 (20100126.1600)
 -->
<!-- Title: _anonymous_0 Pages: 1 -->
<svg width="460pt" height="260pt"
 viewBox="0.00 0.00 459.97 260.00" xmlns="http://www.w3.org/2000/svg" xmlns:xlink="http://www.w3.org/1999/xlink">
<g id="graph1" class="graph" transform="scale(1 1) rotate(0) translate(4 256)">
<title>_anonymous_0</title>
<!-- MATRIX_MULTIPLICATION -->
<g id="node1" class="node"><title>MATRIX_MULTIPLICATION</title>
<a xlink:href="MATRIX_MULTIPLICATION.html" xlink:title="Matrix multiplication" target="_top">
<polyline fill="none" stroke="blue" stroke-width="2" points="374,-180 240,-180 "/>
<path fill="none" stroke="blue" stroke-width="2" d="M240,-180C234,-180 228,-174 228,-168"/>
<polyline fill="none" stroke="blue" stroke-width="2" points="228,-168 228,-156 "/>
<path fill="none" stroke="blue" stroke-width="2" d="M228,-156C228,-150 234,-144 240,-144"/>
<polyline fill="none" stroke="blue" stroke-width="2" points="240,-144 374,-144 "/>
<path fill="none" stroke="blue" stroke-width="2" d="M374,-144C380,-144 386,-150 386,-156"/>
<polyline fill="none" stroke="blue" stroke-width="2" points="386,-156 386,-168 "/>
<path fill="none" stroke="blue" stroke-width="2" d="M386,-168C386,-174 380,-180 374,-180"/>
<text text-anchor="start" x="236" y="-159.233" font-family="Times Roman,serif" font-size="14.00">Matrix multiplication</text>
</a>
</g>
<!-- DIFFERENCE_EQUATIONS -->
<g id="node2" class="node"><title>DIFFERENCE_EQUATIONS</title>
<a xlink:href="DIFFERENCE_EQUATIONS.html" xlink:title="Difference equations" target="_top">
<polyline fill="none" stroke="black" points="148,-108 12,-108 "/>
<path fill="none" stroke="black" d="M12,-108C6,-108 7.10543e-14,-102 5.68434e-14,-96"/>
<polyline fill="none" stroke="black" points="5.68434e-14,-96 2.84217e-14,-84 "/>
<path fill="none" stroke="black" d="M2.84217e-14,-84C1.42109e-14,-78 6,-72 12,-72"/>
<polyline fill="none" stroke="black" points="12,-72 148,-72 "/>
<path fill="none" stroke="black" d="M148,-72C154,-72 160,-78 160,-84"/>
<polyline fill="none" stroke="black" points="160,-84 160,-96 "/>
<path fill="none" stroke="black" d="M160,-96C160,-102 154,-108 148,-108"/>
<text text-anchor="start" x="8" y="-87.2333" font-family="Times Roman,serif" font-size="14.00">Difference equations</text>
</a>
</g>
<!-- MATRIX_MULTIPLICATION&#45;&gt;DIFFERENCE_EQUATIONS -->
<g id="edge2" class="edge"><title>MATRIX_MULTIPLICATION&#45;&gt;DIFFERENCE_EQUATIONS</title>
<path fill="none" stroke="black" d="M250.011,-143.924C218.709,-133.996 179.708,-121.625 146.959,-111.238"/>
<polygon fill="black" stroke="black" points="147.602,-107.77 137.012,-108.083 145.486,-114.443 147.602,-107.77"/>
</g>
<!-- CHAPMAN_KOLMOGOROV_RELATION -->
<g id="node4" class="node"><title>CHAPMAN_KOLMOGOROV_RELATION</title>
<a xlink:href="CHAPMAN_KOLMOGOROV_RELATION.html" xlink:title="The Chapman Kolmogorov Relation" target="_top">
<polyline fill="none" stroke="black" points="424,-108 190,-108 "/>
<path fill="none" stroke="black" d="M190,-108C184,-108 178,-102 178,-96"/>
<polyline fill="none" stroke="black" points="178,-96 178,-84 "/>
<path fill="none" stroke="black" d="M178,-84C178,-78 184,-72 190,-72"/>
<polyline fill="none" stroke="black" points="190,-72 424,-72 "/>
<path fill="none" stroke="black" d="M424,-72C430,-72 436,-78 436,-84"/>
<polyline fill="none" stroke="black" points="436,-84 436,-96 "/>
<path fill="none" stroke="black" d="M436,-96C436,-102 430,-108 424,-108"/>
<text text-anchor="start" x="186" y="-87.2333" font-family="Times Roman,serif" font-size="14.00">The Chapman Kolmogorov Relation</text>
</a>
</g>
<!-- MATRIX_MULTIPLICATION&#45;&gt;CHAPMAN_KOLMOGOROV_RELATION -->
<g id="edge4" class="edge"><title>MATRIX_MULTIPLICATION&#45;&gt;CHAPMAN_KOLMOGOROV_RELATION</title>
<path fill="none" stroke="black" d="M307,-143.831C307,-136.131 307,-126.974 307,-118.417"/>
<polygon fill="black" stroke="black" points="310.5,-118.413 307,-108.413 303.5,-118.413 310.5,-118.413"/>
</g>
<!-- MATRIX_POWERS -->
<g id="node8" class="node"><title>MATRIX_POWERS</title>
<a xlink:href="MATRIX_POWERS.html" xlink:title="Taking positive integer powers of a square matrix" target="_top">
<polyline fill="none" stroke="black" points="439,-36 105,-36 "/>
<path fill="none" stroke="black" d="M105,-36C99,-36 93,-30 93,-24"/>
<polyline fill="none" stroke="black" points="93,-24 93,-12 "/>
<path fill="none" stroke="black" d="M93,-12C93,-6 99,-1.75254e-14 105,-1.72872e-14"/>
<polyline fill="none" stroke="black" points="105,-1.72872e-14 439,-4.02906e-15 "/>
<path fill="none" stroke="black" d="M439,-4.02906e-15C445,-3.79088e-15 451,-6 451,-12"/>
<polyline fill="none" stroke="black" points="451,-12 451,-24 "/>
<path fill="none" stroke="black" d="M451,-24C451,-30 445,-36 439,-36"/>
<text text-anchor="start" x="101" y="-15.2333" font-family="Times Roman,serif" font-size="14.00">Taking positive integer powers of a square matrix</text>
</a>
</g>
<!-- MATRIX_MULTIPLICATION&#45;&gt;MATRIX_POWERS -->
<g id="edge8" class="edge"><title>MATRIX_MULTIPLICATION&#45;&gt;MATRIX_POWERS</title>
<path fill="none" stroke="black" d="M373.197,-143.879C404.136,-133.939 436.117,-121.015 445,-108 454.02,-94.7847 454.48,-84.8895 445,-72 435.329,-58.8502 405.079,-47.4891 372.519,-38.6269"/>
<polygon fill="black" stroke="black" points="373.389,-35.2366 362.827,-36.0762 371.607,-42.0061 373.389,-35.2366"/>
</g>
<!-- DIFFERENCE_EQUATIONS&#45;&gt;MATRIX_POWERS -->
<!-- MATRIX_INTRO -->
<g id="node6" class="node"><title>MATRIX_INTRO</title>
<a xlink:href="MATRIX_INTRO.html" xlink:title="Introduction to matrices" target="_top">
<polyline fill="none" stroke="black" points="387,-252 227,-252 "/>
<path fill="none" stroke="black" d="M227,-252C221,-252 215,-246 215,-240"/>
<polyline fill="none" stroke="black" points="215,-240 215,-228 "/>
<path fill="none" stroke="black" d="M215,-228C215,-222 221,-216 227,-216"/>
<polyline fill="none" stroke="black" points="227,-216 387,-216 "/>
<path fill="none" stroke="black" d="M387,-216C393,-216 399,-222 399,-228"/>
<polyline fill="none" stroke="black" points="399,-228 399,-240 "/>
<path fill="none" stroke="black" d="M399,-240C399,-246 393,-252 387,-252"/>
<text text-anchor="start" x="223.5" y="-231.233" font-family="Times Roman,serif" font-size="14.00">Introduction to matrices</text>
</a>
</g>
<!-- MATRIX_INTRO&#45;&gt;MATRIX_MULTIPLICATION -->
<g id="edge6" class="edge"><title>MATRIX_INTRO&#45;&gt;MATRIX_MULTIPLICATION</title>
<path fill="none" stroke="black" d="M307,-215.831C307,-208.131 307,-198.974 307,-190.417"/>
<polygon fill="black" stroke="black" points="310.5,-190.413 307,-180.413 303.5,-190.413 310.5,-190.413"/>
</g>
</g>
</svg>
