<?xml version="1.0" encoding="UTF-8" standalone="no"?>
<!DOCTYPE svg PUBLIC "-//W3C//DTD SVG 1.1//EN"
 "http://www.w3.org/Graphics/SVG/1.1/DTD/svg11.dtd">
<!-- Generated by graphviz version 2.28.0 (20110509.1545)
 -->
<!-- Title: _anonymous_0 Pages: 1 -->
<svg width="541pt" height="188pt"
 viewBox="0.00 0.00 541.00 188.00" xmlns="http://www.w3.org/2000/svg" xmlns:xlink="http://www.w3.org/1999/xlink">
<g id="graph1" class="graph" transform="scale(1 1) rotate(0) translate(4 184)">
<title>_anonymous_0</title>
<!-- MATRIX_MULTIPLICATION -->
<g id="node1" class="node"><title>MATRIX_MULTIPLICATION</title>
<a xlink:href="MATRIX_MULTIPLICATION.html" xlink:title="Matrix multiplication" target="_top">
<polyline fill="none" stroke="blue" stroke-width="2" points="304.25,-108 191.75,-108 "/>
<path fill="none" stroke="blue" stroke-width="2" d="M191.75,-108C185.75,-108 179.75,-102 179.75,-96"/>
<polyline fill="none" stroke="blue" stroke-width="2" points="179.75,-96 179.75,-84 "/>
<path fill="none" stroke="blue" stroke-width="2" d="M179.75,-84C179.75,-78 185.75,-72 191.75,-72"/>
<polyline fill="none" stroke="blue" stroke-width="2" points="191.75,-72 304.25,-72 "/>
<path fill="none" stroke="blue" stroke-width="2" d="M304.25,-72C310.25,-72 316.25,-78 316.25,-84"/>
<polyline fill="none" stroke="blue" stroke-width="2" points="316.25,-84 316.25,-96 "/>
<path fill="none" stroke="blue" stroke-width="2" d="M316.25,-96C316.25,-102 310.25,-108 304.25,-108"/>
<text text-anchor="start" x="188" y="-84.5" font-family="Times,serif" font-size="14.00">Matrix multiplication</text>
</a>
</g>
<!-- CHAPMAN_KOLMOGOROV_RELATION -->
<g id="node2" class="node"><title>CHAPMAN_KOLMOGOROV_RELATION</title>
<a xlink:href="CHAPMAN_KOLMOGOROV_RELATION.html" xlink:title="The Chapman Kolmogorov Relation" target="_top">
<polyline fill="none" stroke="black" points="208.25,-36 11.75,-36 "/>
<path fill="none" stroke="black" d="M11.75,-36C5.75,-36 -0.25,-30 -0.25,-24"/>
<polyline fill="none" stroke="black" points="-0.25,-24 -0.25,-12 "/>
<path fill="none" stroke="black" d="M-0.25,-12C-0.25,-6 5.75,-0 11.75,-0"/>
<polyline fill="none" stroke="black" points="11.75,-0 208.25,-0 "/>
<path fill="none" stroke="black" d="M208.25,-0C214.25,-0 220.25,-6 220.25,-12"/>
<polyline fill="none" stroke="black" points="220.25,-12 220.25,-24 "/>
<path fill="none" stroke="black" d="M220.25,-24C220.25,-30 214.25,-36 208.25,-36"/>
<text text-anchor="start" x="8" y="-12.5" font-family="Times,serif" font-size="14.00">The Chapman Kolmogorov Relation</text>
</a>
</g>
<!-- MATRIX_MULTIPLICATION&#45;&gt;CHAPMAN_KOLMOGOROV_RELATION -->
<g id="edge2" class="edge"><title>MATRIX_MULTIPLICATION&#45;&gt;CHAPMAN_KOLMOGOROV_RELATION</title>
<path fill="none" stroke="black" d="M214.241,-71.8761C195.78,-62.5117 172.718,-50.8136 152.983,-40.803"/>
<polygon fill="black" stroke="black" points="154.39,-37.5922 143.888,-36.1898 151.223,-43.835 154.39,-37.5922"/>
</g>
<!-- MATRIX_POWERS -->
<g id="node6" class="node"><title>MATRIX_POWERS</title>
<a xlink:href="MATRIX_POWERS.html" xlink:title="Taking positive integer powers of a square matrix" target="_top">
<polyline fill="none" stroke="black" points="521,-36 251,-36 "/>
<path fill="none" stroke="black" d="M251,-36C245,-36 239,-30 239,-24"/>
<polyline fill="none" stroke="black" points="239,-24 239,-12 "/>
<path fill="none" stroke="black" d="M239,-12C239,-6 245,-0 251,-0"/>
<polyline fill="none" stroke="black" points="251,-0 521,-0 "/>
<path fill="none" stroke="black" d="M521,-0C527,-0 533,-6 533,-12"/>
<polyline fill="none" stroke="black" points="533,-12 533,-24 "/>
<path fill="none" stroke="black" d="M533,-24C533,-30 527,-36 521,-36"/>
<text text-anchor="start" x="247.5" y="-12.5" font-family="Times,serif" font-size="14.00">Taking positive integer powers of a square matrix</text>
</a>
</g>
<!-- MATRIX_MULTIPLICATION&#45;&gt;MATRIX_POWERS -->
<g id="edge6" class="edge"><title>MATRIX_MULTIPLICATION&#45;&gt;MATRIX_POWERS</title>
<path fill="none" stroke="black" d="M281.759,-71.8761C300.22,-62.5117 323.282,-50.8136 343.017,-40.803"/>
<polygon fill="black" stroke="black" points="344.777,-43.835 352.112,-36.1898 341.61,-37.5922 344.777,-43.835"/>
</g>
<!-- MATRIX_INTRO -->
<g id="node4" class="node"><title>MATRIX_INTRO</title>
<a xlink:href="MATRIX_INTRO.html" xlink:title="Introduction to matrices" target="_top">
<polyline fill="none" stroke="black" points="311.25,-180 184.75,-180 "/>
<path fill="none" stroke="black" d="M184.75,-180C178.75,-180 172.75,-174 172.75,-168"/>
<polyline fill="none" stroke="black" points="172.75,-168 172.75,-156 "/>
<path fill="none" stroke="black" d="M172.75,-156C172.75,-150 178.75,-144 184.75,-144"/>
<polyline fill="none" stroke="black" points="184.75,-144 311.25,-144 "/>
<path fill="none" stroke="black" d="M311.25,-144C317.25,-144 323.25,-150 323.25,-156"/>
<polyline fill="none" stroke="black" points="323.25,-156 323.25,-168 "/>
<path fill="none" stroke="black" d="M323.25,-168C323.25,-174 317.25,-180 311.25,-180"/>
<text text-anchor="start" x="181" y="-156.5" font-family="Times,serif" font-size="14.00">Introduction to matrices</text>
</a>
</g>
<!-- MATRIX_INTRO&#45;&gt;MATRIX_MULTIPLICATION -->
<g id="edge4" class="edge"><title>MATRIX_INTRO&#45;&gt;MATRIX_MULTIPLICATION</title>
<path fill="none" stroke="black" d="M248,-143.697C248,-135.983 248,-126.712 248,-118.112"/>
<polygon fill="black" stroke="black" points="251.5,-118.104 248,-108.104 244.5,-118.104 251.5,-118.104"/>
</g>
</g>
</svg>
