<?xml version="1.0" encoding="UTF-8" standalone="no"?>
<!DOCTYPE svg PUBLIC "-//W3C//DTD SVG 1.1//EN"
 "http://www.w3.org/Graphics/SVG/1.1/DTD/svg11.dtd">
<!-- Generated by graphviz version 2.28.0 (20110509.1545)
 -->
<!-- Title: _anonymous_0 Pages: 1 -->
<svg width="302pt" height="188pt"
 viewBox="0.00 0.00 302.00 188.00" xmlns="http://www.w3.org/2000/svg" xmlns:xlink="http://www.w3.org/1999/xlink">
<g id="graph1" class="graph" transform="scale(1 1) rotate(0) translate(4 184)">
<title>_anonymous_0</title>
<!-- MATRIX_POWERS -->
<g id="node1" class="node"><title>MATRIX_POWERS</title>
<a xlink:href="MATRIX_POWERS.html" xlink:title="Taking positive integer powers of a square matrix" target="_top">
<polyline fill="none" stroke="blue" stroke-width="2" points="282,-108 12,-108 "/>
<path fill="none" stroke="blue" stroke-width="2" d="M12,-108C6,-108 0,-102 0,-96"/>
<polyline fill="none" stroke="blue" stroke-width="2" points="0,-96 0,-84 "/>
<path fill="none" stroke="blue" stroke-width="2" d="M0,-84C0,-78 6,-72 12,-72"/>
<polyline fill="none" stroke="blue" stroke-width="2" points="12,-72 282,-72 "/>
<path fill="none" stroke="blue" stroke-width="2" d="M282,-72C288,-72 294,-78 294,-84"/>
<polyline fill="none" stroke="blue" stroke-width="2" points="294,-84 294,-96 "/>
<path fill="none" stroke="blue" stroke-width="2" d="M294,-96C294,-102 288,-108 282,-108"/>
<text text-anchor="start" x="8.5" y="-84.5" font-family="Times,serif" font-size="14.00">Taking positive integer powers of a square matrix</text>
</a>
</g>
<!-- CHAPMAN_KOLMOGOROV_RELATION -->
<g id="node2" class="node"><title>CHAPMAN_KOLMOGOROV_RELATION</title>
<a xlink:href="CHAPMAN_KOLMOGOROV_RELATION.html" xlink:title="The Chapman Kolmogorov Relation" target="_top">
<polyline fill="none" stroke="black" points="245.25,-36 48.75,-36 "/>
<path fill="none" stroke="black" d="M48.75,-36C42.75,-36 36.75,-30 36.75,-24"/>
<polyline fill="none" stroke="black" points="36.75,-24 36.75,-12 "/>
<path fill="none" stroke="black" d="M36.75,-12C36.75,-6 42.75,-0 48.75,-0"/>
<polyline fill="none" stroke="black" points="48.75,-0 245.25,-0 "/>
<path fill="none" stroke="black" d="M245.25,-0C251.25,-0 257.25,-6 257.25,-12"/>
<polyline fill="none" stroke="black" points="257.25,-12 257.25,-24 "/>
<path fill="none" stroke="black" d="M257.25,-24C257.25,-30 251.25,-36 245.25,-36"/>
<text text-anchor="start" x="45" y="-12.5" font-family="Times,serif" font-size="14.00">The Chapman Kolmogorov Relation</text>
</a>
</g>
<!-- MATRIX_POWERS&#45;&gt;CHAPMAN_KOLMOGOROV_RELATION -->
<g id="edge2" class="edge"><title>MATRIX_POWERS&#45;&gt;CHAPMAN_KOLMOGOROV_RELATION</title>
<path fill="none" stroke="black" d="M147,-71.6966C147,-63.9827 147,-54.7125 147,-46.1124"/>
<polygon fill="black" stroke="black" points="150.5,-46.1043 147,-36.1043 143.5,-46.1044 150.5,-46.1043"/>
</g>
<!-- MATRIX_MULTIPLICATION -->
<g id="node4" class="node"><title>MATRIX_MULTIPLICATION</title>
<a xlink:href="MATRIX_MULTIPLICATION.html" xlink:title="Matrix multiplication" target="_top">
<polyline fill="none" stroke="black" points="203.25,-180 90.75,-180 "/>
<path fill="none" stroke="black" d="M90.75,-180C84.75,-180 78.75,-174 78.75,-168"/>
<polyline fill="none" stroke="black" points="78.75,-168 78.75,-156 "/>
<path fill="none" stroke="black" d="M78.75,-156C78.75,-150 84.75,-144 90.75,-144"/>
<polyline fill="none" stroke="black" points="90.75,-144 203.25,-144 "/>
<path fill="none" stroke="black" d="M203.25,-144C209.25,-144 215.25,-150 215.25,-156"/>
<polyline fill="none" stroke="black" points="215.25,-156 215.25,-168 "/>
<path fill="none" stroke="black" d="M215.25,-168C215.25,-174 209.25,-180 203.25,-180"/>
<text text-anchor="start" x="87" y="-156.5" font-family="Times,serif" font-size="14.00">Matrix multiplication</text>
</a>
</g>
<!-- MATRIX_MULTIPLICATION&#45;&gt;MATRIX_POWERS -->
<g id="edge4" class="edge"><title>MATRIX_MULTIPLICATION&#45;&gt;MATRIX_POWERS</title>
<path fill="none" stroke="black" d="M147,-143.697C147,-135.983 147,-126.712 147,-118.112"/>
<polygon fill="black" stroke="black" points="150.5,-118.104 147,-108.104 143.5,-118.104 150.5,-118.104"/>
</g>
</g>
</svg>
