<?xml version="1.0" encoding="UTF-8" standalone="no"?>
<!DOCTYPE svg PUBLIC "-//W3C//DTD SVG 1.1//EN"
 "http://www.w3.org/Graphics/SVG/1.1/DTD/svg11.dtd">
<!-- Generated by graphviz version 2.26.3 (20100126.1600)
 -->
<!-- Title: _anonymous_0 Pages: 1 -->
<svg width="483pt" height="260pt"
 viewBox="0.00 0.00 483.00 260.00" xmlns="http://www.w3.org/2000/svg" xmlns:xlink="http://www.w3.org/1999/xlink">
<g id="graph1" class="graph" transform="scale(1 1) rotate(0) translate(4 256)">
<title>_anonymous_0</title>
<!-- MATRIX_MULTIPLICATION -->
<g id="node1" class="node"><title>MATRIX_MULTIPLICATION</title>
<a xlink:href="MATRIX_MULTIPLICATION.html" xlink:title="Matrix multiplication" target="_top">
<polyline fill="none" stroke="blue" stroke-width="2" points="423,-180 289,-180 "/>
<path fill="none" stroke="blue" stroke-width="2" d="M289,-180C283,-180 277,-174 277,-168"/>
<polyline fill="none" stroke="blue" stroke-width="2" points="277,-168 277,-156 "/>
<path fill="none" stroke="blue" stroke-width="2" d="M277,-156C277,-150 283,-144 289,-144"/>
<polyline fill="none" stroke="blue" stroke-width="2" points="289,-144 423,-144 "/>
<path fill="none" stroke="blue" stroke-width="2" d="M423,-144C429,-144 435,-150 435,-156"/>
<polyline fill="none" stroke="blue" stroke-width="2" points="435,-156 435,-168 "/>
<path fill="none" stroke="blue" stroke-width="2" d="M435,-168C435,-174 429,-180 423,-180"/>
<text text-anchor="start" x="285" y="-159.233" font-family="Times Roman,serif" font-size="14.00">Matrix multiplication</text>
</a>
</g>
<!-- CHAPMAN_KOLMOGOROV_RELATION -->
<g id="node2" class="node"><title>CHAPMAN_KOLMOGOROV_RELATION</title>
<a xlink:href="CHAPMAN_KOLMOGOROV_RELATION.html" xlink:title="The Chapman Kolmogorov Relation" target="_top">
<polyline fill="none" stroke="black" points="246,-108 12,-108 "/>
<path fill="none" stroke="black" d="M12,-108C6,-108 9.4739e-14,-102 7.57912e-14,-96"/>
<polyline fill="none" stroke="black" points="7.57912e-14,-96 3.78956e-14,-84 "/>
<path fill="none" stroke="black" d="M3.78956e-14,-84C1.89478e-14,-78 6,-72 12,-72"/>
<polyline fill="none" stroke="black" points="12,-72 246,-72 "/>
<path fill="none" stroke="black" d="M246,-72C252,-72 258,-78 258,-84"/>
<polyline fill="none" stroke="black" points="258,-84 258,-96 "/>
<path fill="none" stroke="black" d="M258,-96C258,-102 252,-108 246,-108"/>
<text text-anchor="start" x="8" y="-87.2333" font-family="Times Roman,serif" font-size="14.00">The Chapman Kolmogorov Relation</text>
</a>
</g>
<!-- MATRIX_MULTIPLICATION&#45;&gt;CHAPMAN_KOLMOGOROV_RELATION -->
<g id="edge2" class="edge"><title>MATRIX_MULTIPLICATION&#45;&gt;CHAPMAN_KOLMOGOROV_RELATION</title>
<path fill="none" stroke="black" d="M299.011,-143.924C267.709,-133.996 228.708,-121.625 195.959,-111.238"/>
<polygon fill="black" stroke="black" points="196.602,-107.77 186.012,-108.083 194.486,-114.443 196.602,-107.77"/>
</g>
<!-- DIFFERENCE_EQUATIONS -->
<g id="node4" class="node"><title>DIFFERENCE_EQUATIONS</title>
<a xlink:href="DIFFERENCE_EQUATIONS.html" xlink:title="Difference equations" target="_top">
<polyline fill="none" stroke="black" points="424,-108 288,-108 "/>
<path fill="none" stroke="black" d="M288,-108C282,-108 276,-102 276,-96"/>
<polyline fill="none" stroke="black" points="276,-96 276,-84 "/>
<path fill="none" stroke="black" d="M276,-84C276,-78 282,-72 288,-72"/>
<polyline fill="none" stroke="black" points="288,-72 424,-72 "/>
<path fill="none" stroke="black" d="M424,-72C430,-72 436,-78 436,-84"/>
<polyline fill="none" stroke="black" points="436,-84 436,-96 "/>
<path fill="none" stroke="black" d="M436,-96C436,-102 430,-108 424,-108"/>
<text text-anchor="start" x="284" y="-87.2333" font-family="Times Roman,serif" font-size="14.00">Difference equations</text>
</a>
</g>
<!-- MATRIX_MULTIPLICATION&#45;&gt;DIFFERENCE_EQUATIONS -->
<g id="edge4" class="edge"><title>MATRIX_MULTIPLICATION&#45;&gt;DIFFERENCE_EQUATIONS</title>
<path fill="none" stroke="black" d="M356,-143.831C356,-136.131 356,-126.974 356,-118.417"/>
<polygon fill="black" stroke="black" points="359.5,-118.413 356,-108.413 352.5,-118.413 359.5,-118.413"/>
</g>
<!-- MATRIX_POWERS -->
<g id="node6" class="node"><title>MATRIX_POWERS</title>
<a xlink:href="MATRIX_POWERS.html" xlink:title="Taking positive integer powers of a square matrix" target="_top">
<polyline fill="none" stroke="black" points="463,-36 129,-36 "/>
<path fill="none" stroke="black" d="M129,-36C123,-36 117,-30 117,-24"/>
<polyline fill="none" stroke="black" points="117,-24 117,-12 "/>
<path fill="none" stroke="black" d="M117,-12C117,-6 123,-1.75254e-14 129,-1.72872e-14"/>
<polyline fill="none" stroke="black" points="129,-1.72872e-14 463,-4.02906e-15 "/>
<path fill="none" stroke="black" d="M463,-4.02906e-15C469,-3.79088e-15 475,-6 475,-12"/>
<polyline fill="none" stroke="black" points="475,-12 475,-24 "/>
<path fill="none" stroke="black" d="M475,-24C475,-30 469,-36 463,-36"/>
<text text-anchor="start" x="125" y="-15.2333" font-family="Times Roman,serif" font-size="14.00">Taking positive integer powers of a square matrix</text>
</a>
</g>
<!-- MATRIX_MULTIPLICATION&#45;&gt;MATRIX_POWERS -->
<g id="edge6" class="edge"><title>MATRIX_MULTIPLICATION&#45;&gt;MATRIX_POWERS</title>
<path fill="none" stroke="black" d="M404.992,-143.827C420.615,-135.434 436.134,-123.749 445,-108 452.849,-94.0574 454.186,-85.1001 445,-72 436.447,-59.8034 408.473,-48.2635 379.036,-39.0068"/>
<polygon fill="black" stroke="black" points="380.036,-35.6528 369.45,-36.0837 377.994,-42.3484 380.036,-35.6528"/>
</g>
<!-- CHAPMAN_KOLMOGOROV_RELATION&#45;&gt;MATRIX_POWERS -->
<!-- MATRIX_INTRO -->
<g id="node9" class="node"><title>MATRIX_INTRO</title>
<a xlink:href="MATRIX_INTRO.html" xlink:title="Introduction to matrices" target="_top">
<polyline fill="none" stroke="black" points="436,-252 276,-252 "/>
<path fill="none" stroke="black" d="M276,-252C270,-252 264,-246 264,-240"/>
<polyline fill="none" stroke="black" points="264,-240 264,-228 "/>
<path fill="none" stroke="black" d="M264,-228C264,-222 270,-216 276,-216"/>
<polyline fill="none" stroke="black" points="276,-216 436,-216 "/>
<path fill="none" stroke="black" d="M436,-216C442,-216 448,-222 448,-228"/>
<polyline fill="none" stroke="black" points="448,-228 448,-240 "/>
<path fill="none" stroke="black" d="M448,-240C448,-246 442,-252 436,-252"/>
<text text-anchor="start" x="272.5" y="-231.233" font-family="Times Roman,serif" font-size="14.00">Introduction to matrices</text>
</a>
</g>
<!-- MATRIX_INTRO&#45;&gt;MATRIX_MULTIPLICATION -->
<g id="edge10" class="edge"><title>MATRIX_INTRO&#45;&gt;MATRIX_MULTIPLICATION</title>
<path fill="none" stroke="black" d="M356,-215.831C356,-208.131 356,-198.974 356,-190.417"/>
<polygon fill="black" stroke="black" points="359.5,-190.413 356,-180.413 352.5,-190.413 359.5,-190.413"/>
</g>
</g>
</svg>
