<?xml version="1.0" encoding="UTF-8" standalone="no"?>
<!DOCTYPE svg PUBLIC "-//W3C//DTD SVG 1.1//EN"
 "http://www.w3.org/Graphics/SVG/1.1/DTD/svg11.dtd">
<!-- Generated by graphviz version 2.36.0 (20140111.2315)
 -->
<!-- Title: %3 Pages: 1 -->
<svg width="224pt" height="188pt"
 viewBox="0.00 0.00 224.00 188.00" xmlns="http://www.w3.org/2000/svg" xmlns:xlink="http://www.w3.org/1999/xlink">
<g id="graph0" class="graph" transform="scale(1 1) rotate(0) translate(4 184)">
<title>%3</title>
<!-- MATRIX_INVERSE -->
<g id="node1" class="node"><title>MATRIX_INVERSE</title>
<g id="a_node1"><a xlink:href="MATRIX_INVERSE.html" xlink:title=" The matrix inverse " target="_top">
<path fill="none" stroke="blue" stroke-width="2" d="M160,-108C160,-108 56,-108 56,-108 50,-108 44,-102 44,-96 44,-96 44,-84 44,-84 44,-78 50,-72 56,-72 56,-72 160,-72 160,-72 166,-72 172,-78 172,-84 172,-84 172,-96 172,-96 172,-102 166,-108 160,-108"/>
<text text-anchor="start" x="52" y="-86.3" font-family="Times,serif" font-size="14.00"> The matrix inverse </text>
</a>
</g>
</g>
<!-- HITTING_PROBABILITIES -->
<g id="node2" class="node"><title>HITTING_PROBABILITIES</title>
<g id="a_node2"><a xlink:href="HITTING_PROBABILITIES.html" xlink:title=" Hitting time and hitting probability " target="_top">
<path fill="none" stroke="black" d="M204,-36C204,-36 12,-36 12,-36 6,-36 0,-30 0,-24 0,-24 0,-12 0,-12 0,-6 6,-0 12,-0 12,-0 204,-0 204,-0 210,-0 216,-6 216,-12 216,-12 216,-24 216,-24 216,-30 210,-36 204,-36"/>
<text text-anchor="start" x="8" y="-14.3" font-family="Times,serif" font-size="14.00"> Hitting time and hitting probability </text>
</a>
</g>
</g>
<!-- MATRIX_INVERSE&#45;&gt;HITTING_PROBABILITIES -->
<g id="edge1" class="edge"><title>MATRIX_INVERSE&#45;&gt;HITTING_PROBABILITIES</title>
<path fill="none" stroke="black" d="M108,-71.6966C108,-63.9827 108,-54.7125 108,-46.1124"/>
<polygon fill="black" stroke="black" points="111.5,-46.1043 108,-36.1043 104.5,-46.1044 111.5,-46.1043"/>
</g>
<!-- MATRIX_INTRO -->
<g id="node3" class="node"><title>MATRIX_INTRO</title>
<g id="a_node3"><a xlink:href="MATRIX_INTRO.html" xlink:title=" Introduction to matrices " target="_top">
<path fill="none" stroke="black" d="M173.25,-180C173.25,-180 42.75,-180 42.75,-180 36.75,-180 30.75,-174 30.75,-168 30.75,-168 30.75,-156 30.75,-156 30.75,-150 36.75,-144 42.75,-144 42.75,-144 173.25,-144 173.25,-144 179.25,-144 185.25,-150 185.25,-156 185.25,-156 185.25,-168 185.25,-168 185.25,-174 179.25,-180 173.25,-180"/>
<text text-anchor="start" x="38.5" y="-158.3" font-family="Times,serif" font-size="14.00"> Introduction to matrices </text>
</a>
</g>
</g>
<!-- MATRIX_INTRO&#45;&gt;MATRIX_INVERSE -->
<g id="edge2" class="edge"><title>MATRIX_INTRO&#45;&gt;MATRIX_INVERSE</title>
<path fill="none" stroke="black" d="M108,-143.697C108,-135.983 108,-126.712 108,-118.112"/>
<polygon fill="black" stroke="black" points="111.5,-118.104 108,-108.104 104.5,-118.104 111.5,-118.104"/>
</g>
</g>
</svg>
