<?xml version="1.0" encoding="UTF-8" standalone="no"?>
<!DOCTYPE svg PUBLIC "-//W3C//DTD SVG 1.1//EN"
 "http://www.w3.org/Graphics/SVG/1.1/DTD/svg11.dtd">
<!-- Generated by graphviz version 2.26.3 (20100126.1600)
 -->
<!-- Title: _anonymous_0 Pages: 1 -->
<svg width="400pt" height="188pt"
 viewBox="0.00 0.00 399.67 188.00" xmlns="http://www.w3.org/2000/svg" xmlns:xlink="http://www.w3.org/1999/xlink">
<g id="graph1" class="graph" transform="scale(1 1) rotate(0) translate(4 184)">
<title>_anonymous_0</title>
<!-- MATRIX_INTRO -->
<g id="node1" class="node"><title>MATRIX_INTRO</title>
<a xlink:href="MATRIX_INTRO.html" xlink:title="Introduction to matrices" target="_top">
<polyline fill="none" stroke="blue" stroke-width="2" points="351,-180 191,-180 "/>
<path fill="none" stroke="blue" stroke-width="2" d="M191,-180C185,-180 179,-174 179,-168"/>
<polyline fill="none" stroke="blue" stroke-width="2" points="179,-168 179,-156 "/>
<path fill="none" stroke="blue" stroke-width="2" d="M179,-156C179,-150 185,-144 191,-144"/>
<polyline fill="none" stroke="blue" stroke-width="2" points="191,-144 351,-144 "/>
<path fill="none" stroke="blue" stroke-width="2" d="M351,-144C357,-144 363,-150 363,-156"/>
<polyline fill="none" stroke="blue" stroke-width="2" points="363,-156 363,-168 "/>
<path fill="none" stroke="blue" stroke-width="2" d="M363,-168C363,-174 357,-180 351,-180"/>
<text text-anchor="start" x="187.5" y="-159.233" font-family="Times Roman,serif" font-size="14.00">Introduction to matrices</text>
</a>
</g>
<!-- MATRIX_INVERSE -->
<g id="node2" class="node"><title>MATRIX_INVERSE</title>
<a xlink:href="MATRIX_INVERSE.html" xlink:title="The matrix inverse" target="_top">
<polyline fill="none" stroke="black" points="136,-108 12,-108 "/>
<path fill="none" stroke="black" d="M12,-108C6,-108 5.92119e-14,-102 4.73695e-14,-96"/>
<polyline fill="none" stroke="black" points="4.73695e-14,-96 2.36848e-14,-84 "/>
<path fill="none" stroke="black" d="M2.36848e-14,-84C1.18424e-14,-78 6,-72 12,-72"/>
<polyline fill="none" stroke="black" points="12,-72 136,-72 "/>
<path fill="none" stroke="black" d="M136,-72C142,-72 148,-78 148,-84"/>
<polyline fill="none" stroke="black" points="148,-84 148,-96 "/>
<path fill="none" stroke="black" d="M148,-96C148,-102 142,-108 136,-108"/>
<text text-anchor="start" x="8.5" y="-87.2333" font-family="Times Roman,serif" font-size="14.00">The matrix inverse</text>
</a>
</g>
<!-- MATRIX_INTRO&#45;&gt;MATRIX_INVERSE -->
<g id="edge2" class="edge"><title>MATRIX_INTRO&#45;&gt;MATRIX_INVERSE</title>
<path fill="none" stroke="black" d="M221.543,-143.924C194.729,-134.124 161.405,-121.945 133.215,-111.642"/>
<polygon fill="black" stroke="black" points="134.071,-108.229 123.477,-108.083 131.668,-114.803 134.071,-108.229"/>
</g>
<!-- TRANSITION_MATRIX_OF_MARKOV_CHAIN -->
<g id="node4" class="node"><title>TRANSITION_MATRIX_OF_MARKOV_CHAIN</title>
<a xlink:href="TRANSITION_MATRIX_OF_MARKOV_CHAIN.html" xlink:title="Markovian transition matrix" target="_top">
<polyline fill="none" stroke="black" points="364,-108 178,-108 "/>
<path fill="none" stroke="black" d="M178,-108C172,-108 166,-102 166,-96"/>
<polyline fill="none" stroke="black" points="166,-96 166,-84 "/>
<path fill="none" stroke="black" d="M166,-84C166,-78 172,-72 178,-72"/>
<polyline fill="none" stroke="black" points="178,-72 364,-72 "/>
<path fill="none" stroke="black" d="M364,-72C370,-72 376,-78 376,-84"/>
<polyline fill="none" stroke="black" points="376,-84 376,-96 "/>
<path fill="none" stroke="black" d="M376,-96C376,-102 370,-108 364,-108"/>
<text text-anchor="start" x="174.5" y="-87.2333" font-family="Times Roman,serif" font-size="14.00">Markovian transition matrix</text>
</a>
</g>
<!-- MATRIX_INTRO&#45;&gt;TRANSITION_MATRIX_OF_MARKOV_CHAIN -->
<g id="edge4" class="edge"><title>MATRIX_INTRO&#45;&gt;TRANSITION_MATRIX_OF_MARKOV_CHAIN</title>
<path fill="none" stroke="black" d="M271,-143.831C271,-136.131 271,-126.974 271,-118.417"/>
<polygon fill="black" stroke="black" points="274.5,-118.413 271,-108.413 267.5,-118.413 274.5,-118.413"/>
</g>
<!-- MATRIX_MULTIPLICATION -->
<g id="node6" class="node"><title>MATRIX_MULTIPLICATION</title>
<a xlink:href="MATRIX_MULTIPLICATION.html" xlink:title="Matrix multiplication" target="_top">
<polyline fill="none" stroke="black" points="306,-36 172,-36 "/>
<path fill="none" stroke="black" d="M172,-36C166,-36 160,-30 160,-24"/>
<polyline fill="none" stroke="black" points="160,-24 160,-12 "/>
<path fill="none" stroke="black" d="M160,-12C160,-6 166,-1.72239e-14 172,-1.66843e-14"/>
<polyline fill="none" stroke="black" points="172,-1.66843e-14 306,-4.63202e-15 "/>
<path fill="none" stroke="black" d="M306,-4.63202e-15C312,-4.09237e-15 318,-6 318,-12"/>
<polyline fill="none" stroke="black" points="318,-12 318,-24 "/>
<path fill="none" stroke="black" d="M318,-24C318,-30 312,-36 306,-36"/>
<text text-anchor="start" x="168" y="-15.2333" font-family="Times Roman,serif" font-size="14.00">Matrix multiplication</text>
</a>
</g>
<!-- MATRIX_INTRO&#45;&gt;MATRIX_MULTIPLICATION -->
<g id="edge6" class="edge"><title>MATRIX_INTRO&#45;&gt;MATRIX_MULTIPLICATION</title>
<path fill="none" stroke="black" d="M340.236,-143.932C357.813,-135.885 374.636,-124.377 385,-108 393.556,-94.4798 394.143,-85.1302 385,-72 376.606,-59.945 349.012,-48.3906 320.04,-39.0854"/>
<polygon fill="black" stroke="black" points="320.776,-35.6489 310.187,-36.0186 318.695,-42.3326 320.776,-35.6489"/>
</g>
<!-- MATRIX_INVERSE&#45;&gt;MATRIX_MULTIPLICATION -->
</g>
</svg>
