<?xml version="1.0" encoding="UTF-8" standalone="no"?>
<!DOCTYPE svg PUBLIC "-//W3C//DTD SVG 1.1//EN"
 "http://www.w3.org/Graphics/SVG/1.1/DTD/svg11.dtd">
<!-- Generated by graphviz version 2.28.0 (20110509.1545)
 -->
<!-- Title: _anonymous_0 Pages: 1 -->
<svg width="220pt" height="188pt"
 viewBox="0.00 0.00 220.00 188.00" xmlns="http://www.w3.org/2000/svg" xmlns:xlink="http://www.w3.org/1999/xlink">
<g id="graph1" class="graph" transform="scale(1 1) rotate(0) translate(4 184)">
<title>_anonymous_0</title>
<!-- MATRIX_INVERSE -->
<g id="node1" class="node"><title>MATRIX_INVERSE</title>
<a xlink:href="MATRIX_INVERSE.html" xlink:title="The matrix inverse" target="_top">
<polyline fill="none" stroke="blue" stroke-width="2" points="155,-108 57,-108 "/>
<path fill="none" stroke="blue" stroke-width="2" d="M57,-108C51,-108 45,-102 45,-96"/>
<polyline fill="none" stroke="blue" stroke-width="2" points="45,-96 45,-84 "/>
<path fill="none" stroke="blue" stroke-width="2" d="M45,-84C45,-78 51,-72 57,-72"/>
<polyline fill="none" stroke="blue" stroke-width="2" points="57,-72 155,-72 "/>
<path fill="none" stroke="blue" stroke-width="2" d="M155,-72C161,-72 167,-78 167,-84"/>
<polyline fill="none" stroke="blue" stroke-width="2" points="167,-84 167,-96 "/>
<path fill="none" stroke="blue" stroke-width="2" d="M167,-96C167,-102 161,-108 155,-108"/>
<text text-anchor="start" x="53.5" y="-84.5" font-family="Times,serif" font-size="14.00">The matrix inverse</text>
</a>
</g>
<!-- HITTING_PROBABILITIES -->
<g id="node2" class="node"><title>HITTING_PROBABILITIES</title>
<a xlink:href="HITTING_PROBABILITIES.html" xlink:title="Hitting time and hitting probability" target="_top">
<polyline fill="none" stroke="black" points="200.25,-36 11.75,-36 "/>
<path fill="none" stroke="black" d="M11.75,-36C5.75,-36 -0.25,-30 -0.25,-24"/>
<polyline fill="none" stroke="black" points="-0.25,-24 -0.25,-12 "/>
<path fill="none" stroke="black" d="M-0.25,-12C-0.25,-6 5.75,-0 11.75,-0"/>
<polyline fill="none" stroke="black" points="11.75,-0 200.25,-0 "/>
<path fill="none" stroke="black" d="M200.25,-0C206.25,-0 212.25,-6 212.25,-12"/>
<polyline fill="none" stroke="black" points="212.25,-12 212.25,-24 "/>
<path fill="none" stroke="black" d="M212.25,-24C212.25,-30 206.25,-36 200.25,-36"/>
<text text-anchor="start" x="8" y="-12.5" font-family="Times,serif" font-size="14.00">Hitting time and hitting probability</text>
</a>
</g>
<!-- MATRIX_INVERSE&#45;&gt;HITTING_PROBABILITIES -->
<g id="edge2" class="edge"><title>MATRIX_INVERSE&#45;&gt;HITTING_PROBABILITIES</title>
<path fill="none" stroke="black" d="M106,-71.6966C106,-63.9827 106,-54.7125 106,-46.1124"/>
<polygon fill="black" stroke="black" points="109.5,-46.1043 106,-36.1043 102.5,-46.1044 109.5,-46.1043"/>
</g>
<!-- MATRIX_INTRO -->
<g id="node4" class="node"><title>MATRIX_INTRO</title>
<a xlink:href="MATRIX_INTRO.html" xlink:title="Introduction to matrices" target="_top">
<polyline fill="none" stroke="black" points="169.25,-180 42.75,-180 "/>
<path fill="none" stroke="black" d="M42.75,-180C36.75,-180 30.75,-174 30.75,-168"/>
<polyline fill="none" stroke="black" points="30.75,-168 30.75,-156 "/>
<path fill="none" stroke="black" d="M30.75,-156C30.75,-150 36.75,-144 42.75,-144"/>
<polyline fill="none" stroke="black" points="42.75,-144 169.25,-144 "/>
<path fill="none" stroke="black" d="M169.25,-144C175.25,-144 181.25,-150 181.25,-156"/>
<polyline fill="none" stroke="black" points="181.25,-156 181.25,-168 "/>
<path fill="none" stroke="black" d="M181.25,-168C181.25,-174 175.25,-180 169.25,-180"/>
<text text-anchor="start" x="39" y="-156.5" font-family="Times,serif" font-size="14.00">Introduction to matrices</text>
</a>
</g>
<!-- MATRIX_INTRO&#45;&gt;MATRIX_INVERSE -->
<g id="edge4" class="edge"><title>MATRIX_INTRO&#45;&gt;MATRIX_INVERSE</title>
<path fill="none" stroke="black" d="M106,-143.697C106,-135.983 106,-126.712 106,-118.112"/>
<polygon fill="black" stroke="black" points="109.5,-118.104 106,-108.104 102.5,-118.104 109.5,-118.104"/>
</g>
</g>
</svg>
