<?xml version="1.0" encoding="UTF-8" standalone="no"?>
<!DOCTYPE svg PUBLIC "-//W3C//DTD SVG 1.1//EN"
 "http://www.w3.org/Graphics/SVG/1.1/DTD/svg11.dtd">
<!-- Generated by graphviz version 2.26.3 (20100126.1600)
 -->
<!-- Title: _anonymous_0 Pages: 1 -->
<svg width="274pt" height="188pt"
 viewBox="0.00 0.00 274.00 188.00" xmlns="http://www.w3.org/2000/svg" xmlns:xlink="http://www.w3.org/1999/xlink">
<g id="graph1" class="graph" transform="scale(1 1) rotate(0) translate(4 184)">
<title>_anonymous_0</title>
<!-- MATRIX_INVERSE -->
<g id="node1" class="node"><title>MATRIX_INVERSE</title>
<a xlink:href="MATRIX_INVERSE.html" xlink:title=" The matrix inverse " target="_top">
<polyline fill="none" stroke="blue" stroke-width="2" points="199,-108 67,-108 "/>
<path fill="none" stroke="blue" stroke-width="2" d="M67,-108C61,-108 55,-102 55,-96"/>
<polyline fill="none" stroke="blue" stroke-width="2" points="55,-96 55,-84 "/>
<path fill="none" stroke="blue" stroke-width="2" d="M55,-84C55,-78 61,-72 67,-72"/>
<polyline fill="none" stroke="blue" stroke-width="2" points="67,-72 199,-72 "/>
<path fill="none" stroke="blue" stroke-width="2" d="M199,-72C205,-72 211,-78 211,-84"/>
<polyline fill="none" stroke="blue" stroke-width="2" points="211,-84 211,-96 "/>
<path fill="none" stroke="blue" stroke-width="2" d="M211,-96C211,-102 205,-108 199,-108"/>
<text text-anchor="start" x="63" y="-87.2333" font-family="Times Roman,serif" font-size="14.00"> The matrix inverse </text>
</a>
</g>
<!-- HITTING_PROBABILITIES -->
<g id="node2" class="node"><title>HITTING_PROBABILITIES</title>
<a xlink:href="HITTING_PROBABILITIES.html" xlink:title=" Hitting time and hitting probability " target="_top">
<polyline fill="none" stroke="black" points="254,-36 12,-36 "/>
<path fill="none" stroke="black" d="M12,-36C6,-36 9.4739e-14,-30 7.57912e-14,-24"/>
<polyline fill="none" stroke="black" points="7.57912e-14,-24 3.78956e-14,-12 "/>
<path fill="none" stroke="black" d="M3.78956e-14,-12C1.89478e-14,-6 6,-1.7443e-14 12,-1.71225e-14"/>
<polyline fill="none" stroke="black" points="12,-1.71225e-14 254,-4.1938e-15 "/>
<path fill="none" stroke="black" d="M254,-4.1938e-15C260,-3.87326e-15 266,-6 266,-12"/>
<polyline fill="none" stroke="black" points="266,-12 266,-24 "/>
<path fill="none" stroke="black" d="M266,-24C266,-30 260,-36 254,-36"/>
<text text-anchor="start" x="8" y="-15.2333" font-family="Times Roman,serif" font-size="14.00"> Hitting time and hitting probability </text>
</a>
</g>
<!-- MATRIX_INVERSE&#45;&gt;HITTING_PROBABILITIES -->
<g id="edge2" class="edge"><title>MATRIX_INVERSE&#45;&gt;HITTING_PROBABILITIES</title>
<path fill="none" stroke="black" d="M133,-71.8314C133,-64.131 133,-54.9743 133,-46.4166"/>
<polygon fill="black" stroke="black" points="136.5,-46.4132 133,-36.4133 129.5,-46.4133 136.5,-46.4132"/>
</g>
<!-- MATRIX_INTRO -->
<g id="node4" class="node"><title>MATRIX_INTRO</title>
<a xlink:href="MATRIX_INTRO.html" xlink:title=" Introduction to matrices " target="_top">
<polyline fill="none" stroke="black" points="217,-180 49,-180 "/>
<path fill="none" stroke="black" d="M49,-180C43,-180 37,-174 37,-168"/>
<polyline fill="none" stroke="black" points="37,-168 37,-156 "/>
<path fill="none" stroke="black" d="M37,-156C37,-150 43,-144 49,-144"/>
<polyline fill="none" stroke="black" points="49,-144 217,-144 "/>
<path fill="none" stroke="black" d="M217,-144C223,-144 229,-150 229,-156"/>
<polyline fill="none" stroke="black" points="229,-156 229,-168 "/>
<path fill="none" stroke="black" d="M229,-168C229,-174 223,-180 217,-180"/>
<text text-anchor="start" x="45" y="-159.233" font-family="Times Roman,serif" font-size="14.00"> Introduction to matrices </text>
</a>
</g>
<!-- MATRIX_INTRO&#45;&gt;MATRIX_INVERSE -->
<g id="edge4" class="edge"><title>MATRIX_INTRO&#45;&gt;MATRIX_INVERSE</title>
<path fill="none" stroke="black" d="M133,-143.831C133,-136.131 133,-126.974 133,-118.417"/>
<polygon fill="black" stroke="black" points="136.5,-118.413 133,-108.413 129.5,-118.413 136.5,-118.413"/>
</g>
</g>
</svg>
