<?xml version="1.0" encoding="UTF-8" standalone="no"?>
<!DOCTYPE svg PUBLIC "-//W3C//DTD SVG 1.1//EN"
 "http://www.w3.org/Graphics/SVG/1.1/DTD/svg11.dtd">
<!-- Generated by graphviz version 2.26.3 (20100126.1600)
 -->
<!-- Title: _anonymous_0 Pages: 1 -->
<svg width="218pt" height="188pt"
 viewBox="0.00 0.00 218.00 188.00" xmlns="http://www.w3.org/2000/svg" xmlns:xlink="http://www.w3.org/1999/xlink">
<g id="graph1" class="graph" transform="scale(1 1) rotate(0) translate(4 184)">
<title>_anonymous_0</title>
<!-- MAXWELL_RELATIONS -->
<g id="node1" class="node"><title>MAXWELL_RELATIONS</title>
<a xlink:href="MAXWELL_RELATIONS.html" xlink:title=" Maxwell relations " target="_top">
<polyline fill="none" stroke="blue" stroke-width="2" points="167,-108 43,-108 "/>
<path fill="none" stroke="blue" stroke-width="2" d="M43,-108C37,-108 31,-102 31,-96"/>
<polyline fill="none" stroke="blue" stroke-width="2" points="31,-96 31,-84 "/>
<path fill="none" stroke="blue" stroke-width="2" d="M31,-84C31,-78 37,-72 43,-72"/>
<polyline fill="none" stroke="blue" stroke-width="2" points="43,-72 167,-72 "/>
<path fill="none" stroke="blue" stroke-width="2" d="M167,-72C173,-72 179,-78 179,-84"/>
<polyline fill="none" stroke="blue" stroke-width="2" points="179,-84 179,-96 "/>
<path fill="none" stroke="blue" stroke-width="2" d="M179,-96C179,-102 173,-108 167,-108"/>
<text text-anchor="start" x="39.5" y="-87.2333" font-family="Times Roman,serif" font-size="14.00"> Maxwell relations </text>
</a>
</g>
<!-- RESPONSE_FUNCTIONS -->
<g id="node4" class="node"><title>RESPONSE_FUNCTIONS</title>
<a xlink:href="RESPONSE_FUNCTIONS.html" xlink:title=" Response functions " target="_top">
<polyline fill="none" stroke="black" points="172,-36 38,-36 "/>
<path fill="none" stroke="black" d="M38,-36C32,-36 26,-30 26,-24"/>
<polyline fill="none" stroke="black" points="26,-24 26,-12 "/>
<path fill="none" stroke="black" d="M26,-12C26,-6 32,-1.72239e-14 38,-1.66843e-14"/>
<polyline fill="none" stroke="black" points="38,-1.66843e-14 172,-4.63202e-15 "/>
<path fill="none" stroke="black" d="M172,-4.63202e-15C178,-4.09237e-15 184,-6 184,-12"/>
<polyline fill="none" stroke="black" points="184,-12 184,-24 "/>
<path fill="none" stroke="black" d="M184,-24C184,-30 178,-36 172,-36"/>
<text text-anchor="start" x="34" y="-15.2333" font-family="Times Roman,serif" font-size="14.00"> Response functions </text>
</a>
</g>
<!-- MAXWELL_RELATIONS&#45;&gt;RESPONSE_FUNCTIONS -->
<g id="edge4" class="edge"><title>MAXWELL_RELATIONS&#45;&gt;RESPONSE_FUNCTIONS</title>
<path fill="none" stroke="black" d="M105,-71.8314C105,-64.131 105,-54.9743 105,-46.4166"/>
<polygon fill="black" stroke="black" points="108.5,-46.4132 105,-36.4133 101.5,-46.4133 108.5,-46.4132"/>
</g>
<!-- THERMODYNAMIC_POTENTIALS -->
<g id="node2" class="node"><title>THERMODYNAMIC_POTENTIALS</title>
<a xlink:href="THERMODYNAMIC_POTENTIALS.html" xlink:title=" Thermodynamic Potentials " target="_top">
<polyline fill="none" stroke="black" points="198,-180 12,-180 "/>
<path fill="none" stroke="black" d="M12,-180C6,-180 7.10543e-14,-174 5.68434e-14,-168"/>
<polyline fill="none" stroke="black" points="5.68434e-14,-168 2.84217e-14,-156 "/>
<path fill="none" stroke="black" d="M2.84217e-14,-156C1.42109e-14,-150 6,-144 12,-144"/>
<polyline fill="none" stroke="black" points="12,-144 198,-144 "/>
<path fill="none" stroke="black" d="M198,-144C204,-144 210,-150 210,-156"/>
<polyline fill="none" stroke="black" points="210,-156 210,-168 "/>
<path fill="none" stroke="black" d="M210,-168C210,-174 204,-180 198,-180"/>
<text text-anchor="start" x="8.5" y="-159.233" font-family="Times Roman,serif" font-size="14.00"> Thermodynamic Potentials </text>
</a>
</g>
<!-- THERMODYNAMIC_POTENTIALS&#45;&gt;MAXWELL_RELATIONS -->
<g id="edge2" class="edge"><title>THERMODYNAMIC_POTENTIALS&#45;&gt;MAXWELL_RELATIONS</title>
<path fill="none" stroke="black" d="M105,-143.831C105,-136.131 105,-126.974 105,-118.417"/>
<polygon fill="black" stroke="black" points="108.5,-118.413 105,-108.413 101.5,-118.413 108.5,-118.413"/>
</g>
</g>
</svg>
