<?xml version="1.0" encoding="UTF-8" standalone="no"?>
<!DOCTYPE svg PUBLIC "-//W3C//DTD SVG 1.1//EN"
 "http://www.w3.org/Graphics/SVG/1.1/DTD/svg11.dtd">
<!-- Generated by graphviz version 2.26.3 (20100126.1600)
 -->
<!-- Title: _anonymous_0 Pages: 1 -->
<svg width="208pt" height="188pt"
 viewBox="0.00 0.00 208.00 188.00" xmlns="http://www.w3.org/2000/svg" xmlns:xlink="http://www.w3.org/1999/xlink">
<g id="graph1" class="graph" transform="scale(1 1) rotate(0) translate(4 184)">
<title>_anonymous_0</title>
<!-- MAXWELL_RELATIONS -->
<g id="node1" class="node"><title>MAXWELL_RELATIONS</title>
<a xlink:href="MAXWELL_RELATIONS.html" xlink:title="Maxwell relations" target="_top">
<polyline fill="none" stroke="blue" stroke-width="2" points="157,-108 43,-108 "/>
<path fill="none" stroke="blue" stroke-width="2" d="M43,-108C37,-108 31,-102 31,-96"/>
<polyline fill="none" stroke="blue" stroke-width="2" points="31,-96 31,-84 "/>
<path fill="none" stroke="blue" stroke-width="2" d="M31,-84C31,-78 37,-72 43,-72"/>
<polyline fill="none" stroke="blue" stroke-width="2" points="43,-72 157,-72 "/>
<path fill="none" stroke="blue" stroke-width="2" d="M157,-72C163,-72 169,-78 169,-84"/>
<polyline fill="none" stroke="blue" stroke-width="2" points="169,-84 169,-96 "/>
<path fill="none" stroke="blue" stroke-width="2" d="M169,-96C169,-102 163,-108 157,-108"/>
<text text-anchor="start" x="39" y="-87.2333" font-family="Times Roman,serif" font-size="14.00">Maxwell relations</text>
</a>
</g>
<!-- RESPONSE_FUNCTIONS -->
<g id="node4" class="node"><title>RESPONSE_FUNCTIONS</title>
<a xlink:href="RESPONSE_FUNCTIONS.html" xlink:title="Response functions" target="_top">
<polyline fill="none" stroke="black" points="163,-36 37,-36 "/>
<path fill="none" stroke="black" d="M37,-36C31,-36 25,-30 25,-24"/>
<polyline fill="none" stroke="black" points="25,-24 25,-12 "/>
<path fill="none" stroke="black" d="M25,-12C25,-6 31,-1.71951e-14 37,-1.66267e-14"/>
<polyline fill="none" stroke="black" points="37,-1.66267e-14 163,-4.68958e-15 "/>
<path fill="none" stroke="black" d="M163,-4.68958e-15C169,-4.12115e-15 175,-6 175,-12"/>
<polyline fill="none" stroke="black" points="175,-12 175,-24 "/>
<path fill="none" stroke="black" d="M175,-24C175,-30 169,-36 163,-36"/>
<text text-anchor="start" x="33.5" y="-15.2333" font-family="Times Roman,serif" font-size="14.00">Response functions</text>
</a>
</g>
<!-- MAXWELL_RELATIONS&#45;&gt;RESPONSE_FUNCTIONS -->
<g id="edge4" class="edge"><title>MAXWELL_RELATIONS&#45;&gt;RESPONSE_FUNCTIONS</title>
<path fill="none" stroke="black" d="M100,-71.8314C100,-64.131 100,-54.9743 100,-46.4166"/>
<polygon fill="black" stroke="black" points="103.5,-46.4132 100,-36.4133 96.5001,-46.4133 103.5,-46.4132"/>
</g>
<!-- THERMODYNAMIC_POTENTIALS -->
<g id="node2" class="node"><title>THERMODYNAMIC_POTENTIALS</title>
<a xlink:href="THERMODYNAMIC_POTENTIALS.html" xlink:title="Thermodynamic Potentials" target="_top">
<polyline fill="none" stroke="black" points="188,-180 12,-180 "/>
<path fill="none" stroke="black" d="M12,-180C6,-180 7.10543e-14,-174 5.68434e-14,-168"/>
<polyline fill="none" stroke="black" points="5.68434e-14,-168 2.84217e-14,-156 "/>
<path fill="none" stroke="black" d="M2.84217e-14,-156C1.42109e-14,-150 6,-144 12,-144"/>
<polyline fill="none" stroke="black" points="12,-144 188,-144 "/>
<path fill="none" stroke="black" d="M188,-144C194,-144 200,-150 200,-156"/>
<polyline fill="none" stroke="black" points="200,-156 200,-168 "/>
<path fill="none" stroke="black" d="M200,-168C200,-174 194,-180 188,-180"/>
<text text-anchor="start" x="8" y="-159.233" font-family="Times Roman,serif" font-size="14.00">Thermodynamic Potentials</text>
</a>
</g>
<!-- THERMODYNAMIC_POTENTIALS&#45;&gt;MAXWELL_RELATIONS -->
<g id="edge2" class="edge"><title>THERMODYNAMIC_POTENTIALS&#45;&gt;MAXWELL_RELATIONS</title>
<path fill="none" stroke="black" d="M100,-143.831C100,-136.131 100,-126.974 100,-118.417"/>
<polygon fill="black" stroke="black" points="103.5,-118.413 100,-108.413 96.5001,-118.413 103.5,-118.413"/>
</g>
</g>
</svg>
