<?xml version="1.0" encoding="UTF-8" standalone="no"?>
<!DOCTYPE svg PUBLIC "-//W3C//DTD SVG 1.1//EN"
 "http://www.w3.org/Graphics/SVG/1.1/DTD/svg11.dtd">
<!-- Generated by graphviz version 2.36.0 (20140111.2315)
 -->
<!-- Title: %3 Pages: 1 -->
<svg width="180pt" height="188pt"
 viewBox="0.00 0.00 180.00 188.00" xmlns="http://www.w3.org/2000/svg" xmlns:xlink="http://www.w3.org/1999/xlink">
<g id="graph0" class="graph" transform="scale(1 1) rotate(0) translate(4 184)">
<title>%3</title>
<!-- MAXWELL_RELATIONS -->
<g id="node1" class="node"><title>MAXWELL_RELATIONS</title>
<g id="a_node1"><a xlink:href="MAXWELL_RELATIONS.html" xlink:title=" Maxwell relations " target="_top">
<path fill="none" stroke="blue" stroke-width="2" d="M135.25,-108C135.25,-108 36.75,-108 36.75,-108 30.75,-108 24.75,-102 24.75,-96 24.75,-96 24.75,-84 24.75,-84 24.75,-78 30.75,-72 36.75,-72 36.75,-72 135.25,-72 135.25,-72 141.25,-72 147.25,-78 147.25,-84 147.25,-84 147.25,-96 147.25,-96 147.25,-102 141.25,-108 135.25,-108"/>
<text text-anchor="start" x="32.5" y="-86.3" font-family="Times,serif" font-size="14.00"> Maxwell relations </text>
</a>
</g>
</g>
<!-- RESPONSE_FUNCTIONS -->
<g id="node3" class="node"><title>RESPONSE_FUNCTIONS</title>
<g id="a_node3"><a xlink:href="RESPONSE_FUNCTIONS.html" xlink:title=" Response functions " target="_top">
<path fill="none" stroke="black" d="M139,-36C139,-36 33,-36 33,-36 27,-36 21,-30 21,-24 21,-24 21,-12 21,-12 21,-6 27,-0 33,-0 33,-0 139,-0 139,-0 145,-0 151,-6 151,-12 151,-12 151,-24 151,-24 151,-30 145,-36 139,-36"/>
<text text-anchor="start" x="29" y="-14.3" font-family="Times,serif" font-size="14.00"> Response functions </text>
</a>
</g>
</g>
<!-- MAXWELL_RELATIONS&#45;&gt;RESPONSE_FUNCTIONS -->
<g id="edge2" class="edge"><title>MAXWELL_RELATIONS&#45;&gt;RESPONSE_FUNCTIONS</title>
<path fill="none" stroke="black" d="M86,-71.6966C86,-63.9827 86,-54.7125 86,-46.1124"/>
<polygon fill="black" stroke="black" points="89.5001,-46.1043 86,-36.1043 82.5001,-46.1044 89.5001,-46.1043"/>
</g>
<!-- THERMODYNAMIC_POTENTIALS -->
<g id="node2" class="node"><title>THERMODYNAMIC_POTENTIALS</title>
<g id="a_node2"><a xlink:href="THERMODYNAMIC_POTENTIALS.html" xlink:title=" Thermodynamic Potentials " target="_top">
<path fill="none" stroke="black" d="M160,-180C160,-180 12,-180 12,-180 6,-180 0,-174 0,-168 0,-168 0,-156 0,-156 0,-150 6,-144 12,-144 12,-144 160,-144 160,-144 166,-144 172,-150 172,-156 172,-156 172,-168 172,-168 172,-174 166,-180 160,-180"/>
<text text-anchor="start" x="8" y="-158.3" font-family="Times,serif" font-size="14.00"> Thermodynamic Potentials </text>
</a>
</g>
</g>
<!-- THERMODYNAMIC_POTENTIALS&#45;&gt;MAXWELL_RELATIONS -->
<g id="edge1" class="edge"><title>THERMODYNAMIC_POTENTIALS&#45;&gt;MAXWELL_RELATIONS</title>
<path fill="none" stroke="black" d="M86,-143.697C86,-135.983 86,-126.712 86,-118.112"/>
<polygon fill="black" stroke="black" points="89.5001,-118.104 86,-108.104 82.5001,-118.104 89.5001,-118.104"/>
</g>
</g>
</svg>
