<?xml version="1.0" encoding="UTF-8" standalone="no"?>
<!DOCTYPE svg PUBLIC "-//W3C//DTD SVG 1.1//EN"
 "http://www.w3.org/Graphics/SVG/1.1/DTD/svg11.dtd">
<!-- Generated by graphviz version 2.26.3 (20100126.1600)
 -->
<!-- Title: _anonymous_0 Pages: 1 -->
<svg width="238pt" height="116pt"
 viewBox="0.00 0.00 238.00 116.00" xmlns="http://www.w3.org/2000/svg" xmlns:xlink="http://www.w3.org/1999/xlink">
<g id="graph1" class="graph" transform="scale(1 1) rotate(0) translate(4 112)">
<title>_anonymous_0</title>
<!-- MEAN_FIELD_MODELS -->
<g id="node1" class="node"><title>MEAN_FIELD_MODELS</title>
<a xlink:href="MEAN_FIELD_MODELS.html" xlink:title=" The mean field approximation " target="_top">
<polyline fill="none" stroke="blue" stroke-width="2" points="218,-36 12,-36 "/>
<path fill="none" stroke="blue" stroke-width="2" d="M12,-36C6,-36 7.10543e-14,-30 5.68434e-14,-24"/>
<polyline fill="none" stroke="blue" stroke-width="2" points="5.68434e-14,-24 2.84217e-14,-12 "/>
<path fill="none" stroke="blue" stroke-width="2" d="M2.84217e-14,-12C1.42109e-14,-6 6,-1.73929e-14 12,-1.70221e-14"/>
<polyline fill="none" stroke="blue" stroke-width="2" points="12,-1.70221e-14 218,-4.29415e-15 "/>
<path fill="none" stroke="blue" stroke-width="2" d="M218,-4.29415e-15C224,-3.92343e-15 230,-6 230,-12"/>
<polyline fill="none" stroke="blue" stroke-width="2" points="230,-12 230,-24 "/>
<path fill="none" stroke="blue" stroke-width="2" d="M230,-24C230,-30 224,-36 218,-36"/>
<text text-anchor="start" x="8" y="-15.2333" font-family="Times Roman,serif" font-size="14.00"> The mean field approximation </text>
</a>
</g>
<!-- ISING_MODEL -->
<g id="node2" class="node"><title>ISING_MODEL</title>
<a xlink:href="ISING_MODEL.html" xlink:title=" The Ising Model " target="_top">
<polyline fill="none" stroke="black" points="170,-108 60,-108 "/>
<path fill="none" stroke="black" d="M60,-108C54,-108 48,-102 48,-96"/>
<polyline fill="none" stroke="black" points="48,-96 48,-84 "/>
<path fill="none" stroke="black" d="M48,-84C48,-78 54,-72 60,-72"/>
<polyline fill="none" stroke="black" points="60,-72 170,-72 "/>
<path fill="none" stroke="black" d="M170,-72C176,-72 182,-78 182,-84"/>
<polyline fill="none" stroke="black" points="182,-84 182,-96 "/>
<path fill="none" stroke="black" d="M182,-96C182,-102 176,-108 170,-108"/>
<text text-anchor="start" x="56" y="-87.2333" font-family="Times Roman,serif" font-size="14.00"> The Ising Model </text>
</a>
</g>
<!-- ISING_MODEL&#45;&gt;MEAN_FIELD_MODELS -->
<g id="edge2" class="edge"><title>ISING_MODEL&#45;&gt;MEAN_FIELD_MODELS</title>
<path fill="none" stroke="black" d="M115,-71.8314C115,-64.131 115,-54.9743 115,-46.4166"/>
<polygon fill="black" stroke="black" points="118.5,-46.4132 115,-36.4133 111.5,-46.4133 118.5,-46.4132"/>
</g>
</g>
</svg>
