<?xml version="1.0" encoding="UTF-8" standalone="no"?>
<!DOCTYPE svg PUBLIC "-//W3C//DTD SVG 1.1//EN"
 "http://www.w3.org/Graphics/SVG/1.1/DTD/svg11.dtd">
<!-- Generated by graphviz version 2.36.0 (20140111.2315)
 -->
<!-- Title: %3 Pages: 1 -->
<svg width="198pt" height="116pt"
 viewBox="0.00 0.00 198.00 116.00" xmlns="http://www.w3.org/2000/svg" xmlns:xlink="http://www.w3.org/1999/xlink">
<g id="graph0" class="graph" transform="scale(1 1) rotate(0) translate(4 112)">
<title>%3</title>
<!-- MEAN_FIELD_MODELS -->
<g id="node1" class="node"><title>MEAN_FIELD_MODELS</title>
<g id="a_node1"><a xlink:href="MEAN_FIELD_MODELS.html" xlink:title=" The mean field approximation " target="_top">
<path fill="none" stroke="blue" stroke-width="2" d="M178.25,-36C178.25,-36 11.75,-36 11.75,-36 5.75,-36 -0.25,-30 -0.25,-24 -0.25,-24 -0.25,-12 -0.25,-12 -0.25,-6 5.75,-0 11.75,-0 11.75,-0 178.25,-0 178.25,-0 184.25,-0 190.25,-6 190.25,-12 190.25,-12 190.25,-24 190.25,-24 190.25,-30 184.25,-36 178.25,-36"/>
<text text-anchor="start" x="7.5" y="-14.3" font-family="Times,serif" font-size="14.00"> The mean field approximation </text>
</a>
</g>
</g>
<!-- ISING_MODEL -->
<g id="node2" class="node"><title>ISING_MODEL</title>
<g id="a_node2"><a xlink:href="ISING_MODEL.html" xlink:title=" The Ising Model " target="_top">
<path fill="none" stroke="black" d="M140.5,-108C140.5,-108 49.5,-108 49.5,-108 43.5,-108 37.5,-102 37.5,-96 37.5,-96 37.5,-84 37.5,-84 37.5,-78 43.5,-72 49.5,-72 49.5,-72 140.5,-72 140.5,-72 146.5,-72 152.5,-78 152.5,-84 152.5,-84 152.5,-96 152.5,-96 152.5,-102 146.5,-108 140.5,-108"/>
<text text-anchor="start" x="45" y="-86.3" font-family="Times,serif" font-size="14.00"> The Ising Model </text>
</a>
</g>
</g>
<!-- ISING_MODEL&#45;&gt;MEAN_FIELD_MODELS -->
<g id="edge1" class="edge"><title>ISING_MODEL&#45;&gt;MEAN_FIELD_MODELS</title>
<path fill="none" stroke="black" d="M95,-71.6966C95,-63.9827 95,-54.7125 95,-46.1124"/>
<polygon fill="black" stroke="black" points="98.5001,-46.1043 95,-36.1043 91.5001,-46.1044 98.5001,-46.1043"/>
</g>
</g>
</svg>
