<?xml version="1.0" encoding="UTF-8" standalone="no"?>
<!DOCTYPE svg PUBLIC "-//W3C//DTD SVG 1.1//EN"
 "http://www.w3.org/Graphics/SVG/1.1/DTD/svg11.dtd">
<!-- Generated by graphviz version 2.28.0 (20110509.1545)
 -->
<!-- Title: _anonymous_0 Pages: 1 -->
<svg width="345pt" height="116pt"
 viewBox="0.00 0.00 345.00 116.00" xmlns="http://www.w3.org/2000/svg" xmlns:xlink="http://www.w3.org/1999/xlink">
<g id="graph1" class="graph" transform="scale(1 1) rotate(0) translate(4 112)">
<title>_anonymous_0</title>
<!-- MM1_QUEUE -->
<g id="node1" class="node"><title>MM1_QUEUE</title>
<a xlink:href="MM1_QUEUE.html" xlink:title="The M/M/1 Queue " target="_top">
<polyline fill="none" stroke="blue" stroke-width="2" points="243.25,-36 142.75,-36 "/>
<path fill="none" stroke="blue" stroke-width="2" d="M142.75,-36C136.75,-36 130.75,-30 130.75,-24"/>
<polyline fill="none" stroke="blue" stroke-width="2" points="130.75,-24 130.75,-12 "/>
<path fill="none" stroke="blue" stroke-width="2" d="M130.75,-12C130.75,-6 136.75,-0 142.75,-0"/>
<polyline fill="none" stroke="blue" stroke-width="2" points="142.75,-0 243.25,-0 "/>
<path fill="none" stroke="blue" stroke-width="2" d="M243.25,-0C249.25,-0 255.25,-6 255.25,-12"/>
<polyline fill="none" stroke="blue" stroke-width="2" points="255.25,-12 255.25,-24 "/>
<path fill="none" stroke="blue" stroke-width="2" d="M255.25,-24C255.25,-30 249.25,-36 243.25,-36"/>
<text text-anchor="start" x="139" y="-12.5" font-family="Times,serif" font-size="14.00">The M/M/1 Queue </text>
</a>
</g>
<!-- CONTINUOUS_TIME_MARKOV_CHAIN -->
<g id="node2" class="node"><title>CONTINUOUS_TIME_MARKOV_CHAIN</title>
<a xlink:href="CONTINUOUS_TIME_MARKOV_CHAIN.html" xlink:title="Markov chains in continuous time" target="_top">
<polyline fill="none" stroke="black" points="196,-108 12,-108 "/>
<path fill="none" stroke="black" d="M12,-108C6,-108 0,-102 0,-96"/>
<polyline fill="none" stroke="black" points="0,-96 0,-84 "/>
<path fill="none" stroke="black" d="M0,-84C0,-78 6,-72 12,-72"/>
<polyline fill="none" stroke="black" points="12,-72 196,-72 "/>
<path fill="none" stroke="black" d="M196,-72C202,-72 208,-78 208,-84"/>
<polyline fill="none" stroke="black" points="208,-84 208,-96 "/>
<path fill="none" stroke="black" d="M208,-96C208,-102 202,-108 196,-108"/>
<text text-anchor="start" x="8.5" y="-84.5" font-family="Times,serif" font-size="14.00">Markov chains in continuous time</text>
</a>
</g>
<!-- CONTINUOUS_TIME_MARKOV_CHAIN&#45;&gt;MM1_QUEUE -->
<g id="edge2" class="edge"><title>CONTINUOUS_TIME_MARKOV_CHAIN&#45;&gt;MM1_QUEUE</title>
<path fill="none" stroke="black" d="M126,-71.6966C137.209,-62.8807 151.002,-52.0321 163.154,-42.4742"/>
<polygon fill="black" stroke="black" points="165.557,-45.0375 171.253,-36.1043 161.229,-39.5354 165.557,-45.0375"/>
</g>
<!-- GEOMETRIC_SERIES -->
<g id="node4" class="node"><title>GEOMETRIC_SERIES</title>
<a xlink:href="GEOMETRIC_SERIES.html" xlink:title="Geometric series" target="_top">
<polyline fill="none" stroke="black" points="325.25,-108 238.75,-108 "/>
<path fill="none" stroke="black" d="M238.75,-108C232.75,-108 226.75,-102 226.75,-96"/>
<polyline fill="none" stroke="black" points="226.75,-96 226.75,-84 "/>
<path fill="none" stroke="black" d="M226.75,-84C226.75,-78 232.75,-72 238.75,-72"/>
<polyline fill="none" stroke="black" points="238.75,-72 325.25,-72 "/>
<path fill="none" stroke="black" d="M325.25,-72C331.25,-72 337.25,-78 337.25,-84"/>
<polyline fill="none" stroke="black" points="337.25,-84 337.25,-96 "/>
<path fill="none" stroke="black" d="M337.25,-96C337.25,-102 331.25,-108 325.25,-108"/>
<text text-anchor="start" x="235" y="-84.5" font-family="Times,serif" font-size="14.00">Geometric series</text>
</a>
</g>
<!-- GEOMETRIC_SERIES&#45;&gt;MM1_QUEUE -->
<g id="edge4" class="edge"><title>GEOMETRIC_SERIES&#45;&gt;MM1_QUEUE</title>
<path fill="none" stroke="black" d="M260,-71.6966C248.791,-62.8807 234.998,-52.0321 222.846,-42.4742"/>
<polygon fill="black" stroke="black" points="224.771,-39.5354 214.747,-36.1043 220.443,-45.0375 224.771,-39.5354"/>
</g>
</g>
</svg>
