<?xml version="1.0" encoding="UTF-8" standalone="no"?>
<!DOCTYPE svg PUBLIC "-//W3C//DTD SVG 1.1//EN"
 "http://www.w3.org/Graphics/SVG/1.1/DTD/svg11.dtd">
<!-- Generated by graphviz version 2.26.3 (20100126.1600)
 -->
<!-- Title: _anonymous_0 Pages: 1 -->
<svg width="526pt" height="188pt"
 viewBox="0.00 0.00 526.00 188.00" xmlns="http://www.w3.org/2000/svg" xmlns:xlink="http://www.w3.org/1999/xlink">
<g id="graph1" class="graph" transform="scale(1 1) rotate(0) translate(4 184)">
<title>_anonymous_0</title>
<!-- MM1_QUEUE -->
<g id="node1" class="node"><title>MM1_QUEUE</title>
<a xlink:href="MM1_QUEUE.html" xlink:title="The M/M/1 Queue " target="_top">
<polyline fill="none" stroke="blue" stroke-width="2" points="371,-36 251,-36 "/>
<path fill="none" stroke="blue" stroke-width="2" d="M251,-36C245,-36 239,-30 239,-24"/>
<polyline fill="none" stroke="blue" stroke-width="2" points="239,-24 239,-12 "/>
<path fill="none" stroke="blue" stroke-width="2" d="M239,-12C239,-6 245,-1.71714e-14 251,-1.65793e-14"/>
<polyline fill="none" stroke="blue" stroke-width="2" points="251,-1.65793e-14 371,-4.73695e-15 "/>
<path fill="none" stroke="blue" stroke-width="2" d="M371,-4.73695e-15C377,-4.14483e-15 383,-6 383,-12"/>
<polyline fill="none" stroke="blue" stroke-width="2" points="383,-12 383,-24 "/>
<path fill="none" stroke="blue" stroke-width="2" d="M383,-24C383,-30 377,-36 371,-36"/>
<text text-anchor="start" x="247" y="-15.2333" font-family="Times Roman,serif" font-size="14.00">The M/M/1 Queue </text>
</a>
</g>
<!-- CONTINUOUS_TIME_MARKOV_CHAIN -->
<g id="node2" class="node"><title>CONTINUOUS_TIME_MARKOV_CHAIN</title>
<a xlink:href="CONTINUOUS_TIME_MARKOV_CHAIN.html" xlink:title="Markov chains in continuous time" target="_top">
<polyline fill="none" stroke="black" points="236,-180 12,-180 "/>
<path fill="none" stroke="black" d="M12,-180C6,-180 6.86858e-14,-174 5.21065e-14,-168"/>
<polyline fill="none" stroke="black" points="5.21065e-14,-168 1.89478e-14,-156 "/>
<path fill="none" stroke="black" d="M1.89478e-14,-156C2.36848e-15,-150 6,-144 12,-144"/>
<polyline fill="none" stroke="black" points="12,-144 236,-144 "/>
<path fill="none" stroke="black" d="M236,-144C242,-144 248,-150 248,-156"/>
<polyline fill="none" stroke="black" points="248,-156 248,-168 "/>
<path fill="none" stroke="black" d="M248,-168C248,-174 242,-180 236,-180"/>
<text text-anchor="start" x="8" y="-159.233" font-family="Times Roman,serif" font-size="14.00">Markov chains in continuous time</text>
</a>
</g>
<!-- CONTINUOUS_TIME_MARKOV_CHAIN&#45;&gt;MM1_QUEUE -->
<g id="edge2" class="edge"><title>CONTINUOUS_TIME_MARKOV_CHAIN&#45;&gt;MM1_QUEUE</title>
<path fill="none" stroke="black" d="M131.695,-143.798C140.982,-123.776 158.347,-91.8169 182,-72 198.153,-58.4663 218.182,-47.9023 237.602,-39.8499"/>
<polygon fill="black" stroke="black" points="239.061,-43.0365 247.066,-36.0967 236.48,-36.5295 239.061,-43.0365"/>
</g>
<!-- GEOMETRIC_SERIES -->
<g id="node6" class="node"><title>GEOMETRIC_SERIES</title>
<a xlink:href="GEOMETRIC_SERIES.html" xlink:title="Geometric series" target="_top">
<polyline fill="none" stroke="black" points="311,-108 203,-108 "/>
<path fill="none" stroke="black" d="M203,-108C197,-108 191,-102 191,-96"/>
<polyline fill="none" stroke="black" points="191,-96 191,-84 "/>
<path fill="none" stroke="black" d="M191,-84C191,-78 197,-72 203,-72"/>
<polyline fill="none" stroke="black" points="203,-72 311,-72 "/>
<path fill="none" stroke="black" d="M311,-72C317,-72 323,-78 323,-84"/>
<polyline fill="none" stroke="black" points="323,-84 323,-96 "/>
<path fill="none" stroke="black" d="M323,-96C323,-102 317,-108 311,-108"/>
<text text-anchor="start" x="199" y="-87.2333" font-family="Times Roman,serif" font-size="14.00">Geometric series</text>
</a>
</g>
<!-- CONTINUOUS_TIME_MARKOV_CHAIN&#45;&gt;GEOMETRIC_SERIES -->
<!-- EXPONENTIAL_RANDOM_VARIABLE -->
<g id="node4" class="node"><title>EXPONENTIAL_RANDOM_VARIABLE</title>
<a xlink:href="EXPONENTIAL_RANDOM_VARIABLE.html" xlink:title="Exponential random variable" target="_top">
<polyline fill="none" stroke="black" points="470,-180 278,-180 "/>
<path fill="none" stroke="black" d="M278,-180C272,-180 266,-174 266,-168"/>
<polyline fill="none" stroke="black" points="266,-168 266,-156 "/>
<path fill="none" stroke="black" d="M266,-156C266,-150 272,-144 278,-144"/>
<polyline fill="none" stroke="black" points="278,-144 470,-144 "/>
<path fill="none" stroke="black" d="M470,-144C476,-144 482,-150 482,-156"/>
<polyline fill="none" stroke="black" points="482,-156 482,-168 "/>
<path fill="none" stroke="black" d="M482,-168C482,-174 476,-180 470,-180"/>
<text text-anchor="start" x="274.5" y="-159.233" font-family="Times Roman,serif" font-size="14.00">Exponential random variable</text>
</a>
</g>
<!-- EXPONENTIAL_RANDOM_VARIABLE&#45;&gt;MM1_QUEUE -->
<g id="edge4" class="edge"><title>EXPONENTIAL_RANDOM_VARIABLE&#45;&gt;MM1_QUEUE</title>
<path fill="none" stroke="black" d="M366.021,-143.762C355.181,-118.985 335.706,-74.4714 323.072,-45.5939"/>
<polygon fill="black" stroke="black" points="326.129,-43.8483 318.914,-36.0896 319.716,-46.6541 326.129,-43.8483"/>
</g>
<!-- GEOMETRIC_SERIES&#45;&gt;MM1_QUEUE -->
<g id="edge6" class="edge"><title>GEOMETRIC_SERIES&#45;&gt;MM1_QUEUE</title>
<path fill="none" stroke="black" d="M270.626,-71.8314C276.846,-63.5386 284.332,-53.557 291.16,-44.4533"/>
<polygon fill="black" stroke="black" points="293.99,-46.5133 297.19,-36.4133 288.39,-42.3133 293.99,-46.5133"/>
</g>
<!-- POISSON_PROCESS -->
<g id="node9" class="node"><title>POISSON_PROCESS</title>
<a xlink:href="POISSON_PROCESS.html" xlink:title="Poisson Process" target="_top">
<polyline fill="none" stroke="black" points="506,-108 406,-108 "/>
<path fill="none" stroke="black" d="M406,-108C400,-108 394,-102 394,-96"/>
<polyline fill="none" stroke="black" points="394,-96 394,-84 "/>
<path fill="none" stroke="black" d="M394,-84C394,-78 400,-72 406,-72"/>
<polyline fill="none" stroke="black" points="406,-72 506,-72 "/>
<path fill="none" stroke="black" d="M506,-72C512,-72 518,-78 518,-84"/>
<polyline fill="none" stroke="black" points="518,-84 518,-96 "/>
<path fill="none" stroke="black" d="M518,-96C518,-102 512,-108 506,-108"/>
<text text-anchor="start" x="402" y="-87.2333" font-family="Times Roman,serif" font-size="14.00">Poisson Process</text>
</a>
</g>
<!-- POISSON_PROCESS&#45;&gt;MM1_QUEUE -->
<g id="edge10" class="edge"><title>POISSON_PROCESS&#45;&gt;MM1_QUEUE</title>
<path fill="none" stroke="black" d="M419.41,-71.8314C400.276,-62.3302 376.677,-50.6121 356.388,-40.5374"/>
<polygon fill="black" stroke="black" points="357.84,-37.3506 347.327,-36.038 354.726,-43.6203 357.84,-37.3506"/>
</g>
</g>
</svg>
