<?xml version="1.0" encoding="UTF-8" standalone="no"?>
<!DOCTYPE svg PUBLIC "-//W3C//DTD SVG 1.1//EN"
 "http://www.w3.org/Graphics/SVG/1.1/DTD/svg11.dtd">
<!-- Generated by graphviz version 2.36.0 (20140111.2315)
 -->
<!-- Title: %3 Pages: 1 -->
<svg width="502pt" height="188pt"
 viewBox="0.00 0.00 502.00 188.00" xmlns="http://www.w3.org/2000/svg" xmlns:xlink="http://www.w3.org/1999/xlink">
<g id="graph0" class="graph" transform="scale(1 1) rotate(0) translate(4 184)">
<title>%3</title>
<!-- MM1_QUEUE -->
<g id="node1" class="node"><title>MM1_QUEUE</title>
<g id="a_node1"><a xlink:href="MM1_QUEUE.html" xlink:title=" The M/M/1 Queue &#160;" target="_top">
<path fill="none" stroke="blue" stroke-width="2" d="M293.25,-36C293.25,-36 186.75,-36 186.75,-36 180.75,-36 174.75,-30 174.75,-24 174.75,-24 174.75,-12 174.75,-12 174.75,-6 180.75,-0 186.75,-0 186.75,-0 293.25,-0 293.25,-0 299.25,-0 305.25,-6 305.25,-12 305.25,-12 305.25,-24 305.25,-24 305.25,-30 299.25,-36 293.25,-36"/>
<text text-anchor="start" x="182.5" y="-14.3" font-family="Times,serif" font-size="14.00"> The M/M/1 Queue &#160;</text>
</a>
</g>
</g>
<!-- CONTINUOUS_TIME_MARKOV_CHAIN -->
<g id="node2" class="node"><title>CONTINUOUS_TIME_MARKOV_CHAIN</title>
<g id="a_node2"><a xlink:href="CONTINUOUS_TIME_MARKOV_CHAIN.html" xlink:title=" Markov chains in continuous time " target="_top">
<path fill="none" stroke="black" d="M199.5,-180C199.5,-180 12.5,-180 12.5,-180 6.5,-180 0.5,-174 0.5,-168 0.5,-168 0.5,-156 0.5,-156 0.5,-150 6.5,-144 12.5,-144 12.5,-144 199.5,-144 199.5,-144 205.5,-144 211.5,-150 211.5,-156 211.5,-156 211.5,-168 211.5,-168 211.5,-174 205.5,-180 199.5,-180"/>
<text text-anchor="start" x="8" y="-158.3" font-family="Times,serif" font-size="14.00"> Markov chains in continuous time </text>
</a>
</g>
</g>
<!-- CONTINUOUS_TIME_MARKOV_CHAIN&#45;&gt;MM1_QUEUE -->
<g id="edge1" class="edge"><title>CONTINUOUS_TIME_MARKOV_CHAIN&#45;&gt;MM1_QUEUE</title>
<path fill="none" stroke="black" d="M106.262,-143.667C107.429,-124.177 112.054,-92.57 129,-72 140.181,-58.4288 155.652,-48.1047 171.498,-40.3429"/>
<polygon fill="black" stroke="black" points="173.206,-43.41 180.841,-36.0638 170.292,-37.0457 173.206,-43.41"/>
</g>
<!-- GEOMETRIC_SERIES -->
<g id="node4" class="node"><title>GEOMETRIC_SERIES</title>
<g id="a_node4"><a xlink:href="GEOMETRIC_SERIES.html" xlink:title=" Geometric series " target="_top">
<path fill="none" stroke="black" d="M241.5,-108C241.5,-108 150.5,-108 150.5,-108 144.5,-108 138.5,-102 138.5,-96 138.5,-96 138.5,-84 138.5,-84 138.5,-78 144.5,-72 150.5,-72 150.5,-72 241.5,-72 241.5,-72 247.5,-72 253.5,-78 253.5,-84 253.5,-84 253.5,-96 253.5,-96 253.5,-102 247.5,-108 241.5,-108"/>
<text text-anchor="start" x="146" y="-86.3" font-family="Times,serif" font-size="14.00"> Geometric series </text>
</a>
</g>
</g>
<!-- CONTINUOUS_TIME_MARKOV_CHAIN&#45;&gt;GEOMETRIC_SERIES -->
<!-- POISSON_PROCESS -->
<g id="node3" class="node"><title>POISSON_PROCESS</title>
<g id="a_node3"><a xlink:href="POISSON_PROCESS.html" xlink:title=" Poisson Process " target="_top">
<path fill="none" stroke="black" d="M328.25,-180C328.25,-180 241.75,-180 241.75,-180 235.75,-180 229.75,-174 229.75,-168 229.75,-168 229.75,-156 229.75,-156 229.75,-150 235.75,-144 241.75,-144 241.75,-144 328.25,-144 328.25,-144 334.25,-144 340.25,-150 340.25,-156 340.25,-156 340.25,-168 340.25,-168 340.25,-174 334.25,-180 328.25,-180"/>
<text text-anchor="start" x="237.5" y="-158.3" font-family="Times,serif" font-size="14.00"> Poisson Process </text>
</a>
</g>
</g>
<!-- POISSON_PROCESS&#45;&gt;MM1_QUEUE -->
<g id="edge2" class="edge"><title>POISSON_PROCESS&#45;&gt;MM1_QUEUE</title>
<path fill="none" stroke="black" d="M281.295,-143.729C277.24,-125.644 270.21,-96.5152 262,-72 259.089,-63.3089 255.429,-54.0195 251.935,-45.6844"/>
<polygon fill="black" stroke="black" points="255.123,-44.2397 247.963,-36.431 248.691,-47.0008 255.123,-44.2397"/>
</g>
<!-- GEOMETRIC_SERIES&#45;&gt;MM1_QUEUE -->
<g id="edge3" class="edge"><title>GEOMETRIC_SERIES&#45;&gt;MM1_QUEUE</title>
<path fill="none" stroke="black" d="M206.876,-71.6966C211.992,-63.5589 218.195,-53.689 223.845,-44.7013"/>
<polygon fill="black" stroke="black" points="226.89,-46.4333 229.249,-36.1043 220.964,-42.7081 226.89,-46.4333"/>
</g>
<!-- EXPONENTIAL_RANDOM_VARIABLE -->
<g id="node5" class="node"><title>EXPONENTIAL_RANDOM_VARIABLE</title>
<g id="a_node5"><a xlink:href="EXPONENTIAL_RANDOM_VARIABLE.html" xlink:title=" Exponential random variable " target="_top">
<path fill="none" stroke="black" d="M482,-108C482,-108 324,-108 324,-108 318,-108 312,-102 312,-96 312,-96 312,-84 312,-84 312,-78 318,-72 324,-72 324,-72 482,-72 482,-72 488,-72 494,-78 494,-84 494,-84 494,-96 494,-96 494,-102 488,-108 482,-108"/>
<text text-anchor="start" x="320" y="-86.3" font-family="Times,serif" font-size="14.00"> Exponential random variable </text>
</a>
</g>
</g>
<!-- EXPONENTIAL_RANDOM_VARIABLE&#45;&gt;MM1_QUEUE -->
<g id="edge5" class="edge"><title>EXPONENTIAL_RANDOM_VARIABLE&#45;&gt;MM1_QUEUE</title>
<path fill="none" stroke="black" d="M363.126,-71.8761C340.843,-62.3066 312.885,-50.3001 289.244,-40.1478"/>
<polygon fill="black" stroke="black" points="290.314,-36.7984 279.745,-36.0683 287.552,-43.2304 290.314,-36.7984"/>
</g>
</g>
</svg>
