<?xml version="1.0" encoding="UTF-8" standalone="no"?>
<!DOCTYPE svg PUBLIC "-//W3C//DTD SVG 1.1//EN"
 "http://www.w3.org/Graphics/SVG/1.1/DTD/svg11.dtd">
<!-- Generated by graphviz version 2.26.3 (20100126.1600)
 -->
<!-- Title: _anonymous_0 Pages: 1 -->
<svg width="510pt" height="188pt"
 viewBox="0.00 0.00 510.00 188.00" xmlns="http://www.w3.org/2000/svg" xmlns:xlink="http://www.w3.org/1999/xlink">
<g id="graph1" class="graph" transform="scale(1 1) rotate(0) translate(4 184)">
<title>_anonymous_0</title>
<!-- MM1_QUEUE -->
<g id="node1" class="node"><title>MM1_QUEUE</title>
<a xlink:href="MM1_QUEUE.html" xlink:title="The M/M/1 Queue " target="_top">
<polyline fill="none" stroke="blue" stroke-width="2" points="355,-36 235,-36 "/>
<path fill="none" stroke="blue" stroke-width="2" d="M235,-36C229,-36 223,-30 223,-24"/>
<polyline fill="none" stroke="blue" stroke-width="2" points="223,-24 223,-12 "/>
<path fill="none" stroke="blue" stroke-width="2" d="M223,-12C223,-6 229,-1.71714e-14 235,-1.65793e-14"/>
<polyline fill="none" stroke="blue" stroke-width="2" points="235,-1.65793e-14 355,-4.73695e-15 "/>
<path fill="none" stroke="blue" stroke-width="2" d="M355,-4.73695e-15C361,-4.14483e-15 367,-6 367,-12"/>
<polyline fill="none" stroke="blue" stroke-width="2" points="367,-12 367,-24 "/>
<path fill="none" stroke="blue" stroke-width="2" d="M367,-24C367,-30 361,-36 355,-36"/>
<text text-anchor="start" x="231" y="-15.2333" font-family="Times Roman,serif" font-size="14.00">The M/M/1 Queue </text>
</a>
</g>
<!-- EXPONENTIAL_RANDOM_VARIABLE -->
<g id="node2" class="node"><title>EXPONENTIAL_RANDOM_VARIABLE</title>
<a xlink:href="EXPONENTIAL_RANDOM_VARIABLE.html" xlink:title="Exponential random variable" target="_top">
<polyline fill="none" stroke="black" points="204,-180 12,-180 "/>
<path fill="none" stroke="black" d="M12,-180C6,-180 7.10543e-14,-174 5.68434e-14,-168"/>
<polyline fill="none" stroke="black" points="5.68434e-14,-168 2.84217e-14,-156 "/>
<path fill="none" stroke="black" d="M2.84217e-14,-156C1.42109e-14,-150 6,-144 12,-144"/>
<polyline fill="none" stroke="black" points="12,-144 204,-144 "/>
<path fill="none" stroke="black" d="M204,-144C210,-144 216,-150 216,-156"/>
<polyline fill="none" stroke="black" points="216,-156 216,-168 "/>
<path fill="none" stroke="black" d="M216,-168C216,-174 210,-180 204,-180"/>
<text text-anchor="start" x="8.5" y="-159.233" font-family="Times Roman,serif" font-size="14.00">Exponential random variable</text>
</a>
</g>
<!-- EXPONENTIAL_RANDOM_VARIABLE&#45;&gt;MM1_QUEUE -->
<g id="edge2" class="edge"><title>EXPONENTIAL_RANDOM_VARIABLE&#45;&gt;MM1_QUEUE</title>
<path fill="none" stroke="black" d="M115.695,-143.798C124.982,-123.776 142.347,-91.8169 166,-72 182.153,-58.4663 202.182,-47.9023 221.602,-39.8499"/>
<polygon fill="black" stroke="black" points="223.061,-43.0365 231.066,-36.0967 220.48,-36.5295 223.061,-43.0365"/>
</g>
<!-- GEOMETRIC_SERIES -->
<g id="node6" class="node"><title>GEOMETRIC_SERIES</title>
<a xlink:href="GEOMETRIC_SERIES.html" xlink:title="Geometric series" target="_top">
<polyline fill="none" stroke="black" points="295,-108 187,-108 "/>
<path fill="none" stroke="black" d="M187,-108C181,-108 175,-102 175,-96"/>
<polyline fill="none" stroke="black" points="175,-96 175,-84 "/>
<path fill="none" stroke="black" d="M175,-84C175,-78 181,-72 187,-72"/>
<polyline fill="none" stroke="black" points="187,-72 295,-72 "/>
<path fill="none" stroke="black" d="M295,-72C301,-72 307,-78 307,-84"/>
<polyline fill="none" stroke="black" points="307,-84 307,-96 "/>
<path fill="none" stroke="black" d="M307,-96C307,-102 301,-108 295,-108"/>
<text text-anchor="start" x="183" y="-87.2333" font-family="Times Roman,serif" font-size="14.00">Geometric series</text>
</a>
</g>
<!-- EXPONENTIAL_RANDOM_VARIABLE&#45;&gt;GEOMETRIC_SERIES -->
<!-- CONTINUOUS_TIME_MARKOV_CHAIN -->
<g id="node4" class="node"><title>CONTINUOUS_TIME_MARKOV_CHAIN</title>
<a xlink:href="CONTINUOUS_TIME_MARKOV_CHAIN.html" xlink:title="Markov chains in continuous time" target="_top">
<polyline fill="none" stroke="black" points="470,-180 246,-180 "/>
<path fill="none" stroke="black" d="M246,-180C240,-180 234,-174 234,-168"/>
<polyline fill="none" stroke="black" points="234,-168 234,-156 "/>
<path fill="none" stroke="black" d="M234,-156C234,-150 240,-144 246,-144"/>
<polyline fill="none" stroke="black" points="246,-144 470,-144 "/>
<path fill="none" stroke="black" d="M470,-144C476,-144 482,-150 482,-156"/>
<polyline fill="none" stroke="black" points="482,-156 482,-168 "/>
<path fill="none" stroke="black" d="M482,-168C482,-174 476,-180 470,-180"/>
<text text-anchor="start" x="242" y="-159.233" font-family="Times Roman,serif" font-size="14.00">Markov chains in continuous time</text>
</a>
</g>
<!-- CONTINUOUS_TIME_MARKOV_CHAIN&#45;&gt;MM1_QUEUE -->
<g id="edge4" class="edge"><title>CONTINUOUS_TIME_MARKOV_CHAIN&#45;&gt;MM1_QUEUE</title>
<path fill="none" stroke="black" d="M350.021,-143.762C339.181,-118.985 319.706,-74.4714 307.072,-45.5939"/>
<polygon fill="black" stroke="black" points="310.129,-43.8483 302.914,-36.0896 303.716,-46.6541 310.129,-43.8483"/>
</g>
<!-- GEOMETRIC_SERIES&#45;&gt;MM1_QUEUE -->
<g id="edge6" class="edge"><title>GEOMETRIC_SERIES&#45;&gt;MM1_QUEUE</title>
<path fill="none" stroke="black" d="M254.626,-71.8314C260.846,-63.5386 268.332,-53.557 275.16,-44.4533"/>
<polygon fill="black" stroke="black" points="277.99,-46.5133 281.19,-36.4133 272.39,-42.3133 277.99,-46.5133"/>
</g>
<!-- POISSON_PROCESS -->
<g id="node9" class="node"><title>POISSON_PROCESS</title>
<a xlink:href="POISSON_PROCESS.html" xlink:title="Poisson Process" target="_top">
<polyline fill="none" stroke="black" points="490,-108 390,-108 "/>
<path fill="none" stroke="black" d="M390,-108C384,-108 378,-102 378,-96"/>
<polyline fill="none" stroke="black" points="378,-96 378,-84 "/>
<path fill="none" stroke="black" d="M378,-84C378,-78 384,-72 390,-72"/>
<polyline fill="none" stroke="black" points="390,-72 490,-72 "/>
<path fill="none" stroke="black" d="M490,-72C496,-72 502,-78 502,-84"/>
<polyline fill="none" stroke="black" points="502,-84 502,-96 "/>
<path fill="none" stroke="black" d="M502,-96C502,-102 496,-108 490,-108"/>
<text text-anchor="start" x="386" y="-87.2333" font-family="Times Roman,serif" font-size="14.00">Poisson Process</text>
</a>
</g>
<!-- POISSON_PROCESS&#45;&gt;MM1_QUEUE -->
<g id="edge10" class="edge"><title>POISSON_PROCESS&#45;&gt;MM1_QUEUE</title>
<path fill="none" stroke="black" d="M403.41,-71.8314C384.276,-62.3302 360.677,-50.6121 340.388,-40.5374"/>
<polygon fill="black" stroke="black" points="341.84,-37.3506 331.327,-36.038 338.726,-43.6203 341.84,-37.3506"/>
</g>
</g>
</svg>
