<?xml version="1.0" encoding="UTF-8" standalone="no"?>
<!DOCTYPE svg PUBLIC "-//W3C//DTD SVG 1.1//EN"
 "http://www.w3.org/Graphics/SVG/1.1/DTD/svg11.dtd">
<!-- Generated by graphviz version 2.26.3 (20100126.1600)
 -->
<!-- Title: _anonymous_0 Pages: 1 -->
<svg width="406pt" height="116pt"
 viewBox="0.00 0.00 406.00 116.00" xmlns="http://www.w3.org/2000/svg" xmlns:xlink="http://www.w3.org/1999/xlink">
<g id="graph1" class="graph" transform="scale(1 1) rotate(0) translate(4 112)">
<title>_anonymous_0</title>
<!-- MM1_QUEUE -->
<g id="node1" class="node"><title>MM1_QUEUE</title>
<a xlink:href="MM1_QUEUE.html" xlink:title="The M/M/1 Queue " target="_top">
<polyline fill="none" stroke="blue" stroke-width="2" points="288,-36 168,-36 "/>
<path fill="none" stroke="blue" stroke-width="2" d="M168,-36C162,-36 156,-30 156,-24"/>
<polyline fill="none" stroke="blue" stroke-width="2" points="156,-24 156,-12 "/>
<path fill="none" stroke="blue" stroke-width="2" d="M156,-12C156,-6 162,-1.71714e-14 168,-1.65793e-14"/>
<polyline fill="none" stroke="blue" stroke-width="2" points="168,-1.65793e-14 288,-4.73695e-15 "/>
<path fill="none" stroke="blue" stroke-width="2" d="M288,-4.73695e-15C294,-4.14483e-15 300,-6 300,-12"/>
<polyline fill="none" stroke="blue" stroke-width="2" points="300,-12 300,-24 "/>
<path fill="none" stroke="blue" stroke-width="2" d="M300,-24C300,-30 294,-36 288,-36"/>
<text text-anchor="start" x="164" y="-15.2333" font-family="Times Roman,serif" font-size="14.00">The M/M/1 Queue </text>
</a>
</g>
<!-- CONTINUOUS_TIME_MARKOV_CHAIN -->
<g id="node2" class="node"><title>CONTINUOUS_TIME_MARKOV_CHAIN</title>
<a xlink:href="CONTINUOUS_TIME_MARKOV_CHAIN.html" xlink:title="Markov chains in continuous time" target="_top">
<polyline fill="none" stroke="black" points="236,-108 12,-108 "/>
<path fill="none" stroke="black" d="M12,-108C6,-108 6.86858e-14,-102 5.21065e-14,-96"/>
<polyline fill="none" stroke="black" points="5.21065e-14,-96 1.89478e-14,-84 "/>
<path fill="none" stroke="black" d="M1.89478e-14,-84C2.36848e-15,-78 6,-72 12,-72"/>
<polyline fill="none" stroke="black" points="12,-72 236,-72 "/>
<path fill="none" stroke="black" d="M236,-72C242,-72 248,-78 248,-84"/>
<polyline fill="none" stroke="black" points="248,-84 248,-96 "/>
<path fill="none" stroke="black" d="M248,-96C248,-102 242,-108 236,-108"/>
<text text-anchor="start" x="8" y="-87.2333" font-family="Times Roman,serif" font-size="14.00">Markov chains in continuous time</text>
</a>
</g>
<!-- CONTINUOUS_TIME_MARKOV_CHAIN&#45;&gt;MM1_QUEUE -->
<g id="edge2" class="edge"><title>CONTINUOUS_TIME_MARKOV_CHAIN&#45;&gt;MM1_QUEUE</title>
<path fill="none" stroke="black" d="M150.244,-71.8314C163.299,-62.7927 179.253,-51.7476 193.305,-42.0198"/>
<polygon fill="black" stroke="black" points="195.535,-44.7326 201.765,-36.1628 191.551,-38.9773 195.535,-44.7326"/>
</g>
<!-- GEOMETRIC_SERIES -->
<g id="node4" class="node"><title>GEOMETRIC_SERIES</title>
<a xlink:href="GEOMETRIC_SERIES.html" xlink:title="Geometric series" target="_top">
<polyline fill="none" stroke="black" points="386,-108 278,-108 "/>
<path fill="none" stroke="black" d="M278,-108C272,-108 266,-102 266,-96"/>
<polyline fill="none" stroke="black" points="266,-96 266,-84 "/>
<path fill="none" stroke="black" d="M266,-84C266,-78 272,-72 278,-72"/>
<polyline fill="none" stroke="black" points="278,-72 386,-72 "/>
<path fill="none" stroke="black" d="M386,-72C392,-72 398,-78 398,-84"/>
<polyline fill="none" stroke="black" points="398,-84 398,-96 "/>
<path fill="none" stroke="black" d="M398,-96C398,-102 392,-108 386,-108"/>
<text text-anchor="start" x="274" y="-87.2333" font-family="Times Roman,serif" font-size="14.00">Geometric series</text>
</a>
</g>
<!-- GEOMETRIC_SERIES&#45;&gt;MM1_QUEUE -->
<g id="edge4" class="edge"><title>GEOMETRIC_SERIES&#45;&gt;MM1_QUEUE</title>
<path fill="none" stroke="black" d="M305.756,-71.8314C292.701,-62.7927 276.747,-51.7476 262.695,-42.0198"/>
<polygon fill="black" stroke="black" points="264.449,-38.9773 254.235,-36.1628 260.465,-44.7326 264.449,-38.9773"/>
</g>
</g>
</svg>
