<?xml version="1.0" encoding="UTF-8" standalone="no"?>
<!DOCTYPE svg PUBLIC "-//W3C//DTD SVG 1.1//EN"
 "http://www.w3.org/Graphics/SVG/1.1/DTD/svg11.dtd">
<!-- Generated by graphviz version 2.36.0 (20140111.2315)
 -->
<!-- Title: %3 Pages: 1 -->
<svg width="422pt" height="188pt"
 viewBox="0.00 0.00 422.00 188.00" xmlns="http://www.w3.org/2000/svg" xmlns:xlink="http://www.w3.org/1999/xlink">
<g id="graph0" class="graph" transform="scale(1 1) rotate(0) translate(4 184)">
<title>%3</title>
<!-- MM1_QUEUE -->
<g id="node1" class="node"><title>MM1_QUEUE</title>
<g id="a_node1"><a xlink:href="MM1_QUEUE.html" xlink:title=" The M/M/1 Queue &#160;" target="_top">
<path fill="none" stroke="blue" stroke-width="2" d="M261.25,-36C261.25,-36 154.75,-36 154.75,-36 148.75,-36 142.75,-30 142.75,-24 142.75,-24 142.75,-12 142.75,-12 142.75,-6 148.75,-0 154.75,-0 154.75,-0 261.25,-0 261.25,-0 267.25,-0 273.25,-6 273.25,-12 273.25,-12 273.25,-24 273.25,-24 273.25,-30 267.25,-36 261.25,-36"/>
<text text-anchor="start" x="150.5" y="-14.3" font-family="Times,serif" font-size="14.00"> The M/M/1 Queue &#160;</text>
</a>
</g>
</g>
<!-- GEOMETRIC_SERIES -->
<g id="node2" class="node"><title>GEOMETRIC_SERIES</title>
<g id="a_node2"><a xlink:href="GEOMETRIC_SERIES.html" xlink:title=" Geometric series " target="_top">
<path fill="none" stroke="black" d="M103.5,-180C103.5,-180 12.5,-180 12.5,-180 6.5,-180 0.5,-174 0.5,-168 0.5,-168 0.5,-156 0.5,-156 0.5,-150 6.5,-144 12.5,-144 12.5,-144 103.5,-144 103.5,-144 109.5,-144 115.5,-150 115.5,-156 115.5,-156 115.5,-168 115.5,-168 115.5,-174 109.5,-180 103.5,-180"/>
<text text-anchor="start" x="8" y="-158.3" font-family="Times,serif" font-size="14.00"> Geometric series </text>
</a>
</g>
</g>
<!-- GEOMETRIC_SERIES&#45;&gt;MM1_QUEUE -->
<g id="edge1" class="edge"><title>GEOMETRIC_SERIES&#45;&gt;MM1_QUEUE</title>
<path fill="none" stroke="black" d="M42.8501,-143.818C27.9529,-124.751 9.64128,-93.802 26,-72 39.267,-54.3184 88.7287,-40.5992 132.744,-31.5527"/>
<polygon fill="black" stroke="black" points="133.499,-34.9713 142.62,-29.5807 132.128,-28.1068 133.499,-34.9713"/>
</g>
<!-- CONTINUOUS_TIME_MARKOV_CHAIN -->
<g id="node4" class="node"><title>CONTINUOUS_TIME_MARKOV_CHAIN</title>
<g id="a_node4"><a xlink:href="CONTINUOUS_TIME_MARKOV_CHAIN.html" xlink:title=" Markov chains in continuous time " target="_top">
<path fill="none" stroke="black" d="M234.5,-108C234.5,-108 47.5,-108 47.5,-108 41.5,-108 35.5,-102 35.5,-96 35.5,-96 35.5,-84 35.5,-84 35.5,-78 41.5,-72 47.5,-72 47.5,-72 234.5,-72 234.5,-72 240.5,-72 246.5,-78 246.5,-84 246.5,-84 246.5,-96 246.5,-96 246.5,-102 240.5,-108 234.5,-108"/>
<text text-anchor="start" x="43" y="-86.3" font-family="Times,serif" font-size="14.00"> Markov chains in continuous time </text>
</a>
</g>
</g>
<!-- GEOMETRIC_SERIES&#45;&gt;CONTINUOUS_TIME_MARKOV_CHAIN -->
<!-- EXPONENTIAL_RANDOM_VARIABLE -->
<g id="node3" class="node"><title>EXPONENTIAL_RANDOM_VARIABLE</title>
<g id="a_node3"><a xlink:href="EXPONENTIAL_RANDOM_VARIABLE.html" xlink:title=" Exponential random variable " target="_top">
<path fill="none" stroke="black" d="M354,-180C354,-180 196,-180 196,-180 190,-180 184,-174 184,-168 184,-168 184,-156 184,-156 184,-150 190,-144 196,-144 196,-144 354,-144 354,-144 360,-144 366,-150 366,-156 366,-156 366,-168 366,-168 366,-174 360,-180 354,-180"/>
<text text-anchor="start" x="192" y="-158.3" font-family="Times,serif" font-size="14.00"> Exponential random variable </text>
</a>
</g>
</g>
<!-- EXPONENTIAL_RANDOM_VARIABLE&#45;&gt;MM1_QUEUE -->
<g id="edge2" class="edge"><title>EXPONENTIAL_RANDOM_VARIABLE&#45;&gt;MM1_QUEUE</title>
<path fill="none" stroke="black" d="M273.694,-143.735C271.716,-125.141 266.838,-95.1176 255,-72 249.764,-61.7753 242.092,-51.9561 234.459,-43.6077"/>
<polygon fill="black" stroke="black" points="236.978,-41.1786 227.53,-36.3848 231.927,-46.0243 236.978,-41.1786"/>
</g>
<!-- CONTINUOUS_TIME_MARKOV_CHAIN&#45;&gt;MM1_QUEUE -->
<g id="edge3" class="edge"><title>CONTINUOUS_TIME_MARKOV_CHAIN&#45;&gt;MM1_QUEUE</title>
<path fill="none" stroke="black" d="M157.562,-71.6966C165.675,-63.2198 175.588,-52.8636 184.471,-43.5826"/>
<polygon fill="black" stroke="black" points="187.243,-45.7486 191.629,-36.1043 182.186,-40.9084 187.243,-45.7486"/>
</g>
<!-- POISSON_PROCESS -->
<g id="node5" class="node"><title>POISSON_PROCESS</title>
<g id="a_node5"><a xlink:href="POISSON_PROCESS.html" xlink:title=" Poisson Process " target="_top">
<path fill="none" stroke="black" d="M402.25,-108C402.25,-108 315.75,-108 315.75,-108 309.75,-108 303.75,-102 303.75,-96 303.75,-96 303.75,-84 303.75,-84 303.75,-78 309.75,-72 315.75,-72 315.75,-72 402.25,-72 402.25,-72 408.25,-72 414.25,-78 414.25,-84 414.25,-84 414.25,-96 414.25,-96 414.25,-102 408.25,-108 402.25,-108"/>
<text text-anchor="start" x="311.5" y="-86.3" font-family="Times,serif" font-size="14.00"> Poisson Process </text>
</a>
</g>
</g>
<!-- POISSON_PROCESS&#45;&gt;MM1_QUEUE -->
<g id="edge5" class="edge"><title>POISSON_PROCESS&#45;&gt;MM1_QUEUE</title>
<path fill="none" stroke="black" d="M322.061,-71.8761C301.51,-62.3492 275.749,-50.4068 253.911,-40.2833"/>
<polygon fill="black" stroke="black" points="255.363,-37.0988 244.819,-36.0683 252.419,-43.4496 255.363,-37.0988"/>
</g>
</g>
</svg>
