<?xml version="1.0" encoding="UTF-8" standalone="no"?>
<!DOCTYPE svg PUBLIC "-//W3C//DTD SVG 1.1//EN"
 "http://www.w3.org/Graphics/SVG/1.1/DTD/svg11.dtd">
<!-- Generated by graphviz version 2.26.3 (20100126.1600)
 -->
<!-- Title: _anonymous_0 Pages: 1 -->
<svg width="579pt" height="188pt"
 viewBox="0.00 0.00 579.00 188.00" xmlns="http://www.w3.org/2000/svg" xmlns:xlink="http://www.w3.org/1999/xlink">
<g id="graph1" class="graph" transform="scale(1 1) rotate(0) translate(4 184)">
<title>_anonymous_0</title>
<!-- MM1_QUEUE -->
<g id="node1" class="node"><title>MM1_QUEUE</title>
<a xlink:href="MM1_QUEUE.html" xlink:title=" The M/M/1 Queue &#160;" target="_top">
<polyline fill="none" stroke="blue" stroke-width="2" points="280,-36 150,-36 "/>
<path fill="none" stroke="blue" stroke-width="2" d="M150,-36C144,-36 138,-30 138,-24"/>
<polyline fill="none" stroke="blue" stroke-width="2" points="138,-24 138,-12 "/>
<path fill="none" stroke="blue" stroke-width="2" d="M138,-12C138,-6 144,-1.72099e-14 150,-1.66562e-14"/>
<polyline fill="none" stroke="blue" stroke-width="2" points="150,-1.66562e-14 280,-4.66005e-15 "/>
<path fill="none" stroke="blue" stroke-width="2" d="M280,-4.66005e-15C286,-4.10638e-15 292,-6 292,-12"/>
<polyline fill="none" stroke="blue" stroke-width="2" points="292,-12 292,-24 "/>
<path fill="none" stroke="blue" stroke-width="2" d="M292,-24C292,-30 286,-36 280,-36"/>
<text text-anchor="start" x="146.5" y="-15.2333" font-family="Times Roman,serif" font-size="14.00"> The M/M/1 Queue &#160;</text>
</a>
</g>
<!-- POISSON_PROCESS -->
<g id="node2" class="node"><title>POISSON_PROCESS</title>
<a xlink:href="POISSON_PROCESS.html" xlink:title=" Poisson Process " target="_top">
<polyline fill="none" stroke="black" points="122,-180 12,-180 "/>
<path fill="none" stroke="black" d="M12,-180C6,-180 4.73695e-14,-174 3.78956e-14,-168"/>
<polyline fill="none" stroke="black" points="3.78956e-14,-168 1.89478e-14,-156 "/>
<path fill="none" stroke="black" d="M1.89478e-14,-156C9.4739e-15,-150 6,-144 12,-144"/>
<polyline fill="none" stroke="black" points="12,-144 122,-144 "/>
<path fill="none" stroke="black" d="M122,-144C128,-144 134,-150 134,-156"/>
<polyline fill="none" stroke="black" points="134,-156 134,-168 "/>
<path fill="none" stroke="black" d="M134,-168C134,-174 128,-180 122,-180"/>
<text text-anchor="start" x="8.5" y="-159.233" font-family="Times Roman,serif" font-size="14.00"> Poisson Process </text>
</a>
</g>
<!-- POISSON_PROCESS&#45;&gt;MM1_QUEUE -->
<g id="edge2" class="edge"><title>POISSON_PROCESS&#45;&gt;MM1_QUEUE</title>
<path fill="none" stroke="black" d="M47.3565,-143.91C29.0601,-124.843 6.97104,-94.5109 24,-72 37.1428,-54.6263 83.8946,-41.2417 127.851,-32.144"/>
<polygon fill="black" stroke="black" points="128.645,-35.5544 137.76,-30.1535 127.267,-28.6914 128.645,-35.5544"/>
</g>
<!-- EXPONENTIAL_RANDOM_VARIABLE -->
<g id="node6" class="node"><title>EXPONENTIAL_RANDOM_VARIABLE</title>
<a xlink:href="EXPONENTIAL_RANDOM_VARIABLE.html" xlink:title=" Exponential random variable " target="_top">
<polyline fill="none" stroke="black" points="245,-108 45,-108 "/>
<path fill="none" stroke="black" d="M45,-108C39,-108 33,-102 33,-96"/>
<polyline fill="none" stroke="black" points="33,-96 33,-84 "/>
<path fill="none" stroke="black" d="M33,-84C33,-78 39,-72 45,-72"/>
<polyline fill="none" stroke="black" points="45,-72 245,-72 "/>
<path fill="none" stroke="black" d="M245,-72C251,-72 257,-78 257,-84"/>
<polyline fill="none" stroke="black" points="257,-84 257,-96 "/>
<path fill="none" stroke="black" d="M257,-96C257,-102 251,-108 245,-108"/>
<text text-anchor="start" x="41" y="-87.2333" font-family="Times Roman,serif" font-size="14.00"> Exponential random variable </text>
</a>
</g>
<!-- POISSON_PROCESS&#45;&gt;EXPONENTIAL_RANDOM_VARIABLE -->
<!-- GEOMETRIC_SERIES -->
<g id="node4" class="node"><title>GEOMETRIC_SERIES</title>
<a xlink:href="GEOMETRIC_SERIES.html" xlink:title=" Geometric series " target="_top">
<polyline fill="none" stroke="black" points="344,-180 226,-180 "/>
<path fill="none" stroke="black" d="M226,-180C220,-180 214,-174 214,-168"/>
<polyline fill="none" stroke="black" points="214,-168 214,-156 "/>
<path fill="none" stroke="black" d="M214,-156C214,-150 220,-144 226,-144"/>
<polyline fill="none" stroke="black" points="226,-144 344,-144 "/>
<path fill="none" stroke="black" d="M344,-144C350,-144 356,-150 356,-156"/>
<polyline fill="none" stroke="black" points="356,-156 356,-168 "/>
<path fill="none" stroke="black" d="M356,-168C356,-174 350,-180 344,-180"/>
<text text-anchor="start" x="222.5" y="-159.233" font-family="Times Roman,serif" font-size="14.00"> Geometric series </text>
</a>
</g>
<!-- GEOMETRIC_SERIES&#45;&gt;MM1_QUEUE -->
<g id="edge4" class="edge"><title>GEOMETRIC_SERIES&#45;&gt;MM1_QUEUE</title>
<path fill="none" stroke="black" d="M284.051,-143.778C282.423,-124.871 278.002,-94.9176 266,-72 260.549,-61.5922 252.518,-51.7529 244.435,-43.3956"/>
<polygon fill="black" stroke="black" points="246.656,-40.6717 237.068,-36.1634 241.752,-45.6667 246.656,-40.6717"/>
</g>
<!-- EXPONENTIAL_RANDOM_VARIABLE&#45;&gt;MM1_QUEUE -->
<g id="edge6" class="edge"><title>EXPONENTIAL_RANDOM_VARIABLE&#45;&gt;MM1_QUEUE</title>
<path fill="none" stroke="black" d="M162.664,-71.8314C170.973,-63.2848 181.026,-52.9443 190.092,-43.6198"/>
<polygon fill="black" stroke="black" points="192.637,-46.023 197.098,-36.4133 187.618,-41.1435 192.637,-46.023"/>
</g>
<!-- CONTINUOUS_TIME_MARKOV_CHAIN -->
<g id="node9" class="node"><title>CONTINUOUS_TIME_MARKOV_CHAIN</title>
<a xlink:href="CONTINUOUS_TIME_MARKOV_CHAIN.html" xlink:title=" Markov chains in continuous time " target="_top">
<polyline fill="none" stroke="black" points="559,-108 325,-108 "/>
<path fill="none" stroke="black" d="M325,-108C319,-108 313,-102 313,-96"/>
<polyline fill="none" stroke="black" points="313,-96 313,-84 "/>
<path fill="none" stroke="black" d="M313,-84C313,-78 319,-72 325,-72"/>
<polyline fill="none" stroke="black" points="325,-72 559,-72 "/>
<path fill="none" stroke="black" d="M559,-72C565,-72 571,-78 571,-84"/>
<polyline fill="none" stroke="black" points="571,-84 571,-96 "/>
<path fill="none" stroke="black" d="M571,-96C571,-102 565,-108 559,-108"/>
<text text-anchor="start" x="321.5" y="-87.2333" font-family="Times Roman,serif" font-size="14.00"> Markov chains in continuous time </text>
</a>
</g>
<!-- CONTINUOUS_TIME_MARKOV_CHAIN&#45;&gt;MM1_QUEUE -->
<g id="edge10" class="edge"><title>CONTINUOUS_TIME_MARKOV_CHAIN&#45;&gt;MM1_QUEUE</title>
<path fill="none" stroke="black" d="M385.011,-71.9243C353.709,-61.9959 314.708,-49.6255 281.959,-39.2382"/>
<polygon fill="black" stroke="black" points="282.602,-35.7704 272.012,-36.0831 280.486,-42.4428 282.602,-35.7704"/>
</g>
</g>
</svg>
