<?xml version="1.0" encoding="UTF-8" standalone="no"?>
<!DOCTYPE svg PUBLIC "-//W3C//DTD SVG 1.1//EN"
 "http://www.w3.org/Graphics/SVG/1.1/DTD/svg11.dtd">
<!-- Generated by graphviz version 2.26.3 (20100126.1600)
 -->
<!-- Title: _anonymous_0 Pages: 1 -->
<svg width="394pt" height="116pt"
 viewBox="0.00 0.00 394.00 116.00" xmlns="http://www.w3.org/2000/svg" xmlns:xlink="http://www.w3.org/1999/xlink">
<g id="graph1" class="graph" transform="scale(1 1) rotate(0) translate(4 112)">
<title>_anonymous_0</title>
<!-- MOLECULAR_DYNAMICS -->
<g id="node1" class="node"><title>MOLECULAR_DYNAMICS</title>
<a xlink:href="MOLECULAR_DYNAMICS.html" xlink:title="Molecular dynamics simulation" target="_top">
<polyline fill="none" stroke="blue" stroke-width="2" points="297,-36 93,-36 "/>
<path fill="none" stroke="blue" stroke-width="2" d="M93,-36C87,-36 81,-30 81,-24"/>
<polyline fill="none" stroke="blue" stroke-width="2" points="81,-24 81,-12 "/>
<path fill="none" stroke="blue" stroke-width="2" d="M81,-12C81,-6 87,-1.73896e-14 93,-1.70156e-14"/>
<polyline fill="none" stroke="blue" stroke-width="2" points="93,-1.70156e-14 297,-4.30065e-15 "/>
<path fill="none" stroke="blue" stroke-width="2" d="M297,-4.30065e-15C303,-3.92668e-15 309,-6 309,-12"/>
<polyline fill="none" stroke="blue" stroke-width="2" points="309,-12 309,-24 "/>
<path fill="none" stroke="blue" stroke-width="2" d="M309,-24C309,-30 303,-36 297,-36"/>
<text text-anchor="start" x="89.5" y="-15.2333" font-family="Times Roman,serif" font-size="14.00">Molecular dynamics simulation</text>
</a>
</g>
<!-- NEWTONS_LAWS -->
<g id="node2" class="node"><title>NEWTONS_LAWS</title>
<a xlink:href="NEWTONS_LAWS.html" xlink:title="Newtons Laws of Motion" target="_top">
<polyline fill="none" stroke="black" points="176,-108 12,-108 "/>
<path fill="none" stroke="black" d="M12,-108C6,-108 7.10543e-14,-102 5.68434e-14,-96"/>
<polyline fill="none" stroke="black" points="5.68434e-14,-96 2.84217e-14,-84 "/>
<path fill="none" stroke="black" d="M2.84217e-14,-84C1.42109e-14,-78 6,-72 12,-72"/>
<polyline fill="none" stroke="black" points="12,-72 176,-72 "/>
<path fill="none" stroke="black" d="M176,-72C182,-72 188,-78 188,-84"/>
<polyline fill="none" stroke="black" points="188,-84 188,-96 "/>
<path fill="none" stroke="black" d="M188,-96C188,-102 182,-108 176,-108"/>
<text text-anchor="start" x="8" y="-87.2333" font-family="Times Roman,serif" font-size="14.00">Newtons Laws of Motion</text>
</a>
</g>
<!-- NEWTONS_LAWS&#45;&gt;MOLECULAR_DYNAMICS -->
<g id="edge2" class="edge"><title>NEWTONS_LAWS&#45;&gt;MOLECULAR_DYNAMICS</title>
<path fill="none" stroke="black" d="M119.487,-71.8314C132.166,-62.7927 147.66,-51.7476 161.306,-42.0198"/>
<polygon fill="black" stroke="black" points="163.41,-44.8176 169.522,-36.1628 159.347,-39.1176 163.41,-44.8176"/>
</g>
<!-- MONTE_CARLO -->
<g id="node4" class="node"><title>MONTE_CARLO</title>
<a xlink:href="MONTE_CARLO.html" xlink:title="Monte Carlo Simulation" target="_top">
<polyline fill="none" stroke="black" points="374,-108 218,-108 "/>
<path fill="none" stroke="black" d="M218,-108C212,-108 206,-102 206,-96"/>
<polyline fill="none" stroke="black" points="206,-96 206,-84 "/>
<path fill="none" stroke="black" d="M206,-84C206,-78 212,-72 218,-72"/>
<polyline fill="none" stroke="black" points="218,-72 374,-72 "/>
<path fill="none" stroke="black" d="M374,-72C380,-72 386,-78 386,-84"/>
<polyline fill="none" stroke="black" points="386,-84 386,-96 "/>
<path fill="none" stroke="black" d="M386,-96C386,-102 380,-108 374,-108"/>
<text text-anchor="start" x="214.5" y="-87.2333" font-family="Times Roman,serif" font-size="14.00">Monte Carlo Simulation</text>
</a>
</g>
<!-- MONTE_CARLO&#45;&gt;MOLECULAR_DYNAMICS -->
<g id="edge4" class="edge"><title>MONTE_CARLO&#45;&gt;MOLECULAR_DYNAMICS</title>
<path fill="none" stroke="black" d="M270.513,-71.8314C257.834,-62.7927 242.34,-51.7476 228.694,-42.0198"/>
<polygon fill="black" stroke="black" points="230.653,-39.1176 220.478,-36.1628 226.59,-44.8176 230.653,-39.1176"/>
</g>
</g>
</svg>
