<?xml version="1.0" encoding="UTF-8" standalone="no"?>
<!DOCTYPE svg PUBLIC "-//W3C//DTD SVG 1.1//EN"
 "http://www.w3.org/Graphics/SVG/1.1/DTD/svg11.dtd">
<!-- Generated by graphviz version 2.26.3 (20100126.1600)
 -->
<!-- Title: _anonymous_0 Pages: 1 -->
<svg width="394pt" height="188pt"
 viewBox="0.00 0.00 394.00 188.00" xmlns="http://www.w3.org/2000/svg" xmlns:xlink="http://www.w3.org/1999/xlink">
<g id="graph1" class="graph" transform="scale(1 1) rotate(0) translate(4 184)">
<title>_anonymous_0</title>
<!-- MOLECULAR_DYNAMICS -->
<g id="node1" class="node"><title>MOLECULAR_DYNAMICS</title>
<a xlink:href="MOLECULAR_DYNAMICS.html" xlink:title="Molecular dynamics simulation" target="_top">
<polyline fill="none" stroke="blue" stroke-width="2" points="297,-108 93,-108 "/>
<path fill="none" stroke="blue" stroke-width="2" d="M93,-108C87,-108 81,-102 81,-96"/>
<polyline fill="none" stroke="blue" stroke-width="2" points="81,-96 81,-84 "/>
<path fill="none" stroke="blue" stroke-width="2" d="M81,-84C81,-78 87,-72 93,-72"/>
<polyline fill="none" stroke="blue" stroke-width="2" points="93,-72 297,-72 "/>
<path fill="none" stroke="blue" stroke-width="2" d="M297,-72C303,-72 309,-78 309,-84"/>
<polyline fill="none" stroke="blue" stroke-width="2" points="309,-84 309,-96 "/>
<path fill="none" stroke="blue" stroke-width="2" d="M309,-96C309,-102 303,-108 297,-108"/>
<text text-anchor="start" x="89.5" y="-87.2333" font-family="Times Roman,serif" font-size="14.00">Molecular dynamics simulation</text>
</a>
</g>
<!-- ENHANCED_SAMPLING -->
<g id="node4" class="node"><title>ENHANCED_SAMPLING</title>
<a xlink:href="ENHANCED_SAMPLING.html" xlink:title="Enhanced sampling" target="_top">
<polyline fill="none" stroke="black" points="258,-36 132,-36 "/>
<path fill="none" stroke="black" d="M132,-36C126,-36 120,-30 120,-24"/>
<polyline fill="none" stroke="black" points="120,-24 120,-12 "/>
<path fill="none" stroke="black" d="M120,-12C120,-6 126,-1.71951e-14 132,-1.66267e-14"/>
<polyline fill="none" stroke="black" points="132,-1.66267e-14 258,-4.68958e-15 "/>
<path fill="none" stroke="black" d="M258,-4.68958e-15C264,-4.12115e-15 270,-6 270,-12"/>
<polyline fill="none" stroke="black" points="270,-12 270,-24 "/>
<path fill="none" stroke="black" d="M270,-24C270,-30 264,-36 258,-36"/>
<text text-anchor="start" x="128.5" y="-15.2333" font-family="Times Roman,serif" font-size="14.00">Enhanced sampling</text>
</a>
</g>
<!-- MOLECULAR_DYNAMICS&#45;&gt;ENHANCED_SAMPLING -->
<g id="edge4" class="edge"><title>MOLECULAR_DYNAMICS&#45;&gt;ENHANCED_SAMPLING</title>
<path fill="none" stroke="black" d="M195,-71.8314C195,-64.131 195,-54.9743 195,-46.4166"/>
<polygon fill="black" stroke="black" points="198.5,-46.4132 195,-36.4133 191.5,-46.4133 198.5,-46.4132"/>
</g>
<!-- NEWTONS_LAWS -->
<g id="node2" class="node"><title>NEWTONS_LAWS</title>
<a xlink:href="NEWTONS_LAWS.html" xlink:title="Newtons Laws of Motion" target="_top">
<polyline fill="none" stroke="black" points="176,-180 12,-180 "/>
<path fill="none" stroke="black" d="M12,-180C6,-180 7.10543e-14,-174 5.68434e-14,-168"/>
<polyline fill="none" stroke="black" points="5.68434e-14,-168 2.84217e-14,-156 "/>
<path fill="none" stroke="black" d="M2.84217e-14,-156C1.42109e-14,-150 6,-144 12,-144"/>
<polyline fill="none" stroke="black" points="12,-144 176,-144 "/>
<path fill="none" stroke="black" d="M176,-144C182,-144 188,-150 188,-156"/>
<polyline fill="none" stroke="black" points="188,-156 188,-168 "/>
<path fill="none" stroke="black" d="M188,-168C188,-174 182,-180 176,-180"/>
<text text-anchor="start" x="8" y="-159.233" font-family="Times Roman,serif" font-size="14.00">Newtons Laws of Motion</text>
</a>
</g>
<!-- NEWTONS_LAWS&#45;&gt;MOLECULAR_DYNAMICS -->
<g id="edge2" class="edge"><title>NEWTONS_LAWS&#45;&gt;MOLECULAR_DYNAMICS</title>
<path fill="none" stroke="black" d="M119.487,-143.831C132.166,-134.793 147.66,-123.748 161.306,-114.02"/>
<polygon fill="black" stroke="black" points="163.41,-116.818 169.522,-108.163 159.347,-111.118 163.41,-116.818"/>
</g>
<!-- MONTE_CARLO -->
<g id="node6" class="node"><title>MONTE_CARLO</title>
<a xlink:href="MONTE_CARLO.html" xlink:title="Monte Carlo Simulation" target="_top">
<polyline fill="none" stroke="black" points="374,-180 218,-180 "/>
<path fill="none" stroke="black" d="M218,-180C212,-180 206,-174 206,-168"/>
<polyline fill="none" stroke="black" points="206,-168 206,-156 "/>
<path fill="none" stroke="black" d="M206,-156C206,-150 212,-144 218,-144"/>
<polyline fill="none" stroke="black" points="218,-144 374,-144 "/>
<path fill="none" stroke="black" d="M374,-144C380,-144 386,-150 386,-156"/>
<polyline fill="none" stroke="black" points="386,-156 386,-168 "/>
<path fill="none" stroke="black" d="M386,-168C386,-174 380,-180 374,-180"/>
<text text-anchor="start" x="214.5" y="-159.233" font-family="Times Roman,serif" font-size="14.00">Monte Carlo Simulation</text>
</a>
</g>
<!-- MONTE_CARLO&#45;&gt;MOLECULAR_DYNAMICS -->
<g id="edge6" class="edge"><title>MONTE_CARLO&#45;&gt;MOLECULAR_DYNAMICS</title>
<path fill="none" stroke="black" d="M270.513,-143.831C257.834,-134.793 242.34,-123.748 228.694,-114.02"/>
<polygon fill="black" stroke="black" points="230.653,-111.118 220.478,-108.163 226.59,-116.818 230.653,-111.118"/>
</g>
</g>
</svg>
