<?xml version="1.0" encoding="UTF-8" standalone="no"?>
<!DOCTYPE svg PUBLIC "-//W3C//DTD SVG 1.1//EN"
 "http://www.w3.org/Graphics/SVG/1.1/DTD/svg11.dtd">
<!-- Generated by graphviz version 2.36.0 (20140111.2315)
 -->
<!-- Title: %3 Pages: 1 -->
<svg width="348pt" height="188pt"
 viewBox="0.00 0.00 348.00 188.00" xmlns="http://www.w3.org/2000/svg" xmlns:xlink="http://www.w3.org/1999/xlink">
<g id="graph0" class="graph" transform="scale(1 1) rotate(0) translate(4 184)">
<title>%3</title>
<!-- MOLECULAR_DYNAMICS -->
<g id="node1" class="node"><title>MOLECULAR_DYNAMICS</title>
<g id="a_node1"><a xlink:href="MOLECULAR_DYNAMICS.html" xlink:title=" Molecular dynamics simulation " target="_top">
<path fill="none" stroke="blue" stroke-width="2" d="M258,-108C258,-108 84,-108 84,-108 78,-108 72,-102 72,-96 72,-96 72,-84 72,-84 72,-78 78,-72 84,-72 84,-72 258,-72 258,-72 264,-72 270,-78 270,-84 270,-84 270,-96 270,-96 270,-102 264,-108 258,-108"/>
<text text-anchor="start" x="80" y="-86.3" font-family="Times,serif" font-size="14.00"> Molecular dynamics simulation </text>
</a>
</g>
</g>
<!-- ENHANCED_SAMPLING -->
<g id="node3" class="node"><title>ENHANCED_SAMPLING</title>
<g id="a_node3"><a xlink:href="ENHANCED_SAMPLING.html" xlink:title=" Enhanced sampling " target="_top">
<path fill="none" stroke="black" d="M224.25,-36C224.25,-36 117.75,-36 117.75,-36 111.75,-36 105.75,-30 105.75,-24 105.75,-24 105.75,-12 105.75,-12 105.75,-6 111.75,-0 117.75,-0 117.75,-0 224.25,-0 224.25,-0 230.25,-0 236.25,-6 236.25,-12 236.25,-12 236.25,-24 236.25,-24 236.25,-30 230.25,-36 224.25,-36"/>
<text text-anchor="start" x="113.5" y="-14.3" font-family="Times,serif" font-size="14.00"> Enhanced sampling </text>
</a>
</g>
</g>
<!-- MOLECULAR_DYNAMICS&#45;&gt;ENHANCED_SAMPLING -->
<g id="edge2" class="edge"><title>MOLECULAR_DYNAMICS&#45;&gt;ENHANCED_SAMPLING</title>
<path fill="none" stroke="black" d="M171,-71.6966C171,-63.9827 171,-54.7125 171,-46.1124"/>
<polygon fill="black" stroke="black" points="174.5,-46.1043 171,-36.1043 167.5,-46.1044 174.5,-46.1043"/>
</g>
<!-- NEWTONS_LAWS -->
<g id="node2" class="node"><title>NEWTONS_LAWS</title>
<g id="a_node2"><a xlink:href="NEWTONS_LAWS.html" xlink:title=" Newtons Laws of Motion " target="_top">
<path fill="none" stroke="black" d="M152,-180C152,-180 12,-180 12,-180 6,-180 0,-174 0,-168 0,-168 0,-156 0,-156 0,-150 6,-144 12,-144 12,-144 152,-144 152,-144 158,-144 164,-150 164,-156 164,-156 164,-168 164,-168 164,-174 158,-180 152,-180"/>
<text text-anchor="start" x="8" y="-158.3" font-family="Times,serif" font-size="14.00"> Newtons Laws of Motion </text>
</a>
</g>
</g>
<!-- NEWTONS_LAWS&#45;&gt;MOLECULAR_DYNAMICS -->
<g id="edge1" class="edge"><title>NEWTONS_LAWS&#45;&gt;MOLECULAR_DYNAMICS</title>
<path fill="none" stroke="black" d="M104,-143.697C115.209,-134.881 129.002,-124.032 141.154,-114.474"/>
<polygon fill="black" stroke="black" points="143.557,-117.038 149.253,-108.104 139.229,-111.535 143.557,-117.038"/>
</g>
<!-- MONTE_CARLO -->
<g id="node4" class="node"><title>MONTE_CARLO</title>
<g id="a_node4"><a xlink:href="MONTE_CARLO.html" xlink:title=" Monte Carlo Simulation " target="_top">
<path fill="none" stroke="black" d="M327.5,-180C327.5,-180 194.5,-180 194.5,-180 188.5,-180 182.5,-174 182.5,-168 182.5,-168 182.5,-156 182.5,-156 182.5,-150 188.5,-144 194.5,-144 194.5,-144 327.5,-144 327.5,-144 333.5,-144 339.5,-150 339.5,-156 339.5,-156 339.5,-168 339.5,-168 339.5,-174 333.5,-180 327.5,-180"/>
<text text-anchor="start" x="190" y="-158.3" font-family="Times,serif" font-size="14.00"> Monte Carlo Simulation </text>
</a>
</g>
</g>
<!-- MONTE_CARLO&#45;&gt;MOLECULAR_DYNAMICS -->
<g id="edge3" class="edge"><title>MONTE_CARLO&#45;&gt;MOLECULAR_DYNAMICS</title>
<path fill="none" stroke="black" d="M238.753,-143.697C227.418,-134.881 213.47,-124.032 201.181,-114.474"/>
<polygon fill="black" stroke="black" points="203.034,-111.481 192.991,-108.104 198.736,-117.007 203.034,-111.481"/>
</g>
</g>
</svg>
