<?xml version="1.0" encoding="UTF-8" standalone="no"?>
<!DOCTYPE svg PUBLIC "-//W3C//DTD SVG 1.1//EN"
 "http://www.w3.org/Graphics/SVG/1.1/DTD/svg11.dtd">
<!-- Generated by graphviz version 2.26.3 (20100126.1600)
 -->
<!-- Title: _anonymous_0 Pages: 1 -->
<svg width="412pt" height="188pt"
 viewBox="0.00 0.00 412.00 188.00" xmlns="http://www.w3.org/2000/svg" xmlns:xlink="http://www.w3.org/1999/xlink">
<g id="graph1" class="graph" transform="scale(1 1) rotate(0) translate(4 184)">
<title>_anonymous_0</title>
<!-- MOLECULAR_DYNAMICS -->
<g id="node1" class="node"><title>MOLECULAR_DYNAMICS</title>
<a xlink:href="MOLECULAR_DYNAMICS.html" xlink:title=" Molecular dynamics simulation " target="_top">
<polyline fill="none" stroke="blue" stroke-width="2" points="310,-108 98,-108 "/>
<path fill="none" stroke="blue" stroke-width="2" d="M98,-108C92,-108 86,-102 86,-96"/>
<polyline fill="none" stroke="blue" stroke-width="2" points="86,-96 86,-84 "/>
<path fill="none" stroke="blue" stroke-width="2" d="M86,-84C86,-78 92,-72 98,-72"/>
<polyline fill="none" stroke="blue" stroke-width="2" points="98,-72 310,-72 "/>
<path fill="none" stroke="blue" stroke-width="2" d="M310,-72C316,-72 322,-78 322,-84"/>
<polyline fill="none" stroke="blue" stroke-width="2" points="322,-84 322,-96 "/>
<path fill="none" stroke="blue" stroke-width="2" d="M322,-96C322,-102 316,-108 310,-108"/>
<text text-anchor="start" x="94" y="-87.2333" font-family="Times Roman,serif" font-size="14.00"> Molecular dynamics simulation </text>
</a>
</g>
<!-- ENHANCED_SAMPLING -->
<g id="node4" class="node"><title>ENHANCED_SAMPLING</title>
<a xlink:href="ENHANCED_SAMPLING.html" xlink:title=" Enhanced sampling " target="_top">
<polyline fill="none" stroke="black" points="271,-36 137,-36 "/>
<path fill="none" stroke="black" d="M137,-36C131,-36 125,-30 125,-24"/>
<polyline fill="none" stroke="black" points="125,-24 125,-12 "/>
<path fill="none" stroke="black" d="M125,-12C125,-6 131,-1.72239e-14 137,-1.66843e-14"/>
<polyline fill="none" stroke="black" points="137,-1.66843e-14 271,-4.63202e-15 "/>
<path fill="none" stroke="black" d="M271,-4.63202e-15C277,-4.09237e-15 283,-6 283,-12"/>
<polyline fill="none" stroke="black" points="283,-12 283,-24 "/>
<path fill="none" stroke="black" d="M283,-24C283,-30 277,-36 271,-36"/>
<text text-anchor="start" x="133" y="-15.2333" font-family="Times Roman,serif" font-size="14.00"> Enhanced sampling </text>
</a>
</g>
<!-- MOLECULAR_DYNAMICS&#45;&gt;ENHANCED_SAMPLING -->
<g id="edge4" class="edge"><title>MOLECULAR_DYNAMICS&#45;&gt;ENHANCED_SAMPLING</title>
<path fill="none" stroke="black" d="M204,-71.8314C204,-64.131 204,-54.9743 204,-46.4166"/>
<polygon fill="black" stroke="black" points="207.5,-46.4132 204,-36.4133 200.5,-46.4133 207.5,-46.4132"/>
</g>
<!-- NEWTONS_LAWS -->
<g id="node2" class="node"><title>NEWTONS_LAWS</title>
<a xlink:href="NEWTONS_LAWS.html" xlink:title=" Newtons Laws of Motion " target="_top">
<polyline fill="none" stroke="black" points="186,-180 12,-180 "/>
<path fill="none" stroke="black" d="M12,-180C6,-180 5.92119e-14,-174 4.73695e-14,-168"/>
<polyline fill="none" stroke="black" points="4.73695e-14,-168 2.36848e-14,-156 "/>
<path fill="none" stroke="black" d="M2.36848e-14,-156C1.18424e-14,-150 6,-144 12,-144"/>
<polyline fill="none" stroke="black" points="12,-144 186,-144 "/>
<path fill="none" stroke="black" d="M186,-144C192,-144 198,-150 198,-156"/>
<polyline fill="none" stroke="black" points="198,-156 198,-168 "/>
<path fill="none" stroke="black" d="M198,-168C198,-174 192,-180 186,-180"/>
<text text-anchor="start" x="8.5" y="-159.233" font-family="Times Roman,serif" font-size="14.00"> Newtons Laws of Motion </text>
</a>
</g>
<!-- NEWTONS_LAWS&#45;&gt;MOLECULAR_DYNAMICS -->
<g id="edge2" class="edge"><title>NEWTONS_LAWS&#45;&gt;MOLECULAR_DYNAMICS</title>
<path fill="none" stroke="black" d="M125.496,-143.831C138.677,-134.793 154.785,-123.748 168.971,-114.02"/>
<polygon fill="black" stroke="black" points="171.245,-116.705 177.513,-108.163 167.286,-110.932 171.245,-116.705"/>
</g>
<!-- MONTE_CARLO -->
<g id="node6" class="node"><title>MONTE_CARLO</title>
<a xlink:href="MONTE_CARLO.html" xlink:title=" Monte Carlo Simulation " target="_top">
<polyline fill="none" stroke="black" points="392,-180 228,-180 "/>
<path fill="none" stroke="black" d="M228,-180C222,-180 216,-174 216,-168"/>
<polyline fill="none" stroke="black" points="216,-168 216,-156 "/>
<path fill="none" stroke="black" d="M216,-156C216,-150 222,-144 228,-144"/>
<polyline fill="none" stroke="black" points="228,-144 392,-144 "/>
<path fill="none" stroke="black" d="M392,-144C398,-144 404,-150 404,-156"/>
<polyline fill="none" stroke="black" points="404,-156 404,-168 "/>
<path fill="none" stroke="black" d="M404,-168C404,-174 398,-180 392,-180"/>
<text text-anchor="start" x="224" y="-159.233" font-family="Times Roman,serif" font-size="14.00"> Monte Carlo Simulation </text>
</a>
</g>
<!-- MONTE_CARLO&#45;&gt;MOLECULAR_DYNAMICS -->
<g id="edge6" class="edge"><title>MONTE_CARLO&#45;&gt;MOLECULAR_DYNAMICS</title>
<path fill="none" stroke="black" d="M283.252,-143.831C269.945,-134.793 253.684,-123.748 239.363,-114.02"/>
<polygon fill="black" stroke="black" points="240.979,-110.886 230.74,-108.163 237.045,-116.677 240.979,-110.886"/>
</g>
</g>
</svg>
