<?xml version="1.0" encoding="UTF-8" standalone="no"?>
<!DOCTYPE svg PUBLIC "-//W3C//DTD SVG 1.1//EN"
 "http://www.w3.org/Graphics/SVG/1.1/DTD/svg11.dtd">
<!-- Generated by graphviz version 2.26.3 (20100126.1600)
 -->
<!-- Title: _anonymous_0 Pages: 1 -->
<svg width="394pt" height="116pt"
 viewBox="0.00 0.00 394.00 116.00" xmlns="http://www.w3.org/2000/svg" xmlns:xlink="http://www.w3.org/1999/xlink">
<g id="graph1" class="graph" transform="scale(1 1) rotate(0) translate(4 112)">
<title>_anonymous_0</title>
<!-- MOLECULAR_DYNAMICS -->
<g id="node1" class="node"><title>MOLECULAR_DYNAMICS</title>
<a xlink:href="MOLECULAR_DYNAMICS.html" xlink:title="Molecular dynamics simulation" target="_top">
<polyline fill="none" stroke="blue" stroke-width="2" points="293,-36 89,-36 "/>
<path fill="none" stroke="blue" stroke-width="2" d="M89,-36C83,-36 77,-30 77,-24"/>
<polyline fill="none" stroke="blue" stroke-width="2" points="77,-24 77,-12 "/>
<path fill="none" stroke="blue" stroke-width="2" d="M77,-12C77,-6 83,-1.73896e-14 89,-1.70156e-14"/>
<polyline fill="none" stroke="blue" stroke-width="2" points="89,-1.70156e-14 293,-4.30065e-15 "/>
<path fill="none" stroke="blue" stroke-width="2" d="M293,-4.30065e-15C299,-3.92668e-15 305,-6 305,-12"/>
<polyline fill="none" stroke="blue" stroke-width="2" points="305,-12 305,-24 "/>
<path fill="none" stroke="blue" stroke-width="2" d="M305,-24C305,-30 299,-36 293,-36"/>
<text text-anchor="start" x="85.5" y="-15.2333" font-family="Times Roman,serif" font-size="14.00">Molecular dynamics simulation</text>
</a>
</g>
<!-- MONTE_CARLO -->
<g id="node2" class="node"><title>MONTE_CARLO</title>
<a xlink:href="MONTE_CARLO.html" xlink:title="Monte Carlo Simulation" target="_top">
<polyline fill="none" stroke="black" points="168,-108 12,-108 "/>
<path fill="none" stroke="black" d="M12,-108C6,-108 7.10543e-14,-102 5.68434e-14,-96"/>
<polyline fill="none" stroke="black" points="5.68434e-14,-96 2.84217e-14,-84 "/>
<path fill="none" stroke="black" d="M2.84217e-14,-84C1.42109e-14,-78 6,-72 12,-72"/>
<polyline fill="none" stroke="black" points="12,-72 168,-72 "/>
<path fill="none" stroke="black" d="M168,-72C174,-72 180,-78 180,-84"/>
<polyline fill="none" stroke="black" points="180,-84 180,-96 "/>
<path fill="none" stroke="black" d="M180,-96C180,-102 174,-108 168,-108"/>
<text text-anchor="start" x="8.5" y="-87.2333" font-family="Times Roman,serif" font-size="14.00">Monte Carlo Simulation</text>
</a>
</g>
<!-- MONTE_CARLO&#45;&gt;MOLECULAR_DYNAMICS -->
<g id="edge2" class="edge"><title>MONTE_CARLO&#45;&gt;MOLECULAR_DYNAMICS</title>
<path fill="none" stroke="black" d="M115.487,-71.8314C128.166,-62.7927 143.66,-51.7476 157.306,-42.0198"/>
<polygon fill="black" stroke="black" points="159.41,-44.8176 165.522,-36.1628 155.347,-39.1176 159.41,-44.8176"/>
</g>
<!-- NEWTONS_LAWS -->
<g id="node4" class="node"><title>NEWTONS_LAWS</title>
<a xlink:href="NEWTONS_LAWS.html" xlink:title="Newtons Laws of Motion" target="_top">
<polyline fill="none" stroke="black" points="374,-108 210,-108 "/>
<path fill="none" stroke="black" d="M210,-108C204,-108 198,-102 198,-96"/>
<polyline fill="none" stroke="black" points="198,-96 198,-84 "/>
<path fill="none" stroke="black" d="M198,-84C198,-78 204,-72 210,-72"/>
<polyline fill="none" stroke="black" points="210,-72 374,-72 "/>
<path fill="none" stroke="black" d="M374,-72C380,-72 386,-78 386,-84"/>
<polyline fill="none" stroke="black" points="386,-84 386,-96 "/>
<path fill="none" stroke="black" d="M386,-96C386,-102 380,-108 374,-108"/>
<text text-anchor="start" x="206" y="-87.2333" font-family="Times Roman,serif" font-size="14.00">Newtons Laws of Motion</text>
</a>
</g>
<!-- NEWTONS_LAWS&#45;&gt;MOLECULAR_DYNAMICS -->
<g id="edge4" class="edge"><title>NEWTONS_LAWS&#45;&gt;MOLECULAR_DYNAMICS</title>
<path fill="none" stroke="black" d="M266.513,-71.8314C253.834,-62.7927 238.34,-51.7476 224.694,-42.0198"/>
<polygon fill="black" stroke="black" points="226.653,-39.1176 216.478,-36.1628 222.59,-44.8176 226.653,-39.1176"/>
</g>
</g>
</svg>
