<?xml version="1.0" encoding="UTF-8" standalone="no"?>
<!DOCTYPE svg PUBLIC "-//W3C//DTD SVG 1.1//EN"
 "http://www.w3.org/Graphics/SVG/1.1/DTD/svg11.dtd">
<!-- Generated by graphviz version 2.36.0 (20140111.2315)
 -->
<!-- Title: %3 Pages: 1 -->
<svg width="417pt" height="260pt"
 viewBox="0.00 0.00 417.00 260.00" xmlns="http://www.w3.org/2000/svg" xmlns:xlink="http://www.w3.org/1999/xlink">
<g id="graph0" class="graph" transform="scale(1 1) rotate(0) translate(4 256)">
<title>%3</title>
<!-- MOMENT_GENERATING_FUNCTION -->
<g id="node1" class="node"><title>MOMENT_GENERATING_FUNCTION</title>
<g id="a_node1"><a xlink:href="MOMENT_GENERATING_FUNCTION.html" xlink:title=" The moment generating function " target="_top">
<path fill="none" stroke="blue" stroke-width="2" d="M374.5,-180C374.5,-180 195.5,-180 195.5,-180 189.5,-180 183.5,-174 183.5,-168 183.5,-168 183.5,-156 183.5,-156 183.5,-150 189.5,-144 195.5,-144 195.5,-144 374.5,-144 374.5,-144 380.5,-144 386.5,-150 386.5,-156 386.5,-156 386.5,-168 386.5,-168 386.5,-174 380.5,-180 374.5,-180"/>
<text text-anchor="start" x="191" y="-158.3" font-family="Times,serif" font-size="14.00"> The moment generating function </text>
</a>
</g>
</g>
<!-- POISSON_RANDOM_VARIABLE -->
<g id="node3" class="node"><title>POISSON_RANDOM_VARIABLE</title>
<g id="a_node3"><a xlink:href="POISSON_RANDOM_VARIABLE.html" xlink:title=" The poisson random variable " target="_top">
<path fill="none" stroke="black" d="M170.25,-108C170.25,-108 11.75,-108 11.75,-108 5.75,-108 -0.25,-102 -0.25,-96 -0.25,-96 -0.25,-84 -0.25,-84 -0.25,-78 5.75,-72 11.75,-72 11.75,-72 170.25,-72 170.25,-72 176.25,-72 182.25,-78 182.25,-84 182.25,-84 182.25,-96 182.25,-96 182.25,-102 176.25,-108 170.25,-108"/>
<text text-anchor="start" x="7.5" y="-86.3" font-family="Times,serif" font-size="14.00"> The poisson random variable </text>
</a>
</g>
</g>
<!-- MOMENT_GENERATING_FUNCTION&#45;&gt;POISSON_RANDOM_VARIABLE -->
<g id="edge2" class="edge"><title>MOMENT_GENERATING_FUNCTION&#45;&gt;POISSON_RANDOM_VARIABLE</title>
<path fill="none" stroke="black" d="M237.542,-143.876C210.432,-134.094 176.264,-121.765 147.742,-111.474"/>
<polygon fill="black" stroke="black" points="148.898,-108.17 138.304,-108.068 146.522,-114.755 148.898,-108.17"/>
</g>
<!-- BERNOULI_RANDOM_VARIABLE -->
<g id="node4" class="node"><title>BERNOULI_RANDOM_VARIABLE</title>
<g id="a_node4"><a xlink:href="BERNOULI_RANDOM_VARIABLE.html" xlink:title=" Bernoulli random variable " target="_top">
<path fill="none" stroke="black" d="M356.5,-108C356.5,-108 213.5,-108 213.5,-108 207.5,-108 201.5,-102 201.5,-96 201.5,-96 201.5,-84 201.5,-84 201.5,-78 207.5,-72 213.5,-72 213.5,-72 356.5,-72 356.5,-72 362.5,-72 368.5,-78 368.5,-84 368.5,-84 368.5,-96 368.5,-96 368.5,-102 362.5,-108 356.5,-108"/>
<text text-anchor="start" x="209" y="-86.3" font-family="Times,serif" font-size="14.00"> Bernoulli random variable </text>
</a>
</g>
</g>
<!-- MOMENT_GENERATING_FUNCTION&#45;&gt;BERNOULI_RANDOM_VARIABLE -->
<g id="edge3" class="edge"><title>MOMENT_GENERATING_FUNCTION&#45;&gt;BERNOULI_RANDOM_VARIABLE</title>
<path fill="none" stroke="black" d="M285,-143.697C285,-135.983 285,-126.712 285,-118.112"/>
<polygon fill="black" stroke="black" points="288.5,-118.104 285,-108.104 281.5,-118.104 288.5,-118.104"/>
</g>
<!-- BINOMIAL_RANDOM_VARIABLE -->
<g id="node5" class="node"><title>BINOMIAL_RANDOM_VARIABLE</title>
<g id="a_node5"><a xlink:href="BINOMIAL_RANDOM_VARIABLE.html" xlink:title=" Binomial random variable " target="_top">
<path fill="none" stroke="black" d="M315.5,-36C315.5,-36 172.5,-36 172.5,-36 166.5,-36 160.5,-30 160.5,-24 160.5,-24 160.5,-12 160.5,-12 160.5,-6 166.5,-0 172.5,-0 172.5,-0 315.5,-0 315.5,-0 321.5,-0 327.5,-6 327.5,-12 327.5,-12 327.5,-24 327.5,-24 327.5,-30 321.5,-36 315.5,-36"/>
<text text-anchor="start" x="168" y="-14.3" font-family="Times,serif" font-size="14.00"> Binomial random variable </text>
</a>
</g>
</g>
<!-- MOMENT_GENERATING_FUNCTION&#45;&gt;BINOMIAL_RANDOM_VARIABLE -->
<g id="edge4" class="edge"><title>MOMENT_GENERATING_FUNCTION&#45;&gt;BINOMIAL_RANDOM_VARIABLE</title>
<path fill="none" stroke="black" d="M335.093,-143.967C351.398,-135.768 367.684,-124.119 377,-108 385.007,-94.1474 385.979,-85.2433 377,-72 367.206,-57.5536 352.778,-47.0447 336.995,-39.4002"/>
<polygon fill="black" stroke="black" points="338.132,-36.0754 327.571,-35.2221 335.295,-42.4747 338.132,-36.0754"/>
</g>
<!-- EXPECTATION -->
<g id="node2" class="node"><title>EXPECTATION</title>
<g id="a_node2"><a xlink:href="EXPECTATION.html" xlink:title=" Expectation &#160;" target="_top">
<path fill="none" stroke="black" d="M256,-252C256,-252 188,-252 188,-252 182,-252 176,-246 176,-240 176,-240 176,-228 176,-228 176,-222 182,-216 188,-216 188,-216 256,-216 256,-216 262,-216 268,-222 268,-228 268,-228 268,-240 268,-240 268,-246 262,-252 256,-252"/>
<text text-anchor="start" x="184" y="-230.3" font-family="Times,serif" font-size="14.00"> Expectation &#160;</text>
</a>
</g>
</g>
<!-- EXPECTATION&#45;&gt;MOMENT_GENERATING_FUNCTION -->
<g id="edge1" class="edge"><title>EXPECTATION&#45;&gt;MOMENT_GENERATING_FUNCTION</title>
<path fill="none" stroke="black" d="M237.573,-215.697C245.202,-207.22 254.523,-196.864 262.876,-187.583"/>
<polygon fill="black" stroke="black" points="265.518,-189.879 269.606,-180.104 260.315,-185.196 265.518,-189.879"/>
</g>
<!-- POISSON_RANDOM_VARIABLE&#45;&gt;BINOMIAL_RANDOM_VARIABLE -->
<!-- RANDOM_VARIABLES -->
<g id="node6" class="node"><title>RANDOM_VARIABLES</title>
<g id="a_node6"><a xlink:href="RANDOM_VARIABLES.html" xlink:title=" Random variables " target="_top">
<path fill="none" stroke="black" d="M397.25,-252C397.25,-252 298.75,-252 298.75,-252 292.75,-252 286.75,-246 286.75,-240 286.75,-240 286.75,-228 286.75,-228 286.75,-222 292.75,-216 298.75,-216 298.75,-216 397.25,-216 397.25,-216 403.25,-216 409.25,-222 409.25,-228 409.25,-228 409.25,-240 409.25,-240 409.25,-246 403.25,-252 397.25,-252"/>
<text text-anchor="start" x="294.5" y="-230.3" font-family="Times,serif" font-size="14.00"> Random variables </text>
</a>
</g>
</g>
<!-- RANDOM_VARIABLES&#45;&gt;MOMENT_GENERATING_FUNCTION -->
<g id="edge6" class="edge"><title>RANDOM_VARIABLES&#45;&gt;MOMENT_GENERATING_FUNCTION</title>
<path fill="none" stroke="black" d="M332.427,-215.697C324.798,-207.22 315.477,-196.864 307.124,-187.583"/>
<polygon fill="black" stroke="black" points="309.685,-185.196 300.394,-180.104 304.482,-189.879 309.685,-185.196"/>
</g>
</g>
</svg>
