<?xml version="1.0" encoding="UTF-8" standalone="no"?>
<!DOCTYPE svg PUBLIC "-//W3C//DTD SVG 1.1//EN"
 "http://www.w3.org/Graphics/SVG/1.1/DTD/svg11.dtd">
<!-- Generated by graphviz version 2.26.3 (20100126.1600)
 -->
<!-- Title: _anonymous_0 Pages: 1 -->
<svg width="461pt" height="260pt"
 viewBox="0.00 0.00 461.00 260.00" xmlns="http://www.w3.org/2000/svg" xmlns:xlink="http://www.w3.org/1999/xlink">
<g id="graph1" class="graph" transform="scale(1 1) rotate(0) translate(4 256)">
<title>_anonymous_0</title>
<!-- MOMENT_GENERATING_FUNCTION -->
<g id="node1" class="node"><title>MOMENT_GENERATING_FUNCTION</title>
<a xlink:href="MOMENT_GENERATING_FUNCTION.html" xlink:title="The moment generating function" target="_top">
<polyline fill="none" stroke="blue" stroke-width="2" points="441,-180 219,-180 "/>
<path fill="none" stroke="blue" stroke-width="2" d="M219,-180C213,-180 207,-174 207,-168"/>
<polyline fill="none" stroke="blue" stroke-width="2" points="207,-168 207,-156 "/>
<path fill="none" stroke="blue" stroke-width="2" d="M207,-156C207,-150 213,-144 219,-144"/>
<polyline fill="none" stroke="blue" stroke-width="2" points="219,-144 441,-144 "/>
<path fill="none" stroke="blue" stroke-width="2" d="M441,-144C447,-144 453,-150 453,-156"/>
<polyline fill="none" stroke="blue" stroke-width="2" points="453,-156 453,-168 "/>
<path fill="none" stroke="blue" stroke-width="2" d="M453,-168C453,-174 447,-180 441,-180"/>
<text text-anchor="start" x="215.5" y="-159.233" font-family="Times Roman,serif" font-size="14.00">The moment generating function</text>
</a>
</g>
<!-- POISSON_RANDOM_VARIABLE -->
<g id="node4" class="node"><title>POISSON_RANDOM_VARIABLE</title>
<a xlink:href="POISSON_RANDOM_VARIABLE.html" xlink:title="The poisson random variable" target="_top">
<polyline fill="none" stroke="black" points="204,-108 12,-108 "/>
<path fill="none" stroke="black" d="M12,-108C6,-108 7.10543e-14,-102 5.68434e-14,-96"/>
<polyline fill="none" stroke="black" points="5.68434e-14,-96 2.84217e-14,-84 "/>
<path fill="none" stroke="black" d="M2.84217e-14,-84C1.42109e-14,-78 6,-72 12,-72"/>
<polyline fill="none" stroke="black" points="12,-72 204,-72 "/>
<path fill="none" stroke="black" d="M204,-72C210,-72 216,-78 216,-84"/>
<polyline fill="none" stroke="black" points="216,-84 216,-96 "/>
<path fill="none" stroke="black" d="M216,-96C216,-102 210,-108 204,-108"/>
<text text-anchor="start" x="8.5" y="-87.2333" font-family="Times Roman,serif" font-size="14.00">The poisson random variable</text>
</a>
</g>
<!-- MOMENT_GENERATING_FUNCTION&#45;&gt;POISSON_RANDOM_VARIABLE -->
<g id="edge4" class="edge"><title>MOMENT_GENERATING_FUNCTION&#45;&gt;POISSON_RANDOM_VARIABLE</title>
<path fill="none" stroke="black" d="M274.267,-143.924C243.654,-133.996 205.512,-121.625 173.484,-111.238"/>
<polygon fill="black" stroke="black" points="174.348,-107.839 163.756,-108.083 172.189,-114.498 174.348,-107.839"/>
</g>
<!-- BINOMIAL_RANDOM_VARIABLE -->
<g id="node8" class="node"><title>BINOMIAL_RANDOM_VARIABLE</title>
<a xlink:href="BINOMIAL_RANDOM_VARIABLE.html" xlink:title="Binomial random variable" target="_top">
<polyline fill="none" stroke="black" points="414,-108 246,-108 "/>
<path fill="none" stroke="black" d="M246,-108C240,-108 234,-102 234,-96"/>
<polyline fill="none" stroke="black" points="234,-96 234,-84 "/>
<path fill="none" stroke="black" d="M234,-84C234,-78 240,-72 246,-72"/>
<polyline fill="none" stroke="black" points="246,-72 414,-72 "/>
<path fill="none" stroke="black" d="M414,-72C420,-72 426,-78 426,-84"/>
<polyline fill="none" stroke="black" points="426,-84 426,-96 "/>
<path fill="none" stroke="black" d="M426,-96C426,-102 420,-108 414,-108"/>
<text text-anchor="start" x="242" y="-87.2333" font-family="Times Roman,serif" font-size="14.00">Binomial random variable</text>
</a>
</g>
<!-- MOMENT_GENERATING_FUNCTION&#45;&gt;BINOMIAL_RANDOM_VARIABLE -->
<g id="edge8" class="edge"><title>MOMENT_GENERATING_FUNCTION&#45;&gt;BINOMIAL_RANDOM_VARIABLE</title>
<path fill="none" stroke="black" d="M330,-143.831C330,-136.131 330,-126.974 330,-118.417"/>
<polygon fill="black" stroke="black" points="333.5,-118.413 330,-108.413 326.5,-118.413 333.5,-118.413"/>
</g>
<!-- BERNOULI_RANDOM_VARIABLE -->
<g id="node10" class="node"><title>BERNOULI_RANDOM_VARIABLE</title>
<a xlink:href="BERNOULI_RANDOM_VARIABLE.html" xlink:title="Bernoulli random variable" target="_top">
<polyline fill="none" stroke="black" points="366,-36 196,-36 "/>
<path fill="none" stroke="black" d="M196,-36C190,-36 184,-30 184,-24"/>
<polyline fill="none" stroke="black" points="184,-24 184,-12 "/>
<path fill="none" stroke="black" d="M184,-12C184,-6 190,-1.73241e-14 196,-1.68845e-14"/>
<polyline fill="none" stroke="black" points="196,-1.68845e-14 366,-4.43174e-15 "/>
<path fill="none" stroke="black" d="M366,-4.43174e-15C372,-3.99222e-15 378,-6 378,-12"/>
<polyline fill="none" stroke="black" points="378,-12 378,-24 "/>
<path fill="none" stroke="black" d="M378,-24C378,-30 372,-36 366,-36"/>
<text text-anchor="start" x="192" y="-15.2333" font-family="Times Roman,serif" font-size="14.00">Bernoulli random variable</text>
</a>
</g>
<!-- MOMENT_GENERATING_FUNCTION&#45;&gt;BERNOULI_RANDOM_VARIABLE -->
<g id="edge10" class="edge"><title>MOMENT_GENERATING_FUNCTION&#45;&gt;BERNOULI_RANDOM_VARIABLE</title>
<path fill="none" stroke="black" d="M391.419,-143.994C408.497,-135.85 425.07,-124.273 435,-108 443.334,-94.342 444.254,-85.052 435,-72 426.202,-59.5913 397.69,-48.0916 367.55,-38.9215"/>
<polygon fill="black" stroke="black" points="368.312,-35.4972 357.73,-36.0279 366.333,-42.2118 368.312,-35.4972"/>
</g>
<!-- RANDOM_VARIABLES -->
<g id="node2" class="node"><title>RANDOM_VARIABLES</title>
<a xlink:href="RANDOM_VARIABLES.html" xlink:title="Random variables" target="_top">
<polyline fill="none" stroke="black" points="318,-252 202,-252 "/>
<path fill="none" stroke="black" d="M202,-252C196,-252 190,-246 190,-240"/>
<polyline fill="none" stroke="black" points="190,-240 190,-228 "/>
<path fill="none" stroke="black" d="M190,-228C190,-222 196,-216 202,-216"/>
<polyline fill="none" stroke="black" points="202,-216 318,-216 "/>
<path fill="none" stroke="black" d="M318,-216C324,-216 330,-222 330,-228"/>
<polyline fill="none" stroke="black" points="330,-228 330,-240 "/>
<path fill="none" stroke="black" d="M330,-240C330,-246 324,-252 318,-252"/>
<text text-anchor="start" x="198.5" y="-231.233" font-family="Times Roman,serif" font-size="14.00">Random variables</text>
</a>
</g>
<!-- RANDOM_VARIABLES&#45;&gt;MOMENT_GENERATING_FUNCTION -->
<g id="edge2" class="edge"><title>RANDOM_VARIABLES&#45;&gt;MOMENT_GENERATING_FUNCTION</title>
<path fill="none" stroke="black" d="M277.664,-215.831C285.973,-207.285 296.026,-196.944 305.092,-187.62"/>
<polygon fill="black" stroke="black" points="307.637,-190.023 312.098,-180.413 302.618,-185.143 307.637,-190.023"/>
</g>
<!-- POISSON_RANDOM_VARIABLE&#45;&gt;BERNOULI_RANDOM_VARIABLE -->
<!-- EXPECTATION -->
<g id="node6" class="node"><title>EXPECTATION</title>
<a xlink:href="EXPECTATION.html" xlink:title="Expectation " target="_top">
<polyline fill="none" stroke="black" points="440,-252 360,-252 "/>
<path fill="none" stroke="black" d="M360,-252C354,-252 348,-246 348,-240"/>
<polyline fill="none" stroke="black" points="348,-240 348,-228 "/>
<path fill="none" stroke="black" d="M348,-228C348,-222 354,-216 360,-216"/>
<polyline fill="none" stroke="black" points="360,-216 440,-216 "/>
<path fill="none" stroke="black" d="M440,-216C446,-216 452,-222 452,-228"/>
<polyline fill="none" stroke="black" points="452,-228 452,-240 "/>
<path fill="none" stroke="black" d="M452,-240C452,-246 446,-252 440,-252"/>
<text text-anchor="start" x="356.5" y="-231.233" font-family="Times Roman,serif" font-size="14.00">Expectation </text>
</a>
</g>
<!-- EXPECTATION&#45;&gt;MOMENT_GENERATING_FUNCTION -->
<g id="edge6" class="edge"><title>EXPECTATION&#45;&gt;MOMENT_GENERATING_FUNCTION</title>
<path fill="none" stroke="black" d="M382.336,-215.831C374.027,-207.285 363.974,-196.944 354.908,-187.62"/>
<polygon fill="black" stroke="black" points="357.382,-185.143 347.902,-180.413 352.363,-190.023 357.382,-185.143"/>
</g>
</g>
</svg>
