<?xml version="1.0" encoding="UTF-8" standalone="no"?>
<!DOCTYPE svg PUBLIC "-//W3C//DTD SVG 1.1//EN"
 "http://www.w3.org/Graphics/SVG/1.1/DTD/svg11.dtd">
<!-- Generated by graphviz version 2.26.3 (20100126.1600)
 -->
<!-- Title: _anonymous_0 Pages: 1 -->
<svg width="439pt" height="260pt"
 viewBox="0.00 0.00 439.00 260.00" xmlns="http://www.w3.org/2000/svg" xmlns:xlink="http://www.w3.org/1999/xlink">
<g id="graph1" class="graph" transform="scale(1 1) rotate(0) translate(4 256)">
<title>_anonymous_0</title>
<!-- MOMENT_GENERATING_FUNCTION -->
<g id="node1" class="node"><title>MOMENT_GENERATING_FUNCTION</title>
<a xlink:href="MOMENT_GENERATING_FUNCTION.html" xlink:title="The moment generating function" target="_top">
<polyline fill="none" stroke="blue" stroke-width="2" points="419,-180 197,-180 "/>
<path fill="none" stroke="blue" stroke-width="2" d="M197,-180C191,-180 185,-174 185,-168"/>
<polyline fill="none" stroke="blue" stroke-width="2" points="185,-168 185,-156 "/>
<path fill="none" stroke="blue" stroke-width="2" d="M185,-156C185,-150 191,-144 197,-144"/>
<polyline fill="none" stroke="blue" stroke-width="2" points="197,-144 419,-144 "/>
<path fill="none" stroke="blue" stroke-width="2" d="M419,-144C425,-144 431,-150 431,-156"/>
<polyline fill="none" stroke="blue" stroke-width="2" points="431,-156 431,-168 "/>
<path fill="none" stroke="blue" stroke-width="2" d="M431,-168C431,-174 425,-180 419,-180"/>
<text text-anchor="start" x="193.5" y="-159.233" font-family="Times Roman,serif" font-size="14.00">The moment generating function</text>
</a>
</g>
<!-- BERNOULI_RANDOM_VARIABLE -->
<g id="node4" class="node"><title>BERNOULI_RANDOM_VARIABLE</title>
<a xlink:href="BERNOULI_RANDOM_VARIABLE.html" xlink:title="Bernoulli random variable" target="_top">
<polyline fill="none" stroke="black" points="182,-108 12,-108 "/>
<path fill="none" stroke="black" d="M12,-108C6,-108 7.10543e-14,-102 5.68434e-14,-96"/>
<polyline fill="none" stroke="black" points="5.68434e-14,-96 2.84217e-14,-84 "/>
<path fill="none" stroke="black" d="M2.84217e-14,-84C1.42109e-14,-78 6,-72 12,-72"/>
<polyline fill="none" stroke="black" points="12,-72 182,-72 "/>
<path fill="none" stroke="black" d="M182,-72C188,-72 194,-78 194,-84"/>
<polyline fill="none" stroke="black" points="194,-84 194,-96 "/>
<path fill="none" stroke="black" d="M194,-96C194,-102 188,-108 182,-108"/>
<text text-anchor="start" x="8" y="-87.2333" font-family="Times Roman,serif" font-size="14.00">Bernoulli random variable</text>
</a>
</g>
<!-- MOMENT_GENERATING_FUNCTION&#45;&gt;BERNOULI_RANDOM_VARIABLE -->
<g id="edge4" class="edge"><title>MOMENT_GENERATING_FUNCTION&#45;&gt;BERNOULI_RANDOM_VARIABLE</title>
<path fill="none" stroke="black" d="M255.028,-143.924C226.058,-134.039 189.993,-121.732 159.634,-111.373"/>
<polygon fill="black" stroke="black" points="160.588,-108 149.994,-108.083 158.327,-114.625 160.588,-108"/>
</g>
<!-- BINOMIAL_RANDOM_VARIABLE -->
<g id="node8" class="node"><title>BINOMIAL_RANDOM_VARIABLE</title>
<a xlink:href="BINOMIAL_RANDOM_VARIABLE.html" xlink:title="Binomial random variable" target="_top">
<polyline fill="none" stroke="black" points="392,-108 224,-108 "/>
<path fill="none" stroke="black" d="M224,-108C218,-108 212,-102 212,-96"/>
<polyline fill="none" stroke="black" points="212,-96 212,-84 "/>
<path fill="none" stroke="black" d="M212,-84C212,-78 218,-72 224,-72"/>
<polyline fill="none" stroke="black" points="224,-72 392,-72 "/>
<path fill="none" stroke="black" d="M392,-72C398,-72 404,-78 404,-84"/>
<polyline fill="none" stroke="black" points="404,-84 404,-96 "/>
<path fill="none" stroke="black" d="M404,-96C404,-102 398,-108 392,-108"/>
<text text-anchor="start" x="220" y="-87.2333" font-family="Times Roman,serif" font-size="14.00">Binomial random variable</text>
</a>
</g>
<!-- MOMENT_GENERATING_FUNCTION&#45;&gt;BINOMIAL_RANDOM_VARIABLE -->
<g id="edge8" class="edge"><title>MOMENT_GENERATING_FUNCTION&#45;&gt;BINOMIAL_RANDOM_VARIABLE</title>
<path fill="none" stroke="black" d="M308,-143.831C308,-136.131 308,-126.974 308,-118.417"/>
<polygon fill="black" stroke="black" points="311.5,-118.413 308,-108.413 304.5,-118.413 311.5,-118.413"/>
</g>
<!-- POISSON_RANDOM_VARIABLE -->
<g id="node10" class="node"><title>POISSON_RANDOM_VARIABLE</title>
<a xlink:href="POISSON_RANDOM_VARIABLE.html" xlink:title="The poisson random variable" target="_top">
<polyline fill="none" stroke="black" points="360,-36 168,-36 "/>
<path fill="none" stroke="black" d="M168,-36C162,-36 156,-30 156,-24"/>
<polyline fill="none" stroke="black" points="156,-24 156,-12 "/>
<path fill="none" stroke="black" d="M156,-12C156,-6 162,-1.73688e-14 168,-1.69741e-14"/>
<polyline fill="none" stroke="black" points="168,-1.69741e-14 360,-4.34221e-15 "/>
<path fill="none" stroke="black" d="M360,-4.34221e-15C366,-3.94746e-15 372,-6 372,-12"/>
<polyline fill="none" stroke="black" points="372,-12 372,-24 "/>
<path fill="none" stroke="black" d="M372,-24C372,-30 366,-36 360,-36"/>
<text text-anchor="start" x="164.5" y="-15.2333" font-family="Times Roman,serif" font-size="14.00">The poisson random variable</text>
</a>
</g>
<!-- MOMENT_GENERATING_FUNCTION&#45;&gt;POISSON_RANDOM_VARIABLE -->
<g id="edge10" class="edge"><title>MOMENT_GENERATING_FUNCTION&#45;&gt;POISSON_RANDOM_VARIABLE</title>
<path fill="none" stroke="black" d="M369.419,-143.994C386.497,-135.85 403.07,-124.273 413,-108 421.334,-94.342 422.186,-85.1001 413,-72 404.447,-59.8034 376.473,-48.2635 347.036,-39.0068"/>
<polygon fill="black" stroke="black" points="348.036,-35.6528 337.45,-36.0837 345.994,-42.3484 348.036,-35.6528"/>
</g>
<!-- RANDOM_VARIABLES -->
<g id="node2" class="node"><title>RANDOM_VARIABLES</title>
<a xlink:href="RANDOM_VARIABLES.html" xlink:title="Random variables" target="_top">
<polyline fill="none" stroke="black" points="296,-252 180,-252 "/>
<path fill="none" stroke="black" d="M180,-252C174,-252 168,-246 168,-240"/>
<polyline fill="none" stroke="black" points="168,-240 168,-228 "/>
<path fill="none" stroke="black" d="M168,-228C168,-222 174,-216 180,-216"/>
<polyline fill="none" stroke="black" points="180,-216 296,-216 "/>
<path fill="none" stroke="black" d="M296,-216C302,-216 308,-222 308,-228"/>
<polyline fill="none" stroke="black" points="308,-228 308,-240 "/>
<path fill="none" stroke="black" d="M308,-240C308,-246 302,-252 296,-252"/>
<text text-anchor="start" x="176.5" y="-231.233" font-family="Times Roman,serif" font-size="14.00">Random variables</text>
</a>
</g>
<!-- RANDOM_VARIABLES&#45;&gt;MOMENT_GENERATING_FUNCTION -->
<g id="edge2" class="edge"><title>RANDOM_VARIABLES&#45;&gt;MOMENT_GENERATING_FUNCTION</title>
<path fill="none" stroke="black" d="M255.664,-215.831C263.973,-207.285 274.026,-196.944 283.092,-187.62"/>
<polygon fill="black" stroke="black" points="285.637,-190.023 290.098,-180.413 280.618,-185.143 285.637,-190.023"/>
</g>
<!-- BERNOULI_RANDOM_VARIABLE&#45;&gt;POISSON_RANDOM_VARIABLE -->
<!-- EXPECTATION -->
<g id="node6" class="node"><title>EXPECTATION</title>
<a xlink:href="EXPECTATION.html" xlink:title="Expectation " target="_top">
<polyline fill="none" stroke="black" points="418,-252 338,-252 "/>
<path fill="none" stroke="black" d="M338,-252C332,-252 326,-246 326,-240"/>
<polyline fill="none" stroke="black" points="326,-240 326,-228 "/>
<path fill="none" stroke="black" d="M326,-228C326,-222 332,-216 338,-216"/>
<polyline fill="none" stroke="black" points="338,-216 418,-216 "/>
<path fill="none" stroke="black" d="M418,-216C424,-216 430,-222 430,-228"/>
<polyline fill="none" stroke="black" points="430,-228 430,-240 "/>
<path fill="none" stroke="black" d="M430,-240C430,-246 424,-252 418,-252"/>
<text text-anchor="start" x="334.5" y="-231.233" font-family="Times Roman,serif" font-size="14.00">Expectation </text>
</a>
</g>
<!-- EXPECTATION&#45;&gt;MOMENT_GENERATING_FUNCTION -->
<g id="edge6" class="edge"><title>EXPECTATION&#45;&gt;MOMENT_GENERATING_FUNCTION</title>
<path fill="none" stroke="black" d="M360.336,-215.831C352.027,-207.285 341.974,-196.944 332.908,-187.62"/>
<polygon fill="black" stroke="black" points="335.382,-185.143 325.902,-180.413 330.363,-190.023 335.382,-185.143"/>
</g>
</g>
</svg>
