<?xml version="1.0" encoding="UTF-8" standalone="no"?>
<!DOCTYPE svg PUBLIC "-//W3C//DTD SVG 1.1//EN"
 "http://www.w3.org/Graphics/SVG/1.1/DTD/svg11.dtd">
<!-- Generated by graphviz version 2.26.3 (20100126.1600)
 -->
<!-- Title: _anonymous_0 Pages: 1 -->
<svg width="455pt" height="260pt"
 viewBox="0.00 0.00 455.00 260.00" xmlns="http://www.w3.org/2000/svg" xmlns:xlink="http://www.w3.org/1999/xlink">
<g id="graph1" class="graph" transform="scale(1 1) rotate(0) translate(4 256)">
<title>_anonymous_0</title>
<!-- MOMENT_GENERATING_FUNCTION -->
<g id="node1" class="node"><title>MOMENT_GENERATING_FUNCTION</title>
<a xlink:href="MOMENT_GENERATING_FUNCTION.html" xlink:title="The moment generating function" target="_top">
<polyline fill="none" stroke="blue" stroke-width="2" points="418,-180 196,-180 "/>
<path fill="none" stroke="blue" stroke-width="2" d="M196,-180C190,-180 184,-174 184,-168"/>
<polyline fill="none" stroke="blue" stroke-width="2" points="184,-168 184,-156 "/>
<path fill="none" stroke="blue" stroke-width="2" d="M184,-156C184,-150 190,-144 196,-144"/>
<polyline fill="none" stroke="blue" stroke-width="2" points="196,-144 418,-144 "/>
<path fill="none" stroke="blue" stroke-width="2" d="M418,-144C424,-144 430,-150 430,-156"/>
<polyline fill="none" stroke="blue" stroke-width="2" points="430,-156 430,-168 "/>
<path fill="none" stroke="blue" stroke-width="2" d="M430,-168C430,-174 424,-180 418,-180"/>
<text text-anchor="start" x="192.5" y="-159.233" font-family="Times Roman,serif" font-size="14.00">The moment generating function</text>
</a>
</g>
<!-- BINOMIAL_RANDOM_VARIABLE -->
<g id="node2" class="node"><title>BINOMIAL_RANDOM_VARIABLE</title>
<a xlink:href="BINOMIAL_RANDOM_VARIABLE.html" xlink:title="Binomial random variable" target="_top">
<polyline fill="none" stroke="black" points="180,-108 12,-108 "/>
<path fill="none" stroke="black" d="M12,-108C6,-108 5.92119e-14,-102 4.73695e-14,-96"/>
<polyline fill="none" stroke="black" points="4.73695e-14,-96 2.36848e-14,-84 "/>
<path fill="none" stroke="black" d="M2.36848e-14,-84C1.18424e-14,-78 6,-72 12,-72"/>
<polyline fill="none" stroke="black" points="12,-72 180,-72 "/>
<path fill="none" stroke="black" d="M180,-72C186,-72 192,-78 192,-84"/>
<polyline fill="none" stroke="black" points="192,-84 192,-96 "/>
<path fill="none" stroke="black" d="M192,-96C192,-102 186,-108 180,-108"/>
<text text-anchor="start" x="8" y="-87.2333" font-family="Times Roman,serif" font-size="14.00">Binomial random variable</text>
</a>
</g>
<!-- MOMENT_GENERATING_FUNCTION&#45;&gt;BINOMIAL_RANDOM_VARIABLE -->
<g id="edge2" class="edge"><title>MOMENT_GENERATING_FUNCTION&#45;&gt;BINOMIAL_RANDOM_VARIABLE</title>
<path fill="none" stroke="black" d="M254.028,-143.924C225.058,-134.039 188.993,-121.732 158.634,-111.373"/>
<polygon fill="black" stroke="black" points="159.588,-108 148.994,-108.083 157.327,-114.625 159.588,-108"/>
</g>
<!-- BERNOULI_RANDOM_VARIABLE -->
<g id="node4" class="node"><title>BERNOULI_RANDOM_VARIABLE</title>
<a xlink:href="BERNOULI_RANDOM_VARIABLE.html" xlink:title="Bernoulli random variable" target="_top">
<polyline fill="none" stroke="black" points="392,-108 222,-108 "/>
<path fill="none" stroke="black" d="M222,-108C216,-108 210,-102 210,-96"/>
<polyline fill="none" stroke="black" points="210,-96 210,-84 "/>
<path fill="none" stroke="black" d="M210,-84C210,-78 216,-72 222,-72"/>
<polyline fill="none" stroke="black" points="222,-72 392,-72 "/>
<path fill="none" stroke="black" d="M392,-72C398,-72 404,-78 404,-84"/>
<polyline fill="none" stroke="black" points="404,-84 404,-96 "/>
<path fill="none" stroke="black" d="M404,-96C404,-102 398,-108 392,-108"/>
<text text-anchor="start" x="218" y="-87.2333" font-family="Times Roman,serif" font-size="14.00">Bernoulli random variable</text>
</a>
</g>
<!-- MOMENT_GENERATING_FUNCTION&#45;&gt;BERNOULI_RANDOM_VARIABLE -->
<g id="edge4" class="edge"><title>MOMENT_GENERATING_FUNCTION&#45;&gt;BERNOULI_RANDOM_VARIABLE</title>
<path fill="none" stroke="black" d="M307,-143.831C307,-136.131 307,-126.974 307,-118.417"/>
<polygon fill="black" stroke="black" points="310.5,-118.413 307,-108.413 303.5,-118.413 310.5,-118.413"/>
</g>
<!-- POISSON_RANDOM_VARIABLE -->
<g id="node8" class="node"><title>POISSON_RANDOM_VARIABLE</title>
<a xlink:href="POISSON_RANDOM_VARIABLE.html" xlink:title="The poisson random variable" target="_top">
<polyline fill="none" stroke="black" points="360,-36 168,-36 "/>
<path fill="none" stroke="black" d="M168,-36C162,-36 156,-30 156,-24"/>
<polyline fill="none" stroke="black" points="156,-24 156,-12 "/>
<path fill="none" stroke="black" d="M156,-12C156,-6 162,-1.73688e-14 168,-1.69741e-14"/>
<polyline fill="none" stroke="black" points="168,-1.69741e-14 360,-4.34221e-15 "/>
<path fill="none" stroke="black" d="M360,-4.34221e-15C366,-3.94746e-15 372,-6 372,-12"/>
<polyline fill="none" stroke="black" points="372,-12 372,-24 "/>
<path fill="none" stroke="black" d="M372,-24C372,-30 366,-36 360,-36"/>
<text text-anchor="start" x="164.5" y="-15.2333" font-family="Times Roman,serif" font-size="14.00">The poisson random variable</text>
</a>
</g>
<!-- MOMENT_GENERATING_FUNCTION&#45;&gt;POISSON_RANDOM_VARIABLE -->
<g id="edge8" class="edge"><title>MOMENT_GENERATING_FUNCTION&#45;&gt;POISSON_RANDOM_VARIABLE</title>
<path fill="none" stroke="black" d="M369.268,-143.988C386.41,-135.856 403.018,-124.289 413,-108 421.36,-94.3581 422.186,-85.1001 413,-72 404.447,-59.8034 376.473,-48.2635 347.036,-39.0068"/>
<polygon fill="black" stroke="black" points="348.036,-35.6528 337.45,-36.0837 345.994,-42.3484 348.036,-35.6528"/>
</g>
<!-- BINOMIAL_RANDOM_VARIABLE&#45;&gt;POISSON_RANDOM_VARIABLE -->
<!-- EXPECTATION -->
<g id="node6" class="node"><title>EXPECTATION</title>
<a xlink:href="EXPECTATION.html" xlink:title="Expectation " target="_top">
<polyline fill="none" stroke="black" points="277,-252 197,-252 "/>
<path fill="none" stroke="black" d="M197,-252C191,-252 185,-246 185,-240"/>
<polyline fill="none" stroke="black" points="185,-240 185,-228 "/>
<path fill="none" stroke="black" d="M185,-228C185,-222 191,-216 197,-216"/>
<polyline fill="none" stroke="black" points="197,-216 277,-216 "/>
<path fill="none" stroke="black" d="M277,-216C283,-216 289,-222 289,-228"/>
<polyline fill="none" stroke="black" points="289,-228 289,-240 "/>
<path fill="none" stroke="black" d="M289,-240C289,-246 283,-252 277,-252"/>
<text text-anchor="start" x="193.5" y="-231.233" font-family="Times Roman,serif" font-size="14.00">Expectation </text>
</a>
</g>
<!-- EXPECTATION&#45;&gt;MOMENT_GENERATING_FUNCTION -->
<g id="edge6" class="edge"><title>EXPECTATION&#45;&gt;MOMENT_GENERATING_FUNCTION</title>
<path fill="none" stroke="black" d="M254.664,-215.831C262.973,-207.285 273.026,-196.944 282.092,-187.62"/>
<polygon fill="black" stroke="black" points="284.637,-190.023 289.098,-180.413 279.618,-185.143 284.637,-190.023"/>
</g>
<!-- RANDOM_VARIABLES -->
<g id="node11" class="node"><title>RANDOM_VARIABLES</title>
<a xlink:href="RANDOM_VARIABLES.html" xlink:title="Random variables" target="_top">
<polyline fill="none" stroke="black" points="435,-252 319,-252 "/>
<path fill="none" stroke="black" d="M319,-252C313,-252 307,-246 307,-240"/>
<polyline fill="none" stroke="black" points="307,-240 307,-228 "/>
<path fill="none" stroke="black" d="M307,-228C307,-222 313,-216 319,-216"/>
<polyline fill="none" stroke="black" points="319,-216 435,-216 "/>
<path fill="none" stroke="black" d="M435,-216C441,-216 447,-222 447,-228"/>
<polyline fill="none" stroke="black" points="447,-228 447,-240 "/>
<path fill="none" stroke="black" d="M447,-240C447,-246 441,-252 435,-252"/>
<text text-anchor="start" x="315.5" y="-231.233" font-family="Times Roman,serif" font-size="14.00">Random variables</text>
</a>
</g>
<!-- RANDOM_VARIABLES&#45;&gt;MOMENT_GENERATING_FUNCTION -->
<g id="edge12" class="edge"><title>RANDOM_VARIABLES&#45;&gt;MOMENT_GENERATING_FUNCTION</title>
<path fill="none" stroke="black" d="M359.336,-215.831C351.027,-207.285 340.974,-196.944 331.908,-187.62"/>
<polygon fill="black" stroke="black" points="334.382,-185.143 324.902,-180.413 329.363,-190.023 334.382,-185.143"/>
</g>
</g>
</svg>
