<?xml version="1.0" encoding="UTF-8" standalone="no"?>
<!DOCTYPE svg PUBLIC "-//W3C//DTD SVG 1.1//EN"
 "http://www.w3.org/Graphics/SVG/1.1/DTD/svg11.dtd">
<!-- Generated by graphviz version 2.28.0 (20110509.1545)
 -->
<!-- Title: _anonymous_0 Pages: 1 -->
<svg width="392pt" height="260pt"
 viewBox="0.00 0.00 392.00 260.00" xmlns="http://www.w3.org/2000/svg" xmlns:xlink="http://www.w3.org/1999/xlink">
<g id="graph1" class="graph" transform="scale(1 1) rotate(0) translate(4 256)">
<title>_anonymous_0</title>
<!-- MOMENT_GENERATING_FUNCTION -->
<g id="node1" class="node"><title>MOMENT_GENERATING_FUNCTION</title>
<a xlink:href="MOMENT_GENERATING_FUNCTION.html" xlink:title="The moment generating function" target="_top">
<polyline fill="none" stroke="blue" stroke-width="2" points="352,-180 176,-180 "/>
<path fill="none" stroke="blue" stroke-width="2" d="M176,-180C170,-180 164,-174 164,-168"/>
<polyline fill="none" stroke="blue" stroke-width="2" points="164,-168 164,-156 "/>
<path fill="none" stroke="blue" stroke-width="2" d="M164,-156C164,-150 170,-144 176,-144"/>
<polyline fill="none" stroke="blue" stroke-width="2" points="176,-144 352,-144 "/>
<path fill="none" stroke="blue" stroke-width="2" d="M352,-144C358,-144 364,-150 364,-156"/>
<polyline fill="none" stroke="blue" stroke-width="2" points="364,-156 364,-168 "/>
<path fill="none" stroke="blue" stroke-width="2" d="M364,-168C364,-174 358,-180 352,-180"/>
<text text-anchor="start" x="172.5" y="-156.5" font-family="Times,serif" font-size="14.00">The moment generating function</text>
</a>
</g>
<!-- BERNOULI_RANDOM_VARIABLE -->
<g id="node2" class="node"><title>BERNOULI_RANDOM_VARIABLE</title>
<a xlink:href="BERNOULI_RANDOM_VARIABLE.html" xlink:title="Bernoulli random variable" target="_top">
<polyline fill="none" stroke="black" points="152,-108 12,-108 "/>
<path fill="none" stroke="black" d="M12,-108C6,-108 0,-102 0,-96"/>
<polyline fill="none" stroke="black" points="0,-96 0,-84 "/>
<path fill="none" stroke="black" d="M0,-84C0,-78 6,-72 12,-72"/>
<polyline fill="none" stroke="black" points="12,-72 152,-72 "/>
<path fill="none" stroke="black" d="M152,-72C158,-72 164,-78 164,-84"/>
<polyline fill="none" stroke="black" points="164,-84 164,-96 "/>
<path fill="none" stroke="black" d="M164,-96C164,-102 158,-108 152,-108"/>
<text text-anchor="start" x="8.5" y="-84.5" font-family="Times,serif" font-size="14.00">Bernoulli random variable</text>
</a>
</g>
<!-- MOMENT_GENERATING_FUNCTION&#45;&gt;BERNOULI_RANDOM_VARIABLE -->
<g id="edge2" class="edge"><title>MOMENT_GENERATING_FUNCTION&#45;&gt;BERNOULI_RANDOM_VARIABLE</title>
<path fill="none" stroke="black" d="M219.478,-143.876C194.266,-134.179 162.547,-121.98 135.931,-111.743"/>
<polygon fill="black" stroke="black" points="136.968,-108.391 126.378,-108.068 134.455,-114.925 136.968,-108.391"/>
</g>
<!-- BINOMIAL_RANDOM_VARIABLE -->
<g id="node4" class="node"><title>BINOMIAL_RANDOM_VARIABLE</title>
<a xlink:href="BINOMIAL_RANDOM_VARIABLE.html" xlink:title="Binomial random variable" target="_top">
<polyline fill="none" stroke="black" points="333.25,-108 194.75,-108 "/>
<path fill="none" stroke="black" d="M194.75,-108C188.75,-108 182.75,-102 182.75,-96"/>
<polyline fill="none" stroke="black" points="182.75,-96 182.75,-84 "/>
<path fill="none" stroke="black" d="M182.75,-84C182.75,-78 188.75,-72 194.75,-72"/>
<polyline fill="none" stroke="black" points="194.75,-72 333.25,-72 "/>
<path fill="none" stroke="black" d="M333.25,-72C339.25,-72 345.25,-78 345.25,-84"/>
<polyline fill="none" stroke="black" points="345.25,-84 345.25,-96 "/>
<path fill="none" stroke="black" d="M345.25,-96C345.25,-102 339.25,-108 333.25,-108"/>
<text text-anchor="start" x="191" y="-84.5" font-family="Times,serif" font-size="14.00">Binomial random variable</text>
</a>
</g>
<!-- MOMENT_GENERATING_FUNCTION&#45;&gt;BINOMIAL_RANDOM_VARIABLE -->
<g id="edge4" class="edge"><title>MOMENT_GENERATING_FUNCTION&#45;&gt;BINOMIAL_RANDOM_VARIABLE</title>
<path fill="none" stroke="black" d="M264,-143.697C264,-135.983 264,-126.712 264,-118.112"/>
<polygon fill="black" stroke="black" points="267.5,-118.104 264,-108.104 260.5,-118.104 267.5,-118.104"/>
</g>
<!-- POISSON_RANDOM_VARIABLE -->
<g id="node8" class="node"><title>POISSON_RANDOM_VARIABLE</title>
<a xlink:href="POISSON_RANDOM_VARIABLE.html" xlink:title="The poisson random variable" target="_top">
<polyline fill="none" stroke="black" points="305.25,-36 150.75,-36 "/>
<path fill="none" stroke="black" d="M150.75,-36C144.75,-36 138.75,-30 138.75,-24"/>
<polyline fill="none" stroke="black" points="138.75,-24 138.75,-12 "/>
<path fill="none" stroke="black" d="M138.75,-12C138.75,-6 144.75,-0 150.75,-0"/>
<polyline fill="none" stroke="black" points="150.75,-0 305.25,-0 "/>
<path fill="none" stroke="black" d="M305.25,-0C311.25,-0 317.25,-6 317.25,-12"/>
<polyline fill="none" stroke="black" points="317.25,-12 317.25,-24 "/>
<path fill="none" stroke="black" d="M317.25,-24C317.25,-30 311.25,-36 305.25,-36"/>
<text text-anchor="start" x="147" y="-12.5" font-family="Times,serif" font-size="14.00">The poisson random variable</text>
</a>
</g>
<!-- MOMENT_GENERATING_FUNCTION&#45;&gt;POISSON_RANDOM_VARIABLE -->
<g id="edge8" class="edge"><title>MOMENT_GENERATING_FUNCTION&#45;&gt;POISSON_RANDOM_VARIABLE</title>
<path fill="none" stroke="black" d="M312.558,-143.969C328.669,-135.733 344.821,-124.057 354,-108 361.94,-94.1093 362.853,-85.3278 354,-72 344.866,-58.2489 331.393,-48.0576 316.613,-40.5069"/>
<polygon fill="black" stroke="black" points="317.809,-37.2028 307.268,-36.1385 314.845,-43.5441 317.809,-37.2028"/>
</g>
<!-- BERNOULI_RANDOM_VARIABLE&#45;&gt;POISSON_RANDOM_VARIABLE -->
<!-- EXPECTATION -->
<g id="node6" class="node"><title>EXPECTATION</title>
<a xlink:href="EXPECTATION.html" xlink:title="Expectation " target="_top">
<polyline fill="none" stroke="black" points="235.25,-252 172.75,-252 "/>
<path fill="none" stroke="black" d="M172.75,-252C166.75,-252 160.75,-246 160.75,-240"/>
<polyline fill="none" stroke="black" points="160.75,-240 160.75,-228 "/>
<path fill="none" stroke="black" d="M160.75,-228C160.75,-222 166.75,-216 172.75,-216"/>
<polyline fill="none" stroke="black" points="172.75,-216 235.25,-216 "/>
<path fill="none" stroke="black" d="M235.25,-216C241.25,-216 247.25,-222 247.25,-228"/>
<polyline fill="none" stroke="black" points="247.25,-228 247.25,-240 "/>
<path fill="none" stroke="black" d="M247.25,-240C247.25,-246 241.25,-252 235.25,-252"/>
<text text-anchor="start" x="169" y="-228.5" font-family="Times,serif" font-size="14.00">Expectation </text>
</a>
</g>
<!-- EXPECTATION&#45;&gt;MOMENT_GENERATING_FUNCTION -->
<g id="edge6" class="edge"><title>EXPECTATION&#45;&gt;MOMENT_GENERATING_FUNCTION</title>
<path fill="none" stroke="black" d="M218.831,-215.697C226.025,-207.305 234.797,-197.07 242.69,-187.861"/>
<polygon fill="black" stroke="black" points="245.489,-189.975 249.339,-180.104 240.174,-185.419 245.489,-189.975"/>
</g>
<!-- RANDOM_VARIABLES -->
<g id="node11" class="node"><title>RANDOM_VARIABLES</title>
<a xlink:href="RANDOM_VARIABLES.html" xlink:title="Random variables" target="_top">
<polyline fill="none" stroke="black" points="372,-252 278,-252 "/>
<path fill="none" stroke="black" d="M278,-252C272,-252 266,-246 266,-240"/>
<polyline fill="none" stroke="black" points="266,-240 266,-228 "/>
<path fill="none" stroke="black" d="M266,-228C266,-222 272,-216 278,-216"/>
<polyline fill="none" stroke="black" points="278,-216 372,-216 "/>
<path fill="none" stroke="black" d="M372,-216C378,-216 384,-222 384,-228"/>
<polyline fill="none" stroke="black" points="384,-228 384,-240 "/>
<path fill="none" stroke="black" d="M384,-240C384,-246 378,-252 372,-252"/>
<text text-anchor="start" x="274.5" y="-228.5" font-family="Times,serif" font-size="14.00">Random variables</text>
</a>
</g>
<!-- RANDOM_VARIABLES&#45;&gt;MOMENT_GENERATING_FUNCTION -->
<g id="edge12" class="edge"><title>RANDOM_VARIABLES&#45;&gt;MOMENT_GENERATING_FUNCTION</title>
<path fill="none" stroke="black" d="M309.921,-215.697C302.608,-207.305 293.69,-197.07 285.665,-187.861"/>
<polygon fill="black" stroke="black" points="288.114,-185.344 278.905,-180.104 282.836,-189.943 288.114,-185.344"/>
</g>
</g>
</svg>
