<?xml version="1.0" encoding="UTF-8" standalone="no"?>
<!DOCTYPE svg PUBLIC "-//W3C//DTD SVG 1.1//EN"
 "http://www.w3.org/Graphics/SVG/1.1/DTD/svg11.dtd">
<!-- Generated by graphviz version 2.26.3 (20100126.1600)
 -->
<!-- Title: _anonymous_0 Pages: 1 -->
<svg width="461pt" height="260pt"
 viewBox="0.00 0.00 461.00 260.00" xmlns="http://www.w3.org/2000/svg" xmlns:xlink="http://www.w3.org/1999/xlink">
<g id="graph1" class="graph" transform="scale(1 1) rotate(0) translate(4 256)">
<title>_anonymous_0</title>
<!-- MOMENT_GENERATING_FUNCTION -->
<g id="node1" class="node"><title>MOMENT_GENERATING_FUNCTION</title>
<a xlink:href="MOMENT_GENERATING_FUNCTION.html" xlink:title=" The moment generating function " target="_top">
<polyline fill="none" stroke="blue" stroke-width="2" points="438,-180 208,-180 "/>
<path fill="none" stroke="blue" stroke-width="2" d="M208,-180C202,-180 196,-174 196,-168"/>
<polyline fill="none" stroke="blue" stroke-width="2" points="196,-168 196,-156 "/>
<path fill="none" stroke="blue" stroke-width="2" d="M196,-156C196,-150 202,-144 208,-144"/>
<polyline fill="none" stroke="blue" stroke-width="2" points="208,-144 438,-144 "/>
<path fill="none" stroke="blue" stroke-width="2" d="M438,-144C444,-144 450,-150 450,-156"/>
<polyline fill="none" stroke="blue" stroke-width="2" points="450,-156 450,-168 "/>
<path fill="none" stroke="blue" stroke-width="2" d="M450,-168C450,-174 444,-180 438,-180"/>
<text text-anchor="start" x="204" y="-159.233" font-family="Times Roman,serif" font-size="14.00"> The moment generating function </text>
</a>
</g>
<!-- BERNOULI_RANDOM_VARIABLE -->
<g id="node4" class="node"><title>BERNOULI_RANDOM_VARIABLE</title>
<a xlink:href="BERNOULI_RANDOM_VARIABLE.html" xlink:title=" Bernoulli random variable " target="_top">
<polyline fill="none" stroke="black" points="192,-108 12,-108 "/>
<path fill="none" stroke="black" d="M12,-108C6,-108 8.28967e-14,-102 6.63173e-14,-96"/>
<polyline fill="none" stroke="black" points="6.63173e-14,-96 3.31587e-14,-84 "/>
<path fill="none" stroke="black" d="M3.31587e-14,-84C1.65793e-14,-78 6,-72 12,-72"/>
<polyline fill="none" stroke="black" points="12,-72 192,-72 "/>
<path fill="none" stroke="black" d="M192,-72C198,-72 204,-78 204,-84"/>
<polyline fill="none" stroke="black" points="204,-84 204,-96 "/>
<path fill="none" stroke="black" d="M204,-96C204,-102 198,-108 192,-108"/>
<text text-anchor="start" x="8.5" y="-87.2333" font-family="Times Roman,serif" font-size="14.00"> Bernoulli random variable </text>
</a>
</g>
<!-- MOMENT_GENERATING_FUNCTION&#45;&gt;BERNOULI_RANDOM_VARIABLE -->
<g id="edge4" class="edge"><title>MOMENT_GENERATING_FUNCTION&#45;&gt;BERNOULI_RANDOM_VARIABLE</title>
<path fill="none" stroke="black" d="M267.518,-143.924C237.043,-133.996 199.073,-121.625 167.19,-111.238"/>
<polygon fill="black" stroke="black" points="168.098,-107.853 157.505,-108.083 165.929,-114.509 168.098,-107.853"/>
</g>
<!-- BINOMIAL_RANDOM_VARIABLE -->
<g id="node8" class="node"><title>BINOMIAL_RANDOM_VARIABLE</title>
<a xlink:href="BINOMIAL_RANDOM_VARIABLE.html" xlink:title=" Binomial random variable " target="_top">
<polyline fill="none" stroke="black" points="412,-108 234,-108 "/>
<path fill="none" stroke="black" d="M234,-108C228,-108 222,-102 222,-96"/>
<polyline fill="none" stroke="black" points="222,-96 222,-84 "/>
<path fill="none" stroke="black" d="M222,-84C222,-78 228,-72 234,-72"/>
<polyline fill="none" stroke="black" points="234,-72 412,-72 "/>
<path fill="none" stroke="black" d="M412,-72C418,-72 424,-78 424,-84"/>
<polyline fill="none" stroke="black" points="424,-84 424,-96 "/>
<path fill="none" stroke="black" d="M424,-96C424,-102 418,-108 412,-108"/>
<text text-anchor="start" x="230.5" y="-87.2333" font-family="Times Roman,serif" font-size="14.00"> Binomial random variable </text>
</a>
</g>
<!-- MOMENT_GENERATING_FUNCTION&#45;&gt;BINOMIAL_RANDOM_VARIABLE -->
<g id="edge8" class="edge"><title>MOMENT_GENERATING_FUNCTION&#45;&gt;BINOMIAL_RANDOM_VARIABLE</title>
<path fill="none" stroke="black" d="M323,-143.831C323,-136.131 323,-126.974 323,-118.417"/>
<polygon fill="black" stroke="black" points="326.5,-118.413 323,-108.413 319.5,-118.413 326.5,-118.413"/>
</g>
<!-- POISSON_RANDOM_VARIABLE -->
<g id="node10" class="node"><title>POISSON_RANDOM_VARIABLE</title>
<a xlink:href="POISSON_RANDOM_VARIABLE.html" xlink:title=" The poisson random variable " target="_top">
<polyline fill="none" stroke="black" points="377,-36 177,-36 "/>
<path fill="none" stroke="black" d="M177,-36C171,-36 165,-30 165,-24"/>
<polyline fill="none" stroke="black" points="165,-24 165,-12 "/>
<path fill="none" stroke="black" d="M165,-12C165,-6 171,-1.73829e-14 177,-1.70023e-14"/>
<polyline fill="none" stroke="black" points="177,-1.70023e-14 377,-4.31401e-15 "/>
<path fill="none" stroke="black" d="M377,-4.31401e-15C383,-3.93336e-15 389,-6 389,-12"/>
<polyline fill="none" stroke="black" points="389,-12 389,-24 "/>
<path fill="none" stroke="black" d="M389,-24C389,-30 383,-36 377,-36"/>
<text text-anchor="start" x="173" y="-15.2333" font-family="Times Roman,serif" font-size="14.00"> The poisson random variable </text>
</a>
</g>
<!-- MOMENT_GENERATING_FUNCTION&#45;&gt;POISSON_RANDOM_VARIABLE -->
<g id="edge10" class="edge"><title>MOMENT_GENERATING_FUNCTION&#45;&gt;POISSON_RANDOM_VARIABLE</title>
<path fill="none" stroke="black" d="M388.712,-143.963C406.088,-135.877 422.818,-124.341 433,-108 441.461,-94.4204 442.281,-85.0334 433,-72 424.112,-59.5182 395.433,-48.0425 365.046,-38.9099"/>
<polygon fill="black" stroke="black" points="365.723,-35.4617 355.143,-36.0288 363.767,-42.183 365.723,-35.4617"/>
</g>
<!-- RANDOM_VARIABLES -->
<g id="node2" class="node"><title>RANDOM_VARIABLES</title>
<a xlink:href="RANDOM_VARIABLES.html" xlink:title=" Random variables " target="_top">
<polyline fill="none" stroke="black" points="311,-252 187,-252 "/>
<path fill="none" stroke="black" d="M187,-252C181,-252 175,-246 175,-240"/>
<polyline fill="none" stroke="black" points="175,-240 175,-228 "/>
<path fill="none" stroke="black" d="M175,-228C175,-222 181,-216 187,-216"/>
<polyline fill="none" stroke="black" points="187,-216 311,-216 "/>
<path fill="none" stroke="black" d="M311,-216C317,-216 323,-222 323,-228"/>
<polyline fill="none" stroke="black" points="323,-228 323,-240 "/>
<path fill="none" stroke="black" d="M323,-240C323,-246 317,-252 311,-252"/>
<text text-anchor="start" x="183" y="-231.233" font-family="Times Roman,serif" font-size="14.00"> Random variables </text>
</a>
</g>
<!-- RANDOM_VARIABLES&#45;&gt;MOMENT_GENERATING_FUNCTION -->
<g id="edge2" class="edge"><title>RANDOM_VARIABLES&#45;&gt;MOMENT_GENERATING_FUNCTION</title>
<path fill="none" stroke="black" d="M267.673,-215.831C276.525,-207.219 287.249,-196.785 296.889,-187.405"/>
<polygon fill="black" stroke="black" points="299.606,-189.645 304.333,-180.163 294.725,-184.628 299.606,-189.645"/>
</g>
<!-- BERNOULI_RANDOM_VARIABLE&#45;&gt;POISSON_RANDOM_VARIABLE -->
<!-- EXPECTATION -->
<g id="node6" class="node"><title>EXPECTATION</title>
<a xlink:href="EXPECTATION.html" xlink:title=" Expectation &#160;" target="_top">
<polyline fill="none" stroke="black" points="441,-252 353,-252 "/>
<path fill="none" stroke="black" d="M353,-252C347,-252 341,-246 341,-240"/>
<polyline fill="none" stroke="black" points="341,-240 341,-228 "/>
<path fill="none" stroke="black" d="M341,-228C341,-222 347,-216 353,-216"/>
<polyline fill="none" stroke="black" points="353,-216 441,-216 "/>
<path fill="none" stroke="black" d="M441,-216C447,-216 453,-222 453,-228"/>
<polyline fill="none" stroke="black" points="453,-228 453,-240 "/>
<path fill="none" stroke="black" d="M453,-240C453,-246 447,-252 441,-252"/>
<text text-anchor="start" x="349" y="-231.233" font-family="Times Roman,serif" font-size="14.00"> Expectation &#160;</text>
</a>
</g>
<!-- EXPECTATION&#45;&gt;MOMENT_GENERATING_FUNCTION -->
<g id="edge6" class="edge"><title>EXPECTATION&#45;&gt;MOMENT_GENERATING_FUNCTION</title>
<path fill="none" stroke="black" d="M378.327,-215.831C369.475,-207.219 358.751,-196.785 349.111,-187.405"/>
<polygon fill="black" stroke="black" points="351.275,-184.628 341.667,-180.163 346.394,-189.645 351.275,-184.628"/>
</g>
</g>
</svg>
