<?xml version="1.0" encoding="UTF-8" standalone="no"?>
<!DOCTYPE svg PUBLIC "-//W3C//DTD SVG 1.1//EN"
 "http://www.w3.org/Graphics/SVG/1.1/DTD/svg11.dtd">
<!-- Generated by graphviz version 2.36.0 (20140111.2315)
 -->
<!-- Title: %3 Pages: 1 -->
<svg width="472pt" height="332pt"
 viewBox="0.00 0.00 472.00 332.00" xmlns="http://www.w3.org/2000/svg" xmlns:xlink="http://www.w3.org/1999/xlink">
<g id="graph0" class="graph" transform="scale(1 1) rotate(0) translate(4 328)">
<title>%3</title>
<!-- MONTE_CARLO -->
<g id="node1" class="node"><title>MONTE_CARLO</title>
<g id="a_node1"><a xlink:href="MONTE_CARLO.html" xlink:title=" Monte Carlo Simulation " target="_top">
<path fill="none" stroke="blue" stroke-width="2" d="M249.5,-108C249.5,-108 116.5,-108 116.5,-108 110.5,-108 104.5,-102 104.5,-96 104.5,-96 104.5,-84 104.5,-84 104.5,-78 110.5,-72 116.5,-72 116.5,-72 249.5,-72 249.5,-72 255.5,-72 261.5,-78 261.5,-84 261.5,-84 261.5,-96 261.5,-96 261.5,-102 255.5,-108 249.5,-108"/>
<text text-anchor="start" x="112" y="-86.3" font-family="Times,serif" font-size="14.00"> Monte Carlo Simulation </text>
</a>
</g>
</g>
<!-- ENHANCED_SAMPLING -->
<g id="node2" class="node"><title>ENHANCED_SAMPLING</title>
<g id="a_node2"><a xlink:href="ENHANCED_SAMPLING.html" xlink:title=" Enhanced sampling " target="_top">
<path fill="none" stroke="black" d="M145.25,-36C145.25,-36 38.75,-36 38.75,-36 32.75,-36 26.75,-30 26.75,-24 26.75,-24 26.75,-12 26.75,-12 26.75,-6 32.75,-0 38.75,-0 38.75,-0 145.25,-0 145.25,-0 151.25,-0 157.25,-6 157.25,-12 157.25,-12 157.25,-24 157.25,-24 157.25,-30 151.25,-36 145.25,-36"/>
<text text-anchor="start" x="34.5" y="-14.3" font-family="Times,serif" font-size="14.00"> Enhanced sampling </text>
</a>
</g>
</g>
<!-- MONTE_CARLO&#45;&gt;ENHANCED_SAMPLING -->
<g id="edge1" class="edge"><title>MONTE_CARLO&#45;&gt;ENHANCED_SAMPLING</title>
<path fill="none" stroke="black" d="M160.506,-71.6966C149.045,-62.8807 134.942,-52.0321 122.516,-42.4742"/>
<polygon fill="black" stroke="black" points="124.296,-39.4273 114.236,-36.1043 120.028,-44.9757 124.296,-39.4273"/>
</g>
<!-- MOLECULAR_DYNAMICS -->
<g id="node6" class="node"><title>MOLECULAR_DYNAMICS</title>
<g id="a_node6"><a xlink:href="MOLECULAR_DYNAMICS.html" xlink:title=" Molecular dynamics simulation " target="_top">
<path fill="none" stroke="black" d="M362,-36C362,-36 188,-36 188,-36 182,-36 176,-30 176,-24 176,-24 176,-12 176,-12 176,-6 182,-0 188,-0 188,-0 362,-0 362,-0 368,-0 374,-6 374,-12 374,-12 374,-24 374,-24 374,-30 368,-36 362,-36"/>
<text text-anchor="start" x="184" y="-14.3" font-family="Times,serif" font-size="14.00"> Molecular dynamics simulation </text>
</a>
</g>
</g>
<!-- MONTE_CARLO&#45;&gt;MOLECULAR_DYNAMICS -->
<g id="edge6" class="edge"><title>MONTE_CARLO&#45;&gt;MOLECULAR_DYNAMICS</title>
<path fill="none" stroke="black" d="M205.742,-71.6966C217.44,-62.796 231.861,-51.8232 244.51,-42.1989"/>
<polygon fill="black" stroke="black" points="246.681,-44.945 252.52,-36.1043 242.442,-39.3742 246.681,-44.945"/>
</g>
<!-- CANONICAL_ENSEMBLE -->
<g id="node3" class="node"><title>CANONICAL_ENSEMBLE</title>
<g id="a_node3"><a xlink:href="CANONICAL_ENSEMBLE.html" xlink:title=" The canonical ensemble " target="_top">
<path fill="none" stroke="black" d="M144,-324C144,-324 12,-324 12,-324 6,-324 0,-318 0,-312 0,-312 0,-300 0,-300 0,-294 6,-288 12,-288 12,-288 144,-288 144,-288 150,-288 156,-294 156,-300 156,-300 156,-312 156,-312 156,-318 150,-324 144,-324"/>
<text text-anchor="start" x="8" y="-302.3" font-family="Times,serif" font-size="14.00"> The canonical ensemble </text>
</a>
</g>
</g>
<!-- CANONICAL_ENSEMBLE&#45;&gt;MONTE_CARLO -->
<g id="edge2" class="edge"><title>CANONICAL_ENSEMBLE&#45;&gt;MONTE_CARLO</title>
<path fill="none" stroke="black" d="M68.0461,-287.978C62.7281,-277.888 56.7281,-264.638 54,-252 43.4883,-203.304 50.5181,-180.888 84,-144 95.8293,-130.967 111.628,-120.535 127.125,-112.49"/>
<polygon fill="black" stroke="black" points="128.758,-115.587 136.182,-108.028 125.665,-109.308 128.758,-115.587"/>
</g>
<!-- INTERATOMIC_FORCES -->
<g id="node5" class="node"><title>INTERATOMIC_FORCES</title>
<g id="a_node5"><a xlink:href="INTERATOMIC_FORCES.html" xlink:title=" Interatomic forces " target="_top">
<path fill="none" stroke="black" d="M174.5,-252C174.5,-252 75.5,-252 75.5,-252 69.5,-252 63.5,-246 63.5,-240 63.5,-240 63.5,-228 63.5,-228 63.5,-222 69.5,-216 75.5,-216 75.5,-216 174.5,-216 174.5,-216 180.5,-216 186.5,-222 186.5,-228 186.5,-228 186.5,-240 186.5,-240 186.5,-246 180.5,-252 174.5,-252"/>
<text text-anchor="start" x="71" y="-230.3" font-family="Times,serif" font-size="14.00"> Interatomic forces </text>
</a>
</g>
</g>
<!-- CANONICAL_ENSEMBLE&#45;&gt;INTERATOMIC_FORCES -->
<!-- STATIONARY_DIST_MARKOV -->
<g id="node4" class="node"><title>STATIONARY_DIST_MARKOV</title>
<g id="a_node4"><a xlink:href="STATIONARY_DIST_MARKOV.html" xlink:title=" Ergodic Markov chains " target="_top">
<path fill="none" stroke="black" d="M357,-324C357,-324 229,-324 229,-324 223,-324 217,-318 217,-312 217,-312 217,-300 217,-300 217,-294 223,-288 229,-288 229,-288 357,-288 357,-288 363,-288 369,-294 369,-300 369,-300 369,-312 369,-312 369,-318 363,-324 357,-324"/>
<text text-anchor="start" x="225" y="-302.3" font-family="Times,serif" font-size="14.00"> Ergodic Markov chains </text>
</a>
</g>
</g>
<!-- STATIONARY_DIST_MARKOV&#45;&gt;MONTE_CARLO -->
<g id="edge3" class="edge"><title>STATIONARY_DIST_MARKOV&#45;&gt;MONTE_CARLO</title>
<path fill="none" stroke="black" d="M295.649,-287.827C299.547,-256.449 303.48,-188.953 274,-144 265.446,-130.957 252.488,-120.721 239.01,-112.87"/>
<polygon fill="black" stroke="black" points="240.578,-109.739 230.119,-108.05 237.242,-115.893 240.578,-109.739"/>
</g>
<!-- INTERATOMIC_FORCES&#45;&gt;MONTE_CARLO -->
<g id="edge4" class="edge"><title>INTERATOMIC_FORCES&#45;&gt;MONTE_CARLO</title>
<path fill="none" stroke="black" d="M110.059,-215.857C95.8626,-197.367 78.5313,-167.431 92,-144 99.477,-130.993 111.511,-120.878 124.413,-113.139"/>
<polygon fill="black" stroke="black" points="126.377,-116.053 133.438,-108.154 122.992,-109.925 126.377,-116.053"/>
</g>
<!-- CENTRAL_LIMIT_THEOREM -->
<g id="node8" class="node"><title>CENTRAL_LIMIT_THEOREM</title>
<g id="a_node8"><a xlink:href="CENTRAL_LIMIT_THEOREM.html" xlink:title=" The central limit theorem " target="_top">
<path fill="none" stroke="black" d="M253,-180C253,-180 113,-180 113,-180 107,-180 101,-174 101,-168 101,-168 101,-156 101,-156 101,-150 107,-144 113,-144 113,-144 253,-144 253,-144 259,-144 265,-150 265,-156 265,-156 265,-168 265,-168 265,-174 259,-180 253,-180"/>
<text text-anchor="start" x="109" y="-158.3" font-family="Times,serif" font-size="14.00"> The central limit theorem </text>
</a>
</g>
</g>
<!-- INTERATOMIC_FORCES&#45;&gt;CENTRAL_LIMIT_THEOREM -->
<!-- MARKOV_PROPERTY -->
<g id="node7" class="node"><title>MARKOV_PROPERTY</title>
<g id="a_node7"><a xlink:href="MARKOV_PROPERTY.html" xlink:title=" The Markov Property " target="_top">
<path fill="none" stroke="black" d="M452.25,-252C452.25,-252 333.75,-252 333.75,-252 327.75,-252 321.75,-246 321.75,-240 321.75,-240 321.75,-228 321.75,-228 321.75,-222 327.75,-216 333.75,-216 333.75,-216 452.25,-216 452.25,-216 458.25,-216 464.25,-222 464.25,-228 464.25,-228 464.25,-240 464.25,-240 464.25,-246 458.25,-252 452.25,-252"/>
<text text-anchor="start" x="329.5" y="-230.3" font-family="Times,serif" font-size="14.00"> The Markov Property </text>
</a>
</g>
</g>
<!-- MARKOV_PROPERTY&#45;&gt;MONTE_CARLO -->
<g id="edge7" class="edge"><title>MARKOV_PROPERTY&#45;&gt;MONTE_CARLO</title>
<path fill="none" stroke="black" d="M380.038,-215.94C364.474,-196.408 336.726,-164.478 307,-144 288.107,-130.985 265.509,-120.168 244.811,-111.774"/>
<polygon fill="black" stroke="black" points="246.042,-108.497 235.455,-108.088 243.476,-115.01 246.042,-108.497"/>
</g>
<!-- CENTRAL_LIMIT_THEOREM&#45;&gt;MONTE_CARLO -->
<g id="edge8" class="edge"><title>CENTRAL_LIMIT_THEOREM&#45;&gt;MONTE_CARLO</title>
<path fill="none" stroke="black" d="M183,-143.697C183,-135.983 183,-126.712 183,-118.112"/>
<polygon fill="black" stroke="black" points="186.5,-118.104 183,-108.104 179.5,-118.104 186.5,-118.104"/>
</g>
</g>
</svg>
