<?xml version="1.0" encoding="UTF-8" standalone="no"?>
<!DOCTYPE svg PUBLIC "-//W3C//DTD SVG 1.1//EN"
 "http://www.w3.org/Graphics/SVG/1.1/DTD/svg11.dtd">
<!-- Generated by graphviz version 2.26.3 (20100126.1600)
 -->
<!-- Title: _anonymous_0 Pages: 1 -->
<svg width="469pt" height="260pt"
 viewBox="0.00 0.00 469.00 260.00" xmlns="http://www.w3.org/2000/svg" xmlns:xlink="http://www.w3.org/1999/xlink">
<g id="graph1" class="graph" transform="scale(1 1) rotate(0) translate(4 256)">
<title>_anonymous_0</title>
<!-- MONTE_CARLO -->
<g id="node1" class="node"><title>MONTE_CARLO</title>
<a xlink:href="MONTE_CARLO.html" xlink:title="Monte Carlo Simulation" target="_top">
<polyline fill="none" stroke="blue" stroke-width="2" points="314,-108 158,-108 "/>
<path fill="none" stroke="blue" stroke-width="2" d="M158,-108C152,-108 146,-102 146,-96"/>
<polyline fill="none" stroke="blue" stroke-width="2" points="146,-96 146,-84 "/>
<path fill="none" stroke="blue" stroke-width="2" d="M146,-84C146,-78 152,-72 158,-72"/>
<polyline fill="none" stroke="blue" stroke-width="2" points="158,-72 314,-72 "/>
<path fill="none" stroke="blue" stroke-width="2" d="M314,-72C320,-72 326,-78 326,-84"/>
<polyline fill="none" stroke="blue" stroke-width="2" points="326,-84 326,-96 "/>
<path fill="none" stroke="blue" stroke-width="2" d="M326,-96C326,-102 320,-108 314,-108"/>
<text text-anchor="start" x="154.5" y="-87.2333" font-family="Times Roman,serif" font-size="14.00">Monte Carlo Simulation</text>
</a>
</g>
<!-- MOLECULAR_DYNAMICS -->
<g id="node9" class="node"><title>MOLECULAR_DYNAMICS</title>
<a xlink:href="MOLECULAR_DYNAMICS.html" xlink:title="Molecular dynamics simulation" target="_top">
<polyline fill="none" stroke="black" points="338,-36 134,-36 "/>
<path fill="none" stroke="black" d="M134,-36C128,-36 122,-30 122,-24"/>
<polyline fill="none" stroke="black" points="122,-24 122,-12 "/>
<path fill="none" stroke="black" d="M122,-12C122,-6 128,-1.73896e-14 134,-1.70156e-14"/>
<polyline fill="none" stroke="black" points="134,-1.70156e-14 338,-4.30065e-15 "/>
<path fill="none" stroke="black" d="M338,-4.30065e-15C344,-3.92668e-15 350,-6 350,-12"/>
<polyline fill="none" stroke="black" points="350,-12 350,-24 "/>
<path fill="none" stroke="black" d="M350,-24C350,-30 344,-36 338,-36"/>
<text text-anchor="start" x="130.5" y="-15.2333" font-family="Times Roman,serif" font-size="14.00">Molecular dynamics simulation</text>
</a>
</g>
<!-- MONTE_CARLO&#45;&gt;MOLECULAR_DYNAMICS -->
<g id="edge10" class="edge"><title>MONTE_CARLO&#45;&gt;MOLECULAR_DYNAMICS</title>
<path fill="none" stroke="black" d="M236,-71.8314C236,-64.131 236,-54.9743 236,-46.4166"/>
<polygon fill="black" stroke="black" points="239.5,-46.4132 236,-36.4133 232.5,-46.4133 239.5,-46.4132"/>
</g>
<!-- STATIONARY_DIST_MARKOV -->
<g id="node2" class="node"><title>STATIONARY_DIST_MARKOV</title>
<a xlink:href="STATIONARY_DIST_MARKOV.html" xlink:title="Ergodic Markov chains" target="_top">
<polyline fill="none" stroke="black" points="158,-252 12,-252 "/>
<path fill="none" stroke="black" d="M12,-252C6,-252 7.10543e-14,-246 5.68434e-14,-240"/>
<polyline fill="none" stroke="black" points="5.68434e-14,-240 2.84217e-14,-228 "/>
<path fill="none" stroke="black" d="M2.84217e-14,-228C1.42109e-14,-222 6,-216 12,-216"/>
<polyline fill="none" stroke="black" points="12,-216 158,-216 "/>
<path fill="none" stroke="black" d="M158,-216C164,-216 170,-222 170,-228"/>
<polyline fill="none" stroke="black" points="170,-228 170,-240 "/>
<path fill="none" stroke="black" d="M170,-240C170,-246 164,-252 158,-252"/>
<text text-anchor="start" x="8" y="-231.233" font-family="Times Roman,serif" font-size="14.00">Ergodic Markov chains</text>
</a>
</g>
<!-- STATIONARY_DIST_MARKOV&#45;&gt;MONTE_CARLO -->
<g id="edge2" class="edge"><title>STATIONARY_DIST_MARKOV&#45;&gt;MONTE_CARLO</title>
<path fill="none" stroke="black" d="M81.1328,-215.803C78.0421,-196.081 76.4572,-164.667 92,-144 100.831,-132.257 128.684,-120.631 157.571,-111.191"/>
<polygon fill="black" stroke="black" points="158.91,-114.438 167.382,-108.076 156.791,-107.766 158.91,-114.438"/>
</g>
<!-- MARKOV_PROPERTY -->
<g id="node6" class="node"><title>MARKOV_PROPERTY</title>
<a xlink:href="MARKOV_PROPERTY.html" xlink:title="The Markov Property" target="_top">
<polyline fill="none" stroke="black" points="251,-180 113,-180 "/>
<path fill="none" stroke="black" d="M113,-180C107,-180 101,-174 101,-168"/>
<polyline fill="none" stroke="black" points="101,-168 101,-156 "/>
<path fill="none" stroke="black" d="M101,-156C101,-150 107,-144 113,-144"/>
<polyline fill="none" stroke="black" points="113,-144 251,-144 "/>
<path fill="none" stroke="black" d="M251,-144C257,-144 263,-150 263,-156"/>
<polyline fill="none" stroke="black" points="263,-156 263,-168 "/>
<path fill="none" stroke="black" d="M263,-168C263,-174 257,-180 251,-180"/>
<text text-anchor="start" x="109" y="-159.233" font-family="Times Roman,serif" font-size="14.00">The Markov Property</text>
</a>
</g>
<!-- STATIONARY_DIST_MARKOV&#45;&gt;MARKOV_PROPERTY -->
<!-- CANONICAL_ENSEMBLE -->
<g id="node4" class="node"><title>CANONICAL_ENSEMBLE</title>
<a xlink:href="CANONICAL_ENSEMBLE.html" xlink:title="The canonical ensemble" target="_top">
<polyline fill="none" stroke="black" points="370,-252 212,-252 "/>
<path fill="none" stroke="black" d="M212,-252C206,-252 200,-246 200,-240"/>
<polyline fill="none" stroke="black" points="200,-240 200,-228 "/>
<path fill="none" stroke="black" d="M200,-228C200,-222 206,-216 212,-216"/>
<polyline fill="none" stroke="black" points="212,-216 370,-216 "/>
<path fill="none" stroke="black" d="M370,-216C376,-216 382,-222 382,-228"/>
<polyline fill="none" stroke="black" points="382,-228 382,-240 "/>
<path fill="none" stroke="black" d="M382,-240C382,-246 376,-252 370,-252"/>
<text text-anchor="start" x="208.5" y="-231.233" font-family="Times Roman,serif" font-size="14.00">The canonical ensemble</text>
</a>
</g>
<!-- CANONICAL_ENSEMBLE&#45;&gt;MONTE_CARLO -->
<g id="edge4" class="edge"><title>CANONICAL_ENSEMBLE&#45;&gt;MONTE_CARLO</title>
<path fill="none" stroke="black" d="M289.21,-215.808C286.911,-197.188 281.966,-167.701 272,-144 268.046,-134.595 262.385,-125.088 256.719,-116.727"/>
<polygon fill="black" stroke="black" points="259.518,-114.623 250.885,-108.482 253.804,-118.666 259.518,-114.623"/>
</g>
<!-- MARKOV_PROPERTY&#45;&gt;MONTE_CARLO -->
<g id="edge6" class="edge"><title>MARKOV_PROPERTY&#45;&gt;MONTE_CARLO</title>
<path fill="none" stroke="black" d="M195.626,-143.831C201.846,-135.539 209.332,-125.557 216.16,-116.453"/>
<polygon fill="black" stroke="black" points="218.99,-118.513 222.19,-108.413 213.39,-114.313 218.99,-118.513"/>
</g>
<!-- INTERATOMIC_FORCES -->
<g id="node11" class="node"><title>INTERATOMIC_FORCES</title>
<a xlink:href="INTERATOMIC_FORCES.html" xlink:title="Interatomic forces" target="_top">
<polyline fill="none" stroke="black" points="449,-180 331,-180 "/>
<path fill="none" stroke="black" d="M331,-180C325,-180 319,-174 319,-168"/>
<polyline fill="none" stroke="black" points="319,-168 319,-156 "/>
<path fill="none" stroke="black" d="M319,-156C319,-150 325,-144 331,-144"/>
<polyline fill="none" stroke="black" points="331,-144 449,-144 "/>
<path fill="none" stroke="black" d="M449,-144C455,-144 461,-150 461,-156"/>
<polyline fill="none" stroke="black" points="461,-156 461,-168 "/>
<path fill="none" stroke="black" d="M461,-168C461,-174 455,-180 449,-180"/>
<text text-anchor="start" x="327.5" y="-159.233" font-family="Times Roman,serif" font-size="14.00">Interatomic forces</text>
</a>
</g>
<!-- INTERATOMIC_FORCES&#45;&gt;MONTE_CARLO -->
<g id="edge12" class="edge"><title>INTERATOMIC_FORCES&#45;&gt;MONTE_CARLO</title>
<path fill="none" stroke="black" d="M351.139,-143.831C330.726,-134.287 305.528,-122.506 283.914,-112.401"/>
<polygon fill="black" stroke="black" points="285.122,-109.103 274.581,-108.038 282.158,-115.444 285.122,-109.103"/>
</g>
</g>
</svg>
