<?xml version="1.0" encoding="UTF-8" standalone="no"?>
<!DOCTYPE svg PUBLIC "-//W3C//DTD SVG 1.1//EN"
 "http://www.w3.org/Graphics/SVG/1.1/DTD/svg11.dtd">
<!-- Generated by graphviz version 2.26.3 (20100126.1600)
 -->
<!-- Title: _anonymous_0 Pages: 1 -->
<svg width="491pt" height="260pt"
 viewBox="0.00 0.00 491.00 260.00" xmlns="http://www.w3.org/2000/svg" xmlns:xlink="http://www.w3.org/1999/xlink">
<g id="graph1" class="graph" transform="scale(1 1) rotate(0) translate(4 256)">
<title>_anonymous_0</title>
<!-- MONTE_CARLO -->
<g id="node1" class="node"><title>MONTE_CARLO</title>
<a xlink:href="MONTE_CARLO.html" xlink:title="Monte Carlo Simulation" target="_top">
<polyline fill="none" stroke="blue" stroke-width="2" points="313,-108 157,-108 "/>
<path fill="none" stroke="blue" stroke-width="2" d="M157,-108C151,-108 145,-102 145,-96"/>
<polyline fill="none" stroke="blue" stroke-width="2" points="145,-96 145,-84 "/>
<path fill="none" stroke="blue" stroke-width="2" d="M145,-84C145,-78 151,-72 157,-72"/>
<polyline fill="none" stroke="blue" stroke-width="2" points="157,-72 313,-72 "/>
<path fill="none" stroke="blue" stroke-width="2" d="M313,-72C319,-72 325,-78 325,-84"/>
<polyline fill="none" stroke="blue" stroke-width="2" points="325,-84 325,-96 "/>
<path fill="none" stroke="blue" stroke-width="2" d="M325,-96C325,-102 319,-108 313,-108"/>
<text text-anchor="start" x="153.5" y="-87.2333" font-family="Times Roman,serif" font-size="14.00">Monte Carlo Simulation</text>
</a>
</g>
<!-- MOLECULAR_DYNAMICS -->
<g id="node6" class="node"><title>MOLECULAR_DYNAMICS</title>
<a xlink:href="MOLECULAR_DYNAMICS.html" xlink:title="Molecular dynamics simulation" target="_top">
<polyline fill="none" stroke="black" points="337,-36 133,-36 "/>
<path fill="none" stroke="black" d="M133,-36C127,-36 121,-30 121,-24"/>
<polyline fill="none" stroke="black" points="121,-24 121,-12 "/>
<path fill="none" stroke="black" d="M121,-12C121,-6 127,-1.73896e-14 133,-1.70156e-14"/>
<polyline fill="none" stroke="black" points="133,-1.70156e-14 337,-4.30065e-15 "/>
<path fill="none" stroke="black" d="M337,-4.30065e-15C343,-3.92668e-15 349,-6 349,-12"/>
<polyline fill="none" stroke="black" points="349,-12 349,-24 "/>
<path fill="none" stroke="black" d="M349,-24C349,-30 343,-36 337,-36"/>
<text text-anchor="start" x="129.5" y="-15.2333" font-family="Times Roman,serif" font-size="14.00">Molecular dynamics simulation</text>
</a>
</g>
<!-- MONTE_CARLO&#45;&gt;MOLECULAR_DYNAMICS -->
<g id="edge6" class="edge"><title>MONTE_CARLO&#45;&gt;MOLECULAR_DYNAMICS</title>
<path fill="none" stroke="black" d="M235,-71.8314C235,-64.131 235,-54.9743 235,-46.4166"/>
<polygon fill="black" stroke="black" points="238.5,-46.4132 235,-36.4133 231.5,-46.4133 238.5,-46.4132"/>
</g>
<!-- CANONICAL_ENSEMBLE -->
<g id="node2" class="node"><title>CANONICAL_ENSEMBLE</title>
<a xlink:href="CANONICAL_ENSEMBLE.html" xlink:title="The canonical ensemble" target="_top">
<polyline fill="none" stroke="black" points="170,-252 12,-252 "/>
<path fill="none" stroke="black" d="M12,-252C6,-252 5.92119e-14,-246 4.73695e-14,-240"/>
<polyline fill="none" stroke="black" points="4.73695e-14,-240 2.36848e-14,-228 "/>
<path fill="none" stroke="black" d="M2.36848e-14,-228C1.18424e-14,-222 6,-216 12,-216"/>
<polyline fill="none" stroke="black" points="12,-216 170,-216 "/>
<path fill="none" stroke="black" d="M170,-216C176,-216 182,-222 182,-228"/>
<polyline fill="none" stroke="black" points="182,-228 182,-240 "/>
<path fill="none" stroke="black" d="M182,-240C182,-246 176,-252 170,-252"/>
<text text-anchor="start" x="8.5" y="-231.233" font-family="Times Roman,serif" font-size="14.00">The canonical ensemble</text>
</a>
</g>
<!-- CANONICAL_ENSEMBLE&#45;&gt;MONTE_CARLO -->
<g id="edge2" class="edge"><title>CANONICAL_ENSEMBLE&#45;&gt;MONTE_CARLO</title>
<path fill="none" stroke="black" d="M89.1879,-215.736C88.2333,-195.955 89.7745,-164.491 106,-144 116.898,-130.237 131.932,-119.94 147.895,-112.25"/>
<polygon fill="black" stroke="black" points="149.673,-115.29 157.377,-108.017 146.819,-108.898 149.673,-115.29"/>
</g>
<!-- INTERATOMIC_FORCES -->
<g id="node8" class="node"><title>INTERATOMIC_FORCES</title>
<a xlink:href="INTERATOMIC_FORCES.html" xlink:title="Interatomic forces" target="_top">
<polyline fill="none" stroke="black" points="245,-180 127,-180 "/>
<path fill="none" stroke="black" d="M127,-180C121,-180 115,-174 115,-168"/>
<polyline fill="none" stroke="black" points="115,-168 115,-156 "/>
<path fill="none" stroke="black" d="M115,-156C115,-150 121,-144 127,-144"/>
<polyline fill="none" stroke="black" points="127,-144 245,-144 "/>
<path fill="none" stroke="black" d="M245,-144C251,-144 257,-150 257,-156"/>
<polyline fill="none" stroke="black" points="257,-156 257,-168 "/>
<path fill="none" stroke="black" d="M257,-168C257,-174 251,-180 245,-180"/>
<text text-anchor="start" x="123.5" y="-159.233" font-family="Times Roman,serif" font-size="14.00">Interatomic forces</text>
</a>
</g>
<!-- CANONICAL_ENSEMBLE&#45;&gt;INTERATOMIC_FORCES -->
<!-- MARKOV_PROPERTY -->
<g id="node4" class="node"><title>MARKOV_PROPERTY</title>
<a xlink:href="MARKOV_PROPERTY.html" xlink:title="The Markov Property" target="_top">
<polyline fill="none" stroke="black" points="354,-252 216,-252 "/>
<path fill="none" stroke="black" d="M216,-252C210,-252 204,-246 204,-240"/>
<polyline fill="none" stroke="black" points="204,-240 204,-228 "/>
<path fill="none" stroke="black" d="M204,-228C204,-222 210,-216 216,-216"/>
<polyline fill="none" stroke="black" points="216,-216 354,-216 "/>
<path fill="none" stroke="black" d="M354,-216C360,-216 366,-222 366,-228"/>
<polyline fill="none" stroke="black" points="366,-228 366,-240 "/>
<path fill="none" stroke="black" d="M366,-240C366,-246 360,-252 354,-252"/>
<text text-anchor="start" x="212" y="-231.233" font-family="Times Roman,serif" font-size="14.00">The Markov Property</text>
</a>
</g>
<!-- MARKOV_PROPERTY&#45;&gt;MONTE_CARLO -->
<g id="edge4" class="edge"><title>MARKOV_PROPERTY&#45;&gt;MONTE_CARLO</title>
<path fill="none" stroke="black" d="M282.88,-215.94C280.319,-197.425 275.168,-168.021 266,-144 262.49,-134.803 257.555,-125.317 252.652,-116.91"/>
<polygon fill="black" stroke="black" points="255.593,-115.011 247.414,-108.277 249.609,-118.642 255.593,-115.011"/>
</g>
<!-- INTERATOMIC_FORCES&#45;&gt;MONTE_CARLO -->
<g id="edge8" class="edge"><title>INTERATOMIC_FORCES&#45;&gt;MONTE_CARLO</title>
<path fill="none" stroke="black" d="M198.365,-143.831C203.951,-135.623 210.663,-125.761 216.807,-116.732"/>
<polygon fill="black" stroke="black" points="219.736,-118.65 222.469,-108.413 213.949,-114.711 219.736,-118.65"/>
</g>
<!-- STATIONARY_DIST_MARKOV -->
<g id="node11" class="node"><title>STATIONARY_DIST_MARKOV</title>
<a xlink:href="STATIONARY_DIST_MARKOV.html" xlink:title="Ergodic Markov chains" target="_top">
<polyline fill="none" stroke="black" points="471,-180 325,-180 "/>
<path fill="none" stroke="black" d="M325,-180C319,-180 313,-174 313,-168"/>
<polyline fill="none" stroke="black" points="313,-168 313,-156 "/>
<path fill="none" stroke="black" d="M313,-156C313,-150 319,-144 325,-144"/>
<polyline fill="none" stroke="black" points="325,-144 471,-144 "/>
<path fill="none" stroke="black" d="M471,-144C477,-144 483,-150 483,-156"/>
<polyline fill="none" stroke="black" points="483,-156 483,-168 "/>
<path fill="none" stroke="black" d="M483,-168C483,-174 477,-180 471,-180"/>
<text text-anchor="start" x="321" y="-159.233" font-family="Times Roman,serif" font-size="14.00">Ergodic Markov chains</text>
</a>
</g>
<!-- STATIONARY_DIST_MARKOV&#45;&gt;MONTE_CARLO -->
<g id="edge12" class="edge"><title>STATIONARY_DIST_MARKOV&#45;&gt;MONTE_CARLO</title>
<path fill="none" stroke="black" d="M356.868,-143.831C335.068,-134.202 308.112,-122.295 285.1,-112.13"/>
<polygon fill="black" stroke="black" points="286.398,-108.877 275.836,-108.038 283.569,-115.28 286.398,-108.877"/>
</g>
</g>
</svg>
