<?xml version="1.0" encoding="UTF-8" standalone="no"?>
<!DOCTYPE svg PUBLIC "-//W3C//DTD SVG 1.1//EN"
 "http://www.w3.org/Graphics/SVG/1.1/DTD/svg11.dtd">
<!-- Generated by graphviz version 2.26.3 (20100126.1600)
 -->
<!-- Title: _anonymous_0 Pages: 1 -->
<svg width="510pt" height="332pt"
 viewBox="0.00 0.00 510.00 332.00" xmlns="http://www.w3.org/2000/svg" xmlns:xlink="http://www.w3.org/1999/xlink">
<g id="graph1" class="graph" transform="scale(1 1) rotate(0) translate(4 328)">
<title>_anonymous_0</title>
<!-- MONTE_CARLO -->
<g id="node1" class="node"><title>MONTE_CARLO</title>
<a xlink:href="MONTE_CARLO.html" xlink:title=" Monte Carlo Simulation " target="_top">
<polyline fill="none" stroke="blue" stroke-width="2" points="292,-108 128,-108 "/>
<path fill="none" stroke="blue" stroke-width="2" d="M128,-108C122,-108 116,-102 116,-96"/>
<polyline fill="none" stroke="blue" stroke-width="2" points="116,-96 116,-84 "/>
<path fill="none" stroke="blue" stroke-width="2" d="M116,-84C116,-78 122,-72 128,-72"/>
<polyline fill="none" stroke="blue" stroke-width="2" points="128,-72 292,-72 "/>
<path fill="none" stroke="blue" stroke-width="2" d="M292,-72C298,-72 304,-78 304,-84"/>
<polyline fill="none" stroke="blue" stroke-width="2" points="304,-84 304,-96 "/>
<path fill="none" stroke="blue" stroke-width="2" d="M304,-96C304,-102 298,-108 292,-108"/>
<text text-anchor="start" x="124" y="-87.2333" font-family="Times Roman,serif" font-size="14.00"> Monte Carlo Simulation </text>
</a>
</g>
<!-- ENHANCED_SAMPLING -->
<g id="node4" class="node"><title>ENHANCED_SAMPLING</title>
<a xlink:href="ENHANCED_SAMPLING.html" xlink:title=" Enhanced sampling " target="_top">
<polyline fill="none" stroke="black" points="170,-36 36,-36 "/>
<path fill="none" stroke="black" d="M36,-36C30,-36 24,-30 24,-24"/>
<polyline fill="none" stroke="black" points="24,-24 24,-12 "/>
<path fill="none" stroke="black" d="M24,-12C24,-6 30,-1.72239e-14 36,-1.66843e-14"/>
<polyline fill="none" stroke="black" points="36,-1.66843e-14 170,-4.63202e-15 "/>
<path fill="none" stroke="black" d="M170,-4.63202e-15C176,-4.09237e-15 182,-6 182,-12"/>
<polyline fill="none" stroke="black" points="182,-12 182,-24 "/>
<path fill="none" stroke="black" d="M182,-24C182,-30 176,-36 170,-36"/>
<text text-anchor="start" x="32" y="-15.2333" font-family="Times Roman,serif" font-size="14.00"> Enhanced sampling </text>
</a>
</g>
<!-- MONTE_CARLO&#45;&gt;ENHANCED_SAMPLING -->
<g id="edge4" class="edge"><title>MONTE_CARLO&#45;&gt;ENHANCED_SAMPLING</title>
<path fill="none" stroke="black" d="M182.999,-71.8314C169.567,-62.7927 153.153,-51.7476 138.696,-42.0198"/>
<polygon fill="black" stroke="black" points="140.243,-38.8418 129.992,-36.1628 136.335,-44.6494 140.243,-38.8418"/>
</g>
<!-- MOLECULAR_DYNAMICS -->
<g id="node6" class="node"><title>MOLECULAR_DYNAMICS</title>
<a xlink:href="MOLECULAR_DYNAMICS.html" xlink:title=" Molecular dynamics simulation " target="_top">
<polyline fill="none" stroke="black" points="424,-36 212,-36 "/>
<path fill="none" stroke="black" d="M212,-36C206,-36 200,-30 200,-24"/>
<polyline fill="none" stroke="black" points="200,-24 200,-12 "/>
<path fill="none" stroke="black" d="M200,-12C200,-6 206,-1.74023e-14 212,-1.7041e-14"/>
<polyline fill="none" stroke="black" points="212,-1.7041e-14 424,-4.2753e-15 "/>
<path fill="none" stroke="black" d="M424,-4.2753e-15C430,-3.91401e-15 436,-6 436,-12"/>
<polyline fill="none" stroke="black" points="436,-12 436,-24 "/>
<path fill="none" stroke="black" d="M436,-24C436,-30 430,-36 424,-36"/>
<text text-anchor="start" x="208" y="-15.2333" font-family="Times Roman,serif" font-size="14.00"> Molecular dynamics simulation </text>
</a>
</g>
<!-- MONTE_CARLO&#45;&gt;MOLECULAR_DYNAMICS -->
<g id="edge6" class="edge"><title>MONTE_CARLO&#45;&gt;MOLECULAR_DYNAMICS</title>
<path fill="none" stroke="black" d="M237.253,-71.8314C250.939,-62.7074 267.691,-51.539 282.383,-41.7449"/>
<polygon fill="black" stroke="black" points="284.377,-44.6221 290.756,-36.1628 280.494,-38.7977 284.377,-44.6221"/>
</g>
<!-- STATIONARY_DIST_MARKOV -->
<g id="node2" class="node"><title>STATIONARY_DIST_MARKOV</title>
<a xlink:href="STATIONARY_DIST_MARKOV.html" xlink:title=" Ergodic Markov chains " target="_top">
<polyline fill="none" stroke="black" points="168,-324 12,-324 "/>
<path fill="none" stroke="black" d="M12,-324C6,-324 7.10543e-14,-318 5.68434e-14,-312"/>
<polyline fill="none" stroke="black" points="5.68434e-14,-312 2.84217e-14,-300 "/>
<path fill="none" stroke="black" d="M2.84217e-14,-300C1.42109e-14,-294 6,-288 12,-288"/>
<polyline fill="none" stroke="black" points="12,-288 168,-288 "/>
<path fill="none" stroke="black" d="M168,-288C174,-288 180,-294 180,-300"/>
<polyline fill="none" stroke="black" points="180,-300 180,-312 "/>
<path fill="none" stroke="black" d="M180,-312C180,-318 174,-324 168,-324"/>
<text text-anchor="start" x="8.5" y="-303.233" font-family="Times Roman,serif" font-size="14.00"> Ergodic Markov chains </text>
</a>
</g>
<!-- STATIONARY_DIST_MARKOV&#45;&gt;MONTE_CARLO -->
<g id="edge2" class="edge"><title>STATIONARY_DIST_MARKOV&#45;&gt;MONTE_CARLO</title>
<path fill="none" stroke="black" d="M84.4554,-287.701C81.6035,-277.335 78.4319,-264.065 77,-252 71.1429,-202.646 72.5835,-180.789 106,-144 117.835,-130.971 133.549,-120.58 149.169,-112.533"/>
<polygon fill="black" stroke="black" points="150.873,-115.596 158.324,-108.064 147.803,-109.306 150.873,-115.596"/>
</g>
<!-- CENTRAL_LIMIT_THEOREM -->
<g id="node10" class="node"><title>CENTRAL_LIMIT_THEOREM</title>
<a xlink:href="CENTRAL_LIMIT_THEOREM.html" xlink:title=" The central limit theorem " target="_top">
<polyline fill="none" stroke="black" points="276,-252 98,-252 "/>
<path fill="none" stroke="black" d="M98,-252C92,-252 86,-246 86,-240"/>
<polyline fill="none" stroke="black" points="86,-240 86,-228 "/>
<path fill="none" stroke="black" d="M86,-228C86,-222 92,-216 98,-216"/>
<polyline fill="none" stroke="black" points="98,-216 276,-216 "/>
<path fill="none" stroke="black" d="M276,-216C282,-216 288,-222 288,-228"/>
<polyline fill="none" stroke="black" points="288,-228 288,-240 "/>
<path fill="none" stroke="black" d="M288,-240C288,-246 282,-252 276,-252"/>
<text text-anchor="start" x="94" y="-231.233" font-family="Times Roman,serif" font-size="14.00"> The central limit theorem </text>
</a>
</g>
<!-- STATIONARY_DIST_MARKOV&#45;&gt;CENTRAL_LIMIT_THEOREM -->
<!-- CANONICAL_ENSEMBLE -->
<g id="node8" class="node"><title>CANONICAL_ENSEMBLE</title>
<a xlink:href="CANONICAL_ENSEMBLE.html" xlink:title=" The canonical ensemble " target="_top">
<polyline fill="none" stroke="black" points="407,-324 241,-324 "/>
<path fill="none" stroke="black" d="M241,-324C235,-324 229,-318 229,-312"/>
<polyline fill="none" stroke="black" points="229,-312 229,-300 "/>
<path fill="none" stroke="black" d="M229,-300C229,-294 235,-288 241,-288"/>
<polyline fill="none" stroke="black" points="241,-288 407,-288 "/>
<path fill="none" stroke="black" d="M407,-288C413,-288 419,-294 419,-300"/>
<polyline fill="none" stroke="black" points="419,-300 419,-312 "/>
<path fill="none" stroke="black" d="M419,-312C419,-318 413,-324 407,-324"/>
<text text-anchor="start" x="237" y="-303.233" font-family="Times Roman,serif" font-size="14.00"> The canonical ensemble </text>
</a>
</g>
<!-- CANONICAL_ENSEMBLE&#45;&gt;MONTE_CARLO -->
<g id="edge8" class="edge"><title>CANONICAL_ENSEMBLE&#45;&gt;MONTE_CARLO</title>
<path fill="none" stroke="black" d="M326.821,-287.94C330.814,-256.005 334.647,-188.729 305,-144 296.402,-131.028 283.56,-120.825 270.076,-112.948"/>
<polygon fill="black" stroke="black" points="271.618,-109.803 261.161,-108.102 268.275,-115.953 271.618,-109.803"/>
</g>
<!-- CENTRAL_LIMIT_THEOREM&#45;&gt;MONTE_CARLO -->
<g id="edge10" class="edge"><title>CENTRAL_LIMIT_THEOREM&#45;&gt;MONTE_CARLO</title>
<path fill="none" stroke="black" d="M150.198,-215.857C136.54,-207.063 122.547,-195.093 115,-180 107.845,-165.689 106.953,-157.829 115,-144 122.519,-131.077 134.413,-120.992 147.275,-113.224"/>
<polygon fill="black" stroke="black" points="149.253,-116.129 156.292,-108.21 145.851,-110.011 149.253,-116.129"/>
</g>
<!-- MARKOV_PROPERTY -->
<g id="node15" class="node"><title>MARKOV_PROPERTY</title>
<a xlink:href="MARKOV_PROPERTY.html" xlink:title=" The Markov Property " target="_top">
<polyline fill="none" stroke="black" points="284,-180 136,-180 "/>
<path fill="none" stroke="black" d="M136,-180C130,-180 124,-174 124,-168"/>
<polyline fill="none" stroke="black" points="124,-168 124,-156 "/>
<path fill="none" stroke="black" d="M124,-156C124,-150 130,-144 136,-144"/>
<polyline fill="none" stroke="black" points="136,-144 284,-144 "/>
<path fill="none" stroke="black" d="M284,-144C290,-144 296,-150 296,-156"/>
<polyline fill="none" stroke="black" points="296,-156 296,-168 "/>
<path fill="none" stroke="black" d="M296,-168C296,-174 290,-180 284,-180"/>
<text text-anchor="start" x="132.5" y="-159.233" font-family="Times Roman,serif" font-size="14.00"> The Markov Property </text>
</a>
</g>
<!-- CENTRAL_LIMIT_THEOREM&#45;&gt;MARKOV_PROPERTY -->
<!-- INTERATOMIC_FORCES -->
<g id="node13" class="node"><title>INTERATOMIC_FORCES</title>
<a xlink:href="INTERATOMIC_FORCES.html" xlink:title=" Interatomic forces " target="_top">
<polyline fill="none" stroke="black" points="490,-252 364,-252 "/>
<path fill="none" stroke="black" d="M364,-252C358,-252 352,-246 352,-240"/>
<polyline fill="none" stroke="black" points="352,-240 352,-228 "/>
<path fill="none" stroke="black" d="M352,-228C352,-222 358,-216 364,-216"/>
<polyline fill="none" stroke="black" points="364,-216 490,-216 "/>
<path fill="none" stroke="black" d="M490,-216C496,-216 502,-222 502,-228"/>
<polyline fill="none" stroke="black" points="502,-228 502,-240 "/>
<path fill="none" stroke="black" d="M502,-240C502,-246 496,-252 490,-252"/>
<text text-anchor="start" x="360" y="-231.233" font-family="Times Roman,serif" font-size="14.00"> Interatomic forces </text>
</a>
</g>
<!-- INTERATOMIC_FORCES&#45;&gt;MONTE_CARLO -->
<g id="edge14" class="edge"><title>INTERATOMIC_FORCES&#45;&gt;MONTE_CARLO</title>
<path fill="none" stroke="black" d="M412.639,-215.673C396.318,-195.838 368.025,-164.326 338,-144 318.861,-131.044 296.116,-120.221 275.146,-111.75"/>
<polygon fill="black" stroke="black" points="276.243,-108.42 265.656,-108.024 273.685,-114.936 276.243,-108.42"/>
</g>
<!-- MARKOV_PROPERTY&#45;&gt;MONTE_CARLO -->
<g id="edge16" class="edge"><title>MARKOV_PROPERTY&#45;&gt;MONTE_CARLO</title>
<path fill="none" stroke="black" d="M210,-143.831C210,-136.131 210,-126.974 210,-118.417"/>
<polygon fill="black" stroke="black" points="213.5,-118.413 210,-108.413 206.5,-118.413 213.5,-118.413"/>
</g>
</g>
</svg>
