<?xml version="1.0" encoding="UTF-8" standalone="no"?>
<!DOCTYPE svg PUBLIC "-//W3C//DTD SVG 1.1//EN"
 "http://www.w3.org/Graphics/SVG/1.1/DTD/svg11.dtd">
<!-- Generated by graphviz version 2.36.0 (20140111.2315)
 -->
<!-- Title: %3 Pages: 1 -->
<svg width="437pt" height="332pt"
 viewBox="0.00 0.00 437.00 332.00" xmlns="http://www.w3.org/2000/svg" xmlns:xlink="http://www.w3.org/1999/xlink">
<g id="graph0" class="graph" transform="scale(1 1) rotate(0) translate(4 328)">
<title>%3</title>
<!-- MONTE_CARLO -->
<g id="node1" class="node"><title>MONTE_CARLO</title>
<g id="a_node1"><a xlink:href="MONTE_CARLO.html" xlink:title=" Monte Carlo Simulation " target="_top">
<path fill="none" stroke="blue" stroke-width="2" d="M240.5,-108C240.5,-108 107.5,-108 107.5,-108 101.5,-108 95.5,-102 95.5,-96 95.5,-96 95.5,-84 95.5,-84 95.5,-78 101.5,-72 107.5,-72 107.5,-72 240.5,-72 240.5,-72 246.5,-72 252.5,-78 252.5,-84 252.5,-84 252.5,-96 252.5,-96 252.5,-102 246.5,-108 240.5,-108"/>
<text text-anchor="start" x="103" y="-86.3" font-family="Times,serif" font-size="14.00"> Monte Carlo Simulation </text>
</a>
</g>
</g>
<!-- ENHANCED_SAMPLING -->
<g id="node4" class="node"><title>ENHANCED_SAMPLING</title>
<g id="a_node4"><a xlink:href="ENHANCED_SAMPLING.html" xlink:title=" Enhanced sampling " target="_top">
<path fill="none" stroke="black" d="M136.25,-36C136.25,-36 29.75,-36 29.75,-36 23.75,-36 17.75,-30 17.75,-24 17.75,-24 17.75,-12 17.75,-12 17.75,-6 23.75,-0 29.75,-0 29.75,-0 136.25,-0 136.25,-0 142.25,-0 148.25,-6 148.25,-12 148.25,-12 148.25,-24 148.25,-24 148.25,-30 142.25,-36 136.25,-36"/>
<text text-anchor="start" x="25.5" y="-14.3" font-family="Times,serif" font-size="14.00"> Enhanced sampling </text>
</a>
</g>
</g>
<!-- MONTE_CARLO&#45;&gt;ENHANCED_SAMPLING -->
<g id="edge3" class="edge"><title>MONTE_CARLO&#45;&gt;ENHANCED_SAMPLING</title>
<path fill="none" stroke="black" d="M151.506,-71.6966C140.045,-62.8807 125.942,-52.0321 113.516,-42.4742"/>
<polygon fill="black" stroke="black" points="115.296,-39.4273 105.236,-36.1043 111.028,-44.9757 115.296,-39.4273"/>
</g>
<!-- MOLECULAR_DYNAMICS -->
<g id="node7" class="node"><title>MOLECULAR_DYNAMICS</title>
<g id="a_node7"><a xlink:href="MOLECULAR_DYNAMICS.html" xlink:title=" Molecular dynamics simulation " target="_top">
<path fill="none" stroke="black" d="M353,-36C353,-36 179,-36 179,-36 173,-36 167,-30 167,-24 167,-24 167,-12 167,-12 167,-6 173,-0 179,-0 179,-0 353,-0 353,-0 359,-0 365,-6 365,-12 365,-12 365,-24 365,-24 365,-30 359,-36 353,-36"/>
<text text-anchor="start" x="175" y="-14.3" font-family="Times,serif" font-size="14.00"> Molecular dynamics simulation </text>
</a>
</g>
</g>
<!-- MONTE_CARLO&#45;&gt;MOLECULAR_DYNAMICS -->
<g id="edge7" class="edge"><title>MONTE_CARLO&#45;&gt;MOLECULAR_DYNAMICS</title>
<path fill="none" stroke="black" d="M196.742,-71.6966C208.44,-62.796 222.861,-51.8232 235.51,-42.1989"/>
<polygon fill="black" stroke="black" points="237.681,-44.945 243.52,-36.1043 233.442,-39.3742 237.681,-44.945"/>
</g>
<!-- MARKOV_PROPERTY -->
<g id="node2" class="node"><title>MARKOV_PROPERTY</title>
<g id="a_node2"><a xlink:href="MARKOV_PROPERTY.html" xlink:title=" The Markov Property " target="_top">
<path fill="none" stroke="black" d="M130.25,-324C130.25,-324 11.75,-324 11.75,-324 5.75,-324 -0.25,-318 -0.25,-312 -0.25,-312 -0.25,-300 -0.25,-300 -0.25,-294 5.75,-288 11.75,-288 11.75,-288 130.25,-288 130.25,-288 136.25,-288 142.25,-294 142.25,-300 142.25,-300 142.25,-312 142.25,-312 142.25,-318 136.25,-324 130.25,-324"/>
<text text-anchor="start" x="7.5" y="-302.3" font-family="Times,serif" font-size="14.00"> The Markov Property </text>
</a>
</g>
</g>
<!-- MARKOV_PROPERTY&#45;&gt;MONTE_CARLO -->
<g id="edge1" class="edge"><title>MARKOV_PROPERTY&#45;&gt;MONTE_CARLO</title>
<path fill="none" stroke="black" d="M62.6942,-287.788C58.2589,-277.634 53.2589,-264.384 51,-252 42.0817,-203.106 47.2228,-181.36 80,-144 91.1527,-131.288 106.127,-120.951 120.842,-112.895"/>
<polygon fill="black" stroke="black" points="122.673,-115.888 129.934,-108.173 119.446,-109.676 122.673,-115.888"/>
</g>
<!-- CENTRAL_LIMIT_THEOREM -->
<g id="node5" class="node"><title>CENTRAL_LIMIT_THEOREM</title>
<g id="a_node5"><a xlink:href="CENTRAL_LIMIT_THEOREM.html" xlink:title=" The central limit theorem " target="_top">
<path fill="none" stroke="black" d="M212,-252C212,-252 72,-252 72,-252 66,-252 60,-246 60,-240 60,-240 60,-228 60,-228 60,-222 66,-216 72,-216 72,-216 212,-216 212,-216 218,-216 224,-222 224,-228 224,-228 224,-240 224,-240 224,-246 218,-252 212,-252"/>
<text text-anchor="start" x="68" y="-230.3" font-family="Times,serif" font-size="14.00"> The central limit theorem </text>
</a>
</g>
</g>
<!-- MARKOV_PROPERTY&#45;&gt;CENTRAL_LIMIT_THEOREM -->
<!-- CANONICAL_ENSEMBLE -->
<g id="node3" class="node"><title>CANONICAL_ENSEMBLE</title>
<g id="a_node3"><a xlink:href="CANONICAL_ENSEMBLE.html" xlink:title=" The canonical ensemble " target="_top">
<path fill="none" stroke="black" d="M344,-324C344,-324 212,-324 212,-324 206,-324 200,-318 200,-312 200,-312 200,-300 200,-300 200,-294 206,-288 212,-288 212,-288 344,-288 344,-288 350,-288 356,-294 356,-300 356,-300 356,-312 356,-312 356,-318 350,-324 344,-324"/>
<text text-anchor="start" x="208" y="-302.3" font-family="Times,serif" font-size="14.00"> The canonical ensemble </text>
</a>
</g>
</g>
<!-- CANONICAL_ENSEMBLE&#45;&gt;MONTE_CARLO -->
<g id="edge2" class="edge"><title>CANONICAL_ENSEMBLE&#45;&gt;MONTE_CARLO</title>
<path fill="none" stroke="black" d="M280.517,-287.912C284.201,-256.673 287.799,-189.393 259,-144 250.976,-131.353 238.731,-121.217 226.012,-113.334"/>
<polygon fill="black" stroke="black" points="227.588,-110.202 217.178,-108.233 224.088,-116.264 227.588,-110.202"/>
</g>
<!-- CENTRAL_LIMIT_THEOREM&#45;&gt;MONTE_CARLO -->
<g id="edge4" class="edge"><title>CENTRAL_LIMIT_THEOREM&#45;&gt;MONTE_CARLO</title>
<path fill="none" stroke="black" d="M117.523,-215.768C106.596,-206.555 94.8761,-194.186 89,-180 82.8771,-165.218 81.2363,-157.99 89,-144 96.1305,-131.151 107.815,-121.01 120.269,-113.189"/>
<polygon fill="black" stroke="black" points="122.076,-116.187 128.969,-108.14 118.563,-110.133 122.076,-116.187"/>
</g>
<!-- STATIONARY_DIST_MARKOV -->
<g id="node8" class="node"><title>STATIONARY_DIST_MARKOV</title>
<g id="a_node8"><a xlink:href="STATIONARY_DIST_MARKOV.html" xlink:title=" Ergodic Markov chains " target="_top">
<path fill="none" stroke="black" d="M238,-180C238,-180 110,-180 110,-180 104,-180 98,-174 98,-168 98,-168 98,-156 98,-156 98,-150 104,-144 110,-144 110,-144 238,-144 238,-144 244,-144 250,-150 250,-156 250,-156 250,-168 250,-168 250,-174 244,-180 238,-180"/>
<text text-anchor="start" x="106" y="-158.3" font-family="Times,serif" font-size="14.00"> Ergodic Markov chains </text>
</a>
</g>
</g>
<!-- CENTRAL_LIMIT_THEOREM&#45;&gt;STATIONARY_DIST_MARKOV -->
<!-- INTERATOMIC_FORCES -->
<g id="node6" class="node"><title>INTERATOMIC_FORCES</title>
<g id="a_node6"><a xlink:href="INTERATOMIC_FORCES.html" xlink:title=" Interatomic forces " target="_top">
<path fill="none" stroke="black" d="M417.5,-252C417.5,-252 318.5,-252 318.5,-252 312.5,-252 306.5,-246 306.5,-240 306.5,-240 306.5,-228 306.5,-228 306.5,-222 312.5,-216 318.5,-216 318.5,-216 417.5,-216 417.5,-216 423.5,-216 429.5,-222 429.5,-228 429.5,-228 429.5,-240 429.5,-240 429.5,-246 423.5,-252 417.5,-252"/>
<text text-anchor="start" x="314" y="-230.3" font-family="Times,serif" font-size="14.00"> Interatomic forces </text>
</a>
</g>
</g>
<!-- INTERATOMIC_FORCES&#45;&gt;MONTE_CARLO -->
<g id="edge6" class="edge"><title>INTERATOMIC_FORCES&#45;&gt;MONTE_CARLO</title>
<path fill="none" stroke="black" d="M356.916,-215.937C343.511,-196.402 319.316,-164.47 292,-144 274.625,-130.98 253.544,-120.235 234.034,-111.904"/>
<polygon fill="black" stroke="black" points="235.185,-108.592 224.606,-108.008 232.512,-115.062 235.185,-108.592"/>
</g>
<!-- STATIONARY_DIST_MARKOV&#45;&gt;MONTE_CARLO -->
<g id="edge8" class="edge"><title>STATIONARY_DIST_MARKOV&#45;&gt;MONTE_CARLO</title>
<path fill="none" stroke="black" d="M174,-143.697C174,-135.983 174,-126.712 174,-118.112"/>
<polygon fill="black" stroke="black" points="177.5,-118.104 174,-108.104 170.5,-118.104 177.5,-118.104"/>
</g>
</g>
</svg>
