<?xml version="1.0" encoding="UTF-8" standalone="no"?>
<!DOCTYPE svg PUBLIC "-//W3C//DTD SVG 1.1//EN"
 "http://www.w3.org/Graphics/SVG/1.1/DTD/svg11.dtd">
<!-- Generated by graphviz version 2.26.3 (20100126.1600)
 -->
<!-- Title: _anonymous_0 Pages: 1 -->
<svg width="474pt" height="260pt"
 viewBox="0.00 0.00 474.00 260.00" xmlns="http://www.w3.org/2000/svg" xmlns:xlink="http://www.w3.org/1999/xlink">
<g id="graph1" class="graph" transform="scale(1 1) rotate(0) translate(4 256)">
<title>_anonymous_0</title>
<!-- MONTE_CARLO -->
<g id="node1" class="node"><title>MONTE_CARLO</title>
<a xlink:href="MONTE_CARLO.html" xlink:title="Monte Carlo Simulation" target="_top">
<polyline fill="none" stroke="blue" stroke-width="2" points="314,-108 158,-108 "/>
<path fill="none" stroke="blue" stroke-width="2" d="M158,-108C152,-108 146,-102 146,-96"/>
<polyline fill="none" stroke="blue" stroke-width="2" points="146,-96 146,-84 "/>
<path fill="none" stroke="blue" stroke-width="2" d="M146,-84C146,-78 152,-72 158,-72"/>
<polyline fill="none" stroke="blue" stroke-width="2" points="158,-72 314,-72 "/>
<path fill="none" stroke="blue" stroke-width="2" d="M314,-72C320,-72 326,-78 326,-84"/>
<polyline fill="none" stroke="blue" stroke-width="2" points="326,-84 326,-96 "/>
<path fill="none" stroke="blue" stroke-width="2" d="M326,-96C326,-102 320,-108 314,-108"/>
<text text-anchor="start" x="154.5" y="-87.2333" font-family="Times Roman,serif" font-size="14.00">Monte Carlo Simulation</text>
</a>
</g>
<!-- MOLECULAR_DYNAMICS -->
<g id="node4" class="node"><title>MOLECULAR_DYNAMICS</title>
<a xlink:href="MOLECULAR_DYNAMICS.html" xlink:title="Molecular dynamics simulation" target="_top">
<polyline fill="none" stroke="black" points="338,-36 134,-36 "/>
<path fill="none" stroke="black" d="M134,-36C128,-36 122,-30 122,-24"/>
<polyline fill="none" stroke="black" points="122,-24 122,-12 "/>
<path fill="none" stroke="black" d="M122,-12C122,-6 128,-1.73896e-14 134,-1.70156e-14"/>
<polyline fill="none" stroke="black" points="134,-1.70156e-14 338,-4.30065e-15 "/>
<path fill="none" stroke="black" d="M338,-4.30065e-15C344,-3.92668e-15 350,-6 350,-12"/>
<polyline fill="none" stroke="black" points="350,-12 350,-24 "/>
<path fill="none" stroke="black" d="M350,-24C350,-30 344,-36 338,-36"/>
<text text-anchor="start" x="130.5" y="-15.2333" font-family="Times Roman,serif" font-size="14.00">Molecular dynamics simulation</text>
</a>
</g>
<!-- MONTE_CARLO&#45;&gt;MOLECULAR_DYNAMICS -->
<g id="edge4" class="edge"><title>MONTE_CARLO&#45;&gt;MOLECULAR_DYNAMICS</title>
<path fill="none" stroke="black" d="M236,-71.8314C236,-64.131 236,-54.9743 236,-46.4166"/>
<polygon fill="black" stroke="black" points="239.5,-46.4132 236,-36.4133 232.5,-46.4133 239.5,-46.4132"/>
</g>
<!-- STATIONARY_DIST_MARKOV -->
<g id="node2" class="node"><title>STATIONARY_DIST_MARKOV</title>
<a xlink:href="STATIONARY_DIST_MARKOV.html" xlink:title="Ergodic Markov chains" target="_top">
<polyline fill="none" stroke="black" points="158,-252 12,-252 "/>
<path fill="none" stroke="black" d="M12,-252C6,-252 7.10543e-14,-246 5.68434e-14,-240"/>
<polyline fill="none" stroke="black" points="5.68434e-14,-240 2.84217e-14,-228 "/>
<path fill="none" stroke="black" d="M2.84217e-14,-228C1.42109e-14,-222 6,-216 12,-216"/>
<polyline fill="none" stroke="black" points="12,-216 158,-216 "/>
<path fill="none" stroke="black" d="M158,-216C164,-216 170,-222 170,-228"/>
<polyline fill="none" stroke="black" points="170,-228 170,-240 "/>
<path fill="none" stroke="black" d="M170,-240C170,-246 164,-252 158,-252"/>
<text text-anchor="start" x="8" y="-231.233" font-family="Times Roman,serif" font-size="14.00">Ergodic Markov chains</text>
</a>
</g>
<!-- STATIONARY_DIST_MARKOV&#45;&gt;MONTE_CARLO -->
<g id="edge2" class="edge"><title>STATIONARY_DIST_MARKOV&#45;&gt;MONTE_CARLO</title>
<path fill="none" stroke="black" d="M76.9717,-215.944C69.6062,-196.346 61.9254,-165.04 77,-144 86.001,-131.437 114.82,-120.018 145.496,-110.95"/>
<polygon fill="black" stroke="black" points="146.846,-114.204 155.499,-108.09 144.922,-107.474 146.846,-114.204"/>
</g>
<!-- CANONICAL_ENSEMBLE -->
<g id="node8" class="node"><title>CANONICAL_ENSEMBLE</title>
<a xlink:href="CANONICAL_ENSEMBLE.html" xlink:title="The canonical ensemble" target="_top">
<polyline fill="none" stroke="black" points="256,-180 98,-180 "/>
<path fill="none" stroke="black" d="M98,-180C92,-180 86,-174 86,-168"/>
<polyline fill="none" stroke="black" points="86,-168 86,-156 "/>
<path fill="none" stroke="black" d="M86,-156C86,-150 92,-144 98,-144"/>
<polyline fill="none" stroke="black" points="98,-144 256,-144 "/>
<path fill="none" stroke="black" d="M256,-144C262,-144 268,-150 268,-156"/>
<polyline fill="none" stroke="black" points="268,-156 268,-168 "/>
<path fill="none" stroke="black" d="M268,-168C268,-174 262,-180 256,-180"/>
<text text-anchor="start" x="94.5" y="-159.233" font-family="Times Roman,serif" font-size="14.00">The canonical ensemble</text>
</a>
</g>
<!-- STATIONARY_DIST_MARKOV&#45;&gt;CANONICAL_ENSEMBLE -->
<!-- MARKOV_PROPERTY -->
<g id="node6" class="node"><title>MARKOV_PROPERTY</title>
<a xlink:href="MARKOV_PROPERTY.html" xlink:title="The Markov Property" target="_top">
<polyline fill="none" stroke="black" points="365,-252 227,-252 "/>
<path fill="none" stroke="black" d="M227,-252C221,-252 215,-246 215,-240"/>
<polyline fill="none" stroke="black" points="215,-240 215,-228 "/>
<path fill="none" stroke="black" d="M215,-228C215,-222 221,-216 227,-216"/>
<polyline fill="none" stroke="black" points="227,-216 365,-216 "/>
<path fill="none" stroke="black" d="M365,-216C371,-216 377,-222 377,-228"/>
<polyline fill="none" stroke="black" points="377,-228 377,-240 "/>
<path fill="none" stroke="black" d="M377,-240C377,-246 371,-252 365,-252"/>
<text text-anchor="start" x="223" y="-231.233" font-family="Times Roman,serif" font-size="14.00">The Markov Property</text>
</a>
</g>
<!-- MARKOV_PROPERTY&#45;&gt;MONTE_CARLO -->
<g id="edge6" class="edge"><title>MARKOV_PROPERTY&#45;&gt;MONTE_CARLO</title>
<path fill="none" stroke="black" d="M294.508,-215.677C292.448,-196.952 287.688,-167.384 277,-144 272.523,-134.204 266.008,-124.512 259.485,-116.102"/>
<polygon fill="black" stroke="black" points="262.056,-113.716 253.033,-108.161 256.623,-118.13 262.056,-113.716"/>
</g>
<!-- CANONICAL_ENSEMBLE&#45;&gt;MONTE_CARLO -->
<g id="edge8" class="edge"><title>CANONICAL_ENSEMBLE&#45;&gt;MONTE_CARLO</title>
<path fill="none" stroke="black" d="M191.888,-143.831C198.753,-135.454 207.03,-125.353 214.551,-116.175"/>
<polygon fill="black" stroke="black" points="217.28,-118.366 220.911,-108.413 211.866,-113.93 217.28,-118.366"/>
</g>
<!-- INTERATOMIC_FORCES -->
<g id="node11" class="node"><title>INTERATOMIC_FORCES</title>
<a xlink:href="INTERATOMIC_FORCES.html" xlink:title="Interatomic forces" target="_top">
<polyline fill="none" stroke="black" points="454,-180 336,-180 "/>
<path fill="none" stroke="black" d="M336,-180C330,-180 324,-174 324,-168"/>
<polyline fill="none" stroke="black" points="324,-168 324,-156 "/>
<path fill="none" stroke="black" d="M324,-156C324,-150 330,-144 336,-144"/>
<polyline fill="none" stroke="black" points="336,-144 454,-144 "/>
<path fill="none" stroke="black" d="M454,-144C460,-144 466,-150 466,-156"/>
<polyline fill="none" stroke="black" points="466,-156 466,-168 "/>
<path fill="none" stroke="black" d="M466,-168C466,-174 460,-180 454,-180"/>
<text text-anchor="start" x="332.5" y="-159.233" font-family="Times Roman,serif" font-size="14.00">Interatomic forces</text>
</a>
</g>
<!-- INTERATOMIC_FORCES&#45;&gt;MONTE_CARLO -->
<g id="edge12" class="edge"><title>INTERATOMIC_FORCES&#45;&gt;MONTE_CARLO</title>
<path fill="none" stroke="black" d="M354.878,-143.831C333.707,-134.245 307.552,-122.401 285.17,-112.266"/>
<polygon fill="black" stroke="black" points="286.387,-108.975 275.834,-108.038 283.5,-115.351 286.387,-108.975"/>
</g>
</g>
</svg>
