<?xml version="1.0" encoding="UTF-8" standalone="no"?>
<!DOCTYPE svg PUBLIC "-//W3C//DTD SVG 1.1//EN"
 "http://www.w3.org/Graphics/SVG/1.1/DTD/svg11.dtd">
<!-- Generated by graphviz version 2.26.3 (20100126.1600)
 -->
<!-- Title: _anonymous_0 Pages: 1 -->
<svg width="534pt" height="332pt"
 viewBox="0.00 0.00 534.00 332.00" xmlns="http://www.w3.org/2000/svg" xmlns:xlink="http://www.w3.org/1999/xlink">
<g id="graph1" class="graph" transform="scale(1 1) rotate(0) translate(4 328)">
<title>_anonymous_0</title>
<!-- MONTE_CARLO -->
<g id="node1" class="node"><title>MONTE_CARLO</title>
<a xlink:href="MONTE_CARLO.html" xlink:title="Monte Carlo Simulation" target="_top">
<polyline fill="none" stroke="blue" stroke-width="2" points="295,-108 139,-108 "/>
<path fill="none" stroke="blue" stroke-width="2" d="M139,-108C133,-108 127,-102 127,-96"/>
<polyline fill="none" stroke="blue" stroke-width="2" points="127,-96 127,-84 "/>
<path fill="none" stroke="blue" stroke-width="2" d="M127,-84C127,-78 133,-72 139,-72"/>
<polyline fill="none" stroke="blue" stroke-width="2" points="139,-72 295,-72 "/>
<path fill="none" stroke="blue" stroke-width="2" d="M295,-72C301,-72 307,-78 307,-84"/>
<polyline fill="none" stroke="blue" stroke-width="2" points="307,-84 307,-96 "/>
<path fill="none" stroke="blue" stroke-width="2" d="M307,-96C307,-102 301,-108 295,-108"/>
<text text-anchor="start" x="135.5" y="-87.2333" font-family="Times Roman,serif" font-size="14.00">Monte Carlo Simulation</text>
</a>
</g>
<!-- MOLECULAR_DYNAMICS -->
<g id="node6" class="node"><title>MOLECULAR_DYNAMICS</title>
<a xlink:href="MOLECULAR_DYNAMICS.html" xlink:title="Molecular dynamics simulation" target="_top">
<polyline fill="none" stroke="black" points="216,-36 12,-36 "/>
<path fill="none" stroke="black" d="M12,-36C6,-36 8.28967e-14,-30 6.63173e-14,-24"/>
<polyline fill="none" stroke="black" points="6.63173e-14,-24 3.31587e-14,-12 "/>
<path fill="none" stroke="black" d="M3.31587e-14,-12C1.65793e-14,-6 6,-1.73896e-14 12,-1.70156e-14"/>
<polyline fill="none" stroke="black" points="12,-1.70156e-14 216,-4.30065e-15 "/>
<path fill="none" stroke="black" d="M216,-4.30065e-15C222,-3.92668e-15 228,-6 228,-12"/>
<polyline fill="none" stroke="black" points="228,-12 228,-24 "/>
<path fill="none" stroke="black" d="M228,-24C228,-30 222,-36 216,-36"/>
<text text-anchor="start" x="8.5" y="-15.2333" font-family="Times Roman,serif" font-size="14.00">Molecular dynamics simulation</text>
</a>
</g>
<!-- MONTE_CARLO&#45;&gt;MOLECULAR_DYNAMICS -->
<g id="edge6" class="edge"><title>MONTE_CARLO&#45;&gt;MOLECULAR_DYNAMICS</title>
<path fill="none" stroke="black" d="M191.009,-71.8314C178.078,-62.7927 162.278,-51.7476 148.362,-42.0198"/>
<polygon fill="black" stroke="black" points="150.184,-39.0235 139.983,-36.1628 146.174,-44.7608 150.184,-39.0235"/>
</g>
<!-- ENHANCED_SAMPLING -->
<g id="node8" class="node"><title>ENHANCED_SAMPLING</title>
<a xlink:href="ENHANCED_SAMPLING.html" xlink:title="Enhanced sampling" target="_top">
<polyline fill="none" stroke="black" points="384,-36 258,-36 "/>
<path fill="none" stroke="black" d="M258,-36C252,-36 246,-30 246,-24"/>
<polyline fill="none" stroke="black" points="246,-24 246,-12 "/>
<path fill="none" stroke="black" d="M246,-12C246,-6 252,-1.71951e-14 258,-1.66267e-14"/>
<polyline fill="none" stroke="black" points="258,-1.66267e-14 384,-4.68958e-15 "/>
<path fill="none" stroke="black" d="M384,-4.68958e-15C390,-4.12115e-15 396,-6 396,-12"/>
<polyline fill="none" stroke="black" points="396,-12 396,-24 "/>
<path fill="none" stroke="black" d="M396,-24C396,-30 390,-36 384,-36"/>
<text text-anchor="start" x="254.5" y="-15.2333" font-family="Times Roman,serif" font-size="14.00">Enhanced sampling</text>
</a>
</g>
<!-- MONTE_CARLO&#45;&gt;ENHANCED_SAMPLING -->
<g id="edge8" class="edge"><title>MONTE_CARLO&#45;&gt;ENHANCED_SAMPLING</title>
<path fill="none" stroke="black" d="M243.244,-71.8314C256.299,-62.7927 272.253,-51.7476 286.305,-42.0198"/>
<polygon fill="black" stroke="black" points="288.535,-44.7326 294.765,-36.1628 284.551,-38.9773 288.535,-44.7326"/>
</g>
<!-- STATIONARY_DIST_MARKOV -->
<g id="node2" class="node"><title>STATIONARY_DIST_MARKOV</title>
<a xlink:href="STATIONARY_DIST_MARKOV.html" xlink:title="Ergodic Markov chains" target="_top">
<polyline fill="none" stroke="black" points="171,-324 25,-324 "/>
<path fill="none" stroke="black" d="M25,-324C19,-324 13,-318 13,-312"/>
<polyline fill="none" stroke="black" points="13,-312 13,-300 "/>
<path fill="none" stroke="black" d="M13,-300C13,-294 19,-288 25,-288"/>
<polyline fill="none" stroke="black" points="25,-288 171,-288 "/>
<path fill="none" stroke="black" d="M171,-288C177,-288 183,-294 183,-300"/>
<polyline fill="none" stroke="black" points="183,-300 183,-312 "/>
<path fill="none" stroke="black" d="M183,-312C183,-318 177,-324 171,-324"/>
<text text-anchor="start" x="21" y="-303.233" font-family="Times Roman,serif" font-size="14.00">Ergodic Markov chains</text>
</a>
</g>
<!-- STATIONARY_DIST_MARKOV&#45;&gt;MONTE_CARLO -->
<g id="edge2" class="edge"><title>STATIONARY_DIST_MARKOV&#45;&gt;MONTE_CARLO</title>
<path fill="none" stroke="black" d="M95.9588,-287.767C93.3362,-254.958 92.7238,-185.529 128,-144 138.462,-131.684 152.473,-121.383 166.278,-113.193"/>
<polygon fill="black" stroke="black" points="168.289,-116.077 175.28,-108.116 164.851,-109.98 168.289,-116.077"/>
</g>
<!-- MARKOV_PROPERTY -->
<g id="node10" class="node"><title>MARKOV_PROPERTY</title>
<a xlink:href="MARKOV_PROPERTY.html" xlink:title="The Markov Property" target="_top">
<polyline fill="none" stroke="black" points="258,-252 120,-252 "/>
<path fill="none" stroke="black" d="M120,-252C114,-252 108,-246 108,-240"/>
<polyline fill="none" stroke="black" points="108,-240 108,-228 "/>
<path fill="none" stroke="black" d="M108,-228C108,-222 114,-216 120,-216"/>
<polyline fill="none" stroke="black" points="120,-216 258,-216 "/>
<path fill="none" stroke="black" d="M258,-216C264,-216 270,-222 270,-228"/>
<polyline fill="none" stroke="black" points="270,-228 270,-240 "/>
<path fill="none" stroke="black" d="M270,-240C270,-246 264,-252 258,-252"/>
<text text-anchor="start" x="116" y="-231.233" font-family="Times Roman,serif" font-size="14.00">The Markov Property</text>
</a>
</g>
<!-- STATIONARY_DIST_MARKOV&#45;&gt;MARKOV_PROPERTY -->
<!-- CENTRAL_LIMIT_THEOREM -->
<g id="node4" class="node"><title>CENTRAL_LIMIT_THEOREM</title>
<a xlink:href="CENTRAL_LIMIT_THEOREM.html" xlink:title="The central limit theorem" target="_top">
<polyline fill="none" stroke="black" points="401,-324 231,-324 "/>
<path fill="none" stroke="black" d="M231,-324C225,-324 219,-318 219,-312"/>
<polyline fill="none" stroke="black" points="219,-312 219,-300 "/>
<path fill="none" stroke="black" d="M219,-300C219,-294 225,-288 231,-288"/>
<polyline fill="none" stroke="black" points="231,-288 401,-288 "/>
<path fill="none" stroke="black" d="M401,-288C407,-288 413,-294 413,-300"/>
<polyline fill="none" stroke="black" points="413,-300 413,-312 "/>
<path fill="none" stroke="black" d="M413,-312C413,-318 407,-324 401,-324"/>
<text text-anchor="start" x="227.5" y="-303.233" font-family="Times Roman,serif" font-size="14.00">The central limit theorem</text>
</a>
</g>
<!-- CENTRAL_LIMIT_THEOREM&#45;&gt;MONTE_CARLO -->
<g id="edge4" class="edge"><title>CENTRAL_LIMIT_THEOREM&#45;&gt;MONTE_CARLO</title>
<path fill="none" stroke="black" d="M318.496,-287.913C321.925,-256.228 324.833,-189.714 297,-144 289.497,-131.677 277.991,-121.534 266.024,-113.5"/>
<polygon fill="black" stroke="black" points="267.612,-110.364 257.279,-108.021 263.895,-116.296 267.612,-110.364"/>
</g>
<!-- MARKOV_PROPERTY&#45;&gt;MONTE_CARLO -->
<g id="edge10" class="edge"><title>MARKOV_PROPERTY&#45;&gt;MONTE_CARLO</title>
<path fill="none" stroke="black" d="M164.42,-215.777C153.852,-206.402 142.646,-194.002 137,-180 131.017,-165.161 129.491,-158.128 137,-144 143.581,-131.617 154.409,-121.559 166.004,-113.63"/>
<polygon fill="black" stroke="black" points="167.956,-116.536 174.532,-108.229 164.211,-110.622 167.956,-116.536"/>
</g>
<!-- INTERATOMIC_FORCES -->
<g id="node15" class="node"><title>INTERATOMIC_FORCES</title>
<a xlink:href="INTERATOMIC_FORCES.html" xlink:title="Interatomic forces" target="_top">
<polyline fill="none" stroke="black" points="276,-180 158,-180 "/>
<path fill="none" stroke="black" d="M158,-180C152,-180 146,-174 146,-168"/>
<polyline fill="none" stroke="black" points="146,-168 146,-156 "/>
<path fill="none" stroke="black" d="M146,-156C146,-150 152,-144 158,-144"/>
<polyline fill="none" stroke="black" points="158,-144 276,-144 "/>
<path fill="none" stroke="black" d="M276,-144C282,-144 288,-150 288,-156"/>
<polyline fill="none" stroke="black" points="288,-156 288,-168 "/>
<path fill="none" stroke="black" d="M288,-168C288,-174 282,-180 276,-180"/>
<text text-anchor="start" x="154.5" y="-159.233" font-family="Times Roman,serif" font-size="14.00">Interatomic forces</text>
</a>
</g>
<!-- MARKOV_PROPERTY&#45;&gt;INTERATOMIC_FORCES -->
<!-- CANONICAL_ENSEMBLE -->
<g id="node13" class="node"><title>CANONICAL_ENSEMBLE</title>
<a xlink:href="CANONICAL_ENSEMBLE.html" xlink:title="The canonical ensemble" target="_top">
<polyline fill="none" stroke="black" points="514,-252 356,-252 "/>
<path fill="none" stroke="black" d="M356,-252C350,-252 344,-246 344,-240"/>
<polyline fill="none" stroke="black" points="344,-240 344,-228 "/>
<path fill="none" stroke="black" d="M344,-228C344,-222 350,-216 356,-216"/>
<polyline fill="none" stroke="black" points="356,-216 514,-216 "/>
<path fill="none" stroke="black" d="M514,-216C520,-216 526,-222 526,-228"/>
<polyline fill="none" stroke="black" points="526,-228 526,-240 "/>
<path fill="none" stroke="black" d="M526,-240C526,-246 520,-252 514,-252"/>
<text text-anchor="start" x="352.5" y="-231.233" font-family="Times Roman,serif" font-size="14.00">The canonical ensemble</text>
</a>
</g>
<!-- CANONICAL_ENSEMBLE&#45;&gt;MONTE_CARLO -->
<g id="edge14" class="edge"><title>CANONICAL_ENSEMBLE&#45;&gt;MONTE_CARLO</title>
<path fill="none" stroke="black" d="M416.849,-215.809C396.808,-196.379 362.996,-165.487 330,-144 311.602,-132.019 290.137,-121.088 270.886,-112.243"/>
<polygon fill="black" stroke="black" points="272.192,-108.993 261.637,-108.073 269.315,-115.374 272.192,-108.993"/>
</g>
<!-- INTERATOMIC_FORCES&#45;&gt;MONTE_CARLO -->
<g id="edge16" class="edge"><title>INTERATOMIC_FORCES&#45;&gt;MONTE_CARLO</title>
<path fill="none" stroke="black" d="M217,-143.831C217,-136.131 217,-126.974 217,-118.417"/>
<polygon fill="black" stroke="black" points="220.5,-118.413 217,-108.413 213.5,-118.413 220.5,-118.413"/>
</g>
</g>
</svg>
