<?xml version="1.0" encoding="UTF-8" standalone="no"?>
<!DOCTYPE svg PUBLIC "-//W3C//DTD SVG 1.1//EN"
 "http://www.w3.org/Graphics/SVG/1.1/DTD/svg11.dtd">
<!-- Generated by graphviz version 2.26.3 (20100126.1600)
 -->
<!-- Title: _anonymous_0 Pages: 1 -->
<svg width="236pt" height="188pt"
 viewBox="0.00 0.00 236.00 188.00" xmlns="http://www.w3.org/2000/svg" xmlns:xlink="http://www.w3.org/1999/xlink">
<g id="graph1" class="graph" transform="scale(1 1) rotate(0) translate(4 184)">
<title>_anonymous_0</title>
<!-- NEWTONS_LAWS -->
<g id="node1" class="node"><title>NEWTONS_LAWS</title>
<a xlink:href="NEWTONS_LAWS.html" xlink:title="Newtons Laws of Motion" target="_top">
<polyline fill="none" stroke="blue" stroke-width="2" points="196,-108 32,-108 "/>
<path fill="none" stroke="blue" stroke-width="2" d="M32,-108C26,-108 20,-102 20,-96"/>
<polyline fill="none" stroke="blue" stroke-width="2" points="20,-96 20,-84 "/>
<path fill="none" stroke="blue" stroke-width="2" d="M20,-84C20,-78 26,-72 32,-72"/>
<polyline fill="none" stroke="blue" stroke-width="2" points="32,-72 196,-72 "/>
<path fill="none" stroke="blue" stroke-width="2" d="M196,-72C202,-72 208,-78 208,-84"/>
<polyline fill="none" stroke="blue" stroke-width="2" points="208,-84 208,-96 "/>
<path fill="none" stroke="blue" stroke-width="2" d="M208,-96C208,-102 202,-108 196,-108"/>
<text text-anchor="start" x="28" y="-87.2333" font-family="Times Roman,serif" font-size="14.00">Newtons Laws of Motion</text>
</a>
</g>
<!-- MOLECULAR_DYNAMICS -->
<g id="node4" class="node"><title>MOLECULAR_DYNAMICS</title>
<a xlink:href="MOLECULAR_DYNAMICS.html" xlink:title="Molecular dynamics simulation" target="_top">
<polyline fill="none" stroke="black" points="216,-36 12,-36 "/>
<path fill="none" stroke="black" d="M12,-36C6,-36 8.28967e-14,-30 6.63173e-14,-24"/>
<polyline fill="none" stroke="black" points="6.63173e-14,-24 3.31587e-14,-12 "/>
<path fill="none" stroke="black" d="M3.31587e-14,-12C1.65793e-14,-6 6,-1.73896e-14 12,-1.70156e-14"/>
<polyline fill="none" stroke="black" points="12,-1.70156e-14 216,-4.30065e-15 "/>
<path fill="none" stroke="black" d="M216,-4.30065e-15C222,-3.92668e-15 228,-6 228,-12"/>
<polyline fill="none" stroke="black" points="228,-12 228,-24 "/>
<path fill="none" stroke="black" d="M228,-24C228,-30 222,-36 216,-36"/>
<text text-anchor="start" x="8.5" y="-15.2333" font-family="Times Roman,serif" font-size="14.00">Molecular dynamics simulation</text>
</a>
</g>
<!-- NEWTONS_LAWS&#45;&gt;MOLECULAR_DYNAMICS -->
<g id="edge4" class="edge"><title>NEWTONS_LAWS&#45;&gt;MOLECULAR_DYNAMICS</title>
<path fill="none" stroke="black" d="M114,-71.8314C114,-64.131 114,-54.9743 114,-46.4166"/>
<polygon fill="black" stroke="black" points="117.5,-46.4132 114,-36.4133 110.5,-46.4133 117.5,-46.4132"/>
</g>
<!-- DEFINITION_OF_DERIVATIVE -->
<g id="node2" class="node"><title>DEFINITION_OF_DERIVATIVE</title>
<a xlink:href="DEFINITION_OF_DERIVATIVE.html" xlink:title="Differentiation" target="_top">
<polyline fill="none" stroke="black" points="161,-180 67,-180 "/>
<path fill="none" stroke="black" d="M67,-180C61,-180 55,-174 55,-168"/>
<polyline fill="none" stroke="black" points="55,-168 55,-156 "/>
<path fill="none" stroke="black" d="M55,-156C55,-150 61,-144 67,-144"/>
<polyline fill="none" stroke="black" points="67,-144 161,-144 "/>
<path fill="none" stroke="black" d="M161,-144C167,-144 173,-150 173,-156"/>
<polyline fill="none" stroke="black" points="173,-156 173,-168 "/>
<path fill="none" stroke="black" d="M173,-168C173,-174 167,-180 161,-180"/>
<text text-anchor="start" x="63" y="-159.233" font-family="Times Roman,serif" font-size="14.00">Differentiation</text>
</a>
</g>
<!-- DEFINITION_OF_DERIVATIVE&#45;&gt;NEWTONS_LAWS -->
<g id="edge2" class="edge"><title>DEFINITION_OF_DERIVATIVE&#45;&gt;NEWTONS_LAWS</title>
<path fill="none" stroke="black" d="M114,-143.831C114,-136.131 114,-126.974 114,-118.417"/>
<polygon fill="black" stroke="black" points="117.5,-118.413 114,-108.413 110.5,-118.413 117.5,-118.413"/>
</g>
</g>
</svg>
