<?xml version="1.0" encoding="UTF-8" standalone="no"?>
<!DOCTYPE svg PUBLIC "-//W3C//DTD SVG 1.1//EN"
 "http://www.w3.org/Graphics/SVG/1.1/DTD/svg11.dtd">
<!-- Generated by graphviz version 2.36.0 (20140111.2315)
 -->
<!-- Title: %3 Pages: 1 -->
<svg width="206pt" height="188pt"
 viewBox="0.00 0.00 206.00 188.00" xmlns="http://www.w3.org/2000/svg" xmlns:xlink="http://www.w3.org/1999/xlink">
<g id="graph0" class="graph" transform="scale(1 1) rotate(0) translate(4 184)">
<title>%3</title>
<!-- NEWTONS_LAWS -->
<g id="node1" class="node"><title>NEWTONS_LAWS</title>
<g id="a_node1"><a xlink:href="NEWTONS_LAWS.html" xlink:title=" Newtons Laws of Motion " target="_top">
<path fill="none" stroke="blue" stroke-width="2" d="M169,-108C169,-108 29,-108 29,-108 23,-108 17,-102 17,-96 17,-96 17,-84 17,-84 17,-78 23,-72 29,-72 29,-72 169,-72 169,-72 175,-72 181,-78 181,-84 181,-84 181,-96 181,-96 181,-102 175,-108 169,-108"/>
<text text-anchor="start" x="25" y="-86.3" font-family="Times,serif" font-size="14.00"> Newtons Laws of Motion </text>
</a>
</g>
</g>
<!-- MOLECULAR_DYNAMICS -->
<g id="node2" class="node"><title>MOLECULAR_DYNAMICS</title>
<g id="a_node2"><a xlink:href="MOLECULAR_DYNAMICS.html" xlink:title=" Molecular dynamics simulation " target="_top">
<path fill="none" stroke="black" d="M186,-36C186,-36 12,-36 12,-36 6,-36 0,-30 0,-24 0,-24 0,-12 0,-12 0,-6 6,-0 12,-0 12,-0 186,-0 186,-0 192,-0 198,-6 198,-12 198,-12 198,-24 198,-24 198,-30 192,-36 186,-36"/>
<text text-anchor="start" x="8" y="-14.3" font-family="Times,serif" font-size="14.00"> Molecular dynamics simulation </text>
</a>
</g>
</g>
<!-- NEWTONS_LAWS&#45;&gt;MOLECULAR_DYNAMICS -->
<g id="edge1" class="edge"><title>NEWTONS_LAWS&#45;&gt;MOLECULAR_DYNAMICS</title>
<path fill="none" stroke="black" d="M99,-71.6966C99,-63.9827 99,-54.7125 99,-46.1124"/>
<polygon fill="black" stroke="black" points="102.5,-46.1043 99,-36.1043 95.5001,-46.1044 102.5,-46.1043"/>
</g>
<!-- DEFINITION_OF_DERIVATIVE -->
<g id="node3" class="node"><title>DEFINITION_OF_DERIVATIVE</title>
<g id="a_node3"><a xlink:href="DEFINITION_OF_DERIVATIVE.html" xlink:title=" Differentiation " target="_top">
<path fill="none" stroke="black" d="M139,-180C139,-180 59,-180 59,-180 53,-180 47,-174 47,-168 47,-168 47,-156 47,-156 47,-150 53,-144 59,-144 59,-144 139,-144 139,-144 145,-144 151,-150 151,-156 151,-156 151,-168 151,-168 151,-174 145,-180 139,-180"/>
<text text-anchor="start" x="55" y="-158.3" font-family="Times,serif" font-size="14.00"> Differentiation </text>
</a>
</g>
</g>
<!-- DEFINITION_OF_DERIVATIVE&#45;&gt;NEWTONS_LAWS -->
<g id="edge2" class="edge"><title>DEFINITION_OF_DERIVATIVE&#45;&gt;NEWTONS_LAWS</title>
<path fill="none" stroke="black" d="M99,-143.697C99,-135.983 99,-126.712 99,-118.112"/>
<polygon fill="black" stroke="black" points="102.5,-118.104 99,-108.104 95.5001,-118.104 102.5,-118.104"/>
</g>
</g>
</svg>
