<?xml version="1.0" encoding="UTF-8" standalone="no"?>
<!DOCTYPE svg PUBLIC "-//W3C//DTD SVG 1.1//EN"
 "http://www.w3.org/Graphics/SVG/1.1/DTD/svg11.dtd">
<!-- Generated by graphviz version 2.26.3 (20100126.1600)
 -->
<!-- Title: _anonymous_0 Pages: 1 -->
<svg width="244pt" height="188pt"
 viewBox="0.00 0.00 244.00 188.00" xmlns="http://www.w3.org/2000/svg" xmlns:xlink="http://www.w3.org/1999/xlink">
<g id="graph1" class="graph" transform="scale(1 1) rotate(0) translate(4 184)">
<title>_anonymous_0</title>
<!-- NEWTONS_LAWS -->
<g id="node1" class="node"><title>NEWTONS_LAWS</title>
<a xlink:href="NEWTONS_LAWS.html" xlink:title=" Newtons Laws of Motion " target="_top">
<polyline fill="none" stroke="blue" stroke-width="2" points="205,-108 31,-108 "/>
<path fill="none" stroke="blue" stroke-width="2" d="M31,-108C25,-108 19,-102 19,-96"/>
<polyline fill="none" stroke="blue" stroke-width="2" points="19,-96 19,-84 "/>
<path fill="none" stroke="blue" stroke-width="2" d="M19,-84C19,-78 25,-72 31,-72"/>
<polyline fill="none" stroke="blue" stroke-width="2" points="31,-72 205,-72 "/>
<path fill="none" stroke="blue" stroke-width="2" d="M205,-72C211,-72 217,-78 217,-84"/>
<polyline fill="none" stroke="blue" stroke-width="2" points="217,-84 217,-96 "/>
<path fill="none" stroke="blue" stroke-width="2" d="M217,-96C217,-102 211,-108 205,-108"/>
<text text-anchor="start" x="27.5" y="-87.2333" font-family="Times Roman,serif" font-size="14.00"> Newtons Laws of Motion </text>
</a>
</g>
<!-- MOLECULAR_DYNAMICS -->
<g id="node2" class="node"><title>MOLECULAR_DYNAMICS</title>
<a xlink:href="MOLECULAR_DYNAMICS.html" xlink:title=" Molecular dynamics simulation " target="_top">
<polyline fill="none" stroke="black" points="224,-36 12,-36 "/>
<path fill="none" stroke="black" d="M12,-36C6,-36 8.28967e-14,-30 6.63173e-14,-24"/>
<polyline fill="none" stroke="black" points="6.63173e-14,-24 3.31587e-14,-12 "/>
<path fill="none" stroke="black" d="M3.31587e-14,-12C1.65793e-14,-6 6,-1.74023e-14 12,-1.7041e-14"/>
<polyline fill="none" stroke="black" points="12,-1.7041e-14 224,-4.2753e-15 "/>
<path fill="none" stroke="black" d="M224,-4.2753e-15C230,-3.91401e-15 236,-6 236,-12"/>
<polyline fill="none" stroke="black" points="236,-12 236,-24 "/>
<path fill="none" stroke="black" d="M236,-24C236,-30 230,-36 224,-36"/>
<text text-anchor="start" x="8" y="-15.2333" font-family="Times Roman,serif" font-size="14.00"> Molecular dynamics simulation </text>
</a>
</g>
<!-- NEWTONS_LAWS&#45;&gt;MOLECULAR_DYNAMICS -->
<g id="edge2" class="edge"><title>NEWTONS_LAWS&#45;&gt;MOLECULAR_DYNAMICS</title>
<path fill="none" stroke="black" d="M118,-71.8314C118,-64.131 118,-54.9743 118,-46.4166"/>
<polygon fill="black" stroke="black" points="121.5,-46.4132 118,-36.4133 114.5,-46.4133 121.5,-46.4132"/>
</g>
<!-- DEFINITION_OF_DERIVATIVE -->
<g id="node4" class="node"><title>DEFINITION_OF_DERIVATIVE</title>
<a xlink:href="DEFINITION_OF_DERIVATIVE.html" xlink:title=" Differentiation " target="_top">
<polyline fill="none" stroke="black" points="170,-180 66,-180 "/>
<path fill="none" stroke="black" d="M66,-180C60,-180 54,-174 54,-168"/>
<polyline fill="none" stroke="black" points="54,-168 54,-156 "/>
<path fill="none" stroke="black" d="M54,-156C54,-150 60,-144 66,-144"/>
<polyline fill="none" stroke="black" points="66,-144 170,-144 "/>
<path fill="none" stroke="black" d="M170,-144C176,-144 182,-150 182,-156"/>
<polyline fill="none" stroke="black" points="182,-156 182,-168 "/>
<path fill="none" stroke="black" d="M182,-168C182,-174 176,-180 170,-180"/>
<text text-anchor="start" x="62.5" y="-159.233" font-family="Times Roman,serif" font-size="14.00"> Differentiation </text>
</a>
</g>
<!-- DEFINITION_OF_DERIVATIVE&#45;&gt;NEWTONS_LAWS -->
<g id="edge4" class="edge"><title>DEFINITION_OF_DERIVATIVE&#45;&gt;NEWTONS_LAWS</title>
<path fill="none" stroke="black" d="M118,-143.831C118,-136.131 118,-126.974 118,-118.417"/>
<polygon fill="black" stroke="black" points="121.5,-118.413 118,-108.413 114.5,-118.413 121.5,-118.413"/>
</g>
</g>
</svg>
