<?xml version="1.0" encoding="UTF-8" standalone="no"?>
<!DOCTYPE svg PUBLIC "-//W3C//DTD SVG 1.1//EN"
 "http://www.w3.org/Graphics/SVG/1.1/DTD/svg11.dtd">
<!-- Generated by graphviz version 2.28.0 (20110509.1545)
 -->
<!-- Title: _anonymous_0 Pages: 1 -->
<svg width="303pt" height="116pt"
 viewBox="0.00 0.00 303.00 116.00" xmlns="http://www.w3.org/2000/svg" xmlns:xlink="http://www.w3.org/1999/xlink">
<g id="graph1" class="graph" transform="scale(1 1) rotate(0) translate(4 112)">
<title>_anonymous_0</title>
<!-- NORMAL_RANDOM_VARIABLE -->
<g id="node1" class="node"><title>NORMAL_RANDOM_VARIABLE</title>
<a xlink:href="NORMAL_RANDOM_VARIABLE.html" xlink:title="Normal random variable" target="_top">
<polyline fill="none" stroke="blue" stroke-width="2" points="222,-36 92,-36 "/>
<path fill="none" stroke="blue" stroke-width="2" d="M92,-36C86,-36 80,-30 80,-24"/>
<polyline fill="none" stroke="blue" stroke-width="2" points="80,-24 80,-12 "/>
<path fill="none" stroke="blue" stroke-width="2" d="M80,-12C80,-6 86,-0 92,-0"/>
<polyline fill="none" stroke="blue" stroke-width="2" points="92,-0 222,-0 "/>
<path fill="none" stroke="blue" stroke-width="2" d="M222,-0C228,-0 234,-6 234,-12"/>
<polyline fill="none" stroke="blue" stroke-width="2" points="234,-12 234,-24 "/>
<path fill="none" stroke="blue" stroke-width="2" d="M234,-24C234,-30 228,-36 222,-36"/>
<text text-anchor="start" x="88.5" y="-12.5" font-family="Times,serif" font-size="14.00">Normal random variable</text>
</a>
</g>
<!-- CENTRAL_LIMIT_THEOREM -->
<g id="node2" class="node"><title>CENTRAL_LIMIT_THEOREM</title>
<a xlink:href="CENTRAL_LIMIT_THEOREM.html" xlink:title="The central limit theorem" target="_top">
<polyline fill="none" stroke="black" points="146.25,-108 11.75,-108 "/>
<path fill="none" stroke="black" d="M11.75,-108C5.75,-108 -0.25,-102 -0.25,-96"/>
<polyline fill="none" stroke="black" points="-0.25,-96 -0.25,-84 "/>
<path fill="none" stroke="black" d="M-0.25,-84C-0.25,-78 5.75,-72 11.75,-72"/>
<polyline fill="none" stroke="black" points="11.75,-72 146.25,-72 "/>
<path fill="none" stroke="black" d="M146.25,-72C152.25,-72 158.25,-78 158.25,-84"/>
<polyline fill="none" stroke="black" points="158.25,-84 158.25,-96 "/>
<path fill="none" stroke="black" d="M158.25,-96C158.25,-102 152.25,-108 146.25,-108"/>
<text text-anchor="start" x="8" y="-84.5" font-family="Times,serif" font-size="14.00">The central limit theorem</text>
</a>
</g>
<!-- CENTRAL_LIMIT_THEOREM&#45;&gt;NORMAL_RANDOM_VARIABLE -->
<g id="edge2" class="edge"><title>CENTRAL_LIMIT_THEOREM&#45;&gt;NORMAL_RANDOM_VARIABLE</title>
<path fill="none" stroke="black" d="M98.2809,-71.6966C107.915,-63.0503 119.729,-52.4486 130.227,-43.027"/>
<polygon fill="black" stroke="black" points="132.836,-45.3883 137.941,-36.1043 128.161,-40.1786 132.836,-45.3883"/>
</g>
<!-- RANDOM_VARIABLES -->
<g id="node4" class="node"><title>RANDOM_VARIABLES</title>
<a xlink:href="RANDOM_VARIABLES.html" xlink:title="Random variables" target="_top">
<polyline fill="none" stroke="black" points="283,-108 189,-108 "/>
<path fill="none" stroke="black" d="M189,-108C183,-108 177,-102 177,-96"/>
<polyline fill="none" stroke="black" points="177,-96 177,-84 "/>
<path fill="none" stroke="black" d="M177,-84C177,-78 183,-72 189,-72"/>
<polyline fill="none" stroke="black" points="189,-72 283,-72 "/>
<path fill="none" stroke="black" d="M283,-72C289,-72 295,-78 295,-84"/>
<polyline fill="none" stroke="black" points="295,-84 295,-96 "/>
<path fill="none" stroke="black" d="M295,-96C295,-102 289,-108 283,-108"/>
<text text-anchor="start" x="185.5" y="-84.5" font-family="Times,serif" font-size="14.00">Random variables</text>
</a>
</g>
<!-- RANDOM_VARIABLES&#45;&gt;NORMAL_RANDOM_VARIABLE -->
<g id="edge4" class="edge"><title>RANDOM_VARIABLES&#45;&gt;NORMAL_RANDOM_VARIABLE</title>
<path fill="none" stroke="black" d="M216.472,-71.6966C206.618,-62.9655 194.514,-52.2405 183.804,-42.7503"/>
<polygon fill="black" stroke="black" points="186.109,-40.1166 176.303,-36.1043 181.467,-45.3558 186.109,-40.1166"/>
</g>
</g>
</svg>
