<?xml version="1.0" encoding="UTF-8" standalone="no"?>
<!DOCTYPE svg PUBLIC "-//W3C//DTD SVG 1.1//EN"
 "http://www.w3.org/Graphics/SVG/1.1/DTD/svg11.dtd">
<!-- Generated by graphviz version 2.26.3 (20100126.1600)
 -->
<!-- Title: _anonymous_0 Pages: 1 -->
<svg width="440pt" height="188pt"
 viewBox="0.00 0.00 440.00 188.00" xmlns="http://www.w3.org/2000/svg" xmlns:xlink="http://www.w3.org/1999/xlink">
<g id="graph1" class="graph" transform="scale(1 1) rotate(0) translate(4 184)">
<title>_anonymous_0</title>
<!-- NORMAL_RANDOM_VARIABLE -->
<g id="node1" class="node"><title>NORMAL_RANDOM_VARIABLE</title>
<a xlink:href="NORMAL_RANDOM_VARIABLE.html" xlink:title="Normal random variable" target="_top">
<polyline fill="none" stroke="blue" stroke-width="2" points="268,-180 110,-180 "/>
<path fill="none" stroke="blue" stroke-width="2" d="M110,-180C104,-180 98,-174 98,-168"/>
<polyline fill="none" stroke="blue" stroke-width="2" points="98,-168 98,-156 "/>
<path fill="none" stroke="blue" stroke-width="2" d="M98,-156C98,-150 104,-144 110,-144"/>
<polyline fill="none" stroke="blue" stroke-width="2" points="110,-144 268,-144 "/>
<path fill="none" stroke="blue" stroke-width="2" d="M268,-144C274,-144 280,-150 280,-156"/>
<polyline fill="none" stroke="blue" stroke-width="2" points="280,-156 280,-168 "/>
<path fill="none" stroke="blue" stroke-width="2" d="M280,-168C280,-174 274,-180 268,-180"/>
<text text-anchor="start" x="106" y="-159.233" font-family="Times Roman,serif" font-size="14.00">Normal random variable</text>
</a>
</g>
<!-- CENTRAL_LIMIT_THEOREM -->
<g id="node4" class="node"><title>CENTRAL_LIMIT_THEOREM</title>
<a xlink:href="CENTRAL_LIMIT_THEOREM.html" xlink:title="The central limit theorem" target="_top">
<polyline fill="none" stroke="black" points="182,-108 12,-108 "/>
<path fill="none" stroke="black" d="M12,-108C6,-108 4.73695e-14,-102 3.78956e-14,-96"/>
<polyline fill="none" stroke="black" points="3.78956e-14,-96 1.89478e-14,-84 "/>
<path fill="none" stroke="black" d="M1.89478e-14,-84C9.4739e-15,-78 6,-72 12,-72"/>
<polyline fill="none" stroke="black" points="12,-72 182,-72 "/>
<path fill="none" stroke="black" d="M182,-72C188,-72 194,-78 194,-84"/>
<polyline fill="none" stroke="black" points="194,-84 194,-96 "/>
<path fill="none" stroke="black" d="M194,-96C194,-102 188,-108 182,-108"/>
<text text-anchor="start" x="8.5" y="-87.2333" font-family="Times Roman,serif" font-size="14.00">The central limit theorem</text>
</a>
</g>
<!-- NORMAL_RANDOM_VARIABLE&#45;&gt;CENTRAL_LIMIT_THEOREM -->
<g id="edge4" class="edge"><title>NORMAL_RANDOM_VARIABLE&#45;&gt;CENTRAL_LIMIT_THEOREM</title>
<path fill="none" stroke="black" d="M159.832,-143.831C147.636,-134.963 133.675,-124.164 121.959,-114.572"/>
<polygon fill="black" stroke="black" points="124.182,-111.868 114.256,-108.163 119.705,-117.249 124.182,-111.868"/>
</g>
<!-- RANDOM_VARIABLES -->
<g id="node2" class="node"><title>RANDOM_VARIABLES</title>
<a xlink:href="RANDOM_VARIABLES.html" xlink:title="Random variables" target="_top">
<polyline fill="none" stroke="black" points="340,-108 224,-108 "/>
<path fill="none" stroke="black" d="M224,-108C218,-108 212,-102 212,-96"/>
<polyline fill="none" stroke="black" points="212,-96 212,-84 "/>
<path fill="none" stroke="black" d="M212,-84C212,-78 218,-72 224,-72"/>
<polyline fill="none" stroke="black" points="224,-72 340,-72 "/>
<path fill="none" stroke="black" d="M340,-72C346,-72 352,-78 352,-84"/>
<polyline fill="none" stroke="black" points="352,-84 352,-96 "/>
<path fill="none" stroke="black" d="M352,-96C352,-102 346,-108 340,-108"/>
<text text-anchor="start" x="220.5" y="-87.2333" font-family="Times Roman,serif" font-size="14.00">Random variables</text>
</a>
</g>
<!-- RANDOM_VARIABLES&#45;&gt;NORMAL_RANDOM_VARIABLE -->
<g id="edge2" class="edge"><title>RANDOM_VARIABLES&#45;&gt;NORMAL_RANDOM_VARIABLE</title>
<path fill="none" stroke="black" d="M258.54,-108.163C246.976,-117.115 232.868,-128.037 220.39,-137.698"/>
<polygon fill="black" stroke="black" points="218.232,-134.942 212.468,-143.831 222.518,-140.477 218.232,-134.942"/>
</g>
<!-- INTEGRATION_BY_SUBSTITUTION -->
<g id="node7" class="node"><title>INTEGRATION_BY_SUBSTITUTION</title>
<a xlink:href="INTEGRATION_BY_SUBSTITUTION.html" xlink:title="Integration by substitution" target="_top">
<polyline fill="none" stroke="black" points="420,-36 242,-36 "/>
<path fill="none" stroke="black" d="M242,-36C236,-36 230,-30 230,-24"/>
<polyline fill="none" stroke="black" points="230,-24 230,-12 "/>
<path fill="none" stroke="black" d="M230,-12C230,-6 236,-1.73415e-14 242,-1.69194e-14"/>
<polyline fill="none" stroke="black" points="242,-1.69194e-14 420,-4.39692e-15 "/>
<path fill="none" stroke="black" d="M420,-4.39692e-15C426,-3.97482e-15 432,-6 432,-12"/>
<polyline fill="none" stroke="black" points="432,-12 432,-24 "/>
<path fill="none" stroke="black" d="M432,-24C432,-30 426,-36 420,-36"/>
<text text-anchor="start" x="238" y="-15.2333" font-family="Times Roman,serif" font-size="14.00">Integration by substitution</text>
</a>
</g>
<!-- RANDOM_VARIABLES&#45;&gt;INTEGRATION_BY_SUBSTITUTION -->
<!-- CENTRAL_LIMIT_THEOREM&#45;&gt;NORMAL_RANDOM_VARIABLE -->
<g id="edge6" class="edge"><title>CENTRAL_LIMIT_THEOREM&#45;&gt;NORMAL_RANDOM_VARIABLE</title>
<path fill="none" stroke="black" d="M126.16,-108.163C138.355,-117.03 152.316,-127.829 164.033,-137.422"/>
<polygon fill="black" stroke="black" points="161.811,-140.126 171.737,-143.831 166.288,-134.745 161.811,-140.126"/>
</g>
<!-- INTEGRATION_BY_SUBSTITUTION&#45;&gt;NORMAL_RANDOM_VARIABLE -->
<g id="edge8" class="edge"><title>INTEGRATION_BY_SUBSTITUTION&#45;&gt;NORMAL_RANDOM_VARIABLE</title>
<path fill="none" stroke="black" d="M346.032,-36.0801C360.177,-55.4145 376.985,-86.2268 361,-108 351.349,-121.146 321.052,-132.538 288.518,-141.425"/>
<polygon fill="black" stroke="black" points="287.61,-138.044 278.836,-143.983 289.398,-144.812 287.61,-138.044"/>
</g>
</g>
</svg>
