<?xml version="1.0" encoding="UTF-8" standalone="no"?>
<!DOCTYPE svg PUBLIC "-//W3C//DTD SVG 1.1//EN"
 "http://www.w3.org/Graphics/SVG/1.1/DTD/svg11.dtd">
<!-- Generated by graphviz version 2.36.0 (20140111.2315)
 -->
<!-- Title: %3 Pages: 1 -->
<svg width="315pt" height="188pt"
 viewBox="0.00 0.00 315.00 188.00" xmlns="http://www.w3.org/2000/svg" xmlns:xlink="http://www.w3.org/1999/xlink">
<g id="graph0" class="graph" transform="scale(1 1) rotate(0) translate(4 184)">
<title>%3</title>
<!-- NORMAL_RANDOM_VARIABLE -->
<g id="node1" class="node"><title>NORMAL_RANDOM_VARIABLE</title>
<g id="a_node1"><a xlink:href="NORMAL_RANDOM_VARIABLE.html" xlink:title=" Normal random variable " target="_top">
<path fill="none" stroke="blue" stroke-width="2" d="M184.25,-108C184.25,-108 49.75,-108 49.75,-108 43.75,-108 37.75,-102 37.75,-96 37.75,-96 37.75,-84 37.75,-84 37.75,-78 43.75,-72 49.75,-72 49.75,-72 184.25,-72 184.25,-72 190.25,-72 196.25,-78 196.25,-84 196.25,-84 196.25,-96 196.25,-96 196.25,-102 190.25,-108 184.25,-108"/>
<text text-anchor="start" x="45.5" y="-86.3" font-family="Times,serif" font-size="14.00"> Normal random variable </text>
</a>
</g>
</g>
<!-- CENTRAL_LIMIT_THEOREM -->
<g id="node4" class="node"><title>CENTRAL_LIMIT_THEOREM</title>
<g id="a_node4"><a xlink:href="CENTRAL_LIMIT_THEOREM.html" xlink:title=" The central limit theorem " target="_top">
<path fill="none" stroke="black" d="M187,-36C187,-36 47,-36 47,-36 41,-36 35,-30 35,-24 35,-24 35,-12 35,-12 35,-6 41,-0 47,-0 47,-0 187,-0 187,-0 193,-0 199,-6 199,-12 199,-12 199,-24 199,-24 199,-30 193,-36 187,-36"/>
<text text-anchor="start" x="43" y="-14.3" font-family="Times,serif" font-size="14.00"> The central limit theorem </text>
</a>
</g>
</g>
<!-- NORMAL_RANDOM_VARIABLE&#45;&gt;CENTRAL_LIMIT_THEOREM -->
<g id="edge3" class="edge"><title>NORMAL_RANDOM_VARIABLE&#45;&gt;CENTRAL_LIMIT_THEOREM</title>
<path fill="none" stroke="black" d="M111.084,-71.6966C110.289,-63.9827 110.062,-54.7125 110.405,-46.1124"/>
<polygon fill="black" stroke="black" points="113.898,-46.3243 111.105,-36.1043 106.915,-45.8356 113.898,-46.3243"/>
</g>
<!-- INTEGRATION_BY_SUBSTITUTION -->
<g id="node2" class="node"><title>INTEGRATION_BY_SUBSTITUTION</title>
<g id="a_node2"><a xlink:href="INTEGRATION_BY_SUBSTITUTION.html" xlink:title=" Integration by substitution " target="_top">
<path fill="none" stroke="black" d="M295.25,-180C295.25,-180 152.75,-180 152.75,-180 146.75,-180 140.75,-174 140.75,-168 140.75,-168 140.75,-156 140.75,-156 140.75,-150 146.75,-144 152.75,-144 152.75,-144 295.25,-144 295.25,-144 301.25,-144 307.25,-150 307.25,-156 307.25,-156 307.25,-168 307.25,-168 307.25,-174 301.25,-180 295.25,-180"/>
<text text-anchor="start" x="148.5" y="-158.3" font-family="Times,serif" font-size="14.00"> Integration by substitution </text>
</a>
</g>
</g>
<!-- INTEGRATION_BY_SUBSTITUTION&#45;&gt;NORMAL_RANDOM_VARIABLE -->
<g id="edge1" class="edge"><title>INTEGRATION_BY_SUBSTITUTION&#45;&gt;NORMAL_RANDOM_VARIABLE</title>
<path fill="none" stroke="black" d="M197.825,-143.876C183.964,-134.808 166.759,-123.552 151.789,-113.759"/>
<polygon fill="black" stroke="black" points="153.56,-110.735 143.276,-108.19 149.728,-116.593 153.56,-110.735"/>
</g>
<!-- INTEGRATION_BY_SUBSTITUTION&#45;&gt;CENTRAL_LIMIT_THEOREM -->
<!-- RANDOM_VARIABLES -->
<g id="node3" class="node"><title>RANDOM_VARIABLES</title>
<g id="a_node3"><a xlink:href="RANDOM_VARIABLES.html" xlink:title=" Random variables " target="_top">
<path fill="none" stroke="black" d="M110.25,-180C110.25,-180 11.75,-180 11.75,-180 5.75,-180 -0.25,-174 -0.25,-168 -0.25,-168 -0.25,-156 -0.25,-156 -0.25,-150 5.75,-144 11.75,-144 11.75,-144 110.25,-144 110.25,-144 116.25,-144 122.25,-150 122.25,-156 122.25,-156 122.25,-168 122.25,-168 122.25,-174 116.25,-180 110.25,-180"/>
<text text-anchor="start" x="7.5" y="-158.3" font-family="Times,serif" font-size="14.00"> Random variables </text>
</a>
</g>
</g>
<!-- RANDOM_VARIABLES&#45;&gt;NORMAL_RANDOM_VARIABLE -->
<g id="edge2" class="edge"><title>RANDOM_VARIABLES&#45;&gt;NORMAL_RANDOM_VARIABLE</title>
<path fill="none" stroke="black" d="M74.8427,-143.697C81.4885,-135.389 89.5784,-125.277 96.8874,-116.141"/>
<polygon fill="black" stroke="black" points="99.8026,-118.099 103.317,-108.104 94.3365,-113.727 99.8026,-118.099"/>
</g>
<!-- CENTRAL_LIMIT_THEOREM&#45;&gt;NORMAL_RANDOM_VARIABLE -->
<g id="edge4" class="edge"><title>CENTRAL_LIMIT_THEOREM&#45;&gt;NORMAL_RANDOM_VARIABLE</title>
<path fill="none" stroke="black" d="M122.895,-36.1043C123.701,-43.7913 123.937,-53.0537 123.604,-61.6651"/>
<polygon fill="black" stroke="black" points="120.109,-61.4805 122.916,-71.6966 127.092,-61.9597 120.109,-61.4805"/>
</g>
</g>
</svg>
