<?xml version="1.0" encoding="UTF-8" standalone="no"?>
<!DOCTYPE svg PUBLIC "-//W3C//DTD SVG 1.1//EN"
 "http://www.w3.org/Graphics/SVG/1.1/DTD/svg11.dtd">
<!-- Generated by graphviz version 2.26.3 (20100126.1600)
 -->
<!-- Title: _anonymous_0 Pages: 1 -->
<svg width="386pt" height="188pt"
 viewBox="0.00 0.00 386.00 188.00" xmlns="http://www.w3.org/2000/svg" xmlns:xlink="http://www.w3.org/1999/xlink">
<g id="graph1" class="graph" transform="scale(1 1) rotate(0) translate(4 184)">
<title>_anonymous_0</title>
<!-- NORMAL_RANDOM_VARIABLE -->
<g id="node1" class="node"><title>NORMAL_RANDOM_VARIABLE</title>
<a xlink:href="NORMAL_RANDOM_VARIABLE.html" xlink:title=" Normal random variable " target="_top">
<polyline fill="none" stroke="blue" stroke-width="2" points="264,-108 96,-108 "/>
<path fill="none" stroke="blue" stroke-width="2" d="M96,-108C90,-108 84,-102 84,-96"/>
<polyline fill="none" stroke="blue" stroke-width="2" points="84,-96 84,-84 "/>
<path fill="none" stroke="blue" stroke-width="2" d="M84,-84C84,-78 90,-72 96,-72"/>
<polyline fill="none" stroke="blue" stroke-width="2" points="96,-72 264,-72 "/>
<path fill="none" stroke="blue" stroke-width="2" d="M264,-72C270,-72 276,-78 276,-84"/>
<polyline fill="none" stroke="blue" stroke-width="2" points="276,-84 276,-96 "/>
<path fill="none" stroke="blue" stroke-width="2" d="M276,-96C276,-102 270,-108 264,-108"/>
<text text-anchor="start" x="92.5" y="-87.2333" font-family="Times Roman,serif" font-size="14.00"> Normal random variable </text>
</a>
</g>
<!-- CENTRAL_LIMIT_THEOREM -->
<g id="node6" class="node"><title>CENTRAL_LIMIT_THEOREM</title>
<a xlink:href="CENTRAL_LIMIT_THEOREM.html" xlink:title=" The central limit theorem " target="_top">
<polyline fill="none" stroke="black" points="269,-36 91,-36 "/>
<path fill="none" stroke="black" d="M91,-36C85,-36 79,-30 79,-24"/>
<polyline fill="none" stroke="black" points="79,-24 79,-12 "/>
<path fill="none" stroke="black" d="M79,-12C79,-6 85,-1.73415e-14 91,-1.69194e-14"/>
<polyline fill="none" stroke="black" points="91,-1.69194e-14 269,-4.39692e-15 "/>
<path fill="none" stroke="black" d="M269,-4.39692e-15C275,-3.97482e-15 281,-6 281,-12"/>
<polyline fill="none" stroke="black" points="281,-12 281,-24 "/>
<path fill="none" stroke="black" d="M281,-24C281,-30 275,-36 269,-36"/>
<text text-anchor="start" x="87" y="-15.2333" font-family="Times Roman,serif" font-size="14.00"> The central limit theorem </text>
</a>
</g>
<!-- NORMAL_RANDOM_VARIABLE&#45;&gt;CENTRAL_LIMIT_THEOREM -->
<g id="edge6" class="edge"><title>NORMAL_RANDOM_VARIABLE&#45;&gt;CENTRAL_LIMIT_THEOREM</title>
<path fill="none" stroke="black" d="M174.048,-71.8314C173.297,-64.131 173.076,-54.9743 173.385,-46.4166"/>
<polygon fill="black" stroke="black" points="176.879,-46.6161 174.024,-36.4133 169.893,-46.1697 176.879,-46.6161"/>
</g>
<!-- RANDOM_VARIABLES -->
<g id="node2" class="node"><title>RANDOM_VARIABLES</title>
<a xlink:href="RANDOM_VARIABLES.html" xlink:title=" Random variables " target="_top">
<polyline fill="none" stroke="black" points="366,-180 242,-180 "/>
<path fill="none" stroke="black" d="M242,-180C236,-180 230,-174 230,-168"/>
<polyline fill="none" stroke="black" points="230,-168 230,-156 "/>
<path fill="none" stroke="black" d="M230,-156C230,-150 236,-144 242,-144"/>
<polyline fill="none" stroke="black" points="242,-144 366,-144 "/>
<path fill="none" stroke="black" d="M366,-144C372,-144 378,-150 378,-156"/>
<polyline fill="none" stroke="black" points="378,-156 378,-168 "/>
<path fill="none" stroke="black" d="M378,-168C378,-174 372,-180 366,-180"/>
<text text-anchor="start" x="238" y="-159.233" font-family="Times Roman,serif" font-size="14.00"> Random variables </text>
</a>
</g>
<!-- RANDOM_VARIABLES&#45;&gt;NORMAL_RANDOM_VARIABLE -->
<g id="edge2" class="edge"><title>RANDOM_VARIABLES&#45;&gt;NORMAL_RANDOM_VARIABLE</title>
<path fill="none" stroke="black" d="M272.71,-143.831C256.702,-134.537 237.041,-123.121 219.951,-113.197"/>
<polygon fill="black" stroke="black" points="221.686,-110.157 211.28,-108.163 218.171,-116.211 221.686,-110.157"/>
</g>
<!-- RANDOM_VARIABLES&#45;&gt;CENTRAL_LIMIT_THEOREM -->
<!-- INTEGRATION_BY_SUBSTITUTION -->
<g id="node4" class="node"><title>INTEGRATION_BY_SUBSTITUTION</title>
<a xlink:href="INTEGRATION_BY_SUBSTITUTION.html" xlink:title=" Integration by substitution " target="_top">
<polyline fill="none" stroke="black" points="200,-180 12,-180 "/>
<path fill="none" stroke="black" d="M12,-180C6,-180 5.92119e-14,-174 4.73695e-14,-168"/>
<polyline fill="none" stroke="black" points="4.73695e-14,-168 2.36848e-14,-156 "/>
<path fill="none" stroke="black" d="M2.36848e-14,-156C1.18424e-14,-150 6,-144 12,-144"/>
<polyline fill="none" stroke="black" points="12,-144 200,-144 "/>
<path fill="none" stroke="black" d="M200,-144C206,-144 212,-150 212,-156"/>
<polyline fill="none" stroke="black" points="212,-156 212,-168 "/>
<path fill="none" stroke="black" d="M212,-168C212,-174 206,-180 200,-180"/>
<text text-anchor="start" x="8.5" y="-159.233" font-family="Times Roman,serif" font-size="14.00"> Integration by substitution </text>
</a>
</g>
<!-- INTEGRATION_BY_SUBSTITUTION&#45;&gt;NORMAL_RANDOM_VARIABLE -->
<g id="edge4" class="edge"><title>INTEGRATION_BY_SUBSTITUTION&#45;&gt;NORMAL_RANDOM_VARIABLE</title>
<path fill="none" stroke="black" d="M124.673,-143.831C133.525,-135.219 144.249,-124.785 153.889,-115.405"/>
<polygon fill="black" stroke="black" points="156.606,-117.645 161.333,-108.163 151.725,-112.628 156.606,-117.645"/>
</g>
<!-- CENTRAL_LIMIT_THEOREM&#45;&gt;NORMAL_RANDOM_VARIABLE -->
<g id="edge8" class="edge"><title>CENTRAL_LIMIT_THEOREM&#45;&gt;NORMAL_RANDOM_VARIABLE</title>
<path fill="none" stroke="black" d="M185.976,-36.4133C186.707,-44.0593 186.92,-53.1084 186.615,-61.5726"/>
<polygon fill="black" stroke="black" points="183.105,-61.6264 185.952,-71.8314 190.09,-62.078 183.105,-61.6264"/>
</g>
</g>
</svg>
