<?xml version="1.0" encoding="UTF-8" standalone="no"?>
<!DOCTYPE svg PUBLIC "-//W3C//DTD SVG 1.1//EN"
 "http://www.w3.org/Graphics/SVG/1.1/DTD/svg11.dtd">
<!-- Generated by graphviz version 2.36.0 (20140111.2315)
 -->
<!-- Title: %3 Pages: 1 -->
<svg width="380pt" height="188pt"
 viewBox="0.00 0.00 380.00 188.00" xmlns="http://www.w3.org/2000/svg" xmlns:xlink="http://www.w3.org/1999/xlink">
<g id="graph0" class="graph" transform="scale(1 1) rotate(0) translate(4 184)">
<title>%3</title>
<!-- NORMAL_RANDOM_VARIABLE -->
<g id="node1" class="node"><title>NORMAL_RANDOM_VARIABLE</title>
<g id="a_node1"><a xlink:href="NORMAL_RANDOM_VARIABLE.html" xlink:title=" Normal random variable " target="_top">
<path fill="none" stroke="blue" stroke-width="2" d="M230.25,-180C230.25,-180 95.75,-180 95.75,-180 89.75,-180 83.75,-174 83.75,-168 83.75,-168 83.75,-156 83.75,-156 83.75,-150 89.75,-144 95.75,-144 95.75,-144 230.25,-144 230.25,-144 236.25,-144 242.25,-150 242.25,-156 242.25,-156 242.25,-168 242.25,-168 242.25,-174 236.25,-180 230.25,-180"/>
<text text-anchor="start" x="91.5" y="-158.3" font-family="Times,serif" font-size="14.00"> Normal random variable </text>
</a>
</g>
</g>
<!-- CENTRAL_LIMIT_THEOREM -->
<g id="node3" class="node"><title>CENTRAL_LIMIT_THEOREM</title>
<g id="a_node3"><a xlink:href="CENTRAL_LIMIT_THEOREM.html" xlink:title=" The central limit theorem " target="_top">
<path fill="none" stroke="black" d="M152,-108C152,-108 12,-108 12,-108 6,-108 0,-102 0,-96 0,-96 0,-84 0,-84 0,-78 6,-72 12,-72 12,-72 152,-72 152,-72 158,-72 164,-78 164,-84 164,-84 164,-96 164,-96 164,-102 158,-108 152,-108"/>
<text text-anchor="start" x="8" y="-86.3" font-family="Times,serif" font-size="14.00"> The central limit theorem </text>
</a>
</g>
</g>
<!-- NORMAL_RANDOM_VARIABLE&#45;&gt;CENTRAL_LIMIT_THEOREM -->
<g id="edge2" class="edge"><title>NORMAL_RANDOM_VARIABLE&#45;&gt;CENTRAL_LIMIT_THEOREM</title>
<path fill="none" stroke="black" d="M137.062,-143.697C126.165,-135.05 113.72,-124.449 103.357,-115.027"/>
<polygon fill="black" stroke="black" points="105.608,-112.341 95.8971,-108.104 100.846,-117.472 105.608,-112.341"/>
</g>
<!-- RANDOM_VARIABLES -->
<g id="node2" class="node"><title>RANDOM_VARIABLES</title>
<g id="a_node2"><a xlink:href="RANDOM_VARIABLES.html" xlink:title=" Random variables " target="_top">
<path fill="none" stroke="black" d="M293.25,-108C293.25,-108 194.75,-108 194.75,-108 188.75,-108 182.75,-102 182.75,-96 182.75,-96 182.75,-84 182.75,-84 182.75,-78 188.75,-72 194.75,-72 194.75,-72 293.25,-72 293.25,-72 299.25,-72 305.25,-78 305.25,-84 305.25,-84 305.25,-96 305.25,-96 305.25,-102 299.25,-108 293.25,-108"/>
<text text-anchor="start" x="190.5" y="-86.3" font-family="Times,serif" font-size="14.00"> Random variables </text>
</a>
</g>
</g>
<!-- RANDOM_VARIABLES&#45;&gt;NORMAL_RANDOM_VARIABLE -->
<g id="edge1" class="edge"><title>RANDOM_VARIABLES&#45;&gt;NORMAL_RANDOM_VARIABLE</title>
<path fill="none" stroke="black" d="M224.208,-108.104C214.14,-116.805 201.737,-127.524 190.733,-137.033"/>
<polygon fill="black" stroke="black" points="188.3,-134.51 183.022,-143.697 192.877,-139.806 188.3,-134.51"/>
</g>
<!-- INTEGRATION_BY_SUBSTITUTION -->
<g id="node4" class="node"><title>INTEGRATION_BY_SUBSTITUTION</title>
<g id="a_node4"><a xlink:href="INTEGRATION_BY_SUBSTITUTION.html" xlink:title=" Integration by substitution " target="_top">
<path fill="none" stroke="black" d="M360.25,-36C360.25,-36 217.75,-36 217.75,-36 211.75,-36 205.75,-30 205.75,-24 205.75,-24 205.75,-12 205.75,-12 205.75,-6 211.75,-0 217.75,-0 217.75,-0 360.25,-0 360.25,-0 366.25,-0 372.25,-6 372.25,-12 372.25,-12 372.25,-24 372.25,-24 372.25,-30 366.25,-36 360.25,-36"/>
<text text-anchor="start" x="213.5" y="-14.3" font-family="Times,serif" font-size="14.00"> Integration by substitution </text>
</a>
</g>
</g>
<!-- RANDOM_VARIABLES&#45;&gt;INTEGRATION_BY_SUBSTITUTION -->
<!-- CENTRAL_LIMIT_THEOREM&#45;&gt;NORMAL_RANDOM_VARIABLE -->
<g id="edge3" class="edge"><title>CENTRAL_LIMIT_THEOREM&#45;&gt;NORMAL_RANDOM_VARIABLE</title>
<path fill="none" stroke="black" d="M107.687,-108.104C118.56,-116.72 131.008,-127.316 141.404,-136.755"/>
<polygon fill="black" stroke="black" points="139.18,-139.466 148.893,-143.697 143.938,-134.332 139.18,-139.466"/>
</g>
<!-- INTEGRATION_BY_SUBSTITUTION&#45;&gt;NORMAL_RANDOM_VARIABLE -->
<g id="edge4" class="edge"><title>INTEGRATION_BY_SUBSTITUTION&#45;&gt;NORMAL_RANDOM_VARIABLE</title>
<path fill="none" stroke="black" d="M301.81,-36.2065C314.321,-55.2952 329.407,-86.2644 314,-108 299.455,-128.519 276.315,-141.154 252.477,-148.915"/>
<polygon fill="black" stroke="black" points="251.191,-145.646 242.605,-151.853 253.188,-152.355 251.191,-145.646"/>
</g>
</g>
</svg>
