<?xml version="1.0" encoding="UTF-8" standalone="no"?>
<!DOCTYPE svg PUBLIC "-//W3C//DTD SVG 1.1//EN"
 "http://www.w3.org/Graphics/SVG/1.1/DTD/svg11.dtd">
<!-- Generated by graphviz version 2.26.3 (20100126.1600)
 -->
<!-- Title: _anonymous_0 Pages: 1 -->
<svg width="399pt" height="188pt"
 viewBox="0.00 0.00 399.00 188.00" xmlns="http://www.w3.org/2000/svg" xmlns:xlink="http://www.w3.org/1999/xlink">
<g id="graph1" class="graph" transform="scale(1 1) rotate(0) translate(4 184)">
<title>_anonymous_0</title>
<!-- NORMAL_RANDOM_VARIABLE -->
<g id="node1" class="node"><title>NORMAL_RANDOM_VARIABLE</title>
<a xlink:href="NORMAL_RANDOM_VARIABLE.html" xlink:title="Normal random variable" target="_top">
<polyline fill="none" stroke="blue" stroke-width="2" points="244,-36 86,-36 "/>
<path fill="none" stroke="blue" stroke-width="2" d="M86,-36C80,-36 74,-30 74,-24"/>
<polyline fill="none" stroke="blue" stroke-width="2" points="74,-24 74,-12 "/>
<path fill="none" stroke="blue" stroke-width="2" d="M74,-12C74,-6 80,-1.72951e-14 86,-1.68266e-14"/>
<polyline fill="none" stroke="blue" stroke-width="2" points="86,-1.68266e-14 244,-4.48969e-15 "/>
<path fill="none" stroke="blue" stroke-width="2" d="M244,-4.48969e-15C250,-4.0212e-15 256,-6 256,-12"/>
<polyline fill="none" stroke="blue" stroke-width="2" points="256,-12 256,-24 "/>
<path fill="none" stroke="blue" stroke-width="2" d="M256,-24C256,-30 250,-36 244,-36"/>
<text text-anchor="start" x="82" y="-15.2333" font-family="Times Roman,serif" font-size="14.00">Normal random variable</text>
</a>
</g>
<!-- RANDOM_VARIABLES -->
<g id="node2" class="node"><title>RANDOM_VARIABLES</title>
<a xlink:href="RANDOM_VARIABLES.html" xlink:title="Random variables" target="_top">
<polyline fill="none" stroke="black" points="128,-180 12,-180 "/>
<path fill="none" stroke="black" d="M12,-180C6,-180 5.92119e-14,-174 4.73695e-14,-168"/>
<polyline fill="none" stroke="black" points="4.73695e-14,-168 2.36848e-14,-156 "/>
<path fill="none" stroke="black" d="M2.36848e-14,-156C1.18424e-14,-150 6,-144 12,-144"/>
<polyline fill="none" stroke="black" points="12,-144 128,-144 "/>
<path fill="none" stroke="black" d="M128,-144C134,-144 140,-150 140,-156"/>
<polyline fill="none" stroke="black" points="140,-156 140,-168 "/>
<path fill="none" stroke="black" d="M140,-168C140,-174 134,-180 128,-180"/>
<text text-anchor="start" x="8.5" y="-159.233" font-family="Times Roman,serif" font-size="14.00">Random variables</text>
</a>
</g>
<!-- RANDOM_VARIABLES&#45;&gt;NORMAL_RANDOM_VARIABLE -->
<g id="edge2" class="edge"><title>RANDOM_VARIABLES&#45;&gt;NORMAL_RANDOM_VARIABLE</title>
<path fill="none" stroke="black" d="M61.3915,-143.658C53.7183,-124.382 45.5928,-93.8768 59,-72 67.1888,-58.6382 79.8357,-48.4533 93.5787,-40.7357"/>
<polygon fill="black" stroke="black" points="95.4508,-43.7082 102.732,-36.012 92.2406,-37.4877 95.4508,-43.7082"/>
</g>
<!-- CENTRAL_LIMIT_THEOREM -->
<g id="node6" class="node"><title>CENTRAL_LIMIT_THEOREM</title>
<a xlink:href="CENTRAL_LIMIT_THEOREM.html" xlink:title="The central limit theorem" target="_top">
<polyline fill="none" stroke="black" points="250,-108 80,-108 "/>
<path fill="none" stroke="black" d="M80,-108C74,-108 68,-102 68,-96"/>
<polyline fill="none" stroke="black" points="68,-96 68,-84 "/>
<path fill="none" stroke="black" d="M68,-84C68,-78 74,-72 80,-72"/>
<polyline fill="none" stroke="black" points="80,-72 250,-72 "/>
<path fill="none" stroke="black" d="M250,-72C256,-72 262,-78 262,-84"/>
<polyline fill="none" stroke="black" points="262,-84 262,-96 "/>
<path fill="none" stroke="black" d="M262,-96C262,-102 256,-108 250,-108"/>
<text text-anchor="start" x="76.5" y="-87.2333" font-family="Times Roman,serif" font-size="14.00">The central limit theorem</text>
</a>
</g>
<!-- RANDOM_VARIABLES&#45;&gt;CENTRAL_LIMIT_THEOREM -->
<!-- INTEGRATION_BY_SUBSTITUTION -->
<g id="node4" class="node"><title>INTEGRATION_BY_SUBSTITUTION</title>
<a xlink:href="INTEGRATION_BY_SUBSTITUTION.html" xlink:title="Integration by substitution" target="_top">
<polyline fill="none" stroke="black" points="379,-180 201,-180 "/>
<path fill="none" stroke="black" d="M201,-180C195,-180 189,-174 189,-168"/>
<polyline fill="none" stroke="black" points="189,-168 189,-156 "/>
<path fill="none" stroke="black" d="M189,-156C189,-150 195,-144 201,-144"/>
<polyline fill="none" stroke="black" points="201,-144 379,-144 "/>
<path fill="none" stroke="black" d="M379,-144C385,-144 391,-150 391,-156"/>
<polyline fill="none" stroke="black" points="391,-156 391,-168 "/>
<path fill="none" stroke="black" d="M391,-168C391,-174 385,-180 379,-180"/>
<text text-anchor="start" x="197" y="-159.233" font-family="Times Roman,serif" font-size="14.00">Integration by substitution</text>
</a>
</g>
<!-- INTEGRATION_BY_SUBSTITUTION&#45;&gt;NORMAL_RANDOM_VARIABLE -->
<g id="edge4" class="edge"><title>INTEGRATION_BY_SUBSTITUTION&#45;&gt;NORMAL_RANDOM_VARIABLE</title>
<path fill="none" stroke="black" d="M290.58,-143.897C290.287,-124.257 287.027,-92.915 271,-72 260.857,-58.7635 246.568,-48.5049 231.757,-40.6623"/>
<polygon fill="black" stroke="black" points="233.015,-37.3802 222.5,-36.0865 229.913,-43.6554 233.015,-37.3802"/>
</g>
<!-- CENTRAL_LIMIT_THEOREM&#45;&gt;NORMAL_RANDOM_VARIABLE -->
<g id="edge6" class="edge"><title>CENTRAL_LIMIT_THEOREM&#45;&gt;NORMAL_RANDOM_VARIABLE</title>
<path fill="none" stroke="black" d="M165,-71.8314C165,-64.131 165,-54.9743 165,-46.4166"/>
<polygon fill="black" stroke="black" points="168.5,-46.4132 165,-36.4133 161.5,-46.4133 168.5,-46.4132"/>
</g>
</g>
</svg>
