<?xml version="1.0" encoding="UTF-8" standalone="no"?>
<!DOCTYPE svg PUBLIC "-//W3C//DTD SVG 1.1//EN"
 "http://www.w3.org/Graphics/SVG/1.1/DTD/svg11.dtd">
<!-- Generated by graphviz version 2.28.0 (20110509.1545)
 -->
<!-- Title: _anonymous_0 Pages: 1 -->
<svg width="349pt" height="188pt"
 viewBox="0.00 0.00 349.00 188.00" xmlns="http://www.w3.org/2000/svg" xmlns:xlink="http://www.w3.org/1999/xlink">
<g id="graph1" class="graph" transform="scale(1 1) rotate(0) translate(4 184)">
<title>_anonymous_0</title>
<!-- NORMAL_RANDOM_VARIABLE -->
<g id="node1" class="node"><title>NORMAL_RANDOM_VARIABLE</title>
<a xlink:href="NORMAL_RANDOM_VARIABLE.html" xlink:title="Normal random variable" target="_top">
<polyline fill="none" stroke="blue" stroke-width="2" points="231,-36 101,-36 "/>
<path fill="none" stroke="blue" stroke-width="2" d="M101,-36C95,-36 89,-30 89,-24"/>
<polyline fill="none" stroke="blue" stroke-width="2" points="89,-24 89,-12 "/>
<path fill="none" stroke="blue" stroke-width="2" d="M89,-12C89,-6 95,-0 101,-0"/>
<polyline fill="none" stroke="blue" stroke-width="2" points="101,-0 231,-0 "/>
<path fill="none" stroke="blue" stroke-width="2" d="M231,-0C237,-0 243,-6 243,-12"/>
<polyline fill="none" stroke="blue" stroke-width="2" points="243,-12 243,-24 "/>
<path fill="none" stroke="blue" stroke-width="2" d="M243,-24C243,-30 237,-36 231,-36"/>
<text text-anchor="start" x="97.5" y="-12.5" font-family="Times,serif" font-size="14.00">Normal random variable</text>
</a>
</g>
<!-- CENTRAL_LIMIT_THEOREM -->
<g id="node2" class="node"><title>CENTRAL_LIMIT_THEOREM</title>
<a xlink:href="CENTRAL_LIMIT_THEOREM.html" xlink:title="The central limit theorem" target="_top">
<polyline fill="none" stroke="black" points="146.25,-180 11.75,-180 "/>
<path fill="none" stroke="black" d="M11.75,-180C5.75,-180 -0.25,-174 -0.25,-168"/>
<polyline fill="none" stroke="black" points="-0.25,-168 -0.25,-156 "/>
<path fill="none" stroke="black" d="M-0.25,-156C-0.25,-150 5.75,-144 11.75,-144"/>
<polyline fill="none" stroke="black" points="11.75,-144 146.25,-144 "/>
<path fill="none" stroke="black" d="M146.25,-144C152.25,-144 158.25,-150 158.25,-156"/>
<polyline fill="none" stroke="black" points="158.25,-156 158.25,-168 "/>
<path fill="none" stroke="black" d="M158.25,-168C158.25,-174 152.25,-180 146.25,-180"/>
<text text-anchor="start" x="8" y="-156.5" font-family="Times,serif" font-size="14.00">The central limit theorem</text>
</a>
</g>
<!-- CENTRAL_LIMIT_THEOREM&#45;&gt;NORMAL_RANDOM_VARIABLE -->
<g id="edge2" class="edge"><title>CENTRAL_LIMIT_THEOREM&#45;&gt;NORMAL_RANDOM_VARIABLE</title>
<path fill="none" stroke="black" d="M79.232,-143.976C80.2227,-125.051 84.0789,-94.2277 98,-72 105.344,-60.274 116.25,-50.1059 127.189,-41.8995"/>
<polygon fill="black" stroke="black" points="129.363,-44.6486 135.501,-36.0131 125.318,-38.9359 129.363,-44.6486"/>
</g>
<!-- RANDOM_VARIABLES -->
<g id="node6" class="node"><title>RANDOM_VARIABLES</title>
<a xlink:href="RANDOM_VARIABLES.html" xlink:title="Random variables" target="_top">
<polyline fill="none" stroke="black" points="213,-108 119,-108 "/>
<path fill="none" stroke="black" d="M119,-108C113,-108 107,-102 107,-96"/>
<polyline fill="none" stroke="black" points="107,-96 107,-84 "/>
<path fill="none" stroke="black" d="M107,-84C107,-78 113,-72 119,-72"/>
<polyline fill="none" stroke="black" points="119,-72 213,-72 "/>
<path fill="none" stroke="black" d="M213,-72C219,-72 225,-78 225,-84"/>
<polyline fill="none" stroke="black" points="225,-84 225,-96 "/>
<path fill="none" stroke="black" d="M225,-96C225,-102 219,-108 213,-108"/>
<text text-anchor="start" x="115.5" y="-84.5" font-family="Times,serif" font-size="14.00">Random variables</text>
</a>
</g>
<!-- CENTRAL_LIMIT_THEOREM&#45;&gt;RANDOM_VARIABLES -->
<!-- INTEGRATION_BY_SUBSTITUTION -->
<g id="node4" class="node"><title>INTEGRATION_BY_SUBSTITUTION</title>
<a xlink:href="INTEGRATION_BY_SUBSTITUTION.html" xlink:title="Integration by substitution" target="_top">
<polyline fill="none" stroke="black" points="329,-180 189,-180 "/>
<path fill="none" stroke="black" d="M189,-180C183,-180 177,-174 177,-168"/>
<polyline fill="none" stroke="black" points="177,-168 177,-156 "/>
<path fill="none" stroke="black" d="M177,-156C177,-150 183,-144 189,-144"/>
<polyline fill="none" stroke="black" points="189,-144 329,-144 "/>
<path fill="none" stroke="black" d="M329,-144C335,-144 341,-150 341,-156"/>
<polyline fill="none" stroke="black" points="341,-156 341,-168 "/>
<path fill="none" stroke="black" d="M341,-168C341,-174 335,-180 329,-180"/>
<text text-anchor="start" x="185.5" y="-156.5" font-family="Times,serif" font-size="14.00">Integration by substitution</text>
</a>
</g>
<!-- INTEGRATION_BY_SUBSTITUTION&#45;&gt;NORMAL_RANDOM_VARIABLE -->
<g id="edge4" class="edge"><title>INTEGRATION_BY_SUBSTITUTION&#45;&gt;NORMAL_RANDOM_VARIABLE</title>
<path fill="none" stroke="black" d="M257.409,-143.936C254.954,-124.974 248.851,-94.1188 234,-72 226.221,-60.4141 215.089,-50.2374 204.077,-41.9802"/>
<polygon fill="black" stroke="black" points="205.916,-38.9927 195.738,-36.0485 201.858,-44.6969 205.916,-38.9927"/>
</g>
<!-- RANDOM_VARIABLES&#45;&gt;NORMAL_RANDOM_VARIABLE -->
<g id="edge6" class="edge"><title>RANDOM_VARIABLES&#45;&gt;NORMAL_RANDOM_VARIABLE</title>
<path fill="none" stroke="black" d="M166,-71.6966C166,-63.9827 166,-54.7125 166,-46.1124"/>
<polygon fill="black" stroke="black" points="169.5,-46.1043 166,-36.1043 162.5,-46.1044 169.5,-46.1043"/>
</g>
</g>
</svg>
