<?xml version="1.0" encoding="UTF-8" standalone="no"?>
<!DOCTYPE svg PUBLIC "-//W3C//DTD SVG 1.1//EN"
 "http://www.w3.org/Graphics/SVG/1.1/DTD/svg11.dtd">
<!-- Generated by graphviz version 2.26.3 (20100126.1600)
 -->
<!-- Title: _anonymous_0 Pages: 1 -->
<svg width="378pt" height="116pt"
 viewBox="0.00 0.00 378.00 116.00" xmlns="http://www.w3.org/2000/svg" xmlns:xlink="http://www.w3.org/1999/xlink">
<g id="graph1" class="graph" transform="scale(1 1) rotate(0) translate(4 112)">
<title>_anonymous_0</title>
<!-- PARTITION_FUNCTION_FOR_MOLECULES -->
<g id="node1" class="node"><title>PARTITION_FUNCTION_FOR_MOLECULES</title>
<a xlink:href="PARTITION_FUNCTION_FOR_MOLECULES.html" xlink:title=" The partition function for molecular gasses " target="_top">
<polyline fill="none" stroke="blue" stroke-width="2" points="326,-36 30,-36 "/>
<path fill="none" stroke="blue" stroke-width="2" d="M30,-36C24,-36 18,-30 18,-24"/>
<polyline fill="none" stroke="blue" stroke-width="2" points="18,-24 18,-12 "/>
<path fill="none" stroke="blue" stroke-width="2" d="M18,-12C18,-6 24,-1.74971e-14 30,-1.72307e-14"/>
<polyline fill="none" stroke="blue" stroke-width="2" points="30,-1.72307e-14 326,-4.08562e-15 "/>
<path fill="none" stroke="blue" stroke-width="2" d="M326,-4.08562e-15C332,-3.81917e-15 338,-6 338,-12"/>
<polyline fill="none" stroke="blue" stroke-width="2" points="338,-12 338,-24 "/>
<path fill="none" stroke="blue" stroke-width="2" d="M338,-24C338,-30 332,-36 326,-36"/>
<text text-anchor="start" x="26" y="-15.2333" font-family="Times Roman,serif" font-size="14.00"> The partition function for molecular gasses </text>
</a>
</g>
<!-- IDEAL_GAS -->
<g id="node2" class="node"><title>IDEAL_GAS</title>
<a xlink:href="IDEAL_GAS.html" xlink:title=" The ideal gas model " target="_top">
<polyline fill="none" stroke="black" points="150,-108 12,-108 "/>
<path fill="none" stroke="black" d="M12,-108C6,-108 5.92119e-14,-102 4.73695e-14,-96"/>
<polyline fill="none" stroke="black" points="4.73695e-14,-96 2.36848e-14,-84 "/>
<path fill="none" stroke="black" d="M2.36848e-14,-84C1.18424e-14,-78 6,-72 12,-72"/>
<polyline fill="none" stroke="black" points="12,-72 150,-72 "/>
<path fill="none" stroke="black" d="M150,-72C156,-72 162,-78 162,-84"/>
<polyline fill="none" stroke="black" points="162,-84 162,-96 "/>
<path fill="none" stroke="black" d="M162,-96C162,-102 156,-108 150,-108"/>
<text text-anchor="start" x="8" y="-87.2333" font-family="Times Roman,serif" font-size="14.00"> The ideal gas model </text>
</a>
</g>
<!-- IDEAL_GAS&#45;&gt;PARTITION_FUNCTION_FOR_MOLECULES -->
<g id="edge2" class="edge"><title>IDEAL_GAS&#45;&gt;PARTITION_FUNCTION_FOR_MOLECULES</title>
<path fill="none" stroke="black" d="M105.477,-71.8314C117.539,-62.8779 132.254,-51.9558 145.269,-42.2955"/>
<polygon fill="black" stroke="black" points="147.587,-44.9335 153.531,-36.1628 143.415,-39.3127 147.587,-44.9335"/>
</g>
<!-- CANONICAL_ENSEMBLE -->
<g id="node4" class="node"><title>CANONICAL_ENSEMBLE</title>
<a xlink:href="CANONICAL_ENSEMBLE.html" xlink:title=" The canonical ensemble " target="_top">
<polyline fill="none" stroke="black" points="358,-108 192,-108 "/>
<path fill="none" stroke="black" d="M192,-108C186,-108 180,-102 180,-96"/>
<polyline fill="none" stroke="black" points="180,-96 180,-84 "/>
<path fill="none" stroke="black" d="M180,-84C180,-78 186,-72 192,-72"/>
<polyline fill="none" stroke="black" points="192,-72 358,-72 "/>
<path fill="none" stroke="black" d="M358,-72C364,-72 370,-78 370,-84"/>
<polyline fill="none" stroke="black" points="370,-84 370,-96 "/>
<path fill="none" stroke="black" d="M370,-96C370,-102 364,-108 358,-108"/>
<text text-anchor="start" x="188" y="-87.2333" font-family="Times Roman,serif" font-size="14.00"> The canonical ensemble </text>
</a>
</g>
<!-- CANONICAL_ENSEMBLE&#45;&gt;PARTITION_FUNCTION_FOR_MOLECULES -->
<g id="edge4" class="edge"><title>CANONICAL_ENSEMBLE&#45;&gt;PARTITION_FUNCTION_FOR_MOLECULES</title>
<path fill="none" stroke="black" d="M250.523,-71.8314C238.461,-62.8779 223.746,-51.9558 210.731,-42.2955"/>
<polygon fill="black" stroke="black" points="212.585,-39.3127 202.469,-36.1628 208.413,-44.9335 212.585,-39.3127"/>
</g>
</g>
</svg>
