<?xml version="1.0" encoding="UTF-8" standalone="no"?>
<!DOCTYPE svg PUBLIC "-//W3C//DTD SVG 1.1//EN"
 "http://www.w3.org/Graphics/SVG/1.1/DTD/svg11.dtd">
<!-- Generated by graphviz version 2.26.3 (20100126.1600)
 -->
<!-- Title: _anonymous_0 Pages: 1 -->
<svg width="362pt" height="116pt"
 viewBox="0.00 0.00 362.00 116.00" xmlns="http://www.w3.org/2000/svg" xmlns:xlink="http://www.w3.org/1999/xlink">
<g id="graph1" class="graph" transform="scale(1 1) rotate(0) translate(4 112)">
<title>_anonymous_0</title>
<!-- PARTITION_FUNCTION_FOR_MOLECULES -->
<g id="node1" class="node"><title>PARTITION_FUNCTION_FOR_MOLECULES</title>
<a xlink:href="PARTITION_FUNCTION_FOR_MOLECULES.html" xlink:title="The partition function for molecular gasses" target="_top">
<polyline fill="none" stroke="blue" stroke-width="2" points="314,-36 26,-36 "/>
<path fill="none" stroke="blue" stroke-width="2" d="M26,-36C20,-36 14,-30 14,-24"/>
<polyline fill="none" stroke="blue" stroke-width="2" points="14,-24 14,-12 "/>
<path fill="none" stroke="blue" stroke-width="2" d="M14,-12C14,-6 20,-1.74903e-14 26,-1.7217e-14"/>
<polyline fill="none" stroke="blue" stroke-width="2" points="26,-1.7217e-14 314,-4.09929e-15 "/>
<path fill="none" stroke="blue" stroke-width="2" d="M314,-4.09929e-15C320,-3.826e-15 326,-6 326,-12"/>
<polyline fill="none" stroke="blue" stroke-width="2" points="326,-12 326,-24 "/>
<path fill="none" stroke="blue" stroke-width="2" d="M326,-24C326,-30 320,-36 314,-36"/>
<text text-anchor="start" x="22.5" y="-15.2333" font-family="Times Roman,serif" font-size="14.00">The partition function for molecular gasses</text>
</a>
</g>
<!-- IDEAL_GAS -->
<g id="node2" class="node"><title>IDEAL_GAS</title>
<a xlink:href="IDEAL_GAS.html" xlink:title="The ideal gas model" target="_top">
<polyline fill="none" stroke="black" points="142,-108 12,-108 "/>
<path fill="none" stroke="black" d="M12,-108C6,-108 7.10543e-14,-102 5.68434e-14,-96"/>
<polyline fill="none" stroke="black" points="5.68434e-14,-96 2.84217e-14,-84 "/>
<path fill="none" stroke="black" d="M2.84217e-14,-84C1.42109e-14,-78 6,-72 12,-72"/>
<polyline fill="none" stroke="black" points="12,-72 142,-72 "/>
<path fill="none" stroke="black" d="M142,-72C148,-72 154,-78 154,-84"/>
<polyline fill="none" stroke="black" points="154,-84 154,-96 "/>
<path fill="none" stroke="black" d="M154,-96C154,-102 148,-108 142,-108"/>
<text text-anchor="start" x="8.5" y="-87.2333" font-family="Times Roman,serif" font-size="14.00">The ideal gas model</text>
</a>
</g>
<!-- IDEAL_GAS&#45;&gt;PARTITION_FUNCTION_FOR_MOLECULES -->
<g id="edge2" class="edge"><title>IDEAL_GAS&#45;&gt;PARTITION_FUNCTION_FOR_MOLECULES</title>
<path fill="none" stroke="black" d="M100.468,-71.8314C112.033,-62.8779 126.14,-51.9558 138.618,-42.2955"/>
<polygon fill="black" stroke="black" points="140.775,-45.0521 146.54,-36.1628 136.49,-39.5171 140.775,-45.0521"/>
</g>
<!-- CANONICAL_ENSEMBLE -->
<g id="node4" class="node"><title>CANONICAL_ENSEMBLE</title>
<a xlink:href="CANONICAL_ENSEMBLE.html" xlink:title="The canonical ensemble" target="_top">
<polyline fill="none" stroke="black" points="342,-108 184,-108 "/>
<path fill="none" stroke="black" d="M184,-108C178,-108 172,-102 172,-96"/>
<polyline fill="none" stroke="black" points="172,-96 172,-84 "/>
<path fill="none" stroke="black" d="M172,-84C172,-78 178,-72 184,-72"/>
<polyline fill="none" stroke="black" points="184,-72 342,-72 "/>
<path fill="none" stroke="black" d="M342,-72C348,-72 354,-78 354,-84"/>
<polyline fill="none" stroke="black" points="354,-84 354,-96 "/>
<path fill="none" stroke="black" d="M354,-96C354,-102 348,-108 342,-108"/>
<text text-anchor="start" x="180.5" y="-87.2333" font-family="Times Roman,serif" font-size="14.00">The canonical ensemble</text>
</a>
</g>
<!-- CANONICAL_ENSEMBLE&#45;&gt;PARTITION_FUNCTION_FOR_MOLECULES -->
<g id="edge4" class="edge"><title>CANONICAL_ENSEMBLE&#45;&gt;PARTITION_FUNCTION_FOR_MOLECULES</title>
<path fill="none" stroke="black" d="M239.532,-71.8314C227.967,-62.8779 213.86,-51.9558 201.382,-42.2955"/>
<polygon fill="black" stroke="black" points="203.51,-39.5171 193.46,-36.1628 199.225,-45.0521 203.51,-39.5171"/>
</g>
</g>
</svg>
