<?xml version="1.0" encoding="UTF-8" standalone="no"?>
<!DOCTYPE svg PUBLIC "-//W3C//DTD SVG 1.1//EN"
 "http://www.w3.org/Graphics/SVG/1.1/DTD/svg11.dtd">
<!-- Generated by graphviz version 2.26.3 (20100126.1600)
 -->
<!-- Title: _anonymous_0 Pages: 1 -->
<svg width="320pt" height="116pt"
 viewBox="0.00 0.00 320.00 116.00" xmlns="http://www.w3.org/2000/svg" xmlns:xlink="http://www.w3.org/1999/xlink">
<g id="graph1" class="graph" transform="scale(1 1) rotate(0) translate(4 112)">
<title>_anonymous_0</title>
<!-- PARTITION_FUNCTION_FOR_MOLECULES -->
<g id="node1" class="node"><title>PARTITION_FUNCTION_FOR_MOLECULES</title>
<a xlink:href="PARTITION_FUNCTION_FOR_MOLECULES.html" xlink:title="The partition function for molecular gasses" target="_top">
<polyline fill="none" stroke="blue" stroke-width="2" points="300,-36 12,-36 "/>
<path fill="none" stroke="blue" stroke-width="2" d="M12,-36C6,-36 1.18424e-13,-30 9.4739e-14,-24"/>
<polyline fill="none" stroke="blue" stroke-width="2" points="9.4739e-14,-24 4.73695e-14,-12 "/>
<path fill="none" stroke="blue" stroke-width="2" d="M4.73695e-14,-12C2.36848e-14,-6 6,-1.74903e-14 12,-1.7217e-14"/>
<polyline fill="none" stroke="blue" stroke-width="2" points="12,-1.7217e-14 300,-4.09929e-15 "/>
<path fill="none" stroke="blue" stroke-width="2" d="M300,-4.09929e-15C306,-3.826e-15 312,-6 312,-12"/>
<polyline fill="none" stroke="blue" stroke-width="2" points="312,-12 312,-24 "/>
<path fill="none" stroke="blue" stroke-width="2" d="M312,-24C312,-30 306,-36 300,-36"/>
<text text-anchor="start" x="8.5" y="-15.2333" font-family="Times Roman,serif" font-size="14.00">The partition function for molecular gasses</text>
</a>
</g>
<!-- CANONICAL_ENSEMBLE -->
<g id="node2" class="node"><title>CANONICAL_ENSEMBLE</title>
<a xlink:href="CANONICAL_ENSEMBLE.html" xlink:title="The canonical ensemble" target="_top">
<polyline fill="none" stroke="black" points="235,-108 77,-108 "/>
<path fill="none" stroke="black" d="M77,-108C71,-108 65,-102 65,-96"/>
<polyline fill="none" stroke="black" points="65,-96 65,-84 "/>
<path fill="none" stroke="black" d="M65,-84C65,-78 71,-72 77,-72"/>
<polyline fill="none" stroke="black" points="77,-72 235,-72 "/>
<path fill="none" stroke="black" d="M235,-72C241,-72 247,-78 247,-84"/>
<polyline fill="none" stroke="black" points="247,-84 247,-96 "/>
<path fill="none" stroke="black" d="M247,-96C247,-102 241,-108 235,-108"/>
<text text-anchor="start" x="73.5" y="-87.2333" font-family="Times Roman,serif" font-size="14.00">The canonical ensemble</text>
</a>
</g>
<!-- CANONICAL_ENSEMBLE&#45;&gt;PARTITION_FUNCTION_FOR_MOLECULES -->
<g id="edge2" class="edge"><title>CANONICAL_ENSEMBLE&#45;&gt;PARTITION_FUNCTION_FOR_MOLECULES</title>
<path fill="none" stroke="black" d="M156,-71.8314C156,-64.131 156,-54.9743 156,-46.4166"/>
<polygon fill="black" stroke="black" points="159.5,-46.4132 156,-36.4133 152.5,-46.4133 159.5,-46.4132"/>
</g>
</g>
</svg>
