<?xml version="1.0" encoding="UTF-8" standalone="no"?>
<!DOCTYPE svg PUBLIC "-//W3C//DTD SVG 1.1//EN"
 "http://www.w3.org/Graphics/SVG/1.1/DTD/svg11.dtd">
<!-- Generated by graphviz version 2.36.0 (20140111.2315)
 -->
<!-- Title: %3 Pages: 1 -->
<svg width="317pt" height="116pt"
 viewBox="0.00 0.00 317.00 116.00" xmlns="http://www.w3.org/2000/svg" xmlns:xlink="http://www.w3.org/1999/xlink">
<g id="graph0" class="graph" transform="scale(1 1) rotate(0) translate(4 112)">
<title>%3</title>
<!-- PARTITION_FUNCTION_FOR_MOLECULES -->
<g id="node1" class="node"><title>PARTITION_FUNCTION_FOR_MOLECULES</title>
<g id="a_node1"><a xlink:href="PARTITION_FUNCTION_FOR_MOLECULES.html" xlink:title=" The partition function for molecular gasses " target="_top">
<path fill="none" stroke="blue" stroke-width="2" d="M278,-36C278,-36 42,-36 42,-36 36,-36 30,-30 30,-24 30,-24 30,-12 30,-12 30,-6 36,-0 42,-0 42,-0 278,-0 278,-0 284,-0 290,-6 290,-12 290,-12 290,-24 290,-24 290,-30 284,-36 278,-36"/>
<text text-anchor="start" x="38" y="-14.3" font-family="Times,serif" font-size="14.00"> The partition function for molecular gasses </text>
</a>
</g>
</g>
<!-- CANONICAL_ENSEMBLE -->
<g id="node2" class="node"><title>CANONICAL_ENSEMBLE</title>
<g id="a_node2"><a xlink:href="CANONICAL_ENSEMBLE.html" xlink:title=" The canonical ensemble " target="_top">
<path fill="none" stroke="black" d="M144,-108C144,-108 12,-108 12,-108 6,-108 0,-102 0,-96 0,-96 0,-84 0,-84 0,-78 6,-72 12,-72 12,-72 144,-72 144,-72 150,-72 156,-78 156,-84 156,-84 156,-96 156,-96 156,-102 150,-108 144,-108"/>
<text text-anchor="start" x="8" y="-86.3" font-family="Times,serif" font-size="14.00"> The canonical ensemble </text>
</a>
</g>
</g>
<!-- CANONICAL_ENSEMBLE&#45;&gt;PARTITION_FUNCTION_FOR_MOLECULES -->
<g id="edge1" class="edge"><title>CANONICAL_ENSEMBLE&#45;&gt;PARTITION_FUNCTION_FOR_MOLECULES</title>
<path fill="none" stroke="black" d="M98.2697,-71.6966C108.498,-62.9655 121.061,-52.2405 132.178,-42.7503"/>
<polygon fill="black" stroke="black" points="134.63,-45.259 139.963,-36.1043 130.085,-39.935 134.63,-45.259"/>
</g>
<!-- IDEAL_GAS -->
<g id="node3" class="node"><title>IDEAL_GAS</title>
<g id="a_node3"><a xlink:href="IDEAL_GAS.html" xlink:title=" The ideal gas model " target="_top">
<path fill="none" stroke="black" d="M297.25,-108C297.25,-108 186.75,-108 186.75,-108 180.75,-108 174.75,-102 174.75,-96 174.75,-96 174.75,-84 174.75,-84 174.75,-78 180.75,-72 186.75,-72 186.75,-72 297.25,-72 297.25,-72 303.25,-72 309.25,-78 309.25,-84 309.25,-84 309.25,-96 309.25,-96 309.25,-102 303.25,-108 297.25,-108"/>
<text text-anchor="start" x="182.5" y="-86.3" font-family="Times,serif" font-size="14.00"> The ideal gas model </text>
</a>
</g>
</g>
<!-- IDEAL_GAS&#45;&gt;PARTITION_FUNCTION_FOR_MOLECULES -->
<g id="edge2" class="edge"><title>IDEAL_GAS&#45;&gt;PARTITION_FUNCTION_FOR_MOLECULES</title>
<path fill="none" stroke="black" d="M221.73,-71.6966C211.502,-62.9655 198.939,-52.2405 187.822,-42.7503"/>
<polygon fill="black" stroke="black" points="189.915,-39.935 180.037,-36.1043 185.37,-45.259 189.915,-39.935"/>
</g>
</g>
</svg>
