<?xml version="1.0" encoding="UTF-8" standalone="no"?>
<!DOCTYPE svg PUBLIC "-//W3C//DTD SVG 1.1//EN"
 "http://www.w3.org/Graphics/SVG/1.1/DTD/svg11.dtd">
<!-- Generated by graphviz version 2.26.3 (20100126.1600)
 -->
<!-- Title: _anonymous_0 Pages: 1 -->
<svg width="352pt" height="116pt"
 viewBox="0.00 0.00 352.00 116.00" xmlns="http://www.w3.org/2000/svg" xmlns:xlink="http://www.w3.org/1999/xlink">
<g id="graph1" class="graph" transform="scale(1 1) rotate(0) translate(4 112)">
<title>_anonymous_0</title>
<!-- PHASE_TRANSITIONS -->
<g id="node1" class="node"><title>PHASE_TRANSITIONS</title>
<a xlink:href="PHASE_TRANSITIONS.html" xlink:title="The theory of phase transitions" target="_top">
<polyline fill="none" stroke="blue" stroke-width="2" points="295,-36 85,-36 "/>
<path fill="none" stroke="blue" stroke-width="2" d="M85,-36C79,-36 73,-30 73,-24"/>
<polyline fill="none" stroke="blue" stroke-width="2" points="73,-24 73,-12 "/>
<path fill="none" stroke="blue" stroke-width="2" d="M73,-12C73,-6 79,-1.73992e-14 85,-1.70348e-14"/>
<polyline fill="none" stroke="blue" stroke-width="2" points="85,-1.70348e-14 295,-4.28148e-15 "/>
<path fill="none" stroke="blue" stroke-width="2" d="M295,-4.28148e-15C301,-3.91709e-15 307,-6 307,-12"/>
<polyline fill="none" stroke="blue" stroke-width="2" points="307,-12 307,-24 "/>
<path fill="none" stroke="blue" stroke-width="2" d="M307,-24C307,-30 301,-36 295,-36"/>
<text text-anchor="start" x="81.5" y="-15.2333" font-family="Times Roman,serif" font-size="14.00">The theory of phase transitions</text>
</a>
</g>
<!-- THERMODYNAMIC_POTENTIALS -->
<g id="node2" class="node"><title>THERMODYNAMIC_POTENTIALS</title>
<a xlink:href="THERMODYNAMIC_POTENTIALS.html" xlink:title="Thermodynamic Potentials" target="_top">
<polyline fill="none" stroke="black" points="188,-108 12,-108 "/>
<path fill="none" stroke="black" d="M12,-108C6,-108 7.10543e-14,-102 5.68434e-14,-96"/>
<polyline fill="none" stroke="black" points="5.68434e-14,-96 2.84217e-14,-84 "/>
<path fill="none" stroke="black" d="M2.84217e-14,-84C1.42109e-14,-78 6,-72 12,-72"/>
<polyline fill="none" stroke="black" points="12,-72 188,-72 "/>
<path fill="none" stroke="black" d="M188,-72C194,-72 200,-78 200,-84"/>
<polyline fill="none" stroke="black" points="200,-84 200,-96 "/>
<path fill="none" stroke="black" d="M200,-96C200,-102 194,-108 188,-108"/>
<text text-anchor="start" x="8" y="-87.2333" font-family="Times Roman,serif" font-size="14.00">Thermodynamic Potentials</text>
</a>
</g>
<!-- THERMODYNAMIC_POTENTIALS&#45;&gt;PHASE_TRANSITIONS -->
<g id="edge2" class="edge"><title>THERMODYNAMIC_POTENTIALS&#45;&gt;PHASE_TRANSITIONS</title>
<path fill="none" stroke="black" d="M122.711,-71.8314C133.796,-62.9632 147.295,-52.1637 159.285,-42.5718"/>
<polygon fill="black" stroke="black" points="161.674,-45.1429 167.296,-36.1628 157.301,-39.6768 161.674,-45.1429"/>
</g>
<!-- ISING_MODEL -->
<g id="node4" class="node"><title>ISING_MODEL</title>
<a xlink:href="ISING_MODEL.html" xlink:title="The Ising Model" target="_top">
<polyline fill="none" stroke="black" points="332,-108 230,-108 "/>
<path fill="none" stroke="black" d="M230,-108C224,-108 218,-102 218,-96"/>
<polyline fill="none" stroke="black" points="218,-96 218,-84 "/>
<path fill="none" stroke="black" d="M218,-84C218,-78 224,-72 230,-72"/>
<polyline fill="none" stroke="black" points="230,-72 332,-72 "/>
<path fill="none" stroke="black" d="M332,-72C338,-72 344,-78 344,-84"/>
<polyline fill="none" stroke="black" points="344,-84 344,-96 "/>
<path fill="none" stroke="black" d="M344,-96C344,-102 338,-108 332,-108"/>
<text text-anchor="start" x="226.5" y="-87.2333" font-family="Times Roman,serif" font-size="14.00">The Ising Model</text>
</a>
</g>
<!-- ISING_MODEL&#45;&gt;PHASE_TRANSITIONS -->
<g id="edge4" class="edge"><title>ISING_MODEL&#45;&gt;PHASE_TRANSITIONS</title>
<path fill="none" stroke="black" d="M258.037,-71.8314C246.828,-62.9632 233.179,-52.1637 221.056,-42.5718"/>
<polygon fill="black" stroke="black" points="222.97,-39.6229 212.956,-36.1628 218.626,-45.1125 222.97,-39.6229"/>
</g>
</g>
</svg>
