<?xml version="1.0" encoding="UTF-8" standalone="no"?>
<!DOCTYPE svg PUBLIC "-//W3C//DTD SVG 1.1//EN"
 "http://www.w3.org/Graphics/SVG/1.1/DTD/svg11.dtd">
<!-- Generated by graphviz version 2.26.3 (20100126.1600)
 -->
<!-- Title: _anonymous_0 Pages: 1 -->
<svg width="370pt" height="116pt"
 viewBox="0.00 0.00 370.00 116.00" xmlns="http://www.w3.org/2000/svg" xmlns:xlink="http://www.w3.org/1999/xlink">
<g id="graph1" class="graph" transform="scale(1 1) rotate(0) translate(4 112)">
<title>_anonymous_0</title>
<!-- PHASE_TRANSITIONS -->
<g id="node1" class="node"><title>PHASE_TRANSITIONS</title>
<a xlink:href="PHASE_TRANSITIONS.html" xlink:title=" The theory of phase transitions " target="_top">
<polyline fill="none" stroke="blue" stroke-width="2" points="309,-36 91,-36 "/>
<path fill="none" stroke="blue" stroke-width="2" d="M91,-36C85,-36 79,-30 79,-24"/>
<polyline fill="none" stroke="blue" stroke-width="2" points="79,-24 79,-12 "/>
<path fill="none" stroke="blue" stroke-width="2" d="M79,-12C79,-6 85,-1.74112e-14 91,-1.70589e-14"/>
<polyline fill="none" stroke="blue" stroke-width="2" points="91,-1.70589e-14 309,-4.25738e-15 "/>
<path fill="none" stroke="blue" stroke-width="2" d="M309,-4.25738e-15C315,-3.90505e-15 321,-6 321,-12"/>
<polyline fill="none" stroke="blue" stroke-width="2" points="321,-12 321,-24 "/>
<path fill="none" stroke="blue" stroke-width="2" d="M321,-24C321,-30 315,-36 309,-36"/>
<text text-anchor="start" x="87" y="-15.2333" font-family="Times Roman,serif" font-size="14.00"> The theory of phase transitions </text>
</a>
</g>
<!-- THERMODYNAMIC_POTENTIALS -->
<g id="node2" class="node"><title>THERMODYNAMIC_POTENTIALS</title>
<a xlink:href="THERMODYNAMIC_POTENTIALS.html" xlink:title=" Thermodynamic Potentials " target="_top">
<polyline fill="none" stroke="black" points="198,-108 12,-108 "/>
<path fill="none" stroke="black" d="M12,-108C6,-108 7.10543e-14,-102 5.68434e-14,-96"/>
<polyline fill="none" stroke="black" points="5.68434e-14,-96 2.84217e-14,-84 "/>
<path fill="none" stroke="black" d="M2.84217e-14,-84C1.42109e-14,-78 6,-72 12,-72"/>
<polyline fill="none" stroke="black" points="12,-72 198,-72 "/>
<path fill="none" stroke="black" d="M198,-72C204,-72 210,-78 210,-84"/>
<polyline fill="none" stroke="black" points="210,-84 210,-96 "/>
<path fill="none" stroke="black" d="M210,-96C210,-102 204,-108 198,-108"/>
<text text-anchor="start" x="8.5" y="-87.2333" font-family="Times Roman,serif" font-size="14.00"> Thermodynamic Potentials </text>
</a>
</g>
<!-- THERMODYNAMIC_POTENTIALS&#45;&gt;PHASE_TRANSITIONS -->
<g id="edge2" class="edge"><title>THERMODYNAMIC_POTENTIALS&#45;&gt;PHASE_TRANSITIONS</title>
<path fill="none" stroke="black" d="M128.973,-71.8314C140.786,-62.8779 155.197,-51.9558 167.943,-42.2955"/>
<polygon fill="black" stroke="black" points="170.18,-44.9925 176.035,-36.1628 165.951,-39.4137 170.18,-44.9925"/>
</g>
<!-- ISING_MODEL -->
<g id="node4" class="node"><title>ISING_MODEL</title>
<a xlink:href="ISING_MODEL.html" xlink:title=" The Ising Model " target="_top">
<polyline fill="none" stroke="black" points="350,-108 240,-108 "/>
<path fill="none" stroke="black" d="M240,-108C234,-108 228,-102 228,-96"/>
<polyline fill="none" stroke="black" points="228,-96 228,-84 "/>
<path fill="none" stroke="black" d="M228,-84C228,-78 234,-72 240,-72"/>
<polyline fill="none" stroke="black" points="240,-72 350,-72 "/>
<path fill="none" stroke="black" d="M350,-72C356,-72 362,-78 362,-84"/>
<polyline fill="none" stroke="black" points="362,-84 362,-96 "/>
<path fill="none" stroke="black" d="M362,-96C362,-102 356,-108 350,-108"/>
<text text-anchor="start" x="236" y="-87.2333" font-family="Times Roman,serif" font-size="14.00"> The Ising Model </text>
</a>
</g>
<!-- ISING_MODEL&#45;&gt;PHASE_TRANSITIONS -->
<g id="edge4" class="edge"><title>ISING_MODEL&#45;&gt;PHASE_TRANSITIONS</title>
<path fill="none" stroke="black" d="M271.027,-71.8314C259.214,-62.8779 244.803,-51.9558 232.057,-42.2955"/>
<polygon fill="black" stroke="black" points="234.049,-39.4137 223.965,-36.1628 229.82,-44.9925 234.049,-39.4137"/>
</g>
</g>
</svg>
