<?xml version="1.0" encoding="UTF-8" standalone="no"?>
<!DOCTYPE svg PUBLIC "-//W3C//DTD SVG 1.1//EN"
 "http://www.w3.org/Graphics/SVG/1.1/DTD/svg11.dtd">
<!-- Generated by graphviz version 2.36.0 (20140111.2315)
 -->
<!-- Title: %3 Pages: 1 -->
<svg width="314pt" height="116pt"
 viewBox="0.00 0.00 314.00 116.00" xmlns="http://www.w3.org/2000/svg" xmlns:xlink="http://www.w3.org/1999/xlink">
<g id="graph0" class="graph" transform="scale(1 1) rotate(0) translate(4 112)">
<title>%3</title>
<!-- PHASE_TRANSITIONS -->
<g id="node1" class="node"><title>PHASE_TRANSITIONS</title>
<g id="a_node1"><a xlink:href="PHASE_TRANSITIONS.html" xlink:title=" The theory of phase transitions " target="_top">
<path fill="none" stroke="blue" stroke-width="2" d="M251.25,-36C251.25,-36 82.75,-36 82.75,-36 76.75,-36 70.75,-30 70.75,-24 70.75,-24 70.75,-12 70.75,-12 70.75,-6 76.75,-0 82.75,-0 82.75,-0 251.25,-0 251.25,-0 257.25,-0 263.25,-6 263.25,-12 263.25,-12 263.25,-24 263.25,-24 263.25,-30 257.25,-36 251.25,-36"/>
<text text-anchor="start" x="78.5" y="-14.3" font-family="Times,serif" font-size="14.00"> The theory of phase transitions </text>
</a>
</g>
</g>
<!-- THERMODYNAMIC_POTENTIALS -->
<g id="node2" class="node"><title>THERMODYNAMIC_POTENTIALS</title>
<g id="a_node2"><a xlink:href="THERMODYNAMIC_POTENTIALS.html" xlink:title=" Thermodynamic Potentials " target="_top">
<path fill="none" stroke="black" d="M160,-108C160,-108 12,-108 12,-108 6,-108 0,-102 0,-96 0,-96 0,-84 0,-84 0,-78 6,-72 12,-72 12,-72 160,-72 160,-72 166,-72 172,-78 172,-84 172,-84 172,-96 172,-96 172,-102 166,-108 160,-108"/>
<text text-anchor="start" x="8" y="-86.3" font-family="Times,serif" font-size="14.00"> Thermodynamic Potentials </text>
</a>
</g>
</g>
<!-- THERMODYNAMIC_POTENTIALS&#45;&gt;PHASE_TRANSITIONS -->
<g id="edge1" class="edge"><title>THERMODYNAMIC_POTENTIALS&#45;&gt;PHASE_TRANSITIONS</title>
<path fill="none" stroke="black" d="M106.022,-71.6966C116.126,-62.9655 128.536,-52.2405 139.518,-42.7503"/>
<polygon fill="black" stroke="black" points="141.93,-45.2912 147.208,-36.1043 137.353,-39.9948 141.93,-45.2912"/>
</g>
<!-- ISING_MODEL -->
<g id="node3" class="node"><title>ISING_MODEL</title>
<g id="a_node3"><a xlink:href="ISING_MODEL.html" xlink:title=" The Ising Model " target="_top">
<path fill="none" stroke="black" d="M293.5,-108C293.5,-108 202.5,-108 202.5,-108 196.5,-108 190.5,-102 190.5,-96 190.5,-96 190.5,-84 190.5,-84 190.5,-78 196.5,-72 202.5,-72 202.5,-72 293.5,-72 293.5,-72 299.5,-72 305.5,-78 305.5,-84 305.5,-84 305.5,-96 305.5,-96 305.5,-102 299.5,-108 293.5,-108"/>
<text text-anchor="start" x="198" y="-86.3" font-family="Times,serif" font-size="14.00"> The Ising Model </text>
</a>
</g>
</g>
<!-- ISING_MODEL&#45;&gt;PHASE_TRANSITIONS -->
<g id="edge2" class="edge"><title>ISING_MODEL&#45;&gt;PHASE_TRANSITIONS</title>
<path fill="none" stroke="black" d="M227.978,-71.6966C217.874,-62.9655 205.464,-52.2405 194.482,-42.7503"/>
<polygon fill="black" stroke="black" points="196.647,-39.9948 186.792,-36.1043 192.07,-45.2912 196.647,-39.9948"/>
</g>
</g>
</svg>
