<?xml version="1.0" encoding="UTF-8" standalone="no"?>
<!DOCTYPE svg PUBLIC "-//W3C//DTD SVG 1.1//EN"
 "http://www.w3.org/Graphics/SVG/1.1/DTD/svg11.dtd">
<!-- Generated by graphviz version 2.36.0 (20140111.2315)
 -->
<!-- Title: %3 Pages: 1 -->
<svg width="172pt" height="116pt"
 viewBox="0.00 0.00 172.00 116.00" xmlns="http://www.w3.org/2000/svg" xmlns:xlink="http://www.w3.org/1999/xlink">
<g id="graph0" class="graph" transform="scale(1 1) rotate(0) translate(4 112)">
<title>%3</title>
<!-- NEWTONS_LAWS -->
<g id="node1" class="node"><title>NEWTONS_LAWS</title>
<g id="a_node1"><a xlink:href="NEWTONS_LAWS.html" xlink:title=" Newtons Laws of Motion " target="_top">
<path fill="none" stroke="black" d="M152,-36C152,-36 12,-36 12,-36 6,-36 0,-30 0,-24 0,-24 0,-12 0,-12 0,-6 6,-0 12,-0 12,-0 152,-0 152,-0 158,-0 164,-6 164,-12 164,-12 164,-24 164,-24 164,-30 158,-36 152,-36"/>
<text text-anchor="start" x="8" y="-14.3" font-family="Times,serif" font-size="14.00"> Newtons Laws of Motion </text>
</a>
</g>
</g>
<!-- DEFINITION_OF_DERIVATIVE -->
<g id="node2" class="node"><title>DEFINITION_OF_DERIVATIVE</title>
<g id="a_node2"><a xlink:href="DEFINITION_OF_DERIVATIVE.html" xlink:title=" Differentiation " target="_top">
<path fill="none" stroke="black" d="M122,-108C122,-108 42,-108 42,-108 36,-108 30,-102 30,-96 30,-96 30,-84 30,-84 30,-78 36,-72 42,-72 42,-72 122,-72 122,-72 128,-72 134,-78 134,-84 134,-84 134,-96 134,-96 134,-102 128,-108 122,-108"/>
<text text-anchor="start" x="38" y="-86.3" font-family="Times,serif" font-size="14.00"> Differentiation </text>
</a>
</g>
</g>
<!-- DEFINITION_OF_DERIVATIVE&#45;&gt;NEWTONS_LAWS -->
<g id="edge1" class="edge"><title>DEFINITION_OF_DERIVATIVE&#45;&gt;NEWTONS_LAWS</title>
<path fill="none" stroke="black" d="M82,-71.6966C82,-63.9827 82,-54.7125 82,-46.1124"/>
<polygon fill="black" stroke="black" points="85.5001,-46.1043 82,-36.1043 78.5001,-46.1044 85.5001,-46.1043"/>
</g>
</g>
</svg>
