<?xml version="1.0" encoding="UTF-8" standalone="no"?>
<!DOCTYPE svg PUBLIC "-//W3C//DTD SVG 1.1//EN"
 "http://www.w3.org/Graphics/SVG/1.1/DTD/svg11.dtd">
<!-- Generated by graphviz version 2.36.0 (20140111.2315)
 -->
<!-- Title: %3 Pages: 1 -->
<svg width="216pt" height="188pt"
 viewBox="0.00 0.00 216.00 188.00" xmlns="http://www.w3.org/2000/svg" xmlns:xlink="http://www.w3.org/1999/xlink">
<g id="graph0" class="graph" transform="scale(1 1) rotate(0) translate(4 184)">
<title>%3</title>
<!-- INFORMATION_THEORY -->
<g id="node1" class="node"><title>INFORMATION_THEORY</title>
<g id="a_node1"><a xlink:href="INFORMATION_THEORY.html" xlink:title=" Information theory &#160;" target="_top">
<path fill="none" stroke="black" d="M157.25,-180C157.25,-180 50.75,-180 50.75,-180 44.75,-180 38.75,-174 38.75,-168 38.75,-168 38.75,-156 38.75,-156 38.75,-150 44.75,-144 50.75,-144 50.75,-144 157.25,-144 157.25,-144 163.25,-144 169.25,-150 169.25,-156 169.25,-156 169.25,-168 169.25,-168 169.25,-174 163.25,-180 157.25,-180"/>
<text text-anchor="start" x="46.5" y="-158.3" font-family="Times,serif" font-size="14.00"> Information theory &#160;</text>
</a>
</g>
</g>
<!-- GENERALIZED_PARTITION_FUNCTION -->
<g id="node2" class="node"><title>GENERALIZED_PARTITION_FUNCTION</title>
<g id="a_node2"><a xlink:href="GENERALIZED_PARTITION_FUNCTION.html" xlink:title=" The generalized partition function " target="_top">
<path fill="none" stroke="black" d="M196.25,-108C196.25,-108 11.75,-108 11.75,-108 5.75,-108 -0.25,-102 -0.25,-96 -0.25,-96 -0.25,-84 -0.25,-84 -0.25,-78 5.75,-72 11.75,-72 11.75,-72 196.25,-72 196.25,-72 202.25,-72 208.25,-78 208.25,-84 208.25,-84 208.25,-96 208.25,-96 208.25,-102 202.25,-108 196.25,-108"/>
<text text-anchor="start" x="7.5" y="-86.3" font-family="Times,serif" font-size="14.00"> The generalized partition function </text>
</a>
</g>
</g>
<!-- INFORMATION_THEORY&#45;&gt;GENERALIZED_PARTITION_FUNCTION -->
<g id="edge1" class="edge"><title>INFORMATION_THEORY&#45;&gt;GENERALIZED_PARTITION_FUNCTION</title>
<path fill="none" stroke="black" d="M104,-143.697C104,-135.983 104,-126.712 104,-118.112"/>
<polygon fill="black" stroke="black" points="107.5,-118.104 104,-108.104 100.5,-118.104 107.5,-118.104"/>
</g>
<!-- CANONICAL_ENSEMBLE -->
<g id="node3" class="node"><title>CANONICAL_ENSEMBLE</title>
<g id="a_node3"><a xlink:href="CANONICAL_ENSEMBLE.html" xlink:title=" The canonical ensemble " target="_top">
<path fill="none" stroke="black" d="M170,-36C170,-36 38,-36 38,-36 32,-36 26,-30 26,-24 26,-24 26,-12 26,-12 26,-6 32,-0 38,-0 38,-0 170,-0 170,-0 176,-0 182,-6 182,-12 182,-12 182,-24 182,-24 182,-30 176,-36 170,-36"/>
<text text-anchor="start" x="34" y="-14.3" font-family="Times,serif" font-size="14.00"> The canonical ensemble </text>
</a>
</g>
</g>
<!-- GENERALIZED_PARTITION_FUNCTION&#45;&gt;CANONICAL_ENSEMBLE -->
<g id="edge2" class="edge"><title>GENERALIZED_PARTITION_FUNCTION&#45;&gt;CANONICAL_ENSEMBLE</title>
<path fill="none" stroke="black" d="M104,-71.6966C104,-63.9827 104,-54.7125 104,-46.1124"/>
<polygon fill="black" stroke="black" points="107.5,-46.1043 104,-36.1043 100.5,-46.1044 107.5,-46.1043"/>
</g>
</g>
</svg>
