<?xml version="1.0" encoding="UTF-8" standalone="no"?>
<!DOCTYPE svg PUBLIC "-//W3C//DTD SVG 1.1//EN"
 "http://www.w3.org/Graphics/SVG/1.1/DTD/svg11.dtd">
<!-- Generated by graphviz version 2.36.0 (20140111.2315)
 -->
<!-- Title: %3 Pages: 1 -->
<svg width="364pt" height="116pt"
 viewBox="0.00 0.00 364.00 116.00" xmlns="http://www.w3.org/2000/svg" xmlns:xlink="http://www.w3.org/1999/xlink">
<g id="graph0" class="graph" transform="scale(1 1) rotate(0) translate(4 112)">
<title>%3</title>
<!-- CHAIN_RULE -->
<g id="node1" class="node"><title>CHAIN_RULE</title>
<g id="a_node1"><a xlink:href="CHAIN_RULE.html" xlink:title=" Chain Rule " target="_top">
<path fill="none" stroke="black" d="M74,-108C74,-108 12,-108 12,-108 6,-108 0,-102 0,-96 0,-96 0,-84 0,-84 0,-78 6,-72 12,-72 12,-72 74,-72 74,-72 80,-72 86,-78 86,-84 86,-84 86,-96 86,-96 86,-102 80,-108 74,-108"/>
<text text-anchor="start" x="8" y="-86.3" font-family="Times,serif" font-size="14.00"> Chain Rule </text>
</a>
</g>
</g>
<!-- INTERATOMIC_FORCES -->
<g id="node3" class="node"><title>INTERATOMIC_FORCES</title>
<g id="a_node3"><a xlink:href="INTERATOMIC_FORCES.html" xlink:title=" Interatomic forces " target="_top">
<path fill="none" stroke="black" d="M146.5,-36C146.5,-36 47.5,-36 47.5,-36 41.5,-36 35.5,-30 35.5,-24 35.5,-24 35.5,-12 35.5,-12 35.5,-6 41.5,-0 47.5,-0 47.5,-0 146.5,-0 146.5,-0 152.5,-0 158.5,-6 158.5,-12 158.5,-12 158.5,-24 158.5,-24 158.5,-30 152.5,-36 146.5,-36"/>
<text text-anchor="start" x="43" y="-14.3" font-family="Times,serif" font-size="14.00"> Interatomic forces </text>
</a>
</g>
</g>
<!-- CHAIN_RULE&#45;&gt;INTERATOMIC_FORCES -->
<g id="edge1" class="edge"><title>CHAIN_RULE&#45;&gt;INTERATOMIC_FORCES</title>
<path fill="none" stroke="black" d="M56.3483,-71.6966C62.7568,-63.3893 70.5577,-53.2771 77.6057,-44.1407"/>
<polygon fill="black" stroke="black" points="80.4684,-46.16 83.8052,-36.1043 74.9259,-41.8844 80.4684,-46.16"/>
</g>
<!-- PRODUCT_RULE -->
<g id="node2" class="node"><title>PRODUCT_RULE</title>
<g id="a_node2"><a xlink:href="PRODUCT_RULE.html" xlink:title=" Product Rule " target="_top">
<path fill="none" stroke="black" d="M187.25,-108C187.25,-108 116.75,-108 116.75,-108 110.75,-108 104.75,-102 104.75,-96 104.75,-96 104.75,-84 104.75,-84 104.75,-78 110.75,-72 116.75,-72 116.75,-72 187.25,-72 187.25,-72 193.25,-72 199.25,-78 199.25,-84 199.25,-84 199.25,-96 199.25,-96 199.25,-102 193.25,-108 187.25,-108"/>
<text text-anchor="start" x="112.5" y="-86.3" font-family="Times,serif" font-size="14.00"> Product Rule </text>
</a>
</g>
</g>
<!-- PRODUCT_RULE&#45;&gt;INTERATOMIC_FORCES -->
<g id="edge2" class="edge"><title>PRODUCT_RULE&#45;&gt;INTERATOMIC_FORCES</title>
<path fill="none" stroke="black" d="M138.404,-71.6966C131.877,-63.3893 123.932,-53.2771 116.753,-44.1407"/>
<polygon fill="black" stroke="black" points="119.369,-41.8051 110.439,-36.1043 113.865,-46.1299 119.369,-41.8051"/>
</g>
<!-- LAGRANGE_MULTIPLIERS -->
<g id="node4" class="node"><title>LAGRANGE_MULTIPLIERS</title>
<g id="a_node4"><a xlink:href="LAGRANGE_MULTIPLIERS.html" xlink:title=" Lagrange multipliers " target="_top">
<path fill="none" stroke="black" d="M344,-108C344,-108 230,-108 230,-108 224,-108 218,-102 218,-96 218,-96 218,-84 218,-84 218,-78 224,-72 230,-72 230,-72 344,-72 344,-72 350,-72 356,-78 356,-84 356,-84 356,-96 356,-96 356,-102 350,-108 344,-108"/>
<text text-anchor="start" x="226" y="-86.3" font-family="Times,serif" font-size="14.00"> Lagrange multipliers </text>
</a>
</g>
</g>
</g>
</svg>
