<?xml version="1.0" encoding="UTF-8" standalone="no"?>
<!DOCTYPE svg PUBLIC "-//W3C//DTD SVG 1.1//EN"
 "http://www.w3.org/Graphics/SVG/1.1/DTD/svg11.dtd">
<!-- Generated by graphviz version 2.36.0 (20140111.2315)
 -->
<!-- Title: %3 Pages: 1 -->
<svg width="608pt" height="332pt"
 viewBox="0.00 0.00 608.00 332.00" xmlns="http://www.w3.org/2000/svg" xmlns:xlink="http://www.w3.org/1999/xlink">
<g id="graph0" class="graph" transform="scale(1 1) rotate(0) translate(4 328)">
<title>%3</title>
<!-- POISSON_PROCESS -->
<g id="node1" class="node"><title>POISSON_PROCESS</title>
<g id="a_node1"><a xlink:href="POISSON_PROCESS.html" xlink:title=" Poisson Process " target="_top">
<path fill="none" stroke="blue" stroke-width="2" d="M351.25,-180C351.25,-180 264.75,-180 264.75,-180 258.75,-180 252.75,-174 252.75,-168 252.75,-168 252.75,-156 252.75,-156 252.75,-150 258.75,-144 264.75,-144 264.75,-144 351.25,-144 351.25,-144 357.25,-144 363.25,-150 363.25,-156 363.25,-156 363.25,-168 363.25,-168 363.25,-174 357.25,-180 351.25,-180"/>
<text text-anchor="start" x="260.5" y="-158.3" font-family="Times,serif" font-size="14.00"> Poisson Process </text>
</a>
</g>
</g>
<!-- INHOMOGENEOUS_POISSON_PROCESS -->
<g id="node2" class="node"><title>INHOMOGENEOUS_POISSON_PROCESS</title>
<g id="a_node2"><a xlink:href="INHOMOGENEOUS_POISSON_PROCESS.html" xlink:title=" Inhomogeneous Poisson Process " target="_top">
<path fill="none" stroke="black" d="M190,-108C190,-108 12,-108 12,-108 6,-108 0,-102 0,-96 0,-96 0,-84 0,-84 0,-78 6,-72 12,-72 12,-72 190,-72 190,-72 196,-72 202,-78 202,-84 202,-84 202,-96 202,-96 202,-102 196,-108 190,-108"/>
<text text-anchor="start" x="8" y="-86.3" font-family="Times,serif" font-size="14.00"> Inhomogeneous Poisson Process </text>
</a>
</g>
</g>
<!-- POISSON_PROCESS&#45;&gt;INHOMOGENEOUS_POISSON_PROCESS -->
<g id="edge1" class="edge"><title>POISSON_PROCESS&#45;&gt;INHOMOGENEOUS_POISSON_PROCESS</title>
<path fill="none" stroke="black" d="M257.627,-143.966C228.579,-134.142 191.87,-121.729 161.294,-111.389"/>
<polygon fill="black" stroke="black" points="162.193,-107.999 151.599,-108.111 159.951,-114.63 162.193,-107.999"/>
</g>
<!-- COMPOUND_POISSON_PROCESS -->
<g id="node5" class="node"><title>COMPOUND_POISSON_PROCESS</title>
<g id="a_node5"><a xlink:href="COMPOUND_POISSON_PROCESS.html" xlink:title=" Compound Poisson Process " target="_top">
<path fill="none" stroke="black" d="M383.5,-108C383.5,-108 232.5,-108 232.5,-108 226.5,-108 220.5,-102 220.5,-96 220.5,-96 220.5,-84 220.5,-84 220.5,-78 226.5,-72 232.5,-72 232.5,-72 383.5,-72 383.5,-72 389.5,-72 395.5,-78 395.5,-84 395.5,-84 395.5,-96 395.5,-96 395.5,-102 389.5,-108 383.5,-108"/>
<text text-anchor="start" x="228" y="-86.3" font-family="Times,serif" font-size="14.00"> Compound Poisson Process </text>
</a>
</g>
</g>
<!-- POISSON_PROCESS&#45;&gt;COMPOUND_POISSON_PROCESS -->
<g id="edge4" class="edge"><title>POISSON_PROCESS&#45;&gt;COMPOUND_POISSON_PROCESS</title>
<path fill="none" stroke="black" d="M308,-143.697C308,-135.983 308,-126.712 308,-118.112"/>
<polygon fill="black" stroke="black" points="311.5,-118.104 308,-108.104 304.5,-118.104 311.5,-118.104"/>
</g>
<!-- MM1_QUEUE -->
<g id="node7" class="node"><title>MM1_QUEUE</title>
<g id="a_node7"><a xlink:href="MM1_QUEUE.html" xlink:title=" The M/M/1 Queue &#160;" target="_top">
<path fill="none" stroke="black" d="M315.25,-36C315.25,-36 208.75,-36 208.75,-36 202.75,-36 196.75,-30 196.75,-24 196.75,-24 196.75,-12 196.75,-12 196.75,-6 202.75,-0 208.75,-0 208.75,-0 315.25,-0 315.25,-0 321.25,-0 327.25,-6 327.25,-12 327.25,-12 327.25,-24 327.25,-24 327.25,-30 321.25,-36 315.25,-36"/>
<text text-anchor="start" x="204.5" y="-14.3" font-family="Times,serif" font-size="14.00"> The M/M/1 Queue &#160;</text>
</a>
</g>
</g>
<!-- POISSON_PROCESS&#45;&gt;MM1_QUEUE -->
<g id="edge7" class="edge"><title>POISSON_PROCESS&#45;&gt;MM1_QUEUE</title>
<path fill="none" stroke="black" d="M361.224,-143.963C377.893,-135.835 394.42,-124.231 404,-108 412.132,-94.2209 413.124,-85.1438 404,-72 388.566,-49.7654 362.61,-36.842 337.08,-29.337"/>
<polygon fill="black" stroke="black" points="337.904,-25.9344 327.338,-26.7178 336.087,-32.6943 337.904,-25.9344"/>
</g>
<!-- INHOMOGENEOUS_POISSON_PROCESS&#45;&gt;MM1_QUEUE -->
<!-- POISSON_RANDOM_VARIABLE -->
<g id="node3" class="node"><title>POISSON_RANDOM_VARIABLE</title>
<g id="a_node3"><a xlink:href="POISSON_RANDOM_VARIABLE.html" xlink:title=" The poisson random variable " target="_top">
<path fill="none" stroke="black" d="M198.25,-324C198.25,-324 39.75,-324 39.75,-324 33.75,-324 27.75,-318 27.75,-312 27.75,-312 27.75,-300 27.75,-300 27.75,-294 33.75,-288 39.75,-288 39.75,-288 198.25,-288 198.25,-288 204.25,-288 210.25,-294 210.25,-300 210.25,-300 210.25,-312 210.25,-312 210.25,-318 204.25,-324 198.25,-324"/>
<text text-anchor="start" x="35.5" y="-302.3" font-family="Times,serif" font-size="14.00"> The poisson random variable </text>
</a>
</g>
</g>
<!-- POISSON_RANDOM_VARIABLE&#45;&gt;POISSON_PROCESS -->
<g id="edge2" class="edge"><title>POISSON_RANDOM_VARIABLE&#45;&gt;POISSON_PROCESS</title>
<path fill="none" stroke="black" d="M102.412,-287.777C86.0603,-268.674 65.8243,-237.692 83,-216 102.635,-191.202 183.397,-176.848 242.564,-169.478"/>
<polygon fill="black" stroke="black" points="243.09,-172.94 252.6,-168.269 242.253,-165.991 243.09,-172.94"/>
</g>
<!-- SOVING_DIFFERENTIAL_EQUATIONS_USING_INTEGRATING_FACTORS -->
<g id="node6" class="node"><title>SOVING_DIFFERENTIAL_EQUATIONS_USING_INTEGRATING_FACTORS</title>
<g id="a_node6"><a xlink:href="SOVING_DIFFERENTIAL_EQUATIONS_USING_INTEGRATING_FACTORS.html" xlink:title=" Differential equations and integrating factors " target="_top">
<path fill="none" stroke="black" d="M349.25,-252C349.25,-252 104.75,-252 104.75,-252 98.75,-252 92.75,-246 92.75,-240 92.75,-240 92.75,-228 92.75,-228 92.75,-222 98.75,-216 104.75,-216 104.75,-216 349.25,-216 349.25,-216 355.25,-216 361.25,-222 361.25,-228 361.25,-228 361.25,-240 361.25,-240 361.25,-246 355.25,-252 349.25,-252"/>
<text text-anchor="start" x="100.5" y="-230.3" font-family="Times,serif" font-size="14.00"> Differential equations and integrating factors </text>
</a>
</g>
</g>
<!-- POISSON_RANDOM_VARIABLE&#45;&gt;SOVING_DIFFERENTIAL_EQUATIONS_USING_INTEGRATING_FACTORS -->
<!-- CONTINUOUS_TIME_MARKOV_CHAIN -->
<g id="node4" class="node"><title>CONTINUOUS_TIME_MARKOV_CHAIN</title>
<g id="a_node4"><a xlink:href="CONTINUOUS_TIME_MARKOV_CHAIN.html" xlink:title=" Markov chains in continuous time " target="_top">
<path fill="none" stroke="black" d="M483.5,-324C483.5,-324 296.5,-324 296.5,-324 290.5,-324 284.5,-318 284.5,-312 284.5,-312 284.5,-300 284.5,-300 284.5,-294 290.5,-288 296.5,-288 296.5,-288 483.5,-288 483.5,-288 489.5,-288 495.5,-294 495.5,-300 495.5,-300 495.5,-312 495.5,-312 495.5,-318 489.5,-324 483.5,-324"/>
<text text-anchor="start" x="292" y="-302.3" font-family="Times,serif" font-size="14.00"> Markov chains in continuous time </text>
</a>
</g>
</g>
<!-- CONTINUOUS_TIME_MARKOV_CHAIN&#45;&gt;POISSON_PROCESS -->
<g id="edge3" class="edge"><title>CONTINUOUS_TIME_MARKOV_CHAIN&#45;&gt;POISSON_PROCESS</title>
<path fill="none" stroke="black" d="M389.327,-287.742C387.896,-268.885 383.486,-238.382 370,-216 363.195,-204.707 353.139,-194.617 343.096,-186.35"/>
<polygon fill="black" stroke="black" points="345.146,-183.51 335.108,-180.122 340.842,-189.031 345.146,-183.51"/>
</g>
<!-- SOVING_DIFFERENTIAL_EQUATIONS_USING_INTEGRATING_FACTORS&#45;&gt;POISSON_PROCESS -->
<g id="edge5" class="edge"><title>SOVING_DIFFERENTIAL_EQUATIONS_USING_INTEGRATING_FACTORS&#45;&gt;POISSON_PROCESS</title>
<path fill="none" stroke="black" d="M247.022,-215.697C257.126,-206.965 269.536,-196.24 280.518,-186.75"/>
<polygon fill="black" stroke="black" points="282.93,-189.291 288.208,-180.104 278.353,-183.995 282.93,-189.291"/>
</g>
<!-- EXPONENTIAL_RANDOM_VARIABLE -->
<g id="node8" class="node"><title>EXPONENTIAL_RANDOM_VARIABLE</title>
<g id="a_node8"><a xlink:href="EXPONENTIAL_RANDOM_VARIABLE.html" xlink:title=" Exponential random variable " target="_top">
<path fill="none" stroke="black" d="M588,-252C588,-252 430,-252 430,-252 424,-252 418,-246 418,-240 418,-240 418,-228 418,-228 418,-222 424,-216 430,-216 430,-216 588,-216 588,-216 594,-216 600,-222 600,-228 600,-228 600,-240 600,-240 600,-246 594,-252 588,-252"/>
<text text-anchor="start" x="426" y="-230.3" font-family="Times,serif" font-size="14.00"> Exponential random variable </text>
</a>
</g>
</g>
<!-- EXPONENTIAL_RANDOM_VARIABLE&#45;&gt;POISSON_PROCESS -->
<g id="edge9" class="edge"><title>EXPONENTIAL_RANDOM_VARIABLE&#45;&gt;POISSON_PROCESS</title>
<path fill="none" stroke="black" d="M460.087,-215.966C432.003,-206.185 396.545,-193.836 366.932,-183.524"/>
<polygon fill="black" stroke="black" points="367.727,-180.094 357.132,-180.111 365.425,-186.705 367.727,-180.094"/>
</g>
</g>
</svg>
