<?xml version="1.0" encoding="UTF-8" standalone="no"?>
<!DOCTYPE svg PUBLIC "-//W3C//DTD SVG 1.1//EN"
 "http://www.w3.org/Graphics/SVG/1.1/DTD/svg11.dtd">
<!-- Generated by graphviz version 2.36.0 (20140111.2315)
 -->
<!-- Title: %3 Pages: 1 -->
<svg width="630pt" height="332pt"
 viewBox="0.00 0.00 630.00 332.00" xmlns="http://www.w3.org/2000/svg" xmlns:xlink="http://www.w3.org/1999/xlink">
<g id="graph0" class="graph" transform="scale(1 1) rotate(0) translate(4 328)">
<title>%3</title>
<!-- POISSON_PROCESS -->
<g id="node1" class="node"><title>POISSON_PROCESS</title>
<g id="a_node1"><a xlink:href="POISSON_PROCESS.html" xlink:title=" Poisson Process " target="_top">
<path fill="none" stroke="blue" stroke-width="2" d="M301.25,-180C301.25,-180 214.75,-180 214.75,-180 208.75,-180 202.75,-174 202.75,-168 202.75,-168 202.75,-156 202.75,-156 202.75,-150 208.75,-144 214.75,-144 214.75,-144 301.25,-144 301.25,-144 307.25,-144 313.25,-150 313.25,-156 313.25,-156 313.25,-168 313.25,-168 313.25,-174 307.25,-180 301.25,-180"/>
<text text-anchor="start" x="210.5" y="-158.3" font-family="Times,serif" font-size="14.00"> Poisson Process </text>
</a>
</g>
</g>
<!-- MM1_QUEUE -->
<g id="node3" class="node"><title>MM1_QUEUE</title>
<g id="a_node3"><a xlink:href="MM1_QUEUE.html" xlink:title=" The M/M/1 Queue &#160;" target="_top">
<path fill="none" stroke="black" d="M139.25,-108C139.25,-108 32.75,-108 32.75,-108 26.75,-108 20.75,-102 20.75,-96 20.75,-96 20.75,-84 20.75,-84 20.75,-78 26.75,-72 32.75,-72 32.75,-72 139.25,-72 139.25,-72 145.25,-72 151.25,-78 151.25,-84 151.25,-84 151.25,-96 151.25,-96 151.25,-102 145.25,-108 139.25,-108"/>
<text text-anchor="start" x="28.5" y="-86.3" font-family="Times,serif" font-size="14.00"> The M/M/1 Queue &#160;</text>
</a>
</g>
</g>
<!-- POISSON_PROCESS&#45;&gt;MM1_QUEUE -->
<g id="edge2" class="edge"><title>POISSON_PROCESS&#45;&gt;MM1_QUEUE</title>
<path fill="none" stroke="black" d="M215.924,-143.876C192.202,-134.222 162.384,-122.087 137.299,-111.878"/>
<polygon fill="black" stroke="black" points="138.521,-108.596 127.939,-108.068 135.882,-115.08 138.521,-108.596"/>
</g>
<!-- COMPOUND_POISSON_PROCESS -->
<g id="node7" class="node"><title>COMPOUND_POISSON_PROCESS</title>
<g id="a_node7"><a xlink:href="COMPOUND_POISSON_PROCESS.html" xlink:title=" Compound Poisson Process " target="_top">
<path fill="none" stroke="black" d="M333.5,-108C333.5,-108 182.5,-108 182.5,-108 176.5,-108 170.5,-102 170.5,-96 170.5,-96 170.5,-84 170.5,-84 170.5,-78 176.5,-72 182.5,-72 182.5,-72 333.5,-72 333.5,-72 339.5,-72 345.5,-78 345.5,-84 345.5,-84 345.5,-96 345.5,-96 345.5,-102 339.5,-108 333.5,-108"/>
<text text-anchor="start" x="178" y="-86.3" font-family="Times,serif" font-size="14.00"> Compound Poisson Process </text>
</a>
</g>
</g>
<!-- POISSON_PROCESS&#45;&gt;COMPOUND_POISSON_PROCESS -->
<g id="edge7" class="edge"><title>POISSON_PROCESS&#45;&gt;COMPOUND_POISSON_PROCESS</title>
<path fill="none" stroke="black" d="M258,-143.697C258,-135.983 258,-126.712 258,-118.112"/>
<polygon fill="black" stroke="black" points="261.5,-118.104 258,-108.104 254.5,-118.104 261.5,-118.104"/>
</g>
<!-- INHOMOGENEOUS_POISSON_PROCESS -->
<g id="node8" class="node"><title>INHOMOGENEOUS_POISSON_PROCESS</title>
<g id="a_node8"><a xlink:href="INHOMOGENEOUS_POISSON_PROCESS.html" xlink:title=" Inhomogeneous Poisson Process " target="_top">
<path fill="none" stroke="black" d="M319,-36C319,-36 141,-36 141,-36 135,-36 129,-30 129,-24 129,-24 129,-12 129,-12 129,-6 135,-0 141,-0 141,-0 319,-0 319,-0 325,-0 331,-6 331,-12 331,-12 331,-24 331,-24 331,-30 325,-36 319,-36"/>
<text text-anchor="start" x="137" y="-14.3" font-family="Times,serif" font-size="14.00"> Inhomogeneous Poisson Process </text>
</a>
</g>
</g>
<!-- POISSON_PROCESS&#45;&gt;INHOMOGENEOUS_POISSON_PROCESS -->
<g id="edge8" class="edge"><title>POISSON_PROCESS&#45;&gt;INHOMOGENEOUS_POISSON_PROCESS</title>
<path fill="none" stroke="black" d="M311.224,-143.963C327.893,-135.835 344.42,-124.231 354,-108 362.132,-94.2209 362.814,-85.3532 354,-72 344.921,-58.2465 331.46,-48.0494 316.713,-40.4927"/>
<polygon fill="black" stroke="black" points="317.932,-37.1987 307.393,-36.1206 314.96,-43.5361 317.932,-37.1987"/>
</g>
<!-- POISSON_RANDOM_VARIABLE -->
<g id="node2" class="node"><title>POISSON_RANDOM_VARIABLE</title>
<g id="a_node2"><a xlink:href="POISSON_RANDOM_VARIABLE.html" xlink:title=" The poisson random variable " target="_top">
<path fill="none" stroke="black" d="M170.25,-324C170.25,-324 11.75,-324 11.75,-324 5.75,-324 -0.25,-318 -0.25,-312 -0.25,-312 -0.25,-300 -0.25,-300 -0.25,-294 5.75,-288 11.75,-288 11.75,-288 170.25,-288 170.25,-288 176.25,-288 182.25,-294 182.25,-300 182.25,-300 182.25,-312 182.25,-312 182.25,-318 176.25,-324 170.25,-324"/>
<text text-anchor="start" x="7.5" y="-302.3" font-family="Times,serif" font-size="14.00"> The poisson random variable </text>
</a>
</g>
</g>
<!-- POISSON_RANDOM_VARIABLE&#45;&gt;POISSON_PROCESS -->
<g id="edge1" class="edge"><title>POISSON_RANDOM_VARIABLE&#45;&gt;POISSON_PROCESS</title>
<path fill="none" stroke="black" d="M81.1271,-287.798C71.4634,-268.428 60.2949,-236.931 76,-216 90.2609,-196.994 146.343,-182.566 192.528,-173.599"/>
<polygon fill="black" stroke="black" points="193.337,-177.008 202.514,-171.713 192.038,-170.129 193.337,-177.008"/>
</g>
<!-- CONTINUOUS_TIME_MARKOV_CHAIN -->
<g id="node5" class="node"><title>CONTINUOUS_TIME_MARKOV_CHAIN</title>
<g id="a_node5"><a xlink:href="CONTINUOUS_TIME_MARKOV_CHAIN.html" xlink:title=" Markov chains in continuous time " target="_top">
<path fill="none" stroke="black" d="M284.5,-252C284.5,-252 97.5,-252 97.5,-252 91.5,-252 85.5,-246 85.5,-240 85.5,-240 85.5,-228 85.5,-228 85.5,-222 91.5,-216 97.5,-216 97.5,-216 284.5,-216 284.5,-216 290.5,-216 296.5,-222 296.5,-228 296.5,-228 296.5,-240 296.5,-240 296.5,-246 290.5,-252 284.5,-252"/>
<text text-anchor="start" x="93" y="-230.3" font-family="Times,serif" font-size="14.00"> Markov chains in continuous time </text>
</a>
</g>
</g>
<!-- POISSON_RANDOM_VARIABLE&#45;&gt;CONTINUOUS_TIME_MARKOV_CHAIN -->
<!-- MM1_QUEUE&#45;&gt;INHOMOGENEOUS_POISSON_PROCESS -->
<!-- EXPONENTIAL_RANDOM_VARIABLE -->
<g id="node4" class="node"><title>EXPONENTIAL_RANDOM_VARIABLE</title>
<g id="a_node4"><a xlink:href="EXPONENTIAL_RANDOM_VARIABLE.html" xlink:title=" Exponential random variable " target="_top">
<path fill="none" stroke="black" d="M404,-324C404,-324 246,-324 246,-324 240,-324 234,-318 234,-312 234,-312 234,-300 234,-300 234,-294 240,-288 246,-288 246,-288 404,-288 404,-288 410,-288 416,-294 416,-300 416,-300 416,-312 416,-312 416,-318 410,-324 404,-324"/>
<text text-anchor="start" x="242" y="-302.3" font-family="Times,serif" font-size="14.00"> Exponential random variable </text>
</a>
</g>
</g>
<!-- EXPONENTIAL_RANDOM_VARIABLE&#45;&gt;POISSON_PROCESS -->
<g id="edge3" class="edge"><title>EXPONENTIAL_RANDOM_VARIABLE&#45;&gt;POISSON_PROCESS</title>
<path fill="none" stroke="black" d="M323.694,-287.735C321.716,-269.141 316.838,-239.118 305,-216 299.764,-205.775 292.092,-195.956 284.459,-187.608"/>
<polygon fill="black" stroke="black" points="286.978,-185.179 277.53,-180.385 281.927,-190.024 286.978,-185.179"/>
</g>
<!-- CONTINUOUS_TIME_MARKOV_CHAIN&#45;&gt;POISSON_PROCESS -->
<g id="edge4" class="edge"><title>CONTINUOUS_TIME_MARKOV_CHAIN&#45;&gt;POISSON_PROCESS</title>
<path fill="none" stroke="black" d="M207.562,-215.697C215.675,-207.22 225.588,-196.864 234.471,-187.583"/>
<polygon fill="black" stroke="black" points="237.243,-189.749 241.629,-180.104 232.186,-184.908 237.243,-189.749"/>
</g>
<!-- SOVING_DIFFERENTIAL_EQUATIONS_USING_INTEGRATING_FACTORS -->
<g id="node6" class="node"><title>SOVING_DIFFERENTIAL_EQUATIONS_USING_INTEGRATING_FACTORS</title>
<g id="a_node6"><a xlink:href="SOVING_DIFFERENTIAL_EQUATIONS_USING_INTEGRATING_FACTORS.html" xlink:title=" Differential equations and integrating factors " target="_top">
<path fill="none" stroke="black" d="M610.25,-252C610.25,-252 365.75,-252 365.75,-252 359.75,-252 353.75,-246 353.75,-240 353.75,-240 353.75,-228 353.75,-228 353.75,-222 359.75,-216 365.75,-216 365.75,-216 610.25,-216 610.25,-216 616.25,-216 622.25,-222 622.25,-228 622.25,-228 622.25,-240 622.25,-240 622.25,-246 616.25,-252 610.25,-252"/>
<text text-anchor="start" x="361.5" y="-230.3" font-family="Times,serif" font-size="14.00"> Differential equations and integrating factors </text>
</a>
</g>
</g>
<!-- SOVING_DIFFERENTIAL_EQUATIONS_USING_INTEGRATING_FACTORS&#45;&gt;POISSON_PROCESS -->
<g id="edge6" class="edge"><title>SOVING_DIFFERENTIAL_EQUATIONS_USING_INTEGRATING_FACTORS&#45;&gt;POISSON_PROCESS</title>
<path fill="none" stroke="black" d="M432.03,-215.966C399.232,-205.984 357.647,-193.327 323.352,-182.89"/>
<polygon fill="black" stroke="black" points="324.01,-179.432 313.424,-179.868 321.972,-186.128 324.01,-179.432"/>
</g>
</g>
</svg>
