<?xml version="1.0" encoding="UTF-8" standalone="no"?>
<!DOCTYPE svg PUBLIC "-//W3C//DTD SVG 1.1//EN"
 "http://www.w3.org/Graphics/SVG/1.1/DTD/svg11.dtd">
<!-- Generated by graphviz version 2.28.0 (20110509.1545)
 -->
<!-- Title: _anonymous_0 Pages: 1 -->
<svg width="143pt" height="188pt"
 viewBox="0.00 0.00 143.00 188.00" xmlns="http://www.w3.org/2000/svg" xmlns:xlink="http://www.w3.org/1999/xlink">
<g id="graph1" class="graph" transform="scale(1 1) rotate(0) translate(4 184)">
<title>_anonymous_0</title>
<!-- POISSON_PROCESS -->
<g id="node1" class="node"><title>POISSON_PROCESS</title>
<a xlink:href="POISSON_PROCESS.html" xlink:title="TITLE:" target="_top">
<polyline fill="none" stroke="blue" stroke-width="2" points="84.25,-108 49.75,-108 "/>
<path fill="none" stroke="blue" stroke-width="2" d="M49.75,-108C43.75,-108 37.75,-102 37.75,-96"/>
<polyline fill="none" stroke="blue" stroke-width="2" points="37.75,-96 37.75,-84 "/>
<path fill="none" stroke="blue" stroke-width="2" d="M37.75,-84C37.75,-78 43.75,-72 49.75,-72"/>
<polyline fill="none" stroke="blue" stroke-width="2" points="49.75,-72 84.25,-72 "/>
<path fill="none" stroke="blue" stroke-width="2" d="M84.25,-72C90.25,-72 96.25,-78 96.25,-84"/>
<polyline fill="none" stroke="blue" stroke-width="2" points="96.25,-84 96.25,-96 "/>
<path fill="none" stroke="blue" stroke-width="2" d="M96.25,-96C96.25,-102 90.25,-108 84.25,-108"/>
<text text-anchor="start" x="46" y="-84.5" font-family="Times,serif" font-size="14.00">TITLE:</text>
</a>
</g>
<!-- COMPOUND_POISSON_PROCESS -->
<g id="node2" class="node"><title>COMPOUND_POISSON_PROCESS</title>
<a xlink:href="COMPOUND_POISSON_PROCESS.html" xlink:title="TITLE:" target="_top">
<polyline fill="none" stroke="black" points="46.25,-36 11.75,-36 "/>
<path fill="none" stroke="black" d="M11.75,-36C5.75,-36 -0.25,-30 -0.25,-24"/>
<polyline fill="none" stroke="black" points="-0.25,-24 -0.25,-12 "/>
<path fill="none" stroke="black" d="M-0.25,-12C-0.25,-6 5.75,-0 11.75,-0"/>
<polyline fill="none" stroke="black" points="11.75,-0 46.25,-0 "/>
<path fill="none" stroke="black" d="M46.25,-0C52.25,-0 58.25,-6 58.25,-12"/>
<polyline fill="none" stroke="black" points="58.25,-12 58.25,-24 "/>
<path fill="none" stroke="black" d="M58.25,-24C58.25,-30 52.25,-36 46.25,-36"/>
<text text-anchor="start" x="8" y="-12.5" font-family="Times,serif" font-size="14.00">TITLE:</text>
</a>
</g>
<!-- POISSON_PROCESS&#45;&gt;COMPOUND_POISSON_PROCESS -->
<g id="edge2" class="edge"><title>POISSON_PROCESS&#45;&gt;COMPOUND_POISSON_PROCESS</title>
<path fill="none" stroke="black" d="M57.6067,-71.6966C53.2351,-63.6436 47.9427,-53.8945 43.1047,-44.9824"/>
<polygon fill="black" stroke="black" points="46.1322,-43.223 38.2852,-36.1043 39.9802,-46.5627 46.1322,-43.223"/>
</g>
<!-- INHOMOGENEOUS_POISSON_PROCESS -->
<g id="node6" class="node"><title>INHOMOGENEOUS_POISSON_PROCESS</title>
<a xlink:href="INHOMOGENEOUS_POISSON_PROCESS.html" xlink:title="TITLE:" target="_top">
<polyline fill="none" stroke="black" points="123.25,-36 88.75,-36 "/>
<path fill="none" stroke="black" d="M88.75,-36C82.75,-36 76.75,-30 76.75,-24"/>
<polyline fill="none" stroke="black" points="76.75,-24 76.75,-12 "/>
<path fill="none" stroke="black" d="M76.75,-12C76.75,-6 82.75,-0 88.75,-0"/>
<polyline fill="none" stroke="black" points="88.75,-0 123.25,-0 "/>
<path fill="none" stroke="black" d="M123.25,-0C129.25,-0 135.25,-6 135.25,-12"/>
<polyline fill="none" stroke="black" points="135.25,-12 135.25,-24 "/>
<path fill="none" stroke="black" d="M135.25,-24C135.25,-30 129.25,-36 123.25,-36"/>
<text text-anchor="start" x="85" y="-12.5" font-family="Times,serif" font-size="14.00">TITLE:</text>
</a>
</g>
<!-- POISSON_PROCESS&#45;&gt;INHOMOGENEOUS_POISSON_PROCESS -->
<g id="edge6" class="edge"><title>POISSON_PROCESS&#45;&gt;INHOMOGENEOUS_POISSON_PROCESS</title>
<path fill="none" stroke="black" d="M76.6405,-71.6966C81.1271,-63.6436 86.5588,-53.8945 91.5241,-44.9824"/>
<polygon fill="black" stroke="black" points="94.6609,-46.5435 96.4704,-36.1043 88.5459,-43.1366 94.6609,-46.5435"/>
</g>
<!-- CONTINUOUS_TIME_MARKOV_CHAIN -->
<g id="node4" class="node"><title>CONTINUOUS_TIME_MARKOV_CHAIN</title>
<a xlink:href="CONTINUOUS_TIME_MARKOV_CHAIN.html" xlink:title="TITLE:" target="_top">
<polyline fill="none" stroke="black" points="84.25,-180 49.75,-180 "/>
<path fill="none" stroke="black" d="M49.75,-180C43.75,-180 37.75,-174 37.75,-168"/>
<polyline fill="none" stroke="black" points="37.75,-168 37.75,-156 "/>
<path fill="none" stroke="black" d="M37.75,-156C37.75,-150 43.75,-144 49.75,-144"/>
<polyline fill="none" stroke="black" points="49.75,-144 84.25,-144 "/>
<path fill="none" stroke="black" d="M84.25,-144C90.25,-144 96.25,-150 96.25,-156"/>
<polyline fill="none" stroke="black" points="96.25,-156 96.25,-168 "/>
<path fill="none" stroke="black" d="M96.25,-168C96.25,-174 90.25,-180 84.25,-180"/>
<text text-anchor="start" x="46" y="-156.5" font-family="Times,serif" font-size="14.00">TITLE:</text>
</a>
</g>
<!-- CONTINUOUS_TIME_MARKOV_CHAIN&#45;&gt;POISSON_PROCESS -->
<g id="edge4" class="edge"><title>CONTINUOUS_TIME_MARKOV_CHAIN&#45;&gt;POISSON_PROCESS</title>
<path fill="none" stroke="black" d="M67,-143.697C67,-135.983 67,-126.712 67,-118.112"/>
<polygon fill="black" stroke="black" points="70.5001,-118.104 67,-108.104 63.5001,-118.104 70.5001,-118.104"/>
</g>
</g>
</svg>
