<?xml version="1.0" encoding="UTF-8" standalone="no"?>
<!DOCTYPE svg PUBLIC "-//W3C//DTD SVG 1.1//EN"
 "http://www.w3.org/Graphics/SVG/1.1/DTD/svg11.dtd">
<!-- Generated by graphviz version 2.28.0 (20110509.1545)
 -->
<!-- Title: _anonymous_0 Pages: 1 -->
<svg width="389pt" height="188pt"
 viewBox="0.00 0.00 389.00 188.00" xmlns="http://www.w3.org/2000/svg" xmlns:xlink="http://www.w3.org/1999/xlink">
<g id="graph1" class="graph" transform="scale(1 1) rotate(0) translate(4 184)">
<title>_anonymous_0</title>
<!-- POISSON_RANDOM_VARIABLE -->
<g id="node1" class="node"><title>POISSON_RANDOM_VARIABLE</title>
<a xlink:href="POISSON_RANDOM_VARIABLE.html" xlink:title="The poisson random variable" target="_top">
<polyline fill="none" stroke="blue" stroke-width="2" points="258.25,-108 103.75,-108 "/>
<path fill="none" stroke="blue" stroke-width="2" d="M103.75,-108C97.75,-108 91.75,-102 91.75,-96"/>
<polyline fill="none" stroke="blue" stroke-width="2" points="91.75,-96 91.75,-84 "/>
<path fill="none" stroke="blue" stroke-width="2" d="M91.75,-84C91.75,-78 97.75,-72 103.75,-72"/>
<polyline fill="none" stroke="blue" stroke-width="2" points="103.75,-72 258.25,-72 "/>
<path fill="none" stroke="blue" stroke-width="2" d="M258.25,-72C264.25,-72 270.25,-78 270.25,-84"/>
<polyline fill="none" stroke="blue" stroke-width="2" points="270.25,-84 270.25,-96 "/>
<path fill="none" stroke="blue" stroke-width="2" d="M270.25,-96C270.25,-102 264.25,-108 258.25,-108"/>
<text text-anchor="start" x="100" y="-84.5" font-family="Times,serif" font-size="14.00">The poisson random variable</text>
</a>
</g>
<!-- POISSON_PROCESS -->
<g id="node6" class="node"><title>POISSON_PROCESS</title>
<a xlink:href="POISSON_PROCESS.html" xlink:title="Poisson Process" target="_top">
<polyline fill="none" stroke="black" points="222,-36 140,-36 "/>
<path fill="none" stroke="black" d="M140,-36C134,-36 128,-30 128,-24"/>
<polyline fill="none" stroke="black" points="128,-24 128,-12 "/>
<path fill="none" stroke="black" d="M128,-12C128,-6 134,-0 140,-0"/>
<polyline fill="none" stroke="black" points="140,-0 222,-0 "/>
<path fill="none" stroke="black" d="M222,-0C228,-0 234,-6 234,-12"/>
<polyline fill="none" stroke="black" points="234,-12 234,-24 "/>
<path fill="none" stroke="black" d="M234,-24C234,-30 228,-36 222,-36"/>
<text text-anchor="start" x="136.5" y="-12.5" font-family="Times,serif" font-size="14.00">Poisson Process</text>
</a>
</g>
<!-- POISSON_RANDOM_VARIABLE&#45;&gt;POISSON_PROCESS -->
<g id="edge6" class="edge"><title>POISSON_RANDOM_VARIABLE&#45;&gt;POISSON_PROCESS</title>
<path fill="none" stroke="black" d="M181,-71.6966C181,-63.9827 181,-54.7125 181,-46.1124"/>
<polygon fill="black" stroke="black" points="184.5,-46.1043 181,-36.1043 177.5,-46.1044 184.5,-46.1043"/>
</g>
<!-- BINOMIAL_RANDOM_VARIABLE -->
<g id="node2" class="node"><title>BINOMIAL_RANDOM_VARIABLE</title>
<a xlink:href="BINOMIAL_RANDOM_VARIABLE.html" xlink:title="Binomial random variable" target="_top">
<polyline fill="none" stroke="black" points="150.25,-180 11.75,-180 "/>
<path fill="none" stroke="black" d="M11.75,-180C5.75,-180 -0.25,-174 -0.25,-168"/>
<polyline fill="none" stroke="black" points="-0.25,-168 -0.25,-156 "/>
<path fill="none" stroke="black" d="M-0.25,-156C-0.25,-150 5.75,-144 11.75,-144"/>
<polyline fill="none" stroke="black" points="11.75,-144 150.25,-144 "/>
<path fill="none" stroke="black" d="M150.25,-144C156.25,-144 162.25,-150 162.25,-156"/>
<polyline fill="none" stroke="black" points="162.25,-156 162.25,-168 "/>
<path fill="none" stroke="black" d="M162.25,-168C162.25,-174 156.25,-180 150.25,-180"/>
<text text-anchor="start" x="8" y="-156.5" font-family="Times,serif" font-size="14.00">Binomial random variable</text>
</a>
</g>
<!-- BINOMIAL_RANDOM_VARIABLE&#45;&gt;POISSON_RANDOM_VARIABLE -->
<g id="edge2" class="edge"><title>BINOMIAL_RANDOM_VARIABLE&#45;&gt;POISSON_RANDOM_VARIABLE</title>
<path fill="none" stroke="black" d="M105.463,-143.876C118.296,-134.893 134.196,-123.763 148.094,-114.034"/>
<polygon fill="black" stroke="black" points="150.258,-116.792 156.443,-108.19 146.244,-111.057 150.258,-116.792"/>
</g>
<!-- MOMENT_GENERATING_FUNCTION -->
<g id="node4" class="node"><title>MOMENT_GENERATING_FUNCTION</title>
<a xlink:href="MOMENT_GENERATING_FUNCTION.html" xlink:title="The moment generating function" target="_top">
<polyline fill="none" stroke="black" points="369,-180 193,-180 "/>
<path fill="none" stroke="black" d="M193,-180C187,-180 181,-174 181,-168"/>
<polyline fill="none" stroke="black" points="181,-168 181,-156 "/>
<path fill="none" stroke="black" d="M181,-156C181,-150 187,-144 193,-144"/>
<polyline fill="none" stroke="black" points="193,-144 369,-144 "/>
<path fill="none" stroke="black" d="M369,-144C375,-144 381,-150 381,-156"/>
<polyline fill="none" stroke="black" points="381,-156 381,-168 "/>
<path fill="none" stroke="black" d="M381,-168C381,-174 375,-180 369,-180"/>
<text text-anchor="start" x="189.5" y="-156.5" font-family="Times,serif" font-size="14.00">The moment generating function</text>
</a>
</g>
<!-- MOMENT_GENERATING_FUNCTION&#45;&gt;POISSON_RANDOM_VARIABLE -->
<g id="edge4" class="edge"><title>MOMENT_GENERATING_FUNCTION&#45;&gt;POISSON_RANDOM_VARIABLE</title>
<path fill="none" stroke="black" d="M256.537,-143.876C243.704,-134.893 227.804,-123.763 213.906,-114.034"/>
<polygon fill="black" stroke="black" points="215.756,-111.057 205.557,-108.19 211.742,-116.792 215.756,-111.057"/>
</g>
</g>
</svg>
