<?xml version="1.0" encoding="UTF-8" standalone="no"?>
<!DOCTYPE svg PUBLIC "-//W3C//DTD SVG 1.1//EN"
 "http://www.w3.org/Graphics/SVG/1.1/DTD/svg11.dtd">
<!-- Generated by graphviz version 2.28.0 (20110509.1545)
 -->
<!-- Title: _anonymous_0 Pages: 1 -->
<svg width="389pt" height="116pt"
 viewBox="0.00 0.00 389.00 116.00" xmlns="http://www.w3.org/2000/svg" xmlns:xlink="http://www.w3.org/1999/xlink">
<g id="graph1" class="graph" transform="scale(1 1) rotate(0) translate(4 112)">
<title>_anonymous_0</title>
<!-- POISSON_RANDOM_VARIABLE -->
<g id="node1" class="node"><title>POISSON_RANDOM_VARIABLE</title>
<a xlink:href="POISSON_RANDOM_VARIABLE.html" xlink:title="The poisson random variable" target="_top">
<polyline fill="none" stroke="blue" stroke-width="2" points="258.25,-36 103.75,-36 "/>
<path fill="none" stroke="blue" stroke-width="2" d="M103.75,-36C97.75,-36 91.75,-30 91.75,-24"/>
<polyline fill="none" stroke="blue" stroke-width="2" points="91.75,-24 91.75,-12 "/>
<path fill="none" stroke="blue" stroke-width="2" d="M91.75,-12C91.75,-6 97.75,-0 103.75,-0"/>
<polyline fill="none" stroke="blue" stroke-width="2" points="103.75,-0 258.25,-0 "/>
<path fill="none" stroke="blue" stroke-width="2" d="M258.25,-0C264.25,-0 270.25,-6 270.25,-12"/>
<polyline fill="none" stroke="blue" stroke-width="2" points="270.25,-12 270.25,-24 "/>
<path fill="none" stroke="blue" stroke-width="2" d="M270.25,-24C270.25,-30 264.25,-36 258.25,-36"/>
<text text-anchor="start" x="100" y="-12.5" font-family="Times,serif" font-size="14.00">The poisson random variable</text>
</a>
</g>
<!-- BINOMIAL_RANDOM_VARIABLE -->
<g id="node2" class="node"><title>BINOMIAL_RANDOM_VARIABLE</title>
<a xlink:href="BINOMIAL_RANDOM_VARIABLE.html" xlink:title="Binomial random variable" target="_top">
<polyline fill="none" stroke="black" points="150.25,-108 11.75,-108 "/>
<path fill="none" stroke="black" d="M11.75,-108C5.75,-108 -0.25,-102 -0.25,-96"/>
<polyline fill="none" stroke="black" points="-0.25,-96 -0.25,-84 "/>
<path fill="none" stroke="black" d="M-0.25,-84C-0.25,-78 5.75,-72 11.75,-72"/>
<polyline fill="none" stroke="black" points="11.75,-72 150.25,-72 "/>
<path fill="none" stroke="black" d="M150.25,-72C156.25,-72 162.25,-78 162.25,-84"/>
<polyline fill="none" stroke="black" points="162.25,-84 162.25,-96 "/>
<path fill="none" stroke="black" d="M162.25,-96C162.25,-102 156.25,-108 150.25,-108"/>
<text text-anchor="start" x="8" y="-84.5" font-family="Times,serif" font-size="14.00">Binomial random variable</text>
</a>
</g>
<!-- BINOMIAL_RANDOM_VARIABLE&#45;&gt;POISSON_RANDOM_VARIABLE -->
<g id="edge2" class="edge"><title>BINOMIAL_RANDOM_VARIABLE&#45;&gt;POISSON_RANDOM_VARIABLE</title>
<path fill="none" stroke="black" d="M105.463,-71.8761C118.296,-62.8931 134.196,-51.7625 148.094,-42.0341"/>
<polygon fill="black" stroke="black" points="150.258,-44.7917 156.443,-36.1898 146.244,-39.0571 150.258,-44.7917"/>
</g>
<!-- MOMENT_GENERATING_FUNCTION -->
<g id="node4" class="node"><title>MOMENT_GENERATING_FUNCTION</title>
<a xlink:href="MOMENT_GENERATING_FUNCTION.html" xlink:title="The moment generating function" target="_top">
<polyline fill="none" stroke="black" points="369,-108 193,-108 "/>
<path fill="none" stroke="black" d="M193,-108C187,-108 181,-102 181,-96"/>
<polyline fill="none" stroke="black" points="181,-96 181,-84 "/>
<path fill="none" stroke="black" d="M181,-84C181,-78 187,-72 193,-72"/>
<polyline fill="none" stroke="black" points="193,-72 369,-72 "/>
<path fill="none" stroke="black" d="M369,-72C375,-72 381,-78 381,-84"/>
<polyline fill="none" stroke="black" points="381,-84 381,-96 "/>
<path fill="none" stroke="black" d="M381,-96C381,-102 375,-108 369,-108"/>
<text text-anchor="start" x="189.5" y="-84.5" font-family="Times,serif" font-size="14.00">The moment generating function</text>
</a>
</g>
<!-- MOMENT_GENERATING_FUNCTION&#45;&gt;POISSON_RANDOM_VARIABLE -->
<g id="edge4" class="edge"><title>MOMENT_GENERATING_FUNCTION&#45;&gt;POISSON_RANDOM_VARIABLE</title>
<path fill="none" stroke="black" d="M256.537,-71.8761C243.704,-62.8931 227.804,-51.7625 213.906,-42.0341"/>
<polygon fill="black" stroke="black" points="215.756,-39.0571 205.557,-36.1898 211.742,-44.7917 215.756,-39.0571"/>
</g>
</g>
</svg>
