<?xml version="1.0" encoding="UTF-8" standalone="no"?>
<!DOCTYPE svg PUBLIC "-//W3C//DTD SVG 1.1//EN"
 "http://www.w3.org/Graphics/SVG/1.1/DTD/svg11.dtd">
<!-- Generated by graphviz version 2.26.3 (20100126.1600)
 -->
<!-- Title: _anonymous_0 Pages: 1 -->
<svg width="490pt" height="188pt"
 viewBox="0.00 0.00 490.00 188.00" xmlns="http://www.w3.org/2000/svg" xmlns:xlink="http://www.w3.org/1999/xlink">
<g id="graph1" class="graph" transform="scale(1 1) rotate(0) translate(4 184)">
<title>_anonymous_0</title>
<!-- POISSON_PROCESS -->
<g id="node1" class="node"><title>POISSON_PROCESS</title>
<a xlink:href="POISSON_PROCESS.html" xlink:title="Poisson Process" target="_top">
<polyline fill="none" stroke="blue" stroke-width="2" points="299,-108 199,-108 "/>
<path fill="none" stroke="blue" stroke-width="2" d="M199,-108C193,-108 187,-102 187,-96"/>
<polyline fill="none" stroke="blue" stroke-width="2" points="187,-96 187,-84 "/>
<path fill="none" stroke="blue" stroke-width="2" d="M187,-84C187,-78 193,-72 199,-72"/>
<polyline fill="none" stroke="blue" stroke-width="2" points="199,-72 299,-72 "/>
<path fill="none" stroke="blue" stroke-width="2" d="M299,-72C305,-72 311,-78 311,-84"/>
<polyline fill="none" stroke="blue" stroke-width="2" points="311,-84 311,-96 "/>
<path fill="none" stroke="blue" stroke-width="2" d="M311,-96C311,-102 305,-108 299,-108"/>
<text text-anchor="start" x="195" y="-87.2333" font-family="Times Roman,serif" font-size="14.00">Poisson Process</text>
</a>
</g>
<!-- INHOMOGENEOUS_POISSON_PROCESS -->
<g id="node2" class="node"><title>INHOMOGENEOUS_POISSON_PROCESS</title>
<a xlink:href="INHOMOGENEOUS_POISSON_PROCESS.html" xlink:title="Inhomogeneous Poisson Process" target="_top">
<polyline fill="none" stroke="black" points="237,-36 23,-36 "/>
<path fill="none" stroke="black" d="M23,-36C17,-36 11,-30 11,-24"/>
<polyline fill="none" stroke="black" points="11,-24 11,-12 "/>
<path fill="none" stroke="black" d="M11,-12C11,-6 17,-1.74053e-14 23,-1.70471e-14"/>
<polyline fill="none" stroke="black" points="23,-1.70471e-14 237,-4.26923e-15 "/>
<path fill="none" stroke="black" d="M237,-4.26923e-15C243,-3.91097e-15 249,-6 249,-12"/>
<polyline fill="none" stroke="black" points="249,-12 249,-24 "/>
<path fill="none" stroke="black" d="M249,-24C249,-30 243,-36 237,-36"/>
<text text-anchor="start" x="19" y="-15.2333" font-family="Times Roman,serif" font-size="14.00">Inhomogeneous Poisson Process</text>
</a>
</g>
<!-- POISSON_PROCESS&#45;&gt;INHOMOGENEOUS_POISSON_PROCESS -->
<g id="edge2" class="edge"><title>POISSON_PROCESS&#45;&gt;INHOMOGENEOUS_POISSON_PROCESS</title>
<path fill="none" stroke="black" d="M218.971,-71.8314C203.75,-62.6221 185.087,-51.3301 168.792,-41.4706"/>
<polygon fill="black" stroke="black" points="170.387,-38.345 160.019,-36.1628 166.763,-44.3341 170.387,-38.345"/>
</g>
<!-- COMPOUND_POISSON_PROCESS -->
<g id="node8" class="node"><title>COMPOUND_POISSON_PROCESS</title>
<a xlink:href="COMPOUND_POISSON_PROCESS.html" xlink:title="Compound Poisson Process" target="_top">
<polyline fill="none" stroke="black" points="457,-36 279,-36 "/>
<path fill="none" stroke="black" d="M279,-36C273,-36 267,-30 267,-24"/>
<polyline fill="none" stroke="black" points="267,-24 267,-12 "/>
<path fill="none" stroke="black" d="M267,-12C267,-6 273,-1.73415e-14 279,-1.69194e-14"/>
<polyline fill="none" stroke="black" points="279,-1.69194e-14 457,-4.39692e-15 "/>
<path fill="none" stroke="black" d="M457,-4.39692e-15C463,-3.97482e-15 469,-6 469,-12"/>
<polyline fill="none" stroke="black" points="469,-12 469,-24 "/>
<path fill="none" stroke="black" d="M469,-24C469,-30 463,-36 457,-36"/>
<text text-anchor="start" x="275" y="-15.2333" font-family="Times Roman,serif" font-size="14.00">Compound Poisson Process</text>
</a>
</g>
<!-- POISSON_PROCESS&#45;&gt;COMPOUND_POISSON_PROCESS -->
<g id="edge8" class="edge"><title>POISSON_PROCESS&#45;&gt;COMPOUND_POISSON_PROCESS</title>
<path fill="none" stroke="black" d="M279.029,-71.8314C294.25,-62.6221 312.913,-51.3301 329.208,-41.4706"/>
<polygon fill="black" stroke="black" points="331.237,-44.3341 337.981,-36.1628 327.613,-38.345 331.237,-44.3341"/>
</g>
<!-- CONTINUOUS_TIME_MARKOV_CHAIN -->
<g id="node4" class="node"><title>CONTINUOUS_TIME_MARKOV_CHAIN</title>
<a xlink:href="CONTINUOUS_TIME_MARKOV_CHAIN.html" xlink:title="Markov chains in continuous time" target="_top">
<polyline fill="none" stroke="black" points="236,-180 12,-180 "/>
<path fill="none" stroke="black" d="M12,-180C6,-180 6.86858e-14,-174 5.21065e-14,-168"/>
<polyline fill="none" stroke="black" points="5.21065e-14,-168 1.89478e-14,-156 "/>
<path fill="none" stroke="black" d="M1.89478e-14,-156C2.36848e-15,-150 6,-144 12,-144"/>
<polyline fill="none" stroke="black" points="12,-144 236,-144 "/>
<path fill="none" stroke="black" d="M236,-144C242,-144 248,-150 248,-156"/>
<polyline fill="none" stroke="black" points="248,-156 248,-168 "/>
<path fill="none" stroke="black" d="M248,-168C248,-174 242,-180 236,-180"/>
<text text-anchor="start" x="8" y="-159.233" font-family="Times Roman,serif" font-size="14.00">Markov chains in continuous time</text>
</a>
</g>
<!-- CONTINUOUS_TIME_MARKOV_CHAIN&#45;&gt;POISSON_PROCESS -->
<g id="edge4" class="edge"><title>CONTINUOUS_TIME_MARKOV_CHAIN&#45;&gt;POISSON_PROCESS</title>
<path fill="none" stroke="black" d="M155.543,-143.831C171.679,-134.537 191.499,-123.121 208.727,-113.197"/>
<polygon fill="black" stroke="black" points="210.549,-116.187 217.467,-108.163 207.055,-110.121 210.549,-116.187"/>
</g>
<!-- POISSON_RANDOM_VARIABLE -->
<g id="node6" class="node"><title>POISSON_RANDOM_VARIABLE</title>
<a xlink:href="POISSON_RANDOM_VARIABLE.html" xlink:title="The poisson random variable" target="_top">
<polyline fill="none" stroke="black" points="470,-180 278,-180 "/>
<path fill="none" stroke="black" d="M278,-180C272,-180 266,-174 266,-168"/>
<polyline fill="none" stroke="black" points="266,-168 266,-156 "/>
<path fill="none" stroke="black" d="M266,-156C266,-150 272,-144 278,-144"/>
<polyline fill="none" stroke="black" points="278,-144 470,-144 "/>
<path fill="none" stroke="black" d="M470,-144C476,-144 482,-150 482,-156"/>
<polyline fill="none" stroke="black" points="482,-156 482,-168 "/>
<path fill="none" stroke="black" d="M482,-168C482,-174 476,-180 470,-180"/>
<text text-anchor="start" x="274.5" y="-159.233" font-family="Times Roman,serif" font-size="14.00">The poisson random variable</text>
</a>
</g>
<!-- POISSON_RANDOM_VARIABLE&#45;&gt;POISSON_PROCESS -->
<g id="edge6" class="edge"><title>POISSON_RANDOM_VARIABLE&#45;&gt;POISSON_PROCESS</title>
<path fill="none" stroke="black" d="M342.457,-143.831C326.321,-134.537 306.501,-123.121 289.273,-113.197"/>
<polygon fill="black" stroke="black" points="290.945,-110.121 280.533,-108.163 287.451,-116.187 290.945,-110.121"/>
</g>
</g>
</svg>
