<?xml version="1.0" encoding="UTF-8" standalone="no"?>
<!DOCTYPE svg PUBLIC "-//W3C//DTD SVG 1.1//EN"
 "http://www.w3.org/Graphics/SVG/1.1/DTD/svg11.dtd">
<!-- Generated by graphviz version 2.28.0 (20110509.1545)
 -->
<!-- Title: _anonymous_0 Pages: 1 -->
<svg width="397pt" height="188pt"
 viewBox="0.00 0.00 397.00 188.00" xmlns="http://www.w3.org/2000/svg" xmlns:xlink="http://www.w3.org/1999/xlink">
<g id="graph1" class="graph" transform="scale(1 1) rotate(0) translate(4 184)">
<title>_anonymous_0</title>
<!-- POISSON_PROCESS -->
<g id="node1" class="node"><title>POISSON_PROCESS</title>
<a xlink:href="POISSON_PROCESS.html" xlink:title="Poisson Process" target="_top">
<polyline fill="none" stroke="blue" stroke-width="2" points="229,-108 147,-108 "/>
<path fill="none" stroke="blue" stroke-width="2" d="M147,-108C141,-108 135,-102 135,-96"/>
<polyline fill="none" stroke="blue" stroke-width="2" points="135,-96 135,-84 "/>
<path fill="none" stroke="blue" stroke-width="2" d="M135,-84C135,-78 141,-72 147,-72"/>
<polyline fill="none" stroke="blue" stroke-width="2" points="147,-72 229,-72 "/>
<path fill="none" stroke="blue" stroke-width="2" d="M229,-72C235,-72 241,-78 241,-84"/>
<polyline fill="none" stroke="blue" stroke-width="2" points="241,-84 241,-96 "/>
<path fill="none" stroke="blue" stroke-width="2" d="M241,-96C241,-102 235,-108 229,-108"/>
<text text-anchor="start" x="143.5" y="-84.5" font-family="Times,serif" font-size="14.00">Poisson Process</text>
</a>
</g>
<!-- COMPOUND_POISSON_PROCESS -->
<g id="node2" class="node"><title>COMPOUND_POISSON_PROCESS</title>
<a xlink:href="COMPOUND_POISSON_PROCESS.html" xlink:title="Compound Poisson Process" target="_top">
<polyline fill="none" stroke="black" points="160,-36 12,-36 "/>
<path fill="none" stroke="black" d="M12,-36C6,-36 0,-30 0,-24"/>
<polyline fill="none" stroke="black" points="0,-24 0,-12 "/>
<path fill="none" stroke="black" d="M0,-12C0,-6 6,-0 12,-0"/>
<polyline fill="none" stroke="black" points="12,-0 160,-0 "/>
<path fill="none" stroke="black" d="M160,-0C166,-0 172,-6 172,-12"/>
<polyline fill="none" stroke="black" points="172,-12 172,-24 "/>
<path fill="none" stroke="black" d="M172,-24C172,-30 166,-36 160,-36"/>
<text text-anchor="start" x="8.5" y="-12.5" font-family="Times,serif" font-size="14.00">Compound Poisson Process</text>
</a>
</g>
<!-- POISSON_PROCESS&#45;&gt;COMPOUND_POISSON_PROCESS -->
<g id="edge2" class="edge"><title>POISSON_PROCESS&#45;&gt;COMPOUND_POISSON_PROCESS</title>
<path fill="none" stroke="black" d="M163.048,-71.8761C149.958,-62.8931 133.74,-51.7625 119.564,-42.0341"/>
<polygon fill="black" stroke="black" points="121.274,-38.9624 111.048,-36.1898 117.313,-44.734 121.274,-38.9624"/>
</g>
<!-- INHOMOGENEOUS_POISSON_PROCESS -->
<g id="node6" class="node"><title>INHOMOGENEOUS_POISSON_PROCESS</title>
<a xlink:href="INHOMOGENEOUS_POISSON_PROCESS.html" xlink:title="Inhomogeneous Poisson Process" target="_top">
<polyline fill="none" stroke="black" points="377.25,-36 202.75,-36 "/>
<path fill="none" stroke="black" d="M202.75,-36C196.75,-36 190.75,-30 190.75,-24"/>
<polyline fill="none" stroke="black" points="190.75,-24 190.75,-12 "/>
<path fill="none" stroke="black" d="M190.75,-12C190.75,-6 196.75,-0 202.75,-0"/>
<polyline fill="none" stroke="black" points="202.75,-0 377.25,-0 "/>
<path fill="none" stroke="black" d="M377.25,-0C383.25,-0 389.25,-6 389.25,-12"/>
<polyline fill="none" stroke="black" points="389.25,-12 389.25,-24 "/>
<path fill="none" stroke="black" d="M389.25,-24C389.25,-30 383.25,-36 377.25,-36"/>
<text text-anchor="start" x="199" y="-12.5" font-family="Times,serif" font-size="14.00">Inhomogeneous Poisson Process</text>
</a>
</g>
<!-- POISSON_PROCESS&#45;&gt;INHOMOGENEOUS_POISSON_PROCESS -->
<g id="edge6" class="edge"><title>POISSON_PROCESS&#45;&gt;INHOMOGENEOUS_POISSON_PROCESS</title>
<path fill="none" stroke="black" d="M212.952,-71.8761C226.042,-62.8931 242.26,-51.7625 256.436,-42.0341"/>
<polygon fill="black" stroke="black" points="258.687,-44.734 264.952,-36.1898 254.726,-38.9624 258.687,-44.734"/>
</g>
<!-- CONTINUOUS_TIME_MARKOV_CHAIN -->
<g id="node4" class="node"><title>CONTINUOUS_TIME_MARKOV_CHAIN</title>
<a xlink:href="CONTINUOUS_TIME_MARKOV_CHAIN.html" xlink:title="Markov chains in continuous time" target="_top">
<polyline fill="none" stroke="black" points="280,-180 96,-180 "/>
<path fill="none" stroke="black" d="M96,-180C90,-180 84,-174 84,-168"/>
<polyline fill="none" stroke="black" points="84,-168 84,-156 "/>
<path fill="none" stroke="black" d="M84,-156C84,-150 90,-144 96,-144"/>
<polyline fill="none" stroke="black" points="96,-144 280,-144 "/>
<path fill="none" stroke="black" d="M280,-144C286,-144 292,-150 292,-156"/>
<polyline fill="none" stroke="black" points="292,-156 292,-168 "/>
<path fill="none" stroke="black" d="M292,-168C292,-174 286,-180 280,-180"/>
<text text-anchor="start" x="92.5" y="-156.5" font-family="Times,serif" font-size="14.00">Markov chains in continuous time</text>
</a>
</g>
<!-- CONTINUOUS_TIME_MARKOV_CHAIN&#45;&gt;POISSON_PROCESS -->
<g id="edge4" class="edge"><title>CONTINUOUS_TIME_MARKOV_CHAIN&#45;&gt;POISSON_PROCESS</title>
<path fill="none" stroke="black" d="M188,-143.697C188,-135.983 188,-126.712 188,-118.112"/>
<polygon fill="black" stroke="black" points="191.5,-118.104 188,-108.104 184.5,-118.104 191.5,-118.104"/>
</g>
</g>
</svg>
