<?xml version="1.0" encoding="UTF-8" standalone="no"?>
<!DOCTYPE svg PUBLIC "-//W3C//DTD SVG 1.1//EN"
 "http://www.w3.org/Graphics/SVG/1.1/DTD/svg11.dtd">
<!-- Generated by graphviz version 2.26.3 (20100126.1600)
 -->
<!-- Title: _anonymous_0 Pages: 1 -->
<svg width="596pt" height="332pt"
 viewBox="0.00 0.00 596.00 332.00" xmlns="http://www.w3.org/2000/svg" xmlns:xlink="http://www.w3.org/1999/xlink">
<g id="graph1" class="graph" transform="scale(1 1) rotate(0) translate(4 328)">
<title>_anonymous_0</title>
<!-- POISSON_PROCESS -->
<g id="node1" class="node"><title>POISSON_PROCESS</title>
<a xlink:href="POISSON_PROCESS.html" xlink:title=" Poisson Process " target="_top">
<polyline fill="none" stroke="blue" stroke-width="2" points="374,-180 264,-180 "/>
<path fill="none" stroke="blue" stroke-width="2" d="M264,-180C258,-180 252,-174 252,-168"/>
<polyline fill="none" stroke="blue" stroke-width="2" points="252,-168 252,-156 "/>
<path fill="none" stroke="blue" stroke-width="2" d="M252,-156C252,-150 258,-144 264,-144"/>
<polyline fill="none" stroke="blue" stroke-width="2" points="264,-144 374,-144 "/>
<path fill="none" stroke="blue" stroke-width="2" d="M374,-144C380,-144 386,-150 386,-156"/>
<polyline fill="none" stroke="blue" stroke-width="2" points="386,-156 386,-168 "/>
<path fill="none" stroke="blue" stroke-width="2" d="M386,-168C386,-174 380,-180 374,-180"/>
<text text-anchor="start" x="260.5" y="-159.233" font-family="Times Roman,serif" font-size="14.00"> Poisson Process </text>
</a>
</g>
<!-- MM1_QUEUE -->
<g id="node2" class="node"><title>MM1_QUEUE</title>
<a xlink:href="MM1_QUEUE.html" xlink:title=" The M/M/1 Queue &#160;" target="_top">
<polyline fill="none" stroke="black" points="165,-108 35,-108 "/>
<path fill="none" stroke="black" d="M35,-108C29,-108 23,-102 23,-96"/>
<polyline fill="none" stroke="black" points="23,-96 23,-84 "/>
<path fill="none" stroke="black" d="M23,-84C23,-78 29,-72 35,-72"/>
<polyline fill="none" stroke="black" points="35,-72 165,-72 "/>
<path fill="none" stroke="black" d="M165,-72C171,-72 177,-78 177,-84"/>
<polyline fill="none" stroke="black" points="177,-84 177,-96 "/>
<path fill="none" stroke="black" d="M177,-96C177,-102 171,-108 165,-108"/>
<text text-anchor="start" x="31.5" y="-87.2333" font-family="Times Roman,serif" font-size="14.00"> The M/M/1 Queue &#160;</text>
</a>
</g>
<!-- POISSON_PROCESS&#45;&gt;MM1_QUEUE -->
<g id="edge2" class="edge"><title>POISSON_PROCESS&#45;&gt;MM1_QUEUE</title>
<path fill="none" stroke="black" d="M264.02,-143.924C233.821,-133.996 196.194,-121.625 164.6,-111.238"/>
<polygon fill="black" stroke="black" points="165.596,-107.882 155.003,-108.083 163.41,-114.531 165.596,-107.882"/>
</g>
<!-- INHOMOGENEOUS_POISSON_PROCESS -->
<g id="node4" class="node"><title>INHOMOGENEOUS_POISSON_PROCESS</title>
<a xlink:href="INHOMOGENEOUS_POISSON_PROCESS.html" xlink:title=" Inhomogeneous Poisson Process " target="_top">
<polyline fill="none" stroke="black" points="431,-108 207,-108 "/>
<path fill="none" stroke="black" d="M207,-108C201,-108 195,-102 195,-96"/>
<polyline fill="none" stroke="black" points="195,-96 195,-84 "/>
<path fill="none" stroke="black" d="M195,-84C195,-78 201,-72 207,-72"/>
<polyline fill="none" stroke="black" points="207,-72 431,-72 "/>
<path fill="none" stroke="black" d="M431,-72C437,-72 443,-78 443,-84"/>
<polyline fill="none" stroke="black" points="443,-84 443,-96 "/>
<path fill="none" stroke="black" d="M443,-96C443,-102 437,-108 431,-108"/>
<text text-anchor="start" x="203.5" y="-87.2333" font-family="Times Roman,serif" font-size="14.00"> Inhomogeneous Poisson Process </text>
</a>
</g>
<!-- POISSON_PROCESS&#45;&gt;INHOMOGENEOUS_POISSON_PROCESS -->
<g id="edge4" class="edge"><title>POISSON_PROCESS&#45;&gt;INHOMOGENEOUS_POISSON_PROCESS</title>
<path fill="none" stroke="black" d="M319,-143.831C319,-136.131 319,-126.974 319,-118.417"/>
<polygon fill="black" stroke="black" points="322.5,-118.413 319,-108.413 315.5,-118.413 322.5,-118.413"/>
</g>
<!-- COMPOUND_POISSON_PROCESS -->
<g id="node8" class="node"><title>COMPOUND_POISSON_PROCESS</title>
<a xlink:href="COMPOUND_POISSON_PROCESS.html" xlink:title=" Compound Poisson Process " target="_top">
<polyline fill="none" stroke="black" points="379,-36 191,-36 "/>
<path fill="none" stroke="black" d="M191,-36C185,-36 179,-30 179,-24"/>
<polyline fill="none" stroke="black" points="179,-24 179,-12 "/>
<path fill="none" stroke="black" d="M179,-12C179,-6 185,-1.73614e-14 191,-1.69592e-14"/>
<polyline fill="none" stroke="black" points="191,-1.69592e-14 379,-4.3571e-15 "/>
<path fill="none" stroke="black" d="M379,-4.3571e-15C385,-3.95491e-15 391,-6 391,-12"/>
<polyline fill="none" stroke="black" points="391,-12 391,-24 "/>
<path fill="none" stroke="black" d="M391,-24C391,-30 385,-36 379,-36"/>
<text text-anchor="start" x="187.5" y="-15.2333" font-family="Times Roman,serif" font-size="14.00"> Compound Poisson Process </text>
</a>
</g>
<!-- POISSON_PROCESS&#45;&gt;COMPOUND_POISSON_PROCESS -->
<g id="edge8" class="edge"><title>POISSON_PROCESS&#45;&gt;COMPOUND_POISSON_PROCESS</title>
<path fill="none" stroke="black" d="M386.235,-151.002C411.19,-143.304 437.038,-130.223 452,-108 460.936,-94.7278 461.414,-84.9376 452,-72 442.617,-59.105 412.988,-47.7272 381.238,-38.7817"/>
<polygon fill="black" stroke="black" points="381.905,-35.3359 371.337,-36.0847 380.065,-42.0899 381.905,-35.3359"/>
</g>
<!-- MM1_QUEUE&#45;&gt;COMPOUND_POISSON_PROCESS -->
<!-- SOVING_DIFFERENTIAL_EQUATIONS_USING_INTEGRATING_FACTORS -->
<g id="node6" class="node"><title>SOVING_DIFFERENTIAL_EQUATIONS_USING_INTEGRATING_FACTORS</title>
<a xlink:href="SOVING_DIFFERENTIAL_EQUATIONS_USING_INTEGRATING_FACTORS.html" xlink:title=" Differential equations and integrating factors " target="_top">
<polyline fill="none" stroke="black" points="326,-324 12,-324 "/>
<path fill="none" stroke="black" d="M12,-324C6,-324 1.42109e-13,-318 1.13687e-13,-312"/>
<polyline fill="none" stroke="black" points="1.13687e-13,-312 5.68434e-14,-300 "/>
<path fill="none" stroke="black" d="M5.68434e-14,-300C2.84217e-14,-294 6,-288 12,-288"/>
<polyline fill="none" stroke="black" points="12,-288 326,-288 "/>
<path fill="none" stroke="black" d="M326,-288C332,-288 338,-294 338,-300"/>
<polyline fill="none" stroke="black" points="338,-300 338,-312 "/>
<path fill="none" stroke="black" d="M338,-312C338,-318 332,-324 326,-324"/>
<text text-anchor="start" x="8" y="-303.233" font-family="Times Roman,serif" font-size="14.00"> Differential equations and integrating factors </text>
</a>
</g>
<!-- SOVING_DIFFERENTIAL_EQUATIONS_USING_INTEGRATING_FACTORS&#45;&gt;POISSON_PROCESS -->
<g id="edge6" class="edge"><title>SOVING_DIFFERENTIAL_EQUATIONS_USING_INTEGRATING_FACTORS&#45;&gt;POISSON_PROCESS</title>
<path fill="none" stroke="black" d="M166.386,-287.726C164.602,-267.937 164.947,-236.464 181,-216 196.144,-196.694 219.159,-184.278 242.077,-176.298"/>
<polygon fill="black" stroke="black" points="243.426,-179.541 251.87,-173.142 241.279,-172.878 243.426,-179.541"/>
</g>
<!-- CONTINUOUS_TIME_MARKOV_CHAIN -->
<g id="node13" class="node"><title>CONTINUOUS_TIME_MARKOV_CHAIN</title>
<a xlink:href="CONTINUOUS_TIME_MARKOV_CHAIN.html" xlink:title=" Markov chains in continuous time " target="_top">
<polyline fill="none" stroke="black" points="436,-252 202,-252 "/>
<path fill="none" stroke="black" d="M202,-252C196,-252 190,-246 190,-240"/>
<polyline fill="none" stroke="black" points="190,-240 190,-228 "/>
<path fill="none" stroke="black" d="M190,-228C190,-222 196,-216 202,-216"/>
<polyline fill="none" stroke="black" points="202,-216 436,-216 "/>
<path fill="none" stroke="black" d="M436,-216C442,-216 448,-222 448,-228"/>
<polyline fill="none" stroke="black" points="448,-228 448,-240 "/>
<path fill="none" stroke="black" d="M448,-240C448,-246 442,-252 436,-252"/>
<text text-anchor="start" x="198.5" y="-231.233" font-family="Times Roman,serif" font-size="14.00"> Markov chains in continuous time </text>
</a>
</g>
<!-- SOVING_DIFFERENTIAL_EQUATIONS_USING_INTEGRATING_FACTORS&#45;&gt;CONTINUOUS_TIME_MARKOV_CHAIN -->
<!-- POISSON_RANDOM_VARIABLE -->
<g id="node11" class="node"><title>POISSON_RANDOM_VARIABLE</title>
<a xlink:href="POISSON_RANDOM_VARIABLE.html" xlink:title=" The poisson random variable " target="_top">
<polyline fill="none" stroke="black" points="576,-324 376,-324 "/>
<path fill="none" stroke="black" d="M376,-324C370,-324 364,-318 364,-312"/>
<polyline fill="none" stroke="black" points="364,-312 364,-300 "/>
<path fill="none" stroke="black" d="M364,-300C364,-294 370,-288 376,-288"/>
<polyline fill="none" stroke="black" points="376,-288 576,-288 "/>
<path fill="none" stroke="black" d="M576,-288C582,-288 588,-294 588,-300"/>
<polyline fill="none" stroke="black" points="588,-300 588,-312 "/>
<path fill="none" stroke="black" d="M588,-312C588,-318 582,-324 576,-324"/>
<text text-anchor="start" x="372" y="-303.233" font-family="Times Roman,serif" font-size="14.00"> The poisson random variable </text>
</a>
</g>
<!-- POISSON_RANDOM_VARIABLE&#45;&gt;POISSON_PROCESS -->
<g id="edge12" class="edge"><title>POISSON_RANDOM_VARIABLE&#45;&gt;POISSON_PROCESS</title>
<path fill="none" stroke="black" d="M476.96,-287.95C477.038,-268.063 474.137,-236.225 457,-216 441.283,-197.451 418.365,-185.238 395.704,-177.211"/>
<polygon fill="black" stroke="black" points="396.623,-173.829 386.03,-174.021 394.431,-180.476 396.623,-173.829"/>
</g>
<!-- CONTINUOUS_TIME_MARKOV_CHAIN&#45;&gt;POISSON_PROCESS -->
<g id="edge14" class="edge"><title>CONTINUOUS_TIME_MARKOV_CHAIN&#45;&gt;POISSON_PROCESS</title>
<path fill="none" stroke="black" d="M319,-215.831C319,-208.131 319,-198.974 319,-190.417"/>
<polygon fill="black" stroke="black" points="322.5,-190.413 319,-180.413 315.5,-190.413 322.5,-190.413"/>
</g>
</g>
</svg>
