<?xml version="1.0" encoding="UTF-8" standalone="no"?>
<!DOCTYPE svg PUBLIC "-//W3C//DTD SVG 1.1//EN"
 "http://www.w3.org/Graphics/SVG/1.1/DTD/svg11.dtd">
<!-- Generated by graphviz version 2.36.0 (20140111.2315)
 -->
<!-- Title: %3 Pages: 1 -->
<svg width="398pt" height="188pt"
 viewBox="0.00 0.00 398.00 188.00" xmlns="http://www.w3.org/2000/svg" xmlns:xlink="http://www.w3.org/1999/xlink">
<g id="graph0" class="graph" transform="scale(1 1) rotate(0) translate(4 184)">
<title>%3</title>
<!-- POISSON_RANDOM_VARIABLE -->
<g id="node1" class="node"><title>POISSON_RANDOM_VARIABLE</title>
<g id="a_node1"><a xlink:href="POISSON_RANDOM_VARIABLE.html" xlink:title=" The poisson random variable " target="_top">
<path fill="none" stroke="blue" stroke-width="2" d="M265.25,-108C265.25,-108 106.75,-108 106.75,-108 100.75,-108 94.75,-102 94.75,-96 94.75,-96 94.75,-84 94.75,-84 94.75,-78 100.75,-72 106.75,-72 106.75,-72 265.25,-72 265.25,-72 271.25,-72 277.25,-78 277.25,-84 277.25,-84 277.25,-96 277.25,-96 277.25,-102 271.25,-108 265.25,-108"/>
<text text-anchor="start" x="102.5" y="-86.3" font-family="Times,serif" font-size="14.00"> The poisson random variable </text>
</a>
</g>
</g>
<!-- POISSON_PROCESS -->
<g id="node3" class="node"><title>POISSON_PROCESS</title>
<g id="a_node3"><a xlink:href="POISSON_PROCESS.html" xlink:title=" Poisson Process " target="_top">
<path fill="none" stroke="black" d="M229.25,-36C229.25,-36 142.75,-36 142.75,-36 136.75,-36 130.75,-30 130.75,-24 130.75,-24 130.75,-12 130.75,-12 130.75,-6 136.75,-0 142.75,-0 142.75,-0 229.25,-0 229.25,-0 235.25,-0 241.25,-6 241.25,-12 241.25,-12 241.25,-24 241.25,-24 241.25,-30 235.25,-36 229.25,-36"/>
<text text-anchor="start" x="138.5" y="-14.3" font-family="Times,serif" font-size="14.00"> Poisson Process </text>
</a>
</g>
</g>
<!-- POISSON_RANDOM_VARIABLE&#45;&gt;POISSON_PROCESS -->
<g id="edge2" class="edge"><title>POISSON_RANDOM_VARIABLE&#45;&gt;POISSON_PROCESS</title>
<path fill="none" stroke="black" d="M186,-71.6966C186,-63.9827 186,-54.7125 186,-46.1124"/>
<polygon fill="black" stroke="black" points="189.5,-46.1043 186,-36.1043 182.5,-46.1044 189.5,-46.1043"/>
</g>
<!-- BINOMIAL_RANDOM_VARIABLE -->
<g id="node2" class="node"><title>BINOMIAL_RANDOM_VARIABLE</title>
<g id="a_node2"><a xlink:href="BINOMIAL_RANDOM_VARIABLE.html" xlink:title=" Binomial random variable " target="_top">
<path fill="none" stroke="black" d="M155.5,-180C155.5,-180 12.5,-180 12.5,-180 6.5,-180 0.5,-174 0.5,-168 0.5,-168 0.5,-156 0.5,-156 0.5,-150 6.5,-144 12.5,-144 12.5,-144 155.5,-144 155.5,-144 161.5,-144 167.5,-150 167.5,-156 167.5,-156 167.5,-168 167.5,-168 167.5,-174 161.5,-180 155.5,-180"/>
<text text-anchor="start" x="8" y="-158.3" font-family="Times,serif" font-size="14.00"> Binomial random variable </text>
</a>
</g>
</g>
<!-- BINOMIAL_RANDOM_VARIABLE&#45;&gt;POISSON_RANDOM_VARIABLE -->
<g id="edge1" class="edge"><title>BINOMIAL_RANDOM_VARIABLE&#45;&gt;POISSON_RANDOM_VARIABLE</title>
<path fill="none" stroke="black" d="M108.952,-143.876C122.042,-134.893 138.26,-123.763 152.436,-114.034"/>
<polygon fill="black" stroke="black" points="154.687,-116.734 160.952,-108.19 150.726,-110.962 154.687,-116.734"/>
</g>
<!-- MOMENT_GENERATING_FUNCTION -->
<g id="node4" class="node"><title>MOMENT_GENERATING_FUNCTION</title>
<g id="a_node4"><a xlink:href="MOMENT_GENERATING_FUNCTION.html" xlink:title=" The moment generating function " target="_top">
<path fill="none" stroke="black" d="M377.5,-180C377.5,-180 198.5,-180 198.5,-180 192.5,-180 186.5,-174 186.5,-168 186.5,-168 186.5,-156 186.5,-156 186.5,-150 192.5,-144 198.5,-144 198.5,-144 377.5,-144 377.5,-144 383.5,-144 389.5,-150 389.5,-156 389.5,-156 389.5,-168 389.5,-168 389.5,-174 383.5,-180 377.5,-180"/>
<text text-anchor="start" x="194" y="-158.3" font-family="Times,serif" font-size="14.00"> The moment generating function </text>
</a>
</g>
</g>
<!-- MOMENT_GENERATING_FUNCTION&#45;&gt;POISSON_RANDOM_VARIABLE -->
<g id="edge3" class="edge"><title>MOMENT_GENERATING_FUNCTION&#45;&gt;POISSON_RANDOM_VARIABLE</title>
<path fill="none" stroke="black" d="M263.048,-143.876C249.958,-134.893 233.74,-123.763 219.564,-114.034"/>
<polygon fill="black" stroke="black" points="221.274,-110.962 211.048,-108.19 217.313,-116.734 221.274,-110.962"/>
</g>
</g>
</svg>
