<?xml version="1.0" encoding="UTF-8" standalone="no"?>
<!DOCTYPE svg PUBLIC "-//W3C//DTD SVG 1.1//EN"
 "http://www.w3.org/Graphics/SVG/1.1/DTD/svg11.dtd">
<!-- Generated by graphviz version 2.28.0 (20110509.1545)
 -->
<!-- Title: _anonymous_0 Pages: 1 -->
<svg width="419pt" height="188pt"
 viewBox="0.00 0.00 419.00 188.00" xmlns="http://www.w3.org/2000/svg" xmlns:xlink="http://www.w3.org/1999/xlink">
<g id="graph1" class="graph" transform="scale(1 1) rotate(0) translate(4 184)">
<title>_anonymous_0</title>
<!-- POISSON_PROCESS -->
<g id="node1" class="node"><title>POISSON_PROCESS</title>
<a xlink:href="POISSON_PROCESS.html" xlink:title="Poisson Process" target="_top">
<polyline fill="none" stroke="blue" stroke-width="2" points="251,-108 169,-108 "/>
<path fill="none" stroke="blue" stroke-width="2" d="M169,-108C163,-108 157,-102 157,-96"/>
<polyline fill="none" stroke="blue" stroke-width="2" points="157,-96 157,-84 "/>
<path fill="none" stroke="blue" stroke-width="2" d="M157,-84C157,-78 163,-72 169,-72"/>
<polyline fill="none" stroke="blue" stroke-width="2" points="169,-72 251,-72 "/>
<path fill="none" stroke="blue" stroke-width="2" d="M251,-72C257,-72 263,-78 263,-84"/>
<polyline fill="none" stroke="blue" stroke-width="2" points="263,-84 263,-96 "/>
<path fill="none" stroke="blue" stroke-width="2" d="M263,-96C263,-102 257,-108 251,-108"/>
<text text-anchor="start" x="165.5" y="-84.5" font-family="Times,serif" font-size="14.00">Poisson Process</text>
</a>
</g>
<!-- COMPOUND_POISSON_PROCESS -->
<g id="node2" class="node"><title>COMPOUND_POISSON_PROCESS</title>
<a xlink:href="COMPOUND_POISSON_PROCESS.html" xlink:title="Compound Poisson Process" target="_top">
<polyline fill="none" stroke="black" points="182,-36 34,-36 "/>
<path fill="none" stroke="black" d="M34,-36C28,-36 22,-30 22,-24"/>
<polyline fill="none" stroke="black" points="22,-24 22,-12 "/>
<path fill="none" stroke="black" d="M22,-12C22,-6 28,-0 34,-0"/>
<polyline fill="none" stroke="black" points="34,-0 182,-0 "/>
<path fill="none" stroke="black" d="M182,-0C188,-0 194,-6 194,-12"/>
<polyline fill="none" stroke="black" points="194,-12 194,-24 "/>
<path fill="none" stroke="black" d="M194,-24C194,-30 188,-36 182,-36"/>
<text text-anchor="start" x="30.5" y="-12.5" font-family="Times,serif" font-size="14.00">Compound Poisson Process</text>
</a>
</g>
<!-- POISSON_PROCESS&#45;&gt;COMPOUND_POISSON_PROCESS -->
<g id="edge2" class="edge"><title>POISSON_PROCESS&#45;&gt;COMPOUND_POISSON_PROCESS</title>
<path fill="none" stroke="black" d="M185.048,-71.8761C171.958,-62.8931 155.74,-51.7625 141.564,-42.0341"/>
<polygon fill="black" stroke="black" points="143.274,-38.9624 133.048,-36.1898 139.313,-44.734 143.274,-38.9624"/>
</g>
<!-- INHOMOGENEOUS_POISSON_PROCESS -->
<g id="node6" class="node"><title>INHOMOGENEOUS_POISSON_PROCESS</title>
<a xlink:href="INHOMOGENEOUS_POISSON_PROCESS.html" xlink:title="Inhomogeneous Poisson Process" target="_top">
<polyline fill="none" stroke="black" points="399.25,-36 224.75,-36 "/>
<path fill="none" stroke="black" d="M224.75,-36C218.75,-36 212.75,-30 212.75,-24"/>
<polyline fill="none" stroke="black" points="212.75,-24 212.75,-12 "/>
<path fill="none" stroke="black" d="M212.75,-12C212.75,-6 218.75,-0 224.75,-0"/>
<polyline fill="none" stroke="black" points="224.75,-0 399.25,-0 "/>
<path fill="none" stroke="black" d="M399.25,-0C405.25,-0 411.25,-6 411.25,-12"/>
<polyline fill="none" stroke="black" points="411.25,-12 411.25,-24 "/>
<path fill="none" stroke="black" d="M411.25,-24C411.25,-30 405.25,-36 399.25,-36"/>
<text text-anchor="start" x="221" y="-12.5" font-family="Times,serif" font-size="14.00">Inhomogeneous Poisson Process</text>
</a>
</g>
<!-- POISSON_PROCESS&#45;&gt;INHOMOGENEOUS_POISSON_PROCESS -->
<g id="edge6" class="edge"><title>POISSON_PROCESS&#45;&gt;INHOMOGENEOUS_POISSON_PROCESS</title>
<path fill="none" stroke="black" d="M234.952,-71.8761C248.042,-62.8931 264.26,-51.7625 278.436,-42.0341"/>
<polygon fill="black" stroke="black" points="280.687,-44.734 286.952,-36.1898 276.726,-38.9624 280.687,-44.734"/>
</g>
<!-- CONTINUOUS_TIME_MARKOV_CHAIN -->
<g id="node4" class="node"><title>CONTINUOUS_TIME_MARKOV_CHAIN</title>
<a xlink:href="CONTINUOUS_TIME_MARKOV_CHAIN.html" xlink:title="Markov chains in continuous time" target="_top">
<polyline fill="none" stroke="black" points="196,-180 12,-180 "/>
<path fill="none" stroke="black" d="M12,-180C6,-180 0,-174 0,-168"/>
<polyline fill="none" stroke="black" points="0,-168 0,-156 "/>
<path fill="none" stroke="black" d="M0,-156C0,-150 6,-144 12,-144"/>
<polyline fill="none" stroke="black" points="12,-144 196,-144 "/>
<path fill="none" stroke="black" d="M196,-144C202,-144 208,-150 208,-156"/>
<polyline fill="none" stroke="black" points="208,-156 208,-168 "/>
<path fill="none" stroke="black" d="M208,-168C208,-174 202,-180 196,-180"/>
<text text-anchor="start" x="8.5" y="-156.5" font-family="Times,serif" font-size="14.00">Markov chains in continuous time</text>
</a>
</g>
<!-- CONTINUOUS_TIME_MARKOV_CHAIN&#45;&gt;POISSON_PROCESS -->
<g id="edge4" class="edge"><title>CONTINUOUS_TIME_MARKOV_CHAIN&#45;&gt;POISSON_PROCESS</title>
<path fill="none" stroke="black" d="M129.931,-143.876C143.662,-134.808 160.706,-123.552 175.536,-113.759"/>
<polygon fill="black" stroke="black" points="177.554,-116.621 183.97,-108.19 173.696,-110.78 177.554,-116.621"/>
</g>
<!-- POISSON_RANDOM_VARIABLE -->
<g id="node8" class="node"><title>POISSON_RANDOM_VARIABLE</title>
<a xlink:href="POISSON_RANDOM_VARIABLE.html" xlink:title="The poisson random variable" target="_top">
<polyline fill="none" stroke="black" points="393.25,-180 238.75,-180 "/>
<path fill="none" stroke="black" d="M238.75,-180C232.75,-180 226.75,-174 226.75,-168"/>
<polyline fill="none" stroke="black" points="226.75,-168 226.75,-156 "/>
<path fill="none" stroke="black" d="M226.75,-156C226.75,-150 232.75,-144 238.75,-144"/>
<polyline fill="none" stroke="black" points="238.75,-144 393.25,-144 "/>
<path fill="none" stroke="black" d="M393.25,-144C399.25,-144 405.25,-150 405.25,-156"/>
<polyline fill="none" stroke="black" points="405.25,-156 405.25,-168 "/>
<path fill="none" stroke="black" d="M405.25,-168C405.25,-174 399.25,-180 393.25,-180"/>
<text text-anchor="start" x="235" y="-156.5" font-family="Times,serif" font-size="14.00">The poisson random variable</text>
</a>
</g>
<!-- POISSON_RANDOM_VARIABLE&#45;&gt;POISSON_PROCESS -->
<g id="edge8" class="edge"><title>POISSON_RANDOM_VARIABLE&#45;&gt;POISSON_PROCESS</title>
<path fill="none" stroke="black" d="M290.069,-143.876C276.338,-134.808 259.294,-123.552 244.464,-113.759"/>
<polygon fill="black" stroke="black" points="246.304,-110.78 236.03,-108.19 242.446,-116.621 246.304,-110.78"/>
</g>
</g>
</svg>
