<?xml version="1.0" encoding="UTF-8" standalone="no"?>
<!DOCTYPE svg PUBLIC "-//W3C//DTD SVG 1.1//EN"
 "http://www.w3.org/Graphics/SVG/1.1/DTD/svg11.dtd">
<!-- Generated by graphviz version 2.26.3 (20100126.1600)
 -->
<!-- Title: _anonymous_0 Pages: 1 -->
<svg width="563pt" height="260pt"
 viewBox="0.00 0.00 563.00 260.00" xmlns="http://www.w3.org/2000/svg" xmlns:xlink="http://www.w3.org/1999/xlink">
<g id="graph1" class="graph" transform="scale(1 1) rotate(0) translate(4 256)">
<title>_anonymous_0</title>
<!-- POISSON_PROCESS -->
<g id="node1" class="node"><title>POISSON_PROCESS</title>
<a xlink:href="POISSON_PROCESS.html" xlink:title="Poisson Process" target="_top">
<polyline fill="none" stroke="blue" stroke-width="2" points="288,-108 188,-108 "/>
<path fill="none" stroke="blue" stroke-width="2" d="M188,-108C182,-108 176,-102 176,-96"/>
<polyline fill="none" stroke="blue" stroke-width="2" points="176,-96 176,-84 "/>
<path fill="none" stroke="blue" stroke-width="2" d="M176,-84C176,-78 182,-72 188,-72"/>
<polyline fill="none" stroke="blue" stroke-width="2" points="188,-72 288,-72 "/>
<path fill="none" stroke="blue" stroke-width="2" d="M288,-72C294,-72 300,-78 300,-84"/>
<polyline fill="none" stroke="blue" stroke-width="2" points="300,-84 300,-96 "/>
<path fill="none" stroke="blue" stroke-width="2" d="M300,-96C300,-102 294,-108 288,-108"/>
<text text-anchor="start" x="184" y="-87.2333" font-family="Times Roman,serif" font-size="14.00">Poisson Process</text>
</a>
</g>
<!-- INHOMOGENEOUS_POISSON_PROCESS -->
<g id="node2" class="node"><title>INHOMOGENEOUS_POISSON_PROCESS</title>
<a xlink:href="INHOMOGENEOUS_POISSON_PROCESS.html" xlink:title="Inhomogeneous Poisson Process" target="_top">
<polyline fill="none" stroke="black" points="226,-36 12,-36 "/>
<path fill="none" stroke="black" d="M12,-36C6,-36 9.71075e-14,-30 8.05282e-14,-24"/>
<polyline fill="none" stroke="black" points="8.05282e-14,-24 4.73695e-14,-12 "/>
<path fill="none" stroke="black" d="M4.73695e-14,-12C3.07902e-14,-6 6,-1.74053e-14 12,-1.70471e-14"/>
<polyline fill="none" stroke="black" points="12,-1.70471e-14 226,-4.26923e-15 "/>
<path fill="none" stroke="black" d="M226,-4.26923e-15C232,-3.91097e-15 238,-6 238,-12"/>
<polyline fill="none" stroke="black" points="238,-12 238,-24 "/>
<path fill="none" stroke="black" d="M238,-24C238,-30 232,-36 226,-36"/>
<text text-anchor="start" x="8" y="-15.2333" font-family="Times Roman,serif" font-size="14.00">Inhomogeneous Poisson Process</text>
</a>
</g>
<!-- POISSON_PROCESS&#45;&gt;INHOMOGENEOUS_POISSON_PROCESS -->
<g id="edge2" class="edge"><title>POISSON_PROCESS&#45;&gt;INHOMOGENEOUS_POISSON_PROCESS</title>
<path fill="none" stroke="black" d="M207.971,-71.8314C192.75,-62.6221 174.087,-51.3301 157.792,-41.4706"/>
<polygon fill="black" stroke="black" points="159.387,-38.345 149.019,-36.1628 155.763,-44.3341 159.387,-38.345"/>
</g>
<!-- COMPOUND_POISSON_PROCESS -->
<g id="node11" class="node"><title>COMPOUND_POISSON_PROCESS</title>
<a xlink:href="COMPOUND_POISSON_PROCESS.html" xlink:title="Compound Poisson Process" target="_top">
<polyline fill="none" stroke="black" points="446,-36 268,-36 "/>
<path fill="none" stroke="black" d="M268,-36C262,-36 256,-30 256,-24"/>
<polyline fill="none" stroke="black" points="256,-24 256,-12 "/>
<path fill="none" stroke="black" d="M256,-12C256,-6 262,-1.73415e-14 268,-1.69194e-14"/>
<polyline fill="none" stroke="black" points="268,-1.69194e-14 446,-4.39692e-15 "/>
<path fill="none" stroke="black" d="M446,-4.39692e-15C452,-3.97482e-15 458,-6 458,-12"/>
<polyline fill="none" stroke="black" points="458,-12 458,-24 "/>
<path fill="none" stroke="black" d="M458,-24C458,-30 452,-36 446,-36"/>
<text text-anchor="start" x="264" y="-15.2333" font-family="Times Roman,serif" font-size="14.00">Compound Poisson Process</text>
</a>
</g>
<!-- POISSON_PROCESS&#45;&gt;COMPOUND_POISSON_PROCESS -->
<g id="edge12" class="edge"><title>POISSON_PROCESS&#45;&gt;COMPOUND_POISSON_PROCESS</title>
<path fill="none" stroke="black" d="M268.029,-71.8314C283.25,-62.6221 301.913,-51.3301 318.208,-41.4706"/>
<polygon fill="black" stroke="black" points="320.237,-44.3341 326.981,-36.1628 316.613,-38.345 320.237,-44.3341"/>
</g>
<!-- POISSON_RANDOM_VARIABLE -->
<g id="node4" class="node"><title>POISSON_RANDOM_VARIABLE</title>
<a xlink:href="POISSON_RANDOM_VARIABLE.html" xlink:title="The poisson random variable" target="_top">
<polyline fill="none" stroke="black" points="209,-252 17,-252 "/>
<path fill="none" stroke="black" d="M17,-252C11,-252 5,-246 5,-240"/>
<polyline fill="none" stroke="black" points="5,-240 5,-228 "/>
<path fill="none" stroke="black" d="M5,-228C5,-222 11,-216 17,-216"/>
<polyline fill="none" stroke="black" points="17,-216 209,-216 "/>
<path fill="none" stroke="black" d="M209,-216C215,-216 221,-222 221,-228"/>
<polyline fill="none" stroke="black" points="221,-228 221,-240 "/>
<path fill="none" stroke="black" d="M221,-240C221,-246 215,-252 209,-252"/>
<text text-anchor="start" x="13.5" y="-231.233" font-family="Times Roman,serif" font-size="14.00">The poisson random variable</text>
</a>
</g>
<!-- POISSON_RANDOM_VARIABLE&#45;&gt;POISSON_PROCESS -->
<g id="edge4" class="edge"><title>POISSON_RANDOM_VARIABLE&#45;&gt;POISSON_PROCESS</title>
<path fill="none" stroke="black" d="M91.1178,-215.894C71.0684,-197.081 46.9055,-167.204 64,-144 76.5918,-126.908 123.822,-112.893 165.901,-103.428"/>
<polygon fill="black" stroke="black" points="166.881,-106.796 175.901,-101.24 165.384,-99.958 166.881,-106.796"/>
</g>
<!-- SOVING_DIFFERENTIAL_EQUATIONS_USING_INTEGRATING_FACTORS -->
<g id="node8" class="node"><title>SOVING_DIFFERENTIAL_EQUATIONS_USING_INTEGRATING_FACTORS</title>
<a xlink:href="SOVING_DIFFERENTIAL_EQUATIONS_USING_INTEGRATING_FACTORS.html" xlink:title="Differential equations and integrating factors" target="_top">
<polyline fill="none" stroke="black" points="391,-180 85,-180 "/>
<path fill="none" stroke="black" d="M85,-180C79,-180 73,-174 73,-168"/>
<polyline fill="none" stroke="black" points="73,-168 73,-156 "/>
<path fill="none" stroke="black" d="M73,-156C73,-150 79,-144 85,-144"/>
<polyline fill="none" stroke="black" points="85,-144 391,-144 "/>
<path fill="none" stroke="black" d="M391,-144C397,-144 403,-150 403,-156"/>
<polyline fill="none" stroke="black" points="403,-156 403,-168 "/>
<path fill="none" stroke="black" d="M403,-168C403,-174 397,-180 391,-180"/>
<text text-anchor="start" x="81.5" y="-159.233" font-family="Times Roman,serif" font-size="14.00">Differential equations and integrating factors</text>
</a>
</g>
<!-- POISSON_RANDOM_VARIABLE&#45;&gt;SOVING_DIFFERENTIAL_EQUATIONS_USING_INTEGRATING_FACTORS -->
<!-- CONTINUOUS_TIME_MARKOV_CHAIN -->
<g id="node6" class="node"><title>CONTINUOUS_TIME_MARKOV_CHAIN</title>
<a xlink:href="CONTINUOUS_TIME_MARKOV_CHAIN.html" xlink:title="Markov chains in continuous time" target="_top">
<polyline fill="none" stroke="black" points="543,-252 319,-252 "/>
<path fill="none" stroke="black" d="M319,-252C313,-252 307,-246 307,-240"/>
<polyline fill="none" stroke="black" points="307,-240 307,-228 "/>
<path fill="none" stroke="black" d="M307,-228C307,-222 313,-216 319,-216"/>
<polyline fill="none" stroke="black" points="319,-216 543,-216 "/>
<path fill="none" stroke="black" d="M543,-216C549,-216 555,-222 555,-228"/>
<polyline fill="none" stroke="black" points="555,-228 555,-240 "/>
<path fill="none" stroke="black" d="M555,-240C555,-246 549,-252 543,-252"/>
<text text-anchor="start" x="315" y="-231.233" font-family="Times Roman,serif" font-size="14.00">Markov chains in continuous time</text>
</a>
</g>
<!-- CONTINUOUS_TIME_MARKOV_CHAIN&#45;&gt;POISSON_PROCESS -->
<g id="edge6" class="edge"><title>CONTINUOUS_TIME_MARKOV_CHAIN&#45;&gt;POISSON_PROCESS</title>
<path fill="none" stroke="black" d="M432.226,-215.716C432.543,-195.62 429.855,-163.595 412,-144 397.849,-128.47 351.527,-114.516 310.234,-104.685"/>
<polygon fill="black" stroke="black" points="310.952,-101.258 300.419,-102.401 309.366,-108.076 310.952,-101.258"/>
</g>
<!-- SOVING_DIFFERENTIAL_EQUATIONS_USING_INTEGRATING_FACTORS&#45;&gt;POISSON_PROCESS -->
<g id="edge8" class="edge"><title>SOVING_DIFFERENTIAL_EQUATIONS_USING_INTEGRATING_FACTORS&#45;&gt;POISSON_PROCESS</title>
<path fill="none" stroke="black" d="M238,-143.831C238,-136.131 238,-126.974 238,-118.417"/>
<polygon fill="black" stroke="black" points="241.5,-118.413 238,-108.413 234.5,-118.413 241.5,-118.413"/>
</g>
</g>
</svg>
