<?xml version="1.0" encoding="UTF-8" standalone="no"?>
<!DOCTYPE svg PUBLIC "-//W3C//DTD SVG 1.1//EN"
 "http://www.w3.org/Graphics/SVG/1.1/DTD/svg11.dtd">
<!-- Generated by graphviz version 2.36.0 (20140111.2315)
 -->
<!-- Title: %3 Pages: 1 -->
<svg width="398pt" height="188pt"
 viewBox="0.00 0.00 398.00 188.00" xmlns="http://www.w3.org/2000/svg" xmlns:xlink="http://www.w3.org/1999/xlink">
<g id="graph0" class="graph" transform="scale(1 1) rotate(0) translate(4 184)">
<title>%3</title>
<!-- POISSON_RANDOM_VARIABLE -->
<g id="node1" class="node"><title>POISSON_RANDOM_VARIABLE</title>
<g id="a_node1"><a xlink:href="POISSON_RANDOM_VARIABLE.html" xlink:title=" The poisson random variable " target="_top">
<path fill="none" stroke="blue" stroke-width="2" d="M283.25,-108C283.25,-108 124.75,-108 124.75,-108 118.75,-108 112.75,-102 112.75,-96 112.75,-96 112.75,-84 112.75,-84 112.75,-78 118.75,-72 124.75,-72 124.75,-72 283.25,-72 283.25,-72 289.25,-72 295.25,-78 295.25,-84 295.25,-84 295.25,-96 295.25,-96 295.25,-102 289.25,-108 283.25,-108"/>
<text text-anchor="start" x="120.5" y="-86.3" font-family="Times,serif" font-size="14.00"> The poisson random variable </text>
</a>
</g>
</g>
<!-- POISSON_PROCESS -->
<g id="node3" class="node"><title>POISSON_PROCESS</title>
<g id="a_node3"><a xlink:href="POISSON_PROCESS.html" xlink:title=" Poisson Process " target="_top">
<path fill="none" stroke="black" d="M247.25,-36C247.25,-36 160.75,-36 160.75,-36 154.75,-36 148.75,-30 148.75,-24 148.75,-24 148.75,-12 148.75,-12 148.75,-6 154.75,-0 160.75,-0 160.75,-0 247.25,-0 247.25,-0 253.25,-0 259.25,-6 259.25,-12 259.25,-12 259.25,-24 259.25,-24 259.25,-30 253.25,-36 247.25,-36"/>
<text text-anchor="start" x="156.5" y="-14.3" font-family="Times,serif" font-size="14.00"> Poisson Process </text>
</a>
</g>
</g>
<!-- POISSON_RANDOM_VARIABLE&#45;&gt;POISSON_PROCESS -->
<g id="edge2" class="edge"><title>POISSON_RANDOM_VARIABLE&#45;&gt;POISSON_PROCESS</title>
<path fill="none" stroke="black" d="M204,-71.6966C204,-63.9827 204,-54.7125 204,-46.1124"/>
<polygon fill="black" stroke="black" points="207.5,-46.1043 204,-36.1043 200.5,-46.1044 207.5,-46.1043"/>
</g>
<!-- MOMENT_GENERATING_FUNCTION -->
<g id="node2" class="node"><title>MOMENT_GENERATING_FUNCTION</title>
<g id="a_node2"><a xlink:href="MOMENT_GENERATING_FUNCTION.html" xlink:title=" The moment generating function " target="_top">
<path fill="none" stroke="black" d="M191.5,-180C191.5,-180 12.5,-180 12.5,-180 6.5,-180 0.5,-174 0.5,-168 0.5,-168 0.5,-156 0.5,-156 0.5,-150 6.5,-144 12.5,-144 12.5,-144 191.5,-144 191.5,-144 197.5,-144 203.5,-150 203.5,-156 203.5,-156 203.5,-168 203.5,-168 203.5,-174 197.5,-180 191.5,-180"/>
<text text-anchor="start" x="8" y="-158.3" font-family="Times,serif" font-size="14.00"> The moment generating function </text>
</a>
</g>
</g>
<!-- MOMENT_GENERATING_FUNCTION&#45;&gt;POISSON_RANDOM_VARIABLE -->
<g id="edge1" class="edge"><title>MOMENT_GENERATING_FUNCTION&#45;&gt;POISSON_RANDOM_VARIABLE</title>
<path fill="none" stroke="black" d="M126.952,-143.876C140.042,-134.893 156.26,-123.763 170.436,-114.034"/>
<polygon fill="black" stroke="black" points="172.687,-116.734 178.952,-108.19 168.726,-110.962 172.687,-116.734"/>
</g>
<!-- BINOMIAL_RANDOM_VARIABLE -->
<g id="node4" class="node"><title>BINOMIAL_RANDOM_VARIABLE</title>
<g id="a_node4"><a xlink:href="BINOMIAL_RANDOM_VARIABLE.html" xlink:title=" Binomial random variable " target="_top">
<path fill="none" stroke="black" d="M377.5,-180C377.5,-180 234.5,-180 234.5,-180 228.5,-180 222.5,-174 222.5,-168 222.5,-168 222.5,-156 222.5,-156 222.5,-150 228.5,-144 234.5,-144 234.5,-144 377.5,-144 377.5,-144 383.5,-144 389.5,-150 389.5,-156 389.5,-156 389.5,-168 389.5,-168 389.5,-174 383.5,-180 377.5,-180"/>
<text text-anchor="start" x="230" y="-158.3" font-family="Times,serif" font-size="14.00"> Binomial random variable </text>
</a>
</g>
</g>
<!-- BINOMIAL_RANDOM_VARIABLE&#45;&gt;POISSON_RANDOM_VARIABLE -->
<g id="edge3" class="edge"><title>BINOMIAL_RANDOM_VARIABLE&#45;&gt;POISSON_RANDOM_VARIABLE</title>
<path fill="none" stroke="black" d="M281.048,-143.876C267.958,-134.893 251.74,-123.763 237.564,-114.034"/>
<polygon fill="black" stroke="black" points="239.274,-110.962 229.048,-108.19 235.313,-116.734 239.274,-110.962"/>
</g>
</g>
</svg>
