<?xml version="1.0" encoding="UTF-8" standalone="no"?>
<!DOCTYPE svg PUBLIC "-//W3C//DTD SVG 1.1//EN"
 "http://www.w3.org/Graphics/SVG/1.1/DTD/svg11.dtd">
<!-- Generated by graphviz version 2.26.3 (20100126.1600)
 -->
<!-- Title: _anonymous_0 Pages: 1 -->
<svg width="604pt" height="260pt"
 viewBox="0.00 0.00 604.00 260.00" xmlns="http://www.w3.org/2000/svg" xmlns:xlink="http://www.w3.org/1999/xlink">
<g id="graph1" class="graph" transform="scale(1 1) rotate(0) translate(4 256)">
<title>_anonymous_0</title>
<!-- POISSON_PROCESS -->
<g id="node1" class="node"><title>POISSON_PROCESS</title>
<a xlink:href="POISSON_PROCESS.html" xlink:title="Poisson Process" target="_top">
<polyline fill="none" stroke="blue" stroke-width="2" points="310,-108 210,-108 "/>
<path fill="none" stroke="blue" stroke-width="2" d="M210,-108C204,-108 198,-102 198,-96"/>
<polyline fill="none" stroke="blue" stroke-width="2" points="198,-96 198,-84 "/>
<path fill="none" stroke="blue" stroke-width="2" d="M198,-84C198,-78 204,-72 210,-72"/>
<polyline fill="none" stroke="blue" stroke-width="2" points="210,-72 310,-72 "/>
<path fill="none" stroke="blue" stroke-width="2" d="M310,-72C316,-72 322,-78 322,-84"/>
<polyline fill="none" stroke="blue" stroke-width="2" points="322,-84 322,-96 "/>
<path fill="none" stroke="blue" stroke-width="2" d="M322,-96C322,-102 316,-108 310,-108"/>
<text text-anchor="start" x="206" y="-87.2333" font-family="Times Roman,serif" font-size="14.00">Poisson Process</text>
</a>
</g>
<!-- INHOMOGENEOUS_POISSON_PROCESS -->
<g id="node2" class="node"><title>INHOMOGENEOUS_POISSON_PROCESS</title>
<a xlink:href="INHOMOGENEOUS_POISSON_PROCESS.html" xlink:title="Inhomogeneous Poisson Process" target="_top">
<polyline fill="none" stroke="black" points="248,-36 34,-36 "/>
<path fill="none" stroke="black" d="M34,-36C28,-36 22,-30 22,-24"/>
<polyline fill="none" stroke="black" points="22,-24 22,-12 "/>
<path fill="none" stroke="black" d="M22,-12C22,-6 28,-1.74053e-14 34,-1.70471e-14"/>
<polyline fill="none" stroke="black" points="34,-1.70471e-14 248,-4.26923e-15 "/>
<path fill="none" stroke="black" d="M248,-4.26923e-15C254,-3.91097e-15 260,-6 260,-12"/>
<polyline fill="none" stroke="black" points="260,-12 260,-24 "/>
<path fill="none" stroke="black" d="M260,-24C260,-30 254,-36 248,-36"/>
<text text-anchor="start" x="30" y="-15.2333" font-family="Times Roman,serif" font-size="14.00">Inhomogeneous Poisson Process</text>
</a>
</g>
<!-- POISSON_PROCESS&#45;&gt;INHOMOGENEOUS_POISSON_PROCESS -->
<g id="edge2" class="edge"><title>POISSON_PROCESS&#45;&gt;INHOMOGENEOUS_POISSON_PROCESS</title>
<path fill="none" stroke="black" d="M229.971,-71.8314C214.75,-62.6221 196.087,-51.3301 179.792,-41.4706"/>
<polygon fill="black" stroke="black" points="181.387,-38.345 171.019,-36.1628 177.763,-44.3341 181.387,-38.345"/>
</g>
<!-- COMPOUND_POISSON_PROCESS -->
<g id="node11" class="node"><title>COMPOUND_POISSON_PROCESS</title>
<a xlink:href="COMPOUND_POISSON_PROCESS.html" xlink:title="Compound Poisson Process" target="_top">
<polyline fill="none" stroke="black" points="468,-36 290,-36 "/>
<path fill="none" stroke="black" d="M290,-36C284,-36 278,-30 278,-24"/>
<polyline fill="none" stroke="black" points="278,-24 278,-12 "/>
<path fill="none" stroke="black" d="M278,-12C278,-6 284,-1.73415e-14 290,-1.69194e-14"/>
<polyline fill="none" stroke="black" points="290,-1.69194e-14 468,-4.39692e-15 "/>
<path fill="none" stroke="black" d="M468,-4.39692e-15C474,-3.97482e-15 480,-6 480,-12"/>
<polyline fill="none" stroke="black" points="480,-12 480,-24 "/>
<path fill="none" stroke="black" d="M480,-24C480,-30 474,-36 468,-36"/>
<text text-anchor="start" x="286" y="-15.2333" font-family="Times Roman,serif" font-size="14.00">Compound Poisson Process</text>
</a>
</g>
<!-- POISSON_PROCESS&#45;&gt;COMPOUND_POISSON_PROCESS -->
<g id="edge12" class="edge"><title>POISSON_PROCESS&#45;&gt;COMPOUND_POISSON_PROCESS</title>
<path fill="none" stroke="black" d="M290.029,-71.8314C305.25,-62.6221 323.913,-51.3301 340.208,-41.4706"/>
<polygon fill="black" stroke="black" points="342.237,-44.3341 348.981,-36.1628 338.613,-38.345 342.237,-44.3341"/>
</g>
<!-- CONTINUOUS_TIME_MARKOV_CHAIN -->
<g id="node4" class="node"><title>CONTINUOUS_TIME_MARKOV_CHAIN</title>
<a xlink:href="CONTINUOUS_TIME_MARKOV_CHAIN.html" xlink:title="Markov chains in continuous time" target="_top">
<polyline fill="none" stroke="black" points="236,-252 12,-252 "/>
<path fill="none" stroke="black" d="M12,-252C6,-252 6.86858e-14,-246 5.21065e-14,-240"/>
<polyline fill="none" stroke="black" points="5.21065e-14,-240 1.89478e-14,-228 "/>
<path fill="none" stroke="black" d="M1.89478e-14,-228C2.36848e-15,-222 6,-216 12,-216"/>
<polyline fill="none" stroke="black" points="12,-216 236,-216 "/>
<path fill="none" stroke="black" d="M236,-216C242,-216 248,-222 248,-228"/>
<polyline fill="none" stroke="black" points="248,-228 248,-240 "/>
<path fill="none" stroke="black" d="M248,-240C248,-246 242,-252 236,-252"/>
<text text-anchor="start" x="8" y="-231.233" font-family="Times Roman,serif" font-size="14.00">Markov chains in continuous time</text>
</a>
</g>
<!-- CONTINUOUS_TIME_MARKOV_CHAIN&#45;&gt;POISSON_PROCESS -->
<g id="edge4" class="edge"><title>CONTINUOUS_TIME_MARKOV_CHAIN&#45;&gt;POISSON_PROCESS</title>
<path fill="none" stroke="black" d="M123.268,-215.777C123.427,-196.033 126.571,-164.6 143,-144 154.711,-129.316 171.323,-118.456 188.363,-110.49"/>
<polygon fill="black" stroke="black" points="190.077,-113.561 197.846,-106.357 187.28,-107.144 190.077,-113.561"/>
</g>
<!-- POISSON_RANDOM_VARIABLE -->
<g id="node8" class="node"><title>POISSON_RANDOM_VARIABLE</title>
<a xlink:href="POISSON_RANDOM_VARIABLE.html" xlink:title="The poisson random variable" target="_top">
<polyline fill="none" stroke="black" points="356,-180 164,-180 "/>
<path fill="none" stroke="black" d="M164,-180C158,-180 152,-174 152,-168"/>
<polyline fill="none" stroke="black" points="152,-168 152,-156 "/>
<path fill="none" stroke="black" d="M152,-156C152,-150 158,-144 164,-144"/>
<polyline fill="none" stroke="black" points="164,-144 356,-144 "/>
<path fill="none" stroke="black" d="M356,-144C362,-144 368,-150 368,-156"/>
<polyline fill="none" stroke="black" points="368,-156 368,-168 "/>
<path fill="none" stroke="black" d="M368,-168C368,-174 362,-180 356,-180"/>
<text text-anchor="start" x="160.5" y="-159.233" font-family="Times Roman,serif" font-size="14.00">The poisson random variable</text>
</a>
</g>
<!-- CONTINUOUS_TIME_MARKOV_CHAIN&#45;&gt;POISSON_RANDOM_VARIABLE -->
<!-- SOVING_DIFFERENTIAL_EQUATIONS_USING_INTEGRATING_FACTORS -->
<g id="node6" class="node"><title>SOVING_DIFFERENTIAL_EQUATIONS_USING_INTEGRATING_FACTORS</title>
<a xlink:href="SOVING_DIFFERENTIAL_EQUATIONS_USING_INTEGRATING_FACTORS.html" xlink:title="Differential equations and integrating factors" target="_top">
<polyline fill="none" stroke="black" points="584,-252 278,-252 "/>
<path fill="none" stroke="black" d="M278,-252C272,-252 266,-246 266,-240"/>
<polyline fill="none" stroke="black" points="266,-240 266,-228 "/>
<path fill="none" stroke="black" d="M266,-228C266,-222 272,-216 278,-216"/>
<polyline fill="none" stroke="black" points="278,-216 584,-216 "/>
<path fill="none" stroke="black" d="M584,-216C590,-216 596,-222 596,-228"/>
<polyline fill="none" stroke="black" points="596,-228 596,-240 "/>
<path fill="none" stroke="black" d="M596,-240C596,-246 590,-252 584,-252"/>
<text text-anchor="start" x="274.5" y="-231.233" font-family="Times Roman,serif" font-size="14.00">Differential equations and integrating factors</text>
</a>
</g>
<!-- SOVING_DIFFERENTIAL_EQUATIONS_USING_INTEGRATING_FACTORS&#45;&gt;POISSON_PROCESS -->
<g id="edge6" class="edge"><title>SOVING_DIFFERENTIAL_EQUATIONS_USING_INTEGRATING_FACTORS&#45;&gt;POISSON_PROCESS</title>
<path fill="none" stroke="black" d="M424.017,-215.941C415.534,-196.048 399.512,-164.203 377,-144 362.254,-130.767 343.709,-120.227 325.757,-112.101"/>
<polygon fill="black" stroke="black" points="327.014,-108.831 316.447,-108.07 324.233,-115.255 327.014,-108.831"/>
</g>
<!-- POISSON_RANDOM_VARIABLE&#45;&gt;POISSON_PROCESS -->
<g id="edge8" class="edge"><title>POISSON_RANDOM_VARIABLE&#45;&gt;POISSON_PROCESS</title>
<path fill="none" stroke="black" d="M260,-143.831C260,-136.131 260,-126.974 260,-118.417"/>
<polygon fill="black" stroke="black" points="263.5,-118.413 260,-108.413 256.5,-118.413 263.5,-118.413"/>
</g>
</g>
</svg>
