<?xml version="1.0" encoding="UTF-8" standalone="no"?>
<!DOCTYPE svg PUBLIC "-//W3C//DTD SVG 1.1//EN"
 "http://www.w3.org/Graphics/SVG/1.1/DTD/svg11.dtd">
<!-- Generated by graphviz version 2.26.3 (20100126.1600)
 -->
<!-- Title: _anonymous_0 Pages: 1 -->
<svg width="482pt" height="188pt"
 viewBox="0.00 0.00 482.00 188.00" xmlns="http://www.w3.org/2000/svg" xmlns:xlink="http://www.w3.org/1999/xlink">
<g id="graph1" class="graph" transform="scale(1 1) rotate(0) translate(4 184)">
<title>_anonymous_0</title>
<!-- POISSON_RANDOM_VARIABLE -->
<g id="node1" class="node"><title>POISSON_RANDOM_VARIABLE</title>
<a xlink:href="POISSON_RANDOM_VARIABLE.html" xlink:title=" The poisson random variable " target="_top">
<polyline fill="none" stroke="blue" stroke-width="2" points="350,-108 150,-108 "/>
<path fill="none" stroke="blue" stroke-width="2" d="M150,-108C144,-108 138,-102 138,-96"/>
<polyline fill="none" stroke="blue" stroke-width="2" points="138,-96 138,-84 "/>
<path fill="none" stroke="blue" stroke-width="2" d="M138,-84C138,-78 144,-72 150,-72"/>
<polyline fill="none" stroke="blue" stroke-width="2" points="150,-72 350,-72 "/>
<path fill="none" stroke="blue" stroke-width="2" d="M350,-72C356,-72 362,-78 362,-84"/>
<polyline fill="none" stroke="blue" stroke-width="2" points="362,-84 362,-96 "/>
<path fill="none" stroke="blue" stroke-width="2" d="M362,-96C362,-102 356,-108 350,-108"/>
<text text-anchor="start" x="146" y="-87.2333" font-family="Times Roman,serif" font-size="14.00"> The poisson random variable </text>
</a>
</g>
<!-- POISSON_PROCESS -->
<g id="node2" class="node"><title>POISSON_PROCESS</title>
<a xlink:href="POISSON_PROCESS.html" xlink:title=" Poisson Process " target="_top">
<polyline fill="none" stroke="black" points="305,-36 195,-36 "/>
<path fill="none" stroke="black" d="M195,-36C189,-36 183,-30 183,-24"/>
<polyline fill="none" stroke="black" points="183,-24 183,-12 "/>
<path fill="none" stroke="black" d="M183,-12C183,-6 189,-1.71273e-14 195,-1.6491e-14"/>
<polyline fill="none" stroke="black" points="195,-1.6491e-14 305,-4.82533e-15 "/>
<path fill="none" stroke="black" d="M305,-4.82533e-15C311,-4.18902e-15 317,-6 317,-12"/>
<polyline fill="none" stroke="black" points="317,-12 317,-24 "/>
<path fill="none" stroke="black" d="M317,-24C317,-30 311,-36 305,-36"/>
<text text-anchor="start" x="191.5" y="-15.2333" font-family="Times Roman,serif" font-size="14.00"> Poisson Process </text>
</a>
</g>
<!-- POISSON_RANDOM_VARIABLE&#45;&gt;POISSON_PROCESS -->
<g id="edge2" class="edge"><title>POISSON_RANDOM_VARIABLE&#45;&gt;POISSON_PROCESS</title>
<path fill="none" stroke="black" d="M250,-71.8314C250,-64.131 250,-54.9743 250,-46.4166"/>
<polygon fill="black" stroke="black" points="253.5,-46.4132 250,-36.4133 246.5,-46.4133 253.5,-46.4132"/>
</g>
<!-- MOMENT_GENERATING_FUNCTION -->
<g id="node4" class="node"><title>MOMENT_GENERATING_FUNCTION</title>
<a xlink:href="MOMENT_GENERATING_FUNCTION.html" xlink:title=" The moment generating function " target="_top">
<polyline fill="none" stroke="black" points="242,-180 12,-180 "/>
<path fill="none" stroke="black" d="M12,-180C6,-180 9.4739e-14,-174 7.57912e-14,-168"/>
<polyline fill="none" stroke="black" points="7.57912e-14,-168 3.78956e-14,-156 "/>
<path fill="none" stroke="black" d="M3.78956e-14,-156C1.89478e-14,-150 6,-144 12,-144"/>
<polyline fill="none" stroke="black" points="12,-144 242,-144 "/>
<path fill="none" stroke="black" d="M242,-144C248,-144 254,-150 254,-156"/>
<polyline fill="none" stroke="black" points="254,-156 254,-168 "/>
<path fill="none" stroke="black" d="M254,-168C254,-174 248,-180 242,-180"/>
<text text-anchor="start" x="8" y="-159.233" font-family="Times Roman,serif" font-size="14.00"> The moment generating function </text>
</a>
</g>
<!-- MOMENT_GENERATING_FUNCTION&#45;&gt;POISSON_RANDOM_VARIABLE -->
<g id="edge4" class="edge"><title>MOMENT_GENERATING_FUNCTION&#45;&gt;POISSON_RANDOM_VARIABLE</title>
<path fill="none" stroke="black" d="M158.038,-143.831C173.771,-134.622 193.061,-123.33 209.904,-113.471"/>
<polygon fill="black" stroke="black" points="212.11,-116.235 218.972,-108.163 208.574,-110.194 212.11,-116.235"/>
</g>
<!-- BINOMIAL_RANDOM_VARIABLE -->
<g id="node6" class="node"><title>BINOMIAL_RANDOM_VARIABLE</title>
<a xlink:href="BINOMIAL_RANDOM_VARIABLE.html" xlink:title=" Binomial random variable " target="_top">
<polyline fill="none" stroke="black" points="462,-180 284,-180 "/>
<path fill="none" stroke="black" d="M284,-180C278,-180 272,-174 272,-168"/>
<polyline fill="none" stroke="black" points="272,-168 272,-156 "/>
<path fill="none" stroke="black" d="M272,-156C272,-150 278,-144 284,-144"/>
<polyline fill="none" stroke="black" points="284,-144 462,-144 "/>
<path fill="none" stroke="black" d="M462,-144C468,-144 474,-150 474,-156"/>
<polyline fill="none" stroke="black" points="474,-156 474,-168 "/>
<path fill="none" stroke="black" d="M474,-168C474,-174 468,-180 462,-180"/>
<text text-anchor="start" x="280.5" y="-159.233" font-family="Times Roman,serif" font-size="14.00"> Binomial random variable </text>
</a>
</g>
<!-- BINOMIAL_RANDOM_VARIABLE&#45;&gt;POISSON_RANDOM_VARIABLE -->
<g id="edge6" class="edge"><title>BINOMIAL_RANDOM_VARIABLE&#45;&gt;POISSON_RANDOM_VARIABLE</title>
<path fill="none" stroke="black" d="M341.962,-143.831C326.229,-134.622 306.939,-123.33 290.096,-113.471"/>
<polygon fill="black" stroke="black" points="291.426,-110.194 281.028,-108.163 287.89,-116.235 291.426,-110.194"/>
</g>
</g>
</svg>
