<?xml version="1.0" encoding="UTF-8" standalone="no"?>
<!DOCTYPE svg PUBLIC "-//W3C//DTD SVG 1.1//EN"
 "http://www.w3.org/Graphics/SVG/1.1/DTD/svg11.dtd">
<!-- Generated by graphviz version 2.26.3 (20100126.1600)
 -->
<!-- Title: _anonymous_0 Pages: 1 -->
<svg width="759pt" height="332pt"
 viewBox="0.00 0.00 759.00 332.00" xmlns="http://www.w3.org/2000/svg" xmlns:xlink="http://www.w3.org/1999/xlink">
<g id="graph1" class="graph" transform="scale(1 1) rotate(0) translate(4 328)">
<title>_anonymous_0</title>
<!-- POISSON_PROCESS -->
<g id="node1" class="node"><title>POISSON_PROCESS</title>
<a xlink:href="POISSON_PROCESS.html" xlink:title=" Poisson Process " target="_top">
<polyline fill="none" stroke="blue" stroke-width="2" points="447,-180 337,-180 "/>
<path fill="none" stroke="blue" stroke-width="2" d="M337,-180C331,-180 325,-174 325,-168"/>
<polyline fill="none" stroke="blue" stroke-width="2" points="325,-168 325,-156 "/>
<path fill="none" stroke="blue" stroke-width="2" d="M325,-156C325,-150 331,-144 337,-144"/>
<polyline fill="none" stroke="blue" stroke-width="2" points="337,-144 447,-144 "/>
<path fill="none" stroke="blue" stroke-width="2" d="M447,-144C453,-144 459,-150 459,-156"/>
<polyline fill="none" stroke="blue" stroke-width="2" points="459,-156 459,-168 "/>
<path fill="none" stroke="blue" stroke-width="2" d="M459,-168C459,-174 453,-180 447,-180"/>
<text text-anchor="start" x="333.5" y="-159.233" font-family="Times Roman,serif" font-size="14.00"> Poisson Process </text>
</a>
</g>
<!-- MM1_QUEUE -->
<g id="node2" class="node"><title>MM1_QUEUE</title>
<a xlink:href="MM1_QUEUE.html" xlink:title=" The M/M/1 Queue &#160;" target="_top">
<polyline fill="none" stroke="black" points="238,-108 108,-108 "/>
<path fill="none" stroke="black" d="M108,-108C102,-108 96,-102 96,-96"/>
<polyline fill="none" stroke="black" points="96,-96 96,-84 "/>
<path fill="none" stroke="black" d="M96,-84C96,-78 102,-72 108,-72"/>
<polyline fill="none" stroke="black" points="108,-72 238,-72 "/>
<path fill="none" stroke="black" d="M238,-72C244,-72 250,-78 250,-84"/>
<polyline fill="none" stroke="black" points="250,-84 250,-96 "/>
<path fill="none" stroke="black" d="M250,-96C250,-102 244,-108 238,-108"/>
<text text-anchor="start" x="104.5" y="-87.2333" font-family="Times Roman,serif" font-size="14.00"> The M/M/1 Queue &#160;</text>
</a>
</g>
<!-- POISSON_PROCESS&#45;&gt;MM1_QUEUE -->
<g id="edge2" class="edge"><title>POISSON_PROCESS&#45;&gt;MM1_QUEUE</title>
<path fill="none" stroke="black" d="M337.02,-143.924C306.821,-133.996 269.194,-121.625 237.6,-111.238"/>
<polygon fill="black" stroke="black" points="238.596,-107.882 228.003,-108.083 236.41,-114.531 238.596,-107.882"/>
</g>
<!-- INHOMOGENEOUS_POISSON_PROCESS -->
<g id="node4" class="node"><title>INHOMOGENEOUS_POISSON_PROCESS</title>
<a xlink:href="INHOMOGENEOUS_POISSON_PROCESS.html" xlink:title=" Inhomogeneous Poisson Process " target="_top">
<polyline fill="none" stroke="black" points="504,-108 280,-108 "/>
<path fill="none" stroke="black" d="M280,-108C274,-108 268,-102 268,-96"/>
<polyline fill="none" stroke="black" points="268,-96 268,-84 "/>
<path fill="none" stroke="black" d="M268,-84C268,-78 274,-72 280,-72"/>
<polyline fill="none" stroke="black" points="280,-72 504,-72 "/>
<path fill="none" stroke="black" d="M504,-72C510,-72 516,-78 516,-84"/>
<polyline fill="none" stroke="black" points="516,-84 516,-96 "/>
<path fill="none" stroke="black" d="M516,-96C516,-102 510,-108 504,-108"/>
<text text-anchor="start" x="276.5" y="-87.2333" font-family="Times Roman,serif" font-size="14.00"> Inhomogeneous Poisson Process </text>
</a>
</g>
<!-- POISSON_PROCESS&#45;&gt;INHOMOGENEOUS_POISSON_PROCESS -->
<g id="edge4" class="edge"><title>POISSON_PROCESS&#45;&gt;INHOMOGENEOUS_POISSON_PROCESS</title>
<path fill="none" stroke="black" d="M392,-143.831C392,-136.131 392,-126.974 392,-118.417"/>
<polygon fill="black" stroke="black" points="395.5,-118.413 392,-108.413 388.5,-118.413 395.5,-118.413"/>
</g>
<!-- COMPOUND_POISSON_PROCESS -->
<g id="node8" class="node"><title>COMPOUND_POISSON_PROCESS</title>
<a xlink:href="COMPOUND_POISSON_PROCESS.html" xlink:title=" Compound Poisson Process " target="_top">
<polyline fill="none" stroke="black" points="452,-36 264,-36 "/>
<path fill="none" stroke="black" d="M264,-36C258,-36 252,-30 252,-24"/>
<polyline fill="none" stroke="black" points="252,-24 252,-12 "/>
<path fill="none" stroke="black" d="M252,-12C252,-6 258,-1.73614e-14 264,-1.69592e-14"/>
<polyline fill="none" stroke="black" points="264,-1.69592e-14 452,-4.3571e-15 "/>
<path fill="none" stroke="black" d="M452,-4.3571e-15C458,-3.95491e-15 464,-6 464,-12"/>
<polyline fill="none" stroke="black" points="464,-12 464,-24 "/>
<path fill="none" stroke="black" d="M464,-24C464,-30 458,-36 452,-36"/>
<text text-anchor="start" x="260.5" y="-15.2333" font-family="Times Roman,serif" font-size="14.00"> Compound Poisson Process </text>
</a>
</g>
<!-- POISSON_PROCESS&#45;&gt;COMPOUND_POISSON_PROCESS -->
<g id="edge8" class="edge"><title>POISSON_PROCESS&#45;&gt;COMPOUND_POISSON_PROCESS</title>
<path fill="none" stroke="black" d="M459.235,-151.002C484.19,-143.304 510.038,-130.223 525,-108 533.936,-94.7278 534.414,-84.9376 525,-72 515.617,-59.105 485.988,-47.7272 454.238,-38.7817"/>
<polygon fill="black" stroke="black" points="454.905,-35.3359 444.337,-36.0847 453.065,-42.0899 454.905,-35.3359"/>
</g>
<!-- MM1_QUEUE&#45;&gt;COMPOUND_POISSON_PROCESS -->
<!-- SOVING_DIFFERENTIAL_EQUATIONS_USING_INTEGRATING_FACTORS -->
<g id="node6" class="node"><title>SOVING_DIFFERENTIAL_EQUATIONS_USING_INTEGRATING_FACTORS</title>
<a xlink:href="SOVING_DIFFERENTIAL_EQUATIONS_USING_INTEGRATING_FACTORS.html" xlink:title=" Differential equations and integrating factors " target="_top">
<polyline fill="none" stroke="black" points="326,-324 12,-324 "/>
<path fill="none" stroke="black" d="M12,-324C6,-324 1.42109e-13,-318 1.13687e-13,-312"/>
<polyline fill="none" stroke="black" points="1.13687e-13,-312 5.68434e-14,-300 "/>
<path fill="none" stroke="black" d="M5.68434e-14,-300C2.84217e-14,-294 6,-288 12,-288"/>
<polyline fill="none" stroke="black" points="12,-288 326,-288 "/>
<path fill="none" stroke="black" d="M326,-288C332,-288 338,-294 338,-300"/>
<polyline fill="none" stroke="black" points="338,-300 338,-312 "/>
<path fill="none" stroke="black" d="M338,-312C338,-318 332,-324 326,-324"/>
<text text-anchor="start" x="8" y="-303.233" font-family="Times Roman,serif" font-size="14.00"> Differential equations and integrating factors </text>
</a>
</g>
<!-- SOVING_DIFFERENTIAL_EQUATIONS_USING_INTEGRATING_FACTORS&#45;&gt;POISSON_PROCESS -->
<g id="edge6" class="edge"><title>SOVING_DIFFERENTIAL_EQUATIONS_USING_INTEGRATING_FACTORS&#45;&gt;POISSON_PROCESS</title>
<path fill="none" stroke="black" d="M170.134,-287.807C172.383,-267.488 179.081,-234.967 199,-216 216.019,-199.794 268.818,-185.655 314.897,-175.914"/>
<polygon fill="black" stroke="black" points="315.831,-179.295 324.915,-173.842 314.413,-172.44 315.831,-179.295"/>
</g>
<!-- EXPONENTIAL_RANDOM_VARIABLE -->
<g id="node13" class="node"><title>EXPONENTIAL_RANDOM_VARIABLE</title>
<a xlink:href="EXPONENTIAL_RANDOM_VARIABLE.html" xlink:title=" Exponential random variable " target="_top">
<polyline fill="none" stroke="black" points="420,-252 220,-252 "/>
<path fill="none" stroke="black" d="M220,-252C214,-252 208,-246 208,-240"/>
<polyline fill="none" stroke="black" points="208,-240 208,-228 "/>
<path fill="none" stroke="black" d="M208,-228C208,-222 214,-216 220,-216"/>
<polyline fill="none" stroke="black" points="220,-216 420,-216 "/>
<path fill="none" stroke="black" d="M420,-216C426,-216 432,-222 432,-228"/>
<polyline fill="none" stroke="black" points="432,-228 432,-240 "/>
<path fill="none" stroke="black" d="M432,-240C432,-246 426,-252 420,-252"/>
<text text-anchor="start" x="216" y="-231.233" font-family="Times Roman,serif" font-size="14.00"> Exponential random variable </text>
</a>
</g>
<!-- SOVING_DIFFERENTIAL_EQUATIONS_USING_INTEGRATING_FACTORS&#45;&gt;EXPONENTIAL_RANDOM_VARIABLE -->
<!-- POISSON_RANDOM_VARIABLE -->
<g id="node11" class="node"><title>POISSON_RANDOM_VARIABLE</title>
<a xlink:href="POISSON_RANDOM_VARIABLE.html" xlink:title=" The poisson random variable " target="_top">
<polyline fill="none" stroke="black" points="568,-324 368,-324 "/>
<path fill="none" stroke="black" d="M368,-324C362,-324 356,-318 356,-312"/>
<polyline fill="none" stroke="black" points="356,-312 356,-300 "/>
<path fill="none" stroke="black" d="M356,-300C356,-294 362,-288 368,-288"/>
<polyline fill="none" stroke="black" points="368,-288 568,-288 "/>
<path fill="none" stroke="black" d="M568,-288C574,-288 580,-294 580,-300"/>
<polyline fill="none" stroke="black" points="580,-300 580,-312 "/>
<path fill="none" stroke="black" d="M580,-312C580,-318 574,-324 568,-324"/>
<text text-anchor="start" x="364" y="-303.233" font-family="Times Roman,serif" font-size="14.00"> The poisson random variable </text>
</a>
</g>
<!-- POISSON_RANDOM_VARIABLE&#45;&gt;POISSON_PROCESS -->
<g id="edge12" class="edge"><title>POISSON_RANDOM_VARIABLE&#45;&gt;POISSON_PROCESS</title>
<path fill="none" stroke="black" d="M465.01,-287.815C461.357,-268.939 453.997,-239.01 441,-216 435.28,-205.873 427.354,-196.06 419.543,-187.639"/>
<polygon fill="black" stroke="black" points="421.938,-185.081 412.468,-180.329 416.907,-189.949 421.938,-185.081"/>
</g>
<!-- EXPONENTIAL_RANDOM_VARIABLE&#45;&gt;POISSON_PROCESS -->
<g id="edge14" class="edge"><title>EXPONENTIAL_RANDOM_VARIABLE&#45;&gt;POISSON_PROCESS</title>
<path fill="none" stroke="black" d="M338.169,-215.831C346.715,-207.285 357.056,-196.944 366.38,-187.62"/>
<polygon fill="black" stroke="black" points="368.991,-189.959 373.587,-180.413 364.041,-185.009 368.991,-189.959"/>
</g>
<!-- CONTINUOUS_TIME_MARKOV_CHAIN -->
<g id="node16" class="node"><title>CONTINUOUS_TIME_MARKOV_CHAIN</title>
<a xlink:href="CONTINUOUS_TIME_MARKOV_CHAIN.html" xlink:title=" Markov chains in continuous time " target="_top">
<polyline fill="none" stroke="black" points="739,-252 505,-252 "/>
<path fill="none" stroke="black" d="M505,-252C499,-252 493,-246 493,-240"/>
<polyline fill="none" stroke="black" points="493,-240 493,-228 "/>
<path fill="none" stroke="black" d="M493,-228C493,-222 499,-216 505,-216"/>
<polyline fill="none" stroke="black" points="505,-216 739,-216 "/>
<path fill="none" stroke="black" d="M739,-216C745,-216 751,-222 751,-228"/>
<polyline fill="none" stroke="black" points="751,-228 751,-240 "/>
<path fill="none" stroke="black" d="M751,-240C751,-246 745,-252 739,-252"/>
<text text-anchor="start" x="501.5" y="-231.233" font-family="Times Roman,serif" font-size="14.00"> Markov chains in continuous time </text>
</a>
</g>
<!-- CONTINUOUS_TIME_MARKOV_CHAIN&#45;&gt;POISSON_PROCESS -->
<g id="edge18" class="edge"><title>CONTINUOUS_TIME_MARKOV_CHAIN&#45;&gt;POISSON_PROCESS</title>
<path fill="none" stroke="black" d="M564.258,-215.924C532.406,-205.953 492.685,-193.519 459.416,-183.104"/>
<polygon fill="black" stroke="black" points="460.355,-179.731 449.766,-180.083 458.263,-186.411 460.355,-179.731"/>
</g>
</g>
</svg>
