<?xml version="1.0" encoding="UTF-8" standalone="no"?>
<!DOCTYPE svg PUBLIC "-//W3C//DTD SVG 1.1//EN"
 "http://www.w3.org/Graphics/SVG/1.1/DTD/svg11.dtd">
<!-- Generated by graphviz version 2.26.3 (20100126.1600)
 -->
<!-- Title: _anonymous_0 Pages: 1 -->
<svg width="653pt" height="332pt"
 viewBox="0.00 0.00 653.00 332.00" xmlns="http://www.w3.org/2000/svg" xmlns:xlink="http://www.w3.org/1999/xlink">
<g id="graph1" class="graph" transform="scale(1 1) rotate(0) translate(4 328)">
<title>_anonymous_0</title>
<!-- POISSON_PROCESS -->
<g id="node1" class="node"><title>POISSON_PROCESS</title>
<a xlink:href="POISSON_PROCESS.html" xlink:title="Poisson Process" target="_top">
<polyline fill="none" stroke="blue" stroke-width="2" points="378,-180 278,-180 "/>
<path fill="none" stroke="blue" stroke-width="2" d="M278,-180C272,-180 266,-174 266,-168"/>
<polyline fill="none" stroke="blue" stroke-width="2" points="266,-168 266,-156 "/>
<path fill="none" stroke="blue" stroke-width="2" d="M266,-156C266,-150 272,-144 278,-144"/>
<polyline fill="none" stroke="blue" stroke-width="2" points="278,-144 378,-144 "/>
<path fill="none" stroke="blue" stroke-width="2" d="M378,-144C384,-144 390,-150 390,-156"/>
<polyline fill="none" stroke="blue" stroke-width="2" points="390,-156 390,-168 "/>
<path fill="none" stroke="blue" stroke-width="2" d="M390,-168C390,-174 384,-180 378,-180"/>
<text text-anchor="start" x="274" y="-159.233" font-family="Times Roman,serif" font-size="14.00">Poisson Process</text>
</a>
</g>
<!-- INHOMOGENEOUS_POISSON_PROCESS -->
<g id="node2" class="node"><title>INHOMOGENEOUS_POISSON_PROCESS</title>
<a xlink:href="INHOMOGENEOUS_POISSON_PROCESS.html" xlink:title="Inhomogeneous Poisson Process" target="_top">
<polyline fill="none" stroke="black" points="226,-108 12,-108 "/>
<path fill="none" stroke="black" d="M12,-108C6,-108 9.71075e-14,-102 8.05282e-14,-96"/>
<polyline fill="none" stroke="black" points="8.05282e-14,-96 4.73695e-14,-84 "/>
<path fill="none" stroke="black" d="M4.73695e-14,-84C3.07902e-14,-78 6,-72 12,-72"/>
<polyline fill="none" stroke="black" points="12,-72 226,-72 "/>
<path fill="none" stroke="black" d="M226,-72C232,-72 238,-78 238,-84"/>
<polyline fill="none" stroke="black" points="238,-84 238,-96 "/>
<path fill="none" stroke="black" d="M238,-96C238,-102 232,-108 226,-108"/>
<text text-anchor="start" x="8" y="-87.2333" font-family="Times Roman,serif" font-size="14.00">Inhomogeneous Poisson Process</text>
</a>
</g>
<!-- POISSON_PROCESS&#45;&gt;INHOMOGENEOUS_POISSON_PROCESS -->
<g id="edge2" class="edge"><title>POISSON_PROCESS&#45;&gt;INHOMOGENEOUS_POISSON_PROCESS</title>
<path fill="none" stroke="black" d="M275.53,-143.924C246.835,-134.039 211.111,-121.732 181.04,-111.373"/>
<polygon fill="black" stroke="black" points="182.086,-108.031 171.491,-108.083 179.806,-114.649 182.086,-108.031"/>
</g>
<!-- MM1_QUEUE -->
<g id="node8" class="node"><title>MM1_QUEUE</title>
<a xlink:href="MM1_QUEUE.html" xlink:title="The M/M/1 Queue " target="_top">
<polyline fill="none" stroke="black" points="388,-108 268,-108 "/>
<path fill="none" stroke="black" d="M268,-108C262,-108 256,-102 256,-96"/>
<polyline fill="none" stroke="black" points="256,-96 256,-84 "/>
<path fill="none" stroke="black" d="M256,-84C256,-78 262,-72 268,-72"/>
<polyline fill="none" stroke="black" points="268,-72 388,-72 "/>
<path fill="none" stroke="black" d="M388,-72C394,-72 400,-78 400,-84"/>
<polyline fill="none" stroke="black" points="400,-84 400,-96 "/>
<path fill="none" stroke="black" d="M400,-96C400,-102 394,-108 388,-108"/>
<text text-anchor="start" x="264" y="-87.2333" font-family="Times Roman,serif" font-size="14.00">The M/M/1 Queue </text>
</a>
</g>
<!-- POISSON_PROCESS&#45;&gt;MM1_QUEUE -->
<g id="edge8" class="edge"><title>POISSON_PROCESS&#45;&gt;MM1_QUEUE</title>
<path fill="none" stroke="black" d="M328,-143.831C328,-136.131 328,-126.974 328,-118.417"/>
<polygon fill="black" stroke="black" points="331.5,-118.413 328,-108.413 324.5,-118.413 331.5,-118.413"/>
</g>
<!-- COMPOUND_POISSON_PROCESS -->
<g id="node13" class="node"><title>COMPOUND_POISSON_PROCESS</title>
<a xlink:href="COMPOUND_POISSON_PROCESS.html" xlink:title="Compound Poisson Process" target="_top">
<polyline fill="none" stroke="black" points="362,-36 184,-36 "/>
<path fill="none" stroke="black" d="M184,-36C178,-36 172,-30 172,-24"/>
<polyline fill="none" stroke="black" points="172,-24 172,-12 "/>
<path fill="none" stroke="black" d="M172,-12C172,-6 178,-1.73415e-14 184,-1.69194e-14"/>
<polyline fill="none" stroke="black" points="184,-1.69194e-14 362,-4.39692e-15 "/>
<path fill="none" stroke="black" d="M362,-4.39692e-15C368,-3.97482e-15 374,-6 374,-12"/>
<polyline fill="none" stroke="black" points="374,-12 374,-24 "/>
<path fill="none" stroke="black" d="M374,-24C374,-30 368,-36 362,-36"/>
<text text-anchor="start" x="180" y="-15.2333" font-family="Times Roman,serif" font-size="14.00">Compound Poisson Process</text>
</a>
</g>
<!-- POISSON_PROCESS&#45;&gt;COMPOUND_POISSON_PROCESS -->
<g id="edge14" class="edge"><title>POISSON_PROCESS&#45;&gt;COMPOUND_POISSON_PROCESS</title>
<path fill="none" stroke="black" d="M370.985,-143.885C385.783,-135.315 400.706,-123.497 409,-108 416.55,-93.8932 417.987,-85.2377 409,-72 399.724,-58.3364 386.389,-48.1301 371.655,-40.5063"/>
<polygon fill="black" stroke="black" points="372.86,-37.204 362.324,-36.0852 369.863,-43.5299 372.86,-37.204"/>
</g>
<!-- INHOMOGENEOUS_POISSON_PROCESS&#45;&gt;COMPOUND_POISSON_PROCESS -->
<!-- POISSON_RANDOM_VARIABLE -->
<g id="node4" class="node"><title>POISSON_RANDOM_VARIABLE</title>
<a xlink:href="POISSON_RANDOM_VARIABLE.html" xlink:title="The poisson random variable" target="_top">
<polyline fill="none" stroke="black" points="299,-324 107,-324 "/>
<path fill="none" stroke="black" d="M107,-324C101,-324 95,-318 95,-312"/>
<polyline fill="none" stroke="black" points="95,-312 95,-300 "/>
<path fill="none" stroke="black" d="M95,-300C95,-294 101,-288 107,-288"/>
<polyline fill="none" stroke="black" points="107,-288 299,-288 "/>
<path fill="none" stroke="black" d="M299,-288C305,-288 311,-294 311,-300"/>
<polyline fill="none" stroke="black" points="311,-300 311,-312 "/>
<path fill="none" stroke="black" d="M311,-312C311,-318 305,-324 299,-324"/>
<text text-anchor="start" x="103.5" y="-303.233" font-family="Times Roman,serif" font-size="14.00">The poisson random variable</text>
</a>
</g>
<!-- POISSON_RANDOM_VARIABLE&#45;&gt;POISSON_PROCESS -->
<g id="edge4" class="edge"><title>POISSON_RANDOM_VARIABLE&#45;&gt;POISSON_PROCESS</title>
<path fill="none" stroke="black" d="M181.118,-287.894C161.068,-269.081 136.906,-239.204 154,-216 166.592,-198.908 213.822,-184.893 255.901,-175.428"/>
<polygon fill="black" stroke="black" points="256.881,-178.796 265.901,-173.24 255.384,-171.958 256.881,-178.796"/>
</g>
<!-- SOVING_DIFFERENTIAL_EQUATIONS_USING_INTEGRATING_FACTORS -->
<g id="node10" class="node"><title>SOVING_DIFFERENTIAL_EQUATIONS_USING_INTEGRATING_FACTORS</title>
<a xlink:href="SOVING_DIFFERENTIAL_EQUATIONS_USING_INTEGRATING_FACTORS.html" xlink:title="Differential equations and integrating factors" target="_top">
<polyline fill="none" stroke="black" points="481,-252 175,-252 "/>
<path fill="none" stroke="black" d="M175,-252C169,-252 163,-246 163,-240"/>
<polyline fill="none" stroke="black" points="163,-240 163,-228 "/>
<path fill="none" stroke="black" d="M163,-228C163,-222 169,-216 175,-216"/>
<polyline fill="none" stroke="black" points="175,-216 481,-216 "/>
<path fill="none" stroke="black" d="M481,-216C487,-216 493,-222 493,-228"/>
<polyline fill="none" stroke="black" points="493,-228 493,-240 "/>
<path fill="none" stroke="black" d="M493,-240C493,-246 487,-252 481,-252"/>
<text text-anchor="start" x="171.5" y="-231.233" font-family="Times Roman,serif" font-size="14.00">Differential equations and integrating factors</text>
</a>
</g>
<!-- POISSON_RANDOM_VARIABLE&#45;&gt;SOVING_DIFFERENTIAL_EQUATIONS_USING_INTEGRATING_FACTORS -->
<!-- CONTINUOUS_TIME_MARKOV_CHAIN -->
<g id="node6" class="node"><title>CONTINUOUS_TIME_MARKOV_CHAIN</title>
<a xlink:href="CONTINUOUS_TIME_MARKOV_CHAIN.html" xlink:title="Markov chains in continuous time" target="_top">
<polyline fill="none" stroke="black" points="633,-324 409,-324 "/>
<path fill="none" stroke="black" d="M409,-324C403,-324 397,-318 397,-312"/>
<polyline fill="none" stroke="black" points="397,-312 397,-300 "/>
<path fill="none" stroke="black" d="M397,-300C397,-294 403,-288 409,-288"/>
<polyline fill="none" stroke="black" points="409,-288 633,-288 "/>
<path fill="none" stroke="black" d="M633,-288C639,-288 645,-294 645,-300"/>
<polyline fill="none" stroke="black" points="645,-300 645,-312 "/>
<path fill="none" stroke="black" d="M645,-312C645,-318 639,-324 633,-324"/>
<text text-anchor="start" x="405" y="-303.233" font-family="Times Roman,serif" font-size="14.00">Markov chains in continuous time</text>
</a>
</g>
<!-- CONTINUOUS_TIME_MARKOV_CHAIN&#45;&gt;POISSON_PROCESS -->
<g id="edge6" class="edge"><title>CONTINUOUS_TIME_MARKOV_CHAIN&#45;&gt;POISSON_PROCESS</title>
<path fill="none" stroke="black" d="M522.226,-287.716C522.543,-267.62 519.855,-235.595 502,-216 487.849,-200.47 441.527,-186.516 400.234,-176.685"/>
<polygon fill="black" stroke="black" points="400.952,-173.258 390.419,-174.401 399.366,-180.076 400.952,-173.258"/>
</g>
<!-- SOVING_DIFFERENTIAL_EQUATIONS_USING_INTEGRATING_FACTORS&#45;&gt;POISSON_PROCESS -->
<g id="edge10" class="edge"><title>SOVING_DIFFERENTIAL_EQUATIONS_USING_INTEGRATING_FACTORS&#45;&gt;POISSON_PROCESS</title>
<path fill="none" stroke="black" d="M328,-215.831C328,-208.131 328,-198.974 328,-190.417"/>
<polygon fill="black" stroke="black" points="331.5,-190.413 328,-180.413 324.5,-190.413 331.5,-190.413"/>
</g>
</g>
</svg>
