<?xml version="1.0" encoding="UTF-8" standalone="no"?>
<!DOCTYPE svg PUBLIC "-//W3C//DTD SVG 1.1//EN"
 "http://www.w3.org/Graphics/SVG/1.1/DTD/svg11.dtd">
<!-- Generated by graphviz version 2.26.3 (20100126.1600)
 -->
<!-- Title: _anonymous_0 Pages: 1 -->
<svg width="631pt" height="332pt"
 viewBox="0.00 0.00 631.00 332.00" xmlns="http://www.w3.org/2000/svg" xmlns:xlink="http://www.w3.org/1999/xlink">
<g id="graph1" class="graph" transform="scale(1 1) rotate(0) translate(4 328)">
<title>_anonymous_0</title>
<!-- POISSON_PROCESS -->
<g id="node1" class="node"><title>POISSON_PROCESS</title>
<a xlink:href="POISSON_PROCESS.html" xlink:title="Poisson Process" target="_top">
<polyline fill="none" stroke="blue" stroke-width="2" points="378,-180 278,-180 "/>
<path fill="none" stroke="blue" stroke-width="2" d="M278,-180C272,-180 266,-174 266,-168"/>
<polyline fill="none" stroke="blue" stroke-width="2" points="266,-168 266,-156 "/>
<path fill="none" stroke="blue" stroke-width="2" d="M266,-156C266,-150 272,-144 278,-144"/>
<polyline fill="none" stroke="blue" stroke-width="2" points="278,-144 378,-144 "/>
<path fill="none" stroke="blue" stroke-width="2" d="M378,-144C384,-144 390,-150 390,-156"/>
<polyline fill="none" stroke="blue" stroke-width="2" points="390,-156 390,-168 "/>
<path fill="none" stroke="blue" stroke-width="2" d="M390,-168C390,-174 384,-180 378,-180"/>
<text text-anchor="start" x="274" y="-159.233" font-family="Times Roman,serif" font-size="14.00">Poisson Process</text>
</a>
</g>
<!-- INHOMOGENEOUS_POISSON_PROCESS -->
<g id="node6" class="node"><title>INHOMOGENEOUS_POISSON_PROCESS</title>
<a xlink:href="INHOMOGENEOUS_POISSON_PROCESS.html" xlink:title="Inhomogeneous Poisson Process" target="_top">
<polyline fill="none" stroke="black" points="226,-108 12,-108 "/>
<path fill="none" stroke="black" d="M12,-108C6,-108 9.71075e-14,-102 8.05282e-14,-96"/>
<polyline fill="none" stroke="black" points="8.05282e-14,-96 4.73695e-14,-84 "/>
<path fill="none" stroke="black" d="M4.73695e-14,-84C3.07902e-14,-78 6,-72 12,-72"/>
<polyline fill="none" stroke="black" points="12,-72 226,-72 "/>
<path fill="none" stroke="black" d="M226,-72C232,-72 238,-78 238,-84"/>
<polyline fill="none" stroke="black" points="238,-84 238,-96 "/>
<path fill="none" stroke="black" d="M238,-96C238,-102 232,-108 226,-108"/>
<text text-anchor="start" x="8" y="-87.2333" font-family="Times Roman,serif" font-size="14.00">Inhomogeneous Poisson Process</text>
</a>
</g>
<!-- POISSON_PROCESS&#45;&gt;INHOMOGENEOUS_POISSON_PROCESS -->
<g id="edge6" class="edge"><title>POISSON_PROCESS&#45;&gt;INHOMOGENEOUS_POISSON_PROCESS</title>
<path fill="none" stroke="black" d="M275.53,-143.924C246.835,-134.039 211.111,-121.732 181.04,-111.373"/>
<polygon fill="black" stroke="black" points="182.086,-108.031 171.491,-108.083 179.806,-114.649 182.086,-108.031"/>
</g>
<!-- MM1_QUEUE -->
<g id="node8" class="node"><title>MM1_QUEUE</title>
<a xlink:href="MM1_QUEUE.html" xlink:title="The M/M/1 Queue " target="_top">
<polyline fill="none" stroke="black" points="388,-108 268,-108 "/>
<path fill="none" stroke="black" d="M268,-108C262,-108 256,-102 256,-96"/>
<polyline fill="none" stroke="black" points="256,-96 256,-84 "/>
<path fill="none" stroke="black" d="M256,-84C256,-78 262,-72 268,-72"/>
<polyline fill="none" stroke="black" points="268,-72 388,-72 "/>
<path fill="none" stroke="black" d="M388,-72C394,-72 400,-78 400,-84"/>
<polyline fill="none" stroke="black" points="400,-84 400,-96 "/>
<path fill="none" stroke="black" d="M400,-96C400,-102 394,-108 388,-108"/>
<text text-anchor="start" x="264" y="-87.2333" font-family="Times Roman,serif" font-size="14.00">The M/M/1 Queue </text>
</a>
</g>
<!-- POISSON_PROCESS&#45;&gt;MM1_QUEUE -->
<g id="edge8" class="edge"><title>POISSON_PROCESS&#45;&gt;MM1_QUEUE</title>
<path fill="none" stroke="black" d="M328,-143.831C328,-136.131 328,-126.974 328,-118.417"/>
<polygon fill="black" stroke="black" points="331.5,-118.413 328,-108.413 324.5,-118.413 331.5,-118.413"/>
</g>
<!-- COMPOUND_POISSON_PROCESS -->
<g id="node10" class="node"><title>COMPOUND_POISSON_PROCESS</title>
<a xlink:href="COMPOUND_POISSON_PROCESS.html" xlink:title="Compound Poisson Process" target="_top">
<polyline fill="none" stroke="black" points="362,-36 184,-36 "/>
<path fill="none" stroke="black" d="M184,-36C178,-36 172,-30 172,-24"/>
<polyline fill="none" stroke="black" points="172,-24 172,-12 "/>
<path fill="none" stroke="black" d="M172,-12C172,-6 178,-1.73415e-14 184,-1.69194e-14"/>
<polyline fill="none" stroke="black" points="184,-1.69194e-14 362,-4.39692e-15 "/>
<path fill="none" stroke="black" d="M362,-4.39692e-15C368,-3.97482e-15 374,-6 374,-12"/>
<polyline fill="none" stroke="black" points="374,-12 374,-24 "/>
<path fill="none" stroke="black" d="M374,-24C374,-30 368,-36 362,-36"/>
<text text-anchor="start" x="180" y="-15.2333" font-family="Times Roman,serif" font-size="14.00">Compound Poisson Process</text>
</a>
</g>
<!-- POISSON_PROCESS&#45;&gt;COMPOUND_POISSON_PROCESS -->
<g id="edge10" class="edge"><title>POISSON_PROCESS&#45;&gt;COMPOUND_POISSON_PROCESS</title>
<path fill="none" stroke="black" d="M370.985,-143.885C385.783,-135.315 400.706,-123.497 409,-108 416.55,-93.8932 417.987,-85.2377 409,-72 399.724,-58.3364 386.389,-48.1301 371.655,-40.5063"/>
<polygon fill="black" stroke="black" points="372.86,-37.204 362.324,-36.0852 369.863,-43.5299 372.86,-37.204"/>
</g>
<!-- SOVING_DIFFERENTIAL_EQUATIONS_USING_INTEGRATING_FACTORS -->
<g id="node2" class="node"><title>SOVING_DIFFERENTIAL_EQUATIONS_USING_INTEGRATING_FACTORS</title>
<a xlink:href="SOVING_DIFFERENTIAL_EQUATIONS_USING_INTEGRATING_FACTORS.html" xlink:title="Differential equations and integrating factors" target="_top">
<polyline fill="none" stroke="black" points="345,-324 39,-324 "/>
<path fill="none" stroke="black" d="M39,-324C33,-324 27,-318 27,-312"/>
<polyline fill="none" stroke="black" points="27,-312 27,-300 "/>
<path fill="none" stroke="black" d="M27,-300C27,-294 33,-288 39,-288"/>
<polyline fill="none" stroke="black" points="39,-288 345,-288 "/>
<path fill="none" stroke="black" d="M345,-288C351,-288 357,-294 357,-300"/>
<polyline fill="none" stroke="black" points="357,-300 357,-312 "/>
<path fill="none" stroke="black" d="M357,-312C357,-318 351,-324 345,-324"/>
<text text-anchor="start" x="35.5" y="-303.233" font-family="Times Roman,serif" font-size="14.00">Differential equations and integrating factors</text>
</a>
</g>
<!-- SOVING_DIFFERENTIAL_EQUATIONS_USING_INTEGRATING_FACTORS&#45;&gt;POISSON_PROCESS -->
<g id="edge2" class="edge"><title>SOVING_DIFFERENTIAL_EQUATIONS_USING_INTEGRATING_FACTORS&#45;&gt;POISSON_PROCESS</title>
<path fill="none" stroke="black" d="M191.268,-287.777C191.427,-268.033 194.571,-236.6 211,-216 222.711,-201.316 239.323,-190.456 256.363,-182.49"/>
<polygon fill="black" stroke="black" points="258.077,-185.561 265.846,-178.357 255.28,-179.144 258.077,-185.561"/>
</g>
<!-- POISSON_RANDOM_VARIABLE -->
<g id="node13" class="node"><title>POISSON_RANDOM_VARIABLE</title>
<a xlink:href="POISSON_RANDOM_VARIABLE.html" xlink:title="The poisson random variable" target="_top">
<polyline fill="none" stroke="black" points="424,-252 232,-252 "/>
<path fill="none" stroke="black" d="M232,-252C226,-252 220,-246 220,-240"/>
<polyline fill="none" stroke="black" points="220,-240 220,-228 "/>
<path fill="none" stroke="black" d="M220,-228C220,-222 226,-216 232,-216"/>
<polyline fill="none" stroke="black" points="232,-216 424,-216 "/>
<path fill="none" stroke="black" d="M424,-216C430,-216 436,-222 436,-228"/>
<polyline fill="none" stroke="black" points="436,-228 436,-240 "/>
<path fill="none" stroke="black" d="M436,-240C436,-246 430,-252 424,-252"/>
<text text-anchor="start" x="228.5" y="-231.233" font-family="Times Roman,serif" font-size="14.00">The poisson random variable</text>
</a>
</g>
<!-- SOVING_DIFFERENTIAL_EQUATIONS_USING_INTEGRATING_FACTORS&#45;&gt;POISSON_RANDOM_VARIABLE -->
<!-- CONTINUOUS_TIME_MARKOV_CHAIN -->
<g id="node4" class="node"><title>CONTINUOUS_TIME_MARKOV_CHAIN</title>
<a xlink:href="CONTINUOUS_TIME_MARKOV_CHAIN.html" xlink:title="Markov chains in continuous time" target="_top">
<polyline fill="none" stroke="black" points="611,-324 387,-324 "/>
<path fill="none" stroke="black" d="M387,-324C381,-324 375,-318 375,-312"/>
<polyline fill="none" stroke="black" points="375,-312 375,-300 "/>
<path fill="none" stroke="black" d="M375,-300C375,-294 381,-288 387,-288"/>
<polyline fill="none" stroke="black" points="387,-288 611,-288 "/>
<path fill="none" stroke="black" d="M611,-288C617,-288 623,-294 623,-300"/>
<polyline fill="none" stroke="black" points="623,-300 623,-312 "/>
<path fill="none" stroke="black" d="M623,-312C623,-318 617,-324 611,-324"/>
<text text-anchor="start" x="383" y="-303.233" font-family="Times Roman,serif" font-size="14.00">Markov chains in continuous time</text>
</a>
</g>
<!-- CONTINUOUS_TIME_MARKOV_CHAIN&#45;&gt;POISSON_PROCESS -->
<g id="edge4" class="edge"><title>CONTINUOUS_TIME_MARKOV_CHAIN&#45;&gt;POISSON_PROCESS</title>
<path fill="none" stroke="black" d="M492.017,-287.941C483.534,-268.048 467.512,-236.203 445,-216 430.254,-202.767 411.709,-192.227 393.757,-184.101"/>
<polygon fill="black" stroke="black" points="395.014,-180.831 384.447,-180.07 392.233,-187.255 395.014,-180.831"/>
</g>
<!-- INHOMOGENEOUS_POISSON_PROCESS&#45;&gt;COMPOUND_POISSON_PROCESS -->
<!-- POISSON_RANDOM_VARIABLE&#45;&gt;POISSON_PROCESS -->
<g id="edge14" class="edge"><title>POISSON_RANDOM_VARIABLE&#45;&gt;POISSON_PROCESS</title>
<path fill="none" stroke="black" d="M328,-215.831C328,-208.131 328,-198.974 328,-190.417"/>
<polygon fill="black" stroke="black" points="331.5,-190.413 328,-180.413 324.5,-190.413 331.5,-190.413"/>
</g>
</g>
</svg>
