<?xml version="1.0" encoding="UTF-8" standalone="no"?>
<!DOCTYPE svg PUBLIC "-//W3C//DTD SVG 1.1//EN"
 "http://www.w3.org/Graphics/SVG/1.1/DTD/svg11.dtd">
<!-- Generated by graphviz version 2.26.3 (20100126.1600)
 -->
<!-- Title: _anonymous_0 Pages: 1 -->
<svg width="318pt" height="116pt"
 viewBox="0.00 0.00 318.00 116.00" xmlns="http://www.w3.org/2000/svg" xmlns:xlink="http://www.w3.org/1999/xlink">
<g id="graph1" class="graph" transform="scale(1 1) rotate(0) translate(4 112)">
<title>_anonymous_0</title>
<!-- PRINCIPLE_OF_EQUAL_APRIORI_PROBABILITIES -->
<g id="node1" class="node"><title>PRINCIPLE_OF_EQUAL_APRIORI_PROBABILITIES</title>
<a xlink:href="PRINCIPLE_OF_EQUAL_APRIORI_PROBABILITIES.html" xlink:title=" The principle of equal apriori probabilities " target="_top">
<polyline fill="none" stroke="blue" stroke-width="2" points="298,-108 12,-108 "/>
<path fill="none" stroke="blue" stroke-width="2" d="M12,-108C6,-108 1.18424e-13,-102 9.4739e-14,-96"/>
<polyline fill="none" stroke="blue" stroke-width="2" points="9.4739e-14,-96 4.73695e-14,-84 "/>
<path fill="none" stroke="blue" stroke-width="2" d="M4.73695e-14,-84C2.36848e-14,-78 6,-72 12,-72"/>
<polyline fill="none" stroke="blue" stroke-width="2" points="12,-72 298,-72 "/>
<path fill="none" stroke="blue" stroke-width="2" d="M298,-72C304,-72 310,-78 310,-84"/>
<polyline fill="none" stroke="blue" stroke-width="2" points="310,-84 310,-96 "/>
<path fill="none" stroke="blue" stroke-width="2" d="M310,-96C310,-102 304,-108 298,-108"/>
<text text-anchor="start" x="8" y="-87.2333" font-family="Times Roman,serif" font-size="14.00"> The principle of equal apriori probabilities </text>
</a>
</g>
<!-- GENERALIZED_PARTITION_FUNCTION -->
<g id="node2" class="node"><title>GENERALIZED_PARTITION_FUNCTION</title>
<a xlink:href="GENERALIZED_PARTITION_FUNCTION.html" xlink:title=" The generalized partition function " target="_top">
<polyline fill="none" stroke="black" points="274,-36 36,-36 "/>
<path fill="none" stroke="black" d="M36,-36C30,-36 24,-30 24,-24"/>
<polyline fill="none" stroke="black" points="24,-24 24,-12 "/>
<path fill="none" stroke="black" d="M24,-12C24,-6 30,-1.74381e-14 36,-1.71127e-14"/>
<polyline fill="none" stroke="black" points="36,-1.71127e-14 274,-4.20359e-15 "/>
<path fill="none" stroke="black" d="M274,-4.20359e-15C280,-3.87815e-15 286,-6 286,-12"/>
<polyline fill="none" stroke="black" points="286,-12 286,-24 "/>
<path fill="none" stroke="black" d="M286,-24C286,-30 280,-36 274,-36"/>
<text text-anchor="start" x="32.5" y="-15.2333" font-family="Times Roman,serif" font-size="14.00"> The generalized partition function </text>
</a>
</g>
<!-- PRINCIPLE_OF_EQUAL_APRIORI_PROBABILITIES&#45;&gt;GENERALIZED_PARTITION_FUNCTION -->
<g id="edge2" class="edge"><title>PRINCIPLE_OF_EQUAL_APRIORI_PROBABILITIES&#45;&gt;GENERALIZED_PARTITION_FUNCTION</title>
<path fill="none" stroke="black" d="M155,-71.8314C155,-64.131 155,-54.9743 155,-46.4166"/>
<polygon fill="black" stroke="black" points="158.5,-46.4132 155,-36.4133 151.5,-46.4133 158.5,-46.4132"/>
</g>
</g>
</svg>
