<?xml version="1.0" encoding="UTF-8" standalone="no"?>
<!DOCTYPE svg PUBLIC "-//W3C//DTD SVG 1.1//EN"
 "http://www.w3.org/Graphics/SVG/1.1/DTD/svg11.dtd">
<!-- Generated by graphviz version 2.36.0 (20140111.2315)
 -->
<!-- Title: %3 Pages: 1 -->
<svg width="264pt" height="116pt"
 viewBox="0.00 0.00 264.00 116.00" xmlns="http://www.w3.org/2000/svg" xmlns:xlink="http://www.w3.org/1999/xlink">
<g id="graph0" class="graph" transform="scale(1 1) rotate(0) translate(4 112)">
<title>%3</title>
<!-- PRINCIPLE_OF_EQUAL_APRIORI_PROBABILITIES -->
<g id="node1" class="node"><title>PRINCIPLE_OF_EQUAL_APRIORI_PROBABILITIES</title>
<g id="a_node1"><a xlink:href="PRINCIPLE_OF_EQUAL_APRIORI_PROBABILITIES.html" xlink:title=" The principle of equal apriori probabilities " target="_top">
<path fill="none" stroke="blue" stroke-width="2" d="M244,-108C244,-108 12,-108 12,-108 6,-108 0,-102 0,-96 0,-96 0,-84 0,-84 0,-78 6,-72 12,-72 12,-72 244,-72 244,-72 250,-72 256,-78 256,-84 256,-84 256,-96 256,-96 256,-102 250,-108 244,-108"/>
<text text-anchor="start" x="8" y="-86.3" font-family="Times,serif" font-size="14.00"> The principle of equal apriori probabilities </text>
</a>
</g>
</g>
<!-- GENERALIZED_PARTITION_FUNCTION -->
<g id="node2" class="node"><title>GENERALIZED_PARTITION_FUNCTION</title>
<g id="a_node2"><a xlink:href="GENERALIZED_PARTITION_FUNCTION.html" xlink:title=" The generalized partition function " target="_top">
<path fill="none" stroke="black" d="M220.25,-36C220.25,-36 35.75,-36 35.75,-36 29.75,-36 23.75,-30 23.75,-24 23.75,-24 23.75,-12 23.75,-12 23.75,-6 29.75,-0 35.75,-0 35.75,-0 220.25,-0 220.25,-0 226.25,-0 232.25,-6 232.25,-12 232.25,-12 232.25,-24 232.25,-24 232.25,-30 226.25,-36 220.25,-36"/>
<text text-anchor="start" x="31.5" y="-14.3" font-family="Times,serif" font-size="14.00"> The generalized partition function </text>
</a>
</g>
</g>
<!-- PRINCIPLE_OF_EQUAL_APRIORI_PROBABILITIES&#45;&gt;GENERALIZED_PARTITION_FUNCTION -->
<g id="edge1" class="edge"><title>PRINCIPLE_OF_EQUAL_APRIORI_PROBABILITIES&#45;&gt;GENERALIZED_PARTITION_FUNCTION</title>
<path fill="none" stroke="black" d="M128,-71.6966C128,-63.9827 128,-54.7125 128,-46.1124"/>
<polygon fill="black" stroke="black" points="131.5,-46.1043 128,-36.1043 124.5,-46.1044 131.5,-46.1043"/>
</g>
</g>
</svg>
