<?xml version="1.0" encoding="UTF-8" standalone="no"?>
<!DOCTYPE svg PUBLIC "-//W3C//DTD SVG 1.1//EN"
 "http://www.w3.org/Graphics/SVG/1.1/DTD/svg11.dtd">
<!-- Generated by graphviz version 2.26.3 (20100126.1600)
 -->
<!-- Title: _anonymous_0 Pages: 1 -->
<svg width="310pt" height="116pt"
 viewBox="0.00 0.00 310.00 116.00" xmlns="http://www.w3.org/2000/svg" xmlns:xlink="http://www.w3.org/1999/xlink">
<g id="graph1" class="graph" transform="scale(1 1) rotate(0) translate(4 112)">
<title>_anonymous_0</title>
<!-- PRINCIPLE_OF_EQUAL_APRIORI_PROBABILITIES -->
<g id="node1" class="node"><title>PRINCIPLE_OF_EQUAL_APRIORI_PROBABILITIES</title>
<a xlink:href="PRINCIPLE_OF_EQUAL_APRIORI_PROBABILITIES.html" xlink:title="The principle of equal apriori probabilities" target="_top">
<polyline fill="none" stroke="blue" stroke-width="2" points="290,-108 12,-108 "/>
<path fill="none" stroke="blue" stroke-width="2" d="M12,-108C6,-108 1.18424e-13,-102 9.4739e-14,-96"/>
<polyline fill="none" stroke="blue" stroke-width="2" points="9.4739e-14,-96 4.73695e-14,-84 "/>
<path fill="none" stroke="blue" stroke-width="2" d="M4.73695e-14,-84C2.36848e-14,-78 6,-72 12,-72"/>
<polyline fill="none" stroke="blue" stroke-width="2" points="12,-72 290,-72 "/>
<path fill="none" stroke="blue" stroke-width="2" d="M290,-72C296,-72 302,-78 302,-84"/>
<polyline fill="none" stroke="blue" stroke-width="2" points="302,-84 302,-96 "/>
<path fill="none" stroke="blue" stroke-width="2" d="M302,-96C302,-102 296,-108 290,-108"/>
<text text-anchor="start" x="8.5" y="-87.2333" font-family="Times Roman,serif" font-size="14.00">The principle of equal apriori probabilities</text>
</a>
</g>
<!-- GENERALIZED_PARTITION_FUNCTION -->
<g id="node2" class="node"><title>GENERALIZED_PARTITION_FUNCTION</title>
<a xlink:href="GENERALIZED_PARTITION_FUNCTION.html" xlink:title="The generalized partition function" target="_top">
<polyline fill="none" stroke="black" points="265,-36 37,-36 "/>
<path fill="none" stroke="black" d="M37,-36C31,-36 25,-30 25,-24"/>
<polyline fill="none" stroke="black" points="25,-24 25,-12 "/>
<path fill="none" stroke="black" d="M25,-12C25,-6 31,-1.74252e-14 37,-1.70869e-14"/>
<polyline fill="none" stroke="black" points="37,-1.70869e-14 265,-4.22942e-15 "/>
<path fill="none" stroke="black" d="M265,-4.22942e-15C271,-3.89107e-15 277,-6 277,-12"/>
<polyline fill="none" stroke="black" points="277,-12 277,-24 "/>
<path fill="none" stroke="black" d="M277,-24C277,-30 271,-36 265,-36"/>
<text text-anchor="start" x="33" y="-15.2333" font-family="Times Roman,serif" font-size="14.00">The generalized partition function</text>
</a>
</g>
<!-- PRINCIPLE_OF_EQUAL_APRIORI_PROBABILITIES&#45;&gt;GENERALIZED_PARTITION_FUNCTION -->
<g id="edge2" class="edge"><title>PRINCIPLE_OF_EQUAL_APRIORI_PROBABILITIES&#45;&gt;GENERALIZED_PARTITION_FUNCTION</title>
<path fill="none" stroke="black" d="M151,-71.8314C151,-64.131 151,-54.9743 151,-46.4166"/>
<polygon fill="black" stroke="black" points="154.5,-46.4132 151,-36.4133 147.5,-46.4133 154.5,-46.4132"/>
</g>
</g>
</svg>
