<?xml version="1.0" encoding="UTF-8" standalone="no"?>
<!DOCTYPE svg PUBLIC "-//W3C//DTD SVG 1.1//EN"
 "http://www.w3.org/Graphics/SVG/1.1/DTD/svg11.dtd">
<!-- Generated by graphviz version 2.28.0 (20110509.1545)
 -->
<!-- Title: _anonymous_0 Pages: 1 -->
<svg width="276pt" height="188pt"
 viewBox="0.00 0.00 276.00 188.00" xmlns="http://www.w3.org/2000/svg" xmlns:xlink="http://www.w3.org/1999/xlink">
<g id="graph1" class="graph" transform="scale(1 1) rotate(0) translate(4 184)">
<title>_anonymous_0</title>
<!-- PRODUCT_RULE -->
<g id="node1" class="node"><title>PRODUCT_RULE</title>
<a xlink:href="PRODUCT_RULE.html" xlink:title="Product Rule" target="_top">
<polyline fill="none" stroke="blue" stroke-width="2" points="167,-108 101,-108 "/>
<path fill="none" stroke="blue" stroke-width="2" d="M101,-108C95,-108 89,-102 89,-96"/>
<polyline fill="none" stroke="blue" stroke-width="2" points="89,-96 89,-84 "/>
<path fill="none" stroke="blue" stroke-width="2" d="M89,-84C89,-78 95,-72 101,-72"/>
<polyline fill="none" stroke="blue" stroke-width="2" points="101,-72 167,-72 "/>
<path fill="none" stroke="blue" stroke-width="2" d="M167,-72C173,-72 179,-78 179,-84"/>
<polyline fill="none" stroke="blue" stroke-width="2" points="179,-84 179,-96 "/>
<path fill="none" stroke="blue" stroke-width="2" d="M179,-96C179,-102 173,-108 167,-108"/>
<text text-anchor="start" x="97.5" y="-84.5" font-family="Times,serif" font-size="14.00">Product Rule</text>
</a>
</g>
<!-- SOVING_DIFFERENTIAL_EQUATIONS_USING_INTEGRATING_FACTORS -->
<g id="node4" class="node"><title>SOVING_DIFFERENTIAL_EQUATIONS_USING_INTEGRATING_FACTORS</title>
<a xlink:href="SOVING_DIFFERENTIAL_EQUATIONS_USING_INTEGRATING_FACTORS.html" xlink:title="Differential equations and integrating factors" target="_top">
<polyline fill="none" stroke="black" points="256,-36 12,-36 "/>
<path fill="none" stroke="black" d="M12,-36C6,-36 0,-30 0,-24"/>
<polyline fill="none" stroke="black" points="0,-24 0,-12 "/>
<path fill="none" stroke="black" d="M0,-12C0,-6 6,-0 12,-0"/>
<polyline fill="none" stroke="black" points="12,-0 256,-0 "/>
<path fill="none" stroke="black" d="M256,-0C262,-0 268,-6 268,-12"/>
<polyline fill="none" stroke="black" points="268,-12 268,-24 "/>
<path fill="none" stroke="black" d="M268,-24C268,-30 262,-36 256,-36"/>
<text text-anchor="start" x="8.5" y="-12.5" font-family="Times,serif" font-size="14.00">Differential equations and integrating factors</text>
</a>
</g>
<!-- PRODUCT_RULE&#45;&gt;SOVING_DIFFERENTIAL_EQUATIONS_USING_INTEGRATING_FACTORS -->
<g id="edge4" class="edge"><title>PRODUCT_RULE&#45;&gt;SOVING_DIFFERENTIAL_EQUATIONS_USING_INTEGRATING_FACTORS</title>
<path fill="none" stroke="black" d="M134,-71.6966C134,-63.9827 134,-54.7125 134,-46.1124"/>
<polygon fill="black" stroke="black" points="137.5,-46.1043 134,-36.1043 130.5,-46.1044 137.5,-46.1043"/>
</g>
<!-- DEFINITION_OF_DERIVATIVE -->
<g id="node2" class="node"><title>DEFINITION_OF_DERIVATIVE</title>
<a xlink:href="DEFINITION_OF_DERIVATIVE.html" xlink:title="Differentiation" target="_top">
<polyline fill="none" stroke="black" points="171.25,-180 96.75,-180 "/>
<path fill="none" stroke="black" d="M96.75,-180C90.75,-180 84.75,-174 84.75,-168"/>
<polyline fill="none" stroke="black" points="84.75,-168 84.75,-156 "/>
<path fill="none" stroke="black" d="M84.75,-156C84.75,-150 90.75,-144 96.75,-144"/>
<polyline fill="none" stroke="black" points="96.75,-144 171.25,-144 "/>
<path fill="none" stroke="black" d="M171.25,-144C177.25,-144 183.25,-150 183.25,-156"/>
<polyline fill="none" stroke="black" points="183.25,-156 183.25,-168 "/>
<path fill="none" stroke="black" d="M183.25,-168C183.25,-174 177.25,-180 171.25,-180"/>
<text text-anchor="start" x="93" y="-156.5" font-family="Times,serif" font-size="14.00">Differentiation</text>
</a>
</g>
<!-- DEFINITION_OF_DERIVATIVE&#45;&gt;PRODUCT_RULE -->
<g id="edge2" class="edge"><title>DEFINITION_OF_DERIVATIVE&#45;&gt;PRODUCT_RULE</title>
<path fill="none" stroke="black" d="M134,-143.697C134,-135.983 134,-126.712 134,-118.112"/>
<polygon fill="black" stroke="black" points="137.5,-118.104 134,-108.104 130.5,-118.104 137.5,-118.104"/>
</g>
</g>
</svg>
