<?xml version="1.0" encoding="UTF-8" standalone="no"?>
<!DOCTYPE svg PUBLIC "-//W3C//DTD SVG 1.1//EN"
 "http://www.w3.org/Graphics/SVG/1.1/DTD/svg11.dtd">
<!-- Generated by graphviz version 2.26.3 (20100126.1600)
 -->
<!-- Title: _anonymous_0 Pages: 1 -->
<svg width="498pt" height="188pt"
 viewBox="0.00 0.00 498.00 188.00" xmlns="http://www.w3.org/2000/svg" xmlns:xlink="http://www.w3.org/1999/xlink">
<g id="graph1" class="graph" transform="scale(1 1) rotate(0) translate(4 184)">
<title>_anonymous_0</title>
<!-- PRODUCT_RULE -->
<g id="node1" class="node"><title>PRODUCT_RULE</title>
<a xlink:href="PRODUCT_RULE.html" xlink:title="Product Rule" target="_top">
<polyline fill="none" stroke="blue" stroke-width="2" points="332,-108 252,-108 "/>
<path fill="none" stroke="blue" stroke-width="2" d="M252,-108C246,-108 240,-102 240,-96"/>
<polyline fill="none" stroke="blue" stroke-width="2" points="240,-96 240,-84 "/>
<path fill="none" stroke="blue" stroke-width="2" d="M240,-84C240,-78 246,-72 252,-72"/>
<polyline fill="none" stroke="blue" stroke-width="2" points="252,-72 332,-72 "/>
<path fill="none" stroke="blue" stroke-width="2" d="M332,-72C338,-72 344,-78 344,-84"/>
<polyline fill="none" stroke="blue" stroke-width="2" points="344,-84 344,-96 "/>
<path fill="none" stroke="blue" stroke-width="2" d="M344,-96C344,-102 338,-108 332,-108"/>
<text text-anchor="start" x="248" y="-87.2333" font-family="Times Roman,serif" font-size="14.00">Product Rule</text>
</a>
</g>
<!-- SOVING_DIFFERENTIAL_EQUATIONS_USING_INTEGRATING_FACTORS -->
<g id="node4" class="node"><title>SOVING_DIFFERENTIAL_EQUATIONS_USING_INTEGRATING_FACTORS</title>
<a xlink:href="SOVING_DIFFERENTIAL_EQUATIONS_USING_INTEGRATING_FACTORS.html" xlink:title="Differential equations and integrating factors" target="_top">
<polyline fill="none" stroke="black" points="318,-36 12,-36 "/>
<path fill="none" stroke="black" d="M12,-36C6,-36 1.18424e-13,-30 9.4739e-14,-24"/>
<polyline fill="none" stroke="black" points="9.4739e-14,-24 4.73695e-14,-12 "/>
<path fill="none" stroke="black" d="M4.73695e-14,-12C2.36848e-14,-6 6,-1.75052e-14 12,-1.72468e-14"/>
<polyline fill="none" stroke="black" points="12,-1.72468e-14 318,-4.06947e-15 "/>
<path fill="none" stroke="black" d="M318,-4.06947e-15C324,-3.81109e-15 330,-6 330,-12"/>
<polyline fill="none" stroke="black" points="330,-12 330,-24 "/>
<path fill="none" stroke="black" d="M330,-24C330,-30 324,-36 318,-36"/>
<text text-anchor="start" x="8.5" y="-15.2333" font-family="Times Roman,serif" font-size="14.00">Differential equations and integrating factors</text>
</a>
</g>
<!-- PRODUCT_RULE&#45;&gt;SOVING_DIFFERENTIAL_EQUATIONS_USING_INTEGRATING_FACTORS -->
<g id="edge4" class="edge"><title>PRODUCT_RULE&#45;&gt;SOVING_DIFFERENTIAL_EQUATIONS_USING_INTEGRATING_FACTORS</title>
<path fill="none" stroke="black" d="M259.953,-71.8314C243.558,-62.5368 223.421,-51.1208 205.917,-41.1971"/>
<polygon fill="black" stroke="black" points="207.463,-38.05 197.037,-36.1628 204.01,-44.1395 207.463,-38.05"/>
</g>
<!-- INTERATOMIC_FORCES -->
<g id="node6" class="node"><title>INTERATOMIC_FORCES</title>
<a xlink:href="INTERATOMIC_FORCES.html" xlink:title="Interatomic forces" target="_top">
<polyline fill="none" stroke="black" points="478,-36 360,-36 "/>
<path fill="none" stroke="black" d="M360,-36C354,-36 348,-30 348,-24"/>
<polyline fill="none" stroke="black" points="348,-24 348,-12 "/>
<path fill="none" stroke="black" d="M348,-12C348,-6 354,-1.71631e-14 360,-1.65627e-14"/>
<polyline fill="none" stroke="black" points="360,-1.65627e-14 478,-4.75363e-15 "/>
<path fill="none" stroke="black" d="M478,-4.75363e-15C484,-4.15317e-15 490,-6 490,-12"/>
<polyline fill="none" stroke="black" points="490,-12 490,-24 "/>
<path fill="none" stroke="black" d="M490,-24C490,-30 484,-36 478,-36"/>
<text text-anchor="start" x="356.5" y="-15.2333" font-family="Times Roman,serif" font-size="14.00">Interatomic forces</text>
</a>
</g>
<!-- PRODUCT_RULE&#45;&gt;INTERATOMIC_FORCES -->
<g id="edge6" class="edge"><title>PRODUCT_RULE&#45;&gt;INTERATOMIC_FORCES</title>
<path fill="none" stroke="black" d="M324.047,-71.8314C340.442,-62.5368 360.579,-51.1208 378.083,-41.1971"/>
<polygon fill="black" stroke="black" points="379.99,-44.1395 386.963,-36.1628 376.537,-38.05 379.99,-44.1395"/>
</g>
<!-- DEFINITION_OF_DERIVATIVE -->
<g id="node2" class="node"><title>DEFINITION_OF_DERIVATIVE</title>
<a xlink:href="DEFINITION_OF_DERIVATIVE.html" xlink:title="Differentiation" target="_top">
<polyline fill="none" stroke="black" points="339,-180 245,-180 "/>
<path fill="none" stroke="black" d="M245,-180C239,-180 233,-174 233,-168"/>
<polyline fill="none" stroke="black" points="233,-168 233,-156 "/>
<path fill="none" stroke="black" d="M233,-156C233,-150 239,-144 245,-144"/>
<polyline fill="none" stroke="black" points="245,-144 339,-144 "/>
<path fill="none" stroke="black" d="M339,-144C345,-144 351,-150 351,-156"/>
<polyline fill="none" stroke="black" points="351,-156 351,-168 "/>
<path fill="none" stroke="black" d="M351,-168C351,-174 345,-180 339,-180"/>
<text text-anchor="start" x="241" y="-159.233" font-family="Times Roman,serif" font-size="14.00">Differentiation</text>
</a>
</g>
<!-- DEFINITION_OF_DERIVATIVE&#45;&gt;PRODUCT_RULE -->
<g id="edge2" class="edge"><title>DEFINITION_OF_DERIVATIVE&#45;&gt;PRODUCT_RULE</title>
<path fill="none" stroke="black" d="M292,-143.831C292,-136.131 292,-126.974 292,-118.417"/>
<polygon fill="black" stroke="black" points="295.5,-118.413 292,-108.413 288.5,-118.413 295.5,-118.413"/>
</g>
</g>
</svg>
