<?xml version="1.0" encoding="UTF-8" standalone="no"?>
<!DOCTYPE svg PUBLIC "-//W3C//DTD SVG 1.1//EN"
 "http://www.w3.org/Graphics/SVG/1.1/DTD/svg11.dtd">
<!-- Generated by graphviz version 2.26.3 (20100126.1600)
 -->
<!-- Title: _anonymous_0 Pages: 1 -->
<svg width="514pt" height="188pt"
 viewBox="0.00 0.00 514.00 188.00" xmlns="http://www.w3.org/2000/svg" xmlns:xlink="http://www.w3.org/1999/xlink">
<g id="graph1" class="graph" transform="scale(1 1) rotate(0) translate(4 184)">
<title>_anonymous_0</title>
<!-- PRODUCT_RULE -->
<g id="node1" class="node"><title>PRODUCT_RULE</title>
<a xlink:href="PRODUCT_RULE.html" xlink:title=" Product Rule " target="_top">
<polyline fill="none" stroke="blue" stroke-width="2" points="345,-108 255,-108 "/>
<path fill="none" stroke="blue" stroke-width="2" d="M255,-108C249,-108 243,-102 243,-96"/>
<polyline fill="none" stroke="blue" stroke-width="2" points="243,-96 243,-84 "/>
<path fill="none" stroke="blue" stroke-width="2" d="M243,-84C243,-78 249,-72 255,-72"/>
<polyline fill="none" stroke="blue" stroke-width="2" points="255,-72 345,-72 "/>
<path fill="none" stroke="blue" stroke-width="2" d="M345,-72C351,-72 357,-78 357,-84"/>
<polyline fill="none" stroke="blue" stroke-width="2" points="357,-84 357,-96 "/>
<path fill="none" stroke="blue" stroke-width="2" d="M357,-96C357,-102 351,-108 345,-108"/>
<text text-anchor="start" x="251.5" y="-87.2333" font-family="Times Roman,serif" font-size="14.00"> Product Rule </text>
</a>
</g>
<!-- SOVING_DIFFERENTIAL_EQUATIONS_USING_INTEGRATING_FACTORS -->
<g id="node2" class="node"><title>SOVING_DIFFERENTIAL_EQUATIONS_USING_INTEGRATING_FACTORS</title>
<a xlink:href="SOVING_DIFFERENTIAL_EQUATIONS_USING_INTEGRATING_FACTORS.html" xlink:title=" Differential equations and integrating factors " target="_top">
<polyline fill="none" stroke="black" points="326,-36 12,-36 "/>
<path fill="none" stroke="black" d="M12,-36C6,-36 1.42109e-13,-30 1.13687e-13,-24"/>
<polyline fill="none" stroke="black" points="1.13687e-13,-24 5.68434e-14,-12 "/>
<path fill="none" stroke="black" d="M5.68434e-14,-12C2.84217e-14,-6 6,-1.75113e-14 12,-1.7259e-14"/>
<polyline fill="none" stroke="black" points="12,-1.7259e-14 326,-4.05724e-15 "/>
<path fill="none" stroke="black" d="M326,-4.05724e-15C332,-3.80498e-15 338,-6 338,-12"/>
<polyline fill="none" stroke="black" points="338,-12 338,-24 "/>
<path fill="none" stroke="black" d="M338,-24C338,-30 332,-36 326,-36"/>
<text text-anchor="start" x="8" y="-15.2333" font-family="Times Roman,serif" font-size="14.00"> Differential equations and integrating factors </text>
</a>
</g>
<!-- PRODUCT_RULE&#45;&gt;SOVING_DIFFERENTIAL_EQUATIONS_USING_INTEGRATING_FACTORS -->
<g id="edge2" class="edge"><title>PRODUCT_RULE&#45;&gt;SOVING_DIFFERENTIAL_EQUATIONS_USING_INTEGRATING_FACTORS</title>
<path fill="none" stroke="black" d="M266.943,-71.8314C250.032,-62.5368 229.261,-51.1208 211.206,-41.1971"/>
<polygon fill="black" stroke="black" points="212.496,-37.9122 202.046,-36.1628 209.124,-44.0468 212.496,-37.9122"/>
</g>
<!-- INTERATOMIC_FORCES -->
<g id="node6" class="node"><title>INTERATOMIC_FORCES</title>
<a xlink:href="INTERATOMIC_FORCES.html" xlink:title=" Interatomic forces " target="_top">
<polyline fill="none" stroke="black" points="494,-36 368,-36 "/>
<path fill="none" stroke="black" d="M368,-36C362,-36 356,-30 356,-24"/>
<polyline fill="none" stroke="black" points="356,-24 356,-12 "/>
<path fill="none" stroke="black" d="M356,-12C356,-6 362,-1.71951e-14 368,-1.66267e-14"/>
<polyline fill="none" stroke="black" points="368,-1.66267e-14 494,-4.68958e-15 "/>
<path fill="none" stroke="black" d="M494,-4.68958e-15C500,-4.12115e-15 506,-6 506,-12"/>
<polyline fill="none" stroke="black" points="506,-12 506,-24 "/>
<path fill="none" stroke="black" d="M506,-24C506,-30 500,-36 494,-36"/>
<text text-anchor="start" x="364" y="-15.2333" font-family="Times Roman,serif" font-size="14.00"> Interatomic forces </text>
</a>
</g>
<!-- PRODUCT_RULE&#45;&gt;INTERATOMIC_FORCES -->
<g id="edge6" class="edge"><title>PRODUCT_RULE&#45;&gt;INTERATOMIC_FORCES</title>
<path fill="none" stroke="black" d="M333.057,-71.8314C349.968,-62.5368 370.739,-51.1208 388.794,-41.1971"/>
<polygon fill="black" stroke="black" points="390.876,-44.0468 397.954,-36.1628 387.504,-37.9122 390.876,-44.0468"/>
</g>
<!-- DEFINITION_OF_DERIVATIVE -->
<g id="node4" class="node"><title>DEFINITION_OF_DERIVATIVE</title>
<a xlink:href="DEFINITION_OF_DERIVATIVE.html" xlink:title=" Differentiation " target="_top">
<polyline fill="none" stroke="black" points="352,-180 248,-180 "/>
<path fill="none" stroke="black" d="M248,-180C242,-180 236,-174 236,-168"/>
<polyline fill="none" stroke="black" points="236,-168 236,-156 "/>
<path fill="none" stroke="black" d="M236,-156C236,-150 242,-144 248,-144"/>
<polyline fill="none" stroke="black" points="248,-144 352,-144 "/>
<path fill="none" stroke="black" d="M352,-144C358,-144 364,-150 364,-156"/>
<polyline fill="none" stroke="black" points="364,-156 364,-168 "/>
<path fill="none" stroke="black" d="M364,-168C364,-174 358,-180 352,-180"/>
<text text-anchor="start" x="244.5" y="-159.233" font-family="Times Roman,serif" font-size="14.00"> Differentiation </text>
</a>
</g>
<!-- DEFINITION_OF_DERIVATIVE&#45;&gt;PRODUCT_RULE -->
<g id="edge4" class="edge"><title>DEFINITION_OF_DERIVATIVE&#45;&gt;PRODUCT_RULE</title>
<path fill="none" stroke="black" d="M300,-143.831C300,-136.131 300,-126.974 300,-118.417"/>
<polygon fill="black" stroke="black" points="303.5,-118.413 300,-108.413 296.5,-118.413 303.5,-118.413"/>
</g>
</g>
</svg>
