<?xml version="1.0" encoding="UTF-8" standalone="no"?>
<!DOCTYPE svg PUBLIC "-//W3C//DTD SVG 1.1//EN"
 "http://www.w3.org/Graphics/SVG/1.1/DTD/svg11.dtd">
<!-- Generated by graphviz version 2.26.3 (20100126.1600)
 -->
<!-- Title: _anonymous_0 Pages: 1 -->
<svg width="338pt" height="188pt"
 viewBox="0.00 0.00 338.00 188.00" xmlns="http://www.w3.org/2000/svg" xmlns:xlink="http://www.w3.org/1999/xlink">
<g id="graph1" class="graph" transform="scale(1 1) rotate(0) translate(4 184)">
<title>_anonymous_0</title>
<!-- PRODUCT_RULE -->
<g id="node1" class="node"><title>PRODUCT_RULE</title>
<a xlink:href="PRODUCT_RULE.html" xlink:title="Product Rule" target="_top">
<polyline fill="none" stroke="blue" stroke-width="2" points="205,-108 125,-108 "/>
<path fill="none" stroke="blue" stroke-width="2" d="M125,-108C119,-108 113,-102 113,-96"/>
<polyline fill="none" stroke="blue" stroke-width="2" points="113,-96 113,-84 "/>
<path fill="none" stroke="blue" stroke-width="2" d="M113,-84C113,-78 119,-72 125,-72"/>
<polyline fill="none" stroke="blue" stroke-width="2" points="125,-72 205,-72 "/>
<path fill="none" stroke="blue" stroke-width="2" d="M205,-72C211,-72 217,-78 217,-84"/>
<polyline fill="none" stroke="blue" stroke-width="2" points="217,-84 217,-96 "/>
<path fill="none" stroke="blue" stroke-width="2" d="M217,-96C217,-102 211,-108 205,-108"/>
<text text-anchor="start" x="121" y="-87.2333" font-family="Times Roman,serif" font-size="14.00">Product Rule</text>
</a>
</g>
<!-- SOVING_DIFFERENTIAL_EQUATIONS_USING_INTEGRATING_FACTORS -->
<g id="node4" class="node"><title>SOVING_DIFFERENTIAL_EQUATIONS_USING_INTEGRATING_FACTORS</title>
<a xlink:href="SOVING_DIFFERENTIAL_EQUATIONS_USING_INTEGRATING_FACTORS.html" xlink:title="Differential equations and integrating factors" target="_top">
<polyline fill="none" stroke="black" points="318,-36 12,-36 "/>
<path fill="none" stroke="black" d="M12,-36C6,-36 1.18424e-13,-30 9.4739e-14,-24"/>
<polyline fill="none" stroke="black" points="9.4739e-14,-24 4.73695e-14,-12 "/>
<path fill="none" stroke="black" d="M4.73695e-14,-12C2.36848e-14,-6 6,-1.75052e-14 12,-1.72468e-14"/>
<polyline fill="none" stroke="black" points="12,-1.72468e-14 318,-4.06947e-15 "/>
<path fill="none" stroke="black" d="M318,-4.06947e-15C324,-3.81109e-15 330,-6 330,-12"/>
<polyline fill="none" stroke="black" points="330,-12 330,-24 "/>
<path fill="none" stroke="black" d="M330,-24C330,-30 324,-36 318,-36"/>
<text text-anchor="start" x="8.5" y="-15.2333" font-family="Times Roman,serif" font-size="14.00">Differential equations and integrating factors</text>
</a>
</g>
<!-- PRODUCT_RULE&#45;&gt;SOVING_DIFFERENTIAL_EQUATIONS_USING_INTEGRATING_FACTORS -->
<g id="edge4" class="edge"><title>PRODUCT_RULE&#45;&gt;SOVING_DIFFERENTIAL_EQUATIONS_USING_INTEGRATING_FACTORS</title>
<path fill="none" stroke="black" d="M165,-71.8314C165,-64.131 165,-54.9743 165,-46.4166"/>
<polygon fill="black" stroke="black" points="168.5,-46.4132 165,-36.4133 161.5,-46.4133 168.5,-46.4132"/>
</g>
<!-- DEFINITION_OF_DERIVATIVE -->
<g id="node2" class="node"><title>DEFINITION_OF_DERIVATIVE</title>
<a xlink:href="DEFINITION_OF_DERIVATIVE.html" xlink:title="Differentiation" target="_top">
<polyline fill="none" stroke="black" points="212,-180 118,-180 "/>
<path fill="none" stroke="black" d="M118,-180C112,-180 106,-174 106,-168"/>
<polyline fill="none" stroke="black" points="106,-168 106,-156 "/>
<path fill="none" stroke="black" d="M106,-156C106,-150 112,-144 118,-144"/>
<polyline fill="none" stroke="black" points="118,-144 212,-144 "/>
<path fill="none" stroke="black" d="M212,-144C218,-144 224,-150 224,-156"/>
<polyline fill="none" stroke="black" points="224,-156 224,-168 "/>
<path fill="none" stroke="black" d="M224,-168C224,-174 218,-180 212,-180"/>
<text text-anchor="start" x="114" y="-159.233" font-family="Times Roman,serif" font-size="14.00">Differentiation</text>
</a>
</g>
<!-- DEFINITION_OF_DERIVATIVE&#45;&gt;PRODUCT_RULE -->
<g id="edge2" class="edge"><title>DEFINITION_OF_DERIVATIVE&#45;&gt;PRODUCT_RULE</title>
<path fill="none" stroke="black" d="M165,-143.831C165,-136.131 165,-126.974 165,-118.417"/>
<polygon fill="black" stroke="black" points="168.5,-118.413 165,-108.413 161.5,-118.413 168.5,-118.413"/>
</g>
</g>
</svg>
