<?xml version="1.0" encoding="UTF-8" standalone="no"?>
<!DOCTYPE svg PUBLIC "-//W3C//DTD SVG 1.1//EN"
 "http://www.w3.org/Graphics/SVG/1.1/DTD/svg11.dtd">
<!-- Generated by graphviz version 2.26.3 (20100126.1600)
 -->
<!-- Title: _anonymous_0 Pages: 1 -->
<svg width="498pt" height="188pt"
 viewBox="0.00 0.00 498.00 188.00" xmlns="http://www.w3.org/2000/svg" xmlns:xlink="http://www.w3.org/1999/xlink">
<g id="graph1" class="graph" transform="scale(1 1) rotate(0) translate(4 184)">
<title>_anonymous_0</title>
<!-- PRODUCT_RULE -->
<g id="node1" class="node"><title>PRODUCT_RULE</title>
<a xlink:href="PRODUCT_RULE.html" xlink:title="Product Rule" target="_top">
<polyline fill="none" stroke="blue" stroke-width="2" points="238,-108 158,-108 "/>
<path fill="none" stroke="blue" stroke-width="2" d="M158,-108C152,-108 146,-102 146,-96"/>
<polyline fill="none" stroke="blue" stroke-width="2" points="146,-96 146,-84 "/>
<path fill="none" stroke="blue" stroke-width="2" d="M146,-84C146,-78 152,-72 158,-72"/>
<polyline fill="none" stroke="blue" stroke-width="2" points="158,-72 238,-72 "/>
<path fill="none" stroke="blue" stroke-width="2" d="M238,-72C244,-72 250,-78 250,-84"/>
<polyline fill="none" stroke="blue" stroke-width="2" points="250,-84 250,-96 "/>
<path fill="none" stroke="blue" stroke-width="2" d="M250,-96C250,-102 244,-108 238,-108"/>
<text text-anchor="start" x="154" y="-87.2333" font-family="Times Roman,serif" font-size="14.00">Product Rule</text>
</a>
</g>
<!-- INTERATOMIC_FORCES -->
<g id="node4" class="node"><title>INTERATOMIC_FORCES</title>
<a xlink:href="INTERATOMIC_FORCES.html" xlink:title="Interatomic forces" target="_top">
<polyline fill="none" stroke="black" points="130,-36 12,-36 "/>
<path fill="none" stroke="black" d="M12,-36C6,-36 4.73695e-14,-30 3.78956e-14,-24"/>
<polyline fill="none" stroke="black" points="3.78956e-14,-24 1.89478e-14,-12 "/>
<path fill="none" stroke="black" d="M1.89478e-14,-12C9.4739e-15,-6 6,-1.71631e-14 12,-1.65627e-14"/>
<polyline fill="none" stroke="black" points="12,-1.65627e-14 130,-4.75363e-15 "/>
<path fill="none" stroke="black" d="M130,-4.75363e-15C136,-4.15317e-15 142,-6 142,-12"/>
<polyline fill="none" stroke="black" points="142,-12 142,-24 "/>
<path fill="none" stroke="black" d="M142,-24C142,-30 136,-36 130,-36"/>
<text text-anchor="start" x="8.5" y="-15.2333" font-family="Times Roman,serif" font-size="14.00">Interatomic forces</text>
</a>
</g>
<!-- PRODUCT_RULE&#45;&gt;INTERATOMIC_FORCES -->
<g id="edge4" class="edge"><title>PRODUCT_RULE&#45;&gt;INTERATOMIC_FORCES</title>
<path fill="none" stroke="black" d="M165.953,-71.8314C149.558,-62.5368 129.421,-51.1208 111.917,-41.1971"/>
<polygon fill="black" stroke="black" points="113.463,-38.05 103.037,-36.1628 110.01,-44.1395 113.463,-38.05"/>
</g>
<!-- SOVING_DIFFERENTIAL_EQUATIONS_USING_INTEGRATING_FACTORS -->
<g id="node6" class="node"><title>SOVING_DIFFERENTIAL_EQUATIONS_USING_INTEGRATING_FACTORS</title>
<a xlink:href="SOVING_DIFFERENTIAL_EQUATIONS_USING_INTEGRATING_FACTORS.html" xlink:title="Differential equations and integrating factors" target="_top">
<polyline fill="none" stroke="black" points="478,-36 172,-36 "/>
<path fill="none" stroke="black" d="M172,-36C166,-36 160,-30 160,-24"/>
<polyline fill="none" stroke="black" points="160,-24 160,-12 "/>
<path fill="none" stroke="black" d="M160,-12C160,-6 166,-1.75052e-14 172,-1.72468e-14"/>
<polyline fill="none" stroke="black" points="172,-1.72468e-14 478,-4.06947e-15 "/>
<path fill="none" stroke="black" d="M478,-4.06947e-15C484,-3.81109e-15 490,-6 490,-12"/>
<polyline fill="none" stroke="black" points="490,-12 490,-24 "/>
<path fill="none" stroke="black" d="M490,-24C490,-30 484,-36 478,-36"/>
<text text-anchor="start" x="168.5" y="-15.2333" font-family="Times Roman,serif" font-size="14.00">Differential equations and integrating factors</text>
</a>
</g>
<!-- PRODUCT_RULE&#45;&gt;SOVING_DIFFERENTIAL_EQUATIONS_USING_INTEGRATING_FACTORS -->
<g id="edge6" class="edge"><title>PRODUCT_RULE&#45;&gt;SOVING_DIFFERENTIAL_EQUATIONS_USING_INTEGRATING_FACTORS</title>
<path fill="none" stroke="black" d="M230.047,-71.8314C246.442,-62.5368 266.579,-51.1208 284.083,-41.1971"/>
<polygon fill="black" stroke="black" points="285.99,-44.1395 292.963,-36.1628 282.537,-38.05 285.99,-44.1395"/>
</g>
<!-- DEFINITION_OF_DERIVATIVE -->
<g id="node2" class="node"><title>DEFINITION_OF_DERIVATIVE</title>
<a xlink:href="DEFINITION_OF_DERIVATIVE.html" xlink:title="Differentiation" target="_top">
<polyline fill="none" stroke="black" points="245,-180 151,-180 "/>
<path fill="none" stroke="black" d="M151,-180C145,-180 139,-174 139,-168"/>
<polyline fill="none" stroke="black" points="139,-168 139,-156 "/>
<path fill="none" stroke="black" d="M139,-156C139,-150 145,-144 151,-144"/>
<polyline fill="none" stroke="black" points="151,-144 245,-144 "/>
<path fill="none" stroke="black" d="M245,-144C251,-144 257,-150 257,-156"/>
<polyline fill="none" stroke="black" points="257,-156 257,-168 "/>
<path fill="none" stroke="black" d="M257,-168C257,-174 251,-180 245,-180"/>
<text text-anchor="start" x="147" y="-159.233" font-family="Times Roman,serif" font-size="14.00">Differentiation</text>
</a>
</g>
<!-- DEFINITION_OF_DERIVATIVE&#45;&gt;PRODUCT_RULE -->
<g id="edge2" class="edge"><title>DEFINITION_OF_DERIVATIVE&#45;&gt;PRODUCT_RULE</title>
<path fill="none" stroke="black" d="M198,-143.831C198,-136.131 198,-126.974 198,-118.417"/>
<polygon fill="black" stroke="black" points="201.5,-118.413 198,-108.413 194.5,-118.413 201.5,-118.413"/>
</g>
</g>
</svg>
