<?xml version="1.0" encoding="UTF-8" standalone="no"?>
<!DOCTYPE svg PUBLIC "-//W3C//DTD SVG 1.1//EN"
 "http://www.w3.org/Graphics/SVG/1.1/DTD/svg11.dtd">
<!-- Generated by graphviz version 2.36.0 (20140111.2315)
 -->
<!-- Title: %3 Pages: 1 -->
<svg width="419pt" height="188pt"
 viewBox="0.00 0.00 419.00 188.00" xmlns="http://www.w3.org/2000/svg" xmlns:xlink="http://www.w3.org/1999/xlink">
<g id="graph0" class="graph" transform="scale(1 1) rotate(0) translate(4 184)">
<title>%3</title>
<!-- PRODUCT_RULE -->
<g id="node1" class="node"><title>PRODUCT_RULE</title>
<g id="a_node1"><a xlink:href="PRODUCT_RULE.html" xlink:title=" Product Rule " target="_top">
<path fill="none" stroke="blue" stroke-width="2" d="M204.25,-108C204.25,-108 133.75,-108 133.75,-108 127.75,-108 121.75,-102 121.75,-96 121.75,-96 121.75,-84 121.75,-84 121.75,-78 127.75,-72 133.75,-72 133.75,-72 204.25,-72 204.25,-72 210.25,-72 216.25,-78 216.25,-84 216.25,-84 216.25,-96 216.25,-96 216.25,-102 210.25,-108 204.25,-108"/>
<text text-anchor="start" x="129.5" y="-86.3" font-family="Times,serif" font-size="14.00"> Product Rule </text>
</a>
</g>
</g>
<!-- INTERATOMIC_FORCES -->
<g id="node2" class="node"><title>INTERATOMIC_FORCES</title>
<g id="a_node2"><a xlink:href="INTERATOMIC_FORCES.html" xlink:title=" Interatomic forces " target="_top">
<path fill="none" stroke="black" d="M111.5,-36C111.5,-36 12.5,-36 12.5,-36 6.5,-36 0.5,-30 0.5,-24 0.5,-24 0.5,-12 0.5,-12 0.5,-6 6.5,-0 12.5,-0 12.5,-0 111.5,-0 111.5,-0 117.5,-0 123.5,-6 123.5,-12 123.5,-12 123.5,-24 123.5,-24 123.5,-30 117.5,-36 111.5,-36"/>
<text text-anchor="start" x="8" y="-14.3" font-family="Times,serif" font-size="14.00"> Interatomic forces </text>
</a>
</g>
</g>
<!-- PRODUCT_RULE&#45;&gt;INTERATOMIC_FORCES -->
<g id="edge1" class="edge"><title>PRODUCT_RULE&#45;&gt;INTERATOMIC_FORCES</title>
<path fill="none" stroke="black" d="M142.825,-71.8761C128.964,-62.8083 111.759,-51.5523 96.789,-41.7592"/>
<polygon fill="black" stroke="black" points="98.5602,-38.7355 88.2758,-36.1898 94.728,-44.5933 98.5602,-38.7355"/>
</g>
<!-- SOVING_DIFFERENTIAL_EQUATIONS_USING_INTEGRATING_FACTORS -->
<g id="node4" class="node"><title>SOVING_DIFFERENTIAL_EQUATIONS_USING_INTEGRATING_FACTORS</title>
<g id="a_node4"><a xlink:href="SOVING_DIFFERENTIAL_EQUATIONS_USING_INTEGRATING_FACTORS.html" xlink:title=" Differential equations and integrating factors " target="_top">
<path fill="none" stroke="black" d="M399.25,-36C399.25,-36 154.75,-36 154.75,-36 148.75,-36 142.75,-30 142.75,-24 142.75,-24 142.75,-12 142.75,-12 142.75,-6 148.75,-0 154.75,-0 154.75,-0 399.25,-0 399.25,-0 405.25,-0 411.25,-6 411.25,-12 411.25,-12 411.25,-24 411.25,-24 411.25,-30 405.25,-36 399.25,-36"/>
<text text-anchor="start" x="150.5" y="-14.3" font-family="Times,serif" font-size="14.00"> Differential equations and integrating factors </text>
</a>
</g>
</g>
<!-- PRODUCT_RULE&#45;&gt;SOVING_DIFFERENTIAL_EQUATIONS_USING_INTEGRATING_FACTORS -->
<g id="edge3" class="edge"><title>PRODUCT_RULE&#45;&gt;SOVING_DIFFERENTIAL_EQUATIONS_USING_INTEGRATING_FACTORS</title>
<path fill="none" stroke="black" d="M195.42,-71.8761C209.41,-62.8083 226.776,-51.5523 241.886,-41.7592"/>
<polygon fill="black" stroke="black" points="243.991,-44.5658 250.479,-36.1898 240.183,-38.6917 243.991,-44.5658"/>
</g>
<!-- DEFINITION_OF_DERIVATIVE -->
<g id="node3" class="node"><title>DEFINITION_OF_DERIVATIVE</title>
<g id="a_node3"><a xlink:href="DEFINITION_OF_DERIVATIVE.html" xlink:title=" Differentiation " target="_top">
<path fill="none" stroke="black" d="M209,-180C209,-180 129,-180 129,-180 123,-180 117,-174 117,-168 117,-168 117,-156 117,-156 117,-150 123,-144 129,-144 129,-144 209,-144 209,-144 215,-144 221,-150 221,-156 221,-156 221,-168 221,-168 221,-174 215,-180 209,-180"/>
<text text-anchor="start" x="125" y="-158.3" font-family="Times,serif" font-size="14.00"> Differentiation </text>
</a>
</g>
</g>
<!-- DEFINITION_OF_DERIVATIVE&#45;&gt;PRODUCT_RULE -->
<g id="edge2" class="edge"><title>DEFINITION_OF_DERIVATIVE&#45;&gt;PRODUCT_RULE</title>
<path fill="none" stroke="black" d="M169,-143.697C169,-135.983 169,-126.712 169,-118.112"/>
<polygon fill="black" stroke="black" points="172.5,-118.104 169,-108.104 165.5,-118.104 172.5,-118.104"/>
</g>
</g>
</svg>
