<?xml version="1.0" encoding="UTF-8" standalone="no"?>
<!DOCTYPE svg PUBLIC "-//W3C//DTD SVG 1.1//EN"
 "http://www.w3.org/Graphics/SVG/1.1/DTD/svg11.dtd">
<!-- Generated by graphviz version 2.26.3 (20100126.1600)
 -->
<!-- Title: _anonymous_0 Pages: 1 -->
<svg width="160pt" height="44pt"
 viewBox="0.00 0.00 160.00 44.00" xmlns="http://www.w3.org/2000/svg" xmlns:xlink="http://www.w3.org/1999/xlink">
<g id="graph1" class="graph" transform="scale(1 1) rotate(0) translate(4 40)">
<title>_anonymous_0</title>
<!-- QUADRATIC_EQUATIONS -->
<g id="node1" class="node"><title>QUADRATIC_EQUATIONS</title>
<a xlink:href="QUADRATIC_EQUATIONS.html" xlink:title="Quadratic functions" target="_top">
<polyline fill="none" stroke="blue" stroke-width="2" points="140,-36 12,-36 "/>
<path fill="none" stroke="blue" stroke-width="2" d="M12,-36C6,-36 5.92119e-14,-30 4.73695e-14,-24"/>
<polyline fill="none" stroke="blue" stroke-width="2" points="4.73695e-14,-24 2.36848e-14,-12 "/>
<path fill="none" stroke="blue" stroke-width="2" d="M2.36848e-14,-12C1.18424e-14,-6 6,-1.72026e-14 12,-1.66417e-14"/>
<polyline fill="none" stroke="blue" stroke-width="2" points="12,-1.66417e-14 140,-4.67462e-15 "/>
<path fill="none" stroke="blue" stroke-width="2" d="M140,-4.67462e-15C146,-4.11367e-15 152,-6 152,-12"/>
<polyline fill="none" stroke="blue" stroke-width="2" points="152,-12 152,-24 "/>
<path fill="none" stroke="blue" stroke-width="2" d="M152,-24C152,-30 146,-36 140,-36"/>
<text text-anchor="start" x="8" y="-15.2333" font-family="Times Roman,serif" font-size="14.00">Quadratic functions</text>
</a>
</g>
</g>
</svg>
