<?xml version="1.0" encoding="UTF-8" standalone="no"?>
<!DOCTYPE svg PUBLIC "-//W3C//DTD SVG 1.1//EN"
 "http://www.w3.org/Graphics/SVG/1.1/DTD/svg11.dtd">
<!-- Generated by graphviz version 2.26.3 (20100126.1600)
 -->
<!-- Title: _anonymous_0 Pages: 1 -->
<svg width="987pt" height="548pt"
 viewBox="0.00 0.00 987.00 548.00" xmlns="http://www.w3.org/2000/svg" xmlns:xlink="http://www.w3.org/1999/xlink">
<g id="graph1" class="graph" transform="scale(1 1) rotate(0) translate(4 544)">
<title>_anonymous_0</title>
<!-- RANDOM_VARIABLES -->
<g id="node1" class="node"><title>RANDOM_VARIABLES</title>
<a xlink:href="RANDOM_VARIABLES.html" xlink:title="Random variables" target="_top">
<polyline fill="none" stroke="blue" stroke-width="2" points="641,-468 525,-468 "/>
<path fill="none" stroke="blue" stroke-width="2" d="M525,-468C519,-468 513,-462 513,-456"/>
<polyline fill="none" stroke="blue" stroke-width="2" points="513,-456 513,-444 "/>
<path fill="none" stroke="blue" stroke-width="2" d="M513,-444C513,-438 519,-432 525,-432"/>
<polyline fill="none" stroke="blue" stroke-width="2" points="525,-432 641,-432 "/>
<path fill="none" stroke="blue" stroke-width="2" d="M641,-432C647,-432 653,-438 653,-444"/>
<polyline fill="none" stroke="blue" stroke-width="2" points="653,-444 653,-456 "/>
<path fill="none" stroke="blue" stroke-width="2" d="M653,-456C653,-462 647,-468 641,-468"/>
<text text-anchor="start" x="521.5" y="-447.233" font-family="Times Roman,serif" font-size="14.00">Random variables</text>
</a>
</g>
<!-- JOINT_PROBABILITY_DISTRIBUTION -->
<g id="node2" class="node"><title>JOINT_PROBABILITY_DISTRIBUTION</title>
<a xlink:href="JOINT_PROBABILITY_DISTRIBUTION.html" xlink:title="Joint probability distribution" target="_top">
<polyline fill="none" stroke="black" points="198,-396 12,-396 "/>
<path fill="none" stroke="black" d="M12,-396C6,-396 7.10543e-14,-390 5.68434e-14,-384"/>
<polyline fill="none" stroke="black" points="5.68434e-14,-384 2.84217e-14,-372 "/>
<path fill="none" stroke="black" d="M2.84217e-14,-372C1.42109e-14,-366 6,-360 12,-360"/>
<polyline fill="none" stroke="black" points="12,-360 198,-360 "/>
<path fill="none" stroke="black" d="M198,-360C204,-360 210,-366 210,-372"/>
<polyline fill="none" stroke="black" points="210,-372 210,-384 "/>
<path fill="none" stroke="black" d="M210,-384C210,-390 204,-396 198,-396"/>
<text text-anchor="start" x="8.5" y="-375.233" font-family="Times Roman,serif" font-size="14.00">Joint probability distribution</text>
</a>
</g>
<!-- RANDOM_VARIABLES&#45;&gt;JOINT_PROBABILITY_DISTRIBUTION -->
<g id="edge2" class="edge"><title>RANDOM_VARIABLES&#45;&gt;JOINT_PROBABILITY_DISTRIBUTION</title>
<path fill="none" stroke="black" d="M512.85,-439.791C441.747,-429.399 328.272,-412.69 220.365,-396.203"/>
<polygon fill="black" stroke="black" points="220.691,-392.712 210.277,-394.659 219.633,-399.631 220.691,-392.712"/>
</g>
<!-- BERNOULI_RANDOM_VARIABLE -->
<g id="node4" class="node"><title>BERNOULI_RANDOM_VARIABLE</title>
<a xlink:href="BERNOULI_RANDOM_VARIABLE.html" xlink:title="Bernoulli random variable" target="_top">
<polyline fill="none" stroke="black" points="410,-396 240,-396 "/>
<path fill="none" stroke="black" d="M240,-396C234,-396 228,-390 228,-384"/>
<polyline fill="none" stroke="black" points="228,-384 228,-372 "/>
<path fill="none" stroke="black" d="M228,-372C228,-366 234,-360 240,-360"/>
<polyline fill="none" stroke="black" points="240,-360 410,-360 "/>
<path fill="none" stroke="black" d="M410,-360C416,-360 422,-366 422,-372"/>
<polyline fill="none" stroke="black" points="422,-372 422,-384 "/>
<path fill="none" stroke="black" d="M422,-384C422,-390 416,-396 410,-396"/>
<text text-anchor="start" x="236" y="-375.233" font-family="Times Roman,serif" font-size="14.00">Bernoulli random variable</text>
</a>
</g>
<!-- RANDOM_VARIABLES&#45;&gt;BERNOULI_RANDOM_VARIABLE -->
<g id="edge4" class="edge"><title>RANDOM_VARIABLES&#45;&gt;BERNOULI_RANDOM_VARIABLE</title>
<path fill="none" stroke="black" d="M518.229,-431.924C482.192,-421.868 437.177,-409.305 399.663,-398.836"/>
<polygon fill="black" stroke="black" points="400.371,-395.4 389.798,-396.083 398.489,-402.142 400.371,-395.4"/>
</g>
<!-- INFORMATION_THEORY -->
<g id="node6" class="node"><title>INFORMATION_THEORY</title>
<a xlink:href="INFORMATION_THEORY.html" xlink:title="Information theory " target="_top">
<polyline fill="none" stroke="black" points="288,-324 160,-324 "/>
<path fill="none" stroke="black" d="M160,-324C154,-324 148,-318 148,-312"/>
<polyline fill="none" stroke="black" points="148,-312 148,-300 "/>
<path fill="none" stroke="black" d="M148,-300C148,-294 154,-288 160,-288"/>
<polyline fill="none" stroke="black" points="160,-288 288,-288 "/>
<path fill="none" stroke="black" d="M288,-288C294,-288 300,-294 300,-300"/>
<polyline fill="none" stroke="black" points="300,-300 300,-312 "/>
<path fill="none" stroke="black" d="M300,-312C300,-318 294,-324 288,-324"/>
<text text-anchor="start" x="156" y="-303.233" font-family="Times Roman,serif" font-size="14.00">Information theory </text>
</a>
</g>
<!-- RANDOM_VARIABLES&#45;&gt;INFORMATION_THEORY -->
<g id="edge6" class="edge"><title>RANDOM_VARIABLES&#45;&gt;INFORMATION_THEORY</title>
<path fill="none" stroke="black" d="M544.618,-431.961C524.618,-422.093 500.013,-409.209 479,-396 456.424,-381.808 455.02,-371.583 431,-360 393.228,-341.785 348.507,-329.133 310.315,-320.68"/>
<polygon fill="black" stroke="black" points="310.755,-317.194 300.243,-318.513 309.283,-324.038 310.755,-317.194"/>
</g>
<!-- EXPECTATION -->
<g id="node9" class="node"><title>EXPECTATION</title>
<a xlink:href="EXPECTATION.html" xlink:title="Expectation " target="_top">
<polyline fill="none" stroke="black" points="486,-324 406,-324 "/>
<path fill="none" stroke="black" d="M406,-324C400,-324 394,-318 394,-312"/>
<polyline fill="none" stroke="black" points="394,-312 394,-300 "/>
<path fill="none" stroke="black" d="M394,-300C394,-294 400,-288 406,-288"/>
<polyline fill="none" stroke="black" points="406,-288 486,-288 "/>
<path fill="none" stroke="black" d="M486,-288C492,-288 498,-294 498,-300"/>
<polyline fill="none" stroke="black" points="498,-300 498,-312 "/>
<path fill="none" stroke="black" d="M498,-312C498,-318 492,-324 486,-324"/>
<text text-anchor="start" x="402.5" y="-303.233" font-family="Times Roman,serif" font-size="14.00">Expectation </text>
</a>
</g>
<!-- RANDOM_VARIABLES&#45;&gt;EXPECTATION -->
<g id="edge10" class="edge"><title>RANDOM_VARIABLES&#45;&gt;EXPECTATION</title>
<path fill="none" stroke="black" d="M555.548,-431.938C541.714,-422.16 525.134,-409.365 512,-396 492.89,-376.553 474.847,-351.293 462.473,-332.485"/>
<polygon fill="black" stroke="black" points="465.408,-330.579 457.038,-324.084 459.531,-334.382 465.408,-330.579"/>
</g>
<!-- GEOMETRIC_RANDOM_VARIABLE -->
<g id="node11" class="node"><title>GEOMETRIC_RANDOM_VARIABLE</title>
<a xlink:href="GEOMETRIC_RANDOM_VARIABLE.html" xlink:title="The geometric random variable" target="_top">
<polyline fill="none" stroke="black" points="328,-252 120,-252 "/>
<path fill="none" stroke="black" d="M120,-252C114,-252 108,-246 108,-240"/>
<polyline fill="none" stroke="black" points="108,-240 108,-228 "/>
<path fill="none" stroke="black" d="M108,-228C108,-222 114,-216 120,-216"/>
<polyline fill="none" stroke="black" points="120,-216 328,-216 "/>
<path fill="none" stroke="black" d="M328,-216C334,-216 340,-222 340,-228"/>
<polyline fill="none" stroke="black" points="340,-228 340,-240 "/>
<path fill="none" stroke="black" d="M340,-240C340,-246 334,-252 328,-252"/>
<text text-anchor="start" x="116" y="-231.233" font-family="Times Roman,serif" font-size="14.00">The geometric random variable</text>
</a>
</g>
<!-- RANDOM_VARIABLES&#45;&gt;GEOMETRIC_RANDOM_VARIABLE -->
<g id="edge12" class="edge"><title>RANDOM_VARIABLES&#45;&gt;GEOMETRIC_RANDOM_VARIABLE</title>
<path fill="none" stroke="black" d="M576.805,-431.726C563.47,-393.458 531.29,-306.865 507,-288 494.01,-277.911 419.661,-263.934 350.434,-252.728"/>
<polygon fill="black" stroke="black" points="350.693,-249.225 340.265,-251.096 349.584,-256.137 350.693,-249.225"/>
</g>
<!-- EXPONENTIAL_RANDOM_VARIABLE -->
<g id="node14" class="node"><title>EXPONENTIAL_RANDOM_VARIABLE</title>
<a xlink:href="EXPONENTIAL_RANDOM_VARIABLE.html" xlink:title="Exponential random variable" target="_top">
<polyline fill="none" stroke="black" points="562,-252 370,-252 "/>
<path fill="none" stroke="black" d="M370,-252C364,-252 358,-246 358,-240"/>
<polyline fill="none" stroke="black" points="358,-240 358,-228 "/>
<path fill="none" stroke="black" d="M358,-228C358,-222 364,-216 370,-216"/>
<polyline fill="none" stroke="black" points="370,-216 562,-216 "/>
<path fill="none" stroke="black" d="M562,-216C568,-216 574,-222 574,-228"/>
<polyline fill="none" stroke="black" points="574,-228 574,-240 "/>
<path fill="none" stroke="black" d="M574,-240C574,-246 568,-252 562,-252"/>
<text text-anchor="start" x="366.5" y="-231.233" font-family="Times Roman,serif" font-size="14.00">Exponential random variable</text>
</a>
</g>
<!-- RANDOM_VARIABLES&#45;&gt;EXPONENTIAL_RANDOM_VARIABLE -->
<g id="edge16" class="edge"><title>RANDOM_VARIABLES&#45;&gt;EXPONENTIAL_RANDOM_VARIABLE</title>
<path fill="none" stroke="black" d="M582.086,-431.847C579.69,-400.06 571.05,-333.393 540,-288 531.908,-276.169 520.341,-265.976 508.751,-257.733"/>
<polygon fill="black" stroke="black" points="510.605,-254.763 500.355,-252.081 506.695,-260.569 510.605,-254.763"/>
</g>
<!-- UNIFORM_RANDOM_VARIABLE -->
<g id="node16" class="node"><title>UNIFORM_RANDOM_VARIABLE</title>
<a xlink:href="UNIFORM_RANDOM_VARIABLE.html" xlink:title="Uniform Random Variable" target="_top">
<polyline fill="none" stroke="black" points="368,-180 200,-180 "/>
<path fill="none" stroke="black" d="M200,-180C194,-180 188,-174 188,-168"/>
<polyline fill="none" stroke="black" points="188,-168 188,-156 "/>
<path fill="none" stroke="black" d="M188,-156C188,-150 194,-144 200,-144"/>
<polyline fill="none" stroke="black" points="200,-144 368,-144 "/>
<path fill="none" stroke="black" d="M368,-144C374,-144 380,-150 380,-156"/>
<polyline fill="none" stroke="black" points="380,-156 380,-168 "/>
<path fill="none" stroke="black" d="M380,-168C380,-174 374,-180 368,-180"/>
<text text-anchor="start" x="196" y="-159.233" font-family="Times Roman,serif" font-size="14.00">Uniform Random Variable</text>
</a>
</g>
<!-- RANDOM_VARIABLES&#45;&gt;UNIFORM_RANDOM_VARIABLE -->
<g id="edge18" class="edge"><title>RANDOM_VARIABLES&#45;&gt;UNIFORM_RANDOM_VARIABLE</title>
<path fill="none" stroke="black" d="M590.054,-431.762C605.502,-388.414 636.836,-278.204 583,-216 581.355,-214.1 475.617,-195.309 390.356,-180.421"/>
<polygon fill="black" stroke="black" points="390.785,-176.943 380.333,-178.673 389.582,-183.839 390.785,-176.943"/>
</g>
<!-- GENERALIZED_PARTITION_FUNCTION -->
<g id="node19" class="node"><title>GENERALIZED_PARTITION_FUNCTION</title>
<a xlink:href="GENERALIZED_PARTITION_FUNCTION.html" xlink:title="The generalized partition function" target="_top">
<polyline fill="none" stroke="black" points="638,-180 410,-180 "/>
<path fill="none" stroke="black" d="M410,-180C404,-180 398,-174 398,-168"/>
<polyline fill="none" stroke="black" points="398,-168 398,-156 "/>
<path fill="none" stroke="black" d="M398,-156C398,-150 404,-144 410,-144"/>
<polyline fill="none" stroke="black" points="410,-144 638,-144 "/>
<path fill="none" stroke="black" d="M638,-144C644,-144 650,-150 650,-156"/>
<polyline fill="none" stroke="black" points="650,-156 650,-168 "/>
<path fill="none" stroke="black" d="M650,-168C650,-174 644,-180 638,-180"/>
<text text-anchor="start" x="406" y="-159.233" font-family="Times Roman,serif" font-size="14.00">The generalized partition function</text>
</a>
</g>
<!-- RANDOM_VARIABLES&#45;&gt;GENERALIZED_PARTITION_FUNCTION -->
<g id="edge22" class="edge"><title>RANDOM_VARIABLES&#45;&gt;GENERALIZED_PARTITION_FUNCTION</title>
<path fill="none" stroke="black" d="M597.675,-431.709C604.705,-421.772 612.37,-408.903 616,-396 637.668,-318.99 655.751,-285.425 616,-216 608.598,-203.072 596.764,-192.937 584.015,-185.116"/>
<polygon fill="black" stroke="black" points="585.513,-181.942 575.086,-180.065 582.067,-188.035 585.513,-181.942"/>
</g>
<!-- MOMENT_GENERATING_FUNCTION -->
<g id="node21" class="node"><title>MOMENT_GENERATING_FUNCTION</title>
<a xlink:href="MOMENT_GENERATING_FUNCTION.html" xlink:title="The moment generating function" target="_top">
<polyline fill="none" stroke="black" points="631,-108 409,-108 "/>
<path fill="none" stroke="black" d="M409,-108C403,-108 397,-102 397,-96"/>
<polyline fill="none" stroke="black" points="397,-96 397,-84 "/>
<path fill="none" stroke="black" d="M397,-84C397,-78 403,-72 409,-72"/>
<polyline fill="none" stroke="black" points="409,-72 631,-72 "/>
<path fill="none" stroke="black" d="M631,-72C637,-72 643,-78 643,-84"/>
<polyline fill="none" stroke="black" points="643,-84 643,-96 "/>
<path fill="none" stroke="black" d="M643,-96C643,-102 637,-108 631,-108"/>
<text text-anchor="start" x="405.5" y="-87.2333" font-family="Times Roman,serif" font-size="14.00">The moment generating function</text>
</a>
</g>
<!-- RANDOM_VARIABLES&#45;&gt;MOMENT_GENERATING_FUNCTION -->
<g id="edge24" class="edge"><title>RANDOM_VARIABLES&#45;&gt;MOMENT_GENERATING_FUNCTION</title>
<path fill="none" stroke="black" d="M605.514,-431.616C633.606,-406.459 678,-358.413 678,-306 678,-306 678,-306 678,-234 678,-193.118 685.466,-175.158 659,-144 647.192,-130.098 631.355,-119.759 614.602,-112.073"/>
<polygon fill="black" stroke="black" points="615.792,-108.775 605.22,-108.071 613.045,-115.214 615.792,-108.775"/>
</g>
<!-- VARIANCE -->
<g id="node24" class="node"><title>VARIANCE</title>
<a xlink:href="VARIANCE.html" xlink:title="Variance " target="_top">
<polyline fill="none" stroke="black" points="729,-108 673,-108 "/>
<path fill="none" stroke="black" d="M673,-108C667,-108 661,-102 661,-96"/>
<polyline fill="none" stroke="black" points="661,-96 661,-84 "/>
<path fill="none" stroke="black" d="M661,-84C661,-78 667,-72 673,-72"/>
<polyline fill="none" stroke="black" points="673,-72 729,-72 "/>
<path fill="none" stroke="black" d="M729,-72C735,-72 741,-78 741,-84"/>
<polyline fill="none" stroke="black" points="741,-84 741,-96 "/>
<path fill="none" stroke="black" d="M741,-96C741,-102 735,-108 729,-108"/>
<text text-anchor="start" x="669" y="-87.2333" font-family="Times Roman,serif" font-size="14.00">Variance </text>
</a>
</g>
<!-- RANDOM_VARIABLES&#45;&gt;VARIANCE -->
<g id="edge28" class="edge"><title>RANDOM_VARIABLES&#45;&gt;VARIANCE</title>
<path fill="none" stroke="black" d="M617.597,-431.959C657.004,-408.633 716,-364.024 716,-306 716,-306 716,-306 716,-234 716,-193.659 710.104,-147.301 705.705,-118.327"/>
<polygon fill="black" stroke="black" points="709.112,-117.461 704.108,-108.122 702.197,-118.543 709.112,-117.461"/>
</g>
<!-- CONDITIONAL_PROBABILITY -->
<g id="node28" class="node"><title>CONDITIONAL_PROBABILITY</title>
<a xlink:href="CONDITIONAL_PROBABILITY.html" xlink:title="Conditional probability" target="_top">
<polyline fill="none" stroke="black" points="718,-36 570,-36 "/>
<path fill="none" stroke="black" d="M570,-36C564,-36 558,-30 558,-24"/>
<polyline fill="none" stroke="black" points="558,-24 558,-12 "/>
<path fill="none" stroke="black" d="M558,-12C558,-6 564,-1.72678e-14 570,-1.67721e-14"/>
<polyline fill="none" stroke="black" points="570,-1.67721e-14 718,-4.54417e-15 "/>
<path fill="none" stroke="black" d="M718,-4.54417e-15C724,-4.04844e-15 730,-6 730,-12"/>
<polyline fill="none" stroke="black" points="730,-12 730,-24 "/>
<path fill="none" stroke="black" d="M730,-24C730,-30 724,-36 718,-36"/>
<text text-anchor="start" x="566" y="-15.2333" font-family="Times Roman,serif" font-size="14.00">Conditional probability</text>
</a>
</g>
<!-- RANDOM_VARIABLES&#45;&gt;CONDITIONAL_PROBABILITY -->
<g id="edge32" class="edge"><title>RANDOM_VARIABLES&#45;&gt;CONDITIONAL_PROBABILITY</title>
<path fill="none" stroke="black" d="M642.107,-431.906C696.571,-411.131 769,-371.239 769,-306 769,-306 769,-306 769,-162 769,-121.118 774.866,-104.45 750,-72 739.857,-58.7635 725.568,-48.5049 710.757,-40.6623"/>
<polygon fill="black" stroke="black" points="712.015,-37.3802 701.5,-36.0865 708.913,-43.6554 712.015,-37.3802"/>
</g>
<!-- NORMAL_RANDOM_VARIABLE -->
<g id="node31" class="node"><title>NORMAL_RANDOM_VARIABLE</title>
<a xlink:href="NORMAL_RANDOM_VARIABLE.html" xlink:title="Normal random variable" target="_top">
<polyline fill="none" stroke="black" points="967,-396 809,-396 "/>
<path fill="none" stroke="black" d="M809,-396C803,-396 797,-390 797,-384"/>
<polyline fill="none" stroke="black" points="797,-384 797,-372 "/>
<path fill="none" stroke="black" d="M797,-372C797,-366 803,-360 809,-360"/>
<polyline fill="none" stroke="black" points="809,-360 967,-360 "/>
<path fill="none" stroke="black" d="M967,-360C973,-360 979,-366 979,-372"/>
<polyline fill="none" stroke="black" points="979,-372 979,-384 "/>
<path fill="none" stroke="black" d="M979,-384C979,-390 973,-396 967,-396"/>
<text text-anchor="start" x="805" y="-375.233" font-family="Times Roman,serif" font-size="14.00">Normal random variable</text>
</a>
</g>
<!-- RANDOM_VARIABLES&#45;&gt;NORMAL_RANDOM_VARIABLE -->
<g id="edge36" class="edge"><title>RANDOM_VARIABLES&#45;&gt;NORMAL_RANDOM_VARIABLE</title>
<path fill="none" stroke="black" d="M653.356,-433.391C697.537,-422.962 754.83,-409.437 801.742,-398.362"/>
<polygon fill="black" stroke="black" points="802.658,-401.742 811.587,-396.039 801.05,-394.93 802.658,-401.742"/>
</g>
<!-- JOINT_PROBABILITY_DISTRIBUTION&#45;&gt;INFORMATION_THEORY -->
<!-- INFORMATION_THEORY&#45;&gt;GEOMETRIC_RANDOM_VARIABLE -->
<!-- GEOMETRIC_RANDOM_VARIABLE&#45;&gt;UNIFORM_RANDOM_VARIABLE -->
<!-- UNIFORM_RANDOM_VARIABLE&#45;&gt;MOMENT_GENERATING_FUNCTION -->
<!-- MOMENT_GENERATING_FUNCTION&#45;&gt;CONDITIONAL_PROBABILITY -->
<!-- SET_PARTITIONS -->
<g id="node26" class="node"><title>SET_PARTITIONS</title>
<a xlink:href="SET_PARTITIONS.html" xlink:title="Partition (set theory)" target="_top">
<polyline fill="none" stroke="black" points="652,-540 514,-540 "/>
<path fill="none" stroke="black" d="M514,-540C508,-540 502,-534 502,-528"/>
<polyline fill="none" stroke="black" points="502,-528 502,-516 "/>
<path fill="none" stroke="black" d="M502,-516C502,-510 508,-504 514,-504"/>
<polyline fill="none" stroke="black" points="514,-504 652,-504 "/>
<path fill="none" stroke="black" d="M652,-504C658,-504 664,-510 664,-516"/>
<polyline fill="none" stroke="black" points="664,-516 664,-528 "/>
<path fill="none" stroke="black" d="M664,-528C664,-534 658,-540 652,-540"/>
<text text-anchor="start" x="510" y="-519.233" font-family="Times Roman,serif" font-size="14.00">Partition (set theory)</text>
</a>
</g>
<!-- SET_PARTITIONS&#45;&gt;RANDOM_VARIABLES -->
<g id="edge30" class="edge"><title>SET_PARTITIONS&#45;&gt;RANDOM_VARIABLES</title>
<path fill="none" stroke="black" d="M583,-503.831C583,-496.131 583,-486.974 583,-478.417"/>
<polygon fill="black" stroke="black" points="586.5,-478.413 583,-468.413 579.5,-478.413 586.5,-478.413"/>
</g>
</g>
</svg>
