<?xml version="1.0" encoding="UTF-8" standalone="no"?>
<!DOCTYPE svg PUBLIC "-//W3C//DTD SVG 1.1//EN"
 "http://www.w3.org/Graphics/SVG/1.1/DTD/svg11.dtd">
<!-- Generated by graphviz version 2.26.3 (20100126.1600)
 -->
<!-- Title: _anonymous_0 Pages: 1 -->
<svg width="914pt" height="548pt"
 viewBox="0.00 0.00 914.00 548.00" xmlns="http://www.w3.org/2000/svg" xmlns:xlink="http://www.w3.org/1999/xlink">
<g id="graph1" class="graph" transform="scale(1 1) rotate(0) translate(4 544)">
<title>_anonymous_0</title>
<!-- RANDOM_VARIABLES -->
<g id="node1" class="node"><title>RANDOM_VARIABLES</title>
<a xlink:href="RANDOM_VARIABLES.html" xlink:title="Random variables" target="_top">
<polyline fill="none" stroke="blue" stroke-width="2" points="517,-468 401,-468 "/>
<path fill="none" stroke="blue" stroke-width="2" d="M401,-468C395,-468 389,-462 389,-456"/>
<polyline fill="none" stroke="blue" stroke-width="2" points="389,-456 389,-444 "/>
<path fill="none" stroke="blue" stroke-width="2" d="M389,-444C389,-438 395,-432 401,-432"/>
<polyline fill="none" stroke="blue" stroke-width="2" points="401,-432 517,-432 "/>
<path fill="none" stroke="blue" stroke-width="2" d="M517,-432C523,-432 529,-438 529,-444"/>
<polyline fill="none" stroke="blue" stroke-width="2" points="529,-444 529,-456 "/>
<path fill="none" stroke="blue" stroke-width="2" d="M529,-456C529,-462 523,-468 517,-468"/>
<text text-anchor="start" x="397.5" y="-447.233" font-family="Times Roman,serif" font-size="14.00">Random variables</text>
</a>
</g>
<!-- BERNOULI_RANDOM_VARIABLE -->
<g id="node2" class="node"><title>BERNOULI_RANDOM_VARIABLE</title>
<a xlink:href="BERNOULI_RANDOM_VARIABLE.html" xlink:title="Bernoulli random variable" target="_top">
<polyline fill="none" stroke="black" points="182,-396 12,-396 "/>
<path fill="none" stroke="black" d="M12,-396C6,-396 7.10543e-14,-390 5.68434e-14,-384"/>
<polyline fill="none" stroke="black" points="5.68434e-14,-384 2.84217e-14,-372 "/>
<path fill="none" stroke="black" d="M2.84217e-14,-372C1.42109e-14,-366 6,-360 12,-360"/>
<polyline fill="none" stroke="black" points="12,-360 182,-360 "/>
<path fill="none" stroke="black" d="M182,-360C188,-360 194,-366 194,-372"/>
<polyline fill="none" stroke="black" points="194,-372 194,-384 "/>
<path fill="none" stroke="black" d="M194,-384C194,-390 188,-396 182,-396"/>
<text text-anchor="start" x="8" y="-375.233" font-family="Times Roman,serif" font-size="14.00">Bernoulli random variable</text>
</a>
</g>
<!-- RANDOM_VARIABLES&#45;&gt;BERNOULI_RANDOM_VARIABLE -->
<g id="edge2" class="edge"><title>RANDOM_VARIABLES&#45;&gt;BERNOULI_RANDOM_VARIABLE</title>
<path fill="none" stroke="black" d="M388.774,-436.032C334.434,-425.224 258.45,-410.112 197.646,-398.018"/>
<polygon fill="black" stroke="black" points="198.13,-394.546 187.639,-396.028 196.764,-401.411 198.13,-394.546"/>
</g>
<!-- VARIANCE -->
<g id="node4" class="node"><title>VARIANCE</title>
<a xlink:href="VARIANCE.html" xlink:title="Variance " target="_top">
<polyline fill="none" stroke="black" points="284,-396 228,-396 "/>
<path fill="none" stroke="black" d="M228,-396C222,-396 216,-390 216,-384"/>
<polyline fill="none" stroke="black" points="216,-384 216,-372 "/>
<path fill="none" stroke="black" d="M216,-372C216,-366 222,-360 228,-360"/>
<polyline fill="none" stroke="black" points="228,-360 284,-360 "/>
<path fill="none" stroke="black" d="M284,-360C290,-360 296,-366 296,-372"/>
<polyline fill="none" stroke="black" points="296,-372 296,-384 "/>
<path fill="none" stroke="black" d="M296,-384C296,-390 290,-396 284,-396"/>
<text text-anchor="start" x="224" y="-375.233" font-family="Times Roman,serif" font-size="14.00">Variance </text>
</a>
</g>
<!-- RANDOM_VARIABLES&#45;&gt;VARIANCE -->
<g id="edge4" class="edge"><title>RANDOM_VARIABLES&#45;&gt;VARIANCE</title>
<path fill="none" stroke="black" d="M408.037,-431.924C376.773,-420.836 336.922,-406.701 305.864,-395.686"/>
<polygon fill="black" stroke="black" points="306.705,-392.271 296.111,-392.226 304.365,-398.868 306.705,-392.271"/>
</g>
<!-- EXPECTATION -->
<g id="node6" class="node"><title>EXPECTATION</title>
<a xlink:href="EXPECTATION.html" xlink:title="Expectation " target="_top">
<polyline fill="none" stroke="black" points="134,-324 54,-324 "/>
<path fill="none" stroke="black" d="M54,-324C48,-324 42,-318 42,-312"/>
<polyline fill="none" stroke="black" points="42,-312 42,-300 "/>
<path fill="none" stroke="black" d="M42,-300C42,-294 48,-288 54,-288"/>
<polyline fill="none" stroke="black" points="54,-288 134,-288 "/>
<path fill="none" stroke="black" d="M134,-288C140,-288 146,-294 146,-300"/>
<polyline fill="none" stroke="black" points="146,-300 146,-312 "/>
<path fill="none" stroke="black" d="M146,-312C146,-318 140,-324 134,-324"/>
<text text-anchor="start" x="50.5" y="-303.233" font-family="Times Roman,serif" font-size="14.00">Expectation </text>
</a>
</g>
<!-- RANDOM_VARIABLES&#45;&gt;EXPECTATION -->
<g id="edge6" class="edge"><title>RANDOM_VARIABLES&#45;&gt;EXPECTATION</title>
<path fill="none" stroke="black" d="M406.157,-431.897C383.988,-422.951 358.625,-410.858 338,-396 320.389,-383.313 323.703,-371.014 305,-360 248.576,-326.774 223.521,-340.329 156.009,-324.09"/>
<polygon fill="black" stroke="black" points="156.748,-320.667 146.194,-321.593 155.022,-327.451 156.748,-320.667"/>
</g>
<!-- JOINT_PROBABILITY_DISTRIBUTION -->
<g id="node9" class="node"><title>JOINT_PROBABILITY_DISTRIBUTION</title>
<a xlink:href="JOINT_PROBABILITY_DISTRIBUTION.html" xlink:title="Joint probability distribution" target="_top">
<polyline fill="none" stroke="black" points="362,-324 176,-324 "/>
<path fill="none" stroke="black" d="M176,-324C170,-324 164,-318 164,-312"/>
<polyline fill="none" stroke="black" points="164,-312 164,-300 "/>
<path fill="none" stroke="black" d="M164,-300C164,-294 170,-288 176,-288"/>
<polyline fill="none" stroke="black" points="176,-288 362,-288 "/>
<path fill="none" stroke="black" d="M362,-288C368,-288 374,-294 374,-300"/>
<polyline fill="none" stroke="black" points="374,-300 374,-312 "/>
<path fill="none" stroke="black" d="M374,-312C374,-318 368,-324 362,-324"/>
<text text-anchor="start" x="172.5" y="-303.233" font-family="Times Roman,serif" font-size="14.00">Joint probability distribution</text>
</a>
</g>
<!-- RANDOM_VARIABLES&#45;&gt;JOINT_PROBABILITY_DISTRIBUTION -->
<g id="edge10" class="edge"><title>RANDOM_VARIABLES&#45;&gt;JOINT_PROBABILITY_DISTRIBUTION</title>
<path fill="none" stroke="black" d="M434.936,-431.762C400.959,-406.011 338.854,-358.942 301.015,-330.264"/>
<polygon fill="black" stroke="black" points="302.952,-327.34 292.868,-324.09 298.724,-332.919 302.952,-327.34"/>
</g>
<!-- INFORMATION_THEORY -->
<g id="node11" class="node"><title>INFORMATION_THEORY</title>
<a xlink:href="INFORMATION_THEORY.html" xlink:title="Information theory " target="_top">
<polyline fill="none" stroke="black" points="168,-252 40,-252 "/>
<path fill="none" stroke="black" d="M40,-252C34,-252 28,-246 28,-240"/>
<polyline fill="none" stroke="black" points="28,-240 28,-228 "/>
<path fill="none" stroke="black" d="M28,-228C28,-222 34,-216 40,-216"/>
<polyline fill="none" stroke="black" points="40,-216 168,-216 "/>
<path fill="none" stroke="black" d="M168,-216C174,-216 180,-222 180,-228"/>
<polyline fill="none" stroke="black" points="180,-228 180,-240 "/>
<path fill="none" stroke="black" d="M180,-240C180,-246 174,-252 168,-252"/>
<text text-anchor="start" x="36" y="-231.233" font-family="Times Roman,serif" font-size="14.00">Information theory </text>
</a>
</g>
<!-- RANDOM_VARIABLES&#45;&gt;INFORMATION_THEORY -->
<g id="edge12" class="edge"><title>RANDOM_VARIABLES&#45;&gt;INFORMATION_THEORY</title>
<path fill="none" stroke="black" d="M452.812,-431.717C439.492,-393.43 407.338,-306.804 383,-288 316.112,-236.322 277.843,-266.693 190.474,-252.117"/>
<polygon fill="black" stroke="black" points="190.903,-248.638 180.437,-250.282 189.644,-255.523 190.903,-248.638"/>
</g>
<!-- GENERALIZED_PARTITION_FUNCTION -->
<g id="node14" class="node"><title>GENERALIZED_PARTITION_FUNCTION</title>
<a xlink:href="GENERALIZED_PARTITION_FUNCTION.html" xlink:title="The generalized partition function" target="_top">
<polyline fill="none" stroke="black" points="438,-252 210,-252 "/>
<path fill="none" stroke="black" d="M210,-252C204,-252 198,-246 198,-240"/>
<polyline fill="none" stroke="black" points="198,-240 198,-228 "/>
<path fill="none" stroke="black" d="M198,-228C198,-222 204,-216 210,-216"/>
<polyline fill="none" stroke="black" points="210,-216 438,-216 "/>
<path fill="none" stroke="black" d="M438,-216C444,-216 450,-222 450,-228"/>
<polyline fill="none" stroke="black" points="450,-228 450,-240 "/>
<path fill="none" stroke="black" d="M450,-240C450,-246 444,-252 438,-252"/>
<text text-anchor="start" x="206" y="-231.233" font-family="Times Roman,serif" font-size="14.00">The generalized partition function</text>
</a>
</g>
<!-- RANDOM_VARIABLES&#45;&gt;GENERALIZED_PARTITION_FUNCTION -->
<g id="edge16" class="edge"><title>RANDOM_VARIABLES&#45;&gt;GENERALIZED_PARTITION_FUNCTION</title>
<path fill="none" stroke="black" d="M458.556,-431.773C456.893,-399.578 449.36,-331.907 416,-288 406.349,-275.298 392.778,-265.031 379.017,-256.997"/>
<polygon fill="black" stroke="black" points="380.436,-253.783 369.986,-252.038 377.066,-259.919 380.436,-253.783"/>
</g>
<!-- EXPONENTIAL_RANDOM_VARIABLE -->
<g id="node16" class="node"><title>EXPONENTIAL_RANDOM_VARIABLE</title>
<a xlink:href="EXPONENTIAL_RANDOM_VARIABLE.html" xlink:title="Exponential random variable" target="_top">
<polyline fill="none" stroke="black" points="314,-180 122,-180 "/>
<path fill="none" stroke="black" d="M122,-180C116,-180 110,-174 110,-168"/>
<polyline fill="none" stroke="black" points="110,-168 110,-156 "/>
<path fill="none" stroke="black" d="M110,-156C110,-150 116,-144 122,-144"/>
<polyline fill="none" stroke="black" points="122,-144 314,-144 "/>
<path fill="none" stroke="black" d="M314,-144C320,-144 326,-150 326,-156"/>
<polyline fill="none" stroke="black" points="326,-156 326,-168 "/>
<path fill="none" stroke="black" d="M326,-168C326,-174 320,-180 314,-180"/>
<text text-anchor="start" x="118.5" y="-159.233" font-family="Times Roman,serif" font-size="14.00">Exponential random variable</text>
</a>
</g>
<!-- RANDOM_VARIABLES&#45;&gt;EXPONENTIAL_RANDOM_VARIABLE -->
<g id="edge18" class="edge"><title>RANDOM_VARIABLES&#45;&gt;EXPONENTIAL_RANDOM_VARIABLE</title>
<path fill="none" stroke="black" d="M465.882,-431.908C480.954,-388.878 511.526,-279.314 459,-216 450.443,-205.686 392.769,-192.568 335.991,-181.843"/>
<polygon fill="black" stroke="black" points="336.628,-178.402 326.155,-180.007 335.343,-185.283 336.628,-178.402"/>
</g>
<!-- NORMAL_RANDOM_VARIABLE -->
<g id="node19" class="node"><title>NORMAL_RANDOM_VARIABLE</title>
<a xlink:href="NORMAL_RANDOM_VARIABLE.html" xlink:title="Normal random variable" target="_top">
<polyline fill="none" stroke="black" points="514,-180 356,-180 "/>
<path fill="none" stroke="black" d="M356,-180C350,-180 344,-174 344,-168"/>
<polyline fill="none" stroke="black" points="344,-168 344,-156 "/>
<path fill="none" stroke="black" d="M344,-156C344,-150 350,-144 356,-144"/>
<polyline fill="none" stroke="black" points="356,-144 514,-144 "/>
<path fill="none" stroke="black" d="M514,-144C520,-144 526,-150 526,-156"/>
<polyline fill="none" stroke="black" points="526,-156 526,-168 "/>
<path fill="none" stroke="black" d="M526,-168C526,-174 520,-180 514,-180"/>
<text text-anchor="start" x="352" y="-159.233" font-family="Times Roman,serif" font-size="14.00">Normal random variable</text>
</a>
</g>
<!-- RANDOM_VARIABLES&#45;&gt;NORMAL_RANDOM_VARIABLE -->
<g id="edge22" class="edge"><title>RANDOM_VARIABLES&#45;&gt;NORMAL_RANDOM_VARIABLE</title>
<path fill="none" stroke="black" d="M473.675,-431.709C480.705,-421.772 488.37,-408.903 492,-396 513.668,-318.99 523.61,-289.49 492,-216 487.251,-204.959 479.011,-195.118 470.249,-186.959"/>
<polygon fill="black" stroke="black" points="472.339,-184.139 462.489,-180.235 467.755,-189.429 472.339,-184.139"/>
</g>
<!-- CONDITIONAL_PROBABILITY -->
<g id="node21" class="node"><title>CONDITIONAL_PROBABILITY</title>
<a xlink:href="CONDITIONAL_PROBABILITY.html" xlink:title="Conditional probability" target="_top">
<polyline fill="none" stroke="black" points="382,-108 234,-108 "/>
<path fill="none" stroke="black" d="M234,-108C228,-108 222,-102 222,-96"/>
<polyline fill="none" stroke="black" points="222,-96 222,-84 "/>
<path fill="none" stroke="black" d="M222,-84C222,-78 228,-72 234,-72"/>
<polyline fill="none" stroke="black" points="234,-72 382,-72 "/>
<path fill="none" stroke="black" d="M382,-72C388,-72 394,-78 394,-84"/>
<polyline fill="none" stroke="black" points="394,-84 394,-96 "/>
<path fill="none" stroke="black" d="M394,-96C394,-102 388,-108 382,-108"/>
<text text-anchor="start" x="230" y="-87.2333" font-family="Times Roman,serif" font-size="14.00">Conditional probability</text>
</a>
</g>
<!-- RANDOM_VARIABLES&#45;&gt;CONDITIONAL_PROBABILITY -->
<g id="edge24" class="edge"><title>RANDOM_VARIABLES&#45;&gt;CONDITIONAL_PROBABILITY</title>
<path fill="none" stroke="black" d="M481.514,-431.616C509.606,-406.459 554,-358.413 554,-306 554,-306 554,-306 554,-234 554,-193.118 563.537,-173.274 535,-144 530.07,-138.942 463.121,-123.365 403.201,-110.233"/>
<polygon fill="black" stroke="black" points="403.788,-106.778 393.271,-108.065 402.294,-113.617 403.788,-106.778"/>
</g>
<!-- MOMENT_GENERATING_FUNCTION -->
<g id="node24" class="node"><title>MOMENT_GENERATING_FUNCTION</title>
<a xlink:href="MOMENT_GENERATING_FUNCTION.html" xlink:title="The moment generating function" target="_top">
<polyline fill="none" stroke="black" points="646,-108 424,-108 "/>
<path fill="none" stroke="black" d="M424,-108C418,-108 412,-102 412,-96"/>
<polyline fill="none" stroke="black" points="412,-96 412,-84 "/>
<path fill="none" stroke="black" d="M412,-84C412,-78 418,-72 424,-72"/>
<polyline fill="none" stroke="black" points="424,-72 646,-72 "/>
<path fill="none" stroke="black" d="M646,-72C652,-72 658,-78 658,-84"/>
<polyline fill="none" stroke="black" points="658,-84 658,-96 "/>
<path fill="none" stroke="black" d="M658,-96C658,-102 652,-108 646,-108"/>
<text text-anchor="start" x="420.5" y="-87.2333" font-family="Times Roman,serif" font-size="14.00">The moment generating function</text>
</a>
</g>
<!-- RANDOM_VARIABLES&#45;&gt;MOMENT_GENERATING_FUNCTION -->
<g id="edge28" class="edge"><title>RANDOM_VARIABLES&#45;&gt;MOMENT_GENERATING_FUNCTION</title>
<path fill="none" stroke="black" d="M517.333,-431.987C535.85,-423.686 554.895,-412.018 568,-396 594.214,-363.959 592,-347.398 592,-306 592,-306 592,-306 592,-234 592,-192.602 584.295,-182.056 568,-144 564.062,-134.803 558.75,-125.316 553.54,-116.909"/>
<polygon fill="black" stroke="black" points="556.344,-114.799 547.996,-108.276 550.454,-118.582 556.344,-114.799"/>
</g>
<!-- GEOMETRIC_RANDOM_VARIABLE -->
<g id="node26" class="node"><title>GEOMETRIC_RANDOM_VARIABLE</title>
<a xlink:href="GEOMETRIC_RANDOM_VARIABLE.html" xlink:title="The geometric random variable" target="_top">
<polyline fill="none" stroke="black" points="601,-36 393,-36 "/>
<path fill="none" stroke="black" d="M393,-36C387,-36 381,-30 381,-24"/>
<polyline fill="none" stroke="black" points="381,-24 381,-12 "/>
<path fill="none" stroke="black" d="M381,-12C381,-6 387,-1.7396e-14 393,-1.70285e-14"/>
<polyline fill="none" stroke="black" points="393,-1.70285e-14 601,-4.28776e-15 "/>
<path fill="none" stroke="black" d="M601,-4.28776e-15C607,-3.92024e-15 613,-6 613,-12"/>
<polyline fill="none" stroke="black" points="613,-12 613,-24 "/>
<path fill="none" stroke="black" d="M613,-24C613,-30 607,-36 601,-36"/>
<text text-anchor="start" x="389" y="-15.2333" font-family="Times Roman,serif" font-size="14.00">The geometric random variable</text>
</a>
</g>
<!-- RANDOM_VARIABLES&#45;&gt;GEOMETRIC_RANDOM_VARIABLE -->
<g id="edge30" class="edge"><title>RANDOM_VARIABLES&#45;&gt;GEOMETRIC_RANDOM_VARIABLE</title>
<path fill="none" stroke="black" d="M529.27,-436.351C595.937,-418.839 686,-381.256 686,-306 686,-306 686,-306 686,-162 686,-121.118 694.434,-102.31 667,-72 655.746,-59.5667 623.585,-47.9882 590.223,-38.7666"/>
<polygon fill="black" stroke="black" points="590.892,-35.3224 580.327,-36.1061 589.075,-42.0824 590.892,-35.3224"/>
</g>
<!-- UNIFORM_RANDOM_VARIABLE -->
<g id="node31" class="node"><title>UNIFORM_RANDOM_VARIABLE</title>
<a xlink:href="UNIFORM_RANDOM_VARIABLE.html" xlink:title="Uniform Random Variable" target="_top">
<polyline fill="none" stroke="black" points="894,-396 726,-396 "/>
<path fill="none" stroke="black" d="M726,-396C720,-396 714,-390 714,-384"/>
<polyline fill="none" stroke="black" points="714,-384 714,-372 "/>
<path fill="none" stroke="black" d="M714,-372C714,-366 720,-360 726,-360"/>
<polyline fill="none" stroke="black" points="726,-360 894,-360 "/>
<path fill="none" stroke="black" d="M894,-360C900,-360 906,-366 906,-372"/>
<polyline fill="none" stroke="black" points="906,-372 906,-384 "/>
<path fill="none" stroke="black" d="M906,-384C906,-390 900,-396 894,-396"/>
<text text-anchor="start" x="722" y="-375.233" font-family="Times Roman,serif" font-size="14.00">Uniform Random Variable</text>
</a>
</g>
<!-- RANDOM_VARIABLES&#45;&gt;UNIFORM_RANDOM_VARIABLE -->
<g id="edge36" class="edge"><title>RANDOM_VARIABLES&#45;&gt;UNIFORM_RANDOM_VARIABLE</title>
<path fill="none" stroke="black" d="M529.186,-435.603C581.667,-424.838 654.085,-409.982 712.235,-398.054"/>
<polygon fill="black" stroke="black" points="713.084,-401.453 722.177,-396.015 711.678,-394.596 713.084,-401.453"/>
</g>
<!-- BERNOULI_RANDOM_VARIABLE&#45;&gt;EXPECTATION -->
<!-- EXPECTATION&#45;&gt;INFORMATION_THEORY -->
<!-- INFORMATION_THEORY&#45;&gt;EXPONENTIAL_RANDOM_VARIABLE -->
<!-- EXPONENTIAL_RANDOM_VARIABLE&#45;&gt;CONDITIONAL_PROBABILITY -->
<!-- CONDITIONAL_PROBABILITY&#45;&gt;GEOMETRIC_RANDOM_VARIABLE -->
<!-- SET_PARTITIONS -->
<g id="node29" class="node"><title>SET_PARTITIONS</title>
<a xlink:href="SET_PARTITIONS.html" xlink:title="Partition (set theory)" target="_top">
<polyline fill="none" stroke="black" points="528,-540 390,-540 "/>
<path fill="none" stroke="black" d="M390,-540C384,-540 378,-534 378,-528"/>
<polyline fill="none" stroke="black" points="378,-528 378,-516 "/>
<path fill="none" stroke="black" d="M378,-516C378,-510 384,-504 390,-504"/>
<polyline fill="none" stroke="black" points="390,-504 528,-504 "/>
<path fill="none" stroke="black" d="M528,-504C534,-504 540,-510 540,-516"/>
<polyline fill="none" stroke="black" points="540,-516 540,-528 "/>
<path fill="none" stroke="black" d="M540,-528C540,-534 534,-540 528,-540"/>
<text text-anchor="start" x="386" y="-519.233" font-family="Times Roman,serif" font-size="14.00">Partition (set theory)</text>
</a>
</g>
<!-- SET_PARTITIONS&#45;&gt;RANDOM_VARIABLES -->
<g id="edge34" class="edge"><title>SET_PARTITIONS&#45;&gt;RANDOM_VARIABLES</title>
<path fill="none" stroke="black" d="M459,-503.831C459,-496.131 459,-486.974 459,-478.417"/>
<polygon fill="black" stroke="black" points="462.5,-478.413 459,-468.413 455.5,-478.413 462.5,-478.413"/>
</g>
</g>
</svg>
