<?xml version="1.0" encoding="UTF-8" standalone="no"?>
<!DOCTYPE svg PUBLIC "-//W3C//DTD SVG 1.1//EN"
 "http://www.w3.org/Graphics/SVG/1.1/DTD/svg11.dtd">
<!-- Generated by graphviz version 2.26.3 (20100126.1600)
 -->
<!-- Title: _anonymous_0 Pages: 1 -->
<svg width="1089pt" height="548pt"
 viewBox="0.00 0.00 1089.00 548.00" xmlns="http://www.w3.org/2000/svg" xmlns:xlink="http://www.w3.org/1999/xlink">
<g id="graph1" class="graph" transform="scale(1 1) rotate(0) translate(4 544)">
<title>_anonymous_0</title>
<!-- RANDOM_VARIABLES -->
<g id="node1" class="node"><title>RANDOM_VARIABLES</title>
<a xlink:href="RANDOM_VARIABLES.html" xlink:title="Random variables" target="_top">
<polyline fill="none" stroke="blue" stroke-width="2" points="641,-468 525,-468 "/>
<path fill="none" stroke="blue" stroke-width="2" d="M525,-468C519,-468 513,-462 513,-456"/>
<polyline fill="none" stroke="blue" stroke-width="2" points="513,-456 513,-444 "/>
<path fill="none" stroke="blue" stroke-width="2" d="M513,-444C513,-438 519,-432 525,-432"/>
<polyline fill="none" stroke="blue" stroke-width="2" points="525,-432 641,-432 "/>
<path fill="none" stroke="blue" stroke-width="2" d="M641,-432C647,-432 653,-438 653,-444"/>
<polyline fill="none" stroke="blue" stroke-width="2" points="653,-444 653,-456 "/>
<path fill="none" stroke="blue" stroke-width="2" d="M653,-456C653,-462 647,-468 641,-468"/>
<text text-anchor="start" x="521.5" y="-447.233" font-family="Times Roman,serif" font-size="14.00">Random variables</text>
</a>
</g>
<!-- BERNOULI_RANDOM_VARIABLE -->
<g id="node2" class="node"><title>BERNOULI_RANDOM_VARIABLE</title>
<a xlink:href="BERNOULI_RANDOM_VARIABLE.html" xlink:title="Bernoulli random variable" target="_top">
<polyline fill="none" stroke="black" points="182,-396 12,-396 "/>
<path fill="none" stroke="black" d="M12,-396C6,-396 7.10543e-14,-390 5.68434e-14,-384"/>
<polyline fill="none" stroke="black" points="5.68434e-14,-384 2.84217e-14,-372 "/>
<path fill="none" stroke="black" d="M2.84217e-14,-372C1.42109e-14,-366 6,-360 12,-360"/>
<polyline fill="none" stroke="black" points="12,-360 182,-360 "/>
<path fill="none" stroke="black" d="M182,-360C188,-360 194,-366 194,-372"/>
<polyline fill="none" stroke="black" points="194,-372 194,-384 "/>
<path fill="none" stroke="black" d="M194,-384C194,-390 188,-396 182,-396"/>
<text text-anchor="start" x="8" y="-375.233" font-family="Times Roman,serif" font-size="14.00">Bernoulli random variable</text>
</a>
</g>
<!-- RANDOM_VARIABLES&#45;&gt;BERNOULI_RANDOM_VARIABLE -->
<g id="edge2" class="edge"><title>RANDOM_VARIABLES&#45;&gt;BERNOULI_RANDOM_VARIABLE</title>
<path fill="none" stroke="black" d="M512.878,-440.614C438.722,-430.556 318.05,-413.818 203.984,-396.133"/>
<polygon fill="black" stroke="black" points="204.448,-392.663 194.029,-394.585 203.372,-399.58 204.448,-392.663"/>
</g>
<!-- JOINT_PROBABILITY_DISTRIBUTION -->
<g id="node6" class="node"><title>JOINT_PROBABILITY_DISTRIBUTION</title>
<a xlink:href="JOINT_PROBABILITY_DISTRIBUTION.html" xlink:title="Joint probability distribution" target="_top">
<polyline fill="none" stroke="black" points="410,-396 224,-396 "/>
<path fill="none" stroke="black" d="M224,-396C218,-396 212,-390 212,-384"/>
<polyline fill="none" stroke="black" points="212,-384 212,-372 "/>
<path fill="none" stroke="black" d="M212,-372C212,-366 218,-360 224,-360"/>
<polyline fill="none" stroke="black" points="224,-360 410,-360 "/>
<path fill="none" stroke="black" d="M410,-360C416,-360 422,-366 422,-372"/>
<polyline fill="none" stroke="black" points="422,-372 422,-384 "/>
<path fill="none" stroke="black" d="M422,-384C422,-390 416,-396 410,-396"/>
<text text-anchor="start" x="220.5" y="-375.233" font-family="Times Roman,serif" font-size="14.00">Joint probability distribution</text>
</a>
</g>
<!-- RANDOM_VARIABLES&#45;&gt;JOINT_PROBABILITY_DISTRIBUTION -->
<g id="edge6" class="edge"><title>RANDOM_VARIABLES&#45;&gt;JOINT_PROBABILITY_DISTRIBUTION</title>
<path fill="none" stroke="black" d="M516.22,-431.924C478.908,-421.825 432.26,-409.198 393.485,-398.703"/>
<polygon fill="black" stroke="black" points="394.374,-395.318 383.807,-396.083 392.545,-402.074 394.374,-395.318"/>
</g>
<!-- CONDITIONAL_PROBABILITY -->
<g id="node8" class="node"><title>CONDITIONAL_PROBABILITY</title>
<a xlink:href="CONDITIONAL_PROBABILITY.html" xlink:title="Conditional probability" target="_top">
<polyline fill="none" stroke="black" points="322,-324 174,-324 "/>
<path fill="none" stroke="black" d="M174,-324C168,-324 162,-318 162,-312"/>
<polyline fill="none" stroke="black" points="162,-312 162,-300 "/>
<path fill="none" stroke="black" d="M162,-300C162,-294 168,-288 174,-288"/>
<polyline fill="none" stroke="black" points="174,-288 322,-288 "/>
<path fill="none" stroke="black" d="M322,-288C328,-288 334,-294 334,-300"/>
<polyline fill="none" stroke="black" points="334,-300 334,-312 "/>
<path fill="none" stroke="black" d="M334,-312C334,-318 328,-324 322,-324"/>
<text text-anchor="start" x="170" y="-303.233" font-family="Times Roman,serif" font-size="14.00">Conditional probability</text>
</a>
</g>
<!-- RANDOM_VARIABLES&#45;&gt;CONDITIONAL_PROBABILITY -->
<g id="edge8" class="edge"><title>RANDOM_VARIABLES&#45;&gt;CONDITIONAL_PROBABILITY</title>
<path fill="none" stroke="black" d="M544.618,-431.961C524.618,-422.093 500.013,-409.209 479,-396 456.424,-381.808 454.833,-371.963 431,-360 403.205,-346.048 371.184,-335.066 341.774,-326.753"/>
<polygon fill="black" stroke="black" points="342.481,-323.318 331.911,-324.036 340.622,-330.066 342.481,-323.318"/>
</g>
<!-- EXPECTATION -->
<g id="node11" class="node"><title>EXPECTATION</title>
<a xlink:href="EXPECTATION.html" xlink:title="Expectation " target="_top">
<polyline fill="none" stroke="black" points="486,-324 406,-324 "/>
<path fill="none" stroke="black" d="M406,-324C400,-324 394,-318 394,-312"/>
<polyline fill="none" stroke="black" points="394,-312 394,-300 "/>
<path fill="none" stroke="black" d="M394,-300C394,-294 400,-288 406,-288"/>
<polyline fill="none" stroke="black" points="406,-288 486,-288 "/>
<path fill="none" stroke="black" d="M486,-288C492,-288 498,-294 498,-300"/>
<polyline fill="none" stroke="black" points="498,-300 498,-312 "/>
<path fill="none" stroke="black" d="M498,-312C498,-318 492,-324 486,-324"/>
<text text-anchor="start" x="402.5" y="-303.233" font-family="Times Roman,serif" font-size="14.00">Expectation </text>
</a>
</g>
<!-- RANDOM_VARIABLES&#45;&gt;EXPECTATION -->
<g id="edge12" class="edge"><title>RANDOM_VARIABLES&#45;&gt;EXPECTATION</title>
<path fill="none" stroke="black" d="M555.548,-431.938C541.714,-422.16 525.134,-409.365 512,-396 492.89,-376.553 474.847,-351.293 462.473,-332.485"/>
<polygon fill="black" stroke="black" points="465.408,-330.579 457.038,-324.084 459.531,-334.382 465.408,-330.579"/>
</g>
<!-- GENERALIZED_PARTITION_FUNCTION -->
<g id="node13" class="node"><title>GENERALIZED_PARTITION_FUNCTION</title>
<a xlink:href="GENERALIZED_PARTITION_FUNCTION.html" xlink:title="The generalized partition function" target="_top">
<polyline fill="none" stroke="black" points="362,-252 134,-252 "/>
<path fill="none" stroke="black" d="M134,-252C128,-252 122,-246 122,-240"/>
<polyline fill="none" stroke="black" points="122,-240 122,-228 "/>
<path fill="none" stroke="black" d="M122,-228C122,-222 128,-216 134,-216"/>
<polyline fill="none" stroke="black" points="134,-216 362,-216 "/>
<path fill="none" stroke="black" d="M362,-216C368,-216 374,-222 374,-228"/>
<polyline fill="none" stroke="black" points="374,-228 374,-240 "/>
<path fill="none" stroke="black" d="M374,-240C374,-246 368,-252 362,-252"/>
<text text-anchor="start" x="130" y="-231.233" font-family="Times Roman,serif" font-size="14.00">The generalized partition function</text>
</a>
</g>
<!-- RANDOM_VARIABLES&#45;&gt;GENERALIZED_PARTITION_FUNCTION -->
<g id="edge14" class="edge"><title>RANDOM_VARIABLES&#45;&gt;GENERALIZED_PARTITION_FUNCTION</title>
<path fill="none" stroke="black" d="M576.78,-431.758C563.397,-393.551 531.129,-307.071 507,-288 495.349,-278.791 429.366,-265.105 366.922,-253.815"/>
<polygon fill="black" stroke="black" points="367.401,-250.345 356.94,-252.025 366.165,-257.235 367.401,-250.345"/>
</g>
<!-- NORMAL_RANDOM_VARIABLE -->
<g id="node16" class="node"><title>NORMAL_RANDOM_VARIABLE</title>
<a xlink:href="NORMAL_RANDOM_VARIABLE.html" xlink:title="Normal random variable" target="_top">
<polyline fill="none" stroke="black" points="562,-252 404,-252 "/>
<path fill="none" stroke="black" d="M404,-252C398,-252 392,-246 392,-240"/>
<polyline fill="none" stroke="black" points="392,-240 392,-228 "/>
<path fill="none" stroke="black" d="M392,-228C392,-222 398,-216 404,-216"/>
<polyline fill="none" stroke="black" points="404,-216 562,-216 "/>
<path fill="none" stroke="black" d="M562,-216C568,-216 574,-222 574,-228"/>
<polyline fill="none" stroke="black" points="574,-228 574,-240 "/>
<path fill="none" stroke="black" d="M574,-240C574,-246 568,-252 562,-252"/>
<text text-anchor="start" x="400" y="-231.233" font-family="Times Roman,serif" font-size="14.00">Normal random variable</text>
</a>
</g>
<!-- RANDOM_VARIABLES&#45;&gt;NORMAL_RANDOM_VARIABLE -->
<g id="edge18" class="edge"><title>RANDOM_VARIABLES&#45;&gt;NORMAL_RANDOM_VARIABLE</title>
<path fill="none" stroke="black" d="M581.423,-431.738C578.031,-400.355 567.935,-335.036 540,-288 533.583,-277.195 524.396,-267.17 515.266,-258.763"/>
<polygon fill="black" stroke="black" points="517.498,-256.065 507.673,-252.101 512.881,-261.327 517.498,-256.065"/>
</g>
<!-- INFORMATION_THEORY -->
<g id="node18" class="node"><title>INFORMATION_THEORY</title>
<a xlink:href="INFORMATION_THEORY.html" xlink:title="Information theory " target="_top">
<polyline fill="none" stroke="black" points="428,-180 300,-180 "/>
<path fill="none" stroke="black" d="M300,-180C294,-180 288,-174 288,-168"/>
<polyline fill="none" stroke="black" points="288,-168 288,-156 "/>
<path fill="none" stroke="black" d="M288,-156C288,-150 294,-144 300,-144"/>
<polyline fill="none" stroke="black" points="300,-144 428,-144 "/>
<path fill="none" stroke="black" d="M428,-144C434,-144 440,-150 440,-156"/>
<polyline fill="none" stroke="black" points="440,-156 440,-168 "/>
<path fill="none" stroke="black" d="M440,-168C440,-174 434,-180 428,-180"/>
<text text-anchor="start" x="296" y="-159.233" font-family="Times Roman,serif" font-size="14.00">Information theory </text>
</a>
</g>
<!-- RANDOM_VARIABLES&#45;&gt;INFORMATION_THEORY -->
<g id="edge20" class="edge"><title>RANDOM_VARIABLES&#45;&gt;INFORMATION_THEORY</title>
<path fill="none" stroke="black" d="M589.874,-431.686C604.726,-388.647 634.499,-279.892 583,-216 578.562,-210.495 509.399,-194.008 449.97,-180.686"/>
<polygon fill="black" stroke="black" points="450.671,-177.256 440.148,-178.493 449.145,-184.088 450.671,-177.256"/>
</g>
<!-- UNIFORM_RANDOM_VARIABLE -->
<g id="node21" class="node"><title>UNIFORM_RANDOM_VARIABLE</title>
<a xlink:href="UNIFORM_RANDOM_VARIABLE.html" xlink:title="Uniform Random Variable" target="_top">
<polyline fill="none" stroke="black" points="638,-180 470,-180 "/>
<path fill="none" stroke="black" d="M470,-180C464,-180 458,-174 458,-168"/>
<polyline fill="none" stroke="black" points="458,-168 458,-156 "/>
<path fill="none" stroke="black" d="M458,-156C458,-150 464,-144 470,-144"/>
<polyline fill="none" stroke="black" points="470,-144 638,-144 "/>
<path fill="none" stroke="black" d="M638,-144C644,-144 650,-150 650,-156"/>
<polyline fill="none" stroke="black" points="650,-156 650,-168 "/>
<path fill="none" stroke="black" d="M650,-168C650,-174 644,-180 638,-180"/>
<text text-anchor="start" x="466" y="-159.233" font-family="Times Roman,serif" font-size="14.00">Uniform Random Variable</text>
</a>
</g>
<!-- RANDOM_VARIABLES&#45;&gt;UNIFORM_RANDOM_VARIABLE -->
<g id="edge24" class="edge"><title>RANDOM_VARIABLES&#45;&gt;UNIFORM_RANDOM_VARIABLE</title>
<path fill="none" stroke="black" d="M597.675,-431.709C604.705,-421.772 612.37,-408.903 616,-396 637.668,-318.99 649.141,-288.813 616,-216 610.826,-204.632 601.946,-194.727 592.497,-186.612"/>
<polygon fill="black" stroke="black" points="594.494,-183.728 584.496,-180.224 590.127,-189.199 594.494,-183.728"/>
</g>
<!-- EXPONENTIAL_RANDOM_VARIABLE -->
<g id="node23" class="node"><title>EXPONENTIAL_RANDOM_VARIABLE</title>
<a xlink:href="EXPONENTIAL_RANDOM_VARIABLE.html" xlink:title="Exponential random variable" target="_top">
<polyline fill="none" stroke="black" points="517,-108 325,-108 "/>
<path fill="none" stroke="black" d="M325,-108C319,-108 313,-102 313,-96"/>
<polyline fill="none" stroke="black" points="313,-96 313,-84 "/>
<path fill="none" stroke="black" d="M313,-84C313,-78 319,-72 325,-72"/>
<polyline fill="none" stroke="black" points="325,-72 517,-72 "/>
<path fill="none" stroke="black" d="M517,-72C523,-72 529,-78 529,-84"/>
<polyline fill="none" stroke="black" points="529,-84 529,-96 "/>
<path fill="none" stroke="black" d="M529,-96C529,-102 523,-108 517,-108"/>
<text text-anchor="start" x="321.5" y="-87.2333" font-family="Times Roman,serif" font-size="14.00">Exponential random variable</text>
</a>
</g>
<!-- RANDOM_VARIABLES&#45;&gt;EXPONENTIAL_RANDOM_VARIABLE -->
<g id="edge26" class="edge"><title>RANDOM_VARIABLES&#45;&gt;EXPONENTIAL_RANDOM_VARIABLE</title>
<path fill="none" stroke="black" d="M605.514,-431.616C633.606,-406.459 678,-358.413 678,-306 678,-306 678,-306 678,-234 678,-193.118 687.689,-173.124 659,-144 649.531,-134.388 590.56,-120.971 533.693,-109.917"/>
<polygon fill="black" stroke="black" points="534.336,-106.476 523.855,-108.023 533.013,-113.35 534.336,-106.476"/>
</g>
<!-- GEOMETRIC_RANDOM_VARIABLE -->
<g id="node26" class="node"><title>GEOMETRIC_RANDOM_VARIABLE</title>
<a xlink:href="GEOMETRIC_RANDOM_VARIABLE.html" xlink:title="The geometric random variable" target="_top">
<polyline fill="none" stroke="black" points="767,-108 559,-108 "/>
<path fill="none" stroke="black" d="M559,-108C553,-108 547,-102 547,-96"/>
<polyline fill="none" stroke="black" points="547,-96 547,-84 "/>
<path fill="none" stroke="black" d="M547,-84C547,-78 553,-72 559,-72"/>
<polyline fill="none" stroke="black" points="559,-72 767,-72 "/>
<path fill="none" stroke="black" d="M767,-72C773,-72 779,-78 779,-84"/>
<polyline fill="none" stroke="black" points="779,-84 779,-96 "/>
<path fill="none" stroke="black" d="M779,-96C779,-102 773,-108 767,-108"/>
<text text-anchor="start" x="555" y="-87.2333" font-family="Times Roman,serif" font-size="14.00">The geometric random variable</text>
</a>
</g>
<!-- RANDOM_VARIABLES&#45;&gt;GEOMETRIC_RANDOM_VARIABLE -->
<g id="edge30" class="edge"><title>RANDOM_VARIABLES&#45;&gt;GEOMETRIC_RANDOM_VARIABLE</title>
<path fill="none" stroke="black" d="M641.333,-431.987C659.85,-423.686 678.895,-412.018 692,-396 718.214,-363.959 716,-347.398 716,-306 716,-306 716,-306 716,-234 716,-191.158 695.084,-145.315 679.531,-117.148"/>
<polygon fill="black" stroke="black" points="682.487,-115.266 674.5,-108.304 676.402,-118.727 682.487,-115.266"/>
</g>
<!-- VARIANCE -->
<g id="node28" class="node"><title>VARIANCE</title>
<a xlink:href="VARIANCE.html" xlink:title="Variance " target="_top">
<polyline fill="none" stroke="black" points="642,-36 586,-36 "/>
<path fill="none" stroke="black" d="M586,-36C580,-36 574,-30 574,-24"/>
<polyline fill="none" stroke="black" points="574,-24 574,-12 "/>
<path fill="none" stroke="black" d="M574,-12C574,-6 580,-1.66978e-14 586,-1.56319e-14"/>
<polyline fill="none" stroke="black" points="586,-1.56319e-14 642,-5.68434e-15 "/>
<path fill="none" stroke="black" d="M642,-5.68434e-15C648,-4.61853e-15 654,-6 654,-12"/>
<polyline fill="none" stroke="black" points="654,-12 654,-24 "/>
<path fill="none" stroke="black" d="M654,-24C654,-30 648,-36 642,-36"/>
<text text-anchor="start" x="582" y="-15.2333" font-family="Times Roman,serif" font-size="14.00">Variance </text>
</a>
</g>
<!-- RANDOM_VARIABLES&#45;&gt;VARIANCE -->
<g id="edge32" class="edge"><title>RANDOM_VARIABLES&#45;&gt;VARIANCE</title>
<path fill="none" stroke="black" d="M653.26,-435.811C718.952,-417.963 807,-380.201 807,-306 807,-306 807,-306 807,-162 807,-121.118 815.535,-102.218 788,-72 771.264,-53.6334 709.53,-37.4709 664.335,-27.7253"/>
<polygon fill="black" stroke="black" points="664.899,-24.2672 654.392,-25.626 663.453,-31.1162 664.899,-24.2672"/>
</g>
<!-- MOMENT_GENERATING_FUNCTION -->
<g id="node31" class="node"><title>MOMENT_GENERATING_FUNCTION</title>
<a xlink:href="MOMENT_GENERATING_FUNCTION.html" xlink:title="The moment generating function" target="_top">
<polyline fill="none" stroke="black" points="1069,-396 847,-396 "/>
<path fill="none" stroke="black" d="M847,-396C841,-396 835,-390 835,-384"/>
<polyline fill="none" stroke="black" points="835,-384 835,-372 "/>
<path fill="none" stroke="black" d="M835,-372C835,-366 841,-360 847,-360"/>
<polyline fill="none" stroke="black" points="847,-360 1069,-360 "/>
<path fill="none" stroke="black" d="M1069,-360C1075,-360 1081,-366 1081,-372"/>
<polyline fill="none" stroke="black" points="1081,-372 1081,-384 "/>
<path fill="none" stroke="black" d="M1081,-384C1081,-390 1075,-396 1069,-396"/>
<text text-anchor="start" x="843.5" y="-375.233" font-family="Times Roman,serif" font-size="14.00">The moment generating function</text>
</a>
</g>
<!-- RANDOM_VARIABLES&#45;&gt;MOMENT_GENERATING_FUNCTION -->
<g id="edge36" class="edge"><title>RANDOM_VARIABLES&#45;&gt;MOMENT_GENERATING_FUNCTION</title>
<path fill="none" stroke="black" d="M653.095,-436.542C709.639,-425.685 790.019,-410.252 854.054,-397.958"/>
<polygon fill="black" stroke="black" points="855.025,-401.335 864.185,-396.012 853.705,-394.461 855.025,-401.335"/>
</g>
<!-- BERNOULI_RANDOM_VARIABLE&#45;&gt;CONDITIONAL_PROBABILITY -->
<!-- SET_PARTITIONS -->
<g id="node4" class="node"><title>SET_PARTITIONS</title>
<a xlink:href="SET_PARTITIONS.html" xlink:title="Partition (set theory)" target="_top">
<polyline fill="none" stroke="black" points="652,-540 514,-540 "/>
<path fill="none" stroke="black" d="M514,-540C508,-540 502,-534 502,-528"/>
<polyline fill="none" stroke="black" points="502,-528 502,-516 "/>
<path fill="none" stroke="black" d="M502,-516C502,-510 508,-504 514,-504"/>
<polyline fill="none" stroke="black" points="514,-504 652,-504 "/>
<path fill="none" stroke="black" d="M652,-504C658,-504 664,-510 664,-516"/>
<polyline fill="none" stroke="black" points="664,-516 664,-528 "/>
<path fill="none" stroke="black" d="M664,-528C664,-534 658,-540 652,-540"/>
<text text-anchor="start" x="510" y="-519.233" font-family="Times Roman,serif" font-size="14.00">Partition (set theory)</text>
</a>
</g>
<!-- SET_PARTITIONS&#45;&gt;RANDOM_VARIABLES -->
<g id="edge4" class="edge"><title>SET_PARTITIONS&#45;&gt;RANDOM_VARIABLES</title>
<path fill="none" stroke="black" d="M583,-503.831C583,-496.131 583,-486.974 583,-478.417"/>
<polygon fill="black" stroke="black" points="586.5,-478.413 583,-468.413 579.5,-478.413 586.5,-478.413"/>
</g>
<!-- CONDITIONAL_PROBABILITY&#45;&gt;GENERALIZED_PARTITION_FUNCTION -->
<!-- GENERALIZED_PARTITION_FUNCTION&#45;&gt;INFORMATION_THEORY -->
<!-- INFORMATION_THEORY&#45;&gt;EXPONENTIAL_RANDOM_VARIABLE -->
<!-- EXPONENTIAL_RANDOM_VARIABLE&#45;&gt;VARIANCE -->
</g>
</svg>
