<?xml version="1.0" encoding="UTF-8" standalone="no"?>
<!DOCTYPE svg PUBLIC "-//W3C//DTD SVG 1.1//EN"
 "http://www.w3.org/Graphics/SVG/1.1/DTD/svg11.dtd">
<!-- Generated by graphviz version 2.26.3 (20100126.1600)
 -->
<!-- Title: _anonymous_0 Pages: 1 -->
<svg width="1013pt" height="476pt"
 viewBox="0.00 0.00 1013.00 476.00" xmlns="http://www.w3.org/2000/svg" xmlns:xlink="http://www.w3.org/1999/xlink">
<g id="graph1" class="graph" transform="scale(1 1) rotate(0) translate(4 472)">
<title>_anonymous_0</title>
<!-- RANDOM_VARIABLES -->
<g id="node1" class="node"><title>RANDOM_VARIABLES</title>
<a xlink:href="RANDOM_VARIABLES.html" xlink:title="Random variables" target="_top">
<polyline fill="none" stroke="blue" stroke-width="2" points="603,-396 487,-396 "/>
<path fill="none" stroke="blue" stroke-width="2" d="M487,-396C481,-396 475,-390 475,-384"/>
<polyline fill="none" stroke="blue" stroke-width="2" points="475,-384 475,-372 "/>
<path fill="none" stroke="blue" stroke-width="2" d="M475,-372C475,-366 481,-360 487,-360"/>
<polyline fill="none" stroke="blue" stroke-width="2" points="487,-360 603,-360 "/>
<path fill="none" stroke="blue" stroke-width="2" d="M603,-360C609,-360 615,-366 615,-372"/>
<polyline fill="none" stroke="blue" stroke-width="2" points="615,-372 615,-384 "/>
<path fill="none" stroke="blue" stroke-width="2" d="M615,-384C615,-390 609,-396 603,-396"/>
<text text-anchor="start" x="483.5" y="-375.233" font-family="Times Roman,serif" font-size="14.00">Random variables</text>
</a>
</g>
<!-- BERNOULI_RANDOM_VARIABLE -->
<g id="node2" class="node"><title>BERNOULI_RANDOM_VARIABLE</title>
<a xlink:href="BERNOULI_RANDOM_VARIABLE.html" xlink:title="Bernoulli random variable" target="_top">
<polyline fill="none" stroke="black" points="182,-324 12,-324 "/>
<path fill="none" stroke="black" d="M12,-324C6,-324 7.10543e-14,-318 5.68434e-14,-312"/>
<polyline fill="none" stroke="black" points="5.68434e-14,-312 2.84217e-14,-300 "/>
<path fill="none" stroke="black" d="M2.84217e-14,-300C1.42109e-14,-294 6,-288 12,-288"/>
<polyline fill="none" stroke="black" points="12,-288 182,-288 "/>
<path fill="none" stroke="black" d="M182,-288C188,-288 194,-294 194,-300"/>
<polyline fill="none" stroke="black" points="194,-300 194,-312 "/>
<path fill="none" stroke="black" d="M194,-312C194,-318 188,-324 182,-324"/>
<text text-anchor="start" x="8" y="-303.233" font-family="Times Roman,serif" font-size="14.00">Bernoulli random variable</text>
</a>
</g>
<!-- RANDOM_VARIABLES&#45;&gt;BERNOULI_RANDOM_VARIABLE -->
<g id="edge2" class="edge"><title>RANDOM_VARIABLES&#45;&gt;BERNOULI_RANDOM_VARIABLE</title>
<path fill="none" stroke="black" d="M474.877,-367.171C407.947,-356.781 303.986,-340.496 204.011,-324.157"/>
<polygon fill="black" stroke="black" points="204.472,-320.686 194.038,-322.525 203.342,-327.594 204.472,-320.686"/>
</g>
<!-- JOINT_PROBABILITY_DISTRIBUTION -->
<g id="node6" class="node"><title>JOINT_PROBABILITY_DISTRIBUTION</title>
<a xlink:href="JOINT_PROBABILITY_DISTRIBUTION.html" xlink:title="Joint probability distribution" target="_top">
<polyline fill="none" stroke="black" points="410,-324 224,-324 "/>
<path fill="none" stroke="black" d="M224,-324C218,-324 212,-318 212,-312"/>
<polyline fill="none" stroke="black" points="212,-312 212,-300 "/>
<path fill="none" stroke="black" d="M212,-300C212,-294 218,-288 224,-288"/>
<polyline fill="none" stroke="black" points="224,-288 410,-288 "/>
<path fill="none" stroke="black" d="M410,-288C416,-288 422,-294 422,-300"/>
<polyline fill="none" stroke="black" points="422,-300 422,-312 "/>
<path fill="none" stroke="black" d="M422,-312C422,-318 416,-324 410,-324"/>
<text text-anchor="start" x="220.5" y="-303.233" font-family="Times Roman,serif" font-size="14.00">Joint probability distribution</text>
</a>
</g>
<!-- RANDOM_VARIABLES&#45;&gt;JOINT_PROBABILITY_DISTRIBUTION -->
<g id="edge6" class="edge"><title>RANDOM_VARIABLES&#45;&gt;JOINT_PROBABILITY_DISTRIBUTION</title>
<path fill="none" stroke="black" d="M487.76,-359.924C456.185,-349.953 416.81,-337.519 383.829,-327.104"/>
<polygon fill="black" stroke="black" points="384.853,-323.757 374.263,-324.083 382.745,-330.432 384.853,-323.757"/>
</g>
<!-- CONDITIONAL_PROBABILITY -->
<g id="node8" class="node"><title>CONDITIONAL_PROBABILITY</title>
<a xlink:href="CONDITIONAL_PROBABILITY.html" xlink:title="Conditional probability" target="_top">
<polyline fill="none" stroke="black" points="347,-252 199,-252 "/>
<path fill="none" stroke="black" d="M199,-252C193,-252 187,-246 187,-240"/>
<polyline fill="none" stroke="black" points="187,-240 187,-228 "/>
<path fill="none" stroke="black" d="M187,-228C187,-222 193,-216 199,-216"/>
<polyline fill="none" stroke="black" points="199,-216 347,-216 "/>
<path fill="none" stroke="black" d="M347,-216C353,-216 359,-222 359,-228"/>
<polyline fill="none" stroke="black" points="359,-228 359,-240 "/>
<path fill="none" stroke="black" d="M359,-240C359,-246 353,-252 347,-252"/>
<text text-anchor="start" x="195" y="-231.233" font-family="Times Roman,serif" font-size="14.00">Conditional probability</text>
</a>
</g>
<!-- RANDOM_VARIABLES&#45;&gt;CONDITIONAL_PROBABILITY -->
<g id="edge8" class="edge"><title>RANDOM_VARIABLES&#45;&gt;CONDITIONAL_PROBABILITY</title>
<path fill="none" stroke="black" d="M522.953,-359.936C492.696,-335.249 440.909,-293.398 431,-288 406.396,-274.597 377.849,-263.617 351.843,-255.141"/>
<polygon fill="black" stroke="black" points="352.604,-251.711 342.014,-252.016 350.483,-258.382 352.604,-251.711"/>
</g>
<!-- EXPECTATION -->
<g id="node11" class="node"><title>EXPECTATION</title>
<a xlink:href="EXPECTATION.html" xlink:title="Expectation " target="_top">
<polyline fill="none" stroke="black" points="486,-252 406,-252 "/>
<path fill="none" stroke="black" d="M406,-252C400,-252 394,-246 394,-240"/>
<polyline fill="none" stroke="black" points="394,-240 394,-228 "/>
<path fill="none" stroke="black" d="M394,-228C394,-222 400,-216 406,-216"/>
<polyline fill="none" stroke="black" points="406,-216 486,-216 "/>
<path fill="none" stroke="black" d="M486,-216C492,-216 498,-222 498,-228"/>
<polyline fill="none" stroke="black" points="498,-228 498,-240 "/>
<path fill="none" stroke="black" d="M498,-240C498,-246 492,-252 486,-252"/>
<text text-anchor="start" x="402.5" y="-231.233" font-family="Times Roman,serif" font-size="14.00">Expectation </text>
</a>
</g>
<!-- RANDOM_VARIABLES&#45;&gt;EXPECTATION -->
<g id="edge12" class="edge"><title>RANDOM_VARIABLES&#45;&gt;EXPECTATION</title>
<path fill="none" stroke="black" d="M532.462,-359.762C515.204,-334.66 484.02,-289.302 464.196,-260.467"/>
<polygon fill="black" stroke="black" points="466.986,-258.347 458.437,-252.09 461.218,-262.313 466.986,-258.347"/>
</g>
<!-- NORMAL_RANDOM_VARIABLE -->
<g id="node13" class="node"><title>NORMAL_RANDOM_VARIABLE</title>
<a xlink:href="NORMAL_RANDOM_VARIABLE.html" xlink:title="Normal random variable" target="_top">
<polyline fill="none" stroke="black" points="352,-180 194,-180 "/>
<path fill="none" stroke="black" d="M194,-180C188,-180 182,-174 182,-168"/>
<polyline fill="none" stroke="black" points="182,-168 182,-156 "/>
<path fill="none" stroke="black" d="M182,-156C182,-150 188,-144 194,-144"/>
<polyline fill="none" stroke="black" points="194,-144 352,-144 "/>
<path fill="none" stroke="black" d="M352,-144C358,-144 364,-150 364,-156"/>
<polyline fill="none" stroke="black" points="364,-156 364,-168 "/>
<path fill="none" stroke="black" d="M364,-168C364,-174 358,-180 352,-180"/>
<text text-anchor="start" x="190" y="-159.233" font-family="Times Roman,serif" font-size="14.00">Normal random variable</text>
</a>
</g>
<!-- RANDOM_VARIABLES&#45;&gt;NORMAL_RANDOM_VARIABLE -->
<g id="edge14" class="edge"><title>RANDOM_VARIABLES&#45;&gt;NORMAL_RANDOM_VARIABLE</title>
<path fill="none" stroke="black" d="M546.442,-359.767C548.011,-326.327 546.188,-255.047 507,-216 501.84,-210.858 432.559,-195.234 370.713,-182.106"/>
<polygon fill="black" stroke="black" points="371.37,-178.668 360.862,-180.023 369.922,-185.516 371.37,-178.668"/>
</g>
<!-- UNIFORM_RANDOM_VARIABLE -->
<g id="node16" class="node"><title>UNIFORM_RANDOM_VARIABLE</title>
<a xlink:href="UNIFORM_RANDOM_VARIABLE.html" xlink:title="Uniform Random Variable" target="_top">
<polyline fill="none" stroke="black" points="562,-180 394,-180 "/>
<path fill="none" stroke="black" d="M394,-180C388,-180 382,-174 382,-168"/>
<polyline fill="none" stroke="black" points="382,-168 382,-156 "/>
<path fill="none" stroke="black" d="M382,-156C382,-150 388,-144 394,-144"/>
<polyline fill="none" stroke="black" points="394,-144 562,-144 "/>
<path fill="none" stroke="black" d="M562,-144C568,-144 574,-150 574,-156"/>
<polyline fill="none" stroke="black" points="574,-156 574,-168 "/>
<path fill="none" stroke="black" d="M574,-168C574,-174 568,-180 562,-180"/>
<text text-anchor="start" x="390" y="-159.233" font-family="Times Roman,serif" font-size="14.00">Uniform Random Variable</text>
</a>
</g>
<!-- RANDOM_VARIABLES&#45;&gt;UNIFORM_RANDOM_VARIABLE -->
<g id="edge18" class="edge"><title>RANDOM_VARIABLES&#45;&gt;UNIFORM_RANDOM_VARIABLE</title>
<path fill="none" stroke="black" d="M548.924,-359.9C554.732,-328.763 562.654,-263.804 540,-216 534.603,-204.613 525.556,-194.657 516.017,-186.501"/>
<polygon fill="black" stroke="black" points="517.96,-183.574 507.958,-180.08 513.599,-189.049 517.96,-183.574"/>
</g>
<!-- EXPONENTIAL_RANDOM_VARIABLE -->
<g id="node18" class="node"><title>EXPONENTIAL_RANDOM_VARIABLE</title>
<a xlink:href="EXPONENTIAL_RANDOM_VARIABLE.html" xlink:title="Exponential random variable" target="_top">
<polyline fill="none" stroke="black" points="441,-108 249,-108 "/>
<path fill="none" stroke="black" d="M249,-108C243,-108 237,-102 237,-96"/>
<polyline fill="none" stroke="black" points="237,-96 237,-84 "/>
<path fill="none" stroke="black" d="M237,-84C237,-78 243,-72 249,-72"/>
<polyline fill="none" stroke="black" points="249,-72 441,-72 "/>
<path fill="none" stroke="black" d="M441,-72C447,-72 453,-78 453,-84"/>
<polyline fill="none" stroke="black" points="453,-84 453,-96 "/>
<path fill="none" stroke="black" d="M453,-96C453,-102 447,-108 441,-108"/>
<text text-anchor="start" x="245.5" y="-87.2333" font-family="Times Roman,serif" font-size="14.00">Exponential random variable</text>
</a>
</g>
<!-- RANDOM_VARIABLES&#45;&gt;EXPONENTIAL_RANDOM_VARIABLE -->
<g id="edge20" class="edge"><title>RANDOM_VARIABLES&#45;&gt;EXPONENTIAL_RANDOM_VARIABLE</title>
<path fill="none" stroke="black" d="M556.284,-359.829C581.226,-317.101 634.877,-208.966 583,-144 574.77,-133.693 518.234,-120.636 462.334,-109.944"/>
<polygon fill="black" stroke="black" points="462.759,-106.462 452.283,-108.044 461.459,-113.34 462.759,-106.462"/>
</g>
<!-- GEOMETRIC_RANDOM_VARIABLE -->
<g id="node21" class="node"><title>GEOMETRIC_RANDOM_VARIABLE</title>
<a xlink:href="GEOMETRIC_RANDOM_VARIABLE.html" xlink:title="The geometric random variable" target="_top">
<polyline fill="none" stroke="black" points="691,-108 483,-108 "/>
<path fill="none" stroke="black" d="M483,-108C477,-108 471,-102 471,-96"/>
<polyline fill="none" stroke="black" points="471,-96 471,-84 "/>
<path fill="none" stroke="black" d="M471,-84C471,-78 477,-72 483,-72"/>
<polyline fill="none" stroke="black" points="483,-72 691,-72 "/>
<path fill="none" stroke="black" d="M691,-72C697,-72 703,-78 703,-84"/>
<polyline fill="none" stroke="black" points="703,-84 703,-96 "/>
<path fill="none" stroke="black" d="M703,-96C703,-102 697,-108 691,-108"/>
<text text-anchor="start" x="479" y="-87.2333" font-family="Times Roman,serif" font-size="14.00">The geometric random variable</text>
</a>
</g>
<!-- RANDOM_VARIABLES&#45;&gt;GEOMETRIC_RANDOM_VARIABLE -->
<g id="edge24" class="edge"><title>RANDOM_VARIABLES&#45;&gt;GEOMETRIC_RANDOM_VARIABLE</title>
<path fill="none" stroke="black" d="M580.929,-359.992C594.517,-351.158 608.502,-339.123 616,-324 651.536,-252.326 635.515,-221.583 616,-144 613.661,-134.702 609.377,-125.261 604.806,-116.928"/>
<polygon fill="black" stroke="black" points="607.686,-114.919 599.612,-108.058 601.645,-118.456 607.686,-114.919"/>
</g>
<!-- VARIANCE -->
<g id="node23" class="node"><title>VARIANCE</title>
<a xlink:href="VARIANCE.html" xlink:title="Variance " target="_top">
<polyline fill="none" stroke="black" points="566,-36 510,-36 "/>
<path fill="none" stroke="black" d="M510,-36C504,-36 498,-30 498,-24"/>
<polyline fill="none" stroke="black" points="498,-24 498,-12 "/>
<path fill="none" stroke="black" d="M498,-12C498,-6 504,-1.66978e-14 510,-1.56319e-14"/>
<polyline fill="none" stroke="black" points="510,-1.56319e-14 566,-5.68434e-15 "/>
<path fill="none" stroke="black" d="M566,-5.68434e-15C572,-4.61853e-15 578,-6 578,-12"/>
<polyline fill="none" stroke="black" points="578,-12 578,-24 "/>
<path fill="none" stroke="black" d="M578,-24C578,-30 572,-36 566,-36"/>
<text text-anchor="start" x="506" y="-15.2333" font-family="Times Roman,serif" font-size="14.00">Variance </text>
</a>
</g>
<!-- RANDOM_VARIABLES&#45;&gt;VARIANCE -->
<g id="edge26" class="edge"><title>RANDOM_VARIABLES&#45;&gt;VARIANCE</title>
<path fill="none" stroke="black" d="M604.107,-359.906C658.571,-339.131 731,-299.239 731,-234 731,-234 731,-234 731,-162 731,-121.118 739.535,-102.218 712,-72 695.264,-53.6334 633.53,-37.4709 588.335,-27.7253"/>
<polygon fill="black" stroke="black" points="588.899,-24.2672 578.392,-25.626 587.453,-31.1162 588.899,-24.2672"/>
</g>
<!-- MOMENT_GENERATING_FUNCTION -->
<g id="node26" class="node"><title>MOMENT_GENERATING_FUNCTION</title>
<a xlink:href="MOMENT_GENERATING_FUNCTION.html" xlink:title="The moment generating function" target="_top">
<polyline fill="none" stroke="black" points="993,-324 771,-324 "/>
<path fill="none" stroke="black" d="M771,-324C765,-324 759,-318 759,-312"/>
<polyline fill="none" stroke="black" points="759,-312 759,-300 "/>
<path fill="none" stroke="black" d="M759,-300C759,-294 765,-288 771,-288"/>
<polyline fill="none" stroke="black" points="771,-288 993,-288 "/>
<path fill="none" stroke="black" d="M993,-288C999,-288 1005,-294 1005,-300"/>
<polyline fill="none" stroke="black" points="1005,-300 1005,-312 "/>
<path fill="none" stroke="black" d="M1005,-312C1005,-318 999,-324 993,-324"/>
<text text-anchor="start" x="767.5" y="-303.233" font-family="Times Roman,serif" font-size="14.00">The moment generating function</text>
</a>
</g>
<!-- RANDOM_VARIABLES&#45;&gt;MOMENT_GENERATING_FUNCTION -->
<g id="edge30" class="edge"><title>RANDOM_VARIABLES&#45;&gt;MOMENT_GENERATING_FUNCTION</title>
<path fill="none" stroke="black" d="M615.236,-362.994C665.175,-352.325 732.816,-337.873 787.489,-326.192"/>
<polygon fill="black" stroke="black" points="788.491,-329.557 797.539,-324.045 787.028,-322.712 788.491,-329.557"/>
</g>
<!-- BERNOULI_RANDOM_VARIABLE&#45;&gt;CONDITIONAL_PROBABILITY -->
<!-- SET_PARTITIONS -->
<g id="node4" class="node"><title>SET_PARTITIONS</title>
<a xlink:href="SET_PARTITIONS.html" xlink:title="Partition (set theory)" target="_top">
<polyline fill="none" stroke="black" points="614,-468 476,-468 "/>
<path fill="none" stroke="black" d="M476,-468C470,-468 464,-462 464,-456"/>
<polyline fill="none" stroke="black" points="464,-456 464,-444 "/>
<path fill="none" stroke="black" d="M464,-444C464,-438 470,-432 476,-432"/>
<polyline fill="none" stroke="black" points="476,-432 614,-432 "/>
<path fill="none" stroke="black" d="M614,-432C620,-432 626,-438 626,-444"/>
<polyline fill="none" stroke="black" points="626,-444 626,-456 "/>
<path fill="none" stroke="black" d="M626,-456C626,-462 620,-468 614,-468"/>
<text text-anchor="start" x="472" y="-447.233" font-family="Times Roman,serif" font-size="14.00">Partition (set theory)</text>
</a>
</g>
<!-- SET_PARTITIONS&#45;&gt;RANDOM_VARIABLES -->
<g id="edge4" class="edge"><title>SET_PARTITIONS&#45;&gt;RANDOM_VARIABLES</title>
<path fill="none" stroke="black" d="M545,-431.831C545,-424.131 545,-414.974 545,-406.417"/>
<polygon fill="black" stroke="black" points="548.5,-406.413 545,-396.413 541.5,-406.413 548.5,-406.413"/>
</g>
<!-- CONDITIONAL_PROBABILITY&#45;&gt;NORMAL_RANDOM_VARIABLE -->
<!-- NORMAL_RANDOM_VARIABLE&#45;&gt;EXPONENTIAL_RANDOM_VARIABLE -->
<!-- EXPONENTIAL_RANDOM_VARIABLE&#45;&gt;VARIANCE -->
</g>
</svg>
