<?xml version="1.0" encoding="UTF-8" standalone="no"?>
<!DOCTYPE svg PUBLIC "-//W3C//DTD SVG 1.1//EN"
 "http://www.w3.org/Graphics/SVG/1.1/DTD/svg11.dtd">
<!-- Generated by graphviz version 2.28.0 (20110509.1545)
 -->
<!-- Title: _anonymous_0 Pages: 1 -->
<svg width="725pt" height="476pt"
 viewBox="0.00 0.00 725.00 476.00" xmlns="http://www.w3.org/2000/svg" xmlns:xlink="http://www.w3.org/1999/xlink">
<g id="graph1" class="graph" transform="scale(1 1) rotate(0) translate(4 472)">
<title>_anonymous_0</title>
<!-- RANDOM_VARIABLES -->
<g id="node1" class="node"><title>RANDOM_VARIABLES</title>
<a xlink:href="RANDOM_VARIABLES.html" xlink:title="Random variables" target="_top">
<polyline fill="none" stroke="blue" stroke-width="2" points="500,-396 406,-396 "/>
<path fill="none" stroke="blue" stroke-width="2" d="M406,-396C400,-396 394,-390 394,-384"/>
<polyline fill="none" stroke="blue" stroke-width="2" points="394,-384 394,-372 "/>
<path fill="none" stroke="blue" stroke-width="2" d="M394,-372C394,-366 400,-360 406,-360"/>
<polyline fill="none" stroke="blue" stroke-width="2" points="406,-360 500,-360 "/>
<path fill="none" stroke="blue" stroke-width="2" d="M500,-360C506,-360 512,-366 512,-372"/>
<polyline fill="none" stroke="blue" stroke-width="2" points="512,-372 512,-384 "/>
<path fill="none" stroke="blue" stroke-width="2" d="M512,-384C512,-390 506,-396 500,-396"/>
<text text-anchor="start" x="402.5" y="-372.5" font-family="Times,serif" font-size="14.00">Random variables</text>
</a>
</g>
<!-- BERNOULI_RANDOM_VARIABLE -->
<g id="node2" class="node"><title>BERNOULI_RANDOM_VARIABLE</title>
<a xlink:href="BERNOULI_RANDOM_VARIABLE.html" xlink:title="Bernoulli random variable" target="_top">
<polyline fill="none" stroke="black" points="152,-324 12,-324 "/>
<path fill="none" stroke="black" d="M12,-324C6,-324 0,-318 0,-312"/>
<polyline fill="none" stroke="black" points="0,-312 0,-300 "/>
<path fill="none" stroke="black" d="M0,-300C0,-294 6,-288 12,-288"/>
<polyline fill="none" stroke="black" points="12,-288 152,-288 "/>
<path fill="none" stroke="black" d="M152,-288C158,-288 164,-294 164,-300"/>
<polyline fill="none" stroke="black" points="164,-300 164,-312 "/>
<path fill="none" stroke="black" d="M164,-312C164,-318 158,-324 152,-324"/>
<text text-anchor="start" x="8.5" y="-300.5" font-family="Times,serif" font-size="14.00">Bernoulli random variable</text>
</a>
</g>
<!-- RANDOM_VARIABLES&#45;&gt;BERNOULI_RANDOM_VARIABLE -->
<g id="edge2" class="edge"><title>RANDOM_VARIABLES&#45;&gt;BERNOULI_RANDOM_VARIABLE</title>
<path fill="none" stroke="black" d="M393.804,-365.831C334.625,-354.665 242.786,-337.337 174.082,-324.374"/>
<polygon fill="black" stroke="black" points="174.595,-320.909 164.12,-322.494 173.297,-327.788 174.595,-320.909"/>
</g>
<!-- CONDITIONAL_PROBABILITY -->
<g id="node4" class="node"><title>CONDITIONAL_PROBABILITY</title>
<a xlink:href="CONDITIONAL_PROBABILITY.html" xlink:title="Conditional probability" target="_top">
<polyline fill="none" stroke="black" points="318,-324 194,-324 "/>
<path fill="none" stroke="black" d="M194,-324C188,-324 182,-318 182,-312"/>
<polyline fill="none" stroke="black" points="182,-312 182,-300 "/>
<path fill="none" stroke="black" d="M182,-300C182,-294 188,-288 194,-288"/>
<polyline fill="none" stroke="black" points="194,-288 318,-288 "/>
<path fill="none" stroke="black" d="M318,-288C324,-288 330,-294 330,-300"/>
<polyline fill="none" stroke="black" points="330,-300 330,-312 "/>
<path fill="none" stroke="black" d="M330,-312C330,-318 324,-324 318,-324"/>
<text text-anchor="start" x="190.5" y="-300.5" font-family="Times,serif" font-size="14.00">Conditional probability</text>
</a>
</g>
<!-- RANDOM_VARIABLES&#45;&gt;CONDITIONAL_PROBABILITY -->
<g id="edge4" class="edge"><title>RANDOM_VARIABLES&#45;&gt;CONDITIONAL_PROBABILITY</title>
<path fill="none" stroke="black" d="M405.06,-359.966C377.535,-350.185 342.783,-337.836 313.759,-327.524"/>
<polygon fill="black" stroke="black" points="314.749,-324.161 304.155,-324.111 312.406,-330.757 314.749,-324.161"/>
</g>
<!-- EXPECTATION -->
<g id="node6" class="node"><title>EXPECTATION</title>
<a xlink:href="EXPECTATION.html" xlink:title="Expectation " target="_top">
<polyline fill="none" stroke="black" points="196.25,-252 133.75,-252 "/>
<path fill="none" stroke="black" d="M133.75,-252C127.75,-252 121.75,-246 121.75,-240"/>
<polyline fill="none" stroke="black" points="121.75,-240 121.75,-228 "/>
<path fill="none" stroke="black" d="M121.75,-228C121.75,-222 127.75,-216 133.75,-216"/>
<polyline fill="none" stroke="black" points="133.75,-216 196.25,-216 "/>
<path fill="none" stroke="black" d="M196.25,-216C202.25,-216 208.25,-222 208.25,-228"/>
<polyline fill="none" stroke="black" points="208.25,-228 208.25,-240 "/>
<path fill="none" stroke="black" d="M208.25,-240C208.25,-246 202.25,-252 196.25,-252"/>
<text text-anchor="start" x="130" y="-228.5" font-family="Times,serif" font-size="14.00">Expectation </text>
</a>
</g>
<!-- RANDOM_VARIABLES&#45;&gt;EXPECTATION -->
<g id="edge6" class="edge"><title>RANDOM_VARIABLES&#45;&gt;EXPECTATION</title>
<path fill="none" stroke="black" d="M422.885,-359.784C407.069,-350.139 387.755,-337.381 372,-324 355.457,-309.949 357.414,-299.491 339,-288 293.661,-259.708 273.261,-267.735 218.282,-252.226"/>
<polygon fill="black" stroke="black" points="218.964,-248.778 208.381,-249.287 216.972,-255.488 218.964,-248.778"/>
</g>
<!-- EXPONENTIAL_RANDOM_VARIABLE -->
<g id="node9" class="node"><title>EXPONENTIAL_RANDOM_VARIABLE</title>
<a xlink:href="EXPONENTIAL_RANDOM_VARIABLE.html" xlink:title="Exponential random variable" target="_top">
<polyline fill="none" stroke="black" points="393.25,-252 238.75,-252 "/>
<path fill="none" stroke="black" d="M238.75,-252C232.75,-252 226.75,-246 226.75,-240"/>
<polyline fill="none" stroke="black" points="226.75,-240 226.75,-228 "/>
<path fill="none" stroke="black" d="M226.75,-228C226.75,-222 232.75,-216 238.75,-216"/>
<polyline fill="none" stroke="black" points="238.75,-216 393.25,-216 "/>
<path fill="none" stroke="black" d="M393.25,-216C399.25,-216 405.25,-222 405.25,-228"/>
<polyline fill="none" stroke="black" points="405.25,-228 405.25,-240 "/>
<path fill="none" stroke="black" d="M405.25,-240C405.25,-246 399.25,-252 393.25,-252"/>
<text text-anchor="start" x="235" y="-228.5" font-family="Times,serif" font-size="14.00">Exponential random variable</text>
</a>
</g>
<!-- RANDOM_VARIABLES&#45;&gt;EXPONENTIAL_RANDOM_VARIABLE -->
<g id="edge10" class="edge"><title>RANDOM_VARIABLES&#45;&gt;EXPONENTIAL_RANDOM_VARIABLE</title>
<path fill="none" stroke="black" d="M438.138,-359.924C422.163,-341.747 395.844,-312.314 372,-288 362.46,-278.272 351.653,-267.901 342.095,-258.936"/>
<polygon fill="black" stroke="black" points="344.447,-256.344 334.745,-252.087 339.675,-261.465 344.447,-256.344"/>
</g>
<!-- GEOMETRIC_RANDOM_VARIABLE -->
<g id="node11" class="node"><title>GEOMETRIC_RANDOM_VARIABLE</title>
<a xlink:href="GEOMETRIC_RANDOM_VARIABLE.html" xlink:title="The geometric random variable" target="_top">
<polyline fill="none" stroke="black" points="274.25,-180 105.75,-180 "/>
<path fill="none" stroke="black" d="M105.75,-180C99.75,-180 93.75,-174 93.75,-168"/>
<polyline fill="none" stroke="black" points="93.75,-168 93.75,-156 "/>
<path fill="none" stroke="black" d="M93.75,-156C93.75,-150 99.75,-144 105.75,-144"/>
<polyline fill="none" stroke="black" points="105.75,-144 274.25,-144 "/>
<path fill="none" stroke="black" d="M274.25,-144C280.25,-144 286.25,-150 286.25,-156"/>
<polyline fill="none" stroke="black" points="286.25,-156 286.25,-168 "/>
<path fill="none" stroke="black" d="M286.25,-168C286.25,-174 280.25,-180 274.25,-180"/>
<text text-anchor="start" x="102" y="-156.5" font-family="Times,serif" font-size="14.00">The geometric random variable</text>
</a>
</g>
<!-- RANDOM_VARIABLES&#45;&gt;GEOMETRIC_RANDOM_VARIABLE -->
<g id="edge12" class="edge"><title>RANDOM_VARIABLES&#45;&gt;GEOMETRIC_RANDOM_VARIABLE</title>
<path fill="none" stroke="black" d="M454.216,-359.914C455.547,-327.146 453.455,-255.246 414,-216 404.729,-206.778 346.38,-193.131 291.563,-181.995"/>
<polygon fill="black" stroke="black" points="292.233,-178.559 281.739,-180.017 290.852,-185.422 292.233,-178.559"/>
</g>
<!-- JOINT_PROBABILITY_DISTRIBUTION -->
<g id="node14" class="node"><title>JOINT_PROBABILITY_DISTRIBUTION</title>
<a xlink:href="JOINT_PROBABILITY_DISTRIBUTION.html" xlink:title="Joint probability distribution" target="_top">
<polyline fill="none" stroke="black" points="469.25,-180 316.75,-180 "/>
<path fill="none" stroke="black" d="M316.75,-180C310.75,-180 304.75,-174 304.75,-168"/>
<polyline fill="none" stroke="black" points="304.75,-168 304.75,-156 "/>
<path fill="none" stroke="black" d="M304.75,-156C304.75,-150 310.75,-144 316.75,-144"/>
<polyline fill="none" stroke="black" points="316.75,-144 469.25,-144 "/>
<path fill="none" stroke="black" d="M469.25,-144C475.25,-144 481.25,-150 481.25,-156"/>
<polyline fill="none" stroke="black" points="481.25,-156 481.25,-168 "/>
<path fill="none" stroke="black" d="M481.25,-168C481.25,-174 475.25,-180 469.25,-180"/>
<text text-anchor="start" x="313" y="-156.5" font-family="Times,serif" font-size="14.00">Joint probability distribution</text>
</a>
</g>
<!-- RANDOM_VARIABLES&#45;&gt;JOINT_PROBABILITY_DISTRIBUTION -->
<g id="edge16" class="edge"><title>RANDOM_VARIABLES&#45;&gt;JOINT_PROBABILITY_DISTRIBUTION</title>
<path fill="none" stroke="black" d="M456.555,-359.617C461.943,-329.044 469.43,-264.314 448,-216 443.093,-204.937 434.694,-195.026 425.918,-186.852"/>
<polygon fill="black" stroke="black" points="428.029,-184.049 418.185,-180.13 423.436,-189.332 428.029,-184.049"/>
</g>
<!-- MOMENT_GENERATING_FUNCTION -->
<g id="node16" class="node"><title>MOMENT_GENERATING_FUNCTION</title>
<a xlink:href="MOMENT_GENERATING_FUNCTION.html" xlink:title="The moment generating function" target="_top">
<polyline fill="none" stroke="black" points="407,-108 231,-108 "/>
<path fill="none" stroke="black" d="M231,-108C225,-108 219,-102 219,-96"/>
<polyline fill="none" stroke="black" points="219,-96 219,-84 "/>
<path fill="none" stroke="black" d="M219,-84C219,-78 225,-72 231,-72"/>
<polyline fill="none" stroke="black" points="231,-72 407,-72 "/>
<path fill="none" stroke="black" d="M407,-72C413,-72 419,-78 419,-84"/>
<polyline fill="none" stroke="black" points="419,-84 419,-96 "/>
<path fill="none" stroke="black" d="M419,-96C419,-102 413,-108 407,-108"/>
<text text-anchor="start" x="227.5" y="-84.5" font-family="Times,serif" font-size="14.00">The moment generating function</text>
</a>
</g>
<!-- RANDOM_VARIABLES&#45;&gt;MOMENT_GENERATING_FUNCTION -->
<g id="edge18" class="edge"><title>RANDOM_VARIABLES&#45;&gt;MOMENT_GENERATING_FUNCTION</title>
<path fill="none" stroke="black" d="M463.444,-359.781C487.159,-318.224 539.328,-210.932 490,-144 480.224,-130.735 449.21,-119.366 416.229,-110.599"/>
<polygon fill="black" stroke="black" points="416.98,-107.178 406.423,-108.079 415.237,-113.957 416.98,-107.178"/>
</g>
<!-- NORMAL_RANDOM_VARIABLE -->
<g id="node19" class="node"><title>NORMAL_RANDOM_VARIABLE</title>
<a xlink:href="NORMAL_RANDOM_VARIABLE.html" xlink:title="Normal random variable" target="_top">
<polyline fill="none" stroke="black" points="579,-108 449,-108 "/>
<path fill="none" stroke="black" d="M449,-108C443,-108 437,-102 437,-96"/>
<polyline fill="none" stroke="black" points="437,-96 437,-84 "/>
<path fill="none" stroke="black" d="M437,-84C437,-78 443,-72 449,-72"/>
<polyline fill="none" stroke="black" points="449,-72 579,-72 "/>
<path fill="none" stroke="black" d="M579,-72C585,-72 591,-78 591,-84"/>
<polyline fill="none" stroke="black" points="591,-84 591,-96 "/>
<path fill="none" stroke="black" d="M591,-96C591,-102 585,-108 579,-108"/>
<text text-anchor="start" x="445.5" y="-84.5" font-family="Times,serif" font-size="14.00">Normal random variable</text>
</a>
</g>
<!-- RANDOM_VARIABLES&#45;&gt;NORMAL_RANDOM_VARIABLE -->
<g id="edge22" class="edge"><title>RANDOM_VARIABLES&#45;&gt;NORMAL_RANDOM_VARIABLE</title>
<path fill="none" stroke="black" d="M488.165,-359.941C501.982,-351.254 516.347,-339.263 524,-324 557.925,-256.34 536.972,-163.251 523.198,-117.95"/>
<polygon fill="black" stroke="black" points="526.489,-116.749 520.139,-108.268 519.814,-118.858 526.489,-116.749"/>
</g>
<!-- UNIFORM_RANDOM_VARIABLE -->
<g id="node23" class="node"><title>UNIFORM_RANDOM_VARIABLE</title>
<a xlink:href="UNIFORM_RANDOM_VARIABLE.html" xlink:title="Uniform Random Variable" target="_top">
<polyline fill="none" stroke="black" points="540,-36 398,-36 "/>
<path fill="none" stroke="black" d="M398,-36C392,-36 386,-30 386,-24"/>
<polyline fill="none" stroke="black" points="386,-24 386,-12 "/>
<path fill="none" stroke="black" d="M386,-12C386,-6 392,-0 398,-0"/>
<polyline fill="none" stroke="black" points="398,-0 540,-0 "/>
<path fill="none" stroke="black" d="M540,-0C546,-0 552,-6 552,-12"/>
<polyline fill="none" stroke="black" points="552,-12 552,-24 "/>
<path fill="none" stroke="black" d="M552,-24C552,-30 546,-36 540,-36"/>
<text text-anchor="start" x="394.5" y="-12.5" font-family="Times,serif" font-size="14.00">Uniform Random Variable</text>
</a>
</g>
<!-- RANDOM_VARIABLES&#45;&gt;UNIFORM_RANDOM_VARIABLE -->
<g id="edge26" class="edge"><title>RANDOM_VARIABLES&#45;&gt;UNIFORM_RANDOM_VARIABLE</title>
<path fill="none" stroke="black" d="M500.569,-359.841C549.622,-338.725 619,-297.766 619,-235 619,-235 619,-235 619,-161 619,-120.553 626.005,-102.979 600,-72 588.221,-57.9685 572.168,-47.6134 555.337,-39.9836"/>
<polygon fill="black" stroke="black" points="556.502,-36.6768 545.928,-36.0192 553.784,-43.1276 556.502,-36.6768"/>
</g>
<!-- VARIANCE -->
<g id="node26" class="node"><title>VARIANCE</title>
<a xlink:href="VARIANCE.html" xlink:title="Variance " target="_top">
<polyline fill="none" stroke="black" points="704.25,-324 659.75,-324 "/>
<path fill="none" stroke="black" d="M659.75,-324C653.75,-324 647.75,-318 647.75,-312"/>
<polyline fill="none" stroke="black" points="647.75,-312 647.75,-300 "/>
<path fill="none" stroke="black" d="M647.75,-300C647.75,-294 653.75,-288 659.75,-288"/>
<polyline fill="none" stroke="black" points="659.75,-288 704.25,-288 "/>
<path fill="none" stroke="black" d="M704.25,-288C710.25,-288 716.25,-294 716.25,-300"/>
<polyline fill="none" stroke="black" points="716.25,-300 716.25,-312 "/>
<path fill="none" stroke="black" d="M716.25,-312C716.25,-318 710.25,-324 704.25,-324"/>
<text text-anchor="start" x="656" y="-300.5" font-family="Times,serif" font-size="14.00">Variance </text>
</a>
</g>
<!-- RANDOM_VARIABLES&#45;&gt;VARIANCE -->
<g id="edge30" class="edge"><title>RANDOM_VARIABLES&#45;&gt;VARIANCE</title>
<path fill="none" stroke="black" d="M512.398,-360.28C547.588,-350.183 592.981,-336.826 633,-324 634.621,-323.48 636.27,-322.945 637.934,-322.399"/>
<polygon fill="black" stroke="black" points="639.162,-325.679 647.535,-319.188 636.942,-319.04 639.162,-325.679"/>
</g>
<!-- BERNOULI_RANDOM_VARIABLE&#45;&gt;EXPECTATION -->
<!-- EXPECTATION&#45;&gt;GEOMETRIC_RANDOM_VARIABLE -->
<!-- GEOMETRIC_RANDOM_VARIABLE&#45;&gt;MOMENT_GENERATING_FUNCTION -->
<!-- MOMENT_GENERATING_FUNCTION&#45;&gt;UNIFORM_RANDOM_VARIABLE -->
<!-- SET_PARTITIONS -->
<g id="node21" class="node"><title>SET_PARTITIONS</title>
<a xlink:href="SET_PARTITIONS.html" xlink:title="Partition (set theory)" target="_top">
<polyline fill="none" stroke="black" points="507,-468 399,-468 "/>
<path fill="none" stroke="black" d="M399,-468C393,-468 387,-462 387,-456"/>
<polyline fill="none" stroke="black" points="387,-456 387,-444 "/>
<path fill="none" stroke="black" d="M387,-444C387,-438 393,-432 399,-432"/>
<polyline fill="none" stroke="black" points="399,-432 507,-432 "/>
<path fill="none" stroke="black" d="M507,-432C513,-432 519,-438 519,-444"/>
<polyline fill="none" stroke="black" points="519,-444 519,-456 "/>
<path fill="none" stroke="black" d="M519,-456C519,-462 513,-468 507,-468"/>
<text text-anchor="start" x="395.5" y="-444.5" font-family="Times,serif" font-size="14.00">Partition (set theory)</text>
</a>
</g>
<!-- SET_PARTITIONS&#45;&gt;RANDOM_VARIABLES -->
<g id="edge24" class="edge"><title>SET_PARTITIONS&#45;&gt;RANDOM_VARIABLES</title>
<path fill="none" stroke="black" d="M453,-431.697C453,-423.983 453,-414.712 453,-406.112"/>
<polygon fill="black" stroke="black" points="456.5,-406.104 453,-396.104 449.5,-406.104 456.5,-406.104"/>
</g>
</g>
</svg>
