<?xml version="1.0" encoding="UTF-8" standalone="no"?>
<!DOCTYPE svg PUBLIC "-//W3C//DTD SVG 1.1//EN"
 "http://www.w3.org/Graphics/SVG/1.1/DTD/svg11.dtd">
<!-- Generated by graphviz version 2.36.0 (20140111.2315)
 -->
<!-- Title: %3 Pages: 1 -->
<svg width="947pt" height="548pt"
 viewBox="0.00 0.00 947.00 548.00" xmlns="http://www.w3.org/2000/svg" xmlns:xlink="http://www.w3.org/1999/xlink">
<g id="graph0" class="graph" transform="scale(1 1) rotate(0) translate(4 544)">
<title>%3</title>
<!-- RANDOM_VARIABLES -->
<g id="node1" class="node"><title>RANDOM_VARIABLES</title>
<g id="a_node1"><a xlink:href="RANDOM_VARIABLES.html" xlink:title=" Random variables " target="_top">
<path fill="none" stroke="blue" stroke-width="2" d="M538.25,-468C538.25,-468 439.75,-468 439.75,-468 433.75,-468 427.75,-462 427.75,-456 427.75,-456 427.75,-444 427.75,-444 427.75,-438 433.75,-432 439.75,-432 439.75,-432 538.25,-432 538.25,-432 544.25,-432 550.25,-438 550.25,-444 550.25,-444 550.25,-456 550.25,-456 550.25,-462 544.25,-468 538.25,-468"/>
<text text-anchor="start" x="435.5" y="-446.3" font-family="Times,serif" font-size="14.00"> Random variables </text>
</a>
</g>
</g>
<!-- JOINT_PROBABILITY_DISTRIBUTION -->
<g id="node2" class="node"><title>JOINT_PROBABILITY_DISTRIBUTION</title>
<g id="a_node2"><a xlink:href="JOINT_PROBABILITY_DISTRIBUTION.html" xlink:title=" Joint probability distribution " target="_top">
<path fill="none" stroke="black" d="M166.25,-396C166.25,-396 11.75,-396 11.75,-396 5.75,-396 -0.25,-390 -0.25,-384 -0.25,-384 -0.25,-372 -0.25,-372 -0.25,-366 5.75,-360 11.75,-360 11.75,-360 166.25,-360 166.25,-360 172.25,-360 178.25,-366 178.25,-372 178.25,-372 178.25,-384 178.25,-384 178.25,-390 172.25,-396 166.25,-396"/>
<text text-anchor="start" x="7.5" y="-374.3" font-family="Times,serif" font-size="14.00"> Joint probability distribution </text>
</a>
</g>
</g>
<!-- RANDOM_VARIABLES&#45;&gt;JOINT_PROBABILITY_DISTRIBUTION -->
<g id="edge1" class="edge"><title>RANDOM_VARIABLES&#45;&gt;JOINT_PROBABILITY_DISTRIBUTION</title>
<path fill="none" stroke="black" d="M427.377,-438.216C363.723,-427.077 263.391,-409.518 188.481,-396.409"/>
<polygon fill="black" stroke="black" points="189.005,-392.948 178.551,-394.671 187.798,-399.843 189.005,-392.948"/>
</g>
<!-- INFORMATION_THEORY -->
<g id="node3" class="node"><title>INFORMATION_THEORY</title>
<g id="a_node3"><a xlink:href="INFORMATION_THEORY.html" xlink:title=" Information theory &#160;" target="_top">
<path fill="none" stroke="black" d="M315.25,-396C315.25,-396 208.75,-396 208.75,-396 202.75,-396 196.75,-390 196.75,-384 196.75,-384 196.75,-372 196.75,-372 196.75,-366 202.75,-360 208.75,-360 208.75,-360 315.25,-360 315.25,-360 321.25,-360 327.25,-366 327.25,-372 327.25,-372 327.25,-384 327.25,-384 327.25,-390 321.25,-396 315.25,-396"/>
<text text-anchor="start" x="204.5" y="-374.3" font-family="Times,serif" font-size="14.00"> Information theory &#160;</text>
</a>
</g>
</g>
<!-- RANDOM_VARIABLES&#45;&gt;INFORMATION_THEORY -->
<g id="edge2" class="edge"><title>RANDOM_VARIABLES&#45;&gt;INFORMATION_THEORY</title>
<path fill="none" stroke="black" d="M433.76,-431.966C401.629,-422.057 360.952,-409.514 327.25,-399.121"/>
<polygon fill="black" stroke="black" points="328.075,-395.713 317.488,-396.111 326.012,-402.402 328.075,-395.713"/>
</g>
<!-- EXPECTATION -->
<g id="node4" class="node"><title>EXPECTATION</title>
<g id="a_node4"><a xlink:href="EXPECTATION.html" xlink:title=" Expectation &#160;" target="_top">
<path fill="none" stroke="black" d="M202,-324C202,-324 134,-324 134,-324 128,-324 122,-318 122,-312 122,-312 122,-300 122,-300 122,-294 128,-288 134,-288 134,-288 202,-288 202,-288 208,-288 214,-294 214,-300 214,-300 214,-312 214,-312 214,-318 208,-324 202,-324"/>
<text text-anchor="start" x="130" y="-302.3" font-family="Times,serif" font-size="14.00"> Expectation &#160;</text>
</a>
</g>
</g>
<!-- RANDOM_VARIABLES&#45;&gt;EXPECTATION -->
<g id="edge3" class="edge"><title>RANDOM_VARIABLES&#45;&gt;EXPECTATION</title>
<path fill="none" stroke="black" d="M442.168,-431.916C420.223,-422.853 394.287,-410.568 373,-396 354.065,-383.042 355.695,-371.77 336,-360 333.444,-358.473 271.799,-339.181 223.919,-324.309"/>
<polygon fill="black" stroke="black" points="224.831,-320.928 214.243,-321.306 222.756,-327.613 224.831,-320.928"/>
</g>
<!-- UNIFORM_RANDOM_VARIABLE -->
<g id="node5" class="node"><title>UNIFORM_RANDOM_VARIABLE</title>
<g id="a_node5"><a xlink:href="UNIFORM_RANDOM_VARIABLE.html" xlink:title=" Uniform Random Variable " target="_top">
<path fill="none" stroke="black" d="M392,-324C392,-324 244,-324 244,-324 238,-324 232,-318 232,-312 232,-312 232,-300 232,-300 232,-294 238,-288 244,-288 244,-288 392,-288 392,-288 398,-288 404,-294 404,-300 404,-300 404,-312 404,-312 404,-318 398,-324 392,-324"/>
<text text-anchor="start" x="240" y="-302.3" font-family="Times,serif" font-size="14.00"> Uniform Random Variable </text>
</a>
</g>
</g>
<!-- RANDOM_VARIABLES&#45;&gt;UNIFORM_RANDOM_VARIABLE -->
<g id="edge5" class="edge"><title>RANDOM_VARIABLES&#45;&gt;UNIFORM_RANDOM_VARIABLE</title>
<path fill="none" stroke="black" d="M464.943,-431.834C451.007,-421.695 433.257,-408.445 418,-396 392.085,-374.86 363.708,-349.366 343.824,-331.091"/>
<polygon fill="black" stroke="black" points="346.104,-328.432 336.381,-324.222 341.356,-333.576 346.104,-328.432"/>
</g>
<!-- VARIANCE -->
<g id="node6" class="node"><title>VARIANCE</title>
<g id="a_node6"><a xlink:href="VARIANCE.html" xlink:title=" Variance &#160;" target="_top">
<path fill="none" stroke="black" d="M252.25,-252C252.25,-252 199.75,-252 199.75,-252 193.75,-252 187.75,-246 187.75,-240 187.75,-240 187.75,-228 187.75,-228 187.75,-222 193.75,-216 199.75,-216 199.75,-216 252.25,-216 252.25,-216 258.25,-216 264.25,-222 264.25,-228 264.25,-228 264.25,-240 264.25,-240 264.25,-246 258.25,-252 252.25,-252"/>
<text text-anchor="start" x="195.5" y="-230.3" font-family="Times,serif" font-size="14.00"> Variance &#160;</text>
</a>
</g>
</g>
<!-- RANDOM_VARIABLES&#45;&gt;VARIANCE -->
<g id="edge6" class="edge"><title>RANDOM_VARIABLES&#45;&gt;VARIANCE</title>
<path fill="none" stroke="black" d="M483.001,-431.805C469.645,-394.446 436.765,-307.643 413,-288 365.898,-249.067 337.278,-268.77 274.344,-252.087"/>
<polygon fill="black" stroke="black" points="274.951,-248.62 264.373,-249.217 273.015,-255.347 274.951,-248.62"/>
</g>
<!-- GEOMETRIC_RANDOM_VARIABLE -->
<g id="node7" class="node"><title>GEOMETRIC_RANDOM_VARIABLE</title>
<g id="a_node7"><a xlink:href="GEOMETRIC_RANDOM_VARIABLE.html" xlink:title=" The geometric random variable " target="_top">
<path fill="none" stroke="black" d="M467.25,-252C467.25,-252 294.75,-252 294.75,-252 288.75,-252 282.75,-246 282.75,-240 282.75,-240 282.75,-228 282.75,-228 282.75,-222 288.75,-216 294.75,-216 294.75,-216 467.25,-216 467.25,-216 473.25,-216 479.25,-222 479.25,-228 479.25,-228 479.25,-240 479.25,-240 479.25,-246 473.25,-252 467.25,-252"/>
<text text-anchor="start" x="290.5" y="-230.3" font-family="Times,serif" font-size="14.00"> The geometric random variable </text>
</a>
</g>
</g>
<!-- RANDOM_VARIABLES&#45;&gt;GEOMETRIC_RANDOM_VARIABLE -->
<g id="edge8" class="edge"><title>RANDOM_VARIABLES&#45;&gt;GEOMETRIC_RANDOM_VARIABLE</title>
<path fill="none" stroke="black" d="M487.85,-431.619C485.073,-400.489 475.842,-334.164 446,-288 438.567,-276.502 427.825,-266.3 417.208,-257.993"/>
<polygon fill="black" stroke="black" points="419.284,-255.175 409.169,-252.02 415.109,-260.794 419.284,-255.175"/>
</g>
<!-- CONDITIONAL_PROBABILITY -->
<g id="node8" class="node"><title>CONDITIONAL_PROBABILITY</title>
<g id="a_node8"><a xlink:href="CONDITIONAL_PROBABILITY.html" xlink:title=" Conditional probability " target="_top">
<path fill="none" stroke="black" d="M357.25,-180C357.25,-180 230.75,-180 230.75,-180 224.75,-180 218.75,-174 218.75,-168 218.75,-168 218.75,-156 218.75,-156 218.75,-150 224.75,-144 230.75,-144 230.75,-144 357.25,-144 357.25,-144 363.25,-144 369.25,-150 369.25,-156 369.25,-156 369.25,-168 369.25,-168 369.25,-174 363.25,-180 357.25,-180"/>
<text text-anchor="start" x="226.5" y="-158.3" font-family="Times,serif" font-size="14.00"> Conditional probability </text>
</a>
</g>
</g>
<!-- RANDOM_VARIABLES&#45;&gt;CONDITIONAL_PROBABILITY -->
<g id="edge9" class="edge"><title>RANDOM_VARIABLES&#45;&gt;CONDITIONAL_PROBABILITY</title>
<path fill="none" stroke="black" d="M495.364,-431.744C509.675,-389.637 539.304,-280.376 488,-216 480.722,-206.868 428.069,-192.806 379.454,-181.461"/>
<polygon fill="black" stroke="black" points="380.011,-177.998 369.48,-179.157 378.436,-184.818 380.011,-177.998"/>
</g>
<!-- BERNOULI_RANDOM_VARIABLE -->
<g id="node9" class="node"><title>BERNOULI_RANDOM_VARIABLE</title>
<g id="a_node9"><a xlink:href="BERNOULI_RANDOM_VARIABLE.html" xlink:title=" Bernoulli random variable " target="_top">
<path fill="none" stroke="black" d="M543.5,-180C543.5,-180 400.5,-180 400.5,-180 394.5,-180 388.5,-174 388.5,-168 388.5,-168 388.5,-156 388.5,-156 388.5,-150 394.5,-144 400.5,-144 400.5,-144 543.5,-144 543.5,-144 549.5,-144 555.5,-150 555.5,-156 555.5,-156 555.5,-168 555.5,-168 555.5,-174 549.5,-180 543.5,-180"/>
<text text-anchor="start" x="396" y="-158.3" font-family="Times,serif" font-size="14.00"> Bernoulli random variable </text>
</a>
</g>
</g>
<!-- RANDOM_VARIABLES&#45;&gt;BERNOULI_RANDOM_VARIABLE -->
<g id="edge11" class="edge"><title>RANDOM_VARIABLES&#45;&gt;BERNOULI_RANDOM_VARIABLE</title>
<path fill="none" stroke="black" d="M503.327,-431.566C510.448,-421.762 518.306,-408.923 522,-396 543.989,-319.081 551.535,-290.348 522,-216 517.709,-205.199 510.058,-195.324 502.012,-187.102"/>
<polygon fill="black" stroke="black" points="504.25,-184.401 494.596,-180.037 499.422,-189.469 504.25,-184.401"/>
</g>
<!-- NORMAL_RANDOM_VARIABLE -->
<g id="node10" class="node"><title>NORMAL_RANDOM_VARIABLE</title>
<g id="a_node10"><a xlink:href="NORMAL_RANDOM_VARIABLE.html" xlink:title=" Normal random variable " target="_top">
<path fill="none" stroke="black" d="M439.25,-108C439.25,-108 304.75,-108 304.75,-108 298.75,-108 292.75,-102 292.75,-96 292.75,-96 292.75,-84 292.75,-84 292.75,-78 298.75,-72 304.75,-72 304.75,-72 439.25,-72 439.25,-72 445.25,-72 451.25,-78 451.25,-84 451.25,-84 451.25,-96 451.25,-96 451.25,-102 445.25,-108 439.25,-108"/>
<text text-anchor="start" x="300.5" y="-86.3" font-family="Times,serif" font-size="14.00"> Normal random variable </text>
</a>
</g>
</g>
<!-- RANDOM_VARIABLES&#45;&gt;NORMAL_RANDOM_VARIABLE -->
<g id="edge12" class="edge"><title>RANDOM_VARIABLES&#45;&gt;NORMAL_RANDOM_VARIABLE</title>
<path fill="none" stroke="black" d="M510.557,-431.777C538.586,-407.284 584,-359.5 584,-307 584,-307 584,-307 584,-233 584,-192.458 591.967,-173.351 564,-144 556.105,-135.715 505.034,-121.826 457.552,-110.344"/>
<polygon fill="black" stroke="black" points="458.345,-106.935 447.805,-108.008 456.713,-113.743 458.345,-106.935"/>
</g>
<!-- GENERALIZED_PARTITION_FUNCTION -->
<g id="node11" class="node"><title>GENERALIZED_PARTITION_FUNCTION</title>
<g id="a_node11"><a xlink:href="GENERALIZED_PARTITION_FUNCTION.html" xlink:title=" The generalized partition function " target="_top">
<path fill="none" stroke="black" d="M666.25,-108C666.25,-108 481.75,-108 481.75,-108 475.75,-108 469.75,-102 469.75,-96 469.75,-96 469.75,-84 469.75,-84 469.75,-78 475.75,-72 481.75,-72 481.75,-72 666.25,-72 666.25,-72 672.25,-72 678.25,-78 678.25,-84 678.25,-84 678.25,-96 678.25,-96 678.25,-102 672.25,-108 666.25,-108"/>
<text text-anchor="start" x="477.5" y="-86.3" font-family="Times,serif" font-size="14.00"> The generalized partition function </text>
</a>
</g>
</g>
<!-- RANDOM_VARIABLES&#45;&gt;GENERALIZED_PARTITION_FUNCTION -->
<g id="edge14" class="edge"><title>RANDOM_VARIABLES&#45;&gt;GENERALIZED_PARTITION_FUNCTION</title>
<path fill="none" stroke="black" d="M546.445,-431.888C565.223,-423.736 584.66,-412.137 598,-396 624.104,-364.424 622,-347.969 622,-307 622,-307 622,-307 622,-233 622,-190.866 602.8,-145.227 588.686,-117.371"/>
<polygon fill="black" stroke="black" points="591.677,-115.538 583.946,-108.294 585.472,-118.778 591.677,-115.538"/>
</g>
<!-- EXPONENTIAL_RANDOM_VARIABLE -->
<g id="node13" class="node"><title>EXPONENTIAL_RANDOM_VARIABLE</title>
<g id="a_node13"><a xlink:href="EXPONENTIAL_RANDOM_VARIABLE.html" xlink:title=" Exponential random variable " target="_top">
<path fill="none" stroke="black" d="M618,-36C618,-36 460,-36 460,-36 454,-36 448,-30 448,-24 448,-24 448,-12 448,-12 448,-6 454,-0 460,-0 460,-0 618,-0 618,-0 624,-0 630,-6 630,-12 630,-12 630,-24 630,-24 630,-30 624,-36 618,-36"/>
<text text-anchor="start" x="456" y="-14.3" font-family="Times,serif" font-size="14.00"> Exponential random variable </text>
</a>
</g>
</g>
<!-- RANDOM_VARIABLES&#45;&gt;EXPONENTIAL_RANDOM_VARIABLE -->
<g id="edge16" class="edge"><title>RANDOM_VARIABLES&#45;&gt;EXPONENTIAL_RANDOM_VARIABLE</title>
<path fill="none" stroke="black" d="M550.305,-436.643C614.784,-419.652 707,-382.205 707,-307 707,-307 707,-307 707,-161 707,-120.458 713.854,-102.373 687,-72 674.3,-57.6354 657.424,-47.1634 639.621,-39.5294"/>
<polygon fill="black" stroke="black" points="640.829,-36.2432 630.244,-35.7904 638.236,-42.7453 640.829,-36.2432"/>
</g>
<!-- MOMENT_GENERATING_FUNCTION -->
<g id="node14" class="node"><title>MOMENT_GENERATING_FUNCTION</title>
<g id="a_node14"><a xlink:href="MOMENT_GENERATING_FUNCTION.html" xlink:title=" The moment generating function " target="_top">
<path fill="none" stroke="black" d="M926.5,-396C926.5,-396 747.5,-396 747.5,-396 741.5,-396 735.5,-390 735.5,-384 735.5,-384 735.5,-372 735.5,-372 735.5,-366 741.5,-360 747.5,-360 747.5,-360 926.5,-360 926.5,-360 932.5,-360 938.5,-366 938.5,-372 938.5,-372 938.5,-384 938.5,-384 938.5,-390 932.5,-396 926.5,-396"/>
<text text-anchor="start" x="743" y="-374.3" font-family="Times,serif" font-size="14.00"> The moment generating function </text>
</a>
</g>
</g>
<!-- RANDOM_VARIABLES&#45;&gt;MOMENT_GENERATING_FUNCTION -->
<g id="edge18" class="edge"><title>RANDOM_VARIABLES&#45;&gt;MOMENT_GENERATING_FUNCTION</title>
<path fill="none" stroke="black" d="M550.414,-436.647C603.554,-425.957 681.247,-410.33 742.337,-398.041"/>
<polygon fill="black" stroke="black" points="743.265,-401.425 752.378,-396.022 741.884,-394.562 743.265,-401.425"/>
</g>
<!-- JOINT_PROBABILITY_DISTRIBUTION&#45;&gt;EXPECTATION -->
<!-- EXPECTATION&#45;&gt;VARIANCE -->
<!-- VARIANCE&#45;&gt;CONDITIONAL_PROBABILITY -->
<!-- CONDITIONAL_PROBABILITY&#45;&gt;NORMAL_RANDOM_VARIABLE -->
<!-- NORMAL_RANDOM_VARIABLE&#45;&gt;EXPONENTIAL_RANDOM_VARIABLE -->
<!-- SET_PARTITIONS -->
<g id="node12" class="node"><title>SET_PARTITIONS</title>
<g id="a_node12"><a xlink:href="SET_PARTITIONS.html" xlink:title=" Partition (set theory) " target="_top">
<path fill="none" stroke="black" d="M545.25,-540C545.25,-540 432.75,-540 432.75,-540 426.75,-540 420.75,-534 420.75,-528 420.75,-528 420.75,-516 420.75,-516 420.75,-510 426.75,-504 432.75,-504 432.75,-504 545.25,-504 545.25,-504 551.25,-504 557.25,-510 557.25,-516 557.25,-516 557.25,-528 557.25,-528 557.25,-534 551.25,-540 545.25,-540"/>
<text text-anchor="start" x="428.5" y="-518.3" font-family="Times,serif" font-size="14.00"> Partition (set theory) </text>
</a>
</g>
</g>
<!-- SET_PARTITIONS&#45;&gt;RANDOM_VARIABLES -->
<g id="edge15" class="edge"><title>SET_PARTITIONS&#45;&gt;RANDOM_VARIABLES</title>
<path fill="none" stroke="black" d="M489,-503.697C489,-495.983 489,-486.712 489,-478.112"/>
<polygon fill="black" stroke="black" points="492.5,-478.104 489,-468.104 485.5,-478.104 492.5,-478.104"/>
</g>
</g>
</svg>
