<?xml version="1.0" encoding="UTF-8" standalone="no"?>
<!DOCTYPE svg PUBLIC "-//W3C//DTD SVG 1.1//EN"
 "http://www.w3.org/Graphics/SVG/1.1/DTD/svg11.dtd">
<!-- Generated by graphviz version 2.26.3 (20100126.1600)
 -->
<!-- Title: _anonymous_0 Pages: 1 -->
<svg width="1057pt" height="548pt"
 viewBox="0.00 0.00 1057.00 548.00" xmlns="http://www.w3.org/2000/svg" xmlns:xlink="http://www.w3.org/1999/xlink">
<g id="graph1" class="graph" transform="scale(1 1) rotate(0) translate(4 544)">
<title>_anonymous_0</title>
<!-- RANDOM_VARIABLES -->
<g id="node1" class="node"><title>RANDOM_VARIABLES</title>
<a xlink:href="RANDOM_VARIABLES.html" xlink:title=" Random variables " target="_top">
<polyline fill="none" stroke="blue" stroke-width="2" points="669,-468 545,-468 "/>
<path fill="none" stroke="blue" stroke-width="2" d="M545,-468C539,-468 533,-462 533,-456"/>
<polyline fill="none" stroke="blue" stroke-width="2" points="533,-456 533,-444 "/>
<path fill="none" stroke="blue" stroke-width="2" d="M533,-444C533,-438 539,-432 545,-432"/>
<polyline fill="none" stroke="blue" stroke-width="2" points="545,-432 669,-432 "/>
<path fill="none" stroke="blue" stroke-width="2" d="M669,-432C675,-432 681,-438 681,-444"/>
<polyline fill="none" stroke="blue" stroke-width="2" points="681,-444 681,-456 "/>
<path fill="none" stroke="blue" stroke-width="2" d="M681,-456C681,-462 675,-468 669,-468"/>
<text text-anchor="start" x="541" y="-447.233" font-family="Times Roman,serif" font-size="14.00"> Random variables </text>
</a>
</g>
<!-- BERNOULI_RANDOM_VARIABLE -->
<g id="node4" class="node"><title>BERNOULI_RANDOM_VARIABLE</title>
<a xlink:href="BERNOULI_RANDOM_VARIABLE.html" xlink:title=" Bernoulli random variable " target="_top">
<polyline fill="none" stroke="black" points="240,-396 60,-396 "/>
<path fill="none" stroke="black" d="M60,-396C54,-396 48,-390 48,-384"/>
<polyline fill="none" stroke="black" points="48,-384 48,-372 "/>
<path fill="none" stroke="black" d="M48,-372C48,-366 54,-360 60,-360"/>
<polyline fill="none" stroke="black" points="60,-360 240,-360 "/>
<path fill="none" stroke="black" d="M240,-360C246,-360 252,-366 252,-372"/>
<polyline fill="none" stroke="black" points="252,-372 252,-384 "/>
<path fill="none" stroke="black" d="M252,-384C252,-390 246,-396 240,-396"/>
<text text-anchor="start" x="56.5" y="-375.233" font-family="Times Roman,serif" font-size="14.00"> Bernoulli random variable </text>
</a>
</g>
<!-- RANDOM_VARIABLES&#45;&gt;BERNOULI_RANDOM_VARIABLE -->
<g id="edge4" class="edge"><title>RANDOM_VARIABLES&#45;&gt;BERNOULI_RANDOM_VARIABLE</title>
<path fill="none" stroke="black" d="M532.813,-438.312C459.579,-426.774 346.648,-408.982 262.397,-395.708"/>
<polygon fill="black" stroke="black" points="262.692,-392.211 252.269,-394.112 261.602,-399.126 262.692,-392.211"/>
</g>
<!-- VARIANCE -->
<g id="node6" class="node"><title>VARIANCE</title>
<a xlink:href="VARIANCE.html" xlink:title=" Variance &#160;" target="_top">
<polyline fill="none" stroke="black" points="405,-396 339,-396 "/>
<path fill="none" stroke="black" d="M339,-396C333,-396 327,-390 327,-384"/>
<polyline fill="none" stroke="black" points="327,-384 327,-372 "/>
<path fill="none" stroke="black" d="M327,-372C327,-366 333,-360 339,-360"/>
<polyline fill="none" stroke="black" points="339,-360 405,-360 "/>
<path fill="none" stroke="black" d="M405,-360C411,-360 417,-366 417,-372"/>
<polyline fill="none" stroke="black" points="417,-372 417,-384 "/>
<path fill="none" stroke="black" d="M417,-384C417,-390 411,-396 405,-396"/>
<text text-anchor="start" x="335.5" y="-375.233" font-family="Times Roman,serif" font-size="14.00"> Variance &#160;</text>
</a>
</g>
<!-- RANDOM_VARIABLES&#45;&gt;VARIANCE -->
<g id="edge6" class="edge"><title>RANDOM_VARIABLES&#45;&gt;VARIANCE</title>
<path fill="none" stroke="black" d="M548.003,-431.924C510.969,-420.578 463.524,-406.042 427.229,-394.921"/>
<polygon fill="black" stroke="black" points="427.892,-391.464 417.305,-391.881 425.841,-398.157 427.892,-391.464"/>
</g>
<!-- GEOMETRIC_RANDOM_VARIABLE -->
<g id="node8" class="node"><title>GEOMETRIC_RANDOM_VARIABLE</title>
<a xlink:href="GEOMETRIC_RANDOM_VARIABLE.html" xlink:title=" The geometric random variable " target="_top">
<polyline fill="none" stroke="black" points="230,-324 12,-324 "/>
<path fill="none" stroke="black" d="M12,-324C6,-324 8.28967e-14,-318 6.63173e-14,-312"/>
<polyline fill="none" stroke="black" points="6.63173e-14,-312 3.31587e-14,-300 "/>
<path fill="none" stroke="black" d="M3.31587e-14,-300C1.65793e-14,-294 6,-288 12,-288"/>
<polyline fill="none" stroke="black" points="12,-288 230,-288 "/>
<path fill="none" stroke="black" d="M230,-288C236,-288 242,-294 242,-300"/>
<polyline fill="none" stroke="black" points="242,-300 242,-312 "/>
<path fill="none" stroke="black" d="M242,-312C242,-318 236,-324 230,-324"/>
<text text-anchor="start" x="8.5" y="-303.233" font-family="Times Roman,serif" font-size="14.00"> The geometric random variable </text>
</a>
</g>
<!-- RANDOM_VARIABLES&#45;&gt;GEOMETRIC_RANDOM_VARIABLE -->
<g id="edge8" class="edge"><title>RANDOM_VARIABLES&#45;&gt;GEOMETRIC_RANDOM_VARIABLE</title>
<path fill="none" stroke="black" d="M549.839,-431.96C524.53,-422.854 494.917,-410.619 470,-396 448.207,-383.214 448.962,-370.544 426,-360 409.485,-352.416 325.366,-337.784 249.645,-325.663"/>
<polygon fill="black" stroke="black" points="249.93,-322.164 239.504,-324.046 248.828,-329.077 249.93,-322.164"/>
</g>
<!-- GENERALIZED_PARTITION_FUNCTION -->
<g id="node11" class="node"><title>GENERALIZED_PARTITION_FUNCTION</title>
<a xlink:href="GENERALIZED_PARTITION_FUNCTION.html" xlink:title=" The generalized partition function " target="_top">
<polyline fill="none" stroke="black" points="510,-324 272,-324 "/>
<path fill="none" stroke="black" d="M272,-324C266,-324 260,-318 260,-312"/>
<polyline fill="none" stroke="black" points="260,-312 260,-300 "/>
<path fill="none" stroke="black" d="M260,-300C260,-294 266,-288 272,-288"/>
<polyline fill="none" stroke="black" points="272,-288 510,-288 "/>
<path fill="none" stroke="black" d="M510,-288C516,-288 522,-294 522,-300"/>
<polyline fill="none" stroke="black" points="522,-300 522,-312 "/>
<path fill="none" stroke="black" d="M522,-312C522,-318 516,-324 510,-324"/>
<text text-anchor="start" x="268.5" y="-303.233" font-family="Times Roman,serif" font-size="14.00"> The generalized partition function </text>
</a>
</g>
<!-- RANDOM_VARIABLES&#45;&gt;GENERALIZED_PARTITION_FUNCTION -->
<g id="edge12" class="edge"><title>RANDOM_VARIABLES&#45;&gt;GENERALIZED_PARTITION_FUNCTION</title>
<path fill="none" stroke="black" d="M579.643,-431.762C540.773,-405.849 469.522,-358.348 426.586,-329.724"/>
<polygon fill="black" stroke="black" points="428.396,-326.724 418.134,-324.09 424.513,-332.549 428.396,-326.724"/>
</g>
<!-- EXPECTATION -->
<g id="node13" class="node"><title>EXPECTATION</title>
<a xlink:href="EXPECTATION.html" xlink:title=" Expectation &#160;" target="_top">
<polyline fill="none" stroke="black" points="314,-252 226,-252 "/>
<path fill="none" stroke="black" d="M226,-252C220,-252 214,-246 214,-240"/>
<polyline fill="none" stroke="black" points="214,-240 214,-228 "/>
<path fill="none" stroke="black" d="M214,-228C214,-222 220,-216 226,-216"/>
<polyline fill="none" stroke="black" points="226,-216 314,-216 "/>
<path fill="none" stroke="black" d="M314,-216C320,-216 326,-222 326,-228"/>
<polyline fill="none" stroke="black" points="326,-228 326,-240 "/>
<path fill="none" stroke="black" d="M326,-240C326,-246 320,-252 314,-252"/>
<text text-anchor="start" x="222" y="-231.233" font-family="Times Roman,serif" font-size="14.00"> Expectation &#160;</text>
</a>
</g>
<!-- RANDOM_VARIABLES&#45;&gt;EXPECTATION -->
<g id="edge14" class="edge"><title>RANDOM_VARIABLES&#45;&gt;EXPECTATION</title>
<path fill="none" stroke="black" d="M600.815,-431.713C587.5,-393.42 555.355,-306.781 531,-288 463.329,-235.816 424.136,-269.285 336.113,-252.014"/>
<polygon fill="black" stroke="black" points="336.803,-248.582 326.293,-249.917 335.341,-255.428 336.803,-248.582"/>
</g>
<!-- MOMENT_GENERATING_FUNCTION -->
<g id="node16" class="node"><title>MOMENT_GENERATING_FUNCTION</title>
<a xlink:href="MOMENT_GENERATING_FUNCTION.html" xlink:title=" The moment generating function " target="_top">
<polyline fill="none" stroke="black" points="586,-252 356,-252 "/>
<path fill="none" stroke="black" d="M356,-252C350,-252 344,-246 344,-240"/>
<polyline fill="none" stroke="black" points="344,-240 344,-228 "/>
<path fill="none" stroke="black" d="M344,-228C344,-222 350,-216 356,-216"/>
<polyline fill="none" stroke="black" points="356,-216 586,-216 "/>
<path fill="none" stroke="black" d="M586,-216C592,-216 598,-222 598,-228"/>
<polyline fill="none" stroke="black" points="598,-228 598,-240 "/>
<path fill="none" stroke="black" d="M598,-240C598,-246 592,-252 586,-252"/>
<text text-anchor="start" x="352" y="-231.233" font-family="Times Roman,serif" font-size="14.00"> The moment generating function </text>
</a>
</g>
<!-- RANDOM_VARIABLES&#45;&gt;MOMENT_GENERATING_FUNCTION -->
<g id="edge18" class="edge"><title>RANDOM_VARIABLES&#45;&gt;MOMENT_GENERATING_FUNCTION</title>
<path fill="none" stroke="black" d="M606.577,-431.757C604.947,-399.537 597.463,-331.828 564,-288 554.334,-275.34 540.782,-265.121 527.008,-257.122"/>
<polygon fill="black" stroke="black" points="528.417,-253.903 517.963,-252.183 525.062,-260.047 528.417,-253.903"/>
</g>
<!-- UNIFORM_RANDOM_VARIABLE -->
<g id="node18" class="node"><title>UNIFORM_RANDOM_VARIABLE</title>
<a xlink:href="UNIFORM_RANDOM_VARIABLE.html" xlink:title=" Uniform Random Variable " target="_top">
<polyline fill="none" stroke="black" points="482,-180 304,-180 "/>
<path fill="none" stroke="black" d="M304,-180C298,-180 292,-174 292,-168"/>
<polyline fill="none" stroke="black" points="292,-168 292,-156 "/>
<path fill="none" stroke="black" d="M292,-156C292,-150 298,-144 304,-144"/>
<polyline fill="none" stroke="black" points="304,-144 482,-144 "/>
<path fill="none" stroke="black" d="M482,-144C488,-144 494,-150 494,-156"/>
<polyline fill="none" stroke="black" points="494,-156 494,-168 "/>
<path fill="none" stroke="black" d="M494,-168C494,-174 488,-180 482,-180"/>
<text text-anchor="start" x="300.5" y="-159.233" font-family="Times Roman,serif" font-size="14.00"> Uniform Random Variable </text>
</a>
</g>
<!-- RANDOM_VARIABLES&#45;&gt;UNIFORM_RANDOM_VARIABLE -->
<g id="edge20" class="edge"><title>RANDOM_VARIABLES&#45;&gt;UNIFORM_RANDOM_VARIABLE</title>
<path fill="none" stroke="black" d="M613.771,-431.999C628.598,-389.17 658.675,-280.011 607,-216 599.369,-206.547 546.775,-193.207 495.643,-182.151"/>
<polygon fill="black" stroke="black" points="496.298,-178.712 485.787,-180.043 494.834,-185.557 496.298,-178.712"/>
</g>
<!-- INFORMATION_THEORY -->
<g id="node21" class="node"><title>INFORMATION_THEORY</title>
<a xlink:href="INFORMATION_THEORY.html" xlink:title=" Information theory &#160;" target="_top">
<polyline fill="none" stroke="black" points="662,-180 524,-180 "/>
<path fill="none" stroke="black" d="M524,-180C518,-180 512,-174 512,-168"/>
<polyline fill="none" stroke="black" points="512,-168 512,-156 "/>
<path fill="none" stroke="black" d="M512,-156C512,-150 518,-144 524,-144"/>
<polyline fill="none" stroke="black" points="524,-144 662,-144 "/>
<path fill="none" stroke="black" d="M662,-144C668,-144 674,-150 674,-156"/>
<polyline fill="none" stroke="black" points="674,-156 674,-168 "/>
<path fill="none" stroke="black" d="M674,-168C674,-174 668,-180 662,-180"/>
<text text-anchor="start" x="520.5" y="-159.233" font-family="Times Roman,serif" font-size="14.00"> Information theory &#160;</text>
</a>
</g>
<!-- RANDOM_VARIABLES&#45;&gt;INFORMATION_THEORY -->
<g id="edge24" class="edge"><title>RANDOM_VARIABLES&#45;&gt;INFORMATION_THEORY</title>
<path fill="none" stroke="black" d="M621.675,-431.709C628.705,-421.772 636.37,-408.903 640,-396 661.668,-318.99 668.04,-290.925 640,-216 636.105,-205.591 629.196,-195.865 621.854,-187.615"/>
<polygon fill="black" stroke="black" points="624.201,-185.005 614.767,-180.184 619.136,-189.836 624.201,-185.005"/>
</g>
<!-- JOINT_PROBABILITY_DISTRIBUTION -->
<g id="node23" class="node"><title>JOINT_PROBABILITY_DISTRIBUTION</title>
<a xlink:href="JOINT_PROBABILITY_DISTRIBUTION.html" xlink:title=" Joint probability distribution " target="_top">
<polyline fill="none" stroke="black" points="547,-108 353,-108 "/>
<path fill="none" stroke="black" d="M353,-108C347,-108 341,-102 341,-96"/>
<polyline fill="none" stroke="black" points="341,-96 341,-84 "/>
<path fill="none" stroke="black" d="M341,-84C341,-78 347,-72 353,-72"/>
<polyline fill="none" stroke="black" points="353,-72 547,-72 "/>
<path fill="none" stroke="black" d="M547,-72C553,-72 559,-78 559,-84"/>
<polyline fill="none" stroke="black" points="559,-84 559,-96 "/>
<path fill="none" stroke="black" d="M559,-96C559,-102 553,-108 547,-108"/>
<text text-anchor="start" x="349" y="-87.2333" font-family="Times Roman,serif" font-size="14.00"> Joint probability distribution </text>
</a>
</g>
<!-- RANDOM_VARIABLES&#45;&gt;JOINT_PROBABILITY_DISTRIBUTION -->
<g id="edge26" class="edge"><title>RANDOM_VARIABLES&#45;&gt;JOINT_PROBABILITY_DISTRIBUTION</title>
<path fill="none" stroke="black" d="M629.514,-431.616C657.606,-406.459 702,-358.413 702,-306 702,-306 702,-306 702,-234 702,-193.118 711.622,-173.191 683,-144 673.727,-134.543 615.82,-121.099 560.061,-109.991"/>
<polygon fill="black" stroke="black" points="560.54,-106.518 550.052,-108.017 559.186,-113.386 560.54,-106.518"/>
</g>
<!-- EXPONENTIAL_RANDOM_VARIABLE -->
<g id="node26" class="node"><title>EXPONENTIAL_RANDOM_VARIABLE</title>
<a xlink:href="EXPONENTIAL_RANDOM_VARIABLE.html" xlink:title=" Exponential random variable " target="_top">
<polyline fill="none" stroke="black" points="789,-108 589,-108 "/>
<path fill="none" stroke="black" d="M589,-108C583,-108 577,-102 577,-96"/>
<polyline fill="none" stroke="black" points="577,-96 577,-84 "/>
<path fill="none" stroke="black" d="M577,-84C577,-78 583,-72 589,-72"/>
<polyline fill="none" stroke="black" points="589,-72 789,-72 "/>
<path fill="none" stroke="black" d="M789,-72C795,-72 801,-78 801,-84"/>
<polyline fill="none" stroke="black" points="801,-84 801,-96 "/>
<path fill="none" stroke="black" d="M801,-96C801,-102 795,-108 789,-108"/>
<text text-anchor="start" x="585" y="-87.2333" font-family="Times Roman,serif" font-size="14.00"> Exponential random variable </text>
</a>
</g>
<!-- RANDOM_VARIABLES&#45;&gt;EXPONENTIAL_RANDOM_VARIABLE -->
<g id="edge30" class="edge"><title>RANDOM_VARIABLES&#45;&gt;EXPONENTIAL_RANDOM_VARIABLE</title>
<path fill="none" stroke="black" d="M665.333,-431.987C683.85,-423.686 702.895,-412.018 716,-396 742.214,-363.959 740,-347.398 740,-306 740,-306 740,-306 740,-234 740,-191.348 719.873,-145.456 704.907,-117.227"/>
<polygon fill="black" stroke="black" points="707.931,-115.461 700.066,-108.361 701.787,-118.815 707.931,-115.461"/>
</g>
<!-- CONDITIONAL_PROBABILITY -->
<g id="node28" class="node"><title>CONDITIONAL_PROBABILITY</title>
<a xlink:href="CONDITIONAL_PROBABILITY.html" xlink:title=" Conditional probability " target="_top">
<polyline fill="none" stroke="black" points="718,-36 560,-36 "/>
<path fill="none" stroke="black" d="M560,-36C554,-36 548,-30 548,-24"/>
<polyline fill="none" stroke="black" points="548,-24 548,-12 "/>
<path fill="none" stroke="black" d="M548,-12C548,-6 554,-1.72951e-14 560,-1.68266e-14"/>
<polyline fill="none" stroke="black" points="560,-1.68266e-14 718,-4.48969e-15 "/>
<path fill="none" stroke="black" d="M718,-4.48969e-15C724,-4.0212e-15 730,-6 730,-12"/>
<polyline fill="none" stroke="black" points="730,-12 730,-24 "/>
<path fill="none" stroke="black" d="M730,-24C730,-30 724,-36 718,-36"/>
<text text-anchor="start" x="556.5" y="-15.2333" font-family="Times Roman,serif" font-size="14.00"> Conditional probability </text>
</a>
</g>
<!-- RANDOM_VARIABLES&#45;&gt;CONDITIONAL_PROBABILITY -->
<g id="edge32" class="edge"><title>RANDOM_VARIABLES&#45;&gt;CONDITIONAL_PROBABILITY</title>
<path fill="none" stroke="black" d="M681.231,-434.321C745.768,-415.824 829,-378.011 829,-306 829,-306 829,-306 829,-162 829,-121.118 837.46,-102.286 810,-72 798.676,-59.5098 766.325,-47.9225 732.767,-38.7098"/>
<polygon fill="black" stroke="black" points="733.377,-35.2502 722.813,-36.0524 731.571,-42.0134 733.377,-35.2502"/>
</g>
<!-- NORMAL_RANDOM_VARIABLE -->
<g id="node31" class="node"><title>NORMAL_RANDOM_VARIABLE</title>
<a xlink:href="NORMAL_RANDOM_VARIABLE.html" xlink:title=" Normal random variable " target="_top">
<polyline fill="none" stroke="black" points="1037,-396 869,-396 "/>
<path fill="none" stroke="black" d="M869,-396C863,-396 857,-390 857,-384"/>
<polyline fill="none" stroke="black" points="857,-384 857,-372 "/>
<path fill="none" stroke="black" d="M857,-372C857,-366 863,-360 869,-360"/>
<polyline fill="none" stroke="black" points="869,-360 1037,-360 "/>
<path fill="none" stroke="black" d="M1037,-360C1043,-360 1049,-366 1049,-372"/>
<polyline fill="none" stroke="black" points="1049,-372 1049,-384 "/>
<path fill="none" stroke="black" d="M1049,-384C1049,-390 1043,-396 1037,-396"/>
<text text-anchor="start" x="865.5" y="-375.233" font-family="Times Roman,serif" font-size="14.00"> Normal random variable </text>
</a>
</g>
<!-- RANDOM_VARIABLES&#45;&gt;NORMAL_RANDOM_VARIABLE -->
<g id="edge36" class="edge"><title>RANDOM_VARIABLES&#45;&gt;NORMAL_RANDOM_VARIABLE</title>
<path fill="none" stroke="black" d="M681.226,-434.554C732.458,-423.893 801.07,-409.616 856.536,-398.074"/>
<polygon fill="black" stroke="black" points="857.3,-401.489 866.378,-396.025 855.874,-394.636 857.3,-401.489"/>
</g>
<!-- SET_PARTITIONS -->
<g id="node2" class="node"><title>SET_PARTITIONS</title>
<a xlink:href="SET_PARTITIONS.html" xlink:title=" Partition (set theory) " target="_top">
<polyline fill="none" stroke="black" points="681,-540 533,-540 "/>
<path fill="none" stroke="black" d="M533,-540C527,-540 521,-534 521,-528"/>
<polyline fill="none" stroke="black" points="521,-528 521,-516 "/>
<path fill="none" stroke="black" d="M521,-516C521,-510 527,-504 533,-504"/>
<polyline fill="none" stroke="black" points="533,-504 681,-504 "/>
<path fill="none" stroke="black" d="M681,-504C687,-504 693,-510 693,-516"/>
<polyline fill="none" stroke="black" points="693,-516 693,-528 "/>
<path fill="none" stroke="black" d="M693,-528C693,-534 687,-540 681,-540"/>
<text text-anchor="start" x="529.5" y="-519.233" font-family="Times Roman,serif" font-size="14.00"> Partition (set theory) </text>
</a>
</g>
<!-- SET_PARTITIONS&#45;&gt;RANDOM_VARIABLES -->
<g id="edge2" class="edge"><title>SET_PARTITIONS&#45;&gt;RANDOM_VARIABLES</title>
<path fill="none" stroke="black" d="M607,-503.831C607,-496.131 607,-486.974 607,-478.417"/>
<polygon fill="black" stroke="black" points="610.5,-478.413 607,-468.413 603.5,-478.413 610.5,-478.413"/>
</g>
<!-- BERNOULI_RANDOM_VARIABLE&#45;&gt;GEOMETRIC_RANDOM_VARIABLE -->
<!-- GEOMETRIC_RANDOM_VARIABLE&#45;&gt;EXPECTATION -->
<!-- EXPECTATION&#45;&gt;UNIFORM_RANDOM_VARIABLE -->
<!-- UNIFORM_RANDOM_VARIABLE&#45;&gt;JOINT_PROBABILITY_DISTRIBUTION -->
<!-- JOINT_PROBABILITY_DISTRIBUTION&#45;&gt;CONDITIONAL_PROBABILITY -->
</g>
</svg>
