<?xml version="1.0" encoding="UTF-8" standalone="no"?>
<!DOCTYPE svg PUBLIC "-//W3C//DTD SVG 1.1//EN"
 "http://www.w3.org/Graphics/SVG/1.1/DTD/svg11.dtd">
<!-- Generated by graphviz version 2.36.0 (20140111.2315)
 -->
<!-- Title: %3 Pages: 1 -->
<svg width="851pt" height="548pt"
 viewBox="0.00 0.00 851.00 548.00" xmlns="http://www.w3.org/2000/svg" xmlns:xlink="http://www.w3.org/1999/xlink">
<g id="graph0" class="graph" transform="scale(1 1) rotate(0) translate(4 544)">
<title>%3</title>
<!-- RANDOM_VARIABLES -->
<g id="node1" class="node"><title>RANDOM_VARIABLES</title>
<g id="a_node1"><a xlink:href="RANDOM_VARIABLES.html" xlink:title=" Random variables " target="_top">
<path fill="none" stroke="blue" stroke-width="2" d="M514.25,-468C514.25,-468 415.75,-468 415.75,-468 409.75,-468 403.75,-462 403.75,-456 403.75,-456 403.75,-444 403.75,-444 403.75,-438 409.75,-432 415.75,-432 415.75,-432 514.25,-432 514.25,-432 520.25,-432 526.25,-438 526.25,-444 526.25,-444 526.25,-456 526.25,-456 526.25,-462 520.25,-468 514.25,-468"/>
<text text-anchor="start" x="411.5" y="-446.3" font-family="Times,serif" font-size="14.00"> Random variables </text>
</a>
</g>
</g>
<!-- GEOMETRIC_RANDOM_VARIABLE -->
<g id="node2" class="node"><title>GEOMETRIC_RANDOM_VARIABLE</title>
<g id="a_node2"><a xlink:href="GEOMETRIC_RANDOM_VARIABLE.html" xlink:title=" The geometric random variable " target="_top">
<path fill="none" stroke="black" d="M184.25,-396C184.25,-396 11.75,-396 11.75,-396 5.75,-396 -0.25,-390 -0.25,-384 -0.25,-384 -0.25,-372 -0.25,-372 -0.25,-366 5.75,-360 11.75,-360 11.75,-360 184.25,-360 184.25,-360 190.25,-360 196.25,-366 196.25,-372 196.25,-372 196.25,-384 196.25,-384 196.25,-390 190.25,-396 184.25,-396"/>
<text text-anchor="start" x="7.5" y="-374.3" font-family="Times,serif" font-size="14.00"> The geometric random variable </text>
</a>
</g>
</g>
<!-- RANDOM_VARIABLES&#45;&gt;GEOMETRIC_RANDOM_VARIABLE -->
<g id="edge1" class="edge"><title>RANDOM_VARIABLES&#45;&gt;GEOMETRIC_RANDOM_VARIABLE</title>
<path fill="none" stroke="black" d="M403.572,-437.284C347.286,-426.548 262.955,-410.463 197.135,-397.909"/>
<polygon fill="black" stroke="black" points="197.63,-394.44 187.152,-396.004 196.319,-401.316 197.63,-394.44"/>
</g>
<!-- VARIANCE -->
<g id="node3" class="node"><title>VARIANCE</title>
<g id="a_node3"><a xlink:href="VARIANCE.html" xlink:title=" Variance &#160;" target="_top">
<path fill="none" stroke="black" d="M287.25,-396C287.25,-396 234.75,-396 234.75,-396 228.75,-396 222.75,-390 222.75,-384 222.75,-384 222.75,-372 222.75,-372 222.75,-366 228.75,-360 234.75,-360 234.75,-360 287.25,-360 287.25,-360 293.25,-360 299.25,-366 299.25,-372 299.25,-372 299.25,-384 299.25,-384 299.25,-390 293.25,-396 287.25,-396"/>
<text text-anchor="start" x="230.5" y="-374.3" font-family="Times,serif" font-size="14.00"> Variance &#160;</text>
</a>
</g>
</g>
<!-- RANDOM_VARIABLES&#45;&gt;VARIANCE -->
<g id="edge2" class="edge"><title>RANDOM_VARIABLES&#45;&gt;VARIANCE</title>
<path fill="none" stroke="black" d="M415.357,-431.966C382.972,-420.853 340.925,-406.425 308.896,-395.435"/>
<polygon fill="black" stroke="black" points="309.894,-392.077 299.299,-392.142 307.622,-398.698 309.894,-392.077"/>
</g>
<!-- UNIFORM_RANDOM_VARIABLE -->
<g id="node4" class="node"><title>UNIFORM_RANDOM_VARIABLE</title>
<g id="a_node4"><a xlink:href="UNIFORM_RANDOM_VARIABLE.html" xlink:title=" Uniform Random Variable " target="_top">
<path fill="none" stroke="black" d="M168,-324C168,-324 20,-324 20,-324 14,-324 8,-318 8,-312 8,-312 8,-300 8,-300 8,-294 14,-288 20,-288 20,-288 168,-288 168,-288 174,-288 180,-294 180,-300 180,-300 180,-312 180,-312 180,-318 174,-324 168,-324"/>
<text text-anchor="start" x="16" y="-302.3" font-family="Times,serif" font-size="14.00"> Uniform Random Variable </text>
</a>
</g>
</g>
<!-- RANDOM_VARIABLES&#45;&gt;UNIFORM_RANDOM_VARIABLE -->
<g id="edge3" class="edge"><title>RANDOM_VARIABLES&#45;&gt;UNIFORM_RANDOM_VARIABLE</title>
<path fill="none" stroke="black" d="M420.642,-431.96C398.641,-422.672 372.114,-410.182 350,-396 329.305,-382.728 329.856,-371.259 308,-360 286.995,-349.179 236.473,-336.467 189.791,-326.206"/>
<polygon fill="black" stroke="black" points="190.416,-322.76 179.9,-324.055 188.928,-329.6 190.416,-322.76"/>
</g>
<!-- EXPONENTIAL_RANDOM_VARIABLE -->
<g id="node6" class="node"><title>EXPONENTIAL_RANDOM_VARIABLE</title>
<g id="a_node6"><a xlink:href="EXPONENTIAL_RANDOM_VARIABLE.html" xlink:title=" Exponential random variable " target="_top">
<path fill="none" stroke="black" d="M368,-324C368,-324 210,-324 210,-324 204,-324 198,-318 198,-312 198,-312 198,-300 198,-300 198,-294 204,-288 210,-288 210,-288 368,-288 368,-288 374,-288 380,-294 380,-300 380,-300 380,-312 380,-312 380,-318 374,-324 368,-324"/>
<text text-anchor="start" x="206" y="-302.3" font-family="Times,serif" font-size="14.00"> Exponential random variable </text>
</a>
</g>
</g>
<!-- RANDOM_VARIABLES&#45;&gt;EXPONENTIAL_RANDOM_VARIABLE -->
<g id="edge6" class="edge"><title>RANDOM_VARIABLES&#45;&gt;EXPONENTIAL_RANDOM_VARIABLE</title>
<path fill="none" stroke="black" d="M441.38,-431.933C427.433,-421.717 409.526,-408.356 394,-396 366.974,-374.493 336.995,-348.901 316.013,-330.693"/>
<polygon fill="black" stroke="black" points="318.278,-328.024 308.437,-324.1 313.683,-333.305 318.278,-328.024"/>
</g>
<!-- NORMAL_RANDOM_VARIABLE -->
<g id="node7" class="node"><title>NORMAL_RANDOM_VARIABLE</title>
<g id="a_node7"><a xlink:href="NORMAL_RANDOM_VARIABLE.html" xlink:title=" Normal random variable " target="_top">
<path fill="none" stroke="black" d="M287.25,-252C287.25,-252 152.75,-252 152.75,-252 146.75,-252 140.75,-246 140.75,-240 140.75,-240 140.75,-228 140.75,-228 140.75,-222 146.75,-216 152.75,-216 152.75,-216 287.25,-216 287.25,-216 293.25,-216 299.25,-222 299.25,-228 299.25,-228 299.25,-240 299.25,-240 299.25,-246 293.25,-252 287.25,-252"/>
<text text-anchor="start" x="148.5" y="-230.3" font-family="Times,serif" font-size="14.00"> Normal random variable </text>
</a>
</g>
</g>
<!-- RANDOM_VARIABLES&#45;&gt;NORMAL_RANDOM_VARIABLE -->
<g id="edge7" class="edge"><title>RANDOM_VARIABLES&#45;&gt;NORMAL_RANDOM_VARIABLE</title>
<path fill="none" stroke="black" d="M456.471,-431.862C451.348,-421.506 444.733,-408.027 439,-396 416.239,-348.253 428.747,-322.9 389,-288 366.781,-268.49 337.408,-256.159 309.391,-248.367"/>
<polygon fill="black" stroke="black" points="310.112,-244.937 299.552,-245.795 308.342,-251.71 310.112,-244.937"/>
</g>
<!-- EXPECTATION -->
<g id="node8" class="node"><title>EXPECTATION</title>
<g id="a_node8"><a xlink:href="EXPECTATION.html" xlink:title=" Expectation &#160;" target="_top">
<path fill="none" stroke="black" d="M444,-252C444,-252 376,-252 376,-252 370,-252 364,-246 364,-240 364,-240 364,-228 364,-228 364,-222 370,-216 376,-216 376,-216 444,-216 444,-216 450,-216 456,-222 456,-228 456,-228 456,-240 456,-240 456,-246 450,-252 444,-252"/>
<text text-anchor="start" x="372" y="-230.3" font-family="Times,serif" font-size="14.00"> Expectation &#160;</text>
</a>
</g>
</g>
<!-- RANDOM_VARIABLES&#45;&gt;EXPECTATION -->
<g id="edge9" class="edge"><title>RANDOM_VARIABLES&#45;&gt;EXPECTATION</title>
<path fill="none" stroke="black" d="M460.592,-431.849C451.058,-394.753 428.456,-306.81 416.966,-262.103"/>
<polygon fill="black" stroke="black" points="420.308,-261.046 414.429,-252.232 413.528,-262.789 420.308,-261.046"/>
</g>
<!-- JOINT_PROBABILITY_DISTRIBUTION -->
<g id="node9" class="node"><title>JOINT_PROBABILITY_DISTRIBUTION</title>
<g id="a_node9"><a xlink:href="JOINT_PROBABILITY_DISTRIBUTION.html" xlink:title=" Joint probability distribution " target="_top">
<path fill="none" stroke="black" d="M297.25,-180C297.25,-180 142.75,-180 142.75,-180 136.75,-180 130.75,-174 130.75,-168 130.75,-168 130.75,-156 130.75,-156 130.75,-150 136.75,-144 142.75,-144 142.75,-144 297.25,-144 297.25,-144 303.25,-144 309.25,-150 309.25,-156 309.25,-156 309.25,-168 309.25,-168 309.25,-174 303.25,-180 297.25,-180"/>
<text text-anchor="start" x="138.5" y="-158.3" font-family="Times,serif" font-size="14.00"> Joint probability distribution </text>
</a>
</g>
</g>
<!-- RANDOM_VARIABLES&#45;&gt;JOINT_PROBABILITY_DISTRIBUTION -->
<g id="edge10" class="edge"><title>RANDOM_VARIABLES&#45;&gt;JOINT_PROBABILITY_DISTRIBUTION</title>
<path fill="none" stroke="black" d="M471.522,-431.705C486.201,-389.51 516.689,-280.067 465,-216 460.143,-209.98 385.088,-194.295 319.319,-181.539"/>
<polygon fill="black" stroke="black" points="319.757,-178.059 309.275,-179.6 318.43,-184.932 319.757,-178.059"/>
</g>
<!-- MOMENT_GENERATING_FUNCTION -->
<g id="node10" class="node"><title>MOMENT_GENERATING_FUNCTION</title>
<g id="a_node10"><a xlink:href="MOMENT_GENERATING_FUNCTION.html" xlink:title=" The moment generating function " target="_top">
<path fill="none" stroke="black" d="M519.5,-180C519.5,-180 340.5,-180 340.5,-180 334.5,-180 328.5,-174 328.5,-168 328.5,-168 328.5,-156 328.5,-156 328.5,-150 334.5,-144 340.5,-144 340.5,-144 519.5,-144 519.5,-144 525.5,-144 531.5,-150 531.5,-156 531.5,-156 531.5,-168 531.5,-168 531.5,-174 525.5,-180 519.5,-180"/>
<text text-anchor="start" x="336" y="-158.3" font-family="Times,serif" font-size="14.00"> The moment generating function </text>
</a>
</g>
</g>
<!-- RANDOM_VARIABLES&#45;&gt;MOMENT_GENERATING_FUNCTION -->
<g id="edge12" class="edge"><title>RANDOM_VARIABLES&#45;&gt;MOMENT_GENERATING_FUNCTION</title>
<path fill="none" stroke="black" d="M479.327,-431.566C486.448,-421.762 494.306,-408.923 498,-396 519.989,-319.081 533.112,-287.883 498,-216 492.194,-204.114 482.293,-194.119 471.816,-186.125"/>
<polygon fill="black" stroke="black" points="473.544,-183.059 463.358,-180.145 469.503,-188.775 473.544,-183.059"/>
</g>
<!-- CONDITIONAL_PROBABILITY -->
<g id="node11" class="node"><title>CONDITIONAL_PROBABILITY</title>
<g id="a_node11"><a xlink:href="CONDITIONAL_PROBABILITY.html" xlink:title=" Conditional probability " target="_top">
<path fill="none" stroke="black" d="M415.25,-108C415.25,-108 288.75,-108 288.75,-108 282.75,-108 276.75,-102 276.75,-96 276.75,-96 276.75,-84 276.75,-84 276.75,-78 282.75,-72 288.75,-72 288.75,-72 415.25,-72 415.25,-72 421.25,-72 427.25,-78 427.25,-84 427.25,-84 427.25,-96 427.25,-96 427.25,-102 421.25,-108 415.25,-108"/>
<text text-anchor="start" x="284.5" y="-86.3" font-family="Times,serif" font-size="14.00"> Conditional probability </text>
</a>
</g>
</g>
<!-- RANDOM_VARIABLES&#45;&gt;CONDITIONAL_PROBABILITY -->
<g id="edge13" class="edge"><title>RANDOM_VARIABLES&#45;&gt;CONDITIONAL_PROBABILITY</title>
<path fill="none" stroke="black" d="M486.557,-431.777C514.586,-407.284 560,-359.5 560,-307 560,-307 560,-307 560,-233 560,-192.458 567.887,-173.427 540,-144 532.283,-135.857 482.305,-121.969 435.822,-110.453"/>
<polygon fill="black" stroke="black" points="436.519,-107.02 425.973,-108.034 434.849,-113.818 436.519,-107.02"/>
</g>
<!-- GENERALIZED_PARTITION_FUNCTION -->
<g id="node12" class="node"><title>GENERALIZED_PARTITION_FUNCTION</title>
<g id="a_node12"><a xlink:href="GENERALIZED_PARTITION_FUNCTION.html" xlink:title=" The generalized partition function " target="_top">
<path fill="none" stroke="black" d="M642.25,-108C642.25,-108 457.75,-108 457.75,-108 451.75,-108 445.75,-102 445.75,-96 445.75,-96 445.75,-84 445.75,-84 445.75,-78 451.75,-72 457.75,-72 457.75,-72 642.25,-72 642.25,-72 648.25,-72 654.25,-78 654.25,-84 654.25,-84 654.25,-96 654.25,-96 654.25,-102 648.25,-108 642.25,-108"/>
<text text-anchor="start" x="453.5" y="-86.3" font-family="Times,serif" font-size="14.00"> The generalized partition function </text>
</a>
</g>
</g>
<!-- RANDOM_VARIABLES&#45;&gt;GENERALIZED_PARTITION_FUNCTION -->
<g id="edge15" class="edge"><title>RANDOM_VARIABLES&#45;&gt;GENERALIZED_PARTITION_FUNCTION</title>
<path fill="none" stroke="black" d="M522.445,-431.888C541.223,-423.736 560.66,-412.137 574,-396 600.104,-364.424 598,-347.969 598,-307 598,-307 598,-307 598,-233 598,-190.866 578.8,-145.227 564.686,-117.371"/>
<polygon fill="black" stroke="black" points="567.677,-115.538 559.946,-108.294 561.472,-118.778 567.677,-115.538"/>
</g>
<!-- BERNOULI_RANDOM_VARIABLE -->
<g id="node13" class="node"><title>BERNOULI_RANDOM_VARIABLE</title>
<g id="a_node13"><a xlink:href="BERNOULI_RANDOM_VARIABLE.html" xlink:title=" Bernoulli random variable " target="_top">
<path fill="none" stroke="black" d="M588.5,-36C588.5,-36 445.5,-36 445.5,-36 439.5,-36 433.5,-30 433.5,-24 433.5,-24 433.5,-12 433.5,-12 433.5,-6 439.5,-0 445.5,-0 445.5,-0 588.5,-0 588.5,-0 594.5,-0 600.5,-6 600.5,-12 600.5,-12 600.5,-24 600.5,-24 600.5,-30 594.5,-36 588.5,-36"/>
<text text-anchor="start" x="441" y="-14.3" font-family="Times,serif" font-size="14.00"> Bernoulli random variable </text>
</a>
</g>
</g>
<!-- RANDOM_VARIABLES&#45;&gt;BERNOULI_RANDOM_VARIABLE -->
<g id="edge16" class="edge"><title>RANDOM_VARIABLES&#45;&gt;BERNOULI_RANDOM_VARIABLE</title>
<path fill="none" stroke="black" d="M526.305,-436.643C590.784,-419.652 683,-382.205 683,-307 683,-307 683,-307 683,-161 683,-120.458 689.788,-102.431 663,-72 649.003,-56.0992 629.848,-44.9664 610.018,-37.1726"/>
<polygon fill="black" stroke="black" points="611.158,-33.8627 600.564,-33.7153 608.754,-40.4369 611.158,-33.8627"/>
</g>
<!-- INFORMATION_THEORY -->
<g id="node14" class="node"><title>INFORMATION_THEORY</title>
<g id="a_node14"><a xlink:href="INFORMATION_THEORY.html" xlink:title=" Information theory &#160;" target="_top">
<path fill="none" stroke="black" d="M830.25,-396C830.25,-396 723.75,-396 723.75,-396 717.75,-396 711.75,-390 711.75,-384 711.75,-384 711.75,-372 711.75,-372 711.75,-366 717.75,-360 723.75,-360 723.75,-360 830.25,-360 830.25,-360 836.25,-360 842.25,-366 842.25,-372 842.25,-372 842.25,-384 842.25,-384 842.25,-390 836.25,-396 830.25,-396"/>
<text text-anchor="start" x="719.5" y="-374.3" font-family="Times,serif" font-size="14.00"> Information theory &#160;</text>
</a>
</g>
</g>
<!-- RANDOM_VARIABLES&#45;&gt;INFORMATION_THEORY -->
<g id="edge18" class="edge"><title>RANDOM_VARIABLES&#45;&gt;INFORMATION_THEORY</title>
<path fill="none" stroke="black" d="M526.269,-435.254C576.556,-423.971 647.98,-407.947 701.742,-395.885"/>
<polygon fill="black" stroke="black" points="702.574,-399.285 711.566,-393.681 701.042,-392.455 702.574,-399.285"/>
</g>
<!-- GEOMETRIC_RANDOM_VARIABLE&#45;&gt;UNIFORM_RANDOM_VARIABLE -->
<!-- UNIFORM_RANDOM_VARIABLE&#45;&gt;NORMAL_RANDOM_VARIABLE -->
<!-- SET_PARTITIONS -->
<g id="node5" class="node"><title>SET_PARTITIONS</title>
<g id="a_node5"><a xlink:href="SET_PARTITIONS.html" xlink:title=" Partition (set theory) " target="_top">
<path fill="none" stroke="black" d="M521.25,-540C521.25,-540 408.75,-540 408.75,-540 402.75,-540 396.75,-534 396.75,-528 396.75,-528 396.75,-516 396.75,-516 396.75,-510 402.75,-504 408.75,-504 408.75,-504 521.25,-504 521.25,-504 527.25,-504 533.25,-510 533.25,-516 533.25,-516 533.25,-528 533.25,-528 533.25,-534 527.25,-540 521.25,-540"/>
<text text-anchor="start" x="404.5" y="-518.3" font-family="Times,serif" font-size="14.00"> Partition (set theory) </text>
</a>
</g>
</g>
<!-- SET_PARTITIONS&#45;&gt;RANDOM_VARIABLES -->
<g id="edge5" class="edge"><title>SET_PARTITIONS&#45;&gt;RANDOM_VARIABLES</title>
<path fill="none" stroke="black" d="M465,-503.697C465,-495.983 465,-486.712 465,-478.112"/>
<polygon fill="black" stroke="black" points="468.5,-478.104 465,-468.104 461.5,-478.104 468.5,-478.104"/>
</g>
<!-- NORMAL_RANDOM_VARIABLE&#45;&gt;JOINT_PROBABILITY_DISTRIBUTION -->
<!-- JOINT_PROBABILITY_DISTRIBUTION&#45;&gt;CONDITIONAL_PROBABILITY -->
<!-- CONDITIONAL_PROBABILITY&#45;&gt;BERNOULI_RANDOM_VARIABLE -->
</g>
</svg>
