<?xml version="1.0" encoding="UTF-8" standalone="no"?>
<!DOCTYPE svg PUBLIC "-//W3C//DTD SVG 1.1//EN"
 "http://www.w3.org/Graphics/SVG/1.1/DTD/svg11.dtd">
<!-- Generated by graphviz version 2.26.3 (20100126.1600)
 -->
<!-- Title: _anonymous_0 Pages: 1 -->
<svg width="884pt" height="476pt"
 viewBox="0.00 0.00 884.00 476.00" xmlns="http://www.w3.org/2000/svg" xmlns:xlink="http://www.w3.org/1999/xlink">
<g id="graph1" class="graph" transform="scale(1 1) rotate(0) translate(4 472)">
<title>_anonymous_0</title>
<!-- RANDOM_VARIABLES -->
<g id="node1" class="node"><title>RANDOM_VARIABLES</title>
<a xlink:href="RANDOM_VARIABLES.html" xlink:title="Random variables" target="_top">
<polyline fill="none" stroke="blue" stroke-width="2" points="525,-396 409,-396 "/>
<path fill="none" stroke="blue" stroke-width="2" d="M409,-396C403,-396 397,-390 397,-384"/>
<polyline fill="none" stroke="blue" stroke-width="2" points="397,-384 397,-372 "/>
<path fill="none" stroke="blue" stroke-width="2" d="M397,-372C397,-366 403,-360 409,-360"/>
<polyline fill="none" stroke="blue" stroke-width="2" points="409,-360 525,-360 "/>
<path fill="none" stroke="blue" stroke-width="2" d="M525,-360C531,-360 537,-366 537,-372"/>
<polyline fill="none" stroke="blue" stroke-width="2" points="537,-372 537,-384 "/>
<path fill="none" stroke="blue" stroke-width="2" d="M537,-384C537,-390 531,-396 525,-396"/>
<text text-anchor="start" x="405.5" y="-375.233" font-family="Times Roman,serif" font-size="14.00">Random variables</text>
</a>
</g>
<!-- VARIANCE -->
<g id="node2" class="node"><title>VARIANCE</title>
<a xlink:href="VARIANCE.html" xlink:title="Variance " target="_top">
<polyline fill="none" stroke="black" points="145,-324 89,-324 "/>
<path fill="none" stroke="black" d="M89,-324C83,-324 77,-318 77,-312"/>
<polyline fill="none" stroke="black" points="77,-312 77,-300 "/>
<path fill="none" stroke="black" d="M77,-300C77,-294 83,-288 89,-288"/>
<polyline fill="none" stroke="black" points="89,-288 145,-288 "/>
<path fill="none" stroke="black" d="M145,-288C151,-288 157,-294 157,-300"/>
<polyline fill="none" stroke="black" points="157,-300 157,-312 "/>
<path fill="none" stroke="black" d="M157,-312C157,-318 151,-324 145,-324"/>
<text text-anchor="start" x="85" y="-303.233" font-family="Times Roman,serif" font-size="14.00">Variance </text>
</a>
</g>
<!-- RANDOM_VARIABLES&#45;&gt;VARIANCE -->
<g id="edge2" class="edge"><title>RANDOM_VARIABLES&#45;&gt;VARIANCE</title>
<path fill="none" stroke="black" d="M396.593,-363.516C328.66,-349.541 227.512,-328.734 167.315,-316.351"/>
<polygon fill="black" stroke="black" points="167.794,-312.876 157.294,-314.289 166.383,-319.732 167.794,-312.876"/>
</g>
<!-- EXPECTATION -->
<g id="node4" class="node"><title>EXPECTATION</title>
<a xlink:href="EXPECTATION.html" xlink:title="Expectation " target="_top">
<polyline fill="none" stroke="black" points="310,-324 230,-324 "/>
<path fill="none" stroke="black" d="M230,-324C224,-324 218,-318 218,-312"/>
<polyline fill="none" stroke="black" points="218,-312 218,-300 "/>
<path fill="none" stroke="black" d="M218,-300C218,-294 224,-288 230,-288"/>
<polyline fill="none" stroke="black" points="230,-288 310,-288 "/>
<path fill="none" stroke="black" d="M310,-288C316,-288 322,-294 322,-300"/>
<polyline fill="none" stroke="black" points="322,-300 322,-312 "/>
<path fill="none" stroke="black" d="M322,-312C322,-318 316,-324 310,-324"/>
<text text-anchor="start" x="226.5" y="-303.233" font-family="Times Roman,serif" font-size="14.00">Expectation </text>
</a>
</g>
<!-- RANDOM_VARIABLES&#45;&gt;EXPECTATION -->
<g id="edge4" class="edge"><title>RANDOM_VARIABLES&#45;&gt;EXPECTATION</title>
<path fill="none" stroke="black" d="M417.543,-359.924C390.729,-350.124 357.405,-337.945 329.215,-327.642"/>
<polygon fill="black" stroke="black" points="330.071,-324.229 319.477,-324.083 327.668,-330.803 330.071,-324.229"/>
</g>
<!-- NORMAL_RANDOM_VARIABLE -->
<g id="node6" class="node"><title>NORMAL_RANDOM_VARIABLE</title>
<a xlink:href="NORMAL_RANDOM_VARIABLE.html" xlink:title="Normal random variable" target="_top">
<polyline fill="none" stroke="black" points="174,-252 16,-252 "/>
<path fill="none" stroke="black" d="M16,-252C10,-252 4,-246 4,-240"/>
<polyline fill="none" stroke="black" points="4,-240 4,-228 "/>
<path fill="none" stroke="black" d="M4,-228C4,-222 10,-216 16,-216"/>
<polyline fill="none" stroke="black" points="16,-216 174,-216 "/>
<path fill="none" stroke="black" d="M174,-216C180,-216 186,-222 186,-228"/>
<polyline fill="none" stroke="black" points="186,-228 186,-240 "/>
<path fill="none" stroke="black" d="M186,-240C186,-246 180,-252 174,-252"/>
<text text-anchor="start" x="12" y="-231.233" font-family="Times Roman,serif" font-size="14.00">Normal random variable</text>
</a>
</g>
<!-- RANDOM_VARIABLES&#45;&gt;NORMAL_RANDOM_VARIABLE -->
<g id="edge6" class="edge"><title>RANDOM_VARIABLES&#45;&gt;NORMAL_RANDOM_VARIABLE</title>
<path fill="none" stroke="black" d="M427.919,-359.797C409.078,-350.258 386.592,-337.713 368,-324 349.536,-310.381 351.154,-298.966 331,-288 318.501,-281.199 253.191,-266.484 194.437,-254.129"/>
<polygon fill="black" stroke="black" points="194.823,-250.634 184.318,-252.011 193.388,-257.486 194.823,-250.634"/>
</g>
<!-- EXPONENTIAL_RANDOM_VARIABLE -->
<g id="node9" class="node"><title>EXPONENTIAL_RANDOM_VARIABLE</title>
<a xlink:href="EXPONENTIAL_RANDOM_VARIABLE.html" xlink:title="Exponential random variable" target="_top">
<polyline fill="none" stroke="black" points="408,-252 216,-252 "/>
<path fill="none" stroke="black" d="M216,-252C210,-252 204,-246 204,-240"/>
<polyline fill="none" stroke="black" points="204,-240 204,-228 "/>
<path fill="none" stroke="black" d="M204,-228C204,-222 210,-216 216,-216"/>
<polyline fill="none" stroke="black" points="216,-216 408,-216 "/>
<path fill="none" stroke="black" d="M408,-216C414,-216 420,-222 420,-228"/>
<polyline fill="none" stroke="black" points="420,-228 420,-240 "/>
<path fill="none" stroke="black" d="M420,-240C420,-246 414,-252 408,-252"/>
<text text-anchor="start" x="212.5" y="-231.233" font-family="Times Roman,serif" font-size="14.00">Exponential random variable</text>
</a>
</g>
<!-- RANDOM_VARIABLES&#45;&gt;EXPONENTIAL_RANDOM_VARIABLE -->
<g id="edge10" class="edge"><title>RANDOM_VARIABLES&#45;&gt;EXPONENTIAL_RANDOM_VARIABLE</title>
<path fill="none" stroke="black" d="M447.369,-359.762C419.883,-334.227 369.836,-287.732 338.9,-258.991"/>
<polygon fill="black" stroke="black" points="341.18,-256.332 331.471,-252.09 336.416,-261.46 341.18,-256.332"/>
</g>
<!-- MOMENT_GENERATING_FUNCTION -->
<g id="node13" class="node"><title>MOMENT_GENERATING_FUNCTION</title>
<a xlink:href="MOMENT_GENERATING_FUNCTION.html" xlink:title="The moment generating function" target="_top">
<polyline fill="none" stroke="black" points="234,-180 12,-180 "/>
<path fill="none" stroke="black" d="M12,-180C6,-180 8.28967e-14,-174 6.63173e-14,-168"/>
<polyline fill="none" stroke="black" points="6.63173e-14,-168 3.31587e-14,-156 "/>
<path fill="none" stroke="black" d="M3.31587e-14,-156C1.65793e-14,-150 6,-144 12,-144"/>
<polyline fill="none" stroke="black" points="12,-144 234,-144 "/>
<path fill="none" stroke="black" d="M234,-144C240,-144 246,-150 246,-156"/>
<polyline fill="none" stroke="black" points="246,-156 246,-168 "/>
<path fill="none" stroke="black" d="M246,-168C246,-174 240,-180 234,-180"/>
<text text-anchor="start" x="8.5" y="-159.233" font-family="Times Roman,serif" font-size="14.00">The moment generating function</text>
</a>
</g>
<!-- RANDOM_VARIABLES&#45;&gt;MOMENT_GENERATING_FUNCTION -->
<g id="edge14" class="edge"><title>RANDOM_VARIABLES&#45;&gt;MOMENT_GENERATING_FUNCTION</title>
<path fill="none" stroke="black" d="M468.618,-359.834C470.524,-326.181 469.298,-254.112 429,-216 422.223,-209.59 333.42,-194.34 253.217,-181.675"/>
<polygon fill="black" stroke="black" points="253.403,-178.161 242.981,-180.065 252.316,-185.076 253.403,-178.161"/>
</g>
<!-- GEOMETRIC_RANDOM_VARIABLE -->
<g id="node16" class="node"><title>GEOMETRIC_RANDOM_VARIABLE</title>
<a xlink:href="GEOMETRIC_RANDOM_VARIABLE.html" xlink:title="The geometric random variable" target="_top">
<polyline fill="none" stroke="black" points="484,-180 276,-180 "/>
<path fill="none" stroke="black" d="M276,-180C270,-180 264,-174 264,-168"/>
<polyline fill="none" stroke="black" points="264,-168 264,-156 "/>
<path fill="none" stroke="black" d="M264,-156C264,-150 270,-144 276,-144"/>
<polyline fill="none" stroke="black" points="276,-144 484,-144 "/>
<path fill="none" stroke="black" d="M484,-144C490,-144 496,-150 496,-156"/>
<polyline fill="none" stroke="black" points="496,-156 496,-168 "/>
<path fill="none" stroke="black" d="M496,-168C496,-174 490,-180 484,-180"/>
<text text-anchor="start" x="272" y="-159.233" font-family="Times Roman,serif" font-size="14.00">The geometric random variable</text>
</a>
</g>
<!-- RANDOM_VARIABLES&#45;&gt;GEOMETRIC_RANDOM_VARIABLE -->
<g id="edge18" class="edge"><title>RANDOM_VARIABLES&#45;&gt;GEOMETRIC_RANDOM_VARIABLE</title>
<path fill="none" stroke="black" d="M471.592,-359.556C478.407,-327.899 487.808,-262.177 462,-216 455.04,-203.548 443.868,-193.466 431.981,-185.536"/>
<polygon fill="black" stroke="black" points="433.595,-182.419 423.249,-180.138 429.915,-188.374 433.595,-182.419"/>
</g>
<!-- UNIFORM_RANDOM_VARIABLE -->
<g id="node18" class="node"><title>UNIFORM_RANDOM_VARIABLE</title>
<a xlink:href="UNIFORM_RANDOM_VARIABLE.html" xlink:title="Uniform Random Variable" target="_top">
<polyline fill="none" stroke="black" points="408,-108 240,-108 "/>
<path fill="none" stroke="black" d="M240,-108C234,-108 228,-102 228,-96"/>
<polyline fill="none" stroke="black" points="228,-96 228,-84 "/>
<path fill="none" stroke="black" d="M228,-84C228,-78 234,-72 240,-72"/>
<polyline fill="none" stroke="black" points="240,-72 408,-72 "/>
<path fill="none" stroke="black" d="M408,-72C414,-72 420,-78 420,-84"/>
<polyline fill="none" stroke="black" points="420,-84 420,-96 "/>
<path fill="none" stroke="black" d="M420,-96C420,-102 414,-108 408,-108"/>
<text text-anchor="start" x="236" y="-87.2333" font-family="Times Roman,serif" font-size="14.00">Uniform Random Variable</text>
</a>
</g>
<!-- RANDOM_VARIABLES&#45;&gt;UNIFORM_RANDOM_VARIABLE -->
<g id="edge20" class="edge"><title>RANDOM_VARIABLES&#45;&gt;UNIFORM_RANDOM_VARIABLE</title>
<path fill="none" stroke="black" d="M478.171,-359.741C502.557,-317.286 554.555,-210.498 505,-144 494.968,-130.538 464.005,-119.207 430.46,-110.454"/>
<polygon fill="black" stroke="black" points="431.02,-106.986 420.468,-107.938 429.311,-113.774 431.02,-106.986"/>
</g>
<!-- CONDITIONAL_PROBABILITY -->
<g id="node21" class="node"><title>CONDITIONAL_PROBABILITY</title>
<a xlink:href="CONDITIONAL_PROBABILITY.html" xlink:title="Conditional probability" target="_top">
<polyline fill="none" stroke="black" points="598,-108 450,-108 "/>
<path fill="none" stroke="black" d="M450,-108C444,-108 438,-102 438,-96"/>
<polyline fill="none" stroke="black" points="438,-96 438,-84 "/>
<path fill="none" stroke="black" d="M438,-84C438,-78 444,-72 450,-72"/>
<polyline fill="none" stroke="black" points="450,-72 598,-72 "/>
<path fill="none" stroke="black" d="M598,-72C604,-72 610,-78 610,-84"/>
<polyline fill="none" stroke="black" points="610,-84 610,-96 "/>
<path fill="none" stroke="black" d="M610,-96C610,-102 604,-108 598,-108"/>
<text text-anchor="start" x="446" y="-87.2333" font-family="Times Roman,serif" font-size="14.00">Conditional probability</text>
</a>
</g>
<!-- RANDOM_VARIABLES&#45;&gt;CONDITIONAL_PROBABILITY -->
<g id="edge24" class="edge"><title>RANDOM_VARIABLES&#45;&gt;CONDITIONAL_PROBABILITY</title>
<path fill="none" stroke="black" d="M502.929,-359.992C516.517,-351.158 530.502,-339.123 538,-324 571.614,-256.203 549.013,-163.447 534.125,-117.753"/>
<polygon fill="black" stroke="black" points="537.423,-116.579 530.907,-108.224 530.791,-118.819 537.423,-116.579"/>
</g>
<!-- BERNOULI_RANDOM_VARIABLE -->
<g id="node23" class="node"><title>BERNOULI_RANDOM_VARIABLE</title>
<a xlink:href="BERNOULI_RANDOM_VARIABLE.html" xlink:title="Bernoulli random variable" target="_top">
<polyline fill="none" stroke="black" points="566,-36 396,-36 "/>
<path fill="none" stroke="black" d="M396,-36C390,-36 384,-30 384,-24"/>
<polyline fill="none" stroke="black" points="384,-24 384,-12 "/>
<path fill="none" stroke="black" d="M384,-12C384,-6 390,-1.73241e-14 396,-1.68845e-14"/>
<polyline fill="none" stroke="black" points="396,-1.68845e-14 566,-4.43174e-15 "/>
<path fill="none" stroke="black" d="M566,-4.43174e-15C572,-3.99222e-15 578,-6 578,-12"/>
<polyline fill="none" stroke="black" points="578,-12 578,-24 "/>
<path fill="none" stroke="black" d="M578,-24C578,-30 572,-36 566,-36"/>
<text text-anchor="start" x="392" y="-15.2333" font-family="Times Roman,serif" font-size="14.00">Bernoulli random variable</text>
</a>
</g>
<!-- RANDOM_VARIABLES&#45;&gt;BERNOULI_RANDOM_VARIABLE -->
<g id="edge26" class="edge"><title>RANDOM_VARIABLES&#45;&gt;BERNOULI_RANDOM_VARIABLE</title>
<path fill="none" stroke="black" d="M518.306,-359.842C568.675,-338.344 638,-297.263 638,-234 638,-234 638,-234 638,-162 638,-121.118 645.428,-103.191 619,-72 607.212,-58.0882 591.374,-47.7405 574.632,-40.0497"/>
<polygon fill="black" stroke="black" points="575.828,-36.7549 565.257,-36.0446 573.078,-43.1921 575.828,-36.7549"/>
</g>
<!-- JOINT_PROBABILITY_DISTRIBUTION -->
<g id="node26" class="node"><title>JOINT_PROBABILITY_DISTRIBUTION</title>
<a xlink:href="JOINT_PROBABILITY_DISTRIBUTION.html" xlink:title="Joint probability distribution" target="_top">
<polyline fill="none" stroke="black" points="864,-324 678,-324 "/>
<path fill="none" stroke="black" d="M678,-324C672,-324 666,-318 666,-312"/>
<polyline fill="none" stroke="black" points="666,-312 666,-300 "/>
<path fill="none" stroke="black" d="M666,-300C666,-294 672,-288 678,-288"/>
<polyline fill="none" stroke="black" points="678,-288 864,-288 "/>
<path fill="none" stroke="black" d="M864,-288C870,-288 876,-294 876,-300"/>
<polyline fill="none" stroke="black" points="876,-300 876,-312 "/>
<path fill="none" stroke="black" d="M876,-312C876,-318 870,-324 864,-324"/>
<text text-anchor="start" x="674.5" y="-303.233" font-family="Times Roman,serif" font-size="14.00">Joint probability distribution</text>
</a>
</g>
<!-- RANDOM_VARIABLES&#45;&gt;JOINT_PROBABILITY_DISTRIBUTION -->
<g id="edge30" class="edge"><title>RANDOM_VARIABLES&#45;&gt;JOINT_PROBABILITY_DISTRIBUTION</title>
<path fill="none" stroke="black" d="M537.125,-361.391C581.162,-350.962 638.267,-337.437 685.025,-326.362"/>
<polygon fill="black" stroke="black" points="685.913,-329.749 694.837,-324.039 684.3,-322.937 685.913,-329.749"/>
</g>
<!-- VARIANCE&#45;&gt;NORMAL_RANDOM_VARIABLE -->
<!-- NORMAL_RANDOM_VARIABLE&#45;&gt;MOMENT_GENERATING_FUNCTION -->
<!-- SET_PARTITIONS -->
<g id="node11" class="node"><title>SET_PARTITIONS</title>
<a xlink:href="SET_PARTITIONS.html" xlink:title="Partition (set theory)" target="_top">
<polyline fill="none" stroke="black" points="536,-468 398,-468 "/>
<path fill="none" stroke="black" d="M398,-468C392,-468 386,-462 386,-456"/>
<polyline fill="none" stroke="black" points="386,-456 386,-444 "/>
<path fill="none" stroke="black" d="M386,-444C386,-438 392,-432 398,-432"/>
<polyline fill="none" stroke="black" points="398,-432 536,-432 "/>
<path fill="none" stroke="black" d="M536,-432C542,-432 548,-438 548,-444"/>
<polyline fill="none" stroke="black" points="548,-444 548,-456 "/>
<path fill="none" stroke="black" d="M548,-456C548,-462 542,-468 536,-468"/>
<text text-anchor="start" x="394" y="-447.233" font-family="Times Roman,serif" font-size="14.00">Partition (set theory)</text>
</a>
</g>
<!-- SET_PARTITIONS&#45;&gt;RANDOM_VARIABLES -->
<g id="edge12" class="edge"><title>SET_PARTITIONS&#45;&gt;RANDOM_VARIABLES</title>
<path fill="none" stroke="black" d="M467,-431.831C467,-424.131 467,-414.974 467,-406.417"/>
<polygon fill="black" stroke="black" points="470.5,-406.413 467,-396.413 463.5,-406.413 470.5,-406.413"/>
</g>
<!-- MOMENT_GENERATING_FUNCTION&#45;&gt;UNIFORM_RANDOM_VARIABLE -->
<!-- UNIFORM_RANDOM_VARIABLE&#45;&gt;BERNOULI_RANDOM_VARIABLE -->
</g>
</svg>
