<?xml version="1.0" encoding="UTF-8" standalone="no"?>
<!DOCTYPE svg PUBLIC "-//W3C//DTD SVG 1.1//EN"
 "http://www.w3.org/Graphics/SVG/1.1/DTD/svg11.dtd">
<!-- Generated by graphviz version 2.36.0 (20140111.2315)
 -->
<!-- Title: %3 Pages: 1 -->
<svg width="524pt" height="260pt"
 viewBox="0.00 0.00 524.00 260.00" xmlns="http://www.w3.org/2000/svg" xmlns:xlink="http://www.w3.org/1999/xlink">
<g id="graph0" class="graph" transform="scale(1 1) rotate(0) translate(4 256)">
<title>%3</title>
<!-- RESPONSE_FUNCTIONS -->
<g id="node1" class="node"><title>RESPONSE_FUNCTIONS</title>
<g id="a_node1"><a xlink:href="RESPONSE_FUNCTIONS.html" xlink:title=" Response functions " target="_top">
<path fill="none" stroke="blue" stroke-width="2" d="M323,-180C323,-180 217,-180 217,-180 211,-180 205,-174 205,-168 205,-168 205,-156 205,-156 205,-150 211,-144 217,-144 217,-144 323,-144 323,-144 329,-144 335,-150 335,-156 335,-156 335,-168 335,-168 335,-174 329,-180 323,-180"/>
<text text-anchor="start" x="213" y="-158.3" font-family="Times,serif" font-size="14.00"> Response functions </text>
</a>
</g>
</g>
<!-- CANONICAL_ENSEMBLE -->
<g id="node2" class="node"><title>CANONICAL_ENSEMBLE</title>
<g id="a_node2"><a xlink:href="CANONICAL_ENSEMBLE.html" xlink:title=" The canonical ensemble " target="_top">
<path fill="none" stroke="black" d="M144,-108C144,-108 12,-108 12,-108 6,-108 0,-102 0,-96 0,-96 0,-84 0,-84 0,-78 6,-72 12,-72 12,-72 144,-72 144,-72 150,-72 156,-78 156,-84 156,-84 156,-96 156,-96 156,-102 150,-108 144,-108"/>
<text text-anchor="start" x="8" y="-86.3" font-family="Times,serif" font-size="14.00"> The canonical ensemble </text>
</a>
</g>
</g>
<!-- RESPONSE_FUNCTIONS&#45;&gt;CANONICAL_ENSEMBLE -->
<g id="edge1" class="edge"><title>RESPONSE_FUNCTIONS&#45;&gt;CANONICAL_ENSEMBLE</title>
<path fill="none" stroke="black" d="M223.032,-143.876C196.317,-134.137 162.679,-121.872 134.525,-111.608"/>
<polygon fill="black" stroke="black" points="135.41,-108.205 124.816,-108.068 133.012,-114.782 135.41,-108.205"/>
</g>
<!-- GRAND_CANONICAL_ENSEMBLE -->
<g id="node3" class="node"><title>GRAND_CANONICAL_ENSEMBLE</title>
<g id="a_node3"><a xlink:href="GRAND_CANONICAL_ENSEMBLE.html" xlink:title=" The grand canonical ensemble " target="_top">
<path fill="none" stroke="black" d="M353.25,-108C353.25,-108 186.75,-108 186.75,-108 180.75,-108 174.75,-102 174.75,-96 174.75,-96 174.75,-84 174.75,-84 174.75,-78 180.75,-72 186.75,-72 186.75,-72 353.25,-72 353.25,-72 359.25,-72 365.25,-78 365.25,-84 365.25,-84 365.25,-96 365.25,-96 365.25,-102 359.25,-108 353.25,-108"/>
<text text-anchor="start" x="182.5" y="-86.3" font-family="Times,serif" font-size="14.00"> The grand canonical ensemble </text>
</a>
</g>
</g>
<!-- RESPONSE_FUNCTIONS&#45;&gt;GRAND_CANONICAL_ENSEMBLE -->
<g id="edge2" class="edge"><title>RESPONSE_FUNCTIONS&#45;&gt;GRAND_CANONICAL_ENSEMBLE</title>
<path fill="none" stroke="black" d="M270,-143.697C270,-135.983 270,-126.712 270,-118.112"/>
<polygon fill="black" stroke="black" points="273.5,-118.104 270,-108.104 266.5,-118.104 273.5,-118.104"/>
</g>
<!-- ISOTHERMAL_ISOBARIC_ENSEMBLE -->
<g id="node6" class="node"><title>ISOTHERMAL_ISOBARIC_ENSEMBLE</title>
<g id="a_node6"><a xlink:href="ISOTHERMAL_ISOBARIC_ENSEMBLE.html" xlink:title=" The isothermal isobaric ensemble " target="_top">
<path fill="none" stroke="black" d="M328.25,-36C328.25,-36 143.75,-36 143.75,-36 137.75,-36 131.75,-30 131.75,-24 131.75,-24 131.75,-12 131.75,-12 131.75,-6 137.75,-0 143.75,-0 143.75,-0 328.25,-0 328.25,-0 334.25,-0 340.25,-6 340.25,-12 340.25,-12 340.25,-24 340.25,-24 340.25,-30 334.25,-36 328.25,-36"/>
<text text-anchor="start" x="139.5" y="-14.3" font-family="Times,serif" font-size="14.00"> The isothermal isobaric ensemble </text>
</a>
</g>
</g>
<!-- RESPONSE_FUNCTIONS&#45;&gt;ISOTHERMAL_ISOBARIC_ENSEMBLE -->
<g id="edge5" class="edge"><title>RESPONSE_FUNCTIONS&#45;&gt;ISOTHERMAL_ISOBARIC_ENSEMBLE</title>
<path fill="none" stroke="black" d="M329.729,-143.957C347.027,-135.946 363.942,-124.415 374,-108 382.359,-94.3575 383.061,-85.1868 374,-72 364.401,-58.0314 350.572,-47.7427 335.332,-40.1648"/>
<polygon fill="black" stroke="black" points="336.769,-36.9733 326.218,-36.0091 333.865,-43.3425 336.769,-36.9733"/>
</g>
<!-- CANONICAL_ENSEMBLE&#45;&gt;ISOTHERMAL_ISOBARIC_ENSEMBLE -->
<!-- MAXWELL_RELATIONS -->
<g id="node4" class="node"><title>MAXWELL_RELATIONS</title>
<g id="a_node4"><a xlink:href="MAXWELL_RELATIONS.html" xlink:title=" Maxwell relations " target="_top">
<path fill="none" stroke="black" d="M211.25,-252C211.25,-252 112.75,-252 112.75,-252 106.75,-252 100.75,-246 100.75,-240 100.75,-240 100.75,-228 100.75,-228 100.75,-222 106.75,-216 112.75,-216 112.75,-216 211.25,-216 211.25,-216 217.25,-216 223.25,-222 223.25,-228 223.25,-228 223.25,-240 223.25,-240 223.25,-246 217.25,-252 211.25,-252"/>
<text text-anchor="start" x="108.5" y="-230.3" font-family="Times,serif" font-size="14.00"> Maxwell relations </text>
</a>
</g>
</g>
<!-- MAXWELL_RELATIONS&#45;&gt;RESPONSE_FUNCTIONS -->
<g id="edge3" class="edge"><title>MAXWELL_RELATIONS&#45;&gt;RESPONSE_FUNCTIONS</title>
<path fill="none" stroke="black" d="M188.42,-215.876C202.41,-206.808 219.776,-195.552 234.886,-185.759"/>
<polygon fill="black" stroke="black" points="236.991,-188.566 243.479,-180.19 233.183,-182.692 236.991,-188.566"/>
</g>
<!-- LAWS_OF_THERMODYNAMICS -->
<g id="node5" class="node"><title>LAWS_OF_THERMODYNAMICS</title>
<g id="a_node5"><a xlink:href="LAWS_OF_THERMODYNAMICS.html" xlink:title=" The first and second laws of thermodynamics " target="_top">
<path fill="none" stroke="black" d="M504,-252C504,-252 254,-252 254,-252 248,-252 242,-246 242,-240 242,-240 242,-228 242,-228 242,-222 248,-216 254,-216 254,-216 504,-216 504,-216 510,-216 516,-222 516,-228 516,-228 516,-240 516,-240 516,-246 510,-252 504,-252"/>
<text text-anchor="start" x="250" y="-230.3" font-family="Times,serif" font-size="14.00"> The first and second laws of thermodynamics </text>
</a>
</g>
</g>
<!-- LAWS_OF_THERMODYNAMICS&#45;&gt;RESPONSE_FUNCTIONS -->
<g id="edge4" class="edge"><title>LAWS_OF_THERMODYNAMICS&#45;&gt;RESPONSE_FUNCTIONS</title>
<path fill="none" stroke="black" d="M352.336,-215.876C338.216,-206.808 320.689,-195.552 305.439,-185.759"/>
<polygon fill="black" stroke="black" points="307.073,-182.648 296.767,-180.19 303.29,-188.538 307.073,-182.648"/>
</g>
</g>
</svg>
