<?xml version="1.0" encoding="UTF-8" standalone="no"?>
<!DOCTYPE svg PUBLIC "-//W3C//DTD SVG 1.1//EN"
 "http://www.w3.org/Graphics/SVG/1.1/DTD/svg11.dtd">
<!-- Generated by graphviz version 2.26.3 (20100126.1600)
 -->
<!-- Title: _anonymous_0 Pages: 1 -->
<svg width="611pt" height="260pt"
 viewBox="0.00 0.00 611.00 260.00" xmlns="http://www.w3.org/2000/svg" xmlns:xlink="http://www.w3.org/1999/xlink">
<g id="graph1" class="graph" transform="scale(1 1) rotate(0) translate(4 256)">
<title>_anonymous_0</title>
<!-- RESPONSE_FUNCTIONS -->
<g id="node1" class="node"><title>RESPONSE_FUNCTIONS</title>
<a xlink:href="RESPONSE_FUNCTIONS.html" xlink:title="Response functions" target="_top">
<polyline fill="none" stroke="blue" stroke-width="2" points="376,-180 250,-180 "/>
<path fill="none" stroke="blue" stroke-width="2" d="M250,-180C244,-180 238,-174 238,-168"/>
<polyline fill="none" stroke="blue" stroke-width="2" points="238,-168 238,-156 "/>
<path fill="none" stroke="blue" stroke-width="2" d="M238,-156C238,-150 244,-144 250,-144"/>
<polyline fill="none" stroke="blue" stroke-width="2" points="250,-144 376,-144 "/>
<path fill="none" stroke="blue" stroke-width="2" d="M376,-144C382,-144 388,-150 388,-156"/>
<polyline fill="none" stroke="blue" stroke-width="2" points="388,-156 388,-168 "/>
<path fill="none" stroke="blue" stroke-width="2" d="M388,-168C388,-174 382,-180 376,-180"/>
<text text-anchor="start" x="246.5" y="-159.233" font-family="Times Roman,serif" font-size="14.00">Response functions</text>
</a>
</g>
<!-- CANONICAL_ENSEMBLE -->
<g id="node2" class="node"><title>CANONICAL_ENSEMBLE</title>
<a xlink:href="CANONICAL_ENSEMBLE.html" xlink:title="The canonical ensemble" target="_top">
<polyline fill="none" stroke="black" points="170,-108 12,-108 "/>
<path fill="none" stroke="black" d="M12,-108C6,-108 5.92119e-14,-102 4.73695e-14,-96"/>
<polyline fill="none" stroke="black" points="4.73695e-14,-96 2.36848e-14,-84 "/>
<path fill="none" stroke="black" d="M2.36848e-14,-84C1.18424e-14,-78 6,-72 12,-72"/>
<polyline fill="none" stroke="black" points="12,-72 170,-72 "/>
<path fill="none" stroke="black" d="M170,-72C176,-72 182,-78 182,-84"/>
<polyline fill="none" stroke="black" points="182,-84 182,-96 "/>
<path fill="none" stroke="black" d="M182,-96C182,-102 176,-108 170,-108"/>
<text text-anchor="start" x="8.5" y="-87.2333" font-family="Times Roman,serif" font-size="14.00">The canonical ensemble</text>
</a>
</g>
<!-- RESPONSE_FUNCTIONS&#45;&gt;CANONICAL_ENSEMBLE -->
<g id="edge2" class="edge"><title>RESPONSE_FUNCTIONS&#45;&gt;CANONICAL_ENSEMBLE</title>
<path fill="none" stroke="black" d="M257.267,-143.924C226.654,-133.996 188.512,-121.625 156.484,-111.238"/>
<polygon fill="black" stroke="black" points="157.348,-107.839 146.756,-108.083 155.189,-114.498 157.348,-107.839"/>
</g>
<!-- GRAND_CANONICAL_ENSEMBLE -->
<g id="node4" class="node"><title>GRAND_CANONICAL_ENSEMBLE</title>
<a xlink:href="GRAND_CANONICAL_ENSEMBLE.html" xlink:title="The grand canonical ensemble" target="_top">
<polyline fill="none" stroke="black" points="414,-108 212,-108 "/>
<path fill="none" stroke="black" d="M212,-108C206,-108 200,-102 200,-96"/>
<polyline fill="none" stroke="black" points="200,-96 200,-84 "/>
<path fill="none" stroke="black" d="M200,-84C200,-78 206,-72 212,-72"/>
<polyline fill="none" stroke="black" points="212,-72 414,-72 "/>
<path fill="none" stroke="black" d="M414,-72C420,-72 426,-78 426,-84"/>
<polyline fill="none" stroke="black" points="426,-84 426,-96 "/>
<path fill="none" stroke="black" d="M426,-96C426,-102 420,-108 414,-108"/>
<text text-anchor="start" x="208.5" y="-87.2333" font-family="Times Roman,serif" font-size="14.00">The grand canonical ensemble</text>
</a>
</g>
<!-- RESPONSE_FUNCTIONS&#45;&gt;GRAND_CANONICAL_ENSEMBLE -->
<g id="edge4" class="edge"><title>RESPONSE_FUNCTIONS&#45;&gt;GRAND_CANONICAL_ENSEMBLE</title>
<path fill="none" stroke="black" d="M313,-143.831C313,-136.131 313,-126.974 313,-118.417"/>
<polygon fill="black" stroke="black" points="316.5,-118.413 313,-108.413 309.5,-118.413 316.5,-118.413"/>
</g>
<!-- ISOTHERMAL_ISOBARIC_ENSEMBLE -->
<g id="node10" class="node"><title>ISOTHERMAL_ISOBARIC_ENSEMBLE</title>
<a xlink:href="ISOTHERMAL_ISOBARIC_ENSEMBLE.html" xlink:title="The isothermal isobaric ensemble" target="_top">
<polyline fill="none" stroke="black" points="383,-36 161,-36 "/>
<path fill="none" stroke="black" d="M161,-36C155,-36 149,-30 149,-24"/>
<polyline fill="none" stroke="black" points="149,-24 149,-12 "/>
<path fill="none" stroke="black" d="M149,-12C149,-6 155,-1.7417e-14 161,-1.70704e-14"/>
<polyline fill="none" stroke="black" points="161,-1.70704e-14 383,-4.24593e-15 "/>
<path fill="none" stroke="black" d="M383,-4.24593e-15C389,-3.89932e-15 395,-6 395,-12"/>
<polyline fill="none" stroke="black" points="395,-12 395,-24 "/>
<path fill="none" stroke="black" d="M395,-24C395,-30 389,-36 383,-36"/>
<text text-anchor="start" x="157" y="-15.2333" font-family="Times Roman,serif" font-size="14.00">The isothermal isobaric ensemble</text>
</a>
</g>
<!-- RESPONSE_FUNCTIONS&#45;&gt;ISOTHERMAL_ISOBARIC_ENSEMBLE -->
<g id="edge10" class="edge"><title>RESPONSE_FUNCTIONS&#45;&gt;ISOTHERMAL_ISOBARIC_ENSEMBLE</title>
<path fill="none" stroke="black" d="M388.251,-144.413C406.597,-136.401 424.07,-124.791 435,-108 443.729,-94.5908 444.367,-84.9713 435,-72 425.787,-59.242 396.449,-47.8225 365.153,-38.8075"/>
<polygon fill="black" stroke="black" points="365.97,-35.4019 355.397,-36.0881 364.09,-42.1448 365.97,-35.4019"/>
</g>
<!-- CANONICAL_ENSEMBLE&#45;&gt;ISOTHERMAL_ISOBARIC_ENSEMBLE -->
<!-- MAXWELL_RELATIONS -->
<g id="node6" class="node"><title>MAXWELL_RELATIONS</title>
<a xlink:href="MAXWELL_RELATIONS.html" xlink:title="Maxwell relations" target="_top">
<polyline fill="none" stroke="black" points="245,-252 131,-252 "/>
<path fill="none" stroke="black" d="M131,-252C125,-252 119,-246 119,-240"/>
<polyline fill="none" stroke="black" points="119,-240 119,-228 "/>
<path fill="none" stroke="black" d="M119,-228C119,-222 125,-216 131,-216"/>
<polyline fill="none" stroke="black" points="131,-216 245,-216 "/>
<path fill="none" stroke="black" d="M245,-216C251,-216 257,-222 257,-228"/>
<polyline fill="none" stroke="black" points="257,-228 257,-240 "/>
<path fill="none" stroke="black" d="M257,-240C257,-246 251,-252 245,-252"/>
<text text-anchor="start" x="127" y="-231.233" font-family="Times Roman,serif" font-size="14.00">Maxwell relations</text>
</a>
</g>
<!-- MAXWELL_RELATIONS&#45;&gt;RESPONSE_FUNCTIONS -->
<g id="edge6" class="edge"><title>MAXWELL_RELATIONS&#45;&gt;RESPONSE_FUNCTIONS</title>
<path fill="none" stroke="black" d="M219.543,-215.831C235.679,-206.537 255.499,-195.121 272.727,-185.197"/>
<polygon fill="black" stroke="black" points="274.549,-188.187 281.467,-180.163 271.055,-182.121 274.549,-188.187"/>
</g>
<!-- LAWS_OF_THERMODYNAMICS -->
<g id="node8" class="node"><title>LAWS_OF_THERMODYNAMICS</title>
<a xlink:href="LAWS_OF_THERMODYNAMICS.html" xlink:title="The first and second laws of thermodynamics" target="_top">
<polyline fill="none" stroke="black" points="591,-252 287,-252 "/>
<path fill="none" stroke="black" d="M287,-252C281,-252 275,-246 275,-240"/>
<polyline fill="none" stroke="black" points="275,-240 275,-228 "/>
<path fill="none" stroke="black" d="M275,-228C275,-222 281,-216 287,-216"/>
<polyline fill="none" stroke="black" points="287,-216 591,-216 "/>
<path fill="none" stroke="black" d="M591,-216C597,-216 603,-222 603,-228"/>
<polyline fill="none" stroke="black" points="603,-228 603,-240 "/>
<path fill="none" stroke="black" d="M603,-240C603,-246 597,-252 591,-252"/>
<text text-anchor="start" x="283" y="-231.233" font-family="Times Roman,serif" font-size="14.00">The first and second laws of thermodynamics</text>
</a>
</g>
<!-- LAWS_OF_THERMODYNAMICS&#45;&gt;RESPONSE_FUNCTIONS -->
<g id="edge8" class="edge"><title>LAWS_OF_THERMODYNAMICS&#45;&gt;RESPONSE_FUNCTIONS</title>
<path fill="none" stroke="black" d="M407.205,-215.831C390.939,-206.537 370.961,-195.121 353.595,-185.197"/>
<polygon fill="black" stroke="black" points="355.204,-182.085 344.785,-180.163 351.731,-188.163 355.204,-182.085"/>
</g>
</g>
</svg>
