<?xml version="1.0" encoding="UTF-8" standalone="no"?>
<!DOCTYPE svg PUBLIC "-//W3C//DTD SVG 1.1//EN"
 "http://www.w3.org/Graphics/SVG/1.1/DTD/svg11.dtd">
<!-- Generated by graphviz version 2.26.3 (20100126.1600)
 -->
<!-- Title: _anonymous_0 Pages: 1 -->
<svg width="492pt" height="116pt"
 viewBox="0.00 0.00 492.00 116.00" xmlns="http://www.w3.org/2000/svg" xmlns:xlink="http://www.w3.org/1999/xlink">
<g id="graph1" class="graph" transform="scale(1 1) rotate(0) translate(4 112)">
<title>_anonymous_0</title>
<!-- RESPONSE_FUNCTIONS -->
<g id="node1" class="node"><title>RESPONSE_FUNCTIONS</title>
<a xlink:href="RESPONSE_FUNCTIONS.html" xlink:title="Response functions" target="_top">
<polyline fill="none" stroke="blue" stroke-width="2" points="257,-36 131,-36 "/>
<path fill="none" stroke="blue" stroke-width="2" d="M131,-36C125,-36 119,-30 119,-24"/>
<polyline fill="none" stroke="blue" stroke-width="2" points="119,-24 119,-12 "/>
<path fill="none" stroke="blue" stroke-width="2" d="M119,-12C119,-6 125,-1.71951e-14 131,-1.66267e-14"/>
<polyline fill="none" stroke="blue" stroke-width="2" points="131,-1.66267e-14 257,-4.68958e-15 "/>
<path fill="none" stroke="blue" stroke-width="2" d="M257,-4.68958e-15C263,-4.12115e-15 269,-6 269,-12"/>
<polyline fill="none" stroke="blue" stroke-width="2" points="269,-12 269,-24 "/>
<path fill="none" stroke="blue" stroke-width="2" d="M269,-24C269,-30 263,-36 257,-36"/>
<text text-anchor="start" x="127.5" y="-15.2333" font-family="Times Roman,serif" font-size="14.00">Response functions</text>
</a>
</g>
<!-- MAXWELL_RELATIONS -->
<g id="node2" class="node"><title>MAXWELL_RELATIONS</title>
<a xlink:href="MAXWELL_RELATIONS.html" xlink:title="Maxwell relations" target="_top">
<polyline fill="none" stroke="black" points="126,-108 12,-108 "/>
<path fill="none" stroke="black" d="M12,-108C6,-108 4.73695e-14,-102 3.78956e-14,-96"/>
<polyline fill="none" stroke="black" points="3.78956e-14,-96 1.89478e-14,-84 "/>
<path fill="none" stroke="black" d="M1.89478e-14,-84C9.4739e-15,-78 6,-72 12,-72"/>
<polyline fill="none" stroke="black" points="12,-72 126,-72 "/>
<path fill="none" stroke="black" d="M126,-72C132,-72 138,-78 138,-84"/>
<polyline fill="none" stroke="black" points="138,-84 138,-96 "/>
<path fill="none" stroke="black" d="M138,-96C138,-102 132,-108 126,-108"/>
<text text-anchor="start" x="8" y="-87.2333" font-family="Times Roman,serif" font-size="14.00">Maxwell relations</text>
</a>
</g>
<!-- MAXWELL_RELATIONS&#45;&gt;RESPONSE_FUNCTIONS -->
<g id="edge2" class="edge"><title>MAXWELL_RELATIONS&#45;&gt;RESPONSE_FUNCTIONS</title>
<path fill="none" stroke="black" d="M100.543,-71.8314C116.679,-62.5368 136.499,-51.1208 153.727,-41.1971"/>
<polygon fill="black" stroke="black" points="155.549,-44.187 162.467,-36.1628 152.055,-38.1212 155.549,-44.187"/>
</g>
<!-- LAWS_OF_THERMODYNAMICS -->
<g id="node4" class="node"><title>LAWS_OF_THERMODYNAMICS</title>
<a xlink:href="LAWS_OF_THERMODYNAMICS.html" xlink:title="The first and second laws of thermodynamics" target="_top">
<polyline fill="none" stroke="black" points="472,-108 168,-108 "/>
<path fill="none" stroke="black" d="M168,-108C162,-108 156,-102 156,-96"/>
<polyline fill="none" stroke="black" points="156,-96 156,-84 "/>
<path fill="none" stroke="black" d="M156,-84C156,-78 162,-72 168,-72"/>
<polyline fill="none" stroke="black" points="168,-72 472,-72 "/>
<path fill="none" stroke="black" d="M472,-72C478,-72 484,-78 484,-84"/>
<polyline fill="none" stroke="black" points="484,-84 484,-96 "/>
<path fill="none" stroke="black" d="M484,-96C484,-102 478,-108 472,-108"/>
<text text-anchor="start" x="164" y="-87.2333" font-family="Times Roman,serif" font-size="14.00">The first and second laws of thermodynamics</text>
</a>
</g>
<!-- LAWS_OF_THERMODYNAMICS&#45;&gt;RESPONSE_FUNCTIONS -->
<g id="edge4" class="edge"><title>LAWS_OF_THERMODYNAMICS&#45;&gt;RESPONSE_FUNCTIONS</title>
<path fill="none" stroke="black" d="M288.205,-71.8314C271.939,-62.5368 251.961,-51.1208 234.595,-41.1971"/>
<polygon fill="black" stroke="black" points="236.204,-38.0854 225.785,-36.1628 232.731,-44.1631 236.204,-38.0854"/>
</g>
</g>
</svg>
