<?xml version="1.0" encoding="UTF-8" standalone="no"?>
<!DOCTYPE svg PUBLIC "-//W3C//DTD SVG 1.1//EN"
 "http://www.w3.org/Graphics/SVG/1.1/DTD/svg11.dtd">
<!-- Generated by graphviz version 2.26.3 (20100126.1600)
 -->
<!-- Title: _anonymous_0 Pages: 1 -->
<svg width="560pt" height="260pt"
 viewBox="0.00 0.00 560.00 260.00" xmlns="http://www.w3.org/2000/svg" xmlns:xlink="http://www.w3.org/1999/xlink">
<g id="graph1" class="graph" transform="scale(1 1) rotate(0) translate(4 256)">
<title>_anonymous_0</title>
<!-- RESPONSE_FUNCTIONS -->
<g id="node1" class="node"><title>RESPONSE_FUNCTIONS</title>
<a xlink:href="RESPONSE_FUNCTIONS.html" xlink:title=" Response functions " target="_top">
<polyline fill="none" stroke="blue" stroke-width="2" points="414,-180 280,-180 "/>
<path fill="none" stroke="blue" stroke-width="2" d="M280,-180C274,-180 268,-174 268,-168"/>
<polyline fill="none" stroke="blue" stroke-width="2" points="268,-168 268,-156 "/>
<path fill="none" stroke="blue" stroke-width="2" d="M268,-156C268,-150 274,-144 280,-144"/>
<polyline fill="none" stroke="blue" stroke-width="2" points="280,-144 414,-144 "/>
<path fill="none" stroke="blue" stroke-width="2" d="M414,-144C420,-144 426,-150 426,-156"/>
<polyline fill="none" stroke="blue" stroke-width="2" points="426,-156 426,-168 "/>
<path fill="none" stroke="blue" stroke-width="2" d="M426,-168C426,-174 420,-180 414,-180"/>
<text text-anchor="start" x="276" y="-159.233" font-family="Times Roman,serif" font-size="14.00"> Response functions </text>
</a>
</g>
<!-- GRAND_CANONICAL_ENSEMBLE -->
<g id="node2" class="node"><title>GRAND_CANONICAL_ENSEMBLE</title>
<a xlink:href="GRAND_CANONICAL_ENSEMBLE.html" xlink:title=" The grand canonical ensemble " target="_top">
<polyline fill="none" stroke="black" points="222,-108 12,-108 "/>
<path fill="none" stroke="black" d="M12,-108C6,-108 8.28967e-14,-102 6.63173e-14,-96"/>
<polyline fill="none" stroke="black" points="6.63173e-14,-96 3.31587e-14,-84 "/>
<path fill="none" stroke="black" d="M3.31587e-14,-84C1.65793e-14,-78 6,-72 12,-72"/>
<polyline fill="none" stroke="black" points="12,-72 222,-72 "/>
<path fill="none" stroke="black" d="M222,-72C228,-72 234,-78 234,-84"/>
<polyline fill="none" stroke="black" points="234,-84 234,-96 "/>
<path fill="none" stroke="black" d="M234,-96C234,-102 228,-108 222,-108"/>
<text text-anchor="start" x="8" y="-87.2333" font-family="Times Roman,serif" font-size="14.00"> The grand canonical ensemble </text>
</a>
</g>
<!-- RESPONSE_FUNCTIONS&#45;&gt;GRAND_CANONICAL_ENSEMBLE -->
<g id="edge2" class="edge"><title>RESPONSE_FUNCTIONS&#45;&gt;GRAND_CANONICAL_ENSEMBLE</title>
<path fill="none" stroke="black" d="M289.258,-143.924C257.406,-133.953 217.685,-121.519 184.416,-111.104"/>
<polygon fill="black" stroke="black" points="185.355,-107.731 174.766,-108.083 183.263,-114.411 185.355,-107.731"/>
</g>
<!-- CANONICAL_ENSEMBLE -->
<g id="node8" class="node"><title>CANONICAL_ENSEMBLE</title>
<a xlink:href="CANONICAL_ENSEMBLE.html" xlink:title=" The canonical ensemble " target="_top">
<polyline fill="none" stroke="black" points="430,-108 264,-108 "/>
<path fill="none" stroke="black" d="M264,-108C258,-108 252,-102 252,-96"/>
<polyline fill="none" stroke="black" points="252,-96 252,-84 "/>
<path fill="none" stroke="black" d="M252,-84C252,-78 258,-72 264,-72"/>
<polyline fill="none" stroke="black" points="264,-72 430,-72 "/>
<path fill="none" stroke="black" d="M430,-72C436,-72 442,-78 442,-84"/>
<polyline fill="none" stroke="black" points="442,-84 442,-96 "/>
<path fill="none" stroke="black" d="M442,-96C442,-102 436,-108 430,-108"/>
<text text-anchor="start" x="260" y="-87.2333" font-family="Times Roman,serif" font-size="14.00"> The canonical ensemble </text>
</a>
</g>
<!-- RESPONSE_FUNCTIONS&#45;&gt;CANONICAL_ENSEMBLE -->
<g id="edge8" class="edge"><title>RESPONSE_FUNCTIONS&#45;&gt;CANONICAL_ENSEMBLE</title>
<path fill="none" stroke="black" d="M347,-143.831C347,-136.131 347,-126.974 347,-118.417"/>
<polygon fill="black" stroke="black" points="350.5,-118.413 347,-108.413 343.5,-118.413 350.5,-118.413"/>
</g>
<!-- ISOTHERMAL_ISOBARIC_ENSEMBLE -->
<g id="node10" class="node"><title>ISOTHERMAL_ISOBARIC_ENSEMBLE</title>
<a xlink:href="ISOTHERMAL_ISOBARIC_ENSEMBLE.html" xlink:title=" The isothermal isobaric ensemble " target="_top">
<polyline fill="none" stroke="black" points="409,-36 177,-36 "/>
<path fill="none" stroke="black" d="M177,-36C171,-36 165,-30 165,-24"/>
<polyline fill="none" stroke="black" points="165,-24 165,-12 "/>
<path fill="none" stroke="black" d="M165,-12C165,-6 171,-1.74305e-14 177,-1.70974e-14"/>
<polyline fill="none" stroke="black" points="177,-1.70974e-14 409,-4.21885e-15 "/>
<path fill="none" stroke="black" d="M409,-4.21885e-15C415,-3.88578e-15 421,-6 421,-12"/>
<polyline fill="none" stroke="black" points="421,-12 421,-24 "/>
<path fill="none" stroke="black" d="M421,-24C421,-30 415,-36 409,-36"/>
<text text-anchor="start" x="173.5" y="-15.2333" font-family="Times Roman,serif" font-size="14.00"> The isothermal isobaric ensemble </text>
</a>
</g>
<!-- RESPONSE_FUNCTIONS&#45;&gt;ISOTHERMAL_ISOBARIC_ENSEMBLE -->
<g id="edge10" class="edge"><title>RESPONSE_FUNCTIONS&#45;&gt;ISOTHERMAL_ISOBARIC_ENSEMBLE</title>
<path fill="none" stroke="black" d="M407.576,-143.999C424.588,-135.842 441.123,-124.257 451,-108 459.308,-94.3258 460.306,-85.0152 451,-72 442.024,-59.4461 413.181,-47.9935 382.552,-38.8979"/>
<polygon fill="black" stroke="black" points="383.145,-35.4267 372.567,-36.0291 381.212,-42.1545 383.145,-35.4267"/>
</g>
<!-- GRAND_CANONICAL_ENSEMBLE&#45;&gt;ISOTHERMAL_ISOBARIC_ENSEMBLE -->
<!-- LAWS_OF_THERMODYNAMICS -->
<g id="node4" class="node"><title>LAWS_OF_THERMODYNAMICS</title>
<a xlink:href="LAWS_OF_THERMODYNAMICS.html" xlink:title=" The first and second laws of thermodynamics " target="_top">
<polyline fill="none" stroke="black" points="374,-252 60,-252 "/>
<path fill="none" stroke="black" d="M60,-252C54,-252 48,-246 48,-240"/>
<polyline fill="none" stroke="black" points="48,-240 48,-228 "/>
<path fill="none" stroke="black" d="M48,-228C48,-222 54,-216 60,-216"/>
<polyline fill="none" stroke="black" points="60,-216 374,-216 "/>
<path fill="none" stroke="black" d="M374,-216C380,-216 386,-222 386,-228"/>
<polyline fill="none" stroke="black" points="386,-228 386,-240 "/>
<path fill="none" stroke="black" d="M386,-240C386,-246 380,-252 374,-252"/>
<text text-anchor="start" x="56.5" y="-231.233" font-family="Times Roman,serif" font-size="14.00"> The first and second laws of thermodynamics </text>
</a>
</g>
<!-- LAWS_OF_THERMODYNAMICS&#45;&gt;RESPONSE_FUNCTIONS -->
<g id="edge4" class="edge"><title>LAWS_OF_THERMODYNAMICS&#45;&gt;RESPONSE_FUNCTIONS</title>
<path fill="none" stroke="black" d="M249.804,-215.831C266.586,-206.537 287.199,-195.121 305.116,-185.197"/>
<polygon fill="black" stroke="black" points="307.154,-188.07 314.206,-180.163 303.762,-181.946 307.154,-188.07"/>
</g>
<!-- MAXWELL_RELATIONS -->
<g id="node6" class="node"><title>MAXWELL_RELATIONS</title>
<a xlink:href="MAXWELL_RELATIONS.html" xlink:title=" Maxwell relations " target="_top">
<polyline fill="none" stroke="black" points="540,-252 416,-252 "/>
<path fill="none" stroke="black" d="M416,-252C410,-252 404,-246 404,-240"/>
<polyline fill="none" stroke="black" points="404,-240 404,-228 "/>
<path fill="none" stroke="black" d="M404,-228C404,-222 410,-216 416,-216"/>
<polyline fill="none" stroke="black" points="416,-216 540,-216 "/>
<path fill="none" stroke="black" d="M540,-216C546,-216 552,-222 552,-228"/>
<polyline fill="none" stroke="black" points="552,-228 552,-240 "/>
<path fill="none" stroke="black" d="M552,-240C552,-246 546,-252 540,-252"/>
<text text-anchor="start" x="412.5" y="-231.233" font-family="Times Roman,serif" font-size="14.00"> Maxwell relations </text>
</a>
</g>
<!-- MAXWELL_RELATIONS&#45;&gt;RESPONSE_FUNCTIONS -->
<g id="edge6" class="edge"><title>MAXWELL_RELATIONS&#45;&gt;RESPONSE_FUNCTIONS</title>
<path fill="none" stroke="black" d="M444.943,-215.831C428.032,-206.537 407.261,-195.121 389.206,-185.197"/>
<polygon fill="black" stroke="black" points="390.496,-181.912 380.046,-180.163 387.124,-188.047 390.496,-181.912"/>
</g>
</g>
</svg>
