<?xml version="1.0" encoding="UTF-8" standalone="no"?>
<!DOCTYPE svg PUBLIC "-//W3C//DTD SVG 1.1//EN"
 "http://www.w3.org/Graphics/SVG/1.1/DTD/svg11.dtd">
<!-- Generated by graphviz version 2.26.3 (20100126.1600)
 -->
<!-- Title: _anonymous_0 Pages: 1 -->
<svg width="570pt" height="260pt"
 viewBox="0.00 0.00 570.00 260.00" xmlns="http://www.w3.org/2000/svg" xmlns:xlink="http://www.w3.org/1999/xlink">
<g id="graph1" class="graph" transform="scale(1 1) rotate(0) translate(4 256)">
<title>_anonymous_0</title>
<!-- RESPONSE_FUNCTIONS -->
<g id="node1" class="node"><title>RESPONSE_FUNCTIONS</title>
<a xlink:href="RESPONSE_FUNCTIONS.html" xlink:title="Response functions" target="_top">
<polyline fill="none" stroke="blue" stroke-width="2" points="430,-180 304,-180 "/>
<path fill="none" stroke="blue" stroke-width="2" d="M304,-180C298,-180 292,-174 292,-168"/>
<polyline fill="none" stroke="blue" stroke-width="2" points="292,-168 292,-156 "/>
<path fill="none" stroke="blue" stroke-width="2" d="M292,-156C292,-150 298,-144 304,-144"/>
<polyline fill="none" stroke="blue" stroke-width="2" points="304,-144 430,-144 "/>
<path fill="none" stroke="blue" stroke-width="2" d="M430,-144C436,-144 442,-150 442,-156"/>
<polyline fill="none" stroke="blue" stroke-width="2" points="442,-156 442,-168 "/>
<path fill="none" stroke="blue" stroke-width="2" d="M442,-168C442,-174 436,-180 430,-180"/>
<text text-anchor="start" x="300.5" y="-159.233" font-family="Times Roman,serif" font-size="14.00">Response functions</text>
</a>
</g>
<!-- GRAND_CANONICAL_ENSEMBLE -->
<g id="node2" class="node"><title>GRAND_CANONICAL_ENSEMBLE</title>
<a xlink:href="GRAND_CANONICAL_ENSEMBLE.html" xlink:title="The grand canonical ensemble" target="_top">
<polyline fill="none" stroke="black" points="214,-108 12,-108 "/>
<path fill="none" stroke="black" d="M12,-108C6,-108 7.10543e-14,-102 5.68434e-14,-96"/>
<polyline fill="none" stroke="black" points="5.68434e-14,-96 2.84217e-14,-84 "/>
<path fill="none" stroke="black" d="M2.84217e-14,-84C1.42109e-14,-78 6,-72 12,-72"/>
<polyline fill="none" stroke="black" points="12,-72 214,-72 "/>
<path fill="none" stroke="black" d="M214,-72C220,-72 226,-78 226,-84"/>
<polyline fill="none" stroke="black" points="226,-84 226,-96 "/>
<path fill="none" stroke="black" d="M226,-96C226,-102 220,-108 214,-108"/>
<text text-anchor="start" x="8.5" y="-87.2333" font-family="Times Roman,serif" font-size="14.00">The grand canonical ensemble</text>
</a>
</g>
<!-- RESPONSE_FUNCTIONS&#45;&gt;GRAND_CANONICAL_ENSEMBLE -->
<g id="edge2" class="edge"><title>RESPONSE_FUNCTIONS&#45;&gt;GRAND_CANONICAL_ENSEMBLE</title>
<path fill="none" stroke="black" d="M303.233,-143.924C267.755,-133.868 223.438,-121.305 186.506,-110.836"/>
<polygon fill="black" stroke="black" points="187.369,-107.443 176.793,-108.083 185.46,-114.178 187.369,-107.443"/>
</g>
<!-- ISOTHERMAL_ISOBARIC_ENSEMBLE -->
<g id="node4" class="node"><title>ISOTHERMAL_ISOBARIC_ENSEMBLE</title>
<a xlink:href="ISOTHERMAL_ISOBARIC_ENSEMBLE.html" xlink:title="The isothermal isobaric ensemble" target="_top">
<polyline fill="none" stroke="black" points="478,-108 256,-108 "/>
<path fill="none" stroke="black" d="M256,-108C250,-108 244,-102 244,-96"/>
<polyline fill="none" stroke="black" points="244,-96 244,-84 "/>
<path fill="none" stroke="black" d="M244,-84C244,-78 250,-72 256,-72"/>
<polyline fill="none" stroke="black" points="256,-72 478,-72 "/>
<path fill="none" stroke="black" d="M478,-72C484,-72 490,-78 490,-84"/>
<polyline fill="none" stroke="black" points="490,-84 490,-96 "/>
<path fill="none" stroke="black" d="M490,-96C490,-102 484,-108 478,-108"/>
<text text-anchor="start" x="252" y="-87.2333" font-family="Times Roman,serif" font-size="14.00">The isothermal isobaric ensemble</text>
</a>
</g>
<!-- RESPONSE_FUNCTIONS&#45;&gt;ISOTHERMAL_ISOBARIC_ENSEMBLE -->
<g id="edge4" class="edge"><title>RESPONSE_FUNCTIONS&#45;&gt;ISOTHERMAL_ISOBARIC_ENSEMBLE</title>
<path fill="none" stroke="black" d="M367,-143.831C367,-136.131 367,-126.974 367,-118.417"/>
<polygon fill="black" stroke="black" points="370.5,-118.413 367,-108.413 363.5,-118.413 370.5,-118.413"/>
</g>
<!-- CANONICAL_ENSEMBLE -->
<g id="node10" class="node"><title>CANONICAL_ENSEMBLE</title>
<a xlink:href="CANONICAL_ENSEMBLE.html" xlink:title="The canonical ensemble" target="_top">
<polyline fill="none" stroke="black" points="394,-36 236,-36 "/>
<path fill="none" stroke="black" d="M236,-36C230,-36 224,-30 224,-24"/>
<polyline fill="none" stroke="black" points="224,-24 224,-12 "/>
<path fill="none" stroke="black" d="M224,-12C224,-6 230,-1.72951e-14 236,-1.68266e-14"/>
<polyline fill="none" stroke="black" points="236,-1.68266e-14 394,-4.48969e-15 "/>
<path fill="none" stroke="black" d="M394,-4.48969e-15C400,-4.0212e-15 406,-6 406,-12"/>
<polyline fill="none" stroke="black" points="406,-12 406,-24 "/>
<path fill="none" stroke="black" d="M406,-24C406,-30 400,-36 394,-36"/>
<text text-anchor="start" x="232.5" y="-15.2333" font-family="Times Roman,serif" font-size="14.00">The canonical ensemble</text>
</a>
</g>
<!-- RESPONSE_FUNCTIONS&#45;&gt;CANONICAL_ENSEMBLE -->
<g id="edge10" class="edge"><title>RESPONSE_FUNCTIONS&#45;&gt;CANONICAL_ENSEMBLE</title>
<path fill="none" stroke="black" d="M442.055,-148.088C464.104,-140.132 485.82,-127.632 499,-108 507.918,-94.716 508.589,-84.808 499,-72 488.079,-57.4134 452.854,-45.4277 416.106,-36.4856"/>
<polygon fill="black" stroke="black" points="416.771,-33.0464 406.235,-34.1616 415.166,-39.8601 416.771,-33.0464"/>
</g>
<!-- GRAND_CANONICAL_ENSEMBLE&#45;&gt;CANONICAL_ENSEMBLE -->
<!-- LAWS_OF_THERMODYNAMICS -->
<g id="node6" class="node"><title>LAWS_OF_THERMODYNAMICS</title>
<a xlink:href="LAWS_OF_THERMODYNAMICS.html" xlink:title="The first and second laws of thermodynamics" target="_top">
<polyline fill="none" stroke="black" points="394,-252 90,-252 "/>
<path fill="none" stroke="black" d="M90,-252C84,-252 78,-246 78,-240"/>
<polyline fill="none" stroke="black" points="78,-240 78,-228 "/>
<path fill="none" stroke="black" d="M78,-228C78,-222 84,-216 90,-216"/>
<polyline fill="none" stroke="black" points="90,-216 394,-216 "/>
<path fill="none" stroke="black" d="M394,-216C400,-216 406,-222 406,-228"/>
<polyline fill="none" stroke="black" points="406,-228 406,-240 "/>
<path fill="none" stroke="black" d="M406,-240C406,-246 400,-252 394,-252"/>
<text text-anchor="start" x="86" y="-231.233" font-family="Times Roman,serif" font-size="14.00">The first and second laws of thermodynamics</text>
</a>
</g>
<!-- LAWS_OF_THERMODYNAMICS&#45;&gt;RESPONSE_FUNCTIONS -->
<g id="edge6" class="edge"><title>LAWS_OF_THERMODYNAMICS&#45;&gt;RESPONSE_FUNCTIONS</title>
<path fill="none" stroke="black" d="M273.543,-215.831C289.679,-206.537 309.499,-195.121 326.727,-185.197"/>
<polygon fill="black" stroke="black" points="328.549,-188.187 335.467,-180.163 325.055,-182.121 328.549,-188.187"/>
</g>
<!-- MAXWELL_RELATIONS -->
<g id="node8" class="node"><title>MAXWELL_RELATIONS</title>
<a xlink:href="MAXWELL_RELATIONS.html" xlink:title="Maxwell relations" target="_top">
<polyline fill="none" stroke="black" points="550,-252 436,-252 "/>
<path fill="none" stroke="black" d="M436,-252C430,-252 424,-246 424,-240"/>
<polyline fill="none" stroke="black" points="424,-240 424,-228 "/>
<path fill="none" stroke="black" d="M424,-228C424,-222 430,-216 436,-216"/>
<polyline fill="none" stroke="black" points="436,-216 550,-216 "/>
<path fill="none" stroke="black" d="M550,-216C556,-216 562,-222 562,-228"/>
<polyline fill="none" stroke="black" points="562,-228 562,-240 "/>
<path fill="none" stroke="black" d="M562,-240C562,-246 556,-252 550,-252"/>
<text text-anchor="start" x="432" y="-231.233" font-family="Times Roman,serif" font-size="14.00">Maxwell relations</text>
</a>
</g>
<!-- MAXWELL_RELATIONS&#45;&gt;RESPONSE_FUNCTIONS -->
<g id="edge8" class="edge"><title>MAXWELL_RELATIONS&#45;&gt;RESPONSE_FUNCTIONS</title>
<path fill="none" stroke="black" d="M461.205,-215.831C444.939,-206.537 424.961,-195.121 407.595,-185.197"/>
<polygon fill="black" stroke="black" points="409.204,-182.085 398.785,-180.163 405.731,-188.163 409.204,-182.085"/>
</g>
</g>
</svg>
