<?xml version="1.0" encoding="UTF-8" standalone="no"?>
<!DOCTYPE svg PUBLIC "-//W3C//DTD SVG 1.1//EN"
 "http://www.w3.org/Graphics/SVG/1.1/DTD/svg11.dtd">
<!-- Generated by graphviz version 2.36.0 (20140111.2315)
 -->
<!-- Title: %3 Pages: 1 -->
<svg width="465pt" height="260pt"
 viewBox="0.00 0.00 465.00 260.00" xmlns="http://www.w3.org/2000/svg" xmlns:xlink="http://www.w3.org/1999/xlink">
<g id="graph0" class="graph" transform="scale(1 1) rotate(0) translate(4 256)">
<title>%3</title>
<!-- RESPONSE_FUNCTIONS -->
<g id="node1" class="node"><title>RESPONSE_FUNCTIONS</title>
<g id="a_node1"><a xlink:href="RESPONSE_FUNCTIONS.html" xlink:title=" Response functions " target="_top">
<path fill="none" stroke="blue" stroke-width="2" d="M340,-180C340,-180 234,-180 234,-180 228,-180 222,-174 222,-168 222,-168 222,-156 222,-156 222,-150 228,-144 234,-144 234,-144 340,-144 340,-144 346,-144 352,-150 352,-156 352,-156 352,-168 352,-168 352,-174 346,-180 340,-180"/>
<text text-anchor="start" x="230" y="-158.3" font-family="Times,serif" font-size="14.00"> Response functions </text>
</a>
</g>
</g>
<!-- GRAND_CANONICAL_ENSEMBLE -->
<g id="node4" class="node"><title>GRAND_CANONICAL_ENSEMBLE</title>
<g id="a_node4"><a xlink:href="GRAND_CANONICAL_ENSEMBLE.html" xlink:title=" The grand canonical ensemble " target="_top">
<path fill="none" stroke="black" d="M178.25,-108C178.25,-108 11.75,-108 11.75,-108 5.75,-108 -0.25,-102 -0.25,-96 -0.25,-96 -0.25,-84 -0.25,-84 -0.25,-78 5.75,-72 11.75,-72 11.75,-72 178.25,-72 178.25,-72 184.25,-72 190.25,-78 190.25,-84 190.25,-84 190.25,-96 190.25,-96 190.25,-102 184.25,-108 178.25,-108"/>
<text text-anchor="start" x="7.5" y="-86.3" font-family="Times,serif" font-size="14.00"> The grand canonical ensemble </text>
</a>
</g>
</g>
<!-- RESPONSE_FUNCTIONS&#45;&gt;GRAND_CANONICAL_ENSEMBLE -->
<g id="edge3" class="edge"><title>RESPONSE_FUNCTIONS&#45;&gt;GRAND_CANONICAL_ENSEMBLE</title>
<path fill="none" stroke="black" d="M240.032,-143.876C213.317,-134.137 179.679,-121.872 151.525,-111.608"/>
<polygon fill="black" stroke="black" points="152.41,-108.205 141.816,-108.068 150.012,-114.782 152.41,-108.205"/>
</g>
<!-- CANONICAL_ENSEMBLE -->
<g id="node5" class="node"><title>CANONICAL_ENSEMBLE</title>
<g id="a_node5"><a xlink:href="CANONICAL_ENSEMBLE.html" xlink:title=" The canonical ensemble " target="_top">
<path fill="none" stroke="black" d="M353,-108C353,-108 221,-108 221,-108 215,-108 209,-102 209,-96 209,-96 209,-84 209,-84 209,-78 215,-72 221,-72 221,-72 353,-72 353,-72 359,-72 365,-78 365,-84 365,-84 365,-96 365,-96 365,-102 359,-108 353,-108"/>
<text text-anchor="start" x="217" y="-86.3" font-family="Times,serif" font-size="14.00"> The canonical ensemble </text>
</a>
</g>
</g>
<!-- RESPONSE_FUNCTIONS&#45;&gt;CANONICAL_ENSEMBLE -->
<g id="edge4" class="edge"><title>RESPONSE_FUNCTIONS&#45;&gt;CANONICAL_ENSEMBLE</title>
<path fill="none" stroke="black" d="M287,-143.697C287,-135.983 287,-126.712 287,-118.112"/>
<polygon fill="black" stroke="black" points="290.5,-118.104 287,-108.104 283.5,-118.104 290.5,-118.104"/>
</g>
<!-- ISOTHERMAL_ISOBARIC_ENSEMBLE -->
<g id="node6" class="node"><title>ISOTHERMAL_ISOBARIC_ENSEMBLE</title>
<g id="a_node6"><a xlink:href="ISOTHERMAL_ISOBARIC_ENSEMBLE.html" xlink:title=" The isothermal isobaric ensemble " target="_top">
<path fill="none" stroke="black" d="M336.25,-36C336.25,-36 151.75,-36 151.75,-36 145.75,-36 139.75,-30 139.75,-24 139.75,-24 139.75,-12 139.75,-12 139.75,-6 145.75,-0 151.75,-0 151.75,-0 336.25,-0 336.25,-0 342.25,-0 348.25,-6 348.25,-12 348.25,-12 348.25,-24 348.25,-24 348.25,-30 342.25,-36 336.25,-36"/>
<text text-anchor="start" x="147.5" y="-14.3" font-family="Times,serif" font-size="14.00"> The isothermal isobaric ensemble </text>
</a>
</g>
</g>
<!-- RESPONSE_FUNCTIONS&#45;&gt;ISOTHERMAL_ISOBARIC_ENSEMBLE -->
<g id="edge5" class="edge"><title>RESPONSE_FUNCTIONS&#45;&gt;ISOTHERMAL_ISOBARIC_ENSEMBLE</title>
<path fill="none" stroke="black" d="M333.522,-143.854C349.252,-135.564 365.078,-123.882 374,-108 381.836,-94.0503 382.926,-85.2787 374,-72 364.71,-58.1804 351.12,-47.9623 336.186,-40.4076"/>
<polygon fill="black" stroke="black" points="337.286,-37.0602 326.741,-36.0395 334.348,-43.4137 337.286,-37.0602"/>
</g>
<!-- LAWS_OF_THERMODYNAMICS -->
<g id="node2" class="node"><title>LAWS_OF_THERMODYNAMICS</title>
<g id="a_node2"><a xlink:href="LAWS_OF_THERMODYNAMICS.html" xlink:title=" The first and second laws of thermodynamics " target="_top">
<path fill="none" stroke="black" d="M304,-252C304,-252 54,-252 54,-252 48,-252 42,-246 42,-240 42,-240 42,-228 42,-228 42,-222 48,-216 54,-216 54,-216 304,-216 304,-216 310,-216 316,-222 316,-228 316,-228 316,-240 316,-240 316,-246 310,-252 304,-252"/>
<text text-anchor="start" x="50" y="-230.3" font-family="Times,serif" font-size="14.00"> The first and second laws of thermodynamics </text>
</a>
</g>
</g>
<!-- LAWS_OF_THERMODYNAMICS&#45;&gt;RESPONSE_FUNCTIONS -->
<g id="edge1" class="edge"><title>LAWS_OF_THERMODYNAMICS&#45;&gt;RESPONSE_FUNCTIONS</title>
<path fill="none" stroke="black" d="M205.42,-215.876C219.41,-206.808 236.776,-195.552 251.886,-185.759"/>
<polygon fill="black" stroke="black" points="253.991,-188.566 260.479,-180.19 250.183,-182.692 253.991,-188.566"/>
</g>
<!-- MAXWELL_RELATIONS -->
<g id="node3" class="node"><title>MAXWELL_RELATIONS</title>
<g id="a_node3"><a xlink:href="MAXWELL_RELATIONS.html" xlink:title=" Maxwell relations " target="_top">
<path fill="none" stroke="black" d="M445.25,-252C445.25,-252 346.75,-252 346.75,-252 340.75,-252 334.75,-246 334.75,-240 334.75,-240 334.75,-228 334.75,-228 334.75,-222 340.75,-216 346.75,-216 346.75,-216 445.25,-216 445.25,-216 451.25,-216 457.25,-222 457.25,-228 457.25,-228 457.25,-240 457.25,-240 457.25,-246 451.25,-252 445.25,-252"/>
<text text-anchor="start" x="342.5" y="-230.3" font-family="Times,serif" font-size="14.00"> Maxwell relations </text>
</a>
</g>
</g>
<!-- MAXWELL_RELATIONS&#45;&gt;RESPONSE_FUNCTIONS -->
<g id="edge2" class="edge"><title>MAXWELL_RELATIONS&#45;&gt;RESPONSE_FUNCTIONS</title>
<path fill="none" stroke="black" d="M369.336,-215.876C355.216,-206.808 337.689,-195.552 322.439,-185.759"/>
<polygon fill="black" stroke="black" points="324.073,-182.648 313.767,-180.19 320.29,-188.538 324.073,-182.648"/>
</g>
<!-- GRAND_CANONICAL_ENSEMBLE&#45;&gt;ISOTHERMAL_ISOBARIC_ENSEMBLE -->
</g>
</svg>
