<?xml version="1.0" encoding="UTF-8" standalone="no"?>
<!DOCTYPE svg PUBLIC "-//W3C//DTD SVG 1.1//EN"
 "http://www.w3.org/Graphics/SVG/1.1/DTD/svg11.dtd">
<!-- Generated by graphviz version 2.26.3 (20100126.1600)
 -->
<!-- Title: _anonymous_0 Pages: 1 -->
<svg width="621pt" height="260pt"
 viewBox="0.00 0.00 621.00 260.00" xmlns="http://www.w3.org/2000/svg" xmlns:xlink="http://www.w3.org/1999/xlink">
<g id="graph1" class="graph" transform="scale(1 1) rotate(0) translate(4 256)">
<title>_anonymous_0</title>
<!-- RESPONSE_FUNCTIONS -->
<g id="node1" class="node"><title>RESPONSE_FUNCTIONS</title>
<a xlink:href="RESPONSE_FUNCTIONS.html" xlink:title="Response functions" target="_top">
<polyline fill="none" stroke="blue" stroke-width="2" points="386,-180 260,-180 "/>
<path fill="none" stroke="blue" stroke-width="2" d="M260,-180C254,-180 248,-174 248,-168"/>
<polyline fill="none" stroke="blue" stroke-width="2" points="248,-168 248,-156 "/>
<path fill="none" stroke="blue" stroke-width="2" d="M248,-156C248,-150 254,-144 260,-144"/>
<polyline fill="none" stroke="blue" stroke-width="2" points="260,-144 386,-144 "/>
<path fill="none" stroke="blue" stroke-width="2" d="M386,-144C392,-144 398,-150 398,-156"/>
<polyline fill="none" stroke="blue" stroke-width="2" points="398,-156 398,-168 "/>
<path fill="none" stroke="blue" stroke-width="2" d="M398,-168C398,-174 392,-180 386,-180"/>
<text text-anchor="start" x="256.5" y="-159.233" font-family="Times Roman,serif" font-size="14.00">Response functions</text>
</a>
</g>
<!-- CANONICAL_ENSEMBLE -->
<g id="node2" class="node"><title>CANONICAL_ENSEMBLE</title>
<a xlink:href="CANONICAL_ENSEMBLE.html" xlink:title="The canonical ensemble" target="_top">
<polyline fill="none" stroke="black" points="170,-108 12,-108 "/>
<path fill="none" stroke="black" d="M12,-108C6,-108 5.92119e-14,-102 4.73695e-14,-96"/>
<polyline fill="none" stroke="black" points="4.73695e-14,-96 2.36848e-14,-84 "/>
<path fill="none" stroke="black" d="M2.36848e-14,-84C1.18424e-14,-78 6,-72 12,-72"/>
<polyline fill="none" stroke="black" points="12,-72 170,-72 "/>
<path fill="none" stroke="black" d="M170,-72C176,-72 182,-78 182,-84"/>
<polyline fill="none" stroke="black" points="182,-84 182,-96 "/>
<path fill="none" stroke="black" d="M182,-96C182,-102 176,-108 170,-108"/>
<text text-anchor="start" x="8.5" y="-87.2333" font-family="Times Roman,serif" font-size="14.00">The canonical ensemble</text>
</a>
</g>
<!-- RESPONSE_FUNCTIONS&#45;&gt;CANONICAL_ENSEMBLE -->
<g id="edge2" class="edge"><title>RESPONSE_FUNCTIONS&#45;&gt;CANONICAL_ENSEMBLE</title>
<path fill="none" stroke="black" d="M264.756,-143.924C232.627,-133.953 192.561,-121.519 159.002,-111.104"/>
<polygon fill="black" stroke="black" points="159.856,-107.704 149.268,-108.083 157.781,-114.39 159.856,-107.704"/>
</g>
<!-- ISOTHERMAL_ISOBARIC_ENSEMBLE -->
<g id="node6" class="node"><title>ISOTHERMAL_ISOBARIC_ENSEMBLE</title>
<a xlink:href="ISOTHERMAL_ISOBARIC_ENSEMBLE.html" xlink:title="The isothermal isobaric ensemble" target="_top">
<polyline fill="none" stroke="black" points="434,-108 212,-108 "/>
<path fill="none" stroke="black" d="M212,-108C206,-108 200,-102 200,-96"/>
<polyline fill="none" stroke="black" points="200,-96 200,-84 "/>
<path fill="none" stroke="black" d="M200,-84C200,-78 206,-72 212,-72"/>
<polyline fill="none" stroke="black" points="212,-72 434,-72 "/>
<path fill="none" stroke="black" d="M434,-72C440,-72 446,-78 446,-84"/>
<polyline fill="none" stroke="black" points="446,-84 446,-96 "/>
<path fill="none" stroke="black" d="M446,-96C446,-102 440,-108 434,-108"/>
<text text-anchor="start" x="208" y="-87.2333" font-family="Times Roman,serif" font-size="14.00">The isothermal isobaric ensemble</text>
</a>
</g>
<!-- RESPONSE_FUNCTIONS&#45;&gt;ISOTHERMAL_ISOBARIC_ENSEMBLE -->
<g id="edge6" class="edge"><title>RESPONSE_FUNCTIONS&#45;&gt;ISOTHERMAL_ISOBARIC_ENSEMBLE</title>
<path fill="none" stroke="black" d="M323,-143.831C323,-136.131 323,-126.974 323,-118.417"/>
<polygon fill="black" stroke="black" points="326.5,-118.413 323,-108.413 319.5,-118.413 326.5,-118.413"/>
</g>
<!-- GRAND_CANONICAL_ENSEMBLE -->
<g id="node8" class="node"><title>GRAND_CANONICAL_ENSEMBLE</title>
<a xlink:href="GRAND_CANONICAL_ENSEMBLE.html" xlink:title="The grand canonical ensemble" target="_top">
<polyline fill="none" stroke="black" points="383,-36 181,-36 "/>
<path fill="none" stroke="black" d="M181,-36C175,-36 169,-30 169,-24"/>
<polyline fill="none" stroke="black" points="169,-24 169,-12 "/>
<path fill="none" stroke="black" d="M169,-12C169,-6 175,-1.73863e-14 181,-1.7009e-14"/>
<polyline fill="none" stroke="black" points="181,-1.7009e-14 383,-4.30727e-15 "/>
<path fill="none" stroke="black" d="M383,-4.30727e-15C389,-3.92999e-15 395,-6 395,-12"/>
<polyline fill="none" stroke="black" points="395,-12 395,-24 "/>
<path fill="none" stroke="black" d="M395,-24C395,-30 389,-36 383,-36"/>
<text text-anchor="start" x="177.5" y="-15.2333" font-family="Times Roman,serif" font-size="14.00">The grand canonical ensemble</text>
</a>
</g>
<!-- RESPONSE_FUNCTIONS&#45;&gt;GRAND_CANONICAL_ENSEMBLE -->
<g id="edge8" class="edge"><title>RESPONSE_FUNCTIONS&#45;&gt;GRAND_CANONICAL_ENSEMBLE</title>
<path fill="none" stroke="black" d="M398.055,-148.088C420.104,-140.132 441.82,-127.632 455,-108 463.918,-94.716 464.48,-84.8895 455,-72 445.329,-58.8502 415.079,-47.4891 382.519,-38.6269"/>
<polygon fill="black" stroke="black" points="383.389,-35.2366 372.827,-36.0762 381.607,-42.0061 383.389,-35.2366"/>
</g>
<!-- CANONICAL_ENSEMBLE&#45;&gt;GRAND_CANONICAL_ENSEMBLE -->
<!-- MAXWELL_RELATIONS -->
<g id="node4" class="node"><title>MAXWELL_RELATIONS</title>
<a xlink:href="MAXWELL_RELATIONS.html" xlink:title="Maxwell relations" target="_top">
<polyline fill="none" stroke="black" points="255,-252 141,-252 "/>
<path fill="none" stroke="black" d="M141,-252C135,-252 129,-246 129,-240"/>
<polyline fill="none" stroke="black" points="129,-240 129,-228 "/>
<path fill="none" stroke="black" d="M129,-228C129,-222 135,-216 141,-216"/>
<polyline fill="none" stroke="black" points="141,-216 255,-216 "/>
<path fill="none" stroke="black" d="M255,-216C261,-216 267,-222 267,-228"/>
<polyline fill="none" stroke="black" points="267,-228 267,-240 "/>
<path fill="none" stroke="black" d="M267,-240C267,-246 261,-252 255,-252"/>
<text text-anchor="start" x="137" y="-231.233" font-family="Times Roman,serif" font-size="14.00">Maxwell relations</text>
</a>
</g>
<!-- MAXWELL_RELATIONS&#45;&gt;RESPONSE_FUNCTIONS -->
<g id="edge4" class="edge"><title>MAXWELL_RELATIONS&#45;&gt;RESPONSE_FUNCTIONS</title>
<path fill="none" stroke="black" d="M229.543,-215.831C245.679,-206.537 265.499,-195.121 282.727,-185.197"/>
<polygon fill="black" stroke="black" points="284.549,-188.187 291.467,-180.163 281.055,-182.121 284.549,-188.187"/>
</g>
<!-- LAWS_OF_THERMODYNAMICS -->
<g id="node11" class="node"><title>LAWS_OF_THERMODYNAMICS</title>
<a xlink:href="LAWS_OF_THERMODYNAMICS.html" xlink:title="The first and second laws of thermodynamics" target="_top">
<polyline fill="none" stroke="black" points="601,-252 297,-252 "/>
<path fill="none" stroke="black" d="M297,-252C291,-252 285,-246 285,-240"/>
<polyline fill="none" stroke="black" points="285,-240 285,-228 "/>
<path fill="none" stroke="black" d="M285,-228C285,-222 291,-216 297,-216"/>
<polyline fill="none" stroke="black" points="297,-216 601,-216 "/>
<path fill="none" stroke="black" d="M601,-216C607,-216 613,-222 613,-228"/>
<polyline fill="none" stroke="black" points="613,-228 613,-240 "/>
<path fill="none" stroke="black" d="M613,-240C613,-246 607,-252 601,-252"/>
<text text-anchor="start" x="293" y="-231.233" font-family="Times Roman,serif" font-size="14.00">The first and second laws of thermodynamics</text>
</a>
</g>
<!-- LAWS_OF_THERMODYNAMICS&#45;&gt;RESPONSE_FUNCTIONS -->
<g id="edge12" class="edge"><title>LAWS_OF_THERMODYNAMICS&#45;&gt;RESPONSE_FUNCTIONS</title>
<path fill="none" stroke="black" d="M417.205,-215.831C400.939,-206.537 380.961,-195.121 363.595,-185.197"/>
<polygon fill="black" stroke="black" points="365.204,-182.085 354.785,-180.163 361.731,-188.163 365.204,-182.085"/>
</g>
</g>
</svg>
