<?xml version="1.0" encoding="UTF-8" standalone="no"?>
<!DOCTYPE svg PUBLIC "-//W3C//DTD SVG 1.1//EN"
 "http://www.w3.org/Graphics/SVG/1.1/DTD/svg11.dtd">
<!-- Generated by graphviz version 2.36.0 (20140111.2315)
 -->
<!-- Title: %3 Pages: 1 -->
<svg width="190pt" height="188pt"
 viewBox="0.00 0.00 190.00 188.00" xmlns="http://www.w3.org/2000/svg" xmlns:xlink="http://www.w3.org/1999/xlink">
<g id="graph0" class="graph" transform="scale(1 1) rotate(0) translate(4 184)">
<title>%3</title>
<!-- SET_PARTITIONS -->
<g id="node1" class="node"><title>SET_PARTITIONS</title>
<g id="a_node1"><a xlink:href="SET_PARTITIONS.html" xlink:title=" Partition (set theory) " target="_top">
<path fill="none" stroke="blue" stroke-width="2" d="M147.25,-108C147.25,-108 34.75,-108 34.75,-108 28.75,-108 22.75,-102 22.75,-96 22.75,-96 22.75,-84 22.75,-84 22.75,-78 28.75,-72 34.75,-72 34.75,-72 147.25,-72 147.25,-72 153.25,-72 159.25,-78 159.25,-84 159.25,-84 159.25,-96 159.25,-96 159.25,-102 153.25,-108 147.25,-108"/>
<text text-anchor="start" x="30.5" y="-86.3" font-family="Times,serif" font-size="14.00"> Partition (set theory) </text>
</a>
</g>
</g>
<!-- RANDOM_VARIABLES -->
<g id="node3" class="node"><title>RANDOM_VARIABLES</title>
<g id="a_node3"><a xlink:href="RANDOM_VARIABLES.html" xlink:title=" Random variables " target="_top">
<path fill="none" stroke="black" d="M140.25,-36C140.25,-36 41.75,-36 41.75,-36 35.75,-36 29.75,-30 29.75,-24 29.75,-24 29.75,-12 29.75,-12 29.75,-6 35.75,-0 41.75,-0 41.75,-0 140.25,-0 140.25,-0 146.25,-0 152.25,-6 152.25,-12 152.25,-12 152.25,-24 152.25,-24 152.25,-30 146.25,-36 140.25,-36"/>
<text text-anchor="start" x="37.5" y="-14.3" font-family="Times,serif" font-size="14.00"> Random variables </text>
</a>
</g>
</g>
<!-- SET_PARTITIONS&#45;&gt;RANDOM_VARIABLES -->
<g id="edge2" class="edge"><title>SET_PARTITIONS&#45;&gt;RANDOM_VARIABLES</title>
<path fill="none" stroke="black" d="M91,-71.6966C91,-63.9827 91,-54.7125 91,-46.1124"/>
<polygon fill="black" stroke="black" points="94.5001,-46.1043 91,-36.1043 87.5001,-46.1044 94.5001,-46.1043"/>
</g>
<!-- INCLUSION_EXCLUSION -->
<g id="node2" class="node"><title>INCLUSION_EXCLUSION</title>
<g id="a_node2"><a xlink:href="INCLUSION_EXCLUSION.html" xlink:title=" Inclusion&#45;exclusion principle " target="_top">
<path fill="none" stroke="black" d="M170,-180C170,-180 12,-180 12,-180 6,-180 0,-174 0,-168 0,-168 0,-156 0,-156 0,-150 6,-144 12,-144 12,-144 170,-144 170,-144 176,-144 182,-150 182,-156 182,-156 182,-168 182,-168 182,-174 176,-180 170,-180"/>
<text text-anchor="start" x="8" y="-158.3" font-family="Times,serif" font-size="14.00"> Inclusion&#45;exclusion principle </text>
</a>
</g>
</g>
<!-- INCLUSION_EXCLUSION&#45;&gt;SET_PARTITIONS -->
<g id="edge1" class="edge"><title>INCLUSION_EXCLUSION&#45;&gt;SET_PARTITIONS</title>
<path fill="none" stroke="black" d="M91,-143.697C91,-135.983 91,-126.712 91,-118.112"/>
<polygon fill="black" stroke="black" points="94.5001,-118.104 91,-108.104 87.5001,-118.104 94.5001,-118.104"/>
</g>
</g>
</svg>
