<?xml version="1.0" encoding="UTF-8" standalone="no"?>
<!DOCTYPE svg PUBLIC "-//W3C//DTD SVG 1.1//EN"
 "http://www.w3.org/Graphics/SVG/1.1/DTD/svg11.dtd">
<!-- Generated by graphviz version 2.26.3 (20100126.1600)
 -->
<!-- Title: _anonymous_0 Pages: 1 -->
<svg width="218pt" height="188pt"
 viewBox="0.00 0.00 218.00 188.00" xmlns="http://www.w3.org/2000/svg" xmlns:xlink="http://www.w3.org/1999/xlink">
<g id="graph1" class="graph" transform="scale(1 1) rotate(0) translate(4 184)">
<title>_anonymous_0</title>
<!-- SET_PARTITIONS -->
<g id="node1" class="node"><title>SET_PARTITIONS</title>
<a xlink:href="SET_PARTITIONS.html" xlink:title="Partition (set theory)" target="_top">
<polyline fill="none" stroke="blue" stroke-width="2" points="174,-108 36,-108 "/>
<path fill="none" stroke="blue" stroke-width="2" d="M36,-108C30,-108 24,-102 24,-96"/>
<polyline fill="none" stroke="blue" stroke-width="2" points="24,-96 24,-84 "/>
<path fill="none" stroke="blue" stroke-width="2" d="M24,-84C24,-78 30,-72 36,-72"/>
<polyline fill="none" stroke="blue" stroke-width="2" points="36,-72 174,-72 "/>
<path fill="none" stroke="blue" stroke-width="2" d="M174,-72C180,-72 186,-78 186,-84"/>
<polyline fill="none" stroke="blue" stroke-width="2" points="186,-84 186,-96 "/>
<path fill="none" stroke="blue" stroke-width="2" d="M186,-96C186,-102 180,-108 174,-108"/>
<text text-anchor="start" x="32" y="-87.2333" font-family="Times Roman,serif" font-size="14.00">Partition (set theory)</text>
</a>
</g>
<!-- RANDOM_VARIABLES -->
<g id="node2" class="node"><title>RANDOM_VARIABLES</title>
<a xlink:href="RANDOM_VARIABLES.html" xlink:title="Random variables" target="_top">
<polyline fill="none" stroke="black" points="163,-36 47,-36 "/>
<path fill="none" stroke="black" d="M47,-36C41,-36 35,-30 35,-24"/>
<polyline fill="none" stroke="black" points="35,-24 35,-12 "/>
<path fill="none" stroke="black" d="M35,-12C35,-6 41,-1.71545e-14 47,-1.65455e-14"/>
<polyline fill="none" stroke="black" points="47,-1.65455e-14 163,-4.77079e-15 "/>
<path fill="none" stroke="black" d="M163,-4.77079e-15C169,-4.16175e-15 175,-6 175,-12"/>
<polyline fill="none" stroke="black" points="175,-12 175,-24 "/>
<path fill="none" stroke="black" d="M175,-24C175,-30 169,-36 163,-36"/>
<text text-anchor="start" x="43.5" y="-15.2333" font-family="Times Roman,serif" font-size="14.00">Random variables</text>
</a>
</g>
<!-- SET_PARTITIONS&#45;&gt;RANDOM_VARIABLES -->
<g id="edge2" class="edge"><title>SET_PARTITIONS&#45;&gt;RANDOM_VARIABLES</title>
<path fill="none" stroke="black" d="M105,-71.8314C105,-64.131 105,-54.9743 105,-46.4166"/>
<polygon fill="black" stroke="black" points="108.5,-46.4132 105,-36.4133 101.5,-46.4133 108.5,-46.4132"/>
</g>
<!-- INCLUSION_EXCLUSION -->
<g id="node4" class="node"><title>INCLUSION_EXCLUSION</title>
<a xlink:href="INCLUSION_EXCLUSION.html" xlink:title="Inclusion&#45;exclusion principle" target="_top">
<polyline fill="none" stroke="black" points="198,-180 12,-180 "/>
<path fill="none" stroke="black" d="M12,-180C6,-180 7.10543e-14,-174 5.68434e-14,-168"/>
<polyline fill="none" stroke="black" points="5.68434e-14,-168 2.84217e-14,-156 "/>
<path fill="none" stroke="black" d="M2.84217e-14,-156C1.42109e-14,-150 6,-144 12,-144"/>
<polyline fill="none" stroke="black" points="12,-144 198,-144 "/>
<path fill="none" stroke="black" d="M198,-144C204,-144 210,-150 210,-156"/>
<polyline fill="none" stroke="black" points="210,-156 210,-168 "/>
<path fill="none" stroke="black" d="M210,-168C210,-174 204,-180 198,-180"/>
<text text-anchor="start" x="8.5" y="-159.233" font-family="Times Roman,serif" font-size="14.00">Inclusion&#45;exclusion principle</text>
</a>
</g>
<!-- INCLUSION_EXCLUSION&#45;&gt;SET_PARTITIONS -->
<g id="edge4" class="edge"><title>INCLUSION_EXCLUSION&#45;&gt;SET_PARTITIONS</title>
<path fill="none" stroke="black" d="M105,-143.831C105,-136.131 105,-126.974 105,-118.417"/>
<polygon fill="black" stroke="black" points="108.5,-118.413 105,-108.413 101.5,-118.413 108.5,-118.413"/>
</g>
</g>
</svg>
