<?xml version="1.0" encoding="UTF-8" standalone="no"?>
<!DOCTYPE svg PUBLIC "-//W3C//DTD SVG 1.1//EN"
 "http://www.w3.org/Graphics/SVG/1.1/DTD/svg11.dtd">
<!-- Generated by graphviz version 2.26.3 (20100126.1600)
 -->
<!-- Title: _anonymous_0 Pages: 1 -->
<svg width="226pt" height="188pt"
 viewBox="0.00 0.00 226.00 188.00" xmlns="http://www.w3.org/2000/svg" xmlns:xlink="http://www.w3.org/1999/xlink">
<g id="graph1" class="graph" transform="scale(1 1) rotate(0) translate(4 184)">
<title>_anonymous_0</title>
<!-- SET_PARTITIONS -->
<g id="node1" class="node"><title>SET_PARTITIONS</title>
<a xlink:href="SET_PARTITIONS.html" xlink:title=" Partition (set theory) " target="_top">
<polyline fill="none" stroke="blue" stroke-width="2" points="183,-108 35,-108 "/>
<path fill="none" stroke="blue" stroke-width="2" d="M35,-108C29,-108 23,-102 23,-96"/>
<polyline fill="none" stroke="blue" stroke-width="2" points="23,-96 23,-84 "/>
<path fill="none" stroke="blue" stroke-width="2" d="M23,-84C23,-78 29,-72 35,-72"/>
<polyline fill="none" stroke="blue" stroke-width="2" points="35,-72 183,-72 "/>
<path fill="none" stroke="blue" stroke-width="2" d="M183,-72C189,-72 195,-78 195,-84"/>
<polyline fill="none" stroke="blue" stroke-width="2" points="195,-84 195,-96 "/>
<path fill="none" stroke="blue" stroke-width="2" d="M195,-96C195,-102 189,-108 183,-108"/>
<text text-anchor="start" x="31.5" y="-87.2333" font-family="Times Roman,serif" font-size="14.00"> Partition (set theory) </text>
</a>
</g>
<!-- RANDOM_VARIABLES -->
<g id="node2" class="node"><title>RANDOM_VARIABLES</title>
<a xlink:href="RANDOM_VARIABLES.html" xlink:title=" Random variables " target="_top">
<polyline fill="none" stroke="black" points="171,-36 47,-36 "/>
<path fill="none" stroke="black" d="M47,-36C41,-36 35,-30 35,-24"/>
<polyline fill="none" stroke="black" points="35,-24 35,-12 "/>
<path fill="none" stroke="black" d="M35,-12C35,-6 41,-1.71875e-14 47,-1.66113e-14"/>
<polyline fill="none" stroke="black" points="47,-1.66113e-14 171,-4.70495e-15 "/>
<path fill="none" stroke="black" d="M171,-4.70495e-15C177,-4.12883e-15 183,-6 183,-12"/>
<polyline fill="none" stroke="black" points="183,-12 183,-24 "/>
<path fill="none" stroke="black" d="M183,-24C183,-30 177,-36 171,-36"/>
<text text-anchor="start" x="43" y="-15.2333" font-family="Times Roman,serif" font-size="14.00"> Random variables </text>
</a>
</g>
<!-- SET_PARTITIONS&#45;&gt;RANDOM_VARIABLES -->
<g id="edge2" class="edge"><title>SET_PARTITIONS&#45;&gt;RANDOM_VARIABLES</title>
<path fill="none" stroke="black" d="M109,-71.8314C109,-64.131 109,-54.9743 109,-46.4166"/>
<polygon fill="black" stroke="black" points="112.5,-46.4132 109,-36.4133 105.5,-46.4133 112.5,-46.4132"/>
</g>
<!-- INCLUSION_EXCLUSION -->
<g id="node4" class="node"><title>INCLUSION_EXCLUSION</title>
<a xlink:href="INCLUSION_EXCLUSION.html" xlink:title=" Inclusion&#45;exclusion principle " target="_top">
<polyline fill="none" stroke="black" points="206,-180 12,-180 "/>
<path fill="none" stroke="black" d="M12,-180C6,-180 9.4739e-14,-174 7.57912e-14,-168"/>
<polyline fill="none" stroke="black" points="7.57912e-14,-168 3.78956e-14,-156 "/>
<path fill="none" stroke="black" d="M3.78956e-14,-156C1.89478e-14,-150 6,-144 12,-144"/>
<polyline fill="none" stroke="black" points="12,-144 206,-144 "/>
<path fill="none" stroke="black" d="M206,-144C212,-144 218,-150 218,-156"/>
<polyline fill="none" stroke="black" points="218,-156 218,-168 "/>
<path fill="none" stroke="black" d="M218,-168C218,-174 212,-180 206,-180"/>
<text text-anchor="start" x="8" y="-159.233" font-family="Times Roman,serif" font-size="14.00"> Inclusion&#45;exclusion principle </text>
</a>
</g>
<!-- INCLUSION_EXCLUSION&#45;&gt;SET_PARTITIONS -->
<g id="edge4" class="edge"><title>INCLUSION_EXCLUSION&#45;&gt;SET_PARTITIONS</title>
<path fill="none" stroke="black" d="M109,-143.831C109,-136.131 109,-126.974 109,-118.417"/>
<polygon fill="black" stroke="black" points="112.5,-118.413 109,-108.413 105.5,-118.413 112.5,-118.413"/>
</g>
</g>
</svg>
