<?xml version="1.0" encoding="UTF-8" standalone="no"?>
<!DOCTYPE svg PUBLIC "-//W3C//DTD SVG 1.1//EN"
 "http://www.w3.org/Graphics/SVG/1.1/DTD/svg11.dtd">
<!-- Generated by graphviz version 2.28.0 (20110509.1545)
 -->
<!-- Title: _anonymous_0 Pages: 1 -->
<svg width="188pt" height="188pt"
 viewBox="0.00 0.00 188.00 188.00" xmlns="http://www.w3.org/2000/svg" xmlns:xlink="http://www.w3.org/1999/xlink">
<g id="graph1" class="graph" transform="scale(1 1) rotate(0) translate(4 184)">
<title>_anonymous_0</title>
<!-- SET_PARTITIONS -->
<g id="node1" class="node"><title>SET_PARTITIONS</title>
<a xlink:href="SET_PARTITIONS.html" xlink:title="Partition (set theory)" target="_top">
<polyline fill="none" stroke="blue" stroke-width="2" points="144,-108 36,-108 "/>
<path fill="none" stroke="blue" stroke-width="2" d="M36,-108C30,-108 24,-102 24,-96"/>
<polyline fill="none" stroke="blue" stroke-width="2" points="24,-96 24,-84 "/>
<path fill="none" stroke="blue" stroke-width="2" d="M24,-84C24,-78 30,-72 36,-72"/>
<polyline fill="none" stroke="blue" stroke-width="2" points="36,-72 144,-72 "/>
<path fill="none" stroke="blue" stroke-width="2" d="M144,-72C150,-72 156,-78 156,-84"/>
<polyline fill="none" stroke="blue" stroke-width="2" points="156,-84 156,-96 "/>
<path fill="none" stroke="blue" stroke-width="2" d="M156,-96C156,-102 150,-108 144,-108"/>
<text text-anchor="start" x="32.5" y="-84.5" font-family="Times,serif" font-size="14.00">Partition (set theory)</text>
</a>
</g>
<!-- RANDOM_VARIABLES -->
<g id="node4" class="node"><title>RANDOM_VARIABLES</title>
<a xlink:href="RANDOM_VARIABLES.html" xlink:title="Random variables" target="_top">
<polyline fill="none" stroke="black" points="137,-36 43,-36 "/>
<path fill="none" stroke="black" d="M43,-36C37,-36 31,-30 31,-24"/>
<polyline fill="none" stroke="black" points="31,-24 31,-12 "/>
<path fill="none" stroke="black" d="M31,-12C31,-6 37,-0 43,-0"/>
<polyline fill="none" stroke="black" points="43,-0 137,-0 "/>
<path fill="none" stroke="black" d="M137,-0C143,-0 149,-6 149,-12"/>
<polyline fill="none" stroke="black" points="149,-12 149,-24 "/>
<path fill="none" stroke="black" d="M149,-24C149,-30 143,-36 137,-36"/>
<text text-anchor="start" x="39.5" y="-12.5" font-family="Times,serif" font-size="14.00">Random variables</text>
</a>
</g>
<!-- SET_PARTITIONS&#45;&gt;RANDOM_VARIABLES -->
<g id="edge4" class="edge"><title>SET_PARTITIONS&#45;&gt;RANDOM_VARIABLES</title>
<path fill="none" stroke="black" d="M90,-71.6966C90,-63.9827 90,-54.7125 90,-46.1124"/>
<polygon fill="black" stroke="black" points="93.5001,-46.1043 90,-36.1043 86.5001,-46.1044 93.5001,-46.1043"/>
</g>
<!-- INCLUSION_EXCLUSION -->
<g id="node2" class="node"><title>INCLUSION_EXCLUSION</title>
<a xlink:href="INCLUSION_EXCLUSION.html" xlink:title="Inclusion&#45;exclusion principle" target="_top">
<polyline fill="none" stroke="black" points="168,-180 12,-180 "/>
<path fill="none" stroke="black" d="M12,-180C6,-180 0,-174 0,-168"/>
<polyline fill="none" stroke="black" points="0,-168 0,-156 "/>
<path fill="none" stroke="black" d="M0,-156C0,-150 6,-144 12,-144"/>
<polyline fill="none" stroke="black" points="12,-144 168,-144 "/>
<path fill="none" stroke="black" d="M168,-144C174,-144 180,-150 180,-156"/>
<polyline fill="none" stroke="black" points="180,-156 180,-168 "/>
<path fill="none" stroke="black" d="M180,-168C180,-174 174,-180 168,-180"/>
<text text-anchor="start" x="8.5" y="-156.5" font-family="Times,serif" font-size="14.00">Inclusion&#45;exclusion principle</text>
</a>
</g>
<!-- INCLUSION_EXCLUSION&#45;&gt;SET_PARTITIONS -->
<g id="edge2" class="edge"><title>INCLUSION_EXCLUSION&#45;&gt;SET_PARTITIONS</title>
<path fill="none" stroke="black" d="M90,-143.697C90,-135.983 90,-126.712 90,-118.112"/>
<polygon fill="black" stroke="black" points="93.5001,-118.104 90,-108.104 86.5001,-118.104 93.5001,-118.104"/>
</g>
</g>
</svg>
