<?xml version="1.0" encoding="UTF-8" standalone="no"?>
<!DOCTYPE svg PUBLIC "-//W3C//DTD SVG 1.1//EN"
 "http://www.w3.org/Graphics/SVG/1.1/DTD/svg11.dtd">
<!-- Generated by graphviz version 2.36.0 (20140111.2315)
 -->
<!-- Title: %3 Pages: 1 -->
<svg width="547pt" height="260pt"
 viewBox="0.00 0.00 547.00 260.00" xmlns="http://www.w3.org/2000/svg" xmlns:xlink="http://www.w3.org/1999/xlink">
<g id="graph0" class="graph" transform="scale(1 1) rotate(0) translate(4 256)">
<title>%3</title>
<!-- CONDITIONAL_PROBABILITY -->
<g id="node1" class="node"><title>CONDITIONAL_PROBABILITY</title>
<g id="a_node1"><a xlink:href="CONDITIONAL_PROBABILITY.html" xlink:title=" Conditional probability " target="_top">
<path fill="none" stroke="black" d="M296.25,-252C296.25,-252 169.75,-252 169.75,-252 163.75,-252 157.75,-246 157.75,-240 157.75,-240 157.75,-228 157.75,-228 157.75,-222 163.75,-216 169.75,-216 169.75,-216 296.25,-216 296.25,-216 302.25,-216 308.25,-222 308.25,-228 308.25,-228 308.25,-240 308.25,-240 308.25,-246 302.25,-252 296.25,-252"/>
<text text-anchor="start" x="165.5" y="-230.3" font-family="Times,serif" font-size="14.00"> Conditional probability </text>
</a>
</g>
</g>
<!-- INDEPENDENT_RANDOM_VARIABLES -->
<g id="node2" class="node"><title>INDEPENDENT_RANDOM_VARIABLES</title>
<g id="a_node2"><a xlink:href="INDEPENDENT_RANDOM_VARIABLES.html" xlink:title=" Independent random variables " target="_top">
<path fill="none" stroke="black" d="M176.25,-108C176.25,-108 11.75,-108 11.75,-108 5.75,-108 -0.25,-102 -0.25,-96 -0.25,-96 -0.25,-84 -0.25,-84 -0.25,-78 5.75,-72 11.75,-72 11.75,-72 176.25,-72 176.25,-72 182.25,-72 188.25,-78 188.25,-84 188.25,-84 188.25,-96 188.25,-96 188.25,-102 182.25,-108 176.25,-108"/>
<text text-anchor="start" x="7.5" y="-86.3" font-family="Times,serif" font-size="14.00"> Independent random variables </text>
</a>
</g>
</g>
<!-- CONDITIONAL_PROBABILITY&#45;&gt;INDEPENDENT_RANDOM_VARIABLES -->
<g id="edge1" class="edge"><title>CONDITIONAL_PROBABILITY&#45;&gt;INDEPENDENT_RANDOM_VARIABLES</title>
<path fill="none" stroke="black" d="M157.673,-220.011C114.707,-210.899 66.8965,-197.268 54,-180 39.3654,-160.404 53.9599,-134.604 69.4697,-115.83"/>
<polygon fill="black" stroke="black" points="72.1461,-118.086 76.0902,-108.253 66.8748,-113.481 72.1461,-118.086"/>
</g>
<!-- JOINT_PROBABILITY_DISTRIBUTION -->
<g id="node3" class="node"><title>JOINT_PROBABILITY_DISTRIBUTION</title>
<g id="a_node3"><a xlink:href="JOINT_PROBABILITY_DISTRIBUTION.html" xlink:title=" Joint probability distribution " target="_top">
<path fill="none" stroke="black" d="M230.25,-180C230.25,-180 75.75,-180 75.75,-180 69.75,-180 63.75,-174 63.75,-168 63.75,-168 63.75,-156 63.75,-156 63.75,-150 69.75,-144 75.75,-144 75.75,-144 230.25,-144 230.25,-144 236.25,-144 242.25,-150 242.25,-156 242.25,-156 242.25,-168 242.25,-168 242.25,-174 236.25,-180 230.25,-180"/>
<text text-anchor="start" x="71.5" y="-158.3" font-family="Times,serif" font-size="14.00"> Joint probability distribution </text>
</a>
</g>
</g>
<!-- CONDITIONAL_PROBABILITY&#45;&gt;JOINT_PROBABILITY_DISTRIBUTION -->
<g id="edge2" class="edge"><title>CONDITIONAL_PROBABILITY&#45;&gt;JOINT_PROBABILITY_DISTRIBUTION</title>
<path fill="none" stroke="black" d="M213.225,-215.697C203.246,-206.965 190.989,-196.24 180.143,-186.75"/>
<polygon fill="black" stroke="black" points="182.378,-184.055 172.548,-180.104 177.769,-189.323 182.378,-184.055"/>
</g>
<!-- BAYES_THEOREM -->
<g id="node4" class="node"><title>BAYES_THEOREM</title>
<g id="a_node4"><a xlink:href="BAYES_THEOREM.html" xlink:title=" Bayes theorem " target="_top">
<path fill="none" stroke="black" d="M354.5,-180C354.5,-180 273.5,-180 273.5,-180 267.5,-180 261.5,-174 261.5,-168 261.5,-168 261.5,-156 261.5,-156 261.5,-150 267.5,-144 273.5,-144 273.5,-144 354.5,-144 354.5,-144 360.5,-144 366.5,-150 366.5,-156 366.5,-156 366.5,-168 366.5,-168 366.5,-174 360.5,-180 354.5,-180"/>
<text text-anchor="start" x="269" y="-158.3" font-family="Times,serif" font-size="14.00"> Bayes theorem </text>
</a>
</g>
</g>
<!-- CONDITIONAL_PROBABILITY&#45;&gt;BAYES_THEOREM -->
<g id="edge3" class="edge"><title>CONDITIONAL_PROBABILITY&#45;&gt;BAYES_THEOREM</title>
<path fill="none" stroke="black" d="M253.022,-215.697C263.126,-206.965 275.536,-196.24 286.518,-186.75"/>
<polygon fill="black" stroke="black" points="288.93,-189.291 294.208,-180.104 284.353,-183.995 288.93,-189.291"/>
</g>
<!-- CONDITIONAL_EXPECTATION -->
<g id="node5" class="node"><title>CONDITIONAL_EXPECTATION</title>
<g id="a_node5"><a xlink:href="CONDITIONAL_EXPECTATION.html" xlink:title=" Conditional expectation " target="_top">
<path fill="none" stroke="black" d="M527,-180C527,-180 397,-180 397,-180 391,-180 385,-174 385,-168 385,-168 385,-156 385,-156 385,-150 391,-144 397,-144 397,-144 527,-144 527,-144 533,-144 539,-150 539,-156 539,-156 539,-168 539,-168 539,-174 533,-180 527,-180"/>
<text text-anchor="start" x="393" y="-158.3" font-family="Times,serif" font-size="14.00"> Conditional expectation </text>
</a>
</g>
</g>
<!-- CONDITIONAL_PROBABILITY&#45;&gt;CONDITIONAL_EXPECTATION -->
<g id="edge4" class="edge"><title>CONDITIONAL_PROBABILITY&#45;&gt;CONDITIONAL_EXPECTATION</title>
<path fill="none" stroke="black" d="M288.727,-215.966C321.141,-206.057 362.176,-193.514 396.175,-183.121"/>
<polygon fill="black" stroke="black" points="397.483,-186.381 406.023,-180.111 395.437,-179.687 397.483,-186.381"/>
</g>
<!-- CENTRAL_LIMIT_THEOREM -->
<g id="node6" class="node"><title>CENTRAL_LIMIT_THEOREM</title>
<g id="a_node6"><a xlink:href="CENTRAL_LIMIT_THEOREM.html" xlink:title=" The central limit theorem " target="_top">
<path fill="none" stroke="black" d="M164,-36C164,-36 24,-36 24,-36 18,-36 12,-30 12,-24 12,-24 12,-12 12,-12 12,-6 18,-0 24,-0 24,-0 164,-0 164,-0 170,-0 176,-6 176,-12 176,-12 176,-24 176,-24 176,-30 170,-36 164,-36"/>
<text text-anchor="start" x="20" y="-14.3" font-family="Times,serif" font-size="14.00"> The central limit theorem </text>
</a>
</g>
</g>
<!-- INDEPENDENT_RANDOM_VARIABLES&#45;&gt;CENTRAL_LIMIT_THEOREM -->
<g id="edge5" class="edge"><title>INDEPENDENT_RANDOM_VARIABLES&#45;&gt;CENTRAL_LIMIT_THEOREM</title>
<path fill="none" stroke="black" d="M94,-71.6966C94,-63.9827 94,-54.7125 94,-46.1124"/>
<polygon fill="black" stroke="black" points="97.5001,-46.1043 94,-36.1043 90.5001,-46.1044 97.5001,-46.1043"/>
</g>
<!-- JOINT_PROBABILITY_DISTRIBUTION&#45;&gt;INDEPENDENT_RANDOM_VARIABLES -->
<g id="edge6" class="edge"><title>JOINT_PROBABILITY_DISTRIBUTION&#45;&gt;INDEPENDENT_RANDOM_VARIABLES</title>
<path fill="none" stroke="black" d="M138.416,-143.697C131.342,-135.305 122.717,-125.07 114.955,-115.861"/>
<polygon fill="black" stroke="black" points="117.537,-113.495 108.417,-108.104 112.185,-118.006 117.537,-113.495"/>
</g>
</g>
</svg>
