<?xml version="1.0" encoding="UTF-8" standalone="no"?>
<!DOCTYPE svg PUBLIC "-//W3C//DTD SVG 1.1//EN"
 "http://www.w3.org/Graphics/SVG/1.1/DTD/svg11.dtd">
<!-- Generated by graphviz version 2.26.3 (20100126.1600)
 -->
<!-- Title: _anonymous_0 Pages: 1 -->
<svg width="723pt" height="188pt"
 viewBox="0.00 0.00 723.00 188.00" xmlns="http://www.w3.org/2000/svg" xmlns:xlink="http://www.w3.org/1999/xlink">
<g id="graph1" class="graph" transform="scale(1 1) rotate(0) translate(4 184)">
<title>_anonymous_0</title>
<!-- CONTINUOUS_TIME_MARKOV_CHAIN -->
<g id="node1" class="node"><title>CONTINUOUS_TIME_MARKOV_CHAIN</title>
<a xlink:href="CONTINUOUS_TIME_MARKOV_CHAIN.html" xlink:title=" Markov chains in continuous time " target="_top">
<polyline fill="none" stroke="black" points="488,-180 254,-180 "/>
<path fill="none" stroke="black" d="M254,-180C248,-180 242,-174 242,-168"/>
<polyline fill="none" stroke="black" points="242,-168 242,-156 "/>
<path fill="none" stroke="black" d="M242,-156C242,-150 248,-144 254,-144"/>
<polyline fill="none" stroke="black" points="254,-144 488,-144 "/>
<path fill="none" stroke="black" d="M488,-144C494,-144 500,-150 500,-156"/>
<polyline fill="none" stroke="black" points="500,-156 500,-168 "/>
<path fill="none" stroke="black" d="M500,-168C500,-174 494,-180 488,-180"/>
<text text-anchor="start" x="250.5" y="-159.233" font-family="Times Roman,serif" font-size="14.00"> Markov chains in continuous time </text>
</a>
</g>
<!-- POISSON_PROCESS -->
<g id="node3" class="node"><title>POISSON_PROCESS</title>
<a xlink:href="POISSON_PROCESS.html" xlink:title=" Poisson Process " target="_top">
<polyline fill="none" stroke="black" points="416,-108 306,-108 "/>
<path fill="none" stroke="black" d="M306,-108C300,-108 294,-102 294,-96"/>
<polyline fill="none" stroke="black" points="294,-96 294,-84 "/>
<path fill="none" stroke="black" d="M294,-84C294,-78 300,-72 306,-72"/>
<polyline fill="none" stroke="black" points="306,-72 416,-72 "/>
<path fill="none" stroke="black" d="M416,-72C422,-72 428,-78 428,-84"/>
<polyline fill="none" stroke="black" points="428,-84 428,-96 "/>
<path fill="none" stroke="black" d="M428,-96C428,-102 422,-108 416,-108"/>
<text text-anchor="start" x="302.5" y="-87.2333" font-family="Times Roman,serif" font-size="14.00"> Poisson Process </text>
</a>
</g>
<!-- CONTINUOUS_TIME_MARKOV_CHAIN&#45;&gt;POISSON_PROCESS -->
<g id="edge2" class="edge"><title>CONTINUOUS_TIME_MARKOV_CHAIN&#45;&gt;POISSON_PROCESS</title>
<path fill="none" stroke="black" d="M368.477,-143.831C367.407,-136.131 366.135,-126.974 364.947,-118.417"/>
<polygon fill="black" stroke="black" points="368.4,-117.837 363.557,-108.413 361.466,-118.8 368.4,-117.837"/>
</g>
<!-- MM1_QUEUE -->
<g id="node4" class="node"><title>MM1_QUEUE</title>
<a xlink:href="MM1_QUEUE.html" xlink:title=" The M/M/1 Queue &#160;" target="_top">
<polyline fill="none" stroke="black" points="207,-36 77,-36 "/>
<path fill="none" stroke="black" d="M77,-36C71,-36 65,-30 65,-24"/>
<polyline fill="none" stroke="black" points="65,-24 65,-12 "/>
<path fill="none" stroke="black" d="M65,-12C65,-6 71,-1.72099e-14 77,-1.66562e-14"/>
<polyline fill="none" stroke="black" points="77,-1.66562e-14 207,-4.66005e-15 "/>
<path fill="none" stroke="black" d="M207,-4.66005e-15C213,-4.10638e-15 219,-6 219,-12"/>
<polyline fill="none" stroke="black" points="219,-12 219,-24 "/>
<path fill="none" stroke="black" d="M219,-24C219,-30 213,-36 207,-36"/>
<text text-anchor="start" x="73.5" y="-15.2333" font-family="Times Roman,serif" font-size="14.00"> The M/M/1 Queue &#160;</text>
</a>
</g>
<!-- CONTINUOUS_TIME_MARKOV_CHAIN&#45;&gt;MM1_QUEUE -->
<g id="edge4" class="edge"><title>CONTINUOUS_TIME_MARKOV_CHAIN&#45;&gt;MM1_QUEUE</title>
<path fill="none" stroke="black" d="M341.936,-143.761C325.269,-133.299 303.956,-119.916 285,-108 249.102,-85.4334 208.153,-59.6574 179.3,-41.4908"/>
<polygon fill="black" stroke="black" points="181.081,-38.4758 170.754,-36.1091 177.351,-44.3993 181.081,-38.4758"/>
</g>
<!-- EXPONENTIAL_RANDOM_VARIABLE -->
<g id="node2" class="node"><title>EXPONENTIAL_RANDOM_VARIABLE</title>
<a xlink:href="EXPONENTIAL_RANDOM_VARIABLE.html" xlink:title=" Exponential random variable " target="_top">
<polyline fill="none" stroke="black" points="212,-180 12,-180 "/>
<path fill="none" stroke="black" d="M12,-180C6,-180 8.28967e-14,-174 6.63173e-14,-168"/>
<polyline fill="none" stroke="black" points="6.63173e-14,-168 3.31587e-14,-156 "/>
<path fill="none" stroke="black" d="M3.31587e-14,-156C1.65793e-14,-150 6,-144 12,-144"/>
<polyline fill="none" stroke="black" points="12,-144 212,-144 "/>
<path fill="none" stroke="black" d="M212,-144C218,-144 224,-150 224,-156"/>
<polyline fill="none" stroke="black" points="224,-156 224,-168 "/>
<path fill="none" stroke="black" d="M224,-168C224,-174 218,-180 212,-180"/>
<text text-anchor="start" x="8" y="-159.233" font-family="Times Roman,serif" font-size="14.00"> Exponential random variable </text>
</a>
</g>
<!-- EXPONENTIAL_RANDOM_VARIABLE&#45;&gt;POISSON_PROCESS -->
<g id="edge6" class="edge"><title>EXPONENTIAL_RANDOM_VARIABLE&#45;&gt;POISSON_PROCESS</title>
<path fill="none" stroke="black" d="M174.512,-143.924C209.144,-133.91 252.367,-121.412 288.479,-110.97"/>
<polygon fill="black" stroke="black" points="289.828,-114.223 298.462,-108.083 287.884,-107.499 289.828,-114.223"/>
</g>
<!-- EXPONENTIAL_RANDOM_VARIABLE&#45;&gt;MM1_QUEUE -->
<g id="edge8" class="edge"><title>EXPONENTIAL_RANDOM_VARIABLE&#45;&gt;MM1_QUEUE</title>
<path fill="none" stroke="black" d="M115.8,-143.762C120.939,-119.093 130.154,-74.8598 136.172,-45.9731"/>
<polygon fill="black" stroke="black" points="139.618,-46.5933 138.231,-36.0896 132.765,-45.1656 139.618,-46.5933"/>
</g>
<!-- POISSON_PROCESS&#45;&gt;MM1_QUEUE -->
<g id="edge10" class="edge"><title>POISSON_PROCESS&#45;&gt;MM1_QUEUE</title>
<path fill="none" stroke="black" d="M306.02,-71.9243C275.821,-61.9959 238.194,-49.6255 206.6,-39.2382"/>
<polygon fill="black" stroke="black" points="207.596,-35.8815 197.003,-36.0831 205.41,-42.5313 207.596,-35.8815"/>
</g>
<!-- INHOMOGENEOUS_POISSON_PROCESS -->
<g id="node5" class="node"><title>INHOMOGENEOUS_POISSON_PROCESS</title>
<a xlink:href="INHOMOGENEOUS_POISSON_PROCESS.html" xlink:title=" Inhomogeneous Poisson Process " target="_top">
<polyline fill="none" stroke="black" points="473,-36 249,-36 "/>
<path fill="none" stroke="black" d="M249,-36C243,-36 237,-30 237,-24"/>
<polyline fill="none" stroke="black" points="237,-24 237,-12 "/>
<path fill="none" stroke="black" d="M237,-12C237,-6 243,-1.74198e-14 249,-1.70759e-14"/>
<polyline fill="none" stroke="black" points="249,-1.70759e-14 473,-4.24034e-15 "/>
<path fill="none" stroke="black" d="M473,-4.24034e-15C479,-3.89652e-15 485,-6 485,-12"/>
<polyline fill="none" stroke="black" points="485,-12 485,-24 "/>
<path fill="none" stroke="black" d="M485,-24C485,-30 479,-36 473,-36"/>
<text text-anchor="start" x="245.5" y="-15.2333" font-family="Times Roman,serif" font-size="14.00"> Inhomogeneous Poisson Process </text>
</a>
</g>
<!-- POISSON_PROCESS&#45;&gt;INHOMOGENEOUS_POISSON_PROCESS -->
<g id="edge12" class="edge"><title>POISSON_PROCESS&#45;&gt;INHOMOGENEOUS_POISSON_PROCESS</title>
<path fill="none" stroke="black" d="M361,-71.8314C361,-64.131 361,-54.9743 361,-46.4166"/>
<polygon fill="black" stroke="black" points="364.5,-46.4132 361,-36.4133 357.5,-46.4133 364.5,-46.4132"/>
</g>
<!-- COMPOUND_POISSON_PROCESS -->
<g id="node6" class="node"><title>COMPOUND_POISSON_PROCESS</title>
<a xlink:href="COMPOUND_POISSON_PROCESS.html" xlink:title=" Compound Poisson Process " target="_top">
<polyline fill="none" stroke="black" points="703,-36 515,-36 "/>
<path fill="none" stroke="black" d="M515,-36C509,-36 503,-30 503,-24"/>
<polyline fill="none" stroke="black" points="503,-24 503,-12 "/>
<path fill="none" stroke="black" d="M503,-12C503,-6 509,-1.73614e-14 515,-1.69592e-14"/>
<polyline fill="none" stroke="black" points="515,-1.69592e-14 703,-4.3571e-15 "/>
<path fill="none" stroke="black" d="M703,-4.3571e-15C709,-3.95491e-15 715,-6 715,-12"/>
<polyline fill="none" stroke="black" points="715,-12 715,-24 "/>
<path fill="none" stroke="black" d="M715,-24C715,-30 709,-36 703,-36"/>
<text text-anchor="start" x="511.5" y="-15.2333" font-family="Times Roman,serif" font-size="14.00"> Compound Poisson Process </text>
</a>
</g>
<!-- POISSON_PROCESS&#45;&gt;COMPOUND_POISSON_PROCESS -->
<g id="edge14" class="edge"><title>POISSON_PROCESS&#45;&gt;COMPOUND_POISSON_PROCESS</title>
<path fill="none" stroke="black" d="M423.261,-71.9243C457.753,-61.9103 500.803,-49.412 536.77,-38.97"/>
<polygon fill="black" stroke="black" points="538.086,-42.2325 546.714,-36.0831 536.134,-35.5101 538.086,-42.2325"/>
</g>
</g>
</svg>
