<?xml version="1.0" encoding="UTF-8" standalone="no"?>
<!DOCTYPE svg PUBLIC "-//W3C//DTD SVG 1.1//EN"
 "http://www.w3.org/Graphics/SVG/1.1/DTD/svg11.dtd">
<!-- Generated by graphviz version 2.36.0 (20140111.2315)
 -->
<!-- Title: %3 Pages: 1 -->
<svg width="601pt" height="188pt"
 viewBox="0.00 0.00 601.00 188.00" xmlns="http://www.w3.org/2000/svg" xmlns:xlink="http://www.w3.org/1999/xlink">
<g id="graph0" class="graph" transform="scale(1 1) rotate(0) translate(4 184)">
<title>%3</title>
<!-- CONTINUOUS_TIME_MARKOV_CHAIN -->
<g id="node1" class="node"><title>CONTINUOUS_TIME_MARKOV_CHAIN</title>
<g id="a_node1"><a xlink:href="CONTINUOUS_TIME_MARKOV_CHAIN.html" xlink:title=" Markov chains in continuous time " target="_top">
<path fill="none" stroke="black" d="M399.5,-180C399.5,-180 212.5,-180 212.5,-180 206.5,-180 200.5,-174 200.5,-168 200.5,-168 200.5,-156 200.5,-156 200.5,-150 206.5,-144 212.5,-144 212.5,-144 399.5,-144 399.5,-144 405.5,-144 411.5,-150 411.5,-156 411.5,-156 411.5,-168 411.5,-168 411.5,-174 405.5,-180 399.5,-180"/>
<text text-anchor="start" x="208" y="-158.3" font-family="Times,serif" font-size="14.00"> Markov chains in continuous time </text>
</a>
</g>
</g>
<!-- POISSON_PROCESS -->
<g id="node3" class="node"><title>POISSON_PROCESS</title>
<g id="a_node3"><a xlink:href="POISSON_PROCESS.html" xlink:title=" Poisson Process " target="_top">
<path fill="none" stroke="black" d="M341.25,-108C341.25,-108 254.75,-108 254.75,-108 248.75,-108 242.75,-102 242.75,-96 242.75,-96 242.75,-84 242.75,-84 242.75,-78 248.75,-72 254.75,-72 254.75,-72 341.25,-72 341.25,-72 347.25,-72 353.25,-78 353.25,-84 353.25,-84 353.25,-96 353.25,-96 353.25,-102 347.25,-108 341.25,-108"/>
<text text-anchor="start" x="250.5" y="-86.3" font-family="Times,serif" font-size="14.00"> Poisson Process </text>
</a>
</g>
</g>
<!-- CONTINUOUS_TIME_MARKOV_CHAIN&#45;&gt;POISSON_PROCESS -->
<g id="edge1" class="edge"><title>CONTINUOUS_TIME_MARKOV_CHAIN&#45;&gt;POISSON_PROCESS</title>
<path fill="none" stroke="black" d="M304.022,-143.697C303.141,-135.983 302.081,-126.712 301.099,-118.112"/>
<polygon fill="black" stroke="black" points="304.568,-117.642 299.955,-108.104 297.613,-118.437 304.568,-117.642"/>
</g>
<!-- MM1_QUEUE -->
<g id="node4" class="node"><title>MM1_QUEUE</title>
<g id="a_node4"><a xlink:href="MM1_QUEUE.html" xlink:title=" The M/M/1 Queue &#160;" target="_top">
<path fill="none" stroke="black" d="M166.25,-36C166.25,-36 59.75,-36 59.75,-36 53.75,-36 47.75,-30 47.75,-24 47.75,-24 47.75,-12 47.75,-12 47.75,-6 53.75,-0 59.75,-0 59.75,-0 166.25,-0 166.25,-0 172.25,-0 178.25,-6 178.25,-12 178.25,-12 178.25,-24 178.25,-24 178.25,-30 172.25,-36 166.25,-36"/>
<text text-anchor="start" x="55.5" y="-14.3" font-family="Times,serif" font-size="14.00"> The M/M/1 Queue &#160;</text>
</a>
</g>
</g>
<!-- CONTINUOUS_TIME_MARKOV_CHAIN&#45;&gt;MM1_QUEUE -->
<g id="edge2" class="edge"><title>CONTINUOUS_TIME_MARKOV_CHAIN&#45;&gt;MM1_QUEUE</title>
<path fill="none" stroke="black" d="M282.72,-143.871C248.232,-118.497 183.478,-70.8544 144.693,-42.3181"/>
<polygon fill="black" stroke="black" points="146.492,-39.2964 136.363,-36.1893 142.343,-44.9348 146.492,-39.2964"/>
</g>
<!-- EXPONENTIAL_RANDOM_VARIABLE -->
<g id="node2" class="node"><title>EXPONENTIAL_RANDOM_VARIABLE</title>
<g id="a_node2"><a xlink:href="EXPONENTIAL_RANDOM_VARIABLE.html" xlink:title=" Exponential random variable " target="_top">
<path fill="none" stroke="black" d="M170,-180C170,-180 12,-180 12,-180 6,-180 0,-174 0,-168 0,-168 0,-156 0,-156 0,-150 6,-144 12,-144 12,-144 170,-144 170,-144 176,-144 182,-150 182,-156 182,-156 182,-168 182,-168 182,-174 176,-180 170,-180"/>
<text text-anchor="start" x="8" y="-158.3" font-family="Times,serif" font-size="14.00"> Exponential random variable </text>
</a>
</g>
</g>
<!-- EXPONENTIAL_RANDOM_VARIABLE&#45;&gt;POISSON_PROCESS -->
<g id="edge3" class="edge"><title>EXPONENTIAL_RANDOM_VARIABLE&#45;&gt;POISSON_PROCESS</title>
<path fill="none" stroke="black" d="M141.373,-143.966C170.421,-134.142 207.13,-121.729 237.706,-111.389"/>
<polygon fill="black" stroke="black" points="239.049,-114.63 247.401,-108.111 236.807,-107.999 239.049,-114.63"/>
</g>
<!-- EXPONENTIAL_RANDOM_VARIABLE&#45;&gt;MM1_QUEUE -->
<g id="edge4" class="edge"><title>EXPONENTIAL_RANDOM_VARIABLE&#45;&gt;MM1_QUEUE</title>
<path fill="none" stroke="black" d="M93.6537,-143.871C97.4032,-119.67 104.291,-75.2108 108.756,-46.3932"/>
<polygon fill="black" stroke="black" points="112.264,-46.6073 110.337,-36.1893 105.347,-45.5355 112.264,-46.6073"/>
</g>
<!-- POISSON_PROCESS&#45;&gt;MM1_QUEUE -->
<g id="edge5" class="edge"><title>POISSON_PROCESS&#45;&gt;MM1_QUEUE</title>
<path fill="none" stroke="black" d="M252.744,-71.8761C227.004,-62.1365 194.592,-49.8725 167.464,-39.6081"/>
<polygon fill="black" stroke="black" points="168.701,-36.3338 158.109,-36.0683 166.223,-42.8808 168.701,-36.3338"/>
</g>
<!-- INHOMOGENEOUS_POISSON_PROCESS -->
<g id="node5" class="node"><title>INHOMOGENEOUS_POISSON_PROCESS</title>
<g id="a_node5"><a xlink:href="INHOMOGENEOUS_POISSON_PROCESS.html" xlink:title=" Inhomogeneous Poisson Process " target="_top">
<path fill="none" stroke="black" d="M387,-36C387,-36 209,-36 209,-36 203,-36 197,-30 197,-24 197,-24 197,-12 197,-12 197,-6 203,-0 209,-0 209,-0 387,-0 387,-0 393,-0 399,-6 399,-12 399,-12 399,-24 399,-24 399,-30 393,-36 387,-36"/>
<text text-anchor="start" x="205" y="-14.3" font-family="Times,serif" font-size="14.00"> Inhomogeneous Poisson Process </text>
</a>
</g>
</g>
<!-- POISSON_PROCESS&#45;&gt;INHOMOGENEOUS_POISSON_PROCESS -->
<g id="edge6" class="edge"><title>POISSON_PROCESS&#45;&gt;INHOMOGENEOUS_POISSON_PROCESS</title>
<path fill="none" stroke="black" d="M298,-71.6966C298,-63.9827 298,-54.7125 298,-46.1124"/>
<polygon fill="black" stroke="black" points="301.5,-46.1043 298,-36.1043 294.5,-46.1044 301.5,-46.1043"/>
</g>
<!-- COMPOUND_POISSON_PROCESS -->
<g id="node6" class="node"><title>COMPOUND_POISSON_PROCESS</title>
<g id="a_node6"><a xlink:href="COMPOUND_POISSON_PROCESS.html" xlink:title=" Compound Poisson Process " target="_top">
<path fill="none" stroke="black" d="M580.5,-36C580.5,-36 429.5,-36 429.5,-36 423.5,-36 417.5,-30 417.5,-24 417.5,-24 417.5,-12 417.5,-12 417.5,-6 423.5,-0 429.5,-0 429.5,-0 580.5,-0 580.5,-0 586.5,-0 592.5,-6 592.5,-12 592.5,-12 592.5,-24 592.5,-24 592.5,-30 586.5,-36 580.5,-36"/>
<text text-anchor="start" x="425" y="-14.3" font-family="Times,serif" font-size="14.00"> Compound Poisson Process </text>
</a>
</g>
</g>
<!-- POISSON_PROCESS&#45;&gt;COMPOUND_POISSON_PROCESS -->
<g id="edge7" class="edge"><title>POISSON_PROCESS&#45;&gt;COMPOUND_POISSON_PROCESS</title>
<path fill="none" stroke="black" d="M348.373,-71.9656C377.421,-62.1425 414.13,-49.7291 444.706,-39.3891"/>
<polygon fill="black" stroke="black" points="446.049,-42.6299 454.401,-36.1108 443.807,-35.9987 446.049,-42.6299"/>
</g>
</g>
</svg>
