<?xml version="1.0" encoding="UTF-8" standalone="no"?>
<!DOCTYPE svg PUBLIC "-//W3C//DTD SVG 1.1//EN"
 "http://www.w3.org/Graphics/SVG/1.1/DTD/svg11.dtd">
<!-- Generated by graphviz version 2.26.3 (20100126.1600)
 -->
<!-- Title: _anonymous_0 Pages: 1 -->
<svg width="682pt" height="404pt"
 viewBox="0.00 0.00 682.00 404.00" xmlns="http://www.w3.org/2000/svg" xmlns:xlink="http://www.w3.org/1999/xlink">
<g id="graph1" class="graph" transform="scale(1 1) rotate(0) translate(4 400)">
<title>_anonymous_0</title>
<!-- RANDOM_VARIABLES -->
<g id="node1" class="node"><title>RANDOM_VARIABLES</title>
<a xlink:href="RANDOM_VARIABLES.html" xlink:title=" Random variables " target="_top">
<polyline fill="none" stroke="black" points="637,-396 513,-396 "/>
<path fill="none" stroke="black" d="M513,-396C507,-396 501,-390 501,-384"/>
<polyline fill="none" stroke="black" points="501,-384 501,-372 "/>
<path fill="none" stroke="black" d="M501,-372C501,-366 507,-360 513,-360"/>
<polyline fill="none" stroke="black" points="513,-360 637,-360 "/>
<path fill="none" stroke="black" d="M637,-360C643,-360 649,-366 649,-372"/>
<polyline fill="none" stroke="black" points="649,-372 649,-384 "/>
<path fill="none" stroke="black" d="M649,-384C649,-390 643,-396 637,-396"/>
<text text-anchor="start" x="509" y="-375.233" font-family="Times Roman,serif" font-size="14.00"> Random variables </text>
</a>
</g>
<!-- BERNOULI_RANDOM_VARIABLE -->
<g id="node2" class="node"><title>BERNOULI_RANDOM_VARIABLE</title>
<a xlink:href="BERNOULI_RANDOM_VARIABLE.html" xlink:title=" Bernoulli random variable " target="_top">
<polyline fill="none" stroke="black" points="588,-180 408,-180 "/>
<path fill="none" stroke="black" d="M408,-180C402,-180 396,-174 396,-168"/>
<polyline fill="none" stroke="black" points="396,-168 396,-156 "/>
<path fill="none" stroke="black" d="M396,-156C396,-150 402,-144 408,-144"/>
<polyline fill="none" stroke="black" points="408,-144 588,-144 "/>
<path fill="none" stroke="black" d="M588,-144C594,-144 600,-150 600,-156"/>
<polyline fill="none" stroke="black" points="600,-156 600,-168 "/>
<path fill="none" stroke="black" d="M600,-168C600,-174 594,-180 588,-180"/>
<text text-anchor="start" x="404.5" y="-159.233" font-family="Times Roman,serif" font-size="14.00"> Bernoulli random variable </text>
</a>
</g>
<!-- RANDOM_VARIABLES&#45;&gt;BERNOULI_RANDOM_VARIABLE -->
<g id="edge2" class="edge"><title>RANDOM_VARIABLES&#45;&gt;BERNOULI_RANDOM_VARIABLE</title>
<path fill="none" stroke="black" d="M590.969,-359.585C616.349,-327.973 660.004,-262.316 629,-216 619.878,-202.372 606.623,-192.181 592.007,-184.559"/>
<polygon fill="black" stroke="black" points="593.287,-181.292 582.755,-180.138 590.269,-187.608 593.287,-181.292"/>
</g>
<!-- GEOMETRIC_RANDOM_VARIABLE -->
<g id="node4" class="node"><title>GEOMETRIC_RANDOM_VARIABLE</title>
<a xlink:href="GEOMETRIC_RANDOM_VARIABLE.html" xlink:title=" The geometric random variable " target="_top">
<polyline fill="none" stroke="black" points="662,-108 444,-108 "/>
<path fill="none" stroke="black" d="M444,-108C438,-108 432,-102 432,-96"/>
<polyline fill="none" stroke="black" points="432,-96 432,-84 "/>
<path fill="none" stroke="black" d="M432,-84C432,-78 438,-72 444,-72"/>
<polyline fill="none" stroke="black" points="444,-72 662,-72 "/>
<path fill="none" stroke="black" d="M662,-72C668,-72 674,-78 674,-84"/>
<polyline fill="none" stroke="black" points="674,-84 674,-96 "/>
<path fill="none" stroke="black" d="M674,-96C674,-102 668,-108 662,-108"/>
<text text-anchor="start" x="440.5" y="-87.2333" font-family="Times Roman,serif" font-size="14.00"> The geometric random variable </text>
</a>
</g>
<!-- RANDOM_VARIABLES&#45;&gt;GEOMETRIC_RANDOM_VARIABLE -->
<g id="edge4" class="edge"><title>RANDOM_VARIABLES&#45;&gt;GEOMETRIC_RANDOM_VARIABLE</title>
<path fill="none" stroke="black" d="M604.379,-359.89C616.771,-350.696 630.125,-338.411 638,-324 661.115,-281.698 659.843,-262.728 648,-216 639.059,-180.722 631.025,-172.972 609,-144 601.209,-133.752 591.457,-123.65 582.284,-115.005"/>
<polygon fill="black" stroke="black" points="584.507,-112.294 574.771,-108.115 579.776,-117.453 584.507,-112.294"/>
</g>
<!-- EXPECTATION -->
<g id="node6" class="node"><title>EXPECTATION</title>
<a xlink:href="EXPECTATION.html" xlink:title=" Expectation &#160;" target="_top">
<polyline fill="none" stroke="black" points="455,-324 367,-324 "/>
<path fill="none" stroke="black" d="M367,-324C361,-324 355,-318 355,-312"/>
<polyline fill="none" stroke="black" points="355,-312 355,-300 "/>
<path fill="none" stroke="black" d="M355,-300C355,-294 361,-288 367,-288"/>
<polyline fill="none" stroke="black" points="367,-288 455,-288 "/>
<path fill="none" stroke="black" d="M455,-288C461,-288 467,-294 467,-300"/>
<polyline fill="none" stroke="black" points="467,-300 467,-312 "/>
<path fill="none" stroke="black" d="M467,-312C467,-318 461,-324 455,-324"/>
<text text-anchor="start" x="363" y="-303.233" font-family="Times Roman,serif" font-size="14.00"> Expectation &#160;</text>
</a>
</g>
<!-- RANDOM_VARIABLES&#45;&gt;EXPECTATION -->
<g id="edge6" class="edge"><title>RANDOM_VARIABLES&#45;&gt;EXPECTATION</title>
<path fill="none" stroke="black" d="M533.616,-359.831C511.682,-350.202 484.561,-338.295 461.407,-328.13"/>
<polygon fill="black" stroke="black" points="462.65,-324.853 452.087,-324.038 459.836,-331.263 462.65,-324.853"/>
</g>
<!-- VARIANCE -->
<g id="node7" class="node"><title>VARIANCE</title>
<a xlink:href="VARIANCE.html" xlink:title=" Variance &#160;" target="_top">
<polyline fill="none" stroke="black" points="608,-252 542,-252 "/>
<path fill="none" stroke="black" d="M542,-252C536,-252 530,-246 530,-240"/>
<polyline fill="none" stroke="black" points="530,-240 530,-228 "/>
<path fill="none" stroke="black" d="M530,-228C530,-222 536,-216 542,-216"/>
<polyline fill="none" stroke="black" points="542,-216 608,-216 "/>
<path fill="none" stroke="black" d="M608,-216C614,-216 620,-222 620,-228"/>
<polyline fill="none" stroke="black" points="620,-228 620,-240 "/>
<path fill="none" stroke="black" d="M620,-240C620,-246 614,-252 608,-252"/>
<text text-anchor="start" x="538.5" y="-231.233" font-family="Times Roman,serif" font-size="14.00"> Variance &#160;</text>
</a>
</g>
<!-- RANDOM_VARIABLES&#45;&gt;VARIANCE -->
<g id="edge8" class="edge"><title>RANDOM_VARIABLES&#45;&gt;VARIANCE</title>
<path fill="none" stroke="black" d="M575,-359.762C575,-335.201 575,-291.247 575,-262.354"/>
<polygon fill="black" stroke="black" points="578.5,-262.09 575,-252.09 571.5,-262.09 578.5,-262.09"/>
</g>
<!-- MOMENT_GENERATING_FUNCTION -->
<g id="node8" class="node"><title>MOMENT_GENERATING_FUNCTION</title>
<a xlink:href="MOMENT_GENERATING_FUNCTION.html" xlink:title=" The moment generating function " target="_top">
<polyline fill="none" stroke="black" points="242,-252 12,-252 "/>
<path fill="none" stroke="black" d="M12,-252C6,-252 9.4739e-14,-246 7.57912e-14,-240"/>
<polyline fill="none" stroke="black" points="7.57912e-14,-240 3.78956e-14,-228 "/>
<path fill="none" stroke="black" d="M3.78956e-14,-228C1.89478e-14,-222 6,-216 12,-216"/>
<polyline fill="none" stroke="black" points="12,-216 242,-216 "/>
<path fill="none" stroke="black" d="M242,-216C248,-216 254,-222 254,-228"/>
<polyline fill="none" stroke="black" points="254,-228 254,-240 "/>
<path fill="none" stroke="black" d="M254,-240C254,-246 248,-252 242,-252"/>
<text text-anchor="start" x="8" y="-231.233" font-family="Times Roman,serif" font-size="14.00"> The moment generating function </text>
</a>
</g>
<!-- RANDOM_VARIABLES&#45;&gt;MOMENT_GENERATING_FUNCTION -->
<g id="edge10" class="edge"><title>RANDOM_VARIABLES&#45;&gt;MOMENT_GENERATING_FUNCTION</title>
<path fill="none" stroke="black" d="M500.965,-363.652C455.718,-354.119 396.947,-340.362 346,-324 285.838,-304.679 218.963,-276.11 175.129,-256.367"/>
<polygon fill="black" stroke="black" points="176.418,-253.108 165.864,-252.17 173.53,-259.484 176.418,-253.108"/>
</g>
<!-- BINOMIAL_RANDOM_VARIABLE -->
<g id="node3" class="node"><title>BINOMIAL_RANDOM_VARIABLE</title>
<a xlink:href="BINOMIAL_RANDOM_VARIABLE.html" xlink:title=" Binomial random variable " target="_top">
<polyline fill="none" stroke="black" points="345,-108 167,-108 "/>
<path fill="none" stroke="black" d="M167,-108C161,-108 155,-102 155,-96"/>
<polyline fill="none" stroke="black" points="155,-96 155,-84 "/>
<path fill="none" stroke="black" d="M155,-84C155,-78 161,-72 167,-72"/>
<polyline fill="none" stroke="black" points="167,-72 345,-72 "/>
<path fill="none" stroke="black" d="M345,-72C351,-72 357,-78 357,-84"/>
<polyline fill="none" stroke="black" points="357,-84 357,-96 "/>
<path fill="none" stroke="black" d="M357,-96C357,-102 351,-108 345,-108"/>
<text text-anchor="start" x="163.5" y="-87.2333" font-family="Times Roman,serif" font-size="14.00"> Binomial random variable </text>
</a>
</g>
<!-- BERNOULI_RANDOM_VARIABLE&#45;&gt;BINOMIAL_RANDOM_VARIABLE -->
<g id="edge12" class="edge"><title>BERNOULI_RANDOM_VARIABLE&#45;&gt;BINOMIAL_RANDOM_VARIABLE</title>
<path fill="none" stroke="black" d="M437.246,-143.924C403.587,-133.91 361.579,-121.412 326.483,-110.97"/>
<polygon fill="black" stroke="black" points="327.362,-107.58 316.779,-108.083 325.366,-114.29 327.362,-107.58"/>
</g>
<!-- BERNOULI_RANDOM_VARIABLE&#45;&gt;GEOMETRIC_RANDOM_VARIABLE -->
<g id="edge14" class="edge"><title>BERNOULI_RANDOM_VARIABLE&#45;&gt;GEOMETRIC_RANDOM_VARIABLE</title>
<path fill="none" stroke="black" d="M511.879,-143.831C518.214,-135.539 525.838,-125.557 532.793,-116.453"/>
<polygon fill="black" stroke="black" points="535.645,-118.485 538.934,-108.413 530.083,-114.235 535.645,-118.485"/>
</g>
<!-- POISSON_RANDOM_VARIABLE -->
<g id="node5" class="node"><title>POISSON_RANDOM_VARIABLE</title>
<a xlink:href="POISSON_RANDOM_VARIABLE.html" xlink:title=" The poisson random variable " target="_top">
<polyline fill="none" stroke="black" points="291,-36 91,-36 "/>
<path fill="none" stroke="black" d="M91,-36C85,-36 79,-30 79,-24"/>
<polyline fill="none" stroke="black" points="79,-24 79,-12 "/>
<path fill="none" stroke="black" d="M79,-12C79,-6 85,-1.73829e-14 91,-1.70023e-14"/>
<polyline fill="none" stroke="black" points="91,-1.70023e-14 291,-4.31401e-15 "/>
<path fill="none" stroke="black" d="M291,-4.31401e-15C297,-3.93336e-15 303,-6 303,-12"/>
<polyline fill="none" stroke="black" points="303,-12 303,-24 "/>
<path fill="none" stroke="black" d="M303,-24C303,-30 297,-36 291,-36"/>
<text text-anchor="start" x="87" y="-15.2333" font-family="Times Roman,serif" font-size="14.00"> The poisson random variable </text>
</a>
</g>
<!-- BINOMIAL_RANDOM_VARIABLE&#45;&gt;POISSON_RANDOM_VARIABLE -->
<g id="edge16" class="edge"><title>BINOMIAL_RANDOM_VARIABLE&#45;&gt;POISSON_RANDOM_VARIABLE</title>
<path fill="none" stroke="black" d="M239.598,-71.8314C231.958,-63.3694 222.732,-53.1489 214.379,-43.8971"/>
<polygon fill="black" stroke="black" points="216.922,-41.4906 207.623,-36.4133 211.726,-46.1813 216.922,-41.4906"/>
</g>
<!-- EXPECTATION&#45;&gt;BERNOULI_RANDOM_VARIABLE -->
<g id="edge18" class="edge"><title>EXPECTATION&#45;&gt;BERNOULI_RANDOM_VARIABLE</title>
<path fill="none" stroke="black" d="M354.82,-292.05C334.23,-283.923 313.038,-271.32 301,-252 292.539,-238.42 291.296,-228.722 301,-216 312.352,-201.117 347.842,-189.326 385.63,-180.608"/>
<polygon fill="black" stroke="black" points="386.8,-183.933 395.801,-178.344 385.279,-177.1 386.8,-183.933"/>
</g>
<!-- EXPECTATION&#45;&gt;VARIANCE -->
<g id="edge20" class="edge"><title>EXPECTATION&#45;&gt;VARIANCE</title>
<path fill="none" stroke="black" d="M452.384,-287.831C474.318,-278.202 501.439,-266.295 524.593,-256.13"/>
<polygon fill="black" stroke="black" points="526.164,-259.263 533.913,-252.038 523.35,-252.853 526.164,-259.263"/>
</g>
<!-- EXPECTATION&#45;&gt;MOMENT_GENERATING_FUNCTION -->
<g id="edge22" class="edge"><title>EXPECTATION&#45;&gt;MOMENT_GENERATING_FUNCTION</title>
<path fill="none" stroke="black" d="M354.891,-291.775C312.935,-281.139 254.957,-266.44 207.98,-254.53"/>
<polygon fill="black" stroke="black" points="208.686,-251.099 198.133,-252.034 206.966,-257.884 208.686,-251.099"/>
</g>
<!-- LAW_OF_LARGE_NUMBERS -->
<g id="node9" class="node"><title>LAW_OF_LARGE_NUMBERS</title>
<a xlink:href="LAW_OF_LARGE_NUMBERS.html" xlink:title=" The law of large numbers " target="_top">
<polyline fill="none" stroke="black" points="500,-252 322,-252 "/>
<path fill="none" stroke="black" d="M322,-252C316,-252 310,-246 310,-240"/>
<polyline fill="none" stroke="black" points="310,-240 310,-228 "/>
<path fill="none" stroke="black" d="M310,-228C310,-222 316,-216 322,-216"/>
<polyline fill="none" stroke="black" points="322,-216 500,-216 "/>
<path fill="none" stroke="black" d="M500,-216C506,-216 512,-222 512,-228"/>
<polyline fill="none" stroke="black" points="512,-228 512,-240 "/>
<path fill="none" stroke="black" d="M512,-240C512,-246 506,-252 500,-252"/>
<text text-anchor="start" x="318" y="-231.233" font-family="Times Roman,serif" font-size="14.00"> The law of large numbers </text>
</a>
</g>
<!-- EXPECTATION&#45;&gt;LAW_OF_LARGE_NUMBERS -->
<g id="edge24" class="edge"><title>EXPECTATION&#45;&gt;LAW_OF_LARGE_NUMBERS</title>
<path fill="none" stroke="black" d="M411,-287.831C411,-280.131 411,-270.974 411,-262.417"/>
<polygon fill="black" stroke="black" points="414.5,-262.413 411,-252.413 407.5,-262.413 414.5,-262.413"/>
</g>
<!-- VARIANCE&#45;&gt;BERNOULI_RANDOM_VARIABLE -->
<g id="edge26" class="edge"><title>VARIANCE&#45;&gt;BERNOULI_RANDOM_VARIABLE</title>
<path fill="none" stroke="black" d="M555.57,-215.831C546.268,-207.134 534.98,-196.578 524.871,-187.127"/>
<polygon fill="black" stroke="black" points="527.119,-184.436 517.424,-180.163 522.338,-189.549 527.119,-184.436"/>
</g>
<!-- MOMENT_GENERATING_FUNCTION&#45;&gt;BERNOULI_RANDOM_VARIABLE -->
<g id="edge28" class="edge"><title>MOMENT_GENERATING_FUNCTION&#45;&gt;BERNOULI_RANDOM_VARIABLE</title>
<path fill="none" stroke="black" d="M220.14,-215.924C273.385,-205.591 340.259,-192.613 395.058,-181.978"/>
<polygon fill="black" stroke="black" points="395.993,-185.362 405.143,-180.021 394.66,-178.49 395.993,-185.362"/>
</g>
<!-- MOMENT_GENERATING_FUNCTION&#45;&gt;BINOMIAL_RANDOM_VARIABLE -->
<g id="edge30" class="edge"><title>MOMENT_GENERATING_FUNCTION&#45;&gt;BINOMIAL_RANDOM_VARIABLE</title>
<path fill="none" stroke="black" d="M143.338,-215.762C166.019,-190.444 207.161,-144.518 232.955,-115.725"/>
<polygon fill="black" stroke="black" points="235.729,-117.873 239.795,-108.09 230.515,-113.203 235.729,-117.873"/>
</g>
<!-- MOMENT_GENERATING_FUNCTION&#45;&gt;POISSON_RANDOM_VARIABLE -->
<g id="edge32" class="edge"><title>MOMENT_GENERATING_FUNCTION&#45;&gt;POISSON_RANDOM_VARIABLE</title>
<path fill="none" stroke="black" d="M125.842,-215.642C124.595,-184.669 125.099,-120.655 146,-72 150.38,-61.8035 157.327,-52.0371 164.464,-43.6819"/>
<polygon fill="black" stroke="black" points="167.176,-45.9005 171.287,-36.1357 161.984,-41.2056 167.176,-45.9005"/>
</g>
</g>
</svg>
