<?xml version="1.0" encoding="UTF-8" standalone="no"?>
<!DOCTYPE svg PUBLIC "-//W3C//DTD SVG 1.1//EN"
 "http://www.w3.org/Graphics/SVG/1.1/DTD/svg11.dtd">
<!-- Generated by graphviz version 2.26.3 (20100126.1600)
 -->
<!-- Title: _anonymous_0 Pages: 1 -->
<svg width="687pt" height="188pt"
 viewBox="0.00 0.00 686.57 188.00" xmlns="http://www.w3.org/2000/svg" xmlns:xlink="http://www.w3.org/1999/xlink">
<g id="graph1" class="graph" transform="scale(1 1) rotate(0) translate(4 184)">
<title>_anonymous_0</title>
<!-- CONTINUOUS_TIME_MARKOV_CHAIN -->
<g id="node1" class="node"><title>CONTINUOUS_TIME_MARKOV_CHAIN</title>
<a xlink:href="CONTINUOUS_TIME_MARKOV_CHAIN.html" xlink:title=" Markov chains in continuous time " target="_top">
<polyline fill="none" stroke="black" points="272.571,-180 38.5713,-180 "/>
<path fill="none" stroke="black" d="M38.5713,-180C32.5713,-180 26.5713,-174 26.5713,-168"/>
<polyline fill="none" stroke="black" points="26.5713,-168 26.5713,-156 "/>
<path fill="none" stroke="black" d="M26.5713,-156C26.5713,-150 32.5713,-144 38.5713,-144"/>
<polyline fill="none" stroke="black" points="38.5713,-144 272.571,-144 "/>
<path fill="none" stroke="black" d="M272.571,-144C278.571,-144 284.571,-150 284.571,-156"/>
<polyline fill="none" stroke="black" points="284.571,-156 284.571,-168 "/>
<path fill="none" stroke="black" d="M284.571,-168C284.571,-174 278.571,-180 272.571,-180"/>
<text text-anchor="start" x="35.0713" y="-159.233" font-family="Times Roman,serif" font-size="14.00"> Markov chains in continuous time </text>
</a>
</g>
<!-- POISSON_PROCESS -->
<g id="node3" class="node"><title>POISSON_PROCESS</title>
<a xlink:href="POISSON_PROCESS.html" xlink:title=" Poisson Process " target="_top">
<polyline fill="none" stroke="black" points="379.571,-108 269.571,-108 "/>
<path fill="none" stroke="black" d="M269.571,-108C263.571,-108 257.571,-102 257.571,-96"/>
<polyline fill="none" stroke="black" points="257.571,-96 257.571,-84 "/>
<path fill="none" stroke="black" d="M257.571,-84C257.571,-78 263.571,-72 269.571,-72"/>
<polyline fill="none" stroke="black" points="269.571,-72 379.571,-72 "/>
<path fill="none" stroke="black" d="M379.571,-72C385.571,-72 391.571,-78 391.571,-84"/>
<polyline fill="none" stroke="black" points="391.571,-84 391.571,-96 "/>
<path fill="none" stroke="black" d="M391.571,-96C391.571,-102 385.571,-108 379.571,-108"/>
<text text-anchor="start" x="266.071" y="-87.2333" font-family="Times Roman,serif" font-size="14.00"> Poisson Process </text>
</a>
</g>
<!-- CONTINUOUS_TIME_MARKOV_CHAIN&#45;&gt;POISSON_PROCESS -->
<g id="edge2" class="edge"><title>CONTINUOUS_TIME_MARKOV_CHAIN&#45;&gt;POISSON_PROCESS</title>
<path fill="none" stroke="black" d="M198.217,-143.831C220.92,-134.159 249.016,-122.189 272.945,-111.994"/>
<polygon fill="black" stroke="black" points="274.404,-115.177 282.232,-108.038 271.66,-108.738 274.404,-115.177"/>
</g>
<!-- MM1_QUEUE -->
<g id="node4" class="node"><title>MM1_QUEUE</title>
<a xlink:href="MM1_QUEUE.html" xlink:title=" The M/M/1 Queue &#160;" target="_top">
<polyline fill="none" stroke="black" points="170.571,-36 40.5713,-36 "/>
<path fill="none" stroke="black" d="M40.5713,-36C34.5713,-36 28.5713,-30 28.5713,-24"/>
<polyline fill="none" stroke="black" points="28.5713,-24 28.5713,-12 "/>
<path fill="none" stroke="black" d="M28.5713,-12C28.5713,-6 34.5713,-1.72099e-14 40.5713,-1.66562e-14"/>
<polyline fill="none" stroke="black" points="40.5713,-1.66562e-14 170.571,-4.66005e-15 "/>
<path fill="none" stroke="black" d="M170.571,-4.66005e-15C176.571,-4.10638e-15 182.571,-6 182.571,-12"/>
<polyline fill="none" stroke="black" points="182.571,-12 182.571,-24 "/>
<path fill="none" stroke="black" d="M182.571,-24C182.571,-30 176.571,-36 170.571,-36"/>
<text text-anchor="start" x="37.0713" y="-15.2333" font-family="Times Roman,serif" font-size="14.00"> The M/M/1 Queue &#160;</text>
</a>
</g>
<!-- CONTINUOUS_TIME_MARKOV_CHAIN&#45;&gt;MM1_QUEUE -->
<g id="edge4" class="edge"><title>CONTINUOUS_TIME_MARKOV_CHAIN&#45;&gt;MM1_QUEUE</title>
<path fill="none" stroke="black" d="M82.1211,-143.916C49.3812,-134.227 16.0496,-121.517 6.57129,-108 -2.61493,-94.8999 -1.59614,-85.7584 6.57129,-72 14.4005,-58.8114 26.7089,-48.6377 40.0219,-40.8689"/>
<polygon fill="black" stroke="black" points="41.7308,-43.9239 48.8785,-36.1034 38.4139,-37.7596 41.7308,-43.9239"/>
</g>
<!-- EXPONENTIAL_RANDOM_VARIABLE -->
<g id="node2" class="node"><title>EXPONENTIAL_RANDOM_VARIABLE</title>
<a xlink:href="EXPONENTIAL_RANDOM_VARIABLE.html" xlink:title=" Exponential random variable " target="_top">
<polyline fill="none" stroke="black" points="227.571,-108 27.5713,-108 "/>
<path fill="none" stroke="black" d="M27.5713,-108C21.5713,-108 15.5713,-102 15.5713,-96"/>
<polyline fill="none" stroke="black" points="15.5713,-96 15.5713,-84 "/>
<path fill="none" stroke="black" d="M15.5713,-84C15.5713,-78 21.5713,-72 27.5713,-72"/>
<polyline fill="none" stroke="black" points="27.5713,-72 227.571,-72 "/>
<path fill="none" stroke="black" d="M227.571,-72C233.571,-72 239.571,-78 239.571,-84"/>
<polyline fill="none" stroke="black" points="239.571,-84 239.571,-96 "/>
<path fill="none" stroke="black" d="M239.571,-96C239.571,-102 233.571,-108 227.571,-108"/>
<text text-anchor="start" x="23.5713" y="-87.2333" font-family="Times Roman,serif" font-size="14.00"> Exponential random variable </text>
</a>
</g>
<!-- EXPONENTIAL_RANDOM_VARIABLE&#45;&gt;MM1_QUEUE -->
<g id="edge6" class="edge"><title>EXPONENTIAL_RANDOM_VARIABLE&#45;&gt;MM1_QUEUE</title>
<path fill="none" stroke="black" d="M122.02,-71.8314C119.641,-64.0463 116.807,-54.7729 114.168,-46.1347"/>
<polygon fill="black" stroke="black" points="117.467,-44.954 111.198,-36.4133 110.773,-46.9996 117.467,-44.954"/>
</g>
<!-- POISSON_PROCESS&#45;&gt;MM1_QUEUE -->
<g id="edge8" class="edge"><title>POISSON_PROCESS&#45;&gt;MM1_QUEUE</title>
<path fill="none" stroke="black" d="M269.591,-71.9243C239.392,-61.9959 201.766,-49.6255 170.171,-39.2382"/>
<polygon fill="black" stroke="black" points="171.167,-35.8815 160.574,-36.0831 168.981,-42.5313 171.167,-35.8815"/>
</g>
<!-- INHOMOGENEOUS_POISSON_PROCESS -->
<g id="node5" class="node"><title>INHOMOGENEOUS_POISSON_PROCESS</title>
<a xlink:href="INHOMOGENEOUS_POISSON_PROCESS.html" xlink:title=" Inhomogeneous Poisson Process " target="_top">
<polyline fill="none" stroke="black" points="436.571,-36 212.571,-36 "/>
<path fill="none" stroke="black" d="M212.571,-36C206.571,-36 200.571,-30 200.571,-24"/>
<polyline fill="none" stroke="black" points="200.571,-24 200.571,-12 "/>
<path fill="none" stroke="black" d="M200.571,-12C200.571,-6 206.571,-1.74198e-14 212.571,-1.70759e-14"/>
<polyline fill="none" stroke="black" points="212.571,-1.70759e-14 436.571,-4.24034e-15 "/>
<path fill="none" stroke="black" d="M436.571,-4.24034e-15C442.571,-3.89652e-15 448.571,-6 448.571,-12"/>
<polyline fill="none" stroke="black" points="448.571,-12 448.571,-24 "/>
<path fill="none" stroke="black" d="M448.571,-24C448.571,-30 442.571,-36 436.571,-36"/>
<text text-anchor="start" x="209.071" y="-15.2333" font-family="Times Roman,serif" font-size="14.00"> Inhomogeneous Poisson Process </text>
</a>
</g>
<!-- POISSON_PROCESS&#45;&gt;INHOMOGENEOUS_POISSON_PROCESS -->
<g id="edge10" class="edge"><title>POISSON_PROCESS&#45;&gt;INHOMOGENEOUS_POISSON_PROCESS</title>
<path fill="none" stroke="black" d="M324.571,-71.8314C324.571,-64.131 324.571,-54.9743 324.571,-46.4166"/>
<polygon fill="black" stroke="black" points="328.071,-46.4132 324.571,-36.4133 321.071,-46.4133 328.071,-46.4132"/>
</g>
<!-- COMPOUND_POISSON_PROCESS -->
<g id="node6" class="node"><title>COMPOUND_POISSON_PROCESS</title>
<a xlink:href="COMPOUND_POISSON_PROCESS.html" xlink:title=" Compound Poisson Process " target="_top">
<polyline fill="none" stroke="black" points="666.571,-36 478.571,-36 "/>
<path fill="none" stroke="black" d="M478.571,-36C472.571,-36 466.571,-30 466.571,-24"/>
<polyline fill="none" stroke="black" points="466.571,-24 466.571,-12 "/>
<path fill="none" stroke="black" d="M466.571,-12C466.571,-6 472.571,-1.73614e-14 478.571,-1.69592e-14"/>
<polyline fill="none" stroke="black" points="478.571,-1.69592e-14 666.571,-4.3571e-15 "/>
<path fill="none" stroke="black" d="M666.571,-4.3571e-15C672.571,-3.95491e-15 678.571,-6 678.571,-12"/>
<polyline fill="none" stroke="black" points="678.571,-12 678.571,-24 "/>
<path fill="none" stroke="black" d="M678.571,-24C678.571,-30 672.571,-36 666.571,-36"/>
<text text-anchor="start" x="475.071" y="-15.2333" font-family="Times Roman,serif" font-size="14.00"> Compound Poisson Process </text>
</a>
</g>
<!-- POISSON_PROCESS&#45;&gt;COMPOUND_POISSON_PROCESS -->
<g id="edge12" class="edge"><title>POISSON_PROCESS&#45;&gt;COMPOUND_POISSON_PROCESS</title>
<path fill="none" stroke="black" d="M386.832,-71.9243C421.325,-61.9103 464.374,-49.412 500.341,-38.97"/>
<polygon fill="black" stroke="black" points="501.657,-42.2325 510.285,-36.0831 499.706,-35.5101 501.657,-42.2325"/>
</g>
</g>
</svg>
