<?xml version="1.0" encoding="UTF-8" standalone="no"?>
<!DOCTYPE svg PUBLIC "-//W3C//DTD SVG 1.1//EN"
 "http://www.w3.org/Graphics/SVG/1.1/DTD/svg11.dtd">
<!-- Generated by graphviz version 2.36.0 (20140111.2315)
 -->
<!-- Title: %3 Pages: 1 -->
<svg width="757pt" height="404pt"
 viewBox="0.00 0.00 757.24 404.00" xmlns="http://www.w3.org/2000/svg" xmlns:xlink="http://www.w3.org/1999/xlink">
<g id="graph0" class="graph" transform="scale(1 1) rotate(0) translate(4 400)">
<title>%3</title>
<!-- RANDOM_VARIABLES -->
<g id="node1" class="node"><title>RANDOM_VARIABLES</title>
<g id="a_node1"><a xlink:href="RANDOM_VARIABLES.html" xlink:title=" Random variables " target="_top">
<path fill="none" stroke="black" d="M345.495,-396C345.495,-396 246.995,-396 246.995,-396 240.995,-396 234.995,-390 234.995,-384 234.995,-384 234.995,-372 234.995,-372 234.995,-366 240.995,-360 246.995,-360 246.995,-360 345.495,-360 345.495,-360 351.495,-360 357.495,-366 357.495,-372 357.495,-372 357.495,-384 357.495,-384 357.495,-390 351.495,-396 345.495,-396"/>
<text text-anchor="start" x="242.745" y="-374.3" font-family="Times,serif" font-size="14.00"> Random variables </text>
</a>
</g>
</g>
<!-- BERNOULI_RANDOM_VARIABLE -->
<g id="node2" class="node"><title>BERNOULI_RANDOM_VARIABLE</title>
<g id="a_node2"><a xlink:href="BERNOULI_RANDOM_VARIABLE.html" xlink:title=" Bernoulli random variable " target="_top">
<path fill="none" stroke="black" d="M371.745,-180C371.745,-180 228.745,-180 228.745,-180 222.745,-180 216.745,-174 216.745,-168 216.745,-168 216.745,-156 216.745,-156 216.745,-150 222.745,-144 228.745,-144 228.745,-144 371.745,-144 371.745,-144 377.745,-144 383.745,-150 383.745,-156 383.745,-156 383.745,-168 383.745,-168 383.745,-174 377.745,-180 371.745,-180"/>
<text text-anchor="start" x="224.245" y="-158.3" font-family="Times,serif" font-size="14.00"> Bernoulli random variable </text>
</a>
</g>
</g>
<!-- RANDOM_VARIABLES&#45;&gt;BERNOULI_RANDOM_VARIABLE -->
<g id="edge1" class="edge"><title>RANDOM_VARIABLES&#45;&gt;BERNOULI_RANDOM_VARIABLE</title>
<path fill="none" stroke="black" d="M234.896,-374.196C161.274,-369.395 44.3241,-356.708 17.2447,-324 -44.3044,-249.658 102.137,-202.864 206.506,-179.941"/>
<polygon fill="black" stroke="black" points="207.426,-183.323 216.466,-177.797 205.953,-176.479 207.426,-183.323"/>
</g>
<!-- GEOMETRIC_RANDOM_VARIABLE -->
<g id="node4" class="node"><title>GEOMETRIC_RANDOM_VARIABLE</title>
<g id="a_node4"><a xlink:href="GEOMETRIC_RANDOM_VARIABLE.html" xlink:title=" The geometric random variable " target="_top">
<path fill="none" stroke="black" d="M235.495,-108C235.495,-108 62.9947,-108 62.9947,-108 56.9947,-108 50.9947,-102 50.9947,-96 50.9947,-96 50.9947,-84 50.9947,-84 50.9947,-78 56.9947,-72 62.9947,-72 62.9947,-72 235.495,-72 235.495,-72 241.495,-72 247.495,-78 247.495,-84 247.495,-84 247.495,-96 247.495,-96 247.495,-102 241.495,-108 235.495,-108"/>
<text text-anchor="start" x="58.7447" y="-86.3" font-family="Times,serif" font-size="14.00"> The geometric random variable </text>
</a>
</g>
</g>
<!-- RANDOM_VARIABLES&#45;&gt;GEOMETRIC_RANDOM_VARIABLE -->
<g id="edge2" class="edge"><title>RANDOM_VARIABLES&#45;&gt;GEOMETRIC_RANDOM_VARIABLE</title>
<path fill="none" stroke="black" d="M234.896,-374.196C161.274,-369.395 44.3241,-356.708 17.2447,-324 -39.7215,-255.194 63.1782,-158.421 118.063,-114.42"/>
<polygon fill="black" stroke="black" points="120.426,-117.014 126.108,-108.072 116.09,-111.519 120.426,-117.014"/>
</g>
<!-- UNIFORM_RANDOM_VARIABLE -->
<g id="node6" class="node"><title>UNIFORM_RANDOM_VARIABLE</title>
<g id="a_node6"><a xlink:href="UNIFORM_RANDOM_VARIABLE.html" xlink:title=" Uniform Random Variable " target="_top">
<path fill="none" stroke="black" d="M186.245,-324C186.245,-324 38.2447,-324 38.2447,-324 32.2447,-324 26.2447,-318 26.2447,-312 26.2447,-312 26.2447,-300 26.2447,-300 26.2447,-294 32.2447,-288 38.2447,-288 38.2447,-288 186.245,-288 186.245,-288 192.245,-288 198.245,-294 198.245,-300 198.245,-300 198.245,-312 198.245,-312 198.245,-318 192.245,-324 186.245,-324"/>
<text text-anchor="start" x="34.2447" y="-302.3" font-family="Times,serif" font-size="14.00"> Uniform Random Variable </text>
</a>
</g>
</g>
<!-- RANDOM_VARIABLES&#45;&gt;UNIFORM_RANDOM_VARIABLE -->
<g id="edge3" class="edge"><title>RANDOM_VARIABLES&#45;&gt;UNIFORM_RANDOM_VARIABLE</title>
<path fill="none" stroke="black" d="M251.233,-359.876C225.744,-350.179 193.677,-337.98 166.768,-327.743"/>
<polygon fill="black" stroke="black" points="167.701,-324.353 157.11,-324.068 165.212,-330.895 167.701,-324.353"/>
</g>
<!-- NORMAL_RANDOM_VARIABLE -->
<g id="node7" class="node"><title>NORMAL_RANDOM_VARIABLE</title>
<g id="a_node7"><a xlink:href="NORMAL_RANDOM_VARIABLE.html" xlink:title=" Normal random variable " target="_top">
<path fill="none" stroke="black" d="M363.495,-324C363.495,-324 228.995,-324 228.995,-324 222.995,-324 216.995,-318 216.995,-312 216.995,-312 216.995,-300 216.995,-300 216.995,-294 222.995,-288 228.995,-288 228.995,-288 363.495,-288 363.495,-288 369.495,-288 375.495,-294 375.495,-300 375.495,-300 375.495,-312 375.495,-312 375.495,-318 369.495,-324 363.495,-324"/>
<text text-anchor="start" x="224.745" y="-302.3" font-family="Times,serif" font-size="14.00"> Normal random variable </text>
</a>
</g>
</g>
<!-- RANDOM_VARIABLES&#45;&gt;NORMAL_RANDOM_VARIABLE -->
<g id="edge4" class="edge"><title>RANDOM_VARIABLES&#45;&gt;NORMAL_RANDOM_VARIABLE</title>
<path fill="none" stroke="black" d="M296.245,-359.697C296.245,-351.983 296.245,-342.712 296.245,-334.112"/>
<polygon fill="black" stroke="black" points="299.745,-334.104 296.245,-324.104 292.745,-334.104 299.745,-334.104"/>
</g>
<!-- EXPECTATION -->
<g id="node8" class="node"><title>EXPECTATION</title>
<g id="a_node8"><a xlink:href="EXPECTATION.html" xlink:title=" Expectation &#160;" target="_top">
<path fill="none" stroke="black" d="M511.245,-324C511.245,-324 443.245,-324 443.245,-324 437.245,-324 431.245,-318 431.245,-312 431.245,-312 431.245,-300 431.245,-300 431.245,-294 437.245,-288 443.245,-288 443.245,-288 511.245,-288 511.245,-288 517.245,-288 523.245,-294 523.245,-300 523.245,-300 523.245,-312 523.245,-312 523.245,-318 517.245,-324 511.245,-324"/>
<text text-anchor="start" x="439.245" y="-302.3" font-family="Times,serif" font-size="14.00"> Expectation &#160;</text>
</a>
</g>
</g>
<!-- RANDOM_VARIABLES&#45;&gt;EXPECTATION -->
<g id="edge5" class="edge"><title>RANDOM_VARIABLES&#45;&gt;EXPECTATION</title>
<path fill="none" stroke="black" d="M340.522,-359.876C365.596,-350.179 397.14,-337.98 423.61,-327.743"/>
<polygon fill="black" stroke="black" points="425.047,-330.94 433.111,-324.068 422.522,-324.411 425.047,-330.94"/>
</g>
<!-- VARIANCE -->
<g id="node9" class="node"><title>VARIANCE</title>
<g id="a_node9"><a xlink:href="VARIANCE.html" xlink:title=" Variance &#160;" target="_top">
<path fill="none" stroke="black" d="M292.495,-252C292.495,-252 239.995,-252 239.995,-252 233.995,-252 227.995,-246 227.995,-240 227.995,-240 227.995,-228 227.995,-228 227.995,-222 233.995,-216 239.995,-216 239.995,-216 292.495,-216 292.495,-216 298.495,-216 304.495,-222 304.495,-228 304.495,-228 304.495,-240 304.495,-240 304.495,-246 298.495,-252 292.495,-252"/>
<text text-anchor="start" x="235.745" y="-230.3" font-family="Times,serif" font-size="14.00"> Variance &#160;</text>
</a>
</g>
</g>
<!-- RANDOM_VARIABLES&#45;&gt;VARIANCE -->
<g id="edge6" class="edge"><title>RANDOM_VARIABLES&#45;&gt;VARIANCE</title>
<path fill="none" stroke="black" d="M343.287,-359.973C359.197,-351.696 375.207,-339.993 384.245,-324 392.116,-310.07 392.937,-301.433 384.245,-288 375.941,-275.168 343.109,-260.999 314.18,-250.541"/>
<polygon fill="black" stroke="black" points="315.154,-247.174 304.559,-247.145 312.823,-253.774 315.154,-247.174"/>
</g>
<!-- MOMENT_GENERATING_FUNCTION -->
<g id="node10" class="node"><title>MOMENT_GENERATING_FUNCTION</title>
<g id="a_node10"><a xlink:href="MOMENT_GENERATING_FUNCTION.html" xlink:title=" The moment generating function " target="_top">
<path fill="none" stroke="black" d="M736.745,-252C736.745,-252 557.745,-252 557.745,-252 551.745,-252 545.745,-246 545.745,-240 545.745,-240 545.745,-228 545.745,-228 545.745,-222 551.745,-216 557.745,-216 557.745,-216 736.745,-216 736.745,-216 742.745,-216 748.745,-222 748.745,-228 748.745,-228 748.745,-240 748.745,-240 748.745,-246 742.745,-252 736.745,-252"/>
<text text-anchor="start" x="553.245" y="-230.3" font-family="Times,serif" font-size="14.00"> The moment generating function </text>
</a>
</g>
</g>
<!-- RANDOM_VARIABLES&#45;&gt;MOMENT_GENERATING_FUNCTION -->
<g id="edge7" class="edge"><title>RANDOM_VARIABLES&#45;&gt;MOMENT_GENERATING_FUNCTION</title>
<path fill="none" stroke="black" d="M357.536,-370.685C406.628,-363.901 476.294,-350.325 532.245,-324 566.832,-307.727 600.733,-279.571 622.661,-259.281"/>
<polygon fill="black" stroke="black" points="625.3,-261.603 630.178,-252.198 620.5,-256.509 625.3,-261.603"/>
</g>
<!-- BINOMIAL_RANDOM_VARIABLE -->
<g id="node3" class="node"><title>BINOMIAL_RANDOM_VARIABLE</title>
<g id="a_node3"><a xlink:href="BINOMIAL_RANDOM_VARIABLE.html" xlink:title=" Binomial random variable " target="_top">
<path fill="none" stroke="black" d="M606.745,-108C606.745,-108 463.745,-108 463.745,-108 457.745,-108 451.745,-102 451.745,-96 451.745,-96 451.745,-84 451.745,-84 451.745,-78 457.745,-72 463.745,-72 463.745,-72 606.745,-72 606.745,-72 612.745,-72 618.745,-78 618.745,-84 618.745,-84 618.745,-96 618.745,-96 618.745,-102 612.745,-108 606.745,-108"/>
<text text-anchor="start" x="459.245" y="-86.3" font-family="Times,serif" font-size="14.00"> Binomial random variable </text>
</a>
</g>
</g>
<!-- BERNOULI_RANDOM_VARIABLE&#45;&gt;BINOMIAL_RANDOM_VARIABLE -->
<g id="edge8" class="edge"><title>BERNOULI_RANDOM_VARIABLE&#45;&gt;BINOMIAL_RANDOM_VARIABLE</title>
<path fill="none" stroke="black" d="M357.432,-143.966C390.837,-134.015 433.167,-121.406 468.144,-110.987"/>
<polygon fill="black" stroke="black" points="469.217,-114.32 477.801,-108.111 467.218,-107.611 469.217,-114.32"/>
</g>
<!-- BERNOULI_RANDOM_VARIABLE&#45;&gt;GEOMETRIC_RANDOM_VARIABLE -->
<g id="edge9" class="edge"><title>BERNOULI_RANDOM_VARIABLE&#45;&gt;GEOMETRIC_RANDOM_VARIABLE</title>
<path fill="none" stroke="black" d="M263.306,-143.876C242.755,-134.349 216.994,-122.407 195.156,-112.283"/>
<polygon fill="black" stroke="black" points="196.608,-109.099 186.063,-108.068 193.664,-115.45 196.608,-109.099"/>
</g>
<!-- POISSON_RANDOM_VARIABLE -->
<g id="node5" class="node"><title>POISSON_RANDOM_VARIABLE</title>
<g id="a_node5"><a xlink:href="POISSON_RANDOM_VARIABLE.html" xlink:title=" The poisson random variable " target="_top">
<path fill="none" stroke="black" d="M670.495,-36C670.495,-36 511.995,-36 511.995,-36 505.995,-36 499.995,-30 499.995,-24 499.995,-24 499.995,-12 499.995,-12 499.995,-6 505.995,-0 511.995,-0 511.995,-0 670.495,-0 670.495,-0 676.495,-0 682.495,-6 682.495,-12 682.495,-12 682.495,-24 682.495,-24 682.495,-30 676.495,-36 670.495,-36"/>
<text text-anchor="start" x="507.745" y="-14.3" font-family="Times,serif" font-size="14.00"> The poisson random variable </text>
</a>
</g>
</g>
<!-- BINOMIAL_RANDOM_VARIABLE&#45;&gt;POISSON_RANDOM_VARIABLE -->
<g id="edge10" class="edge"><title>BINOMIAL_RANDOM_VARIABLE&#45;&gt;POISSON_RANDOM_VARIABLE</title>
<path fill="none" stroke="black" d="M549.087,-71.6966C555.733,-63.3893 563.823,-53.2771 571.132,-44.1407"/>
<polygon fill="black" stroke="black" points="574.047,-46.0995 577.561,-36.1043 568.581,-41.7266 574.047,-46.0995"/>
</g>
<!-- EXPECTATION&#45;&gt;BERNOULI_RANDOM_VARIABLE -->
<g id="edge11" class="edge"><title>EXPECTATION&#45;&gt;BERNOULI_RANDOM_VARIABLE</title>
<path fill="none" stroke="black" d="M431.134,-293.252C405.66,-284.972 374.72,-271.773 352.245,-252 332.935,-235.012 318.917,-209.048 310.336,-189.54"/>
<polygon fill="black" stroke="black" points="313.547,-188.148 306.452,-180.28 307.092,-190.856 313.547,-188.148"/>
</g>
<!-- EXPECTATION&#45;&gt;VARIANCE -->
<g id="edge12" class="edge"><title>EXPECTATION&#45;&gt;VARIANCE</title>
<path fill="none" stroke="black" d="M431.201,-289.725C396.619,-278.252 349.383,-262.581 314.319,-250.949"/>
<polygon fill="black" stroke="black" points="315.366,-247.609 304.773,-247.782 313.162,-254.253 315.366,-247.609"/>
</g>
<!-- EXPECTATION&#45;&gt;MOMENT_GENERATING_FUNCTION -->
<g id="edge13" class="edge"><title>EXPECTATION&#45;&gt;MOMENT_GENERATING_FUNCTION</title>
<path fill="none" stroke="black" d="M518.831,-287.876C542.278,-278.222 571.749,-266.087 596.542,-255.878"/>
<polygon fill="black" stroke="black" points="597.879,-259.112 605.793,-252.068 595.214,-252.639 597.879,-259.112"/>
</g>
<!-- LAW_OF_LARGE_NUMBERS -->
<g id="node11" class="node"><title>LAW_OF_LARGE_NUMBERS</title>
<g id="a_node11"><a xlink:href="LAW_OF_LARGE_NUMBERS.html" xlink:title=" The law of large numbers " target="_top">
<path fill="none" stroke="black" d="M514.495,-252C514.495,-252 373.995,-252 373.995,-252 367.995,-252 361.995,-246 361.995,-240 361.995,-240 361.995,-228 361.995,-228 361.995,-222 367.995,-216 373.995,-216 373.995,-216 514.495,-216 514.495,-216 520.495,-216 526.495,-222 526.495,-228 526.495,-228 526.495,-240 526.495,-240 526.495,-246 520.495,-252 514.495,-252"/>
<text text-anchor="start" x="369.745" y="-230.3" font-family="Times,serif" font-size="14.00"> The law of large numbers </text>
</a>
</g>
</g>
<!-- EXPECTATION&#45;&gt;LAW_OF_LARGE_NUMBERS -->
<g id="edge14" class="edge"><title>EXPECTATION&#45;&gt;LAW_OF_LARGE_NUMBERS</title>
<path fill="none" stroke="black" d="M469.087,-287.697C465.331,-279.728 460.792,-270.1 456.626,-261.264"/>
<polygon fill="black" stroke="black" points="459.738,-259.657 452.308,-252.104 453.407,-262.642 459.738,-259.657"/>
</g>
<!-- VARIANCE&#45;&gt;BERNOULI_RANDOM_VARIABLE -->
<g id="edge15" class="edge"><title>VARIANCE&#45;&gt;BERNOULI_RANDOM_VARIABLE</title>
<path fill="none" stroke="black" d="M274.649,-215.697C278.519,-207.728 283.196,-198.1 287.488,-189.264"/>
<polygon fill="black" stroke="black" points="290.716,-190.629 291.937,-180.104 284.419,-187.57 290.716,-190.629"/>
</g>
<!-- MOMENT_GENERATING_FUNCTION&#45;&gt;BERNOULI_RANDOM_VARIABLE -->
<g id="edge16" class="edge"><title>MOMENT_GENERATING_FUNCTION&#45;&gt;BERNOULI_RANDOM_VARIABLE</title>
<path fill="none" stroke="black" d="M562.803,-215.966C511.729,-205.662 446.528,-192.51 393.879,-181.889"/>
<polygon fill="black" stroke="black" points="394.357,-178.415 383.863,-179.868 392.973,-185.277 394.357,-178.415"/>
</g>
<!-- MOMENT_GENERATING_FUNCTION&#45;&gt;BINOMIAL_RANDOM_VARIABLE -->
<g id="edge17" class="edge"><title>MOMENT_GENERATING_FUNCTION&#45;&gt;BINOMIAL_RANDOM_VARIABLE</title>
<path fill="none" stroke="black" d="M633.735,-215.871C614.142,-191.031 577.715,-144.846 555.075,-116.142"/>
<polygon fill="black" stroke="black" points="557.743,-113.873 548.802,-108.189 552.247,-118.208 557.743,-113.873"/>
</g>
<!-- MOMENT_GENERATING_FUNCTION&#45;&gt;POISSON_RANDOM_VARIABLE -->
<g id="edge18" class="edge"><title>MOMENT_GENERATING_FUNCTION&#45;&gt;POISSON_RANDOM_VARIABLE</title>
<path fill="none" stroke="black" d="M647.707,-215.926C647.965,-185.832 646.004,-121.819 627.245,-72 623.637,-62.4197 617.971,-52.878 612.192,-44.5853"/>
<polygon fill="black" stroke="black" points="614.953,-42.4318 606.211,-36.4462 609.313,-46.577 614.953,-42.4318"/>
</g>
</g>
</svg>
