<?xml version="1.0" encoding="UTF-8" standalone="no"?>
<!DOCTYPE svg PUBLIC "-//W3C//DTD SVG 1.1//EN"
 "http://www.w3.org/Graphics/SVG/1.1/DTD/svg11.dtd">
<!-- Generated by graphviz version 2.26.3 (20100126.1600)
 -->
<!-- Title: _anonymous_0 Pages: 1 -->
<svg width="660pt" height="260pt"
 viewBox="0.00 0.00 660.00 260.00" xmlns="http://www.w3.org/2000/svg" xmlns:xlink="http://www.w3.org/1999/xlink">
<g id="graph1" class="graph" transform="scale(1 1) rotate(0) translate(4 256)">
<title>_anonymous_0</title>
<!-- CONDITIONAL_PROBABILITY -->
<g id="node1" class="node"><title>CONDITIONAL_PROBABILITY</title>
<a xlink:href="CONDITIONAL_PROBABILITY.html" xlink:title=" Conditional probability " target="_top">
<polyline fill="none" stroke="black" points="362,-252 204,-252 "/>
<path fill="none" stroke="black" d="M204,-252C198,-252 192,-246 192,-240"/>
<polyline fill="none" stroke="black" points="192,-240 192,-228 "/>
<path fill="none" stroke="black" d="M192,-228C192,-222 198,-216 204,-216"/>
<polyline fill="none" stroke="black" points="204,-216 362,-216 "/>
<path fill="none" stroke="black" d="M362,-216C368,-216 374,-222 374,-228"/>
<polyline fill="none" stroke="black" points="374,-228 374,-240 "/>
<path fill="none" stroke="black" d="M374,-240C374,-246 368,-252 362,-252"/>
<text text-anchor="start" x="200.5" y="-231.233" font-family="Times Roman,serif" font-size="14.00"> Conditional probability </text>
</a>
</g>
<!-- INDEPENDENT_RANDOM_VARIABLES -->
<g id="node2" class="node"><title>INDEPENDENT_RANDOM_VARIABLES</title>
<a xlink:href="INDEPENDENT_RANDOM_VARIABLES.html" xlink:title=" Independent random variables " target="_top">
<polyline fill="none" stroke="black" points="224,-108 12,-108 "/>
<path fill="none" stroke="black" d="M12,-108C6,-108 8.28967e-14,-102 6.63173e-14,-96"/>
<polyline fill="none" stroke="black" points="6.63173e-14,-96 3.31587e-14,-84 "/>
<path fill="none" stroke="black" d="M3.31587e-14,-84C1.65793e-14,-78 6,-72 12,-72"/>
<polyline fill="none" stroke="black" points="12,-72 224,-72 "/>
<path fill="none" stroke="black" d="M224,-72C230,-72 236,-78 236,-84"/>
<polyline fill="none" stroke="black" points="236,-84 236,-96 "/>
<path fill="none" stroke="black" d="M236,-96C236,-102 230,-108 224,-108"/>
<text text-anchor="start" x="8" y="-87.2333" font-family="Times Roman,serif" font-size="14.00"> Independent random variables </text>
</a>
</g>
<!-- CONDITIONAL_PROBABILITY&#45;&gt;INDEPENDENT_RANDOM_VARIABLES -->
<g id="edge2" class="edge"><title>CONDITIONAL_PROBABILITY&#45;&gt;INDEPENDENT_RANDOM_VARIABLES</title>
<path fill="none" stroke="black" d="M191.953,-222.307C140.952,-213.684 84.5415,-199.95 69,-180 53.3638,-159.928 70.4908,-134.194 88.6542,-115.389"/>
<polygon fill="black" stroke="black" points="91.1915,-117.803 95.8681,-108.296 86.2837,-112.811 91.1915,-117.803"/>
</g>
<!-- JOINT_PROBABILITY_DISTRIBUTION -->
<g id="node3" class="node"><title>JOINT_PROBABILITY_DISTRIBUTION</title>
<a xlink:href="JOINT_PROBABILITY_DISTRIBUTION.html" xlink:title=" Joint probability distribution " target="_top">
<polyline fill="none" stroke="black" points="284,-180 90,-180 "/>
<path fill="none" stroke="black" d="M90,-180C84,-180 78,-174 78,-168"/>
<polyline fill="none" stroke="black" points="78,-168 78,-156 "/>
<path fill="none" stroke="black" d="M78,-156C78,-150 84,-144 90,-144"/>
<polyline fill="none" stroke="black" points="90,-144 284,-144 "/>
<path fill="none" stroke="black" d="M284,-144C290,-144 296,-150 296,-156"/>
<polyline fill="none" stroke="black" points="296,-156 296,-168 "/>
<path fill="none" stroke="black" d="M296,-168C296,-174 290,-180 284,-180"/>
<text text-anchor="start" x="86" y="-159.233" font-family="Times Roman,serif" font-size="14.00"> Joint probability distribution </text>
</a>
</g>
<!-- CONDITIONAL_PROBABILITY&#45;&gt;JOINT_PROBABILITY_DISTRIBUTION -->
<g id="edge4" class="edge"><title>CONDITIONAL_PROBABILITY&#45;&gt;JOINT_PROBABILITY_DISTRIBUTION</title>
<path fill="none" stroke="black" d="M258.775,-215.831C246.837,-206.878 232.274,-195.956 219.394,-186.295"/>
<polygon fill="black" stroke="black" points="221.317,-183.363 211.217,-180.163 217.117,-188.963 221.317,-183.363"/>
</g>
<!-- BAYES_THEOREM -->
<g id="node4" class="node"><title>BAYES_THEOREM</title>
<a xlink:href="BAYES_THEOREM.html" xlink:title=" Bayes theorem " target="_top">
<polyline fill="none" stroke="black" points="432,-180 326,-180 "/>
<path fill="none" stroke="black" d="M326,-180C320,-180 314,-174 314,-168"/>
<polyline fill="none" stroke="black" points="314,-168 314,-156 "/>
<path fill="none" stroke="black" d="M314,-156C314,-150 320,-144 326,-144"/>
<polyline fill="none" stroke="black" points="326,-144 432,-144 "/>
<path fill="none" stroke="black" d="M432,-144C438,-144 444,-150 444,-156"/>
<polyline fill="none" stroke="black" points="444,-156 444,-168 "/>
<path fill="none" stroke="black" d="M444,-168C444,-174 438,-180 432,-180"/>
<text text-anchor="start" x="322" y="-159.233" font-family="Times Roman,serif" font-size="14.00"> Bayes theorem </text>
</a>
</g>
<!-- CONDITIONAL_PROBABILITY&#45;&gt;BAYES_THEOREM -->
<g id="edge6" class="edge"><title>CONDITIONAL_PROBABILITY&#45;&gt;BAYES_THEOREM</title>
<path fill="none" stroke="black" d="M307.225,-215.831C319.163,-206.878 333.726,-195.956 346.606,-186.295"/>
<polygon fill="black" stroke="black" points="348.883,-188.963 354.783,-180.163 344.683,-183.363 348.883,-188.963"/>
</g>
<!-- CONDITIONAL_EXPECTATION -->
<g id="node5" class="node"><title>CONDITIONAL_EXPECTATION</title>
<a xlink:href="CONDITIONAL_EXPECTATION.html" xlink:title=" Conditional expectation " target="_top">
<polyline fill="none" stroke="black" points="640,-180 474,-180 "/>
<path fill="none" stroke="black" d="M474,-180C468,-180 462,-174 462,-168"/>
<polyline fill="none" stroke="black" points="462,-168 462,-156 "/>
<path fill="none" stroke="black" d="M462,-156C462,-150 468,-144 474,-144"/>
<polyline fill="none" stroke="black" points="474,-144 640,-144 "/>
<path fill="none" stroke="black" d="M640,-144C646,-144 652,-150 652,-156"/>
<polyline fill="none" stroke="black" points="652,-156 652,-168 "/>
<path fill="none" stroke="black" d="M652,-168C652,-174 646,-180 640,-180"/>
<text text-anchor="start" x="470.5" y="-159.233" font-family="Times Roman,serif" font-size="14.00"> Conditional expectation </text>
</a>
</g>
<!-- CONDITIONAL_PROBABILITY&#45;&gt;CONDITIONAL_EXPECTATION -->
<g id="edge8" class="edge"><title>CONDITIONAL_PROBABILITY&#45;&gt;CONDITIONAL_EXPECTATION</title>
<path fill="none" stroke="black" d="M351.788,-215.924C390.304,-205.803 438.477,-193.145 478.468,-182.636"/>
<polygon fill="black" stroke="black" points="479.401,-186.01 488.184,-180.083 477.622,-179.24 479.401,-186.01"/>
</g>
<!-- CENTRAL_LIMIT_THEOREM -->
<g id="node6" class="node"><title>CENTRAL_LIMIT_THEOREM</title>
<a xlink:href="CENTRAL_LIMIT_THEOREM.html" xlink:title=" The central limit theorem " target="_top">
<polyline fill="none" stroke="black" points="207,-36 29,-36 "/>
<path fill="none" stroke="black" d="M29,-36C23,-36 17,-30 17,-24"/>
<polyline fill="none" stroke="black" points="17,-24 17,-12 "/>
<path fill="none" stroke="black" d="M17,-12C17,-6 23,-1.73415e-14 29,-1.69194e-14"/>
<polyline fill="none" stroke="black" points="29,-1.69194e-14 207,-4.39692e-15 "/>
<path fill="none" stroke="black" d="M207,-4.39692e-15C213,-3.97482e-15 219,-6 219,-12"/>
<polyline fill="none" stroke="black" points="219,-12 219,-24 "/>
<path fill="none" stroke="black" d="M219,-24C219,-30 213,-36 207,-36"/>
<text text-anchor="start" x="25" y="-15.2333" font-family="Times Roman,serif" font-size="14.00"> The central limit theorem </text>
</a>
</g>
<!-- INDEPENDENT_RANDOM_VARIABLES&#45;&gt;CENTRAL_LIMIT_THEOREM -->
<g id="edge10" class="edge"><title>INDEPENDENT_RANDOM_VARIABLES&#45;&gt;CENTRAL_LIMIT_THEOREM</title>
<path fill="none" stroke="black" d="M118,-71.8314C118,-64.131 118,-54.9743 118,-46.4166"/>
<polygon fill="black" stroke="black" points="121.5,-46.4132 118,-36.4133 114.5,-46.4133 121.5,-46.4132"/>
</g>
<!-- JOINT_PROBABILITY_DISTRIBUTION&#45;&gt;INDEPENDENT_RANDOM_VARIABLES -->
<g id="edge12" class="edge"><title>JOINT_PROBABILITY_DISTRIBUTION&#45;&gt;INDEPENDENT_RANDOM_VARIABLES</title>
<path fill="none" stroke="black" d="M169.588,-143.831C161.479,-135.369 151.684,-125.149 142.818,-115.897"/>
<polygon fill="black" stroke="black" points="145.092,-113.211 135.646,-108.413 140.038,-118.055 145.092,-113.211"/>
</g>
</g>
</svg>
