<?xml version="1.0" encoding="UTF-8" standalone="no"?>
<!DOCTYPE svg PUBLIC "-//W3C//DTD SVG 1.1//EN"
 "http://www.w3.org/Graphics/SVG/1.1/DTD/svg11.dtd">
<!-- Generated by graphviz version 2.26.3 (20100126.1600)
 -->
<!-- Title: _anonymous_0 Pages: 1 -->
<svg width="482pt" height="404pt"
 viewBox="0.00 0.00 482.00 404.00" xmlns="http://www.w3.org/2000/svg" xmlns:xlink="http://www.w3.org/1999/xlink">
<g id="graph1" class="graph" transform="scale(1 1) rotate(0) translate(4 400)">
<title>_anonymous_0</title>
<!-- MARKOV_PROPERTY -->
<g id="node1" class="node"><title>MARKOV_PROPERTY</title>
<a xlink:href="MARKOV_PROPERTY.html" xlink:title=" The Markov Property " target="_top">
<polyline fill="none" stroke="black" points="366,-396 218,-396 "/>
<path fill="none" stroke="black" d="M218,-396C212,-396 206,-390 206,-384"/>
<polyline fill="none" stroke="black" points="206,-384 206,-372 "/>
<path fill="none" stroke="black" d="M206,-372C206,-366 212,-360 218,-360"/>
<polyline fill="none" stroke="black" points="218,-360 366,-360 "/>
<path fill="none" stroke="black" d="M366,-360C372,-360 378,-366 378,-372"/>
<polyline fill="none" stroke="black" points="378,-372 378,-384 "/>
<path fill="none" stroke="black" d="M378,-384C378,-390 372,-396 366,-396"/>
<text text-anchor="start" x="214.5" y="-375.233" font-family="Times Roman,serif" font-size="14.00"> The Markov Property </text>
</a>
</g>
<!-- TRANSITION_MATRIX_OF_MARKOV_CHAIN -->
<g id="node2" class="node"><title>TRANSITION_MATRIX_OF_MARKOV_CHAIN</title>
<a xlink:href="TRANSITION_MATRIX_OF_MARKOV_CHAIN.html" xlink:title=" Markovian transition matrix " target="_top">
<polyline fill="none" stroke="black" points="389,-324 195,-324 "/>
<path fill="none" stroke="black" d="M195,-324C189,-324 183,-318 183,-312"/>
<polyline fill="none" stroke="black" points="183,-312 183,-300 "/>
<path fill="none" stroke="black" d="M183,-300C183,-294 189,-288 195,-288"/>
<polyline fill="none" stroke="black" points="195,-288 389,-288 "/>
<path fill="none" stroke="black" d="M389,-288C395,-288 401,-294 401,-300"/>
<polyline fill="none" stroke="black" points="401,-300 401,-312 "/>
<path fill="none" stroke="black" d="M401,-312C401,-318 395,-324 389,-324"/>
<text text-anchor="start" x="191" y="-303.233" font-family="Times Roman,serif" font-size="14.00"> Markovian transition matrix </text>
</a>
</g>
<!-- MARKOV_PROPERTY&#45;&gt;TRANSITION_MATRIX_OF_MARKOV_CHAIN -->
<g id="edge2" class="edge"><title>MARKOV_PROPERTY&#45;&gt;TRANSITION_MATRIX_OF_MARKOV_CHAIN</title>
<path fill="none" stroke="black" d="M292,-359.831C292,-352.131 292,-342.974 292,-334.417"/>
<polygon fill="black" stroke="black" points="295.5,-334.413 292,-324.413 288.5,-334.413 295.5,-334.413"/>
</g>
<!-- CHAPMAN_KOLMOGOROV_RELATION -->
<g id="node3" class="node"><title>CHAPMAN_KOLMOGOROV_RELATION</title>
<a xlink:href="CHAPMAN_KOLMOGOROV_RELATION.html" xlink:title=" The Chapman Kolmogorov Relation " target="_top">
<polyline fill="none" stroke="black" points="322,-252 78,-252 "/>
<path fill="none" stroke="black" d="M78,-252C72,-252 66,-246 66,-240"/>
<polyline fill="none" stroke="black" points="66,-240 66,-228 "/>
<path fill="none" stroke="black" d="M66,-228C66,-222 72,-216 78,-216"/>
<polyline fill="none" stroke="black" points="78,-216 322,-216 "/>
<path fill="none" stroke="black" d="M322,-216C328,-216 334,-222 334,-228"/>
<polyline fill="none" stroke="black" points="334,-228 334,-240 "/>
<path fill="none" stroke="black" d="M334,-240C334,-246 328,-252 322,-252"/>
<text text-anchor="start" x="74.5" y="-231.233" font-family="Times Roman,serif" font-size="14.00"> The Chapman Kolmogorov Relation </text>
</a>
</g>
<!-- TRANSITION_MATRIX_OF_MARKOV_CHAIN&#45;&gt;CHAPMAN_KOLMOGOROV_RELATION -->
<g id="edge4" class="edge"><title>TRANSITION_MATRIX_OF_MARKOV_CHAIN&#45;&gt;CHAPMAN_KOLMOGOROV_RELATION</title>
<path fill="none" stroke="black" d="M268.785,-287.831C257.453,-278.963 243.654,-268.164 231.397,-258.572"/>
<polygon fill="black" stroke="black" points="233.24,-255.57 223.208,-252.163 228.926,-261.082 233.24,-255.57"/>
</g>
<!-- STATIONARY_DIST_MARKOV -->
<g id="node5" class="node"><title>STATIONARY_DIST_MARKOV</title>
<a xlink:href="STATIONARY_DIST_MARKOV.html" xlink:title=" Ergodic Markov chains " target="_top">
<polyline fill="none" stroke="black" points="462,-108 306,-108 "/>
<path fill="none" stroke="black" d="M306,-108C300,-108 294,-102 294,-96"/>
<polyline fill="none" stroke="black" points="294,-96 294,-84 "/>
<path fill="none" stroke="black" d="M294,-84C294,-78 300,-72 306,-72"/>
<polyline fill="none" stroke="black" points="306,-72 462,-72 "/>
<path fill="none" stroke="black" d="M462,-72C468,-72 474,-78 474,-84"/>
<polyline fill="none" stroke="black" points="474,-84 474,-96 "/>
<path fill="none" stroke="black" d="M474,-96C474,-102 468,-108 462,-108"/>
<text text-anchor="start" x="302.5" y="-87.2333" font-family="Times Roman,serif" font-size="14.00"> Ergodic Markov chains </text>
</a>
</g>
<!-- TRANSITION_MATRIX_OF_MARKOV_CHAIN&#45;&gt;STATIONARY_DIST_MARKOV -->
<g id="edge6" class="edge"><title>TRANSITION_MATRIX_OF_MARKOV_CHAIN&#45;&gt;STATIONARY_DIST_MARKOV</title>
<path fill="none" stroke="black" d="M313.302,-287.798C323.529,-278.078 335.221,-265.377 343,-252 367.74,-209.454 377.695,-152.158 381.597,-118.343"/>
<polygon fill="black" stroke="black" points="385.094,-118.55 382.662,-108.238 378.133,-117.816 385.094,-118.55"/>
</g>
<!-- TRANSIENT_RECURRENT_STATES -->
<g id="node4" class="node"><title>TRANSIENT_RECURRENT_STATES</title>
<a xlink:href="TRANSIENT_RECURRENT_STATES.html" xlink:title=" Transient and recurrent states in Markov chains " target="_top">
<polyline fill="none" stroke="black" points="344,-180 12,-180 "/>
<path fill="none" stroke="black" d="M12,-180C6,-180 1.42109e-13,-174 1.13687e-13,-168"/>
<polyline fill="none" stroke="black" points="1.13687e-13,-168 5.68434e-14,-156 "/>
<path fill="none" stroke="black" d="M5.68434e-14,-156C2.84217e-14,-150 6,-144 12,-144"/>
<polyline fill="none" stroke="black" points="12,-144 344,-144 "/>
<path fill="none" stroke="black" d="M344,-144C350,-144 356,-150 356,-156"/>
<polyline fill="none" stroke="black" points="356,-156 356,-168 "/>
<path fill="none" stroke="black" d="M356,-168C356,-174 350,-180 344,-180"/>
<text text-anchor="start" x="8" y="-159.233" font-family="Times Roman,serif" font-size="14.00"> Transient and recurrent states in Markov chains </text>
</a>
</g>
<!-- CHAPMAN_KOLMOGOROV_RELATION&#45;&gt;TRANSIENT_RECURRENT_STATES -->
<g id="edge8" class="edge"><title>CHAPMAN_KOLMOGOROV_RELATION&#45;&gt;TRANSIENT_RECURRENT_STATES</title>
<path fill="none" stroke="black" d="M194.448,-215.831C192.07,-208.046 189.236,-198.773 186.597,-190.135"/>
<polygon fill="black" stroke="black" points="189.896,-188.954 183.626,-180.413 183.201,-191 189.896,-188.954"/>
</g>
<!-- TRANSIENT_RECURRENT_STATES&#45;&gt;STATIONARY_DIST_MARKOV -->
<g id="edge10" class="edge"><title>TRANSIENT_RECURRENT_STATES&#45;&gt;STATIONARY_DIST_MARKOV</title>
<path fill="none" stroke="black" d="M229.717,-143.924C257.878,-134.081 292.906,-121.839 322.465,-111.507"/>
<polygon fill="black" stroke="black" points="323.977,-114.687 332.262,-108.083 321.667,-108.079 323.977,-114.687"/>
</g>
<!-- HITTING_PROBABILITIES -->
<g id="node6" class="node"><title>HITTING_PROBABILITIES</title>
<a xlink:href="HITTING_PROBABILITIES.html" xlink:title=" Hitting time and hitting probability " target="_top">
<polyline fill="none" stroke="black" points="264,-108 22,-108 "/>
<path fill="none" stroke="black" d="M22,-108C16,-108 10,-102 10,-96"/>
<polyline fill="none" stroke="black" points="10,-96 10,-84 "/>
<path fill="none" stroke="black" d="M10,-84C10,-78 16,-72 22,-72"/>
<polyline fill="none" stroke="black" points="22,-72 264,-72 "/>
<path fill="none" stroke="black" d="M264,-72C270,-72 276,-78 276,-84"/>
<polyline fill="none" stroke="black" points="276,-84 276,-96 "/>
<path fill="none" stroke="black" d="M276,-96C276,-102 270,-108 264,-108"/>
<text text-anchor="start" x="18" y="-87.2333" font-family="Times Roman,serif" font-size="14.00"> Hitting time and hitting probability </text>
</a>
</g>
<!-- TRANSIENT_RECURRENT_STATES&#45;&gt;HITTING_PROBABILITIES -->
<g id="edge12" class="edge"><title>TRANSIENT_RECURRENT_STATES&#45;&gt;HITTING_PROBABILITIES</title>
<path fill="none" stroke="black" d="M169.168,-143.831C165.301,-135.877 160.679,-126.369 156.403,-117.572"/>
<polygon fill="black" stroke="black" points="159.471,-115.877 151.951,-108.413 153.175,-118.937 159.471,-115.877"/>
</g>
<!-- GAMBLERS_RUIN -->
<g id="node7" class="node"><title>GAMBLERS_RUIN</title>
<a xlink:href="GAMBLERS_RUIN.html" xlink:title=" Gamblers ruin " target="_top">
<polyline fill="none" stroke="black" points="193,-36 93,-36 "/>
<path fill="none" stroke="black" d="M93,-36C87,-36 81,-30 81,-24"/>
<polyline fill="none" stroke="black" points="81,-24 81,-12 "/>
<path fill="none" stroke="black" d="M81,-12C81,-6 87,-1.70759e-14 93,-1.63883e-14"/>
<polyline fill="none" stroke="black" points="93,-1.63883e-14 193,-4.92796e-15 "/>
<path fill="none" stroke="black" d="M193,-4.92796e-15C199,-4.24034e-15 205,-6 205,-12"/>
<polyline fill="none" stroke="black" points="205,-12 205,-24 "/>
<path fill="none" stroke="black" d="M205,-24C205,-30 199,-36 193,-36"/>
<text text-anchor="start" x="89.5" y="-15.2333" font-family="Times Roman,serif" font-size="14.00"> Gamblers ruin </text>
</a>
</g>
<!-- HITTING_PROBABILITIES&#45;&gt;GAMBLERS_RUIN -->
<g id="edge14" class="edge"><title>HITTING_PROBABILITIES&#45;&gt;GAMBLERS_RUIN</title>
<path fill="none" stroke="black" d="M143,-71.8314C143,-64.131 143,-54.9743 143,-46.4166"/>
<polygon fill="black" stroke="black" points="146.5,-46.4132 143,-36.4133 139.5,-46.4133 146.5,-46.4132"/>
</g>
</g>
</svg>
