<?xml version="1.0" encoding="UTF-8" standalone="no"?>
<!DOCTYPE svg PUBLIC "-//W3C//DTD SVG 1.1//EN"
 "http://www.w3.org/Graphics/SVG/1.1/DTD/svg11.dtd">
<!-- Generated by graphviz version 2.26.3 (20100126.1600)
 -->
<!-- Title: _anonymous_0 Pages: 1 -->
<svg width="854pt" height="116pt"
 viewBox="0.00 0.00 854.00 116.00" xmlns="http://www.w3.org/2000/svg" xmlns:xlink="http://www.w3.org/1999/xlink">
<g id="graph1" class="graph" transform="scale(1 1) rotate(0) translate(4 112)">
<title>_anonymous_0</title>
<!-- CONDITIONAL_PROBABILITY -->
<g id="node1" class="node"><title>CONDITIONAL_PROBABILITY</title>
<a xlink:href="CONDITIONAL_PROBABILITY.html" xlink:title=" Conditional probability " target="_top">
<polyline fill="none" stroke="black" points="406,-108 248,-108 "/>
<path fill="none" stroke="black" d="M248,-108C242,-108 236,-102 236,-96"/>
<polyline fill="none" stroke="black" points="236,-96 236,-84 "/>
<path fill="none" stroke="black" d="M236,-84C236,-78 242,-72 248,-72"/>
<polyline fill="none" stroke="black" points="248,-72 406,-72 "/>
<path fill="none" stroke="black" d="M406,-72C412,-72 418,-78 418,-84"/>
<polyline fill="none" stroke="black" points="418,-84 418,-96 "/>
<path fill="none" stroke="black" d="M418,-96C418,-102 412,-108 406,-108"/>
<text text-anchor="start" x="244.5" y="-87.2333" font-family="Times Roman,serif" font-size="14.00"> Conditional probability </text>
</a>
</g>
<!-- INDEPENDENT_RANDOM_VARIABLES -->
<g id="node2" class="node"><title>INDEPENDENT_RANDOM_VARIABLES</title>
<a xlink:href="INDEPENDENT_RANDOM_VARIABLES.html" xlink:title=" Independent random variables " target="_top">
<polyline fill="none" stroke="black" points="224,-36 12,-36 "/>
<path fill="none" stroke="black" d="M12,-36C6,-36 8.28967e-14,-30 6.63173e-14,-24"/>
<polyline fill="none" stroke="black" points="6.63173e-14,-24 3.31587e-14,-12 "/>
<path fill="none" stroke="black" d="M3.31587e-14,-12C1.65793e-14,-6 6,-1.74023e-14 12,-1.7041e-14"/>
<polyline fill="none" stroke="black" points="12,-1.7041e-14 224,-4.2753e-15 "/>
<path fill="none" stroke="black" d="M224,-4.2753e-15C230,-3.91401e-15 236,-6 236,-12"/>
<polyline fill="none" stroke="black" points="236,-12 236,-24 "/>
<path fill="none" stroke="black" d="M236,-24C236,-30 230,-36 224,-36"/>
<text text-anchor="start" x="8" y="-15.2333" font-family="Times Roman,serif" font-size="14.00"> Independent random variables </text>
</a>
</g>
<!-- CONDITIONAL_PROBABILITY&#45;&gt;INDEPENDENT_RANDOM_VARIABLES -->
<g id="edge2" class="edge"><title>CONDITIONAL_PROBABILITY&#45;&gt;INDEPENDENT_RANDOM_VARIABLES</title>
<path fill="none" stroke="black" d="M274.53,-71.9243C245.835,-62.0387 210.111,-49.7321 180.04,-39.3726"/>
<polygon fill="black" stroke="black" points="181.086,-36.0312 170.491,-36.0831 178.806,-42.6495 181.086,-36.0312"/>
</g>
<!-- BAYES_THEOREM -->
<g id="node3" class="node"><title>BAYES_THEOREM</title>
<a xlink:href="BAYES_THEOREM.html" xlink:title=" Bayes theorem " target="_top">
<polyline fill="none" stroke="black" points="380,-36 274,-36 "/>
<path fill="none" stroke="black" d="M274,-36C268,-36 262,-30 262,-24"/>
<polyline fill="none" stroke="black" points="262,-24 262,-12 "/>
<path fill="none" stroke="black" d="M262,-12C262,-6 268,-1.71077e-14 274,-1.64518e-14"/>
<polyline fill="none" stroke="black" points="274,-1.64518e-14 380,-4.86448e-15 "/>
<path fill="none" stroke="black" d="M380,-4.86448e-15C386,-4.2086e-15 392,-6 392,-12"/>
<polyline fill="none" stroke="black" points="392,-12 392,-24 "/>
<path fill="none" stroke="black" d="M392,-24C392,-30 386,-36 380,-36"/>
<text text-anchor="start" x="270" y="-15.2333" font-family="Times Roman,serif" font-size="14.00"> Bayes theorem </text>
</a>
</g>
<!-- CONDITIONAL_PROBABILITY&#45;&gt;BAYES_THEOREM -->
<g id="edge4" class="edge"><title>CONDITIONAL_PROBABILITY&#45;&gt;BAYES_THEOREM</title>
<path fill="none" stroke="black" d="M327,-71.8314C327,-64.131 327,-54.9743 327,-46.4166"/>
<polygon fill="black" stroke="black" points="330.5,-46.4132 327,-36.4133 323.5,-46.4133 330.5,-46.4132"/>
</g>
<!-- CONDITIONAL_EXPECTATION -->
<g id="node4" class="node"><title>CONDITIONAL_EXPECTATION</title>
<a xlink:href="CONDITIONAL_EXPECTATION.html" xlink:title=" Conditional expectation " target="_top">
<polyline fill="none" stroke="black" points="614,-108 448,-108 "/>
<path fill="none" stroke="black" d="M448,-108C442,-108 436,-102 436,-96"/>
<polyline fill="none" stroke="black" points="436,-96 436,-84 "/>
<path fill="none" stroke="black" d="M436,-84C436,-78 442,-72 448,-72"/>
<polyline fill="none" stroke="black" points="448,-72 614,-72 "/>
<path fill="none" stroke="black" d="M614,-72C620,-72 626,-78 626,-84"/>
<polyline fill="none" stroke="black" points="626,-84 626,-96 "/>
<path fill="none" stroke="black" d="M626,-96C626,-102 620,-108 614,-108"/>
<text text-anchor="start" x="444.5" y="-87.2333" font-family="Times Roman,serif" font-size="14.00"> Conditional expectation </text>
</a>
</g>
<!-- JOINT_PROBABILITY_DISTRIBUTION -->
<g id="node5" class="node"><title>JOINT_PROBABILITY_DISTRIBUTION</title>
<a xlink:href="JOINT_PROBABILITY_DISTRIBUTION.html" xlink:title=" Joint probability distribution " target="_top">
<polyline fill="none" stroke="black" points="206,-108 12,-108 "/>
<path fill="none" stroke="black" d="M12,-108C6,-108 9.4739e-14,-102 7.57912e-14,-96"/>
<polyline fill="none" stroke="black" points="7.57912e-14,-96 3.78956e-14,-84 "/>
<path fill="none" stroke="black" d="M3.78956e-14,-84C1.89478e-14,-78 6,-72 12,-72"/>
<polyline fill="none" stroke="black" points="12,-72 206,-72 "/>
<path fill="none" stroke="black" d="M206,-72C212,-72 218,-78 218,-84"/>
<polyline fill="none" stroke="black" points="218,-84 218,-96 "/>
<path fill="none" stroke="black" d="M218,-96C218,-102 212,-108 206,-108"/>
<text text-anchor="start" x="8" y="-87.2333" font-family="Times Roman,serif" font-size="14.00"> Joint probability distribution </text>
</a>
</g>
<!-- JOINT_PROBABILITY_DISTRIBUTION&#45;&gt;INDEPENDENT_RANDOM_VARIABLES -->
<g id="edge6" class="edge"><title>JOINT_PROBABILITY_DISTRIBUTION&#45;&gt;INDEPENDENT_RANDOM_VARIABLES</title>
<path fill="none" stroke="black" d="M111.271,-71.8314C112.234,-64.131 113.378,-54.9743 114.448,-46.4166"/>
<polygon fill="black" stroke="black" points="117.931,-46.7702 115.698,-36.4133 110.985,-45.9019 117.931,-46.7702"/>
</g>
<!-- CENTRAL_LIMIT_THEOREM -->
<g id="node6" class="node"><title>CENTRAL_LIMIT_THEOREM</title>
<a xlink:href="CENTRAL_LIMIT_THEOREM.html" xlink:title=" The central limit theorem " target="_top">
<polyline fill="none" stroke="black" points="834,-108 656,-108 "/>
<path fill="none" stroke="black" d="M656,-108C650,-108 644,-102 644,-96"/>
<polyline fill="none" stroke="black" points="644,-96 644,-84 "/>
<path fill="none" stroke="black" d="M644,-84C644,-78 650,-72 656,-72"/>
<polyline fill="none" stroke="black" points="656,-72 834,-72 "/>
<path fill="none" stroke="black" d="M834,-72C840,-72 846,-78 846,-84"/>
<polyline fill="none" stroke="black" points="846,-84 846,-96 "/>
<path fill="none" stroke="black" d="M846,-96C846,-102 840,-108 834,-108"/>
<text text-anchor="start" x="652" y="-87.2333" font-family="Times Roman,serif" font-size="14.00"> The central limit theorem </text>
</a>
</g>
</g>
</svg>
