<?xml version="1.0" encoding="UTF-8" standalone="no"?>
<!DOCTYPE svg PUBLIC "-//W3C//DTD SVG 1.1//EN"
 "http://www.w3.org/Graphics/SVG/1.1/DTD/svg11.dtd">
<!-- Generated by graphviz version 2.26.3 (20100126.1600)
 -->
<!-- Title: _anonymous_0 Pages: 1 -->
<svg width="890pt" height="404pt"
 viewBox="0.00 0.00 890.19 404.00" xmlns="http://www.w3.org/2000/svg" xmlns:xlink="http://www.w3.org/1999/xlink">
<g id="graph1" class="graph" transform="scale(1 1) rotate(0) translate(4 400)">
<title>_anonymous_0</title>
<!-- RANDOM_VARIABLES -->
<g id="node1" class="node"><title>RANDOM_VARIABLES</title>
<a xlink:href="RANDOM_VARIABLES.html" xlink:title=" Random variables " target="_top">
<polyline fill="none" stroke="black" points="404.191,-396 280.191,-396 "/>
<path fill="none" stroke="black" d="M280.191,-396C274.191,-396 268.191,-390 268.191,-384"/>
<polyline fill="none" stroke="black" points="268.191,-384 268.191,-372 "/>
<path fill="none" stroke="black" d="M268.191,-372C268.191,-366 274.191,-360 280.191,-360"/>
<polyline fill="none" stroke="black" points="280.191,-360 404.191,-360 "/>
<path fill="none" stroke="black" d="M404.191,-360C410.191,-360 416.191,-366 416.191,-372"/>
<polyline fill="none" stroke="black" points="416.191,-372 416.191,-384 "/>
<path fill="none" stroke="black" d="M416.191,-384C416.191,-390 410.191,-396 404.191,-396"/>
<text text-anchor="start" x="276.191" y="-375.233" font-family="Times Roman,serif" font-size="14.00"> Random variables </text>
</a>
</g>
<!-- BERNOULI_RANDOM_VARIABLE -->
<g id="node2" class="node"><title>BERNOULI_RANDOM_VARIABLE</title>
<a xlink:href="BERNOULI_RANDOM_VARIABLE.html" xlink:title=" Bernoulli random variable " target="_top">
<polyline fill="none" stroke="black" points="434.191,-180 254.191,-180 "/>
<path fill="none" stroke="black" d="M254.191,-180C248.191,-180 242.191,-174 242.191,-168"/>
<polyline fill="none" stroke="black" points="242.191,-168 242.191,-156 "/>
<path fill="none" stroke="black" d="M242.191,-156C242.191,-150 248.191,-144 254.191,-144"/>
<polyline fill="none" stroke="black" points="254.191,-144 434.191,-144 "/>
<path fill="none" stroke="black" d="M434.191,-144C440.191,-144 446.191,-150 446.191,-156"/>
<polyline fill="none" stroke="black" points="446.191,-156 446.191,-168 "/>
<path fill="none" stroke="black" d="M446.191,-168C446.191,-174 440.191,-180 434.191,-180"/>
<text text-anchor="start" x="250.691" y="-159.233" font-family="Times Roman,serif" font-size="14.00"> Bernoulli random variable </text>
</a>
</g>
<!-- RANDOM_VARIABLES&#45;&gt;BERNOULI_RANDOM_VARIABLE -->
<g id="edge2" class="edge"><title>RANDOM_VARIABLES&#45;&gt;BERNOULI_RANDOM_VARIABLE</title>
<path fill="none" stroke="black" d="M268.077,-370.729C177.224,-361.054 33.255,-342.953 17.1911,-324 -51.9374,-242.438 112.171,-198.011 232.055,-177.203"/>
<polygon fill="black" stroke="black" points="232.782,-180.629 242.054,-175.503 231.609,-173.728 232.782,-180.629"/>
</g>
<!-- GEOMETRIC_RANDOM_VARIABLE -->
<g id="node4" class="node"><title>GEOMETRIC_RANDOM_VARIABLE</title>
<a xlink:href="GEOMETRIC_RANDOM_VARIABLE.html" xlink:title=" The geometric random variable " target="_top">
<polyline fill="none" stroke="black" points="262.191,-108 44.1911,-108 "/>
<path fill="none" stroke="black" d="M44.1911,-108C38.1911,-108 32.1911,-102 32.1911,-96"/>
<polyline fill="none" stroke="black" points="32.1911,-96 32.1911,-84 "/>
<path fill="none" stroke="black" d="M32.1911,-84C32.1911,-78 38.1911,-72 44.1911,-72"/>
<polyline fill="none" stroke="black" points="44.1911,-72 262.191,-72 "/>
<path fill="none" stroke="black" d="M262.191,-72C268.191,-72 274.191,-78 274.191,-84"/>
<polyline fill="none" stroke="black" points="274.191,-84 274.191,-96 "/>
<path fill="none" stroke="black" d="M274.191,-96C274.191,-102 268.191,-108 262.191,-108"/>
<text text-anchor="start" x="40.6911" y="-87.2333" font-family="Times Roman,serif" font-size="14.00"> The geometric random variable </text>
</a>
</g>
<!-- RANDOM_VARIABLES&#45;&gt;GEOMETRIC_RANDOM_VARIABLE -->
<g id="edge4" class="edge"><title>RANDOM_VARIABLES&#45;&gt;GEOMETRIC_RANDOM_VARIABLE</title>
<path fill="none" stroke="black" d="M268.077,-370.729C177.224,-361.054 33.255,-342.953 17.1911,-324 -40.8672,-255.499 63.5402,-158.873 120.208,-114.284"/>
<polygon fill="black" stroke="black" points="122.437,-116.984 128.197,-108.092 118.149,-111.451 122.437,-116.984"/>
</g>
<!-- UNIFORM_RANDOM_VARIABLE -->
<g id="node6" class="node"><title>UNIFORM_RANDOM_VARIABLE</title>
<a xlink:href="UNIFORM_RANDOM_VARIABLE.html" xlink:title=" Uniform Random Variable " target="_top">
<polyline fill="none" stroke="black" points="216.191,-324 38.1911,-324 "/>
<path fill="none" stroke="black" d="M38.1911,-324C32.1911,-324 26.1911,-318 26.1911,-312"/>
<polyline fill="none" stroke="black" points="26.1911,-312 26.1911,-300 "/>
<path fill="none" stroke="black" d="M26.1911,-300C26.1911,-294 32.1911,-288 38.1911,-288"/>
<polyline fill="none" stroke="black" points="38.1911,-288 216.191,-288 "/>
<path fill="none" stroke="black" d="M216.191,-288C222.191,-288 228.191,-294 228.191,-300"/>
<polyline fill="none" stroke="black" points="228.191,-300 228.191,-312 "/>
<path fill="none" stroke="black" d="M228.191,-312C228.191,-318 222.191,-324 216.191,-324"/>
<text text-anchor="start" x="34.6911" y="-303.233" font-family="Times Roman,serif" font-size="14.00"> Uniform Random Variable </text>
</a>
</g>
<!-- RANDOM_VARIABLES&#45;&gt;UNIFORM_RANDOM_VARIABLE -->
<g id="edge6" class="edge"><title>RANDOM_VARIABLES&#45;&gt;UNIFORM_RANDOM_VARIABLE</title>
<path fill="none" stroke="black" d="M288.215,-359.924C258.695,-350.039 221.947,-337.732 191.012,-327.373"/>
<polygon fill="black" stroke="black" points="191.783,-323.94 181.189,-324.083 189.56,-330.578 191.783,-323.94"/>
</g>
<!-- NORMAL_RANDOM_VARIABLE -->
<g id="node7" class="node"><title>NORMAL_RANDOM_VARIABLE</title>
<a xlink:href="NORMAL_RANDOM_VARIABLE.html" xlink:title=" Normal random variable " target="_top">
<polyline fill="none" stroke="black" points="426.191,-324 258.191,-324 "/>
<path fill="none" stroke="black" d="M258.191,-324C252.191,-324 246.191,-318 246.191,-312"/>
<polyline fill="none" stroke="black" points="246.191,-312 246.191,-300 "/>
<path fill="none" stroke="black" d="M246.191,-300C246.191,-294 252.191,-288 258.191,-288"/>
<polyline fill="none" stroke="black" points="258.191,-288 426.191,-288 "/>
<path fill="none" stroke="black" d="M426.191,-288C432.191,-288 438.191,-294 438.191,-300"/>
<polyline fill="none" stroke="black" points="438.191,-300 438.191,-312 "/>
<path fill="none" stroke="black" d="M438.191,-312C438.191,-318 432.191,-324 426.191,-324"/>
<text text-anchor="start" x="254.691" y="-303.233" font-family="Times Roman,serif" font-size="14.00"> Normal random variable </text>
</a>
</g>
<!-- RANDOM_VARIABLES&#45;&gt;NORMAL_RANDOM_VARIABLE -->
<g id="edge8" class="edge"><title>RANDOM_VARIABLES&#45;&gt;NORMAL_RANDOM_VARIABLE</title>
<path fill="none" stroke="black" d="M342.191,-359.831C342.191,-352.131 342.191,-342.974 342.191,-334.417"/>
<polygon fill="black" stroke="black" points="345.691,-334.413 342.191,-324.413 338.691,-334.413 345.691,-334.413"/>
</g>
<!-- EXPECTATION -->
<g id="node8" class="node"><title>EXPECTATION</title>
<a xlink:href="EXPECTATION.html" xlink:title=" Expectation &#160;" target="_top">
<polyline fill="none" stroke="black" points="594.191,-324 506.191,-324 "/>
<path fill="none" stroke="black" d="M506.191,-324C500.191,-324 494.191,-318 494.191,-312"/>
<polyline fill="none" stroke="black" points="494.191,-312 494.191,-300 "/>
<path fill="none" stroke="black" d="M494.191,-300C494.191,-294 500.191,-288 506.191,-288"/>
<polyline fill="none" stroke="black" points="506.191,-288 594.191,-288 "/>
<path fill="none" stroke="black" d="M594.191,-288C600.191,-288 606.191,-294 606.191,-300"/>
<polyline fill="none" stroke="black" points="606.191,-300 606.191,-312 "/>
<path fill="none" stroke="black" d="M606.191,-312C606.191,-318 600.191,-324 594.191,-324"/>
<text text-anchor="start" x="502.191" y="-303.233" font-family="Times Roman,serif" font-size="14.00"> Expectation &#160;</text>
</a>
</g>
<!-- RANDOM_VARIABLES&#45;&gt;EXPECTATION -->
<g id="edge10" class="edge"><title>RANDOM_VARIABLES&#45;&gt;EXPECTATION</title>
<path fill="none" stroke="black" d="M394.41,-359.924C422.968,-350.039 458.521,-337.732 488.448,-327.373"/>
<polygon fill="black" stroke="black" points="489.646,-330.662 497.951,-324.083 487.356,-324.047 489.646,-330.662"/>
</g>
<!-- VARIANCE -->
<g id="node9" class="node"><title>VARIANCE</title>
<a xlink:href="VARIANCE.html" xlink:title=" Variance &#160;" target="_top">
<polyline fill="none" stroke="black" points="340.191,-252 274.191,-252 "/>
<path fill="none" stroke="black" d="M274.191,-252C268.191,-252 262.191,-246 262.191,-240"/>
<polyline fill="none" stroke="black" points="262.191,-240 262.191,-228 "/>
<path fill="none" stroke="black" d="M262.191,-228C262.191,-222 268.191,-216 274.191,-216"/>
<polyline fill="none" stroke="black" points="274.191,-216 340.191,-216 "/>
<path fill="none" stroke="black" d="M340.191,-216C346.191,-216 352.191,-222 352.191,-228"/>
<polyline fill="none" stroke="black" points="352.191,-228 352.191,-240 "/>
<path fill="none" stroke="black" d="M352.191,-240C352.191,-246 346.191,-252 340.191,-252"/>
<text text-anchor="start" x="270.691" y="-231.233" font-family="Times Roman,serif" font-size="14.00"> Variance &#160;</text>
</a>
</g>
<!-- RANDOM_VARIABLES&#45;&gt;VARIANCE -->
<g id="edge12" class="edge"><title>RANDOM_VARIABLES&#45;&gt;VARIANCE</title>
<path fill="none" stroke="black" d="M403.61,-359.994C420.689,-351.85 437.261,-340.273 447.191,-324 455.525,-310.342 456.243,-301.193 447.191,-288 441.932,-280.334 399.01,-264.428 362.062,-251.854"/>
<polygon fill="black" stroke="black" points="362.925,-248.452 352.331,-248.572 360.687,-255.085 362.925,-248.452"/>
</g>
<!-- MOMENT_GENERATING_FUNCTION -->
<g id="node10" class="node"><title>MOMENT_GENERATING_FUNCTION</title>
<a xlink:href="MOMENT_GENERATING_FUNCTION.html" xlink:title=" The moment generating function " target="_top">
<polyline fill="none" stroke="black" points="870.191,-252 640.191,-252 "/>
<path fill="none" stroke="black" d="M640.191,-252C634.191,-252 628.191,-246 628.191,-240"/>
<polyline fill="none" stroke="black" points="628.191,-240 628.191,-228 "/>
<path fill="none" stroke="black" d="M628.191,-228C628.191,-222 634.191,-216 640.191,-216"/>
<polyline fill="none" stroke="black" points="640.191,-216 870.191,-216 "/>
<path fill="none" stroke="black" d="M870.191,-216C876.191,-216 882.191,-222 882.191,-228"/>
<polyline fill="none" stroke="black" points="882.191,-228 882.191,-240 "/>
<path fill="none" stroke="black" d="M882.191,-240C882.191,-246 876.191,-252 870.191,-252"/>
<text text-anchor="start" x="636.191" y="-231.233" font-family="Times Roman,serif" font-size="14.00"> The moment generating function </text>
</a>
</g>
<!-- RANDOM_VARIABLES&#45;&gt;MOMENT_GENERATING_FUNCTION -->
<g id="edge14" class="edge"><title>RANDOM_VARIABLES&#45;&gt;MOMENT_GENERATING_FUNCTION</title>
<path fill="none" stroke="black" d="M416.473,-370.94C472.626,-363.805 550.779,-349.974 615.191,-324 655.991,-307.547 697.779,-278.831 724.949,-258.258"/>
<polygon fill="black" stroke="black" points="727.095,-261.023 732.895,-252.157 722.832,-255.471 727.095,-261.023"/>
</g>
<!-- BINOMIAL_RANDOM_VARIABLE -->
<g id="node3" class="node"><title>BINOMIAL_RANDOM_VARIABLE</title>
<a xlink:href="BINOMIAL_RANDOM_VARIABLE.html" xlink:title=" Binomial random variable " target="_top">
<polyline fill="none" stroke="black" points="715.191,-108 537.191,-108 "/>
<path fill="none" stroke="black" d="M537.191,-108C531.191,-108 525.191,-102 525.191,-96"/>
<polyline fill="none" stroke="black" points="525.191,-96 525.191,-84 "/>
<path fill="none" stroke="black" d="M525.191,-84C525.191,-78 531.191,-72 537.191,-72"/>
<polyline fill="none" stroke="black" points="537.191,-72 715.191,-72 "/>
<path fill="none" stroke="black" d="M715.191,-72C721.191,-72 727.191,-78 727.191,-84"/>
<polyline fill="none" stroke="black" points="727.191,-84 727.191,-96 "/>
<path fill="none" stroke="black" d="M727.191,-96C727.191,-102 721.191,-108 715.191,-108"/>
<text text-anchor="start" x="533.691" y="-87.2333" font-family="Times Roman,serif" font-size="14.00"> Binomial random variable </text>
</a>
</g>
<!-- BERNOULI_RANDOM_VARIABLE&#45;&gt;BINOMIAL_RANDOM_VARIABLE -->
<g id="edge16" class="edge"><title>BERNOULI_RANDOM_VARIABLE&#45;&gt;BINOMIAL_RANDOM_VARIABLE</title>
<path fill="none" stroke="black" d="M414.988,-143.924C454.712,-133.782 504.417,-121.091 545.627,-110.569"/>
<polygon fill="black" stroke="black" points="546.542,-113.948 555.365,-108.083 544.81,-107.166 546.542,-113.948"/>
</g>
<!-- BERNOULI_RANDOM_VARIABLE&#45;&gt;GEOMETRIC_RANDOM_VARIABLE -->
<g id="edge18" class="edge"><title>BERNOULI_RANDOM_VARIABLE&#45;&gt;GEOMETRIC_RANDOM_VARIABLE</title>
<path fill="none" stroke="black" d="M295.994,-143.831C269.994,-134.031 237.737,-121.871 210.463,-111.589"/>
<polygon fill="black" stroke="black" points="211.634,-108.29 201.042,-108.038 209.165,-114.84 211.634,-108.29"/>
</g>
<!-- POISSON_RANDOM_VARIABLE -->
<g id="node5" class="node"><title>POISSON_RANDOM_VARIABLE</title>
<a xlink:href="POISSON_RANDOM_VARIABLE.html" xlink:title=" The poisson random variable " target="_top">
<polyline fill="none" stroke="black" points="790.191,-36 590.191,-36 "/>
<path fill="none" stroke="black" d="M590.191,-36C584.191,-36 578.191,-30 578.191,-24"/>
<polyline fill="none" stroke="black" points="578.191,-24 578.191,-12 "/>
<path fill="none" stroke="black" d="M578.191,-12C578.191,-6 584.191,-1.73829e-14 590.191,-1.70023e-14"/>
<polyline fill="none" stroke="black" points="590.191,-1.70023e-14 790.191,-4.31401e-15 "/>
<path fill="none" stroke="black" d="M790.191,-4.31401e-15C796.191,-3.93336e-15 802.191,-6 802.191,-12"/>
<polyline fill="none" stroke="black" points="802.191,-12 802.191,-24 "/>
<path fill="none" stroke="black" d="M802.191,-24C802.191,-30 796.191,-36 790.191,-36"/>
<text text-anchor="start" x="586.191" y="-15.2333" font-family="Times Roman,serif" font-size="14.00"> The poisson random variable </text>
</a>
</g>
<!-- BINOMIAL_RANDOM_VARIABLE&#45;&gt;POISSON_RANDOM_VARIABLE -->
<g id="edge20" class="edge"><title>BINOMIAL_RANDOM_VARIABLE&#45;&gt;POISSON_RANDOM_VARIABLE</title>
<path fill="none" stroke="black" d="M642.341,-71.8314C649.863,-63.3694 658.948,-53.1489 667.171,-43.8971"/>
<polygon fill="black" stroke="black" points="669.796,-46.2127 673.824,-36.4133 664.564,-41.5621 669.796,-46.2127"/>
</g>
<!-- EXPECTATION&#45;&gt;BERNOULI_RANDOM_VARIABLE -->
<g id="edge22" class="edge"><title>EXPECTATION&#45;&gt;BERNOULI_RANDOM_VARIABLE</title>
<path fill="none" stroke="black" d="M493.975,-295.492C463.41,-287.563 426.405,-274.136 399.191,-252 378.804,-235.417 363.989,-209.142 354.907,-189.253"/>
<polygon fill="black" stroke="black" points="358.111,-187.844 350.91,-180.073 351.693,-190.639 358.111,-187.844"/>
</g>
<!-- EXPECTATION&#45;&gt;VARIANCE -->
<g id="edge24" class="edge"><title>EXPECTATION&#45;&gt;VARIANCE</title>
<path fill="none" stroke="black" d="M494.181,-289.73C457.701,-279.092 409.089,-264.838 366.191,-252 364.78,-251.578 363.351,-251.149 361.909,-250.716"/>
<polygon fill="black" stroke="black" points="362.859,-247.346 352.274,-247.808 360.836,-254.048 362.859,-247.346"/>
</g>
<!-- EXPECTATION&#45;&gt;MOMENT_GENERATING_FUNCTION -->
<g id="edge26" class="edge"><title>EXPECTATION&#45;&gt;MOMENT_GENERATING_FUNCTION</title>
<path fill="none" stroke="black" d="M601.657,-287.924C629.681,-278.081 664.54,-265.839 693.955,-255.507"/>
<polygon fill="black" stroke="black" points="695.429,-258.699 703.704,-252.083 693.11,-252.095 695.429,-258.699"/>
</g>
<!-- LAW_OF_LARGE_NUMBERS -->
<g id="node11" class="node"><title>LAW_OF_LARGE_NUMBERS</title>
<a xlink:href="LAW_OF_LARGE_NUMBERS.html" xlink:title=" The law of large numbers " target="_top">
<polyline fill="none" stroke="black" points="598.191,-252 420.191,-252 "/>
<path fill="none" stroke="black" d="M420.191,-252C414.191,-252 408.191,-246 408.191,-240"/>
<polyline fill="none" stroke="black" points="408.191,-240 408.191,-228 "/>
<path fill="none" stroke="black" d="M408.191,-228C408.191,-222 414.191,-216 420.191,-216"/>
<polyline fill="none" stroke="black" points="420.191,-216 598.191,-216 "/>
<path fill="none" stroke="black" d="M598.191,-216C604.191,-216 610.191,-222 610.191,-228"/>
<polyline fill="none" stroke="black" points="610.191,-228 610.191,-240 "/>
<path fill="none" stroke="black" d="M610.191,-240C610.191,-246 604.191,-252 598.191,-252"/>
<text text-anchor="start" x="416.191" y="-231.233" font-family="Times Roman,serif" font-size="14.00"> The law of large numbers </text>
</a>
</g>
<!-- EXPECTATION&#45;&gt;LAW_OF_LARGE_NUMBERS -->
<g id="edge28" class="edge"><title>EXPECTATION&#45;&gt;LAW_OF_LARGE_NUMBERS</title>
<path fill="none" stroke="black" d="M539.845,-287.831C535.267,-279.792 529.786,-270.167 524.732,-261.292"/>
<polygon fill="black" stroke="black" points="527.666,-259.371 519.676,-252.413 521.583,-262.835 527.666,-259.371"/>
</g>
<!-- VARIANCE&#45;&gt;BERNOULI_RANDOM_VARIABLE -->
<g id="edge30" class="edge"><title>VARIANCE&#45;&gt;BERNOULI_RANDOM_VARIABLE</title>
<path fill="none" stroke="black" d="M316.528,-215.831C320.615,-207.877 325.501,-198.369 330.022,-189.572"/>
<polygon fill="black" stroke="black" points="333.271,-190.907 334.729,-180.413 327.045,-187.708 333.271,-190.907"/>
</g>
<!-- MOMENT_GENERATING_FUNCTION&#45;&gt;BERNOULI_RANDOM_VARIABLE -->
<g id="edge32" class="edge"><title>MOMENT_GENERATING_FUNCTION&#45;&gt;BERNOULI_RANDOM_VARIABLE</title>
<path fill="none" stroke="black" d="M652.274,-215.971C592.699,-205.534 517.654,-192.388 456.546,-181.683"/>
<polygon fill="black" stroke="black" points="456.929,-178.196 446.475,-179.918 455.721,-185.091 456.929,-178.196"/>
</g>
<!-- MOMENT_GENERATING_FUNCTION&#45;&gt;BINOMIAL_RANDOM_VARIABLE -->
<g id="edge34" class="edge"><title>MOMENT_GENERATING_FUNCTION&#45;&gt;BINOMIAL_RANDOM_VARIABLE</title>
<path fill="none" stroke="black" d="M738.853,-215.762C716.172,-190.444 675.03,-144.518 649.236,-115.725"/>
<polygon fill="black" stroke="black" points="651.676,-113.203 642.396,-108.09 646.462,-117.873 651.676,-113.203"/>
</g>
<!-- MOMENT_GENERATING_FUNCTION&#45;&gt;POISSON_RANDOM_VARIABLE -->
<g id="edge36" class="edge"><title>MOMENT_GENERATING_FUNCTION&#45;&gt;POISSON_RANDOM_VARIABLE</title>
<path fill="none" stroke="black" d="M756.396,-215.865C757.74,-184.95 757.412,-120.671 736.191,-72 731.715,-61.7341 724.614,-51.9476 717.319,-43.5954"/>
<polygon fill="black" stroke="black" points="719.705,-41.0203 710.344,-36.0582 714.567,-45.7748 719.705,-41.0203"/>
</g>
</g>
</svg>
