<?xml version="1.0" encoding="UTF-8" standalone="no"?>
<!DOCTYPE svg PUBLIC "-//W3C//DTD SVG 1.1//EN"
 "http://www.w3.org/Graphics/SVG/1.1/DTD/svg11.dtd">
<!-- Generated by graphviz version 2.36.0 (20140111.2315)
 -->
<!-- Title: %3 Pages: 1 -->
<svg width="396pt" height="404pt"
 viewBox="0.00 0.00 396.00 404.00" xmlns="http://www.w3.org/2000/svg" xmlns:xlink="http://www.w3.org/1999/xlink">
<g id="graph0" class="graph" transform="scale(1 1) rotate(0) translate(4 400)">
<title>%3</title>
<!-- MARKOV_PROPERTY -->
<g id="node1" class="node"><title>MARKOV_PROPERTY</title>
<g id="a_node1"><a xlink:href="MARKOV_PROPERTY.html" xlink:title=" The Markov Property " target="_top">
<path fill="none" stroke="black" d="M293.25,-396C293.25,-396 174.75,-396 174.75,-396 168.75,-396 162.75,-390 162.75,-384 162.75,-384 162.75,-372 162.75,-372 162.75,-366 168.75,-360 174.75,-360 174.75,-360 293.25,-360 293.25,-360 299.25,-360 305.25,-366 305.25,-372 305.25,-372 305.25,-384 305.25,-384 305.25,-390 299.25,-396 293.25,-396"/>
<text text-anchor="start" x="170.5" y="-374.3" font-family="Times,serif" font-size="14.00"> The Markov Property </text>
</a>
</g>
</g>
<!-- TRANSITION_MATRIX_OF_MARKOV_CHAIN -->
<g id="node2" class="node"><title>TRANSITION_MATRIX_OF_MARKOV_CHAIN</title>
<g id="a_node2"><a xlink:href="TRANSITION_MATRIX_OF_MARKOV_CHAIN.html" xlink:title=" Markovian transition matrix " target="_top">
<path fill="none" stroke="black" d="M311.25,-324C311.25,-324 156.75,-324 156.75,-324 150.75,-324 144.75,-318 144.75,-312 144.75,-312 144.75,-300 144.75,-300 144.75,-294 150.75,-288 156.75,-288 156.75,-288 311.25,-288 311.25,-288 317.25,-288 323.25,-294 323.25,-300 323.25,-300 323.25,-312 323.25,-312 323.25,-318 317.25,-324 311.25,-324"/>
<text text-anchor="start" x="152.5" y="-302.3" font-family="Times,serif" font-size="14.00"> Markovian transition matrix </text>
</a>
</g>
</g>
<!-- MARKOV_PROPERTY&#45;&gt;TRANSITION_MATRIX_OF_MARKOV_CHAIN -->
<g id="edge1" class="edge"><title>MARKOV_PROPERTY&#45;&gt;TRANSITION_MATRIX_OF_MARKOV_CHAIN</title>
<path fill="none" stroke="black" d="M234,-359.697C234,-351.983 234,-342.712 234,-334.112"/>
<polygon fill="black" stroke="black" points="237.5,-334.104 234,-324.104 230.5,-334.104 237.5,-334.104"/>
</g>
<!-- CHAPMAN_KOLMOGOROV_RELATION -->
<g id="node3" class="node"><title>CHAPMAN_KOLMOGOROV_RELATION</title>
<g id="a_node3"><a xlink:href="CHAPMAN_KOLMOGOROV_RELATION.html" xlink:title=" The Chapman Kolmogorov Relation " target="_top">
<path fill="none" stroke="black" d="M256.5,-252C256.5,-252 57.5,-252 57.5,-252 51.5,-252 45.5,-246 45.5,-240 45.5,-240 45.5,-228 45.5,-228 45.5,-222 51.5,-216 57.5,-216 57.5,-216 256.5,-216 256.5,-216 262.5,-216 268.5,-222 268.5,-228 268.5,-228 268.5,-240 268.5,-240 268.5,-246 262.5,-252 256.5,-252"/>
<text text-anchor="start" x="53" y="-230.3" font-family="Times,serif" font-size="14.00"> The Chapman Kolmogorov Relation </text>
</a>
</g>
</g>
<!-- TRANSITION_MATRIX_OF_MARKOV_CHAIN&#45;&gt;CHAPMAN_KOLMOGOROV_RELATION -->
<g id="edge2" class="edge"><title>TRANSITION_MATRIX_OF_MARKOV_CHAIN&#45;&gt;CHAPMAN_KOLMOGOROV_RELATION</title>
<path fill="none" stroke="black" d="M214.966,-287.697C205.455,-279.05 193.793,-268.449 183.43,-259.027"/>
<polygon fill="black" stroke="black" points="185.569,-256.241 175.815,-252.104 180.86,-261.421 185.569,-256.241"/>
</g>
<!-- STATIONARY_DIST_MARKOV -->
<g id="node5" class="node"><title>STATIONARY_DIST_MARKOV</title>
<g id="a_node5"><a xlink:href="STATIONARY_DIST_MARKOV.html" xlink:title=" Ergodic Markov chains " target="_top">
<path fill="none" stroke="black" d="M376,-108C376,-108 248,-108 248,-108 242,-108 236,-102 236,-96 236,-96 236,-84 236,-84 236,-78 242,-72 248,-72 248,-72 376,-72 376,-72 382,-72 388,-78 388,-84 388,-84 388,-96 388,-96 388,-102 382,-108 376,-108"/>
<text text-anchor="start" x="244" y="-86.3" font-family="Times,serif" font-size="14.00"> Ergodic Markov chains </text>
</a>
</g>
</g>
<!-- TRANSITION_MATRIX_OF_MARKOV_CHAIN&#45;&gt;STATIONARY_DIST_MARKOV -->
<g id="edge3" class="edge"><title>TRANSITION_MATRIX_OF_MARKOV_CHAIN&#45;&gt;STATIONARY_DIST_MARKOV</title>
<path fill="none" stroke="black" d="M251.409,-287.81C260.319,-278.077 270.607,-265.229 277,-252 298.133,-208.267 306.63,-151.716 309.956,-118.592"/>
<polygon fill="black" stroke="black" points="313.471,-118.586 310.896,-108.309 306.5,-117.948 313.471,-118.586"/>
</g>
<!-- TRANSIENT_RECURRENT_STATES -->
<g id="node4" class="node"><title>TRANSIENT_RECURRENT_STATES</title>
<g id="a_node4"><a xlink:href="TRANSIENT_RECURRENT_STATES.html" xlink:title=" Transient and recurrent states in Markov chains " target="_top">
<path fill="none" stroke="black" d="M272,-180C272,-180 12,-180 12,-180 6,-180 0,-174 0,-168 0,-168 0,-156 0,-156 0,-150 6,-144 12,-144 12,-144 272,-144 272,-144 278,-144 284,-150 284,-156 284,-156 284,-168 284,-168 284,-174 278,-180 272,-180"/>
<text text-anchor="start" x="8" y="-158.3" font-family="Times,serif" font-size="14.00"> Transient and recurrent states in Markov chains </text>
</a>
</g>
</g>
<!-- CHAPMAN_KOLMOGOROV_RELATION&#45;&gt;TRANSIENT_RECURRENT_STATES -->
<g id="edge4" class="edge"><title>CHAPMAN_KOLMOGOROV_RELATION&#45;&gt;TRANSIENT_RECURRENT_STATES</title>
<path fill="none" stroke="black" d="M153.292,-215.697C151.639,-207.983 149.653,-198.712 147.81,-190.112"/>
<polygon fill="black" stroke="black" points="151.183,-189.149 145.665,-180.104 144.338,-190.616 151.183,-189.149"/>
</g>
<!-- TRANSIENT_RECURRENT_STATES&#45;&gt;STATIONARY_DIST_MARKOV -->
<g id="edge5" class="edge"><title>TRANSIENT_RECURRENT_STATES&#45;&gt;STATIONARY_DIST_MARKOV</title>
<path fill="none" stroke="black" d="M183.587,-143.876C207.033,-134.222 236.504,-122.087 261.297,-111.878"/>
<polygon fill="black" stroke="black" points="262.634,-115.112 270.548,-108.068 259.969,-108.639 262.634,-115.112"/>
</g>
<!-- HITTING_PROBABILITIES -->
<g id="node6" class="node"><title>HITTING_PROBABILITIES</title>
<g id="a_node6"><a xlink:href="HITTING_PROBABILITIES.html" xlink:title=" Hitting time and hitting probability " target="_top">
<path fill="none" stroke="black" d="M206,-108C206,-108 14,-108 14,-108 8,-108 2,-102 2,-96 2,-96 2,-84 2,-84 2,-78 8,-72 14,-72 14,-72 206,-72 206,-72 212,-72 218,-78 218,-84 218,-84 218,-96 218,-96 218,-102 212,-108 206,-108"/>
<text text-anchor="start" x="10" y="-86.3" font-family="Times,serif" font-size="14.00"> Hitting time and hitting probability </text>
</a>
</g>
</g>
<!-- TRANSIENT_RECURRENT_STATES&#45;&gt;HITTING_PROBABILITIES -->
<g id="edge6" class="edge"><title>TRANSIENT_RECURRENT_STATES&#45;&gt;HITTING_PROBABILITIES</title>
<path fill="none" stroke="black" d="M134.09,-143.697C130.447,-135.728 126.046,-126.1 122.006,-117.264"/>
<polygon fill="black" stroke="black" points="125.16,-115.744 117.819,-108.104 118.794,-118.654 125.16,-115.744"/>
</g>
<!-- GAMBLERS_RUIN -->
<g id="node7" class="node"><title>GAMBLERS_RUIN</title>
<g id="a_node7"><a xlink:href="GAMBLERS_RUIN.html" xlink:title=" Gamblers ruin " target="_top">
<path fill="none" stroke="black" d="M149.25,-36C149.25,-36 70.75,-36 70.75,-36 64.75,-36 58.75,-30 58.75,-24 58.75,-24 58.75,-12 58.75,-12 58.75,-6 64.75,-0 70.75,-0 70.75,-0 149.25,-0 149.25,-0 155.25,-0 161.25,-6 161.25,-12 161.25,-12 161.25,-24 161.25,-24 161.25,-30 155.25,-36 149.25,-36"/>
<text text-anchor="start" x="66.5" y="-14.3" font-family="Times,serif" font-size="14.00"> Gamblers ruin </text>
</a>
</g>
</g>
<!-- HITTING_PROBABILITIES&#45;&gt;GAMBLERS_RUIN -->
<g id="edge7" class="edge"><title>HITTING_PROBABILITIES&#45;&gt;GAMBLERS_RUIN</title>
<path fill="none" stroke="black" d="M110,-71.6966C110,-63.9827 110,-54.7125 110,-46.1124"/>
<polygon fill="black" stroke="black" points="113.5,-46.1043 110,-36.1043 106.5,-46.1044 113.5,-46.1043"/>
</g>
</g>
</svg>
