<?xml version="1.0" encoding="UTF-8" standalone="no"?>
<!DOCTYPE svg PUBLIC "-//W3C//DTD SVG 1.1//EN"
 "http://www.w3.org/Graphics/SVG/1.1/DTD/svg11.dtd">
<!-- Generated by graphviz version 2.36.0 (20140111.2315)
 -->
<!-- Title: %3 Pages: 1 -->
<svg width="365pt" height="188pt"
 viewBox="0.00 0.00 365.00 188.00" xmlns="http://www.w3.org/2000/svg" xmlns:xlink="http://www.w3.org/1999/xlink">
<g id="graph0" class="graph" transform="scale(1 1) rotate(0) translate(4 184)">
<title>%3</title>
<!-- SOVING_DIFFERENTIAL_EQUATIONS_USING_INTEGRATING_FACTORS -->
<g id="node1" class="node"><title>SOVING_DIFFERENTIAL_EQUATIONS_USING_INTEGRATING_FACTORS</title>
<g id="a_node1"><a xlink:href="SOVING_DIFFERENTIAL_EQUATIONS_USING_INTEGRATING_FACTORS.html" xlink:title=" Differential equations and integrating factors " target="_top">
<path fill="none" stroke="blue" stroke-width="2" d="M338.25,-108C338.25,-108 93.75,-108 93.75,-108 87.75,-108 81.75,-102 81.75,-96 81.75,-96 81.75,-84 81.75,-84 81.75,-78 87.75,-72 93.75,-72 93.75,-72 338.25,-72 338.25,-72 344.25,-72 350.25,-78 350.25,-84 350.25,-84 350.25,-96 350.25,-96 350.25,-102 344.25,-108 338.25,-108"/>
<text text-anchor="start" x="89.5" y="-86.3" font-family="Times,serif" font-size="14.00"> Differential equations and integrating factors </text>
</a>
</g>
</g>
<!-- POISSON_PROCESS -->
<g id="node3" class="node"><title>POISSON_PROCESS</title>
<g id="a_node3"><a xlink:href="POISSON_PROCESS.html" xlink:title=" Poisson Process " target="_top">
<path fill="none" stroke="black" d="M259.25,-36C259.25,-36 172.75,-36 172.75,-36 166.75,-36 160.75,-30 160.75,-24 160.75,-24 160.75,-12 160.75,-12 160.75,-6 166.75,-0 172.75,-0 172.75,-0 259.25,-0 259.25,-0 265.25,-0 271.25,-6 271.25,-12 271.25,-12 271.25,-24 271.25,-24 271.25,-30 265.25,-36 259.25,-36"/>
<text text-anchor="start" x="168.5" y="-14.3" font-family="Times,serif" font-size="14.00"> Poisson Process </text>
</a>
</g>
</g>
<!-- SOVING_DIFFERENTIAL_EQUATIONS_USING_INTEGRATING_FACTORS&#45;&gt;POISSON_PROCESS -->
<g id="edge2" class="edge"><title>SOVING_DIFFERENTIAL_EQUATIONS_USING_INTEGRATING_FACTORS&#45;&gt;POISSON_PROCESS</title>
<path fill="none" stroke="black" d="M216,-71.6966C216,-63.9827 216,-54.7125 216,-46.1124"/>
<polygon fill="black" stroke="black" points="219.5,-46.1043 216,-36.1043 212.5,-46.1044 219.5,-46.1043"/>
</g>
<!-- VARIABLE_SEPARABLE_DIFFERENTIAL_EQUATIONS -->
<g id="node2" class="node"><title>VARIABLE_SEPARABLE_DIFFERENTIAL_EQUATIONS</title>
<g id="a_node2"><a xlink:href="VARIABLE_SEPARABLE_DIFFERENTIAL_EQUATIONS.html" xlink:title=" Variable separable differential equations " target="_top">
<path fill="none" stroke="black" d="M232.25,-180C232.25,-180 11.75,-180 11.75,-180 5.75,-180 -0.25,-174 -0.25,-168 -0.25,-168 -0.25,-156 -0.25,-156 -0.25,-150 5.75,-144 11.75,-144 11.75,-144 232.25,-144 232.25,-144 238.25,-144 244.25,-150 244.25,-156 244.25,-156 244.25,-168 244.25,-168 244.25,-174 238.25,-180 232.25,-180"/>
<text text-anchor="start" x="7.5" y="-158.3" font-family="Times,serif" font-size="14.00"> Variable separable differential equations </text>
</a>
</g>
</g>
<!-- VARIABLE_SEPARABLE_DIFFERENTIAL_EQUATIONS&#45;&gt;SOVING_DIFFERENTIAL_EQUATIONS_USING_INTEGRATING_FACTORS -->
<g id="edge1" class="edge"><title>VARIABLE_SEPARABLE_DIFFERENTIAL_EQUATIONS&#45;&gt;SOVING_DIFFERENTIAL_EQUATIONS_USING_INTEGRATING_FACTORS</title>
<path fill="none" stroke="black" d="M145.236,-143.697C157.188,-134.796 171.923,-123.823 184.847,-114.199"/>
<polygon fill="black" stroke="black" points="187.101,-116.884 193.031,-108.104 182.92,-111.27 187.101,-116.884"/>
</g>
<!-- PRODUCT_RULE -->
<g id="node4" class="node"><title>PRODUCT_RULE</title>
<g id="a_node4"><a xlink:href="PRODUCT_RULE.html" xlink:title=" Product Rule " target="_top">
<path fill="none" stroke="black" d="M345.25,-180C345.25,-180 274.75,-180 274.75,-180 268.75,-180 262.75,-174 262.75,-168 262.75,-168 262.75,-156 262.75,-156 262.75,-150 268.75,-144 274.75,-144 274.75,-144 345.25,-144 345.25,-144 351.25,-144 357.25,-150 357.25,-156 357.25,-156 357.25,-168 357.25,-168 357.25,-174 351.25,-180 345.25,-180"/>
<text text-anchor="start" x="270.5" y="-158.3" font-family="Times,serif" font-size="14.00"> Product Rule </text>
</a>
</g>
</g>
<!-- PRODUCT_RULE&#45;&gt;SOVING_DIFFERENTIAL_EQUATIONS_USING_INTEGRATING_FACTORS -->
<g id="edge3" class="edge"><title>PRODUCT_RULE&#45;&gt;SOVING_DIFFERENTIAL_EQUATIONS_USING_INTEGRATING_FACTORS</title>
<path fill="none" stroke="black" d="M286.764,-143.697C274.812,-134.796 260.077,-123.823 247.153,-114.199"/>
<polygon fill="black" stroke="black" points="249.08,-111.27 238.969,-108.104 244.899,-116.884 249.08,-111.27"/>
</g>
</g>
</svg>
