<?xml version="1.0" encoding="UTF-8" standalone="no"?>
<!DOCTYPE svg PUBLIC "-//W3C//DTD SVG 1.1//EN"
 "http://www.w3.org/Graphics/SVG/1.1/DTD/svg11.dtd">
<!-- Generated by graphviz version 2.28.0 (20110509.1545)
 -->
<!-- Title: _anonymous_0 Pages: 1 -->
<svg width="276pt" height="188pt"
 viewBox="0.00 0.00 276.00 188.00" xmlns="http://www.w3.org/2000/svg" xmlns:xlink="http://www.w3.org/1999/xlink">
<g id="graph1" class="graph" transform="scale(1 1) rotate(0) translate(4 184)">
<title>_anonymous_0</title>
<!-- SOVING_DIFFERENTIAL_EQUATIONS_USING_INTEGRATING_FACTORS -->
<g id="node1" class="node"><title>SOVING_DIFFERENTIAL_EQUATIONS_USING_INTEGRATING_FACTORS</title>
<a xlink:href="SOVING_DIFFERENTIAL_EQUATIONS_USING_INTEGRATING_FACTORS.html" xlink:title="Differential equations and integrating factors" target="_top">
<polyline fill="none" stroke="blue" stroke-width="2" points="256,-108 12,-108 "/>
<path fill="none" stroke="blue" stroke-width="2" d="M12,-108C6,-108 0,-102 0,-96"/>
<polyline fill="none" stroke="blue" stroke-width="2" points="0,-96 0,-84 "/>
<path fill="none" stroke="blue" stroke-width="2" d="M0,-84C0,-78 6,-72 12,-72"/>
<polyline fill="none" stroke="blue" stroke-width="2" points="12,-72 256,-72 "/>
<path fill="none" stroke="blue" stroke-width="2" d="M256,-72C262,-72 268,-78 268,-84"/>
<polyline fill="none" stroke="blue" stroke-width="2" points="268,-84 268,-96 "/>
<path fill="none" stroke="blue" stroke-width="2" d="M268,-96C268,-102 262,-108 256,-108"/>
<text text-anchor="start" x="8.5" y="-84.5" font-family="Times,serif" font-size="14.00">Differential equations and integrating factors</text>
</a>
</g>
<!-- MULTISTATE_CONTINUOUS_TIME_MARKOV_CHAINS -->
<g id="node4" class="node"><title>MULTISTATE_CONTINUOUS_TIME_MARKOV_CHAINS</title>
<a xlink:href="MULTISTATE_CONTINUOUS_TIME_MARKOV_CHAINS.html" xlink:title="TITLE:" target="_top">
<polyline fill="none" stroke="black" points="151.25,-36 116.75,-36 "/>
<path fill="none" stroke="black" d="M116.75,-36C110.75,-36 104.75,-30 104.75,-24"/>
<polyline fill="none" stroke="black" points="104.75,-24 104.75,-12 "/>
<path fill="none" stroke="black" d="M104.75,-12C104.75,-6 110.75,-0 116.75,-0"/>
<polyline fill="none" stroke="black" points="116.75,-0 151.25,-0 "/>
<path fill="none" stroke="black" d="M151.25,-0C157.25,-0 163.25,-6 163.25,-12"/>
<polyline fill="none" stroke="black" points="163.25,-12 163.25,-24 "/>
<path fill="none" stroke="black" d="M163.25,-24C163.25,-30 157.25,-36 151.25,-36"/>
<text text-anchor="start" x="113" y="-12.5" font-family="Times,serif" font-size="14.00">TITLE:</text>
</a>
</g>
<!-- SOVING_DIFFERENTIAL_EQUATIONS_USING_INTEGRATING_FACTORS&#45;&gt;MULTISTATE_CONTINUOUS_TIME_MARKOV_CHAINS -->
<g id="edge4" class="edge"><title>SOVING_DIFFERENTIAL_EQUATIONS_USING_INTEGRATING_FACTORS&#45;&gt;MULTISTATE_CONTINUOUS_TIME_MARKOV_CHAINS</title>
<path fill="none" stroke="black" d="M134,-71.6966C134,-63.9827 134,-54.7125 134,-46.1124"/>
<polygon fill="black" stroke="black" points="137.5,-46.1043 134,-36.1043 130.5,-46.1044 137.5,-46.1043"/>
</g>
<!-- EXPONENTIAL_GROWTH_DECAY -->
<g id="node2" class="node"><title>EXPONENTIAL_GROWTH_DECAY</title>
<a xlink:href="EXPONENTIAL_GROWTH_DECAY.html" xlink:title="Exponential growth/decay" target="_top">
<polyline fill="none" stroke="black" points="204,-180 64,-180 "/>
<path fill="none" stroke="black" d="M64,-180C58,-180 52,-174 52,-168"/>
<polyline fill="none" stroke="black" points="52,-168 52,-156 "/>
<path fill="none" stroke="black" d="M52,-156C52,-150 58,-144 64,-144"/>
<polyline fill="none" stroke="black" points="64,-144 204,-144 "/>
<path fill="none" stroke="black" d="M204,-144C210,-144 216,-150 216,-156"/>
<polyline fill="none" stroke="black" points="216,-156 216,-168 "/>
<path fill="none" stroke="black" d="M216,-168C216,-174 210,-180 204,-180"/>
<text text-anchor="start" x="60.5" y="-156.5" font-family="Times,serif" font-size="14.00">Exponential growth/decay</text>
</a>
</g>
<!-- EXPONENTIAL_GROWTH_DECAY&#45;&gt;SOVING_DIFFERENTIAL_EQUATIONS_USING_INTEGRATING_FACTORS -->
<g id="edge2" class="edge"><title>EXPONENTIAL_GROWTH_DECAY&#45;&gt;SOVING_DIFFERENTIAL_EQUATIONS_USING_INTEGRATING_FACTORS</title>
<path fill="none" stroke="black" d="M134,-143.697C134,-135.983 134,-126.712 134,-118.112"/>
<polygon fill="black" stroke="black" points="137.5,-118.104 134,-108.104 130.5,-118.104 137.5,-118.104"/>
</g>
</g>
</svg>
