<?xml version="1.0" encoding="UTF-8" standalone="no"?>
<!DOCTYPE svg PUBLIC "-//W3C//DTD SVG 1.1//EN"
 "http://www.w3.org/Graphics/SVG/1.1/DTD/svg11.dtd">
<!-- Generated by graphviz version 2.26.3 (20100126.1600)
 -->
<!-- Title: _anonymous_0 Pages: 1 -->
<svg width="429pt" height="188pt"
 viewBox="0.00 0.00 429.00 188.00" xmlns="http://www.w3.org/2000/svg" xmlns:xlink="http://www.w3.org/1999/xlink">
<g id="graph1" class="graph" transform="scale(1 1) rotate(0) translate(4 184)">
<title>_anonymous_0</title>
<!-- SOVING_DIFFERENTIAL_EQUATIONS_USING_INTEGRATING_FACTORS -->
<g id="node1" class="node"><title>SOVING_DIFFERENTIAL_EQUATIONS_USING_INTEGRATING_FACTORS</title>
<a xlink:href="SOVING_DIFFERENTIAL_EQUATIONS_USING_INTEGRATING_FACTORS.html" xlink:title="Differential equations and integrating factors" target="_top">
<polyline fill="none" stroke="blue" stroke-width="2" points="318,-108 12,-108 "/>
<path fill="none" stroke="blue" stroke-width="2" d="M12,-108C6,-108 1.18424e-13,-102 9.4739e-14,-96"/>
<polyline fill="none" stroke="blue" stroke-width="2" points="9.4739e-14,-96 4.73695e-14,-84 "/>
<path fill="none" stroke="blue" stroke-width="2" d="M4.73695e-14,-84C2.36848e-14,-78 6,-72 12,-72"/>
<polyline fill="none" stroke="blue" stroke-width="2" points="12,-72 318,-72 "/>
<path fill="none" stroke="blue" stroke-width="2" d="M318,-72C324,-72 330,-78 330,-84"/>
<polyline fill="none" stroke="blue" stroke-width="2" points="330,-84 330,-96 "/>
<path fill="none" stroke="blue" stroke-width="2" d="M330,-96C330,-102 324,-108 318,-108"/>
<text text-anchor="start" x="8.5" y="-87.2333" font-family="Times Roman,serif" font-size="14.00">Differential equations and integrating factors</text>
</a>
</g>
<!-- POISSON_PROCESS -->
<g id="node6" class="node"><title>POISSON_PROCESS</title>
<a xlink:href="POISSON_PROCESS.html" xlink:title="Poisson Process" target="_top">
<polyline fill="none" stroke="black" points="215,-36 115,-36 "/>
<path fill="none" stroke="black" d="M115,-36C109,-36 103,-30 103,-24"/>
<polyline fill="none" stroke="black" points="103,-24 103,-12 "/>
<path fill="none" stroke="black" d="M103,-12C103,-6 109,-1.70759e-14 115,-1.63883e-14"/>
<polyline fill="none" stroke="black" points="115,-1.63883e-14 215,-4.92796e-15 "/>
<path fill="none" stroke="black" d="M215,-4.92796e-15C221,-4.24034e-15 227,-6 227,-12"/>
<polyline fill="none" stroke="black" points="227,-12 227,-24 "/>
<path fill="none" stroke="black" d="M227,-24C227,-30 221,-36 215,-36"/>
<text text-anchor="start" x="111" y="-15.2333" font-family="Times Roman,serif" font-size="14.00">Poisson Process</text>
</a>
</g>
<!-- SOVING_DIFFERENTIAL_EQUATIONS_USING_INTEGRATING_FACTORS&#45;&gt;POISSON_PROCESS -->
<g id="edge6" class="edge"><title>SOVING_DIFFERENTIAL_EQUATIONS_USING_INTEGRATING_FACTORS&#45;&gt;POISSON_PROCESS</title>
<path fill="none" stroke="black" d="M165,-71.8314C165,-64.131 165,-54.9743 165,-46.4166"/>
<polygon fill="black" stroke="black" points="168.5,-46.4132 165,-36.4133 161.5,-46.4133 168.5,-46.4132"/>
</g>
<!-- PRODUCT_RULE -->
<g id="node2" class="node"><title>PRODUCT_RULE</title>
<a xlink:href="PRODUCT_RULE.html" xlink:title="Product Rule" target="_top">
<polyline fill="none" stroke="black" points="97,-180 17,-180 "/>
<path fill="none" stroke="black" d="M17,-180C11,-180 5,-174 5,-168"/>
<polyline fill="none" stroke="black" points="5,-168 5,-156 "/>
<path fill="none" stroke="black" d="M5,-156C5,-150 11,-144 17,-144"/>
<polyline fill="none" stroke="black" points="17,-144 97,-144 "/>
<path fill="none" stroke="black" d="M97,-144C103,-144 109,-150 109,-156"/>
<polyline fill="none" stroke="black" points="109,-156 109,-168 "/>
<path fill="none" stroke="black" d="M109,-168C109,-174 103,-180 97,-180"/>
<text text-anchor="start" x="13" y="-159.233" font-family="Times Roman,serif" font-size="14.00">Product Rule</text>
</a>
</g>
<!-- PRODUCT_RULE&#45;&gt;SOVING_DIFFERENTIAL_EQUATIONS_USING_INTEGRATING_FACTORS -->
<g id="edge2" class="edge"><title>PRODUCT_RULE&#45;&gt;SOVING_DIFFERENTIAL_EQUATIONS_USING_INTEGRATING_FACTORS</title>
<path fill="none" stroke="black" d="M84.253,-143.831C97.9389,-134.707 114.691,-123.539 129.383,-113.745"/>
<polygon fill="black" stroke="black" points="131.377,-116.622 137.756,-108.163 127.494,-110.798 131.377,-116.622"/>
</g>
<!-- VARIABLE_SEPARABLE_DIFFERENTIAL_EQUATIONS -->
<g id="node4" class="node"><title>VARIABLE_SEPARABLE_DIFFERENTIAL_EQUATIONS</title>
<a xlink:href="VARIABLE_SEPARABLE_DIFFERENTIAL_EQUATIONS.html" xlink:title="Variable separable differential equations" target="_top">
<polyline fill="none" stroke="black" points="409,-180 139,-180 "/>
<path fill="none" stroke="black" d="M139,-180C133,-180 127,-174 127,-168"/>
<polyline fill="none" stroke="black" points="127,-168 127,-156 "/>
<path fill="none" stroke="black" d="M127,-156C127,-150 133,-144 139,-144"/>
<polyline fill="none" stroke="black" points="139,-144 409,-144 "/>
<path fill="none" stroke="black" d="M409,-144C415,-144 421,-150 421,-156"/>
<polyline fill="none" stroke="black" points="421,-156 421,-168 "/>
<path fill="none" stroke="black" d="M421,-168C421,-174 415,-180 409,-180"/>
<text text-anchor="start" x="135" y="-159.233" font-family="Times Roman,serif" font-size="14.00">Variable separable differential equations</text>
</a>
</g>
<!-- VARIABLE_SEPARABLE_DIFFERENTIAL_EQUATIONS&#45;&gt;SOVING_DIFFERENTIAL_EQUATIONS_USING_INTEGRATING_FACTORS -->
<g id="edge4" class="edge"><title>VARIABLE_SEPARABLE_DIFFERENTIAL_EQUATIONS&#45;&gt;SOVING_DIFFERENTIAL_EQUATIONS_USING_INTEGRATING_FACTORS</title>
<path fill="none" stroke="black" d="M246.495,-143.831C232.682,-134.707 215.774,-123.539 200.947,-113.745"/>
<polygon fill="black" stroke="black" points="202.77,-110.754 192.497,-108.163 198.911,-116.595 202.77,-110.754"/>
</g>
</g>
</svg>
