<?xml version="1.0" encoding="UTF-8" standalone="no"?>
<!DOCTYPE svg PUBLIC "-//W3C//DTD SVG 1.1//EN"
 "http://www.w3.org/Graphics/SVG/1.1/DTD/svg11.dtd">
<!-- Generated by graphviz version 2.26.3 (20100126.1600)
 -->
<!-- Title: _anonymous_0 Pages: 1 -->
<svg width="428pt" height="188pt"
 viewBox="0.00 0.00 428.00 188.00" xmlns="http://www.w3.org/2000/svg" xmlns:xlink="http://www.w3.org/1999/xlink">
<g id="graph1" class="graph" transform="scale(1 1) rotate(0) translate(4 184)">
<title>_anonymous_0</title>
<!-- SOVING_DIFFERENTIAL_EQUATIONS_USING_INTEGRATING_FACTORS -->
<g id="node1" class="node"><title>SOVING_DIFFERENTIAL_EQUATIONS_USING_INTEGRATING_FACTORS</title>
<a xlink:href="SOVING_DIFFERENTIAL_EQUATIONS_USING_INTEGRATING_FACTORS.html" xlink:title="Differential equations and integrating factors" target="_top">
<polyline fill="none" stroke="blue" stroke-width="2" points="408,-108 102,-108 "/>
<path fill="none" stroke="blue" stroke-width="2" d="M102,-108C96,-108 90,-102 90,-96"/>
<polyline fill="none" stroke="blue" stroke-width="2" points="90,-96 90,-84 "/>
<path fill="none" stroke="blue" stroke-width="2" d="M90,-84C90,-78 96,-72 102,-72"/>
<polyline fill="none" stroke="blue" stroke-width="2" points="102,-72 408,-72 "/>
<path fill="none" stroke="blue" stroke-width="2" d="M408,-72C414,-72 420,-78 420,-84"/>
<polyline fill="none" stroke="blue" stroke-width="2" points="420,-84 420,-96 "/>
<path fill="none" stroke="blue" stroke-width="2" d="M420,-96C420,-102 414,-108 408,-108"/>
<text text-anchor="start" x="98.5" y="-87.2333" font-family="Times Roman,serif" font-size="14.00">Differential equations and integrating factors</text>
</a>
</g>
<!-- POISSON_PROCESS -->
<g id="node6" class="node"><title>POISSON_PROCESS</title>
<a xlink:href="POISSON_PROCESS.html" xlink:title="Poisson Process" target="_top">
<polyline fill="none" stroke="black" points="305,-36 205,-36 "/>
<path fill="none" stroke="black" d="M205,-36C199,-36 193,-30 193,-24"/>
<polyline fill="none" stroke="black" points="193,-24 193,-12 "/>
<path fill="none" stroke="black" d="M193,-12C193,-6 199,-1.70759e-14 205,-1.63883e-14"/>
<polyline fill="none" stroke="black" points="205,-1.63883e-14 305,-4.92796e-15 "/>
<path fill="none" stroke="black" d="M305,-4.92796e-15C311,-4.24034e-15 317,-6 317,-12"/>
<polyline fill="none" stroke="black" points="317,-12 317,-24 "/>
<path fill="none" stroke="black" d="M317,-24C317,-30 311,-36 305,-36"/>
<text text-anchor="start" x="201" y="-15.2333" font-family="Times Roman,serif" font-size="14.00">Poisson Process</text>
</a>
</g>
<!-- SOVING_DIFFERENTIAL_EQUATIONS_USING_INTEGRATING_FACTORS&#45;&gt;POISSON_PROCESS -->
<g id="edge6" class="edge"><title>SOVING_DIFFERENTIAL_EQUATIONS_USING_INTEGRATING_FACTORS&#45;&gt;POISSON_PROCESS</title>
<path fill="none" stroke="black" d="M255,-71.8314C255,-64.131 255,-54.9743 255,-46.4166"/>
<polygon fill="black" stroke="black" points="258.5,-46.4132 255,-36.4133 251.5,-46.4133 258.5,-46.4132"/>
</g>
<!-- VARIABLE_SEPARABLE_DIFFERENTIAL_EQUATIONS -->
<g id="node2" class="node"><title>VARIABLE_SEPARABLE_DIFFERENTIAL_EQUATIONS</title>
<a xlink:href="VARIABLE_SEPARABLE_DIFFERENTIAL_EQUATIONS.html" xlink:title="Variable separable differential equations" target="_top">
<polyline fill="none" stroke="black" points="282,-180 12,-180 "/>
<path fill="none" stroke="black" d="M12,-180C6,-180 1.18424e-13,-174 9.4739e-14,-168"/>
<polyline fill="none" stroke="black" points="9.4739e-14,-168 4.73695e-14,-156 "/>
<path fill="none" stroke="black" d="M4.73695e-14,-156C2.36848e-14,-150 6,-144 12,-144"/>
<polyline fill="none" stroke="black" points="12,-144 282,-144 "/>
<path fill="none" stroke="black" d="M282,-144C288,-144 294,-150 294,-156"/>
<polyline fill="none" stroke="black" points="294,-156 294,-168 "/>
<path fill="none" stroke="black" d="M294,-168C294,-174 288,-180 282,-180"/>
<text text-anchor="start" x="8" y="-159.233" font-family="Times Roman,serif" font-size="14.00">Variable separable differential equations</text>
</a>
</g>
<!-- VARIABLE_SEPARABLE_DIFFERENTIAL_EQUATIONS&#45;&gt;SOVING_DIFFERENTIAL_EQUATIONS_USING_INTEGRATING_FACTORS -->
<g id="edge2" class="edge"><title>VARIABLE_SEPARABLE_DIFFERENTIAL_EQUATIONS&#45;&gt;SOVING_DIFFERENTIAL_EQUATIONS_USING_INTEGRATING_FACTORS</title>
<path fill="none" stroke="black" d="M174.253,-143.831C187.939,-134.707 204.691,-123.539 219.383,-113.745"/>
<polygon fill="black" stroke="black" points="221.377,-116.622 227.756,-108.163 217.494,-110.798 221.377,-116.622"/>
</g>
<!-- PRODUCT_RULE -->
<g id="node4" class="node"><title>PRODUCT_RULE</title>
<a xlink:href="PRODUCT_RULE.html" xlink:title="Product Rule" target="_top">
<polyline fill="none" stroke="black" points="404,-180 324,-180 "/>
<path fill="none" stroke="black" d="M324,-180C318,-180 312,-174 312,-168"/>
<polyline fill="none" stroke="black" points="312,-168 312,-156 "/>
<path fill="none" stroke="black" d="M312,-156C312,-150 318,-144 324,-144"/>
<polyline fill="none" stroke="black" points="324,-144 404,-144 "/>
<path fill="none" stroke="black" d="M404,-144C410,-144 416,-150 416,-156"/>
<polyline fill="none" stroke="black" points="416,-156 416,-168 "/>
<path fill="none" stroke="black" d="M416,-168C416,-174 410,-180 404,-180"/>
<text text-anchor="start" x="320" y="-159.233" font-family="Times Roman,serif" font-size="14.00">Product Rule</text>
</a>
</g>
<!-- PRODUCT_RULE&#45;&gt;SOVING_DIFFERENTIAL_EQUATIONS_USING_INTEGRATING_FACTORS -->
<g id="edge4" class="edge"><title>PRODUCT_RULE&#45;&gt;SOVING_DIFFERENTIAL_EQUATIONS_USING_INTEGRATING_FACTORS</title>
<path fill="none" stroke="black" d="M336.495,-143.831C322.682,-134.707 305.774,-123.539 290.947,-113.745"/>
<polygon fill="black" stroke="black" points="292.77,-110.754 282.497,-108.163 288.911,-116.595 292.77,-110.754"/>
</g>
</g>
</svg>
