<?xml version="1.0" encoding="UTF-8" standalone="no"?>
<!DOCTYPE svg PUBLIC "-//W3C//DTD SVG 1.1//EN"
 "http://www.w3.org/Graphics/SVG/1.1/DTD/svg11.dtd">
<!-- Generated by graphviz version 2.26.3 (20100126.1600)
 -->
<!-- Title: _anonymous_0 Pages: 1 -->
<svg width="444pt" height="188pt"
 viewBox="0.00 0.00 444.00 188.00" xmlns="http://www.w3.org/2000/svg" xmlns:xlink="http://www.w3.org/1999/xlink">
<g id="graph1" class="graph" transform="scale(1 1) rotate(0) translate(4 184)">
<title>_anonymous_0</title>
<!-- SOVING_DIFFERENTIAL_EQUATIONS_USING_INTEGRATING_FACTORS -->
<g id="node1" class="node"><title>SOVING_DIFFERENTIAL_EQUATIONS_USING_INTEGRATING_FACTORS</title>
<a xlink:href="SOVING_DIFFERENTIAL_EQUATIONS_USING_INTEGRATING_FACTORS.html" xlink:title=" Differential equations and integrating factors " target="_top">
<polyline fill="none" stroke="blue" stroke-width="2" points="327,-108 13,-108 "/>
<path fill="none" stroke="blue" stroke-width="2" d="M13,-108C7,-108 1,-102 1,-96"/>
<polyline fill="none" stroke="blue" stroke-width="2" points="1,-96 1,-84 "/>
<path fill="none" stroke="blue" stroke-width="2" d="M1,-84C1,-78 7,-72 13,-72"/>
<polyline fill="none" stroke="blue" stroke-width="2" points="13,-72 327,-72 "/>
<path fill="none" stroke="blue" stroke-width="2" d="M327,-72C333,-72 339,-78 339,-84"/>
<polyline fill="none" stroke="blue" stroke-width="2" points="339,-84 339,-96 "/>
<path fill="none" stroke="blue" stroke-width="2" d="M339,-96C339,-102 333,-108 327,-108"/>
<text text-anchor="start" x="9" y="-87.2333" font-family="Times Roman,serif" font-size="14.00"> Differential equations and integrating factors </text>
</a>
</g>
<!-- POISSON_PROCESS -->
<g id="node2" class="node"><title>POISSON_PROCESS</title>
<a xlink:href="POISSON_PROCESS.html" xlink:title=" Poisson Process " target="_top">
<polyline fill="none" stroke="black" points="225,-36 115,-36 "/>
<path fill="none" stroke="black" d="M115,-36C109,-36 103,-30 103,-24"/>
<polyline fill="none" stroke="black" points="103,-24 103,-12 "/>
<path fill="none" stroke="black" d="M103,-12C103,-6 109,-1.71273e-14 115,-1.6491e-14"/>
<polyline fill="none" stroke="black" points="115,-1.6491e-14 225,-4.82533e-15 "/>
<path fill="none" stroke="black" d="M225,-4.82533e-15C231,-4.18902e-15 237,-6 237,-12"/>
<polyline fill="none" stroke="black" points="237,-12 237,-24 "/>
<path fill="none" stroke="black" d="M237,-24C237,-30 231,-36 225,-36"/>
<text text-anchor="start" x="111.5" y="-15.2333" font-family="Times Roman,serif" font-size="14.00"> Poisson Process </text>
</a>
</g>
<!-- SOVING_DIFFERENTIAL_EQUATIONS_USING_INTEGRATING_FACTORS&#45;&gt;POISSON_PROCESS -->
<g id="edge2" class="edge"><title>SOVING_DIFFERENTIAL_EQUATIONS_USING_INTEGRATING_FACTORS&#45;&gt;POISSON_PROCESS</title>
<path fill="none" stroke="black" d="M170,-71.8314C170,-64.131 170,-54.9743 170,-46.4166"/>
<polygon fill="black" stroke="black" points="173.5,-46.4132 170,-36.4133 166.5,-46.4133 173.5,-46.4132"/>
</g>
<!-- PRODUCT_RULE -->
<g id="node4" class="node"><title>PRODUCT_RULE</title>
<a xlink:href="PRODUCT_RULE.html" xlink:title=" Product Rule " target="_top">
<polyline fill="none" stroke="black" points="102,-180 12,-180 "/>
<path fill="none" stroke="black" d="M12,-180C6,-180 4.14483e-14,-174 3.31587e-14,-168"/>
<polyline fill="none" stroke="black" points="3.31587e-14,-168 1.65793e-14,-156 "/>
<path fill="none" stroke="black" d="M1.65793e-14,-156C8.28967e-15,-150 6,-144 12,-144"/>
<polyline fill="none" stroke="black" points="12,-144 102,-144 "/>
<path fill="none" stroke="black" d="M102,-144C108,-144 114,-150 114,-156"/>
<polyline fill="none" stroke="black" points="114,-156 114,-168 "/>
<path fill="none" stroke="black" d="M114,-168C114,-174 108,-180 102,-180"/>
<text text-anchor="start" x="8.5" y="-159.233" font-family="Times Roman,serif" font-size="14.00"> Product Rule </text>
</a>
</g>
<!-- PRODUCT_RULE&#45;&gt;SOVING_DIFFERENTIAL_EQUATIONS_USING_INTEGRATING_FACTORS -->
<g id="edge4" class="edge"><title>PRODUCT_RULE&#45;&gt;SOVING_DIFFERENTIAL_EQUATIONS_USING_INTEGRATING_FACTORS</title>
<path fill="none" stroke="black" d="M85.5147,-143.831C99.8342,-134.707 117.362,-123.539 132.734,-113.745"/>
<polygon fill="black" stroke="black" points="134.942,-116.488 141.494,-108.163 131.18,-110.585 134.942,-116.488"/>
</g>
<!-- VARIABLE_SEPARABLE_DIFFERENTIAL_EQUATIONS -->
<g id="node6" class="node"><title>VARIABLE_SEPARABLE_DIFFERENTIAL_EQUATIONS</title>
<a xlink:href="VARIABLE_SEPARABLE_DIFFERENTIAL_EQUATIONS.html" xlink:title=" Variable separable differential equations " target="_top">
<polyline fill="none" stroke="black" points="424,-180 144,-180 "/>
<path fill="none" stroke="black" d="M144,-180C138,-180 132,-174 132,-168"/>
<polyline fill="none" stroke="black" points="132,-168 132,-156 "/>
<path fill="none" stroke="black" d="M132,-156C132,-150 138,-144 144,-144"/>
<polyline fill="none" stroke="black" points="144,-144 424,-144 "/>
<path fill="none" stroke="black" d="M424,-144C430,-144 436,-150 436,-156"/>
<polyline fill="none" stroke="black" points="436,-156 436,-168 "/>
<path fill="none" stroke="black" d="M436,-168C436,-174 430,-180 424,-180"/>
<text text-anchor="start" x="140.5" y="-159.233" font-family="Times Roman,serif" font-size="14.00"> Variable separable differential equations </text>
</a>
</g>
<!-- VARIABLE_SEPARABLE_DIFFERENTIAL_EQUATIONS&#45;&gt;SOVING_DIFFERENTIAL_EQUATIONS_USING_INTEGRATING_FACTORS -->
<g id="edge6" class="edge"><title>VARIABLE_SEPARABLE_DIFFERENTIAL_EQUATIONS&#45;&gt;SOVING_DIFFERENTIAL_EQUATIONS_USING_INTEGRATING_FACTORS</title>
<path fill="none" stroke="black" d="M255.233,-143.831C240.787,-134.707 223.103,-123.539 207.596,-113.745"/>
<polygon fill="black" stroke="black" points="209.082,-110.544 198.758,-108.163 205.344,-116.462 209.082,-110.544"/>
</g>
</g>
</svg>
