<?xml version="1.0" encoding="UTF-8" standalone="no"?>
<!DOCTYPE svg PUBLIC "-//W3C//DTD SVG 1.1//EN"
 "http://www.w3.org/Graphics/SVG/1.1/DTD/svg11.dtd">
<!-- Generated by graphviz version 2.26.3 (20100126.1600)
 -->
<!-- Title: _anonymous_0 Pages: 1 -->
<svg width="428pt" height="116pt"
 viewBox="0.00 0.00 428.00 116.00" xmlns="http://www.w3.org/2000/svg" xmlns:xlink="http://www.w3.org/1999/xlink">
<g id="graph1" class="graph" transform="scale(1 1) rotate(0) translate(4 112)">
<title>_anonymous_0</title>
<!-- SOVING_DIFFERENTIAL_EQUATIONS_USING_INTEGRATING_FACTORS -->
<g id="node1" class="node"><title>SOVING_DIFFERENTIAL_EQUATIONS_USING_INTEGRATING_FACTORS</title>
<a xlink:href="SOVING_DIFFERENTIAL_EQUATIONS_USING_INTEGRATING_FACTORS.html" xlink:title="Differential equations and integrating factors" target="_top">
<polyline fill="none" stroke="blue" stroke-width="2" points="408,-36 102,-36 "/>
<path fill="none" stroke="blue" stroke-width="2" d="M102,-36C96,-36 90,-30 90,-24"/>
<polyline fill="none" stroke="blue" stroke-width="2" points="90,-24 90,-12 "/>
<path fill="none" stroke="blue" stroke-width="2" d="M90,-12C90,-6 96,-1.75052e-14 102,-1.72468e-14"/>
<polyline fill="none" stroke="blue" stroke-width="2" points="102,-1.72468e-14 408,-4.06947e-15 "/>
<path fill="none" stroke="blue" stroke-width="2" d="M408,-4.06947e-15C414,-3.81109e-15 420,-6 420,-12"/>
<polyline fill="none" stroke="blue" stroke-width="2" points="420,-12 420,-24 "/>
<path fill="none" stroke="blue" stroke-width="2" d="M420,-24C420,-30 414,-36 408,-36"/>
<text text-anchor="start" x="98.5" y="-15.2333" font-family="Times Roman,serif" font-size="14.00">Differential equations and integrating factors</text>
</a>
</g>
<!-- VARIABLE_SEPARABLE_DIFFERENTIAL_EQUATIONS -->
<g id="node2" class="node"><title>VARIABLE_SEPARABLE_DIFFERENTIAL_EQUATIONS</title>
<a xlink:href="VARIABLE_SEPARABLE_DIFFERENTIAL_EQUATIONS.html" xlink:title="Variable separable differential equations" target="_top">
<polyline fill="none" stroke="black" points="282,-108 12,-108 "/>
<path fill="none" stroke="black" d="M12,-108C6,-108 1.18424e-13,-102 9.4739e-14,-96"/>
<polyline fill="none" stroke="black" points="9.4739e-14,-96 4.73695e-14,-84 "/>
<path fill="none" stroke="black" d="M4.73695e-14,-84C2.36848e-14,-78 6,-72 12,-72"/>
<polyline fill="none" stroke="black" points="12,-72 282,-72 "/>
<path fill="none" stroke="black" d="M282,-72C288,-72 294,-78 294,-84"/>
<polyline fill="none" stroke="black" points="294,-84 294,-96 "/>
<path fill="none" stroke="black" d="M294,-96C294,-102 288,-108 282,-108"/>
<text text-anchor="start" x="8" y="-87.2333" font-family="Times Roman,serif" font-size="14.00">Variable separable differential equations</text>
</a>
</g>
<!-- VARIABLE_SEPARABLE_DIFFERENTIAL_EQUATIONS&#45;&gt;SOVING_DIFFERENTIAL_EQUATIONS_USING_INTEGRATING_FACTORS -->
<g id="edge2" class="edge"><title>VARIABLE_SEPARABLE_DIFFERENTIAL_EQUATIONS&#45;&gt;SOVING_DIFFERENTIAL_EQUATIONS_USING_INTEGRATING_FACTORS</title>
<path fill="none" stroke="black" d="M174.253,-71.8314C187.939,-62.7074 204.691,-51.539 219.383,-41.7449"/>
<polygon fill="black" stroke="black" points="221.377,-44.6221 227.756,-36.1628 217.494,-38.7977 221.377,-44.6221"/>
</g>
<!-- PRODUCT_RULE -->
<g id="node4" class="node"><title>PRODUCT_RULE</title>
<a xlink:href="PRODUCT_RULE.html" xlink:title="Product Rule" target="_top">
<polyline fill="none" stroke="black" points="404,-108 324,-108 "/>
<path fill="none" stroke="black" d="M324,-108C318,-108 312,-102 312,-96"/>
<polyline fill="none" stroke="black" points="312,-96 312,-84 "/>
<path fill="none" stroke="black" d="M312,-84C312,-78 318,-72 324,-72"/>
<polyline fill="none" stroke="black" points="324,-72 404,-72 "/>
<path fill="none" stroke="black" d="M404,-72C410,-72 416,-78 416,-84"/>
<polyline fill="none" stroke="black" points="416,-84 416,-96 "/>
<path fill="none" stroke="black" d="M416,-96C416,-102 410,-108 404,-108"/>
<text text-anchor="start" x="320" y="-87.2333" font-family="Times Roman,serif" font-size="14.00">Product Rule</text>
</a>
</g>
<!-- PRODUCT_RULE&#45;&gt;SOVING_DIFFERENTIAL_EQUATIONS_USING_INTEGRATING_FACTORS -->
<g id="edge4" class="edge"><title>PRODUCT_RULE&#45;&gt;SOVING_DIFFERENTIAL_EQUATIONS_USING_INTEGRATING_FACTORS</title>
<path fill="none" stroke="black" d="M336.495,-71.8314C322.682,-62.7074 305.774,-51.539 290.947,-41.7449"/>
<polygon fill="black" stroke="black" points="292.77,-38.7541 282.497,-36.1628 288.911,-44.5949 292.77,-38.7541"/>
</g>
</g>
</svg>
