<?xml version="1.0" encoding="UTF-8" standalone="no"?>
<!DOCTYPE svg PUBLIC "-//W3C//DTD SVG 1.1//EN"
 "http://www.w3.org/Graphics/SVG/1.1/DTD/svg11.dtd">
<!-- Generated by graphviz version 2.28.0 (20110509.1545)
 -->
<!-- Title: _anonymous_0 Pages: 1 -->
<svg width="358pt" height="116pt"
 viewBox="0.00 0.00 358.00 116.00" xmlns="http://www.w3.org/2000/svg" xmlns:xlink="http://www.w3.org/1999/xlink">
<g id="graph1" class="graph" transform="scale(1 1) rotate(0) translate(4 112)">
<title>_anonymous_0</title>
<!-- SOVING_DIFFERENTIAL_EQUATIONS_USING_INTEGRATING_FACTORS -->
<g id="node1" class="node"><title>SOVING_DIFFERENTIAL_EQUATIONS_USING_INTEGRATING_FACTORS</title>
<a xlink:href="SOVING_DIFFERENTIAL_EQUATIONS_USING_INTEGRATING_FACTORS.html" xlink:title="Differential equations and integrating factors" target="_top">
<polyline fill="none" stroke="blue" stroke-width="2" points="259,-36 15,-36 "/>
<path fill="none" stroke="blue" stroke-width="2" d="M15,-36C9,-36 3,-30 3,-24"/>
<polyline fill="none" stroke="blue" stroke-width="2" points="3,-24 3,-12 "/>
<path fill="none" stroke="blue" stroke-width="2" d="M3,-12C3,-6 9,-0 15,-0"/>
<polyline fill="none" stroke="blue" stroke-width="2" points="15,-0 259,-0 "/>
<path fill="none" stroke="blue" stroke-width="2" d="M259,-0C265,-0 271,-6 271,-12"/>
<polyline fill="none" stroke="blue" stroke-width="2" points="271,-12 271,-24 "/>
<path fill="none" stroke="blue" stroke-width="2" d="M271,-24C271,-30 265,-36 259,-36"/>
<text text-anchor="start" x="11.5" y="-12.5" font-family="Times,serif" font-size="14.00">Differential equations and integrating factors</text>
</a>
</g>
<!-- PRODUCT_RULE -->
<g id="node2" class="node"><title>PRODUCT_RULE</title>
<a xlink:href="PRODUCT_RULE.html" xlink:title="Product Rule" target="_top">
<polyline fill="none" stroke="black" points="78,-108 12,-108 "/>
<path fill="none" stroke="black" d="M12,-108C6,-108 0,-102 0,-96"/>
<polyline fill="none" stroke="black" points="0,-96 0,-84 "/>
<path fill="none" stroke="black" d="M0,-84C0,-78 6,-72 12,-72"/>
<polyline fill="none" stroke="black" points="12,-72 78,-72 "/>
<path fill="none" stroke="black" d="M78,-72C84,-72 90,-78 90,-84"/>
<polyline fill="none" stroke="black" points="90,-84 90,-96 "/>
<path fill="none" stroke="black" d="M90,-96C90,-102 84,-108 78,-108"/>
<text text-anchor="start" x="8.5" y="-84.5" font-family="Times,serif" font-size="14.00">Product Rule</text>
</a>
</g>
<!-- PRODUCT_RULE&#45;&gt;SOVING_DIFFERENTIAL_EQUATIONS_USING_INTEGRATING_FACTORS -->
<g id="edge2" class="edge"><title>PRODUCT_RULE&#45;&gt;SOVING_DIFFERENTIAL_EQUATIONS_USING_INTEGRATING_FACTORS</title>
<path fill="none" stroke="black" d="M67.7416,-71.6966C79.4396,-62.796 93.8609,-51.8232 106.51,-42.1989"/>
<polygon fill="black" stroke="black" points="108.681,-44.945 114.52,-36.1043 104.442,-39.3742 108.681,-44.945"/>
</g>
<!-- VARIABLE_SEPARABLE_DIFFERENTIAL_EQUATIONS -->
<g id="node4" class="node"><title>VARIABLE_SEPARABLE_DIFFERENTIAL_EQUATIONS</title>
<a xlink:href="VARIABLE_SEPARABLE_DIFFERENTIAL_EQUATIONS.html" xlink:title="Variable separable differential equations" target="_top">
<polyline fill="none" stroke="black" points="338,-108 120,-108 "/>
<path fill="none" stroke="black" d="M120,-108C114,-108 108,-102 108,-96"/>
<polyline fill="none" stroke="black" points="108,-96 108,-84 "/>
<path fill="none" stroke="black" d="M108,-84C108,-78 114,-72 120,-72"/>
<polyline fill="none" stroke="black" points="120,-72 338,-72 "/>
<path fill="none" stroke="black" d="M338,-72C344,-72 350,-78 350,-84"/>
<polyline fill="none" stroke="black" points="350,-84 350,-96 "/>
<path fill="none" stroke="black" d="M350,-96C350,-102 344,-108 338,-108"/>
<text text-anchor="start" x="116.5" y="-84.5" font-family="Times,serif" font-size="14.00">Variable separable differential equations</text>
</a>
</g>
<!-- VARIABLE_SEPARABLE_DIFFERENTIAL_EQUATIONS&#45;&gt;SOVING_DIFFERENTIAL_EQUATIONS_USING_INTEGRATING_FACTORS -->
<g id="edge4" class="edge"><title>VARIABLE_SEPARABLE_DIFFERENTIAL_EQUATIONS&#45;&gt;SOVING_DIFFERENTIAL_EQUATIONS_USING_INTEGRATING_FACTORS</title>
<path fill="none" stroke="black" d="M206.258,-71.6966C194.56,-62.796 180.139,-51.8232 167.49,-42.1989"/>
<polygon fill="black" stroke="black" points="169.558,-39.3742 159.48,-36.1043 165.319,-44.945 169.558,-39.3742"/>
</g>
</g>
</svg>
