<?xml version="1.0" encoding="UTF-8" standalone="no"?>
<!DOCTYPE svg PUBLIC "-//W3C//DTD SVG 1.1//EN"
 "http://www.w3.org/Graphics/SVG/1.1/DTD/svg11.dtd">
<!-- Generated by graphviz version 2.28.0 (20110509.1545)
 -->
<!-- Title: _anonymous_0 Pages: 1 -->
<svg width="296pt" height="116pt"
 viewBox="0.00 0.00 296.00 116.00" xmlns="http://www.w3.org/2000/svg" xmlns:xlink="http://www.w3.org/1999/xlink">
<g id="graph1" class="graph" transform="scale(1 1) rotate(0) translate(4 112)">
<title>_anonymous_0</title>
<!-- SOVING_DIFFERENTIAL_EQUATIONS_USING_INTEGRATING_FACTORS -->
<g id="node1" class="node"><title>SOVING_DIFFERENTIAL_EQUATIONS_USING_INTEGRATING_FACTORS</title>
<a xlink:href="SOVING_DIFFERENTIAL_EQUATIONS_USING_INTEGRATING_FACTORS.html" xlink:title="Differential equations and integrating factors" target="_top">
<polyline fill="none" stroke="blue" stroke-width="2" points="276,-36 32,-36 "/>
<path fill="none" stroke="blue" stroke-width="2" d="M32,-36C26,-36 20,-30 20,-24"/>
<polyline fill="none" stroke="blue" stroke-width="2" points="20,-24 20,-12 "/>
<path fill="none" stroke="blue" stroke-width="2" d="M20,-12C20,-6 26,-0 32,-0"/>
<polyline fill="none" stroke="blue" stroke-width="2" points="32,-0 276,-0 "/>
<path fill="none" stroke="blue" stroke-width="2" d="M276,-0C282,-0 288,-6 288,-12"/>
<polyline fill="none" stroke="blue" stroke-width="2" points="288,-12 288,-24 "/>
<path fill="none" stroke="blue" stroke-width="2" d="M288,-24C288,-30 282,-36 276,-36"/>
<text text-anchor="start" x="28.5" y="-12.5" font-family="Times,serif" font-size="14.00">Differential equations and integrating factors</text>
</a>
</g>
<!-- EXPONENTIAL_GROWTH_DECAY -->
<g id="node2" class="node"><title>EXPONENTIAL_GROWTH_DECAY</title>
<a xlink:href="EXPONENTIAL_GROWTH_DECAY.html" xlink:title="Exponential growth/decay" target="_top">
<polyline fill="none" stroke="black" points="152,-108 12,-108 "/>
<path fill="none" stroke="black" d="M12,-108C6,-108 0,-102 0,-96"/>
<polyline fill="none" stroke="black" points="0,-96 0,-84 "/>
<path fill="none" stroke="black" d="M0,-84C0,-78 6,-72 12,-72"/>
<polyline fill="none" stroke="black" points="12,-72 152,-72 "/>
<path fill="none" stroke="black" d="M152,-72C158,-72 164,-78 164,-84"/>
<polyline fill="none" stroke="black" points="164,-84 164,-96 "/>
<path fill="none" stroke="black" d="M164,-96C164,-102 158,-108 152,-108"/>
<text text-anchor="start" x="8.5" y="-84.5" font-family="Times,serif" font-size="14.00">Exponential growth/decay</text>
</a>
</g>
<!-- EXPONENTIAL_GROWTH_DECAY&#45;&gt;SOVING_DIFFERENTIAL_EQUATIONS_USING_INTEGRATING_FACTORS -->
<g id="edge2" class="edge"><title>EXPONENTIAL_GROWTH_DECAY&#45;&gt;SOVING_DIFFERENTIAL_EQUATIONS_USING_INTEGRATING_FACTORS</title>
<path fill="none" stroke="black" d="M99.7978,-71.6966C108.604,-63.135 119.382,-52.6562 129.001,-43.3045"/>
<polygon fill="black" stroke="black" points="131.677,-45.5846 136.407,-36.1043 126.797,-40.5657 131.677,-45.5846"/>
</g>
<!-- PRODUCT_RULE -->
<g id="node4" class="node"><title>PRODUCT_RULE</title>
<a xlink:href="PRODUCT_RULE.html" xlink:title="Product Rule" target="_top">
<polyline fill="none" stroke="black" points="260,-108 194,-108 "/>
<path fill="none" stroke="black" d="M194,-108C188,-108 182,-102 182,-96"/>
<polyline fill="none" stroke="black" points="182,-96 182,-84 "/>
<path fill="none" stroke="black" d="M182,-84C182,-78 188,-72 194,-72"/>
<polyline fill="none" stroke="black" points="194,-72 260,-72 "/>
<path fill="none" stroke="black" d="M260,-72C266,-72 272,-78 272,-84"/>
<polyline fill="none" stroke="black" points="272,-84 272,-96 "/>
<path fill="none" stroke="black" d="M272,-96C272,-102 266,-108 260,-108"/>
<text text-anchor="start" x="190.5" y="-84.5" font-family="Times,serif" font-size="14.00">Product Rule</text>
</a>
</g>
<!-- PRODUCT_RULE&#45;&gt;SOVING_DIFFERENTIAL_EQUATIONS_USING_INTEGRATING_FACTORS -->
<g id="edge4" class="edge"><title>PRODUCT_RULE&#45;&gt;SOVING_DIFFERENTIAL_EQUATIONS_USING_INTEGRATING_FACTORS</title>
<path fill="none" stroke="black" d="M208.955,-71.6966C199.938,-63.0503 188.882,-52.4486 179.057,-43.027"/>
<polygon fill="black" stroke="black" points="181.478,-40.4993 171.837,-36.1043 176.633,-45.5518 181.478,-40.4993"/>
</g>
</g>
</svg>
