<?xml version="1.0" encoding="UTF-8" standalone="no"?>
<!DOCTYPE svg PUBLIC "-//W3C//DTD SVG 1.1//EN"
 "http://www.w3.org/Graphics/SVG/1.1/DTD/svg11.dtd">
<!-- Generated by graphviz version 2.26.3 (20100126.1600)
 -->
<!-- Title: _anonymous_0 Pages: 1 -->
<svg width="528pt" height="260pt"
 viewBox="0.00 0.00 528.00 260.00" xmlns="http://www.w3.org/2000/svg" xmlns:xlink="http://www.w3.org/1999/xlink">
<g id="graph1" class="graph" transform="scale(1 1) rotate(0) translate(4 256)">
<title>_anonymous_0</title>
<!-- STATIONARY_DIST_MARKOV -->
<g id="node1" class="node"><title>STATIONARY_DIST_MARKOV</title>
<a xlink:href="STATIONARY_DIST_MARKOV.html" xlink:title="Ergodic Markov chains" target="_top">
<polyline fill="none" stroke="blue" stroke-width="2" points="283,-108 137,-108 "/>
<path fill="none" stroke="blue" stroke-width="2" d="M137,-108C131,-108 125,-102 125,-96"/>
<polyline fill="none" stroke="blue" stroke-width="2" points="125,-96 125,-84 "/>
<path fill="none" stroke="blue" stroke-width="2" d="M125,-84C125,-78 131,-72 137,-72"/>
<polyline fill="none" stroke="blue" stroke-width="2" points="137,-72 283,-72 "/>
<path fill="none" stroke="blue" stroke-width="2" d="M283,-72C289,-72 295,-78 295,-84"/>
<polyline fill="none" stroke="blue" stroke-width="2" points="295,-84 295,-96 "/>
<path fill="none" stroke="blue" stroke-width="2" d="M295,-96C295,-102 289,-108 283,-108"/>
<text text-anchor="start" x="133" y="-87.2333" font-family="Times Roman,serif" font-size="14.00">Ergodic Markov chains</text>
</a>
</g>
<!-- DETAILED_BALANCE -->
<g id="node9" class="node"><title>DETAILED_BALANCE</title>
<a xlink:href="DETAILED_BALANCE.html" xlink:title="Detailed balance" target="_top">
<polyline fill="none" stroke="black" points="264,-36 156,-36 "/>
<path fill="none" stroke="black" d="M156,-36C150,-36 144,-30 144,-24"/>
<polyline fill="none" stroke="black" points="144,-24 144,-12 "/>
<path fill="none" stroke="black" d="M144,-12C144,-6 150,-1.71176e-14 156,-1.64717e-14"/>
<polyline fill="none" stroke="black" points="156,-1.64717e-14 264,-4.84461e-15 "/>
<path fill="none" stroke="black" d="M264,-4.84461e-15C270,-4.19866e-15 276,-6 276,-12"/>
<polyline fill="none" stroke="black" points="276,-12 276,-24 "/>
<path fill="none" stroke="black" d="M276,-24C276,-30 270,-36 264,-36"/>
<text text-anchor="start" x="152.5" y="-15.2333" font-family="Times Roman,serif" font-size="14.00">Detailed balance</text>
</a>
</g>
<!-- STATIONARY_DIST_MARKOV&#45;&gt;DETAILED_BALANCE -->
<g id="edge10" class="edge"><title>STATIONARY_DIST_MARKOV&#45;&gt;DETAILED_BALANCE</title>
<path fill="none" stroke="black" d="M210,-71.8314C210,-64.131 210,-54.9743 210,-46.4166"/>
<polygon fill="black" stroke="black" points="213.5,-46.4132 210,-36.4133 206.5,-46.4133 213.5,-46.4132"/>
</g>
<!-- EIGENVECTORS -->
<g id="node2" class="node"><title>EIGENVECTORS</title>
<a xlink:href="EIGENVECTORS.html" xlink:title="Eigendecomposition" target="_top">
<polyline fill="none" stroke="black" points="142,-252 12,-252 "/>
<path fill="none" stroke="black" d="M12,-252C6,-252 7.10543e-14,-246 5.68434e-14,-240"/>
<polyline fill="none" stroke="black" points="5.68434e-14,-240 2.84217e-14,-228 "/>
<path fill="none" stroke="black" d="M2.84217e-14,-228C1.42109e-14,-222 6,-216 12,-216"/>
<polyline fill="none" stroke="black" points="12,-216 142,-216 "/>
<path fill="none" stroke="black" d="M142,-216C148,-216 154,-222 154,-228"/>
<polyline fill="none" stroke="black" points="154,-228 154,-240 "/>
<path fill="none" stroke="black" d="M154,-240C154,-246 148,-252 142,-252"/>
<text text-anchor="start" x="8.5" y="-231.233" font-family="Times Roman,serif" font-size="14.00">Eigendecomposition</text>
</a>
</g>
<!-- EIGENVECTORS&#45;&gt;STATIONARY_DIST_MARKOV -->
<g id="edge2" class="edge"><title>EIGENVECTORS&#45;&gt;STATIONARY_DIST_MARKOV</title>
<path fill="none" stroke="black" d="M76.3067,-215.808C76.5,-196.092 79.6737,-164.682 96,-144 106.662,-130.493 121.52,-120.19 136.992,-112.397"/>
<polygon fill="black" stroke="black" points="138.586,-115.515 146.147,-108.093 135.608,-109.18 138.586,-115.515"/>
</g>
<!-- TRANSITION_MATRIX_OF_MARKOV_CHAIN -->
<g id="node6" class="node"><title>TRANSITION_MATRIX_OF_MARKOV_CHAIN</title>
<a xlink:href="TRANSITION_MATRIX_OF_MARKOV_CHAIN.html" xlink:title="Markovian transition matrix" target="_top">
<polyline fill="none" stroke="black" points="303,-180 117,-180 "/>
<path fill="none" stroke="black" d="M117,-180C111,-180 105,-174 105,-168"/>
<polyline fill="none" stroke="black" points="105,-168 105,-156 "/>
<path fill="none" stroke="black" d="M105,-156C105,-150 111,-144 117,-144"/>
<polyline fill="none" stroke="black" points="117,-144 303,-144 "/>
<path fill="none" stroke="black" d="M303,-144C309,-144 315,-150 315,-156"/>
<polyline fill="none" stroke="black" points="315,-156 315,-168 "/>
<path fill="none" stroke="black" d="M315,-168C315,-174 309,-180 303,-180"/>
<text text-anchor="start" x="113.5" y="-159.233" font-family="Times Roman,serif" font-size="14.00">Markovian transition matrix</text>
</a>
</g>
<!-- EIGENVECTORS&#45;&gt;TRANSITION_MATRIX_OF_MARKOV_CHAIN -->
<!-- TRANSIENT_RECURRENT_STATES -->
<g id="node4" class="node"><title>TRANSIENT_RECURRENT_STATES</title>
<a xlink:href="TRANSIENT_RECURRENT_STATES.html" xlink:title="Transient and recurrent states in Markov chains" target="_top">
<polyline fill="none" stroke="black" points="508,-252 184,-252 "/>
<path fill="none" stroke="black" d="M184,-252C178,-252 172,-246 172,-240"/>
<polyline fill="none" stroke="black" points="172,-240 172,-228 "/>
<path fill="none" stroke="black" d="M172,-228C172,-222 178,-216 184,-216"/>
<polyline fill="none" stroke="black" points="184,-216 508,-216 "/>
<path fill="none" stroke="black" d="M508,-216C514,-216 520,-222 520,-228"/>
<polyline fill="none" stroke="black" points="520,-228 520,-240 "/>
<path fill="none" stroke="black" d="M520,-240C520,-246 514,-252 508,-252"/>
<text text-anchor="start" x="180.5" y="-231.233" font-family="Times Roman,serif" font-size="14.00">Transient and recurrent states in Markov chains</text>
</a>
</g>
<!-- TRANSIENT_RECURRENT_STATES&#45;&gt;STATIONARY_DIST_MARKOV -->
<g id="edge4" class="edge"><title>TRANSIENT_RECURRENT_STATES&#45;&gt;STATIONARY_DIST_MARKOV</title>
<path fill="none" stroke="black" d="M345.995,-215.765C345.063,-196.011 340.772,-164.569 324,-144 313.009,-130.522 297.867,-120.209 282.207,-112.395"/>
<polygon fill="black" stroke="black" points="283.496,-109.134 272.954,-108.078 280.536,-115.478 283.496,-109.134"/>
</g>
<!-- TRANSITION_MATRIX_OF_MARKOV_CHAIN&#45;&gt;STATIONARY_DIST_MARKOV -->
<g id="edge6" class="edge"><title>TRANSITION_MATRIX_OF_MARKOV_CHAIN&#45;&gt;STATIONARY_DIST_MARKOV</title>
<path fill="none" stroke="black" d="M210,-143.831C210,-136.131 210,-126.974 210,-118.417"/>
<polygon fill="black" stroke="black" points="213.5,-118.413 210,-108.413 206.5,-118.413 213.5,-118.413"/>
</g>
</g>
</svg>
