<?xml version="1.0" encoding="UTF-8" standalone="no"?>
<!DOCTYPE svg PUBLIC "-//W3C//DTD SVG 1.1//EN"
 "http://www.w3.org/Graphics/SVG/1.1/DTD/svg11.dtd">
<!-- Generated by graphviz version 2.28.0 (20110509.1545)
 -->
<!-- Title: _anonymous_0 Pages: 1 -->
<svg width="443pt" height="260pt"
 viewBox="0.00 0.00 443.00 260.00" xmlns="http://www.w3.org/2000/svg" xmlns:xlink="http://www.w3.org/1999/xlink">
<g id="graph1" class="graph" transform="scale(1 1) rotate(0) translate(4 256)">
<title>_anonymous_0</title>
<!-- STATIONARY_DIST_MARKOV -->
<g id="node1" class="node"><title>STATIONARY_DIST_MARKOV</title>
<a xlink:href="STATIONARY_DIST_MARKOV.html" xlink:title="Ergodic Markov chains" target="_top">
<polyline fill="none" stroke="blue" stroke-width="2" points="241,-108 117,-108 "/>
<path fill="none" stroke="blue" stroke-width="2" d="M117,-108C111,-108 105,-102 105,-96"/>
<polyline fill="none" stroke="blue" stroke-width="2" points="105,-96 105,-84 "/>
<path fill="none" stroke="blue" stroke-width="2" d="M105,-84C105,-78 111,-72 117,-72"/>
<polyline fill="none" stroke="blue" stroke-width="2" points="117,-72 241,-72 "/>
<path fill="none" stroke="blue" stroke-width="2" d="M241,-72C247,-72 253,-78 253,-84"/>
<polyline fill="none" stroke="blue" stroke-width="2" points="253,-84 253,-96 "/>
<path fill="none" stroke="blue" stroke-width="2" d="M253,-96C253,-102 247,-108 241,-108"/>
<text text-anchor="start" x="113.5" y="-84.5" font-family="Times,serif" font-size="14.00">Ergodic Markov chains</text>
</a>
</g>
<!-- DETAILED_BALANCE -->
<g id="node2" class="node"><title>DETAILED_BALANCE</title>
<a xlink:href="DETAILED_BALANCE.html" xlink:title="Detailed balance" target="_top">
<polyline fill="none" stroke="black" points="222,-36 136,-36 "/>
<path fill="none" stroke="black" d="M136,-36C130,-36 124,-30 124,-24"/>
<polyline fill="none" stroke="black" points="124,-24 124,-12 "/>
<path fill="none" stroke="black" d="M124,-12C124,-6 130,-0 136,-0"/>
<polyline fill="none" stroke="black" points="136,-0 222,-0 "/>
<path fill="none" stroke="black" d="M222,-0C228,-0 234,-6 234,-12"/>
<polyline fill="none" stroke="black" points="234,-12 234,-24 "/>
<path fill="none" stroke="black" d="M234,-24C234,-30 228,-36 222,-36"/>
<text text-anchor="start" x="132.5" y="-12.5" font-family="Times,serif" font-size="14.00">Detailed balance</text>
</a>
</g>
<!-- STATIONARY_DIST_MARKOV&#45;&gt;DETAILED_BALANCE -->
<g id="edge2" class="edge"><title>STATIONARY_DIST_MARKOV&#45;&gt;DETAILED_BALANCE</title>
<path fill="none" stroke="black" d="M179,-71.6966C179,-63.9827 179,-54.7125 179,-46.1124"/>
<polygon fill="black" stroke="black" points="182.5,-46.1043 179,-36.1043 175.5,-46.1044 182.5,-46.1043"/>
</g>
<!-- EIGENVECTORS -->
<g id="node4" class="node"><title>EIGENVECTORS</title>
<a xlink:href="EIGENVECTORS.html" xlink:title="Eigendecomposition" target="_top">
<polyline fill="none" stroke="black" points="120,-252 12,-252 "/>
<path fill="none" stroke="black" d="M12,-252C6,-252 0,-246 0,-240"/>
<polyline fill="none" stroke="black" points="0,-240 0,-228 "/>
<path fill="none" stroke="black" d="M0,-228C0,-222 6,-216 12,-216"/>
<polyline fill="none" stroke="black" points="12,-216 120,-216 "/>
<path fill="none" stroke="black" d="M120,-216C126,-216 132,-222 132,-228"/>
<polyline fill="none" stroke="black" points="132,-228 132,-240 "/>
<path fill="none" stroke="black" d="M132,-240C132,-246 126,-252 120,-252"/>
<text text-anchor="start" x="8.5" y="-228.5" font-family="Times,serif" font-size="14.00">Eigendecomposition</text>
</a>
</g>
<!-- EIGENVECTORS&#45;&gt;STATIONARY_DIST_MARKOV -->
<g id="edge4" class="edge"><title>EIGENVECTORS&#45;&gt;STATIONARY_DIST_MARKOV</title>
<path fill="none" stroke="black" d="M65.1425,-215.919C65.0405,-196.66 67.5751,-165.265 83,-144 92.4448,-130.979 106.113,-120.78 120.187,-112.958"/>
<polygon fill="black" stroke="black" points="122.186,-115.864 129.454,-108.156 118.965,-109.649 122.186,-115.864"/>
</g>
<!-- TRANSITION_MATRIX_OF_MARKOV_CHAIN -->
<g id="node8" class="node"><title>TRANSITION_MATRIX_OF_MARKOV_CHAIN</title>
<a xlink:href="TRANSITION_MATRIX_OF_MARKOV_CHAIN.html" xlink:title="Markovian transition matrix" target="_top">
<polyline fill="none" stroke="black" points="254,-180 104,-180 "/>
<path fill="none" stroke="black" d="M104,-180C98,-180 92,-174 92,-168"/>
<polyline fill="none" stroke="black" points="92,-168 92,-156 "/>
<path fill="none" stroke="black" d="M92,-156C92,-150 98,-144 104,-144"/>
<polyline fill="none" stroke="black" points="104,-144 254,-144 "/>
<path fill="none" stroke="black" d="M254,-144C260,-144 266,-150 266,-156"/>
<polyline fill="none" stroke="black" points="266,-156 266,-168 "/>
<path fill="none" stroke="black" d="M266,-168C266,-174 260,-180 254,-180"/>
<text text-anchor="start" x="100.5" y="-156.5" font-family="Times,serif" font-size="14.00">Markovian transition matrix</text>
</a>
</g>
<!-- EIGENVECTORS&#45;&gt;TRANSITION_MATRIX_OF_MARKOV_CHAIN -->
<!-- TRANSIENT_RECURRENT_STATES -->
<g id="node6" class="node"><title>TRANSIENT_RECURRENT_STATES</title>
<a xlink:href="TRANSIENT_RECURRENT_STATES.html" xlink:title="Transient and recurrent states in Markov chains" target="_top">
<polyline fill="none" stroke="black" points="423.25,-252 164.75,-252 "/>
<path fill="none" stroke="black" d="M164.75,-252C158.75,-252 152.75,-246 152.75,-240"/>
<polyline fill="none" stroke="black" points="152.75,-240 152.75,-228 "/>
<path fill="none" stroke="black" d="M152.75,-228C152.75,-222 158.75,-216 164.75,-216"/>
<polyline fill="none" stroke="black" points="164.75,-216 423.25,-216 "/>
<path fill="none" stroke="black" d="M423.25,-216C429.25,-216 435.25,-222 435.25,-228"/>
<polyline fill="none" stroke="black" points="435.25,-228 435.25,-240 "/>
<path fill="none" stroke="black" d="M435.25,-240C435.25,-246 429.25,-252 423.25,-252"/>
<text text-anchor="start" x="161" y="-228.5" font-family="Times,serif" font-size="14.00">Transient and recurrent states in Markov chains</text>
</a>
</g>
<!-- TRANSIENT_RECURRENT_STATES&#45;&gt;STATIONARY_DIST_MARKOV -->
<g id="edge6" class="edge"><title>TRANSIENT_RECURRENT_STATES&#45;&gt;STATIONARY_DIST_MARKOV</title>
<path fill="none" stroke="black" d="M294.408,-215.892C294.017,-196.608 290.722,-165.19 275,-144 265.23,-130.832 251.168,-120.526 236.808,-112.646"/>
<polygon fill="black" stroke="black" points="238.358,-109.507 227.864,-108.049 235.158,-115.733 238.358,-109.507"/>
</g>
<!-- TRANSITION_MATRIX_OF_MARKOV_CHAIN&#45;&gt;STATIONARY_DIST_MARKOV -->
<g id="edge8" class="edge"><title>TRANSITION_MATRIX_OF_MARKOV_CHAIN&#45;&gt;STATIONARY_DIST_MARKOV</title>
<path fill="none" stroke="black" d="M179,-143.697C179,-135.983 179,-126.712 179,-118.112"/>
<polygon fill="black" stroke="black" points="182.5,-118.104 179,-108.104 175.5,-118.104 182.5,-118.104"/>
</g>
</g>
</svg>
