<?xml version="1.0" encoding="UTF-8" standalone="no"?>
<!DOCTYPE svg PUBLIC "-//W3C//DTD SVG 1.1//EN"
 "http://www.w3.org/Graphics/SVG/1.1/DTD/svg11.dtd">
<!-- Generated by graphviz version 2.26.3 (20100126.1600)
 -->
<!-- Title: _anonymous_0 Pages: 1 -->
<svg width="508pt" height="260pt"
 viewBox="0.00 0.00 508.00 260.00" xmlns="http://www.w3.org/2000/svg" xmlns:xlink="http://www.w3.org/1999/xlink">
<g id="graph1" class="graph" transform="scale(1 1) rotate(0) translate(4 256)">
<title>_anonymous_0</title>
<!-- STATIONARY_DIST_MARKOV -->
<g id="node1" class="node"><title>STATIONARY_DIST_MARKOV</title>
<a xlink:href="STATIONARY_DIST_MARKOV.html" xlink:title=" Ergodic Markov chains " target="_top">
<polyline fill="none" stroke="blue" stroke-width="2" points="291,-108 135,-108 "/>
<path fill="none" stroke="blue" stroke-width="2" d="M135,-108C129,-108 123,-102 123,-96"/>
<polyline fill="none" stroke="blue" stroke-width="2" points="123,-96 123,-84 "/>
<path fill="none" stroke="blue" stroke-width="2" d="M123,-84C123,-78 129,-72 135,-72"/>
<polyline fill="none" stroke="blue" stroke-width="2" points="135,-72 291,-72 "/>
<path fill="none" stroke="blue" stroke-width="2" d="M291,-72C297,-72 303,-78 303,-84"/>
<polyline fill="none" stroke="blue" stroke-width="2" points="303,-84 303,-96 "/>
<path fill="none" stroke="blue" stroke-width="2" d="M303,-96C303,-102 297,-108 291,-108"/>
<text text-anchor="start" x="131.5" y="-87.2333" font-family="Times Roman,serif" font-size="14.00"> Ergodic Markov chains </text>
</a>
</g>
<!-- MONTE_CARLO -->
<g id="node9" class="node"><title>MONTE_CARLO</title>
<a xlink:href="MONTE_CARLO.html" xlink:title=" Monte Carlo Simulation " target="_top">
<polyline fill="none" stroke="black" points="204,-36 40,-36 "/>
<path fill="none" stroke="black" d="M40,-36C34,-36 28,-30 28,-24"/>
<polyline fill="none" stroke="black" points="28,-24 28,-12 "/>
<path fill="none" stroke="black" d="M28,-12C28,-6 34,-1.731e-14 40,-1.68565e-14"/>
<polyline fill="none" stroke="black" points="40,-1.68565e-14 204,-4.45979e-15 "/>
<path fill="none" stroke="black" d="M204,-4.45979e-15C210,-4.00625e-15 216,-6 216,-12"/>
<polyline fill="none" stroke="black" points="216,-12 216,-24 "/>
<path fill="none" stroke="black" d="M216,-24C216,-30 210,-36 204,-36"/>
<text text-anchor="start" x="36" y="-15.2333" font-family="Times Roman,serif" font-size="14.00"> Monte Carlo Simulation </text>
</a>
</g>
<!-- STATIONARY_DIST_MARKOV&#45;&gt;MONTE_CARLO -->
<g id="edge10" class="edge"><title>STATIONARY_DIST_MARKOV&#45;&gt;MONTE_CARLO</title>
<path fill="none" stroke="black" d="M190.037,-71.8314C178.828,-62.9632 165.179,-52.1637 153.056,-42.5718"/>
<polygon fill="black" stroke="black" points="154.97,-39.6229 144.956,-36.1628 150.626,-45.1125 154.97,-39.6229"/>
</g>
<!-- DETAILED_BALANCE -->
<g id="node11" class="node"><title>DETAILED_BALANCE</title>
<a xlink:href="DETAILED_BALANCE.html" xlink:title=" Detailed balance " target="_top">
<polyline fill="none" stroke="black" points="362,-36 246,-36 "/>
<path fill="none" stroke="black" d="M246,-36C240,-36 234,-30 234,-24"/>
<polyline fill="none" stroke="black" points="234,-24 234,-12 "/>
<path fill="none" stroke="black" d="M234,-12C234,-6 240,-1.71545e-14 246,-1.65455e-14"/>
<polyline fill="none" stroke="black" points="246,-1.65455e-14 362,-4.77079e-15 "/>
<path fill="none" stroke="black" d="M362,-4.77079e-15C368,-4.16175e-15 374,-6 374,-12"/>
<polyline fill="none" stroke="black" points="374,-12 374,-24 "/>
<path fill="none" stroke="black" d="M374,-24C374,-30 368,-36 362,-36"/>
<text text-anchor="start" x="242" y="-15.2333" font-family="Times Roman,serif" font-size="14.00"> Detailed balance </text>
</a>
</g>
<!-- STATIONARY_DIST_MARKOV&#45;&gt;DETAILED_BALANCE -->
<g id="edge12" class="edge"><title>STATIONARY_DIST_MARKOV&#45;&gt;DETAILED_BALANCE</title>
<path fill="none" stroke="black" d="M235.963,-71.8314C247.172,-62.9632 260.821,-52.1637 272.944,-42.5718"/>
<polygon fill="black" stroke="black" points="275.374,-45.1125 281.044,-36.1628 271.03,-39.6229 275.374,-45.1125"/>
</g>
<!-- TRANSITION_MATRIX_OF_MARKOV_CHAIN -->
<g id="node2" class="node"><title>TRANSITION_MATRIX_OF_MARKOV_CHAIN</title>
<a xlink:href="TRANSITION_MATRIX_OF_MARKOV_CHAIN.html" xlink:title=" Markovian transition matrix " target="_top">
<polyline fill="none" stroke="black" points="206,-252 12,-252 "/>
<path fill="none" stroke="black" d="M12,-252C6,-252 9.4739e-14,-246 7.57912e-14,-240"/>
<polyline fill="none" stroke="black" points="7.57912e-14,-240 3.78956e-14,-228 "/>
<path fill="none" stroke="black" d="M3.78956e-14,-228C1.89478e-14,-222 6,-216 12,-216"/>
<polyline fill="none" stroke="black" points="12,-216 206,-216 "/>
<path fill="none" stroke="black" d="M206,-216C212,-216 218,-222 218,-228"/>
<polyline fill="none" stroke="black" points="218,-228 218,-240 "/>
<path fill="none" stroke="black" d="M218,-240C218,-246 212,-252 206,-252"/>
<text text-anchor="start" x="8" y="-231.233" font-family="Times Roman,serif" font-size="14.00"> Markovian transition matrix </text>
</a>
</g>
<!-- TRANSITION_MATRIX_OF_MARKOV_CHAIN&#45;&gt;STATIONARY_DIST_MARKOV -->
<g id="edge2" class="edge"><title>TRANSITION_MATRIX_OF_MARKOV_CHAIN&#45;&gt;STATIONARY_DIST_MARKOV</title>
<path fill="none" stroke="black" d="M64.5431,-215.869C49.5274,-207.346 34.4424,-195.565 26,-180 18.3714,-165.936 16.3829,-156.787 26,-144 37.3985,-128.844 74.7475,-116.598 113.101,-107.623"/>
<polygon fill="black" stroke="black" points="113.879,-111.036 122.858,-105.412 112.332,-104.209 113.879,-111.036"/>
</g>
<!-- TRANSIENT_RECURRENT_STATES -->
<g id="node6" class="node"><title>TRANSIENT_RECURRENT_STATES</title>
<a xlink:href="TRANSIENT_RECURRENT_STATES.html" xlink:title=" Transient and recurrent states in Markov chains " target="_top">
<polyline fill="none" stroke="black" points="379,-180 47,-180 "/>
<path fill="none" stroke="black" d="M47,-180C41,-180 35,-174 35,-168"/>
<polyline fill="none" stroke="black" points="35,-168 35,-156 "/>
<path fill="none" stroke="black" d="M35,-156C35,-150 41,-144 47,-144"/>
<polyline fill="none" stroke="black" points="47,-144 379,-144 "/>
<path fill="none" stroke="black" d="M379,-144C385,-144 391,-150 391,-156"/>
<polyline fill="none" stroke="black" points="391,-156 391,-168 "/>
<path fill="none" stroke="black" d="M391,-168C391,-174 385,-180 379,-180"/>
<text text-anchor="start" x="43" y="-159.233" font-family="Times Roman,serif" font-size="14.00"> Transient and recurrent states in Markov chains </text>
</a>
</g>
<!-- TRANSITION_MATRIX_OF_MARKOV_CHAIN&#45;&gt;TRANSIENT_RECURRENT_STATES -->
<!-- EIGENVECTORS -->
<g id="node4" class="node"><title>EIGENVECTORS</title>
<a xlink:href="EIGENVECTORS.html" xlink:title=" Eigendecomposition " target="_top">
<polyline fill="none" stroke="black" points="488,-252 350,-252 "/>
<path fill="none" stroke="black" d="M350,-252C344,-252 338,-246 338,-240"/>
<polyline fill="none" stroke="black" points="338,-240 338,-228 "/>
<path fill="none" stroke="black" d="M338,-228C338,-222 344,-216 350,-216"/>
<polyline fill="none" stroke="black" points="350,-216 488,-216 "/>
<path fill="none" stroke="black" d="M488,-216C494,-216 500,-222 500,-228"/>
<polyline fill="none" stroke="black" points="500,-228 500,-240 "/>
<path fill="none" stroke="black" d="M500,-240C500,-246 494,-252 488,-252"/>
<text text-anchor="start" x="346" y="-231.233" font-family="Times Roman,serif" font-size="14.00"> Eigendecomposition </text>
</a>
</g>
<!-- EIGENVECTORS&#45;&gt;STATIONARY_DIST_MARKOV -->
<g id="edge4" class="edge"><title>EIGENVECTORS&#45;&gt;STATIONARY_DIST_MARKOV</title>
<path fill="none" stroke="black" d="M420.298,-215.65C420.679,-195.495 418.048,-163.417 400,-144 387.276,-130.311 350.635,-118.37 313.12,-109.222"/>
<polygon fill="black" stroke="black" points="313.596,-105.738 303.059,-106.837 311.982,-112.549 313.596,-105.738"/>
</g>
<!-- TRANSIENT_RECURRENT_STATES&#45;&gt;STATIONARY_DIST_MARKOV -->
<g id="edge6" class="edge"><title>TRANSIENT_RECURRENT_STATES&#45;&gt;STATIONARY_DIST_MARKOV</title>
<path fill="none" stroke="black" d="M213,-143.831C213,-136.131 213,-126.974 213,-118.417"/>
<polygon fill="black" stroke="black" points="216.5,-118.413 213,-108.413 209.5,-118.413 216.5,-118.413"/>
</g>
</g>
</svg>
