<?xml version="1.0" encoding="UTF-8" standalone="no"?>
<!DOCTYPE svg PUBLIC "-//W3C//DTD SVG 1.1//EN"
 "http://www.w3.org/Graphics/SVG/1.1/DTD/svg11.dtd">
<!-- Generated by graphviz version 2.36.0 (20140111.2315)
 -->
<!-- Title: %3 Pages: 1 -->
<svg width="450pt" height="260pt"
 viewBox="0.00 0.00 450.00 260.00" xmlns="http://www.w3.org/2000/svg" xmlns:xlink="http://www.w3.org/1999/xlink">
<g id="graph0" class="graph" transform="scale(1 1) rotate(0) translate(4 256)">
<title>%3</title>
<!-- STATIONARY_DIST_MARKOV -->
<g id="node1" class="node"><title>STATIONARY_DIST_MARKOV</title>
<g id="a_node1"><a xlink:href="STATIONARY_DIST_MARKOV.html" xlink:title=" Ergodic Markov chains " target="_top">
<path fill="none" stroke="blue" stroke-width="2" d="M320,-108C320,-108 192,-108 192,-108 186,-108 180,-102 180,-96 180,-96 180,-84 180,-84 180,-78 186,-72 192,-72 192,-72 320,-72 320,-72 326,-72 332,-78 332,-84 332,-84 332,-96 332,-96 332,-102 326,-108 320,-108"/>
<text text-anchor="start" x="188" y="-86.3" font-family="Times,serif" font-size="14.00"> Ergodic Markov chains </text>
</a>
</g>
</g>
<!-- DETAILED_BALANCE -->
<g id="node2" class="node"><title>DETAILED_BALANCE</title>
<g id="a_node2"><a xlink:href="DETAILED_BALANCE.html" xlink:title=" Detailed balance " target="_top">
<path fill="none" stroke="black" d="M224.25,-36C224.25,-36 133.75,-36 133.75,-36 127.75,-36 121.75,-30 121.75,-24 121.75,-24 121.75,-12 121.75,-12 121.75,-6 127.75,-0 133.75,-0 133.75,-0 224.25,-0 224.25,-0 230.25,-0 236.25,-6 236.25,-12 236.25,-12 236.25,-24 236.25,-24 236.25,-30 230.25,-36 224.25,-36"/>
<text text-anchor="start" x="129.5" y="-14.3" font-family="Times,serif" font-size="14.00"> Detailed balance </text>
</a>
</g>
</g>
<!-- STATIONARY_DIST_MARKOV&#45;&gt;DETAILED_BALANCE -->
<g id="edge1" class="edge"><title>STATIONARY_DIST_MARKOV&#45;&gt;DETAILED_BALANCE</title>
<path fill="none" stroke="black" d="M236.966,-71.6966C227.455,-63.0503 215.793,-52.4486 205.43,-43.027"/>
<polygon fill="black" stroke="black" points="207.569,-40.2413 197.815,-36.1043 202.86,-45.4209 207.569,-40.2413"/>
</g>
<!-- MONTE_CARLO -->
<g id="node6" class="node"><title>MONTE_CARLO</title>
<g id="a_node6"><a xlink:href="MONTE_CARLO.html" xlink:title=" Monte Carlo Simulation " target="_top">
<path fill="none" stroke="black" d="M399.5,-36C399.5,-36 266.5,-36 266.5,-36 260.5,-36 254.5,-30 254.5,-24 254.5,-24 254.5,-12 254.5,-12 254.5,-6 260.5,-0 266.5,-0 266.5,-0 399.5,-0 399.5,-0 405.5,-0 411.5,-6 411.5,-12 411.5,-12 411.5,-24 411.5,-24 411.5,-30 405.5,-36 399.5,-36"/>
<text text-anchor="start" x="262" y="-14.3" font-family="Times,serif" font-size="14.00"> Monte Carlo Simulation </text>
</a>
</g>
</g>
<!-- STATIONARY_DIST_MARKOV&#45;&gt;MONTE_CARLO -->
<g id="edge6" class="edge"><title>STATIONARY_DIST_MARKOV&#45;&gt;MONTE_CARLO</title>
<path fill="none" stroke="black" d="M275.034,-71.6966C284.545,-63.0503 296.207,-52.4486 306.57,-43.027"/>
<polygon fill="black" stroke="black" points="309.14,-45.4209 314.185,-36.1043 304.431,-40.2413 309.14,-45.4209"/>
</g>
<!-- TRANSIENT_RECURRENT_STATES -->
<g id="node3" class="node"><title>TRANSIENT_RECURRENT_STATES</title>
<g id="a_node3"><a xlink:href="TRANSIENT_RECURRENT_STATES.html" xlink:title=" Transient and recurrent states in Markov chains " target="_top">
<path fill="none" stroke="black" d="M272,-252C272,-252 12,-252 12,-252 6,-252 0,-246 0,-240 0,-240 0,-228 0,-228 0,-222 6,-216 12,-216 12,-216 272,-216 272,-216 278,-216 284,-222 284,-228 284,-228 284,-240 284,-240 284,-246 278,-252 272,-252"/>
<text text-anchor="start" x="8" y="-230.3" font-family="Times,serif" font-size="14.00"> Transient and recurrent states in Markov chains </text>
</a>
</g>
</g>
<!-- TRANSIENT_RECURRENT_STATES&#45;&gt;STATIONARY_DIST_MARKOV -->
<g id="edge2" class="edge"><title>TRANSIENT_RECURRENT_STATES&#45;&gt;STATIONARY_DIST_MARKOV</title>
<path fill="none" stroke="black" d="M140.641,-215.914C139.999,-196.649 141.729,-165.25 157,-144 166.563,-130.693 180.519,-120.41 194.952,-112.601"/>
<polygon fill="black" stroke="black" points="196.614,-115.683 203.966,-108.053 193.461,-109.433 196.614,-115.683"/>
</g>
<!-- TRANSITION_MATRIX_OF_MARKOV_CHAIN -->
<g id="node5" class="node"><title>TRANSITION_MATRIX_OF_MARKOV_CHAIN</title>
<g id="a_node5"><a xlink:href="TRANSITION_MATRIX_OF_MARKOV_CHAIN.html" xlink:title=" Markovian transition matrix " target="_top">
<path fill="none" stroke="black" d="M333.25,-180C333.25,-180 178.75,-180 178.75,-180 172.75,-180 166.75,-174 166.75,-168 166.75,-168 166.75,-156 166.75,-156 166.75,-150 172.75,-144 178.75,-144 178.75,-144 333.25,-144 333.25,-144 339.25,-144 345.25,-150 345.25,-156 345.25,-156 345.25,-168 345.25,-168 345.25,-174 339.25,-180 333.25,-180"/>
<text text-anchor="start" x="174.5" y="-158.3" font-family="Times,serif" font-size="14.00"> Markovian transition matrix </text>
</a>
</g>
</g>
<!-- TRANSIENT_RECURRENT_STATES&#45;&gt;TRANSITION_MATRIX_OF_MARKOV_CHAIN -->
<!-- EIGENVECTORS -->
<g id="node4" class="node"><title>EIGENVECTORS</title>
<g id="a_node4"><a xlink:href="EIGENVECTORS.html" xlink:title=" Eigendecomposition " target="_top">
<path fill="none" stroke="black" d="M430,-252C430,-252 318,-252 318,-252 312,-252 306,-246 306,-240 306,-240 306,-228 306,-228 306,-222 312,-216 318,-216 318,-216 430,-216 430,-216 436,-216 442,-222 442,-228 442,-228 442,-240 442,-240 442,-246 436,-252 430,-252"/>
<text text-anchor="start" x="314" y="-230.3" font-family="Times,serif" font-size="14.00"> Eigendecomposition </text>
</a>
</g>
</g>
<!-- EIGENVECTORS&#45;&gt;STATIONARY_DIST_MARKOV -->
<g id="edge3" class="edge"><title>EIGENVECTORS&#45;&gt;STATIONARY_DIST_MARKOV</title>
<path fill="none" stroke="black" d="M374.217,-215.854C373.611,-196.535 369.964,-165.086 354,-144 343.993,-130.782 329.701,-120.474 315.115,-112.609"/>
<polygon fill="black" stroke="black" points="316.536,-109.406 306.032,-108.024 313.381,-115.655 316.536,-109.406"/>
</g>
<!-- TRANSITION_MATRIX_OF_MARKOV_CHAIN&#45;&gt;STATIONARY_DIST_MARKOV -->
<g id="edge4" class="edge"><title>TRANSITION_MATRIX_OF_MARKOV_CHAIN&#45;&gt;STATIONARY_DIST_MARKOV</title>
<path fill="none" stroke="black" d="M256,-143.697C256,-135.983 256,-126.712 256,-118.112"/>
<polygon fill="black" stroke="black" points="259.5,-118.104 256,-108.104 252.5,-118.104 259.5,-118.104"/>
</g>
</g>
</svg>
