<?xml version="1.0" encoding="UTF-8" standalone="no"?>
<!DOCTYPE svg PUBLIC "-//W3C//DTD SVG 1.1//EN"
 "http://www.w3.org/Graphics/SVG/1.1/DTD/svg11.dtd">
<!-- Generated by graphviz version 2.36.0 (20140111.2315)
 -->
<!-- Title: %3 Pages: 1 -->
<svg width="450pt" height="260pt"
 viewBox="0.00 0.00 450.00 260.00" xmlns="http://www.w3.org/2000/svg" xmlns:xlink="http://www.w3.org/1999/xlink">
<g id="graph0" class="graph" transform="scale(1 1) rotate(0) translate(4 256)">
<title>%3</title>
<!-- STATIONARY_DIST_MARKOV -->
<g id="node1" class="node"><title>STATIONARY_DIST_MARKOV</title>
<g id="a_node1"><a xlink:href="STATIONARY_DIST_MARKOV.html" xlink:title=" Ergodic Markov chains " target="_top">
<path fill="none" stroke="blue" stroke-width="2" d="M246,-108C246,-108 118,-108 118,-108 112,-108 106,-102 106,-96 106,-96 106,-84 106,-84 106,-78 112,-72 118,-72 118,-72 246,-72 246,-72 252,-72 258,-78 258,-84 258,-84 258,-96 258,-96 258,-102 252,-108 246,-108"/>
<text text-anchor="start" x="114" y="-86.3" font-family="Times,serif" font-size="14.00"> Ergodic Markov chains </text>
</a>
</g>
</g>
<!-- MONTE_CARLO -->
<g id="node2" class="node"><title>MONTE_CARLO</title>
<g id="a_node2"><a xlink:href="MONTE_CARLO.html" xlink:title=" Monte Carlo Simulation " target="_top">
<path fill="none" stroke="black" d="M171.5,-36C171.5,-36 38.5,-36 38.5,-36 32.5,-36 26.5,-30 26.5,-24 26.5,-24 26.5,-12 26.5,-12 26.5,-6 32.5,-0 38.5,-0 38.5,-0 171.5,-0 171.5,-0 177.5,-0 183.5,-6 183.5,-12 183.5,-12 183.5,-24 183.5,-24 183.5,-30 177.5,-36 171.5,-36"/>
<text text-anchor="start" x="34" y="-14.3" font-family="Times,serif" font-size="14.00"> Monte Carlo Simulation </text>
</a>
</g>
</g>
<!-- STATIONARY_DIST_MARKOV&#45;&gt;MONTE_CARLO -->
<g id="edge1" class="edge"><title>STATIONARY_DIST_MARKOV&#45;&gt;MONTE_CARLO</title>
<path fill="none" stroke="black" d="M162.966,-71.6966C153.455,-63.0503 141.793,-52.4486 131.43,-43.027"/>
<polygon fill="black" stroke="black" points="133.569,-40.2413 123.815,-36.1043 128.86,-45.4209 133.569,-40.2413"/>
</g>
<!-- DETAILED_BALANCE -->
<g id="node6" class="node"><title>DETAILED_BALANCE</title>
<g id="a_node6"><a xlink:href="DETAILED_BALANCE.html" xlink:title=" Detailed balance " target="_top">
<path fill="none" stroke="black" d="M304.25,-36C304.25,-36 213.75,-36 213.75,-36 207.75,-36 201.75,-30 201.75,-24 201.75,-24 201.75,-12 201.75,-12 201.75,-6 207.75,-0 213.75,-0 213.75,-0 304.25,-0 304.25,-0 310.25,-0 316.25,-6 316.25,-12 316.25,-12 316.25,-24 316.25,-24 316.25,-30 310.25,-36 304.25,-36"/>
<text text-anchor="start" x="209.5" y="-14.3" font-family="Times,serif" font-size="14.00"> Detailed balance </text>
</a>
</g>
</g>
<!-- STATIONARY_DIST_MARKOV&#45;&gt;DETAILED_BALANCE -->
<g id="edge6" class="edge"><title>STATIONARY_DIST_MARKOV&#45;&gt;DETAILED_BALANCE</title>
<path fill="none" stroke="black" d="M201.034,-71.6966C210.545,-63.0503 222.207,-52.4486 232.57,-43.027"/>
<polygon fill="black" stroke="black" points="235.14,-45.4209 240.185,-36.1043 230.431,-40.2413 235.14,-45.4209"/>
</g>
<!-- EIGENVECTORS -->
<g id="node3" class="node"><title>EIGENVECTORS</title>
<g id="a_node3"><a xlink:href="EIGENVECTORS.html" xlink:title=" Eigendecomposition " target="_top">
<path fill="none" stroke="black" d="M124,-252C124,-252 12,-252 12,-252 6,-252 0,-246 0,-240 0,-240 0,-228 0,-228 0,-222 6,-216 12,-216 12,-216 124,-216 124,-216 130,-216 136,-222 136,-228 136,-228 136,-240 136,-240 136,-246 130,-252 124,-252"/>
<text text-anchor="start" x="8" y="-230.3" font-family="Times,serif" font-size="14.00"> Eigendecomposition </text>
</a>
</g>
</g>
<!-- EIGENVECTORS&#45;&gt;STATIONARY_DIST_MARKOV -->
<g id="edge2" class="edge"><title>EIGENVECTORS&#45;&gt;STATIONARY_DIST_MARKOV</title>
<path fill="none" stroke="black" d="M66.6413,-215.914C65.9988,-196.649 67.7293,-165.25 83,-144 92.5629,-130.693 106.519,-120.41 120.952,-112.601"/>
<polygon fill="black" stroke="black" points="122.614,-115.683 129.966,-108.053 119.461,-109.433 122.614,-115.683"/>
</g>
<!-- TRANSITION_MATRIX_OF_MARKOV_CHAIN -->
<g id="node5" class="node"><title>TRANSITION_MATRIX_OF_MARKOV_CHAIN</title>
<g id="a_node5"><a xlink:href="TRANSITION_MATRIX_OF_MARKOV_CHAIN.html" xlink:title=" Markovian transition matrix " target="_top">
<path fill="none" stroke="black" d="M259.25,-180C259.25,-180 104.75,-180 104.75,-180 98.75,-180 92.75,-174 92.75,-168 92.75,-168 92.75,-156 92.75,-156 92.75,-150 98.75,-144 104.75,-144 104.75,-144 259.25,-144 259.25,-144 265.25,-144 271.25,-150 271.25,-156 271.25,-156 271.25,-168 271.25,-168 271.25,-174 265.25,-180 259.25,-180"/>
<text text-anchor="start" x="100.5" y="-158.3" font-family="Times,serif" font-size="14.00"> Markovian transition matrix </text>
</a>
</g>
</g>
<!-- EIGENVECTORS&#45;&gt;TRANSITION_MATRIX_OF_MARKOV_CHAIN -->
<!-- TRANSIENT_RECURRENT_STATES -->
<g id="node4" class="node"><title>TRANSIENT_RECURRENT_STATES</title>
<g id="a_node4"><a xlink:href="TRANSIENT_RECURRENT_STATES.html" xlink:title=" Transient and recurrent states in Markov chains " target="_top">
<path fill="none" stroke="black" d="M430,-252C430,-252 170,-252 170,-252 164,-252 158,-246 158,-240 158,-240 158,-228 158,-228 158,-222 164,-216 170,-216 170,-216 430,-216 430,-216 436,-216 442,-222 442,-228 442,-228 442,-240 442,-240 442,-246 436,-252 430,-252"/>
<text text-anchor="start" x="166" y="-230.3" font-family="Times,serif" font-size="14.00"> Transient and recurrent states in Markov chains </text>
</a>
</g>
</g>
<!-- TRANSIENT_RECURRENT_STATES&#45;&gt;STATIONARY_DIST_MARKOV -->
<g id="edge3" class="edge"><title>TRANSIENT_RECURRENT_STATES&#45;&gt;STATIONARY_DIST_MARKOV</title>
<path fill="none" stroke="black" d="M300.217,-215.854C299.611,-196.535 295.964,-165.086 280,-144 269.993,-130.782 255.701,-120.474 241.115,-112.609"/>
<polygon fill="black" stroke="black" points="242.536,-109.406 232.032,-108.024 239.381,-115.655 242.536,-109.406"/>
</g>
<!-- TRANSITION_MATRIX_OF_MARKOV_CHAIN&#45;&gt;STATIONARY_DIST_MARKOV -->
<g id="edge4" class="edge"><title>TRANSITION_MATRIX_OF_MARKOV_CHAIN&#45;&gt;STATIONARY_DIST_MARKOV</title>
<path fill="none" stroke="black" d="M182,-143.697C182,-135.983 182,-126.712 182,-118.112"/>
<polygon fill="black" stroke="black" points="185.5,-118.104 182,-108.104 178.5,-118.104 185.5,-118.104"/>
</g>
</g>
</svg>
