<?xml version="1.0" encoding="UTF-8" standalone="no"?>
<!DOCTYPE svg PUBLIC "-//W3C//DTD SVG 1.1//EN"
 "http://www.w3.org/Graphics/SVG/1.1/DTD/svg11.dtd">
<!-- Generated by graphviz version 2.26.3 (20100126.1600)
 -->
<!-- Title: _anonymous_0 Pages: 1 -->
<svg width="265pt" height="116pt"
 viewBox="0.00 0.00 265.00 116.00" xmlns="http://www.w3.org/2000/svg" xmlns:xlink="http://www.w3.org/1999/xlink">
<g id="graph1" class="graph" transform="scale(1 1) rotate(0) translate(4 112)">
<title>_anonymous_0</title>
<!-- SUMMATIONS -->
<g id="node1" class="node"><title>SUMMATIONS</title>
<a xlink:href="SUMMATIONS.html" xlink:title="Summation and product notation" target="_top">
<polyline fill="none" stroke="blue" stroke-width="2" points="234,-108 12,-108 "/>
<path fill="none" stroke="blue" stroke-width="2" d="M12,-108C6,-108 8.28967e-14,-102 6.63173e-14,-96"/>
<polyline fill="none" stroke="blue" stroke-width="2" points="6.63173e-14,-96 3.31587e-14,-84 "/>
<path fill="none" stroke="blue" stroke-width="2" d="M3.31587e-14,-84C1.65793e-14,-78 6,-72 12,-72"/>
<polyline fill="none" stroke="blue" stroke-width="2" points="12,-72 234,-72 "/>
<path fill="none" stroke="blue" stroke-width="2" d="M234,-72C240,-72 246,-78 246,-84"/>
<polyline fill="none" stroke="blue" stroke-width="2" points="246,-84 246,-96 "/>
<path fill="none" stroke="blue" stroke-width="2" d="M246,-96C246,-102 240,-108 234,-108"/>
<text text-anchor="start" x="8.5" y="-87.2333" font-family="Times Roman,serif" font-size="14.00">Summation and product notation</text>
</a>
</g>
<!-- EXPECTATION -->
<g id="node2" class="node"><title>EXPECTATION</title>
<a xlink:href="EXPECTATION.html" xlink:title="Expectation " target="_top">
<polyline fill="none" stroke="black" points="95,-36 15,-36 "/>
<path fill="none" stroke="black" d="M15,-36C9,-36 3,-30 3,-24"/>
<polyline fill="none" stroke="black" points="3,-24 3,-12 "/>
<path fill="none" stroke="black" d="M3,-12C3,-6 9,-1.69437e-14 15,-1.61239e-14"/>
<polyline fill="none" stroke="black" points="15,-1.61239e-14 95,-5.19243e-15 "/>
<path fill="none" stroke="black" d="M95,-5.19243e-15C101,-4.37257e-15 107,-6 107,-12"/>
<polyline fill="none" stroke="black" points="107,-12 107,-24 "/>
<path fill="none" stroke="black" d="M107,-24C107,-30 101,-36 95,-36"/>
<text text-anchor="start" x="11.5" y="-15.2333" font-family="Times Roman,serif" font-size="14.00">Expectation </text>
</a>
</g>
<!-- SUMMATIONS&#45;&gt;EXPECTATION -->
<g id="edge2" class="edge"><title>SUMMATIONS&#45;&gt;EXPECTATION</title>
<path fill="none" stroke="black" d="M105.841,-71.8314C97.8489,-63.3694 88.1962,-53.1489 79.4584,-43.8971"/>
<polygon fill="black" stroke="black" points="81.8011,-41.2802 72.3903,-36.4133 76.712,-46.0866 81.8011,-41.2802"/>
</g>
<!-- GEOMETRIC_SERIES -->
<g id="node4" class="node"><title>GEOMETRIC_SERIES</title>
<a xlink:href="GEOMETRIC_SERIES.html" xlink:title="Geometric series" target="_top">
<polyline fill="none" stroke="black" points="245,-36 137,-36 "/>
<path fill="none" stroke="black" d="M137,-36C131,-36 125,-30 125,-24"/>
<polyline fill="none" stroke="black" points="125,-24 125,-12 "/>
<path fill="none" stroke="black" d="M125,-12C125,-6 131,-1.71176e-14 137,-1.64717e-14"/>
<polyline fill="none" stroke="black" points="137,-1.64717e-14 245,-4.84461e-15 "/>
<path fill="none" stroke="black" d="M245,-4.84461e-15C251,-4.19866e-15 257,-6 257,-12"/>
<polyline fill="none" stroke="black" points="257,-12 257,-24 "/>
<path fill="none" stroke="black" d="M257,-24C257,-30 251,-36 245,-36"/>
<text text-anchor="start" x="133" y="-15.2333" font-family="Times Roman,serif" font-size="14.00">Geometric series</text>
</a>
</g>
<!-- SUMMATIONS&#45;&gt;GEOMETRIC_SERIES -->
<g id="edge4" class="edge"><title>SUMMATIONS&#45;&gt;GEOMETRIC_SERIES</title>
<path fill="none" stroke="black" d="M140.159,-71.8314C148.151,-63.3694 157.804,-53.1489 166.542,-43.8971"/>
<polygon fill="black" stroke="black" points="169.288,-46.0866 173.61,-36.4133 164.199,-41.2802 169.288,-46.0866"/>
</g>
</g>
</svg>
