<?xml version="1.0" encoding="UTF-8" standalone="no"?>
<!DOCTYPE svg PUBLIC "-//W3C//DTD SVG 1.1//EN"
 "http://www.w3.org/Graphics/SVG/1.1/DTD/svg11.dtd">
<!-- Generated by graphviz version 2.28.0 (20110509.1545)
 -->
<!-- Title: _anonymous_0 Pages: 1 -->
<svg width="223pt" height="116pt"
 viewBox="0.00 0.00 223.00 116.00" xmlns="http://www.w3.org/2000/svg" xmlns:xlink="http://www.w3.org/1999/xlink">
<g id="graph1" class="graph" transform="scale(1 1) rotate(0) translate(4 112)">
<title>_anonymous_0</title>
<!-- SUMMATIONS -->
<g id="node1" class="node"><title>SUMMATIONS</title>
<a xlink:href="SUMMATIONS.html" xlink:title="Summation and product notation" target="_top">
<polyline fill="none" stroke="blue" stroke-width="2" points="189,-108 13,-108 "/>
<path fill="none" stroke="blue" stroke-width="2" d="M13,-108C7,-108 1,-102 1,-96"/>
<polyline fill="none" stroke="blue" stroke-width="2" points="1,-96 1,-84 "/>
<path fill="none" stroke="blue" stroke-width="2" d="M1,-84C1,-78 7,-72 13,-72"/>
<polyline fill="none" stroke="blue" stroke-width="2" points="13,-72 189,-72 "/>
<path fill="none" stroke="blue" stroke-width="2" d="M189,-72C195,-72 201,-78 201,-84"/>
<polyline fill="none" stroke="blue" stroke-width="2" points="201,-84 201,-96 "/>
<path fill="none" stroke="blue" stroke-width="2" d="M201,-96C201,-102 195,-108 189,-108"/>
<text text-anchor="start" x="9.5" y="-84.5" font-family="Times,serif" font-size="14.00">Summation and product notation</text>
</a>
</g>
<!-- EXPECTATION -->
<g id="node2" class="node"><title>EXPECTATION</title>
<a xlink:href="EXPECTATION.html" xlink:title="Expectation " target="_top">
<polyline fill="none" stroke="black" points="74.25,-36 11.75,-36 "/>
<path fill="none" stroke="black" d="M11.75,-36C5.75,-36 -0.25,-30 -0.25,-24"/>
<polyline fill="none" stroke="black" points="-0.25,-24 -0.25,-12 "/>
<path fill="none" stroke="black" d="M-0.25,-12C-0.25,-6 5.75,-0 11.75,-0"/>
<polyline fill="none" stroke="black" points="11.75,-0 74.25,-0 "/>
<path fill="none" stroke="black" d="M74.25,-0C80.25,-0 86.25,-6 86.25,-12"/>
<polyline fill="none" stroke="black" points="86.25,-12 86.25,-24 "/>
<path fill="none" stroke="black" d="M86.25,-24C86.25,-30 80.25,-36 74.25,-36"/>
<text text-anchor="start" x="8" y="-12.5" font-family="Times,serif" font-size="14.00">Expectation </text>
</a>
</g>
<!-- SUMMATIONS&#45;&gt;EXPECTATION -->
<g id="edge2" class="edge"><title>SUMMATIONS&#45;&gt;EXPECTATION</title>
<path fill="none" stroke="black" d="M86.6629,-71.6966C79.7095,-63.3046 71.2298,-53.0705 63.5994,-43.8613"/>
<polygon fill="black" stroke="black" points="66.2475,-41.5715 57.1722,-36.1043 60.8573,-46.0376 66.2475,-41.5715"/>
</g>
<!-- GEOMETRIC_SERIES -->
<g id="node4" class="node"><title>GEOMETRIC_SERIES</title>
<a xlink:href="GEOMETRIC_SERIES.html" xlink:title="Geometric series" target="_top">
<polyline fill="none" stroke="black" points="203.25,-36 116.75,-36 "/>
<path fill="none" stroke="black" d="M116.75,-36C110.75,-36 104.75,-30 104.75,-24"/>
<polyline fill="none" stroke="black" points="104.75,-24 104.75,-12 "/>
<path fill="none" stroke="black" d="M104.75,-12C104.75,-6 110.75,-0 116.75,-0"/>
<polyline fill="none" stroke="black" points="116.75,-0 203.25,-0 "/>
<path fill="none" stroke="black" d="M203.25,-0C209.25,-0 215.25,-6 215.25,-12"/>
<polyline fill="none" stroke="black" points="215.25,-12 215.25,-24 "/>
<path fill="none" stroke="black" d="M215.25,-24C215.25,-30 209.25,-36 203.25,-36"/>
<text text-anchor="start" x="113" y="-12.5" font-family="Times,serif" font-size="14.00">Geometric series</text>
</a>
</g>
<!-- SUMMATIONS&#45;&gt;GEOMETRIC_SERIES -->
<g id="edge4" class="edge"><title>SUMMATIONS&#45;&gt;GEOMETRIC_SERIES</title>
<path fill="none" stroke="black" d="M115.584,-71.6966C122.658,-63.3046 131.283,-53.0705 139.045,-43.8613"/>
<polygon fill="black" stroke="black" points="141.815,-46.0063 145.583,-36.1043 136.463,-41.495 141.815,-46.0063"/>
</g>
</g>
</svg>
