<?xml version="1.0" encoding="UTF-8" standalone="no"?>
<!DOCTYPE svg PUBLIC "-//W3C//DTD SVG 1.1//EN"
 "http://www.w3.org/Graphics/SVG/1.1/DTD/svg11.dtd">
<!-- Generated by graphviz version 2.26.3 (20100126.1600)
 -->
<!-- Title: _anonymous_0 Pages: 1 -->
<svg width="353pt" height="188pt"
 viewBox="0.00 0.00 353.00 188.00" xmlns="http://www.w3.org/2000/svg" xmlns:xlink="http://www.w3.org/1999/xlink">
<g id="graph1" class="graph" transform="scale(1 1) rotate(0) translate(4 184)">
<title>_anonymous_0</title>
<!-- SUMMATIONS -->
<g id="node1" class="node"><title>SUMMATIONS</title>
<a xlink:href="SUMMATIONS.html" xlink:title="Summation and product notation" target="_top">
<polyline fill="none" stroke="blue" stroke-width="2" points="333,-180 111,-180 "/>
<path fill="none" stroke="blue" stroke-width="2" d="M111,-180C105,-180 99,-174 99,-168"/>
<polyline fill="none" stroke="blue" stroke-width="2" points="99,-168 99,-156 "/>
<path fill="none" stroke="blue" stroke-width="2" d="M99,-156C99,-150 105,-144 111,-144"/>
<polyline fill="none" stroke="blue" stroke-width="2" points="111,-144 333,-144 "/>
<path fill="none" stroke="blue" stroke-width="2" d="M333,-144C339,-144 345,-150 345,-156"/>
<polyline fill="none" stroke="blue" stroke-width="2" points="345,-156 345,-168 "/>
<path fill="none" stroke="blue" stroke-width="2" d="M345,-168C345,-174 339,-180 333,-180"/>
<text text-anchor="start" x="107.5" y="-159.233" font-family="Times Roman,serif" font-size="14.00">Summation and product notation</text>
</a>
</g>
<!-- INFORMATION_THEORY -->
<g id="node2" class="node"><title>INFORMATION_THEORY</title>
<a xlink:href="INFORMATION_THEORY.html" xlink:title="Information theory " target="_top">
<polyline fill="none" stroke="black" points="140,-108 12,-108 "/>
<path fill="none" stroke="black" d="M12,-108C6,-108 5.92119e-14,-102 4.73695e-14,-96"/>
<polyline fill="none" stroke="black" points="4.73695e-14,-96 2.36848e-14,-84 "/>
<path fill="none" stroke="black" d="M2.36848e-14,-84C1.18424e-14,-78 6,-72 12,-72"/>
<polyline fill="none" stroke="black" points="12,-72 140,-72 "/>
<path fill="none" stroke="black" d="M140,-72C146,-72 152,-78 152,-84"/>
<polyline fill="none" stroke="black" points="152,-84 152,-96 "/>
<path fill="none" stroke="black" d="M152,-96C152,-102 146,-108 140,-108"/>
<text text-anchor="start" x="8" y="-87.2333" font-family="Times Roman,serif" font-size="14.00">Information theory </text>
</a>
</g>
<!-- SUMMATIONS&#45;&gt;INFORMATION_THEORY -->
<g id="edge2" class="edge"><title>SUMMATIONS&#45;&gt;INFORMATION_THEORY</title>
<path fill="none" stroke="black" d="M185.158,-143.831C165.892,-134.33 142.13,-122.612 121.701,-112.537"/>
<polygon fill="black" stroke="black" points="123.094,-109.322 112.577,-108.038 119.998,-115.6 123.094,-109.322"/>
</g>
<!-- EXPECTATION -->
<g id="node4" class="node"><title>EXPECTATION</title>
<a xlink:href="EXPECTATION.html" xlink:title="Expectation " target="_top">
<polyline fill="none" stroke="black" points="262,-108 182,-108 "/>
<path fill="none" stroke="black" d="M182,-108C176,-108 170,-102 170,-96"/>
<polyline fill="none" stroke="black" points="170,-96 170,-84 "/>
<path fill="none" stroke="black" d="M170,-84C170,-78 176,-72 182,-72"/>
<polyline fill="none" stroke="black" points="182,-72 262,-72 "/>
<path fill="none" stroke="black" d="M262,-72C268,-72 274,-78 274,-84"/>
<polyline fill="none" stroke="black" points="274,-84 274,-96 "/>
<path fill="none" stroke="black" d="M274,-96C274,-102 268,-108 262,-108"/>
<text text-anchor="start" x="178.5" y="-87.2333" font-family="Times Roman,serif" font-size="14.00">Expectation </text>
</a>
</g>
<!-- SUMMATIONS&#45;&gt;EXPECTATION -->
<g id="edge4" class="edge"><title>SUMMATIONS&#45;&gt;EXPECTATION</title>
<path fill="none" stroke="black" d="M222,-143.831C222,-136.131 222,-126.974 222,-118.417"/>
<polygon fill="black" stroke="black" points="225.5,-118.413 222,-108.413 218.5,-118.413 225.5,-118.413"/>
</g>
<!-- GEOMETRIC_SERIES -->
<g id="node6" class="node"><title>GEOMETRIC_SERIES</title>
<a xlink:href="GEOMETRIC_SERIES.html" xlink:title="Geometric series" target="_top">
<polyline fill="none" stroke="black" points="243,-36 135,-36 "/>
<path fill="none" stroke="black" d="M135,-36C129,-36 123,-30 123,-24"/>
<polyline fill="none" stroke="black" points="123,-24 123,-12 "/>
<path fill="none" stroke="black" d="M123,-12C123,-6 129,-1.71176e-14 135,-1.64717e-14"/>
<polyline fill="none" stroke="black" points="135,-1.64717e-14 243,-4.84461e-15 "/>
<path fill="none" stroke="black" d="M243,-4.84461e-15C249,-4.19866e-15 255,-6 255,-12"/>
<polyline fill="none" stroke="black" points="255,-12 255,-24 "/>
<path fill="none" stroke="black" d="M255,-24C255,-30 249,-36 243,-36"/>
<text text-anchor="start" x="131" y="-15.2333" font-family="Times Roman,serif" font-size="14.00">Geometric series</text>
</a>
</g>
<!-- SUMMATIONS&#45;&gt;GEOMETRIC_SERIES -->
<g id="edge6" class="edge"><title>SUMMATIONS&#45;&gt;GEOMETRIC_SERIES</title>
<path fill="none" stroke="black" d="M251.694,-143.917C263.784,-134.802 276.438,-122.573 283,-108 289.569,-93.4108 291.015,-85.8477 283,-72 275.493,-59.0299 263.562,-48.9041 250.685,-41.1078"/>
<polygon fill="black" stroke="black" points="252.101,-37.8898 241.662,-36.0763 248.692,-44.0035 252.101,-37.8898"/>
</g>
<!-- INFORMATION_THEORY&#45;&gt;GEOMETRIC_SERIES -->
</g>
</svg>
