<?xml version="1.0" encoding="UTF-8" standalone="no"?>
<!DOCTYPE svg PUBLIC "-//W3C//DTD SVG 1.1//EN"
 "http://www.w3.org/Graphics/SVG/1.1/DTD/svg11.dtd">
<!-- Generated by graphviz version 2.26.3 (20100126.1600)
 -->
<!-- Title: _anonymous_0 Pages: 1 -->
<svg width="333pt" height="188pt"
 viewBox="0.00 0.00 333.00 188.00" xmlns="http://www.w3.org/2000/svg" xmlns:xlink="http://www.w3.org/1999/xlink">
<g id="graph1" class="graph" transform="scale(1 1) rotate(0) translate(4 184)">
<title>_anonymous_0</title>
<!-- SUMMATIONS -->
<g id="node1" class="node"><title>SUMMATIONS</title>
<a xlink:href="SUMMATIONS.html" xlink:title="Summation and product notation" target="_top">
<polyline fill="none" stroke="blue" stroke-width="2" points="313,-180 91,-180 "/>
<path fill="none" stroke="blue" stroke-width="2" d="M91,-180C85,-180 79,-174 79,-168"/>
<polyline fill="none" stroke="blue" stroke-width="2" points="79,-168 79,-156 "/>
<path fill="none" stroke="blue" stroke-width="2" d="M79,-156C79,-150 85,-144 91,-144"/>
<polyline fill="none" stroke="blue" stroke-width="2" points="91,-144 313,-144 "/>
<path fill="none" stroke="blue" stroke-width="2" d="M313,-144C319,-144 325,-150 325,-156"/>
<polyline fill="none" stroke="blue" stroke-width="2" points="325,-156 325,-168 "/>
<path fill="none" stroke="blue" stroke-width="2" d="M325,-168C325,-174 319,-180 313,-180"/>
<text text-anchor="start" x="87.5" y="-159.233" font-family="Times Roman,serif" font-size="14.00">Summation and product notation</text>
</a>
</g>
<!-- GEOMETRIC_SERIES -->
<g id="node2" class="node"><title>GEOMETRIC_SERIES</title>
<a xlink:href="GEOMETRIC_SERIES.html" xlink:title="Geometric series" target="_top">
<polyline fill="none" stroke="black" points="120,-108 12,-108 "/>
<path fill="none" stroke="black" d="M12,-108C6,-108 5.92119e-14,-102 4.73695e-14,-96"/>
<polyline fill="none" stroke="black" points="4.73695e-14,-96 2.36848e-14,-84 "/>
<path fill="none" stroke="black" d="M2.36848e-14,-84C1.18424e-14,-78 6,-72 12,-72"/>
<polyline fill="none" stroke="black" points="12,-72 120,-72 "/>
<path fill="none" stroke="black" d="M120,-72C126,-72 132,-78 132,-84"/>
<polyline fill="none" stroke="black" points="132,-84 132,-96 "/>
<path fill="none" stroke="black" d="M132,-96C132,-102 126,-108 120,-108"/>
<text text-anchor="start" x="8" y="-87.2333" font-family="Times Roman,serif" font-size="14.00">Geometric series</text>
</a>
</g>
<!-- SUMMATIONS&#45;&gt;GEOMETRIC_SERIES -->
<g id="edge2" class="edge"><title>SUMMATIONS&#45;&gt;GEOMETRIC_SERIES</title>
<path fill="none" stroke="black" d="M167.681,-143.831C149.964,-134.452 128.166,-122.911 109.302,-112.924"/>
<polygon fill="black" stroke="black" points="110.783,-109.748 100.308,-108.163 107.508,-115.935 110.783,-109.748"/>
</g>
<!-- EXPECTATION -->
<g id="node4" class="node"><title>EXPECTATION</title>
<a xlink:href="EXPECTATION.html" xlink:title="Expectation " target="_top">
<polyline fill="none" stroke="black" points="242,-108 162,-108 "/>
<path fill="none" stroke="black" d="M162,-108C156,-108 150,-102 150,-96"/>
<polyline fill="none" stroke="black" points="150,-96 150,-84 "/>
<path fill="none" stroke="black" d="M150,-84C150,-78 156,-72 162,-72"/>
<polyline fill="none" stroke="black" points="162,-72 242,-72 "/>
<path fill="none" stroke="black" d="M242,-72C248,-72 254,-78 254,-84"/>
<polyline fill="none" stroke="black" points="254,-84 254,-96 "/>
<path fill="none" stroke="black" d="M254,-96C254,-102 248,-108 242,-108"/>
<text text-anchor="start" x="158.5" y="-87.2333" font-family="Times Roman,serif" font-size="14.00">Expectation </text>
</a>
</g>
<!-- SUMMATIONS&#45;&gt;EXPECTATION -->
<g id="edge4" class="edge"><title>SUMMATIONS&#45;&gt;EXPECTATION</title>
<path fill="none" stroke="black" d="M202,-143.831C202,-136.131 202,-126.974 202,-118.417"/>
<polygon fill="black" stroke="black" points="205.5,-118.413 202,-108.413 198.5,-118.413 205.5,-118.413"/>
</g>
<!-- INFORMATION_THEORY -->
<g id="node6" class="node"><title>INFORMATION_THEORY</title>
<a xlink:href="INFORMATION_THEORY.html" xlink:title="Information theory " target="_top">
<polyline fill="none" stroke="black" points="238,-36 110,-36 "/>
<path fill="none" stroke="black" d="M110,-36C104,-36 98,-30 98,-24"/>
<polyline fill="none" stroke="black" points="98,-24 98,-12 "/>
<path fill="none" stroke="black" d="M98,-12C98,-6 104,-1.72026e-14 110,-1.66417e-14"/>
<polyline fill="none" stroke="black" points="110,-1.66417e-14 238,-4.67462e-15 "/>
<path fill="none" stroke="black" d="M238,-4.67462e-15C244,-4.11367e-15 250,-6 250,-12"/>
<polyline fill="none" stroke="black" points="250,-12 250,-24 "/>
<path fill="none" stroke="black" d="M250,-24C250,-30 244,-36 238,-36"/>
<text text-anchor="start" x="106" y="-15.2333" font-family="Times Roman,serif" font-size="14.00">Information theory </text>
</a>
</g>
<!-- SUMMATIONS&#45;&gt;INFORMATION_THEORY -->
<g id="edge6" class="edge"><title>SUMMATIONS&#45;&gt;INFORMATION_THEORY</title>
<path fill="none" stroke="black" d="M231.694,-143.917C243.784,-134.802 256.438,-122.573 263,-108 269.569,-93.4108 270.849,-85.9426 263,-72 255.797,-59.2038 244.201,-49.0907 231.726,-41.2465"/>
<polygon fill="black" stroke="black" points="233.397,-38.1698 222.992,-36.1733 229.881,-44.2227 233.397,-38.1698"/>
</g>
<!-- GEOMETRIC_SERIES&#45;&gt;INFORMATION_THEORY -->
</g>
</svg>
