<?xml version="1.0" encoding="UTF-8" standalone="no"?>
<!DOCTYPE svg PUBLIC "-//W3C//DTD SVG 1.1//EN"
 "http://www.w3.org/Graphics/SVG/1.1/DTD/svg11.dtd">
<!-- Generated by graphviz version 2.28.0 (20110509.1545)
 -->
<!-- Title: _anonymous_0 Pages: 1 -->
<svg width="208pt" height="116pt"
 viewBox="0.00 0.00 208.00 116.00" xmlns="http://www.w3.org/2000/svg" xmlns:xlink="http://www.w3.org/1999/xlink">
<g id="graph1" class="graph" transform="scale(1 1) rotate(0) translate(4 112)">
<title>_anonymous_0</title>
<!-- SUMMATIONS -->
<g id="node1" class="node"><title>SUMMATIONS</title>
<a xlink:href="SUMMATIONS.html" xlink:title="Summation and product notation" target="_top">
<polyline fill="none" stroke="blue" stroke-width="2" points="188,-108 12,-108 "/>
<path fill="none" stroke="blue" stroke-width="2" d="M12,-108C6,-108 0,-102 0,-96"/>
<polyline fill="none" stroke="blue" stroke-width="2" points="0,-96 0,-84 "/>
<path fill="none" stroke="blue" stroke-width="2" d="M0,-84C0,-78 6,-72 12,-72"/>
<polyline fill="none" stroke="blue" stroke-width="2" points="12,-72 188,-72 "/>
<path fill="none" stroke="blue" stroke-width="2" d="M188,-72C194,-72 200,-78 200,-84"/>
<polyline fill="none" stroke="blue" stroke-width="2" points="200,-84 200,-96 "/>
<path fill="none" stroke="blue" stroke-width="2" d="M200,-96C200,-102 194,-108 188,-108"/>
<text text-anchor="start" x="8.5" y="-84.5" font-family="Times,serif" font-size="14.00">Summation and product notation</text>
</a>
</g>
<!-- GEOMETRIC_SERIES -->
<g id="node2" class="node"><title>GEOMETRIC_SERIES</title>
<a xlink:href="GEOMETRIC_SERIES.html" xlink:title="Geometric series" target="_top">
<polyline fill="none" stroke="black" points="143.25,-36 56.75,-36 "/>
<path fill="none" stroke="black" d="M56.75,-36C50.75,-36 44.75,-30 44.75,-24"/>
<polyline fill="none" stroke="black" points="44.75,-24 44.75,-12 "/>
<path fill="none" stroke="black" d="M44.75,-12C44.75,-6 50.75,-0 56.75,-0"/>
<polyline fill="none" stroke="black" points="56.75,-0 143.25,-0 "/>
<path fill="none" stroke="black" d="M143.25,-0C149.25,-0 155.25,-6 155.25,-12"/>
<polyline fill="none" stroke="black" points="155.25,-12 155.25,-24 "/>
<path fill="none" stroke="black" d="M155.25,-24C155.25,-30 149.25,-36 143.25,-36"/>
<text text-anchor="start" x="53" y="-12.5" font-family="Times,serif" font-size="14.00">Geometric series</text>
</a>
</g>
<!-- SUMMATIONS&#45;&gt;GEOMETRIC_SERIES -->
<g id="edge2" class="edge"><title>SUMMATIONS&#45;&gt;GEOMETRIC_SERIES</title>
<path fill="none" stroke="black" d="M100,-71.6966C100,-63.9827 100,-54.7125 100,-46.1124"/>
<polygon fill="black" stroke="black" points="103.5,-46.1043 100,-36.1043 96.5001,-46.1044 103.5,-46.1043"/>
</g>
</g>
</svg>
