<?xml version="1.0" encoding="UTF-8" standalone="no"?>
<!DOCTYPE svg PUBLIC "-//W3C//DTD SVG 1.1//EN"
 "http://www.w3.org/Graphics/SVG/1.1/DTD/svg11.dtd">
<!-- Generated by graphviz version 2.26.3 (20100126.1600)
 -->
<!-- Title: _anonymous_0 Pages: 1 -->
<svg width="329pt" height="188pt"
 viewBox="0.00 0.00 329.00 188.00" xmlns="http://www.w3.org/2000/svg" xmlns:xlink="http://www.w3.org/1999/xlink">
<g id="graph1" class="graph" transform="scale(1 1) rotate(0) translate(4 184)">
<title>_anonymous_0</title>
<!-- SUMMATIONS -->
<g id="node1" class="node"><title>SUMMATIONS</title>
<a xlink:href="SUMMATIONS.html" xlink:title="Summation and product notation" target="_top">
<polyline fill="none" stroke="blue" stroke-width="2" points="309,-180 87,-180 "/>
<path fill="none" stroke="blue" stroke-width="2" d="M87,-180C81,-180 75,-174 75,-168"/>
<polyline fill="none" stroke="blue" stroke-width="2" points="75,-168 75,-156 "/>
<path fill="none" stroke="blue" stroke-width="2" d="M75,-156C75,-150 81,-144 87,-144"/>
<polyline fill="none" stroke="blue" stroke-width="2" points="87,-144 309,-144 "/>
<path fill="none" stroke="blue" stroke-width="2" d="M309,-144C315,-144 321,-150 321,-156"/>
<polyline fill="none" stroke="blue" stroke-width="2" points="321,-156 321,-168 "/>
<path fill="none" stroke="blue" stroke-width="2" d="M321,-168C321,-174 315,-180 309,-180"/>
<text text-anchor="start" x="83.5" y="-159.233" font-family="Times Roman,serif" font-size="14.00">Summation and product notation</text>
</a>
</g>
<!-- EXPECTATION -->
<g id="node2" class="node"><title>EXPECTATION</title>
<a xlink:href="EXPECTATION.html" xlink:title="Expectation " target="_top">
<polyline fill="none" stroke="black" points="92,-108 12,-108 "/>
<path fill="none" stroke="black" d="M12,-108C6,-108 2.96059e-14,-102 2.36848e-14,-96"/>
<polyline fill="none" stroke="black" points="2.36848e-14,-96 1.18424e-14,-84 "/>
<path fill="none" stroke="black" d="M1.18424e-14,-84C5.92119e-15,-78 6,-72 12,-72"/>
<polyline fill="none" stroke="black" points="12,-72 92,-72 "/>
<path fill="none" stroke="black" d="M92,-72C98,-72 104,-78 104,-84"/>
<polyline fill="none" stroke="black" points="104,-84 104,-96 "/>
<path fill="none" stroke="black" d="M104,-96C104,-102 98,-108 92,-108"/>
<text text-anchor="start" x="8.5" y="-87.2333" font-family="Times Roman,serif" font-size="14.00">Expectation </text>
</a>
</g>
<!-- SUMMATIONS&#45;&gt;EXPECTATION -->
<g id="edge2" class="edge"><title>SUMMATIONS&#45;&gt;EXPECTATION</title>
<path fill="none" stroke="black" d="M161.158,-143.831C141.892,-134.33 118.13,-122.612 97.7008,-112.537"/>
<polygon fill="black" stroke="black" points="99.0938,-109.322 88.577,-108.038 95.9977,-115.6 99.0938,-109.322"/>
</g>
<!-- INFORMATION_THEORY -->
<g id="node4" class="node"><title>INFORMATION_THEORY</title>
<a xlink:href="INFORMATION_THEORY.html" xlink:title="Information theory " target="_top">
<polyline fill="none" stroke="black" points="262,-108 134,-108 "/>
<path fill="none" stroke="black" d="M134,-108C128,-108 122,-102 122,-96"/>
<polyline fill="none" stroke="black" points="122,-96 122,-84 "/>
<path fill="none" stroke="black" d="M122,-84C122,-78 128,-72 134,-72"/>
<polyline fill="none" stroke="black" points="134,-72 262,-72 "/>
<path fill="none" stroke="black" d="M262,-72C268,-72 274,-78 274,-84"/>
<polyline fill="none" stroke="black" points="274,-84 274,-96 "/>
<path fill="none" stroke="black" d="M274,-96C274,-102 268,-108 262,-108"/>
<text text-anchor="start" x="130" y="-87.2333" font-family="Times Roman,serif" font-size="14.00">Information theory </text>
</a>
</g>
<!-- SUMMATIONS&#45;&gt;INFORMATION_THEORY -->
<g id="edge4" class="edge"><title>SUMMATIONS&#45;&gt;INFORMATION_THEORY</title>
<path fill="none" stroke="black" d="M198,-143.831C198,-136.131 198,-126.974 198,-118.417"/>
<polygon fill="black" stroke="black" points="201.5,-118.413 198,-108.413 194.5,-118.413 201.5,-118.413"/>
</g>
<!-- GEOMETRIC_SERIES -->
<g id="node6" class="node"><title>GEOMETRIC_SERIES</title>
<a xlink:href="GEOMETRIC_SERIES.html" xlink:title="Geometric series" target="_top">
<polyline fill="none" stroke="black" points="231,-36 123,-36 "/>
<path fill="none" stroke="black" d="M123,-36C117,-36 111,-30 111,-24"/>
<polyline fill="none" stroke="black" points="111,-24 111,-12 "/>
<path fill="none" stroke="black" d="M111,-12C111,-6 117,-1.71176e-14 123,-1.64717e-14"/>
<polyline fill="none" stroke="black" points="123,-1.64717e-14 231,-4.84461e-15 "/>
<path fill="none" stroke="black" d="M231,-4.84461e-15C237,-4.19866e-15 243,-6 243,-12"/>
<polyline fill="none" stroke="black" points="243,-12 243,-24 "/>
<path fill="none" stroke="black" d="M243,-24C243,-30 237,-36 231,-36"/>
<text text-anchor="start" x="119" y="-15.2333" font-family="Times Roman,serif" font-size="14.00">Geometric series</text>
</a>
</g>
<!-- SUMMATIONS&#45;&gt;GEOMETRIC_SERIES -->
<g id="edge6" class="edge"><title>SUMMATIONS&#45;&gt;GEOMETRIC_SERIES</title>
<path fill="none" stroke="black" d="M243.949,-143.854C259.175,-135.376 274.413,-123.629 283,-108 290.705,-93.9772 291.36,-85.6419 283,-72 274.811,-58.6382 262.164,-48.4533 248.421,-40.7357"/>
<polygon fill="black" stroke="black" points="249.759,-37.4877 239.268,-36.012 246.549,-43.7082 249.759,-37.4877"/>
</g>
<!-- EXPECTATION&#45;&gt;GEOMETRIC_SERIES -->
</g>
</svg>
