<?xml version="1.0" encoding="UTF-8" standalone="no"?>
<!DOCTYPE svg PUBLIC "-//W3C//DTD SVG 1.1//EN"
 "http://www.w3.org/Graphics/SVG/1.1/DTD/svg11.dtd">
<!-- Generated by graphviz version 2.36.0 (20140111.2315)
 -->
<!-- Title: %3 Pages: 1 -->
<svg width="305pt" height="188pt"
 viewBox="0.00 0.00 305.00 188.00" xmlns="http://www.w3.org/2000/svg" xmlns:xlink="http://www.w3.org/1999/xlink">
<g id="graph0" class="graph" transform="scale(1 1) rotate(0) translate(4 184)">
<title>%3</title>
<!-- SUMMATIONS -->
<g id="node1" class="node"><title>SUMMATIONS</title>
<g id="a_node1"><a xlink:href="SUMMATIONS.html" xlink:title=" Summation and product notation " target="_top">
<path fill="none" stroke="blue" stroke-width="2" d="M284.5,-180C284.5,-180 105.5,-180 105.5,-180 99.5,-180 93.5,-174 93.5,-168 93.5,-168 93.5,-156 93.5,-156 93.5,-150 99.5,-144 105.5,-144 105.5,-144 284.5,-144 284.5,-144 290.5,-144 296.5,-150 296.5,-156 296.5,-156 296.5,-168 296.5,-168 296.5,-174 290.5,-180 284.5,-180"/>
<text text-anchor="start" x="101" y="-158.3" font-family="Times,serif" font-size="14.00"> Summation and product notation </text>
</a>
</g>
</g>
<!-- INFORMATION_THEORY -->
<g id="node2" class="node"><title>INFORMATION_THEORY</title>
<g id="a_node2"><a xlink:href="INFORMATION_THEORY.html" xlink:title=" Information theory &#160;" target="_top">
<path fill="none" stroke="black" d="M118.25,-108C118.25,-108 11.75,-108 11.75,-108 5.75,-108 -0.25,-102 -0.25,-96 -0.25,-96 -0.25,-84 -0.25,-84 -0.25,-78 5.75,-72 11.75,-72 11.75,-72 118.25,-72 118.25,-72 124.25,-72 130.25,-78 130.25,-84 130.25,-84 130.25,-96 130.25,-96 130.25,-102 124.25,-108 118.25,-108"/>
<text text-anchor="start" x="7.5" y="-86.3" font-family="Times,serif" font-size="14.00"> Information theory &#160;</text>
</a>
</g>
</g>
<!-- SUMMATIONS&#45;&gt;INFORMATION_THEORY -->
<g id="edge1" class="edge"><title>SUMMATIONS&#45;&gt;INFORMATION_THEORY</title>
<path fill="none" stroke="black" d="M163.198,-143.876C145.886,-134.554 124.279,-122.919 105.744,-112.939"/>
<polygon fill="black" stroke="black" points="107.388,-109.849 96.9238,-108.19 104.069,-116.012 107.388,-109.849"/>
</g>
<!-- EXPECTATION -->
<g id="node3" class="node"><title>EXPECTATION</title>
<g id="a_node3"><a xlink:href="EXPECTATION.html" xlink:title=" Expectation &#160;" target="_top">
<path fill="none" stroke="black" d="M229,-108C229,-108 161,-108 161,-108 155,-108 149,-102 149,-96 149,-96 149,-84 149,-84 149,-78 155,-72 161,-72 161,-72 229,-72 229,-72 235,-72 241,-78 241,-84 241,-84 241,-96 241,-96 241,-102 235,-108 229,-108"/>
<text text-anchor="start" x="157" y="-86.3" font-family="Times,serif" font-size="14.00"> Expectation &#160;</text>
</a>
</g>
</g>
<!-- SUMMATIONS&#45;&gt;EXPECTATION -->
<g id="edge2" class="edge"><title>SUMMATIONS&#45;&gt;EXPECTATION</title>
<path fill="none" stroke="black" d="M195,-143.697C195,-135.983 195,-126.712 195,-118.112"/>
<polygon fill="black" stroke="black" points="198.5,-118.104 195,-108.104 191.5,-118.104 198.5,-118.104"/>
</g>
<!-- GEOMETRIC_SERIES -->
<g id="node4" class="node"><title>GEOMETRIC_SERIES</title>
<g id="a_node4"><a xlink:href="GEOMETRIC_SERIES.html" xlink:title=" Geometric series " target="_top">
<path fill="none" stroke="black" d="M212.5,-36C212.5,-36 121.5,-36 121.5,-36 115.5,-36 109.5,-30 109.5,-24 109.5,-24 109.5,-12 109.5,-12 109.5,-6 115.5,-0 121.5,-0 121.5,-0 212.5,-0 212.5,-0 218.5,-0 224.5,-6 224.5,-12 224.5,-12 224.5,-24 224.5,-24 224.5,-30 218.5,-36 212.5,-36"/>
<text text-anchor="start" x="117" y="-14.3" font-family="Times,serif" font-size="14.00"> Geometric series </text>
</a>
</g>
</g>
<!-- SUMMATIONS&#45;&gt;GEOMETRIC_SERIES -->
<g id="edge3" class="edge"><title>SUMMATIONS&#45;&gt;GEOMETRIC_SERIES</title>
<path fill="none" stroke="black" d="M220.38,-143.955C231.715,-134.786 243.878,-122.4 250,-108 256.26,-93.2752 257.688,-86.0317 250,-72 243.059,-59.3315 231.658,-49.2521 219.497,-41.4326"/>
<polygon fill="black" stroke="black" points="220.948,-38.2238 210.561,-36.1336 217.378,-44.2448 220.948,-38.2238"/>
</g>
<!-- INFORMATION_THEORY&#45;&gt;GEOMETRIC_SERIES -->
</g>
</svg>
