<?xml version="1.0" encoding="UTF-8" standalone="no"?>
<!DOCTYPE svg PUBLIC "-//W3C//DTD SVG 1.1//EN"
 "http://www.w3.org/Graphics/SVG/1.1/DTD/svg11.dtd">
<!-- Generated by graphviz version 2.26.3 (20100126.1600)
 -->
<!-- Title: _anonymous_0 Pages: 1 -->
<svg width="336pt" height="188pt"
 viewBox="0.00 0.00 336.00 188.00" xmlns="http://www.w3.org/2000/svg" xmlns:xlink="http://www.w3.org/1999/xlink">
<g id="graph1" class="graph" transform="scale(1 1) rotate(0) translate(4 184)">
<title>_anonymous_0</title>
<!-- SUMMATIONS -->
<g id="node1" class="node"><title>SUMMATIONS</title>
<a xlink:href="SUMMATIONS.html" xlink:title=" Summation and product notation " target="_top">
<polyline fill="none" stroke="blue" stroke-width="2" points="316,-180 86,-180 "/>
<path fill="none" stroke="blue" stroke-width="2" d="M86,-180C80,-180 74,-174 74,-168"/>
<polyline fill="none" stroke="blue" stroke-width="2" points="74,-168 74,-156 "/>
<path fill="none" stroke="blue" stroke-width="2" d="M74,-156C74,-150 80,-144 86,-144"/>
<polyline fill="none" stroke="blue" stroke-width="2" points="86,-144 316,-144 "/>
<path fill="none" stroke="blue" stroke-width="2" d="M316,-144C322,-144 328,-150 328,-156"/>
<polyline fill="none" stroke="blue" stroke-width="2" points="328,-156 328,-168 "/>
<path fill="none" stroke="blue" stroke-width="2" d="M328,-168C328,-174 322,-180 316,-180"/>
<text text-anchor="start" x="82" y="-159.233" font-family="Times Roman,serif" font-size="14.00"> Summation and product notation </text>
</a>
</g>
<!-- EXPECTATION -->
<g id="node2" class="node"><title>EXPECTATION</title>
<a xlink:href="EXPECTATION.html" xlink:title=" Expectation &#160;" target="_top">
<polyline fill="none" stroke="black" points="100,-108 12,-108 "/>
<path fill="none" stroke="black" d="M12,-108C6,-108 3.55271e-14,-102 2.84217e-14,-96"/>
<polyline fill="none" stroke="black" points="2.84217e-14,-96 1.42109e-14,-84 "/>
<path fill="none" stroke="black" d="M1.42109e-14,-84C7.10543e-15,-78 6,-72 12,-72"/>
<polyline fill="none" stroke="black" points="12,-72 100,-72 "/>
<path fill="none" stroke="black" d="M100,-72C106,-72 112,-78 112,-84"/>
<polyline fill="none" stroke="black" points="112,-84 112,-96 "/>
<path fill="none" stroke="black" d="M112,-96C112,-102 106,-108 100,-108"/>
<text text-anchor="start" x="8" y="-87.2333" font-family="Times Roman,serif" font-size="14.00"> Expectation &#160;</text>
</a>
</g>
<!-- SUMMATIONS&#45;&gt;EXPECTATION -->
<g id="edge2" class="edge"><title>SUMMATIONS&#45;&gt;EXPECTATION</title>
<path fill="none" stroke="black" d="M164.41,-143.831C145.276,-134.33 121.677,-122.612 101.388,-112.537"/>
<polygon fill="black" stroke="black" points="102.84,-109.351 92.3265,-108.038 99.7265,-115.62 102.84,-109.351"/>
</g>
<!-- GEOMETRIC_SERIES -->
<g id="node4" class="node"><title>GEOMETRIC_SERIES</title>
<a xlink:href="GEOMETRIC_SERIES.html" xlink:title=" Geometric series " target="_top">
<polyline fill="none" stroke="black" points="260,-108 142,-108 "/>
<path fill="none" stroke="black" d="M142,-108C136,-108 130,-102 130,-96"/>
<polyline fill="none" stroke="black" points="130,-96 130,-84 "/>
<path fill="none" stroke="black" d="M130,-84C130,-78 136,-72 142,-72"/>
<polyline fill="none" stroke="black" points="142,-72 260,-72 "/>
<path fill="none" stroke="black" d="M260,-72C266,-72 272,-78 272,-84"/>
<polyline fill="none" stroke="black" points="272,-84 272,-96 "/>
<path fill="none" stroke="black" d="M272,-96C272,-102 266,-108 260,-108"/>
<text text-anchor="start" x="138.5" y="-87.2333" font-family="Times Roman,serif" font-size="14.00"> Geometric series </text>
</a>
</g>
<!-- SUMMATIONS&#45;&gt;GEOMETRIC_SERIES -->
<g id="edge4" class="edge"><title>SUMMATIONS&#45;&gt;GEOMETRIC_SERIES</title>
<path fill="none" stroke="black" d="M201,-143.831C201,-136.131 201,-126.974 201,-118.417"/>
<polygon fill="black" stroke="black" points="204.5,-118.413 201,-108.413 197.5,-118.413 204.5,-118.413"/>
</g>
<!-- INFORMATION_THEORY -->
<g id="node6" class="node"><title>INFORMATION_THEORY</title>
<a xlink:href="INFORMATION_THEORY.html" xlink:title=" Information theory &#160;" target="_top">
<polyline fill="none" stroke="black" points="247,-36 109,-36 "/>
<path fill="none" stroke="black" d="M109,-36C103,-36 97,-30 97,-24"/>
<polyline fill="none" stroke="black" points="97,-24 97,-12 "/>
<path fill="none" stroke="black" d="M97,-12C97,-6 103,-1.72372e-14 109,-1.67109e-14"/>
<polyline fill="none" stroke="black" points="109,-1.67109e-14 247,-4.60537e-15 "/>
<path fill="none" stroke="black" d="M247,-4.60537e-15C253,-4.07904e-15 259,-6 259,-12"/>
<polyline fill="none" stroke="black" points="259,-12 259,-24 "/>
<path fill="none" stroke="black" d="M259,-24C259,-30 253,-36 247,-36"/>
<text text-anchor="start" x="105.5" y="-15.2333" font-family="Times Roman,serif" font-size="14.00"> Information theory &#160;</text>
</a>
</g>
<!-- SUMMATIONS&#45;&gt;INFORMATION_THEORY -->
<g id="edge6" class="edge"><title>SUMMATIONS&#45;&gt;INFORMATION_THEORY</title>
<path fill="none" stroke="black" d="M243.468,-143.771C258.084,-135.186 272.821,-123.389 281,-108 288.509,-93.8716 289.28,-85.6907 281,-72 272.986,-58.7492 260.528,-48.5912 247.009,-40.8622"/>
<polygon fill="black" stroke="black" points="248.487,-37.6851 238.007,-36.1258 245.227,-43.8799 248.487,-37.6851"/>
</g>
<!-- EXPECTATION&#45;&gt;INFORMATION_THEORY -->
</g>
</svg>
