<?xml version="1.0" encoding="UTF-8" standalone="no"?>
<!DOCTYPE svg PUBLIC "-//W3C//DTD SVG 1.1//EN"
 "http://www.w3.org/Graphics/SVG/1.1/DTD/svg11.dtd">
<!-- Generated by graphviz version 2.36.0 (20140111.2315)
 -->
<!-- Title: %3 Pages: 1 -->
<svg width="289pt" height="188pt"
 viewBox="0.00 0.00 289.00 188.00" xmlns="http://www.w3.org/2000/svg" xmlns:xlink="http://www.w3.org/1999/xlink">
<g id="graph0" class="graph" transform="scale(1 1) rotate(0) translate(4 184)">
<title>%3</title>
<!-- SUMMATIONS -->
<g id="node1" class="node"><title>SUMMATIONS</title>
<g id="a_node1"><a xlink:href="SUMMATIONS.html" xlink:title=" Summation and product notation " target="_top">
<path fill="none" stroke="blue" stroke-width="2" d="M269.5,-180C269.5,-180 90.5,-180 90.5,-180 84.5,-180 78.5,-174 78.5,-168 78.5,-168 78.5,-156 78.5,-156 78.5,-150 84.5,-144 90.5,-144 90.5,-144 269.5,-144 269.5,-144 275.5,-144 281.5,-150 281.5,-156 281.5,-156 281.5,-168 281.5,-168 281.5,-174 275.5,-180 269.5,-180"/>
<text text-anchor="start" x="86" y="-158.3" font-family="Times,serif" font-size="14.00"> Summation and product notation </text>
</a>
</g>
</g>
<!-- GEOMETRIC_SERIES -->
<g id="node2" class="node"><title>GEOMETRIC_SERIES</title>
<g id="a_node2"><a xlink:href="GEOMETRIC_SERIES.html" xlink:title=" Geometric series " target="_top">
<path fill="none" stroke="black" d="M103.5,-108C103.5,-108 12.5,-108 12.5,-108 6.5,-108 0.5,-102 0.5,-96 0.5,-96 0.5,-84 0.5,-84 0.5,-78 6.5,-72 12.5,-72 12.5,-72 103.5,-72 103.5,-72 109.5,-72 115.5,-78 115.5,-84 115.5,-84 115.5,-96 115.5,-96 115.5,-102 109.5,-108 103.5,-108"/>
<text text-anchor="start" x="8" y="-86.3" font-family="Times,serif" font-size="14.00"> Geometric series </text>
</a>
</g>
</g>
<!-- SUMMATIONS&#45;&gt;GEOMETRIC_SERIES -->
<g id="edge1" class="edge"><title>SUMMATIONS&#45;&gt;GEOMETRIC_SERIES</title>
<path fill="none" stroke="black" d="M150.155,-143.876C134.056,-134.639 113.999,-123.131 96.7116,-113.212"/>
<polygon fill="black" stroke="black" points="98.3748,-110.131 87.9593,-108.19 94.8911,-116.202 98.3748,-110.131"/>
</g>
<!-- EXPECTATION -->
<g id="node3" class="node"><title>EXPECTATION</title>
<g id="a_node3"><a xlink:href="EXPECTATION.html" xlink:title=" Expectation &#160;" target="_top">
<path fill="none" stroke="black" d="M214,-108C214,-108 146,-108 146,-108 140,-108 134,-102 134,-96 134,-96 134,-84 134,-84 134,-78 140,-72 146,-72 146,-72 214,-72 214,-72 220,-72 226,-78 226,-84 226,-84 226,-96 226,-96 226,-102 220,-108 214,-108"/>
<text text-anchor="start" x="142" y="-86.3" font-family="Times,serif" font-size="14.00"> Expectation &#160;</text>
</a>
</g>
</g>
<!-- SUMMATIONS&#45;&gt;EXPECTATION -->
<g id="edge2" class="edge"><title>SUMMATIONS&#45;&gt;EXPECTATION</title>
<path fill="none" stroke="black" d="M180,-143.697C180,-135.983 180,-126.712 180,-118.112"/>
<polygon fill="black" stroke="black" points="183.5,-118.104 180,-108.104 176.5,-118.104 183.5,-118.104"/>
</g>
<!-- INFORMATION_THEORY -->
<g id="node4" class="node"><title>INFORMATION_THEORY</title>
<g id="a_node4"><a xlink:href="INFORMATION_THEORY.html" xlink:title=" Information theory &#160;" target="_top">
<path fill="none" stroke="black" d="M209.25,-36C209.25,-36 102.75,-36 102.75,-36 96.75,-36 90.75,-30 90.75,-24 90.75,-24 90.75,-12 90.75,-12 90.75,-6 96.75,-0 102.75,-0 102.75,-0 209.25,-0 209.25,-0 215.25,-0 221.25,-6 221.25,-12 221.25,-12 221.25,-24 221.25,-24 221.25,-30 215.25,-36 209.25,-36"/>
<text text-anchor="start" x="98.5" y="-14.3" font-family="Times,serif" font-size="14.00"> Information theory &#160;</text>
</a>
</g>
</g>
<!-- SUMMATIONS&#45;&gt;INFORMATION_THEORY -->
<g id="edge3" class="edge"><title>SUMMATIONS&#45;&gt;INFORMATION_THEORY</title>
<path fill="none" stroke="black" d="M205.38,-143.955C216.715,-134.786 228.878,-122.4 235,-108 241.26,-93.2752 242.529,-86.1178 235,-72 228.308,-59.4524 217.181,-49.3498 205.36,-41.4669"/>
<polygon fill="black" stroke="black" points="207.031,-38.3857 196.682,-36.116 203.357,-44.344 207.031,-38.3857"/>
</g>
<!-- GEOMETRIC_SERIES&#45;&gt;INFORMATION_THEORY -->
</g>
</svg>
