<?xml version="1.0" encoding="UTF-8" standalone="no"?>
<!DOCTYPE svg PUBLIC "-//W3C//DTD SVG 1.1//EN"
 "http://www.w3.org/Graphics/SVG/1.1/DTD/svg11.dtd">
<!-- Generated by graphviz version 2.26.3 (20100126.1600)
 -->
<!-- Title: _anonymous_0 Pages: 1 -->
<svg width="265pt" height="116pt"
 viewBox="0.00 0.00 265.00 116.00" xmlns="http://www.w3.org/2000/svg" xmlns:xlink="http://www.w3.org/1999/xlink">
<g id="graph1" class="graph" transform="scale(1 1) rotate(0) translate(4 112)">
<title>_anonymous_0</title>
<!-- SUMMATIONS -->
<g id="node1" class="node"><title>SUMMATIONS</title>
<a xlink:href="SUMMATIONS.html" xlink:title="Summation and product notation" target="_top">
<polyline fill="none" stroke="blue" stroke-width="2" points="245,-108 23,-108 "/>
<path fill="none" stroke="blue" stroke-width="2" d="M23,-108C17,-108 11,-102 11,-96"/>
<polyline fill="none" stroke="blue" stroke-width="2" points="11,-96 11,-84 "/>
<path fill="none" stroke="blue" stroke-width="2" d="M11,-84C11,-78 17,-72 23,-72"/>
<polyline fill="none" stroke="blue" stroke-width="2" points="23,-72 245,-72 "/>
<path fill="none" stroke="blue" stroke-width="2" d="M245,-72C251,-72 257,-78 257,-84"/>
<polyline fill="none" stroke="blue" stroke-width="2" points="257,-84 257,-96 "/>
<path fill="none" stroke="blue" stroke-width="2" d="M257,-96C257,-102 251,-108 245,-108"/>
<text text-anchor="start" x="19.5" y="-87.2333" font-family="Times Roman,serif" font-size="14.00">Summation and product notation</text>
</a>
</g>
<!-- GEOMETRIC_SERIES -->
<g id="node2" class="node"><title>GEOMETRIC_SERIES</title>
<a xlink:href="GEOMETRIC_SERIES.html" xlink:title="Geometric series" target="_top">
<polyline fill="none" stroke="black" points="120,-36 12,-36 "/>
<path fill="none" stroke="black" d="M12,-36C6,-36 5.92119e-14,-30 4.73695e-14,-24"/>
<polyline fill="none" stroke="black" points="4.73695e-14,-24 2.36848e-14,-12 "/>
<path fill="none" stroke="black" d="M2.36848e-14,-12C1.18424e-14,-6 6,-1.71176e-14 12,-1.64717e-14"/>
<polyline fill="none" stroke="black" points="12,-1.64717e-14 120,-4.84461e-15 "/>
<path fill="none" stroke="black" d="M120,-4.84461e-15C126,-4.19866e-15 132,-6 132,-12"/>
<polyline fill="none" stroke="black" points="132,-12 132,-24 "/>
<path fill="none" stroke="black" d="M132,-24C132,-30 126,-36 120,-36"/>
<text text-anchor="start" x="8" y="-15.2333" font-family="Times Roman,serif" font-size="14.00">Geometric series</text>
</a>
</g>
<!-- SUMMATIONS&#45;&gt;GEOMETRIC_SERIES -->
<g id="edge2" class="edge"><title>SUMMATIONS&#45;&gt;GEOMETRIC_SERIES</title>
<path fill="none" stroke="black" d="M116.841,-71.8314C108.849,-63.3694 99.1962,-53.1489 90.4584,-43.8971"/>
<polygon fill="black" stroke="black" points="92.8011,-41.2802 83.3903,-36.4133 87.712,-46.0866 92.8011,-41.2802"/>
</g>
<!-- EXPECTATION -->
<g id="node4" class="node"><title>EXPECTATION</title>
<a xlink:href="EXPECTATION.html" xlink:title="Expectation " target="_top">
<polyline fill="none" stroke="black" points="242,-36 162,-36 "/>
<path fill="none" stroke="black" d="M162,-36C156,-36 150,-30 150,-24"/>
<polyline fill="none" stroke="black" points="150,-24 150,-12 "/>
<path fill="none" stroke="black" d="M150,-12C150,-6 156,-1.69437e-14 162,-1.61239e-14"/>
<polyline fill="none" stroke="black" points="162,-1.61239e-14 242,-5.19243e-15 "/>
<path fill="none" stroke="black" d="M242,-5.19243e-15C248,-4.37257e-15 254,-6 254,-12"/>
<polyline fill="none" stroke="black" points="254,-12 254,-24 "/>
<path fill="none" stroke="black" d="M254,-24C254,-30 248,-36 242,-36"/>
<text text-anchor="start" x="158.5" y="-15.2333" font-family="Times Roman,serif" font-size="14.00">Expectation </text>
</a>
</g>
<!-- SUMMATIONS&#45;&gt;EXPECTATION -->
<g id="edge4" class="edge"><title>SUMMATIONS&#45;&gt;EXPECTATION</title>
<path fill="none" stroke="black" d="M151.159,-71.8314C159.151,-63.3694 168.804,-53.1489 177.542,-43.8971"/>
<polygon fill="black" stroke="black" points="180.288,-46.0866 184.61,-36.4133 175.199,-41.2802 180.288,-46.0866"/>
</g>
</g>
</svg>
