<?xml version="1.0" encoding="UTF-8" standalone="no"?>
<!DOCTYPE svg PUBLIC "-//W3C//DTD SVG 1.1//EN"
 "http://www.w3.org/Graphics/SVG/1.1/DTD/svg11.dtd">
<!-- Generated by graphviz version 2.26.3 (20100126.1600)
 -->
<!-- Title: _anonymous_0 Pages: 1 -->
<svg width="658pt" height="404pt"
 viewBox="0.00 0.00 658.00 404.00" xmlns="http://www.w3.org/2000/svg" xmlns:xlink="http://www.w3.org/1999/xlink">
<g id="graph1" class="graph" transform="scale(1 1) rotate(0) translate(4 400)">
<title>_anonymous_0</title>
<!-- TAYLOR_SERIES -->
<g id="node1" class="node"><title>TAYLOR_SERIES</title>
<a xlink:href="TAYLOR_SERIES.html" xlink:title="One dimensional Taylor Series" target="_top">
<polyline fill="none" stroke="blue" stroke-width="2" points="554,-252 354,-252 "/>
<path fill="none" stroke="blue" stroke-width="2" d="M354,-252C348,-252 342,-246 342,-240"/>
<polyline fill="none" stroke="blue" stroke-width="2" points="342,-240 342,-228 "/>
<path fill="none" stroke="blue" stroke-width="2" d="M342,-228C342,-222 348,-216 354,-216"/>
<polyline fill="none" stroke="blue" stroke-width="2" points="354,-216 554,-216 "/>
<path fill="none" stroke="blue" stroke-width="2" d="M554,-216C560,-216 566,-222 566,-228"/>
<polyline fill="none" stroke="blue" stroke-width="2" points="566,-228 566,-240 "/>
<path fill="none" stroke="blue" stroke-width="2" d="M566,-240C566,-246 560,-252 554,-252"/>
<text text-anchor="start" x="350" y="-231.233" font-family="Times Roman,serif" font-size="14.00">One dimensional Taylor Series</text>
</a>
</g>
<!-- CONTINUOUS_TIME_MARKOV_CHAIN -->
<g id="node2" class="node"><title>CONTINUOUS_TIME_MARKOV_CHAIN</title>
<a xlink:href="CONTINUOUS_TIME_MARKOV_CHAIN.html" xlink:title="Markov chains in continuous time" target="_top">
<polyline fill="none" stroke="black" points="236,-180 12,-180 "/>
<path fill="none" stroke="black" d="M12,-180C6,-180 6.86858e-14,-174 5.21065e-14,-168"/>
<polyline fill="none" stroke="black" points="5.21065e-14,-168 1.89478e-14,-156 "/>
<path fill="none" stroke="black" d="M1.89478e-14,-156C2.36848e-15,-150 6,-144 12,-144"/>
<polyline fill="none" stroke="black" points="12,-144 236,-144 "/>
<path fill="none" stroke="black" d="M236,-144C242,-144 248,-150 248,-156"/>
<polyline fill="none" stroke="black" points="248,-156 248,-168 "/>
<path fill="none" stroke="black" d="M248,-168C248,-174 242,-180 236,-180"/>
<text text-anchor="start" x="8" y="-159.233" font-family="Times Roman,serif" font-size="14.00">Markov chains in continuous time</text>
</a>
</g>
<!-- TAYLOR_SERIES&#45;&gt;CONTINUOUS_TIME_MARKOV_CHAIN -->
<g id="edge2" class="edge"><title>TAYLOR_SERIES&#45;&gt;CONTINUOUS_TIME_MARKOV_CHAIN</title>
<path fill="none" stroke="black" d="M371.153,-215.924C324.087,-205.655 265.049,-192.774 216.477,-182.177"/>
<polygon fill="black" stroke="black" points="217.111,-178.733 206.595,-180.021 215.619,-185.572 217.111,-178.733"/>
</g>
<!-- THE_EXPONENTIAL_FUNCTION -->
<g id="node4" class="node"><title>THE_EXPONENTIAL_FUNCTION</title>
<a xlink:href="THE_EXPONENTIAL_FUNCTION.html" xlink:title="Exponential function" target="_top">
<polyline fill="none" stroke="black" points="414,-180 278,-180 "/>
<path fill="none" stroke="black" d="M278,-180C272,-180 266,-174 266,-168"/>
<polyline fill="none" stroke="black" points="266,-168 266,-156 "/>
<path fill="none" stroke="black" d="M266,-156C266,-150 272,-144 278,-144"/>
<polyline fill="none" stroke="black" points="278,-144 414,-144 "/>
<path fill="none" stroke="black" d="M414,-144C420,-144 426,-150 426,-156"/>
<polyline fill="none" stroke="black" points="426,-156 426,-168 "/>
<path fill="none" stroke="black" d="M426,-168C426,-174 420,-180 414,-180"/>
<text text-anchor="start" x="274.5" y="-159.233" font-family="Times Roman,serif" font-size="14.00">Exponential function</text>
</a>
</g>
<!-- TAYLOR_SERIES&#45;&gt;THE_EXPONENTIAL_FUNCTION -->
<g id="edge4" class="edge"><title>TAYLOR_SERIES&#45;&gt;THE_EXPONENTIAL_FUNCTION</title>
<path fill="none" stroke="black" d="M426.747,-215.831C413.061,-206.707 396.309,-195.539 381.617,-185.745"/>
<polygon fill="black" stroke="black" points="383.506,-182.798 373.244,-180.163 379.623,-188.622 383.506,-182.798"/>
</g>
<!-- EXPONENTIAL_GROWTH_DECAY -->
<g id="node10" class="node"><title>EXPONENTIAL_GROWTH_DECAY</title>
<a xlink:href="EXPONENTIAL_GROWTH_DECAY.html" xlink:title="Exponential growth/decay" target="_top">
<polyline fill="none" stroke="black" points="339,-108 165,-108 "/>
<path fill="none" stroke="black" d="M165,-108C159,-108 153,-102 153,-96"/>
<polyline fill="none" stroke="black" points="153,-96 153,-84 "/>
<path fill="none" stroke="black" d="M153,-84C153,-78 159,-72 165,-72"/>
<polyline fill="none" stroke="black" points="165,-72 339,-72 "/>
<path fill="none" stroke="black" d="M339,-72C345,-72 351,-78 351,-84"/>
<polyline fill="none" stroke="black" points="351,-84 351,-96 "/>
<path fill="none" stroke="black" d="M351,-96C351,-102 345,-108 339,-108"/>
<text text-anchor="start" x="161.5" y="-87.2333" font-family="Times Roman,serif" font-size="14.00">Exponential growth/decay</text>
</a>
</g>
<!-- TAYLOR_SERIES&#45;&gt;EXPONENTIAL_GROWTH_DECAY -->
<g id="edge10" class="edge"><title>TAYLOR_SERIES&#45;&gt;EXPONENTIAL_GROWTH_DECAY</title>
<path fill="none" stroke="black" d="M455.277,-215.669C455.639,-195.532 452.991,-163.469 435,-144 423.03,-131.047 389.354,-119.526 354.101,-110.487"/>
<polygon fill="black" stroke="black" points="354.682,-107.025 344.132,-108.005 352.99,-113.818 354.682,-107.025"/>
</g>
<!-- FUNDAMENTAL_THEOREM_OF_CALCULUS -->
<g id="node16" class="node"><title>FUNDAMENTAL_THEOREM_OF_CALCULUS</title>
<a xlink:href="FUNDAMENTAL_THEOREM_OF_CALCULUS.html" xlink:title="Fundamental theorem of calculus" target="_top">
<polyline fill="none" stroke="black" points="603,-108 381,-108 "/>
<path fill="none" stroke="black" d="M381,-108C375,-108 369,-102 369,-96"/>
<polyline fill="none" stroke="black" points="369,-96 369,-84 "/>
<path fill="none" stroke="black" d="M369,-84C369,-78 375,-72 381,-72"/>
<polyline fill="none" stroke="black" points="381,-72 603,-72 "/>
<path fill="none" stroke="black" d="M603,-72C609,-72 615,-78 615,-84"/>
<polyline fill="none" stroke="black" points="615,-84 615,-96 "/>
<path fill="none" stroke="black" d="M615,-96C615,-102 609,-108 603,-108"/>
<text text-anchor="start" x="377.5" y="-87.2333" font-family="Times Roman,serif" font-size="14.00">Fundamental theorem of calculus</text>
</a>
</g>
<!-- TAYLOR_SERIES&#45;&gt;FUNDAMENTAL_THEOREM_OF_CALCULUS -->
<g id="edge18" class="edge"><title>TAYLOR_SERIES&#45;&gt;FUNDAMENTAL_THEOREM_OF_CALCULUS</title>
<path fill="none" stroke="black" d="M458.813,-215.762C465.323,-191.093 476.995,-146.86 484.618,-117.973"/>
<polygon fill="black" stroke="black" points="488.059,-118.652 487.226,-108.09 481.291,-116.866 488.059,-118.652"/>
</g>
<!-- LHOPITALS_RULE -->
<g id="node18" class="node"><title>LHOPITALS_RULE</title>
<a xlink:href="LHOPITALS_RULE.html" xlink:title="l&#39;Hopital&#39;s Rule" target="_top">
<polyline fill="none" stroke="black" points="493,-36 401,-36 "/>
<path fill="none" stroke="black" d="M401,-36C395,-36 389,-30 389,-24"/>
<polyline fill="none" stroke="black" points="389,-24 389,-12 "/>
<path fill="none" stroke="black" d="M389,-12C389,-6 395,-1.70285e-14 401,-1.62935e-14"/>
<polyline fill="none" stroke="black" points="401,-1.62935e-14 493,-5.0228e-15 "/>
<path fill="none" stroke="black" d="M493,-5.0228e-15C499,-4.28776e-15 505,-6 505,-12"/>
<polyline fill="none" stroke="black" points="505,-12 505,-24 "/>
<path fill="none" stroke="black" d="M505,-24C505,-30 499,-36 493,-36"/>
<text text-anchor="start" x="397" y="-15.2333" font-family="Times Roman,serif" font-size="14.00">l&#39;Hopital&#39;s Rule</text>
</a>
</g>
<!-- TAYLOR_SERIES&#45;&gt;LHOPITALS_RULE -->
<g id="edge20" class="edge"><title>TAYLOR_SERIES&#45;&gt;LHOPITALS_RULE</title>
<path fill="none" stroke="black" d="M499.999,-215.935C564.176,-188.043 668.032,-131.469 624,-72 610.625,-53.9364 558.997,-39.4873 514.926,-30.0977"/>
<polygon fill="black" stroke="black" points="515.578,-26.6586 505.076,-28.0547 514.156,-33.5127 515.578,-26.6586"/>
</g>
<!-- CONTINUOUS_TIME_MARKOV_CHAIN&#45;&gt;EXPONENTIAL_GROWTH_DECAY -->
<!-- DEFINITION_OF_DERIVATIVE -->
<g id="node6" class="node"><title>DEFINITION_OF_DERIVATIVE</title>
<a xlink:href="DEFINITION_OF_DERIVATIVE.html" xlink:title="Differentiation" target="_top">
<polyline fill="none" stroke="black" points="414,-396 320,-396 "/>
<path fill="none" stroke="black" d="M320,-396C314,-396 308,-390 308,-384"/>
<polyline fill="none" stroke="black" points="308,-384 308,-372 "/>
<path fill="none" stroke="black" d="M308,-372C308,-366 314,-360 320,-360"/>
<polyline fill="none" stroke="black" points="320,-360 414,-360 "/>
<path fill="none" stroke="black" d="M414,-360C420,-360 426,-366 426,-372"/>
<polyline fill="none" stroke="black" points="426,-372 426,-384 "/>
<path fill="none" stroke="black" d="M426,-384C426,-390 420,-396 414,-396"/>
<text text-anchor="start" x="316" y="-375.233" font-family="Times Roman,serif" font-size="14.00">Differentiation</text>
</a>
</g>
<!-- DEFINITION_OF_DERIVATIVE&#45;&gt;TAYLOR_SERIES -->
<g id="edge6" class="edge"><title>DEFINITION_OF_DERIVATIVE&#45;&gt;TAYLOR_SERIES</title>
<path fill="none" stroke="black" d="M364.011,-359.737C361.822,-340.526 361.145,-310.075 374,-288 381.193,-275.649 392.474,-265.533 404.32,-257.535"/>
<polygon fill="black" stroke="black" points="406.391,-260.367 412.995,-252.083 402.666,-254.44 406.391,-260.367"/>
</g>
<!-- LIMITS -->
<g id="node13" class="node"><title>LIMITS</title>
<a xlink:href="LIMITS.html" xlink:title="Limit of a function" target="_top">
<polyline fill="none" stroke="black" points="513,-324 395,-324 "/>
<path fill="none" stroke="black" d="M395,-324C389,-324 383,-318 383,-312"/>
<polyline fill="none" stroke="black" points="383,-312 383,-300 "/>
<path fill="none" stroke="black" d="M383,-300C383,-294 389,-288 395,-288"/>
<polyline fill="none" stroke="black" points="395,-288 513,-288 "/>
<path fill="none" stroke="black" d="M513,-288C519,-288 525,-294 525,-300"/>
<polyline fill="none" stroke="black" points="525,-300 525,-312 "/>
<path fill="none" stroke="black" d="M525,-312C525,-318 519,-324 513,-324"/>
<text text-anchor="start" x="391" y="-303.233" font-family="Times Roman,serif" font-size="14.00">Limit of a function</text>
</a>
</g>
<!-- DEFINITION_OF_DERIVATIVE&#45;&gt;LIMITS -->
<!-- INTRODUCTION_TO_CONTINUITY -->
<g id="node8" class="node"><title>INTRODUCTION_TO_CONTINUITY</title>
<a xlink:href="INTRODUCTION_TO_CONTINUITY.html" xlink:title="Introduction to continuity" target="_top">
<polyline fill="none" stroke="black" points="638,-396 468,-396 "/>
<path fill="none" stroke="black" d="M468,-396C462,-396 456,-390 456,-384"/>
<polyline fill="none" stroke="black" points="456,-384 456,-372 "/>
<path fill="none" stroke="black" d="M456,-372C456,-366 462,-360 468,-360"/>
<polyline fill="none" stroke="black" points="468,-360 638,-360 "/>
<path fill="none" stroke="black" d="M638,-360C644,-360 650,-366 650,-372"/>
<polyline fill="none" stroke="black" points="650,-372 650,-384 "/>
<path fill="none" stroke="black" d="M650,-384C650,-390 644,-396 638,-396"/>
<text text-anchor="start" x="464" y="-375.233" font-family="Times Roman,serif" font-size="14.00">Introduction to continuity</text>
</a>
</g>
<!-- INTRODUCTION_TO_CONTINUITY&#45;&gt;TAYLOR_SERIES -->
<g id="edge8" class="edge"><title>INTRODUCTION_TO_CONTINUITY&#45;&gt;TAYLOR_SERIES</title>
<path fill="none" stroke="black" d="M553.069,-359.901C552.31,-340.551 548.626,-309.725 534,-288 525.867,-275.92 514.036,-265.818 501.956,-257.744"/>
<polygon fill="black" stroke="black" points="503.495,-254.578 493.165,-252.224 499.772,-260.506 503.495,-254.578"/>
</g>
<!-- EXPONENTIAL_GROWTH_DECAY&#45;&gt;LHOPITALS_RULE -->
<!-- LIMITS&#45;&gt;TAYLOR_SERIES -->
<g id="edge14" class="edge"><title>LIMITS&#45;&gt;TAYLOR_SERIES</title>
<path fill="none" stroke="black" d="M454,-287.831C454,-280.131 454,-270.974 454,-262.417"/>
<polygon fill="black" stroke="black" points="457.5,-262.413 454,-252.413 450.5,-262.413 457.5,-262.413"/>
</g>
</g>
</svg>
