<?xml version="1.0" encoding="UTF-8" standalone="no"?>
<!DOCTYPE svg PUBLIC "-//W3C//DTD SVG 1.1//EN"
 "http://www.w3.org/Graphics/SVG/1.1/DTD/svg11.dtd">
<!-- Generated by graphviz version 2.26.3 (20100126.1600)
 -->
<!-- Title: _anonymous_0 Pages: 1 -->
<svg width="564pt" height="404pt"
 viewBox="0.00 0.00 564.00 404.00" xmlns="http://www.w3.org/2000/svg" xmlns:xlink="http://www.w3.org/1999/xlink">
<g id="graph1" class="graph" transform="scale(1 1) rotate(0) translate(4 400)">
<title>_anonymous_0</title>
<!-- TAYLOR_SERIES -->
<g id="node1" class="node"><title>TAYLOR_SERIES</title>
<a xlink:href="TAYLOR_SERIES.html" xlink:title="One dimensional Taylor Series" target="_top">
<polyline fill="none" stroke="blue" stroke-width="2" points="460,-252 260,-252 "/>
<path fill="none" stroke="blue" stroke-width="2" d="M260,-252C254,-252 248,-246 248,-240"/>
<polyline fill="none" stroke="blue" stroke-width="2" points="248,-240 248,-228 "/>
<path fill="none" stroke="blue" stroke-width="2" d="M248,-228C248,-222 254,-216 260,-216"/>
<polyline fill="none" stroke="blue" stroke-width="2" points="260,-216 460,-216 "/>
<path fill="none" stroke="blue" stroke-width="2" d="M460,-216C466,-216 472,-222 472,-228"/>
<polyline fill="none" stroke="blue" stroke-width="2" points="472,-228 472,-240 "/>
<path fill="none" stroke="blue" stroke-width="2" d="M472,-240C472,-246 466,-252 460,-252"/>
<text text-anchor="start" x="256" y="-231.233" font-family="Times Roman,serif" font-size="14.00">One dimensional Taylor Series</text>
</a>
</g>
<!-- EXPONENTIAL_GROWTH_DECAY -->
<g id="node2" class="node"><title>EXPONENTIAL_GROWTH_DECAY</title>
<a xlink:href="EXPONENTIAL_GROWTH_DECAY.html" xlink:title="Exponential growth/decay" target="_top">
<polyline fill="none" stroke="black" points="186,-180 12,-180 "/>
<path fill="none" stroke="black" d="M12,-180C6,-180 5.92119e-14,-174 4.73695e-14,-168"/>
<polyline fill="none" stroke="black" points="4.73695e-14,-168 2.36848e-14,-156 "/>
<path fill="none" stroke="black" d="M2.36848e-14,-156C1.18424e-14,-150 6,-144 12,-144"/>
<polyline fill="none" stroke="black" points="12,-144 186,-144 "/>
<path fill="none" stroke="black" d="M186,-144C192,-144 198,-150 198,-156"/>
<polyline fill="none" stroke="black" points="198,-156 198,-168 "/>
<path fill="none" stroke="black" d="M198,-168C198,-174 192,-180 186,-180"/>
<text text-anchor="start" x="8.5" y="-159.233" font-family="Times Roman,serif" font-size="14.00">Exponential growth/decay</text>
</a>
</g>
<!-- TAYLOR_SERIES&#45;&gt;EXPONENTIAL_GROWTH_DECAY -->
<g id="edge2" class="edge"><title>TAYLOR_SERIES&#45;&gt;EXPONENTIAL_GROWTH_DECAY</title>
<path fill="none" stroke="black" d="M294.476,-215.924C258.02,-205.868 212.481,-193.305 174.531,-182.836"/>
<polygon fill="black" stroke="black" points="175.122,-179.369 164.551,-180.083 173.261,-186.116 175.122,-179.369"/>
</g>
<!-- LHOPITALS_RULE -->
<g id="node6" class="node"><title>LHOPITALS_RULE</title>
<a xlink:href="LHOPITALS_RULE.html" xlink:title="l&#39;Hopital&#39;s Rule" target="_top">
<polyline fill="none" stroke="black" points="320,-180 228,-180 "/>
<path fill="none" stroke="black" d="M228,-180C222,-180 216,-174 216,-168"/>
<polyline fill="none" stroke="black" points="216,-168 216,-156 "/>
<path fill="none" stroke="black" d="M216,-156C216,-150 222,-144 228,-144"/>
<polyline fill="none" stroke="black" points="228,-144 320,-144 "/>
<path fill="none" stroke="black" d="M320,-144C326,-144 332,-150 332,-156"/>
<polyline fill="none" stroke="black" points="332,-156 332,-168 "/>
<path fill="none" stroke="black" d="M332,-168C332,-174 326,-180 320,-180"/>
<text text-anchor="start" x="224" y="-159.233" font-family="Times Roman,serif" font-size="14.00">l&#39;Hopital&#39;s Rule</text>
</a>
</g>
<!-- TAYLOR_SERIES&#45;&gt;LHOPITALS_RULE -->
<g id="edge6" class="edge"><title>TAYLOR_SERIES&#45;&gt;LHOPITALS_RULE</title>
<path fill="none" stroke="black" d="M338.299,-215.831C327.808,-207.048 315.054,-196.371 303.681,-186.849"/>
<polygon fill="black" stroke="black" points="305.609,-183.899 295.694,-180.163 301.115,-189.266 305.609,-183.899"/>
</g>
<!-- CONTINUOUS_TIME_MARKOV_CHAIN -->
<g id="node8" class="node"><title>CONTINUOUS_TIME_MARKOV_CHAIN</title>
<a xlink:href="CONTINUOUS_TIME_MARKOV_CHAIN.html" xlink:title="Markov chains in continuous time" target="_top">
<polyline fill="none" stroke="black" points="245,-108 21,-108 "/>
<path fill="none" stroke="black" d="M21,-108C15,-108 9,-102 9,-96"/>
<polyline fill="none" stroke="black" points="9,-96 9,-84 "/>
<path fill="none" stroke="black" d="M9,-84C9,-78 15,-72 21,-72"/>
<polyline fill="none" stroke="black" points="21,-72 245,-72 "/>
<path fill="none" stroke="black" d="M245,-72C251,-72 257,-78 257,-84"/>
<polyline fill="none" stroke="black" points="257,-84 257,-96 "/>
<path fill="none" stroke="black" d="M257,-96C257,-102 251,-108 245,-108"/>
<text text-anchor="start" x="17" y="-87.2333" font-family="Times Roman,serif" font-size="14.00">Markov chains in continuous time</text>
</a>
</g>
<!-- TAYLOR_SERIES&#45;&gt;CONTINUOUS_TIME_MARKOV_CHAIN -->
<g id="edge8" class="edge"><title>TAYLOR_SERIES&#45;&gt;CONTINUOUS_TIME_MARKOV_CHAIN</title>
<path fill="none" stroke="black" d="M361.386,-215.923C361.893,-195.71 359.42,-163.286 341,-144 327.931,-130.316 292.563,-118.998 254.618,-110.32"/>
<polygon fill="black" stroke="black" points="254.919,-106.802 244.398,-108.057 253.405,-113.636 254.919,-106.802"/>
</g>
<!-- FUNDAMENTAL_THEOREM_OF_CALCULUS -->
<g id="node11" class="node"><title>FUNDAMENTAL_THEOREM_OF_CALCULUS</title>
<a xlink:href="FUNDAMENTAL_THEOREM_OF_CALCULUS.html" xlink:title="Fundamental theorem of calculus" target="_top">
<polyline fill="none" stroke="black" points="509,-108 287,-108 "/>
<path fill="none" stroke="black" d="M287,-108C281,-108 275,-102 275,-96"/>
<polyline fill="none" stroke="black" points="275,-96 275,-84 "/>
<path fill="none" stroke="black" d="M275,-84C275,-78 281,-72 287,-72"/>
<polyline fill="none" stroke="black" points="287,-72 509,-72 "/>
<path fill="none" stroke="black" d="M509,-72C515,-72 521,-78 521,-84"/>
<polyline fill="none" stroke="black" points="521,-84 521,-96 "/>
<path fill="none" stroke="black" d="M521,-96C521,-102 515,-108 509,-108"/>
<text text-anchor="start" x="283.5" y="-87.2333" font-family="Times Roman,serif" font-size="14.00">Fundamental theorem of calculus</text>
</a>
</g>
<!-- TAYLOR_SERIES&#45;&gt;FUNDAMENTAL_THEOREM_OF_CALCULUS -->
<g id="edge12" class="edge"><title>TAYLOR_SERIES&#45;&gt;FUNDAMENTAL_THEOREM_OF_CALCULUS</title>
<path fill="none" stroke="black" d="M364.813,-215.762C371.323,-191.093 382.995,-146.86 390.618,-117.973"/>
<polygon fill="black" stroke="black" points="394.059,-118.652 393.226,-108.09 387.291,-116.866 394.059,-118.652"/>
</g>
<!-- THE_EXPONENTIAL_FUNCTION -->
<g id="node18" class="node"><title>THE_EXPONENTIAL_FUNCTION</title>
<a xlink:href="THE_EXPONENTIAL_FUNCTION.html" xlink:title="Exponential function" target="_top">
<polyline fill="none" stroke="black" points="409,-36 273,-36 "/>
<path fill="none" stroke="black" d="M273,-36C267,-36 261,-30 261,-24"/>
<polyline fill="none" stroke="black" points="261,-24 261,-12 "/>
<path fill="none" stroke="black" d="M261,-12C261,-6 267,-1.72307e-14 273,-1.66978e-14"/>
<polyline fill="none" stroke="black" points="273,-1.66978e-14 409,-4.61853e-15 "/>
<path fill="none" stroke="black" d="M409,-4.61853e-15C415,-4.08562e-15 421,-6 421,-12"/>
<polyline fill="none" stroke="black" points="421,-12 421,-24 "/>
<path fill="none" stroke="black" d="M421,-24C421,-30 415,-36 409,-36"/>
<text text-anchor="start" x="269.5" y="-15.2333" font-family="Times Roman,serif" font-size="14.00">Exponential function</text>
</a>
</g>
<!-- TAYLOR_SERIES&#45;&gt;THE_EXPONENTIAL_FUNCTION -->
<g id="edge20" class="edge"><title>TAYLOR_SERIES&#45;&gt;THE_EXPONENTIAL_FUNCTION</title>
<path fill="none" stroke="black" d="M405.868,-215.951C470.196,-187.97 574.621,-131.155 530,-72 517.369,-55.2551 473.291,-42.1405 430.878,-33.0307"/>
<polygon fill="black" stroke="black" points="431.517,-29.5886 421.013,-30.9749 430.089,-36.4414 431.517,-29.5886"/>
</g>
<!-- EXPONENTIAL_GROWTH_DECAY&#45;&gt;CONTINUOUS_TIME_MARKOV_CHAIN -->
<!-- DEFINITION_OF_DERIVATIVE -->
<g id="node4" class="node"><title>DEFINITION_OF_DERIVATIVE</title>
<a xlink:href="DEFINITION_OF_DERIVATIVE.html" xlink:title="Differentiation" target="_top">
<polyline fill="none" stroke="black" points="333,-396 239,-396 "/>
<path fill="none" stroke="black" d="M239,-396C233,-396 227,-390 227,-384"/>
<polyline fill="none" stroke="black" points="227,-384 227,-372 "/>
<path fill="none" stroke="black" d="M227,-372C227,-366 233,-360 239,-360"/>
<polyline fill="none" stroke="black" points="239,-360 333,-360 "/>
<path fill="none" stroke="black" d="M333,-360C339,-360 345,-366 345,-372"/>
<polyline fill="none" stroke="black" points="345,-372 345,-384 "/>
<path fill="none" stroke="black" d="M345,-384C345,-390 339,-396 333,-396"/>
<text text-anchor="start" x="235" y="-375.233" font-family="Times Roman,serif" font-size="14.00">Differentiation</text>
</a>
</g>
<!-- DEFINITION_OF_DERIVATIVE&#45;&gt;TAYLOR_SERIES -->
<g id="edge4" class="edge"><title>DEFINITION_OF_DERIVATIVE&#45;&gt;TAYLOR_SERIES</title>
<path fill="none" stroke="black" d="M270.547,-359.773C256.506,-340.862 239.962,-310.906 254,-288 262.189,-274.638 274.836,-264.453 288.579,-256.736"/>
<polygon fill="black" stroke="black" points="290.451,-259.708 297.732,-252.012 287.241,-253.488 290.451,-259.708"/>
</g>
<!-- INTRODUCTION_TO_CONTINUITY -->
<g id="node15" class="node"><title>INTRODUCTION_TO_CONTINUITY</title>
<a xlink:href="INTRODUCTION_TO_CONTINUITY.html" xlink:title="Introduction to continuity" target="_top">
<polyline fill="none" stroke="black" points="445,-324 275,-324 "/>
<path fill="none" stroke="black" d="M275,-324C269,-324 263,-318 263,-312"/>
<polyline fill="none" stroke="black" points="263,-312 263,-300 "/>
<path fill="none" stroke="black" d="M263,-300C263,-294 269,-288 275,-288"/>
<polyline fill="none" stroke="black" points="275,-288 445,-288 "/>
<path fill="none" stroke="black" d="M445,-288C451,-288 457,-294 457,-300"/>
<polyline fill="none" stroke="black" points="457,-300 457,-312 "/>
<path fill="none" stroke="black" d="M457,-312C457,-318 451,-324 445,-324"/>
<text text-anchor="start" x="271" y="-303.233" font-family="Times Roman,serif" font-size="14.00">Introduction to continuity</text>
</a>
</g>
<!-- DEFINITION_OF_DERIVATIVE&#45;&gt;INTRODUCTION_TO_CONTINUITY -->
<!-- CONTINUOUS_TIME_MARKOV_CHAIN&#45;&gt;THE_EXPONENTIAL_FUNCTION -->
<!-- LIMITS -->
<g id="node13" class="node"><title>LIMITS</title>
<a xlink:href="LIMITS.html" xlink:title="Limit of a function" target="_top">
<polyline fill="none" stroke="black" points="544,-396 426,-396 "/>
<path fill="none" stroke="black" d="M426,-396C420,-396 414,-390 414,-384"/>
<polyline fill="none" stroke="black" points="414,-384 414,-372 "/>
<path fill="none" stroke="black" d="M414,-372C414,-366 420,-360 426,-360"/>
<polyline fill="none" stroke="black" points="426,-360 544,-360 "/>
<path fill="none" stroke="black" d="M544,-360C550,-360 556,-366 556,-372"/>
<polyline fill="none" stroke="black" points="556,-372 556,-384 "/>
<path fill="none" stroke="black" d="M556,-384C556,-390 550,-396 544,-396"/>
<text text-anchor="start" x="422" y="-375.233" font-family="Times Roman,serif" font-size="14.00">Limit of a function</text>
</a>
</g>
<!-- LIMITS&#45;&gt;TAYLOR_SERIES -->
<g id="edge14" class="edge"><title>LIMITS&#45;&gt;TAYLOR_SERIES</title>
<path fill="none" stroke="black" d="M485.58,-359.897C485.287,-340.257 482.027,-308.915 466,-288 455.857,-274.764 441.568,-264.505 426.757,-256.662"/>
<polygon fill="black" stroke="black" points="428.015,-253.38 417.5,-252.086 424.913,-259.655 428.015,-253.38"/>
</g>
<!-- INTRODUCTION_TO_CONTINUITY&#45;&gt;TAYLOR_SERIES -->
<g id="edge16" class="edge"><title>INTRODUCTION_TO_CONTINUITY&#45;&gt;TAYLOR_SERIES</title>
<path fill="none" stroke="black" d="M360,-287.831C360,-280.131 360,-270.974 360,-262.417"/>
<polygon fill="black" stroke="black" points="363.5,-262.413 360,-252.413 356.5,-262.413 363.5,-262.413"/>
</g>
</g>
</svg>
