<?xml version="1.0" encoding="UTF-8" standalone="no"?>
<!DOCTYPE svg PUBLIC "-//W3C//DTD SVG 1.1//EN"
 "http://www.w3.org/Graphics/SVG/1.1/DTD/svg11.dtd">
<!-- Generated by graphviz version 2.28.0 (20110509.1545)
 -->
<!-- Title: _anonymous_0 Pages: 1 -->
<svg width="363pt" height="188pt"
 viewBox="0.00 0.00 363.00 188.00" xmlns="http://www.w3.org/2000/svg" xmlns:xlink="http://www.w3.org/1999/xlink">
<g id="graph1" class="graph" transform="scale(1 1) rotate(0) translate(4 184)">
<title>_anonymous_0</title>
<!-- TAYLOR_SERIES -->
<g id="node1" class="node"><title>TAYLOR_SERIES</title>
<a xlink:href="TAYLOR_SERIES.html" xlink:title="One dimensional Taylor Series" target="_top">
<polyline fill="none" stroke="blue" stroke-width="2" points="276.25,-108 111.75,-108 "/>
<path fill="none" stroke="blue" stroke-width="2" d="M111.75,-108C105.75,-108 99.75,-102 99.75,-96"/>
<polyline fill="none" stroke="blue" stroke-width="2" points="99.75,-96 99.75,-84 "/>
<path fill="none" stroke="blue" stroke-width="2" d="M99.75,-84C99.75,-78 105.75,-72 111.75,-72"/>
<polyline fill="none" stroke="blue" stroke-width="2" points="111.75,-72 276.25,-72 "/>
<path fill="none" stroke="blue" stroke-width="2" d="M276.25,-72C282.25,-72 288.25,-78 288.25,-84"/>
<polyline fill="none" stroke="blue" stroke-width="2" points="288.25,-84 288.25,-96 "/>
<path fill="none" stroke="blue" stroke-width="2" d="M288.25,-96C288.25,-102 282.25,-108 276.25,-108"/>
<text text-anchor="start" x="108" y="-84.5" font-family="Times,serif" font-size="14.00">One dimensional Taylor Series</text>
</a>
</g>
<!-- FUNDAMENTAL_THEOREM_OF_CALCULUS -->
<g id="node4" class="node"><title>FUNDAMENTAL_THEOREM_OF_CALCULUS</title>
<a xlink:href="FUNDAMENTAL_THEOREM_OF_CALCULUS.html" xlink:title="Fundamental theorem of calculus" target="_top">
<polyline fill="none" stroke="black" points="190.25,-36 11.75,-36 "/>
<path fill="none" stroke="black" d="M11.75,-36C5.75,-36 -0.25,-30 -0.25,-24"/>
<polyline fill="none" stroke="black" points="-0.25,-24 -0.25,-12 "/>
<path fill="none" stroke="black" d="M-0.25,-12C-0.25,-6 5.75,-0 11.75,-0"/>
<polyline fill="none" stroke="black" points="11.75,-0 190.25,-0 "/>
<path fill="none" stroke="black" d="M190.25,-0C196.25,-0 202.25,-6 202.25,-12"/>
<polyline fill="none" stroke="black" points="202.25,-12 202.25,-24 "/>
<path fill="none" stroke="black" d="M202.25,-24C202.25,-30 196.25,-36 190.25,-36"/>
<text text-anchor="start" x="8" y="-12.5" font-family="Times,serif" font-size="14.00">Fundamental theorem of calculus</text>
</a>
</g>
<!-- TAYLOR_SERIES&#45;&gt;FUNDAMENTAL_THEOREM_OF_CALCULUS -->
<g id="edge4" class="edge"><title>TAYLOR_SERIES&#45;&gt;FUNDAMENTAL_THEOREM_OF_CALCULUS</title>
<path fill="none" stroke="black" d="M171.011,-71.6966C159.186,-62.796 144.608,-51.8232 131.821,-42.1989"/>
<polygon fill="black" stroke="black" points="133.819,-39.3217 123.724,-36.1043 129.609,-44.9145 133.819,-39.3217"/>
</g>
<!-- THE_EXPONENTIAL_FUNCTION -->
<g id="node8" class="node"><title>THE_EXPONENTIAL_FUNCTION</title>
<a xlink:href="THE_EXPONENTIAL_FUNCTION.html" xlink:title="Exponential function" target="_top">
<polyline fill="none" stroke="black" points="343,-36 233,-36 "/>
<path fill="none" stroke="black" d="M233,-36C227,-36 221,-30 221,-24"/>
<polyline fill="none" stroke="black" points="221,-24 221,-12 "/>
<path fill="none" stroke="black" d="M221,-12C221,-6 227,-0 233,-0"/>
<polyline fill="none" stroke="black" points="233,-0 343,-0 "/>
<path fill="none" stroke="black" d="M343,-0C349,-0 355,-6 355,-12"/>
<polyline fill="none" stroke="black" points="355,-12 355,-24 "/>
<path fill="none" stroke="black" d="M355,-24C355,-30 349,-36 343,-36"/>
<text text-anchor="start" x="229.5" y="-12.5" font-family="Times,serif" font-size="14.00">Exponential function</text>
</a>
</g>
<!-- TAYLOR_SERIES&#45;&gt;THE_EXPONENTIAL_FUNCTION -->
<g id="edge8" class="edge"><title>TAYLOR_SERIES&#45;&gt;THE_EXPONENTIAL_FUNCTION</title>
<path fill="none" stroke="black" d="M217.236,-71.6966C229.188,-62.796 243.923,-51.8232 256.847,-42.1989"/>
<polygon fill="black" stroke="black" points="259.101,-44.8842 265.031,-36.1043 254.92,-39.2699 259.101,-44.8842"/>
</g>
<!-- DEFINITION_OF_DERIVATIVE -->
<g id="node2" class="node"><title>DEFINITION_OF_DERIVATIVE</title>
<a xlink:href="DEFINITION_OF_DERIVATIVE.html" xlink:title="Differentiation" target="_top">
<polyline fill="none" stroke="black" points="157.25,-180 82.75,-180 "/>
<path fill="none" stroke="black" d="M82.75,-180C76.75,-180 70.75,-174 70.75,-168"/>
<polyline fill="none" stroke="black" points="70.75,-168 70.75,-156 "/>
<path fill="none" stroke="black" d="M70.75,-156C70.75,-150 76.75,-144 82.75,-144"/>
<polyline fill="none" stroke="black" points="82.75,-144 157.25,-144 "/>
<path fill="none" stroke="black" d="M157.25,-144C163.25,-144 169.25,-150 169.25,-156"/>
<polyline fill="none" stroke="black" points="169.25,-156 169.25,-168 "/>
<path fill="none" stroke="black" d="M169.25,-168C169.25,-174 163.25,-180 157.25,-180"/>
<text text-anchor="start" x="79" y="-156.5" font-family="Times,serif" font-size="14.00">Differentiation</text>
</a>
</g>
<!-- DEFINITION_OF_DERIVATIVE&#45;&gt;TAYLOR_SERIES -->
<g id="edge2" class="edge"><title>DEFINITION_OF_DERIVATIVE&#45;&gt;TAYLOR_SERIES</title>
<path fill="none" stroke="black" d="M138.292,-143.697C147.433,-135.05 158.64,-124.449 168.6,-115.027"/>
<polygon fill="black" stroke="black" points="171.059,-117.519 175.918,-108.104 166.248,-112.434 171.059,-117.519"/>
</g>
<!-- INTRODUCTION_TO_CONTINUITY -->
<g id="node6" class="node"><title>INTRODUCTION_TO_CONTINUITY</title>
<a xlink:href="INTRODUCTION_TO_CONTINUITY.html" xlink:title="Introduction to continuity" target="_top">
<polyline fill="none" stroke="black" points="336,-180 200,-180 "/>
<path fill="none" stroke="black" d="M200,-180C194,-180 188,-174 188,-168"/>
<polyline fill="none" stroke="black" points="188,-168 188,-156 "/>
<path fill="none" stroke="black" d="M188,-156C188,-150 194,-144 200,-144"/>
<polyline fill="none" stroke="black" points="200,-144 336,-144 "/>
<path fill="none" stroke="black" d="M336,-144C342,-144 348,-150 348,-156"/>
<polyline fill="none" stroke="black" points="348,-156 348,-168 "/>
<path fill="none" stroke="black" d="M348,-168C348,-174 342,-180 336,-180"/>
<text text-anchor="start" x="196.5" y="-156.5" font-family="Times,serif" font-size="14.00">Introduction to continuity</text>
</a>
</g>
<!-- INTRODUCTION_TO_CONTINUITY&#45;&gt;TAYLOR_SERIES -->
<g id="edge6" class="edge"><title>INTRODUCTION_TO_CONTINUITY&#45;&gt;TAYLOR_SERIES</title>
<path fill="none" stroke="black" d="M249.708,-143.697C240.567,-135.05 229.36,-124.449 219.4,-115.027"/>
<polygon fill="black" stroke="black" points="221.752,-112.434 212.082,-108.104 216.941,-117.519 221.752,-112.434"/>
</g>
</g>
</svg>
