<?xml version="1.0" encoding="UTF-8" standalone="no"?>
<!DOCTYPE svg PUBLIC "-//W3C//DTD SVG 1.1//EN"
 "http://www.w3.org/Graphics/SVG/1.1/DTD/svg11.dtd">
<!-- Generated by graphviz version 2.36.0 (20140111.2315)
 -->
<!-- Title: %3 Pages: 1 -->
<svg width="621pt" height="404pt"
 viewBox="0.00 0.00 621.00 404.00" xmlns="http://www.w3.org/2000/svg" xmlns:xlink="http://www.w3.org/1999/xlink">
<g id="graph0" class="graph" transform="scale(1 1) rotate(0) translate(4 400)">
<title>%3</title>
<!-- TAYLOR_SERIES -->
<g id="node1" class="node"><title>TAYLOR_SERIES</title>
<g id="a_node1"><a xlink:href="TAYLOR_SERIES.html" xlink:title=" One dimensional Taylor Series " target="_top">
<path fill="none" stroke="blue" stroke-width="2" d="M549.5,-252C549.5,-252 380.5,-252 380.5,-252 374.5,-252 368.5,-246 368.5,-240 368.5,-240 368.5,-228 368.5,-228 368.5,-222 374.5,-216 380.5,-216 380.5,-216 549.5,-216 549.5,-216 555.5,-216 561.5,-222 561.5,-228 561.5,-228 561.5,-240 561.5,-240 561.5,-246 555.5,-252 549.5,-252"/>
<text text-anchor="start" x="376" y="-230.3" font-family="Times,serif" font-size="14.00"> One dimensional Taylor Series </text>
</a>
</g>
</g>
<!-- FUNDAMENTAL_THEOREM_OF_CALCULUS -->
<g id="node3" class="node"><title>FUNDAMENTAL_THEOREM_OF_CALCULUS</title>
<g id="a_node3"><a xlink:href="FUNDAMENTAL_THEOREM_OF_CALCULUS.html" xlink:title=" Fundamental theorem of calculus " target="_top">
<path fill="none" stroke="black" d="M194.25,-180C194.25,-180 11.75,-180 11.75,-180 5.75,-180 -0.25,-174 -0.25,-168 -0.25,-168 -0.25,-156 -0.25,-156 -0.25,-150 5.75,-144 11.75,-144 11.75,-144 194.25,-144 194.25,-144 200.25,-144 206.25,-150 206.25,-156 206.25,-156 206.25,-168 206.25,-168 206.25,-174 200.25,-180 194.25,-180"/>
<text text-anchor="start" x="7.5" y="-158.3" font-family="Times,serif" font-size="14.00"> Fundamental theorem of calculus </text>
</a>
</g>
</g>
<!-- TAYLOR_SERIES&#45;&gt;FUNDAMENTAL_THEOREM_OF_CALCULUS -->
<g id="edge2" class="edge"><title>TAYLOR_SERIES&#45;&gt;FUNDAMENTAL_THEOREM_OF_CALCULUS</title>
<path fill="none" stroke="black" d="M376.908,-215.966C323.811,-205.698 256.079,-192.601 201.254,-181.999"/>
<polygon fill="black" stroke="black" points="201.656,-178.512 191.173,-180.05 200.327,-185.385 201.656,-178.512"/>
</g>
<!-- CONTINUOUS_TIME_MARKOV_CHAIN -->
<g id="node5" class="node"><title>CONTINUOUS_TIME_MARKOV_CHAIN</title>
<g id="a_node5"><a xlink:href="CONTINUOUS_TIME_MARKOV_CHAIN.html" xlink:title=" Markov chains in continuous time " target="_top">
<path fill="none" stroke="black" d="M424.5,-180C424.5,-180 237.5,-180 237.5,-180 231.5,-180 225.5,-174 225.5,-168 225.5,-168 225.5,-156 225.5,-156 225.5,-150 231.5,-144 237.5,-144 237.5,-144 424.5,-144 424.5,-144 430.5,-144 436.5,-150 436.5,-156 436.5,-156 436.5,-168 436.5,-168 436.5,-174 430.5,-180 424.5,-180"/>
<text text-anchor="start" x="233" y="-158.3" font-family="Times,serif" font-size="14.00"> Markov chains in continuous time </text>
</a>
</g>
</g>
<!-- TAYLOR_SERIES&#45;&gt;CONTINUOUS_TIME_MARKOV_CHAIN -->
<g id="edge4" class="edge"><title>TAYLOR_SERIES&#45;&gt;CONTINUOUS_TIME_MARKOV_CHAIN</title>
<path fill="none" stroke="black" d="M432.22,-215.876C414.375,-206.554 392.103,-194.919 372.997,-184.939"/>
<polygon fill="black" stroke="black" points="374.39,-181.718 363.906,-180.19 371.149,-187.922 374.39,-181.718"/>
</g>
<!-- THE_EXPONENTIAL_FUNCTION -->
<g id="node7" class="node"><title>THE_EXPONENTIAL_FUNCTION</title>
<g id="a_node7"><a xlink:href="THE_EXPONENTIAL_FUNCTION.html" xlink:title=" Exponential function " target="_top">
<path fill="none" stroke="black" d="M419,-108C419,-108 305,-108 305,-108 299,-108 293,-102 293,-96 293,-96 293,-84 293,-84 293,-78 299,-72 305,-72 305,-72 419,-72 419,-72 425,-72 431,-78 431,-84 431,-84 431,-96 431,-96 431,-102 425,-108 419,-108"/>
<text text-anchor="start" x="301" y="-86.3" font-family="Times,serif" font-size="14.00"> Exponential function </text>
</a>
</g>
</g>
<!-- TAYLOR_SERIES&#45;&gt;THE_EXPONENTIAL_FUNCTION -->
<g id="edge7" class="edge"><title>TAYLOR_SERIES&#45;&gt;THE_EXPONENTIAL_FUNCTION</title>
<path fill="none" stroke="black" d="M464.921,-215.714C464.025,-196.554 460.098,-165.521 445,-144 436.224,-131.491 423.459,-121.256 410.561,-113.233"/>
<polygon fill="black" stroke="black" points="412.057,-110.053 401.657,-108.03 408.525,-116.097 412.057,-110.053"/>
</g>
<!-- LHOPITALS_RULE -->
<g id="node8" class="node"><title>LHOPITALS_RULE</title>
<g id="a_node8"><a xlink:href="LHOPITALS_RULE.html" xlink:title=" l&#39;Hopital&#39;s Rule " target="_top">
<path fill="none" stroke="black" d="M544.25,-108C544.25,-108 461.75,-108 461.75,-108 455.75,-108 449.75,-102 449.75,-96 449.75,-96 449.75,-84 449.75,-84 449.75,-78 455.75,-72 461.75,-72 461.75,-72 544.25,-72 544.25,-72 550.25,-72 556.25,-78 556.25,-84 556.25,-84 556.25,-96 556.25,-96 556.25,-102 550.25,-108 544.25,-108"/>
<text text-anchor="start" x="457.5" y="-86.3" font-family="Times,serif" font-size="14.00"> l&#39;Hopital&#39;s Rule </text>
</a>
</g>
</g>
<!-- TAYLOR_SERIES&#45;&gt;LHOPITALS_RULE -->
<g id="edge9" class="edge"><title>TAYLOR_SERIES&#45;&gt;LHOPITALS_RULE</title>
<path fill="none" stroke="black" d="M469.584,-215.871C476.089,-191.564 488.063,-146.819 495.771,-118.013"/>
<polygon fill="black" stroke="black" points="499.196,-118.754 498.4,-108.189 492.434,-116.945 499.196,-118.754"/>
</g>
<!-- EXPONENTIAL_GROWTH_DECAY -->
<g id="node9" class="node"><title>EXPONENTIAL_GROWTH_DECAY</title>
<g id="a_node9"><a xlink:href="EXPONENTIAL_GROWTH_DECAY.html" xlink:title=" Exponential growth/decay " target="_top">
<path fill="none" stroke="black" d="M544.25,-36C544.25,-36 401.75,-36 401.75,-36 395.75,-36 389.75,-30 389.75,-24 389.75,-24 389.75,-12 389.75,-12 389.75,-6 395.75,-0 401.75,-0 401.75,-0 544.25,-0 544.25,-0 550.25,-0 556.25,-6 556.25,-12 556.25,-12 556.25,-24 556.25,-24 556.25,-30 550.25,-36 544.25,-36"/>
<text text-anchor="start" x="397.5" y="-14.3" font-family="Times,serif" font-size="14.00"> Exponential growth/decay </text>
</a>
</g>
</g>
<!-- TAYLOR_SERIES&#45;&gt;EXPONENTIAL_GROWTH_DECAY -->
<g id="edge10" class="edge"><title>TAYLOR_SERIES&#45;&gt;EXPONENTIAL_GROWTH_DECAY</title>
<path fill="none" stroke="black" d="M485.55,-215.641C509.936,-193.552 549.269,-152.844 565,-108 570.296,-92.9019 573.007,-85.8526 565,-72 557.43,-58.9035 545.26,-48.7573 532.217,-41.0156"/>
<polygon fill="black" stroke="black" points="533.547,-37.7542 523.093,-36.0334 530.192,-43.898 533.547,-37.7542"/>
</g>
<!-- INTRODUCTION_TO_CONTINUITY -->
<g id="node2" class="node"><title>INTRODUCTION_TO_CONTINUITY</title>
<g id="a_node2"><a xlink:href="INTRODUCTION_TO_CONTINUITY.html" xlink:title=" Introduction to continuity " target="_top">
<path fill="none" stroke="black" d="M455,-396C455,-396 315,-396 315,-396 309,-396 303,-390 303,-384 303,-384 303,-372 303,-372 303,-366 309,-360 315,-360 315,-360 455,-360 455,-360 461,-360 467,-366 467,-372 467,-372 467,-384 467,-384 467,-390 461,-396 455,-396"/>
<text text-anchor="start" x="311" y="-374.3" font-family="Times,serif" font-size="14.00"> Introduction to continuity </text>
</a>
</g>
</g>
<!-- INTRODUCTION_TO_CONTINUITY&#45;&gt;TAYLOR_SERIES -->
<g id="edge1" class="edge"><title>INTRODUCTION_TO_CONTINUITY&#45;&gt;TAYLOR_SERIES</title>
<path fill="none" stroke="black" d="M385.475,-359.769C386.691,-340.936 390.756,-310.455 404,-288 410.636,-276.749 420.514,-266.671 430.398,-258.401"/>
<polygon fill="black" stroke="black" points="432.6,-261.122 438.265,-252.169 428.253,-255.635 432.6,-261.122"/>
</g>
<!-- DEFINITION_OF_DERIVATIVE -->
<g id="node6" class="node"><title>DEFINITION_OF_DERIVATIVE</title>
<g id="a_node6"><a xlink:href="DEFINITION_OF_DERIVATIVE.html" xlink:title=" Differentiation " target="_top">
<path fill="none" stroke="black" d="M505,-324C505,-324 425,-324 425,-324 419,-324 413,-318 413,-312 413,-312 413,-300 413,-300 413,-294 419,-288 425,-288 425,-288 505,-288 505,-288 511,-288 517,-294 517,-300 517,-300 517,-312 517,-312 517,-318 511,-324 505,-324"/>
<text text-anchor="start" x="421" y="-302.3" font-family="Times,serif" font-size="14.00"> Differentiation </text>
</a>
</g>
</g>
<!-- INTRODUCTION_TO_CONTINUITY&#45;&gt;DEFINITION_OF_DERIVATIVE -->
<!-- FUNDAMENTAL_THEOREM_OF_CALCULUS&#45;&gt;THE_EXPONENTIAL_FUNCTION -->
<!-- LIMITS -->
<g id="node4" class="node"><title>LIMITS</title>
<g id="a_node4"><a xlink:href="LIMITS.html" xlink:title=" Limit of a function " target="_top">
<path fill="none" stroke="black" d="M601,-396C601,-396 497,-396 497,-396 491,-396 485,-390 485,-384 485,-384 485,-372 485,-372 485,-366 491,-360 497,-360 497,-360 601,-360 601,-360 607,-360 613,-366 613,-372 613,-372 613,-384 613,-384 613,-390 607,-396 601,-396"/>
<text text-anchor="start" x="493" y="-374.3" font-family="Times,serif" font-size="14.00"> Limit of a function </text>
</a>
</g>
</g>
<!-- LIMITS&#45;&gt;TAYLOR_SERIES -->
<g id="edge3" class="edge"><title>LIMITS&#45;&gt;TAYLOR_SERIES</title>
<path fill="none" stroke="black" d="M547.6,-359.745C545.406,-340.891 539.857,-310.391 526,-288 519.068,-276.798 509.014,-266.684 499.062,-258.366"/>
<polygon fill="black" stroke="black" points="501.171,-255.571 491.163,-252.093 496.818,-261.053 501.171,-255.571"/>
</g>
<!-- DEFINITION_OF_DERIVATIVE&#45;&gt;TAYLOR_SERIES -->
<g id="edge5" class="edge"><title>DEFINITION_OF_DERIVATIVE&#45;&gt;TAYLOR_SERIES</title>
<path fill="none" stroke="black" d="M465,-287.697C465,-279.983 465,-270.712 465,-262.112"/>
<polygon fill="black" stroke="black" points="468.5,-262.104 465,-252.104 461.5,-262.104 468.5,-262.104"/>
</g>
<!-- THE_EXPONENTIAL_FUNCTION&#45;&gt;EXPONENTIAL_GROWTH_DECAY -->
</g>
</svg>
