<?xml version="1.0" encoding="UTF-8" standalone="no"?>
<!DOCTYPE svg PUBLIC "-//W3C//DTD SVG 1.1//EN"
 "http://www.w3.org/Graphics/SVG/1.1/DTD/svg11.dtd">
<!-- Generated by graphviz version 2.26.3 (20100126.1600)
 -->
<!-- Title: _anonymous_0 Pages: 1 -->
<svg width="564pt" height="404pt"
 viewBox="0.00 0.00 564.00 404.00" xmlns="http://www.w3.org/2000/svg" xmlns:xlink="http://www.w3.org/1999/xlink">
<g id="graph1" class="graph" transform="scale(1 1) rotate(0) translate(4 400)">
<title>_anonymous_0</title>
<!-- TAYLOR_SERIES -->
<g id="node1" class="node"><title>TAYLOR_SERIES</title>
<a xlink:href="TAYLOR_SERIES.html" xlink:title="One dimensional Taylor Series" target="_top">
<polyline fill="none" stroke="blue" stroke-width="2" points="460,-252 260,-252 "/>
<path fill="none" stroke="blue" stroke-width="2" d="M260,-252C254,-252 248,-246 248,-240"/>
<polyline fill="none" stroke="blue" stroke-width="2" points="248,-240 248,-228 "/>
<path fill="none" stroke="blue" stroke-width="2" d="M248,-228C248,-222 254,-216 260,-216"/>
<polyline fill="none" stroke="blue" stroke-width="2" points="260,-216 460,-216 "/>
<path fill="none" stroke="blue" stroke-width="2" d="M460,-216C466,-216 472,-222 472,-228"/>
<polyline fill="none" stroke="blue" stroke-width="2" points="472,-228 472,-240 "/>
<path fill="none" stroke="blue" stroke-width="2" d="M472,-240C472,-246 466,-252 460,-252"/>
<text text-anchor="start" x="256" y="-231.233" font-family="Times Roman,serif" font-size="14.00">One dimensional Taylor Series</text>
</a>
</g>
<!-- EXPONENTIAL_GROWTH_DECAY -->
<g id="node2" class="node"><title>EXPONENTIAL_GROWTH_DECAY</title>
<a xlink:href="EXPONENTIAL_GROWTH_DECAY.html" xlink:title="Exponential growth/decay" target="_top">
<polyline fill="none" stroke="black" points="186,-180 12,-180 "/>
<path fill="none" stroke="black" d="M12,-180C6,-180 5.92119e-14,-174 4.73695e-14,-168"/>
<polyline fill="none" stroke="black" points="4.73695e-14,-168 2.36848e-14,-156 "/>
<path fill="none" stroke="black" d="M2.36848e-14,-156C1.18424e-14,-150 6,-144 12,-144"/>
<polyline fill="none" stroke="black" points="12,-144 186,-144 "/>
<path fill="none" stroke="black" d="M186,-144C192,-144 198,-150 198,-156"/>
<polyline fill="none" stroke="black" points="198,-156 198,-168 "/>
<path fill="none" stroke="black" d="M198,-168C198,-174 192,-180 186,-180"/>
<text text-anchor="start" x="8.5" y="-159.233" font-family="Times Roman,serif" font-size="14.00">Exponential growth/decay</text>
</a>
</g>
<!-- TAYLOR_SERIES&#45;&gt;EXPONENTIAL_GROWTH_DECAY -->
<g id="edge2" class="edge"><title>TAYLOR_SERIES&#45;&gt;EXPONENTIAL_GROWTH_DECAY</title>
<path fill="none" stroke="black" d="M294.476,-215.924C258.02,-205.868 212.481,-193.305 174.531,-182.836"/>
<polygon fill="black" stroke="black" points="175.122,-179.369 164.551,-180.083 173.261,-186.116 175.122,-179.369"/>
</g>
<!-- LHOPITALS_RULE -->
<g id="node8" class="node"><title>LHOPITALS_RULE</title>
<a xlink:href="LHOPITALS_RULE.html" xlink:title="l&#39;Hopital&#39;s Rule" target="_top">
<polyline fill="none" stroke="black" points="320,-180 228,-180 "/>
<path fill="none" stroke="black" d="M228,-180C222,-180 216,-174 216,-168"/>
<polyline fill="none" stroke="black" points="216,-168 216,-156 "/>
<path fill="none" stroke="black" d="M216,-156C216,-150 222,-144 228,-144"/>
<polyline fill="none" stroke="black" points="228,-144 320,-144 "/>
<path fill="none" stroke="black" d="M320,-144C326,-144 332,-150 332,-156"/>
<polyline fill="none" stroke="black" points="332,-156 332,-168 "/>
<path fill="none" stroke="black" d="M332,-168C332,-174 326,-180 320,-180"/>
<text text-anchor="start" x="224" y="-159.233" font-family="Times Roman,serif" font-size="14.00">l&#39;Hopital&#39;s Rule</text>
</a>
</g>
<!-- TAYLOR_SERIES&#45;&gt;LHOPITALS_RULE -->
<g id="edge8" class="edge"><title>TAYLOR_SERIES&#45;&gt;LHOPITALS_RULE</title>
<path fill="none" stroke="black" d="M338.299,-215.831C327.808,-207.048 315.054,-196.371 303.681,-186.849"/>
<polygon fill="black" stroke="black" points="305.609,-183.899 295.694,-180.163 301.115,-189.266 305.609,-183.899"/>
</g>
<!-- CONTINUOUS_TIME_MARKOV_CHAIN -->
<g id="node13" class="node"><title>CONTINUOUS_TIME_MARKOV_CHAIN</title>
<a xlink:href="CONTINUOUS_TIME_MARKOV_CHAIN.html" xlink:title="Markov chains in continuous time" target="_top">
<polyline fill="none" stroke="black" points="288,-108 64,-108 "/>
<path fill="none" stroke="black" d="M64,-108C58,-108 52,-102 52,-96"/>
<polyline fill="none" stroke="black" points="52,-96 52,-84 "/>
<path fill="none" stroke="black" d="M52,-84C52,-78 58,-72 64,-72"/>
<polyline fill="none" stroke="black" points="64,-72 288,-72 "/>
<path fill="none" stroke="black" d="M288,-72C294,-72 300,-78 300,-84"/>
<polyline fill="none" stroke="black" points="300,-84 300,-96 "/>
<path fill="none" stroke="black" d="M300,-96C300,-102 294,-108 288,-108"/>
<text text-anchor="start" x="60" y="-87.2333" font-family="Times Roman,serif" font-size="14.00">Markov chains in continuous time</text>
</a>
</g>
<!-- TAYLOR_SERIES&#45;&gt;CONTINUOUS_TIME_MARKOV_CHAIN -->
<g id="edge14" class="edge"><title>TAYLOR_SERIES&#45;&gt;CONTINUOUS_TIME_MARKOV_CHAIN</title>
<path fill="none" stroke="black" d="M361.17,-215.766C361.437,-195.716 358.704,-163.731 341,-144 329.962,-131.698 298.098,-120.025 265.278,-110.701"/>
<polygon fill="black" stroke="black" points="266.121,-107.303 255.55,-108.01 264.255,-114.049 266.121,-107.303"/>
</g>
<!-- THE_EXPONENTIAL_FUNCTION -->
<g id="node16" class="node"><title>THE_EXPONENTIAL_FUNCTION</title>
<a xlink:href="THE_EXPONENTIAL_FUNCTION.html" xlink:title="Exponential function" target="_top">
<polyline fill="none" stroke="black" points="466,-108 330,-108 "/>
<path fill="none" stroke="black" d="M330,-108C324,-108 318,-102 318,-96"/>
<polyline fill="none" stroke="black" points="318,-96 318,-84 "/>
<path fill="none" stroke="black" d="M318,-84C318,-78 324,-72 330,-72"/>
<polyline fill="none" stroke="black" points="330,-72 466,-72 "/>
<path fill="none" stroke="black" d="M466,-72C472,-72 478,-78 478,-84"/>
<polyline fill="none" stroke="black" points="478,-84 478,-96 "/>
<path fill="none" stroke="black" d="M478,-96C478,-102 472,-108 466,-108"/>
<text text-anchor="start" x="326.5" y="-87.2333" font-family="Times Roman,serif" font-size="14.00">Exponential function</text>
</a>
</g>
<!-- TAYLOR_SERIES&#45;&gt;THE_EXPONENTIAL_FUNCTION -->
<g id="edge18" class="edge"><title>TAYLOR_SERIES&#45;&gt;THE_EXPONENTIAL_FUNCTION</title>
<path fill="none" stroke="black" d="M364.813,-215.762C371.323,-191.093 382.995,-146.86 390.618,-117.973"/>
<polygon fill="black" stroke="black" points="394.059,-118.652 393.226,-108.09 387.291,-116.866 394.059,-118.652"/>
</g>
<!-- FUNDAMENTAL_THEOREM_OF_CALCULUS -->
<g id="node18" class="node"><title>FUNDAMENTAL_THEOREM_OF_CALCULUS</title>
<a xlink:href="FUNDAMENTAL_THEOREM_OF_CALCULUS.html" xlink:title="Fundamental theorem of calculus" target="_top">
<polyline fill="none" stroke="black" points="452,-36 230,-36 "/>
<path fill="none" stroke="black" d="M230,-36C224,-36 218,-30 218,-24"/>
<polyline fill="none" stroke="black" points="218,-24 218,-12 "/>
<path fill="none" stroke="black" d="M218,-12C218,-6 224,-1.7417e-14 230,-1.70704e-14"/>
<polyline fill="none" stroke="black" points="230,-1.70704e-14 452,-4.24593e-15 "/>
<path fill="none" stroke="black" d="M452,-4.24593e-15C458,-3.89932e-15 464,-6 464,-12"/>
<polyline fill="none" stroke="black" points="464,-12 464,-24 "/>
<path fill="none" stroke="black" d="M464,-24C464,-30 458,-36 452,-36"/>
<text text-anchor="start" x="226.5" y="-15.2333" font-family="Times Roman,serif" font-size="14.00">Fundamental theorem of calculus</text>
</a>
</g>
<!-- TAYLOR_SERIES&#45;&gt;FUNDAMENTAL_THEOREM_OF_CALCULUS -->
<g id="edge20" class="edge"><title>TAYLOR_SERIES&#45;&gt;FUNDAMENTAL_THEOREM_OF_CALCULUS</title>
<path fill="none" stroke="black" d="M393.004,-215.81C442.082,-186.37 524.679,-126.109 487,-72 478.606,-59.945 451.012,-48.3906 422.04,-39.0854"/>
<polygon fill="black" stroke="black" points="422.776,-35.6489 412.187,-36.0186 420.695,-42.3326 422.776,-35.6489"/>
</g>
<!-- EXPONENTIAL_GROWTH_DECAY&#45;&gt;CONTINUOUS_TIME_MARKOV_CHAIN -->
<!-- DEFINITION_OF_DERIVATIVE -->
<g id="node4" class="node"><title>DEFINITION_OF_DERIVATIVE</title>
<a xlink:href="DEFINITION_OF_DERIVATIVE.html" xlink:title="Differentiation" target="_top">
<polyline fill="none" stroke="black" points="320,-396 226,-396 "/>
<path fill="none" stroke="black" d="M226,-396C220,-396 214,-390 214,-384"/>
<polyline fill="none" stroke="black" points="214,-384 214,-372 "/>
<path fill="none" stroke="black" d="M214,-372C214,-366 220,-360 226,-360"/>
<polyline fill="none" stroke="black" points="226,-360 320,-360 "/>
<path fill="none" stroke="black" d="M320,-360C326,-360 332,-366 332,-372"/>
<polyline fill="none" stroke="black" points="332,-372 332,-384 "/>
<path fill="none" stroke="black" d="M332,-384C332,-390 326,-396 320,-396"/>
<text text-anchor="start" x="222" y="-375.233" font-family="Times Roman,serif" font-size="14.00">Differentiation</text>
</a>
</g>
<!-- DEFINITION_OF_DERIVATIVE&#45;&gt;TAYLOR_SERIES -->
<g id="edge4" class="edge"><title>DEFINITION_OF_DERIVATIVE&#45;&gt;TAYLOR_SERIES</title>
<path fill="none" stroke="black" d="M270.011,-359.737C267.822,-340.526 267.145,-310.075 280,-288 287.193,-275.649 298.474,-265.533 310.32,-257.535"/>
<polygon fill="black" stroke="black" points="312.391,-260.367 318.995,-252.083 308.666,-254.44 312.391,-260.367"/>
</g>
<!-- LIMITS -->
<g id="node10" class="node"><title>LIMITS</title>
<a xlink:href="LIMITS.html" xlink:title="Limit of a function" target="_top">
<polyline fill="none" stroke="black" points="419,-324 301,-324 "/>
<path fill="none" stroke="black" d="M301,-324C295,-324 289,-318 289,-312"/>
<polyline fill="none" stroke="black" points="289,-312 289,-300 "/>
<path fill="none" stroke="black" d="M289,-300C289,-294 295,-288 301,-288"/>
<polyline fill="none" stroke="black" points="301,-288 419,-288 "/>
<path fill="none" stroke="black" d="M419,-288C425,-288 431,-294 431,-300"/>
<polyline fill="none" stroke="black" points="431,-300 431,-312 "/>
<path fill="none" stroke="black" d="M431,-312C431,-318 425,-324 419,-324"/>
<text text-anchor="start" x="297" y="-303.233" font-family="Times Roman,serif" font-size="14.00">Limit of a function</text>
</a>
</g>
<!-- DEFINITION_OF_DERIVATIVE&#45;&gt;LIMITS -->
<!-- INTRODUCTION_TO_CONTINUITY -->
<g id="node6" class="node"><title>INTRODUCTION_TO_CONTINUITY</title>
<a xlink:href="INTRODUCTION_TO_CONTINUITY.html" xlink:title="Introduction to continuity" target="_top">
<polyline fill="none" stroke="black" points="544,-396 374,-396 "/>
<path fill="none" stroke="black" d="M374,-396C368,-396 362,-390 362,-384"/>
<polyline fill="none" stroke="black" points="362,-384 362,-372 "/>
<path fill="none" stroke="black" d="M362,-372C362,-366 368,-360 374,-360"/>
<polyline fill="none" stroke="black" points="374,-360 544,-360 "/>
<path fill="none" stroke="black" d="M544,-360C550,-360 556,-366 556,-372"/>
<polyline fill="none" stroke="black" points="556,-372 556,-384 "/>
<path fill="none" stroke="black" d="M556,-384C556,-390 550,-396 544,-396"/>
<text text-anchor="start" x="370" y="-375.233" font-family="Times Roman,serif" font-size="14.00">Introduction to continuity</text>
</a>
</g>
<!-- INTRODUCTION_TO_CONTINUITY&#45;&gt;TAYLOR_SERIES -->
<g id="edge6" class="edge"><title>INTRODUCTION_TO_CONTINUITY&#45;&gt;TAYLOR_SERIES</title>
<path fill="none" stroke="black" d="M459.069,-359.901C458.31,-340.551 454.626,-309.725 440,-288 431.867,-275.92 420.036,-265.818 407.956,-257.744"/>
<polygon fill="black" stroke="black" points="409.495,-254.578 399.165,-252.224 405.772,-260.506 409.495,-254.578"/>
</g>
<!-- LIMITS&#45;&gt;TAYLOR_SERIES -->
<g id="edge10" class="edge"><title>LIMITS&#45;&gt;TAYLOR_SERIES</title>
<path fill="none" stroke="black" d="M360,-287.831C360,-280.131 360,-270.974 360,-262.417"/>
<polygon fill="black" stroke="black" points="363.5,-262.413 360,-252.413 356.5,-262.413 363.5,-262.413"/>
</g>
<!-- CONTINUOUS_TIME_MARKOV_CHAIN&#45;&gt;FUNDAMENTAL_THEOREM_OF_CALCULUS -->
</g>
</svg>
