<?xml version="1.0" encoding="UTF-8" standalone="no"?>
<!DOCTYPE svg PUBLIC "-//W3C//DTD SVG 1.1//EN"
 "http://www.w3.org/Graphics/SVG/1.1/DTD/svg11.dtd">
<!-- Generated by graphviz version 2.26.3 (20100126.1600)
 -->
<!-- Title: _anonymous_0 Pages: 1 -->
<svg width="732pt" height="404pt"
 viewBox="0.00 0.00 732.00 404.00" xmlns="http://www.w3.org/2000/svg" xmlns:xlink="http://www.w3.org/1999/xlink">
<g id="graph1" class="graph" transform="scale(1 1) rotate(0) translate(4 400)">
<title>_anonymous_0</title>
<!-- TAYLOR_SERIES -->
<g id="node1" class="node"><title>TAYLOR_SERIES</title>
<a xlink:href="TAYLOR_SERIES.html" xlink:title="One dimensional Taylor Series" target="_top">
<polyline fill="none" stroke="blue" stroke-width="2" points="640,-252 440,-252 "/>
<path fill="none" stroke="blue" stroke-width="2" d="M440,-252C434,-252 428,-246 428,-240"/>
<polyline fill="none" stroke="blue" stroke-width="2" points="428,-240 428,-228 "/>
<path fill="none" stroke="blue" stroke-width="2" d="M428,-228C428,-222 434,-216 440,-216"/>
<polyline fill="none" stroke="blue" stroke-width="2" points="440,-216 640,-216 "/>
<path fill="none" stroke="blue" stroke-width="2" d="M640,-216C646,-216 652,-222 652,-228"/>
<polyline fill="none" stroke="blue" stroke-width="2" points="652,-228 652,-240 "/>
<path fill="none" stroke="blue" stroke-width="2" d="M652,-240C652,-246 646,-252 640,-252"/>
<text text-anchor="start" x="436" y="-231.233" font-family="Times Roman,serif" font-size="14.00">One dimensional Taylor Series</text>
</a>
</g>
<!-- FUNDAMENTAL_THEOREM_OF_CALCULUS -->
<g id="node4" class="node"><title>FUNDAMENTAL_THEOREM_OF_CALCULUS</title>
<a xlink:href="FUNDAMENTAL_THEOREM_OF_CALCULUS.html" xlink:title="Fundamental theorem of calculus" target="_top">
<polyline fill="none" stroke="black" points="234,-180 12,-180 "/>
<path fill="none" stroke="black" d="M12,-180C6,-180 8.28967e-14,-174 6.63173e-14,-168"/>
<polyline fill="none" stroke="black" points="6.63173e-14,-168 3.31587e-14,-156 "/>
<path fill="none" stroke="black" d="M3.31587e-14,-156C1.65793e-14,-150 6,-144 12,-144"/>
<polyline fill="none" stroke="black" points="12,-144 234,-144 "/>
<path fill="none" stroke="black" d="M234,-144C240,-144 246,-150 246,-156"/>
<polyline fill="none" stroke="black" points="246,-156 246,-168 "/>
<path fill="none" stroke="black" d="M246,-168C246,-174 240,-180 234,-180"/>
<text text-anchor="start" x="8.5" y="-159.233" font-family="Times Roman,serif" font-size="14.00">Fundamental theorem of calculus</text>
</a>
</g>
<!-- TAYLOR_SERIES&#45;&gt;FUNDAMENTAL_THEOREM_OF_CALCULUS -->
<g id="edge4" class="edge"><title>TAYLOR_SERIES&#45;&gt;FUNDAMENTAL_THEOREM_OF_CALCULUS</title>
<path fill="none" stroke="black" d="M435.58,-215.971C375.364,-205.574 299.57,-192.487 237.699,-181.804"/>
<polygon fill="black" stroke="black" points="237.95,-178.296 227.5,-180.043 236.759,-185.194 237.95,-178.296"/>
</g>
<!-- CONTINUOUS_TIME_MARKOV_CHAIN -->
<g id="node6" class="node"><title>CONTINUOUS_TIME_MARKOV_CHAIN</title>
<a xlink:href="CONTINUOUS_TIME_MARKOV_CHAIN.html" xlink:title="Markov chains in continuous time" target="_top">
<polyline fill="none" stroke="black" points="500,-180 276,-180 "/>
<path fill="none" stroke="black" d="M276,-180C270,-180 264,-174 264,-168"/>
<polyline fill="none" stroke="black" points="264,-168 264,-156 "/>
<path fill="none" stroke="black" d="M264,-156C264,-150 270,-144 276,-144"/>
<polyline fill="none" stroke="black" points="276,-144 500,-144 "/>
<path fill="none" stroke="black" d="M500,-144C506,-144 512,-150 512,-156"/>
<polyline fill="none" stroke="black" points="512,-156 512,-168 "/>
<path fill="none" stroke="black" d="M512,-168C512,-174 506,-180 500,-180"/>
<text text-anchor="start" x="272" y="-159.233" font-family="Times Roman,serif" font-size="14.00">Markov chains in continuous time</text>
</a>
</g>
<!-- TAYLOR_SERIES&#45;&gt;CONTINUOUS_TIME_MARKOV_CHAIN -->
<g id="edge6" class="edge"><title>TAYLOR_SERIES&#45;&gt;CONTINUOUS_TIME_MARKOV_CHAIN</title>
<path fill="none" stroke="black" d="M501.644,-215.831C481.496,-206.287 456.625,-194.506 435.292,-184.401"/>
<polygon fill="black" stroke="black" points="436.616,-181.156 426.08,-180.038 433.619,-187.482 436.616,-181.156"/>
</g>
<!-- EXPONENTIAL_GROWTH_DECAY -->
<g id="node10" class="node"><title>EXPONENTIAL_GROWTH_DECAY</title>
<a xlink:href="EXPONENTIAL_GROWTH_DECAY.html" xlink:title="Exponential growth/decay" target="_top">
<polyline fill="none" stroke="black" points="468,-108 294,-108 "/>
<path fill="none" stroke="black" d="M294,-108C288,-108 282,-102 282,-96"/>
<polyline fill="none" stroke="black" points="282,-96 282,-84 "/>
<path fill="none" stroke="black" d="M282,-84C282,-78 288,-72 294,-72"/>
<polyline fill="none" stroke="black" points="294,-72 468,-72 "/>
<path fill="none" stroke="black" d="M468,-72C474,-72 480,-78 480,-84"/>
<polyline fill="none" stroke="black" points="480,-84 480,-96 "/>
<path fill="none" stroke="black" d="M480,-96C480,-102 474,-108 468,-108"/>
<text text-anchor="start" x="290.5" y="-87.2333" font-family="Times Roman,serif" font-size="14.00">Exponential growth/decay</text>
</a>
</g>
<!-- TAYLOR_SERIES&#45;&gt;EXPONENTIAL_GROWTH_DECAY -->
<g id="edge10" class="edge"><title>TAYLOR_SERIES&#45;&gt;EXPONENTIAL_GROWTH_DECAY</title>
<path fill="none" stroke="black" d="M540.979,-215.934C541.073,-196.034 538.186,-164.184 521,-144 509.172,-130.11 493.339,-119.778 476.577,-112.097"/>
<polygon fill="black" stroke="black" points="477.76,-108.797 467.188,-108.097 475.016,-115.237 477.76,-108.797"/>
</g>
<!-- THE_EXPONENTIAL_FUNCTION -->
<g id="node13" class="node"><title>THE_EXPONENTIAL_FUNCTION</title>
<a xlink:href="THE_EXPONENTIAL_FUNCTION.html" xlink:title="Exponential function" target="_top">
<polyline fill="none" stroke="black" points="646,-108 510,-108 "/>
<path fill="none" stroke="black" d="M510,-108C504,-108 498,-102 498,-96"/>
<polyline fill="none" stroke="black" points="498,-96 498,-84 "/>
<path fill="none" stroke="black" d="M498,-84C498,-78 504,-72 510,-72"/>
<polyline fill="none" stroke="black" points="510,-72 646,-72 "/>
<path fill="none" stroke="black" d="M646,-72C652,-72 658,-78 658,-84"/>
<polyline fill="none" stroke="black" points="658,-84 658,-96 "/>
<path fill="none" stroke="black" d="M658,-96C658,-102 652,-108 646,-108"/>
<text text-anchor="start" x="506.5" y="-87.2333" font-family="Times Roman,serif" font-size="14.00">Exponential function</text>
</a>
</g>
<!-- TAYLOR_SERIES&#45;&gt;THE_EXPONENTIAL_FUNCTION -->
<g id="edge14" class="edge"><title>TAYLOR_SERIES&#45;&gt;THE_EXPONENTIAL_FUNCTION</title>
<path fill="none" stroke="black" d="M544.813,-215.762C551.323,-191.093 562.995,-146.86 570.618,-117.973"/>
<polygon fill="black" stroke="black" points="574.059,-118.652 573.226,-108.09 567.291,-116.866 574.059,-118.652"/>
</g>
<!-- LHOPITALS_RULE -->
<g id="node18" class="node"><title>LHOPITALS_RULE</title>
<a xlink:href="LHOPITALS_RULE.html" xlink:title="l&#39;Hopital&#39;s Rule" target="_top">
<polyline fill="none" stroke="black" points="579,-36 487,-36 "/>
<path fill="none" stroke="black" d="M487,-36C481,-36 475,-30 475,-24"/>
<polyline fill="none" stroke="black" points="475,-24 475,-12 "/>
<path fill="none" stroke="black" d="M475,-12C475,-6 481,-1.70285e-14 487,-1.62935e-14"/>
<polyline fill="none" stroke="black" points="487,-1.62935e-14 579,-5.0228e-15 "/>
<path fill="none" stroke="black" d="M579,-5.0228e-15C585,-4.28776e-15 591,-6 591,-12"/>
<polyline fill="none" stroke="black" points="591,-12 591,-24 "/>
<path fill="none" stroke="black" d="M591,-24C591,-30 585,-36 579,-36"/>
<text text-anchor="start" x="483" y="-15.2333" font-family="Times Roman,serif" font-size="14.00">l&#39;Hopital&#39;s Rule</text>
</a>
</g>
<!-- TAYLOR_SERIES&#45;&gt;LHOPITALS_RULE -->
<g id="edge20" class="edge"><title>TAYLOR_SERIES&#45;&gt;LHOPITALS_RULE</title>
<path fill="none" stroke="black" d="M572.821,-215.936C621.644,-186.67 703.895,-126.646 667,-72 652.008,-49.7947 626.196,-36.7185 601.205,-29.0189"/>
<polygon fill="black" stroke="black" points="601.898,-25.5778 591.323,-26.2282 599.995,-32.3144 601.898,-25.5778"/>
</g>
<!-- LIMITS -->
<g id="node2" class="node"><title>LIMITS</title>
<a xlink:href="LIMITS.html" xlink:title="Limit of a function" target="_top">
<polyline fill="none" stroke="black" points="525,-396 407,-396 "/>
<path fill="none" stroke="black" d="M407,-396C401,-396 395,-390 395,-384"/>
<polyline fill="none" stroke="black" points="395,-384 395,-372 "/>
<path fill="none" stroke="black" d="M395,-372C395,-366 401,-360 407,-360"/>
<polyline fill="none" stroke="black" points="407,-360 525,-360 "/>
<path fill="none" stroke="black" d="M525,-360C531,-360 537,-366 537,-372"/>
<polyline fill="none" stroke="black" points="537,-372 537,-384 "/>
<path fill="none" stroke="black" d="M537,-384C537,-390 531,-396 525,-396"/>
<text text-anchor="start" x="403" y="-375.233" font-family="Times Roman,serif" font-size="14.00">Limit of a function</text>
</a>
</g>
<!-- LIMITS&#45;&gt;TAYLOR_SERIES -->
<g id="edge2" class="edge"><title>LIMITS&#45;&gt;TAYLOR_SERIES</title>
<path fill="none" stroke="black" d="M450.547,-359.773C436.506,-340.862 419.962,-310.906 434,-288 442.189,-274.638 454.836,-264.453 468.579,-256.736"/>
<polygon fill="black" stroke="black" points="470.451,-259.708 477.732,-252.012 467.241,-253.488 470.451,-259.708"/>
</g>
<!-- INTRODUCTION_TO_CONTINUITY -->
<g id="node15" class="node"><title>INTRODUCTION_TO_CONTINUITY</title>
<a xlink:href="INTRODUCTION_TO_CONTINUITY.html" xlink:title="Introduction to continuity" target="_top">
<polyline fill="none" stroke="black" points="625,-324 455,-324 "/>
<path fill="none" stroke="black" d="M455,-324C449,-324 443,-318 443,-312"/>
<polyline fill="none" stroke="black" points="443,-312 443,-300 "/>
<path fill="none" stroke="black" d="M443,-300C443,-294 449,-288 455,-288"/>
<polyline fill="none" stroke="black" points="455,-288 625,-288 "/>
<path fill="none" stroke="black" d="M625,-288C631,-288 637,-294 637,-300"/>
<polyline fill="none" stroke="black" points="637,-300 637,-312 "/>
<path fill="none" stroke="black" d="M637,-312C637,-318 631,-324 625,-324"/>
<text text-anchor="start" x="451" y="-303.233" font-family="Times Roman,serif" font-size="14.00">Introduction to continuity</text>
</a>
</g>
<!-- LIMITS&#45;&gt;INTRODUCTION_TO_CONTINUITY -->
<!-- FUNDAMENTAL_THEOREM_OF_CALCULUS&#45;&gt;EXPONENTIAL_GROWTH_DECAY -->
<!-- DEFINITION_OF_DERIVATIVE -->
<g id="node8" class="node"><title>DEFINITION_OF_DERIVATIVE</title>
<a xlink:href="DEFINITION_OF_DERIVATIVE.html" xlink:title="Differentiation" target="_top">
<polyline fill="none" stroke="black" points="712,-396 618,-396 "/>
<path fill="none" stroke="black" d="M618,-396C612,-396 606,-390 606,-384"/>
<polyline fill="none" stroke="black" points="606,-384 606,-372 "/>
<path fill="none" stroke="black" d="M606,-372C606,-366 612,-360 618,-360"/>
<polyline fill="none" stroke="black" points="618,-360 712,-360 "/>
<path fill="none" stroke="black" d="M712,-360C718,-360 724,-366 724,-372"/>
<polyline fill="none" stroke="black" points="724,-372 724,-384 "/>
<path fill="none" stroke="black" d="M724,-384C724,-390 718,-396 712,-396"/>
<text text-anchor="start" x="614" y="-375.233" font-family="Times Roman,serif" font-size="14.00">Differentiation</text>
</a>
</g>
<!-- DEFINITION_OF_DERIVATIVE&#45;&gt;TAYLOR_SERIES -->
<g id="edge8" class="edge"><title>DEFINITION_OF_DERIVATIVE&#45;&gt;TAYLOR_SERIES</title>
<path fill="none" stroke="black" d="M665.58,-359.897C665.287,-340.257 662.027,-308.915 646,-288 635.857,-274.764 621.568,-264.505 606.757,-256.662"/>
<polygon fill="black" stroke="black" points="608.015,-253.38 597.5,-252.086 604.913,-259.655 608.015,-253.38"/>
</g>
<!-- EXPONENTIAL_GROWTH_DECAY&#45;&gt;LHOPITALS_RULE -->
<!-- INTRODUCTION_TO_CONTINUITY&#45;&gt;TAYLOR_SERIES -->
<g id="edge16" class="edge"><title>INTRODUCTION_TO_CONTINUITY&#45;&gt;TAYLOR_SERIES</title>
<path fill="none" stroke="black" d="M540,-287.831C540,-280.131 540,-270.974 540,-262.417"/>
<polygon fill="black" stroke="black" points="543.5,-262.413 540,-252.413 536.5,-262.413 543.5,-262.413"/>
</g>
</g>
</svg>
