<?xml version="1.0" encoding="UTF-8" standalone="no"?>
<!DOCTYPE svg PUBLIC "-//W3C//DTD SVG 1.1//EN"
 "http://www.w3.org/Graphics/SVG/1.1/DTD/svg11.dtd">
<!-- Generated by graphviz version 2.36.0 (20140111.2315)
 -->
<!-- Title: %3 Pages: 1 -->
<svg width="533pt" height="404pt"
 viewBox="0.00 0.00 533.00 404.00" xmlns="http://www.w3.org/2000/svg" xmlns:xlink="http://www.w3.org/1999/xlink">
<g id="graph0" class="graph" transform="scale(1 1) rotate(0) translate(4 400)">
<title>%3</title>
<!-- TAYLOR_SERIES -->
<g id="node1" class="node"><title>TAYLOR_SERIES</title>
<g id="a_node1"><a xlink:href="TAYLOR_SERIES.html" xlink:title=" One dimensional Taylor Series " target="_top">
<path fill="none" stroke="blue" stroke-width="2" d="M435.5,-252C435.5,-252 266.5,-252 266.5,-252 260.5,-252 254.5,-246 254.5,-240 254.5,-240 254.5,-228 254.5,-228 254.5,-222 260.5,-216 266.5,-216 266.5,-216 435.5,-216 435.5,-216 441.5,-216 447.5,-222 447.5,-228 447.5,-228 447.5,-240 447.5,-240 447.5,-246 441.5,-252 435.5,-252"/>
<text text-anchor="start" x="262" y="-230.3" font-family="Times,serif" font-size="14.00"> One dimensional Taylor Series </text>
</a>
</g>
</g>
<!-- EXPONENTIAL_GROWTH_DECAY -->
<g id="node2" class="node"><title>EXPONENTIAL_GROWTH_DECAY</title>
<g id="a_node2"><a xlink:href="EXPONENTIAL_GROWTH_DECAY.html" xlink:title=" Exponential growth/decay " target="_top">
<path fill="none" stroke="black" d="M154.25,-180C154.25,-180 11.75,-180 11.75,-180 5.75,-180 -0.25,-174 -0.25,-168 -0.25,-168 -0.25,-156 -0.25,-156 -0.25,-150 5.75,-144 11.75,-144 11.75,-144 154.25,-144 154.25,-144 160.25,-144 166.25,-150 166.25,-156 166.25,-156 166.25,-168 166.25,-168 166.25,-174 160.25,-180 154.25,-180"/>
<text text-anchor="start" x="7.5" y="-158.3" font-family="Times,serif" font-size="14.00"> Exponential growth/decay </text>
</a>
</g>
</g>
<!-- TAYLOR_SERIES&#45;&gt;EXPONENTIAL_GROWTH_DECAY -->
<g id="edge1" class="edge"><title>TAYLOR_SERIES&#45;&gt;EXPONENTIAL_GROWTH_DECAY</title>
<path fill="none" stroke="black" d="M285.783,-215.966C247.279,-205.909 198.38,-193.136 158.247,-182.654"/>
<polygon fill="black" stroke="black" points="159.07,-179.252 148.51,-180.111 157.301,-186.024 159.07,-179.252"/>
</g>
<!-- THE_EXPONENTIAL_FUNCTION -->
<g id="node3" class="node"><title>THE_EXPONENTIAL_FUNCTION</title>
<g id="a_node3"><a xlink:href="THE_EXPONENTIAL_FUNCTION.html" xlink:title=" Exponential function " target="_top">
<path fill="none" stroke="black" d="M311,-180C311,-180 197,-180 197,-180 191,-180 185,-174 185,-168 185,-168 185,-156 185,-156 185,-150 191,-144 197,-144 197,-144 311,-144 311,-144 317,-144 323,-150 323,-156 323,-156 323,-168 323,-168 323,-174 317,-180 311,-180"/>
<text text-anchor="start" x="193" y="-158.3" font-family="Times,serif" font-size="14.00"> Exponential function </text>
</a>
</g>
</g>
<!-- TAYLOR_SERIES&#45;&gt;THE_EXPONENTIAL_FUNCTION -->
<g id="edge2" class="edge"><title>TAYLOR_SERIES&#45;&gt;THE_EXPONENTIAL_FUNCTION</title>
<path fill="none" stroke="black" d="M327.022,-215.697C314.689,-206.796 299.484,-195.823 286.147,-186.199"/>
<polygon fill="black" stroke="black" points="287.859,-183.118 277.702,-180.104 283.763,-188.794 287.859,-183.118"/>
</g>
<!-- CONTINUOUS_TIME_MARKOV_CHAIN -->
<g id="node4" class="node"><title>CONTINUOUS_TIME_MARKOV_CHAIN</title>
<g id="a_node4"><a xlink:href="CONTINUOUS_TIME_MARKOV_CHAIN.html" xlink:title=" Markov chains in continuous time " target="_top">
<path fill="none" stroke="black" d="M254.5,-108C254.5,-108 67.5,-108 67.5,-108 61.5,-108 55.5,-102 55.5,-96 55.5,-96 55.5,-84 55.5,-84 55.5,-78 61.5,-72 67.5,-72 67.5,-72 254.5,-72 254.5,-72 260.5,-72 266.5,-78 266.5,-84 266.5,-84 266.5,-96 266.5,-96 266.5,-102 260.5,-108 254.5,-108"/>
<text text-anchor="start" x="63" y="-86.3" font-family="Times,serif" font-size="14.00"> Markov chains in continuous time </text>
</a>
</g>
</g>
<!-- TAYLOR_SERIES&#45;&gt;CONTINUOUS_TIME_MARKOV_CHAIN -->
<g id="edge3" class="edge"><title>TAYLOR_SERIES&#45;&gt;CONTINUOUS_TIME_MARKOV_CHAIN</title>
<path fill="none" stroke="black" d="M352.148,-215.98C352.521,-196.185 350.01,-163.713 332,-144 317.093,-127.683 297.273,-116.342 276.421,-108.47"/>
<polygon fill="black" stroke="black" points="277.376,-105.097 266.781,-105.093 275.061,-111.703 277.376,-105.097"/>
</g>
<!-- FUNDAMENTAL_THEOREM_OF_CALCULUS -->
<g id="node5" class="node"><title>FUNDAMENTAL_THEOREM_OF_CALCULUS</title>
<g id="a_node5"><a xlink:href="FUNDAMENTAL_THEOREM_OF_CALCULUS.html" xlink:title=" Fundamental theorem of calculus " target="_top">
<path fill="none" stroke="black" d="M480.25,-108C480.25,-108 297.75,-108 297.75,-108 291.75,-108 285.75,-102 285.75,-96 285.75,-96 285.75,-84 285.75,-84 285.75,-78 291.75,-72 297.75,-72 297.75,-72 480.25,-72 480.25,-72 486.25,-72 492.25,-78 492.25,-84 492.25,-84 492.25,-96 492.25,-96 492.25,-102 486.25,-108 480.25,-108"/>
<text text-anchor="start" x="293.5" y="-86.3" font-family="Times,serif" font-size="14.00"> Fundamental theorem of calculus </text>
</a>
</g>
</g>
<!-- TAYLOR_SERIES&#45;&gt;FUNDAMENTAL_THEOREM_OF_CALCULUS -->
<g id="edge5" class="edge"><title>TAYLOR_SERIES&#45;&gt;FUNDAMENTAL_THEOREM_OF_CALCULUS</title>
<path fill="none" stroke="black" d="M355.584,-215.871C362.089,-191.564 374.063,-146.819 381.771,-118.013"/>
<polygon fill="black" stroke="black" points="385.196,-118.754 384.4,-108.189 378.434,-116.945 385.196,-118.754"/>
</g>
<!-- LHOPITALS_RULE -->
<g id="node8" class="node"><title>LHOPITALS_RULE</title>
<g id="a_node8"><a xlink:href="LHOPITALS_RULE.html" xlink:title=" l&#39;Hopital&#39;s Rule " target="_top">
<path fill="none" stroke="black" d="M382.25,-36C382.25,-36 299.75,-36 299.75,-36 293.75,-36 287.75,-30 287.75,-24 287.75,-24 287.75,-12 287.75,-12 287.75,-6 293.75,-0 299.75,-0 299.75,-0 382.25,-0 382.25,-0 388.25,-0 394.25,-6 394.25,-12 394.25,-12 394.25,-24 394.25,-24 394.25,-30 388.25,-36 382.25,-36"/>
<text text-anchor="start" x="295.5" y="-14.3" font-family="Times,serif" font-size="14.00"> l&#39;Hopital&#39;s Rule </text>
</a>
</g>
</g>
<!-- TAYLOR_SERIES&#45;&gt;LHOPITALS_RULE -->
<g id="edge8" class="edge"><title>TAYLOR_SERIES&#45;&gt;LHOPITALS_RULE</title>
<path fill="none" stroke="black" d="M388.762,-215.939C445.617,-187.861 542.378,-129.296 501,-72 479.092,-41.6643 439.148,-28.4106 404.653,-22.7427"/>
<polygon fill="black" stroke="black" points="405.02,-19.2593 394.619,-21.2768 404.008,-26.1857 405.02,-19.2593"/>
</g>
<!-- EXPONENTIAL_GROWTH_DECAY&#45;&gt;CONTINUOUS_TIME_MARKOV_CHAIN -->
<!-- CONTINUOUS_TIME_MARKOV_CHAIN&#45;&gt;LHOPITALS_RULE -->
<!-- DEFINITION_OF_DERIVATIVE -->
<g id="node6" class="node"><title>DEFINITION_OF_DERIVATIVE</title>
<g id="a_node6"><a xlink:href="DEFINITION_OF_DERIVATIVE.html" xlink:title=" Differentiation " target="_top">
<path fill="none" stroke="black" d="M315,-396C315,-396 235,-396 235,-396 229,-396 223,-390 223,-384 223,-384 223,-372 223,-372 223,-366 229,-360 235,-360 235,-360 315,-360 315,-360 321,-360 327,-366 327,-372 327,-372 327,-384 327,-384 327,-390 321,-396 315,-396"/>
<text text-anchor="start" x="231" y="-374.3" font-family="Times,serif" font-size="14.00"> Differentiation </text>
</a>
</g>
</g>
<!-- DEFINITION_OF_DERIVATIVE&#45;&gt;TAYLOR_SERIES -->
<g id="edge6" class="edge"><title>DEFINITION_OF_DERIVATIVE&#45;&gt;TAYLOR_SERIES</title>
<path fill="none" stroke="black" d="M271.332,-359.798C268.247,-340.989 266.034,-310.529 278,-288 284.44,-275.876 295.028,-265.84 306.169,-257.885"/>
<polygon fill="black" stroke="black" points="308.335,-260.649 314.737,-252.207 304.468,-254.814 308.335,-260.649"/>
</g>
<!-- LIMITS -->
<g id="node9" class="node"><title>LIMITS</title>
<g id="a_node9"><a xlink:href="LIMITS.html" xlink:title=" Limit of a function " target="_top">
<path fill="none" stroke="black" d="M403,-324C403,-324 299,-324 299,-324 293,-324 287,-318 287,-312 287,-312 287,-300 287,-300 287,-294 293,-288 299,-288 299,-288 403,-288 403,-288 409,-288 415,-294 415,-300 415,-300 415,-312 415,-312 415,-318 409,-324 403,-324"/>
<text text-anchor="start" x="295" y="-302.3" font-family="Times,serif" font-size="14.00"> Limit of a function </text>
</a>
</g>
</g>
<!-- DEFINITION_OF_DERIVATIVE&#45;&gt;LIMITS -->
<!-- INTRODUCTION_TO_CONTINUITY -->
<g id="node7" class="node"><title>INTRODUCTION_TO_CONTINUITY</title>
<g id="a_node7"><a xlink:href="INTRODUCTION_TO_CONTINUITY.html" xlink:title=" Introduction to continuity " target="_top">
<path fill="none" stroke="black" d="M513,-396C513,-396 373,-396 373,-396 367,-396 361,-390 361,-384 361,-384 361,-372 361,-372 361,-366 367,-360 373,-360 373,-360 513,-360 513,-360 519,-360 525,-366 525,-372 525,-372 525,-384 525,-384 525,-390 519,-396 513,-396"/>
<text text-anchor="start" x="369" y="-374.3" font-family="Times,serif" font-size="14.00"> Introduction to continuity </text>
</a>
</g>
</g>
<!-- INTRODUCTION_TO_CONTINUITY&#45;&gt;TAYLOR_SERIES -->
<g id="edge7" class="edge"><title>INTRODUCTION_TO_CONTINUITY&#45;&gt;TAYLOR_SERIES</title>
<path fill="none" stroke="black" d="M442.908,-359.887C442.042,-340.882 438.298,-309.987 424,-288 416.168,-275.956 404.575,-265.738 392.923,-257.584"/>
<polygon fill="black" stroke="black" points="394.755,-254.599 384.48,-252.014 390.9,-260.443 394.755,-254.599"/>
</g>
<!-- LIMITS&#45;&gt;TAYLOR_SERIES -->
<g id="edge10" class="edge"><title>LIMITS&#45;&gt;TAYLOR_SERIES</title>
<path fill="none" stroke="black" d="M351,-287.697C351,-279.983 351,-270.712 351,-262.112"/>
<polygon fill="black" stroke="black" points="354.5,-262.104 351,-252.104 347.5,-262.104 354.5,-262.104"/>
</g>
</g>
</svg>
