<?xml version="1.0" encoding="UTF-8" standalone="no"?>
<!DOCTYPE svg PUBLIC "-//W3C//DTD SVG 1.1//EN"
 "http://www.w3.org/Graphics/SVG/1.1/DTD/svg11.dtd">
<!-- Generated by graphviz version 2.28.0 (20110509.1545)
 -->
<!-- Title: _anonymous_0 Pages: 1 -->
<svg width="596pt" height="404pt"
 viewBox="0.00 0.00 596.00 404.00" xmlns="http://www.w3.org/2000/svg" xmlns:xlink="http://www.w3.org/1999/xlink">
<g id="graph1" class="graph" transform="scale(1 1) rotate(0) translate(4 400)">
<title>_anonymous_0</title>
<!-- TAYLOR_SERIES -->
<g id="node1" class="node"><title>TAYLOR_SERIES</title>
<a xlink:href="TAYLOR_SERIES.html" xlink:title="One dimensional Taylor Series" target="_top">
<polyline fill="none" stroke="blue" stroke-width="2" points="500.25,-252 335.75,-252 "/>
<path fill="none" stroke="blue" stroke-width="2" d="M335.75,-252C329.75,-252 323.75,-246 323.75,-240"/>
<polyline fill="none" stroke="blue" stroke-width="2" points="323.75,-240 323.75,-228 "/>
<path fill="none" stroke="blue" stroke-width="2" d="M323.75,-228C323.75,-222 329.75,-216 335.75,-216"/>
<polyline fill="none" stroke="blue" stroke-width="2" points="335.75,-216 500.25,-216 "/>
<path fill="none" stroke="blue" stroke-width="2" d="M500.25,-216C506.25,-216 512.25,-222 512.25,-228"/>
<polyline fill="none" stroke="blue" stroke-width="2" points="512.25,-228 512.25,-240 "/>
<path fill="none" stroke="blue" stroke-width="2" d="M512.25,-240C512.25,-246 506.25,-252 500.25,-252"/>
<text text-anchor="start" x="332" y="-228.5" font-family="Times,serif" font-size="14.00">One dimensional Taylor Series</text>
</a>
</g>
<!-- CONTINUOUS_TIME_MARKOV_CHAIN -->
<g id="node2" class="node"><title>CONTINUOUS_TIME_MARKOV_CHAIN</title>
<a xlink:href="CONTINUOUS_TIME_MARKOV_CHAIN.html" xlink:title="Markov chains in continuous time" target="_top">
<polyline fill="none" stroke="black" points="196,-180 12,-180 "/>
<path fill="none" stroke="black" d="M12,-180C6,-180 0,-174 0,-168"/>
<polyline fill="none" stroke="black" points="0,-168 0,-156 "/>
<path fill="none" stroke="black" d="M0,-156C0,-150 6,-144 12,-144"/>
<polyline fill="none" stroke="black" points="12,-144 196,-144 "/>
<path fill="none" stroke="black" d="M196,-144C202,-144 208,-150 208,-156"/>
<polyline fill="none" stroke="black" points="208,-156 208,-168 "/>
<path fill="none" stroke="black" d="M208,-168C208,-174 202,-180 196,-180"/>
<text text-anchor="start" x="8.5" y="-156.5" font-family="Times,serif" font-size="14.00">Markov chains in continuous time</text>
</a>
</g>
<!-- TAYLOR_SERIES&#45;&gt;CONTINUOUS_TIME_MARKOV_CHAIN -->
<g id="edge2" class="edge"><title>TAYLOR_SERIES&#45;&gt;CONTINUOUS_TIME_MARKOV_CHAIN</title>
<path fill="none" stroke="black" d="M341.588,-215.966C295.914,-205.783 237.755,-192.818 190.412,-182.264"/>
<polygon fill="black" stroke="black" points="191.004,-178.81 180.482,-180.05 189.48,-185.642 191.004,-178.81"/>
</g>
<!-- EXPONENTIAL_GROWTH_DECAY -->
<g id="node6" class="node"><title>EXPONENTIAL_GROWTH_DECAY</title>
<a xlink:href="EXPONENTIAL_GROWTH_DECAY.html" xlink:title="Exponential growth/decay" target="_top">
<polyline fill="none" stroke="black" points="378,-180 238,-180 "/>
<path fill="none" stroke="black" d="M238,-180C232,-180 226,-174 226,-168"/>
<polyline fill="none" stroke="black" points="226,-168 226,-156 "/>
<path fill="none" stroke="black" d="M226,-156C226,-150 232,-144 238,-144"/>
<polyline fill="none" stroke="black" points="238,-144 378,-144 "/>
<path fill="none" stroke="black" d="M378,-144C384,-144 390,-150 390,-156"/>
<polyline fill="none" stroke="black" points="390,-156 390,-168 "/>
<path fill="none" stroke="black" d="M390,-168C390,-174 384,-180 378,-180"/>
<text text-anchor="start" x="234.5" y="-156.5" font-family="Times,serif" font-size="14.00">Exponential growth/decay</text>
</a>
</g>
<!-- TAYLOR_SERIES&#45;&gt;EXPONENTIAL_GROWTH_DECAY -->
<g id="edge6" class="edge"><title>TAYLOR_SERIES&#45;&gt;EXPONENTIAL_GROWTH_DECAY</title>
<path fill="none" stroke="black" d="M391.091,-215.876C376.842,-206.808 359.154,-195.552 343.764,-185.759"/>
<polygon fill="black" stroke="black" points="345.328,-182.606 335.012,-180.19 341.57,-188.511 345.328,-182.606"/>
</g>
<!-- FUNDAMENTAL_THEOREM_OF_CALCULUS -->
<g id="node8" class="node"><title>FUNDAMENTAL_THEOREM_OF_CALCULUS</title>
<a xlink:href="FUNDAMENTAL_THEOREM_OF_CALCULUS.html" xlink:title="Fundamental theorem of calculus" target="_top">
<polyline fill="none" stroke="black" points="374.25,-108 195.75,-108 "/>
<path fill="none" stroke="black" d="M195.75,-108C189.75,-108 183.75,-102 183.75,-96"/>
<polyline fill="none" stroke="black" points="183.75,-96 183.75,-84 "/>
<path fill="none" stroke="black" d="M183.75,-84C183.75,-78 189.75,-72 195.75,-72"/>
<polyline fill="none" stroke="black" points="195.75,-72 374.25,-72 "/>
<path fill="none" stroke="black" d="M374.25,-72C380.25,-72 386.25,-78 386.25,-84"/>
<polyline fill="none" stroke="black" points="386.25,-84 386.25,-96 "/>
<path fill="none" stroke="black" d="M386.25,-96C386.25,-102 380.25,-108 374.25,-108"/>
<text text-anchor="start" x="192" y="-84.5" font-family="Times,serif" font-size="14.00">Fundamental theorem of calculus</text>
</a>
</g>
<!-- TAYLOR_SERIES&#45;&gt;FUNDAMENTAL_THEOREM_OF_CALCULUS -->
<g id="edge8" class="edge"><title>TAYLOR_SERIES&#45;&gt;FUNDAMENTAL_THEOREM_OF_CALCULUS</title>
<path fill="none" stroke="black" d="M418.671,-215.69C418.521,-196.22 415.446,-164.633 399,-144 388.082,-130.303 372.807,-119.986 356.979,-112.275"/>
<polygon fill="black" stroke="black" points="358.177,-108.975 347.625,-108.03 355.285,-115.349 358.177,-108.975"/>
</g>
<!-- LHOPITALS_RULE -->
<g id="node13" class="node"><title>LHOPITALS_RULE</title>
<a xlink:href="LHOPITALS_RULE.html" xlink:title="l&#39;Hopital&#39;s Rule" target="_top">
<polyline fill="none" stroke="black" points="495.25,-108 416.75,-108 "/>
<path fill="none" stroke="black" d="M416.75,-108C410.75,-108 404.75,-102 404.75,-96"/>
<polyline fill="none" stroke="black" points="404.75,-96 404.75,-84 "/>
<path fill="none" stroke="black" d="M404.75,-84C404.75,-78 410.75,-72 416.75,-72"/>
<polyline fill="none" stroke="black" points="416.75,-72 495.25,-72 "/>
<path fill="none" stroke="black" d="M495.25,-72C501.25,-72 507.25,-78 507.25,-84"/>
<polyline fill="none" stroke="black" points="507.25,-84 507.25,-96 "/>
<path fill="none" stroke="black" d="M507.25,-96C507.25,-102 501.25,-108 495.25,-108"/>
<text text-anchor="start" x="413" y="-84.5" font-family="Times,serif" font-size="14.00">l&#39;Hopital&#39;s Rule</text>
</a>
</g>
<!-- TAYLOR_SERIES&#45;&gt;LHOPITALS_RULE -->
<g id="edge14" class="edge"><title>TAYLOR_SERIES&#45;&gt;LHOPITALS_RULE</title>
<path fill="none" stroke="black" d="M422.584,-215.871C429.089,-191.564 441.063,-146.819 448.771,-118.013"/>
<polygon fill="black" stroke="black" points="452.196,-118.754 451.4,-108.189 445.434,-116.945 452.196,-118.754"/>
</g>
<!-- THE_EXPONENTIAL_FUNCTION -->
<g id="node18" class="node"><title>THE_EXPONENTIAL_FUNCTION</title>
<a xlink:href="THE_EXPONENTIAL_FUNCTION.html" xlink:title="Exponential function" target="_top">
<polyline fill="none" stroke="black" points="465,-36 355,-36 "/>
<path fill="none" stroke="black" d="M355,-36C349,-36 343,-30 343,-24"/>
<polyline fill="none" stroke="black" points="343,-24 343,-12 "/>
<path fill="none" stroke="black" d="M343,-12C343,-6 349,-0 355,-0"/>
<polyline fill="none" stroke="black" points="355,-0 465,-0 "/>
<path fill="none" stroke="black" d="M465,-0C471,-0 477,-6 477,-12"/>
<polyline fill="none" stroke="black" points="477,-12 477,-24 "/>
<path fill="none" stroke="black" d="M477,-24C477,-30 471,-36 465,-36"/>
<text text-anchor="start" x="351.5" y="-12.5" font-family="Times,serif" font-size="14.00">Exponential function</text>
</a>
</g>
<!-- TAYLOR_SERIES&#45;&gt;THE_EXPONENTIAL_FUNCTION -->
<g id="edge20" class="edge"><title>TAYLOR_SERIES&#45;&gt;THE_EXPONENTIAL_FUNCTION</title>
<path fill="none" stroke="black" d="M442.223,-215.797C480.691,-186.298 548.256,-124.191 516,-72 507.659,-58.5043 494.726,-48.3301 480.724,-40.7009"/>
<polygon fill="black" stroke="black" points="481.915,-37.3838 471.405,-36.0456 478.787,-43.6458 481.915,-37.3838"/>
</g>
<!-- CONTINUOUS_TIME_MARKOV_CHAIN&#45;&gt;FUNDAMENTAL_THEOREM_OF_CALCULUS -->
<!-- DEFINITION_OF_DERIVATIVE -->
<g id="node4" class="node"><title>DEFINITION_OF_DERIVATIVE</title>
<a xlink:href="DEFINITION_OF_DERIVATIVE.html" xlink:title="Differentiation" target="_top">
<polyline fill="none" stroke="black" points="381.25,-396 306.75,-396 "/>
<path fill="none" stroke="black" d="M306.75,-396C300.75,-396 294.75,-390 294.75,-384"/>
<polyline fill="none" stroke="black" points="294.75,-384 294.75,-372 "/>
<path fill="none" stroke="black" d="M294.75,-372C294.75,-366 300.75,-360 306.75,-360"/>
<polyline fill="none" stroke="black" points="306.75,-360 381.25,-360 "/>
<path fill="none" stroke="black" d="M381.25,-360C387.25,-360 393.25,-366 393.25,-372"/>
<polyline fill="none" stroke="black" points="393.25,-372 393.25,-384 "/>
<path fill="none" stroke="black" d="M393.25,-384C393.25,-390 387.25,-396 381.25,-396"/>
<text text-anchor="start" x="303" y="-372.5" font-family="Times,serif" font-size="14.00">Differentiation</text>
</a>
</g>
<!-- DEFINITION_OF_DERIVATIVE&#45;&gt;TAYLOR_SERIES -->
<g id="edge4" class="edge"><title>DEFINITION_OF_DERIVATIVE&#45;&gt;TAYLOR_SERIES</title>
<path fill="none" stroke="black" d="M340.388,-359.827C337.353,-341.045 335.184,-310.607 347,-288 353.302,-275.942 363.726,-265.889 374.67,-257.895"/>
<polygon fill="black" stroke="black" points="376.774,-260.698 383.081,-252.185 372.842,-254.906 376.774,-260.698"/>
</g>
<!-- LIMITS -->
<g id="node15" class="node"><title>LIMITS</title>
<a xlink:href="LIMITS.html" xlink:title="Limit of a function" target="_top">
<polyline fill="none" stroke="black" points="467.25,-324 368.75,-324 "/>
<path fill="none" stroke="black" d="M368.75,-324C362.75,-324 356.75,-318 356.75,-312"/>
<polyline fill="none" stroke="black" points="356.75,-312 356.75,-300 "/>
<path fill="none" stroke="black" d="M356.75,-300C356.75,-294 362.75,-288 368.75,-288"/>
<polyline fill="none" stroke="black" points="368.75,-288 467.25,-288 "/>
<path fill="none" stroke="black" d="M467.25,-288C473.25,-288 479.25,-294 479.25,-300"/>
<polyline fill="none" stroke="black" points="479.25,-300 479.25,-312 "/>
<path fill="none" stroke="black" d="M479.25,-312C479.25,-318 473.25,-324 467.25,-324"/>
<text text-anchor="start" x="365" y="-300.5" font-family="Times,serif" font-size="14.00">Limit of a function</text>
</a>
</g>
<!-- DEFINITION_OF_DERIVATIVE&#45;&gt;LIMITS -->
<!-- FUNDAMENTAL_THEOREM_OF_CALCULUS&#45;&gt;THE_EXPONENTIAL_FUNCTION -->
<!-- INTRODUCTION_TO_CONTINUITY -->
<g id="node11" class="node"><title>INTRODUCTION_TO_CONTINUITY</title>
<a xlink:href="INTRODUCTION_TO_CONTINUITY.html" xlink:title="Introduction to continuity" target="_top">
<polyline fill="none" stroke="black" points="576,-396 440,-396 "/>
<path fill="none" stroke="black" d="M440,-396C434,-396 428,-390 428,-384"/>
<polyline fill="none" stroke="black" points="428,-384 428,-372 "/>
<path fill="none" stroke="black" d="M428,-372C428,-366 434,-360 440,-360"/>
<polyline fill="none" stroke="black" points="440,-360 576,-360 "/>
<path fill="none" stroke="black" d="M576,-360C582,-360 588,-366 588,-372"/>
<polyline fill="none" stroke="black" points="588,-372 588,-384 "/>
<path fill="none" stroke="black" d="M588,-384C588,-390 582,-396 576,-396"/>
<text text-anchor="start" x="436.5" y="-372.5" font-family="Times,serif" font-size="14.00">Introduction to continuity</text>
</a>
</g>
<!-- INTRODUCTION_TO_CONTINUITY&#45;&gt;TAYLOR_SERIES -->
<g id="edge12" class="edge"><title>INTRODUCTION_TO_CONTINUITY&#45;&gt;TAYLOR_SERIES</title>
<path fill="none" stroke="black" d="M507.598,-359.931C506.414,-340.965 502.228,-310.106 488,-288 480.44,-276.254 469.322,-266.126 458.163,-257.962"/>
<polygon fill="black" stroke="black" points="459.898,-254.907 449.679,-252.108 455.922,-260.669 459.898,-254.907"/>
</g>
<!-- LIMITS&#45;&gt;TAYLOR_SERIES -->
<g id="edge16" class="edge"><title>LIMITS&#45;&gt;TAYLOR_SERIES</title>
<path fill="none" stroke="black" d="M418,-287.697C418,-279.983 418,-270.712 418,-262.112"/>
<polygon fill="black" stroke="black" points="421.5,-262.104 418,-252.104 414.5,-262.104 421.5,-262.104"/>
</g>
</g>
</svg>
