<?xml version="1.0" encoding="UTF-8" standalone="no"?>
<!DOCTYPE svg PUBLIC "-//W3C//DTD SVG 1.1//EN"
 "http://www.w3.org/Graphics/SVG/1.1/DTD/svg11.dtd">
<!-- Generated by graphviz version 2.26.3 (20100126.1600)
 -->
<!-- Title: _anonymous_0 Pages: 1 -->
<svg width="694pt" height="404pt"
 viewBox="0.00 0.00 694.00 404.00" xmlns="http://www.w3.org/2000/svg" xmlns:xlink="http://www.w3.org/1999/xlink">
<g id="graph1" class="graph" transform="scale(1 1) rotate(0) translate(4 400)">
<title>_anonymous_0</title>
<!-- TAYLOR_SERIES -->
<g id="node1" class="node"><title>TAYLOR_SERIES</title>
<a xlink:href="TAYLOR_SERIES.html" xlink:title=" One dimensional Taylor Series " target="_top">
<polyline fill="none" stroke="blue" stroke-width="2" points="611,-252 401,-252 "/>
<path fill="none" stroke="blue" stroke-width="2" d="M401,-252C395,-252 389,-246 389,-240"/>
<polyline fill="none" stroke="blue" stroke-width="2" points="389,-240 389,-228 "/>
<path fill="none" stroke="blue" stroke-width="2" d="M389,-228C389,-222 395,-216 401,-216"/>
<polyline fill="none" stroke="blue" stroke-width="2" points="401,-216 611,-216 "/>
<path fill="none" stroke="blue" stroke-width="2" d="M611,-216C617,-216 623,-222 623,-228"/>
<polyline fill="none" stroke="blue" stroke-width="2" points="623,-228 623,-240 "/>
<path fill="none" stroke="blue" stroke-width="2" d="M623,-240C623,-246 617,-252 611,-252"/>
<text text-anchor="start" x="397.5" y="-231.233" font-family="Times Roman,serif" font-size="14.00"> One dimensional Taylor Series </text>
</a>
</g>
<!-- EXPONENTIAL_GROWTH_DECAY -->
<g id="node4" class="node"><title>EXPONENTIAL_GROWTH_DECAY</title>
<a xlink:href="EXPONENTIAL_GROWTH_DECAY.html" xlink:title=" Exponential growth/decay " target="_top">
<polyline fill="none" stroke="black" points="194,-180 12,-180 "/>
<path fill="none" stroke="black" d="M12,-180C6,-180 5.92119e-14,-174 4.73695e-14,-168"/>
<polyline fill="none" stroke="black" points="4.73695e-14,-168 2.36848e-14,-156 "/>
<path fill="none" stroke="black" d="M2.36848e-14,-156C1.18424e-14,-150 6,-144 12,-144"/>
<polyline fill="none" stroke="black" points="12,-144 194,-144 "/>
<path fill="none" stroke="black" d="M194,-144C200,-144 206,-150 206,-156"/>
<polyline fill="none" stroke="black" points="206,-156 206,-168 "/>
<path fill="none" stroke="black" d="M206,-168C206,-174 200,-180 194,-180"/>
<text text-anchor="start" x="8" y="-159.233" font-family="Times Roman,serif" font-size="14.00"> Exponential growth/decay </text>
</a>
</g>
<!-- TAYLOR_SERIES&#45;&gt;EXPONENTIAL_GROWTH_DECAY -->
<g id="edge4" class="edge"><title>TAYLOR_SERIES&#45;&gt;EXPONENTIAL_GROWTH_DECAY</title>
<path fill="none" stroke="black" d="M405.086,-215.971C346.892,-205.574 273.642,-192.487 213.848,-181.804"/>
<polygon fill="black" stroke="black" points="214.452,-178.357 203.992,-180.043 213.22,-185.247 214.452,-178.357"/>
</g>
<!-- FUNDAMENTAL_THEOREM_OF_CALCULUS -->
<g id="node8" class="node"><title>FUNDAMENTAL_THEOREM_OF_CALCULUS</title>
<a xlink:href="FUNDAMENTAL_THEOREM_OF_CALCULUS.html" xlink:title=" Fundamental theorem of calculus " target="_top">
<polyline fill="none" stroke="black" points="466,-180 236,-180 "/>
<path fill="none" stroke="black" d="M236,-180C230,-180 224,-174 224,-168"/>
<polyline fill="none" stroke="black" points="224,-168 224,-156 "/>
<path fill="none" stroke="black" d="M224,-156C224,-150 230,-144 236,-144"/>
<polyline fill="none" stroke="black" points="236,-144 466,-144 "/>
<path fill="none" stroke="black" d="M466,-144C472,-144 478,-150 478,-156"/>
<polyline fill="none" stroke="black" points="478,-156 478,-168 "/>
<path fill="none" stroke="black" d="M478,-168C478,-174 472,-180 466,-180"/>
<text text-anchor="start" x="232" y="-159.233" font-family="Times Roman,serif" font-size="14.00"> Fundamental theorem of calculus </text>
</a>
</g>
<!-- TAYLOR_SERIES&#45;&gt;FUNDAMENTAL_THEOREM_OF_CALCULUS -->
<g id="edge8" class="edge"><title>TAYLOR_SERIES&#45;&gt;FUNDAMENTAL_THEOREM_OF_CALCULUS</title>
<path fill="none" stroke="black" d="M466.887,-215.831C446.249,-206.245 420.752,-194.401 398.933,-184.266"/>
<polygon fill="black" stroke="black" points="400.376,-181.077 389.832,-180.038 397.427,-187.425 400.376,-181.077"/>
</g>
<!-- CONTINUOUS_TIME_MARKOV_CHAIN -->
<g id="node10" class="node"><title>CONTINUOUS_TIME_MARKOV_CHAIN</title>
<a xlink:href="CONTINUOUS_TIME_MARKOV_CHAIN.html" xlink:title=" Markov chains in continuous time " target="_top">
<polyline fill="none" stroke="black" points="451,-108 217,-108 "/>
<path fill="none" stroke="black" d="M217,-108C211,-108 205,-102 205,-96"/>
<polyline fill="none" stroke="black" points="205,-96 205,-84 "/>
<path fill="none" stroke="black" d="M205,-84C205,-78 211,-72 217,-72"/>
<polyline fill="none" stroke="black" points="217,-72 451,-72 "/>
<path fill="none" stroke="black" d="M451,-72C457,-72 463,-78 463,-84"/>
<polyline fill="none" stroke="black" points="463,-84 463,-96 "/>
<path fill="none" stroke="black" d="M463,-96C463,-102 457,-108 451,-108"/>
<text text-anchor="start" x="213.5" y="-87.2333" font-family="Times Roman,serif" font-size="14.00"> Markov chains in continuous time </text>
</a>
</g>
<!-- TAYLOR_SERIES&#45;&gt;CONTINUOUS_TIME_MARKOV_CHAIN -->
<g id="edge10" class="edge"><title>TAYLOR_SERIES&#45;&gt;CONTINUOUS_TIME_MARKOV_CHAIN</title>
<path fill="none" stroke="black" d="M507.086,-215.842C507.276,-195.858 504.475,-163.934 487,-144 476.651,-132.195 446.306,-120.432 415.341,-110.913"/>
<polygon fill="black" stroke="black" points="416.317,-107.552 405.733,-108.033 414.307,-114.257 416.317,-107.552"/>
</g>
<!-- LHOPITALS_RULE -->
<g id="node13" class="node"><title>LHOPITALS_RULE</title>
<a xlink:href="LHOPITALS_RULE.html" xlink:title=" l&#39;Hopital&#39;s Rule " target="_top">
<polyline fill="none" stroke="black" points="595,-108 493,-108 "/>
<path fill="none" stroke="black" d="M493,-108C487,-108 481,-102 481,-96"/>
<polyline fill="none" stroke="black" points="481,-96 481,-84 "/>
<path fill="none" stroke="black" d="M481,-84C481,-78 487,-72 493,-72"/>
<polyline fill="none" stroke="black" points="493,-72 595,-72 "/>
<path fill="none" stroke="black" d="M595,-72C601,-72 607,-78 607,-84"/>
<polyline fill="none" stroke="black" points="607,-84 607,-96 "/>
<path fill="none" stroke="black" d="M607,-96C607,-102 601,-108 595,-108"/>
<text text-anchor="start" x="489.5" y="-87.2333" font-family="Times Roman,serif" font-size="14.00"> l&#39;Hopital&#39;s Rule </text>
</a>
</g>
<!-- TAYLOR_SERIES&#45;&gt;LHOPITALS_RULE -->
<g id="edge14" class="edge"><title>TAYLOR_SERIES&#45;&gt;LHOPITALS_RULE</title>
<path fill="none" stroke="black" d="M510.813,-215.762C517.323,-191.093 528.995,-146.86 536.618,-117.973"/>
<polygon fill="black" stroke="black" points="540.059,-118.652 539.226,-108.09 533.291,-116.866 540.059,-118.652"/>
</g>
<!-- THE_EXPONENTIAL_FUNCTION -->
<g id="node15" class="node"><title>THE_EXPONENTIAL_FUNCTION</title>
<a xlink:href="THE_EXPONENTIAL_FUNCTION.html" xlink:title=" Exponential function " target="_top">
<polyline fill="none" stroke="black" points="556,-36 412,-36 "/>
<path fill="none" stroke="black" d="M412,-36C406,-36 400,-30 400,-24"/>
<polyline fill="none" stroke="black" points="400,-24 400,-12 "/>
<path fill="none" stroke="black" d="M400,-12C400,-6 406,-1.7256e-14 412,-1.67485e-14"/>
<polyline fill="none" stroke="black" points="412,-1.67485e-14 556,-4.56777e-15 "/>
<path fill="none" stroke="black" d="M556,-4.56777e-15C562,-4.06024e-15 568,-6 568,-12"/>
<polyline fill="none" stroke="black" points="568,-12 568,-24 "/>
<path fill="none" stroke="black" d="M568,-24C568,-30 562,-36 556,-36"/>
<text text-anchor="start" x="408" y="-15.2333" font-family="Times Roman,serif" font-size="14.00"> Exponential function </text>
</a>
</g>
<!-- TAYLOR_SERIES&#45;&gt;THE_EXPONENTIAL_FUNCTION -->
<g id="edge16" class="edge"><title>TAYLOR_SERIES&#45;&gt;THE_EXPONENTIAL_FUNCTION</title>
<path fill="none" stroke="black" d="M534.43,-215.821C577.604,-185.897 651.15,-124.358 616,-72 606.482,-57.8228 592.513,-47.3652 577.181,-39.6519"/>
<polygon fill="black" stroke="black" points="578.566,-36.4363 568.02,-35.4202 575.63,-42.7911 578.566,-36.4363"/>
</g>
<!-- INTRODUCTION_TO_CONTINUITY -->
<g id="node2" class="node"><title>INTRODUCTION_TO_CONTINUITY</title>
<a xlink:href="INTRODUCTION_TO_CONTINUITY.html" xlink:title=" Introduction to continuity " target="_top">
<polyline fill="none" stroke="black" points="504,-396 324,-396 "/>
<path fill="none" stroke="black" d="M324,-396C318,-396 312,-390 312,-384"/>
<polyline fill="none" stroke="black" points="312,-384 312,-372 "/>
<path fill="none" stroke="black" d="M312,-372C312,-366 318,-360 324,-360"/>
<polyline fill="none" stroke="black" points="324,-360 504,-360 "/>
<path fill="none" stroke="black" d="M504,-360C510,-360 516,-366 516,-372"/>
<polyline fill="none" stroke="black" points="516,-372 516,-384 "/>
<path fill="none" stroke="black" d="M516,-384C516,-390 510,-396 504,-396"/>
<text text-anchor="start" x="320.5" y="-375.233" font-family="Times Roman,serif" font-size="14.00"> Introduction to continuity </text>
</a>
</g>
<!-- INTRODUCTION_TO_CONTINUITY&#45;&gt;TAYLOR_SERIES -->
<g id="edge2" class="edge"><title>INTRODUCTION_TO_CONTINUITY&#45;&gt;TAYLOR_SERIES</title>
<path fill="none" stroke="black" d="M414.131,-359.668C415.076,-340.399 418.932,-309.901 433,-288 440.536,-276.268 451.579,-266.196 462.807,-258.039"/>
<polygon fill="black" stroke="black" points="465.096,-260.713 471.373,-252.178 461.144,-254.936 465.096,-260.713"/>
</g>
<!-- DEFINITION_OF_DERIVATIVE -->
<g id="node18" class="node"><title>DEFINITION_OF_DERIVATIVE</title>
<a xlink:href="DEFINITION_OF_DERIVATIVE.html" xlink:title=" Differentiation " target="_top">
<polyline fill="none" stroke="black" points="558,-324 454,-324 "/>
<path fill="none" stroke="black" d="M454,-324C448,-324 442,-318 442,-312"/>
<polyline fill="none" stroke="black" points="442,-312 442,-300 "/>
<path fill="none" stroke="black" d="M442,-300C442,-294 448,-288 454,-288"/>
<polyline fill="none" stroke="black" points="454,-288 558,-288 "/>
<path fill="none" stroke="black" d="M558,-288C564,-288 570,-294 570,-300"/>
<polyline fill="none" stroke="black" points="570,-300 570,-312 "/>
<path fill="none" stroke="black" d="M570,-312C570,-318 564,-324 558,-324"/>
<text text-anchor="start" x="450.5" y="-303.233" font-family="Times Roman,serif" font-size="14.00"> Differentiation </text>
</a>
</g>
<!-- INTRODUCTION_TO_CONTINUITY&#45;&gt;DEFINITION_OF_DERIVATIVE -->
<!-- EXPONENTIAL_GROWTH_DECAY&#45;&gt;CONTINUOUS_TIME_MARKOV_CHAIN -->
<!-- LIMITS -->
<g id="node6" class="node"><title>LIMITS</title>
<a xlink:href="LIMITS.html" xlink:title=" Limit of a function " target="_top">
<polyline fill="none" stroke="black" points="674,-396 546,-396 "/>
<path fill="none" stroke="black" d="M546,-396C540,-396 534,-390 534,-384"/>
<polyline fill="none" stroke="black" points="534,-384 534,-372 "/>
<path fill="none" stroke="black" d="M534,-372C534,-366 540,-360 546,-360"/>
<polyline fill="none" stroke="black" points="546,-360 674,-360 "/>
<path fill="none" stroke="black" d="M674,-360C680,-360 686,-366 686,-372"/>
<polyline fill="none" stroke="black" points="686,-372 686,-384 "/>
<path fill="none" stroke="black" d="M686,-384C686,-390 680,-396 674,-396"/>
<text text-anchor="start" x="542.5" y="-375.233" font-family="Times Roman,serif" font-size="14.00"> Limit of a function </text>
</a>
</g>
<!-- LIMITS&#45;&gt;TAYLOR_SERIES -->
<g id="edge6" class="edge"><title>LIMITS&#45;&gt;TAYLOR_SERIES</title>
<path fill="none" stroke="black" d="M607.077,-359.951C603.243,-340.644 595.029,-309.855 579,-288 570.447,-276.339 558.651,-266.101 547.033,-257.764"/>
<polygon fill="black" stroke="black" points="548.885,-254.79 538.654,-252.036 544.934,-260.569 548.885,-254.79"/>
</g>
<!-- CONTINUOUS_TIME_MARKOV_CHAIN&#45;&gt;THE_EXPONENTIAL_FUNCTION -->
<!-- DEFINITION_OF_DERIVATIVE&#45;&gt;TAYLOR_SERIES -->
<g id="edge20" class="edge"><title>DEFINITION_OF_DERIVATIVE&#45;&gt;TAYLOR_SERIES</title>
<path fill="none" stroke="black" d="M506,-287.831C506,-280.131 506,-270.974 506,-262.417"/>
<polygon fill="black" stroke="black" points="509.5,-262.413 506,-252.413 502.5,-262.413 509.5,-262.413"/>
</g>
</g>
</svg>
