<?xml version="1.0" encoding="UTF-8" standalone="no"?>
<!DOCTYPE svg PUBLIC "-//W3C//DTD SVG 1.1//EN"
 "http://www.w3.org/Graphics/SVG/1.1/DTD/svg11.dtd">
<!-- Generated by graphviz version 2.26.3 (20100126.1600)
 -->
<!-- Title: _anonymous_0 Pages: 1 -->
<svg width="232pt" height="188pt"
 viewBox="0.00 0.00 232.00 188.00" xmlns="http://www.w3.org/2000/svg" xmlns:xlink="http://www.w3.org/1999/xlink">
<g id="graph1" class="graph" transform="scale(1 1) rotate(0) translate(4 184)">
<title>_anonymous_0</title>
<!-- THE_EXPONENTIAL_FUNCTION -->
<g id="node1" class="node"><title>THE_EXPONENTIAL_FUNCTION</title>
<a xlink:href="THE_EXPONENTIAL_FUNCTION.html" xlink:title="Exponential function" target="_top">
<polyline fill="none" stroke="blue" stroke-width="2" points="180,-108 44,-108 "/>
<path fill="none" stroke="blue" stroke-width="2" d="M44,-108C38,-108 32,-102 32,-96"/>
<polyline fill="none" stroke="blue" stroke-width="2" points="32,-96 32,-84 "/>
<path fill="none" stroke="blue" stroke-width="2" d="M32,-84C32,-78 38,-72 44,-72"/>
<polyline fill="none" stroke="blue" stroke-width="2" points="44,-72 180,-72 "/>
<path fill="none" stroke="blue" stroke-width="2" d="M180,-72C186,-72 192,-78 192,-84"/>
<polyline fill="none" stroke="blue" stroke-width="2" points="192,-84 192,-96 "/>
<path fill="none" stroke="blue" stroke-width="2" d="M192,-96C192,-102 186,-108 180,-108"/>
<text text-anchor="start" x="40.5" y="-87.2333" font-family="Times Roman,serif" font-size="14.00">Exponential function</text>
</a>
</g>
<!-- EXPONENTIAL_GROWTH_DECAY -->
<g id="node4" class="node"><title>EXPONENTIAL_GROWTH_DECAY</title>
<a xlink:href="EXPONENTIAL_GROWTH_DECAY.html" xlink:title="Exponential growth/decay" target="_top">
<polyline fill="none" stroke="black" points="199,-36 25,-36 "/>
<path fill="none" stroke="black" d="M25,-36C19,-36 13,-30 13,-24"/>
<polyline fill="none" stroke="black" points="13,-24 13,-12 "/>
<path fill="none" stroke="black" d="M13,-12C13,-6 19,-1.73329e-14 25,-1.69023e-14"/>
<polyline fill="none" stroke="black" points="25,-1.69023e-14 199,-4.41398e-15 "/>
<path fill="none" stroke="black" d="M199,-4.41398e-15C205,-3.98335e-15 211,-6 211,-12"/>
<polyline fill="none" stroke="black" points="211,-12 211,-24 "/>
<path fill="none" stroke="black" d="M211,-24C211,-30 205,-36 199,-36"/>
<text text-anchor="start" x="21.5" y="-15.2333" font-family="Times Roman,serif" font-size="14.00">Exponential growth/decay</text>
</a>
</g>
<!-- THE_EXPONENTIAL_FUNCTION&#45;&gt;EXPONENTIAL_GROWTH_DECAY -->
<g id="edge4" class="edge"><title>THE_EXPONENTIAL_FUNCTION&#45;&gt;EXPONENTIAL_GROWTH_DECAY</title>
<path fill="none" stroke="black" d="M112,-71.8314C112,-64.131 112,-54.9743 112,-46.4166"/>
<polygon fill="black" stroke="black" points="115.5,-46.4132 112,-36.4133 108.5,-46.4133 115.5,-46.4132"/>
</g>
<!-- TAYLOR_SERIES -->
<g id="node2" class="node"><title>TAYLOR_SERIES</title>
<a xlink:href="TAYLOR_SERIES.html" xlink:title="One dimensional Taylor Series" target="_top">
<polyline fill="none" stroke="black" points="212,-180 12,-180 "/>
<path fill="none" stroke="black" d="M12,-180C6,-180 8.28967e-14,-174 6.63173e-14,-168"/>
<polyline fill="none" stroke="black" points="6.63173e-14,-168 3.31587e-14,-156 "/>
<path fill="none" stroke="black" d="M3.31587e-14,-156C1.65793e-14,-150 6,-144 12,-144"/>
<polyline fill="none" stroke="black" points="12,-144 212,-144 "/>
<path fill="none" stroke="black" d="M212,-144C218,-144 224,-150 224,-156"/>
<polyline fill="none" stroke="black" points="224,-156 224,-168 "/>
<path fill="none" stroke="black" d="M224,-168C224,-174 218,-180 212,-180"/>
<text text-anchor="start" x="8" y="-159.233" font-family="Times Roman,serif" font-size="14.00">One dimensional Taylor Series</text>
</a>
</g>
<!-- TAYLOR_SERIES&#45;&gt;THE_EXPONENTIAL_FUNCTION -->
<g id="edge2" class="edge"><title>TAYLOR_SERIES&#45;&gt;THE_EXPONENTIAL_FUNCTION</title>
<path fill="none" stroke="black" d="M112,-143.831C112,-136.131 112,-126.974 112,-118.417"/>
<polygon fill="black" stroke="black" points="115.5,-118.413 112,-108.413 108.5,-118.413 115.5,-118.413"/>
</g>
</g>
</svg>
