<?xml version="1.0" encoding="UTF-8" standalone="no"?>
<!DOCTYPE svg PUBLIC "-//W3C//DTD SVG 1.1//EN"
 "http://www.w3.org/Graphics/SVG/1.1/DTD/svg11.dtd">
<!-- Generated by graphviz version 2.28.0 (20110509.1545)
 -->
<!-- Title: _anonymous_0 Pages: 1 -->
<svg width="196pt" height="188pt"
 viewBox="0.00 0.00 196.00 188.00" xmlns="http://www.w3.org/2000/svg" xmlns:xlink="http://www.w3.org/1999/xlink">
<g id="graph1" class="graph" transform="scale(1 1) rotate(0) translate(4 184)">
<title>_anonymous_0</title>
<!-- THE_EXPONENTIAL_FUNCTION -->
<g id="node1" class="node"><title>THE_EXPONENTIAL_FUNCTION</title>
<a xlink:href="THE_EXPONENTIAL_FUNCTION.html" xlink:title="Exponential function" target="_top">
<polyline fill="none" stroke="blue" stroke-width="2" points="149,-108 39,-108 "/>
<path fill="none" stroke="blue" stroke-width="2" d="M39,-108C33,-108 27,-102 27,-96"/>
<polyline fill="none" stroke="blue" stroke-width="2" points="27,-96 27,-84 "/>
<path fill="none" stroke="blue" stroke-width="2" d="M27,-84C27,-78 33,-72 39,-72"/>
<polyline fill="none" stroke="blue" stroke-width="2" points="39,-72 149,-72 "/>
<path fill="none" stroke="blue" stroke-width="2" d="M149,-72C155,-72 161,-78 161,-84"/>
<polyline fill="none" stroke="blue" stroke-width="2" points="161,-84 161,-96 "/>
<path fill="none" stroke="blue" stroke-width="2" d="M161,-96C161,-102 155,-108 149,-108"/>
<text text-anchor="start" x="35.5" y="-84.5" font-family="Times,serif" font-size="14.00">Exponential function</text>
</a>
</g>
<!-- EXPONENTIAL_GROWTH_DECAY -->
<g id="node2" class="node"><title>EXPONENTIAL_GROWTH_DECAY</title>
<a xlink:href="EXPONENTIAL_GROWTH_DECAY.html" xlink:title="Exponential growth/decay" target="_top">
<polyline fill="none" stroke="black" points="164,-36 24,-36 "/>
<path fill="none" stroke="black" d="M24,-36C18,-36 12,-30 12,-24"/>
<polyline fill="none" stroke="black" points="12,-24 12,-12 "/>
<path fill="none" stroke="black" d="M12,-12C12,-6 18,-0 24,-0"/>
<polyline fill="none" stroke="black" points="24,-0 164,-0 "/>
<path fill="none" stroke="black" d="M164,-0C170,-0 176,-6 176,-12"/>
<polyline fill="none" stroke="black" points="176,-12 176,-24 "/>
<path fill="none" stroke="black" d="M176,-24C176,-30 170,-36 164,-36"/>
<text text-anchor="start" x="20.5" y="-12.5" font-family="Times,serif" font-size="14.00">Exponential growth/decay</text>
</a>
</g>
<!-- THE_EXPONENTIAL_FUNCTION&#45;&gt;EXPONENTIAL_GROWTH_DECAY -->
<g id="edge2" class="edge"><title>THE_EXPONENTIAL_FUNCTION&#45;&gt;EXPONENTIAL_GROWTH_DECAY</title>
<path fill="none" stroke="black" d="M94,-71.6966C94,-63.9827 94,-54.7125 94,-46.1124"/>
<polygon fill="black" stroke="black" points="97.5001,-46.1043 94,-36.1043 90.5001,-46.1044 97.5001,-46.1043"/>
</g>
<!-- TAYLOR_SERIES -->
<g id="node4" class="node"><title>TAYLOR_SERIES</title>
<a xlink:href="TAYLOR_SERIES.html" xlink:title="One dimensional Taylor Series" target="_top">
<polyline fill="none" stroke="black" points="176.25,-180 11.75,-180 "/>
<path fill="none" stroke="black" d="M11.75,-180C5.75,-180 -0.25,-174 -0.25,-168"/>
<polyline fill="none" stroke="black" points="-0.25,-168 -0.25,-156 "/>
<path fill="none" stroke="black" d="M-0.25,-156C-0.25,-150 5.75,-144 11.75,-144"/>
<polyline fill="none" stroke="black" points="11.75,-144 176.25,-144 "/>
<path fill="none" stroke="black" d="M176.25,-144C182.25,-144 188.25,-150 188.25,-156"/>
<polyline fill="none" stroke="black" points="188.25,-156 188.25,-168 "/>
<path fill="none" stroke="black" d="M188.25,-168C188.25,-174 182.25,-180 176.25,-180"/>
<text text-anchor="start" x="8" y="-156.5" font-family="Times,serif" font-size="14.00">One dimensional Taylor Series</text>
</a>
</g>
<!-- TAYLOR_SERIES&#45;&gt;THE_EXPONENTIAL_FUNCTION -->
<g id="edge4" class="edge"><title>TAYLOR_SERIES&#45;&gt;THE_EXPONENTIAL_FUNCTION</title>
<path fill="none" stroke="black" d="M94,-143.697C94,-135.983 94,-126.712 94,-118.112"/>
<polygon fill="black" stroke="black" points="97.5001,-118.104 94,-108.104 90.5001,-118.104 97.5001,-118.104"/>
</g>
</g>
</svg>
