<?xml version="1.0" encoding="UTF-8" standalone="no"?>
<!DOCTYPE svg PUBLIC "-//W3C//DTD SVG 1.1//EN"
 "http://www.w3.org/Graphics/SVG/1.1/DTD/svg11.dtd">
<!-- Generated by graphviz version 2.26.3 (20100126.1600)
 -->
<!-- Title: _anonymous_0 Pages: 1 -->
<svg width="242pt" height="188pt"
 viewBox="0.00 0.00 242.00 188.00" xmlns="http://www.w3.org/2000/svg" xmlns:xlink="http://www.w3.org/1999/xlink">
<g id="graph1" class="graph" transform="scale(1 1) rotate(0) translate(4 184)">
<title>_anonymous_0</title>
<!-- THE_EXPONENTIAL_FUNCTION -->
<g id="node1" class="node"><title>THE_EXPONENTIAL_FUNCTION</title>
<a xlink:href="THE_EXPONENTIAL_FUNCTION.html" xlink:title=" Exponential function " target="_top">
<polyline fill="none" stroke="blue" stroke-width="2" points="189,-108 45,-108 "/>
<path fill="none" stroke="blue" stroke-width="2" d="M45,-108C39,-108 33,-102 33,-96"/>
<polyline fill="none" stroke="blue" stroke-width="2" points="33,-96 33,-84 "/>
<path fill="none" stroke="blue" stroke-width="2" d="M33,-84C33,-78 39,-72 45,-72"/>
<polyline fill="none" stroke="blue" stroke-width="2" points="45,-72 189,-72 "/>
<path fill="none" stroke="blue" stroke-width="2" d="M189,-72C195,-72 201,-78 201,-84"/>
<polyline fill="none" stroke="blue" stroke-width="2" points="201,-84 201,-96 "/>
<path fill="none" stroke="blue" stroke-width="2" d="M201,-96C201,-102 195,-108 189,-108"/>
<text text-anchor="start" x="41" y="-87.2333" font-family="Times Roman,serif" font-size="14.00"> Exponential function </text>
</a>
</g>
<!-- EXPONENTIAL_GROWTH_DECAY -->
<g id="node2" class="node"><title>EXPONENTIAL_GROWTH_DECAY</title>
<a xlink:href="EXPONENTIAL_GROWTH_DECAY.html" xlink:title=" Exponential growth/decay " target="_top">
<polyline fill="none" stroke="black" points="208,-36 26,-36 "/>
<path fill="none" stroke="black" d="M26,-36C20,-36 14,-30 14,-24"/>
<polyline fill="none" stroke="black" points="14,-24 14,-12 "/>
<path fill="none" stroke="black" d="M14,-12C14,-6 20,-1.73497e-14 26,-1.69358e-14"/>
<polyline fill="none" stroke="black" points="26,-1.69358e-14 208,-4.38053e-15 "/>
<path fill="none" stroke="black" d="M208,-4.38053e-15C214,-3.96662e-15 220,-6 220,-12"/>
<polyline fill="none" stroke="black" points="220,-12 220,-24 "/>
<path fill="none" stroke="black" d="M220,-24C220,-30 214,-36 208,-36"/>
<text text-anchor="start" x="22" y="-15.2333" font-family="Times Roman,serif" font-size="14.00"> Exponential growth/decay </text>
</a>
</g>
<!-- THE_EXPONENTIAL_FUNCTION&#45;&gt;EXPONENTIAL_GROWTH_DECAY -->
<g id="edge2" class="edge"><title>THE_EXPONENTIAL_FUNCTION&#45;&gt;EXPONENTIAL_GROWTH_DECAY</title>
<path fill="none" stroke="black" d="M117,-71.8314C117,-64.131 117,-54.9743 117,-46.4166"/>
<polygon fill="black" stroke="black" points="120.5,-46.4132 117,-36.4133 113.5,-46.4133 120.5,-46.4132"/>
</g>
<!-- TAYLOR_SERIES -->
<g id="node4" class="node"><title>TAYLOR_SERIES</title>
<a xlink:href="TAYLOR_SERIES.html" xlink:title=" One dimensional Taylor Series " target="_top">
<polyline fill="none" stroke="black" points="222,-180 12,-180 "/>
<path fill="none" stroke="black" d="M12,-180C6,-180 9.71075e-14,-174 8.05282e-14,-168"/>
<polyline fill="none" stroke="black" points="8.05282e-14,-168 4.73695e-14,-156 "/>
<path fill="none" stroke="black" d="M4.73695e-14,-156C3.07902e-14,-150 6,-144 12,-144"/>
<polyline fill="none" stroke="black" points="12,-144 222,-144 "/>
<path fill="none" stroke="black" d="M222,-144C228,-144 234,-150 234,-156"/>
<polyline fill="none" stroke="black" points="234,-156 234,-168 "/>
<path fill="none" stroke="black" d="M234,-168C234,-174 228,-180 222,-180"/>
<text text-anchor="start" x="8.5" y="-159.233" font-family="Times Roman,serif" font-size="14.00"> One dimensional Taylor Series </text>
</a>
</g>
<!-- TAYLOR_SERIES&#45;&gt;THE_EXPONENTIAL_FUNCTION -->
<g id="edge4" class="edge"><title>TAYLOR_SERIES&#45;&gt;THE_EXPONENTIAL_FUNCTION</title>
<path fill="none" stroke="black" d="M117,-143.831C117,-136.131 117,-126.974 117,-118.417"/>
<polygon fill="black" stroke="black" points="120.5,-118.413 117,-108.413 113.5,-118.413 120.5,-118.413"/>
</g>
</g>
</svg>
