<?xml version="1.0" encoding="UTF-8" standalone="no"?>
<!DOCTYPE svg PUBLIC "-//W3C//DTD SVG 1.1//EN"
 "http://www.w3.org/Graphics/SVG/1.1/DTD/svg11.dtd">
<!-- Generated by graphviz version 2.26.3 (20100126.1600)
 -->
<!-- Title: _anonymous_0 Pages: 1 -->
<svg width="566pt" height="188pt"
 viewBox="0.00 0.00 566.00 188.00" xmlns="http://www.w3.org/2000/svg" xmlns:xlink="http://www.w3.org/1999/xlink">
<g id="graph1" class="graph" transform="scale(1 1) rotate(0) translate(4 184)">
<title>_anonymous_0</title>
<!-- THERMODYNAMIC_POTENTIALS -->
<g id="node1" class="node"><title>THERMODYNAMIC_POTENTIALS</title>
<a xlink:href="THERMODYNAMIC_POTENTIALS.html" xlink:title="Thermodynamic Potentials" target="_top">
<polyline fill="none" stroke="blue" stroke-width="2" points="338,-108 162,-108 "/>
<path fill="none" stroke="blue" stroke-width="2" d="M162,-108C156,-108 150,-102 150,-96"/>
<polyline fill="none" stroke="blue" stroke-width="2" points="150,-96 150,-84 "/>
<path fill="none" stroke="blue" stroke-width="2" d="M150,-84C150,-78 156,-72 162,-72"/>
<polyline fill="none" stroke="blue" stroke-width="2" points="162,-72 338,-72 "/>
<path fill="none" stroke="blue" stroke-width="2" d="M338,-72C344,-72 350,-78 350,-84"/>
<polyline fill="none" stroke="blue" stroke-width="2" points="350,-84 350,-96 "/>
<path fill="none" stroke="blue" stroke-width="2" d="M350,-96C350,-102 344,-108 338,-108"/>
<text text-anchor="start" x="158" y="-87.2333" font-family="Times Roman,serif" font-size="14.00">Thermodynamic Potentials</text>
</a>
</g>
<!-- PHASE_TRANSITIONS -->
<g id="node2" class="node"><title>PHASE_TRANSITIONS</title>
<a xlink:href="PHASE_TRANSITIONS.html" xlink:title="The theory of phase transitions" target="_top">
<polyline fill="none" stroke="black" points="253,-36 43,-36 "/>
<path fill="none" stroke="black" d="M43,-36C37,-36 31,-30 31,-24"/>
<polyline fill="none" stroke="black" points="31,-24 31,-12 "/>
<path fill="none" stroke="black" d="M31,-12C31,-6 37,-1.73992e-14 43,-1.70348e-14"/>
<polyline fill="none" stroke="black" points="43,-1.70348e-14 253,-4.28148e-15 "/>
<path fill="none" stroke="black" d="M253,-4.28148e-15C259,-3.91709e-15 265,-6 265,-12"/>
<polyline fill="none" stroke="black" points="265,-12 265,-24 "/>
<path fill="none" stroke="black" d="M265,-24C265,-30 259,-36 253,-36"/>
<text text-anchor="start" x="39.5" y="-15.2333" font-family="Times Roman,serif" font-size="14.00">The theory of phase transitions</text>
</a>
</g>
<!-- THERMODYNAMIC_POTENTIALS&#45;&gt;PHASE_TRANSITIONS -->
<g id="edge2" class="edge"><title>THERMODYNAMIC_POTENTIALS&#45;&gt;PHASE_TRANSITIONS</title>
<path fill="none" stroke="black" d="M224.261,-71.8314C211.456,-62.7927 195.809,-51.7476 182.028,-42.0198"/>
<polygon fill="black" stroke="black" points="183.919,-39.0703 173.731,-36.1628 179.882,-44.7891 183.919,-39.0703"/>
</g>
<!-- MAXWELL_RELATIONS -->
<g id="node8" class="node"><title>MAXWELL_RELATIONS</title>
<a xlink:href="MAXWELL_RELATIONS.html" xlink:title="Maxwell relations" target="_top">
<polyline fill="none" stroke="black" points="409,-36 295,-36 "/>
<path fill="none" stroke="black" d="M295,-36C289,-36 283,-30 283,-24"/>
<polyline fill="none" stroke="black" points="283,-24 283,-12 "/>
<path fill="none" stroke="black" d="M283,-12C283,-6 289,-1.71457e-14 295,-1.65278e-14"/>
<polyline fill="none" stroke="black" points="295,-1.65278e-14 409,-4.78844e-15 "/>
<path fill="none" stroke="black" d="M409,-4.78844e-15C415,-4.17058e-15 421,-6 421,-12"/>
<polyline fill="none" stroke="black" points="421,-12 421,-24 "/>
<path fill="none" stroke="black" d="M421,-24C421,-30 415,-36 409,-36"/>
<text text-anchor="start" x="291" y="-15.2333" font-family="Times Roman,serif" font-size="14.00">Maxwell relations</text>
</a>
</g>
<!-- THERMODYNAMIC_POTENTIALS&#45;&gt;MAXWELL_RELATIONS -->
<g id="edge8" class="edge"><title>THERMODYNAMIC_POTENTIALS&#45;&gt;MAXWELL_RELATIONS</title>
<path fill="none" stroke="black" d="M275.739,-71.8314C288.544,-62.7927 304.191,-51.7476 317.972,-42.0198"/>
<polygon fill="black" stroke="black" points="320.118,-44.7891 326.269,-36.1628 316.081,-39.0703 320.118,-44.7891"/>
</g>
<!-- EXACT_DIFFERENTIALS -->
<g id="node4" class="node"><title>EXACT_DIFFERENTIALS</title>
<a xlink:href="EXACT_DIFFERENTIALS.html" xlink:title="Theory of exact differentials" target="_top">
<polyline fill="none" stroke="black" points="200,-180 12,-180 "/>
<path fill="none" stroke="black" d="M12,-180C6,-180 5.92119e-14,-174 4.73695e-14,-168"/>
<polyline fill="none" stroke="black" points="4.73695e-14,-168 2.36848e-14,-156 "/>
<path fill="none" stroke="black" d="M2.36848e-14,-156C1.18424e-14,-150 6,-144 12,-144"/>
<polyline fill="none" stroke="black" points="12,-144 200,-144 "/>
<path fill="none" stroke="black" d="M200,-144C206,-144 212,-150 212,-156"/>
<polyline fill="none" stroke="black" points="212,-156 212,-168 "/>
<path fill="none" stroke="black" d="M212,-168C212,-174 206,-180 200,-180"/>
<text text-anchor="start" x="8.5" y="-159.233" font-family="Times Roman,serif" font-size="14.00">Theory of exact differentials</text>
</a>
</g>
<!-- EXACT_DIFFERENTIALS&#45;&gt;THERMODYNAMIC_POTENTIALS -->
<g id="edge4" class="edge"><title>EXACT_DIFFERENTIALS&#45;&gt;THERMODYNAMIC_POTENTIALS</title>
<path fill="none" stroke="black" d="M142.337,-143.831C161.34,-134.33 184.776,-122.612 204.925,-112.537"/>
<polygon fill="black" stroke="black" points="206.545,-115.641 213.924,-108.038 203.414,-109.38 206.545,-115.641"/>
</g>
<!-- LAWS_OF_THERMODYNAMICS -->
<g id="node6" class="node"><title>LAWS_OF_THERMODYNAMICS</title>
<a xlink:href="LAWS_OF_THERMODYNAMICS.html" xlink:title="The first and second laws of thermodynamics" target="_top">
<polyline fill="none" stroke="black" points="546,-180 242,-180 "/>
<path fill="none" stroke="black" d="M242,-180C236,-180 230,-174 230,-168"/>
<polyline fill="none" stroke="black" points="230,-168 230,-156 "/>
<path fill="none" stroke="black" d="M230,-156C230,-150 236,-144 242,-144"/>
<polyline fill="none" stroke="black" points="242,-144 546,-144 "/>
<path fill="none" stroke="black" d="M546,-144C552,-144 558,-150 558,-156"/>
<polyline fill="none" stroke="black" points="558,-156 558,-168 "/>
<path fill="none" stroke="black" d="M558,-168C558,-174 552,-180 546,-180"/>
<text text-anchor="start" x="238" y="-159.233" font-family="Times Roman,serif" font-size="14.00">The first and second laws of thermodynamics</text>
</a>
</g>
<!-- LAWS_OF_THERMODYNAMICS&#45;&gt;THERMODYNAMIC_POTENTIALS -->
<g id="edge6" class="edge"><title>LAWS_OF_THERMODYNAMICS&#45;&gt;THERMODYNAMIC_POTENTIALS</title>
<path fill="none" stroke="black" d="M357.663,-143.831C338.66,-134.33 315.224,-122.612 295.075,-112.537"/>
<polygon fill="black" stroke="black" points="296.586,-109.38 286.076,-108.038 293.455,-115.641 296.586,-109.38"/>
</g>
</g>
</svg>
