<?xml version="1.0" encoding="UTF-8" standalone="no"?>
<!DOCTYPE svg PUBLIC "-//W3C//DTD SVG 1.1//EN"
 "http://www.w3.org/Graphics/SVG/1.1/DTD/svg11.dtd">
<!-- Generated by graphviz version 2.36.0 (20140111.2315)
 -->
<!-- Title: %3 Pages: 1 -->
<svg width="603pt" height="332pt"
 viewBox="0.00 0.00 603.00 332.00" xmlns="http://www.w3.org/2000/svg" xmlns:xlink="http://www.w3.org/1999/xlink">
<g id="graph0" class="graph" transform="scale(1 1) rotate(0) translate(4 328)">
<title>%3</title>
<!-- THERMODYNAMIC_POTENTIALS -->
<g id="node1" class="node"><title>THERMODYNAMIC_POTENTIALS</title>
<g id="a_node1"><a xlink:href="THERMODYNAMIC_POTENTIALS.html" xlink:title=" Thermodynamic Potentials " target="_top">
<path fill="none" stroke="blue" stroke-width="2" d="M352,-108C352,-108 204,-108 204,-108 198,-108 192,-102 192,-96 192,-96 192,-84 192,-84 192,-78 198,-72 204,-72 204,-72 352,-72 352,-72 358,-72 364,-78 364,-84 364,-84 364,-96 364,-96 364,-102 358,-108 352,-108"/>
<text text-anchor="start" x="200" y="-86.3" font-family="Times,serif" font-size="14.00"> Thermodynamic Potentials </text>
</a>
</g>
</g>
<!-- MAXWELL_RELATIONS -->
<g id="node4" class="node"><title>MAXWELL_RELATIONS</title>
<g id="a_node4"><a xlink:href="MAXWELL_RELATIONS.html" xlink:title=" Maxwell relations " target="_top">
<path fill="none" stroke="black" d="M239.25,-36C239.25,-36 140.75,-36 140.75,-36 134.75,-36 128.75,-30 128.75,-24 128.75,-24 128.75,-12 128.75,-12 128.75,-6 134.75,-0 140.75,-0 140.75,-0 239.25,-0 239.25,-0 245.25,-0 251.25,-6 251.25,-12 251.25,-12 251.25,-24 251.25,-24 251.25,-30 245.25,-36 239.25,-36"/>
<text text-anchor="start" x="136.5" y="-14.3" font-family="Times,serif" font-size="14.00"> Maxwell relations </text>
</a>
</g>
</g>
<!-- THERMODYNAMIC_POTENTIALS&#45;&gt;MAXWELL_RELATIONS -->
<g id="edge3" class="edge"><title>THERMODYNAMIC_POTENTIALS&#45;&gt;MAXWELL_RELATIONS</title>
<path fill="none" stroke="black" d="M256.247,-71.6966C245.164,-62.8807 231.526,-52.0321 219.51,-42.4742"/>
<polygon fill="black" stroke="black" points="221.507,-39.5905 211.503,-36.1043 217.15,-45.0687 221.507,-39.5905"/>
</g>
<!-- PHASE_TRANSITIONS -->
<g id="node8" class="node"><title>PHASE_TRANSITIONS</title>
<g id="a_node8"><a xlink:href="PHASE_TRANSITIONS.html" xlink:title=" The theory of phase transitions " target="_top">
<path fill="none" stroke="black" d="M450.25,-36C450.25,-36 281.75,-36 281.75,-36 275.75,-36 269.75,-30 269.75,-24 269.75,-24 269.75,-12 269.75,-12 269.75,-6 275.75,-0 281.75,-0 281.75,-0 450.25,-0 450.25,-0 456.25,-0 462.25,-6 462.25,-12 462.25,-12 462.25,-24 462.25,-24 462.25,-30 456.25,-36 450.25,-36"/>
<text text-anchor="start" x="277.5" y="-14.3" font-family="Times,serif" font-size="14.00"> The theory of phase transitions </text>
</a>
</g>
</g>
<!-- THERMODYNAMIC_POTENTIALS&#45;&gt;PHASE_TRANSITIONS -->
<g id="edge9" class="edge"><title>THERMODYNAMIC_POTENTIALS&#45;&gt;PHASE_TRANSITIONS</title>
<path fill="none" stroke="black" d="M299.753,-71.6966C310.836,-62.8807 324.474,-52.0321 336.49,-42.4742"/>
<polygon fill="black" stroke="black" points="338.85,-45.0687 344.497,-36.1043 334.493,-39.5905 338.85,-45.0687"/>
</g>
<!-- LAWS_OF_THERMODYNAMICS -->
<g id="node2" class="node"><title>LAWS_OF_THERMODYNAMICS</title>
<g id="a_node2"><a xlink:href="LAWS_OF_THERMODYNAMICS.html" xlink:title=" The first and second laws of thermodynamics " target="_top">
<path fill="none" stroke="black" d="M262,-324C262,-324 12,-324 12,-324 6,-324 0,-318 0,-312 0,-312 0,-300 0,-300 0,-294 6,-288 12,-288 12,-288 262,-288 262,-288 268,-288 274,-294 274,-300 274,-300 274,-312 274,-312 274,-318 268,-324 262,-324"/>
<text text-anchor="start" x="8" y="-302.3" font-family="Times,serif" font-size="14.00"> The first and second laws of thermodynamics </text>
</a>
</g>
</g>
<!-- LAWS_OF_THERMODYNAMICS&#45;&gt;THERMODYNAMIC_POTENTIALS -->
<g id="edge1" class="edge"><title>LAWS_OF_THERMODYNAMICS&#45;&gt;THERMODYNAMIC_POTENTIALS</title>
<path fill="none" stroke="black" d="M132.536,-287.953C130.065,-277.63 127.248,-264.153 126,-252 120.923,-202.56 120.28,-179.562 155,-144 168.556,-130.115 186.345,-119.651 204.166,-111.852"/>
<polygon fill="black" stroke="black" points="205.558,-115.064 213.466,-108.013 202.887,-108.594 205.558,-115.064"/>
</g>
<!-- GRAND_CANONICAL_ENSEMBLE -->
<g id="node5" class="node"><title>GRAND_CANONICAL_ENSEMBLE</title>
<g id="a_node5"><a xlink:href="GRAND_CANONICAL_ENSEMBLE.html" xlink:title=" The grand canonical ensemble " target="_top">
<path fill="none" stroke="black" d="M314.25,-252C314.25,-252 147.75,-252 147.75,-252 141.75,-252 135.75,-246 135.75,-240 135.75,-240 135.75,-228 135.75,-228 135.75,-222 141.75,-216 147.75,-216 147.75,-216 314.25,-216 314.25,-216 320.25,-216 326.25,-222 326.25,-228 326.25,-228 326.25,-240 326.25,-240 326.25,-246 320.25,-252 314.25,-252"/>
<text text-anchor="start" x="143.5" y="-230.3" font-family="Times,serif" font-size="14.00"> The grand canonical ensemble </text>
</a>
</g>
</g>
<!-- LAWS_OF_THERMODYNAMICS&#45;&gt;GRAND_CANONICAL_ENSEMBLE -->
<!-- EXACT_DIFFERENTIALS -->
<g id="node3" class="node"><title>EXACT_DIFFERENTIALS</title>
<g id="a_node3"><a xlink:href="EXACT_DIFFERENTIALS.html" xlink:title=" Theory of exact differentials " target="_top">
<path fill="none" stroke="black" d="M488.25,-324C488.25,-324 333.75,-324 333.75,-324 327.75,-324 321.75,-318 321.75,-312 321.75,-312 321.75,-300 321.75,-300 321.75,-294 327.75,-288 333.75,-288 333.75,-288 488.25,-288 488.25,-288 494.25,-288 500.25,-294 500.25,-300 500.25,-300 500.25,-312 500.25,-312 500.25,-318 494.25,-324 488.25,-324"/>
<text text-anchor="start" x="329.5" y="-302.3" font-family="Times,serif" font-size="14.00"> Theory of exact differentials </text>
</a>
</g>
</g>
<!-- EXACT_DIFFERENTIALS&#45;&gt;THERMODYNAMIC_POTENTIALS -->
<g id="edge2" class="edge"><title>EXACT_DIFFERENTIALS&#45;&gt;THERMODYNAMIC_POTENTIALS</title>
<path fill="none" stroke="black" d="M413.865,-287.802C418.158,-256.087 422.686,-187.65 391,-144 380.997,-130.221 366.489,-119.907 351.183,-112.23"/>
<polygon fill="black" stroke="black" points="352.651,-109.052 342.107,-108.008 349.698,-115.399 352.651,-109.052"/>
</g>
<!-- GRAND_CANONICAL_ENSEMBLE&#45;&gt;THERMODYNAMIC_POTENTIALS -->
<g id="edge4" class="edge"><title>GRAND_CANONICAL_ENSEMBLE&#45;&gt;THERMODYNAMIC_POTENTIALS</title>
<path fill="none" stroke="black" d="M198.473,-215.984C185.211,-207.18 171.301,-195.085 164,-180 157.029,-165.598 155.395,-157.489 164,-144 172.748,-130.285 186.065,-120.064 200.55,-112.465"/>
<polygon fill="black" stroke="black" points="202.197,-115.556 209.688,-108.064 199.16,-109.249 202.197,-115.556"/>
</g>
<!-- ISOTHERMAL_ISOBARIC_ENSEMBLE -->
<g id="node7" class="node"><title>ISOTHERMAL_ISOBARIC_ENSEMBLE</title>
<g id="a_node7"><a xlink:href="ISOTHERMAL_ISOBARIC_ENSEMBLE.html" xlink:title=" The isothermal isobaric ensemble " target="_top">
<path fill="none" stroke="black" d="M370.25,-180C370.25,-180 185.75,-180 185.75,-180 179.75,-180 173.75,-174 173.75,-168 173.75,-168 173.75,-156 173.75,-156 173.75,-150 179.75,-144 185.75,-144 185.75,-144 370.25,-144 370.25,-144 376.25,-144 382.25,-150 382.25,-156 382.25,-156 382.25,-168 382.25,-168 382.25,-174 376.25,-180 370.25,-180"/>
<text text-anchor="start" x="181.5" y="-158.3" font-family="Times,serif" font-size="14.00"> The isothermal isobaric ensemble </text>
</a>
</g>
</g>
<!-- GRAND_CANONICAL_ENSEMBLE&#45;&gt;ISOTHERMAL_ISOBARIC_ENSEMBLE -->
<!-- CANONICAL_ENSEMBLE -->
<g id="node6" class="node"><title>CANONICAL_ENSEMBLE</title>
<g id="a_node6"><a xlink:href="CANONICAL_ENSEMBLE.html" xlink:title=" The canonical ensemble " target="_top">
<path fill="none" stroke="black" d="M583,-252C583,-252 451,-252 451,-252 445,-252 439,-246 439,-240 439,-240 439,-228 439,-228 439,-222 445,-216 451,-216 451,-216 583,-216 583,-216 589,-216 595,-222 595,-228 595,-228 595,-240 595,-240 595,-246 589,-252 583,-252"/>
<text text-anchor="start" x="447" y="-230.3" font-family="Times,serif" font-size="14.00"> The canonical ensemble </text>
</a>
</g>
</g>
<!-- CANONICAL_ENSEMBLE&#45;&gt;THERMODYNAMIC_POTENTIALS -->
<g id="edge6" class="edge"><title>CANONICAL_ENSEMBLE&#45;&gt;THERMODYNAMIC_POTENTIALS</title>
<path fill="none" stroke="black" d="M503.092,-215.682C486.403,-195.907 456.683,-163.75 425,-144 403.046,-130.314 377.05,-119.47 353.07,-111.25"/>
<polygon fill="black" stroke="black" points="353.882,-107.832 343.289,-108.001 351.676,-114.475 353.882,-107.832"/>
</g>
<!-- ISOTHERMAL_ISOBARIC_ENSEMBLE&#45;&gt;THERMODYNAMIC_POTENTIALS -->
<g id="edge7" class="edge"><title>ISOTHERMAL_ISOBARIC_ENSEMBLE&#45;&gt;THERMODYNAMIC_POTENTIALS</title>
<path fill="none" stroke="black" d="M278,-143.697C278,-135.983 278,-126.712 278,-118.112"/>
<polygon fill="black" stroke="black" points="281.5,-118.104 278,-108.104 274.5,-118.104 281.5,-118.104"/>
</g>
</g>
</svg>
