<?xml version="1.0" encoding="UTF-8" standalone="no"?>
<!DOCTYPE svg PUBLIC "-//W3C//DTD SVG 1.1//EN"
 "http://www.w3.org/Graphics/SVG/1.1/DTD/svg11.dtd">
<!-- Generated by graphviz version 2.36.0 (20140111.2315)
 -->
<!-- Title: %3 Pages: 1 -->
<svg width="263pt" height="116pt"
 viewBox="0.00 0.00 263.00 116.00" xmlns="http://www.w3.org/2000/svg" xmlns:xlink="http://www.w3.org/1999/xlink">
<g id="graph0" class="graph" transform="scale(1 1) rotate(0) translate(4 112)">
<title>%3</title>
<!-- THERMODYNAMIC_VARIABLES -->
<g id="node1" class="node"><title>THERMODYNAMIC_VARIABLES</title>
<g id="a_node1"><a xlink:href="THERMODYNAMIC_VARIABLES.html" xlink:title=" Thermodynamic variables " target="_top">
<path fill="none" stroke="blue" stroke-width="2" d="M197.25,-108C197.25,-108 54.75,-108 54.75,-108 48.75,-108 42.75,-102 42.75,-96 42.75,-96 42.75,-84 42.75,-84 42.75,-78 48.75,-72 54.75,-72 54.75,-72 197.25,-72 197.25,-72 203.25,-72 209.25,-78 209.25,-84 209.25,-84 209.25,-96 209.25,-96 209.25,-102 203.25,-108 197.25,-108"/>
<text text-anchor="start" x="50.5" y="-86.3" font-family="Times,serif" font-size="14.00"> Thermodynamic variables </text>
</a>
</g>
</g>
<!-- GIBBS_PHASE_RULE -->
<g id="node2" class="node"><title>GIBBS_PHASE_RULE</title>
<g id="a_node2"><a xlink:href="GIBBS_PHASE_RULE.html" xlink:title=" Gibbs Phase rule " target="_top">
<path fill="none" stroke="black" d="M103.5,-36C103.5,-36 12.5,-36 12.5,-36 6.5,-36 0.5,-30 0.5,-24 0.5,-24 0.5,-12 0.5,-12 0.5,-6 6.5,-0 12.5,-0 12.5,-0 103.5,-0 103.5,-0 109.5,-0 115.5,-6 115.5,-12 115.5,-12 115.5,-24 115.5,-24 115.5,-30 109.5,-36 103.5,-36"/>
<text text-anchor="start" x="8" y="-14.3" font-family="Times,serif" font-size="14.00"> Gibbs Phase rule </text>
</a>
</g>
</g>
<!-- THERMODYNAMIC_VARIABLES&#45;&gt;GIBBS_PHASE_RULE -->
<g id="edge1" class="edge"><title>THERMODYNAMIC_VARIABLES&#45;&gt;GIBBS_PHASE_RULE</title>
<path fill="none" stroke="black" d="M109.191,-71.6966C100.874,-63.135 90.6946,-52.6562 81.6101,-43.3045"/>
<polygon fill="black" stroke="black" points="84.094,-40.8384 74.6156,-36.1043 79.073,-45.7159 84.094,-40.8384"/>
</g>
<!-- CARNOT_CYCLE -->
<g id="node3" class="node"><title>CARNOT_CYCLE</title>
<g id="a_node3"><a xlink:href="CARNOT_CYCLE.html" xlink:title=" The Carnot Cycle " target="_top">
<path fill="none" stroke="black" d="M243.25,-36C243.25,-36 146.75,-36 146.75,-36 140.75,-36 134.75,-30 134.75,-24 134.75,-24 134.75,-12 134.75,-12 134.75,-6 140.75,-0 146.75,-0 146.75,-0 243.25,-0 243.25,-0 249.25,-0 255.25,-6 255.25,-12 255.25,-12 255.25,-24 255.25,-24 255.25,-30 249.25,-36 243.25,-36"/>
<text text-anchor="start" x="142.5" y="-14.3" font-family="Times,serif" font-size="14.00"> The Carnot Cycle </text>
</a>
</g>
</g>
<!-- THERMODYNAMIC_VARIABLES&#45;&gt;CARNOT_CYCLE -->
<g id="edge2" class="edge"><title>THERMODYNAMIC_VARIABLES&#45;&gt;CARNOT_CYCLE</title>
<path fill="none" stroke="black" d="M143.056,-71.6966C151.495,-63.135 161.825,-52.6562 171.043,-43.3045"/>
<polygon fill="black" stroke="black" points="173.613,-45.6831 178.14,-36.1043 168.627,-40.7691 173.613,-45.6831"/>
</g>
</g>
</svg>
