<?xml version="1.0" encoding="UTF-8" standalone="no"?>
<!DOCTYPE svg PUBLIC "-//W3C//DTD SVG 1.1//EN"
 "http://www.w3.org/Graphics/SVG/1.1/DTD/svg11.dtd">
<!-- Generated by graphviz version 2.36.0 (20140111.2315)
 -->
<!-- Title: %3 Pages: 1 -->
<svg width="263pt" height="116pt"
 viewBox="0.00 0.00 263.00 116.00" xmlns="http://www.w3.org/2000/svg" xmlns:xlink="http://www.w3.org/1999/xlink">
<g id="graph0" class="graph" transform="scale(1 1) rotate(0) translate(4 112)">
<title>%3</title>
<!-- THERMODYNAMIC_VARIABLES -->
<g id="node1" class="node"><title>THERMODYNAMIC_VARIABLES</title>
<g id="a_node1"><a xlink:href="THERMODYNAMIC_VARIABLES.html" xlink:title=" Thermodynamic variables " target="_top">
<path fill="none" stroke="blue" stroke-width="2" d="M199.25,-108C199.25,-108 56.75,-108 56.75,-108 50.75,-108 44.75,-102 44.75,-96 44.75,-96 44.75,-84 44.75,-84 44.75,-78 50.75,-72 56.75,-72 56.75,-72 199.25,-72 199.25,-72 205.25,-72 211.25,-78 211.25,-84 211.25,-84 211.25,-96 211.25,-96 211.25,-102 205.25,-108 199.25,-108"/>
<text text-anchor="start" x="52.5" y="-86.3" font-family="Times,serif" font-size="14.00"> Thermodynamic variables </text>
</a>
</g>
</g>
<!-- CARNOT_CYCLE -->
<g id="node2" class="node"><title>CARNOT_CYCLE</title>
<g id="a_node2"><a xlink:href="CARNOT_CYCLE.html" xlink:title=" The Carnot Cycle " target="_top">
<path fill="none" stroke="black" d="M108.25,-36C108.25,-36 11.75,-36 11.75,-36 5.75,-36 -0.25,-30 -0.25,-24 -0.25,-24 -0.25,-12 -0.25,-12 -0.25,-6 5.75,-0 11.75,-0 11.75,-0 108.25,-0 108.25,-0 114.25,-0 120.25,-6 120.25,-12 120.25,-12 120.25,-24 120.25,-24 120.25,-30 114.25,-36 108.25,-36"/>
<text text-anchor="start" x="7.5" y="-14.3" font-family="Times,serif" font-size="14.00"> The Carnot Cycle </text>
</a>
</g>
</g>
<!-- THERMODYNAMIC_VARIABLES&#45;&gt;CARNOT_CYCLE -->
<g id="edge1" class="edge"><title>THERMODYNAMIC_VARIABLES&#45;&gt;CARNOT_CYCLE</title>
<path fill="none" stroke="black" d="M111.191,-71.6966C102.874,-63.135 92.6946,-52.6562 83.6101,-43.3045"/>
<polygon fill="black" stroke="black" points="86.094,-40.8384 76.6156,-36.1043 81.073,-45.7159 86.094,-40.8384"/>
</g>
<!-- GIBBS_PHASE_RULE -->
<g id="node3" class="node"><title>GIBBS_PHASE_RULE</title>
<g id="a_node3"><a xlink:href="GIBBS_PHASE_RULE.html" xlink:title=" Gibbs Phase rule " target="_top">
<path fill="none" stroke="black" d="M242.5,-36C242.5,-36 151.5,-36 151.5,-36 145.5,-36 139.5,-30 139.5,-24 139.5,-24 139.5,-12 139.5,-12 139.5,-6 145.5,-0 151.5,-0 151.5,-0 242.5,-0 242.5,-0 248.5,-0 254.5,-6 254.5,-12 254.5,-12 254.5,-24 254.5,-24 254.5,-30 248.5,-36 242.5,-36"/>
<text text-anchor="start" x="147" y="-14.3" font-family="Times,serif" font-size="14.00"> Gibbs Phase rule </text>
</a>
</g>
</g>
<!-- THERMODYNAMIC_VARIABLES&#45;&gt;GIBBS_PHASE_RULE -->
<g id="edge2" class="edge"><title>THERMODYNAMIC_VARIABLES&#45;&gt;GIBBS_PHASE_RULE</title>
<path fill="none" stroke="black" d="M145.056,-71.6966C153.495,-63.135 163.825,-52.6562 173.043,-43.3045"/>
<polygon fill="black" stroke="black" points="175.613,-45.6831 180.14,-36.1043 170.627,-40.7691 175.613,-45.6831"/>
</g>
</g>
</svg>
