<?xml version="1.0" encoding="UTF-8" standalone="no"?>
<!DOCTYPE svg PUBLIC "-//W3C//DTD SVG 1.1//EN"
 "http://www.w3.org/Graphics/SVG/1.1/DTD/svg11.dtd">
<!-- Generated by graphviz version 2.26.3 (20100126.1600)
 -->
<!-- Title: _anonymous_0 Pages: 1 -->
<svg width="294pt" height="116pt"
 viewBox="0.00 0.00 294.00 116.00" xmlns="http://www.w3.org/2000/svg" xmlns:xlink="http://www.w3.org/1999/xlink">
<g id="graph1" class="graph" transform="scale(1 1) rotate(0) translate(4 112)">
<title>_anonymous_0</title>
<!-- THERMODYNAMIC_VARIABLES -->
<g id="node1" class="node"><title>THERMODYNAMIC_VARIABLES</title>
<a xlink:href="THERMODYNAMIC_VARIABLES.html" xlink:title="Thermodynamic variables" target="_top">
<polyline fill="none" stroke="blue" stroke-width="2" points="229,-108 59,-108 "/>
<path fill="none" stroke="blue" stroke-width="2" d="M59,-108C53,-108 47,-102 47,-96"/>
<polyline fill="none" stroke="blue" stroke-width="2" points="47,-96 47,-84 "/>
<path fill="none" stroke="blue" stroke-width="2" d="M47,-84C47,-78 53,-72 59,-72"/>
<polyline fill="none" stroke="blue" stroke-width="2" points="59,-72 229,-72 "/>
<path fill="none" stroke="blue" stroke-width="2" d="M229,-72C235,-72 241,-78 241,-84"/>
<polyline fill="none" stroke="blue" stroke-width="2" points="241,-84 241,-96 "/>
<path fill="none" stroke="blue" stroke-width="2" d="M241,-96C241,-102 235,-108 229,-108"/>
<text text-anchor="start" x="55.5" y="-87.2333" font-family="Times Roman,serif" font-size="14.00">Thermodynamic variables</text>
</a>
</g>
<!-- CARNOT_CYCLE -->
<g id="node2" class="node"><title>CARNOT_CYCLE</title>
<a xlink:href="CARNOT_CYCLE.html" xlink:title="The Carnot Cycle" target="_top">
<polyline fill="none" stroke="black" points="124,-36 12,-36 "/>
<path fill="none" stroke="black" d="M12,-36C6,-36 4.73695e-14,-30 3.78956e-14,-24"/>
<polyline fill="none" stroke="black" points="3.78956e-14,-24 1.89478e-14,-12 "/>
<path fill="none" stroke="black" d="M1.89478e-14,-12C9.4739e-15,-6 6,-1.71366e-14 12,-1.65097e-14"/>
<polyline fill="none" stroke="black" points="12,-1.65097e-14 124,-4.80661e-15 "/>
<path fill="none" stroke="black" d="M124,-4.80661e-15C130,-4.17966e-15 136,-6 136,-12"/>
<polyline fill="none" stroke="black" points="136,-12 136,-24 "/>
<path fill="none" stroke="black" d="M136,-24C136,-30 130,-36 124,-36"/>
<text text-anchor="start" x="8" y="-15.2333" font-family="Times Roman,serif" font-size="14.00">The Carnot Cycle</text>
</a>
</g>
<!-- THERMODYNAMIC_VARIABLES&#45;&gt;CARNOT_CYCLE -->
<g id="edge2" class="edge"><title>THERMODYNAMIC_VARIABLES&#45;&gt;CARNOT_CYCLE</title>
<path fill="none" stroke="black" d="M124.822,-71.8314C115.641,-63.1337 104.499,-52.5783 94.5224,-43.1265"/>
<polygon fill="black" stroke="black" points="96.8385,-40.4995 87.1719,-36.1628 92.0243,-45.5811 96.8385,-40.4995"/>
</g>
<!-- GIBBS_PHASE_RULE -->
<g id="node4" class="node"><title>GIBBS_PHASE_RULE</title>
<a xlink:href="GIBBS_PHASE_RULE.html" xlink:title="Gibbs Phase rule" target="_top">
<polyline fill="none" stroke="black" points="274,-36 166,-36 "/>
<path fill="none" stroke="black" d="M166,-36C160,-36 154,-30 154,-24"/>
<polyline fill="none" stroke="black" points="154,-24 154,-12 "/>
<path fill="none" stroke="black" d="M154,-12C154,-6 160,-1.71176e-14 166,-1.64717e-14"/>
<polyline fill="none" stroke="black" points="166,-1.64717e-14 274,-4.84461e-15 "/>
<path fill="none" stroke="black" d="M274,-4.84461e-15C280,-4.19866e-15 286,-6 286,-12"/>
<polyline fill="none" stroke="black" points="286,-12 286,-24 "/>
<path fill="none" stroke="black" d="M286,-24C286,-30 280,-36 274,-36"/>
<text text-anchor="start" x="162" y="-15.2333" font-family="Times Roman,serif" font-size="14.00">Gibbs Phase rule</text>
</a>
</g>
<!-- THERMODYNAMIC_VARIABLES&#45;&gt;GIBBS_PHASE_RULE -->
<g id="edge4" class="edge"><title>THERMODYNAMIC_VARIABLES&#45;&gt;GIBBS_PHASE_RULE</title>
<path fill="none" stroke="black" d="M163.178,-71.8314C172.359,-63.1337 183.501,-52.5783 193.478,-43.1265"/>
<polygon fill="black" stroke="black" points="195.976,-45.5811 200.828,-36.1628 191.161,-40.4995 195.976,-45.5811"/>
</g>
</g>
</svg>
