<?xml version="1.0" encoding="UTF-8" standalone="no"?>
<!DOCTYPE svg PUBLIC "-//W3C//DTD SVG 1.1//EN"
 "http://www.w3.org/Graphics/SVG/1.1/DTD/svg11.dtd">
<!-- Generated by graphviz version 2.26.3 (20100126.1600)
 -->
<!-- Title: _anonymous_0 Pages: 1 -->
<svg width="314pt" height="116pt"
 viewBox="0.00 0.00 314.00 116.00" xmlns="http://www.w3.org/2000/svg" xmlns:xlink="http://www.w3.org/1999/xlink">
<g id="graph1" class="graph" transform="scale(1 1) rotate(0) translate(4 112)">
<title>_anonymous_0</title>
<!-- THERMODYNAMIC_VARIABLES -->
<g id="node1" class="node"><title>THERMODYNAMIC_VARIABLES</title>
<a xlink:href="THERMODYNAMIC_VARIABLES.html" xlink:title=" Thermodynamic variables " target="_top">
<polyline fill="none" stroke="blue" stroke-width="2" points="243,-108 65,-108 "/>
<path fill="none" stroke="blue" stroke-width="2" d="M65,-108C59,-108 53,-102 53,-96"/>
<polyline fill="none" stroke="blue" stroke-width="2" points="53,-96 53,-84 "/>
<path fill="none" stroke="blue" stroke-width="2" d="M53,-84C53,-78 59,-72 65,-72"/>
<polyline fill="none" stroke="blue" stroke-width="2" points="65,-72 243,-72 "/>
<path fill="none" stroke="blue" stroke-width="2" d="M243,-72C249,-72 255,-78 255,-84"/>
<polyline fill="none" stroke="blue" stroke-width="2" points="255,-84 255,-96 "/>
<path fill="none" stroke="blue" stroke-width="2" d="M255,-96C255,-102 249,-108 243,-108"/>
<text text-anchor="start" x="61" y="-87.2333" font-family="Times Roman,serif" font-size="14.00"> Thermodynamic variables </text>
</a>
</g>
<!-- CARNOT_CYCLE -->
<g id="node2" class="node"><title>CARNOT_CYCLE</title>
<a xlink:href="CARNOT_CYCLE.html" xlink:title=" The Carnot Cycle " target="_top">
<polyline fill="none" stroke="black" points="134,-36 12,-36 "/>
<path fill="none" stroke="black" d="M12,-36C6,-36 5.92119e-14,-30 4.73695e-14,-24"/>
<polyline fill="none" stroke="black" points="4.73695e-14,-24 2.36848e-14,-12 "/>
<path fill="none" stroke="black" d="M2.36848e-14,-12C1.18424e-14,-6 6,-1.71796e-14 12,-1.65956e-14"/>
<polyline fill="none" stroke="black" points="12,-1.65956e-14 134,-4.72073e-15 "/>
<path fill="none" stroke="black" d="M134,-4.72073e-15C140,-4.13672e-15 146,-6 146,-12"/>
<polyline fill="none" stroke="black" points="146,-12 146,-24 "/>
<path fill="none" stroke="black" d="M146,-24C146,-30 140,-36 134,-36"/>
<text text-anchor="start" x="8.5" y="-15.2333" font-family="Times Roman,serif" font-size="14.00"> The Carnot Cycle </text>
</a>
</g>
<!-- THERMODYNAMIC_VARIABLES&#45;&gt;CARNOT_CYCLE -->
<g id="edge2" class="edge"><title>THERMODYNAMIC_VARIABLES&#45;&gt;CARNOT_CYCLE</title>
<path fill="none" stroke="black" d="M133.56,-71.8314C123.68,-63.0485 111.668,-52.3712 100.955,-42.8489"/>
<polygon fill="black" stroke="black" points="103.233,-40.1906 93.4332,-36.1628 98.582,-45.4224 103.233,-40.1906"/>
</g>
<!-- GIBBS_PHASE_RULE -->
<g id="node4" class="node"><title>GIBBS_PHASE_RULE</title>
<a xlink:href="GIBBS_PHASE_RULE.html" xlink:title=" Gibbs Phase rule " target="_top">
<polyline fill="none" stroke="black" points="294,-36 176,-36 "/>
<path fill="none" stroke="black" d="M176,-36C170,-36 164,-30 164,-24"/>
<polyline fill="none" stroke="black" points="164,-24 164,-12 "/>
<path fill="none" stroke="black" d="M164,-12C164,-6 170,-1.71631e-14 176,-1.65627e-14"/>
<polyline fill="none" stroke="black" points="176,-1.65627e-14 294,-4.75363e-15 "/>
<path fill="none" stroke="black" d="M294,-4.75363e-15C300,-4.15317e-15 306,-6 306,-12"/>
<polyline fill="none" stroke="black" points="306,-12 306,-24 "/>
<path fill="none" stroke="black" d="M306,-24C306,-30 300,-36 294,-36"/>
<text text-anchor="start" x="172.5" y="-15.2333" font-family="Times Roman,serif" font-size="14.00"> Gibbs Phase rule </text>
</a>
</g>
<!-- THERMODYNAMIC_VARIABLES&#45;&gt;GIBBS_PHASE_RULE -->
<g id="edge4" class="edge"><title>THERMODYNAMIC_VARIABLES&#45;&gt;GIBBS_PHASE_RULE</title>
<path fill="none" stroke="black" d="M174.44,-71.8314C184.32,-63.0485 196.332,-52.3712 207.045,-42.8489"/>
<polygon fill="black" stroke="black" points="209.418,-45.4224 214.567,-36.1628 204.767,-40.1906 209.418,-45.4224"/>
</g>
</g>
</svg>
