<?xml version="1.0" encoding="UTF-8" standalone="no"?>
<!DOCTYPE svg PUBLIC "-//W3C//DTD SVG 1.1//EN"
 "http://www.w3.org/Graphics/SVG/1.1/DTD/svg11.dtd">
<!-- Generated by graphviz version 2.26.3 (20100126.1600)
 -->
<!-- Title: _anonymous_0 Pages: 1 -->
<svg width="742pt" height="332pt"
 viewBox="0.00 0.00 742.00 332.00" xmlns="http://www.w3.org/2000/svg" xmlns:xlink="http://www.w3.org/1999/xlink">
<g id="graph1" class="graph" transform="scale(1 1) rotate(0) translate(4 328)">
<title>_anonymous_0</title>
<!-- THERMODYNAMIC_POTENTIALS -->
<g id="node1" class="node"><title>THERMODYNAMIC_POTENTIALS</title>
<a xlink:href="THERMODYNAMIC_POTENTIALS.html" xlink:title="Thermodynamic Potentials" target="_top">
<polyline fill="none" stroke="blue" stroke-width="2" points="347,-108 171,-108 "/>
<path fill="none" stroke="blue" stroke-width="2" d="M171,-108C165,-108 159,-102 159,-96"/>
<polyline fill="none" stroke="blue" stroke-width="2" points="159,-96 159,-84 "/>
<path fill="none" stroke="blue" stroke-width="2" d="M159,-84C159,-78 165,-72 171,-72"/>
<polyline fill="none" stroke="blue" stroke-width="2" points="171,-72 347,-72 "/>
<path fill="none" stroke="blue" stroke-width="2" d="M347,-72C353,-72 359,-78 359,-84"/>
<polyline fill="none" stroke="blue" stroke-width="2" points="359,-84 359,-96 "/>
<path fill="none" stroke="blue" stroke-width="2" d="M359,-96C359,-102 353,-108 347,-108"/>
<text text-anchor="start" x="167" y="-87.2333" font-family="Times Roman,serif" font-size="14.00">Thermodynamic Potentials</text>
</a>
</g>
<!-- PHASE_TRANSITIONS -->
<g id="node2" class="node"><title>PHASE_TRANSITIONS</title>
<a xlink:href="PHASE_TRANSITIONS.html" xlink:title="The theory of phase transitions" target="_top">
<polyline fill="none" stroke="black" points="262,-36 52,-36 "/>
<path fill="none" stroke="black" d="M52,-36C46,-36 40,-30 40,-24"/>
<polyline fill="none" stroke="black" points="40,-24 40,-12 "/>
<path fill="none" stroke="black" d="M40,-12C40,-6 46,-1.73992e-14 52,-1.70348e-14"/>
<polyline fill="none" stroke="black" points="52,-1.70348e-14 262,-4.28148e-15 "/>
<path fill="none" stroke="black" d="M262,-4.28148e-15C268,-3.91709e-15 274,-6 274,-12"/>
<polyline fill="none" stroke="black" points="274,-12 274,-24 "/>
<path fill="none" stroke="black" d="M274,-24C274,-30 268,-36 262,-36"/>
<text text-anchor="start" x="48.5" y="-15.2333" font-family="Times Roman,serif" font-size="14.00">The theory of phase transitions</text>
</a>
</g>
<!-- THERMODYNAMIC_POTENTIALS&#45;&gt;PHASE_TRANSITIONS -->
<g id="edge2" class="edge"><title>THERMODYNAMIC_POTENTIALS&#45;&gt;PHASE_TRANSITIONS</title>
<path fill="none" stroke="black" d="M233.261,-71.8314C220.456,-62.7927 204.809,-51.7476 191.028,-42.0198"/>
<polygon fill="black" stroke="black" points="192.919,-39.0703 182.731,-36.1628 188.882,-44.7891 192.919,-39.0703"/>
</g>
<!-- MAXWELL_RELATIONS -->
<g id="node13" class="node"><title>MAXWELL_RELATIONS</title>
<a xlink:href="MAXWELL_RELATIONS.html" xlink:title="Maxwell relations" target="_top">
<polyline fill="none" stroke="black" points="418,-36 304,-36 "/>
<path fill="none" stroke="black" d="M304,-36C298,-36 292,-30 292,-24"/>
<polyline fill="none" stroke="black" points="292,-24 292,-12 "/>
<path fill="none" stroke="black" d="M292,-12C292,-6 298,-1.71457e-14 304,-1.65278e-14"/>
<polyline fill="none" stroke="black" points="304,-1.65278e-14 418,-4.78844e-15 "/>
<path fill="none" stroke="black" d="M418,-4.78844e-15C424,-4.17058e-15 430,-6 430,-12"/>
<polyline fill="none" stroke="black" points="430,-12 430,-24 "/>
<path fill="none" stroke="black" d="M430,-24C430,-30 424,-36 418,-36"/>
<text text-anchor="start" x="300" y="-15.2333" font-family="Times Roman,serif" font-size="14.00">Maxwell relations</text>
</a>
</g>
<!-- THERMODYNAMIC_POTENTIALS&#45;&gt;MAXWELL_RELATIONS -->
<g id="edge14" class="edge"><title>THERMODYNAMIC_POTENTIALS&#45;&gt;MAXWELL_RELATIONS</title>
<path fill="none" stroke="black" d="M284.739,-71.8314C297.544,-62.7927 313.191,-51.7476 326.972,-42.0198"/>
<polygon fill="black" stroke="black" points="329.118,-44.7891 335.269,-36.1628 325.081,-39.0703 329.118,-44.7891"/>
</g>
<!-- GRAND_CANONICAL_ENSEMBLE -->
<g id="node4" class="node"><title>GRAND_CANONICAL_ENSEMBLE</title>
<a xlink:href="GRAND_CANONICAL_ENSEMBLE.html" xlink:title="The grand canonical ensemble" target="_top">
<polyline fill="none" stroke="black" points="214,-324 12,-324 "/>
<path fill="none" stroke="black" d="M12,-324C6,-324 7.10543e-14,-318 5.68434e-14,-312"/>
<polyline fill="none" stroke="black" points="5.68434e-14,-312 2.84217e-14,-300 "/>
<path fill="none" stroke="black" d="M2.84217e-14,-300C1.42109e-14,-294 6,-288 12,-288"/>
<polyline fill="none" stroke="black" points="12,-288 214,-288 "/>
<path fill="none" stroke="black" d="M214,-288C220,-288 226,-294 226,-300"/>
<polyline fill="none" stroke="black" points="226,-300 226,-312 "/>
<path fill="none" stroke="black" d="M226,-312C226,-318 220,-324 214,-324"/>
<text text-anchor="start" x="8.5" y="-303.233" font-family="Times Roman,serif" font-size="14.00">The grand canonical ensemble</text>
</a>
</g>
<!-- GRAND_CANONICAL_ENSEMBLE&#45;&gt;THERMODYNAMIC_POTENTIALS -->
<g id="edge4" class="edge"><title>GRAND_CANONICAL_ENSEMBLE&#45;&gt;THERMODYNAMIC_POTENTIALS</title>
<path fill="none" stroke="black" d="M111.705,-287.792C110.395,-254.712 112.567,-184.435 150,-144 162.173,-130.851 178.25,-120.486 194.307,-112.504"/>
<polygon fill="black" stroke="black" points="196.167,-115.498 203.729,-108.077 193.19,-109.162 196.167,-115.498"/>
</g>
<!-- EXACT_DIFFERENTIALS -->
<g id="node8" class="node"><title>EXACT_DIFFERENTIALS</title>
<a xlink:href="EXACT_DIFFERENTIALS.html" xlink:title="Theory of exact differentials" target="_top">
<polyline fill="none" stroke="black" points="330,-252 142,-252 "/>
<path fill="none" stroke="black" d="M142,-252C136,-252 130,-246 130,-240"/>
<polyline fill="none" stroke="black" points="130,-240 130,-228 "/>
<path fill="none" stroke="black" d="M130,-228C130,-222 136,-216 142,-216"/>
<polyline fill="none" stroke="black" points="142,-216 330,-216 "/>
<path fill="none" stroke="black" d="M330,-216C336,-216 342,-222 342,-228"/>
<polyline fill="none" stroke="black" points="342,-228 342,-240 "/>
<path fill="none" stroke="black" d="M342,-240C342,-246 336,-252 330,-252"/>
<text text-anchor="start" x="138.5" y="-231.233" font-family="Times Roman,serif" font-size="14.00">Theory of exact differentials</text>
</a>
</g>
<!-- GRAND_CANONICAL_ENSEMBLE&#45;&gt;EXACT_DIFFERENTIALS -->
<!-- ISOTHERMAL_ISOBARIC_ENSEMBLE -->
<g id="node6" class="node"><title>ISOTHERMAL_ISOBARIC_ENSEMBLE</title>
<a xlink:href="ISOTHERMAL_ISOBARIC_ENSEMBLE.html" xlink:title="The isothermal isobaric ensemble" target="_top">
<polyline fill="none" stroke="black" points="489,-324 267,-324 "/>
<path fill="none" stroke="black" d="M267,-324C261,-324 255,-318 255,-312"/>
<polyline fill="none" stroke="black" points="255,-312 255,-300 "/>
<path fill="none" stroke="black" d="M255,-300C255,-294 261,-288 267,-288"/>
<polyline fill="none" stroke="black" points="267,-288 489,-288 "/>
<path fill="none" stroke="black" d="M489,-288C495,-288 501,-294 501,-300"/>
<polyline fill="none" stroke="black" points="501,-300 501,-312 "/>
<path fill="none" stroke="black" d="M501,-312C501,-318 495,-324 489,-324"/>
<text text-anchor="start" x="263" y="-303.233" font-family="Times Roman,serif" font-size="14.00">The isothermal isobaric ensemble</text>
</a>
</g>
<!-- ISOTHERMAL_ISOBARIC_ENSEMBLE&#45;&gt;THERMODYNAMIC_POTENTIALS -->
<g id="edge6" class="edge"><title>ISOTHERMAL_ISOBARIC_ENSEMBLE&#45;&gt;THERMODYNAMIC_POTENTIALS</title>
<path fill="none" stroke="black" d="M380.92,-287.874C385.065,-255.837 389.132,-188.404 359,-144 350.094,-130.875 336.92,-120.668 323.037,-112.841"/>
<polygon fill="black" stroke="black" points="324.332,-109.569 313.849,-108.034 321.087,-115.771 324.332,-109.569"/>
</g>
<!-- EXACT_DIFFERENTIALS&#45;&gt;THERMODYNAMIC_POTENTIALS -->
<g id="edge8" class="edge"><title>EXACT_DIFFERENTIALS&#45;&gt;THERMODYNAMIC_POTENTIALS</title>
<path fill="none" stroke="black" d="M195.897,-215.923C181.56,-207.252 166.986,-195.355 159,-180 151.617,-165.805 150.804,-157.741 159,-144 166.877,-130.795 179.225,-120.625 192.592,-112.867"/>
<polygon fill="black" stroke="black" points="194.319,-115.912 201.486,-108.109 191.017,-109.74 194.319,-115.912"/>
</g>
<!-- CANONICAL_ENSEMBLE -->
<g id="node15" class="node"><title>CANONICAL_ENSEMBLE</title>
<a xlink:href="CANONICAL_ENSEMBLE.html" xlink:title="The canonical ensemble" target="_top">
<polyline fill="none" stroke="black" points="338,-180 180,-180 "/>
<path fill="none" stroke="black" d="M180,-180C174,-180 168,-174 168,-168"/>
<polyline fill="none" stroke="black" points="168,-168 168,-156 "/>
<path fill="none" stroke="black" d="M168,-156C168,-150 174,-144 180,-144"/>
<polyline fill="none" stroke="black" points="180,-144 338,-144 "/>
<path fill="none" stroke="black" d="M338,-144C344,-144 350,-150 350,-156"/>
<polyline fill="none" stroke="black" points="350,-156 350,-168 "/>
<path fill="none" stroke="black" d="M350,-168C350,-174 344,-180 338,-180"/>
<text text-anchor="start" x="176.5" y="-159.233" font-family="Times Roman,serif" font-size="14.00">The canonical ensemble</text>
</a>
</g>
<!-- EXACT_DIFFERENTIALS&#45;&gt;CANONICAL_ENSEMBLE -->
<!-- LAWS_OF_THERMODYNAMICS -->
<g id="node11" class="node"><title>LAWS_OF_THERMODYNAMICS</title>
<a xlink:href="LAWS_OF_THERMODYNAMICS.html" xlink:title="The first and second laws of thermodynamics" target="_top">
<polyline fill="none" stroke="black" points="722,-252 418,-252 "/>
<path fill="none" stroke="black" d="M418,-252C412,-252 406,-246 406,-240"/>
<polyline fill="none" stroke="black" points="406,-240 406,-228 "/>
<path fill="none" stroke="black" d="M406,-228C406,-222 412,-216 418,-216"/>
<polyline fill="none" stroke="black" points="418,-216 722,-216 "/>
<path fill="none" stroke="black" d="M722,-216C728,-216 734,-222 734,-228"/>
<polyline fill="none" stroke="black" points="734,-228 734,-240 "/>
<path fill="none" stroke="black" d="M734,-240C734,-246 728,-252 722,-252"/>
<text text-anchor="start" x="414" y="-231.233" font-family="Times Roman,serif" font-size="14.00">The first and second laws of thermodynamics</text>
</a>
</g>
<!-- LAWS_OF_THERMODYNAMICS&#45;&gt;THERMODYNAMIC_POTENTIALS -->
<g id="edge12" class="edge"><title>LAWS_OF_THERMODYNAMICS&#45;&gt;THERMODYNAMIC_POTENTIALS</title>
<path fill="none" stroke="black" d="M536.281,-215.903C500.78,-197.099 443.063,-167.228 392,-144 367.278,-132.754 339.5,-121.297 315.75,-111.846"/>
<polygon fill="black" stroke="black" points="316.767,-108.484 306.181,-108.06 314.191,-114.993 316.767,-108.484"/>
</g>
<!-- CANONICAL_ENSEMBLE&#45;&gt;THERMODYNAMIC_POTENTIALS -->
<g id="edge16" class="edge"><title>CANONICAL_ENSEMBLE&#45;&gt;THERMODYNAMIC_POTENTIALS</title>
<path fill="none" stroke="black" d="M259,-143.831C259,-136.131 259,-126.974 259,-118.417"/>
<polygon fill="black" stroke="black" points="262.5,-118.413 259,-108.413 255.5,-118.413 262.5,-118.413"/>
</g>
</g>
</svg>
