<?xml version="1.0" encoding="UTF-8" standalone="no"?>
<!DOCTYPE svg PUBLIC "-//W3C//DTD SVG 1.1//EN"
 "http://www.w3.org/Graphics/SVG/1.1/DTD/svg11.dtd">
<!-- Generated by graphviz version 2.26.3 (20100126.1600)
 -->
<!-- Title: _anonymous_0 Pages: 1 -->
<svg width="294pt" height="116pt"
 viewBox="0.00 0.00 294.00 116.00" xmlns="http://www.w3.org/2000/svg" xmlns:xlink="http://www.w3.org/1999/xlink">
<g id="graph1" class="graph" transform="scale(1 1) rotate(0) translate(4 112)">
<title>_anonymous_0</title>
<!-- THERMODYNAMIC_VARIABLES -->
<g id="node1" class="node"><title>THERMODYNAMIC_VARIABLES</title>
<a xlink:href="THERMODYNAMIC_VARIABLES.html" xlink:title="Thermodynamic variables" target="_top">
<polyline fill="none" stroke="blue" stroke-width="2" points="227,-108 57,-108 "/>
<path fill="none" stroke="blue" stroke-width="2" d="M57,-108C51,-108 45,-102 45,-96"/>
<polyline fill="none" stroke="blue" stroke-width="2" points="45,-96 45,-84 "/>
<path fill="none" stroke="blue" stroke-width="2" d="M45,-84C45,-78 51,-72 57,-72"/>
<polyline fill="none" stroke="blue" stroke-width="2" points="57,-72 227,-72 "/>
<path fill="none" stroke="blue" stroke-width="2" d="M227,-72C233,-72 239,-78 239,-84"/>
<polyline fill="none" stroke="blue" stroke-width="2" points="239,-84 239,-96 "/>
<path fill="none" stroke="blue" stroke-width="2" d="M239,-96C239,-102 233,-108 227,-108"/>
<text text-anchor="start" x="53.5" y="-87.2333" font-family="Times Roman,serif" font-size="14.00">Thermodynamic variables</text>
</a>
</g>
<!-- GIBBS_PHASE_RULE -->
<g id="node2" class="node"><title>GIBBS_PHASE_RULE</title>
<a xlink:href="GIBBS_PHASE_RULE.html" xlink:title="Gibbs Phase rule" target="_top">
<polyline fill="none" stroke="black" points="120,-36 12,-36 "/>
<path fill="none" stroke="black" d="M12,-36C6,-36 5.92119e-14,-30 4.73695e-14,-24"/>
<polyline fill="none" stroke="black" points="4.73695e-14,-24 2.36848e-14,-12 "/>
<path fill="none" stroke="black" d="M2.36848e-14,-12C1.18424e-14,-6 6,-1.71176e-14 12,-1.64717e-14"/>
<polyline fill="none" stroke="black" points="12,-1.64717e-14 120,-4.84461e-15 "/>
<path fill="none" stroke="black" d="M120,-4.84461e-15C126,-4.19866e-15 132,-6 132,-12"/>
<polyline fill="none" stroke="black" points="132,-12 132,-24 "/>
<path fill="none" stroke="black" d="M132,-24C132,-30 126,-36 120,-36"/>
<text text-anchor="start" x="8" y="-15.2333" font-family="Times Roman,serif" font-size="14.00">Gibbs Phase rule</text>
</a>
</g>
<!-- THERMODYNAMIC_VARIABLES&#45;&gt;GIBBS_PHASE_RULE -->
<g id="edge2" class="edge"><title>THERMODYNAMIC_VARIABLES&#45;&gt;GIBBS_PHASE_RULE</title>
<path fill="none" stroke="black" d="M122.822,-71.8314C113.641,-63.1337 102.499,-52.5783 92.5224,-43.1265"/>
<polygon fill="black" stroke="black" points="94.8385,-40.4995 85.1719,-36.1628 90.0243,-45.5811 94.8385,-40.4995"/>
</g>
<!-- CARNOT_CYCLE -->
<g id="node4" class="node"><title>CARNOT_CYCLE</title>
<a xlink:href="CARNOT_CYCLE.html" xlink:title="The Carnot Cycle" target="_top">
<polyline fill="none" stroke="black" points="274,-36 162,-36 "/>
<path fill="none" stroke="black" d="M162,-36C156,-36 150,-30 150,-24"/>
<polyline fill="none" stroke="black" points="150,-24 150,-12 "/>
<path fill="none" stroke="black" d="M150,-12C150,-6 156,-1.71366e-14 162,-1.65097e-14"/>
<polyline fill="none" stroke="black" points="162,-1.65097e-14 274,-4.80661e-15 "/>
<path fill="none" stroke="black" d="M274,-4.80661e-15C280,-4.17966e-15 286,-6 286,-12"/>
<polyline fill="none" stroke="black" points="286,-12 286,-24 "/>
<path fill="none" stroke="black" d="M286,-24C286,-30 280,-36 274,-36"/>
<text text-anchor="start" x="158" y="-15.2333" font-family="Times Roman,serif" font-size="14.00">The Carnot Cycle</text>
</a>
</g>
<!-- THERMODYNAMIC_VARIABLES&#45;&gt;CARNOT_CYCLE -->
<g id="edge4" class="edge"><title>THERMODYNAMIC_VARIABLES&#45;&gt;CARNOT_CYCLE</title>
<path fill="none" stroke="black" d="M161.178,-71.8314C170.359,-63.1337 181.501,-52.5783 191.478,-43.1265"/>
<polygon fill="black" stroke="black" points="193.976,-45.5811 198.828,-36.1628 189.161,-40.4995 193.976,-45.5811"/>
</g>
</g>
</svg>
