<?xml version="1.0" encoding="UTF-8" standalone="no"?>
<!DOCTYPE svg PUBLIC "-//W3C//DTD SVG 1.1//EN"
 "http://www.w3.org/Graphics/SVG/1.1/DTD/svg11.dtd">
<!-- Generated by graphviz version 2.26.3 (20100126.1600)
 -->
<!-- Title: _anonymous_0 Pages: 1 -->
<svg width="566pt" height="188pt"
 viewBox="0.00 0.00 566.00 188.00" xmlns="http://www.w3.org/2000/svg" xmlns:xlink="http://www.w3.org/1999/xlink">
<g id="graph1" class="graph" transform="scale(1 1) rotate(0) translate(4 184)">
<title>_anonymous_0</title>
<!-- THERMODYNAMIC_POTENTIALS -->
<g id="node1" class="node"><title>THERMODYNAMIC_POTENTIALS</title>
<a xlink:href="THERMODYNAMIC_POTENTIALS.html" xlink:title="Thermodynamic Potentials" target="_top">
<polyline fill="none" stroke="blue" stroke-width="2" points="396,-108 220,-108 "/>
<path fill="none" stroke="blue" stroke-width="2" d="M220,-108C214,-108 208,-102 208,-96"/>
<polyline fill="none" stroke="blue" stroke-width="2" points="208,-96 208,-84 "/>
<path fill="none" stroke="blue" stroke-width="2" d="M208,-84C208,-78 214,-72 220,-72"/>
<polyline fill="none" stroke="blue" stroke-width="2" points="220,-72 396,-72 "/>
<path fill="none" stroke="blue" stroke-width="2" d="M396,-72C402,-72 408,-78 408,-84"/>
<polyline fill="none" stroke="blue" stroke-width="2" points="408,-84 408,-96 "/>
<path fill="none" stroke="blue" stroke-width="2" d="M408,-96C408,-102 402,-108 396,-108"/>
<text text-anchor="start" x="216" y="-87.2333" font-family="Times Roman,serif" font-size="14.00">Thermodynamic Potentials</text>
</a>
</g>
<!-- MAXWELL_RELATIONS -->
<g id="node2" class="node"><title>MAXWELL_RELATIONS</title>
<a xlink:href="MAXWELL_RELATIONS.html" xlink:title="Maxwell relations" target="_top">
<polyline fill="none" stroke="black" points="263,-36 149,-36 "/>
<path fill="none" stroke="black" d="M149,-36C143,-36 137,-30 137,-24"/>
<polyline fill="none" stroke="black" points="137,-24 137,-12 "/>
<path fill="none" stroke="black" d="M137,-12C137,-6 143,-1.71457e-14 149,-1.65278e-14"/>
<polyline fill="none" stroke="black" points="149,-1.65278e-14 263,-4.78844e-15 "/>
<path fill="none" stroke="black" d="M263,-4.78844e-15C269,-4.17058e-15 275,-6 275,-12"/>
<polyline fill="none" stroke="black" points="275,-12 275,-24 "/>
<path fill="none" stroke="black" d="M275,-24C275,-30 269,-36 263,-36"/>
<text text-anchor="start" x="145" y="-15.2333" font-family="Times Roman,serif" font-size="14.00">Maxwell relations</text>
</a>
</g>
<!-- THERMODYNAMIC_POTENTIALS&#45;&gt;MAXWELL_RELATIONS -->
<g id="edge2" class="edge"><title>THERMODYNAMIC_POTENTIALS&#45;&gt;MAXWELL_RELATIONS</title>
<path fill="none" stroke="black" d="M282.261,-71.8314C269.456,-62.7927 253.809,-51.7476 240.028,-42.0198"/>
<polygon fill="black" stroke="black" points="241.919,-39.0703 231.731,-36.1628 237.882,-44.7891 241.919,-39.0703"/>
</g>
<!-- PHASE_TRANSITIONS -->
<g id="node6" class="node"><title>PHASE_TRANSITIONS</title>
<a xlink:href="PHASE_TRANSITIONS.html" xlink:title="The theory of phase transitions" target="_top">
<polyline fill="none" stroke="black" points="515,-36 305,-36 "/>
<path fill="none" stroke="black" d="M305,-36C299,-36 293,-30 293,-24"/>
<polyline fill="none" stroke="black" points="293,-24 293,-12 "/>
<path fill="none" stroke="black" d="M293,-12C293,-6 299,-1.73992e-14 305,-1.70348e-14"/>
<polyline fill="none" stroke="black" points="305,-1.70348e-14 515,-4.28148e-15 "/>
<path fill="none" stroke="black" d="M515,-4.28148e-15C521,-3.91709e-15 527,-6 527,-12"/>
<polyline fill="none" stroke="black" points="527,-12 527,-24 "/>
<path fill="none" stroke="black" d="M527,-24C527,-30 521,-36 515,-36"/>
<text text-anchor="start" x="301.5" y="-15.2333" font-family="Times Roman,serif" font-size="14.00">The theory of phase transitions</text>
</a>
</g>
<!-- THERMODYNAMIC_POTENTIALS&#45;&gt;PHASE_TRANSITIONS -->
<g id="edge6" class="edge"><title>THERMODYNAMIC_POTENTIALS&#45;&gt;PHASE_TRANSITIONS</title>
<path fill="none" stroke="black" d="M333.739,-71.8314C346.544,-62.7927 362.191,-51.7476 375.972,-42.0198"/>
<polygon fill="black" stroke="black" points="378.118,-44.7891 384.269,-36.1628 374.081,-39.0703 378.118,-44.7891"/>
</g>
<!-- LAWS_OF_THERMODYNAMICS -->
<g id="node4" class="node"><title>LAWS_OF_THERMODYNAMICS</title>
<a xlink:href="LAWS_OF_THERMODYNAMICS.html" xlink:title="The first and second laws of thermodynamics" target="_top">
<polyline fill="none" stroke="black" points="316,-180 12,-180 "/>
<path fill="none" stroke="black" d="M12,-180C6,-180 1.42109e-13,-174 1.13687e-13,-168"/>
<polyline fill="none" stroke="black" points="1.13687e-13,-168 5.68434e-14,-156 "/>
<path fill="none" stroke="black" d="M5.68434e-14,-156C2.84217e-14,-150 6,-144 12,-144"/>
<polyline fill="none" stroke="black" points="12,-144 316,-144 "/>
<path fill="none" stroke="black" d="M316,-144C322,-144 328,-150 328,-156"/>
<polyline fill="none" stroke="black" points="328,-156 328,-168 "/>
<path fill="none" stroke="black" d="M328,-168C328,-174 322,-180 316,-180"/>
<text text-anchor="start" x="8" y="-159.233" font-family="Times Roman,serif" font-size="14.00">The first and second laws of thermodynamics</text>
</a>
</g>
<!-- LAWS_OF_THERMODYNAMICS&#45;&gt;THERMODYNAMIC_POTENTIALS -->
<g id="edge4" class="edge"><title>LAWS_OF_THERMODYNAMICS&#45;&gt;THERMODYNAMIC_POTENTIALS</title>
<path fill="none" stroke="black" d="M200.337,-143.831C219.34,-134.33 242.776,-122.612 262.925,-112.537"/>
<polygon fill="black" stroke="black" points="264.545,-115.641 271.924,-108.038 261.414,-109.38 264.545,-115.641"/>
</g>
<!-- EXACT_DIFFERENTIALS -->
<g id="node8" class="node"><title>EXACT_DIFFERENTIALS</title>
<a xlink:href="EXACT_DIFFERENTIALS.html" xlink:title="Theory of exact differentials" target="_top">
<polyline fill="none" stroke="black" points="546,-180 358,-180 "/>
<path fill="none" stroke="black" d="M358,-180C352,-180 346,-174 346,-168"/>
<polyline fill="none" stroke="black" points="346,-168 346,-156 "/>
<path fill="none" stroke="black" d="M346,-156C346,-150 352,-144 358,-144"/>
<polyline fill="none" stroke="black" points="358,-144 546,-144 "/>
<path fill="none" stroke="black" d="M546,-144C552,-144 558,-150 558,-156"/>
<polyline fill="none" stroke="black" points="558,-156 558,-168 "/>
<path fill="none" stroke="black" d="M558,-168C558,-174 552,-180 546,-180"/>
<text text-anchor="start" x="354.5" y="-159.233" font-family="Times Roman,serif" font-size="14.00">Theory of exact differentials</text>
</a>
</g>
<!-- EXACT_DIFFERENTIALS&#45;&gt;THERMODYNAMIC_POTENTIALS -->
<g id="edge8" class="edge"><title>EXACT_DIFFERENTIALS&#45;&gt;THERMODYNAMIC_POTENTIALS</title>
<path fill="none" stroke="black" d="M415.663,-143.831C396.66,-134.33 373.224,-122.612 353.075,-112.537"/>
<polygon fill="black" stroke="black" points="354.586,-109.38 344.076,-108.038 351.455,-115.641 354.586,-109.38"/>
</g>
</g>
</svg>
