<?xml version="1.0" encoding="UTF-8" standalone="no"?>
<!DOCTYPE svg PUBLIC "-//W3C//DTD SVG 1.1//EN"
 "http://www.w3.org/Graphics/SVG/1.1/DTD/svg11.dtd">
<!-- Generated by graphviz version 2.26.3 (20100126.1600)
 -->
<!-- Title: _anonymous_0 Pages: 1 -->
<svg width="670pt" height="332pt"
 viewBox="0.00 0.00 670.00 332.00" xmlns="http://www.w3.org/2000/svg" xmlns:xlink="http://www.w3.org/1999/xlink">
<g id="graph1" class="graph" transform="scale(1 1) rotate(0) translate(4 328)">
<title>_anonymous_0</title>
<!-- THERMODYNAMIC_POTENTIALS -->
<g id="node1" class="node"><title>THERMODYNAMIC_POTENTIALS</title>
<a xlink:href="THERMODYNAMIC_POTENTIALS.html" xlink:title=" Thermodynamic Potentials " target="_top">
<polyline fill="none" stroke="blue" stroke-width="2" points="381,-108 195,-108 "/>
<path fill="none" stroke="blue" stroke-width="2" d="M195,-108C189,-108 183,-102 183,-96"/>
<polyline fill="none" stroke="blue" stroke-width="2" points="183,-96 183,-84 "/>
<path fill="none" stroke="blue" stroke-width="2" d="M183,-84C183,-78 189,-72 195,-72"/>
<polyline fill="none" stroke="blue" stroke-width="2" points="195,-72 381,-72 "/>
<path fill="none" stroke="blue" stroke-width="2" d="M381,-72C387,-72 393,-78 393,-84"/>
<polyline fill="none" stroke="blue" stroke-width="2" points="393,-84 393,-96 "/>
<path fill="none" stroke="blue" stroke-width="2" d="M393,-96C393,-102 387,-108 381,-108"/>
<text text-anchor="start" x="191.5" y="-87.2333" font-family="Times Roman,serif" font-size="14.00"> Thermodynamic Potentials </text>
</a>
</g>
<!-- PHASE_TRANSITIONS -->
<g id="node6" class="node"><title>PHASE_TRANSITIONS</title>
<a xlink:href="PHASE_TRANSITIONS.html" xlink:title=" The theory of phase transitions " target="_top">
<polyline fill="none" stroke="black" points="291,-36 73,-36 "/>
<path fill="none" stroke="black" d="M73,-36C67,-36 61,-30 61,-24"/>
<polyline fill="none" stroke="black" points="61,-24 61,-12 "/>
<path fill="none" stroke="black" d="M61,-12C61,-6 67,-1.74112e-14 73,-1.70589e-14"/>
<polyline fill="none" stroke="black" points="73,-1.70589e-14 291,-4.25738e-15 "/>
<path fill="none" stroke="black" d="M291,-4.25738e-15C297,-3.90505e-15 303,-6 303,-12"/>
<polyline fill="none" stroke="black" points="303,-12 303,-24 "/>
<path fill="none" stroke="black" d="M303,-24C303,-30 297,-36 291,-36"/>
<text text-anchor="start" x="69" y="-15.2333" font-family="Times Roman,serif" font-size="14.00"> The theory of phase transitions </text>
</a>
</g>
<!-- THERMODYNAMIC_POTENTIALS&#45;&gt;PHASE_TRANSITIONS -->
<g id="edge6" class="edge"><title>THERMODYNAMIC_POTENTIALS&#45;&gt;PHASE_TRANSITIONS</title>
<path fill="none" stroke="black" d="M261.252,-71.8314C247.945,-62.7927 231.684,-51.7476 217.363,-42.0198"/>
<polygon fill="black" stroke="black" points="218.979,-38.8864 208.74,-36.1628 215.045,-44.677 218.979,-38.8864"/>
</g>
<!-- MAXWELL_RELATIONS -->
<g id="node8" class="node"><title>MAXWELL_RELATIONS</title>
<a xlink:href="MAXWELL_RELATIONS.html" xlink:title=" Maxwell relations " target="_top">
<polyline fill="none" stroke="black" points="457,-36 333,-36 "/>
<path fill="none" stroke="black" d="M333,-36C327,-36 321,-30 321,-24"/>
<polyline fill="none" stroke="black" points="321,-24 321,-12 "/>
<path fill="none" stroke="black" d="M321,-12C321,-6 327,-1.71875e-14 333,-1.66113e-14"/>
<polyline fill="none" stroke="black" points="333,-1.66113e-14 457,-4.70495e-15 "/>
<path fill="none" stroke="black" d="M457,-4.70495e-15C463,-4.12883e-15 469,-6 469,-12"/>
<polyline fill="none" stroke="black" points="469,-12 469,-24 "/>
<path fill="none" stroke="black" d="M469,-24C469,-30 463,-36 457,-36"/>
<text text-anchor="start" x="329.5" y="-15.2333" font-family="Times Roman,serif" font-size="14.00"> Maxwell relations </text>
</a>
</g>
<!-- THERMODYNAMIC_POTENTIALS&#45;&gt;MAXWELL_RELATIONS -->
<g id="edge8" class="edge"><title>THERMODYNAMIC_POTENTIALS&#45;&gt;MAXWELL_RELATIONS</title>
<path fill="none" stroke="black" d="M315.001,-71.8314C328.433,-62.7927 344.847,-51.7476 359.304,-42.0198"/>
<polygon fill="black" stroke="black" points="361.665,-44.6494 368.008,-36.1628 357.757,-38.8418 361.665,-44.6494"/>
</g>
<!-- GRAND_CANONICAL_ENSEMBLE -->
<g id="node2" class="node"><title>GRAND_CANONICAL_ENSEMBLE</title>
<a xlink:href="GRAND_CANONICAL_ENSEMBLE.html" xlink:title=" The grand canonical ensemble " target="_top">
<polyline fill="none" stroke="black" points="222,-324 12,-324 "/>
<path fill="none" stroke="black" d="M12,-324C6,-324 8.28967e-14,-318 6.63173e-14,-312"/>
<polyline fill="none" stroke="black" points="6.63173e-14,-312 3.31587e-14,-300 "/>
<path fill="none" stroke="black" d="M3.31587e-14,-300C1.65793e-14,-294 6,-288 12,-288"/>
<polyline fill="none" stroke="black" points="12,-288 222,-288 "/>
<path fill="none" stroke="black" d="M222,-288C228,-288 234,-294 234,-300"/>
<polyline fill="none" stroke="black" points="234,-300 234,-312 "/>
<path fill="none" stroke="black" d="M234,-312C234,-318 228,-324 222,-324"/>
<text text-anchor="start" x="8" y="-303.233" font-family="Times Roman,serif" font-size="14.00"> The grand canonical ensemble </text>
</a>
</g>
<!-- GRAND_CANONICAL_ENSEMBLE&#45;&gt;THERMODYNAMIC_POTENTIALS -->
<g id="edge2" class="edge"><title>GRAND_CANONICAL_ENSEMBLE&#45;&gt;THERMODYNAMIC_POTENTIALS</title>
<path fill="none" stroke="black" d="M113.445,-287.857C108.019,-254.243 102.037,-182.235 141,-144 155.36,-129.909 173.7,-119.452 192.52,-111.706"/>
<polygon fill="black" stroke="black" points="194.019,-114.879 202.083,-108.007 191.494,-108.35 194.019,-114.879"/>
</g>
<!-- EXACT_DIFFERENTIALS -->
<g id="node10" class="node"><title>EXACT_DIFFERENTIALS</title>
<a xlink:href="EXACT_DIFFERENTIALS.html" xlink:title=" Theory of exact differentials " target="_top">
<polyline fill="none" stroke="black" points="330,-252 134,-252 "/>
<path fill="none" stroke="black" d="M134,-252C128,-252 122,-246 122,-240"/>
<polyline fill="none" stroke="black" points="122,-240 122,-228 "/>
<path fill="none" stroke="black" d="M122,-228C122,-222 128,-216 134,-216"/>
<polyline fill="none" stroke="black" points="134,-216 330,-216 "/>
<path fill="none" stroke="black" d="M330,-216C336,-216 342,-222 342,-228"/>
<polyline fill="none" stroke="black" points="342,-228 342,-240 "/>
<path fill="none" stroke="black" d="M342,-240C342,-246 336,-252 330,-252"/>
<text text-anchor="start" x="130" y="-231.233" font-family="Times Roman,serif" font-size="14.00"> Theory of exact differentials </text>
</a>
</g>
<!-- GRAND_CANONICAL_ENSEMBLE&#45;&gt;EXACT_DIFFERENTIALS -->
<!-- LAWS_OF_THERMODYNAMICS -->
<g id="node4" class="node"><title>LAWS_OF_THERMODYNAMICS</title>
<a xlink:href="LAWS_OF_THERMODYNAMICS.html" xlink:title=" The first and second laws of thermodynamics " target="_top">
<polyline fill="none" stroke="black" points="601,-324 287,-324 "/>
<path fill="none" stroke="black" d="M287,-324C281,-324 275,-318 275,-312"/>
<polyline fill="none" stroke="black" points="275,-312 275,-300 "/>
<path fill="none" stroke="black" d="M275,-300C275,-294 281,-288 287,-288"/>
<polyline fill="none" stroke="black" points="287,-288 601,-288 "/>
<path fill="none" stroke="black" d="M601,-288C607,-288 613,-294 613,-300"/>
<polyline fill="none" stroke="black" points="613,-300 613,-312 "/>
<path fill="none" stroke="black" d="M613,-312C613,-318 607,-324 601,-324"/>
<text text-anchor="start" x="283.5" y="-303.233" font-family="Times Roman,serif" font-size="14.00"> The first and second laws of thermodynamics </text>
</a>
</g>
<!-- LAWS_OF_THERMODYNAMICS&#45;&gt;THERMODYNAMIC_POTENTIALS -->
<g id="edge4" class="edge"><title>LAWS_OF_THERMODYNAMICS&#45;&gt;THERMODYNAMIC_POTENTIALS</title>
<path fill="none" stroke="black" d="M447.407,-287.75C452.389,-255.22 457.82,-186.635 425,-144 414.376,-130.198 399.703,-119.918 383.89,-112.262"/>
<polygon fill="black" stroke="black" points="385.027,-108.937 374.469,-108.051 382.17,-115.328 385.027,-108.937"/>
</g>
<!-- EXACT_DIFFERENTIALS&#45;&gt;THERMODYNAMIC_POTENTIALS -->
<g id="edge10" class="edge"><title>EXACT_DIFFERENTIALS&#45;&gt;THERMODYNAMIC_POTENTIALS</title>
<path fill="none" stroke="black" d="M189.015,-215.885C174.217,-207.315 159.294,-195.497 151,-180 143.45,-165.893 141.997,-157.226 151,-144 158.914,-132.373 185.333,-120.766 212.887,-111.309"/>
<polygon fill="black" stroke="black" points="214.271,-114.537 222.653,-108.057 212.059,-107.896 214.271,-114.537"/>
</g>
<!-- ISOTHERMAL_ISOBARIC_ENSEMBLE -->
<g id="node15" class="node"><title>ISOTHERMAL_ISOBARIC_ENSEMBLE</title>
<a xlink:href="ISOTHERMAL_ISOBARIC_ENSEMBLE.html" xlink:title=" The isothermal isobaric ensemble " target="_top">
<polyline fill="none" stroke="black" points="404,-180 172,-180 "/>
<path fill="none" stroke="black" d="M172,-180C166,-180 160,-174 160,-168"/>
<polyline fill="none" stroke="black" points="160,-168 160,-156 "/>
<path fill="none" stroke="black" d="M160,-156C160,-150 166,-144 172,-144"/>
<polyline fill="none" stroke="black" points="172,-144 404,-144 "/>
<path fill="none" stroke="black" d="M404,-144C410,-144 416,-150 416,-156"/>
<polyline fill="none" stroke="black" points="416,-156 416,-168 "/>
<path fill="none" stroke="black" d="M416,-168C416,-174 410,-180 404,-180"/>
<text text-anchor="start" x="168.5" y="-159.233" font-family="Times Roman,serif" font-size="14.00"> The isothermal isobaric ensemble </text>
</a>
</g>
<!-- EXACT_DIFFERENTIALS&#45;&gt;ISOTHERMAL_ISOBARIC_ENSEMBLE -->
<!-- CANONICAL_ENSEMBLE -->
<g id="node13" class="node"><title>CANONICAL_ENSEMBLE</title>
<a xlink:href="CANONICAL_ENSEMBLE.html" xlink:title=" The canonical ensemble " target="_top">
<polyline fill="none" stroke="black" points="650,-252 484,-252 "/>
<path fill="none" stroke="black" d="M484,-252C478,-252 472,-246 472,-240"/>
<polyline fill="none" stroke="black" points="472,-240 472,-228 "/>
<path fill="none" stroke="black" d="M472,-228C472,-222 478,-216 484,-216"/>
<polyline fill="none" stroke="black" points="484,-216 650,-216 "/>
<path fill="none" stroke="black" d="M650,-216C656,-216 662,-222 662,-228"/>
<polyline fill="none" stroke="black" points="662,-228 662,-240 "/>
<path fill="none" stroke="black" d="M662,-240C662,-246 656,-252 650,-252"/>
<text text-anchor="start" x="480" y="-231.233" font-family="Times Roman,serif" font-size="14.00"> The canonical ensemble </text>
</a>
</g>
<!-- CANONICAL_ENSEMBLE&#45;&gt;THERMODYNAMIC_POTENTIALS -->
<g id="edge14" class="edge"><title>CANONICAL_ENSEMBLE&#45;&gt;THERMODYNAMIC_POTENTIALS</title>
<path fill="none" stroke="black" d="M549.32,-215.677C528.984,-195.547 493.772,-163.491 458,-144 432.692,-130.211 403.316,-119.31 376.175,-111.021"/>
<polygon fill="black" stroke="black" points="376.872,-107.577 366.289,-108.085 374.879,-114.287 376.872,-107.577"/>
</g>
<!-- ISOTHERMAL_ISOBARIC_ENSEMBLE&#45;&gt;THERMODYNAMIC_POTENTIALS -->
<g id="edge16" class="edge"><title>ISOTHERMAL_ISOBARIC_ENSEMBLE&#45;&gt;THERMODYNAMIC_POTENTIALS</title>
<path fill="none" stroke="black" d="M288,-143.831C288,-136.131 288,-126.974 288,-118.417"/>
<polygon fill="black" stroke="black" points="291.5,-118.413 288,-108.413 284.5,-118.413 291.5,-118.413"/>
</g>
</g>
</svg>
