<?xml version="1.0" encoding="UTF-8" standalone="no"?>
<!DOCTYPE svg PUBLIC "-//W3C//DTD SVG 1.1//EN"
 "http://www.w3.org/Graphics/SVG/1.1/DTD/svg11.dtd">
<!-- Generated by graphviz version 2.26.3 (20100126.1600)
 -->
<!-- Title: _anonymous_0 Pages: 1 -->
<svg width="566pt" height="260pt"
 viewBox="0.00 0.00 566.00 260.00" xmlns="http://www.w3.org/2000/svg" xmlns:xlink="http://www.w3.org/1999/xlink">
<g id="graph1" class="graph" transform="scale(1 1) rotate(0) translate(4 256)">
<title>_anonymous_0</title>
<!-- THERMODYNAMIC_POTENTIALS -->
<g id="node1" class="node"><title>THERMODYNAMIC_POTENTIALS</title>
<a xlink:href="THERMODYNAMIC_POTENTIALS.html" xlink:title="Thermodynamic Potentials" target="_top">
<polyline fill="none" stroke="blue" stroke-width="2" points="396,-180 220,-180 "/>
<path fill="none" stroke="blue" stroke-width="2" d="M220,-180C214,-180 208,-174 208,-168"/>
<polyline fill="none" stroke="blue" stroke-width="2" points="208,-168 208,-156 "/>
<path fill="none" stroke="blue" stroke-width="2" d="M208,-156C208,-150 214,-144 220,-144"/>
<polyline fill="none" stroke="blue" stroke-width="2" points="220,-144 396,-144 "/>
<path fill="none" stroke="blue" stroke-width="2" d="M396,-144C402,-144 408,-150 408,-156"/>
<polyline fill="none" stroke="blue" stroke-width="2" points="408,-156 408,-168 "/>
<path fill="none" stroke="blue" stroke-width="2" d="M408,-168C408,-174 402,-180 396,-180"/>
<text text-anchor="start" x="216" y="-159.233" font-family="Times Roman,serif" font-size="14.00">Thermodynamic Potentials</text>
</a>
</g>
<!-- MAXWELL_RELATIONS -->
<g id="node2" class="node"><title>MAXWELL_RELATIONS</title>
<a xlink:href="MAXWELL_RELATIONS.html" xlink:title="Maxwell relations" target="_top">
<polyline fill="none" stroke="black" points="212,-108 98,-108 "/>
<path fill="none" stroke="black" d="M98,-108C92,-108 86,-102 86,-96"/>
<polyline fill="none" stroke="black" points="86,-96 86,-84 "/>
<path fill="none" stroke="black" d="M86,-84C86,-78 92,-72 98,-72"/>
<polyline fill="none" stroke="black" points="98,-72 212,-72 "/>
<path fill="none" stroke="black" d="M212,-72C218,-72 224,-78 224,-84"/>
<polyline fill="none" stroke="black" points="224,-84 224,-96 "/>
<path fill="none" stroke="black" d="M224,-96C224,-102 218,-108 212,-108"/>
<text text-anchor="start" x="94" y="-87.2333" font-family="Times Roman,serif" font-size="14.00">Maxwell relations</text>
</a>
</g>
<!-- THERMODYNAMIC_POTENTIALS&#45;&gt;MAXWELL_RELATIONS -->
<g id="edge2" class="edge"><title>THERMODYNAMIC_POTENTIALS&#45;&gt;MAXWELL_RELATIONS</title>
<path fill="none" stroke="black" d="M269.392,-143.831C249.111,-134.287 224.076,-122.506 202.603,-112.401"/>
<polygon fill="black" stroke="black" points="203.869,-109.129 193.331,-108.038 200.889,-115.463 203.869,-109.129"/>
</g>
<!-- GIBBS_PHASE_RULE -->
<g id="node6" class="node"><title>GIBBS_PHASE_RULE</title>
<a xlink:href="GIBBS_PHASE_RULE.html" xlink:title="Gibbs Phase rule" target="_top">
<polyline fill="none" stroke="black" points="362,-108 254,-108 "/>
<path fill="none" stroke="black" d="M254,-108C248,-108 242,-102 242,-96"/>
<polyline fill="none" stroke="black" points="242,-96 242,-84 "/>
<path fill="none" stroke="black" d="M242,-84C242,-78 248,-72 254,-72"/>
<polyline fill="none" stroke="black" points="254,-72 362,-72 "/>
<path fill="none" stroke="black" d="M362,-72C368,-72 374,-78 374,-84"/>
<polyline fill="none" stroke="black" points="374,-84 374,-96 "/>
<path fill="none" stroke="black" d="M374,-96C374,-102 368,-108 362,-108"/>
<text text-anchor="start" x="250" y="-87.2333" font-family="Times Roman,serif" font-size="14.00">Gibbs Phase rule</text>
</a>
</g>
<!-- THERMODYNAMIC_POTENTIALS&#45;&gt;GIBBS_PHASE_RULE -->
<g id="edge6" class="edge"><title>THERMODYNAMIC_POTENTIALS&#45;&gt;GIBBS_PHASE_RULE</title>
<path fill="none" stroke="black" d="M308,-143.831C308,-136.131 308,-126.974 308,-118.417"/>
<polygon fill="black" stroke="black" points="311.5,-118.413 308,-108.413 304.5,-118.413 311.5,-118.413"/>
</g>
<!-- PHASE_TRANSITIONS -->
<g id="node8" class="node"><title>PHASE_TRANSITIONS</title>
<a xlink:href="PHASE_TRANSITIONS.html" xlink:title="The theory of phase transitions" target="_top">
<polyline fill="none" stroke="black" points="383,-36 173,-36 "/>
<path fill="none" stroke="black" d="M173,-36C167,-36 161,-30 161,-24"/>
<polyline fill="none" stroke="black" points="161,-24 161,-12 "/>
<path fill="none" stroke="black" d="M161,-12C161,-6 167,-1.73992e-14 173,-1.70348e-14"/>
<polyline fill="none" stroke="black" points="173,-1.70348e-14 383,-4.28148e-15 "/>
<path fill="none" stroke="black" d="M383,-4.28148e-15C389,-3.91709e-15 395,-6 395,-12"/>
<polyline fill="none" stroke="black" points="395,-12 395,-24 "/>
<path fill="none" stroke="black" d="M395,-24C395,-30 389,-36 383,-36"/>
<text text-anchor="start" x="169.5" y="-15.2333" font-family="Times Roman,serif" font-size="14.00">The theory of phase transitions</text>
</a>
</g>
<!-- THERMODYNAMIC_POTENTIALS&#45;&gt;PHASE_TRANSITIONS -->
<g id="edge8" class="edge"><title>THERMODYNAMIC_POTENTIALS&#45;&gt;PHASE_TRANSITIONS</title>
<path fill="none" stroke="black" d="M346.691,-143.944C360.787,-135.22 375.173,-123.28 383,-108 390.294,-93.7595 391.334,-85.658 383,-72 374.854,-58.6509 362.239,-48.4624 348.541,-40.7362"/>
<polygon fill="black" stroke="black" points="349.908,-37.5026 339.419,-36.0062 346.685,-43.7168 349.908,-37.5026"/>
</g>
<!-- MAXWELL_RELATIONS&#45;&gt;PHASE_TRANSITIONS -->
<!-- LAWS_OF_THERMODYNAMICS -->
<g id="node4" class="node"><title>LAWS_OF_THERMODYNAMICS</title>
<a xlink:href="LAWS_OF_THERMODYNAMICS.html" xlink:title="The first and second laws of thermodynamics" target="_top">
<polyline fill="none" stroke="black" points="316,-252 12,-252 "/>
<path fill="none" stroke="black" d="M12,-252C6,-252 1.42109e-13,-246 1.13687e-13,-240"/>
<polyline fill="none" stroke="black" points="1.13687e-13,-240 5.68434e-14,-228 "/>
<path fill="none" stroke="black" d="M5.68434e-14,-228C2.84217e-14,-222 6,-216 12,-216"/>
<polyline fill="none" stroke="black" points="12,-216 316,-216 "/>
<path fill="none" stroke="black" d="M316,-216C322,-216 328,-222 328,-228"/>
<polyline fill="none" stroke="black" points="328,-228 328,-240 "/>
<path fill="none" stroke="black" d="M328,-240C328,-246 322,-252 316,-252"/>
<text text-anchor="start" x="8" y="-231.233" font-family="Times Roman,serif" font-size="14.00">The first and second laws of thermodynamics</text>
</a>
</g>
<!-- LAWS_OF_THERMODYNAMICS&#45;&gt;THERMODYNAMIC_POTENTIALS -->
<g id="edge4" class="edge"><title>LAWS_OF_THERMODYNAMICS&#45;&gt;THERMODYNAMIC_POTENTIALS</title>
<path fill="none" stroke="black" d="M200.337,-215.831C219.34,-206.33 242.776,-194.612 262.925,-184.537"/>
<polygon fill="black" stroke="black" points="264.545,-187.641 271.924,-180.038 261.414,-181.38 264.545,-187.641"/>
</g>
<!-- EXACT_DIFFERENTIALS -->
<g id="node11" class="node"><title>EXACT_DIFFERENTIALS</title>
<a xlink:href="EXACT_DIFFERENTIALS.html" xlink:title="Theory of exact differentials" target="_top">
<polyline fill="none" stroke="black" points="546,-252 358,-252 "/>
<path fill="none" stroke="black" d="M358,-252C352,-252 346,-246 346,-240"/>
<polyline fill="none" stroke="black" points="346,-240 346,-228 "/>
<path fill="none" stroke="black" d="M346,-228C346,-222 352,-216 358,-216"/>
<polyline fill="none" stroke="black" points="358,-216 546,-216 "/>
<path fill="none" stroke="black" d="M546,-216C552,-216 558,-222 558,-228"/>
<polyline fill="none" stroke="black" points="558,-228 558,-240 "/>
<path fill="none" stroke="black" d="M558,-240C558,-246 552,-252 546,-252"/>
<text text-anchor="start" x="354.5" y="-231.233" font-family="Times Roman,serif" font-size="14.00">Theory of exact differentials</text>
</a>
</g>
<!-- EXACT_DIFFERENTIALS&#45;&gt;THERMODYNAMIC_POTENTIALS -->
<g id="edge12" class="edge"><title>EXACT_DIFFERENTIALS&#45;&gt;THERMODYNAMIC_POTENTIALS</title>
<path fill="none" stroke="black" d="M415.663,-215.831C396.66,-206.33 373.224,-194.612 353.075,-184.537"/>
<polygon fill="black" stroke="black" points="354.586,-181.38 344.076,-180.038 351.455,-187.641 354.586,-181.38"/>
</g>
</g>
</svg>
