<?xml version="1.0" encoding="UTF-8" standalone="no"?>
<!DOCTYPE svg PUBLIC "-//W3C//DTD SVG 1.1//EN"
 "http://www.w3.org/Graphics/SVG/1.1/DTD/svg11.dtd">
<!-- Generated by graphviz version 2.36.0 (20140111.2315)
 -->
<!-- Title: %3 Pages: 1 -->
<svg width="633pt" height="332pt"
 viewBox="0.00 0.00 633.00 332.00" xmlns="http://www.w3.org/2000/svg" xmlns:xlink="http://www.w3.org/1999/xlink">
<g id="graph0" class="graph" transform="scale(1 1) rotate(0) translate(4 328)">
<title>%3</title>
<!-- THERMODYNAMIC_POTENTIALS -->
<g id="node1" class="node"><title>THERMODYNAMIC_POTENTIALS</title>
<g id="a_node1"><a xlink:href="THERMODYNAMIC_POTENTIALS.html" xlink:title=" Thermodynamic Potentials " target="_top">
<path fill="none" stroke="blue" stroke-width="2" d="M264,-108C264,-108 116,-108 116,-108 110,-108 104,-102 104,-96 104,-96 104,-84 104,-84 104,-78 110,-72 116,-72 116,-72 264,-72 264,-72 270,-72 276,-78 276,-84 276,-84 276,-96 276,-96 276,-102 270,-108 264,-108"/>
<text text-anchor="start" x="112" y="-86.3" font-family="Times,serif" font-size="14.00"> Thermodynamic Potentials </text>
</a>
</g>
</g>
<!-- MAXWELL_RELATIONS -->
<g id="node5" class="node"><title>MAXWELL_RELATIONS</title>
<g id="a_node5"><a xlink:href="MAXWELL_RELATIONS.html" xlink:title=" Maxwell relations " target="_top">
<path fill="none" stroke="black" d="M151.25,-36C151.25,-36 52.75,-36 52.75,-36 46.75,-36 40.75,-30 40.75,-24 40.75,-24 40.75,-12 40.75,-12 40.75,-6 46.75,-0 52.75,-0 52.75,-0 151.25,-0 151.25,-0 157.25,-0 163.25,-6 163.25,-12 163.25,-12 163.25,-24 163.25,-24 163.25,-30 157.25,-36 151.25,-36"/>
<text text-anchor="start" x="48.5" y="-14.3" font-family="Times,serif" font-size="14.00"> Maxwell relations </text>
</a>
</g>
</g>
<!-- THERMODYNAMIC_POTENTIALS&#45;&gt;MAXWELL_RELATIONS -->
<g id="edge5" class="edge"><title>THERMODYNAMIC_POTENTIALS&#45;&gt;MAXWELL_RELATIONS</title>
<path fill="none" stroke="black" d="M168.247,-71.6966C157.164,-62.8807 143.526,-52.0321 131.51,-42.4742"/>
<polygon fill="black" stroke="black" points="133.507,-39.5905 123.503,-36.1043 129.15,-45.0687 133.507,-39.5905"/>
</g>
<!-- PHASE_TRANSITIONS -->
<g id="node6" class="node"><title>PHASE_TRANSITIONS</title>
<g id="a_node6"><a xlink:href="PHASE_TRANSITIONS.html" xlink:title=" The theory of phase transitions " target="_top">
<path fill="none" stroke="black" d="M362.25,-36C362.25,-36 193.75,-36 193.75,-36 187.75,-36 181.75,-30 181.75,-24 181.75,-24 181.75,-12 181.75,-12 181.75,-6 187.75,-0 193.75,-0 193.75,-0 362.25,-0 362.25,-0 368.25,-0 374.25,-6 374.25,-12 374.25,-12 374.25,-24 374.25,-24 374.25,-30 368.25,-36 362.25,-36"/>
<text text-anchor="start" x="189.5" y="-14.3" font-family="Times,serif" font-size="14.00"> The theory of phase transitions </text>
</a>
</g>
</g>
<!-- THERMODYNAMIC_POTENTIALS&#45;&gt;PHASE_TRANSITIONS -->
<g id="edge6" class="edge"><title>THERMODYNAMIC_POTENTIALS&#45;&gt;PHASE_TRANSITIONS</title>
<path fill="none" stroke="black" d="M211.753,-71.6966C222.836,-62.8807 236.474,-52.0321 248.49,-42.4742"/>
<polygon fill="black" stroke="black" points="250.85,-45.0687 256.497,-36.1043 246.493,-39.5905 250.85,-45.0687"/>
</g>
<!-- CANONICAL_ENSEMBLE -->
<g id="node2" class="node"><title>CANONICAL_ENSEMBLE</title>
<g id="a_node2"><a xlink:href="CANONICAL_ENSEMBLE.html" xlink:title=" The canonical ensemble " target="_top">
<path fill="none" stroke="black" d="M144,-324C144,-324 12,-324 12,-324 6,-324 0,-318 0,-312 0,-312 0,-300 0,-300 0,-294 6,-288 12,-288 12,-288 144,-288 144,-288 150,-288 156,-294 156,-300 156,-300 156,-312 156,-312 156,-318 150,-324 144,-324"/>
<text text-anchor="start" x="8" y="-302.3" font-family="Times,serif" font-size="14.00"> The canonical ensemble </text>
</a>
</g>
</g>
<!-- CANONICAL_ENSEMBLE&#45;&gt;THERMODYNAMIC_POTENTIALS -->
<g id="edge1" class="edge"><title>CANONICAL_ENSEMBLE&#45;&gt;THERMODYNAMIC_POTENTIALS</title>
<path fill="none" stroke="black" d="M60.2669,-287.599C51.7614,-277.998 42.4675,-265.336 38,-252 22.2124,-204.874 32.28,-179.562 67,-144 80.5559,-130.115 98.3447,-119.651 116.166,-111.852"/>
<polygon fill="black" stroke="black" points="117.558,-115.064 125.466,-108.013 114.887,-108.594 117.558,-115.064"/>
</g>
<!-- GRAND_CANONICAL_ENSEMBLE -->
<g id="node4" class="node"><title>GRAND_CANONICAL_ENSEMBLE</title>
<g id="a_node4"><a xlink:href="GRAND_CANONICAL_ENSEMBLE.html" xlink:title=" The grand canonical ensemble " target="_top">
<path fill="none" stroke="black" d="M226.25,-252C226.25,-252 59.75,-252 59.75,-252 53.75,-252 47.75,-246 47.75,-240 47.75,-240 47.75,-228 47.75,-228 47.75,-222 53.75,-216 59.75,-216 59.75,-216 226.25,-216 226.25,-216 232.25,-216 238.25,-222 238.25,-228 238.25,-228 238.25,-240 238.25,-240 238.25,-246 232.25,-252 226.25,-252"/>
<text text-anchor="start" x="55.5" y="-230.3" font-family="Times,serif" font-size="14.00"> The grand canonical ensemble </text>
</a>
</g>
</g>
<!-- CANONICAL_ENSEMBLE&#45;&gt;GRAND_CANONICAL_ENSEMBLE -->
<!-- EXACT_DIFFERENTIALS -->
<g id="node3" class="node"><title>EXACT_DIFFERENTIALS</title>
<g id="a_node3"><a xlink:href="EXACT_DIFFERENTIALS.html" xlink:title=" Theory of exact differentials " target="_top">
<path fill="none" stroke="black" d="M400.25,-324C400.25,-324 245.75,-324 245.75,-324 239.75,-324 233.75,-318 233.75,-312 233.75,-312 233.75,-300 233.75,-300 233.75,-294 239.75,-288 245.75,-288 245.75,-288 400.25,-288 400.25,-288 406.25,-288 412.25,-294 412.25,-300 412.25,-300 412.25,-312 412.25,-312 412.25,-318 406.25,-324 400.25,-324"/>
<text text-anchor="start" x="241.5" y="-302.3" font-family="Times,serif" font-size="14.00"> Theory of exact differentials </text>
</a>
</g>
</g>
<!-- EXACT_DIFFERENTIALS&#45;&gt;THERMODYNAMIC_POTENTIALS -->
<g id="edge2" class="edge"><title>EXACT_DIFFERENTIALS&#45;&gt;THERMODYNAMIC_POTENTIALS</title>
<path fill="none" stroke="black" d="M325.865,-287.802C330.158,-256.087 334.686,-187.65 303,-144 292.997,-130.221 278.489,-119.907 263.183,-112.23"/>
<polygon fill="black" stroke="black" points="264.651,-109.052 254.107,-108.008 261.698,-115.399 264.651,-109.052"/>
</g>
<!-- GRAND_CANONICAL_ENSEMBLE&#45;&gt;THERMODYNAMIC_POTENTIALS -->
<g id="edge3" class="edge"><title>GRAND_CANONICAL_ENSEMBLE&#45;&gt;THERMODYNAMIC_POTENTIALS</title>
<path fill="none" stroke="black" d="M110.473,-215.984C97.2112,-207.18 83.3014,-195.085 76,-180 69.0295,-165.598 67.3955,-157.489 76,-144 84.7482,-130.285 98.0654,-120.064 112.55,-112.465"/>
<polygon fill="black" stroke="black" points="114.197,-115.556 121.688,-108.064 111.16,-109.249 114.197,-115.556"/>
</g>
<!-- ISOTHERMAL_ISOBARIC_ENSEMBLE -->
<g id="node8" class="node"><title>ISOTHERMAL_ISOBARIC_ENSEMBLE</title>
<g id="a_node8"><a xlink:href="ISOTHERMAL_ISOBARIC_ENSEMBLE.html" xlink:title=" The isothermal isobaric ensemble " target="_top">
<path fill="none" stroke="black" d="M282.25,-180C282.25,-180 97.75,-180 97.75,-180 91.75,-180 85.75,-174 85.75,-168 85.75,-168 85.75,-156 85.75,-156 85.75,-150 91.75,-144 97.75,-144 97.75,-144 282.25,-144 282.25,-144 288.25,-144 294.25,-150 294.25,-156 294.25,-156 294.25,-168 294.25,-168 294.25,-174 288.25,-180 282.25,-180"/>
<text text-anchor="start" x="93.5" y="-158.3" font-family="Times,serif" font-size="14.00"> The isothermal isobaric ensemble </text>
</a>
</g>
</g>
<!-- GRAND_CANONICAL_ENSEMBLE&#45;&gt;ISOTHERMAL_ISOBARIC_ENSEMBLE -->
<!-- LAWS_OF_THERMODYNAMICS -->
<g id="node7" class="node"><title>LAWS_OF_THERMODYNAMICS</title>
<g id="a_node7"><a xlink:href="LAWS_OF_THERMODYNAMICS.html" xlink:title=" The first and second laws of thermodynamics " target="_top">
<path fill="none" stroke="black" d="M613,-252C613,-252 363,-252 363,-252 357,-252 351,-246 351,-240 351,-240 351,-228 351,-228 351,-222 357,-216 363,-216 363,-216 613,-216 613,-216 619,-216 625,-222 625,-228 625,-228 625,-240 625,-240 625,-246 619,-252 613,-252"/>
<text text-anchor="start" x="359" y="-230.3" font-family="Times,serif" font-size="14.00"> The first and second laws of thermodynamics </text>
</a>
</g>
</g>
<!-- LAWS_OF_THERMODYNAMICS&#45;&gt;THERMODYNAMIC_POTENTIALS -->
<g id="edge7" class="edge"><title>LAWS_OF_THERMODYNAMICS&#45;&gt;THERMODYNAMIC_POTENTIALS</title>
<path fill="none" stroke="black" d="M462.35,-215.873C432.937,-196.715 382.855,-165.549 337,-144 310.657,-131.62 280.573,-120.308 254.513,-111.342"/>
<polygon fill="black" stroke="black" points="255.332,-107.924 244.738,-108.024 253.082,-114.553 255.332,-107.924"/>
</g>
<!-- ISOTHERMAL_ISOBARIC_ENSEMBLE&#45;&gt;THERMODYNAMIC_POTENTIALS -->
<g id="edge8" class="edge"><title>ISOTHERMAL_ISOBARIC_ENSEMBLE&#45;&gt;THERMODYNAMIC_POTENTIALS</title>
<path fill="none" stroke="black" d="M190,-143.697C190,-135.983 190,-126.712 190,-118.112"/>
<polygon fill="black" stroke="black" points="193.5,-118.104 190,-108.104 186.5,-118.104 193.5,-118.104"/>
</g>
</g>
</svg>
