<?xml version="1.0" encoding="UTF-8" standalone="no"?>
<!DOCTYPE svg PUBLIC "-//W3C//DTD SVG 1.1//EN"
 "http://www.w3.org/Graphics/SVG/1.1/DTD/svg11.dtd">
<!-- Generated by graphviz version 2.28.0 (20110509.1545)
 -->
<!-- Title: _anonymous_0 Pages: 1 -->
<svg width="290pt" height="188pt"
 viewBox="0.00 0.00 290.00 188.00" xmlns="http://www.w3.org/2000/svg" xmlns:xlink="http://www.w3.org/1999/xlink">
<g id="graph1" class="graph" transform="scale(1 1) rotate(0) translate(4 184)">
<title>_anonymous_0</title>
<!-- TRANSIENT_RECURRENT_STATES -->
<g id="node1" class="node"><title>TRANSIENT_RECURRENT_STATES</title>
<a xlink:href="TRANSIENT_RECURRENT_STATES.html" xlink:title="Transient and recurrent states in Markov chains" target="_top">
<polyline fill="none" stroke="blue" stroke-width="2" points="270.25,-108 11.75,-108 "/>
<path fill="none" stroke="blue" stroke-width="2" d="M11.75,-108C5.75,-108 -0.25,-102 -0.25,-96"/>
<polyline fill="none" stroke="blue" stroke-width="2" points="-0.25,-96 -0.25,-84 "/>
<path fill="none" stroke="blue" stroke-width="2" d="M-0.25,-84C-0.25,-78 5.75,-72 11.75,-72"/>
<polyline fill="none" stroke="blue" stroke-width="2" points="11.75,-72 270.25,-72 "/>
<path fill="none" stroke="blue" stroke-width="2" d="M270.25,-72C276.25,-72 282.25,-78 282.25,-84"/>
<polyline fill="none" stroke="blue" stroke-width="2" points="282.25,-84 282.25,-96 "/>
<path fill="none" stroke="blue" stroke-width="2" d="M282.25,-96C282.25,-102 276.25,-108 270.25,-108"/>
<text text-anchor="start" x="8" y="-84.5" font-family="Times,serif" font-size="14.00">Transient and recurrent states in Markov chains</text>
</a>
</g>
<!-- STATIONARY_DIST_MARKOV -->
<g id="node4" class="node"><title>STATIONARY_DIST_MARKOV</title>
<a xlink:href="STATIONARY_DIST_MARKOV.html" xlink:title="Ergodic Markov chains" target="_top">
<polyline fill="none" stroke="black" points="203,-36 79,-36 "/>
<path fill="none" stroke="black" d="M79,-36C73,-36 67,-30 67,-24"/>
<polyline fill="none" stroke="black" points="67,-24 67,-12 "/>
<path fill="none" stroke="black" d="M67,-12C67,-6 73,-0 79,-0"/>
<polyline fill="none" stroke="black" points="79,-0 203,-0 "/>
<path fill="none" stroke="black" d="M203,-0C209,-0 215,-6 215,-12"/>
<polyline fill="none" stroke="black" points="215,-12 215,-24 "/>
<path fill="none" stroke="black" d="M215,-24C215,-30 209,-36 203,-36"/>
<text text-anchor="start" x="75.5" y="-12.5" font-family="Times,serif" font-size="14.00">Ergodic Markov chains</text>
</a>
</g>
<!-- TRANSIENT_RECURRENT_STATES&#45;&gt;STATIONARY_DIST_MARKOV -->
<g id="edge4" class="edge"><title>TRANSIENT_RECURRENT_STATES&#45;&gt;STATIONARY_DIST_MARKOV</title>
<path fill="none" stroke="black" d="M141,-71.6966C141,-63.9827 141,-54.7125 141,-46.1124"/>
<polygon fill="black" stroke="black" points="144.5,-46.1043 141,-36.1043 137.5,-46.1044 144.5,-46.1043"/>
</g>
<!-- CHAPMAN_KOLMOGOROV_RELATION -->
<g id="node2" class="node"><title>CHAPMAN_KOLMOGOROV_RELATION</title>
<a xlink:href="CHAPMAN_KOLMOGOROV_RELATION.html" xlink:title="The Chapman Kolmogorov Relation" target="_top">
<polyline fill="none" stroke="black" points="239.25,-180 42.75,-180 "/>
<path fill="none" stroke="black" d="M42.75,-180C36.75,-180 30.75,-174 30.75,-168"/>
<polyline fill="none" stroke="black" points="30.75,-168 30.75,-156 "/>
<path fill="none" stroke="black" d="M30.75,-156C30.75,-150 36.75,-144 42.75,-144"/>
<polyline fill="none" stroke="black" points="42.75,-144 239.25,-144 "/>
<path fill="none" stroke="black" d="M239.25,-144C245.25,-144 251.25,-150 251.25,-156"/>
<polyline fill="none" stroke="black" points="251.25,-156 251.25,-168 "/>
<path fill="none" stroke="black" d="M251.25,-168C251.25,-174 245.25,-180 239.25,-180"/>
<text text-anchor="start" x="39" y="-156.5" font-family="Times,serif" font-size="14.00">The Chapman Kolmogorov Relation</text>
</a>
</g>
<!-- CHAPMAN_KOLMOGOROV_RELATION&#45;&gt;TRANSIENT_RECURRENT_STATES -->
<g id="edge2" class="edge"><title>CHAPMAN_KOLMOGOROV_RELATION&#45;&gt;TRANSIENT_RECURRENT_STATES</title>
<path fill="none" stroke="black" d="M141,-143.697C141,-135.983 141,-126.712 141,-118.112"/>
<polygon fill="black" stroke="black" points="144.5,-118.104 141,-108.104 137.5,-118.104 144.5,-118.104"/>
</g>
</g>
</svg>
