<?xml version="1.0" encoding="UTF-8" standalone="no"?>
<!DOCTYPE svg PUBLIC "-//W3C//DTD SVG 1.1//EN"
 "http://www.w3.org/Graphics/SVG/1.1/DTD/svg11.dtd">
<!-- Generated by graphviz version 2.26.3 (20100126.1600)
 -->
<!-- Title: _anonymous_0 Pages: 1 -->
<svg width="472pt" height="188pt"
 viewBox="0.00 0.00 472.00 188.00" xmlns="http://www.w3.org/2000/svg" xmlns:xlink="http://www.w3.org/1999/xlink">
<g id="graph1" class="graph" transform="scale(1 1) rotate(0) translate(4 184)">
<title>_anonymous_0</title>
<!-- TRANSIENT_RECURRENT_STATES -->
<g id="node1" class="node"><title>TRANSIENT_RECURRENT_STATES</title>
<a xlink:href="TRANSIENT_RECURRENT_STATES.html" xlink:title=" Transient and recurrent states in Markov chains " target="_top">
<polyline fill="none" stroke="blue" stroke-width="2" points="419,-108 87,-108 "/>
<path fill="none" stroke="blue" stroke-width="2" d="M87,-108C81,-108 75,-102 75,-96"/>
<polyline fill="none" stroke="blue" stroke-width="2" points="75,-96 75,-84 "/>
<path fill="none" stroke="blue" stroke-width="2" d="M75,-84C75,-78 81,-72 87,-72"/>
<polyline fill="none" stroke="blue" stroke-width="2" points="87,-72 419,-72 "/>
<path fill="none" stroke="blue" stroke-width="2" d="M419,-72C425,-72 431,-78 431,-84"/>
<polyline fill="none" stroke="blue" stroke-width="2" points="431,-84 431,-96 "/>
<path fill="none" stroke="blue" stroke-width="2" d="M431,-96C431,-102 425,-108 419,-108"/>
<text text-anchor="start" x="83" y="-87.2333" font-family="Times Roman,serif" font-size="14.00"> Transient and recurrent states in Markov chains </text>
</a>
</g>
<!-- HITTING_PROBABILITIES -->
<g id="node2" class="node"><title>HITTING_PROBABILITIES</title>
<a xlink:href="HITTING_PROBABILITIES.html" xlink:title=" Hitting time and hitting probability " target="_top">
<polyline fill="none" stroke="black" points="254,-36 12,-36 "/>
<path fill="none" stroke="black" d="M12,-36C6,-36 9.4739e-14,-30 7.57912e-14,-24"/>
<polyline fill="none" stroke="black" points="7.57912e-14,-24 3.78956e-14,-12 "/>
<path fill="none" stroke="black" d="M3.78956e-14,-12C1.89478e-14,-6 6,-1.7443e-14 12,-1.71225e-14"/>
<polyline fill="none" stroke="black" points="12,-1.71225e-14 254,-4.1938e-15 "/>
<path fill="none" stroke="black" d="M254,-4.1938e-15C260,-3.87326e-15 266,-6 266,-12"/>
<polyline fill="none" stroke="black" points="266,-12 266,-24 "/>
<path fill="none" stroke="black" d="M266,-24C266,-30 260,-36 254,-36"/>
<text text-anchor="start" x="8" y="-15.2333" font-family="Times Roman,serif" font-size="14.00"> Hitting time and hitting probability </text>
</a>
</g>
<!-- TRANSIENT_RECURRENT_STATES&#45;&gt;HITTING_PROBABILITIES -->
<g id="edge2" class="edge"><title>TRANSIENT_RECURRENT_STATES&#45;&gt;HITTING_PROBABILITIES</title>
<path fill="none" stroke="black" d="M222.719,-71.8314C207.37,-62.6221 188.55,-51.3301 172.118,-41.4706"/>
<polygon fill="black" stroke="black" points="173.647,-38.3066 163.271,-36.1628 170.046,-44.3091 173.647,-38.3066"/>
</g>
<!-- STATIONARY_DIST_MARKOV -->
<g id="node4" class="node"><title>STATIONARY_DIST_MARKOV</title>
<a xlink:href="STATIONARY_DIST_MARKOV.html" xlink:title=" Ergodic Markov chains " target="_top">
<polyline fill="none" stroke="black" points="452,-36 296,-36 "/>
<path fill="none" stroke="black" d="M296,-36C290,-36 284,-30 284,-24"/>
<polyline fill="none" stroke="black" points="284,-24 284,-12 "/>
<path fill="none" stroke="black" d="M284,-12C284,-6 290,-1.72899e-14 296,-1.68162e-14"/>
<polyline fill="none" stroke="black" points="296,-1.68162e-14 452,-4.5001e-15 "/>
<path fill="none" stroke="black" d="M452,-4.5001e-15C458,-4.02641e-15 464,-6 464,-12"/>
<polyline fill="none" stroke="black" points="464,-12 464,-24 "/>
<path fill="none" stroke="black" d="M464,-24C464,-30 458,-36 452,-36"/>
<text text-anchor="start" x="292.5" y="-15.2333" font-family="Times Roman,serif" font-size="14.00"> Ergodic Markov chains </text>
</a>
</g>
<!-- TRANSIENT_RECURRENT_STATES&#45;&gt;STATIONARY_DIST_MARKOV -->
<g id="edge4" class="edge"><title>TRANSIENT_RECURRENT_STATES&#45;&gt;STATIONARY_DIST_MARKOV</title>
<path fill="none" stroke="black" d="M283.533,-71.8314C299.01,-62.6221 317.987,-51.3301 334.556,-41.4706"/>
<polygon fill="black" stroke="black" points="336.672,-44.2843 343.476,-36.1628 333.093,-38.2687 336.672,-44.2843"/>
</g>
<!-- CHAPMAN_KOLMOGOROV_RELATION -->
<g id="node6" class="node"><title>CHAPMAN_KOLMOGOROV_RELATION</title>
<a xlink:href="CHAPMAN_KOLMOGOROV_RELATION.html" xlink:title=" The Chapman Kolmogorov Relation " target="_top">
<polyline fill="none" stroke="black" points="375,-180 131,-180 "/>
<path fill="none" stroke="black" d="M131,-180C125,-180 119,-174 119,-168"/>
<polyline fill="none" stroke="black" points="119,-168 119,-156 "/>
<path fill="none" stroke="black" d="M119,-156C119,-150 125,-144 131,-144"/>
<polyline fill="none" stroke="black" points="131,-144 375,-144 "/>
<path fill="none" stroke="black" d="M375,-144C381,-144 387,-150 387,-156"/>
<polyline fill="none" stroke="black" points="387,-156 387,-168 "/>
<path fill="none" stroke="black" d="M387,-168C387,-174 381,-180 375,-180"/>
<text text-anchor="start" x="127.5" y="-159.233" font-family="Times Roman,serif" font-size="14.00"> The Chapman Kolmogorov Relation </text>
</a>
</g>
<!-- CHAPMAN_KOLMOGOROV_RELATION&#45;&gt;TRANSIENT_RECURRENT_STATES -->
<g id="edge6" class="edge"><title>CHAPMAN_KOLMOGOROV_RELATION&#45;&gt;TRANSIENT_RECURRENT_STATES</title>
<path fill="none" stroke="black" d="M253,-143.831C253,-136.131 253,-126.974 253,-118.417"/>
<polygon fill="black" stroke="black" points="256.5,-118.413 253,-108.413 249.5,-118.413 256.5,-118.413"/>
</g>
</g>
</svg>
