<?xml version="1.0" encoding="UTF-8" standalone="no"?>
<!DOCTYPE svg PUBLIC "-//W3C//DTD SVG 1.1//EN"
 "http://www.w3.org/Graphics/SVG/1.1/DTD/svg11.dtd">
<!-- Generated by graphviz version 2.36.0 (20140111.2315)
 -->
<!-- Title: %3 Pages: 1 -->
<svg width="402pt" height="188pt"
 viewBox="0.00 0.00 402.00 188.00" xmlns="http://www.w3.org/2000/svg" xmlns:xlink="http://www.w3.org/1999/xlink">
<g id="graph0" class="graph" transform="scale(1 1) rotate(0) translate(4 184)">
<title>%3</title>
<!-- TRANSITION_MATRIX_OF_MARKOV_CHAIN -->
<g id="node1" class="node"><title>TRANSITION_MATRIX_OF_MARKOV_CHAIN</title>
<g id="a_node1"><a xlink:href="TRANSITION_MATRIX_OF_MARKOV_CHAIN.html" xlink:title=" Markovian transition matrix " target="_top">
<path fill="none" stroke="blue" stroke-width="2" d="M256.25,-108C256.25,-108 101.75,-108 101.75,-108 95.75,-108 89.75,-102 89.75,-96 89.75,-96 89.75,-84 89.75,-84 89.75,-78 95.75,-72 101.75,-72 101.75,-72 256.25,-72 256.25,-72 262.25,-72 268.25,-78 268.25,-84 268.25,-84 268.25,-96 268.25,-96 268.25,-102 262.25,-108 256.25,-108"/>
<text text-anchor="start" x="97.5" y="-86.3" font-family="Times,serif" font-size="14.00"> Markovian transition matrix </text>
</a>
</g>
</g>
<!-- STATIONARY_DIST_MARKOV -->
<g id="node3" class="node"><title>STATIONARY_DIST_MARKOV</title>
<g id="a_node3"><a xlink:href="STATIONARY_DIST_MARKOV.html" xlink:title=" Ergodic Markov chains " target="_top">
<path fill="none" stroke="black" d="M140,-36C140,-36 12,-36 12,-36 6,-36 0,-30 0,-24 0,-24 0,-12 0,-12 0,-6 6,-0 12,-0 12,-0 140,-0 140,-0 146,-0 152,-6 152,-12 152,-12 152,-24 152,-24 152,-30 146,-36 140,-36"/>
<text text-anchor="start" x="8" y="-14.3" font-family="Times,serif" font-size="14.00"> Ergodic Markov chains </text>
</a>
</g>
</g>
<!-- TRANSITION_MATRIX_OF_MARKOV_CHAIN&#45;&gt;STATIONARY_DIST_MARKOV -->
<g id="edge2" class="edge"><title>TRANSITION_MATRIX_OF_MARKOV_CHAIN&#45;&gt;STATIONARY_DIST_MARKOV</title>
<path fill="none" stroke="black" d="M153.803,-71.8761C140.586,-62.8931 124.208,-51.7625 109.893,-42.0341"/>
<polygon fill="black" stroke="black" points="111.532,-38.9159 101.293,-36.1898 107.597,-44.7055 111.532,-38.9159"/>
</g>
<!-- CHAPMAN_KOLMOGOROV_RELATION -->
<g id="node4" class="node"><title>CHAPMAN_KOLMOGOROV_RELATION</title>
<g id="a_node4"><a xlink:href="CHAPMAN_KOLMOGOROV_RELATION.html" xlink:title=" The Chapman Kolmogorov Relation " target="_top">
<path fill="none" stroke="black" d="M381.5,-36C381.5,-36 182.5,-36 182.5,-36 176.5,-36 170.5,-30 170.5,-24 170.5,-24 170.5,-12 170.5,-12 170.5,-6 176.5,-0 182.5,-0 182.5,-0 381.5,-0 381.5,-0 387.5,-0 393.5,-6 393.5,-12 393.5,-12 393.5,-24 393.5,-24 393.5,-30 387.5,-36 381.5,-36"/>
<text text-anchor="start" x="178" y="-14.3" font-family="Times,serif" font-size="14.00"> The Chapman Kolmogorov Relation </text>
</a>
</g>
</g>
<!-- TRANSITION_MATRIX_OF_MARKOV_CHAIN&#45;&gt;CHAPMAN_KOLMOGOROV_RELATION -->
<g id="edge3" class="edge"><title>TRANSITION_MATRIX_OF_MARKOV_CHAIN&#45;&gt;CHAPMAN_KOLMOGOROV_RELATION</title>
<path fill="none" stroke="black" d="M204.197,-71.8761C217.414,-62.8931 233.792,-51.7625 248.107,-42.0341"/>
<polygon fill="black" stroke="black" points="250.403,-44.7055 256.707,-36.1898 246.468,-38.9159 250.403,-44.7055"/>
</g>
<!-- MATRIX_INTRO -->
<g id="node2" class="node"><title>MATRIX_INTRO</title>
<g id="a_node2"><a xlink:href="MATRIX_INTRO.html" xlink:title=" Introduction to matrices " target="_top">
<path fill="none" stroke="black" d="M161.25,-180C161.25,-180 30.75,-180 30.75,-180 24.75,-180 18.75,-174 18.75,-168 18.75,-168 18.75,-156 18.75,-156 18.75,-150 24.75,-144 30.75,-144 30.75,-144 161.25,-144 161.25,-144 167.25,-144 173.25,-150 173.25,-156 173.25,-156 173.25,-168 173.25,-168 173.25,-174 167.25,-180 161.25,-180"/>
<text text-anchor="start" x="26.5" y="-158.3" font-family="Times,serif" font-size="14.00"> Introduction to matrices </text>
</a>
</g>
</g>
<!-- MATRIX_INTRO&#45;&gt;TRANSITION_MATRIX_OF_MARKOV_CHAIN -->
<g id="edge1" class="edge"><title>MATRIX_INTRO&#45;&gt;TRANSITION_MATRIX_OF_MARKOV_CHAIN</title>
<path fill="none" stroke="black" d="M116.517,-143.697C126.869,-134.965 139.586,-124.24 150.839,-114.75"/>
<polygon fill="black" stroke="black" points="153.331,-117.227 158.719,-108.104 148.818,-111.876 153.331,-117.227"/>
</g>
<!-- MARKOV_PROPERTY -->
<g id="node5" class="node"><title>MARKOV_PROPERTY</title>
<g id="a_node5"><a xlink:href="MARKOV_PROPERTY.html" xlink:title=" The Markov Property " target="_top">
<path fill="none" stroke="black" d="M322.25,-180C322.25,-180 203.75,-180 203.75,-180 197.75,-180 191.75,-174 191.75,-168 191.75,-168 191.75,-156 191.75,-156 191.75,-150 197.75,-144 203.75,-144 203.75,-144 322.25,-144 322.25,-144 328.25,-144 334.25,-150 334.25,-156 334.25,-156 334.25,-168 334.25,-168 334.25,-174 328.25,-180 322.25,-180"/>
<text text-anchor="start" x="199.5" y="-158.3" font-family="Times,serif" font-size="14.00"> The Markov Property </text>
</a>
</g>
</g>
<!-- MARKOV_PROPERTY&#45;&gt;TRANSITION_MATRIX_OF_MARKOV_CHAIN -->
<g id="edge4" class="edge"><title>MARKOV_PROPERTY&#45;&gt;TRANSITION_MATRIX_OF_MARKOV_CHAIN</title>
<path fill="none" stroke="black" d="M242.236,-143.697C231.759,-134.965 218.889,-124.24 207.5,-114.75"/>
<polygon fill="black" stroke="black" points="209.448,-111.817 199.525,-108.104 204.967,-117.195 209.448,-111.817"/>
</g>
</g>
</svg>
