<?xml version="1.0" encoding="UTF-8" standalone="no"?>
<!DOCTYPE svg PUBLIC "-//W3C//DTD SVG 1.1//EN"
 "http://www.w3.org/Graphics/SVG/1.1/DTD/svg11.dtd">
<!-- Generated by graphviz version 2.28.0 (20110509.1545)
 -->
<!-- Title: _anonymous_0 Pages: 1 -->
<svg width="395pt" height="188pt"
 viewBox="0.00 0.00 395.00 188.00" xmlns="http://www.w3.org/2000/svg" xmlns:xlink="http://www.w3.org/1999/xlink">
<g id="graph1" class="graph" transform="scale(1 1) rotate(0) translate(4 184)">
<title>_anonymous_0</title>
<!-- TRANSITION_MATRIX_OF_MARKOV_CHAIN -->
<g id="node1" class="node"><title>TRANSITION_MATRIX_OF_MARKOV_CHAIN</title>
<a xlink:href="TRANSITION_MATRIX_OF_MARKOV_CHAIN.html" xlink:title="Markovian transition matrix" target="_top">
<polyline fill="none" stroke="blue" stroke-width="2" points="286,-108 136,-108 "/>
<path fill="none" stroke="blue" stroke-width="2" d="M136,-108C130,-108 124,-102 124,-96"/>
<polyline fill="none" stroke="blue" stroke-width="2" points="124,-96 124,-84 "/>
<path fill="none" stroke="blue" stroke-width="2" d="M124,-84C124,-78 130,-72 136,-72"/>
<polyline fill="none" stroke="blue" stroke-width="2" points="136,-72 286,-72 "/>
<path fill="none" stroke="blue" stroke-width="2" d="M286,-72C292,-72 298,-78 298,-84"/>
<polyline fill="none" stroke="blue" stroke-width="2" points="298,-84 298,-96 "/>
<path fill="none" stroke="blue" stroke-width="2" d="M298,-96C298,-102 292,-108 286,-108"/>
<text text-anchor="start" x="132.5" y="-84.5" font-family="Times,serif" font-size="14.00">Markovian transition matrix</text>
</a>
</g>
<!-- CHAPMAN_KOLMOGOROV_RELATION -->
<g id="node2" class="node"><title>CHAPMAN_KOLMOGOROV_RELATION</title>
<a xlink:href="CHAPMAN_KOLMOGOROV_RELATION.html" xlink:title="The Chapman Kolmogorov Relation" target="_top">
<polyline fill="none" stroke="black" points="208.25,-36 11.75,-36 "/>
<path fill="none" stroke="black" d="M11.75,-36C5.75,-36 -0.25,-30 -0.25,-24"/>
<polyline fill="none" stroke="black" points="-0.25,-24 -0.25,-12 "/>
<path fill="none" stroke="black" d="M-0.25,-12C-0.25,-6 5.75,-0 11.75,-0"/>
<polyline fill="none" stroke="black" points="11.75,-0 208.25,-0 "/>
<path fill="none" stroke="black" d="M208.25,-0C214.25,-0 220.25,-6 220.25,-12"/>
<polyline fill="none" stroke="black" points="220.25,-12 220.25,-24 "/>
<path fill="none" stroke="black" d="M220.25,-24C220.25,-30 214.25,-36 208.25,-36"/>
<text text-anchor="start" x="8" y="-12.5" font-family="Times,serif" font-size="14.00">The Chapman Kolmogorov Relation</text>
</a>
</g>
<!-- TRANSITION_MATRIX_OF_MARKOV_CHAIN&#45;&gt;CHAPMAN_KOLMOGOROV_RELATION -->
<g id="edge2" class="edge"><title>TRANSITION_MATRIX_OF_MARKOV_CHAIN&#45;&gt;CHAPMAN_KOLMOGOROV_RELATION</title>
<path fill="none" stroke="black" d="M186.293,-71.8761C173.331,-62.8931 157.272,-51.7625 143.235,-42.0341"/>
<polygon fill="black" stroke="black" points="145.015,-39.0095 134.802,-36.1898 141.028,-44.7628 145.015,-39.0095"/>
</g>
<!-- STATIONARY_DIST_MARKOV -->
<g id="node8" class="node"><title>STATIONARY_DIST_MARKOV</title>
<a xlink:href="STATIONARY_DIST_MARKOV.html" xlink:title="Ergodic Markov chains" target="_top">
<polyline fill="none" stroke="black" points="375,-36 251,-36 "/>
<path fill="none" stroke="black" d="M251,-36C245,-36 239,-30 239,-24"/>
<polyline fill="none" stroke="black" points="239,-24 239,-12 "/>
<path fill="none" stroke="black" d="M239,-12C239,-6 245,-0 251,-0"/>
<polyline fill="none" stroke="black" points="251,-0 375,-0 "/>
<path fill="none" stroke="black" d="M375,-0C381,-0 387,-6 387,-12"/>
<polyline fill="none" stroke="black" points="387,-12 387,-24 "/>
<path fill="none" stroke="black" d="M387,-24C387,-30 381,-36 375,-36"/>
<text text-anchor="start" x="247.5" y="-12.5" font-family="Times,serif" font-size="14.00">Ergodic Markov chains</text>
</a>
</g>
<!-- TRANSITION_MATRIX_OF_MARKOV_CHAIN&#45;&gt;STATIONARY_DIST_MARKOV -->
<g id="edge8" class="edge"><title>TRANSITION_MATRIX_OF_MARKOV_CHAIN&#45;&gt;STATIONARY_DIST_MARKOV</title>
<path fill="none" stroke="black" d="M235.952,-71.8761C249.042,-62.8931 265.26,-51.7625 279.436,-42.0341"/>
<polygon fill="black" stroke="black" points="281.687,-44.734 287.952,-36.1898 277.726,-38.9624 281.687,-44.734"/>
</g>
<!-- MARKOV_PROPERTY -->
<g id="node4" class="node"><title>MARKOV_PROPERTY</title>
<a xlink:href="MARKOV_PROPERTY.html" xlink:title="The Markov Property" target="_top">
<polyline fill="none" stroke="black" points="187,-180 73,-180 "/>
<path fill="none" stroke="black" d="M73,-180C67,-180 61,-174 61,-168"/>
<polyline fill="none" stroke="black" points="61,-168 61,-156 "/>
<path fill="none" stroke="black" d="M61,-156C61,-150 67,-144 73,-144"/>
<polyline fill="none" stroke="black" points="73,-144 187,-144 "/>
<path fill="none" stroke="black" d="M187,-144C193,-144 199,-150 199,-156"/>
<polyline fill="none" stroke="black" points="199,-156 199,-168 "/>
<path fill="none" stroke="black" d="M199,-168C199,-174 193,-180 187,-180"/>
<text text-anchor="start" x="69.5" y="-156.5" font-family="Times,serif" font-size="14.00">The Markov Property</text>
</a>
</g>
<!-- MARKOV_PROPERTY&#45;&gt;TRANSITION_MATRIX_OF_MARKOV_CHAIN -->
<g id="edge4" class="edge"><title>MARKOV_PROPERTY&#45;&gt;TRANSITION_MATRIX_OF_MARKOV_CHAIN</title>
<path fill="none" stroke="black" d="M150.022,-143.697C160.126,-134.965 172.536,-124.24 183.518,-114.75"/>
<polygon fill="black" stroke="black" points="185.93,-117.291 191.208,-108.104 181.353,-111.995 185.93,-117.291"/>
</g>
<!-- MATRIX_INTRO -->
<g id="node6" class="node"><title>MATRIX_INTRO</title>
<a xlink:href="MATRIX_INTRO.html" xlink:title="Introduction to matrices" target="_top">
<polyline fill="none" stroke="black" points="356.25,-180 229.75,-180 "/>
<path fill="none" stroke="black" d="M229.75,-180C223.75,-180 217.75,-174 217.75,-168"/>
<polyline fill="none" stroke="black" points="217.75,-168 217.75,-156 "/>
<path fill="none" stroke="black" d="M217.75,-156C217.75,-150 223.75,-144 229.75,-144"/>
<polyline fill="none" stroke="black" points="229.75,-144 356.25,-144 "/>
<path fill="none" stroke="black" d="M356.25,-144C362.25,-144 368.25,-150 368.25,-156"/>
<polyline fill="none" stroke="black" points="368.25,-156 368.25,-168 "/>
<path fill="none" stroke="black" d="M368.25,-168C368.25,-174 362.25,-180 356.25,-180"/>
<text text-anchor="start" x="226" y="-156.5" font-family="Times,serif" font-size="14.00">Introduction to matrices</text>
</a>
</g>
<!-- MATRIX_INTRO&#45;&gt;TRANSITION_MATRIX_OF_MARKOV_CHAIN -->
<g id="edge6" class="edge"><title>MATRIX_INTRO&#45;&gt;TRANSITION_MATRIX_OF_MARKOV_CHAIN</title>
<path fill="none" stroke="black" d="M272.73,-143.697C262.502,-134.965 249.939,-124.24 238.822,-114.75"/>
<polygon fill="black" stroke="black" points="240.915,-111.935 231.037,-108.104 236.37,-117.259 240.915,-111.935"/>
</g>
</g>
</svg>
