<?xml version="1.0" encoding="UTF-8" standalone="no"?>
<!DOCTYPE svg PUBLIC "-//W3C//DTD SVG 1.1//EN"
 "http://www.w3.org/Graphics/SVG/1.1/DTD/svg11.dtd">
<!-- Generated by graphviz version 2.26.3 (20100126.1600)
 -->
<!-- Title: _anonymous_0 Pages: 1 -->
<svg width="474pt" height="188pt"
 viewBox="0.00 0.00 474.00 188.00" xmlns="http://www.w3.org/2000/svg" xmlns:xlink="http://www.w3.org/1999/xlink">
<g id="graph1" class="graph" transform="scale(1 1) rotate(0) translate(4 184)">
<title>_anonymous_0</title>
<!-- TRANSITION_MATRIX_OF_MARKOV_CHAIN -->
<g id="node1" class="node"><title>TRANSITION_MATRIX_OF_MARKOV_CHAIN</title>
<a xlink:href="TRANSITION_MATRIX_OF_MARKOV_CHAIN.html" xlink:title=" Markovian transition matrix " target="_top">
<polyline fill="none" stroke="blue" stroke-width="2" points="308,-108 114,-108 "/>
<path fill="none" stroke="blue" stroke-width="2" d="M114,-108C108,-108 102,-102 102,-96"/>
<polyline fill="none" stroke="blue" stroke-width="2" points="102,-96 102,-84 "/>
<path fill="none" stroke="blue" stroke-width="2" d="M102,-84C102,-78 108,-72 114,-72"/>
<polyline fill="none" stroke="blue" stroke-width="2" points="114,-72 308,-72 "/>
<path fill="none" stroke="blue" stroke-width="2" d="M308,-72C314,-72 320,-78 320,-84"/>
<polyline fill="none" stroke="blue" stroke-width="2" points="320,-84 320,-96 "/>
<path fill="none" stroke="blue" stroke-width="2" d="M320,-96C320,-102 314,-108 308,-108"/>
<text text-anchor="start" x="110" y="-87.2333" font-family="Times Roman,serif" font-size="14.00"> Markovian transition matrix </text>
</a>
</g>
<!-- STATIONARY_DIST_MARKOV -->
<g id="node2" class="node"><title>STATIONARY_DIST_MARKOV</title>
<a xlink:href="STATIONARY_DIST_MARKOV.html" xlink:title=" Ergodic Markov chains " target="_top">
<polyline fill="none" stroke="black" points="168,-36 12,-36 "/>
<path fill="none" stroke="black" d="M12,-36C6,-36 7.10543e-14,-30 5.68434e-14,-24"/>
<polyline fill="none" stroke="black" points="5.68434e-14,-24 2.84217e-14,-12 "/>
<path fill="none" stroke="black" d="M2.84217e-14,-12C1.42109e-14,-6 6,-1.72899e-14 12,-1.68162e-14"/>
<polyline fill="none" stroke="black" points="12,-1.68162e-14 168,-4.5001e-15 "/>
<path fill="none" stroke="black" d="M168,-4.5001e-15C174,-4.02641e-15 180,-6 180,-12"/>
<polyline fill="none" stroke="black" points="180,-12 180,-24 "/>
<path fill="none" stroke="black" d="M180,-24C180,-30 174,-36 168,-36"/>
<text text-anchor="start" x="8.5" y="-15.2333" font-family="Times Roman,serif" font-size="14.00"> Ergodic Markov chains </text>
</a>
</g>
<!-- TRANSITION_MATRIX_OF_MARKOV_CHAIN&#45;&gt;STATIONARY_DIST_MARKOV -->
<g id="edge2" class="edge"><title>TRANSITION_MATRIX_OF_MARKOV_CHAIN&#45;&gt;STATIONARY_DIST_MARKOV</title>
<path fill="none" stroke="black" d="M180.467,-71.8314C164.99,-62.6221 146.013,-51.3301 129.444,-41.4706"/>
<polygon fill="black" stroke="black" points="130.907,-38.2687 120.524,-36.1628 127.328,-44.2843 130.907,-38.2687"/>
</g>
<!-- CHAPMAN_KOLMOGOROV_RELATION -->
<g id="node4" class="node"><title>CHAPMAN_KOLMOGOROV_RELATION</title>
<a xlink:href="CHAPMAN_KOLMOGOROV_RELATION.html" xlink:title=" The Chapman Kolmogorov Relation " target="_top">
<polyline fill="none" stroke="black" points="454,-36 210,-36 "/>
<path fill="none" stroke="black" d="M210,-36C204,-36 198,-30 198,-24"/>
<polyline fill="none" stroke="black" points="198,-24 198,-12 "/>
<path fill="none" stroke="black" d="M198,-12C198,-6 204,-1.74454e-14 210,-1.71273e-14"/>
<polyline fill="none" stroke="black" points="210,-1.71273e-14 454,-4.18902e-15 "/>
<path fill="none" stroke="black" d="M454,-4.18902e-15C460,-3.87087e-15 466,-6 466,-12"/>
<polyline fill="none" stroke="black" points="466,-12 466,-24 "/>
<path fill="none" stroke="black" d="M466,-24C466,-30 460,-36 454,-36"/>
<text text-anchor="start" x="206.5" y="-15.2333" font-family="Times Roman,serif" font-size="14.00"> The Chapman Kolmogorov Relation </text>
</a>
</g>
<!-- TRANSITION_MATRIX_OF_MARKOV_CHAIN&#45;&gt;CHAPMAN_KOLMOGOROV_RELATION -->
<g id="edge4" class="edge"><title>TRANSITION_MATRIX_OF_MARKOV_CHAIN&#45;&gt;CHAPMAN_KOLMOGOROV_RELATION</title>
<path fill="none" stroke="black" d="M241.533,-71.8314C257.01,-62.6221 275.987,-51.3301 292.556,-41.4706"/>
<polygon fill="black" stroke="black" points="294.672,-44.2843 301.476,-36.1628 291.093,-38.2687 294.672,-44.2843"/>
</g>
<!-- MATRIX_INTRO -->
<g id="node6" class="node"><title>MATRIX_INTRO</title>
<a xlink:href="MATRIX_INTRO.html" xlink:title=" Introduction to matrices " target="_top">
<polyline fill="none" stroke="black" points="195,-180 27,-180 "/>
<path fill="none" stroke="black" d="M27,-180C21,-180 15,-174 15,-168"/>
<polyline fill="none" stroke="black" points="15,-168 15,-156 "/>
<path fill="none" stroke="black" d="M15,-156C15,-150 21,-144 27,-144"/>
<polyline fill="none" stroke="black" points="27,-144 195,-144 "/>
<path fill="none" stroke="black" d="M195,-144C201,-144 207,-150 207,-156"/>
<polyline fill="none" stroke="black" points="207,-156 207,-168 "/>
<path fill="none" stroke="black" d="M207,-168C207,-174 201,-180 195,-180"/>
<text text-anchor="start" x="23" y="-159.233" font-family="Times Roman,serif" font-size="14.00"> Introduction to matrices </text>
</a>
</g>
<!-- MATRIX_INTRO&#45;&gt;TRANSITION_MATRIX_OF_MARKOV_CHAIN -->
<g id="edge6" class="edge"><title>MATRIX_INTRO&#45;&gt;TRANSITION_MATRIX_OF_MARKOV_CHAIN</title>
<path fill="none" stroke="black" d="M136.234,-143.831C148.788,-134.793 164.128,-123.748 177.639,-114.02"/>
<polygon fill="black" stroke="black" points="179.704,-116.846 185.774,-108.163 175.613,-111.166 179.704,-116.846"/>
</g>
<!-- MARKOV_PROPERTY -->
<g id="node8" class="node"><title>MARKOV_PROPERTY</title>
<a xlink:href="MARKOV_PROPERTY.html" xlink:title=" The Markov Property " target="_top">
<polyline fill="none" stroke="black" points="385,-180 237,-180 "/>
<path fill="none" stroke="black" d="M237,-180C231,-180 225,-174 225,-168"/>
<polyline fill="none" stroke="black" points="225,-168 225,-156 "/>
<path fill="none" stroke="black" d="M225,-156C225,-150 231,-144 237,-144"/>
<polyline fill="none" stroke="black" points="237,-144 385,-144 "/>
<path fill="none" stroke="black" d="M385,-144C391,-144 397,-150 397,-156"/>
<polyline fill="none" stroke="black" points="397,-156 397,-168 "/>
<path fill="none" stroke="black" d="M397,-168C397,-174 391,-180 385,-180"/>
<text text-anchor="start" x="233.5" y="-159.233" font-family="Times Roman,serif" font-size="14.00"> The Markov Property </text>
</a>
</g>
<!-- MARKOV_PROPERTY&#45;&gt;TRANSITION_MATRIX_OF_MARKOV_CHAIN -->
<g id="edge8" class="edge"><title>MARKOV_PROPERTY&#45;&gt;TRANSITION_MATRIX_OF_MARKOV_CHAIN</title>
<path fill="none" stroke="black" d="M285.766,-143.831C273.212,-134.793 257.872,-123.748 244.361,-114.02"/>
<polygon fill="black" stroke="black" points="246.387,-111.166 236.226,-108.163 242.296,-116.846 246.387,-111.166"/>
</g>
</g>
</svg>
