<?xml version="1.0" encoding="UTF-8" standalone="no"?>
<!DOCTYPE svg PUBLIC "-//W3C//DTD SVG 1.1//EN"
 "http://www.w3.org/Graphics/SVG/1.1/DTD/svg11.dtd">
<!-- Generated by graphviz version 2.26.3 (20100126.1600)
 -->
<!-- Title: _anonymous_0 Pages: 1 -->
<svg width="454pt" height="188pt"
 viewBox="0.00 0.00 454.00 188.00" xmlns="http://www.w3.org/2000/svg" xmlns:xlink="http://www.w3.org/1999/xlink">
<g id="graph1" class="graph" transform="scale(1 1) rotate(0) translate(4 184)">
<title>_anonymous_0</title>
<!-- TRANSITION_MATRIX_OF_MARKOV_CHAIN -->
<g id="node1" class="node"><title>TRANSITION_MATRIX_OF_MARKOV_CHAIN</title>
<a xlink:href="TRANSITION_MATRIX_OF_MARKOV_CHAIN.html" xlink:title="Markovian transition matrix" target="_top">
<polyline fill="none" stroke="blue" stroke-width="2" points="338,-108 152,-108 "/>
<path fill="none" stroke="blue" stroke-width="2" d="M152,-108C146,-108 140,-102 140,-96"/>
<polyline fill="none" stroke="blue" stroke-width="2" points="140,-96 140,-84 "/>
<path fill="none" stroke="blue" stroke-width="2" d="M140,-84C140,-78 146,-72 152,-72"/>
<polyline fill="none" stroke="blue" stroke-width="2" points="152,-72 338,-72 "/>
<path fill="none" stroke="blue" stroke-width="2" d="M338,-72C344,-72 350,-78 350,-84"/>
<polyline fill="none" stroke="blue" stroke-width="2" points="350,-84 350,-96 "/>
<path fill="none" stroke="blue" stroke-width="2" d="M350,-96C350,-102 344,-108 338,-108"/>
<text text-anchor="start" x="148.5" y="-87.2333" font-family="Times Roman,serif" font-size="14.00">Markovian transition matrix</text>
</a>
</g>
<!-- CHAPMAN_KOLMOGOROV_RELATION -->
<g id="node2" class="node"><title>CHAPMAN_KOLMOGOROV_RELATION</title>
<a xlink:href="CHAPMAN_KOLMOGOROV_RELATION.html" xlink:title="The Chapman Kolmogorov Relation" target="_top">
<polyline fill="none" stroke="black" points="246,-36 12,-36 "/>
<path fill="none" stroke="black" d="M12,-36C6,-36 9.4739e-14,-30 7.57912e-14,-24"/>
<polyline fill="none" stroke="black" points="7.57912e-14,-24 3.78956e-14,-12 "/>
<path fill="none" stroke="black" d="M3.78956e-14,-12C1.89478e-14,-6 6,-1.74331e-14 12,-1.71026e-14"/>
<polyline fill="none" stroke="black" points="12,-1.71026e-14 246,-4.21368e-15 "/>
<path fill="none" stroke="black" d="M246,-4.21368e-15C252,-3.8832e-15 258,-6 258,-12"/>
<polyline fill="none" stroke="black" points="258,-12 258,-24 "/>
<path fill="none" stroke="black" d="M258,-24C258,-30 252,-36 246,-36"/>
<text text-anchor="start" x="8" y="-15.2333" font-family="Times Roman,serif" font-size="14.00">The Chapman Kolmogorov Relation</text>
</a>
</g>
<!-- TRANSITION_MATRIX_OF_MARKOV_CHAIN&#45;&gt;CHAPMAN_KOLMOGOROV_RELATION -->
<g id="edge2" class="edge"><title>TRANSITION_MATRIX_OF_MARKOV_CHAIN&#45;&gt;CHAPMAN_KOLMOGOROV_RELATION</title>
<path fill="none" stroke="black" d="M215.728,-71.8314C200.891,-62.6221 182.698,-51.3301 166.814,-41.4706"/>
<polygon fill="black" stroke="black" points="168.605,-38.4628 158.262,-36.1628 164.913,-44.4102 168.605,-38.4628"/>
</g>
<!-- STATIONARY_DIST_MARKOV -->
<g id="node6" class="node"><title>STATIONARY_DIST_MARKOV</title>
<a xlink:href="STATIONARY_DIST_MARKOV.html" xlink:title="Ergodic Markov chains" target="_top">
<polyline fill="none" stroke="black" points="434,-36 288,-36 "/>
<path fill="none" stroke="black" d="M288,-36C282,-36 276,-30 276,-24"/>
<polyline fill="none" stroke="black" points="276,-24 276,-12 "/>
<path fill="none" stroke="black" d="M276,-12C276,-6 282,-1.7262e-14 288,-1.67604e-14"/>
<polyline fill="none" stroke="black" points="288,-1.67604e-14 434,-4.55583e-15 "/>
<path fill="none" stroke="black" d="M434,-4.55583e-15C440,-4.05427e-15 446,-6 446,-12"/>
<polyline fill="none" stroke="black" points="446,-12 446,-24 "/>
<path fill="none" stroke="black" d="M446,-24C446,-30 440,-36 434,-36"/>
<text text-anchor="start" x="284" y="-15.2333" font-family="Times Roman,serif" font-size="14.00">Ergodic Markov chains</text>
</a>
</g>
<!-- TRANSITION_MATRIX_OF_MARKOV_CHAIN&#45;&gt;STATIONARY_DIST_MARKOV -->
<g id="edge6" class="edge"><title>TRANSITION_MATRIX_OF_MARKOV_CHAIN&#45;&gt;STATIONARY_DIST_MARKOV</title>
<path fill="none" stroke="black" d="M274.272,-71.8314C289.109,-62.6221 307.302,-51.3301 323.186,-41.4706"/>
<polygon fill="black" stroke="black" points="325.087,-44.4102 331.738,-36.1628 321.395,-38.4628 325.087,-44.4102"/>
</g>
<!-- MARKOV_PROPERTY -->
<g id="node4" class="node"><title>MARKOV_PROPERTY</title>
<a xlink:href="MARKOV_PROPERTY.html" xlink:title="The Markov Property" target="_top">
<polyline fill="none" stroke="black" points="219,-180 81,-180 "/>
<path fill="none" stroke="black" d="M81,-180C75,-180 69,-174 69,-168"/>
<polyline fill="none" stroke="black" points="69,-168 69,-156 "/>
<path fill="none" stroke="black" d="M69,-156C69,-150 75,-144 81,-144"/>
<polyline fill="none" stroke="black" points="81,-144 219,-144 "/>
<path fill="none" stroke="black" d="M219,-144C225,-144 231,-150 231,-156"/>
<polyline fill="none" stroke="black" points="231,-156 231,-168 "/>
<path fill="none" stroke="black" d="M231,-168C231,-174 225,-180 219,-180"/>
<text text-anchor="start" x="77" y="-159.233" font-family="Times Roman,serif" font-size="14.00">The Markov Property</text>
</a>
</g>
<!-- MARKOV_PROPERTY&#45;&gt;TRANSITION_MATRIX_OF_MARKOV_CHAIN -->
<g id="edge4" class="edge"><title>MARKOV_PROPERTY&#45;&gt;TRANSITION_MATRIX_OF_MARKOV_CHAIN</title>
<path fill="none" stroke="black" d="M173.973,-143.831C185.786,-134.878 200.197,-123.956 212.943,-114.295"/>
<polygon fill="black" stroke="black" points="215.18,-116.992 221.035,-108.163 210.951,-111.414 215.18,-116.992"/>
</g>
<!-- MATRIX_INTRO -->
<g id="node8" class="node"><title>MATRIX_INTRO</title>
<a xlink:href="MATRIX_INTRO.html" xlink:title="Introduction to matrices" target="_top">
<polyline fill="none" stroke="black" points="421,-180 261,-180 "/>
<path fill="none" stroke="black" d="M261,-180C255,-180 249,-174 249,-168"/>
<polyline fill="none" stroke="black" points="249,-168 249,-156 "/>
<path fill="none" stroke="black" d="M249,-156C249,-150 255,-144 261,-144"/>
<polyline fill="none" stroke="black" points="261,-144 421,-144 "/>
<path fill="none" stroke="black" d="M421,-144C427,-144 433,-150 433,-156"/>
<polyline fill="none" stroke="black" points="433,-156 433,-168 "/>
<path fill="none" stroke="black" d="M433,-168C433,-174 427,-180 421,-180"/>
<text text-anchor="start" x="257.5" y="-159.233" font-family="Times Roman,serif" font-size="14.00">Introduction to matrices</text>
</a>
</g>
<!-- MATRIX_INTRO&#45;&gt;TRANSITION_MATRIX_OF_MARKOV_CHAIN -->
<g id="edge8" class="edge"><title>MATRIX_INTRO&#45;&gt;TRANSITION_MATRIX_OF_MARKOV_CHAIN</title>
<path fill="none" stroke="black" d="M316.775,-143.831C304.837,-134.878 290.274,-123.956 277.394,-114.295"/>
<polygon fill="black" stroke="black" points="279.317,-111.363 269.217,-108.163 275.117,-116.963 279.317,-111.363"/>
</g>
</g>
</svg>
