<?xml version="1.0" encoding="UTF-8" standalone="no"?>
<!DOCTYPE svg PUBLIC "-//W3C//DTD SVG 1.1//EN"
 "http://www.w3.org/Graphics/SVG/1.1/DTD/svg11.dtd">
<!-- Generated by graphviz version 2.26.3 (20100126.1600)
 -->
<!-- Title: _anonymous_0 Pages: 1 -->
<svg width="454pt" height="188pt"
 viewBox="0.00 0.00 454.00 188.00" xmlns="http://www.w3.org/2000/svg" xmlns:xlink="http://www.w3.org/1999/xlink">
<g id="graph1" class="graph" transform="scale(1 1) rotate(0) translate(4 184)">
<title>_anonymous_0</title>
<!-- TRANSITION_MATRIX_OF_MARKOV_CHAIN -->
<g id="node1" class="node"><title>TRANSITION_MATRIX_OF_MARKOV_CHAIN</title>
<a xlink:href="TRANSITION_MATRIX_OF_MARKOV_CHAIN.html" xlink:title="Markovian transition matrix" target="_top">
<polyline fill="none" stroke="blue" stroke-width="2" points="294,-108 108,-108 "/>
<path fill="none" stroke="blue" stroke-width="2" d="M108,-108C102,-108 96,-102 96,-96"/>
<polyline fill="none" stroke="blue" stroke-width="2" points="96,-96 96,-84 "/>
<path fill="none" stroke="blue" stroke-width="2" d="M96,-84C96,-78 102,-72 108,-72"/>
<polyline fill="none" stroke="blue" stroke-width="2" points="108,-72 294,-72 "/>
<path fill="none" stroke="blue" stroke-width="2" d="M294,-72C300,-72 306,-78 306,-84"/>
<polyline fill="none" stroke="blue" stroke-width="2" points="306,-84 306,-96 "/>
<path fill="none" stroke="blue" stroke-width="2" d="M306,-96C306,-102 300,-108 294,-108"/>
<text text-anchor="start" x="104.5" y="-87.2333" font-family="Times Roman,serif" font-size="14.00">Markovian transition matrix</text>
</a>
</g>
<!-- STATIONARY_DIST_MARKOV -->
<g id="node2" class="node"><title>STATIONARY_DIST_MARKOV</title>
<a xlink:href="STATIONARY_DIST_MARKOV.html" xlink:title="Ergodic Markov chains" target="_top">
<polyline fill="none" stroke="black" points="158,-36 12,-36 "/>
<path fill="none" stroke="black" d="M12,-36C6,-36 7.10543e-14,-30 5.68434e-14,-24"/>
<polyline fill="none" stroke="black" points="5.68434e-14,-24 2.84217e-14,-12 "/>
<path fill="none" stroke="black" d="M2.84217e-14,-12C1.42109e-14,-6 6,-1.7262e-14 12,-1.67604e-14"/>
<polyline fill="none" stroke="black" points="12,-1.67604e-14 158,-4.55583e-15 "/>
<path fill="none" stroke="black" d="M158,-4.55583e-15C164,-4.05427e-15 170,-6 170,-12"/>
<polyline fill="none" stroke="black" points="170,-12 170,-24 "/>
<path fill="none" stroke="black" d="M170,-24C170,-30 164,-36 158,-36"/>
<text text-anchor="start" x="8" y="-15.2333" font-family="Times Roman,serif" font-size="14.00">Ergodic Markov chains</text>
</a>
</g>
<!-- TRANSITION_MATRIX_OF_MARKOV_CHAIN&#45;&gt;STATIONARY_DIST_MARKOV -->
<g id="edge2" class="edge"><title>TRANSITION_MATRIX_OF_MARKOV_CHAIN&#45;&gt;STATIONARY_DIST_MARKOV</title>
<path fill="none" stroke="black" d="M171.728,-71.8314C156.891,-62.6221 138.698,-51.3301 122.814,-41.4706"/>
<polygon fill="black" stroke="black" points="124.605,-38.4628 114.262,-36.1628 120.913,-44.4102 124.605,-38.4628"/>
</g>
<!-- CHAPMAN_KOLMOGOROV_RELATION -->
<g id="node4" class="node"><title>CHAPMAN_KOLMOGOROV_RELATION</title>
<a xlink:href="CHAPMAN_KOLMOGOROV_RELATION.html" xlink:title="The Chapman Kolmogorov Relation" target="_top">
<polyline fill="none" stroke="black" points="434,-36 200,-36 "/>
<path fill="none" stroke="black" d="M200,-36C194,-36 188,-30 188,-24"/>
<polyline fill="none" stroke="black" points="188,-24 188,-12 "/>
<path fill="none" stroke="black" d="M188,-12C188,-6 194,-1.74331e-14 200,-1.71026e-14"/>
<polyline fill="none" stroke="black" points="200,-1.71026e-14 434,-4.21368e-15 "/>
<path fill="none" stroke="black" d="M434,-4.21368e-15C440,-3.8832e-15 446,-6 446,-12"/>
<polyline fill="none" stroke="black" points="446,-12 446,-24 "/>
<path fill="none" stroke="black" d="M446,-24C446,-30 440,-36 434,-36"/>
<text text-anchor="start" x="196" y="-15.2333" font-family="Times Roman,serif" font-size="14.00">The Chapman Kolmogorov Relation</text>
</a>
</g>
<!-- TRANSITION_MATRIX_OF_MARKOV_CHAIN&#45;&gt;CHAPMAN_KOLMOGOROV_RELATION -->
<g id="edge4" class="edge"><title>TRANSITION_MATRIX_OF_MARKOV_CHAIN&#45;&gt;CHAPMAN_KOLMOGOROV_RELATION</title>
<path fill="none" stroke="black" d="M230.272,-71.8314C245.109,-62.6221 263.302,-51.3301 279.186,-41.4706"/>
<polygon fill="black" stroke="black" points="281.087,-44.4102 287.738,-36.1628 277.395,-38.4628 281.087,-44.4102"/>
</g>
<!-- MARKOV_PROPERTY -->
<g id="node6" class="node"><title>MARKOV_PROPERTY</title>
<a xlink:href="MARKOV_PROPERTY.html" xlink:title="The Markov Property" target="_top">
<polyline fill="none" stroke="black" points="175,-180 37,-180 "/>
<path fill="none" stroke="black" d="M37,-180C31,-180 25,-174 25,-168"/>
<polyline fill="none" stroke="black" points="25,-168 25,-156 "/>
<path fill="none" stroke="black" d="M25,-156C25,-150 31,-144 37,-144"/>
<polyline fill="none" stroke="black" points="37,-144 175,-144 "/>
<path fill="none" stroke="black" d="M175,-144C181,-144 187,-150 187,-156"/>
<polyline fill="none" stroke="black" points="187,-156 187,-168 "/>
<path fill="none" stroke="black" d="M187,-168C187,-174 181,-180 175,-180"/>
<text text-anchor="start" x="33" y="-159.233" font-family="Times Roman,serif" font-size="14.00">The Markov Property</text>
</a>
</g>
<!-- MARKOV_PROPERTY&#45;&gt;TRANSITION_MATRIX_OF_MARKOV_CHAIN -->
<g id="edge6" class="edge"><title>MARKOV_PROPERTY&#45;&gt;TRANSITION_MATRIX_OF_MARKOV_CHAIN</title>
<path fill="none" stroke="black" d="M129.973,-143.831C141.786,-134.878 156.197,-123.956 168.943,-114.295"/>
<polygon fill="black" stroke="black" points="171.18,-116.992 177.035,-108.163 166.951,-111.414 171.18,-116.992"/>
</g>
<!-- MATRIX_INTRO -->
<g id="node8" class="node"><title>MATRIX_INTRO</title>
<a xlink:href="MATRIX_INTRO.html" xlink:title="Introduction to matrices" target="_top">
<polyline fill="none" stroke="black" points="377,-180 217,-180 "/>
<path fill="none" stroke="black" d="M217,-180C211,-180 205,-174 205,-168"/>
<polyline fill="none" stroke="black" points="205,-168 205,-156 "/>
<path fill="none" stroke="black" d="M205,-156C205,-150 211,-144 217,-144"/>
<polyline fill="none" stroke="black" points="217,-144 377,-144 "/>
<path fill="none" stroke="black" d="M377,-144C383,-144 389,-150 389,-156"/>
<polyline fill="none" stroke="black" points="389,-156 389,-168 "/>
<path fill="none" stroke="black" d="M389,-168C389,-174 383,-180 377,-180"/>
<text text-anchor="start" x="213.5" y="-159.233" font-family="Times Roman,serif" font-size="14.00">Introduction to matrices</text>
</a>
</g>
<!-- MATRIX_INTRO&#45;&gt;TRANSITION_MATRIX_OF_MARKOV_CHAIN -->
<g id="edge8" class="edge"><title>MATRIX_INTRO&#45;&gt;TRANSITION_MATRIX_OF_MARKOV_CHAIN</title>
<path fill="none" stroke="black" d="M272.775,-143.831C260.837,-134.878 246.274,-123.956 233.394,-114.295"/>
<polygon fill="black" stroke="black" points="235.317,-111.363 225.217,-108.163 231.117,-116.963 235.317,-111.363"/>
</g>
</g>
</svg>
