<?xml version="1.0" encoding="UTF-8" standalone="no"?>
<!DOCTYPE svg PUBLIC "-//W3C//DTD SVG 1.1//EN"
 "http://www.w3.org/Graphics/SVG/1.1/DTD/svg11.dtd">
<!-- Generated by graphviz version 2.28.0 (20110509.1545)
 -->
<!-- Title: _anonymous_0 Pages: 1 -->
<svg width="387pt" height="188pt"
 viewBox="0.00 0.00 387.00 188.00" xmlns="http://www.w3.org/2000/svg" xmlns:xlink="http://www.w3.org/1999/xlink">
<g id="graph1" class="graph" transform="scale(1 1) rotate(0) translate(4 184)">
<title>_anonymous_0</title>
<!-- TRANSIENT_RECURRENT_STATES -->
<g id="node1" class="node"><title>TRANSIENT_RECURRENT_STATES</title>
<a xlink:href="TRANSIENT_RECURRENT_STATES.html" xlink:title="Transient and recurrent states in Markov chains" target="_top">
<polyline fill="none" stroke="blue" stroke-width="2" points="334.25,-108 75.75,-108 "/>
<path fill="none" stroke="blue" stroke-width="2" d="M75.75,-108C69.75,-108 63.75,-102 63.75,-96"/>
<polyline fill="none" stroke="blue" stroke-width="2" points="63.75,-96 63.75,-84 "/>
<path fill="none" stroke="blue" stroke-width="2" d="M63.75,-84C63.75,-78 69.75,-72 75.75,-72"/>
<polyline fill="none" stroke="blue" stroke-width="2" points="75.75,-72 334.25,-72 "/>
<path fill="none" stroke="blue" stroke-width="2" d="M334.25,-72C340.25,-72 346.25,-78 346.25,-84"/>
<polyline fill="none" stroke="blue" stroke-width="2" points="346.25,-84 346.25,-96 "/>
<path fill="none" stroke="blue" stroke-width="2" d="M346.25,-96C346.25,-102 340.25,-108 334.25,-108"/>
<text text-anchor="start" x="72" y="-84.5" font-family="Times,serif" font-size="14.00">Transient and recurrent states in Markov chains</text>
</a>
</g>
<!-- HITTING_PROBABILITIES -->
<g id="node4" class="node"><title>HITTING_PROBABILITIES</title>
<a xlink:href="HITTING_PROBABILITIES.html" xlink:title="Hitting time and hitting probability" target="_top">
<polyline fill="none" stroke="black" points="200.25,-36 11.75,-36 "/>
<path fill="none" stroke="black" d="M11.75,-36C5.75,-36 -0.25,-30 -0.25,-24"/>
<polyline fill="none" stroke="black" points="-0.25,-24 -0.25,-12 "/>
<path fill="none" stroke="black" d="M-0.25,-12C-0.25,-6 5.75,-0 11.75,-0"/>
<polyline fill="none" stroke="black" points="11.75,-0 200.25,-0 "/>
<path fill="none" stroke="black" d="M200.25,-0C206.25,-0 212.25,-6 212.25,-12"/>
<polyline fill="none" stroke="black" points="212.25,-12 212.25,-24 "/>
<path fill="none" stroke="black" d="M212.25,-24C212.25,-30 206.25,-36 200.25,-36"/>
<text text-anchor="start" x="8" y="-12.5" font-family="Times,serif" font-size="14.00">Hitting time and hitting probability</text>
</a>
</g>
<!-- TRANSIENT_RECURRENT_STATES&#45;&gt;HITTING_PROBABILITIES -->
<g id="edge4" class="edge"><title>TRANSIENT_RECURRENT_STATES&#45;&gt;HITTING_PROBABILITIES</title>
<path fill="none" stroke="black" d="M180.782,-71.8761C168.077,-62.8931 152.336,-51.7625 138.577,-42.0341"/>
<polygon fill="black" stroke="black" points="140.497,-39.1053 130.311,-36.1898 136.456,-44.8209 140.497,-39.1053"/>
</g>
<!-- STATIONARY_DIST_MARKOV -->
<g id="node6" class="node"><title>STATIONARY_DIST_MARKOV</title>
<a xlink:href="STATIONARY_DIST_MARKOV.html" xlink:title="Ergodic Markov chains" target="_top">
<polyline fill="none" stroke="black" points="367,-36 243,-36 "/>
<path fill="none" stroke="black" d="M243,-36C237,-36 231,-30 231,-24"/>
<polyline fill="none" stroke="black" points="231,-24 231,-12 "/>
<path fill="none" stroke="black" d="M231,-12C231,-6 237,-0 243,-0"/>
<polyline fill="none" stroke="black" points="243,-0 367,-0 "/>
<path fill="none" stroke="black" d="M367,-0C373,-0 379,-6 379,-12"/>
<polyline fill="none" stroke="black" points="379,-12 379,-24 "/>
<path fill="none" stroke="black" d="M379,-24C379,-30 373,-36 367,-36"/>
<text text-anchor="start" x="239.5" y="-12.5" font-family="Times,serif" font-size="14.00">Ergodic Markov chains</text>
</a>
</g>
<!-- TRANSIENT_RECURRENT_STATES&#45;&gt;STATIONARY_DIST_MARKOV -->
<g id="edge6" class="edge"><title>TRANSIENT_RECURRENT_STATES&#45;&gt;STATIONARY_DIST_MARKOV</title>
<path fill="none" stroke="black" d="M229.463,-71.8761C242.296,-62.8931 258.196,-51.7625 272.094,-42.0341"/>
<polygon fill="black" stroke="black" points="274.258,-44.7917 280.443,-36.1898 270.244,-39.0571 274.258,-44.7917"/>
</g>
<!-- CHAPMAN_KOLMOGOROV_RELATION -->
<g id="node2" class="node"><title>CHAPMAN_KOLMOGOROV_RELATION</title>
<a xlink:href="CHAPMAN_KOLMOGOROV_RELATION.html" xlink:title="The Chapman Kolmogorov Relation" target="_top">
<polyline fill="none" stroke="black" points="303.25,-180 106.75,-180 "/>
<path fill="none" stroke="black" d="M106.75,-180C100.75,-180 94.75,-174 94.75,-168"/>
<polyline fill="none" stroke="black" points="94.75,-168 94.75,-156 "/>
<path fill="none" stroke="black" d="M94.75,-156C94.75,-150 100.75,-144 106.75,-144"/>
<polyline fill="none" stroke="black" points="106.75,-144 303.25,-144 "/>
<path fill="none" stroke="black" d="M303.25,-144C309.25,-144 315.25,-150 315.25,-156"/>
<polyline fill="none" stroke="black" points="315.25,-156 315.25,-168 "/>
<path fill="none" stroke="black" d="M315.25,-168C315.25,-174 309.25,-180 303.25,-180"/>
<text text-anchor="start" x="103" y="-156.5" font-family="Times,serif" font-size="14.00">The Chapman Kolmogorov Relation</text>
</a>
</g>
<!-- CHAPMAN_KOLMOGOROV_RELATION&#45;&gt;TRANSIENT_RECURRENT_STATES -->
<g id="edge2" class="edge"><title>CHAPMAN_KOLMOGOROV_RELATION&#45;&gt;TRANSIENT_RECURRENT_STATES</title>
<path fill="none" stroke="black" d="M205,-143.697C205,-135.983 205,-126.712 205,-118.112"/>
<polygon fill="black" stroke="black" points="208.5,-118.104 205,-108.104 201.5,-118.104 208.5,-118.104"/>
</g>
</g>
</svg>
