<?xml version="1.0" encoding="UTF-8" standalone="no"?>
<!DOCTYPE svg PUBLIC "-//W3C//DTD SVG 1.1//EN"
 "http://www.w3.org/Graphics/SVG/1.1/DTD/svg11.dtd">
<!-- Generated by graphviz version 2.26.3 (20100126.1600)
 -->
<!-- Title: _anonymous_0 Pages: 1 -->
<svg width="412pt" height="116pt"
 viewBox="0.00 0.00 412.00 116.00" xmlns="http://www.w3.org/2000/svg" xmlns:xlink="http://www.w3.org/1999/xlink">
<g id="graph1" class="graph" transform="scale(1 1) rotate(0) translate(4 112)">
<title>_anonymous_0</title>
<!-- UNIFORM_RANDOM_VARIABLE -->
<g id="node1" class="node"><title>UNIFORM_RANDOM_VARIABLE</title>
<a xlink:href="UNIFORM_RANDOM_VARIABLE.html" xlink:title="Uniform Random Variable" target="_top">
<polyline fill="none" stroke="blue" stroke-width="2" points="312,-36 144,-36 "/>
<path fill="none" stroke="blue" stroke-width="2" d="M144,-36C138,-36 132,-30 132,-24"/>
<polyline fill="none" stroke="blue" stroke-width="2" points="132,-24 132,-12 "/>
<path fill="none" stroke="blue" stroke-width="2" d="M132,-12C132,-6 138,-1.73195e-14 144,-1.68754e-14"/>
<polyline fill="none" stroke="blue" stroke-width="2" points="144,-1.68754e-14 312,-4.44089e-15 "/>
<path fill="none" stroke="blue" stroke-width="2" d="M312,-4.44089e-15C318,-3.9968e-15 324,-6 324,-12"/>
<polyline fill="none" stroke="blue" stroke-width="2" points="324,-12 324,-24 "/>
<path fill="none" stroke="blue" stroke-width="2" d="M324,-24C324,-30 318,-36 312,-36"/>
<text text-anchor="start" x="140" y="-15.2333" font-family="Times Roman,serif" font-size="14.00">Uniform Random Variable</text>
</a>
</g>
<!-- FUNDAMENTAL_THEOREM_OF_CALCULUS -->
<g id="node2" class="node"><title>FUNDAMENTAL_THEOREM_OF_CALCULUS</title>
<a xlink:href="FUNDAMENTAL_THEOREM_OF_CALCULUS.html" xlink:title="Fundamental theorem of calculus" target="_top">
<polyline fill="none" stroke="black" points="234,-108 12,-108 "/>
<path fill="none" stroke="black" d="M12,-108C6,-108 8.28967e-14,-102 6.63173e-14,-96"/>
<polyline fill="none" stroke="black" points="6.63173e-14,-96 3.31587e-14,-84 "/>
<path fill="none" stroke="black" d="M3.31587e-14,-84C1.65793e-14,-78 6,-72 12,-72"/>
<polyline fill="none" stroke="black" points="12,-72 234,-72 "/>
<path fill="none" stroke="black" d="M234,-72C240,-72 246,-78 246,-84"/>
<polyline fill="none" stroke="black" points="246,-84 246,-96 "/>
<path fill="none" stroke="black" d="M246,-96C246,-102 240,-108 234,-108"/>
<text text-anchor="start" x="8.5" y="-87.2333" font-family="Times Roman,serif" font-size="14.00">Fundamental theorem of calculus</text>
</a>
</g>
<!-- FUNDAMENTAL_THEOREM_OF_CALCULUS&#45;&gt;UNIFORM_RANDOM_VARIABLE -->
<g id="edge2" class="edge"><title>FUNDAMENTAL_THEOREM_OF_CALCULUS&#45;&gt;UNIFORM_RANDOM_VARIABLE</title>
<path fill="none" stroke="black" d="M149.496,-71.8314C162.677,-62.7927 178.785,-51.7476 192.971,-42.0198"/>
<polygon fill="black" stroke="black" points="195.245,-44.7047 201.513,-36.1628 191.286,-38.9316 195.245,-44.7047"/>
</g>
<!-- RANDOM_VARIABLES -->
<g id="node4" class="node"><title>RANDOM_VARIABLES</title>
<a xlink:href="RANDOM_VARIABLES.html" xlink:title="Random variables" target="_top">
<polyline fill="none" stroke="black" points="392,-108 276,-108 "/>
<path fill="none" stroke="black" d="M276,-108C270,-108 264,-102 264,-96"/>
<polyline fill="none" stroke="black" points="264,-96 264,-84 "/>
<path fill="none" stroke="black" d="M264,-84C264,-78 270,-72 276,-72"/>
<polyline fill="none" stroke="black" points="276,-72 392,-72 "/>
<path fill="none" stroke="black" d="M392,-72C398,-72 404,-78 404,-84"/>
<polyline fill="none" stroke="black" points="404,-84 404,-96 "/>
<path fill="none" stroke="black" d="M404,-96C404,-102 398,-108 392,-108"/>
<text text-anchor="start" x="272.5" y="-87.2333" font-family="Times Roman,serif" font-size="14.00">Random variables</text>
</a>
</g>
<!-- RANDOM_VARIABLES&#45;&gt;UNIFORM_RANDOM_VARIABLE -->
<g id="edge4" class="edge"><title>RANDOM_VARIABLES&#45;&gt;UNIFORM_RANDOM_VARIABLE</title>
<path fill="none" stroke="black" d="M307.252,-71.8314C293.945,-62.7927 277.684,-51.7476 263.363,-42.0198"/>
<polygon fill="black" stroke="black" points="264.979,-38.8864 254.74,-36.1628 261.045,-44.677 264.979,-38.8864"/>
</g>
</g>
</svg>
