<?xml version="1.0" encoding="UTF-8" standalone="no"?>
<!DOCTYPE svg PUBLIC "-//W3C//DTD SVG 1.1//EN"
 "http://www.w3.org/Graphics/SVG/1.1/DTD/svg11.dtd">
<!-- Generated by graphviz version 2.28.0 (20110509.1545)
 -->
<!-- Title: _anonymous_0 Pages: 1 -->
<svg width="347pt" height="116pt"
 viewBox="0.00 0.00 347.00 116.00" xmlns="http://www.w3.org/2000/svg" xmlns:xlink="http://www.w3.org/1999/xlink">
<g id="graph1" class="graph" transform="scale(1 1) rotate(0) translate(4 112)">
<title>_anonymous_0</title>
<!-- UNIFORM_RANDOM_VARIABLE -->
<g id="node1" class="node"><title>UNIFORM_RANDOM_VARIABLE</title>
<a xlink:href="UNIFORM_RANDOM_VARIABLE.html" xlink:title="Uniform Random Variable" target="_top">
<polyline fill="none" stroke="blue" stroke-width="2" points="261,-36 119,-36 "/>
<path fill="none" stroke="blue" stroke-width="2" d="M119,-36C113,-36 107,-30 107,-24"/>
<polyline fill="none" stroke="blue" stroke-width="2" points="107,-24 107,-12 "/>
<path fill="none" stroke="blue" stroke-width="2" d="M107,-12C107,-6 113,-0 119,-0"/>
<polyline fill="none" stroke="blue" stroke-width="2" points="119,-0 261,-0 "/>
<path fill="none" stroke="blue" stroke-width="2" d="M261,-0C267,-0 273,-6 273,-12"/>
<polyline fill="none" stroke="blue" stroke-width="2" points="273,-12 273,-24 "/>
<path fill="none" stroke="blue" stroke-width="2" d="M273,-24C273,-30 267,-36 261,-36"/>
<text text-anchor="start" x="115.5" y="-12.5" font-family="Times,serif" font-size="14.00">Uniform Random Variable</text>
</a>
</g>
<!-- FUNDAMENTAL_THEOREM_OF_CALCULUS -->
<g id="node2" class="node"><title>FUNDAMENTAL_THEOREM_OF_CALCULUS</title>
<a xlink:href="FUNDAMENTAL_THEOREM_OF_CALCULUS.html" xlink:title="Fundamental theorem of calculus" target="_top">
<polyline fill="none" stroke="black" points="190.25,-108 11.75,-108 "/>
<path fill="none" stroke="black" d="M11.75,-108C5.75,-108 -0.25,-102 -0.25,-96"/>
<polyline fill="none" stroke="black" points="-0.25,-96 -0.25,-84 "/>
<path fill="none" stroke="black" d="M-0.25,-84C-0.25,-78 5.75,-72 11.75,-72"/>
<polyline fill="none" stroke="black" points="11.75,-72 190.25,-72 "/>
<path fill="none" stroke="black" d="M190.25,-72C196.25,-72 202.25,-78 202.25,-84"/>
<polyline fill="none" stroke="black" points="202.25,-84 202.25,-96 "/>
<path fill="none" stroke="black" d="M202.25,-96C202.25,-102 196.25,-108 190.25,-108"/>
<text text-anchor="start" x="8" y="-84.5" font-family="Times,serif" font-size="14.00">Fundamental theorem of calculus</text>
</a>
</g>
<!-- FUNDAMENTAL_THEOREM_OF_CALCULUS&#45;&gt;UNIFORM_RANDOM_VARIABLE -->
<g id="edge2" class="edge"><title>FUNDAMENTAL_THEOREM_OF_CALCULUS&#45;&gt;UNIFORM_RANDOM_VARIABLE</title>
<path fill="none" stroke="black" d="M123,-71.6966C134.209,-62.8807 148.002,-52.0321 160.154,-42.4742"/>
<polygon fill="black" stroke="black" points="162.557,-45.0375 168.253,-36.1043 158.229,-39.5354 162.557,-45.0375"/>
</g>
<!-- RANDOM_VARIABLES -->
<g id="node4" class="node"><title>RANDOM_VARIABLES</title>
<a xlink:href="RANDOM_VARIABLES.html" xlink:title="Random variables" target="_top">
<polyline fill="none" stroke="black" points="327,-108 233,-108 "/>
<path fill="none" stroke="black" d="M233,-108C227,-108 221,-102 221,-96"/>
<polyline fill="none" stroke="black" points="221,-96 221,-84 "/>
<path fill="none" stroke="black" d="M221,-84C221,-78 227,-72 233,-72"/>
<polyline fill="none" stroke="black" points="233,-72 327,-72 "/>
<path fill="none" stroke="black" d="M327,-72C333,-72 339,-78 339,-84"/>
<polyline fill="none" stroke="black" points="339,-84 339,-96 "/>
<path fill="none" stroke="black" d="M339,-96C339,-102 333,-108 327,-108"/>
<text text-anchor="start" x="229.5" y="-84.5" font-family="Times,serif" font-size="14.00">Random variables</text>
</a>
</g>
<!-- RANDOM_VARIABLES&#45;&gt;UNIFORM_RANDOM_VARIABLE -->
<g id="edge4" class="edge"><title>RANDOM_VARIABLES&#45;&gt;UNIFORM_RANDOM_VARIABLE</title>
<path fill="none" stroke="black" d="M257.753,-71.6966C246.418,-62.8807 232.47,-52.0321 220.181,-42.4742"/>
<polygon fill="black" stroke="black" points="222.034,-39.481 211.991,-36.1043 217.736,-45.0065 222.034,-39.481"/>
</g>
</g>
</svg>
