<?xml version="1.0" encoding="UTF-8" standalone="no"?>
<!DOCTYPE svg PUBLIC "-//W3C//DTD SVG 1.1//EN"
 "http://www.w3.org/Graphics/SVG/1.1/DTD/svg11.dtd">
<!-- Generated by graphviz version 2.26.3 (20100126.1600)
 -->
<!-- Title: _anonymous_0 Pages: 1 -->
<svg width="412pt" height="116pt"
 viewBox="0.00 0.00 412.00 116.00" xmlns="http://www.w3.org/2000/svg" xmlns:xlink="http://www.w3.org/1999/xlink">
<g id="graph1" class="graph" transform="scale(1 1) rotate(0) translate(4 112)">
<title>_anonymous_0</title>
<!-- UNIFORM_RANDOM_VARIABLE -->
<g id="node1" class="node"><title>UNIFORM_RANDOM_VARIABLE</title>
<a xlink:href="UNIFORM_RANDOM_VARIABLE.html" xlink:title="Uniform Random Variable" target="_top">
<polyline fill="none" stroke="blue" stroke-width="2" points="259,-36 91,-36 "/>
<path fill="none" stroke="blue" stroke-width="2" d="M91,-36C85,-36 79,-30 79,-24"/>
<polyline fill="none" stroke="blue" stroke-width="2" points="79,-24 79,-12 "/>
<path fill="none" stroke="blue" stroke-width="2" d="M79,-12C79,-6 85,-1.73195e-14 91,-1.68754e-14"/>
<polyline fill="none" stroke="blue" stroke-width="2" points="91,-1.68754e-14 259,-4.44089e-15 "/>
<path fill="none" stroke="blue" stroke-width="2" d="M259,-4.44089e-15C265,-3.9968e-15 271,-6 271,-12"/>
<polyline fill="none" stroke="blue" stroke-width="2" points="271,-12 271,-24 "/>
<path fill="none" stroke="blue" stroke-width="2" d="M271,-24C271,-30 265,-36 259,-36"/>
<text text-anchor="start" x="87" y="-15.2333" font-family="Times Roman,serif" font-size="14.00">Uniform Random Variable</text>
</a>
</g>
<!-- RANDOM_VARIABLES -->
<g id="node2" class="node"><title>RANDOM_VARIABLES</title>
<a xlink:href="RANDOM_VARIABLES.html" xlink:title="Random variables" target="_top">
<polyline fill="none" stroke="black" points="128,-108 12,-108 "/>
<path fill="none" stroke="black" d="M12,-108C6,-108 5.92119e-14,-102 4.73695e-14,-96"/>
<polyline fill="none" stroke="black" points="4.73695e-14,-96 2.36848e-14,-84 "/>
<path fill="none" stroke="black" d="M2.36848e-14,-84C1.18424e-14,-78 6,-72 12,-72"/>
<polyline fill="none" stroke="black" points="12,-72 128,-72 "/>
<path fill="none" stroke="black" d="M128,-72C134,-72 140,-78 140,-84"/>
<polyline fill="none" stroke="black" points="140,-84 140,-96 "/>
<path fill="none" stroke="black" d="M140,-96C140,-102 134,-108 128,-108"/>
<text text-anchor="start" x="8.5" y="-87.2333" font-family="Times Roman,serif" font-size="14.00">Random variables</text>
</a>
</g>
<!-- RANDOM_VARIABLES&#45;&gt;UNIFORM_RANDOM_VARIABLE -->
<g id="edge2" class="edge"><title>RANDOM_VARIABLES&#45;&gt;UNIFORM_RANDOM_VARIABLE</title>
<path fill="none" stroke="black" d="M96.4959,-71.8314C109.677,-62.7927 125.785,-51.7476 139.971,-42.0198"/>
<polygon fill="black" stroke="black" points="142.245,-44.7047 148.513,-36.1628 138.286,-38.9316 142.245,-44.7047"/>
</g>
<!-- FUNDAMENTAL_THEOREM_OF_CALCULUS -->
<g id="node4" class="node"><title>FUNDAMENTAL_THEOREM_OF_CALCULUS</title>
<a xlink:href="FUNDAMENTAL_THEOREM_OF_CALCULUS.html" xlink:title="Fundamental theorem of calculus" target="_top">
<polyline fill="none" stroke="black" points="392,-108 170,-108 "/>
<path fill="none" stroke="black" d="M170,-108C164,-108 158,-102 158,-96"/>
<polyline fill="none" stroke="black" points="158,-96 158,-84 "/>
<path fill="none" stroke="black" d="M158,-84C158,-78 164,-72 170,-72"/>
<polyline fill="none" stroke="black" points="170,-72 392,-72 "/>
<path fill="none" stroke="black" d="M392,-72C398,-72 404,-78 404,-84"/>
<polyline fill="none" stroke="black" points="404,-84 404,-96 "/>
<path fill="none" stroke="black" d="M404,-96C404,-102 398,-108 392,-108"/>
<text text-anchor="start" x="166.5" y="-87.2333" font-family="Times Roman,serif" font-size="14.00">Fundamental theorem of calculus</text>
</a>
</g>
<!-- FUNDAMENTAL_THEOREM_OF_CALCULUS&#45;&gt;UNIFORM_RANDOM_VARIABLE -->
<g id="edge4" class="edge"><title>FUNDAMENTAL_THEOREM_OF_CALCULUS&#45;&gt;UNIFORM_RANDOM_VARIABLE</title>
<path fill="none" stroke="black" d="M254.252,-71.8314C240.945,-62.7927 224.684,-51.7476 210.363,-42.0198"/>
<polygon fill="black" stroke="black" points="211.979,-38.8864 201.74,-36.1628 208.045,-44.677 211.979,-38.8864"/>
</g>
</g>
</svg>
