<?xml version="1.0" encoding="UTF-8" standalone="no"?>
<!DOCTYPE svg PUBLIC "-//W3C//DTD SVG 1.1//EN"
 "http://www.w3.org/Graphics/SVG/1.1/DTD/svg11.dtd">
<!-- Generated by graphviz version 2.36.0 (20140111.2315)
 -->
<!-- Title: %3 Pages: 1 -->
<svg width="355pt" height="116pt"
 viewBox="0.00 0.00 355.00 116.00" xmlns="http://www.w3.org/2000/svg" xmlns:xlink="http://www.w3.org/1999/xlink">
<g id="graph0" class="graph" transform="scale(1 1) rotate(0) translate(4 112)">
<title>%3</title>
<!-- UNIFORM_RANDOM_VARIABLE -->
<g id="node1" class="node"><title>UNIFORM_RANDOM_VARIABLE</title>
<g id="a_node1"><a xlink:href="UNIFORM_RANDOM_VARIABLE.html" xlink:title=" Uniform Random Variable " target="_top">
<path fill="none" stroke="blue" stroke-width="2" d="M268,-36C268,-36 120,-36 120,-36 114,-36 108,-30 108,-24 108,-24 108,-12 108,-12 108,-6 114,-0 120,-0 120,-0 268,-0 268,-0 274,-0 280,-6 280,-12 280,-12 280,-24 280,-24 280,-30 274,-36 268,-36"/>
<text text-anchor="start" x="116" y="-14.3" font-family="Times,serif" font-size="14.00"> Uniform Random Variable </text>
</a>
</g>
</g>
<!-- FUNDAMENTAL_THEOREM_OF_CALCULUS -->
<g id="node2" class="node"><title>FUNDAMENTAL_THEOREM_OF_CALCULUS</title>
<g id="a_node2"><a xlink:href="FUNDAMENTAL_THEOREM_OF_CALCULUS.html" xlink:title=" Fundamental theorem of calculus " target="_top">
<path fill="none" stroke="black" d="M194.25,-108C194.25,-108 11.75,-108 11.75,-108 5.75,-108 -0.25,-102 -0.25,-96 -0.25,-96 -0.25,-84 -0.25,-84 -0.25,-78 5.75,-72 11.75,-72 11.75,-72 194.25,-72 194.25,-72 200.25,-72 206.25,-78 206.25,-84 206.25,-84 206.25,-96 206.25,-96 206.25,-102 200.25,-108 194.25,-108"/>
<text text-anchor="start" x="7.5" y="-86.3" font-family="Times,serif" font-size="14.00"> Fundamental theorem of calculus </text>
</a>
</g>
</g>
<!-- FUNDAMENTAL_THEOREM_OF_CALCULUS&#45;&gt;UNIFORM_RANDOM_VARIABLE -->
<g id="edge1" class="edge"><title>FUNDAMENTAL_THEOREM_OF_CALCULUS&#45;&gt;UNIFORM_RANDOM_VARIABLE</title>
<path fill="none" stroke="black" d="M125.494,-71.6966C136.955,-62.8807 151.058,-52.0321 163.484,-42.4742"/>
<polygon fill="black" stroke="black" points="165.972,-44.9757 171.764,-36.1043 161.704,-39.4273 165.972,-44.9757"/>
</g>
<!-- RANDOM_VARIABLES -->
<g id="node3" class="node"><title>RANDOM_VARIABLES</title>
<g id="a_node3"><a xlink:href="RANDOM_VARIABLES.html" xlink:title=" Random variables " target="_top">
<path fill="none" stroke="black" d="M335.25,-108C335.25,-108 236.75,-108 236.75,-108 230.75,-108 224.75,-102 224.75,-96 224.75,-96 224.75,-84 224.75,-84 224.75,-78 230.75,-72 236.75,-72 236.75,-72 335.25,-72 335.25,-72 341.25,-72 347.25,-78 347.25,-84 347.25,-84 347.25,-96 347.25,-96 347.25,-102 341.25,-108 335.25,-108"/>
<text text-anchor="start" x="232.5" y="-86.3" font-family="Times,serif" font-size="14.00"> Random variables </text>
</a>
</g>
</g>
<!-- RANDOM_VARIABLES&#45;&gt;UNIFORM_RANDOM_VARIABLE -->
<g id="edge2" class="edge"><title>RANDOM_VARIABLES&#45;&gt;UNIFORM_RANDOM_VARIABLE</title>
<path fill="none" stroke="black" d="M263.258,-71.6966C251.56,-62.796 237.139,-51.8232 224.49,-42.1989"/>
<polygon fill="black" stroke="black" points="226.558,-39.3742 216.48,-36.1043 222.319,-44.945 226.558,-39.3742"/>
</g>
</g>
</svg>
