<?xml version="1.0" encoding="UTF-8" standalone="no"?>
<!DOCTYPE svg PUBLIC "-//W3C//DTD SVG 1.1//EN"
 "http://www.w3.org/Graphics/SVG/1.1/DTD/svg11.dtd">
<!-- Generated by graphviz version 2.26.3 (20100126.1600)
 -->
<!-- Title: _anonymous_0 Pages: 1 -->
<svg width="428pt" height="116pt"
 viewBox="0.00 0.00 428.00 116.00" xmlns="http://www.w3.org/2000/svg" xmlns:xlink="http://www.w3.org/1999/xlink">
<g id="graph1" class="graph" transform="scale(1 1) rotate(0) translate(4 112)">
<title>_anonymous_0</title>
<!-- UNIFORM_RANDOM_VARIABLE -->
<g id="node1" class="node"><title>UNIFORM_RANDOM_VARIABLE</title>
<a xlink:href="UNIFORM_RANDOM_VARIABLE.html" xlink:title=" Uniform Random Variable " target="_top">
<polyline fill="none" stroke="blue" stroke-width="2" points="272,-36 94,-36 "/>
<path fill="none" stroke="blue" stroke-width="2" d="M94,-36C88,-36 82,-30 82,-24"/>
<polyline fill="none" stroke="blue" stroke-width="2" points="82,-24 82,-12 "/>
<path fill="none" stroke="blue" stroke-width="2" d="M82,-12C82,-6 88,-1.73415e-14 94,-1.69194e-14"/>
<polyline fill="none" stroke="blue" stroke-width="2" points="94,-1.69194e-14 272,-4.39692e-15 "/>
<path fill="none" stroke="blue" stroke-width="2" d="M272,-4.39692e-15C278,-3.97482e-15 284,-6 284,-12"/>
<polyline fill="none" stroke="blue" stroke-width="2" points="284,-12 284,-24 "/>
<path fill="none" stroke="blue" stroke-width="2" d="M284,-24C284,-30 278,-36 272,-36"/>
<text text-anchor="start" x="90.5" y="-15.2333" font-family="Times Roman,serif" font-size="14.00"> Uniform Random Variable </text>
</a>
</g>
<!-- RANDOM_VARIABLES -->
<g id="node2" class="node"><title>RANDOM_VARIABLES</title>
<a xlink:href="RANDOM_VARIABLES.html" xlink:title=" Random variables " target="_top">
<polyline fill="none" stroke="black" points="136,-108 12,-108 "/>
<path fill="none" stroke="black" d="M12,-108C6,-108 5.92119e-14,-102 4.73695e-14,-96"/>
<polyline fill="none" stroke="black" points="4.73695e-14,-96 2.36848e-14,-84 "/>
<path fill="none" stroke="black" d="M2.36848e-14,-84C1.18424e-14,-78 6,-72 12,-72"/>
<polyline fill="none" stroke="black" points="12,-72 136,-72 "/>
<path fill="none" stroke="black" d="M136,-72C142,-72 148,-78 148,-84"/>
<polyline fill="none" stroke="black" points="148,-84 148,-96 "/>
<path fill="none" stroke="black" d="M148,-96C148,-102 142,-108 136,-108"/>
<text text-anchor="start" x="8" y="-87.2333" font-family="Times Roman,serif" font-size="14.00"> Random variables </text>
</a>
</g>
<!-- RANDOM_VARIABLES&#45;&gt;UNIFORM_RANDOM_VARIABLE -->
<g id="edge2" class="edge"><title>RANDOM_VARIABLES&#45;&gt;UNIFORM_RANDOM_VARIABLE</title>
<path fill="none" stroke="black" d="M101.505,-71.8314C115.318,-62.7074 132.226,-51.539 147.053,-41.7449"/>
<polygon fill="black" stroke="black" points="149.089,-44.5949 155.503,-36.1628 145.23,-38.7541 149.089,-44.5949"/>
</g>
<!-- FUNDAMENTAL_THEOREM_OF_CALCULUS -->
<g id="node4" class="node"><title>FUNDAMENTAL_THEOREM_OF_CALCULUS</title>
<a xlink:href="FUNDAMENTAL_THEOREM_OF_CALCULUS.html" xlink:title=" Fundamental theorem of calculus " target="_top">
<polyline fill="none" stroke="black" points="408,-108 178,-108 "/>
<path fill="none" stroke="black" d="M178,-108C172,-108 166,-102 166,-96"/>
<polyline fill="none" stroke="black" points="166,-96 166,-84 "/>
<path fill="none" stroke="black" d="M166,-84C166,-78 172,-72 178,-72"/>
<polyline fill="none" stroke="black" points="178,-72 408,-72 "/>
<path fill="none" stroke="black" d="M408,-72C414,-72 420,-78 420,-84"/>
<polyline fill="none" stroke="black" points="420,-84 420,-96 "/>
<path fill="none" stroke="black" d="M420,-96C420,-102 414,-108 408,-108"/>
<text text-anchor="start" x="174" y="-87.2333" font-family="Times Roman,serif" font-size="14.00"> Fundamental theorem of calculus </text>
</a>
</g>
<!-- FUNDAMENTAL_THEOREM_OF_CALCULUS&#45;&gt;UNIFORM_RANDOM_VARIABLE -->
<g id="edge4" class="edge"><title>FUNDAMENTAL_THEOREM_OF_CALCULUS&#45;&gt;UNIFORM_RANDOM_VARIABLE</title>
<path fill="none" stroke="black" d="M265.242,-71.8314C251.303,-62.7074 234.24,-51.539 219.277,-41.7449"/>
<polygon fill="black" stroke="black" points="221.033,-38.711 210.749,-36.1628 217.199,-44.5679 221.033,-38.711"/>
</g>
</g>
</svg>
