<?xml version="1.0" encoding="UTF-8" standalone="no"?>
<!DOCTYPE svg PUBLIC "-//W3C//DTD SVG 1.1//EN"
 "http://www.w3.org/Graphics/SVG/1.1/DTD/svg11.dtd">
<!-- Generated by graphviz version 2.36.0 (20140111.2315)
 -->
<!-- Title: %3 Pages: 1 -->
<svg width="276pt" height="188pt"
 viewBox="0.00 0.00 276.00 188.00" xmlns="http://www.w3.org/2000/svg" xmlns:xlink="http://www.w3.org/1999/xlink">
<g id="graph0" class="graph" transform="scale(1 1) rotate(0) translate(4 184)">
<title>%3</title>
<!-- VARIABLE_SEPARABLE_DIFFERENTIAL_EQUATIONS -->
<g id="node1" class="node"><title>VARIABLE_SEPARABLE_DIFFERENTIAL_EQUATIONS</title>
<g id="a_node1"><a xlink:href="VARIABLE_SEPARABLE_DIFFERENTIAL_EQUATIONS.html" xlink:title=" Variable separable differential equations " target="_top">
<path fill="none" stroke="blue" stroke-width="2" d="M244.25,-108C244.25,-108 23.75,-108 23.75,-108 17.75,-108 11.75,-102 11.75,-96 11.75,-96 11.75,-84 11.75,-84 11.75,-78 17.75,-72 23.75,-72 23.75,-72 244.25,-72 244.25,-72 250.25,-72 256.25,-78 256.25,-84 256.25,-84 256.25,-96 256.25,-96 256.25,-102 250.25,-108 244.25,-108"/>
<text text-anchor="start" x="19.5" y="-86.3" font-family="Times,serif" font-size="14.00"> Variable separable differential equations </text>
</a>
</g>
</g>
<!-- SOVING_DIFFERENTIAL_EQUATIONS_USING_INTEGRATING_FACTORS -->
<g id="node3" class="node"><title>SOVING_DIFFERENTIAL_EQUATIONS_USING_INTEGRATING_FACTORS</title>
<g id="a_node3"><a xlink:href="SOVING_DIFFERENTIAL_EQUATIONS_USING_INTEGRATING_FACTORS.html" xlink:title=" Differential equations and integrating factors " target="_top">
<path fill="none" stroke="black" d="M256.25,-36C256.25,-36 11.75,-36 11.75,-36 5.75,-36 -0.25,-30 -0.25,-24 -0.25,-24 -0.25,-12 -0.25,-12 -0.25,-6 5.75,-0 11.75,-0 11.75,-0 256.25,-0 256.25,-0 262.25,-0 268.25,-6 268.25,-12 268.25,-12 268.25,-24 268.25,-24 268.25,-30 262.25,-36 256.25,-36"/>
<text text-anchor="start" x="7.5" y="-14.3" font-family="Times,serif" font-size="14.00"> Differential equations and integrating factors </text>
</a>
</g>
</g>
<!-- VARIABLE_SEPARABLE_DIFFERENTIAL_EQUATIONS&#45;&gt;SOVING_DIFFERENTIAL_EQUATIONS_USING_INTEGRATING_FACTORS -->
<g id="edge2" class="edge"><title>VARIABLE_SEPARABLE_DIFFERENTIAL_EQUATIONS&#45;&gt;SOVING_DIFFERENTIAL_EQUATIONS_USING_INTEGRATING_FACTORS</title>
<path fill="none" stroke="black" d="M134,-71.6966C134,-63.9827 134,-54.7125 134,-46.1124"/>
<polygon fill="black" stroke="black" points="137.5,-46.1043 134,-36.1043 130.5,-46.1044 137.5,-46.1043"/>
</g>
<!-- EXPONENTIAL_GROWTH_DECAY -->
<g id="node2" class="node"><title>EXPONENTIAL_GROWTH_DECAY</title>
<g id="a_node2"><a xlink:href="EXPONENTIAL_GROWTH_DECAY.html" xlink:title=" Exponential growth/decay " target="_top">
<path fill="none" stroke="black" d="M205.25,-180C205.25,-180 62.75,-180 62.75,-180 56.75,-180 50.75,-174 50.75,-168 50.75,-168 50.75,-156 50.75,-156 50.75,-150 56.75,-144 62.75,-144 62.75,-144 205.25,-144 205.25,-144 211.25,-144 217.25,-150 217.25,-156 217.25,-156 217.25,-168 217.25,-168 217.25,-174 211.25,-180 205.25,-180"/>
<text text-anchor="start" x="58.5" y="-158.3" font-family="Times,serif" font-size="14.00"> Exponential growth/decay </text>
</a>
</g>
</g>
<!-- EXPONENTIAL_GROWTH_DECAY&#45;&gt;VARIABLE_SEPARABLE_DIFFERENTIAL_EQUATIONS -->
<g id="edge1" class="edge"><title>EXPONENTIAL_GROWTH_DECAY&#45;&gt;VARIABLE_SEPARABLE_DIFFERENTIAL_EQUATIONS</title>
<path fill="none" stroke="black" d="M134,-143.697C134,-135.983 134,-126.712 134,-118.112"/>
<polygon fill="black" stroke="black" points="137.5,-118.104 134,-108.104 130.5,-118.104 137.5,-118.104"/>
</g>
</g>
</svg>
