<?xml version="1.0" encoding="UTF-8" standalone="no"?>
<!DOCTYPE svg PUBLIC "-//W3C//DTD SVG 1.1//EN"
 "http://www.w3.org/Graphics/SVG/1.1/DTD/svg11.dtd">
<!-- Generated by graphviz version 2.26.3 (20100126.1600)
 -->
<!-- Title: _anonymous_0 Pages: 1 -->
<svg width="432pt" height="188pt"
 viewBox="0.00 0.00 432.00 188.00" xmlns="http://www.w3.org/2000/svg" xmlns:xlink="http://www.w3.org/1999/xlink">
<g id="graph1" class="graph" transform="scale(1 1) rotate(0) translate(4 184)">
<title>_anonymous_0</title>
<!-- VARIANCE -->
<g id="node1" class="node"><title>VARIANCE</title>
<a xlink:href="VARIANCE.html" xlink:title=" Variance &#160;" target="_top">
<polyline fill="none" stroke="blue" stroke-width="2" points="245,-108 179,-108 "/>
<path fill="none" stroke="blue" stroke-width="2" d="M179,-108C173,-108 167,-102 167,-96"/>
<polyline fill="none" stroke="blue" stroke-width="2" points="167,-96 167,-84 "/>
<path fill="none" stroke="blue" stroke-width="2" d="M167,-84C167,-78 173,-72 179,-72"/>
<polyline fill="none" stroke="blue" stroke-width="2" points="179,-72 245,-72 "/>
<path fill="none" stroke="blue" stroke-width="2" d="M245,-72C251,-72 257,-78 257,-84"/>
<polyline fill="none" stroke="blue" stroke-width="2" points="257,-84 257,-96 "/>
<path fill="none" stroke="blue" stroke-width="2" d="M257,-96C257,-102 251,-108 245,-108"/>
<text text-anchor="start" x="175.5" y="-87.2333" font-family="Times Roman,serif" font-size="14.00"> Variance &#160;</text>
</a>
</g>
<!-- BERNOULI_RANDOM_VARIABLE -->
<g id="node4" class="node"><title>BERNOULI_RANDOM_VARIABLE</title>
<a xlink:href="BERNOULI_RANDOM_VARIABLE.html" xlink:title=" Bernoulli random variable " target="_top">
<polyline fill="none" stroke="black" points="192,-36 12,-36 "/>
<path fill="none" stroke="black" d="M12,-36C6,-36 8.28967e-14,-30 6.63173e-14,-24"/>
<polyline fill="none" stroke="black" points="6.63173e-14,-24 3.31587e-14,-12 "/>
<path fill="none" stroke="black" d="M3.31587e-14,-12C1.65793e-14,-6 6,-1.73456e-14 12,-1.69276e-14"/>
<polyline fill="none" stroke="black" points="12,-1.69276e-14 192,-4.38865e-15 "/>
<path fill="none" stroke="black" d="M192,-4.38865e-15C198,-3.97068e-15 204,-6 204,-12"/>
<polyline fill="none" stroke="black" points="204,-12 204,-24 "/>
<path fill="none" stroke="black" d="M204,-24C204,-30 198,-36 192,-36"/>
<text text-anchor="start" x="8.5" y="-15.2333" font-family="Times Roman,serif" font-size="14.00"> Bernoulli random variable </text>
</a>
</g>
<!-- VARIANCE&#45;&gt;BERNOULI_RANDOM_VARIABLE -->
<g id="edge4" class="edge"><title>VARIANCE&#45;&gt;BERNOULI_RANDOM_VARIABLE</title>
<path fill="none" stroke="black" d="M184.242,-71.8314C170.303,-62.7074 153.24,-51.539 138.277,-41.7449"/>
<polygon fill="black" stroke="black" points="140.033,-38.711 129.749,-36.1628 136.199,-44.5679 140.033,-38.711"/>
</g>
<!-- CENTRAL_LIMIT_THEOREM -->
<g id="node8" class="node"><title>CENTRAL_LIMIT_THEOREM</title>
<a xlink:href="CENTRAL_LIMIT_THEOREM.html" xlink:title=" The central limit theorem " target="_top">
<polyline fill="none" stroke="black" points="412,-36 234,-36 "/>
<path fill="none" stroke="black" d="M234,-36C228,-36 222,-30 222,-24"/>
<polyline fill="none" stroke="black" points="222,-24 222,-12 "/>
<path fill="none" stroke="black" d="M222,-12C222,-6 228,-1.73415e-14 234,-1.69194e-14"/>
<polyline fill="none" stroke="black" points="234,-1.69194e-14 412,-4.39692e-15 "/>
<path fill="none" stroke="black" d="M412,-4.39692e-15C418,-3.97482e-15 424,-6 424,-12"/>
<polyline fill="none" stroke="black" points="424,-12 424,-24 "/>
<path fill="none" stroke="black" d="M424,-24C424,-30 418,-36 412,-36"/>
<text text-anchor="start" x="230" y="-15.2333" font-family="Times Roman,serif" font-size="14.00"> The central limit theorem </text>
</a>
</g>
<!-- VARIANCE&#45;&gt;CENTRAL_LIMIT_THEOREM -->
<g id="edge8" class="edge"><title>VARIANCE&#45;&gt;CENTRAL_LIMIT_THEOREM</title>
<path fill="none" stroke="black" d="M240.01,-71.8314C254.076,-62.7074 271.294,-51.539 286.393,-41.7449"/>
<polygon fill="black" stroke="black" points="288.514,-44.5412 294.999,-36.1628 284.705,-38.6684 288.514,-44.5412"/>
</g>
<!-- RANDOM_VARIABLES -->
<g id="node2" class="node"><title>RANDOM_VARIABLES</title>
<a xlink:href="RANDOM_VARIABLES.html" xlink:title=" Random variables " target="_top">
<polyline fill="none" stroke="black" points="200,-180 76,-180 "/>
<path fill="none" stroke="black" d="M76,-180C70,-180 64,-174 64,-168"/>
<polyline fill="none" stroke="black" points="64,-168 64,-156 "/>
<path fill="none" stroke="black" d="M64,-156C64,-150 70,-144 76,-144"/>
<polyline fill="none" stroke="black" points="76,-144 200,-144 "/>
<path fill="none" stroke="black" d="M200,-144C206,-144 212,-150 212,-156"/>
<polyline fill="none" stroke="black" points="212,-156 212,-168 "/>
<path fill="none" stroke="black" d="M212,-168C212,-174 206,-180 200,-180"/>
<text text-anchor="start" x="72" y="-159.233" font-family="Times Roman,serif" font-size="14.00"> Random variables </text>
</a>
</g>
<!-- RANDOM_VARIABLES&#45;&gt;VARIANCE -->
<g id="edge2" class="edge"><title>RANDOM_VARIABLES&#45;&gt;VARIANCE</title>
<path fill="none" stroke="black" d="M156.673,-143.831C165.525,-135.219 176.249,-124.785 185.889,-115.405"/>
<polygon fill="black" stroke="black" points="188.606,-117.645 193.333,-108.163 183.725,-112.628 188.606,-117.645"/>
</g>
<!-- EXPECTATION -->
<g id="node6" class="node"><title>EXPECTATION</title>
<a xlink:href="EXPECTATION.html" xlink:title=" Expectation &#160;" target="_top">
<polyline fill="none" stroke="black" points="330,-180 242,-180 "/>
<path fill="none" stroke="black" d="M242,-180C236,-180 230,-174 230,-168"/>
<polyline fill="none" stroke="black" points="230,-168 230,-156 "/>
<path fill="none" stroke="black" d="M230,-156C230,-150 236,-144 242,-144"/>
<polyline fill="none" stroke="black" points="242,-144 330,-144 "/>
<path fill="none" stroke="black" d="M330,-144C336,-144 342,-150 342,-156"/>
<polyline fill="none" stroke="black" points="342,-156 342,-168 "/>
<path fill="none" stroke="black" d="M342,-168C342,-174 336,-180 330,-180"/>
<text text-anchor="start" x="238" y="-159.233" font-family="Times Roman,serif" font-size="14.00"> Expectation &#160;</text>
</a>
</g>
<!-- EXPECTATION&#45;&gt;VARIANCE -->
<g id="edge6" class="edge"><title>EXPECTATION&#45;&gt;VARIANCE</title>
<path fill="none" stroke="black" d="M267.327,-143.831C258.475,-135.219 247.751,-124.785 238.111,-115.405"/>
<polygon fill="black" stroke="black" points="240.275,-112.628 230.667,-108.163 235.394,-117.645 240.275,-112.628"/>
</g>
</g>
</svg>
