<?xml version="1.0" encoding="UTF-8" standalone="no"?>
<!DOCTYPE svg PUBLIC "-//W3C//DTD SVG 1.1//EN"
 "http://www.w3.org/Graphics/SVG/1.1/DTD/svg11.dtd">
<!-- Generated by graphviz version 2.26.3 (20100126.1600)
 -->
<!-- Title: _anonymous_0 Pages: 1 -->
<svg width="346pt" height="188pt"
 viewBox="0.00 0.00 346.00 188.00" xmlns="http://www.w3.org/2000/svg" xmlns:xlink="http://www.w3.org/1999/xlink">
<g id="graph1" class="graph" transform="scale(1 1) rotate(0) translate(4 184)">
<title>_anonymous_0</title>
<!-- VARIABLE_SEPARABLE_DIFFERENTIAL_EQUATIONS -->
<g id="node1" class="node"><title>VARIABLE_SEPARABLE_DIFFERENTIAL_EQUATIONS</title>
<a xlink:href="VARIABLE_SEPARABLE_DIFFERENTIAL_EQUATIONS.html" xlink:title=" Variable separable differential equations " target="_top">
<polyline fill="none" stroke="blue" stroke-width="2" points="309,-108 29,-108 "/>
<path fill="none" stroke="blue" stroke-width="2" d="M29,-108C23,-108 17,-102 17,-96"/>
<polyline fill="none" stroke="blue" stroke-width="2" points="17,-96 17,-84 "/>
<path fill="none" stroke="blue" stroke-width="2" d="M17,-84C17,-78 23,-72 29,-72"/>
<polyline fill="none" stroke="blue" stroke-width="2" points="29,-72 309,-72 "/>
<path fill="none" stroke="blue" stroke-width="2" d="M309,-72C315,-72 321,-78 321,-84"/>
<polyline fill="none" stroke="blue" stroke-width="2" points="321,-84 321,-96 "/>
<path fill="none" stroke="blue" stroke-width="2" d="M321,-96C321,-102 315,-108 309,-108"/>
<text text-anchor="start" x="25.5" y="-87.2333" font-family="Times Roman,serif" font-size="14.00"> Variable separable differential equations </text>
</a>
</g>
<!-- SOVING_DIFFERENTIAL_EQUATIONS_USING_INTEGRATING_FACTORS -->
<g id="node4" class="node"><title>SOVING_DIFFERENTIAL_EQUATIONS_USING_INTEGRATING_FACTORS</title>
<a xlink:href="SOVING_DIFFERENTIAL_EQUATIONS_USING_INTEGRATING_FACTORS.html" xlink:title=" Differential equations and integrating factors " target="_top">
<polyline fill="none" stroke="black" points="326,-36 12,-36 "/>
<path fill="none" stroke="black" d="M12,-36C6,-36 1.42109e-13,-30 1.13687e-13,-24"/>
<polyline fill="none" stroke="black" points="1.13687e-13,-24 5.68434e-14,-12 "/>
<path fill="none" stroke="black" d="M5.68434e-14,-12C2.84217e-14,-6 6,-1.75113e-14 12,-1.7259e-14"/>
<polyline fill="none" stroke="black" points="12,-1.7259e-14 326,-4.05724e-15 "/>
<path fill="none" stroke="black" d="M326,-4.05724e-15C332,-3.80498e-15 338,-6 338,-12"/>
<polyline fill="none" stroke="black" points="338,-12 338,-24 "/>
<path fill="none" stroke="black" d="M338,-24C338,-30 332,-36 326,-36"/>
<text text-anchor="start" x="8" y="-15.2333" font-family="Times Roman,serif" font-size="14.00"> Differential equations and integrating factors </text>
</a>
</g>
<!-- VARIABLE_SEPARABLE_DIFFERENTIAL_EQUATIONS&#45;&gt;SOVING_DIFFERENTIAL_EQUATIONS_USING_INTEGRATING_FACTORS -->
<g id="edge4" class="edge"><title>VARIABLE_SEPARABLE_DIFFERENTIAL_EQUATIONS&#45;&gt;SOVING_DIFFERENTIAL_EQUATIONS_USING_INTEGRATING_FACTORS</title>
<path fill="none" stroke="black" d="M169,-71.8314C169,-64.131 169,-54.9743 169,-46.4166"/>
<polygon fill="black" stroke="black" points="172.5,-46.4132 169,-36.4133 165.5,-46.4133 172.5,-46.4132"/>
</g>
<!-- EXPONENTIAL_GROWTH_DECAY -->
<g id="node2" class="node"><title>EXPONENTIAL_GROWTH_DECAY</title>
<a xlink:href="EXPONENTIAL_GROWTH_DECAY.html" xlink:title=" Exponential growth/decay " target="_top">
<polyline fill="none" stroke="black" points="260,-180 78,-180 "/>
<path fill="none" stroke="black" d="M78,-180C72,-180 66,-174 66,-168"/>
<polyline fill="none" stroke="black" points="66,-168 66,-156 "/>
<path fill="none" stroke="black" d="M66,-156C66,-150 72,-144 78,-144"/>
<polyline fill="none" stroke="black" points="78,-144 260,-144 "/>
<path fill="none" stroke="black" d="M260,-144C266,-144 272,-150 272,-156"/>
<polyline fill="none" stroke="black" points="272,-156 272,-168 "/>
<path fill="none" stroke="black" d="M272,-168C272,-174 266,-180 260,-180"/>
<text text-anchor="start" x="74" y="-159.233" font-family="Times Roman,serif" font-size="14.00"> Exponential growth/decay </text>
</a>
</g>
<!-- EXPONENTIAL_GROWTH_DECAY&#45;&gt;VARIABLE_SEPARABLE_DIFFERENTIAL_EQUATIONS -->
<g id="edge2" class="edge"><title>EXPONENTIAL_GROWTH_DECAY&#45;&gt;VARIABLE_SEPARABLE_DIFFERENTIAL_EQUATIONS</title>
<path fill="none" stroke="black" d="M169,-143.831C169,-136.131 169,-126.974 169,-118.417"/>
<polygon fill="black" stroke="black" points="172.5,-118.413 169,-108.413 165.5,-118.413 172.5,-118.413"/>
</g>
</g>
</svg>
