<?xml version="1.0" encoding="UTF-8" standalone="no"?>
<!DOCTYPE svg PUBLIC "-//W3C//DTD SVG 1.1//EN"
 "http://www.w3.org/Graphics/SVG/1.1/DTD/svg11.dtd">
<!-- Generated by graphviz version 2.26.3 (20100126.1600)
 -->
<!-- Title: _anonymous_0 Pages: 1 -->
<svg width="414pt" height="188pt"
 viewBox="0.00 0.00 414.00 188.00" xmlns="http://www.w3.org/2000/svg" xmlns:xlink="http://www.w3.org/1999/xlink">
<g id="graph1" class="graph" transform="scale(1 1) rotate(0) translate(4 184)">
<title>_anonymous_0</title>
<!-- VARIANCE -->
<g id="node1" class="node"><title>VARIANCE</title>
<a xlink:href="VARIANCE.html" xlink:title="Variance " target="_top">
<polyline fill="none" stroke="blue" stroke-width="2" points="231,-108 175,-108 "/>
<path fill="none" stroke="blue" stroke-width="2" d="M175,-108C169,-108 163,-102 163,-96"/>
<polyline fill="none" stroke="blue" stroke-width="2" points="163,-96 163,-84 "/>
<path fill="none" stroke="blue" stroke-width="2" d="M163,-84C163,-78 169,-72 175,-72"/>
<polyline fill="none" stroke="blue" stroke-width="2" points="175,-72 231,-72 "/>
<path fill="none" stroke="blue" stroke-width="2" d="M231,-72C237,-72 243,-78 243,-84"/>
<polyline fill="none" stroke="blue" stroke-width="2" points="243,-84 243,-96 "/>
<path fill="none" stroke="blue" stroke-width="2" d="M243,-96C243,-102 237,-108 231,-108"/>
<text text-anchor="start" x="171" y="-87.2333" font-family="Times Roman,serif" font-size="14.00">Variance </text>
</a>
</g>
<!-- BERNOULI_RANDOM_VARIABLE -->
<g id="node2" class="node"><title>BERNOULI_RANDOM_VARIABLE</title>
<a xlink:href="BERNOULI_RANDOM_VARIABLE.html" xlink:title="Bernoulli random variable" target="_top">
<polyline fill="none" stroke="black" points="182,-36 12,-36 "/>
<path fill="none" stroke="black" d="M12,-36C6,-36 7.10543e-14,-30 5.68434e-14,-24"/>
<polyline fill="none" stroke="black" points="5.68434e-14,-24 2.84217e-14,-12 "/>
<path fill="none" stroke="black" d="M2.84217e-14,-12C1.42109e-14,-6 6,-1.73241e-14 12,-1.68845e-14"/>
<polyline fill="none" stroke="black" points="12,-1.68845e-14 182,-4.43174e-15 "/>
<path fill="none" stroke="black" d="M182,-4.43174e-15C188,-3.99222e-15 194,-6 194,-12"/>
<polyline fill="none" stroke="black" points="194,-12 194,-24 "/>
<path fill="none" stroke="black" d="M194,-24C194,-30 188,-36 182,-36"/>
<text text-anchor="start" x="8" y="-15.2333" font-family="Times Roman,serif" font-size="14.00">Bernoulli random variable</text>
</a>
</g>
<!-- VARIANCE&#45;&gt;BERNOULI_RANDOM_VARIABLE -->
<g id="edge2" class="edge"><title>VARIANCE&#45;&gt;BERNOULI_RANDOM_VARIABLE</title>
<path fill="none" stroke="black" d="M176.252,-71.8314C162.945,-62.7927 146.684,-51.7476 132.363,-42.0198"/>
<polygon fill="black" stroke="black" points="133.979,-38.8864 123.74,-36.1628 130.045,-44.677 133.979,-38.8864"/>
</g>
<!-- CENTRAL_LIMIT_THEOREM -->
<g id="node8" class="node"><title>CENTRAL_LIMIT_THEOREM</title>
<a xlink:href="CENTRAL_LIMIT_THEOREM.html" xlink:title="The central limit theorem" target="_top">
<polyline fill="none" stroke="black" points="394,-36 224,-36 "/>
<path fill="none" stroke="black" d="M224,-36C218,-36 212,-30 212,-24"/>
<polyline fill="none" stroke="black" points="212,-24 212,-12 "/>
<path fill="none" stroke="black" d="M212,-12C212,-6 218,-1.73241e-14 224,-1.68845e-14"/>
<polyline fill="none" stroke="black" points="224,-1.68845e-14 394,-4.43174e-15 "/>
<path fill="none" stroke="black" d="M394,-4.43174e-15C400,-3.99222e-15 406,-6 406,-12"/>
<polyline fill="none" stroke="black" points="406,-12 406,-24 "/>
<path fill="none" stroke="black" d="M406,-24C406,-30 400,-36 394,-36"/>
<text text-anchor="start" x="220.5" y="-15.2333" font-family="Times Roman,serif" font-size="14.00">The central limit theorem</text>
</a>
</g>
<!-- VARIANCE&#45;&gt;CENTRAL_LIMIT_THEOREM -->
<g id="edge8" class="edge"><title>VARIANCE&#45;&gt;CENTRAL_LIMIT_THEOREM</title>
<path fill="none" stroke="black" d="M229.748,-71.8314C243.055,-62.7927 259.316,-51.7476 273.637,-42.0198"/>
<polygon fill="black" stroke="black" points="275.955,-44.677 282.26,-36.1628 272.021,-38.8864 275.955,-44.677"/>
</g>
<!-- EXPECTATION -->
<g id="node4" class="node"><title>EXPECTATION</title>
<a xlink:href="EXPECTATION.html" xlink:title="Expectation " target="_top">
<polyline fill="none" stroke="black" points="173,-180 93,-180 "/>
<path fill="none" stroke="black" d="M93,-180C87,-180 81,-174 81,-168"/>
<polyline fill="none" stroke="black" points="81,-168 81,-156 "/>
<path fill="none" stroke="black" d="M81,-156C81,-150 87,-144 93,-144"/>
<polyline fill="none" stroke="black" points="93,-144 173,-144 "/>
<path fill="none" stroke="black" d="M173,-144C179,-144 185,-150 185,-156"/>
<polyline fill="none" stroke="black" points="185,-156 185,-168 "/>
<path fill="none" stroke="black" d="M185,-168C185,-174 179,-180 173,-180"/>
<text text-anchor="start" x="89.5" y="-159.233" font-family="Times Roman,serif" font-size="14.00">Expectation </text>
</a>
</g>
<!-- EXPECTATION&#45;&gt;VARIANCE -->
<g id="edge4" class="edge"><title>EXPECTATION&#45;&gt;VARIANCE</title>
<path fill="none" stroke="black" d="M150.664,-143.831C158.973,-135.285 169.026,-124.944 178.092,-115.62"/>
<polygon fill="black" stroke="black" points="180.637,-118.023 185.098,-108.413 175.618,-113.143 180.637,-118.023"/>
</g>
<!-- RANDOM_VARIABLES -->
<g id="node6" class="node"><title>RANDOM_VARIABLES</title>
<a xlink:href="RANDOM_VARIABLES.html" xlink:title="Random variables" target="_top">
<polyline fill="none" stroke="black" points="331,-180 215,-180 "/>
<path fill="none" stroke="black" d="M215,-180C209,-180 203,-174 203,-168"/>
<polyline fill="none" stroke="black" points="203,-168 203,-156 "/>
<path fill="none" stroke="black" d="M203,-156C203,-150 209,-144 215,-144"/>
<polyline fill="none" stroke="black" points="215,-144 331,-144 "/>
<path fill="none" stroke="black" d="M331,-144C337,-144 343,-150 343,-156"/>
<polyline fill="none" stroke="black" points="343,-156 343,-168 "/>
<path fill="none" stroke="black" d="M343,-168C343,-174 337,-180 331,-180"/>
<text text-anchor="start" x="211.5" y="-159.233" font-family="Times Roman,serif" font-size="14.00">Random variables</text>
</a>
</g>
<!-- RANDOM_VARIABLES&#45;&gt;VARIANCE -->
<g id="edge6" class="edge"><title>RANDOM_VARIABLES&#45;&gt;VARIANCE</title>
<path fill="none" stroke="black" d="M255.336,-143.831C247.027,-135.285 236.974,-124.944 227.908,-115.62"/>
<polygon fill="black" stroke="black" points="230.382,-113.143 220.902,-108.413 225.363,-118.023 230.382,-113.143"/>
</g>
</g>
</svg>
