<?xml version="1.0" encoding="UTF-8" standalone="no"?>
<!DOCTYPE svg PUBLIC "-//W3C//DTD SVG 1.1//EN"
 "http://www.w3.org/Graphics/SVG/1.1/DTD/svg11.dtd">
<!-- Generated by graphviz version 2.28.0 (20110509.1545)
 -->
<!-- Title: _anonymous_0 Pages: 1 -->
<svg width="276pt" height="188pt"
 viewBox="0.00 0.00 276.00 188.00" xmlns="http://www.w3.org/2000/svg" xmlns:xlink="http://www.w3.org/1999/xlink">
<g id="graph1" class="graph" transform="scale(1 1) rotate(0) translate(4 184)">
<title>_anonymous_0</title>
<!-- VARIABLE_SEPARABLE_DIFFERENTIAL_EQUATIONS -->
<g id="node1" class="node"><title>VARIABLE_SEPARABLE_DIFFERENTIAL_EQUATIONS</title>
<a xlink:href="VARIABLE_SEPARABLE_DIFFERENTIAL_EQUATIONS.html" xlink:title="Variable separable differential equations" target="_top">
<polyline fill="none" stroke="blue" stroke-width="2" points="243,-108 25,-108 "/>
<path fill="none" stroke="blue" stroke-width="2" d="M25,-108C19,-108 13,-102 13,-96"/>
<polyline fill="none" stroke="blue" stroke-width="2" points="13,-96 13,-84 "/>
<path fill="none" stroke="blue" stroke-width="2" d="M13,-84C13,-78 19,-72 25,-72"/>
<polyline fill="none" stroke="blue" stroke-width="2" points="25,-72 243,-72 "/>
<path fill="none" stroke="blue" stroke-width="2" d="M243,-72C249,-72 255,-78 255,-84"/>
<polyline fill="none" stroke="blue" stroke-width="2" points="255,-84 255,-96 "/>
<path fill="none" stroke="blue" stroke-width="2" d="M255,-96C255,-102 249,-108 243,-108"/>
<text text-anchor="start" x="21.5" y="-84.5" font-family="Times,serif" font-size="14.00">Variable separable differential equations</text>
</a>
</g>
<!-- SOVING_DIFFERENTIAL_EQUATIONS_USING_INTEGRATING_FACTORS -->
<g id="node4" class="node"><title>SOVING_DIFFERENTIAL_EQUATIONS_USING_INTEGRATING_FACTORS</title>
<a xlink:href="SOVING_DIFFERENTIAL_EQUATIONS_USING_INTEGRATING_FACTORS.html" xlink:title="Differential equations and integrating factors" target="_top">
<polyline fill="none" stroke="black" points="256,-36 12,-36 "/>
<path fill="none" stroke="black" d="M12,-36C6,-36 0,-30 0,-24"/>
<polyline fill="none" stroke="black" points="0,-24 0,-12 "/>
<path fill="none" stroke="black" d="M0,-12C0,-6 6,-0 12,-0"/>
<polyline fill="none" stroke="black" points="12,-0 256,-0 "/>
<path fill="none" stroke="black" d="M256,-0C262,-0 268,-6 268,-12"/>
<polyline fill="none" stroke="black" points="268,-12 268,-24 "/>
<path fill="none" stroke="black" d="M268,-24C268,-30 262,-36 256,-36"/>
<text text-anchor="start" x="8.5" y="-12.5" font-family="Times,serif" font-size="14.00">Differential equations and integrating factors</text>
</a>
</g>
<!-- VARIABLE_SEPARABLE_DIFFERENTIAL_EQUATIONS&#45;&gt;SOVING_DIFFERENTIAL_EQUATIONS_USING_INTEGRATING_FACTORS -->
<g id="edge4" class="edge"><title>VARIABLE_SEPARABLE_DIFFERENTIAL_EQUATIONS&#45;&gt;SOVING_DIFFERENTIAL_EQUATIONS_USING_INTEGRATING_FACTORS</title>
<path fill="none" stroke="black" d="M134,-71.6966C134,-63.9827 134,-54.7125 134,-46.1124"/>
<polygon fill="black" stroke="black" points="137.5,-46.1043 134,-36.1043 130.5,-46.1044 137.5,-46.1043"/>
</g>
<!-- EXPONENTIAL_GROWTH_DECAY -->
<g id="node2" class="node"><title>EXPONENTIAL_GROWTH_DECAY</title>
<a xlink:href="EXPONENTIAL_GROWTH_DECAY.html" xlink:title="Exponential growth/decay" target="_top">
<polyline fill="none" stroke="black" points="204,-180 64,-180 "/>
<path fill="none" stroke="black" d="M64,-180C58,-180 52,-174 52,-168"/>
<polyline fill="none" stroke="black" points="52,-168 52,-156 "/>
<path fill="none" stroke="black" d="M52,-156C52,-150 58,-144 64,-144"/>
<polyline fill="none" stroke="black" points="64,-144 204,-144 "/>
<path fill="none" stroke="black" d="M204,-144C210,-144 216,-150 216,-156"/>
<polyline fill="none" stroke="black" points="216,-156 216,-168 "/>
<path fill="none" stroke="black" d="M216,-168C216,-174 210,-180 204,-180"/>
<text text-anchor="start" x="60.5" y="-156.5" font-family="Times,serif" font-size="14.00">Exponential growth/decay</text>
</a>
</g>
<!-- EXPONENTIAL_GROWTH_DECAY&#45;&gt;VARIABLE_SEPARABLE_DIFFERENTIAL_EQUATIONS -->
<g id="edge2" class="edge"><title>EXPONENTIAL_GROWTH_DECAY&#45;&gt;VARIABLE_SEPARABLE_DIFFERENTIAL_EQUATIONS</title>
<path fill="none" stroke="black" d="M134,-143.697C134,-135.983 134,-126.712 134,-118.112"/>
<polygon fill="black" stroke="black" points="137.5,-118.104 134,-108.104 130.5,-118.104 137.5,-118.104"/>
</g>
</g>
</svg>
