<?xml version="1.0" encoding="UTF-8" standalone="no"?>
<!DOCTYPE svg PUBLIC "-//W3C//DTD SVG 1.1//EN"
 "http://www.w3.org/Graphics/SVG/1.1/DTD/svg11.dtd">
<!-- Generated by graphviz version 2.26.3 (20100126.1600)
 -->
<!-- Title: _anonymous_0 Pages: 1 -->
<svg width="338pt" height="188pt"
 viewBox="0.00 0.00 338.00 188.00" xmlns="http://www.w3.org/2000/svg" xmlns:xlink="http://www.w3.org/1999/xlink">
<g id="graph1" class="graph" transform="scale(1 1) rotate(0) translate(4 184)">
<title>_anonymous_0</title>
<!-- VARIABLE_SEPARABLE_DIFFERENTIAL_EQUATIONS -->
<g id="node1" class="node"><title>VARIABLE_SEPARABLE_DIFFERENTIAL_EQUATIONS</title>
<a xlink:href="VARIABLE_SEPARABLE_DIFFERENTIAL_EQUATIONS.html" xlink:title="Variable separable differential equations" target="_top">
<polyline fill="none" stroke="blue" stroke-width="2" points="300,-108 30,-108 "/>
<path fill="none" stroke="blue" stroke-width="2" d="M30,-108C24,-108 18,-102 18,-96"/>
<polyline fill="none" stroke="blue" stroke-width="2" points="18,-96 18,-84 "/>
<path fill="none" stroke="blue" stroke-width="2" d="M18,-84C18,-78 24,-72 30,-72"/>
<polyline fill="none" stroke="blue" stroke-width="2" points="30,-72 300,-72 "/>
<path fill="none" stroke="blue" stroke-width="2" d="M300,-72C306,-72 312,-78 312,-84"/>
<polyline fill="none" stroke="blue" stroke-width="2" points="312,-84 312,-96 "/>
<path fill="none" stroke="blue" stroke-width="2" d="M312,-96C312,-102 306,-108 300,-108"/>
<text text-anchor="start" x="26" y="-87.2333" font-family="Times Roman,serif" font-size="14.00">Variable separable differential equations</text>
</a>
</g>
<!-- SOVING_DIFFERENTIAL_EQUATIONS_USING_INTEGRATING_FACTORS -->
<g id="node4" class="node"><title>SOVING_DIFFERENTIAL_EQUATIONS_USING_INTEGRATING_FACTORS</title>
<a xlink:href="SOVING_DIFFERENTIAL_EQUATIONS_USING_INTEGRATING_FACTORS.html" xlink:title="Differential equations and integrating factors" target="_top">
<polyline fill="none" stroke="black" points="318,-36 12,-36 "/>
<path fill="none" stroke="black" d="M12,-36C6,-36 1.18424e-13,-30 9.4739e-14,-24"/>
<polyline fill="none" stroke="black" points="9.4739e-14,-24 4.73695e-14,-12 "/>
<path fill="none" stroke="black" d="M4.73695e-14,-12C2.36848e-14,-6 6,-1.75052e-14 12,-1.72468e-14"/>
<polyline fill="none" stroke="black" points="12,-1.72468e-14 318,-4.06947e-15 "/>
<path fill="none" stroke="black" d="M318,-4.06947e-15C324,-3.81109e-15 330,-6 330,-12"/>
<polyline fill="none" stroke="black" points="330,-12 330,-24 "/>
<path fill="none" stroke="black" d="M330,-24C330,-30 324,-36 318,-36"/>
<text text-anchor="start" x="8.5" y="-15.2333" font-family="Times Roman,serif" font-size="14.00">Differential equations and integrating factors</text>
</a>
</g>
<!-- VARIABLE_SEPARABLE_DIFFERENTIAL_EQUATIONS&#45;&gt;SOVING_DIFFERENTIAL_EQUATIONS_USING_INTEGRATING_FACTORS -->
<g id="edge4" class="edge"><title>VARIABLE_SEPARABLE_DIFFERENTIAL_EQUATIONS&#45;&gt;SOVING_DIFFERENTIAL_EQUATIONS_USING_INTEGRATING_FACTORS</title>
<path fill="none" stroke="black" d="M165,-71.8314C165,-64.131 165,-54.9743 165,-46.4166"/>
<polygon fill="black" stroke="black" points="168.5,-46.4132 165,-36.4133 161.5,-46.4133 168.5,-46.4132"/>
</g>
<!-- EXPONENTIAL_GROWTH_DECAY -->
<g id="node2" class="node"><title>EXPONENTIAL_GROWTH_DECAY</title>
<a xlink:href="EXPONENTIAL_GROWTH_DECAY.html" xlink:title="Exponential growth/decay" target="_top">
<polyline fill="none" stroke="black" points="252,-180 78,-180 "/>
<path fill="none" stroke="black" d="M78,-180C72,-180 66,-174 66,-168"/>
<polyline fill="none" stroke="black" points="66,-168 66,-156 "/>
<path fill="none" stroke="black" d="M66,-156C66,-150 72,-144 78,-144"/>
<polyline fill="none" stroke="black" points="78,-144 252,-144 "/>
<path fill="none" stroke="black" d="M252,-144C258,-144 264,-150 264,-156"/>
<polyline fill="none" stroke="black" points="264,-156 264,-168 "/>
<path fill="none" stroke="black" d="M264,-168C264,-174 258,-180 252,-180"/>
<text text-anchor="start" x="74.5" y="-159.233" font-family="Times Roman,serif" font-size="14.00">Exponential growth/decay</text>
</a>
</g>
<!-- EXPONENTIAL_GROWTH_DECAY&#45;&gt;VARIABLE_SEPARABLE_DIFFERENTIAL_EQUATIONS -->
<g id="edge2" class="edge"><title>EXPONENTIAL_GROWTH_DECAY&#45;&gt;VARIABLE_SEPARABLE_DIFFERENTIAL_EQUATIONS</title>
<path fill="none" stroke="black" d="M165,-143.831C165,-136.131 165,-126.974 165,-118.417"/>
<polygon fill="black" stroke="black" points="168.5,-118.413 165,-108.413 161.5,-118.413 168.5,-118.413"/>
</g>
</g>
</svg>
