<?xml version="1.0" encoding="UTF-8" standalone="no"?>
<!DOCTYPE svg PUBLIC "-//W3C//DTD SVG 1.1//EN"
 "http://www.w3.org/Graphics/SVG/1.1/DTD/svg11.dtd">
<!-- Generated by graphviz version 2.28.0 (20110509.1545)
 -->
<!-- Title: _anonymous_0 Pages: 1 -->
<svg width="349pt" height="188pt"
 viewBox="0.00 0.00 349.00 188.00" xmlns="http://www.w3.org/2000/svg" xmlns:xlink="http://www.w3.org/1999/xlink">
<g id="graph1" class="graph" transform="scale(1 1) rotate(0) translate(4 184)">
<title>_anonymous_0</title>
<!-- VARIANCE -->
<g id="node1" class="node"><title>VARIANCE</title>
<a xlink:href="VARIANCE.html" xlink:title="Variance " target="_top">
<polyline fill="none" stroke="blue" stroke-width="2" points="194.25,-108 149.75,-108 "/>
<path fill="none" stroke="blue" stroke-width="2" d="M149.75,-108C143.75,-108 137.75,-102 137.75,-96"/>
<polyline fill="none" stroke="blue" stroke-width="2" points="137.75,-96 137.75,-84 "/>
<path fill="none" stroke="blue" stroke-width="2" d="M137.75,-84C137.75,-78 143.75,-72 149.75,-72"/>
<polyline fill="none" stroke="blue" stroke-width="2" points="149.75,-72 194.25,-72 "/>
<path fill="none" stroke="blue" stroke-width="2" d="M194.25,-72C200.25,-72 206.25,-78 206.25,-84"/>
<polyline fill="none" stroke="blue" stroke-width="2" points="206.25,-84 206.25,-96 "/>
<path fill="none" stroke="blue" stroke-width="2" d="M206.25,-96C206.25,-102 200.25,-108 194.25,-108"/>
<text text-anchor="start" x="146" y="-84.5" font-family="Times,serif" font-size="14.00">Variance </text>
</a>
</g>
<!-- BERNOULI_RANDOM_VARIABLE -->
<g id="node2" class="node"><title>BERNOULI_RANDOM_VARIABLE</title>
<a xlink:href="BERNOULI_RANDOM_VARIABLE.html" xlink:title="Bernoulli random variable" target="_top">
<polyline fill="none" stroke="black" points="152,-36 12,-36 "/>
<path fill="none" stroke="black" d="M12,-36C6,-36 0,-30 0,-24"/>
<polyline fill="none" stroke="black" points="0,-24 0,-12 "/>
<path fill="none" stroke="black" d="M0,-12C0,-6 6,-0 12,-0"/>
<polyline fill="none" stroke="black" points="12,-0 152,-0 "/>
<path fill="none" stroke="black" d="M152,-0C158,-0 164,-6 164,-12"/>
<polyline fill="none" stroke="black" points="164,-12 164,-24 "/>
<path fill="none" stroke="black" d="M164,-24C164,-30 158,-36 152,-36"/>
<text text-anchor="start" x="8.5" y="-12.5" font-family="Times,serif" font-size="14.00">Bernoulli random variable</text>
</a>
</g>
<!-- VARIANCE&#45;&gt;BERNOULI_RANDOM_VARIABLE -->
<g id="edge2" class="edge"><title>VARIANCE&#45;&gt;BERNOULI_RANDOM_VARIABLE</title>
<path fill="none" stroke="black" d="M149.753,-71.6966C138.418,-62.8807 124.47,-52.0321 112.181,-42.4742"/>
<polygon fill="black" stroke="black" points="114.034,-39.481 103.991,-36.1043 109.736,-45.0065 114.034,-39.481"/>
</g>
<!-- CENTRAL_LIMIT_THEOREM -->
<g id="node4" class="node"><title>CENTRAL_LIMIT_THEOREM</title>
<a xlink:href="CENTRAL_LIMIT_THEOREM.html" xlink:title="The central limit theorem" target="_top">
<polyline fill="none" stroke="black" points="329.25,-36 194.75,-36 "/>
<path fill="none" stroke="black" d="M194.75,-36C188.75,-36 182.75,-30 182.75,-24"/>
<polyline fill="none" stroke="black" points="182.75,-24 182.75,-12 "/>
<path fill="none" stroke="black" d="M182.75,-12C182.75,-6 188.75,-0 194.75,-0"/>
<polyline fill="none" stroke="black" points="194.75,-0 329.25,-0 "/>
<path fill="none" stroke="black" d="M329.25,-0C335.25,-0 341.25,-6 341.25,-12"/>
<polyline fill="none" stroke="black" points="341.25,-12 341.25,-24 "/>
<path fill="none" stroke="black" d="M341.25,-24C341.25,-30 335.25,-36 329.25,-36"/>
<text text-anchor="start" x="191" y="-12.5" font-family="Times,serif" font-size="14.00">The central limit theorem</text>
</a>
</g>
<!-- VARIANCE&#45;&gt;CENTRAL_LIMIT_THEOREM -->
<g id="edge4" class="edge"><title>VARIANCE&#45;&gt;CENTRAL_LIMIT_THEOREM</title>
<path fill="none" stroke="black" d="M194.247,-71.6966C205.582,-62.8807 219.53,-52.0321 231.819,-42.4742"/>
<polygon fill="black" stroke="black" points="234.264,-45.0065 240.009,-36.1043 229.966,-39.481 234.264,-45.0065"/>
</g>
<!-- RANDOM_VARIABLES -->
<g id="node6" class="node"><title>RANDOM_VARIABLES</title>
<a xlink:href="RANDOM_VARIABLES.html" xlink:title="Random variables" target="_top">
<polyline fill="none" stroke="black" points="219,-180 125,-180 "/>
<path fill="none" stroke="black" d="M125,-180C119,-180 113,-174 113,-168"/>
<polyline fill="none" stroke="black" points="113,-168 113,-156 "/>
<path fill="none" stroke="black" d="M113,-156C113,-150 119,-144 125,-144"/>
<polyline fill="none" stroke="black" points="125,-144 219,-144 "/>
<path fill="none" stroke="black" d="M219,-144C225,-144 231,-150 231,-156"/>
<polyline fill="none" stroke="black" points="231,-156 231,-168 "/>
<path fill="none" stroke="black" d="M231,-168C231,-174 225,-180 219,-180"/>
<text text-anchor="start" x="121.5" y="-156.5" font-family="Times,serif" font-size="14.00">Random variables</text>
</a>
</g>
<!-- RANDOM_VARIABLES&#45;&gt;VARIANCE -->
<g id="edge6" class="edge"><title>RANDOM_VARIABLES&#45;&gt;VARIANCE</title>
<path fill="none" stroke="black" d="M172,-143.697C172,-135.983 172,-126.712 172,-118.112"/>
<polygon fill="black" stroke="black" points="175.5,-118.104 172,-108.104 168.5,-118.104 175.5,-118.104"/>
</g>
</g>
</svg>
