<?xml version="1.0" encoding="UTF-8" standalone="no"?>
<!DOCTYPE svg PUBLIC "-//W3C//DTD SVG 1.1//EN"
 "http://www.w3.org/Graphics/SVG/1.1/DTD/svg11.dtd">
<!-- Generated by graphviz version 2.28.0 (20110509.1545)
 -->
<!-- Title: _anonymous_0 Pages: 1 -->
<svg width="349pt" height="188pt"
 viewBox="0.00 0.00 349.00 188.00" xmlns="http://www.w3.org/2000/svg" xmlns:xlink="http://www.w3.org/1999/xlink">
<g id="graph1" class="graph" transform="scale(1 1) rotate(0) translate(4 184)">
<title>_anonymous_0</title>
<!-- VARIANCE -->
<g id="node1" class="node"><title>VARIANCE</title>
<a xlink:href="VARIANCE.html" xlink:title="Variance " target="_top">
<polyline fill="none" stroke="blue" stroke-width="2" points="194.25,-108 149.75,-108 "/>
<path fill="none" stroke="blue" stroke-width="2" d="M149.75,-108C143.75,-108 137.75,-102 137.75,-96"/>
<polyline fill="none" stroke="blue" stroke-width="2" points="137.75,-96 137.75,-84 "/>
<path fill="none" stroke="blue" stroke-width="2" d="M137.75,-84C137.75,-78 143.75,-72 149.75,-72"/>
<polyline fill="none" stroke="blue" stroke-width="2" points="149.75,-72 194.25,-72 "/>
<path fill="none" stroke="blue" stroke-width="2" d="M194.25,-72C200.25,-72 206.25,-78 206.25,-84"/>
<polyline fill="none" stroke="blue" stroke-width="2" points="206.25,-84 206.25,-96 "/>
<path fill="none" stroke="blue" stroke-width="2" d="M206.25,-96C206.25,-102 200.25,-108 194.25,-108"/>
<text text-anchor="start" x="146" y="-84.5" font-family="Times,serif" font-size="14.00">Variance </text>
</a>
</g>
<!-- BERNOULI_RANDOM_VARIABLE -->
<g id="node2" class="node"><title>BERNOULI_RANDOM_VARIABLE</title>
<a xlink:href="BERNOULI_RANDOM_VARIABLE.html" xlink:title="Bernoulli random variable" target="_top">
<polyline fill="none" stroke="black" points="152,-36 12,-36 "/>
<path fill="none" stroke="black" d="M12,-36C6,-36 0,-30 0,-24"/>
<polyline fill="none" stroke="black" points="0,-24 0,-12 "/>
<path fill="none" stroke="black" d="M0,-12C0,-6 6,-0 12,-0"/>
<polyline fill="none" stroke="black" points="12,-0 152,-0 "/>
<path fill="none" stroke="black" d="M152,-0C158,-0 164,-6 164,-12"/>
<polyline fill="none" stroke="black" points="164,-12 164,-24 "/>
<path fill="none" stroke="black" d="M164,-24C164,-30 158,-36 152,-36"/>
<text text-anchor="start" x="8.5" y="-12.5" font-family="Times,serif" font-size="14.00">Bernoulli random variable</text>
</a>
</g>
<!-- VARIANCE&#45;&gt;BERNOULI_RANDOM_VARIABLE -->
<g id="edge2" class="edge"><title>VARIANCE&#45;&gt;BERNOULI_RANDOM_VARIABLE</title>
<path fill="none" stroke="black" d="M149.753,-71.6966C138.418,-62.8807 124.47,-52.0321 112.181,-42.4742"/>
<polygon fill="black" stroke="black" points="114.034,-39.481 103.991,-36.1043 109.736,-45.0065 114.034,-39.481"/>
</g>
<!-- CENTRAL_LIMIT_THEOREM -->
<g id="node4" class="node"><title>CENTRAL_LIMIT_THEOREM</title>
<a xlink:href="CENTRAL_LIMIT_THEOREM.html" xlink:title="The central limit theorem" target="_top">
<polyline fill="none" stroke="black" points="329.25,-36 194.75,-36 "/>
<path fill="none" stroke="black" d="M194.75,-36C188.75,-36 182.75,-30 182.75,-24"/>
<polyline fill="none" stroke="black" points="182.75,-24 182.75,-12 "/>
<path fill="none" stroke="black" d="M182.75,-12C182.75,-6 188.75,-0 194.75,-0"/>
<polyline fill="none" stroke="black" points="194.75,-0 329.25,-0 "/>
<path fill="none" stroke="black" d="M329.25,-0C335.25,-0 341.25,-6 341.25,-12"/>
<polyline fill="none" stroke="black" points="341.25,-12 341.25,-24 "/>
<path fill="none" stroke="black" d="M341.25,-24C341.25,-30 335.25,-36 329.25,-36"/>
<text text-anchor="start" x="191" y="-12.5" font-family="Times,serif" font-size="14.00">The central limit theorem</text>
</a>
</g>
<!-- VARIANCE&#45;&gt;CENTRAL_LIMIT_THEOREM -->
<g id="edge4" class="edge"><title>VARIANCE&#45;&gt;CENTRAL_LIMIT_THEOREM</title>
<path fill="none" stroke="black" d="M194.247,-71.6966C205.582,-62.8807 219.53,-52.0321 231.819,-42.4742"/>
<polygon fill="black" stroke="black" points="234.264,-45.0065 240.009,-36.1043 229.966,-39.481 234.264,-45.0065"/>
</g>
<!-- EXPECTATION -->
<g id="node6" class="node"><title>EXPECTATION</title>
<a xlink:href="EXPECTATION.html" xlink:title="Expectation " target="_top">
<polyline fill="none" stroke="black" points="143.25,-180 80.75,-180 "/>
<path fill="none" stroke="black" d="M80.75,-180C74.75,-180 68.75,-174 68.75,-168"/>
<polyline fill="none" stroke="black" points="68.75,-168 68.75,-156 "/>
<path fill="none" stroke="black" d="M68.75,-156C68.75,-150 74.75,-144 80.75,-144"/>
<polyline fill="none" stroke="black" points="80.75,-144 143.25,-144 "/>
<path fill="none" stroke="black" d="M143.25,-144C149.25,-144 155.25,-150 155.25,-156"/>
<polyline fill="none" stroke="black" points="155.25,-156 155.25,-168 "/>
<path fill="none" stroke="black" d="M155.25,-168C155.25,-174 149.25,-180 143.25,-180"/>
<text text-anchor="start" x="77" y="-156.5" font-family="Times,serif" font-size="14.00">Expectation </text>
</a>
</g>
<!-- EXPECTATION&#45;&gt;VARIANCE -->
<g id="edge6" class="edge"><title>EXPECTATION&#45;&gt;VARIANCE</title>
<path fill="none" stroke="black" d="M126.831,-143.697C134.025,-135.305 142.797,-125.07 150.69,-115.861"/>
<polygon fill="black" stroke="black" points="153.489,-117.975 157.339,-108.104 148.174,-113.419 153.489,-117.975"/>
</g>
<!-- RANDOM_VARIABLES -->
<g id="node8" class="node"><title>RANDOM_VARIABLES</title>
<a xlink:href="RANDOM_VARIABLES.html" xlink:title="Random variables" target="_top">
<polyline fill="none" stroke="black" points="280,-180 186,-180 "/>
<path fill="none" stroke="black" d="M186,-180C180,-180 174,-174 174,-168"/>
<polyline fill="none" stroke="black" points="174,-168 174,-156 "/>
<path fill="none" stroke="black" d="M174,-156C174,-150 180,-144 186,-144"/>
<polyline fill="none" stroke="black" points="186,-144 280,-144 "/>
<path fill="none" stroke="black" d="M280,-144C286,-144 292,-150 292,-156"/>
<polyline fill="none" stroke="black" points="292,-156 292,-168 "/>
<path fill="none" stroke="black" d="M292,-168C292,-174 286,-180 280,-180"/>
<text text-anchor="start" x="182.5" y="-156.5" font-family="Times,serif" font-size="14.00">Random variables</text>
</a>
</g>
<!-- RANDOM_VARIABLES&#45;&gt;VARIANCE -->
<g id="edge8" class="edge"><title>RANDOM_VARIABLES&#45;&gt;VARIANCE</title>
<path fill="none" stroke="black" d="M217.921,-143.697C210.608,-135.305 201.69,-125.07 193.665,-115.861"/>
<polygon fill="black" stroke="black" points="196.114,-113.344 186.905,-108.104 190.836,-117.943 196.114,-113.344"/>
</g>
</g>
</svg>
