<?xml version="1.0" encoding="UTF-8" standalone="no"?>
<!DOCTYPE svg PUBLIC "-//W3C//DTD SVG 1.1//EN"
 "http://www.w3.org/Graphics/SVG/1.1/DTD/svg11.dtd">
<!-- Generated by graphviz version 2.28.0 (20110509.1545)
 -->
<!-- Title: _anonymous_0 Pages: 1 -->
<svg width="188pt" height="116pt"
 viewBox="0.00 0.00 188.00 116.00" xmlns="http://www.w3.org/2000/svg" xmlns:xlink="http://www.w3.org/1999/xlink">
<g id="graph1" class="graph" transform="scale(1 1) rotate(0) translate(4 112)">
<title>_anonymous_0</title>
<!-- VENN_DIAGRAMS -->
<g id="node1" class="node"><title>VENN_DIAGRAMS</title>
<a xlink:href="VENN_DIAGRAMS.html" xlink:title="Basic set theory" target="_top">
<polyline fill="none" stroke="blue" stroke-width="2" points="131,-108 49,-108 "/>
<path fill="none" stroke="blue" stroke-width="2" d="M49,-108C43,-108 37,-102 37,-96"/>
<polyline fill="none" stroke="blue" stroke-width="2" points="37,-96 37,-84 "/>
<path fill="none" stroke="blue" stroke-width="2" d="M37,-84C37,-78 43,-72 49,-72"/>
<polyline fill="none" stroke="blue" stroke-width="2" points="49,-72 131,-72 "/>
<path fill="none" stroke="blue" stroke-width="2" d="M131,-72C137,-72 143,-78 143,-84"/>
<polyline fill="none" stroke="blue" stroke-width="2" points="143,-84 143,-96 "/>
<path fill="none" stroke="blue" stroke-width="2" d="M143,-96C143,-102 137,-108 131,-108"/>
<text text-anchor="start" x="45.5" y="-84.5" font-family="Times,serif" font-size="14.00">Basic set theory</text>
</a>
</g>
<!-- INCLUSION_EXCLUSION -->
<g id="node2" class="node"><title>INCLUSION_EXCLUSION</title>
<a xlink:href="INCLUSION_EXCLUSION.html" xlink:title="Inclusion&#45;exclusion principle" target="_top">
<polyline fill="none" stroke="black" points="168,-36 12,-36 "/>
<path fill="none" stroke="black" d="M12,-36C6,-36 0,-30 0,-24"/>
<polyline fill="none" stroke="black" points="0,-24 0,-12 "/>
<path fill="none" stroke="black" d="M0,-12C0,-6 6,-0 12,-0"/>
<polyline fill="none" stroke="black" points="12,-0 168,-0 "/>
<path fill="none" stroke="black" d="M168,-0C174,-0 180,-6 180,-12"/>
<polyline fill="none" stroke="black" points="180,-12 180,-24 "/>
<path fill="none" stroke="black" d="M180,-24C180,-30 174,-36 168,-36"/>
<text text-anchor="start" x="8.5" y="-12.5" font-family="Times,serif" font-size="14.00">Inclusion&#45;exclusion principle</text>
</a>
</g>
<!-- VENN_DIAGRAMS&#45;&gt;INCLUSION_EXCLUSION -->
<g id="edge2" class="edge"><title>VENN_DIAGRAMS&#45;&gt;INCLUSION_EXCLUSION</title>
<path fill="none" stroke="black" d="M90,-71.6966C90,-63.9827 90,-54.7125 90,-46.1124"/>
<polygon fill="black" stroke="black" points="93.5001,-46.1043 90,-36.1043 86.5001,-46.1044 93.5001,-46.1043"/>
</g>
</g>
</svg>
