<?xml version="1.0" encoding="UTF-8" standalone="no"?>
<!DOCTYPE svg PUBLIC "-//W3C//DTD SVG 1.1//EN"
 "http://www.w3.org/Graphics/SVG/1.1/DTD/svg11.dtd">
<!-- Generated by graphviz version 2.26.3 (20100126.1600)
 -->
<!-- Title: _anonymous_0 Pages: 1 -->
<svg width="426pt" height="116pt"
 viewBox="0.00 0.00 426.00 116.00" xmlns="http://www.w3.org/2000/svg" xmlns:xlink="http://www.w3.org/1999/xlink">
<g id="graph1" class="graph" transform="scale(1 1) rotate(0) translate(4 112)">
<title>_anonymous_0</title>
<!-- VENN_DIAGRAMS -->
<g id="node1" class="node"><title>VENN_DIAGRAMS</title>
<a xlink:href="VENN_DIAGRAMS.html" xlink:title=" Basic set theory " target="_top">
<polyline fill="none" stroke="blue" stroke-width="2" points="275,-108 161,-108 "/>
<path fill="none" stroke="blue" stroke-width="2" d="M161,-108C155,-108 149,-102 149,-96"/>
<polyline fill="none" stroke="blue" stroke-width="2" points="149,-96 149,-84 "/>
<path fill="none" stroke="blue" stroke-width="2" d="M149,-84C149,-78 155,-72 161,-72"/>
<polyline fill="none" stroke="blue" stroke-width="2" points="161,-72 275,-72 "/>
<path fill="none" stroke="blue" stroke-width="2" d="M275,-72C281,-72 287,-78 287,-84"/>
<polyline fill="none" stroke="blue" stroke-width="2" points="287,-84 287,-96 "/>
<path fill="none" stroke="blue" stroke-width="2" d="M287,-96C287,-102 281,-108 275,-108"/>
<text text-anchor="start" x="157.5" y="-87.2333" font-family="Times Roman,serif" font-size="14.00"> Basic set theory </text>
</a>
</g>
<!-- INCLUSION_EXCLUSION -->
<g id="node2" class="node"><title>INCLUSION_EXCLUSION</title>
<a xlink:href="INCLUSION_EXCLUSION.html" xlink:title=" Inclusion&#45;exclusion principle " target="_top">
<polyline fill="none" stroke="black" points="206,-36 12,-36 "/>
<path fill="none" stroke="black" d="M12,-36C6,-36 9.4739e-14,-30 7.57912e-14,-24"/>
<polyline fill="none" stroke="black" points="7.57912e-14,-24 3.78956e-14,-12 "/>
<path fill="none" stroke="black" d="M3.78956e-14,-12C1.89478e-14,-6 6,-1.73724e-14 12,-1.69813e-14"/>
<polyline fill="none" stroke="black" points="12,-1.69813e-14 206,-4.33496e-15 "/>
<path fill="none" stroke="black" d="M206,-4.33496e-15C212,-3.94384e-15 218,-6 218,-12"/>
<polyline fill="none" stroke="black" points="218,-12 218,-24 "/>
<path fill="none" stroke="black" d="M218,-24C218,-30 212,-36 206,-36"/>
<text text-anchor="start" x="8" y="-15.2333" font-family="Times Roman,serif" font-size="14.00"> Inclusion&#45;exclusion principle </text>
</a>
</g>
<!-- VENN_DIAGRAMS&#45;&gt;INCLUSION_EXCLUSION -->
<g id="edge2" class="edge"><title>VENN_DIAGRAMS&#45;&gt;INCLUSION_EXCLUSION</title>
<path fill="none" stroke="black" d="M190.495,-71.8314C176.682,-62.7074 159.774,-51.539 144.947,-41.7449"/>
<polygon fill="black" stroke="black" points="146.77,-38.7541 136.497,-36.1628 142.911,-44.5949 146.77,-38.7541"/>
</g>
<!-- CONDITIONAL_PROBABILITY -->
<g id="node4" class="node"><title>CONDITIONAL_PROBABILITY</title>
<a xlink:href="CONDITIONAL_PROBABILITY.html" xlink:title=" Conditional probability " target="_top">
<polyline fill="none" stroke="black" points="406,-36 248,-36 "/>
<path fill="none" stroke="black" d="M248,-36C242,-36 236,-30 236,-24"/>
<polyline fill="none" stroke="black" points="236,-24 236,-12 "/>
<path fill="none" stroke="black" d="M236,-12C236,-6 242,-1.72951e-14 248,-1.68266e-14"/>
<polyline fill="none" stroke="black" points="248,-1.68266e-14 406,-4.48969e-15 "/>
<path fill="none" stroke="black" d="M406,-4.48969e-15C412,-4.0212e-15 418,-6 418,-12"/>
<polyline fill="none" stroke="black" points="418,-12 418,-24 "/>
<path fill="none" stroke="black" d="M418,-24C418,-30 412,-36 406,-36"/>
<text text-anchor="start" x="244.5" y="-15.2333" font-family="Times Roman,serif" font-size="14.00"> Conditional probability </text>
</a>
</g>
<!-- VENN_DIAGRAMS&#45;&gt;CONDITIONAL_PROBABILITY -->
<g id="edge4" class="edge"><title>VENN_DIAGRAMS&#45;&gt;CONDITIONAL_PROBABILITY</title>
<path fill="none" stroke="black" d="M245.505,-71.8314C259.318,-62.7074 276.226,-51.539 291.053,-41.7449"/>
<polygon fill="black" stroke="black" points="293.089,-44.5949 299.503,-36.1628 289.23,-38.7541 293.089,-44.5949"/>
</g>
</g>
</svg>
