<?xml version="1.0" encoding="UTF-8" standalone="no"?>
<!DOCTYPE svg PUBLIC "-//W3C//DTD SVG 1.1//EN"
 "http://www.w3.org/Graphics/SVG/1.1/DTD/svg11.dtd">
<!-- Generated by graphviz version 2.28.0 (20110509.1545)
 -->
<!-- Title: _anonymous_0 Pages: 1 -->
<svg width="354pt" height="116pt"
 viewBox="0.00 0.00 354.00 116.00" xmlns="http://www.w3.org/2000/svg" xmlns:xlink="http://www.w3.org/1999/xlink">
<g id="graph1" class="graph" transform="scale(1 1) rotate(0) translate(4 112)">
<title>_anonymous_0</title>
<!-- VENN_DIAGRAMS -->
<g id="node1" class="node"><title>VENN_DIAGRAMS</title>
<a xlink:href="VENN_DIAGRAMS.html" xlink:title="Basic set theory" target="_top">
<polyline fill="none" stroke="blue" stroke-width="2" points="206,-108 124,-108 "/>
<path fill="none" stroke="blue" stroke-width="2" d="M124,-108C118,-108 112,-102 112,-96"/>
<polyline fill="none" stroke="blue" stroke-width="2" points="112,-96 112,-84 "/>
<path fill="none" stroke="blue" stroke-width="2" d="M112,-84C112,-78 118,-72 124,-72"/>
<polyline fill="none" stroke="blue" stroke-width="2" points="124,-72 206,-72 "/>
<path fill="none" stroke="blue" stroke-width="2" d="M206,-72C212,-72 218,-78 218,-84"/>
<polyline fill="none" stroke="blue" stroke-width="2" points="218,-84 218,-96 "/>
<path fill="none" stroke="blue" stroke-width="2" d="M218,-96C218,-102 212,-108 206,-108"/>
<text text-anchor="start" x="120.5" y="-84.5" font-family="Times,serif" font-size="14.00">Basic set theory</text>
</a>
</g>
<!-- CONDITIONAL_PROBABILITY -->
<g id="node2" class="node"><title>CONDITIONAL_PROBABILITY</title>
<a xlink:href="CONDITIONAL_PROBABILITY.html" xlink:title="Conditional probability" target="_top">
<polyline fill="none" stroke="black" points="136,-36 12,-36 "/>
<path fill="none" stroke="black" d="M12,-36C6,-36 0,-30 0,-24"/>
<polyline fill="none" stroke="black" points="0,-24 0,-12 "/>
<path fill="none" stroke="black" d="M0,-12C0,-6 6,-0 12,-0"/>
<polyline fill="none" stroke="black" points="12,-0 136,-0 "/>
<path fill="none" stroke="black" d="M136,-0C142,-0 148,-6 148,-12"/>
<polyline fill="none" stroke="black" points="148,-12 148,-24 "/>
<path fill="none" stroke="black" d="M148,-24C148,-30 142,-36 136,-36"/>
<text text-anchor="start" x="8.5" y="-12.5" font-family="Times,serif" font-size="14.00">Conditional probability</text>
</a>
</g>
<!-- VENN_DIAGRAMS&#45;&gt;CONDITIONAL_PROBABILITY -->
<g id="edge2" class="edge"><title>VENN_DIAGRAMS&#45;&gt;CONDITIONAL_PROBABILITY</title>
<path fill="none" stroke="black" d="M142.506,-71.6966C131.045,-62.8807 116.942,-52.0321 104.516,-42.4742"/>
<polygon fill="black" stroke="black" points="106.296,-39.4273 96.2356,-36.1043 102.028,-44.9757 106.296,-39.4273"/>
</g>
<!-- INCLUSION_EXCLUSION -->
<g id="node4" class="node"><title>INCLUSION_EXCLUSION</title>
<a xlink:href="INCLUSION_EXCLUSION.html" xlink:title="Inclusion&#45;exclusion principle" target="_top">
<polyline fill="none" stroke="black" points="334,-36 178,-36 "/>
<path fill="none" stroke="black" d="M178,-36C172,-36 166,-30 166,-24"/>
<polyline fill="none" stroke="black" points="166,-24 166,-12 "/>
<path fill="none" stroke="black" d="M166,-12C166,-6 172,-0 178,-0"/>
<polyline fill="none" stroke="black" points="178,-0 334,-0 "/>
<path fill="none" stroke="black" d="M334,-0C340,-0 346,-6 346,-12"/>
<polyline fill="none" stroke="black" points="346,-12 346,-24 "/>
<path fill="none" stroke="black" d="M346,-24C346,-30 340,-36 334,-36"/>
<text text-anchor="start" x="174.5" y="-12.5" font-family="Times,serif" font-size="14.00">Inclusion&#45;exclusion principle</text>
</a>
</g>
<!-- VENN_DIAGRAMS&#45;&gt;INCLUSION_EXCLUSION -->
<g id="edge4" class="edge"><title>VENN_DIAGRAMS&#45;&gt;INCLUSION_EXCLUSION</title>
<path fill="none" stroke="black" d="M187.494,-71.6966C198.955,-62.8807 213.058,-52.0321 225.484,-42.4742"/>
<polygon fill="black" stroke="black" points="227.972,-44.9757 233.764,-36.1043 223.704,-39.4273 227.972,-44.9757"/>
</g>
</g>
</svg>
