<?xml version="1.0" encoding="UTF-8" standalone="no"?>
<!DOCTYPE svg PUBLIC "-//W3C//DTD SVG 1.1//EN"
 "http://www.w3.org/Graphics/SVG/1.1/DTD/svg11.dtd">
<!-- Generated by graphviz version 2.26.3 (20100126.1600)
 -->
<!-- Title: _anonymous_0 Pages: 1 -->
<svg width="408pt" height="116pt"
 viewBox="0.00 0.00 408.00 116.00" xmlns="http://www.w3.org/2000/svg" xmlns:xlink="http://www.w3.org/1999/xlink">
<g id="graph1" class="graph" transform="scale(1 1) rotate(0) translate(4 112)">
<title>_anonymous_0</title>
<!-- VENN_DIAGRAMS -->
<g id="node1" class="node"><title>VENN_DIAGRAMS</title>
<a xlink:href="VENN_DIAGRAMS.html" xlink:title="Basic set theory" target="_top">
<polyline fill="none" stroke="blue" stroke-width="2" points="242,-108 138,-108 "/>
<path fill="none" stroke="blue" stroke-width="2" d="M138,-108C132,-108 126,-102 126,-96"/>
<polyline fill="none" stroke="blue" stroke-width="2" points="126,-96 126,-84 "/>
<path fill="none" stroke="blue" stroke-width="2" d="M126,-84C126,-78 132,-72 138,-72"/>
<polyline fill="none" stroke="blue" stroke-width="2" points="138,-72 242,-72 "/>
<path fill="none" stroke="blue" stroke-width="2" d="M242,-72C248,-72 254,-78 254,-84"/>
<polyline fill="none" stroke="blue" stroke-width="2" points="254,-84 254,-96 "/>
<path fill="none" stroke="blue" stroke-width="2" d="M254,-96C254,-102 248,-108 242,-108"/>
<text text-anchor="start" x="134" y="-87.2333" font-family="Times Roman,serif" font-size="14.00">Basic set theory</text>
</a>
</g>
<!-- CONDITIONAL_PROBABILITY -->
<g id="node2" class="node"><title>CONDITIONAL_PROBABILITY</title>
<a xlink:href="CONDITIONAL_PROBABILITY.html" xlink:title="Conditional probability" target="_top">
<polyline fill="none" stroke="black" points="160,-36 12,-36 "/>
<path fill="none" stroke="black" d="M12,-36C6,-36 7.10543e-14,-30 5.68434e-14,-24"/>
<polyline fill="none" stroke="black" points="5.68434e-14,-24 2.84217e-14,-12 "/>
<path fill="none" stroke="black" d="M2.84217e-14,-12C1.42109e-14,-6 6,-1.72678e-14 12,-1.67721e-14"/>
<polyline fill="none" stroke="black" points="12,-1.67721e-14 160,-4.54417e-15 "/>
<path fill="none" stroke="black" d="M160,-4.54417e-15C166,-4.04844e-15 172,-6 172,-12"/>
<polyline fill="none" stroke="black" points="172,-12 172,-24 "/>
<path fill="none" stroke="black" d="M172,-24C172,-30 166,-36 160,-36"/>
<text text-anchor="start" x="8" y="-15.2333" font-family="Times Roman,serif" font-size="14.00">Conditional probability</text>
</a>
</g>
<!-- VENN_DIAGRAMS&#45;&gt;CONDITIONAL_PROBABILITY -->
<g id="edge2" class="edge"><title>VENN_DIAGRAMS&#45;&gt;CONDITIONAL_PROBABILITY</title>
<path fill="none" stroke="black" d="M163.756,-71.8314C150.701,-62.7927 134.747,-51.7476 120.695,-42.0198"/>
<polygon fill="black" stroke="black" points="122.449,-38.9773 112.235,-36.1628 118.465,-44.7326 122.449,-38.9773"/>
</g>
<!-- INCLUSION_EXCLUSION -->
<g id="node4" class="node"><title>INCLUSION_EXCLUSION</title>
<a xlink:href="INCLUSION_EXCLUSION.html" xlink:title="Inclusion&#45;exclusion principle" target="_top">
<polyline fill="none" stroke="black" points="388,-36 202,-36 "/>
<path fill="none" stroke="black" d="M202,-36C196,-36 190,-30 190,-24"/>
<polyline fill="none" stroke="black" points="190,-24 190,-12 "/>
<path fill="none" stroke="black" d="M190,-12C190,-6 196,-1.73575e-14 202,-1.69515e-14"/>
<polyline fill="none" stroke="black" points="202,-1.69515e-14 388,-4.36476e-15 "/>
<path fill="none" stroke="black" d="M388,-4.36476e-15C394,-3.95874e-15 400,-6 400,-12"/>
<polyline fill="none" stroke="black" points="400,-12 400,-24 "/>
<path fill="none" stroke="black" d="M400,-24C400,-30 394,-36 388,-36"/>
<text text-anchor="start" x="198.5" y="-15.2333" font-family="Times Roman,serif" font-size="14.00">Inclusion&#45;exclusion principle</text>
</a>
</g>
<!-- VENN_DIAGRAMS&#45;&gt;INCLUSION_EXCLUSION -->
<g id="edge4" class="edge"><title>VENN_DIAGRAMS&#45;&gt;INCLUSION_EXCLUSION</title>
<path fill="none" stroke="black" d="M216.496,-71.8314C229.677,-62.7927 245.785,-51.7476 259.971,-42.0198"/>
<polygon fill="black" stroke="black" points="262.245,-44.7047 268.513,-36.1628 258.286,-38.9316 262.245,-44.7047"/>
</g>
</g>
</svg>
