<?xml version="1.0" encoding="UTF-8" standalone="no"?>
<!DOCTYPE svg PUBLIC "-//W3C//DTD SVG 1.1//EN"
 "http://www.w3.org/Graphics/SVG/1.1/DTD/svg11.dtd">
<!-- Generated by graphviz version 2.36.0 (20140111.2315)
 -->
<!-- Title: %3 Pages: 1 -->
<svg width="359pt" height="116pt"
 viewBox="0.00 0.00 359.00 116.00" xmlns="http://www.w3.org/2000/svg" xmlns:xlink="http://www.w3.org/1999/xlink">
<g id="graph0" class="graph" transform="scale(1 1) rotate(0) translate(4 112)">
<title>%3</title>
<!-- VENN_DIAGRAMS -->
<g id="node1" class="node"><title>VENN_DIAGRAMS</title>
<g id="a_node1"><a xlink:href="VENN_DIAGRAMS.html" xlink:title=" Basic set theory " target="_top">
<path fill="none" stroke="blue" stroke-width="2" d="M226.25,-108C226.25,-108 139.75,-108 139.75,-108 133.75,-108 127.75,-102 127.75,-96 127.75,-96 127.75,-84 127.75,-84 127.75,-78 133.75,-72 139.75,-72 139.75,-72 226.25,-72 226.25,-72 232.25,-72 238.25,-78 238.25,-84 238.25,-84 238.25,-96 238.25,-96 238.25,-102 232.25,-108 226.25,-108"/>
<text text-anchor="start" x="135.5" y="-86.3" font-family="Times,serif" font-size="14.00"> Basic set theory </text>
</a>
</g>
</g>
<!-- INCLUSION_EXCLUSION -->
<g id="node2" class="node"><title>INCLUSION_EXCLUSION</title>
<g id="a_node2"><a xlink:href="INCLUSION_EXCLUSION.html" xlink:title=" Inclusion&#45;exclusion principle " target="_top">
<path fill="none" stroke="black" d="M170,-36C170,-36 12,-36 12,-36 6,-36 0,-30 0,-24 0,-24 0,-12 0,-12 0,-6 6,-0 12,-0 12,-0 170,-0 170,-0 176,-0 182,-6 182,-12 182,-12 182,-24 182,-24 182,-30 176,-36 170,-36"/>
<text text-anchor="start" x="8" y="-14.3" font-family="Times,serif" font-size="14.00"> Inclusion&#45;exclusion principle </text>
</a>
</g>
</g>
<!-- VENN_DIAGRAMS&#45;&gt;INCLUSION_EXCLUSION -->
<g id="edge1" class="edge"><title>VENN_DIAGRAMS&#45;&gt;INCLUSION_EXCLUSION</title>
<path fill="none" stroke="black" d="M160.258,-71.6966C148.56,-62.796 134.139,-51.8232 121.49,-42.1989"/>
<polygon fill="black" stroke="black" points="123.558,-39.3742 113.48,-36.1043 119.319,-44.945 123.558,-39.3742"/>
</g>
<!-- CONDITIONAL_PROBABILITY -->
<g id="node3" class="node"><title>CONDITIONAL_PROBABILITY</title>
<g id="a_node3"><a xlink:href="CONDITIONAL_PROBABILITY.html" xlink:title=" Conditional probability " target="_top">
<path fill="none" stroke="black" d="M339.25,-36C339.25,-36 212.75,-36 212.75,-36 206.75,-36 200.75,-30 200.75,-24 200.75,-24 200.75,-12 200.75,-12 200.75,-6 206.75,-0 212.75,-0 212.75,-0 339.25,-0 339.25,-0 345.25,-0 351.25,-6 351.25,-12 351.25,-12 351.25,-24 351.25,-24 351.25,-30 345.25,-36 339.25,-36"/>
<text text-anchor="start" x="208.5" y="-14.3" font-family="Times,serif" font-size="14.00"> Conditional probability </text>
</a>
</g>
</g>
<!-- VENN_DIAGRAMS&#45;&gt;CONDITIONAL_PROBABILITY -->
<g id="edge2" class="edge"><title>VENN_DIAGRAMS&#45;&gt;CONDITIONAL_PROBABILITY</title>
<path fill="none" stroke="black" d="M205.989,-71.6966C217.814,-62.796 232.392,-51.8232 245.179,-42.1989"/>
<polygon fill="black" stroke="black" points="247.391,-44.9145 253.276,-36.1043 243.181,-39.3217 247.391,-44.9145"/>
</g>
</g>
</svg>
